<svg xmlns="http://www.w3.org/2000/svg" viewBox="0 0 46.5 28.43"><defs><style>.cls-1,.cls-2,.cls-3{fill:none;}.cls-1{stroke:#ea367b;stroke-width:6.6px;}.cls-1,.cls-3{stroke-linejoin:round;}.cls-3{stroke:#2794da;stroke-linecap:round;stroke-width:0.25px;}.cls-4{fill:#fff;}</style></defs><title>14l</title><g id="Layer_2" data-name="Layer 2"><g id="barra_lateral_derecha" data-name="barra lateral derecha"><path class="cls-1" d="M14.35,20a5.88,5.88,0,0,1-.94,3.74,3.54,3.54,0,0,1-2.85,1.11,4.58,4.58,0,0,1-2-.39,2.55,2.55,0,0,1-1.18-1.42,8.23,8.23,0,0,1-.43-2.78L6.85,8.22A5.12,5.12,0,0,1,4.3,7.65a2,2,0,0,1-1-1.89A2.12,2.12,0,0,1,4.22,4a4.15,4.15,0,0,1,2.57-.7l1.83,0h1.67a4.73,4.73,0,0,1,3.21.8,3.73,3.73,0,0,1,.83,2.76Z"/><path class="cls-1" d="M17.32,22.67a2.13,2.13,0,0,1,.92-1.78,4.38,4.38,0,0,1,2.61-.68c2.35,0,3.52.82,3.52,2.46a2.36,2.36,0,0,1-.45,1.51,2.27,2.27,0,0,1-1.2.76,8.13,8.13,0,0,1-1.88.19,5,5,0,0,1-2.52-.58A2,2,0,0,1,17.32,22.67Z"/><path class="cls-1" d="M37,24.87a3.41,3.41,0,0,1-2.78-1.05,5.88,5.88,0,0,1-.87-3.67h-6a4.33,4.33,0,0,1-3.12-1,3.47,3.47,0,0,1-1-2.59,5.42,5.42,0,0,1,.88-3q2.29-3.58,5.18-7.76A5.31,5.31,0,0,1,33.93,3.3l2.81,0a4.82,4.82,0,0,1,3.2.79,3.71,3.71,0,0,1,.84,2.77v8.54a2.92,2.92,0,0,1,1.91.68,2.48,2.48,0,0,1,.52,1.74,2.18,2.18,0,0,1-.56,1.7,3.33,3.33,0,0,1-1.87.57,5.65,5.65,0,0,1-.94,3.65A3.52,3.52,0,0,1,37,24.87Zm-3.68-9.31.11-6.89L29.1,15.56Z"/><path class="cls-2" d="M14.35,20a5.88,5.88,0,0,1-.94,3.74,3.54,3.54,0,0,1-2.85,1.11,4.58,4.58,0,0,1-2-.39,2.55,2.55,0,0,1-1.18-1.42,8.23,8.23,0,0,1-.43-2.78L6.85,8.22A5.12,5.12,0,0,1,4.3,7.65a2,2,0,0,1-1-1.89A2.12,2.12,0,0,1,4.22,4a4.15,4.15,0,0,1,2.57-.7l1.83,0h1.67a4.73,4.73,0,0,1,3.21.8,3.73,3.73,0,0,1,.83,2.76Z"/><path class="cls-2" d="M17.32,22.67a2.13,2.13,0,0,1,.92-1.78,4.38,4.38,0,0,1,2.61-.68c2.35,0,3.52.82,3.52,2.46a2.36,2.36,0,0,1-.45,1.51,2.27,2.27,0,0,1-1.2.76,8.13,8.13,0,0,1-1.88.19,5,5,0,0,1-2.52-.58A2,2,0,0,1,17.32,22.67Z"/><path class="cls-3" d="M37,24.87a3.41,3.41,0,0,1-2.78-1.05,5.88,5.88,0,0,1-.87-3.67h-6a4.33,4.33,0,0,1-3.12-1,3.47,3.47,0,0,1-1-2.59,5.42,5.42,0,0,1,.88-3q2.29-3.58,5.18-7.76A5.31,5.31,0,0,1,33.93,3.3l2.81,0a4.82,4.82,0,0,1,3.2.79,3.71,3.71,0,0,1,.84,2.77v8.54a2.92,2.92,0,0,1,1.91.68,2.48,2.48,0,0,1,.52,1.74,2.18,2.18,0,0,1-.56,1.7,3.33,3.33,0,0,1-1.87.57,5.65,5.65,0,0,1-.94,3.65A3.52,3.52,0,0,1,37,24.87Zm-3.68-9.31.11-6.89L29.1,15.56Z"/><path class="cls-4" d="M14.35,20a5.88,5.88,0,0,1-.94,3.74,3.54,3.54,0,0,1-2.85,1.11,4.58,4.58,0,0,1-2-.39,2.55,2.55,0,0,1-1.18-1.42,8.23,8.23,0,0,1-.43-2.78L6.85,8.22A5.12,5.12,0,0,1,4.3,7.65a2,2,0,0,1-1-1.89A2.12,2.12,0,0,1,4.22,4a4.15,4.15,0,0,1,2.57-.7l1.83,0h1.67a4.73,4.73,0,0,1,3.21.8,3.73,3.73,0,0,1,.83,2.76Z"/><path class="cls-4" d="M17.32,22.67a2.13,2.13,0,0,1,.92-1.78,4.38,4.38,0,0,1,2.61-.68c2.35,0,3.52.82,3.52,2.46a2.36,2.36,0,0,1-.45,1.51,2.27,2.27,0,0,1-1.2.76,8.13,8.13,0,0,1-1.88.19,5,5,0,0,1-2.52-.58A2,2,0,0,1,17.32,22.67Z"/><path class="cls-4" d="M37,24.87a3.41,3.41,0,0,1-2.78-1.05,5.88,5.88,0,0,1-.87-3.67h-6a4.33,4.33,0,0,1-3.12-1,3.47,3.47,0,0,1-1-2.59,5.42,5.42,0,0,1,.88-3q2.29-3.58,5.18-7.76A5.31,5.31,0,0,1,33.93,3.3l2.81,0a4.82,4.82,0,0,1,3.2.79,3.71,3.71,0,0,1,.84,2.77v8.54a2.92,2.92,0,0,1,1.91.68,2.48,2.48,0,0,1,.52,1.74,2.18,2.18,0,0,1-.56,1.7,3.33,3.33,0,0,1-1.87.57,5.65,5.65,0,0,1-.94,3.65A3.52,3.52,0,0,1,37,24.87Zm-3.68-9.31.11-6.89L29.1,15.56Z"/></g></g></svg>