<svg xmlns="http://www.w3.org/2000/svg" viewBox="0 0 43.74 28.38"><defs><style>.cls-1{fill:none;stroke:#ea367b;stroke-width:6.55px;}.cls-2{fill:#fff;}</style></defs><title>17l</title><g id="Layer_2" data-name="Layer 2"><g id="barra_lateral_derecha" data-name="barra lateral derecha"><path class="cls-1" d="M14.14,20a5.84,5.84,0,0,1-.93,3.73,3.4,3.4,0,0,1-2.8,1.12,4.39,4.39,0,0,1-2-.39A2.48,2.48,0,0,1,7.25,23a8.23,8.23,0,0,1-.43-2.78L6.77,8.2a5,5,0,0,1-2.51-.57,2,2,0,0,1-1-1.89A2.14,2.14,0,0,1,4.18,4a4,4,0,0,1,2.53-.7l1.8,0h1.64a4.65,4.65,0,0,1,3.16.79,3.76,3.76,0,0,1,.81,2.77Z"/><path class="cls-1" d="M17.07,22.65a2.13,2.13,0,0,1,.9-1.78,4.25,4.25,0,0,1,2.57-.68c2.31,0,3.46.82,3.46,2.46a2.33,2.33,0,0,1-.45,1.5,2.13,2.13,0,0,1-1.17.76,7.36,7.36,0,0,1-1.85.2,4.89,4.89,0,0,1-2.48-.58A2,2,0,0,1,17.07,22.65Z"/><path class="cls-1" d="M25.94,21.45a14.34,14.34,0,0,1,.53-3.62,21.44,21.44,0,0,1,1.28-3.53c.5-1.05,1-2,1.51-2.92s.94-1.59,1.28-2.09l.54-.78H26.69a4,4,0,0,1-2.56-.58,2.43,2.43,0,0,1-.68-2c0-1.1.26-1.82.78-2.15A5.47,5.47,0,0,1,27,3.31l9.42,0a6,6,0,0,1,3.17.62,2.92,2.92,0,0,1,.9,2.55c0,.13,0,.26,0,.39a1.17,1.17,0,0,1-.08.37,3.19,3.19,0,0,0-.09.31,1,1,0,0,1-.15.31L40,8.09a1.73,1.73,0,0,1-.23.29,2.85,2.85,0,0,0-.24.28L39.23,9l-.32.35A22.18,22.18,0,0,0,35,15.21a26,26,0,0,0-1.76,6,5.64,5.64,0,0,1-1.08,3,3.93,3.93,0,0,1-2.61.65A3.74,3.74,0,0,1,26.86,24,3.34,3.34,0,0,1,25.94,21.45Z"/><path class="cls-2" d="M14.14,20a5.84,5.84,0,0,1-.93,3.73,3.4,3.4,0,0,1-2.8,1.12,4.39,4.39,0,0,1-2-.39A2.48,2.48,0,0,1,7.25,23a8.23,8.23,0,0,1-.43-2.78L6.77,8.2a5,5,0,0,1-2.51-.57,2,2,0,0,1-1-1.89A2.14,2.14,0,0,1,4.18,4a4,4,0,0,1,2.53-.7l1.8,0h1.64a4.65,4.65,0,0,1,3.16.79,3.76,3.76,0,0,1,.81,2.77Z"/><path class="cls-2" d="M17.07,22.65a2.13,2.13,0,0,1,.9-1.78,4.25,4.25,0,0,1,2.57-.68c2.31,0,3.46.82,3.46,2.46a2.33,2.33,0,0,1-.45,1.5,2.13,2.13,0,0,1-1.17.76,7.36,7.36,0,0,1-1.85.2,4.89,4.89,0,0,1-2.48-.58A2,2,0,0,1,17.07,22.65Z"/><path class="cls-2" d="M25.94,21.45a14.34,14.34,0,0,1,.53-3.62,21.44,21.44,0,0,1,1.28-3.53c.5-1.05,1-2,1.51-2.92s.94-1.59,1.28-2.09l.54-.78H26.69a4,4,0,0,1-2.56-.58,2.43,2.43,0,0,1-.68-2c0-1.1.26-1.82.78-2.15A5.47,5.47,0,0,1,27,3.31l9.42,0a6,6,0,0,1,3.17.62,2.92,2.92,0,0,1,.9,2.55c0,.13,0,.26,0,.39a1.17,1.17,0,0,1-.08.37,3.19,3.19,0,0,0-.09.31,1,1,0,0,1-.15.31L40,8.09a1.73,1.73,0,0,1-.23.29,2.85,2.85,0,0,0-.24.28L39.23,9l-.32.35A22.18,22.18,0,0,0,35,15.21a26,26,0,0,0-1.76,6,5.64,5.64,0,0,1-1.08,3,3.93,3.93,0,0,1-2.61.65A3.74,3.74,0,0,1,26.86,24,3.34,3.34,0,0,1,25.94,21.45Z"/></g></g></svg>