<?xml version="1.0" encoding="utf-8"?>
<!-- Generator: Adobe Illustrator 24.0.2, SVG Export Plug-In . SVG Version: 6.00 Build 0)  -->
<svg version="1.1" id="Layer_1" xmlns="http://www.w3.org/2000/svg" xmlns:xlink="http://www.w3.org/1999/xlink" x="0px" y="0px"
	 viewBox="0 0 47.5 28.5" style="enable-background:new 0 0 47.5 28.5;" xml:space="preserve">
<style type="text/css">
	.st0{fill:none;stroke:#EA367B;stroke-width:6.6;}
	.st1{fill:#FFFFFF;}
	.st2{fill:#EA367B;}
</style>
<title>18l</title>
<g id="Layer_2_1_">
	<g id="barra_lateral_derecha">
		<path class="st0" d="M14.4,20.1c0.1,1.3-0.2,2.6-0.9,3.7c-0.7,0.8-1.8,1.2-2.8,1.1c-0.7,0-1.4-0.1-2-0.4c-0.6-0.3-1-0.8-1.2-1.4
			c-0.3-0.9-0.4-1.8-0.4-2.8L6.8,8.3C6,8.3,5.1,8.1,4.3,7.7c-0.7-0.4-1.1-1.1-1-1.9c0-0.7,0.3-1.4,0.9-1.8C5,3.6,5.9,3.3,6.8,3.4
			h1.8h1.7c1.6,0,2.7,0.3,3.2,0.8C14.2,5,14.5,6,14.3,7L14.4,20.1z"/>
		<path class="st0" d="M17.3,22.7c0-0.7,0.3-1.3,0.9-1.7c0.8-0.5,1.7-0.7,2.6-0.7c2.4,0,3.5,0.8,3.5,2.5c0,0.5-0.1,1.1-0.5,1.5
			c-0.3,0.4-0.7,0.6-1.2,0.8c-0.6,0.1-1.2,0.2-1.9,0.2c-0.9,0-1.7-0.2-2.5-0.6C17.6,24.3,17.3,23.5,17.3,22.7z"/>
		<path class="st0" d="M35.4,25.2c-1.5,0-3-0.2-4.5-0.7c-1.2-0.4-2.3-1.2-3.2-2.1c-0.8-0.9-1.2-2.1-1.2-3.4
			c-0.1-2.2,1.2-4.3,3.3-5.2c-1.4-1-2.2-2.6-2.2-4.3c-0.1-1.8,0.8-3.4,2.2-4.4c1.7-1.1,3.6-1.7,5.7-1.6c2-0.1,4,0.5,5.7,1.6
			c1.4,1,2.2,2.7,2.2,4.4c0,1.7-0.8,3.3-2.2,4.3c2,1,3.3,3,3.2,5.2c0,1.9-0.9,3.6-2.5,4.6C39.8,24.7,37.6,25.2,35.4,25.2z M37,18.9
			c0-0.8-0.1-1.5-0.4-2.2c-0.1-0.6-0.6-1-1.2-1c-0.6,0-1.1,0.4-1.3,1c-0.3,0.7-0.5,1.4-0.5,2.2c0,0.5,0.1,1,0.2,1.5
			c0.1,0.4,0.3,0.8,0.6,1.2c0.2,0.3,0.6,0.5,1,0.5c0.6,0,1-0.4,1.2-0.9C36.9,20.3,37,19.6,37,18.9z M37,9.1c0-0.6-0.1-1.2-0.4-1.8
			c-0.2-0.5-0.6-0.8-1.1-0.8c-0.3,0-0.7,0.2-0.9,0.4c-0.3,0.3-0.5,0.6-0.6,1c-0.1,0.4-0.2,0.9-0.2,1.3c0,0.7,0.1,1.3,0.4,1.9
			c0.2,0.5,0.7,0.8,1.2,0.8c0.5,0,1-0.4,1.2-0.9C36.9,10.5,37,9.8,37,9.1z"/>
		<path class="st1" d="M14.4,20.1c0.1,1.3-0.2,2.6-0.9,3.7c-0.7,0.8-1.8,1.2-2.8,1.1c-0.7,0-1.4-0.1-2-0.4c-0.6-0.3-1-0.8-1.2-1.4
			c-0.3-0.9-0.4-1.8-0.4-2.8L6.8,8.3C6,8.3,5.1,8.1,4.3,7.7c-0.7-0.4-1.1-1.1-1-1.9c0-0.7,0.3-1.4,0.9-1.8C5,3.6,5.9,3.3,6.8,3.4
			h1.8h1.7c1.6,0,2.7,0.3,3.2,0.8C14.2,5,14.5,6,14.3,7L14.4,20.1z"/>
		<path class="st1" d="M17.3,22.7c0-0.7,0.3-1.3,0.9-1.7c0.8-0.5,1.7-0.7,2.6-0.7c2.4,0,3.5,0.8,3.5,2.5c0,0.5-0.1,1.1-0.5,1.5
			c-0.3,0.4-0.7,0.6-1.2,0.8c-0.6,0.1-1.2,0.2-1.9,0.2c-0.9,0-1.7-0.2-2.5-0.6C17.6,24.3,17.3,23.5,17.3,22.7z"/>
		<path class="st1" d="M35.4,25.2c-1.5,0-3-0.2-4.5-0.7c-1.2-0.4-2.3-1.2-3.2-2.1c-0.8-0.9-1.2-2.1-1.2-3.4
			c-0.1-2.2,1.2-4.3,3.3-5.2c-1.4-1-2.2-2.6-2.2-4.3c-0.1-1.8,0.8-3.4,2.2-4.4c1.7-1.1,3.6-1.7,5.7-1.6c2-0.1,4,0.5,5.7,1.6
			c1.4,1,2.2,2.7,2.2,4.4c0,1.7-0.8,3.3-2.2,4.3c2,1,3.3,3,3.2,5.2c0,1.9-0.9,3.6-2.5,4.6C39.8,24.7,37.6,25.2,35.4,25.2z M37,18.9
			c0-0.8-0.1-1.5-0.4-2.2c-0.1-0.6-0.6-1-1.2-1c-0.6,0-1.1,0.4-1.3,1c-0.3,0.7-0.5,1.4-0.5,2.2c0,0.5,0.1,1,0.2,1.5
			c0.1,0.4,0.3,0.8,0.6,1.2c0.2,0.3,0.6,0.5,1,0.5c0.6,0,1-0.4,1.2-0.9C36.9,20.3,37,19.6,37,18.9z M37,9.1c0-0.6-0.1-1.2-0.4-1.8
			c-0.2-0.5-0.6-0.8-1.1-0.8c-0.3,0-0.7,0.2-0.9,0.4c-0.3,0.3-0.5,0.6-0.6,1c-0.1,0.4-0.2,0.9-0.2,1.3c0,0.7,0.1,1.3,0.4,1.9
			c0.2,0.5,0.7,0.8,1.2,0.8c0.5,0,1-0.4,1.2-0.9C36.9,10.5,37,9.8,37,9.1z"/>
	</g>
</g>
<polygon class="st2" points="34.8,7.1 34.1,8.6 34.2,10.6 35.1,11.6 36.1,11.4 36.7,9.8 36.7,7.9 35.7,7.1 "/>
<polygon class="st2" points="34.8,16.7 34.1,18.2 34.2,20.2 35.1,21.2 36.1,21 36.7,19.4 36.7,17.5 35.7,16.7 "/>
</svg>
