<svg xmlns="http://www.w3.org/2000/svg" viewBox="0 0 42.08 28.43"><defs><style>.cls-1{fill:#24b2a0;}.cls-2{fill:#fff;}</style></defs><title>21</title><g id="Layer_2" data-name="Layer 2"><g id="barra_lateral_derecha" data-name="barra lateral derecha"><path class="cls-1" d="M16,28.4H7.21a8.33,8.33,0,0,1-5-1.23C.74,26.12,0,24.36,0,21.93a7.23,7.23,0,0,1,.25-2,5.88,5.88,0,0,1,1.08-2.09A7.36,7.36,0,0,1,3,16.29c.63-.42,1.19-.79,1.66-1.12a5.52,5.52,0,0,1-3.06-1.88A7.84,7.84,0,0,1,.17,8.21,7.43,7.43,0,0,1,3.56,2,12.74,12.74,0,0,1,11,0c3.71,0,6.52.77,8.6,2.35A9.07,9.07,0,0,1,23.1,10a14.06,14.06,0,0,1-.47,3.71,12.35,12.35,0,0,1-1.23,2.95l-.2.32.27.25a6.41,6.41,0,0,1,1.72,4.7,6.15,6.15,0,0,1-2,4.95A7.71,7.71,0,0,1,16,28.4ZM6.69,21.79H13.5l-1-4.32-.79.7c-.71.58-1.43,1.14-2.16,1.65S7.92,21,6.72,21.76ZM15.25,7.37a6.3,6.3,0,0,1,.48,2.53,13.19,13.19,0,0,1-.16,2.2,7.7,7.7,0,0,1-.63,2.05l.06,0a3.81,3.81,0,0,0,.75-.86,5.56,5.56,0,0,0,.52-1.31A7.62,7.62,0,0,0,16.5,10c0-1.71-.62-2.19-.89-2.39A3.17,3.17,0,0,0,15.25,7.37ZM6.8,8.83h.08a7,7,0,0,1,.38-1.35c-.49.37-.49.59-.49.74A5,5,0,0,0,6.8,8.83Z"/><path class="cls-1" d="M25.55,28.43a8.22,8.22,0,0,1-4.18-1,5.31,5.31,0,0,1-2.65-4.74A5.43,5.43,0,0,1,21,18.23a7.56,7.56,0,0,1,4.56-1.32,7.71,7.71,0,0,1,4.53,1.21,5.34,5.34,0,0,1,2.29,4.55,5.63,5.63,0,0,1-1.17,3.57,5.57,5.57,0,0,1-2.95,1.89A10.7,10.7,0,0,1,25.55,28.43ZM22,22.67h0Z"/><path class="cls-1" d="M35,28.17a7.68,7.68,0,0,1-3.52-.74,5.75,5.75,0,0,1-2.77-3.17A11.24,11.24,0,0,1,28,20.34L28,11a8.14,8.14,0,0,1-.89-.43,5.28,5.28,0,0,1-2.68-4.77,5.43,5.43,0,0,1,2.24-4.39A7.41,7.41,0,0,1,31.23,0L33.1,0h1.62c1.6,0,3.91.18,5.5,1.72a6.83,6.83,0,0,1,1.84,5.14l0,13.13a8.79,8.79,0,0,1-1.72,5.86A6.68,6.68,0,0,1,35,28.17Zm-.22-6.6a3.24,3.24,0,0,0,.56,0A6.48,6.48,0,0,0,35.48,20l0-13.12a1.77,1.77,0,0,0,0-.24c-.21,0-.46,0-.87,0l.06,13.63A6.34,6.34,0,0,0,34.77,21.57Z"/><path class="cls-2" d="M13.59,18.89h3.59c1.81,0,2.71,1,2.71,3A3.06,3.06,0,0,1,19,24.37,4.84,4.84,0,0,1,16,25.1H7.21a5.61,5.61,0,0,1-3.09-.6c-.55-.4-.82-1.26-.82-2.57a4.15,4.15,0,0,1,.13-1.12,2.66,2.66,0,0,1,.49-.92,4.2,4.2,0,0,1,1-.87c1.16-.78,2.08-1.4,2.75-1.88s1.32-1,2-1.5A10.22,10.22,0,0,0,11,14.28,7.42,7.42,0,0,0,11.83,13a4.71,4.71,0,0,0,.49-1.42,11.62,11.62,0,0,0,.11-1.68c0-1.21-.38-1.81-1.13-1.81s-1.23.71-1.23,2.13a1.51,1.51,0,0,1-.78,1.55A5.66,5.66,0,0,1,7,12.13a3.44,3.44,0,0,1-2.8-.91,4.78,4.78,0,0,1-.73-3,4.21,4.21,0,0,1,2-3.51A9.44,9.44,0,0,1,11,3.3q8.8,0,8.79,6.69a10.8,10.8,0,0,1-.35,2.83A8.41,8.41,0,0,1,18.57,15a6.81,6.81,0,0,1-1.41,1.63,13,13,0,0,1-1.66,1.26A21,21,0,0,1,13.59,18.89Z"/><path class="cls-2" d="M22,22.67A2.12,2.12,0,0,1,23,20.89a4.33,4.33,0,0,1,2.6-.68c2.35,0,3.53.82,3.52,2.46a2.36,2.36,0,0,1-.45,1.51,2.23,2.23,0,0,1-1.2.76,7.52,7.52,0,0,1-1.87.19A5,5,0,0,1,23,24.55,2,2,0,0,1,22,22.67Z"/><path class="cls-2" d="M38.78,20a5.83,5.83,0,0,1-.94,3.73A3.51,3.51,0,0,1,35,24.87a4.58,4.58,0,0,1-2-.39,2.55,2.55,0,0,1-1.18-1.42,8.23,8.23,0,0,1-.43-2.78L31.29,8.22a5.13,5.13,0,0,1-2.56-.57,2,2,0,0,1-1-1.89A2.12,2.12,0,0,1,28.65,4a4.19,4.19,0,0,1,2.58-.7l1.82,0h1.67a4.71,4.71,0,0,1,3.21.8,3.73,3.73,0,0,1,.83,2.76Z"/></g></g></svg>