<svg xmlns="http://www.w3.org/2000/svg" viewBox="0 0 51.41 28.43"><defs><style>.cls-1{fill:none;stroke:#ea367b;stroke-width:6.6px;}.cls-2{fill:#fff;}</style></defs><title>21l</title><g id="Layer_2" data-name="Layer 2"><g id="barra_lateral_derecha" data-name="barra lateral derecha"><path class="cls-1" d="M14.35,20a5.88,5.88,0,0,1-.94,3.74,3.54,3.54,0,0,1-2.85,1.11,4.58,4.58,0,0,1-2-.39,2.55,2.55,0,0,1-1.18-1.42,8.23,8.23,0,0,1-.43-2.78L6.85,8.22A5.12,5.12,0,0,1,4.3,7.65a2,2,0,0,1-1-1.89A2.12,2.12,0,0,1,4.22,4a4.15,4.15,0,0,1,2.57-.7l1.83,0h1.67a4.71,4.71,0,0,1,3.21.8,3.73,3.73,0,0,1,.83,2.76Z"/><path class="cls-1" d="M17.32,22.67a2.13,2.13,0,0,1,.92-1.78,4.38,4.38,0,0,1,2.61-.68c2.35,0,3.52.82,3.52,2.46a2.36,2.36,0,0,1-.45,1.51,2.27,2.27,0,0,1-1.2.76,7.61,7.61,0,0,1-1.88.19,5,5,0,0,1-2.52-.58A2,2,0,0,1,17.32,22.67Z"/><path class="cls-1" d="M34.07,20a5.82,5.82,0,0,1-.94,3.74,3.5,3.5,0,0,1-2.84,1.11,4.58,4.58,0,0,1-2-.39,2.51,2.51,0,0,1-1.18-1.42,8.23,8.23,0,0,1-.43-2.78L26.58,8.22A5.09,5.09,0,0,1,24,7.65a2,2,0,0,1-1-1.89A2.1,2.1,0,0,1,24,4a4.13,4.13,0,0,1,2.57-.7l1.83,0H30a4.81,4.81,0,0,1,3.22.79,3.76,3.76,0,0,1,.82,2.77Z"/><path class="cls-1" d="M48.11,20a5.88,5.88,0,0,1-.94,3.74,3.54,3.54,0,0,1-2.85,1.11,4.58,4.58,0,0,1-2-.39,2.5,2.5,0,0,1-1.17-1.42,8.2,8.2,0,0,1-.44-2.78L40.62,8.22a5.13,5.13,0,0,1-2.56-.57,2,2,0,0,1-1-1.89A2.12,2.12,0,0,1,38,4a4.19,4.19,0,0,1,2.58-.7l1.82,0h1.67a4.82,4.82,0,0,1,3.22.79,3.76,3.76,0,0,1,.82,2.77Z"/><path class="cls-2" d="M14.35,20a5.88,5.88,0,0,1-.94,3.74,3.54,3.54,0,0,1-2.85,1.11,4.58,4.58,0,0,1-2-.39,2.55,2.55,0,0,1-1.18-1.42,8.23,8.23,0,0,1-.43-2.78L6.85,8.22A5.12,5.12,0,0,1,4.3,7.65a2,2,0,0,1-1-1.89A2.12,2.12,0,0,1,4.22,4a4.15,4.15,0,0,1,2.57-.7l1.83,0h1.67a4.71,4.71,0,0,1,3.21.8,3.73,3.73,0,0,1,.83,2.76Z"/><path class="cls-2" d="M17.32,22.67a2.13,2.13,0,0,1,.92-1.78,4.38,4.38,0,0,1,2.61-.68c2.35,0,3.52.82,3.52,2.46a2.36,2.36,0,0,1-.45,1.51,2.27,2.27,0,0,1-1.2.76,7.61,7.61,0,0,1-1.88.19,5,5,0,0,1-2.52-.58A2,2,0,0,1,17.32,22.67Z"/><path class="cls-2" d="M34.07,20a5.82,5.82,0,0,1-.94,3.74,3.5,3.5,0,0,1-2.84,1.11,4.58,4.58,0,0,1-2-.39,2.51,2.51,0,0,1-1.18-1.42,8.23,8.23,0,0,1-.43-2.78L26.58,8.22A5.09,5.09,0,0,1,24,7.65a2,2,0,0,1-1-1.89A2.1,2.1,0,0,1,24,4a4.13,4.13,0,0,1,2.57-.7l1.83,0H30a4.81,4.81,0,0,1,3.22.79,3.76,3.76,0,0,1,.82,2.77Z"/><path class="cls-2" d="M48.11,20a5.88,5.88,0,0,1-.94,3.74,3.54,3.54,0,0,1-2.85,1.11,4.58,4.58,0,0,1-2-.39,2.5,2.5,0,0,1-1.17-1.42,8.2,8.2,0,0,1-.44-2.78L40.62,8.22a5.13,5.13,0,0,1-2.56-.57,2,2,0,0,1-1-1.89A2.12,2.12,0,0,1,38,4a4.19,4.19,0,0,1,2.58-.7l1.82,0h1.67a4.82,4.82,0,0,1,3.22.79,3.76,3.76,0,0,1,.82,2.77Z"/></g></g></svg>