<svg xmlns="http://www.w3.org/2000/svg" viewBox="0 0 51.16 28.43"><defs><style>.cls-1{fill:#24b2a0;}.cls-2{fill:#fff;}</style></defs><title>22</title><g id="Layer_2" data-name="Layer 2"><g id="barra_lateral_derecha" data-name="barra lateral derecha"><path class="cls-1" d="M16,28.4H7.21a8.33,8.33,0,0,1-5-1.23C.73,26.12,0,24.35,0,21.92a7.3,7.3,0,0,1,.25-2,5.88,5.88,0,0,1,1.08-2.09A7.51,7.51,0,0,1,3,16.29l1.67-1.12a5.52,5.52,0,0,1-3.06-1.88A7.84,7.84,0,0,1,.17,8.21,7.39,7.39,0,0,1,3.56,2,12.74,12.74,0,0,1,11,0c3.71,0,6.52.77,8.6,2.35A9.1,9.1,0,0,1,23.1,10a13.76,13.76,0,0,1-.48,3.71,11.79,11.79,0,0,1-1.22,2.95l-.2.32a5.2,5.2,0,0,1,.47.47,6.5,6.5,0,0,1,1.52,4.48,6.19,6.19,0,0,1-2,5A7.81,7.81,0,0,1,16,28.4ZM6.69,21.79H13.5l-1-4.32-.8.7c-.69.57-1.42,1.13-2.15,1.65S7.92,21,6.72,21.76ZM15.25,7.37a6.17,6.17,0,0,1,.48,2.53,13.19,13.19,0,0,1-.16,2.2,7.82,7.82,0,0,1-.63,2.05L15,14.1a3.61,3.61,0,0,0,.76-.85,5.51,5.51,0,0,0,.52-1.32A7.48,7.48,0,0,0,16.5,10c0-1.71-.62-2.19-.89-2.39A3.17,3.17,0,0,0,15.25,7.37ZM6.8,8.83h.08a6.3,6.3,0,0,1,.39-1.35c-.5.37-.5.59-.5.74A5,5,0,0,0,6.8,8.83Z"/><path class="cls-1" d="M25.55,28.43a8.26,8.26,0,0,1-4.19-1,5.32,5.32,0,0,1-2.64-4.73A5.38,5.38,0,0,1,21,18.24a7.51,7.51,0,0,1,4.56-1.33,7.12,7.12,0,0,1,5.26,1.83,5.32,5.32,0,0,1,1.56,3.93,5.65,5.65,0,0,1-1.17,3.57,5.57,5.57,0,0,1-2.95,1.89A10.75,10.75,0,0,1,25.55,28.43ZM22,22.67h0Zm2.66-1Z"/><path class="cls-1" d="M44,28.4H35.18a8.35,8.35,0,0,1-5-1.23C28.71,26.12,28,24.35,28,21.92a7.63,7.63,0,0,1,.25-2,5.9,5.9,0,0,1,1.07-2.08A7.86,7.86,0,0,1,31,16.29l1.67-1.12a5.52,5.52,0,0,1-3.07-1.88,7.78,7.78,0,0,1-1.45-5.08A7.4,7.4,0,0,1,31.53,2,12.75,12.75,0,0,1,39,0c3.7,0,6.52.77,8.59,2.35A9.1,9.1,0,0,1,51.08,10a14.05,14.05,0,0,1-.48,3.71,12.26,12.26,0,0,1-1.23,3l-.2.31c.18.16.34.32.48.47a6.45,6.45,0,0,1,1.51,4.48,6.15,6.15,0,0,1-2,4.95A7.75,7.75,0,0,1,44,28.4Zm-9.29-6.61h6.81l-1-4.32c-.24.22-.5.45-.8.7-.69.57-1.42,1.13-2.15,1.65S35.89,21,34.69,21.76ZM43.23,7.37A6.18,6.18,0,0,1,43.7,9.9a14.44,14.44,0,0,1-.15,2.2,7.84,7.84,0,0,1-.64,2.05L43,14.1a3.78,3.78,0,0,0,.75-.85,5.51,5.51,0,0,0,.52-1.32A7,7,0,0,0,44.48,10c0-1.71-.63-2.19-.9-2.39A2.36,2.36,0,0,0,43.23,7.37ZM34.77,8.82h.08a6.14,6.14,0,0,1,.39-1.35c-.49.37-.49.59-.49.74S34.76,8.67,34.77,8.82Z"/><path class="cls-2" d="M13.59,18.89h3.59c1.81,0,2.71,1,2.71,3A3.06,3.06,0,0,1,19,24.37,4.85,4.85,0,0,1,16,25.1H7.21a5.61,5.61,0,0,1-3.09-.6c-.55-.4-.82-1.26-.82-2.57a4.15,4.15,0,0,1,.13-1.12,2.66,2.66,0,0,1,.49-.92,4.2,4.2,0,0,1,1-.87c1.16-.78,2.08-1.4,2.75-1.88s1.32-1,2-1.5A9.83,9.83,0,0,0,11,14.28,7.42,7.42,0,0,0,11.83,13a4.71,4.71,0,0,0,.49-1.42,11.62,11.62,0,0,0,.11-1.68c0-1.21-.38-1.81-1.13-1.81s-1.23.71-1.23,2.13a1.51,1.51,0,0,1-.78,1.55A5.66,5.66,0,0,1,7,12.13a3.44,3.44,0,0,1-2.8-.91,4.78,4.78,0,0,1-.73-3,4.17,4.17,0,0,1,2-3.51A9.49,9.49,0,0,1,11,3.3q8.8,0,8.79,6.69a10.8,10.8,0,0,1-.35,2.83A8.41,8.41,0,0,1,18.57,15a7.26,7.26,0,0,1-1.41,1.63,13,13,0,0,1-1.66,1.26A21,21,0,0,1,13.59,18.89Z"/><path class="cls-2" d="M22,22.67A2.12,2.12,0,0,1,23,20.89a4.33,4.33,0,0,1,2.6-.68c2.35,0,3.53.82,3.52,2.46a2.31,2.31,0,0,1-.45,1.5,2.12,2.12,0,0,1-1.2.76,7.47,7.47,0,0,1-1.87.2A5,5,0,0,1,23,24.55,2,2,0,0,1,22,22.67Z"/><path class="cls-2" d="M41.56,18.89h3.59c1.81,0,2.72,1,2.71,3A3,3,0,0,1,47,24.37a4.84,4.84,0,0,1-3,.73H35.18a5.55,5.55,0,0,1-3.08-.6,3.08,3.08,0,0,1-.83-2.57,4.54,4.54,0,0,1,.13-1.12,2.66,2.66,0,0,1,.49-.92,4.41,4.41,0,0,1,1-.87c1.16-.78,2.08-1.4,2.75-1.88s1.32-1,2-1.5A11,11,0,0,0,39,14.28,8,8,0,0,0,39.8,13a4.71,4.71,0,0,0,.49-1.42A11.72,11.72,0,0,0,40.4,9.9c0-1.21-.37-1.81-1.13-1.81S38,8.8,38,10.22a1.51,1.51,0,0,1-.78,1.55,5.63,5.63,0,0,1-2.29.36,3.45,3.45,0,0,1-2.8-.91,4.87,4.87,0,0,1-.72-3,4.14,4.14,0,0,1,2-3.5A9.45,9.45,0,0,1,39,3.3q8.79,0,8.79,6.69a10.38,10.38,0,0,1-.36,2.83A8.41,8.41,0,0,1,46.54,15a6.78,6.78,0,0,1-1.41,1.63,12.35,12.35,0,0,1-1.66,1.26A21,21,0,0,1,41.56,18.89Z"/></g></g></svg>