<svg xmlns="http://www.w3.org/2000/svg" viewBox="0 0 51.36 28.43"><defs><style>.cls-1{fill:#24b2a0;}.cls-2{fill:#fff;}</style></defs><title>23</title><g id="Layer_2" data-name="Layer 2"><g id="barra_lateral_derecha" data-name="barra lateral derecha"><path class="cls-1" d="M16,28.4H7.21a8.31,8.31,0,0,1-5-1.23C.73,26.12,0,24.35,0,21.93a7.35,7.35,0,0,1,.25-2,5.9,5.9,0,0,1,1.07-2.08A7.86,7.86,0,0,1,3,16.29l1.66-1.12a5.52,5.52,0,0,1-3.06-1.88A7.84,7.84,0,0,1,.17,8.21,7.39,7.39,0,0,1,3.56,2,12.74,12.74,0,0,1,11,0c3.71,0,6.52.77,8.6,2.35A9.1,9.1,0,0,1,23.1,10a13.76,13.76,0,0,1-.48,3.71,11.79,11.79,0,0,1-1.22,2.95c-.07.11-.13.22-.2.32a5.2,5.2,0,0,1,.47.47,6.5,6.5,0,0,1,1.52,4.48,6.19,6.19,0,0,1-2,5A7.81,7.81,0,0,1,16,28.4ZM6.69,21.79H13.5l-1-4.32c-.24.22-.51.46-.8.7-.69.57-1.41,1.13-2.15,1.65S7.92,21,6.72,21.76ZM15.25,7.37a6.3,6.3,0,0,1,.48,2.53,13.19,13.19,0,0,1-.16,2.2,7.82,7.82,0,0,1-.63,2.05L15,14.1a3.61,3.61,0,0,0,.76-.85,5.56,5.56,0,0,0,.52-1.31A7.62,7.62,0,0,0,16.5,10c0-1.71-.62-2.19-.89-2.39A3.17,3.17,0,0,0,15.25,7.37ZM6.8,8.83h.08a6.3,6.3,0,0,1,.39-1.35c-.5.37-.5.59-.5.74A5,5,0,0,0,6.8,8.83Z"/><path class="cls-1" d="M25.55,28.43a8.22,8.22,0,0,1-4.18-1,5.3,5.3,0,0,1-2.65-4.73h0A5.41,5.41,0,0,1,21,18.24a7.51,7.51,0,0,1,4.56-1.33,7.16,7.16,0,0,1,5.27,1.83,5.37,5.37,0,0,1,1.55,3.94,5.44,5.44,0,0,1-4.11,5.45A11,11,0,0,1,25.55,28.43Z"/><path class="cls-1" d="M39.91,28.4c-3.69,0-6.26-.41-8.09-1.27a6.39,6.39,0,0,1-3.91-5.88,6,6,0,0,1,1.71-4.64,5.38,5.38,0,0,1,1.62-1,6.15,6.15,0,0,1-.32-2,5.52,5.52,0,0,1,.41-2.09,5.16,5.16,0,0,1-.95-.75,6.15,6.15,0,0,1-1.65-4.54c0-2.81,1.75-6.17,10-6.17,3.6,0,6.33.64,8.34,2a7.62,7.62,0,0,1,3.65,6.49,9.23,9.23,0,0,1-1.22,4.68,6.62,6.62,0,0,1,.47.61,8.58,8.58,0,0,1,1.36,5,8.87,8.87,0,0,1-3.47,7.16A12.51,12.51,0,0,1,39.91,28.4Zm-.12-6.6h.12a6.13,6.13,0,0,0,3.88-1.05,2.29,2.29,0,0,0,1-2,2.92,2.92,0,0,0-.17-1.24,2,2,0,0,0-.42-.39,2.44,2.44,0,0,1,0,.27C44.18,18.85,43.55,21.12,39.79,21.8ZM42.42,7a4.54,4.54,0,0,1,1.36,2.86,2.6,2.6,0,0,0,.37-1.44c0-.23,0-.52-.67-1A4.49,4.49,0,0,0,42.42,7Z"/><path class="cls-2" d="M13.59,18.89h3.59c1.81,0,2.71,1,2.71,3A3.06,3.06,0,0,1,19,24.37,4.79,4.79,0,0,1,16,25.1H7.21a5.61,5.61,0,0,1-3.09-.6c-.55-.4-.82-1.26-.82-2.57a4.15,4.15,0,0,1,.13-1.12,2.66,2.66,0,0,1,.49-.92,4.2,4.2,0,0,1,1-.87c1.16-.78,2.08-1.4,2.75-1.88s1.32-1,2-1.5A10.22,10.22,0,0,0,11,14.28,7.42,7.42,0,0,0,11.83,13a4.71,4.71,0,0,0,.49-1.42,11.62,11.62,0,0,0,.11-1.68c0-1.21-.38-1.81-1.13-1.81s-1.23.71-1.23,2.13a1.51,1.51,0,0,1-.78,1.55A5.66,5.66,0,0,1,7,12.13a3.44,3.44,0,0,1-2.8-.91,4.78,4.78,0,0,1-.73-3,4.17,4.17,0,0,1,2-3.51A9.44,9.44,0,0,1,11,3.3q8.8,0,8.79,6.7a10.78,10.78,0,0,1-.35,2.82A8.41,8.41,0,0,1,18.57,15a7,7,0,0,1-1.41,1.63,13,13,0,0,1-1.66,1.26A21,21,0,0,1,13.59,18.89Z"/><path class="cls-2" d="M22,22.67A2.12,2.12,0,0,1,23,20.89a4.33,4.33,0,0,1,2.6-.68c2.35,0,3.53.82,3.52,2.46a2.36,2.36,0,0,1-.45,1.51,2.23,2.23,0,0,1-1.2.76,8,8,0,0,1-1.87.19A5,5,0,0,1,23,24.55,2,2,0,0,1,22,22.67Z"/><path class="cls-2" d="M40.5,10.32q0-1.59-2.94-1.59a15.57,15.57,0,0,0-1.67.12c-.7.07-1.21.11-1.53.11C32.8,9,32,8,32,6.18S34.27,3.3,38.76,3.3q4.37,0,6.53,1.42a4.28,4.28,0,0,1,2.16,3.72,5.91,5.91,0,0,1-2.78,5.11,7.42,7.42,0,0,1,2.63,2.09,5.36,5.36,0,0,1,.76,3.12,5.56,5.56,0,0,1-2.22,4.57,9.25,9.25,0,0,1-5.93,1.77q-4.66,0-6.68-1a3.06,3.06,0,0,1-2-2.89A3,3,0,0,1,31.86,19a2.55,2.55,0,0,1,1.81-.59c.39,0,1,0,1.81.12a18.2,18.2,0,0,0,1.88.13c2.35,0,3.52-.43,3.52-1.29a1.22,1.22,0,0,0-.68-1.21,6.35,6.35,0,0,0-2.55-.34A5.18,5.18,0,0,1,35,15.36a2,2,0,0,1-.78-1.81c0-1.34.89-2,2.66-2a14.09,14.09,0,0,0,2.54-.17c.55-.1.86-.23.95-.37A1.33,1.33,0,0,0,40.5,10.32Z"/></g></g></svg>