<svg xmlns="http://www.w3.org/2000/svg" viewBox="0 0 51.2 28.43"><defs><style>.cls-1{fill:#24b2a0;}.cls-2{fill:none;}.cls-3{fill:#2794da;}.cls-4{fill:#fff;}</style></defs><title>24</title><g id="Layer_2" data-name="Layer 2"><g id="barra_lateral_derecha" data-name="barra lateral derecha"><path class="cls-1" d="M16,28.4H7.21a8.31,8.31,0,0,1-5-1.23C.73,26.12,0,24.35,0,21.92a7.35,7.35,0,0,1,.25-2,5.81,5.81,0,0,1,1.07-2.06A7.57,7.57,0,0,1,3,16.29l1.67-1.12a5.52,5.52,0,0,1-3.06-1.88A7.84,7.84,0,0,1,.17,8.21,7.39,7.39,0,0,1,3.56,2,12.74,12.74,0,0,1,11,0c3.71,0,6.52.77,8.6,2.35A9.1,9.1,0,0,1,23.1,10a13.65,13.65,0,0,1-.48,3.71,11.51,11.51,0,0,1-1.23,3L21.2,17a5.2,5.2,0,0,1,.47.47,6.5,6.5,0,0,1,1.52,4.48,6.14,6.14,0,0,1-2,5A7.76,7.76,0,0,1,16,28.4ZM6.69,21.79H12a3.31,3.31,0,0,1-1.66-2.17,2.33,2.33,0,0,1-.06-.35l-.76.55c-.69.49-1.63,1.14-2.83,1.93ZM15.25,7.37a6.17,6.17,0,0,1,.48,2.53,13.19,13.19,0,0,1-.16,2.2,7.82,7.82,0,0,1-.63,2.05L15,14.1a3.61,3.61,0,0,0,.76-.85,5.32,5.32,0,0,0,.52-1.32A7.48,7.48,0,0,0,16.5,10c0-1.71-.62-2.19-.89-2.39A3.17,3.17,0,0,0,15.25,7.37ZM6.8,8.83h.08a6.31,6.31,0,0,1,.38-1.35c-.49.37-.49.59-.49.74A5.16,5.16,0,0,0,6.8,8.83Z"/><path class="cls-1" d="M25.54,28.43a8.25,8.25,0,0,1-4.18-1,5.33,5.33,0,0,1-2.64-4.73h0A5.4,5.4,0,0,1,21,18.24a7.49,7.49,0,0,1,4.56-1.33,7.71,7.71,0,0,1,4.53,1.21,5.37,5.37,0,0,1,2.29,4.55,5.63,5.63,0,0,1-1.17,3.57,5.57,5.57,0,0,1-2.95,1.89,10.75,10.75,0,0,1-2.7.3Z"/><path class="cls-1" d="M41.72,28.17a6.57,6.57,0,0,1-5.33-2.25,6.46,6.46,0,0,1-1.24-2.47H32.08a7.44,7.44,0,0,1-5.43-1.95,6.73,6.73,0,0,1-2-4.94,8.7,8.7,0,0,1,1.41-4.85c1.54-2.41,3.31-5.05,5.23-7.83A8.56,8.56,0,0,1,38.63,0l2.85,0h0c2.44,0,4.22.56,5.43,1.69a6.82,6.82,0,0,1,1.87,5.17V13a5,5,0,0,1,1,.81,5.68,5.68,0,0,1,1.41,4,5.26,5.26,0,0,1-1.71,4.21,4.87,4.87,0,0,1-1,.64A7,7,0,0,1,47,25.91,6.69,6.69,0,0,1,41.72,28.17Zm-.24-6.61a3.25,3.25,0,0,0,.55,0,6,6,0,0,0,.14-1.44,3.31,3.31,0,0,1,1-2.34,3.27,3.27,0,0,1-1-2.35V6.66c-.19,0-.43,0-.74,0h-.71a3.33,3.33,0,0,1,.71,2.1l-.1,6.89a3.31,3.31,0,0,1-.92,2.23,3.3,3.3,0,0,1,.95,2.31A6.52,6.52,0,0,0,41.48,21.56Z"/><path class="cls-2" d="M13.59,18.89h3.59c1.81,0,2.71,1,2.71,3A3.06,3.06,0,0,1,19,24.37,4.85,4.85,0,0,1,16,25.1H7.21a5.61,5.61,0,0,1-3.09-.6c-.55-.4-.82-1.26-.82-2.57a4.15,4.15,0,0,1,.13-1.12,2.66,2.66,0,0,1,.49-.92,4.2,4.2,0,0,1,1-.87c1.16-.78,2.08-1.4,2.75-1.88s1.32-1,2-1.5A9.83,9.83,0,0,0,11,14.28,7.42,7.42,0,0,0,11.83,13a4.71,4.71,0,0,0,.49-1.42,11.62,11.62,0,0,0,.11-1.68c0-1.21-.38-1.81-1.13-1.81s-1.23.71-1.23,2.13a1.51,1.51,0,0,1-.78,1.55A5.66,5.66,0,0,1,7,12.13a3.43,3.43,0,0,1-2.8-.91,4.78,4.78,0,0,1-.73-3,4.17,4.17,0,0,1,2-3.51A9.49,9.49,0,0,1,11,3.3q8.8,0,8.79,6.69a10.38,10.38,0,0,1-.36,2.83A8.07,8.07,0,0,1,18.57,15a7.26,7.26,0,0,1-1.41,1.63,13,13,0,0,1-1.66,1.26A21,21,0,0,1,13.59,18.89Z"/><path class="cls-2" d="M22,22.67A2.12,2.12,0,0,1,23,20.89a4.33,4.33,0,0,1,2.6-.68c2.35,0,3.52.82,3.52,2.46a2.31,2.31,0,0,1-.45,1.5,2.12,2.12,0,0,1-1.2.76,7.53,7.53,0,0,1-1.87.2A5,5,0,0,1,23,24.55,2,2,0,0,1,22,22.67Z"/><path class="cls-3" d="M41.72,25a3.53,3.53,0,0,1-2.88-1.1,5.78,5.78,0,0,1-.9-3.63H32.08a4.44,4.44,0,0,1-3.2-1,3.58,3.58,0,0,1-1.06-2.68,5.51,5.51,0,0,1,.9-3.11c1.54-2.4,3.28-5,5.18-7.76a5.45,5.45,0,0,1,4.73-2.52l2.81,0A4.86,4.86,0,0,1,44.73,4a3.85,3.85,0,0,1,.88,2.86v8.42a3,3,0,0,1,1.87.71A2.6,2.6,0,0,1,48,17.85a2.3,2.3,0,0,1-.59,1.8,3.31,3.31,0,0,1-1.83.58,5.72,5.72,0,0,1-1,3.62A3.64,3.64,0,0,1,41.72,25ZM38.63,3.42a5.2,5.2,0,0,0-4.52,2.41c-1.9,2.74-3.64,5.35-5.18,7.76a5.28,5.28,0,0,0-.86,3,3.37,3.37,0,0,0,1,2.5,4.19,4.19,0,0,0,3,1h6a.12.12,0,0,1,.08,0,.11.11,0,0,1,0,.09A5.78,5.78,0,0,0,39,23.74a3.31,3.31,0,0,0,2.69,1,3.41,3.41,0,0,0,2.72-1.06,5.63,5.63,0,0,0,.91-3.57.13.13,0,0,1,.11-.13,3.26,3.26,0,0,0,1.81-.53,2.09,2.09,0,0,0,.5-1.61,2.39,2.39,0,0,0-.48-1.66,2.86,2.86,0,0,0-1.83-.64.13.13,0,0,1-.11-.12V6.89a3.65,3.65,0,0,0-.8-2.68,4.7,4.7,0,0,0-3.12-.75ZM38,15.68H33.8a.11.11,0,0,1-.11-.06.12.12,0,0,1,0-.13L38,8.6a.11.11,0,0,1,.14,0,.1.1,0,0,1,.09.12l-.1,6.89A.12.12,0,0,1,38,15.68Zm-4-.25h3.88L38,9.11Z"/><path class="cls-4" d="M13.59,18.89h3.59c1.81,0,2.71,1,2.71,3A3.06,3.06,0,0,1,19,24.37,4.85,4.85,0,0,1,16,25.1H7.21a5.61,5.61,0,0,1-3.09-.6c-.55-.4-.82-1.26-.82-2.57a4.15,4.15,0,0,1,.13-1.12,2.66,2.66,0,0,1,.49-.92,4.2,4.2,0,0,1,1-.87c1.16-.78,2.08-1.4,2.75-1.88s1.32-1,2-1.5A9.83,9.83,0,0,0,11,14.28,7.42,7.42,0,0,0,11.83,13a4.71,4.71,0,0,0,.49-1.42,11.62,11.62,0,0,0,.11-1.68c0-1.21-.38-1.81-1.13-1.81s-1.23.71-1.23,2.13a1.51,1.51,0,0,1-.78,1.55A5.66,5.66,0,0,1,7,12.13a3.43,3.43,0,0,1-2.8-.91,4.78,4.78,0,0,1-.73-3,4.17,4.17,0,0,1,2-3.51A9.49,9.49,0,0,1,11,3.3q8.8,0,8.79,6.69a10.38,10.38,0,0,1-.36,2.83A8.07,8.07,0,0,1,18.57,15a7.26,7.26,0,0,1-1.41,1.63,13,13,0,0,1-1.66,1.26A21,21,0,0,1,13.59,18.89Z"/><path class="cls-4" d="M22,22.67A2.12,2.12,0,0,1,23,20.89a4.33,4.33,0,0,1,2.6-.68c2.35,0,3.52.82,3.52,2.46a2.31,2.31,0,0,1-.45,1.5,2.12,2.12,0,0,1-1.2.76,7.53,7.53,0,0,1-1.87.2A5,5,0,0,1,23,24.55,2,2,0,0,1,22,22.67Z"/><path class="cls-4" d="M41.72,24.87a3.4,3.4,0,0,1-2.78-1.05,5.75,5.75,0,0,1-.87-3.67h-6a4.33,4.33,0,0,1-3.12-1,3.47,3.47,0,0,1-1-2.59,5.41,5.41,0,0,1,.87-3Q31.12,9.94,34,5.76A5.33,5.33,0,0,1,38.63,3.3l2.81,0a4.8,4.8,0,0,1,3.2.79,3.71,3.71,0,0,1,.84,2.77v8.54a2.91,2.91,0,0,1,1.9.68,2.43,2.43,0,0,1,.52,1.74,2.18,2.18,0,0,1-.55,1.7,3.37,3.37,0,0,1-1.88.57,5.59,5.59,0,0,1-.94,3.65A3.5,3.5,0,0,1,41.72,24.87ZM38,15.56l.1-6.89L33.8,15.56Z"/></g></g></svg>