<svg xmlns="http://www.w3.org/2000/svg" viewBox="0 0 58.62 39.9"><defs><style>.cls-1{fill:none;stroke:#fff;stroke-width:7.9px;}.cls-2{fill:#515901;}</style></defs><title>31si</title><g id="Layer_2" data-name="Layer 2"><g id="barra_lateral_derecha" data-name="barra lateral derecha"><path class="cls-1" d="M17.16,14.24q0-2.33-4.18-2.32a22.69,22.69,0,0,0-2.37.16c-1,.11-1.72.17-2.18.17q-3.31,0-3.31-4.08T14.69,4Q20.9,4,24,6a6.3,6.3,0,0,1,3.08,5.45,8.73,8.73,0,0,1-4,7.49A10.85,10.85,0,0,1,26.84,22a8.23,8.23,0,0,1,1.07,4.58,8.28,8.28,0,0,1-3.15,6.71,13,13,0,0,1-8.44,2.58c-4.42,0-7.58-.47-9.5-1.4A4.5,4.5,0,0,1,4,30.26,4.47,4.47,0,0,1,4.87,27a3.63,3.63,0,0,1,2.58-.87,25.32,25.32,0,0,1,2.57.19q1.75.18,2.67.18,5,0,5-1.89a1.81,1.81,0,0,0-1-1.78,8.92,8.92,0,0,0-3.63-.5,7.25,7.25,0,0,1-3.77-.71A2.9,2.9,0,0,1,8.24,19Q8.24,16,12,16a19.71,19.71,0,0,0,3.61-.24c.78-.16,1.23-.34,1.36-.54A2.16,2.16,0,0,0,17.16,14.24Z"/><path class="cls-1" d="M30.85,32.34a3.12,3.12,0,0,1,1.31-2.6,6,6,0,0,1,3.7-1q5,0,5,3.6a3.5,3.5,0,0,1-.64,2.21,3.14,3.14,0,0,1-1.7,1.11,10.51,10.51,0,0,1-2.67.29,6.89,6.89,0,0,1-3.59-.86A2.94,2.94,0,0,1,30.85,32.34Z"/><path class="cls-1" d="M54.67,28.46q0,3.84-1.34,5.47a4.92,4.92,0,0,1-4,1.64,6.31,6.31,0,0,1-2.9-.57,3.66,3.66,0,0,1-1.68-2.09,12.48,12.48,0,0,1-.62-4.07L44,11.16a7.17,7.17,0,0,1-3.63-.83A3,3,0,0,1,39,7.55,3.13,3.13,0,0,1,40.28,5a5.8,5.8,0,0,1,3.65-1l2.6,0L48.9,4c2.27,0,3.79.38,4.57,1.16s1.17,2.12,1.17,4.05Z"/><path class="cls-2" d="M17.16,14.24q0-2.33-4.18-2.32a22.69,22.69,0,0,0-2.37.16c-1,.11-1.72.17-2.18.17q-3.31,0-3.31-4.08T14.69,4Q20.9,4,24,6a6.3,6.3,0,0,1,3.08,5.45,8.73,8.73,0,0,1-4,7.49A10.85,10.85,0,0,1,26.84,22a8.23,8.23,0,0,1,1.07,4.58,8.28,8.28,0,0,1-3.15,6.71,13,13,0,0,1-8.44,2.58c-4.42,0-7.58-.47-9.5-1.4A4.5,4.5,0,0,1,4,30.26,4.47,4.47,0,0,1,4.87,27a3.63,3.63,0,0,1,2.58-.87,25.32,25.32,0,0,1,2.57.19q1.75.18,2.67.18,5,0,5-1.89a1.81,1.81,0,0,0-1-1.78,8.92,8.92,0,0,0-3.63-.5,7.25,7.25,0,0,1-3.77-.71A2.9,2.9,0,0,1,8.24,19Q8.24,16,12,16a19.71,19.71,0,0,0,3.61-.24c.78-.16,1.23-.34,1.36-.54A2.16,2.16,0,0,0,17.16,14.24Z"/><path class="cls-2" d="M30.85,32.34a3.12,3.12,0,0,1,1.31-2.6,6,6,0,0,1,3.7-1q5,0,5,3.6a3.5,3.5,0,0,1-.64,2.21,3.14,3.14,0,0,1-1.7,1.11,10.51,10.51,0,0,1-2.67.29,6.89,6.89,0,0,1-3.59-.86A2.94,2.94,0,0,1,30.85,32.34Z"/><path class="cls-2" d="M54.67,28.46q0,3.84-1.34,5.47a4.92,4.92,0,0,1-4,1.64,6.31,6.31,0,0,1-2.9-.57,3.66,3.66,0,0,1-1.68-2.09,12.48,12.48,0,0,1-.62-4.07L44,11.16a7.17,7.17,0,0,1-3.63-.83A3,3,0,0,1,39,7.55,3.13,3.13,0,0,1,40.28,5a5.8,5.8,0,0,1,3.65-1l2.6,0L48.9,4c2.27,0,3.79.38,4.57,1.16s1.17,2.12,1.17,4.05Z"/></g></g></svg>