<svg xmlns="http://www.w3.org/2000/svg" viewBox="0 0 51.55 28.43"><defs><style>.cls-1{fill:none;stroke:#24b2a0;stroke-width:6.6px;}.cls-2{fill:#fff;}</style></defs><title>33</title><g id="Layer_2" data-name="Layer 2"><g id="barra_lateral_derecha" data-name="barra lateral derecha"><path class="cls-1" d="M12.59,10.32q0-1.59-2.94-1.59A15.57,15.57,0,0,0,8,8.85c-.7.07-1.21.11-1.53.11C4.89,9,4.12,8,4.12,6.18S6.37,3.3,10.85,3.3q4.37,0,6.53,1.42a4.29,4.29,0,0,1,2.17,3.72,5.92,5.92,0,0,1-2.79,5.11,7.42,7.42,0,0,1,2.63,2.09,5.36,5.36,0,0,1,.76,3.12,5.59,5.59,0,0,1-2.22,4.58A9.3,9.3,0,0,1,12,25.1c-3.11,0-5.33-.32-6.68-1a3.06,3.06,0,0,1-2-2.89A3,3,0,0,1,4,19a2.55,2.55,0,0,1,1.81-.59c.39,0,1,0,1.81.12a18.2,18.2,0,0,0,1.88.13c2.35,0,3.52-.43,3.52-1.29a1.23,1.23,0,0,0-.67-1.21,6.44,6.44,0,0,0-2.56-.34,5.21,5.21,0,0,1-2.65-.49,2,2,0,0,1-.78-1.81c0-1.33.89-2,2.66-2a14.09,14.09,0,0,0,2.54-.17c.55-.1.86-.23,1-.37A1.33,1.33,0,0,0,12.59,10.32Z"/><path class="cls-1" d="M22.22,22.67a2.13,2.13,0,0,1,.92-1.78,4.35,4.35,0,0,1,2.6-.68c2.35,0,3.53.82,3.53,2.46a2.26,2.26,0,0,1-.46,1.5,2.13,2.13,0,0,1-1.19.76,7.61,7.61,0,0,1-1.88.2,5,5,0,0,1-2.52-.58A2,2,0,0,1,22.22,22.67Z"/><path class="cls-1" d="M40.69,10.32q0-1.59-2.94-1.59a15.42,15.42,0,0,0-1.66.12c-.71.07-1.22.11-1.54.11C33,9,32.22,8,32.22,6.18S34.47,3.3,39,3.3q4.36,0,6.53,1.42a4.29,4.29,0,0,1,2.17,3.72,5.9,5.9,0,0,1-2.79,5.11,7.56,7.56,0,0,1,2.64,2.09,5.45,5.45,0,0,1,.75,3.12A5.56,5.56,0,0,1,46,23.33,9.21,9.21,0,0,1,40.1,25.1c-3.11,0-5.33-.32-6.68-1a3.06,3.06,0,0,1-2-2.89A3,3,0,0,1,32.05,19a2.57,2.57,0,0,1,1.81-.6c.39,0,1,.05,1.81.13a18.37,18.37,0,0,0,1.88.13c2.35,0,3.52-.43,3.52-1.29a1.21,1.21,0,0,0-.67-1.21,6.44,6.44,0,0,0-2.56-.34,5.21,5.21,0,0,1-2.65-.49,2,2,0,0,1-.77-1.81c0-1.33.88-2,2.65-2a14.09,14.09,0,0,0,2.54-.17c.55-.1.87-.23,1-.37A1.33,1.33,0,0,0,40.69,10.32Z"/><path class="cls-2" d="M12.59,10.32q0-1.59-2.94-1.59A15.57,15.57,0,0,0,8,8.85c-.7.07-1.21.11-1.53.11C4.89,9,4.12,8,4.12,6.18S6.37,3.3,10.85,3.3q4.37,0,6.53,1.42a4.29,4.29,0,0,1,2.17,3.72,5.92,5.92,0,0,1-2.79,5.11,7.42,7.42,0,0,1,2.63,2.09,5.36,5.36,0,0,1,.76,3.12,5.59,5.59,0,0,1-2.22,4.58A9.3,9.3,0,0,1,12,25.1c-3.11,0-5.33-.32-6.68-1a3.06,3.06,0,0,1-2-2.89A3,3,0,0,1,4,19a2.55,2.55,0,0,1,1.81-.59c.39,0,1,0,1.81.12a18.2,18.2,0,0,0,1.88.13c2.35,0,3.52-.43,3.52-1.29a1.23,1.23,0,0,0-.67-1.21,6.44,6.44,0,0,0-2.56-.34,5.21,5.21,0,0,1-2.65-.49,2,2,0,0,1-.78-1.81c0-1.33.89-2,2.66-2a14.09,14.09,0,0,0,2.54-.17c.55-.1.86-.23,1-.37A1.33,1.33,0,0,0,12.59,10.32Z"/><path class="cls-2" d="M22.22,22.67a2.13,2.13,0,0,1,.92-1.78,4.35,4.35,0,0,1,2.6-.68c2.35,0,3.53.82,3.53,2.46a2.26,2.26,0,0,1-.46,1.5,2.13,2.13,0,0,1-1.19.76,7.61,7.61,0,0,1-1.88.2,5,5,0,0,1-2.52-.58A2,2,0,0,1,22.22,22.67Z"/><path class="cls-2" d="M40.69,10.32q0-1.59-2.94-1.59a15.42,15.42,0,0,0-1.66.12c-.71.07-1.22.11-1.54.11C33,9,32.22,8,32.22,6.18S34.47,3.3,39,3.3q4.36,0,6.53,1.42a4.29,4.29,0,0,1,2.17,3.72,5.9,5.9,0,0,1-2.79,5.11,7.56,7.56,0,0,1,2.64,2.09,5.45,5.45,0,0,1,.75,3.12A5.56,5.56,0,0,1,46,23.33,9.21,9.21,0,0,1,40.1,25.1c-3.11,0-5.33-.32-6.68-1a3.06,3.06,0,0,1-2-2.89A3,3,0,0,1,32.05,19a2.57,2.57,0,0,1,1.81-.6c.39,0,1,.05,1.81.13a18.37,18.37,0,0,0,1.88.13c2.35,0,3.52-.43,3.52-1.29a1.21,1.21,0,0,0-.67-1.21,6.44,6.44,0,0,0-2.56-.34,5.21,5.21,0,0,1-2.65-.49,2,2,0,0,1-.77-1.81c0-1.33.88-2,2.65-2a14.09,14.09,0,0,0,2.54-.17c.55-.1.87-.23,1-.37A1.33,1.33,0,0,0,40.69,10.32Z"/></g></g></svg>