<svg xmlns="http://www.w3.org/2000/svg" viewBox="0 0 75.9 39.9"><defs><style>.cls-1{fill:none;stroke:#fff;stroke-linecap:round;stroke-linejoin:round;stroke-width:7.9px;}.cls-2{fill:#515901;}</style></defs><title>42si</title><g id="Layer_2" data-name="Layer 2"><g id="barra_lateral_derecha" data-name="barra lateral derecha"><path class="cls-1" d="M23.53,35.57a4.78,4.78,0,0,1-4-1.54q-1.24-1.55-1.24-5.38H9.83A6,6,0,0,1,5.4,27.18,5.17,5.17,0,0,1,4,23.39,8.1,8.1,0,0,1,5.2,18.93q3.26-5.26,7.36-11.38A7.51,7.51,0,0,1,19.14,4l4,0c2.24,0,3.76.38,4.55,1.16s1.2,2.12,1.19,4.05V21.73a4.14,4.14,0,0,1,2.72,1,3.73,3.73,0,0,1,.73,2.56,3.23,3.23,0,0,1-.78,2.49,4.67,4.67,0,0,1-2.67.83c0,2.5-.45,4.28-1.34,5.36A4.9,4.9,0,0,1,23.53,35.57ZM18.3,21.92l.14-10.1-6.17,10.1Z"/><path class="cls-1" d="M35.21,32.34a3.12,3.12,0,0,1,1.31-2.6,6,6,0,0,1,3.71-1q5,0,5,3.6a3.5,3.5,0,0,1-.64,2.21,3.14,3.14,0,0,1-1.7,1.11,10.51,10.51,0,0,1-2.67.29,6.89,6.89,0,0,1-3.59-.86A3,3,0,0,1,35.21,32.34Z"/><path class="cls-1" d="M63,26.8h5.1c2.58,0,3.86,1.48,3.86,4.45a4.55,4.55,0,0,1-1.22,3.58c-.81.71-2.26,1.07-4.35,1.07H53.92c-2.14,0-3.61-.29-4.39-.88s-1.17-1.84-1.17-3.77a6,6,0,0,1,.19-1.63,3.77,3.77,0,0,1,.69-1.35A6.39,6.39,0,0,1,50.62,27c1.65-1.14,3-2.06,3.91-2.75s1.88-1.43,2.78-2.21a14,14,0,0,0,2-2,11,11,0,0,0,1.17-1.87,7.07,7.07,0,0,0,.69-2.08,16.15,16.15,0,0,0,.16-2.47c0-1.77-.53-2.65-1.6-2.65S58,12,58,14.09a2.26,2.26,0,0,1-1.11,2.28,7.86,7.86,0,0,1-3.26.52c-2,0-3.29-.44-4-1.33a7.25,7.25,0,0,1-1-4.4A6.17,6.17,0,0,1,51.44,6Q54.28,4,59.33,4q12.51,0,12.5,9.81a15.78,15.78,0,0,1-.51,4.15A12.59,12.59,0,0,1,70.07,21a9.93,9.93,0,0,1-2,2.39,18,18,0,0,1-2.37,1.85A30.39,30.39,0,0,1,63,26.8Z"/><path class="cls-2" d="M23.53,35.57a4.78,4.78,0,0,1-4-1.54q-1.24-1.55-1.24-5.38H9.83A6,6,0,0,1,5.4,27.18,5.17,5.17,0,0,1,4,23.39,8.1,8.1,0,0,1,5.2,18.93q3.26-5.26,7.36-11.38A7.51,7.51,0,0,1,19.14,4l4,0c2.24,0,3.76.38,4.55,1.16s1.2,2.12,1.19,4.05V21.73a4.14,4.14,0,0,1,2.72,1,3.73,3.73,0,0,1,.73,2.56,3.23,3.23,0,0,1-.78,2.49,4.67,4.67,0,0,1-2.67.83c0,2.5-.45,4.28-1.34,5.36A4.9,4.9,0,0,1,23.53,35.57ZM18.3,21.92l.14-10.1-6.17,10.1Z"/><path class="cls-2" d="M35.21,32.34a3.12,3.12,0,0,1,1.31-2.6,6,6,0,0,1,3.71-1q5,0,5,3.6a3.5,3.5,0,0,1-.64,2.21,3.14,3.14,0,0,1-1.7,1.11,10.51,10.51,0,0,1-2.67.29,6.89,6.89,0,0,1-3.59-.86A3,3,0,0,1,35.21,32.34Z"/><path class="cls-2" d="M63,26.8h5.1c2.58,0,3.86,1.48,3.86,4.45a4.55,4.55,0,0,1-1.22,3.58c-.81.71-2.26,1.07-4.35,1.07H53.92c-2.14,0-3.61-.29-4.39-.88s-1.17-1.84-1.17-3.77a6,6,0,0,1,.19-1.63,3.77,3.77,0,0,1,.69-1.35A6.39,6.39,0,0,1,50.62,27c1.65-1.14,3-2.06,3.91-2.75s1.88-1.43,2.78-2.21a14,14,0,0,0,2-2,11,11,0,0,0,1.17-1.87,7.07,7.07,0,0,0,.69-2.08,16.15,16.15,0,0,0,.16-2.47c0-1.77-.53-2.65-1.6-2.65S58,12,58,14.09a2.26,2.26,0,0,1-1.11,2.28,7.86,7.86,0,0,1-3.26.52c-2,0-3.29-.44-4-1.33a7.25,7.25,0,0,1-1-4.4A6.17,6.17,0,0,1,51.44,6Q54.28,4,59.33,4q12.51,0,12.5,9.81a15.78,15.78,0,0,1-.51,4.15A12.59,12.59,0,0,1,70.07,21a9.93,9.93,0,0,1-2,2.39,18,18,0,0,1-2.37,1.85A30.39,30.39,0,0,1,63,26.8Z"/></g></g></svg>