<?xml version="1.0" encoding="utf-8"?>
<!-- Generator: Adobe Illustrator 24.0.2, SVG Export Plug-In . SVG Version: 6.00 Build 0)  -->
<svg version="1.1" id="Layer_1" xmlns="http://www.w3.org/2000/svg" xmlns:xlink="http://www.w3.org/1999/xlink" x="0px" y="0px"
	 viewBox="0 0 43.1 28.5" style="enable-background:new 0 0 43.1 28.5;" xml:space="preserve">
<style type="text/css">
	.st0{fill:none;stroke:#EA367B;stroke-width:6.6;}
	.st1{fill:#FFFFFF;}
	.st2{fill:#EA367B;}
</style>
<title>8n</title>
<g id="Layer_2_1_">
	<g id="barra_lateral_derecha">
		<path class="st0" d="M13.6,19h3.6c1.8,0,2.7,1,2.7,3c0.1,0.9-0.2,1.8-0.9,2.4c-0.9,0.6-2,0.8-3.1,0.7H7.2
			c-1.1,0.1-2.1-0.1-3.1-0.6c-0.5-0.4-0.8-1.3-0.8-2.6c0-0.4,0-0.7,0.1-1.1c0.1-0.3,0.3-0.6,0.5-0.9c0.3-0.3,0.6-0.6,1-0.9
			c1.2-0.8,2.1-1.4,2.8-1.9s1.3-1,2-1.5c0.5-0.4,0.9-0.9,1.3-1.4c0.3-0.4,0.6-0.8,0.8-1.3c0.2-0.4,0.4-0.9,0.5-1.4
			c0.1-0.5,0.1-1.1,0.1-1.6c0-1.2-0.4-1.8-1.1-1.8s-1.2,0.7-1.2,2.1c0.1,0.6-0.2,1.2-0.8,1.6c-0.7,0.3-1.5,0.4-2.3,0.3
			c-1,0.1-2-0.2-2.8-0.9c-0.6-0.9-0.8-1.9-0.7-3c0-1.4,0.8-2.8,2-3.5c1.7-1,3.6-1.5,5.5-1.4c5.9,0,8.8,2.2,8.8,6.7
			c0,1-0.1,1.9-0.4,2.8c-0.2,0.7-0.5,1.4-0.9,2.1c-0.4,0.6-0.9,1.2-1.4,1.6c-0.5,0.5-1.1,0.9-1.7,1.3C14.9,18.3,14.2,18.7,13.6,19z"
			/>
		<path class="st0" d="M30.9,25.2c-1.5,0-3-0.2-4.5-0.7c-1.2-0.4-2.3-1.2-3.2-2.1c-0.8-0.9-1.3-2.1-1.2-3.4
			c-0.1-2.2,1.2-4.3,3.3-5.2c-1.4-1-2.2-2.6-2.2-4.3C23,7.6,23.8,6,25.3,4.9C26.9,3.8,29,3.2,31,3.3c2-0.1,4,0.5,5.6,1.6
			c1.4,1,2.2,2.7,2.2,4.4c0,1.7-0.8,3.3-2.2,4.3c2,1,3.3,3,3.2,5.2c0,1.9-0.9,3.6-2.5,4.6C35.4,24.7,33.2,25.3,30.9,25.2z
			 M32.6,18.9c0-0.8-0.1-1.5-0.4-2.2c-0.1-0.6-0.6-1-1.2-1c-0.6,0-1.1,0.4-1.3,1c-0.3,0.7-0.5,1.4-0.5,2.2c0,0.5,0.1,1,0.2,1.5
			c0.1,0.4,0.3,0.8,0.6,1.2c0.2,0.3,0.6,0.5,1,0.5c0.6,0,1-0.5,1.2-1C32.4,20.3,32.6,19.6,32.6,18.9z M32.5,9.1
			c0-0.6-0.1-1.2-0.4-1.8c-0.2-0.5-0.6-0.7-1.1-0.8c-0.3,0-0.7,0.2-0.9,0.4c-0.3,0.3-0.4,0.6-0.6,1c-0.1,0.4-0.2,0.9-0.2,1.3
			c0,0.7,0.1,1.3,0.4,1.9C30,11.7,30.5,12,31,12c0.5,0,1-0.4,1.2-0.9C32.4,10.5,32.5,9.8,32.5,9.1z"/>
		<path class="st1" d="M13.6,19h3.6c1.8,0,2.7,1,2.7,3c0.1,0.9-0.2,1.8-0.9,2.4c-0.9,0.6-2,0.8-3.1,0.7H7.2
			c-1.1,0.1-2.1-0.1-3.1-0.6c-0.5-0.4-0.8-1.3-0.8-2.6c0-0.4,0-0.7,0.1-1.1c0.1-0.3,0.3-0.6,0.5-0.9c0.3-0.3,0.6-0.6,1-0.9
			c1.2-0.8,2.1-1.4,2.8-1.9s1.3-1,2-1.5c0.5-0.4,0.9-0.9,1.3-1.4c0.3-0.4,0.6-0.8,0.8-1.3c0.2-0.4,0.4-0.9,0.5-1.4
			c0.1-0.5,0.1-1.1,0.1-1.6c0-1.2-0.4-1.8-1.1-1.8s-1.2,0.7-1.2,2.1c0.1,0.6-0.2,1.2-0.8,1.6c-0.7,0.3-1.5,0.4-2.3,0.3
			c-1,0.1-2-0.2-2.8-0.9c-0.6-0.9-0.8-1.9-0.7-3c0-1.4,0.8-2.8,2-3.5c1.7-1,3.6-1.5,5.5-1.4c5.9,0,8.8,2.2,8.8,6.7
			c0,1-0.1,1.9-0.4,2.8c-0.2,0.7-0.5,1.4-0.9,2.1c-0.4,0.6-0.9,1.2-1.4,1.6c-0.5,0.5-1.1,0.9-1.7,1.3C14.9,18.3,14.2,18.7,13.6,19z"
			/>
		<path class="st1" d="M30.9,25.2c-1.5,0-3-0.2-4.5-0.7c-1.2-0.4-2.3-1.2-3.2-2.1c-0.8-0.9-1.3-2.1-1.2-3.4
			c-0.1-2.2,1.2-4.3,3.3-5.2c-1.4-1-2.2-2.6-2.2-4.3C23,7.6,23.8,6,25.3,4.9C26.9,3.8,29,3.2,31,3.3c2-0.1,4,0.5,5.6,1.6
			c1.4,1,2.2,2.7,2.2,4.4c0,1.7-0.8,3.3-2.2,4.3c2,1,3.3,3,3.2,5.2c0,1.9-0.9,3.6-2.5,4.6C35.4,24.7,33.2,25.3,30.9,25.2z
			 M32.6,18.9c0-0.8-0.1-1.5-0.4-2.2c-0.1-0.6-0.6-1-1.2-1c-0.6,0-1.1,0.4-1.3,1c-0.3,0.7-0.5,1.4-0.5,2.2c0,0.5,0.1,1,0.2,1.5
			c0.1,0.4,0.3,0.8,0.6,1.2c0.2,0.3,0.6,0.5,1,0.5c0.6,0,1-0.5,1.2-1C32.4,20.3,32.6,19.6,32.6,18.9z M32.5,9.1
			c0-0.6-0.1-1.2-0.4-1.8c-0.2-0.5-0.6-0.7-1.1-0.8c-0.3,0-0.7,0.2-0.9,0.4c-0.3,0.3-0.4,0.6-0.6,1c-0.1,0.4-0.2,0.9-0.2,1.3
			c0,0.7,0.1,1.3,0.4,1.9C30,11.7,30.5,12,31,12c0.5,0,1-0.4,1.2-0.9C32.4,10.5,32.5,9.8,32.5,9.1z"/>
	</g>
</g>
<polygon class="st2" points="30.3,7.1 29.7,9 30.2,11.2 31.5,11.6 32.3,9.5 31.7,7.4 "/>
<polygon class="st2" points="30.3,16.7 29.7,18.6 30.2,20.8 31.5,21.2 32.3,19.1 31.7,17.1 "/>
</svg>
