<svg xmlns="http://www.w3.org/2000/svg" viewBox="0 0 42.92 28.75"><defs><style>.cls-1{fill:none;stroke:#ea367b;stroke-width:6.6px;}.cls-2{fill:#fff;}</style></defs><title>9n</title><g id="Layer_2" data-name="Layer 2"><g id="barra_lateral_derecha" data-name="barra lateral derecha"><path class="cls-1" d="M13.59,19.15h3.59c1.81,0,2.71,1,2.71,3A3.06,3.06,0,0,1,19,24.63a4.84,4.84,0,0,1-3.05.73H7.21a5.61,5.61,0,0,1-3.09-.6c-.55-.4-.82-1.26-.82-2.57a4.1,4.1,0,0,1,.13-1.12,2.66,2.66,0,0,1,.49-.92,4.2,4.2,0,0,1,1-.87C6.05,18.5,7,17.88,7.64,17.4s1.32-1,2-1.5A10.22,10.22,0,0,0,11,14.54a7.42,7.42,0,0,0,.83-1.28,4.71,4.71,0,0,0,.49-1.42,11.72,11.72,0,0,0,.11-1.68c0-1.21-.38-1.81-1.13-1.81s-1.23.71-1.23,2.13A1.51,1.51,0,0,1,9.29,12,5.66,5.66,0,0,1,7,12.39a3.44,3.44,0,0,1-2.8-.91,4.8,4.8,0,0,1-.73-3,4.18,4.18,0,0,1,2-3.5A9.44,9.44,0,0,1,11,3.56q8.8,0,8.79,6.69a10.8,10.8,0,0,1-.35,2.83,8.41,8.41,0,0,1-.88,2.14,6.78,6.78,0,0,1-1.41,1.63,13,13,0,0,1-1.66,1.26A21,21,0,0,1,13.59,19.15Z"/><path class="cls-1" d="M32.51,16.88a10.83,10.83,0,0,1-3.24.52,7,7,0,0,1-5.1-1.94,6.54,6.54,0,0,1-2-4.92,7.42,7.42,0,0,1,1-3.88A6.42,6.42,0,0,1,26,4.16a9.57,9.57,0,0,1,4.16-.86A10.83,10.83,0,0,1,34,4a7.7,7.7,0,0,1,2.75,1.72,8.53,8.53,0,0,1,1.69,2.5,11.66,11.66,0,0,1,.9,2.9,16.43,16.43,0,0,1,.24,3,17.12,17.12,0,0,1-.37,3.7,10.82,10.82,0,0,1-1.2,3.13A8.78,8.78,0,0,1,36,23.35a8.87,8.87,0,0,1-3.07,1.55,14.24,14.24,0,0,1-4.13.55,8.16,8.16,0,0,1-4.4-1.1,3.26,3.26,0,0,1-1.77-2.84,3.06,3.06,0,0,1,.71-2,2.26,2.26,0,0,1,1.85-.88,4.58,4.58,0,0,1,1.74.62,4.77,4.77,0,0,0,2.13.61,3.21,3.21,0,0,0,1.52-.39,3.76,3.76,0,0,0,1.27-1.08A3.81,3.81,0,0,0,32.51,16.88ZM28.6,10.74A6.53,6.53,0,0,0,29,13.18c.28.7.68,1.05,1.19,1.05a1.17,1.17,0,0,0,.93-.53,3.62,3.62,0,0,0,.6-1.33,6.79,6.79,0,0,0,.19-1.63,6,6,0,0,0-.45-2.4c-.3-.68-.72-1-1.26-1s-.94.33-1.21,1A6.5,6.5,0,0,0,28.6,10.74Z"/><path class="cls-2" d="M13.59,19.15h3.59c1.81,0,2.71,1,2.71,3A3.06,3.06,0,0,1,19,24.63a4.84,4.84,0,0,1-3.05.73H7.21a5.61,5.61,0,0,1-3.09-.6c-.55-.4-.82-1.26-.82-2.57a4.1,4.1,0,0,1,.13-1.12,2.66,2.66,0,0,1,.49-.92,4.2,4.2,0,0,1,1-.87C6.05,18.5,7,17.88,7.64,17.4s1.32-1,2-1.5A10.22,10.22,0,0,0,11,14.54a7.42,7.42,0,0,0,.83-1.28,4.71,4.71,0,0,0,.49-1.42,11.72,11.72,0,0,0,.11-1.68c0-1.21-.38-1.81-1.13-1.81s-1.23.71-1.23,2.13A1.51,1.51,0,0,1,9.29,12,5.66,5.66,0,0,1,7,12.39a3.44,3.44,0,0,1-2.8-.91,4.8,4.8,0,0,1-.73-3,4.18,4.18,0,0,1,2-3.5A9.44,9.44,0,0,1,11,3.56q8.8,0,8.79,6.69a10.8,10.8,0,0,1-.35,2.83,8.41,8.41,0,0,1-.88,2.14,6.78,6.78,0,0,1-1.41,1.63,13,13,0,0,1-1.66,1.26A21,21,0,0,1,13.59,19.15Z"/><path class="cls-2" d="M32.51,16.88a10.83,10.83,0,0,1-3.24.52,7,7,0,0,1-5.1-1.94,6.54,6.54,0,0,1-2-4.92,7.42,7.42,0,0,1,1-3.88A6.42,6.42,0,0,1,26,4.16a9.57,9.57,0,0,1,4.16-.86A10.83,10.83,0,0,1,34,4a7.7,7.7,0,0,1,2.75,1.72,8.53,8.53,0,0,1,1.69,2.5,11.66,11.66,0,0,1,.9,2.9,16.43,16.43,0,0,1,.24,3,17.12,17.12,0,0,1-.37,3.7,10.82,10.82,0,0,1-1.2,3.13A8.78,8.78,0,0,1,36,23.35a8.87,8.87,0,0,1-3.07,1.55,14.24,14.24,0,0,1-4.13.55,8.16,8.16,0,0,1-4.4-1.1,3.26,3.26,0,0,1-1.77-2.84,3.06,3.06,0,0,1,.71-2,2.26,2.26,0,0,1,1.85-.88,4.58,4.58,0,0,1,1.74.62,4.77,4.77,0,0,0,2.13.61,3.21,3.21,0,0,0,1.52-.39,3.76,3.76,0,0,0,1.27-1.08A3.81,3.81,0,0,0,32.51,16.88ZM28.6,10.74A6.53,6.53,0,0,0,29,13.18c.28.7.68,1.05,1.19,1.05a1.17,1.17,0,0,0,.93-.53,3.62,3.62,0,0,0,.6-1.33,6.79,6.79,0,0,0,.19-1.63,6,6,0,0,0-.45-2.4c-.3-.68-.72-1-1.26-1s-.94.33-1.21,1A6.5,6.5,0,0,0,28.6,10.74Z"/></g></g></svg>