<?xml version="1.0" encoding="utf-8"?>
<!-- Generator: Adobe Illustrator 24.0.2, SVG Export Plug-In . SVG Version: 6.00 Build 0)  -->
<svg version="1.1" id="Layer_1" xmlns="http://www.w3.org/2000/svg" xmlns:xlink="http://www.w3.org/1999/xlink" x="0px" y="0px"
	 viewBox="0 0 163.5 314.9" style="enable-background:new 0 0 163.5 314.9;" xml:space="preserve">
<style type="text/css">
	.st0{fill:#82000A;stroke:#000000;stroke-width:2.12;stroke-miterlimit:10;}
	.st1{fill:#FFFFFF;stroke:#000000;stroke-width:1.11;stroke-miterlimit:10;}
	.st2{fill:none;stroke:#000000;stroke-width:1.11;stroke-miterlimit:10;}
	.st3{fill:#C1272D;stroke:#000000;stroke-width:2.12;stroke-miterlimit:10;}
	.st4{fill:none;stroke:#000000;stroke-width:3.68;stroke-linecap:round;stroke-miterlimit:10;}
	.st5{fill:#FFFFFF;stroke:#000000;stroke-width:1.23;stroke-miterlimit:10;}
	.st6{stroke:#000000;stroke-width:0.71;stroke-miterlimit:10;}
	.st7{fill:none;stroke:#000000;stroke-width:2.45;stroke-linecap:round;stroke-miterlimit:10;}
	.st8{stroke:#000000;stroke-width:0.66;stroke-miterlimit:10;}
	.st9{fill:#EA5E58;stroke:#000000;stroke-width:0.66;stroke-miterlimit:10;}
	.st10{fill:#FFFFFF;stroke:#000000;stroke-width:0.66;stroke-miterlimit:10;}
	.st11{fill:#D85067;stroke:#000000;stroke-width:0.92;stroke-miterlimit:10;}
	.st12{fill:#FFFFFF;}
</style>
<title>L11</title>
<g>
	<rect x="30" y="34.6" class="st0" width="129.3" height="175.6"/>
	<rect x="120.8" y="34.3" class="st1" width="35.4" height="175.6"/>
	<line class="st2" x1="127" y1="34.6" x2="127" y2="210.2"/>
	<line class="st2" x1="133.1" y1="34.3" x2="133.1" y2="210.4"/>
	<line class="st2" x1="139.2" y1="34.3" x2="139.2" y2="210.4"/>
	<line class="st2" x1="145.3" y1="34.7" x2="145.3" y2="210.3"/>
	<line class="st2" x1="151.5" y1="34.7" x2="151.5" y2="210.3"/>
	<rect x="12.6" y="34.8" class="st3" width="129.3" height="175.6"/>
	<path class="st4" d="M20.5,48.1c0,0-33.3,0-9.4,10.7"/>
	<path class="st4" d="M20.5,82.7c0,0-33.3,0-9.4,10.7"/>
	<path class="st4" d="M20.5,117.3c0,0-33.3,0-9.4,10.7"/>
	<path class="st4" d="M20.5,151.9c0,0-33.3,0-9.4,10.6"/>
	<path class="st4" d="M20.5,186.4c0,0-33.3,0-9.4,10.6"/>
	<ellipse class="st5" cx="50.9" cy="117.7" rx="14.9" ry="22.1"/>
	<ellipse class="st5" cx="90.7" cy="116.5" rx="14.9" ry="22.1"/>
	<ellipse class="st6" cx="83.5" cy="116.5" rx="7.7" ry="11.3"/>
	<ellipse class="st6" cx="44" cy="116.5" rx="7.7" ry="11.3"/>
	<path class="st7" d="M40.4,88.2c0,0,7.9-8.3,15.6,0"/>
	<path class="st7" d="M83.4,88.2c0,0,7.9-8.3,15.6,0"/>
	<path class="st8" d="M100.5,152.6c0,1.2-0.1,2.4-0.4,3.5c-9.9-2.7-20.1,3.2-22.8,13.1c-0.3,1.2-0.5,2.4-0.6,3.6
		c-9.7,0.4-18.2-4.1-21-11.3c-0.5-1.3,0.6-2.7,2.2-3l39.3-7.8C98.9,150.4,100.4,151.3,100.5,152.6z"/>
	<path class="st9" d="M100.1,156.1c-1.7,7.5-9.1,14.2-19,16.2c-1.5,0.3-2.9,0.5-4.4,0.5c0.7-10.2,9.5-18,19.8-17.3
		C97.7,155.6,98.9,155.8,100.1,156.1L100.1,156.1z"/>
	<path class="st10" d="M77.7,154.9c0.6,3.1-0.9,6.1-3.4,6.6s-5.1-1.6-5.7-4.8c-0.1-0.5-0.1-0.9-0.1-1.4c3.1,0,6.1-0.3,9.1-0.9
		C77.6,154.6,77.6,154.7,77.7,154.9z"/>
	<path class="st10" d="M86.7,153.1c0.6,3.1-0.9,6-3.4,6.6s-5.1-1.6-5.7-4.7c0-0.2-0.1-0.3-0.1-0.5l0,0c3-0.6,5.9-1.5,8.8-2.7
		C86.5,152.2,86.6,152.6,86.7,153.1z"/>
	<path class="st11" d="M103.4,146.7c-2.1-1.6-4.7-2.2-7.3-1.7l-39.3,7.8c-2.6,0.5-4.8,2.1-6.1,4.4c-1.1,2-1.3,4.4-0.4,6.5
		c2.4,5.7,7,10.3,12.8,12.6c4.5,1.9,9.3,2.7,14.2,2.4c1.7-0.1,3.4-0.3,5-0.6c6.5-1.2,12.4-4.4,17.1-9c2.9-2.9,5-6.5,6.2-10.4
		c0.6-2,0.8-4,0.8-6.1C106.2,150.2,105.2,148.1,103.4,146.7z M100.5,152.7c0,1.2-0.1,2.4-0.4,3.5c-1.7,7.5-9.1,14.2-19,16.2
		c-1.5,0.3-2.9,0.5-4.4,0.5c-9.7,0.4-18.2-4.1-21-11.3c-0.5-1.3,0.6-2.7,2.2-3l39.3-7.8C98.9,150.4,100.4,151.3,100.5,152.7
		L100.5,152.7z"/>
	<circle class="st12" cx="42.8" cy="112.1" r="2.2"/>
	<circle class="st12" cx="81.8" cy="112.1" r="2.2"/>
</g>
</svg>
