<?xml version="1.0" encoding="utf-8"?>
<!-- Generator: Adobe Illustrator 24.0.2, SVG Export Plug-In . SVG Version: 6.00 Build 0)  -->
<svg version="1.1" id="Layer_1" xmlns="http://www.w3.org/2000/svg" xmlns:xlink="http://www.w3.org/1999/xlink" x="0px" y="0px"
	 viewBox="0 0 326 349.3" style="enable-background:new 0 0 326 349.3;" xml:space="preserve">
<style type="text/css">
	.st0{fill:#E5E5E5;}
	.st1{fill:#004F27;}
	.st2{fill:#441216;}
	.st3{fill:#FFFFFF;stroke:#000000;stroke-width:2.1595;stroke-miterlimit:10;}
	.st4{fill:#441216;stroke:#000000;stroke-width:1.4784;stroke-miterlimit:10;}
	.st5{fill:#82000A;stroke:#000000;stroke-width:2.4695;stroke-miterlimit:10;}
	.st6{fill:#FFFFFF;stroke:#000000;stroke-width:1.2926;stroke-miterlimit:10;}
	.st7{fill:none;stroke:#000000;stroke-width:1.2926;stroke-miterlimit:10;}
	.st8{fill:#C1272D;stroke:#000000;stroke-width:2.4695;stroke-miterlimit:10;}
	.st9{fill:#441216;stroke:#000000;stroke-width:1.412;stroke-miterlimit:10;}
	.st10{fill:#FFFFFF;stroke:#000000;stroke-width:1.3297;stroke-miterlimit:10;}
	.st11{fill:#FFFFFF;}
	.st12{fill:#FFFFFF;stroke:#000000;stroke-width:1.409;stroke-linecap:round;stroke-linejoin:round;stroke-miterlimit:10;}
	.st13{fill:none;stroke:#000000;stroke-width:4.388;stroke-linecap:round;stroke-miterlimit:10;}
	.st14{display:none;}
	.st15{display:inline;}
	.st16{fill:#ABD6BD;stroke:#000000;stroke-width:0.8365;stroke-miterlimit:10;}
	.st17{fill:#FFD18F;stroke:#000000;stroke-width:1.6455;stroke-miterlimit:10;}
	.st18{stroke:#000000;stroke-width:8.363404e-02;stroke-miterlimit:10;}
	.st19{fill:#FFFFFF;stroke:#000000;stroke-width:8.363404e-02;stroke-miterlimit:10;}
	.st20{fill:#FFFFFF;stroke:#000000;stroke-width:2.194;stroke-miterlimit:10;}
	.st21{stroke:#000000;stroke-width:0.2788;stroke-miterlimit:10;}
	.st22{fill:#D85067;stroke:#000000;stroke-width:0.7441;stroke-miterlimit:10;}
	.st23{stroke:#000000;stroke-width:0.1607;stroke-miterlimit:10;}
	.st24{fill:none;stroke:#000000;stroke-width:4.1847;stroke-linecap:round;stroke-miterlimit:10;}
	.st25{fill:#441216;stroke:#000000;stroke-width:1.05;stroke-miterlimit:10;}
	.st26{fill:#FFFFFF;stroke:#000000;stroke-width:1.4059;stroke-miterlimit:10;}
</style>
<title>lp</title>
<g>
	<g>
		<g>
			<path class="st0" d="M87.9,340.7c0.2-0.1,3.5-1.5,4.9-2.3c0.4-0.2,7.9-4.4,10.7-5.3h0.1c3.3-1.1,9.8-2.1,13.8-2.7l0.5-0.1
				c0.9-0.1,1.7-0.3,2.5-0.6c4.4-1.6,7.7-5.3,8.5-9.9c2.3,3.3,1.7,6.5,0.3,8.5c-4,5.6-8.8,6.3-14.7,7.3c-2.6,0.4-5.4,0.9-8.3,1.8
				c-5.1,1.6-8.9,3.5-12.2,5.1c-5.6,2.8-9.6,4.8-16.3,3.7c-4.1-0.7-5.9-4.1-6.7-6.4C75.2,342.5,81.6,342.9,87.9,340.7z"/>
			<path class="st1" d="M79.3,316.5c3-1.1,6.2-1.5,9.1-1.2h0.1c0,0,4.2,0.2,8.4,4.7c0.3,0.3,0.8,0.4,1.2,0c0.3-0.3,0.4-0.8,0-1.2
				c-2-2.1-3.9-3.4-5.6-4.2c0.5-3,1.7-5.8,3.6-8.2c1.9,0.1,4.1-0.1,6.4-0.6h0.1c0.4-0.1,0.6-0.6,0.5-1c-0.1-0.5-0.5-0.7-1-0.6
				c-2.3,0.5-4.5,0.7-6.3,0.5h-0.1c-3.1-0.2-5.3-1.3-5.9-3.1c-1.2-3.4,3.9-8.5,11.2-11.1c7.3-2.6,14.4-1.8,15.6,1.6
				c0.7,1.9-0.6,4.3-3.2,6.6l-0.1,0.1c-0.9,0.8-2,1.6-3.2,2.3c-0.4,0.2-0.5,0.7-0.3,1.1s0.7,0.5,1.1,0.3c1.2-0.7,2.3-1.4,3.2-2.2
				c5.6,1.5,10.2,5.6,12.1,11.1c0.7,2,1,4,1,6.1v0.1c-0.1,5.5-4.2,10.1-9.8,10.9l-0.5,0.1c-4.2,0.6-10.7,1.6-14.1,2.7
				c-2.9,1-10.7,5.3-11.1,5.5l0,0c-1.2,0.7-4.3,2.1-4.5,2.2c-6.5,2.3-13.5,1.5-17.4-2.1c-1.1-1-1.9-2.2-2.4-3.6
				C65.3,327.2,70.6,319.6,79.3,316.5z"/>
			<path d="M66,333.9c0.5,1.5,1.4,2.9,2.6,4c0.1,1.1,0.8,2.9,1.2,3.8c1.1,2.3,3.4,5.2,7.4,5.9c7.2,1.2,11.7-1,17.3-3.8
				c3.3-1.6,7-3.5,12-5c2.9-0.9,5.5-1.3,8.1-1.7c2.7-0.4,5.2-0.8,7.5-1.7c3-1.1,5.8-2.9,8.3-6.3c1.9-2.7,2.7-7.4-1.4-11.9
				c0-2.1-0.4-4.3-1.1-6.3c-2-5.7-6.5-10-12.2-11.9c2.4-2.5,3.4-5.1,2.6-7.4c-1.6-4.4-9.4-5.6-17.8-2.6s-13.8,8.8-12.2,13.2
				c0.7,2.1,2.9,3.5,5.9,4c-1.6,2.3-2.7,5-3.2,7.8c-1.3-0.4-2.2-0.5-2.4-0.5c-3.2-0.3-6.5,0.2-9.8,1.3
				C69.2,318.3,63.5,326.8,66,333.9z M70.7,339.7c4.5,2.8,10.9,3.2,17.2,1c0.2-0.1,3.5-1.5,4.9-2.3c0.4-0.2,7.9-4.4,10.7-5.3h0.1
				c3.3-1.1,9.8-2.1,13.8-2.7l0.5-0.1c0.9-0.1,1.7-0.3,2.5-0.6c4.4-1.6,7.7-5.3,8.5-9.9c2.3,3.3,1.7,6.5,0.3,8.5
				c-4,5.6-8.8,6.3-14.7,7.3c-2.6,0.4-5.4,0.9-8.3,1.8c-5.1,1.6-8.9,3.5-12.2,5.1c-5.6,2.8-9.6,4.8-16.3,3.7
				C73.4,345.4,71.5,341.9,70.7,339.7z M67.5,333.4c-2.2-6.2,3.1-13.8,11.8-16.9c3-1.1,6.2-1.5,9.1-1.2h0.1c0,0,4.2,0.2,8.4,4.7
				c0.3,0.3,0.8,0.4,1.2,0c0.3-0.3,0.4-0.8,0-1.2c-2-2.1-3.9-3.4-5.6-4.2c0.5-3,1.7-5.8,3.6-8.2c1.9,0.1,4.1-0.1,6.4-0.6h0.1
				c0.4-0.1,0.6-0.6,0.5-1c-0.1-0.5-0.5-0.7-1-0.6c-2.3,0.5-4.5,0.7-6.3,0.5h-0.1c-3.1-0.2-5.3-1.3-5.9-3.1
				c-1.2-3.4,3.9-8.5,11.2-11.1c7.3-2.6,14.4-1.8,15.6,1.6c0.7,1.9-0.6,4.3-3.2,6.6l-0.1,0.1c-0.9,0.8-2,1.6-3.2,2.3
				c-0.4,0.2-0.5,0.7-0.3,1.1s0.7,0.5,1.1,0.3c1.2-0.7,2.3-1.4,3.2-2.2c5.6,1.5,10.2,5.6,12.1,11.1c0.7,2,1,4,1,6.1v0.1
				c-0.1,5.5-4.2,10.1-9.8,10.9l-0.5,0.1c-4.2,0.6-10.7,1.6-14.1,2.7c-2.9,1-10.7,5.3-11.1,5.5l0,0c-1.2,0.7-4.3,2.1-4.5,2.2
				c-6.5,2.3-13.5,1.5-17.4-2.1C68.8,336,68,334.7,67.5,333.4z"/>
		</g>
		<g>
			<path class="st2" d="M101.7,300c-3.6,0-6.7-2.4-7.7-5.9l-6.4-23.9c-0.1-0.4-0.2-0.8-0.2-1.2c-0.9-8.2,0.6-16.4,4.6-23.6
				c1.4-2.7,3.5-5,6.1-6.6l5.9-3.6c2.2-1.4,4.7-2.4,7.2-3.1c0.7-0.2,1.4-0.3,2-0.3c3,0,5.9,1.8,7.2,4.5v0.1
				c1.8,3.7,0.4,8.3-3.2,10.3l-6.8,4c-3.7,2.1-6,5.9-6.4,10.1c-0.6,7,0.3,14,2.6,20.6l2.7,8c0.7,2.1,0.5,4.5-0.6,6.4s-3,3.4-5.2,3.9
				C102.9,299.9,102.3,300,101.7,300z"/>
			<g>
				<path d="M113.1,232.7c2.7,0,5.2,1.5,6.4,4v0.1c1.6,3.3,0.4,7.4-2.8,9.2l-6.8,4c-3.9,2.3-6.4,6.3-6.8,10.8l0,0
					c-0.6,7.1,0.3,14.2,2.6,21l2.7,8c1.4,4-1,8.3-5.1,9.2l0,0c-0.5,0.1-1.1,0.2-1.6,0.2c-3.1,0-6-2.1-6.9-5.3L88.4,270
					c-0.1-0.3-0.2-0.7-0.2-1l0,0c-0.9-8,0.6-16.1,4.5-23.1l0,0c1.4-2.6,3.4-4.7,5.8-6.3l5.9-3.6c2.2-1.3,4.5-2.3,7-3l0,0
					C111.8,232.8,112.5,232.7,113.1,232.7 M113.1,231L113.1,231c-0.8,0-1.5,0.1-2.3,0.3c-2.6,0.7-5.1,1.8-7.4,3.2l-5.9,3.6l0,0l0,0
					c-2.6,1.7-4.8,4.1-6.4,6.9c-4,7.4-5.6,15.8-4.7,24.1c0,0.4,0.1,0.9,0.2,1.3l6.4,23.9c1,3.8,4.5,6.5,8.5,6.5c0.7,0,1.3-0.1,2-0.2
					c2.4-0.6,4.5-2.1,5.7-4.3c1.2-2.2,1.4-4.8,0.6-7.1l-2.7-8c-2.2-6.6-3.1-13.4-2.5-20.3c0.3-3.9,2.5-7.5,6-9.4l6.8-4
					c4-2.3,5.5-7.3,3.5-11.5v-0.1C119.5,233,116.4,231,113.1,231L113.1,231z"/>
			</g>
		</g>
		<path class="st3" d="M103.7,299.7L103.7,299.7c-4.2,1.2-8.5-1.3-9.7-5.5l-2.4-8.5c-0.2-0.7,0.2-1.4,0.9-1.6l12.7-3.5
			c0.7-0.2,1.4,0.2,1.6,0.9l2.4,8.5C110.4,294.2,107.9,298.6,103.7,299.7z"/>
	</g>
	<g>
		<g>
			<path class="st0" d="M179.9,340.7c-0.2-0.1-3.5-1.5-4.9-2.3c-0.4-0.2-7.9-4.4-10.7-5.3h-0.1c-3.3-1.1-9.8-2.1-13.8-2.7l-0.5-0.1
				c-0.9-0.1-1.7-0.3-2.5-0.6c-4.4-1.6-7.7-5.3-8.5-9.9c-2.3,3.3-1.7,6.5-0.3,8.5c4,5.6,8.8,6.3,14.7,7.3c2.6,0.4,5.4,0.9,8.3,1.8
				c5.1,1.6,8.9,3.5,12.2,5.1c5.6,2.8,9.6,4.8,16.3,3.7c4.1-0.7,5.9-4.1,6.7-6.4C192.6,342.5,186.1,342.9,179.9,340.7z"/>
			<path class="st1" d="M188.4,316.5c-3-1.1-6.2-1.5-9.1-1.2h-0.1c0,0-4.2,0.2-8.4,4.7c-0.3,0.3-0.8,0.4-1.2,0
				c-0.3-0.3-0.4-0.8,0-1.2c2-2.1,3.9-3.4,5.6-4.2c-0.5-3-1.7-5.8-3.6-8.2c-1.9,0.1-4.1-0.1-6.4-0.6h-0.1c-0.4-0.1-0.6-0.6-0.5-1
				c0.1-0.5,0.5-0.7,1-0.6c2.3,0.5,4.5,0.7,6.3,0.5h0.1c3.1-0.2,5.3-1.3,5.9-3.1c1.2-3.4-3.9-8.5-11.2-11.1s-14.4-1.8-15.6,1.6
				c-0.7,1.9,0.6,4.3,3.2,6.6l0.1,0.1c0.9,0.8,2,1.6,3.2,2.3c0.4,0.2,0.5,0.7,0.3,1.1s-0.7,0.5-1.1,0.3c-1.2-0.7-2.3-1.4-3.2-2.2
				c-5.6,1.5-10.2,5.6-12.1,11.1c-0.7,2-1,4-1,6.1v0.1c0.1,5.5,4.2,10.1,9.8,10.9l0.5,0.1c4.2,0.6,10.7,1.6,14.1,2.7
				c2.9,1,10.7,5.3,11.1,5.5l0,0c1.2,0.7,4.3,2.1,4.5,2.2c6.5,2.3,13.5,1.5,17.4-2.1c1.1-1,1.9-2.2,2.4-3.6
				C202.4,327.2,197.1,319.6,188.4,316.5z"/>
			<path d="M201.8,333.9c-0.5,1.5-1.4,2.9-2.6,4c-0.1,1.1-0.8,2.9-1.2,3.8c-1.1,2.3-3.4,5.2-7.4,5.9c-7.2,1.2-11.7-1-17.3-3.8
				c-3.3-1.6-7-3.5-12-5c-2.9-0.9-5.5-1.3-8.1-1.7c-2.7-0.4-5.2-0.8-7.5-1.7c-3-1.1-5.8-2.9-8.3-6.3c-1.9-2.7-2.7-7.4,1.4-11.9
				c0-2.1,0.4-4.3,1.1-6.3c2-5.7,6.5-10,12.2-11.9c-2.4-2.5-3.4-5.1-2.6-7.4c1.6-4.4,9.4-5.6,17.8-2.6c8.4,3,13.8,8.8,12.2,13.2
				c-0.7,2.1-2.9,3.5-5.9,4c1.6,2.3,2.7,5,3.2,7.8c1.3-0.4,2.2-0.5,2.4-0.5c3.2-0.3,6.5,0.2,9.8,1.3
				C198.6,318.3,204.3,326.8,201.8,333.9z M197,339.7c-4.5,2.8-10.9,3.2-17.2,1c-0.2-0.1-3.5-1.5-4.9-2.3c-0.4-0.2-7.9-4.4-10.7-5.3
				h-0.1c-3.3-1.1-9.8-2.1-13.8-2.7l-0.5-0.1c-0.9-0.1-1.7-0.3-2.5-0.6c-4.4-1.6-7.7-5.3-8.5-9.9c-2.3,3.3-1.7,6.5-0.3,8.5
				c4,5.6,8.8,6.3,14.7,7.3c2.6,0.4,5.4,0.9,8.3,1.8c5.1,1.6,8.9,3.5,12.2,5.1c5.6,2.8,9.6,4.8,16.3,3.7
				C194.4,345.4,196.2,341.9,197,339.7z M200.2,333.4c2.2-6.2-3.1-13.8-11.8-16.9c-3-1.1-6.2-1.5-9.1-1.2h-0.1c0,0-4.2,0.2-8.4,4.7
				c-0.3,0.3-0.8,0.4-1.2,0c-0.3-0.3-0.4-0.8,0-1.2c2-2.1,3.9-3.4,5.6-4.2c-0.5-3-1.7-5.8-3.6-8.2c-1.9,0.1-4.1-0.1-6.4-0.6h-0.1
				c-0.4-0.1-0.6-0.6-0.5-1c0.1-0.5,0.5-0.7,1-0.6c2.3,0.5,4.5,0.7,6.3,0.5h0.1c3.1-0.2,5.3-1.3,5.9-3.1c1.2-3.4-3.9-8.5-11.2-11.1
				s-14.4-1.8-15.6,1.6c-0.7,1.9,0.6,4.3,3.2,6.6l0.1,0.1c0.9,0.8,2,1.6,3.2,2.3c0.4,0.2,0.5,0.7,0.3,1.1s-0.7,0.5-1.1,0.3
				c-1.2-0.7-2.3-1.4-3.2-2.2c-5.6,1.5-10.2,5.6-12.1,11.1c-0.7,2-1,4-1,6.1v0.1c0.1,5.5,4.2,10.1,9.8,10.9l0.5,0.1
				c4.2,0.6,10.7,1.6,14.1,2.7c2.9,1,10.7,5.3,11.1,5.5l0,0c1.2,0.7,4.3,2.1,4.5,2.2c6.5,2.3,13.5,1.5,17.4-2.1
				C198.9,336,199.7,334.7,200.2,333.4z"/>
		</g>
		<path class="st4" d="M156.1,232.5L156.1,232.5c-3.3-0.9-6.7,0.7-8.2,3.8v0.1c-1.6,3.3-0.4,7.4,2.8,9.2l6.8,4
			c3.9,2.3,6.4,6.3,6.8,10.8l0,0c0.6,7.1-0.3,14.2-2.6,21l-2.7,8c-1.4,4,1,8.3,5.1,9.2l0,0c3.7,0.9,7.5-1.4,8.5-5.1l6.4-23.9
			c0.1-0.3,0.2-0.7,0.2-1l0,0c0.9-8-0.6-16.1-4.5-23.1l0,0c-1.4-2.6-3.4-4.7-5.8-6.3l-5.9-3.6C160.8,234.2,158.5,233.2,156.1,232.5z
			"/>
		<path class="st3" d="M163.5,299.3L163.5,299.3c4.2,1.2,8.5-1.3,9.7-5.5l2.4-8.5c0.2-0.7-0.2-1.4-0.9-1.6l-12.7-3.5
			c-0.7-0.2-1.4,0.2-1.6,0.9l-2.4,8.5C156.9,293.8,159.4,298.1,163.5,299.3z"/>
	</g>
	<g>
		<g>
			<rect x="77.3" y="35.8" class="st5" width="150.9" height="204.9"/>
			<g>
				<rect x="183.2" y="35.5" class="st6" width="41.3" height="204.9"/>
				<line class="st7" x1="190.3" y1="35.8" x2="190.3" y2="240.7"/>
				<line class="st7" x1="197.5" y1="35.5" x2="197.5" y2="240.9"/>
				<line class="st7" x1="204.6" y1="35.5" x2="204.6" y2="240.9"/>
				<line class="st7" x1="211.8" y1="35.9" x2="211.8" y2="240.7"/>
				<line class="st7" x1="218.9" y1="35.9" x2="218.9" y2="240.7"/>
			</g>
		</g>
		<rect x="56.9" y="36" class="st8" width="150.9" height="204.9"/>
	</g>
	<g>
		<g>
			<path class="st9" d="M18.2,225.9c4.4,0.9,8.8,1.7,13.3,2.3c4.2-20.5,10.1-33.6,14.7-41.3c5.6-9.4,10.3-13,10.8-13.3h-0.1
				l-1.6-13.7c-0.7,0.4-12.7,7-20,18.8c-4.1,6.7-7.8,14.6-10.8,23.5C22,209.4,19.9,217.4,18.2,225.9z"/>
		</g>
		<g>
			<path class="st10" d="M11.2,233.2c0,0-2.6-6.6,6.4-9.8c10.5-3.8,24.7,5.5,16.6,13.6L11.2,233.2z"/>
			<ellipse class="st11" cx="22.3" cy="235.9" rx="10.6" ry="8.1"/>
			<path class="st12" d="M20,228c-6.4,0.2-11.3,4.2-13.9,14.2c-1.6,6.8-1.3,12,0.6,15.9c1,2,3.3,3,5.4,2.4l0,0l1-5.7"/>
			<path class="st12" d="M11.9,245.8c-1.8,3.9-2.3,8.2-1.7,12.9c0.6,3.6,2.2,5.8,4.1,7.6c1,0.9,2.3,1.3,3.6,0.9l0,0
				c1.3-0.4,2-1.9,1.5-3.2l-1.1-3.1c-0.5-1.5-0.9-3.1-1-4.7c-0.1-2.8,0.2-5.7,0.7-8.7c-1.3,5.9-1,11.4,1.2,16.4
				c0.7,1.5,1.9,2.7,3.4,3.3l0,0c1.2,0.5,2.6,0.2,3.5-0.8l0.5-0.5c1-1,1.5-2.4,1.5-3.8l0,0c0-0.6-0.1-1.2-0.4-1.7l-0.5-1.1
				c-1-2.2-1.3-4.6-1.1-7l0.5-5c0-0.3,0.4-0.3,0.5,0c0.2,1.9,0.5,3.4,0.9,4.7c0.5,1.6,1.3,3,2.3,4.2l0.3,0.4
				c0.6,0.7,1.5,1.2,2.4,1.4c0.8,0.2,1.6,0,2.3-0.3c1.7-0.9,2.3-3,1.6-4.7l-0.9-2.3c-1.1-2.6-1.4-5.4-1.1-8.1l0.2-1.3
				c0.2-1.4,0-2.8-0.4-4.1l0,0c-0.7-1.9-1.9-3.7-3.4-5l-2.6-2.2"/>
		</g>
	</g>
	<g>
		<path class="st13" d="M90.7,97.4c0,0,10.8-11.3,21.2,0"/>
		<path class="st13" d="M149.5,97.4c0,0,10.8-11.3,21.2,0"/>
		<g class="st14">
			<g class="st15">
				<g>
					<path class="st16" d="M130.5,189c0,0.2,0,0.4,0,0.5C130.6,189.3,130.6,189.2,130.5,189L130.5,189z"/>
					<path class="st17" d="M168.2,181.1c-3.4-4.8-10.1-6.1-14.9-2.8c-0.3,0.2-6,3.8-15.1,5.3c-1.7,0.3-3.5,0.5-5.4,0.6
						c-0.7,0-1.4,0-2.2,0s-1.5,0-2.3-0.1c-1.9-0.1-3.7-0.3-5.4-0.6c-9-1.5-14.7-5.1-15.1-5.3c-4.9-3.3-11.5-2.1-14.9,2.7
						c-3.4,4.9-2.2,11.6,2.6,15c1.4,1,14.5,9.7,34.9,9.7s33.5-8.7,34.9-9.7C170.4,192.7,171.6,186,168.2,181.1z M162.8,192.2
						c-0.5,0.4-12.9,8.9-32.2,8.9s-31.7-8.5-32.2-8.9c-2.7-1.9-3.4-5.7-1.5-8.4s5.7-3.4,8.4-1.5c0.1,0.1,5.7,3.8,14.9,5.7
						c3.1,0.6,6.6,1,10.4,1h0.1c3.8,0,7.3-0.4,10.4-1c9.3-1.9,14.9-5.6,15-5.7c2.7-1.9,6.5-1.2,8.4,1.5
						C166.2,186.5,165.5,190.3,162.8,192.2z"/>
				</g>
			</g>
			<g class="st15">
				<path class="st18" d="M162.8,192.2c-0.5,0.4-12.9,8.9-32.2,8.9s-31.7-8.5-32.2-8.9c-2.7-1.9-3.4-5.7-1.5-8.4s5.7-3.4,8.4-1.5
					c0.1,0.1,5.7,3.8,14.9,5.7c-0.1,0.5-0.2,1-0.2,1.6c0,3.6,2.4,6.6,5.3,6.6c2.9,0,5.3-2.9,5.3-6.6c0,3.6,2.4,6.6,5.3,6.6
					c2.9,0,5.3-2.9,5.3-6.6c0-0.5-0.1-1.1-0.2-1.6c9.3-1.9,14.9-5.6,15-5.7c2.7-1.9,6.5-1.2,8.4,1.5
					C166.2,186.5,165.5,190.3,162.8,192.2z"/>
				<path class="st18" d="M130.6,189c0,0.2,0,0.4,0,0.5C130.6,189.3,130.6,189.2,130.6,189L130.6,189z"/>
			</g>
			<g class="st15">
				<path class="st19" d="M130.6,189.5c0,3.6-2.4,6.6-5.3,6.6c-2.9,0-5.3-2.9-5.3-6.6c0-0.5,0.1-1.1,0.2-1.6c3.1,0.6,6.6,1,10.4,1
					C130.6,189.2,130.6,189.3,130.6,189.5z"/>
			</g>
			<g class="st15">
				<path class="st19" d="M141.1,189.5c0,3.6-2.4,6.6-5.3,6.6c-2.9,0-5.3-2.9-5.3-6.6c0-0.2,0-0.4,0-0.5l0,0c3.8,0,7.3-0.4,10.4-1
					C141.1,188.5,141.1,189,141.1,189.5z"/>
			</g>
		</g>
		<g>
			<ellipse class="st20" cx="105.2" cy="137.7" rx="20.3" ry="30.1"/>
			<ellipse class="st21" cx="111.8" cy="148" rx="10.5" ry="15.5"/>
			<circle class="st11" cx="107.5" cy="142.3" r="4"/>
		</g>
		<g>
			<ellipse class="st20" cx="159.5" cy="136.1" rx="20.3" ry="30.1"/>
			<ellipse class="st21" cx="166.5" cy="146.3" rx="10.5" ry="15.5"/>
			<circle class="st11" cx="162.5" cy="140.6" r="4"/>
		</g>
		<g>
			<g>
				<path class="st22" d="M159,180.1c2.3,0,4.5,1.1,5.9,3.2c2.1,3.2,1.2,7.6-2.1,9.7c-18.7,12.2-42.9,12.2-61.7,0
					c-3.2-2.1-4.2-6.4-2.1-9.7c2.1-3.2,6.4-4.2,9.7-2.1c14.1,9.2,32.3,9.2,46.5,0C156.4,180.4,157.7,180.1,159,180.1z"/>
			</g>
			<g>
				<path class="st23" d="M105,184.7c0.4,0,0.9,0.1,1.3,0.4c15.6,10.1,35.9,10.1,51.5,0c1.1-0.7,2.5-0.4,3.2,0.7
					c0.7,1.1,0.4,2.5-0.7,3.2c-17.2,11.2-39.4,11.2-56.6,0c-1.1-0.7-1.4-2.2-0.7-3.2C103.4,185.1,104.2,184.7,105,184.7z"/>
			</g>
		</g>
	</g>
	<path class="st24" d="M66.5,55.9c0,0-37.9,0-10.6,12.1"/>
	<path class="st24" d="M66.5,95.3c0,0-37.9,0-10.6,12.1"/>
	<path class="st24" d="M66.5,134.6c0,0-37.9,0-10.6,12.1"/>
	<path class="st24" d="M66.5,173.9c0,0-37.9,0-10.6,12.1"/>
	<path class="st24" d="M66.5,213.2c0,0-37.9,0-10.6,12.1"/>
</g>
<path class="st25" d="M265.8,228.9c-5.4,1.6-10.8,3-16.2,4.3c-7.4-24.9-16.1-40.4-22.6-49.4c-7.9-11-14.2-14.9-14.8-15.2l0,0
	l0.4-17.1c0.9,0.5,16.5,7.3,26.8,21c6.3,8.7,11.6,18,15.9,27.8C259.5,209.6,263,219.2,265.8,228.9z"/>
<path class="st26" d="M267.1,222c-2.4-2.9-7.9-2.2-12.4,1.6c-4.5,3.7-6.2,9.1-3.8,11.9c2.4,2.9,7.9,2.2,12.4-1.6
	C267.7,230.2,269.4,224.9,267.1,222z"/>
<path class="st26" d="M261.6,224.3c-2,2.6-5.4,3.5-8.4,2.2c-5.4-2.1-9.9-2.5-11.6,1.5c-1.5,3.7,1.2,8.7,11.9,7.2c0,0-1,10.4,10,7.7
	c0,0,6.1,8.8,17.7,0.5c11.7-8.3-7.7-18.4-7.7-18.4l-9-0.4L261.6,224.3z"/>
<path class="st26" d="M273,240c0,0,3.3-11,11-7.5c7.7,3.4,1,22.7-4.5,20.8c-5.5-2-2.6-9.8,0.1-13.3"/>
<path class="st26" d="M267.8,235.5c0,0,0.3-11.4,8.6-10.1s6.9,21.6,1.1,21.2c-5.8-0.4-5.1-8.8-3.4-12.9"/>
<path class="st26" d="M259.7,230c0,0-0.2-11.4,8.1-10.6c8.3,0.9,7.9,21.3,2.1,21.1c-5.8-0.2-5.5-8.5-4-12.7"/>
</svg>
