<svg xmlns="http://www.w3.org/2000/svg" viewBox="0 0 188.26 165.32"><defs><style>.cls-1,.cls-10,.cls-18{fill:#441216;}.cls-1,.cls-10,.cls-11,.cls-12,.cls-13,.cls-14,.cls-16,.cls-17,.cls-18,.cls-19,.cls-2,.cls-20,.cls-3,.cls-4,.cls-5,.cls-6,.cls-7{stroke:#000;stroke-miterlimit:10;}.cls-1{stroke-width:0.81px;}.cls-11,.cls-12,.cls-15,.cls-19,.cls-2,.cls-4{fill:#fff;}.cls-2{stroke-width:0.83px;}.cls-3{fill:#82000a;}.cls-18,.cls-3,.cls-6{stroke-width:1.4px;}.cls-4,.cls-5{stroke-width:0.73px;}.cls-14,.cls-20,.cls-5,.cls-7{fill:none;}.cls-6{fill:#c1272d;}.cls-14,.cls-20,.cls-7{stroke-linecap:round;}.cls-7{stroke-width:2.44px;}.cls-8{fill:#e5e5e5;}.cls-9{fill:#004f27;}.cls-10{stroke-width:0.85px;}.cls-11{stroke-width:2.16px;}.cls-12{stroke-width:1px;}.cls-13{stroke-width:0.12px;}.cls-14{stroke-width:1.99px;}.cls-16{fill:#d85067;stroke-width:0.43px;}.cls-17{stroke-width:0.08px;}.cls-19,.cls-20{stroke-width:0.86px;}</style></defs><title>l13</title><g id="Layer_2" data-name="Layer 2"><g id="personaje"><path class="cls-1" d="M9.07,112.8q4.89.65,9.79,1c2-15.12,5.64-24.94,8.57-30.79C31,75.9,34.29,73.1,34.62,72.82l0,0-1.82-9.91c-.49.36-8.92,5.72-13.6,14.67a87.25,87.25,0,0,0-6.68,17.63A139.15,139.15,0,0,0,9.07,112.8Z"/><path class="cls-2" d="M10.17,110.19c1-1.93,4.29-2.21,7.33-.62S22.18,114,21.16,116s-4.3,2.21-7.33.62S9.15,112.13,10.17,110.19Z"/><path class="cls-2" d="M13.6,110.85a4.12,4.12,0,0,0,5.07.23c2.86-1.86,5.41-2.67,6.87-.56,1.33,1.92.39,5.13-5.95,5.58,0,0,1.83,5.84-4.79,5.68,0,0-2.42,5.77-10.13,2.47s2.16-11.54,2.16-11.54l5.1-1.37Z"/><path class="cls-2" d="M9,121.25s-3.25-5.89-7.24-3,2.22,13.18,5.13,11.38.32-6-1.71-7.64"/><path class="cls-2" d="M11.43,118s-1.58-6.55-6.2-4.79-1.33,13.3,1.95,12.33,1.88-5.65.37-7.82"/><path class="cls-2" d="M15.37,113.92s-1.27-6.61-6-5.08-2,13.22,1.36,12.42,2.14-5.56.73-7.8"/><rect class="cls-3" x="44.2" y="5.69" width="85.74" height="116.44" transform="translate(-7.31 11.39) rotate(-7.18)"/><rect class="cls-4" x="104.16" y="1.9" width="23.49" height="116.44" transform="matrix(0.99, -0.13, 0.13, 0.99, -6.61, 14.96)"/><line class="cls-5" x1="101.02" y1="3.49" x2="115.58" y2="119"/><line class="cls-5" x1="105.03" y1="2.81" x2="119.63" y2="118.64"/><line class="cls-5" x1="109.06" y1="2.3" x2="123.66" y2="118.13"/><line class="cls-5" x1="113.12" y1="2" x2="127.67" y2="117.5"/><line class="cls-5" x1="117.14" y1="1.49" x2="131.7" y2="116.99"/><rect class="cls-6" x="32.74" y="7.28" width="85.74" height="116.44" transform="translate(-7.59 9.97) rotate(-7.18)"/><path class="cls-7" d="M32.11,21.21S10.18,24,26.83,29"/><path class="cls-7" d="M35,44s-21.92,2.76-5.27,7.78"/><path class="cls-7" d="M37.84,66.7s-21.93,2.76-5.28,7.78"/><path class="cls-7" d="M40.7,89.44s-21.92,2.76-5.27,7.78"/><path class="cls-7" d="M43.57,112.18s-21.92,2.76-5.28,7.78"/><path d="M87.06,133c-1.63-7-6-11.73-10.07-10.79a5.71,5.71,0,0,0-3.79,3.53,12.12,12.12,0,0,0-6.67-.91,11.5,11.5,0,0,0-1.76.39A8.49,8.49,0,0,0,55.83,129l-1.13,1.77a26.13,26.13,0,0,1-3.47,4.31c-2.08,2.09-6.6,8-3.8,17.4.15.53,3.8,13.31,12.22,12.82h0a17.61,17.61,0,0,0,3.71-1.08l.82-.06a10.87,10.87,0,0,0,7.62-4.29c1.74-2.44,2.31-5.72,1.66-9.52a17.06,17.06,0,0,0,4.13-4.88,6,6,0,0,0,4.75,1.75l.4-.07C86.8,146.21,88.68,140,87.06,133Zm-27.5,31.23c-7.56.41-11.08-11.94-11.11-12.06-2.56-8.57,1.11-13.93,3.53-16.37a26.93,26.93,0,0,0,3.61-4.49l1.13-1.76a7.45,7.45,0,0,1,6-3.46A12.68,12.68,0,0,0,56.44,134c-4.29,2.69-6.78,9.07-5.81,16,1,7.13,5.28,12.68,10.27,14A12.86,12.86,0,0,1,59.56,164.25Zm23-18.17c-2.66.62-5.84-2.16-7.74-6.76a.53.53,0,0,0-.71-.3.54.54,0,0,0-.3.71,16.46,16.46,0,0,0,3.08,5,17.47,17.47,0,0,1-3.59,4.48,11.55,11.55,0,0,0-7.56-8.42.73.73,0,1,0-.47,1.38,10.15,10.15,0,0,1,6.74,8c.71,3.61.25,6.69-1.33,8.9A9.46,9.46,0,0,1,64,162.71c-5.5.76-10.85-5-11.94-12.9s2.49-14.9,8-15.66a.73.73,0,1,0-.2-1.45,9.33,9.33,0,0,0-1.58.38,10.8,10.8,0,0,1,8.45-6.78,10.57,10.57,0,0,1,6,.84,16.86,16.86,0,0,0-.51,5.85.55.55,0,0,0,.59.51.54.54,0,0,0,.5-.59c-.37-5,1.25-9,4-9.62,3.36-.78,7.29,3.69,8.75,10S85.9,145.3,82.53,146.08Z"/><path class="cls-8" d="M60.9,164a12.86,12.86,0,0,1-1.34.29c-7.56.41-11.08-11.94-11.11-12.06-2.56-8.57,1.11-13.93,3.53-16.37a26.93,26.93,0,0,0,3.61-4.49l1.13-1.76a7.45,7.45,0,0,1,6-3.46A12.68,12.68,0,0,0,56.44,134c-4.29,2.69-6.78,9.07-5.81,16C51.62,157.14,55.91,162.69,60.9,164Z"/><path class="cls-9" d="M82.53,146.08c-2.66.62-5.84-2.16-7.74-6.76a.53.53,0,0,0-.71-.3.54.54,0,0,0-.3.71,16.46,16.46,0,0,0,3.08,5,17.47,17.47,0,0,1-3.59,4.48,11.55,11.55,0,0,0-7.56-8.42.73.73,0,1,0-.47,1.38,10.15,10.15,0,0,1,6.74,8c.71,3.61.25,6.69-1.33,8.9A9.46,9.46,0,0,1,64,162.71c-5.5.76-10.85-5-11.94-12.9s2.49-14.9,8-15.66a.73.73,0,1,0-.2-1.45,9.33,9.33,0,0,0-1.58.38,10.8,10.8,0,0,1,8.45-6.78,10.57,10.57,0,0,1,6,.84,16.86,16.86,0,0,0-.51,5.85.55.55,0,0,0,.59.51.54.54,0,0,0,.5-.59c-.37-5,1.25-9,4-9.62,3.36-.78,7.29,3.69,8.75,10S85.9,145.3,82.53,146.08Z"/><path class="cls-10" d="M96.74,121.4l5.37-6.2a22.49,22.49,0,0,1,15-7.69c3-.26,6.32-.5,10.36-.69a4.94,4.94,0,0,1,5.37,4.23,1,1,0,0,0,0,.16,7.71,7.71,0,0,1-1,4.67c-4.72,8.21-19.83,14.68-41.81,20A5.32,5.32,0,0,1,83.61,132h0a5.31,5.31,0,0,1,4.12-6.43c18.76-3.81,26.31-8.9,32.54-14.23C112.05,116.77,104,121.44,96.74,121.4Z"/><path class="cls-10" d="M75,122.63,69,117.11a22.47,22.47,0,0,0-15.78-5.87c-3,.09-6.34.25-10.37.54A4.93,4.93,0,0,0,38,116.61v.16a7.6,7.6,0,0,0,1.53,4.52c5.65,7.6,21.42,12.25,43.88,14.93a5.32,5.32,0,0,0,5.92-4.66h0a5.31,5.31,0,0,0-4.85-5.9c-19.08-1.57-27.18-5.74-34-10.29C59.29,119.84,67.86,123.52,75,122.63Z"/><path d="M114.67,124.94a26.41,26.41,0,0,1-4.37-3.41l-1.5-1.46a8.5,8.5,0,0,0-9.57-1.62,12.13,12.13,0,0,0-8.08,2.43,5.71,5.71,0,0,0-4.5-2.57c-4.12,0-7.35,5.63-7.33,12.8s3.26,12.79,7.39,12.78l.4,0a6,6,0,0,0,4.23-2.79,17.06,17.06,0,0,0,5.13,3.81c.24,3.85,1.55,6.91,3.8,8.89a10.83,10.83,0,0,0,8.39,2.43q.42,0,.81-.12a17.79,17.79,0,0,0,3.86.2h0c8.3-1.45,8.94-14.72,9-15.27C122.92,131.2,117.17,126.5,114.67,124.94Zm-6.14,29.81a9.39,9.39,0,0,1-7.3-2.07c-2-1.79-3.19-4.69-3.33-8.37a10.16,10.16,0,0,1,4.74-9.29.73.73,0,1,0-.77-1.24,11.51,11.51,0,0,0-5.43,9.92,16.88,16.88,0,0,1-4.52-3.54,16.27,16.27,0,0,0,1.85-5.54.55.55,0,0,0-1.08-.18c-.78,4.91-3.25,8.35-6,8.35-3.46,0-6.29-5.23-6.3-11.68s2.79-11.7,6.25-11.71c2.77,0,5.25,3.47,6,8.46a.55.55,0,0,0,.63.46.56.56,0,0,0,.46-.63A17,17,0,0,0,92,122.11a10.48,10.48,0,0,1,5.62-2.18,10.81,10.81,0,0,1,9.78,4.67,8.07,8.07,0,0,0-1.63,0,.73.73,0,0,0,.13,1.46c5.53-.52,10.62,5.5,11.36,13.41S114.05,154.24,108.53,154.75ZM121.29,141c0,.13-.62,13-8.07,14.29-.11,0-.65,0-1.37,0,4.57-2.37,7.48-8.76,6.81-15.93-.65-7-4.54-12.65-9.32-14.29a12.7,12.7,0,0,0-7.86-6.23,7.5,7.5,0,0,1,6.59,2l1.5,1.46a27.09,27.09,0,0,0,4.54,3.54C117,127.65,121.82,132,121.29,141Z"/><path class="cls-8" d="M121.29,141c0,.13-.62,13-8.07,14.29-.11,0-.65,0-1.37,0,4.57-2.37,7.48-8.76,6.81-15.93-.65-7-4.54-12.65-9.32-14.29a12.7,12.7,0,0,0-7.86-6.23,7.5,7.5,0,0,1,6.59,2l1.5,1.46a27.09,27.09,0,0,0,4.54,3.54C117,127.65,121.82,132,121.29,141Z"/><path class="cls-9" d="M117.21,139.46c.74,7.92-3.16,14.78-8.68,15.29a9.39,9.39,0,0,1-7.3-2.07c-2-1.79-3.19-4.69-3.33-8.37a10.16,10.16,0,0,1,4.74-9.29.73.73,0,1,0-.77-1.24,11.51,11.51,0,0,0-5.43,9.92,16.88,16.88,0,0,1-4.52-3.54,16.27,16.27,0,0,0,1.85-5.54.55.55,0,0,0-1.08-.18c-.78,4.91-3.25,8.35-6,8.35-3.46,0-6.29-5.23-6.3-11.68s2.79-11.7,6.25-11.71c2.77,0,5.25,3.47,6,8.46a.55.55,0,0,0,.63.46.56.56,0,0,0,.46-.63A17,17,0,0,0,92,122.11a10.48,10.48,0,0,1,5.62-2.18,10.81,10.81,0,0,1,9.78,4.67,8.07,8.07,0,0,0-1.63,0,.73.73,0,0,0,.13,1.46C111.38,125.53,116.47,131.55,117.21,139.46Z"/><path class="cls-11" d="M83.4,136.22a5.32,5.32,0,0,0,5.92-4.66h0a5.31,5.31,0,0,0-4.85-5.9L78.21,125c1.19,4.29.75,7.75-1.44,10.34Z"/><ellipse class="cls-12" cx="92.92" cy="59.16" rx="11.8" ry="17.46" transform="translate(-8.23 15.54) rotate(-9.16)"/><ellipse class="cls-12" cx="61.68" cy="63.26" rx="11.8" ry="17.46" transform="translate(-9.28 10.62) rotate(-9.16)"/><ellipse class="cls-13" cx="67.34" cy="62.35" rx="6.07" ry="8.98" transform="translate(-9.06 11.51) rotate(-9.16)"/><ellipse class="cls-13" cx="98.22" cy="57.37" rx="6.07" ry="8.98" transform="translate(-7.88 16.36) rotate(-9.16)"/><path class="cls-14" d="M97.49,34.78s-7.22-5.45-12.16,2"/><path class="cls-14" d="M63.81,40.21s-7.23-5.45-12.17,2"/><circle class="cls-15" cx="99.85" cy="53.65" r="1.82"/><circle class="cls-15" cx="68.63" cy="58.68" r="1.82"/><path class="cls-16" d="M88.58,89.94a3.69,3.69,0,0,1,1.51,6.91,29.9,29.9,0,0,1-32.45-2.37A3.69,3.69,0,0,1,62.1,88.6a22.54,22.54,0,0,0,24.44,1.79A3.65,3.65,0,0,1,88.58,89.94Z"/><path class="cls-17" d="M60,90.31a1.28,1.28,0,0,1,.66.25,25,25,0,0,0,27.1,2,1.23,1.23,0,1,1,1.19,2.16,27.47,27.47,0,0,1-29.79-2.17A1.24,1.24,0,0,1,60,90.31Z"/><path class="cls-18" d="M126.31,64.85l1,9.21c.67-.07,6.79-.81,15-5.23A62,62,0,0,0,155.79,59,75.27,75.27,0,0,0,167.7,44.12L159.81,39c-5.88,9.59-13.15,16.81-21.63,21.49A36.53,36.53,0,0,1,126.31,64.85Z"/><path class="cls-19" d="M158.17,38.51c-.83,2.6,1.8,5.77,5.88,7.08s8.07.27,8.91-2.33-1.8-5.77-5.88-7.08S159,35.91,158.17,38.51Z"/><path class="cls-19" d="M166.71,41.39s-4.63,2.46-6.94-4.11c0,0-6.05-2.05-7.07-6.87-1-4.61,1.09-6.38,2.76-5.77,1.48.54,2.62,4.72,5.86,5.5,0,0,3.82-4.21,2.39-9s-1.5-8.87,2.3-9.21,5.85,8.84,3.93,13.78a7,7,0,0,1,2.74.89A15.06,15.06,0,0,0,175,18.63a3.4,3.4,0,1,1,6.78-.56c.68,4.71-.63,8.72-4.1,11.25l.88,1.26a8.79,8.79,0,0,0,5.18-2.83c2.31-2.55,5.94,1.88,2.86,5.86s-9.28,3.08-9.28,3.08S174.15,47.18,166.71,41.39Z"/><path class="cls-20" d="M169.71,33.87s1.3,6.18-3,7.52"/></g></g></svg>