<?xml version="1.0" encoding="utf-8"?>
<!-- Generator: Adobe Illustrator 24.0.2, SVG Export Plug-In . SVG Version: 6.00 Build 0)  -->
<svg version="1.1" id="Layer_1" xmlns="http://www.w3.org/2000/svg" xmlns:xlink="http://www.w3.org/1999/xlink" x="0px" y="0px"
	 viewBox="0 0 188.3 165.3" style="enable-background:new 0 0 188.3 165.3;" xml:space="preserve">
<style type="text/css">
	.st0{fill:#441216;stroke:#000000;stroke-width:0.81;stroke-miterlimit:10;}
	.st1{fill:#FFFFFF;stroke:#000000;stroke-width:0.83;stroke-miterlimit:10;}
	.st2{fill:#82000A;stroke:#000000;stroke-width:1.4;stroke-miterlimit:10;}
	.st3{fill:#FFFFFF;stroke:#000000;stroke-width:0.7289;stroke-miterlimit:9.985;}
	.st4{fill:none;stroke:#000000;stroke-width:0.73;stroke-miterlimit:10;}
	.st5{fill:#C1272D;stroke:#000000;stroke-width:1.4;stroke-miterlimit:10;}
	.st6{fill:none;stroke:#000000;stroke-width:2.44;stroke-linecap:round;stroke-miterlimit:10;}
	.st7{fill:#E5E5E5;}
	.st8{fill:#004F27;}
	.st9{fill:#441216;stroke:#000000;stroke-width:0.85;stroke-miterlimit:10;}
	.st10{fill:#FFFFFF;stroke:#000000;stroke-width:2.16;stroke-miterlimit:10;}
	.st11{fill:#FFFFFF;stroke:#000000;stroke-miterlimit:10;}
	.st12{fill:none;stroke:#000000;stroke-width:1.99;stroke-linecap:round;stroke-miterlimit:10;}
	.st13{stroke:#000000;stroke-width:0.12;stroke-miterlimit:10;}
	.st14{fill:#FFFFFF;}
	.st15{fill:#D85067;stroke:#000000;stroke-width:0.43;stroke-miterlimit:10;}
	.st16{stroke:#000000;stroke-width:8.000000e-02;stroke-miterlimit:10;}
	.st17{fill:#441216;stroke:#000000;stroke-width:1.4;stroke-miterlimit:10;}
	.st18{fill:#FFFFFF;stroke:#000000;stroke-width:0.86;stroke-miterlimit:10;}
	.st19{fill:none;stroke:#000000;stroke-width:0.86;stroke-linecap:round;stroke-miterlimit:10;}
</style>
<title>l13</title>
<g id="Layer_2_1_">
	<g id="personaje">
		<path class="st0" d="M9.1,112.8c3.3,0.4,6.5,0.8,9.8,1c2-15.1,5.6-24.9,8.6-30.8c3.6-7.1,6.9-9.9,7.2-10.2l0,0l-1.8-9.9
			c-0.5,0.4-8.9,5.7-13.6,14.7c-2.9,5.6-5.1,11.5-6.7,17.6C11,101,9.8,106.9,9.1,112.8z"/>
		<path class="st1" d="M10.2,110.2c1-1.9,4.3-2.2,7.3-0.6s4.7,4.4,3.7,6.4s-4.3,2.2-7.3,0.6S9.1,112.1,10.2,110.2z"/>
		<path class="st1" d="M13.6,110.8c1.4,1.2,3.5,1.3,5.1,0.2c2.9-1.9,5.4-2.7,6.9-0.6c1.3,1.9,0.4,5.1-6,5.6c0,0,1.8,5.8-4.8,5.7
			c0,0-2.4,5.8-10.1,2.5s2.2-11.5,2.2-11.5l5.1-1.4L13.6,110.8z"/>
		<path class="st1" d="M9,121.3c0,0-3.3-5.9-7.2-3s2.2,13.2,5.1,11.4s0.3-6-1.7-7.6"/>
		<path class="st1" d="M11.4,118c0,0-1.6-6.6-6.2-4.8s-1.3,13.3,1.9,12.3s1.9-5.7,0.4-7.8"/>
		<path class="st1" d="M15.4,113.9c0,0-1.3-6.6-6-5.1s-2,13.2,1.4,12.4s2.1-5.6,0.7-7.8"/>
		<rect x="44.2" y="5.7" transform="matrix(0.9922 -0.125 0.125 0.9922 -7.306 11.3832)" class="st2" width="85.7" height="116.4"/>
		
			<rect x="104.2" y="1.3" transform="matrix(0.9915 -0.1302 0.1302 0.9915 -6.7481 15.602)" class="st3" width="23.5" height="116.3"/>
		<line class="st4" x1="101" y1="3.5" x2="115.6" y2="119"/>
		<line class="st4" x1="105" y1="2.8" x2="119.6" y2="118.6"/>
		<line class="st4" x1="109.1" y1="2.3" x2="123.7" y2="118.1"/>
		<line class="st4" x1="113.1" y1="2" x2="127.7" y2="117.5"/>
		<line class="st4" x1="117.1" y1="1.5" x2="131.7" y2="117"/>
		<rect x="32.7" y="7.3" transform="matrix(0.9922 -0.125 0.125 0.9922 -7.5945 9.9644)" class="st5" width="85.7" height="116.4"/>
		<path class="st6" d="M32.1,21.2c0,0-21.9,2.8-5.3,7.8"/>
		<path class="st6" d="M35,44c0,0-21.9,2.8-5.3,7.8"/>
		<path class="st6" d="M37.8,66.7c0,0-21.9,2.8-5.3,7.8"/>
		<path class="st6" d="M40.7,89.4c0,0-21.9,2.8-5.3,7.8"/>
		<path class="st6" d="M43.6,112.2c0,0-21.9,2.8-5.3,7.8"/>
		<path d="M87.1,133c-1.6-7-6-11.7-10.1-10.8c-1.8,0.5-3.2,1.8-3.8,3.5c-2.1-0.9-4.4-1.2-6.7-0.9c-0.6,0.1-1.2,0.2-1.8,0.4
			c-3.5-0.7-7,0.8-8.9,3.8l-1.1,1.8c-1,1.6-2.2,3-3.5,4.3c-2.1,2.1-6.6,8-3.8,17.4c0.2,0.5,3.8,13.3,12.2,12.8l0,0
			c1.3-0.2,2.5-0.6,3.7-1.1l0.8-0.1c3-0.3,5.8-1.9,7.6-4.3c1.7-2.4,2.3-5.7,1.7-9.5c1.7-1.4,3.1-3,4.1-4.9c1.2,1.3,3,1.9,4.8,1.8
			l0.4-0.1C86.8,146.2,88.7,140,87.1,133z M59.6,164.2c-7.6,0.4-11.1-11.9-11.1-12.1c-2.6-8.6,1.1-13.9,3.5-16.4
			c1.4-1.4,2.6-2.9,3.6-4.5l1.1-1.8c1.3-2.1,3.6-3.4,6-3.5c-3.1,1.7-5.4,4.5-6.3,7.9c-4.3,2.7-6.8,9.1-5.8,16
			c1,7.1,5.3,12.7,10.3,14C60.5,164.1,60,164.2,59.6,164.2L59.6,164.2z M82.6,146.1c-2.7,0.6-5.8-2.2-7.7-6.8
			c-0.1-0.3-0.4-0.4-0.7-0.3c0,0,0,0,0,0c-0.3,0.1-0.4,0.4-0.3,0.7c0,0,0,0,0,0c0.7,1.8,1.8,3.5,3.1,5c-0.9,1.7-2.2,3.2-3.6,4.5
			c-0.9-3.9-3.7-7.1-7.6-8.4c-0.4-0.2-0.8,0-0.9,0.4c-0.2,0.4,0,0.8,0.4,0.9c0,0,0,0,0.1,0c3.6,1.2,6.1,4.3,6.7,8
			c0.7,3.6,0.3,6.7-1.3,8.9c-1.6,2.1-4,3.4-6.7,3.7c-5.5,0.8-10.8-5-11.9-12.9s2.5-14.9,8-15.7c0.4-0.1,0.7-0.4,0.6-0.8
			c-0.1-0.4-0.4-0.7-0.8-0.6c-0.5,0.1-1.1,0.2-1.6,0.4c1.4-3.6,4.6-6.2,8.4-6.8c2-0.3,4.1,0,6,0.8c-0.5,1.9-0.7,3.9-0.5,5.9
			c0,0.3,0.3,0.5,0.6,0.5c0,0,0,0,0,0c0.3,0,0.5-0.3,0.5-0.6c0,0,0,0,0,0c-0.4-5,1.3-9,4-9.6c3.4-0.8,7.3,3.7,8.8,10
			C87.5,139.6,85.9,145.3,82.6,146.1L82.6,146.1z"/>
		<path class="st7" d="M60.9,164c-0.4,0.1-0.9,0.2-1.3,0.3c-7.6,0.4-11.1-11.9-11.1-12.1c-2.6-8.6,1.1-13.9,3.5-16.4
			c1.4-1.4,2.6-2.9,3.6-4.5l1.1-1.8c1.3-2.1,3.6-3.4,6-3.5c-3.1,1.6-5.4,4.5-6.3,7.8c-4.3,2.7-6.8,9.1-5.8,16
			C51.6,157.1,55.9,162.7,60.9,164z"/>
		<path class="st8" d="M82.5,146.1c-2.7,0.6-5.8-2.2-7.7-6.8c-0.1-0.3-0.4-0.4-0.7-0.3c0,0,0,0,0,0c-0.3,0.1-0.4,0.4-0.3,0.7
			c0,0,0,0,0,0c0.7,1.8,1.8,3.5,3.1,5c-0.9,1.7-2.2,3.2-3.6,4.5c-0.9-3.9-3.7-7.1-7.6-8.4c-0.4-0.2-0.8,0-0.9,0.4
			c-0.2,0.4,0,0.8,0.4,0.9c0,0,0,0,0.1,0c3.6,1.2,6.1,4.3,6.7,8c0.7,3.6,0.3,6.7-1.3,8.9c-1.6,2.1-4,3.4-6.7,3.6
			c-5.5,0.8-10.8-5-11.9-12.9s2.5-14.9,8-15.7c0.4-0.1,0.7-0.4,0.6-0.8c-0.1-0.4-0.4-0.7-0.8-0.6c-0.5,0.1-1.1,0.2-1.6,0.4
			c1.4-3.6,4.6-6.2,8.4-6.8c2-0.3,4.1,0,6,0.8c-0.5,1.9-0.7,3.9-0.5,5.9c0,0.3,0.3,0.5,0.6,0.5c0,0,0,0,0,0c0.3,0,0.5-0.3,0.5-0.6
			c0,0,0,0,0,0c-0.4-5,1.3-9,4-9.6c3.4-0.8,7.3,3.7,8.8,10C87.5,139.6,85.9,145.3,82.5,146.1z"/>
		<path class="st9" d="M96.7,121.4l5.4-6.2c3.8-4.4,9.2-7.2,15-7.7c3-0.3,6.3-0.5,10.4-0.7c2.6-0.3,5,1.6,5.4,4.2c0,0.1,0,0.1,0,0.2
			c0.2,1.6-0.2,3.3-1,4.7c-4.7,8.2-19.8,14.7-41.8,20c-2.8,0.7-5.7-1-6.4-3.9l0,0c-0.7-2.9,1.1-5.7,3.9-6.4c0.1,0,0.1,0,0.2,0
			c18.8-3.8,26.3-8.9,32.5-14.2C112.1,116.8,104,121.4,96.7,121.4z"/>
		<path class="st9" d="M75,122.6l-6-5.5c-4.3-3.9-10-6-15.8-5.9c-3,0.1-6.3,0.3-10.4,0.5c-2.7,0-4.8,2.2-4.9,4.8v0.2
			c0,1.6,0.5,3.2,1.5,4.5c5.7,7.6,21.4,12.3,43.9,14.9c2.9,0.4,5.6-1.7,5.9-4.6c0,0,0,0,0,0l0,0c0.3-2.9-1.8-5.5-4.7-5.9
			c-0.1,0-0.1,0-0.2,0c-19.1-1.6-27.2-5.7-34-10.3C59.3,119.8,67.9,123.5,75,122.6z"/>
		<path d="M114.7,124.9c-1.6-1-3-2.1-4.4-3.4l-1.5-1.5c-2.5-2.5-6.4-3.1-9.6-1.6c-2.9-0.2-5.8,0.7-8.1,2.4c-1-1.5-2.7-2.5-4.5-2.6
			c-4.1,0-7.3,5.6-7.3,12.8c0,7.2,3.3,12.8,7.4,12.8h0.4c1.8-0.3,3.3-1.3,4.2-2.8c1.5,1.6,3.2,2.9,5.1,3.8c0.2,3.9,1.6,6.9,3.8,8.9
			c2.3,2,5.4,2.8,8.4,2.4c0.3,0,0.5,0,0.8-0.1c1.3,0.2,2.6,0.3,3.9,0.2l0,0c8.3-1.4,8.9-14.7,9-15.3
			C122.9,131.2,117.2,126.5,114.7,124.9z M108.5,154.8c-2.6,0.4-5.3-0.4-7.3-2.1c-2-1.8-3.2-4.7-3.3-8.4c-0.3-3.7,1.6-7.3,4.7-9.3
			c0.3-0.2,0.5-0.7,0.3-1c-0.2-0.3-0.7-0.5-1-0.3c0,0,0,0,0,0c-3.4,2.1-5.5,5.9-5.4,9.9c-1.7-0.9-3.2-2.1-4.5-3.5
			c0.9-1.7,1.6-3.6,1.8-5.5c0-0.3-0.2-0.6-0.5-0.6c-0.3,0-0.5,0.2-0.6,0.4c-0.8,4.9-3.3,8.4-6,8.4c-3.5,0-6.3-5.2-6.3-11.7
			s2.8-11.7,6.3-11.7c2.8,0,5.3,3.5,6,8.5c0,0.3,0.3,0.5,0.6,0.5c0,0,0,0,0,0c0.3-0.1,0.5-0.3,0.5-0.6c-0.3-1.9-0.8-3.8-1.7-5.6
			c1.6-1.3,3.6-2,5.6-2.2c3.9-0.3,7.6,1.5,9.8,4.7c-0.5-0.1-1.1-0.1-1.6,0c-0.4,0-0.7,0.4-0.7,0.8s0.4,0.7,0.8,0.7
			c5.5-0.5,10.6,5.5,11.4,13.4S114.1,154.2,108.5,154.8z M121.3,141c0,0.1-0.6,13-8.1,14.3c-0.1,0-0.7,0-1.4,0
			c4.6-2.4,7.5-8.8,6.8-15.9c-0.7-7-4.5-12.7-9.3-14.3c-1.7-3.1-4.5-5.3-7.9-6.2c2.4-0.4,4.8,0.3,6.6,2l1.5,1.5
			c1.4,1.3,2.9,2.5,4.5,3.5C117,127.7,121.8,132,121.3,141z"/>
		<path class="st7" d="M121.3,141c0,0.1-0.6,13-8.1,14.3c-0.1,0-0.7,0-1.4,0c4.6-2.4,7.5-8.8,6.8-15.9c-0.7-7-4.5-12.7-9.3-14.3
			c-1.7-3.1-4.5-5.3-7.9-6.2c2.4-0.4,4.8,0.3,6.6,2l1.5,1.5c1.4,1.3,2.9,2.5,4.5,3.5C117,127.7,121.8,132,121.3,141z"/>
		<path class="st8" d="M117.2,139.5c0.7,7.9-3.2,14.8-8.7,15.3c-2.6,0.4-5.3-0.4-7.3-2.1c-2-1.8-3.2-4.7-3.3-8.4
			c-0.3-3.7,1.6-7.3,4.7-9.3c0.3-0.2,0.5-0.7,0.3-1c-0.2-0.3-0.7-0.5-1-0.3c0,0,0,0,0,0c-3.4,2.1-5.5,5.9-5.4,9.9
			c-1.7-0.9-3.2-2.1-4.5-3.5c0.9-1.7,1.6-3.6,1.8-5.5c0-0.3-0.2-0.6-0.5-0.6c-0.3,0-0.5,0.2-0.6,0.4c-0.8,4.9-3.3,8.4-6,8.4
			c-3.5,0-6.3-5.2-6.3-11.7s2.8-11.7,6.3-11.7c2.8,0,5.3,3.5,6,8.5c0,0.3,0.3,0.5,0.6,0.5c0,0,0,0,0,0c0.3-0.1,0.5-0.3,0.5-0.6
			c-0.3-1.9-0.8-3.8-1.7-5.6c1.6-1.3,3.6-2,5.6-2.2c3.9-0.3,7.6,1.5,9.8,4.7c-0.5-0.1-1.1-0.1-1.6,0c-0.4,0-0.7,0.4-0.7,0.8
			s0.4,0.7,0.8,0.7C111.4,125.5,116.5,131.6,117.2,139.5z"/>
		<path class="st10" d="M83.4,136.2c2.9,0.4,5.6-1.7,5.9-4.6c0,0,0,0,0,0l0,0c0.3-2.9-1.8-5.5-4.7-5.9c-0.1,0-0.1,0-0.2,0l-6.3-0.7
			c1.2,4.3,0.8,7.8-1.4,10.3L83.4,136.2z"/>
		
			<ellipse transform="matrix(0.9872 -0.1592 0.1592 0.9872 -8.2318 15.5469)" class="st11" cx="92.9" cy="59.2" rx="11.8" ry="17.5"/>
		
			<ellipse transform="matrix(0.9872 -0.1592 0.1592 0.9872 -9.283 10.6262)" class="st11" cx="61.7" cy="63.3" rx="11.8" ry="17.5"/>
		<path class="st12" d="M97.5,34.8c0,0-7.2-5.5-12.2,2"/>
		<path class="st12" d="M63.8,40.2c0,0-7.2-5.5-12.2,2"/>
		<g>
			<ellipse transform="matrix(0.9872 -0.1592 0.1592 0.9872 -6.8413 15.323)" class="st13" cx="92.2" cy="50.4" rx="6.1" ry="9"/>
			<circle class="st14" cx="93.7" cy="44.8" r="1.8"/>
		</g>
		<g>
			<ellipse transform="matrix(0.9872 -0.1592 0.1592 0.9872 -8.0281 10.4717)" class="st13" cx="61.3" cy="55.3" rx="6.1" ry="9"/>
			<circle class="st14" cx="62.4" cy="49.7" r="1.8"/>
		</g>
		<path class="st15" d="M88.6,89.9c2,0.2,3.6,1.9,3.4,4c-0.1,1.2-0.8,2.4-1.9,3c-10.3,5.7-23,4.8-32.5-2.4c-1.6-1.2-1.9-3.5-0.7-5.2
			c1.2-1.6,3.5-1.9,5.2-0.7l0,0c7.1,5.4,16.7,6.1,24.4,1.8C87.2,90,87.9,89.9,88.6,89.9z"/>
		<path class="st16" d="M60,90.3c0.2,0,0.5,0.1,0.7,0.3c7.9,5.9,18.5,6.7,27.1,2c0.6-0.3,1.3-0.1,1.7,0.5s0.1,1.3-0.5,1.7
			c-9.5,5.2-21.2,4.4-29.8-2.2c-0.6-0.4-0.7-1.2-0.3-1.7C59.1,90.5,59.6,90.3,60,90.3z"/>
		<path class="st17" d="M126.3,64.8l1,9.2c0.7-0.1,6.8-0.8,15-5.2c4.9-2.7,9.5-6,13.5-9.8c4.6-4.4,8.6-9.4,11.9-14.9l-7.9-5.1
			c-5.9,9.6-13.1,16.8-21.6,21.5C134.5,62.6,130.5,64.1,126.3,64.8z"/>
		<path class="st18" d="M158.2,38.5c-0.8,2.6,1.8,5.8,5.9,7.1s8.1,0.3,8.9-2.3s-1.8-5.8-5.9-7.1S159,35.9,158.2,38.5z"/>
		<path class="st18" d="M166.7,41.4c0,0-4.6,2.5-6.9-4.1c0,0-6.1-2-7.1-6.9c-1-4.6,1.1-6.4,2.8-5.8c1.5,0.5,2.6,4.7,5.9,5.5
			c0,0,3.8-4.2,2.4-9s-1.5-8.9,2.3-9.2s5.9,8.8,3.9,13.8c1,0.1,1.9,0.4,2.7,0.9c1.5-2.4,2.3-5.1,2.3-8c-0.2-1.9,1.2-3.5,3.1-3.7
			c1.9-0.2,3.5,1.2,3.7,3.1c0.7,4.7-0.6,8.7-4.1,11.3l0.9,1.3c2-0.3,3.8-1.3,5.2-2.8c2.3-2.5,5.9,1.9,2.9,5.9s-9.3,3.1-9.3,3.1
			S174.1,47.2,166.7,41.4z"/>
		<path class="st19" d="M169.7,33.9c0,0,1.3,6.2-3,7.5"/>
	</g>
</g>
</svg>
