<?xml version="1.0" encoding="utf-8"?>
<!-- Generator: Adobe Illustrator 24.0.2, SVG Export Plug-In . SVG Version: 6.00 Build 0)  -->
<svg version="1.1" id="Layer_1" xmlns="http://www.w3.org/2000/svg" xmlns:xlink="http://www.w3.org/1999/xlink" x="0px" y="0px"
	 viewBox="0 0 164.9 173.4" style="enable-background:new 0 0 164.9 173.4;" xml:space="preserve">
<style type="text/css">
	.st0{fill:#E5E5E5;stroke:#000000;stroke-width:0.19;stroke-miterlimit:10;}
	.st1{fill:#004F27;}
	.st2{stroke:#000000;stroke-width:0.19;stroke-miterlimit:10;}
	.st3{fill:#441216;}
	.st4{fill:#FFFFFF;stroke:#000000;stroke-width:1.41;stroke-miterlimit:10;}
	.st5{fill:#FFFFFF;stroke:#000000;stroke-width:1.3;stroke-miterlimit:10;}
	.st6{fill:#441216;stroke:#000000;stroke-width:1.412;stroke-miterlimit:10;}
	.st7{fill:#FFFFFF;}
	.st8{fill:#FFFFFF;stroke:#000000;stroke-width:0.86;stroke-miterlimit:10;}
	.st9{fill:#FFFFFF;stroke:#000000;stroke-width:0.86;stroke-linecap:round;stroke-miterlimit:10;}
	.st10{fill:#82000A;stroke:#000000;stroke-width:1.2232;stroke-miterlimit:10;}
	.st11{fill:#FFFFFF;stroke:#000000;stroke-width:0.6404;stroke-miterlimit:10;}
	.st12{fill:none;stroke:#000000;stroke-width:0.6404;stroke-miterlimit:10;}
	.st13{fill:#C1272D;stroke:#000000;stroke-width:1.2232;stroke-miterlimit:10;}
	.st14{fill:none;stroke:#000000;stroke-width:2.1232;stroke-linecap:round;stroke-miterlimit:10;}
	.st15{fill:#FFFFFF;stroke:#000000;stroke-width:0.7097;stroke-miterlimit:10;}
	.st16{stroke:#000000;stroke-width:0.4096;stroke-miterlimit:10;}
	.st17{fill:none;stroke:#000000;stroke-width:1.4136;stroke-linecap:round;stroke-miterlimit:10;}
	.st18{stroke:#000000;stroke-width:0.3808;stroke-miterlimit:10;}
	.st19{fill:#EA5E58;stroke:#000000;stroke-width:0.3808;stroke-miterlimit:10;}
	.st20{fill:#FFFFFF;stroke:#000000;stroke-width:0.3808;stroke-miterlimit:10;}
	.st21{fill:#D85067;stroke:#000000;stroke-width:0.5308;stroke-miterlimit:10;}
	.st22{fill:#FFFFFF;stroke:#000000;stroke-width:0.83;stroke-miterlimit:10;}
	.st23{fill:#FFFFFF;stroke:#000000;stroke-width:0.86;stroke-linecap:round;stroke-linejoin:round;}
</style>
<title>l14</title>
<g id="Layer_2_1_">
	<g id="personaje">
		<path class="st0" d="M84.7,169.6c-1-0.1-2.1-0.2-3.1-0.3c-2.3-0.4-4.5-0.7-6.8-0.9l0,0c-2.7,0.2-5.4,0.6-8,1.2l-0.3,0.1
			c-0.5,0.1-1,0.1-1.5,0.1c-2.7,0-5.2-1.4-6.5-3.8c-0.6,1.7,0,3.6,1.5,4.6c3.3,2.3,6,1.8,9.4,1.1c1.6-0.3,3.2-0.5,4.9-0.6
			c2.6-0.1,5.1,0.1,7.6,0.4c3.6,0.4,6.1,0.8,9.5-1.1c1.6-1,2.5-2.8,2.4-4.8C92,168.1,88.5,169.6,84.7,169.6z"/>
		<path class="st1" d="M84.7,154.8c-1.8,0-3.5,0.4-5.2,1.1l0,0c-1.7,0.9-3,2.4-3.7,4.2c-0.1,0.2-0.4,0.4-0.6,0.3c0,0,0,0,0,0
			c-0.2-0.1-0.4-0.4-0.3-0.6c0.5-1.2,1.3-2.4,2.2-3.3c-0.8-1.5-2-2.8-3.5-3.8c-1.1,0.5-2.4,0.8-3.6,0.9h-0.1c-0.3,0-0.5-0.2-0.5-0.5
			s0.2-0.5,0.5-0.5c1.2-0.1,2.4-0.4,3.5-0.9l0,0c1.6-0.7,2.6-1.7,2.6-2.8c0-2.1-3.8-3.9-8.2-3.9s-8.2,1.8-8.2,3.9c0,1.1,1.1,2.2,3,3
			h0.1c0.7,0.3,1.4,0.5,2.2,0.6c0.3,0.1,0.4,0.3,0.4,0.6c0,0.3-0.3,0.4-0.6,0.4c0,0,0,0,0,0c-0.7-0.1-1.5-0.3-2.2-0.6
			c-3.8,2.6-5.4,7.5-3.8,11.8v0.1c1.2,3,4.3,4.7,7.4,4h0.3c2.7-0.6,5.4-1,8.2-1.2c2.4,0.2,4.7,0.4,7.1,0.9l0,0
			c1,0.2,1.9,0.3,2.9,0.3c4,0,7.6-1.8,9-4.5c0.4-0.7,0.6-1.6,0.6-2.4C94.4,157.9,90,154.8,84.7,154.8z"/>
		<path class="st2" d="M95.3,161.7c0,0.9-0.2,1.8-0.6,2.7c0.1,0.8,0.2,1.5,0.1,2.3c-0.1,1.9-1.2,3.7-2.9,4.6
			c-3.7,2-6.5,1.7-10.1,1.3c-2.5-0.4-5-0.5-7.5-0.4c-1.6,0.1-3.2,0.3-4.7,0.6c-1.4,0.3-2.9,0.5-4.4,0.5c-2.1,0-4.1-0.6-5.7-1.8
			c-1.6-1.1-2.9-3.5-1.5-6.7c-0.4-1.2-0.6-2.4-0.6-3.6c0-3.4,1.6-6.7,4.4-8.8c-1.8-0.9-2.8-2.1-2.8-3.5c0-2.7,4-4.8,9.1-4.8
			s9.2,2.1,9.2,4.8c0,1.3-0.9,2.4-2.4,3.3c1.3,0.9,2.4,2.2,3.2,3.6c0.4-0.3,0.8-0.5,1.2-0.7c1.8-0.8,3.6-1.2,5.6-1.2
			C90.6,153.8,95.3,157.4,95.3,161.7z M93.8,165.7c-1.9,2.4-5.3,3.8-9.1,3.8c-1-0.1-2.1-0.2-3.1-0.3c-2.3-0.4-4.5-0.7-6.8-0.9l0,0
			c-2.7,0.2-5.4,0.6-8,1.2l-0.3,0.1c-0.5,0.1-1,0.1-1.5,0.1c-2.7,0-5.2-1.4-6.5-3.8c-0.6,1.7,0,3.6,1.5,4.7c3.3,2.3,6,1.8,9.4,1.1
			c1.6-0.3,3.2-0.5,4.9-0.6c2.6-0.1,5.1,0.1,7.6,0.4c3.6,0.4,6.1,0.8,9.5-1.1C93.1,169.5,94,167.6,93.8,165.7L93.8,165.7z
			 M94.4,161.7c0-3.8-4.3-6.9-9.6-6.9c-1.8,0-3.5,0.4-5.2,1.1l0,0c-1.7,0.9-3,2.4-3.7,4.2c-0.1,0.2-0.4,0.4-0.6,0.3c0,0,0,0,0,0
			c-0.2-0.1-0.4-0.4-0.3-0.6c0.5-1.2,1.3-2.4,2.2-3.3c-0.8-1.5-2-2.8-3.5-3.8c-1.1,0.5-2.4,0.8-3.6,0.9h-0.1c-0.3,0-0.5-0.2-0.5-0.5
			s0.2-0.5,0.5-0.5c1.2-0.1,2.4-0.4,3.5-0.9l0,0c1.6-0.7,2.6-1.7,2.6-2.8c0-2.1-3.8-3.9-8.2-3.9s-8.2,1.8-8.2,3.9c0,1.1,1.1,2.2,3,3
			h0.1c0.7,0.3,1.4,0.5,2.2,0.6c0.3,0.1,0.4,0.3,0.4,0.6c0,0.3-0.3,0.4-0.6,0.4c0,0,0,0,0,0c-0.7-0.1-1.5-0.3-2.2-0.6
			c-3.8,2.6-5.4,7.5-3.8,11.8v0.1c1.2,3,4.3,4.7,7.4,4h0.3c2.7-0.6,5.4-1,8.2-1.2c2.4,0.2,4.7,0.4,7.1,0.9l0,0
			c1,0.2,1.9,0.3,2.9,0.3c4,0,7.6-1.8,9-4.5C94.1,163.4,94.3,162.5,94.4,161.7z"/>
		<path class="st3" d="M67.7,149.5c-0.2,0-0.4,0-0.6-0.1c-2-0.3-3.4-2.3-3.1-4.3c2.6-16-5-33.6-5.1-33.8c-0.7-2,0.3-4.1,2.2-4.8
			c1.8-0.6,3.8,0.1,4.6,1.8c0.3,0.8,8.6,19.7,5.6,38C71.1,148.2,69.5,149.5,67.7,149.5z"/>
		<path d="M62.3,106.8c1.2,0,2.3,0.7,2.8,1.8c0.3,0.8,8.5,19.5,5.6,37.6c-0.2,1.5-1.5,2.6-3,2.6c-0.2,0-0.3,0-0.5,0
			c-1.7-0.3-2.8-1.9-2.6-3.5c0,0,0,0,0,0c2.6-16.2-5-33.9-5.1-34.2c-0.7-1.6,0-3.4,1.6-4.1C61.5,106.9,61.9,106.8,62.3,106.8
			 M62.4,105.5c-2.4,0-4.4,2-4.4,4.4c0,0.6,0.1,1.2,0.4,1.8c0.1,0.2,7.6,17.6,5,33.4c-0.4,2.4,1.2,4.7,3.7,5.1
			c0.2,0,0.5,0.1,0.7,0.1c2.2,0,4-1.6,4.3-3.8c3-18.5-5.3-37.6-5.7-38.4C65.6,106.5,64.1,105.4,62.4,105.5L62.4,105.5z"/>
		<path class="st4" d="M67.7,149.7L67.7,149.7c-2.3-0.1-4-2.1-3.8-4.3l0,0l0.3-4.5c0-0.4,0.3-0.7,0.7-0.6l6.8,0.4
			c0.4,0,0.7,0.3,0.6,0.7l-0.3,4.6C71.9,148.1,69.9,149.9,67.7,149.7C67.7,149.7,67.7,149.7,67.7,149.7L67.7,149.7z"/>
		<path class="st3" d="M59.3,142.5c-1.4,0-2.8-0.7-3.7-1.8c-0.9-1.1-1.2-2.6-0.8-3.9c0.4-1.7,1.7-3,3.4-3.4l8.8-2.3
			c5.7-1.5,10.1-6.2,11-12.1h0.7l-0.7-0.1c0.3-4.1,0-8.3-1-12.3c-0.2-1.1,0-2.3,0.7-3.2c0.7-0.9,1.7-1.5,2.8-1.7c0.2,0,0.3,0,0.5,0
			c1.9,0,3.5,1.2,4,3c1.1,4,1.8,8.2,2.1,12.3c0.1,2-0.2,3.9-0.7,5.8l-0.1,0.4c-2,6.8-6.9,12.4-13.4,15.3l-1.1,0.5
			c-2.6,1.1-5.3,2-8,2.6l-3.4,0.8C60,142.5,59.7,142.5,59.3,142.5z"/>
		<path d="M81,102.3c1.6,0,2.9,1,3.3,2.6c1.2,4,1.9,8.1,2.1,12.2c0.1,1.9-0.1,3.8-0.7,5.6c0,0.1-0.1,0.3-0.1,0.4
			c-1.9,6.6-6.7,12-13,14.9l-1.1,0.5c-2.5,1.1-5.2,2-7.9,2.6l-3.4,0.8c-0.3,0.1-0.6,0.1-0.9,0.1c-2.2,0-4-1.9-3.9-4.1
			c0-0.3,0-0.6,0.1-0.8v-0.1c0.4-1.4,1.5-2.5,2.9-2.8l8.8-2.3c6-1.6,10.5-6.5,11.4-12.7v-0.1c0.3-4.2,0-8.4-1-12.5
			c-0.4-1.8,0.8-3.7,2.6-4.1c0.1,0,0.2,0,0.3-0.1L81,102.3 M81,100.9L81,100.9c-0.2,0-0.4,0-0.6,0c-2.6,0.4-4.4,2.7-4.1,5.3
			c0,0.1,0,0.3,0.1,0.4c0.9,3.9,1.3,8,1,12v0.1c-0.9,5.6-5,10.1-10.4,11.5l-8.8,2.3c-1.9,0.5-3.4,1.9-3.9,3.8v0.1
			c-0.4,1.6-0.1,3.2,0.9,4.5c1,1.3,2.6,2.1,4.2,2.1c0.4,0,0.8,0,1.2-0.1l3.4-0.8c2.8-0.6,5.5-1.5,8.2-2.7l1.1-0.5
			c6.6-2.9,11.7-8.6,13.7-15.6l0.1-0.4c0.6-2,0.8-4,0.7-6c-0.2-4.2-1-8.4-2.2-12.5C85.1,102.4,83.2,100.9,81,100.9L81,100.9z"/>
		<path class="st0" d="M37,159.2c-0.1-1-0.2-2.1-0.2-3.1c0-0.3-0.1-5.2-0.4-6.9v-0.1c-0.7-2.6-1.5-5.2-2.6-7.6l-0.1-0.3
			c-0.2-0.5-0.3-1-0.4-1.4c-0.5-2.6,0.5-5.4,2.6-7.1c-1.8-0.3-3.6,0.7-4.3,2.3c-1.6,3.6-0.7,6.2,0.5,9.5c0.6,1.5,1.1,3.1,1.5,4.7
			c0.5,2.5,0.8,5,0.9,7.6c0.2,3.6,0.3,6.2,2.8,9.2c1.3,1.4,3.3,2,5.1,1.6C39.8,166,37.7,162.9,37,159.2z"/>
		<path class="st1" d="M51.6,156.6c-0.3-1.8-1-3.4-2-4.9l0,0c-1.2-1.5-2.9-2.6-4.8-2.9c-0.3-0.1-0.4-0.3-0.4-0.6c0,0,0,0,0,0
			c0.1-0.3,0.3-0.4,0.6-0.4c0,0,0,0,0,0c1.3,0.3,2.6,0.8,3.7,1.6c1.4-1.1,2.4-2.5,3.1-4.1c-0.7-1-1.2-2.2-1.5-3.4c0,0,0,0,0-0.1
			c0-0.2,0.1-0.5,0.3-0.5c0.3-0.1,0.5,0.1,0.6,0.3c0,0,0,0,0,0c0.3,1.2,0.9,2.3,1.5,3.3v0.1c1,1.5,2.2,2.3,3.2,2.1
			c2.1-0.4,3.2-4.4,2.4-8.7s-3.2-7.8-5.3-7.4c-1.1,0.2-2,1.5-2.4,3.4c0,0,0,0.1,0,0.1c-0.1,0.7-0.2,1.5-0.2,2.3
			c0,0.3-0.2,0.5-0.5,0.5c0,0,0,0,0,0c-0.3,0-0.5-0.2-0.5-0.5c0-0.7,0.1-1.5,0.2-2.2c-3.2-3.3-8.3-4-12.3-1.7l0,0
			c-2.7,1.6-3.9,5-2.7,8l0.1,0.3c1.1,2.6,1.9,5.2,2.6,7.9c0.3,2.4,0.4,4.7,0.4,7.1l0,0c0,1,0.1,1.9,0.2,2.9c0.7,3.9,3.1,7.2,6,8.1
			c0.8,0.3,1.7,0.3,2.5,0.2C50.3,166.6,52.5,161.8,51.6,156.6z"/>
		<path class="st2" d="M46.7,168.2c-0.9,0.2-1.9,0.1-2.8-0.2c-0.7,0.3-1.5,0.4-2.3,0.5c-1.9,0.2-3.8-0.5-5.1-2
			c-2.7-3.3-2.8-6.1-3-9.8c-0.1-2.5-0.4-5-0.9-7.4c-0.4-1.6-0.9-3.1-1.4-4.6c-0.6-1.4-1-2.8-1.3-4.2c-0.4-2-0.1-4.1,0.8-6
			c0.8-1.7,2.9-3.5,6.4-2.7c1.1-0.6,2.3-1,3.5-1.2c3.4-0.6,6.9,0.4,9.4,2.8c0.6-1.9,1.6-3.1,3-3.4c2.7-0.5,5.5,3.1,6.4,8.2
			s-0.5,9.4-3.2,9.9c-1.3,0.2-2.6-0.5-3.7-1.8c-0.7,1.5-1.7,2.8-3,3.8c0.3,0.3,0.7,0.7,0.9,1.1c1.1,1.6,1.8,3.4,2.1,5.3
			C53.6,162.2,50.9,167.5,46.7,168.2z M42.4,167.5c-2.7-1.4-4.7-4.6-5.4-8.3c-0.1-1-0.2-2.1-0.2-3.1c0-0.3-0.1-5.2-0.4-6.9v-0.1
			c-0.7-2.6-1.5-5.2-2.6-7.6l-0.1-0.3c-0.2-0.5-0.3-1-0.4-1.4c-0.5-2.6,0.5-5.4,2.6-7.1c-1.8-0.3-3.6,0.7-4.3,2.3
			c-1.6,3.6-0.7,6.2,0.5,9.5c0.6,1.5,1.1,3.1,1.5,4.7c0.5,2.5,0.8,5,0.9,7.6c0.2,3.6,0.3,6.2,2.8,9.2
			C38.6,167.4,40.6,168,42.4,167.5L42.4,167.5z M46.5,167.3c3.8-0.7,6-5.5,5.1-10.7c-0.3-1.8-1-3.4-2-4.9l0,0
			c-1.2-1.5-2.9-2.6-4.8-2.9c-0.3-0.1-0.4-0.3-0.4-0.6c0,0,0,0,0,0c0.1-0.3,0.3-0.4,0.6-0.4c0,0,0,0,0,0c1.3,0.3,2.6,0.8,3.7,1.6
			c1.4-1.1,2.4-2.5,3.1-4.1c-0.7-1-1.2-2.2-1.5-3.4c0,0,0,0,0-0.1c0-0.2,0.1-0.5,0.3-0.5c0.3-0.1,0.5,0.1,0.6,0.3c0,0,0,0,0,0
			c0.3,1.2,0.9,2.3,1.5,3.3v0.1c1,1.5,2.2,2.3,3.2,2.1c2.1-0.4,3.2-4.4,2.4-8.7s-3.2-7.8-5.3-7.4c-1.1,0.2-2,1.5-2.4,3.4
			c0,0,0,0.1,0,0.1c-0.1,0.7-0.2,1.5-0.2,2.3c0,0.3-0.2,0.5-0.5,0.5c0,0,0,0,0,0c-0.3,0-0.5-0.2-0.5-0.5c0-0.7,0.1-1.5,0.2-2.2
			c-3.2-3.3-8.3-4-12.3-1.7l0,0c-2.7,1.6-3.9,5-2.7,8l0.1,0.3c1.1,2.6,1.9,5.2,2.6,7.9c0.3,2.4,0.4,4.7,0.4,7.1l0,0
			c0,1,0.1,1.9,0.2,2.9c0.7,3.9,3.1,7.2,6,8.1C44.8,167.4,45.7,167.4,46.5,167.3L46.5,167.3z"/>
		<path class="st5" d="M53.3,138.3L53.3,138.3c-0.4-2.6,1.4-5,3.9-5.4l0,0l5.2-0.8c0.4-0.1,0.8,0.2,0.9,0.6l0,0l1.2,7.8
			c0.1,0.4-0.2,0.8-0.6,0.9l0,0l-5.2,0.8C56.1,142.6,53.7,140.8,53.3,138.3C53.3,138.3,53.3,138.3,53.3,138.3z"/>
		<path class="st6" d="M156,86.8c-0.1-2.6-0.3-5.2-0.6-7.8c-16.8,0-28.1-1.8-35-3.5c-8.4-2-12-4.3-12.3-4.6l0,0l-10.4,2.5
			c5.4,4.2,11.7,7.3,18.3,9.1c6.7,1.7,13.5,2.8,20.3,3.4C142.4,86.6,149,86.8,156,86.8z"/>
		<path class="st7" d="M150.7,85.7c2.4,1.4,5.3,1.3,7.6-0.2c1.2-8.7,1.4-17-1.5-23.8c-3.1,4.6-6,9-6.4,11.8L150.7,85.7z"/>
		<path class="st8" d="M154,63.5c-0.1-0.3-0.3-0.5-0.6-0.6l0,0c-0.5-0.2-1-0.1-1.4,0.3c-0.8,0.8-1.3,1.8-1.4,2.9l-0.7,5.5l-0.3,2
			c-0.2,1.8,0,3.6,0.6,5.3"/>
		<path class="st9" d="M157.7,61.8L157.7,61.8c-0.2-0.6-0.8-1-1.4-1.1l0,0c-0.6-0.1-1.2,0.2-1.6,0.7l0,0c-0.8,1.1-1.2,2.3-1.3,3.6
			l-0.1,1.9c0,0.8-0.3,2.4-0.3,2.4l-0.2,1.3"/>
		<path class="st9" d="M159.1,75.4c0.3-1.7,0.6-3.4,1-5.4c0.2-1.1,0.3-2.3,0.3-3.4v-2c0-0.8-0.3-1.7-0.8-2.3l-0.1-0.1
			c-0.3-0.4-0.8-0.6-1.3-0.6l0,0c-0.5,0-1,0.4-1.1,0.9l-0.9,3.2c-0.1,0.5-0.2,1-0.3,1.5l-0.3,2.5c-0.1,0.6-0.2,1.2-0.4,1.8l-0.4,1.3
			"/>
		<path class="st9" d="M157.1,78.6c0.8-2,2.2-3.7,3.9-4.9c0.3-0.2,0.6-0.3,0.9-0.4c1-0.3,2.1,0.2,2.4,1.2c0.1,0.3,0.1,0.6,0.1,1
			c-0.1,1.2-0.7,2.3-1.5,3.2c-1.1,1.3-1.9,2.8-2.3,4.5c-0.1,0.7-0.4,1.3-0.8,1.9l-0.1,0.2c-0.6,0.8-1.4,1.3-2.3,1.6l-0.9,0.3
			c-1.1,0.4-2.3,0.4-3.4,0l0,0"/>
		<path class="st9" d="M152.3,79.7c-0.2-0.8-0.5-1.5-1-2.1c-0.5-0.6-1.3-1-2.1-1h-0.1c-0.5,0-1,0.2-1.4,0.4l0,0
			c-0.4,0.3-0.4,0.8-0.2,1.2c0,0.1,0.1,0.1,0.2,0.2c0.3,0.3,0.7,0.6,0.9,1c0.5,0.7,0.7,1.6,0.6,2.4l-0.1,1.6c0,0.7-0.2,1.3-0.6,1.8
			l-0.3,0.4c-0.4,0.6-0.3,1.4,0.3,1.9c0,0,0,0,0,0l0,0c0.5,0.4,1.2,0.4,1.7,0l0,0c0.9-0.6,1.5-1.5,1.8-2.5l0.5-1.9"/>
	</g>
</g>
<g>
	<rect x="24.3" y="11.3" class="st10" width="74.6" height="101.3"/>
	<rect x="26.1" y="11.2" class="st11" width="20.4" height="101.3"/>
	<line class="st12" x1="42.9" y1="112.6" x2="42.9" y2="11.3"/>
	<line class="st12" x1="39.4" y1="112.8" x2="39.4" y2="11.2"/>
	<line class="st12" x1="35.9" y1="112.8" x2="35.9" y2="11.2"/>
	<line class="st12" x1="32.4" y1="112.7" x2="32.4" y2="11.4"/>
	<line class="st12" x1="28.8" y1="112.7" x2="28.8" y2="11.4"/>
	<rect x="34.3" y="11.4" class="st13" width="74.6" height="101.3"/>
	<path class="st14" d="M109.8,25.3c13.8-6.2-5.4-6.2-5.4-6.2"/>
	<path class="st14" d="M109.8,45.3c13.8-6.2-5.4-6.2-5.4-6.2"/>
	<path class="st14" d="M109.8,65.2c13.8-6.2-5.4-6.2-5.4-6.2"/>
	<path class="st14" d="M109.8,85.1c13.8-6.1-5.4-6.1-5.4-6.1"/>
	<path class="st14" d="M109.8,105c13.8-6.1-5.4-6.1-5.4-6.1"/>
	<ellipse class="st15" cx="86.8" cy="59.3" rx="8.6" ry="12.8"/>
	<ellipse class="st15" cx="63.9" cy="58.6" rx="8.6" ry="12.8"/>
	<ellipse class="st16" cx="68" cy="58.6" rx="4.4" ry="6.5"/>
	<ellipse class="st16" cx="90.8" cy="58.6" rx="4.4" ry="6.5"/>
	<path class="st17" d="M83.9,42.3c4.4-4.8,9,0,9,0"/>
	<path class="st17" d="M59.1,42.3c4.4-4.8,9,0,9,0"/>
	<path class="st18" d="M60.1,78.3l22.7,4.5c0.9,0.2,1.6,1,1.3,1.7c-1.6,4.2-6.5,6.8-12.1,6.5c-0.1-0.7-0.2-1.4-0.3-2.1
		c-1.6-5.7-7.4-9.1-13.2-7.6c-0.2-0.6-0.2-1.3-0.2-2C58.3,78.7,59.1,78.1,60.1,78.3z"/>
	<path class="st19" d="M58.5,81.4c0.7-0.2,1.4-0.3,2.1-0.3c5.9-0.4,11,4.1,11.4,10c-0.9,0-1.7-0.1-2.5-0.3
		C63.7,89.6,59.4,85.8,58.5,81.4L58.5,81.4z"/>
	<path class="st20" d="M71.4,80.5c1.7,0.3,3.5,0.5,5.3,0.5c0,0.3,0,0.5-0.1,0.8c-0.3,1.8-1.8,3.1-3.3,2.8c-1.4-0.3-2.3-2-2-3.8
		C71.4,80.6,71.4,80.6,71.4,80.5z"/>
	<path class="st20" d="M66.4,79c1.7,0.7,3.3,1.2,5.1,1.6l0,0c0,0.1-0.1,0.2-0.1,0.3c-0.3,1.8-1.8,3.1-3.3,2.7c-1.4-0.3-2.3-2-2-3.8
		C66.2,79.4,66.3,79.2,66.4,79z"/>
	<path class="st21" d="M54.8,79.4c0,1.2,0.1,2.4,0.5,3.5c0.7,2.3,1.9,4.3,3.6,6c2.7,2.7,6.1,4.5,9.9,5.2c0.9,0.2,1.9,0.3,2.9,0.3
		c2.8,0.2,5.6-0.3,8.2-1.4c3.3-1.3,6-4,7.4-7.3c0.5-1.2,0.4-2.6-0.2-3.8c-0.8-1.3-2-2.3-3.5-2.5L60.8,75c-1.5-0.3-3,0.1-4.2,1
		C55.5,76.8,54.9,78,54.8,79.4z M58.2,79.5c0.1-0.8,0.9-1.3,1.9-1.1l22.7,4.5c0.9,0.2,1.6,1,1.3,1.7c-1.6,4.2-6.5,6.8-12.1,6.5
		c-0.9,0-1.7-0.1-2.5-0.3c-5.7-1.2-10-5-11-9.3C58.3,80.9,58.2,80.2,58.2,79.5L58.2,79.5z"/>
	<circle class="st7" cx="91.5" cy="56" r="1.3"/>
	<circle class="st7" cx="69" cy="56" r="1.3"/>
</g>
<g>
	<path class="st6" d="M28.8,80.1c-2-0.5-3.8-0.9-5.4-1c-2.1-0.2-9.6,0.1-12.6,3.2c-1.9,1.9-3,4.5-2.9,7.1c0.3,3.8,3.1,7.1,7.4,8.6
		c1.8,0.7,2.8,2.8,2.1,4.6c-0.7,1.8-2.6,2.7-4.4,2.1c-0.8-0.3-1.5-0.6-2.3-0.9c-5.5-2.5-9.3-7.9-9.9-13.9c-0.2-3,0.5-6.1,2-8.7
		c0.8-1.4,1.8-2.7,2.9-3.9c4.8-4.9,11.2-8.2,23.1-4.7L28.8,80.1z"/>
	<ellipse transform="matrix(0.8422 -0.5392 0.5392 0.8422 -58.041 24.1359)" class="st22" cx="12.2" cy="111.2" rx="1.5" ry="2.5"/>
	<path class="st8" d="M19.8,99.4L19.8,99.4c-0.2-0.9-1-1.5-1.9-1.4h-0.1c-3.5,0.3-6.5,2.4-8.1,5.5l-0.1,0.1c-0.4,0.9-0.2,2,0.6,2.6
		l0,0c0.4,0.3,0.9,0.4,1.4,0.2l4.4-2c1.3-0.6,2.3-1.5,3.1-2.6l0,0C19.8,101.1,19.9,100.2,19.8,99.4z"/>
	<path class="st23" d="M17.4,101.6L17.4,101.6c3.3-0.3,6.3,1.6,7.4,4.7c0.3,0.8,0.5,1.7,0.6,2.5c0,0.6,0,1.2,0,1.8
		c-0.1,2.1-1.1,4.1-2.8,5.4l0,0c-0.3,0.3-0.8,0.2-1-0.1c-0.1-0.1-0.2-0.3-0.2-0.5l-0.1-2.9"/>
	<ellipse transform="matrix(0.9824 -0.1869 0.1869 0.9824 -20.0054 5.3368)" class="st7" cx="18.3" cy="108.8" rx="5" ry="6.4"/>
	<path class="st23" d="M22.4,112.1c0.2,1,0.1,2-0.2,3c-0.5,1.5-1.8,2.7-3.3,3c-0.2,0-0.5,0.1-0.7,0.1c-0.9,0-1.8-0.5-2.1-1.4l0,0"/>
	<path class="st23" d="M18.4,112.9c-0.2,1.4-0.7,2.8-1.4,4c-0.3,0.6-0.9,1.1-1.5,1.3c-1.3,0.6-2.8,0.4-4-0.4
		c-0.1-0.1-0.2-0.1-0.3-0.2c-0.9-0.6-1.5-1.4-2-2.4L8,112.8c-0.4-0.8-0.2-1.8,0.6-2.4h0.1c0.5-0.4,1.2-0.3,1.6,0.2l2,2.2
		c0,0.1,0.1,0.1,0.2,0.1s0.1-0.1,0.1-0.2l0,0l-0.7-1.9c-0.7-2.1-0.3-4.4,1.1-6l1.1-1.2"/>
</g>
</svg>
