<svg xmlns="http://www.w3.org/2000/svg" viewBox="0 0 160.91 190.29"><defs><style>.cls-1{fill:#e5e5e5;}.cls-2{fill:#004f27;}.cls-3,.cls-9{fill:#441216;}.cls-10,.cls-12,.cls-13,.cls-14,.cls-15,.cls-16,.cls-17,.cls-18,.cls-19,.cls-20,.cls-21,.cls-3,.cls-4,.cls-5,.cls-6,.cls-7,.cls-8,.cls-9{stroke:#000;}.cls-10,.cls-13,.cls-14,.cls-15,.cls-16,.cls-17,.cls-18,.cls-19,.cls-20,.cls-3,.cls-4,.cls-5,.cls-6,.cls-7,.cls-8,.cls-9{stroke-miterlimit:10;}.cls-3{stroke-width:0.92px;}.cls-10,.cls-11,.cls-12,.cls-14,.cls-19,.cls-20,.cls-21,.cls-4,.cls-6{fill:#fff;}.cls-4{stroke-width:1.3px;}.cls-5{fill:#82000a;}.cls-5,.cls-8{stroke-width:1.54px;}.cls-6,.cls-7{stroke-width:0.81px;}.cls-13,.cls-16,.cls-7{fill:none;}.cls-8{fill:#c1272d;}.cls-9{stroke-width:0.88px;}.cls-10{stroke-width:0.83px;}.cls-12,.cls-13,.cls-16,.cls-21{stroke-linecap:round;}.cls-12,.cls-21{stroke-linejoin:round;}.cls-12{stroke-width:0.88px;}.cls-13{stroke-width:2.61px;}.cls-14{stroke-width:1.08px;}.cls-15{stroke-width:0.13px;}.cls-16{stroke-width:2.16px;}.cls-17{fill:#d85067;stroke-width:0.46px;}.cls-18{stroke-width:0.09px;}.cls-19{stroke-width:1.16px;}.cls-20,.cls-21{stroke-width:1.2px;}</style></defs><title>l24</title><g id="Layer_2" data-name="Layer 2"><g id="personaje"><path class="cls-1" d="M41.74,186.18a31,31,0,0,0,3-1.15,70,70,0,0,1,6.67-2.66h0a59.45,59.45,0,0,1,8.37-.9l.31,0a8,8,0,0,0,1.55-.24,7.77,7.77,0,0,0,5.56-5.51,4.26,4.26,0,0,1-.27,5.08c-2.69,3.12-5.56,3.35-9.19,3.63a37.87,37.87,0,0,0-5.07.65,45.46,45.46,0,0,0-7.58,2.45c-3.48,1.39-6,2.39-9.93,1.37a5.41,5.41,0,0,1-3.69-4.16C34.05,186.6,37.89,187.19,41.74,186.18Z"/><path class="cls-2" d="M37.85,171.28a13,13,0,0,1,5.5-.27h0a7.9,7.9,0,0,1,4.79,3.25.51.51,0,1,0,.8-.62,10.54,10.54,0,0,0-3.13-2.77,10.43,10.43,0,0,1,2.53-4.7,14.3,14.3,0,0,0,3.86,0h.06a.51.51,0,0,0-.19-1,13.42,13.42,0,0,1-3.8,0h-.06c-1.81-.3-3.08-1.06-3.37-2.14-.55-2.12,2.76-4.89,7.24-6.06s8.72-.38,9.27,1.74c.3,1.16-.56,2.55-2.22,3.77l-.06,0a13.07,13.07,0,0,1-2,1.2.49.49,0,0,0-.24.66.5.5,0,0,0,.67.24,12.9,12.9,0,0,0,2-1.16,10.47,10.47,0,0,1,6.68,7.24,10.64,10.64,0,0,1,.29,3.68v.07a6.78,6.78,0,0,1-6.39,6l-.31,0a58.73,58.73,0,0,0-8.55.93,68,68,0,0,0-6.89,2.72l0,0c-.74.37-2.69,1-2.83,1.08-4,1-8.17.19-10.3-2.15a5.42,5.42,0,0,1-1.25-2.27C28.94,177,32.48,172.69,37.85,171.28Z"/><path d="M29,181a6.36,6.36,0,0,0,1.34,2.54,8.65,8.65,0,0,0,.55,2.35A6.12,6.12,0,0,0,35,189.84c4.25,1.11,7,0,10.55-1.41a44.75,44.75,0,0,1,7.42-2.4,38.4,38.4,0,0,1,4.94-.63,25.55,25.55,0,0,0,4.58-.62,10,10,0,0,0,5.29-3.35c1.3-1.52,2-4.29-.25-7.19a11.5,11.5,0,0,0-7.06-11.53c1.55-1.36,2.28-2.9,1.91-4.29-.71-2.73-5.32-3.81-10.5-2.45s-8.66,4.55-8,7.28c.34,1.28,1.56,2.22,3.33,2.69a11.48,11.48,0,0,0-2.31,4.48,5.53,5.53,0,0,0-1.42-.4,14,14,0,0,0-5.91.29C31.69,171.86,27.83,176.67,29,181Zm2.56,3.67c2.52,1.89,6.36,2.48,10.21,1.47a31,31,0,0,0,3-1.15,70,70,0,0,1,6.67-2.66h0a59.45,59.45,0,0,1,8.37-.9l.31,0a8,8,0,0,0,1.55-.24,7.77,7.77,0,0,0,5.56-5.51,4.26,4.26,0,0,1-.27,5.08c-2.69,3.12-5.56,3.35-9.19,3.63a37.87,37.87,0,0,0-5.07.65,45.46,45.46,0,0,0-7.58,2.45c-3.48,1.39-6,2.39-9.93,1.37A5.41,5.41,0,0,1,31.53,184.71Zm-1.59-3.92c-1-3.84,2.54-8.1,7.91-9.51a13,13,0,0,1,5.5-.27h0a7.9,7.9,0,0,1,4.79,3.25.51.51,0,1,0,.8-.62,10.54,10.54,0,0,0-3.13-2.77,10.43,10.43,0,0,1,2.53-4.7,14.3,14.3,0,0,0,3.86,0h.06a.51.51,0,0,0-.19-1,13.42,13.42,0,0,1-3.8,0h-.06c-1.81-.3-3.08-1.06-3.37-2.14-.55-2.12,2.76-4.89,7.24-6.06s8.72-.38,9.27,1.74c.3,1.16-.56,2.55-2.22,3.77l-.06,0a13.07,13.07,0,0,1-2,1.2.49.49,0,0,0-.24.66.5.5,0,0,0,.67.24,12.9,12.9,0,0,0,2-1.16,10.47,10.47,0,0,1,6.68,7.24,10.64,10.64,0,0,1,.29,3.68v.07a6.78,6.78,0,0,1-6.39,6l-.31,0a58.73,58.73,0,0,0-8.55.93,68,68,0,0,0-6.89,2.72l0,0c-.74.37-2.69,1-2.83,1.08-4,1-8.17.19-10.3-2.15A5.42,5.42,0,0,1,29.94,180.79Z"/><path class="cls-3" d="M61.13,122.94h0a4.26,4.26,0,0,1,4.73,2.68l0,.06a4.25,4.25,0,0,1-2.16,5.37l-4.27,2a8.27,8.27,0,0,0-4.62,6.11h0a31.1,31.1,0,0,0,.51,12.67l1.23,4.91A4.26,4.26,0,0,1,53,162h0a4.27,4.27,0,0,1-4.81-3.46l-2.64-14.62a4.5,4.5,0,0,1-.07-.63h0a23.58,23.58,0,0,1,3.84-13.6h0a10.55,10.55,0,0,1,3.78-3.49l3.68-1.84A16.06,16.06,0,0,1,61.13,122.94Z"/><path class="cls-4" d="M48.34,151.82h7.89a.77.77,0,0,1,.77.77v5.27a4.72,4.72,0,0,1-4.72,4.72h0a4.72,4.72,0,0,1-4.72-4.72v-5.27a.77.77,0,0,1,.77-.77Z" transform="translate(-28.51 12.57) rotate(-10.79)"/><path class="cls-1" d="M117.47,186.21a26.49,26.49,0,0,1-3-1.08,71.13,71.13,0,0,0-6.72-2.51h0a59.1,59.1,0,0,0-8.38-.71l-.32,0a7.93,7.93,0,0,1-1.55-.21,7.74,7.74,0,0,1-5.68-5.39,4.28,4.28,0,0,0,.38,5.08c2.76,3.06,5.63,3.23,9.27,3.43a37,37,0,0,1,5.08.54,45.32,45.32,0,0,1,7.63,2.28c3.51,1.31,6,2.26,10,1.16a5.43,5.43,0,0,0,3.6-4.25C125.17,186.47,121.35,187.14,117.47,186.21Z"/><path class="cls-2" d="M121,171.24a13.15,13.15,0,0,0-5.5-.16h0a7.89,7.89,0,0,0-4.72,3.35.5.5,0,1,1-.8-.6A10.56,10.56,0,0,1,113,171a10.54,10.54,0,0,0-2.63-4.65,14.07,14.07,0,0,1-3.86.06h-.06a.5.5,0,0,1,.17-1,13.17,13.17,0,0,0,3.8-.08h.05c1.81-.34,3.07-1.12,3.33-2.21.5-2.13-2.87-4.83-7.37-5.9s-8.73-.19-9.23,1.94c-.28,1.16.61,2.54,2.3,3.72l.06,0a12.57,12.57,0,0,0,2.07,1.14.51.51,0,0,1,.25.67.5.5,0,0,1-.66.25,14.07,14.07,0,0,1-2.05-1.12,10.51,10.51,0,0,0-6.52,7.39,10.37,10.37,0,0,0-.21,3.68V175A6.76,6.76,0,0,0,99,180.88h.32a58.71,58.71,0,0,1,8.56.74,68.54,68.54,0,0,1,7,2.58h0a28.12,28.12,0,0,0,2.85,1c4.05,1,8.17,0,10.25-2.38a5.37,5.37,0,0,0,1.19-2.29C130.07,176.71,126.43,172.53,121,171.24Z"/><path d="M130.13,180.8a6.31,6.31,0,0,1-1.29,2.57,8.29,8.29,0,0,1-.5,2.36,6.09,6.09,0,0,1-4,4c-4.23,1.2-7,.15-10.58-1.18a43.65,43.65,0,0,0-7.47-2.23,36,36,0,0,0-5-.53,25.67,25.67,0,0,1-4.59-.52A10,10,0,0,1,91.37,182c-1.34-1.48-2.09-4.24.09-7.18a11.53,11.53,0,0,1,6.81-11.69c-1.58-1.33-2.34-2.85-2-4.24.66-2.75,5.24-3.93,10.44-2.69s8.77,4.36,8.11,7.11c-.3,1.29-1.51,2.25-3.27,2.76a11.44,11.44,0,0,1,2.42,4.43,5.19,5.19,0,0,1,1.4-.43,14.08,14.08,0,0,1,5.91.16C127.21,171.68,131.18,176.41,130.13,180.8Zm-2.48,3.72c-2.48,1.95-6.3,2.62-10.18,1.69a26.49,26.49,0,0,1-3-1.08,71.13,71.13,0,0,0-6.72-2.51h0a59.1,59.1,0,0,0-8.38-.71l-.32,0a7.93,7.93,0,0,1-1.55-.21,7.74,7.74,0,0,1-5.68-5.39,4.28,4.28,0,0,0,.38,5.08c2.76,3.06,5.63,3.23,9.27,3.43a37,37,0,0,1,5.08.54,45.32,45.32,0,0,1,7.63,2.28c3.51,1.31,6,2.26,10,1.16A5.43,5.43,0,0,0,127.65,184.52Zm1.5-4c.92-3.86-2.72-8-8.11-9.33a13.15,13.15,0,0,0-5.5-.16h0a7.89,7.89,0,0,0-4.72,3.35.5.5,0,1,1-.8-.6A10.56,10.56,0,0,1,113,171a10.54,10.54,0,0,0-2.63-4.65,14.07,14.07,0,0,1-3.86.06h-.06a.5.5,0,0,1,.17-1,13.17,13.17,0,0,0,3.8-.08h.05c1.81-.34,3.07-1.12,3.33-2.21.5-2.13-2.87-4.83-7.37-5.9s-8.73-.19-9.23,1.94c-.28,1.16.61,2.54,2.3,3.72l.06,0a12.57,12.57,0,0,0,2.07,1.14.51.51,0,0,1,.25.67.5.5,0,0,1-.66.25,14.07,14.07,0,0,1-2.05-1.12,10.51,10.51,0,0,0-6.52,7.39,10.37,10.37,0,0,0-.21,3.68V175A6.76,6.76,0,0,0,99,180.88h.32a58.71,58.71,0,0,1,8.56.74,68.54,68.54,0,0,1,7,2.58h0a28.12,28.12,0,0,0,2.85,1c4.05,1,8.17,0,10.25-2.38A5.37,5.37,0,0,0,129.15,180.57Z"/><path class="cls-3" d="M96.39,123.19h0A4.28,4.28,0,0,0,91.72,126l0,.06A4.26,4.26,0,0,0,94,131.36l4.31,1.92a8.27,8.27,0,0,1,4.75,6h0a31,31,0,0,1-.23,12.68l-1.12,4.93a4.27,4.27,0,0,0,3.64,5.18h0a4.27,4.27,0,0,0,4.73-3.57l2.33-14.67a4.6,4.6,0,0,0,0-.64h0a23.5,23.5,0,0,0-4.13-13.51h0a10.53,10.53,0,0,0-3.86-3.4l-3.72-1.76A15.49,15.49,0,0,0,96.39,123.19Z"/><path class="cls-4" d="M106,151.87h0a4.72,4.72,0,0,1,4.72,4.72v5.27a.77.77,0,0,1-.77.77H102a.77.77,0,0,1-.77-.77v-5.27A4.72,4.72,0,0,1,106,151.87Z" transform="translate(184.45 329.89) rotate(-170.46)"/><rect class="cls-5" x="37.72" y="0.77" width="94.08" height="127.76"/><rect class="cls-6" x="103.78" y="0.6" width="25.78" height="127.76"/><line class="cls-7" x1="108.23" y1="0.79" x2="108.23" y2="128.54"/><line class="cls-7" x1="112.69" y1="0.6" x2="112.69" y2="128.7"/><line class="cls-7" x1="117.14" y1="0.6" x2="117.14" y2="128.7"/><line class="cls-7" x1="121.6" y1="0.83" x2="121.6" y2="128.56"/><line class="cls-7" x1="126.06" y1="0.83" x2="126.06" y2="128.56"/><rect class="cls-8" x="25.03" y="0.93" width="94.08" height="127.76"/><path class="cls-9" d="M151.56,108.6c-2.72.69-5.46,1.32-8.21,1.87C140.1,97.83,136,89.86,132.92,85.18c-3.77-5.7-6.84-7.74-7.15-7.94l0,0,.54-8.61c.46.25,8.16,3.95,13,11.08A73.87,73.87,0,0,1,146.87,94,116,116,0,0,1,151.56,108.6Z"/><path class="cls-10" d="M156.13,112.93s1.43-4.18-4.32-5.92c-6.66-2-15.22,4.22-9.92,9Z"/><ellipse class="cls-11" cx="149.31" cy="114.93" rx="6.6" ry="5.08" transform="translate(-5.6 7.67) rotate(-2.89)"/><path class="cls-12" d="M150.44,109.94c4,0,7.2,2.26,9.1,8.4,1.22,4.17,1.22,7.45.15,9.94a2.91,2.91,0,0,1-3.3,1.68h0l-.78-3.52"/><path class="cls-12" d="M156.1,120.77a14.41,14.41,0,0,1,1.47,8,7.65,7.65,0,0,1-2.34,4.87,2.34,2.34,0,0,1-2.21.68h0a1.54,1.54,0,0,1-1.06-1.93l.6-2a10.41,10.41,0,0,0,.46-3,24.9,24.9,0,0,0-.73-5.37,15.82,15.82,0,0,1-.24,10.26,3.91,3.91,0,0,1-2,2.15h0a2,2,0,0,1-2.23-.37l-.34-.31a3.43,3.43,0,0,1-1.07-2.31h0a2.71,2.71,0,0,1,.17-1.09l.26-.71a8.88,8.88,0,0,0,.45-4.42l-.47-3.13a.16.16,0,0,0-.32,0,16.07,16.07,0,0,1-.4,3,6.74,6.74,0,0,1-1.32,2.68l-.2.25a2.71,2.71,0,0,1-1.45,1,2.11,2.11,0,0,1-1.41-.13,2.3,2.3,0,0,1-1.15-2.88l.51-1.45a9.72,9.72,0,0,0,.41-5.1l-.15-.81a5.37,5.37,0,0,1,.14-2.55h0a7.57,7.57,0,0,1,2-3.24l1.53-1.48"/><path class="cls-13" d="M30.17,10.57s-23.63,0-6.64,7.55"/><path class="cls-13" d="M30.17,35.08s-23.63,0-6.64,7.55"/><path class="cls-13" d="M30.17,59.6s-23.63,0-6.64,7.55"/><path class="cls-13" d="M30.17,84.11s-23.63,0-6.64,7.55"/><path class="cls-13" d="M30.17,108.63s-23.63,0-6.64,7.55"/><ellipse class="cls-14" cx="90.09" cy="57.42" rx="12.78" ry="18.92"/><ellipse class="cls-14" cx="55.97" cy="56.43" rx="12.78" ry="18.92"/><ellipse class="cls-15" cx="62.17" cy="56.43" rx="6.57" ry="9.73"/><ellipse class="cls-15" cx="96.06" cy="56.43" rx="6.57" ry="9.73"/><path class="cls-16" d="M99.18,32.14s-6.79-7.08-13.35,0"/><path class="cls-16" d="M62.21,32.14s-6.78-7.08-13.35,0"/><circle class="cls-11" cx="98.45" cy="52.73" r="1.97"/><circle class="cls-11" cx="64.19" cy="52.73" r="1.97"/><path class="cls-17" d="M80.14,89.6a4,4,0,0,1,.42,7.65,32.42,32.42,0,0,1-34.3-8.13A4,4,0,0,1,52,83.6a24.41,24.41,0,0,0,25.84,6.12A4.07,4.07,0,0,1,80.14,89.6Z"/><path class="cls-18" d="M49.46,85.06a1.35,1.35,0,0,1,.66.38,27.08,27.08,0,0,0,28.65,6.79,1.34,1.34,0,0,1,.9,2.52,29.77,29.77,0,0,1-31.49-7.46,1.34,1.34,0,0,1,1.28-2.23Z"/><path class="cls-9" d="M8.88,96l-.25-.62c-4.36-2.21-7.22-5.31-8-9.66a13.25,13.25,0,0,1,3.8-11.67c6.94-6.92,13.93-10.62,21-10.1V75.18c-5.63-.26-9.79,2.37-13.55,5.78a3.38,3.38,0,0,0-1.13,2.24C10.58,85.63,13.1,87.46,17,89Z"/><ellipse class="cls-19" cx="12.07" cy="105.39" rx="2.07" ry="3.54" transform="translate(-67.63 35.38) rotate(-42.17)"/><path class="cls-20" d="M19.77,87.37h0a2.49,2.49,0,0,0-3-1.53l-.08,0a14,14,0,0,0-9.87,9.45.83.83,0,0,0,0,.15,3,3,0,0,0,1.44,3.4h0a2,2,0,0,0,2-.09L15.94,95a10.32,10.32,0,0,0,3.7-4.31h0A4.4,4.4,0,0,0,19.77,87.37Z"/><path class="cls-21" d="M17,91h0A10.06,10.06,0,0,1,28.32,95.8a15,15,0,0,1,1.37,3.36,20.63,20.63,0,0,1,.44,2.44,10.64,10.64,0,0,1-2.52,8.12h0a1,1,0,0,1-1.8-.45l-.83-4"/><ellipse class="cls-11" cx="19.91" cy="100.63" rx="6.98" ry="8.97" transform="translate(-33.69 13.17) rotate(-20.31)"/><path class="cls-21" d="M26.33,104.27a9.75,9.75,0,0,1,.41,4.21,6.18,6.18,0,0,1-4.87,5.23,3.13,3.13,0,0,1-3.29-1.5h0"/><path class="cls-21" d="M21,106.24A12.64,12.64,0,0,1,20,112.08a4.27,4.27,0,0,1-1.78,2.2,6,6,0,0,1-5.57.43l-.5-.23a8.59,8.59,0,0,1-3.24-2.83l-2.15-3a2.67,2.67,0,0,1,.21-3.39.23.23,0,0,0,.07-.07,1.79,1.79,0,0,1,2.33-.08l3.27,2.61a.22.22,0,0,0,.33-.27L11.58,105a8.42,8.42,0,0,1,.17-8.55c.39-.62.8-1.25,1.19-1.88"/></g></g></svg>