<svg xmlns="http://www.w3.org/2000/svg" viewBox="0 0 291.55 273.16"><defs><style>.cls-1,.cls-6{fill:#441216;}.cls-1,.cls-10,.cls-11,.cls-12,.cls-13,.cls-14,.cls-15,.cls-16,.cls-17,.cls-18,.cls-19,.cls-2,.cls-21,.cls-22,.cls-3,.cls-7,.cls-8,.cls-9{stroke:#000;stroke-miterlimit:10;}.cls-1,.cls-11,.cls-8{stroke-width:2.12px;}.cls-13,.cls-18,.cls-2,.cls-20,.cls-7,.cls-9{fill:#fff;}.cls-2,.cls-3{stroke-width:1.3px;}.cls-10,.cls-12,.cls-15,.cls-21,.cls-22,.cls-3{fill:none;}.cls-12,.cls-15,.cls-22,.cls-3{stroke-linecap:round;}.cls-4{fill:#e5e5e5;}.cls-5{fill:#004f27;}.cls-15,.cls-7{stroke-width:2.45px;}.cls-8{fill:#82000a;}.cls-10,.cls-9{stroke-width:1.11px;}.cls-11{fill:#c1272d;}.cls-12{stroke-width:3.68px;}.cls-13,.cls-21,.cls-22{stroke-width:1.23px;}.cls-14{stroke-width:0.71px;}.cls-16,.cls-17,.cls-18{stroke-width:0.66px;}.cls-17{fill:#ea5e58;}.cls-19{fill:#d85067;stroke-width:0.92px;}</style></defs><title>la</title><g id="Layer_2" data-name="Layer 2"><g id="personaje"><path class="cls-1" d="M95.14,98.92l-1,13.93c-1-.07-10.28-.88-22.87-7.12A93.9,93.9,0,0,1,50.39,91.51,114.35,114.35,0,0,1,31.68,69.75l11.64-8.13C52.67,75.78,64,86.3,77,92.93,87,98,94.48,98.86,95.14,98.92Z"/><path class="cls-2" d="M45.76,60.81c1.4,3.87-2.41,8.79-8.5,11s-12.15.81-13.54-3.07,2.41-8.79,8.5-11S44.37,56.93,45.76,60.81Z"/><path class="cls-2" d="M33,65.58S40.15,69.05,43.3,59c0,0,9-3.39,10.32-10.71,1.24-7-2-9.56-4.47-8.56C47,40.65,45.44,47,40.6,48.35c0,0-6-6.15-4.05-13.49s1.8-13.45-3.94-13.77-8.38,13.63-5.22,21a10.75,10.75,0,0,0-4.1,1.49s-3.95-5.44-4-11.86a5.13,5.13,0,1,0-10.24-.5c-.79,7.14,1.39,13.12,6.75,16.76l-1.26,2a13.3,13.3,0,0,1-8-4c-3.6-3.73-8.86,3.13-4,9S16.74,59,16.74,59,22.12,74.69,33,65.58Z"/><path class="cls-3" d="M28.13,54.39S26.49,63.78,33,65.58"/><path class="cls-4" d="M204.45,267A48.56,48.56,0,0,1,199,266c-.51-.12-9.11-2.09-12.18-2.27h-.08c-3.57-.19-10.4.73-14.48,1.28l-.54.07a14.45,14.45,0,0,1-2.7.1,13.38,13.38,0,0,1-11.27-7.48c-1.33,3.94.13,6.93,2.16,8.52,5.6,4.4,10.54,3.82,16.78,3.09a63.65,63.65,0,0,1,8.82-.59,76.63,76.63,0,0,1,13.66,1.62c6.36,1.18,11,2,17.28-1,3.85-1.85,4.73-5.82,4.88-8.29C217.63,265.1,211.32,267.37,204.45,267Z"/><path class="cls-5" d="M206.08,240.41a22.53,22.53,0,0,0-9.41,1.37l-.06,0s-4.17,1.36-7,7.1a.86.86,0,0,1-1.16.39.88.88,0,0,1-.39-1.17,18,18,0,0,1,4.38-5.74,18.23,18.23,0,0,0-5.87-7.13A24.59,24.59,0,0,1,180,236.5h-.11a.87.87,0,0,1,0-1.74,22.5,22.5,0,0,0,6.44-1.26l.09,0c3-1.12,4.87-2.83,5-4.76.23-3.77-6.31-7.36-14.28-7.85s-14.91,2.28-15.14,6c-.13,2.06,1.8,4.14,5,5.65l.11.05A21.78,21.78,0,0,0,171,234a.88.88,0,0,1,.63,1.05.87.87,0,0,1-1.06.63,23.62,23.62,0,0,1-3.81-1.29,18.13,18.13,0,0,0-8.17,20.83l0,.12a11.7,11.7,0,0,0,12.84,8.07l.54-.07c4.4-.59,11.07-1.49,14.8-1.29,3.21.16,12.2,2.24,12.58,2.32l0,0a49.37,49.37,0,0,0,5.15.88c7.18.44,13.91-2.4,16.74-7.08a9.23,9.23,0,0,0,1.35-4.26C223.07,247,215.64,241,206.08,240.41Z"/><path d="M206.18,238.68a24.23,24.23,0,0,0-10.11,1.47,9.79,9.79,0,0,0-2.26,1.16,19.91,19.91,0,0,0-5.42-6.83c2.84-1.39,4.6-3.38,4.74-5.66.3-4.87-6.69-9.13-15.91-9.69s-16.67,2.8-17,7.67c-.15,2.48,1.59,4.84,4.68,6.63a19.86,19.86,0,0,0-8.12,21.9c-2.83,5.67-.73,10.13,2,12.26a17.34,17.34,0,0,0,10.09,3.92,46.4,46.4,0,0,0,8-.47,60.8,60.8,0,0,1,8.59-.59A76,76,0,0,1,198.8,272c6.43,1.2,11.51,2.15,18.35-1.14a10.57,10.57,0,0,0,5.66-8,14.15,14.15,0,0,0,.14-4.16,10.84,10.84,0,0,0,1.43-4.75C224.86,246.19,216.7,239.32,206.18,238.68Zm10.22,30.66c-6.32,3-10.92,2.18-17.28,1a76.63,76.63,0,0,0-13.66-1.62,63.65,63.65,0,0,0-8.82.59c-6.24.73-11.18,1.31-16.78-3.09-2-1.59-3.49-4.58-2.16-8.52A13.38,13.38,0,0,0,169,265.18a14.45,14.45,0,0,0,2.7-.1l.54-.07c4.08-.55,10.91-1.47,14.48-1.28h.08c3.07.18,11.67,2.15,12.18,2.27a48.56,48.56,0,0,0,5.5.94c6.87.42,13.18-1.85,16.83-5.9C221.13,263.52,220.25,267.49,216.4,269.34Zm4.9-11.2c-2.83,4.68-9.56,7.52-16.74,7.08a49.37,49.37,0,0,1-5.15-.88l0,0c-.38-.08-9.37-2.16-12.58-2.32-3.73-.2-10.4.7-14.8,1.29l-.54.07a11.7,11.7,0,0,1-12.84-8.07l0-.12a18.13,18.13,0,0,1,8.17-20.83,23.62,23.62,0,0,0,3.81,1.29.87.87,0,0,0,1.06-.63A.88.88,0,0,0,171,234a21.78,21.78,0,0,1-3.86-1.34l-.11-.05c-3.23-1.51-5.16-3.59-5-5.65.23-3.77,7.16-6.54,15.14-6s14.51,4.08,14.28,7.85c-.12,1.93-2,3.64-5,4.76l-.09,0a22.5,22.5,0,0,1-6.44,1.26.87.87,0,0,0,0,1.74H180a24.59,24.59,0,0,0,6.55-1.25,18.23,18.23,0,0,1,5.87,7.13,18,18,0,0,0-4.38,5.74.88.88,0,0,0,.39,1.17.86.86,0,0,0,1.16-.39c2.87-5.74,7-7.09,7-7.1l.06,0a22.53,22.53,0,0,1,9.41-1.37c9.56.59,17,6.63,16.57,13.47A9.23,9.23,0,0,1,221.3,258.14Z"/><path class="cls-6" d="M176.21,229.72a7.41,7.41,0,0,1-1.24-.1,7.71,7.71,0,0,1-6.38-8.85c5.47-33.64-10.5-70.67-10.66-71a7.73,7.73,0,0,1,3.94-10.17,7.62,7.62,0,0,1,3.11-.66,7.72,7.72,0,0,1,7.06,4.6c.74,1.67,18,41.37,11.78,79.75A7.68,7.68,0,0,1,176.21,229.72Z"/><path d="M165,140.13a6.49,6.49,0,0,1,5.94,3.86c.73,1.66,17.87,41,11.69,79.06a6.5,6.5,0,0,1-6.4,5.45,6.18,6.18,0,0,1-1-.09,6.48,6.48,0,0,1-5.36-7.44c5.53-34.06-10.5-71.14-10.75-71.73a6.48,6.48,0,0,1,5.92-9.11m0-2.46a8.95,8.95,0,0,0-8.17,12.56c.16.36,16,37.05,10.57,70.35A8.94,8.94,0,0,0,185,223.44c6.29-38.73-11.12-78.75-11.87-80.44a9,9,0,0,0-8.18-5.33Z"/><path class="cls-7" d="M175.35,210.69h3a7.12,7.12,0,0,1,7.12,7.12v11.35a1.17,1.17,0,0,1-1.17,1.17H169.39a1.17,1.17,0,0,1-1.17-1.17V217.81a7.12,7.12,0,0,1,7.12-7.12Z" transform="translate(339.83 451.42) rotate(-176.49)"/><path class="cls-4" d="M97.75,267a48.56,48.56,0,0,0,5.5-.94c.51-.12,9.11-2.09,12.18-2.27h.08c3.57-.19,10.4.73,14.48,1.28l.54.07a14.45,14.45,0,0,0,2.7.1,13.38,13.38,0,0,0,11.27-7.48c1.33,3.94-.13,6.93-2.16,8.52-5.6,4.4-10.54,3.82-16.78,3.09a63.65,63.65,0,0,0-8.82-.59,76.63,76.63,0,0,0-13.66,1.62c-6.36,1.18-11,2-17.28-1-3.85-1.85-4.73-5.82-4.88-8.29C84.57,265.1,90.88,267.37,97.75,267Z"/><path class="cls-5" d="M96.12,240.41a22.53,22.53,0,0,1,9.41,1.37l.06,0s4.17,1.36,7,7.1a.86.86,0,0,0,1.16.39.88.88,0,0,0,.39-1.17,18,18,0,0,0-4.38-5.74,18.23,18.23,0,0,1,5.87-7.13,24.59,24.59,0,0,0,6.55,1.25h.11a.87.87,0,0,0,0-1.74,22.5,22.5,0,0,1-6.44-1.26l-.09,0c-3-1.12-4.87-2.83-5-4.76-.23-3.77,6.31-7.36,14.28-7.85s14.91,2.28,15.14,6c.13,2.06-1.8,4.14-5,5.65l-.11.05a21.78,21.78,0,0,1-3.86,1.34.88.88,0,0,0-.63,1.05.87.87,0,0,0,1.06.63,23.62,23.62,0,0,0,3.81-1.29,18.13,18.13,0,0,1,8.17,20.83l0,.12a11.7,11.7,0,0,1-12.84,8.07l-.54-.07c-4.4-.59-11.07-1.49-14.8-1.29-3.21.16-12.2,2.24-12.58,2.32l0,0a49.81,49.81,0,0,1-5.15.88c-7.18.44-13.91-2.4-16.74-7.08a9.23,9.23,0,0,1-1.35-4.26C79.13,247,86.56,241,96.12,240.41Z"/><path d="M77.82,254a10.84,10.84,0,0,0,1.43,4.75,14.15,14.15,0,0,0,.14,4.16,10.57,10.57,0,0,0,5.66,8c6.83,3.29,11.92,2.34,18.35,1.14a76,76,0,0,1,13.37-1.59,60.8,60.8,0,0,1,8.59.59,46.4,46.4,0,0,0,8,.47,17.34,17.34,0,0,0,10.09-3.92c2.71-2.13,4.81-6.59,2-12.26a19.86,19.86,0,0,0-8.12-21.9c3.09-1.79,4.83-4.15,4.68-6.63-.3-4.87-7.76-8.24-17-7.67s-16.21,4.82-15.91,9.69c.14,2.28,1.9,4.27,4.74,5.66a19.91,19.91,0,0,0-5.42,6.83,9.79,9.79,0,0,0-2.26-1.16A24.23,24.23,0,0,0,96,238.68C85.5,239.32,77.34,246.19,77.82,254Zm3.1,7.07c3.65,4.05,10,6.32,16.83,5.9a48.56,48.56,0,0,0,5.5-.94c.51-.12,9.11-2.09,12.18-2.27h.08c3.57-.19,10.4.73,14.48,1.28l.54.07a14.45,14.45,0,0,0,2.7.1,13.38,13.38,0,0,0,11.27-7.48c1.33,3.94-.13,6.93-2.16,8.52-5.6,4.4-10.54,3.82-16.78,3.09a63.65,63.65,0,0,0-8.82-.59,76.63,76.63,0,0,0-13.66,1.62c-6.36,1.18-11,2-17.28-1C82,267.49,81.07,263.52,80.92,261.05Zm-1.37-7.17c-.42-6.84,7-12.88,16.57-13.47a22.53,22.53,0,0,1,9.41,1.37l.06,0s4.17,1.36,7,7.1a.86.86,0,0,0,1.16.39.88.88,0,0,0,.39-1.17,18,18,0,0,0-4.38-5.74,18.23,18.23,0,0,1,5.87-7.13,24.59,24.59,0,0,0,6.55,1.25h.11a.87.87,0,0,0,0-1.74,22.5,22.5,0,0,1-6.44-1.26l-.09,0c-3-1.12-4.87-2.83-5-4.76-.23-3.77,6.31-7.36,14.28-7.85s14.91,2.28,15.14,6c.13,2.06-1.8,4.14-5,5.65l-.11.05a21.78,21.78,0,0,1-3.86,1.34.88.88,0,0,0-.63,1.05.87.87,0,0,0,1.06.63,23.62,23.62,0,0,0,3.81-1.29,18.13,18.13,0,0,1,8.17,20.83l0,.12a11.7,11.7,0,0,1-12.84,8.07l-.54-.07c-4.4-.59-11.07-1.49-14.8-1.29-3.21.16-12.2,2.24-12.58,2.32l0,0a49.81,49.81,0,0,1-5.15.88c-7.18.44-13.91-2.4-16.74-7.08A9.23,9.23,0,0,1,79.55,253.88Z"/><path class="cls-6" d="M126,229.72a7.68,7.68,0,0,1-7.61-6.47c-6.23-38.38,11-78.08,11.78-79.75a7.72,7.72,0,0,1,7.06-4.6,7.72,7.72,0,0,1,7.05,10.83c-.16.37-16.13,37.4-10.67,71a7.7,7.7,0,0,1-6.37,8.85A7.41,7.41,0,0,1,126,229.72Z"/><path d="M137.22,140.13a6.48,6.48,0,0,1,5.92,9.11c-.25.59-16.28,37.67-10.75,71.73a6.48,6.48,0,0,1-5.36,7.44,6.18,6.18,0,0,1-1,.09,6.5,6.5,0,0,1-6.4-5.45c-6.18-38,11-77.4,11.69-79.06a6.49,6.49,0,0,1,5.94-3.86m0-2.46h0A9,9,0,0,0,129,143c-.75,1.69-18.16,41.71-11.87,80.44a8.94,8.94,0,0,0,17.65-2.86c-5.42-33.3,10.41-70,10.57-70.36a8.95,8.95,0,0,0-8.17-12.55Z"/><path class="cls-7" d="M117.93,210.69h14.88a1.17,1.17,0,0,1,1.17,1.17V223.2a7.12,7.12,0,0,1-7.12,7.12h-3a7.12,7.12,0,0,1-7.12-7.12V211.85A1.17,1.17,0,0,1,117.93,210.69Z" transform="translate(-13.27 8.09) rotate(-3.51)"/><rect class="cls-8" x="102.65" y="1.06" width="129.34" height="175.64"/><rect class="cls-9" x="193.47" y="0.83" width="35.43" height="175.64"/><line class="cls-10" x1="199.59" y1="1.09" x2="199.59" y2="176.71"/><line class="cls-10" x1="205.72" y1="0.83" x2="205.72" y2="176.93"/><line class="cls-10" x1="211.84" y1="0.83" x2="211.84" y2="176.93"/><line class="cls-10" x1="217.97" y1="1.14" x2="217.97" y2="176.74"/><line class="cls-10" x1="224.1" y1="1.14" x2="224.1" y2="176.74"/><rect class="cls-11" x="85.21" y="1.28" width="129.34" height="175.64"/><path class="cls-12" d="M93.11,14.62s-33.33,0-9.36,10.65"/><path class="cls-12" d="M93.11,49.2s-33.33,0-9.36,10.65"/><path class="cls-12" d="M93.11,83.77s-33.33,0-9.36,10.65"/><path class="cls-12" d="M93.11,118.35s-33.33,0-9.36,10.65"/><path class="cls-12" d="M93.11,152.92s-33.33,0-9.36,10.65"/><ellipse class="cls-13" cx="123.55" cy="84.19" rx="14.9" ry="22.06"/><ellipse class="cls-13" cx="163.33" cy="83.03" rx="14.9" ry="22.06"/><ellipse class="cls-14" cx="156.09" cy="83.03" rx="7.66" ry="11.35"/><ellipse class="cls-14" cx="116.59" cy="83.03" rx="7.66" ry="11.35"/><path class="cls-15" d="M113,54.72s7.91-8.26,15.57,0"/><path class="cls-15" d="M156.05,54.72s7.91-8.26,15.56,0"/><path class="cls-16" d="M173.11,119.11a14.79,14.79,0,0,1-.36,3.51,18.59,18.59,0,0,0-23.42,16.7c-9.67.44-18.16-4.08-21-11.29-.49-1.25.55-2.66,2.23-3l39.32-7.84C171.57,116.86,173.08,117.77,173.11,119.11Z"/><path class="cls-17" d="M172.75,122.62c-1.67,7.54-9.09,14.19-19,16.16a28.34,28.34,0,0,1-4.43.54,18.59,18.59,0,0,1,23.42-16.7Z"/><path class="cls-18" d="M150.29,121.36c.62,3.12-.91,6.06-3.42,6.56s-5.05-1.63-5.67-4.75a6.69,6.69,0,0,1-.14-1.39,47,47,0,0,0,9.11-.89C150.22,121.05,150.25,121.2,150.29,121.36Z"/><path class="cls-18" d="M159.38,119.55c.62,3.12-.91,6-3.42,6.55s-5.05-1.62-5.67-4.74a4,4,0,0,1-.08-.48h0a46.12,46.12,0,0,0,8.75-2.66A6.86,6.86,0,0,1,159.38,119.55Z"/><path class="cls-19" d="M176.05,113.15a8.82,8.82,0,0,0-7.29-1.69l-39.33,7.84a8.84,8.84,0,0,0-6.08,4.35,7.68,7.68,0,0,0-.44,6.51,23,23,0,0,0,12.78,12.58,31.9,31.9,0,0,0,14.19,2.4,34.72,34.72,0,0,0,5-.62,32.94,32.94,0,0,0,17.06-9,24.61,24.61,0,0,0,6.18-10.42,20.75,20.75,0,0,0,.8-6.1A7.71,7.71,0,0,0,176.05,113.15Zm-2.94,6a14.79,14.79,0,0,1-.36,3.51c-1.67,7.54-9.09,14.19-19,16.16a28.34,28.34,0,0,1-4.43.54c-9.67.44-18.16-4.08-21-11.29-.49-1.25.55-2.66,2.23-3l39.32-7.84C171.57,116.86,173.08,117.77,173.11,119.11Z"/><circle class="cls-20" cx="115.47" cy="78.59" r="2.24"/><circle class="cls-20" cx="154.44" cy="78.59" r="2.24"/><path class="cls-1" d="M275.06,165.31q-7,2.44-14.1,4.53c-7.62-21.65-16-35-22.12-42.72-7.47-9.41-13.16-12.53-13.73-12.83l.06,0-.37-15.17c.84.38,14.9,5.69,24.55,17.43a130.42,130.42,0,0,1,15.27,23.92A204.78,204.78,0,0,1,275.06,165.31Z"/><path class="cls-20" d="M259.81,168.86s-3.62,5.88-4.06,12c-.49,6.9,3,7.53,5.72,6.82s4.21-10.77,4.21-10.77A16.92,16.92,0,0,1,269,189.73c-1,8,.08,12.14,4.05,10.91s5-7,5-7,0,5.32,3.17,5,5-4.25,5.31-6.5c0,0,4.09,0,4.39-3.88s-2.28-9-6.27-12.74c0,0-1.26-10.17-7-11.71,0,0,.5-8.37-14.13-2.46C252.93,165.68,259.81,168.86,259.81,168.86Z"/><path class="cls-21" d="M259.81,168.86s-3.62,5.88-4.06,12c-.49,6.9,3,7.53,5.72,6.82s4.21-10.77,4.21-10.77A16.92,16.92,0,0,1,269,189.73c-1,8,.08,12.14,4.05,10.91s5-7,5-7,0,5.32,3.17,5,5-4.25,5.31-6.5c0,0,4.09,0,4.39-3.88s-2.28-9-6.27-12.74c0,0-1.26-10.17-7-11.71,0,0,.5-8.37-14.13-2.46C252.93,165.68,259.81,168.86,259.81,168.86Z"/><path class="cls-22" d="M274.91,179.88s5.09,8.1,2.93,14.61"/><path class="cls-22" d="M282.14,177.47s6.28,7.59,4.38,14.73"/><path class="cls-22" d="M268.94,164.31a17.37,17.37,0,0,1,8.72-.44"/></g></g></svg>