<svg xmlns="http://www.w3.org/2000/svg" viewBox="0 0 216.23 266.45"><defs><style>.cls-1,.cls-16{fill:#c08d54;}.cls-1,.cls-10,.cls-11,.cls-12,.cls-13,.cls-19,.cls-20,.cls-21,.cls-22,.cls-23,.cls-24,.cls-25,.cls-26,.cls-27,.cls-28,.cls-29,.cls-30,.cls-5,.cls-6,.cls-7,.cls-8,.cls-9{stroke:#000;}.cls-1,.cls-10,.cls-11,.cls-12,.cls-13,.cls-20,.cls-21,.cls-22,.cls-23,.cls-24,.cls-25,.cls-26,.cls-27,.cls-28,.cls-29,.cls-30,.cls-5,.cls-6,.cls-7,.cls-8,.cls-9{stroke-miterlimit:10;}.cls-1{stroke-width:1.24px;}.cls-11,.cls-19,.cls-2,.cls-26,.cls-6,.cls-8{fill:#fff;}.cls-3{fill:#259959;}.cls-4{fill:#004f27;}.cls-5,.cls-7{fill:#441216;}.cls-5{stroke-width:1.02px;}.cls-6{stroke-width:1.26px;}.cls-7{stroke-width:0.98px;}.cls-8,.cls-9{stroke-width:0.72px;}.cls-12,.cls-18,.cls-28,.cls-9{fill:none;}.cls-18,.cls-19,.cls-28,.cls-9{stroke-linecap:round;}.cls-10{fill:#82000a;}.cls-10,.cls-13{stroke-width:1.42px;}.cls-11,.cls-12{stroke-width:0.74px;}.cls-13{fill:#c1272d;}.cls-14{fill:#747e7f;}.cls-15{fill:#9ba7a7;}.cls-17{fill:#996e43;}.cls-18{stroke:#4d4d4d;stroke-width:0.38px;stroke-dasharray:1.28;}.cls-18,.cls-19{stroke-linejoin:round;}.cls-19{stroke-width:0.42px;}.cls-20{fill:#ffd396;stroke-width:0.18px;}.cls-21{stroke-width:0.17px;}.cls-22{fill:#fbca2c;}.cls-22,.cls-23,.cls-24,.cls-25{stroke-width:0.18px;}.cls-23{fill:#f4b21c;}.cls-24{fill:#cac3b9;}.cls-25{fill:#fc5465;}.cls-26{stroke-width:0.91px;}.cls-27{stroke-width:0.15px;}.cls-28{stroke-width:2.4px;}.cls-29{fill:#d85067;stroke-width:0.76px;}.cls-30{stroke-width:0.09px;}</style></defs><title>la2</title><g id="Layer_2" data-name="Layer 2"><g id="personaje"><rect class="cls-1" x="42.29" y="69.33" width="124.22" height="40.34" rx="3.47"/><path class="cls-2" d="M100.2,237.3c-2.35,2.77-7.08,4.36-13,4.36-6.34,0-11.48-1.7-13.74-4.54a6.07,6.07,0,0,1-.82-1.37,3.35,3.35,0,0,0-.47,1.66c0,3.73,6.88,6.87,15,6.87s15-3.14,15-6.87a3.65,3.65,0,0,0-.84-2.21A6.7,6.7,0,0,1,100.2,237.3Z"/><path class="cls-3" d="M87.22,240.18c5.39,0,9.82-1.43,11.86-3.84a4.79,4.79,0,0,0,1.13-4c-.77-4.59-5.58-9.48-13-9.48-7.15,0-11.9,3.5-13.38,9.85a3.92,3.92,0,0,0,.8,3.49C76.59,238.66,81.41,240.18,87.22,240.18Z"/><path class="cls-4" d="M97.47,225a19.36,19.36,0,0,0-3.81-9,14.06,14.06,0,0,1-2.29.65.67.67,0,0,1-.26-1.32,12.83,12.83,0,0,0,2.31-.68h0a.69.69,0,0,1,.43-.18c1.63-.75,2.63-1.78,2.63-2.82,0-1.93-3.5-4-8.72-4s-8.73,2.07-8.73,4c0,1,.81,1.87,2.13,2.57a.77.77,0,0,1,.42.19l0,0A14.59,14.59,0,0,0,87,215.7.67.67,0,0,1,87,217h0a15.77,15.77,0,0,1-5.64-1.2,18.73,18.73,0,0,0-3.85,8.44,16,16,0,0,1,9.74-2.89A15.51,15.51,0,0,1,97.47,225Z"/><path d="M101.75,233.44a6.08,6.08,0,0,0-.09-1.34,11.57,11.57,0,0,0-2.5-5.33A22,22,0,0,0,95,215.46c1.78-1,2.82-2.3,2.82-3.75,0-3-4.42-5.34-10.07-5.34s-10.07,2.35-10.07,5.34A4.27,4.27,0,0,0,80,215.15a21.06,21.06,0,0,0-4.27,10.69,14.16,14.16,0,0,0-3.35,6.54,5.65,5.65,0,0,0-.15,1.52,5.18,5.18,0,0,0-1.5,3.51c0,4.66,7.23,8.31,16.47,8.31s16.48-3.65,16.48-8.31A5.48,5.48,0,0,0,101.75,233.44Zm-20.42-17.6A15.77,15.77,0,0,0,87,217h0a.67.67,0,0,0,0-1.34,14.59,14.59,0,0,1-5.39-1.19l0,0a.77.77,0,0,0-.42-.19c-1.32-.7-2.13-1.61-2.13-2.57,0-1.93,3.51-4,8.73-4s8.72,2.07,8.72,4c0,1-1,2.07-2.63,2.82a.69.69,0,0,0-.43.18h0a12.83,12.83,0,0,1-2.31.68.67.67,0,0,0,.26,1.32,14.06,14.06,0,0,0,2.29-.65,19.36,19.36,0,0,1,3.81,9,15.51,15.51,0,0,0-10.25-3.63,16,16,0,0,0-9.74,2.89A18.73,18.73,0,0,1,81.33,215.84Zm-7.49,16.87c1.48-6.35,6.23-9.85,13.38-9.85,7.41,0,12.22,4.89,13,9.48a4.79,4.79,0,0,1-1.13,4c-2,2.41-6.47,3.84-11.86,3.84-5.81,0-10.63-1.52-12.58-4A3.92,3.92,0,0,1,73.84,232.71Zm13.38,11.57c-8.15,0-15-3.14-15-6.87a3.35,3.35,0,0,1,.47-1.66,6.07,6.07,0,0,0,.82,1.37c2.26,2.84,7.4,4.54,13.74,4.54,5.9,0,10.63-1.59,13-4.36a6.7,6.7,0,0,0,1.22-2.1,3.65,3.65,0,0,1,.84,2.21C102.26,241.14,95.37,244.28,87.22,244.28Z"/><path class="cls-5" d="M87.7,212.26a3.49,3.49,0,0,1-3.44-2.93c-3.32-20.44,5.89-41.6,6.29-42.49a3.48,3.48,0,1,1,6.37,2.82c-.14.31-8.75,20.25-5.78,38.55a3.48,3.48,0,0,1-2.88,4A3.53,3.53,0,0,1,87.7,212.26Z"/><path class="cls-6" d="M83.42,202.68h7.9a.67.67,0,0,1,.67.67v5.77a4.11,4.11,0,0,1-4.11,4.11h-1a4.11,4.11,0,0,1-4.11-4.11v-5.77A.67.67,0,0,1,83.42,202.68Z" transform="translate(-12.57 5.74) rotate(-3.51)"/><path class="cls-2" d="M136.85,237.25c-2.36,2.79-7.12,4.39-13,4.39-6.38,0-11.55-1.71-13.82-4.57a5.85,5.85,0,0,1-.82-1.37,3.38,3.38,0,0,0-.47,1.67c0,3.74,6.92,6.9,15.11,6.9s15.11-3.16,15.11-6.9a3.69,3.69,0,0,0-.85-2.22A6.59,6.59,0,0,1,136.85,237.25Z"/><path class="cls-3" d="M123.81,240.16c5.41,0,9.86-1.45,11.91-3.87a4.78,4.78,0,0,0,1.14-4c-.77-4.62-5.61-9.53-13.05-9.53-7.19,0-12,3.51-13.46,9.9a4,4,0,0,0,.81,3.5C113.12,238.62,118,240.16,123.81,240.16Z"/><path class="cls-4" d="M134.1,224.92a19.47,19.47,0,0,0-3.82-9,13.36,13.36,0,0,1-2.31.65.66.66,0,0,1-.79-.53.67.67,0,0,1,.53-.79,13.06,13.06,0,0,0,2.33-.68v0a.74.74,0,0,1,.44-.18c1.63-.75,2.64-1.78,2.64-2.83,0-1.94-3.52-4-8.77-4s-8.76,2.08-8.76,4c0,1,.81,1.88,2.13,2.59a.72.72,0,0,1,.43.18l0,.05a14.66,14.66,0,0,0,5.41,1.19.68.68,0,0,1,.65.7.69.69,0,0,1-.68.65h0a15.88,15.88,0,0,1-5.66-1.21,18.92,18.92,0,0,0-3.88,8.48,16.14,16.14,0,0,1,9.8-2.9A15.54,15.54,0,0,1,134.1,224.92Z"/><path d="M138.41,233.37a6.81,6.81,0,0,0-.09-1.34,11.79,11.79,0,0,0-2.51-5.36,22.31,22.31,0,0,0-4.16-11.37c1.79-1,2.84-2.3,2.84-3.76,0-3-4.45-5.37-10.13-5.37s-10.12,2.36-10.12,5.37a4.31,4.31,0,0,0,2.33,3.46,21.1,21.1,0,0,0-4.3,10.74,14.28,14.28,0,0,0-3.36,6.57,5.76,5.76,0,0,0-.15,1.53,5.19,5.19,0,0,0-1.51,3.53c0,4.69,7.27,8.35,16.56,8.35s16.55-3.66,16.55-8.35A5.54,5.54,0,0,0,138.41,233.37Zm-20.52-17.68a15.88,15.88,0,0,0,5.66,1.21h0a.69.69,0,0,0,.68-.65.68.68,0,0,0-.65-.7,14.66,14.66,0,0,1-5.41-1.19l0-.05a.72.72,0,0,0-.43-.18c-1.32-.71-2.13-1.62-2.13-2.59,0-1.94,3.52-4,8.76-4s8.77,2.08,8.77,4c0,1.05-1,2.08-2.64,2.83a.74.74,0,0,0-.44.18v0a13.06,13.06,0,0,1-2.33.68.67.67,0,0,0-.53.79.66.66,0,0,0,.79.53,13.36,13.36,0,0,0,2.31-.65,19.47,19.47,0,0,1,3.82,9,15.54,15.54,0,0,0-10.29-3.65,16.14,16.14,0,0,0-9.8,2.9A18.92,18.92,0,0,1,117.89,215.69Zm-7.54,17c1.49-6.39,6.27-9.9,13.46-9.9,7.44,0,12.28,4.91,13.05,9.53a4.78,4.78,0,0,1-1.14,4c-2.05,2.42-6.5,3.87-11.91,3.87-5.85,0-10.69-1.54-12.65-4A4,4,0,0,1,110.35,232.65Zm13.46,11.62c-8.19,0-15.11-3.16-15.11-6.9a3.38,3.38,0,0,1,.47-1.67,5.85,5.85,0,0,0,.82,1.37c2.27,2.86,7.44,4.57,13.82,4.57,5.92,0,10.68-1.6,13-4.39a6.59,6.59,0,0,0,1.22-2.1,3.69,3.69,0,0,1,.85,2.22C138.92,241.11,132,244.27,123.81,244.27Z"/><path class="cls-5" d="M123.53,212.26a3.49,3.49,0,0,0,3.44-2.93c3.32-20.44-5.89-41.6-6.29-42.49a3.48,3.48,0,1,0-6.37,2.82c.14.31,8.75,20.25,5.78,38.55a3.48,3.48,0,0,0,2.88,4A3.53,3.53,0,0,0,123.53,212.26Z"/><path class="cls-6" d="M123.35,202.68h1a4.11,4.11,0,0,1,4.11,4.11v5.77a.67.67,0,0,1-.67.67h-7.9a.67.67,0,0,1-.67-.67V206.8a4.11,4.11,0,0,1,4.11-4.11Z" transform="translate(234.76 423.12) rotate(-176.49)"/><path class="cls-7" d="M155.4,77.09l.68,9.24c.68,0,6.83-.58,15.19-4.73a62.07,62.07,0,0,0,13.84-9.44,75.67,75.67,0,0,0,12.43-14.45l-7.74-5.39c-6.2,9.4-13.72,16.38-22.37,20.78A37.16,37.16,0,0,1,155.4,77.09Z"/><path class="cls-8" d="M191.06,48s-3.48,2.06-1.37,6.53c2.46,5.18,11.26,5.78,11.34-.51Z"/><path class="cls-8" d="M190.49,48.1c.23-3.91-4.81-6.26-5.67-9.07-1-3.22,2.81-7.66,8.1.95,0,0,2-5,.91-9.08-1.19-4.64,2.83-6.48,4.78-4.44,1.77,1.87,1.68,8,.53,11.24a.74.74,0,0,0,.61,1l.18,0a.74.74,0,0,0,.8-.5A52.28,52.28,0,0,0,203,30c.5-3.78,7.29-2.84,6.7,2.18-.46,4-3.25,7.06-4.41,8.2a.74.74,0,0,0-.05,1h0a.75.75,0,0,0,1,.14,71.47,71.47,0,0,0,6.12-4.74c2.35-2.15,8.07,4.74-3.7,9.74,0,0-1.42,8.45-9.32,8.24C190.33,54.55,190.49,48.1,190.49,48.1Z"/><path class="cls-9" d="M194.23,42.06s5.71,1.17,3.57,6.91"/><rect class="cls-10" x="74.61" y="0.71" width="86.59" height="117.58"/><rect class="cls-11" x="135.41" y="0.56" width="23.72" height="117.58"/><line class="cls-12" x1="139.51" y1="0.73" x2="139.51" y2="118.3"/><line class="cls-12" x1="143.62" y1="0.56" x2="143.62" y2="118.45"/><line class="cls-12" x1="147.72" y1="0.56" x2="147.72" y2="118.45"/><line class="cls-12" x1="151.82" y1="0.77" x2="151.82" y2="118.32"/><line class="cls-12" x1="155.92" y1="0.77" x2="155.92" y2="118.32"/><rect class="cls-13" x="62.94" y="0.85" width="86.59" height="117.58"/><path class="cls-14" d="M175.11,208.09a6.43,6.43,0,0,0,5.88.22l4.09-29.66a25.11,25.11,0,0,0-5.71-1.8Z"/><path class="cls-14" d="M26,176.32a19.9,19.9,0,0,1-8.07-1.64c-5.56,3-8.75,7.44-8.75,12.11v71.62a8.07,8.07,0,0,0,7.59-.35V188.7c0-5.7,5.74-10.56,13.75-12.38Z"/><path class="cls-14" d="M185.14,176.32h-4.46c8,1.82,13.75,6.68,13.75,12.38v69.17A8.09,8.09,0,0,0,202,258V186.79c0-4.68-3.2-9.08-8.77-12.13A19.88,19.88,0,0,1,185.14,176.32Z"/><path class="cls-14" d="M28.17,177.81l4,30.66a6.5,6.5,0,0,0,6.55-.32l-4.13-31.69A27.68,27.68,0,0,0,28.17,177.81Z"/><path class="cls-15" d="M13.72,169.77c1.61,3.41,6.65,5.79,12.25,5.79H185.14c5.61,0,10.64-2.38,12.25-5.79l3.81-8.08H9.91Z"/><path class="cls-16" d="M191.26,113.37c-.88-1.78-3.45-3-6.39-3H26.14c-2.94,0-5.51,1.2-6.39,3L1.51,150.12a2.91,2.91,0,0,0-.27.87v.87a3.56,3.56,0,0,0,1.26,2.06,8.38,8.38,0,0,0,5.4,1.73H203.11a8.38,8.38,0,0,0,5.4-1.73,3.67,3.67,0,0,0,1.24-1.94v-1.13h0a3.51,3.51,0,0,0-.25-.73Z"/><path class="cls-17" d="M203.11,156.42H7.9a9.51,9.51,0,0,1-6.66-2.33v2.85c0,2.2,2.82,4,6.28,4H203.46c3.47,0,6.29-1.79,6.29-4v-2.82A9.6,9.6,0,0,1,203.11,156.42Z"/><path d="M192.41,113.14c-1-2.09-4.09-3.51-7.54-3.51H26.14c-3.45,0-6.5,1.42-7.54,3.51L.37,149.9a3.44,3.44,0,0,0-.32.95H0v.1a3.54,3.54,0,0,0,0,.92v5.07c0,2.62,3.36,4.75,7.49,4.75H8.66l3.91,8.3a9.83,9.83,0,0,0,4.36,4.21c-5.71,3.19-9,7.75-9,12.59v71c-.37-.14-.88,0-.88.33v5.47a2,2,0,0,0,1.15,1.69,9.63,9.63,0,0,0,9,.12,2.17,2.17,0,0,0,1.53-2L18.21,258a.37.37,0,0,0-.27-.29v-69c0-4.4,3.63-8.26,9.08-10.45l3.89,29.9a.35.35,0,0,0-.2.26l-.27,5.42a2.3,2.3,0,0,0,1.07,2,7.91,7.91,0,0,0,9.22-.2,2.15,2.15,0,0,0,1-2.49L40.06,208a.35.35,0,0,0-.19-.19l-4.1-31.42c.55,0,1.1-.05,1.66-.05h136.3a30.78,30.78,0,0,1,4.46.33L174,207.43c-.25,0-.55.07-.61.26l-1.66,5.16a2.15,2.15,0,0,0,1,2.49,7.91,7.91,0,0,0,9.22.2,2.33,2.33,0,0,0,1.08-2l-.28-5.42c0-.18-.23-.31-.46-.33l3.94-28.59c4.28,2.27,7,5.69,7,9.5v68.7c-.23,0-.43.15-.45.33l-.51,5.33a2.19,2.19,0,0,0,1.54,2,9.63,9.63,0,0,0,9-.12,2,2,0,0,0,1.15-1.69v-5.47c0-.26-.37-.41-.71-.37V186.79c0-4.85-3.28-9.41-9-12.6a9.74,9.74,0,0,0,4.33-4.2l3.92-8.3h1c4.13,0,7.49-2.13,7.49-4.75V152a3.24,3.24,0,0,0-.31-2.13ZM16.74,188.7v69.36a8.07,8.07,0,0,1-7.59.35V186.79c0-4.67,3.19-9.06,8.75-12.11A19.9,19.9,0,0,0,26,176.32h4.52C22.48,178.14,16.74,183,16.74,188.7Zm22,19.45a6.5,6.5,0,0,1-6.55.32l-4-30.66a27.68,27.68,0,0,1,6.41-1.35Zm142.28.16a6.43,6.43,0,0,1-5.88-.22l4.26-31.24a25.11,25.11,0,0,1,5.71,1.8Zm21-21.52V258a8.09,8.09,0,0,1-7.58-.17V188.7c0-5.7-5.75-10.56-13.75-12.38h4.46a19.88,19.88,0,0,0,8.1-1.66C198.81,177.71,202,182.11,202,186.79Zm-4.62-17c-1.61,3.41-6.64,5.79-12.25,5.79H26c-5.6,0-10.64-2.38-12.25-5.79l-3.81-8.08H201.2Zm12.36-12.83c0,2.2-2.82,4-6.29,4H7.52c-3.46,0-6.28-1.79-6.28-4v-2.85a9.51,9.51,0,0,0,6.66,2.33H203.11a9.6,9.6,0,0,0,6.64-2.3Zm0-6.09V152a3.67,3.67,0,0,1-1.24,1.94,8.38,8.38,0,0,1-5.4,1.73H7.9a8.38,8.38,0,0,1-5.4-1.73,3.56,3.56,0,0,1-1.26-2.06V151a2.91,2.91,0,0,1,.27-.87l18.24-36.75c.88-1.78,3.45-3,6.39-3H184.87c2.94,0,5.51,1.2,6.39,3l18.24,36.75a3.51,3.51,0,0,1,.25.73Z"/><polygon class="cls-2" points="89.47 113.67 136.48 113.67 143.42 134.79 80.71 134.79 89.47 113.67"/><polyline class="cls-18" points="99.17 127.66 99.17 119.43 106.87 119.43 106.87 127.66 114.77 127.66 122.33 119.58 130.12 127.72"/><path class="cls-7" d="M74.14,105.8C66.82,104.09,61.22,99.2,59.52,93c-.69-2.51-1.44-7.35,1.34-11.65a12.9,12.9,0,0,1,1.72-2.11V67c0-.19,0-.38,0-.56a24.26,24.26,0,0,0-10.85,9A23.56,23.56,0,0,0,48,88.58a28,28,0,0,0,1,7.34c2.77,10,11.43,17.84,22.61,20.45a5.43,5.43,0,1,0,2.48-10.57Z"/><ellipse class="cls-19" cx="68.63" cy="111.01" rx="7.62" ry="5.43" transform="translate(-61.88 109.9) rotate(-57.79)"/><ellipse class="cls-2" cx="73.91" cy="114.44" rx="7.62" ry="9.66" transform="translate(-62.31 115.97) rotate(-57.79)"/><path class="cls-19" d="M78.88,122.32c-1.47,2.36-3.2,3.59-5.52,3.68a7,7,0,0,1-4.81-1.72c-2.52-2.16-3.64-5.66-3.25-10.61"/><path class="cls-19" d="M69.07,106.43a13.39,13.39,0,0,1,7.72-3.74,14.55,14.55,0,0,1,5.8.37,8.6,8.6,0,0,1,5.17,3.41,3,3,0,0,1-.31,3.69.8.8,0,0,1-.13.13,2.57,2.57,0,0,1-2.46.5c-4.16-1.25-7.06-1.14-8.78.24"/><path class="cls-20" d="M90.48,118.45c-1.87-.63-4.48-1.34-4.48-1.34l1.17-2.3,2.29-1.33s1.17,2.19,2.14,3.78Z"/><path class="cls-21" d="M92.16,118.18c.47.81-.29.73-.61.63l-1.07-.36,1.12-1.19Z"/><path class="cls-22" d="M61.9,96.18a1,1,0,0,0-1.27.08h0a.75.75,0,0,0,.09,1.14l25,19.53a1,1,0,0,0,1.28-.08h0a.75.75,0,0,0-.1-1.14Z"/><path class="cls-23" d="M63.08,95a1,1,0,0,0-1.27.08h0a.75.75,0,0,0,.09,1.14l25,19.53a1,1,0,0,0,1.27-.08h0a.75.75,0,0,0-.09-1.14Z"/><path class="cls-22" d="M64.26,93.74a1,1,0,0,0-1.27.08h0A.75.75,0,0,0,63.08,95l25,19.53a1,1,0,0,0,1.27-.08h0a.75.75,0,0,0-.09-1.14Z"/><polygon class="cls-24" points="64.7 94.09 61.16 97.75 59.95 96.8 63.48 93.14 64.7 94.09"/><path class="cls-25" d="M63.48,93.14,60,96.8l-1.27-1h0l-.06,0a2.11,2.11,0,0,1,.05-3.18,2.7,2.7,0,0,1,3.49-.48l.05,0h0Z"/><path class="cls-19" d="M84.12,117.21A5.36,5.36,0,0,1,79,122.34a10.06,10.06,0,0,1-5.58-1.17"/><path class="cls-19" d="M75.74,109.77l1,.25a15.27,15.27,0,0,0,5.25.48,8.7,8.7,0,0,1,2.82.22,4,4,0,0,1,1.6.76l0,0a2.64,2.64,0,0,1,.06,4,7.33,7.33,0,0,1-2.84,1.66l-.52.2a13.59,13.59,0,0,1-8.23-.79"/><ellipse class="cls-26" cx="121.23" cy="56.63" rx="11.13" ry="16.48"/><ellipse class="cls-27" cx="121.61" cy="56.63" rx="5.73" ry="8.48"/><path class="cls-28" d="M115.79,35.48s5.91-6.17,11.63,0"/><circle class="cls-2" cx="119.58" cy="53.83" r="2.2"/><ellipse class="cls-26" cx="93.27" cy="56.63" rx="11.13" ry="16.48"/><ellipse class="cls-27" cx="93.64" cy="56.63" rx="5.73" ry="8.48"/><path class="cls-28" d="M87.83,35.48s5.91-6.17,11.63,0"/><circle class="cls-2" cx="91.62" cy="53.83" r="2.2"/><path class="cls-29" d="M121.42,78.62a3.76,3.76,0,0,1,2,6.91,30.48,30.48,0,0,1-33.14,0,3.76,3.76,0,1,1,4.09-6.31,23,23,0,0,0,25,0A3.73,3.73,0,0,1,121.42,78.62Z"/><path class="cls-30" d="M92.38,81.11a1.23,1.23,0,0,1,.68.21,25.47,25.47,0,0,0,27.68,0,1.26,1.26,0,0,1,1.37,2.11,28,28,0,0,1-30.42,0,1.26,1.26,0,0,1,.69-2.32Z"/></g></g></svg>