<?xml version="1.0" encoding="utf-8"?>
<!-- Generator: Adobe Illustrator 24.0.2, SVG Export Plug-In . SVG Version: 6.00 Build 0)  -->
<svg version="1.1" id="Layer_1" xmlns="http://www.w3.org/2000/svg" xmlns:xlink="http://www.w3.org/1999/xlink" x="0px" y="0px"
	 viewBox="0 0 216.2 266.5" style="enable-background:new 0 0 216.2 266.5;" xml:space="preserve">
<style type="text/css">
	.st0{fill:#C08D54;stroke:#000000;stroke-width:1.24;stroke-miterlimit:10;}
	.st1{fill:#FFFFFF;}
	.st2{fill:#259959;}
	.st3{fill:#004F27;}
	.st4{fill:#441216;stroke:#000000;stroke-width:1.02;stroke-miterlimit:10;}
	.st5{fill:#FFFFFF;stroke:#000000;stroke-width:1.26;stroke-miterlimit:10;}
	.st6{fill:#441216;stroke:#000000;stroke-width:0.98;stroke-miterlimit:10;}
	.st7{fill:#FFFFFF;stroke:#000000;stroke-width:0.72;stroke-miterlimit:10;}
	.st8{fill:none;stroke:#000000;stroke-width:0.72;stroke-linecap:round;stroke-miterlimit:10;}
	.st9{fill:#82000A;stroke:#000000;stroke-width:1.42;stroke-miterlimit:10;}
	.st10{fill:#FFFFFF;stroke:#000000;stroke-width:0.74;stroke-miterlimit:10;}
	.st11{fill:none;stroke:#000000;stroke-width:0.74;stroke-miterlimit:10;}
	.st12{fill:#C1272D;stroke:#000000;stroke-width:1.42;stroke-miterlimit:10;}
	.st13{fill:#747E7F;}
	.st14{fill:#9BA7A7;}
	.st15{fill:#C08D54;}
	.st16{fill:#996E43;}
	.st17{fill:none;stroke:#4D4D4D;stroke-width:0.38;stroke-linecap:round;stroke-linejoin:round;stroke-dasharray:1.28;}
	.st18{fill:#FFFFFF;stroke:#000000;stroke-width:0.42;stroke-linecap:round;stroke-linejoin:round;}
	.st19{fill:#FFD396;stroke:#000000;stroke-width:0.18;stroke-miterlimit:10;}
	.st20{stroke:#000000;stroke-width:0.17;stroke-miterlimit:10;}
	.st21{fill:#FBCA2C;stroke:#000000;stroke-width:0.18;stroke-miterlimit:10;}
	.st22{fill:#F4B21C;stroke:#000000;stroke-width:0.18;stroke-miterlimit:10;}
	.st23{fill:#CAC3B9;stroke:#000000;stroke-width:0.18;stroke-miterlimit:10;}
	.st24{fill:#FC5465;stroke:#000000;stroke-width:0.18;stroke-miterlimit:10;}
	.st25{fill:#FFFFFF;stroke:#000000;stroke-width:0.91;stroke-miterlimit:10;}
	.st26{stroke:#000000;stroke-width:0.15;stroke-miterlimit:10;}
	.st27{fill:none;stroke:#000000;stroke-width:2.4;stroke-linecap:round;stroke-miterlimit:10;}
	.st28{fill:#D85067;stroke:#000000;stroke-width:0.76;stroke-miterlimit:10;}
	.st29{stroke:#000000;stroke-width:9.000000e-02;stroke-miterlimit:10;}
	.st30{fill:none;stroke:#000000;stroke-width:2.4609;stroke-linecap:round;stroke-miterlimit:10;}
</style>
<title>la2</title>
<g id="Layer_2_1_">
	<g id="personaje">
		<path class="st0" d="M45.8,69.3H163c1.9,0,3.5,1.6,3.5,3.5v33.4c0,1.9-1.6,3.5-3.5,3.5H45.8c-1.9,0-3.5-1.6-3.5-3.5V72.8
			C42.3,70.9,43.8,69.3,45.8,69.3z"/>
		<path class="st1" d="M100.2,237.3c-2.3,2.8-7.1,4.4-13,4.4c-6.3,0-11.5-1.7-13.7-4.5c-0.3-0.4-0.6-0.9-0.8-1.4
			c-0.3,0.5-0.5,1.1-0.5,1.7c0,3.7,6.9,6.9,15,6.9s15-3.1,15-6.9c0-0.8-0.3-1.6-0.8-2.2C101.1,236,100.7,236.7,100.2,237.3z"/>
		<path class="st2" d="M87.2,240.2c5.4,0,9.8-1.4,11.9-3.8c1-1.1,1.4-2.6,1.1-4c-0.8-4.6-5.6-9.5-13-9.5c-7.2,0-11.9,3.5-13.4,9.9
			c-0.3,1.2,0,2.5,0.8,3.5C76.6,238.7,81.4,240.2,87.2,240.2z"/>
		<path class="st3" d="M97.5,225c-0.5-3.3-1.8-6.4-3.8-9c-0.7,0.3-1.5,0.5-2.3,0.6c-0.4,0.1-0.7-0.2-0.8-0.5
			c-0.1-0.4,0.2-0.7,0.5-0.8c0.8-0.2,1.6-0.4,2.3-0.7l0,0c0.1-0.1,0.3-0.2,0.4-0.2c1.6-0.8,2.6-1.8,2.6-2.8c0-1.9-3.5-4-8.7-4
			s-8.7,2.1-8.7,4c0,1,0.8,1.9,2.1,2.6c0.2,0,0.3,0.1,0.4,0.2l0,0c1.7,0.8,3.5,1.2,5.4,1.3c0.4,0.1,0.6,0.5,0.5,0.8
			c-0.1,0.2-0.2,0.4-0.5,0.5l0,0c-1.9,0-3.8-0.5-5.6-1.2c-2,2.4-3.3,5.3-3.8,8.4c2.8-2,6.3-3,9.7-2.9C91,221.3,94.6,222.6,97.5,225z
			"/>
		<path d="M101.8,233.4c0-0.4,0-0.9-0.1-1.3c-0.4-2-1.2-3.8-2.5-5.3c-0.3-4.1-1.7-8-4.2-11.3c1.8-1,2.8-2.3,2.8-3.8
			c0-3-4.4-5.3-10.1-5.3s-10.1,2.4-10.1,5.3c0.1,1.5,1,2.8,2.3,3.4c-2.4,3.1-3.9,6.8-4.3,10.7c-1.7,1.8-2.8,4.1-3.3,6.5
			c-0.1,0.5-0.2,1-0.2,1.5c-0.9,0.9-1.5,2.2-1.5,3.5c0,4.7,7.2,8.3,16.5,8.3s16.5-3.6,16.5-8.3C103.6,235.9,102.9,234.4,101.8,233.4
			z M81.3,215.8c1.8,0.7,3.7,1.1,5.7,1.2l0,0c0.4,0,0.7-0.3,0.7-0.7c0-0.4-0.3-0.7-0.7-0.7c-1.9-0.1-3.7-0.5-5.4-1.2l0,0
			c-0.1-0.1-0.3-0.2-0.4-0.2c-1.3-0.7-2.1-1.6-2.1-2.6c0-1.9,3.5-4,8.7-4s8.7,2.1,8.7,4c0,1-1,2.1-2.6,2.8c-0.2,0-0.3,0.1-0.4,0.2
			l0,0c-0.7,0.3-1.5,0.5-2.3,0.7c-0.4,0.1-0.6,0.4-0.5,0.8c0.1,0.4,0.4,0.6,0.8,0.5c0.8-0.2,1.5-0.4,2.3-0.6c2,2.6,3.3,5.7,3.8,9
			c-2.9-2.4-6.5-3.7-10.3-3.6c-3.5-0.1-6.9,0.9-9.7,2.9C78.1,221.2,79.4,218.3,81.3,215.8z M73.8,232.7c1.5-6.4,6.2-9.9,13.4-9.9
			c7.4,0,12.2,4.9,13,9.5c0.3,1.4-0.2,2.9-1.1,4c-2,2.4-6.5,3.8-11.9,3.8c-5.8,0-10.6-1.5-12.6-4C73.8,235.2,73.5,233.9,73.8,232.7
			L73.8,232.7z M87.2,244.3c-8.2,0-15-3.1-15-6.9c0-0.6,0.2-1.2,0.5-1.7c0.2,0.5,0.5,1,0.8,1.4c2.3,2.8,7.4,4.5,13.7,4.5
			c5.9,0,10.6-1.6,13-4.4c0.5-0.6,0.9-1.3,1.2-2.1c0.5,0.6,0.8,1.4,0.8,2.2C102.3,241.1,95.4,244.3,87.2,244.3z"/>
		<path class="st4" d="M87.7,212.3c-1.7,0-3.2-1.2-3.4-2.9c-3.3-20.4,5.9-41.6,6.3-42.5c0.8-1.8,2.8-2.6,4.6-1.8
			c1.8,0.8,2.6,2.8,1.8,4.6l0,0c-0.1,0.3-8.8,20.3-5.8,38.6c0.3,1.9-1,3.7-2.9,4c0,0,0,0,0,0C88.1,212.2,87.9,212.3,87.7,212.3z"/>
		<path class="st5" d="M83.1,202.9l7.9-0.5c0.4,0,0.7,0.3,0.7,0.6l0.4,5.8c0.1,2.3-1.6,4.2-3.9,4.4l0,0l-1,0.1
			c-2.3,0.1-4.2-1.6-4.4-3.9l0,0l-0.4-5.8C82.5,203.3,82.7,203,83.1,202.9z"/>
		<path class="st1" d="M136.9,237.3c-2.4,2.8-7.1,4.4-13,4.4c-6.4,0-11.6-1.7-13.8-4.6c-0.3-0.4-0.6-0.9-0.8-1.4
			c-0.3,0.5-0.5,1.1-0.5,1.7c0,3.7,6.9,6.9,15.1,6.9s15.1-3.2,15.1-6.9c0-0.8-0.3-1.6-0.9-2.2C137.8,235.9,137.4,236.6,136.9,237.3z
			"/>
		<path class="st2" d="M123.8,240.2c5.4,0,9.9-1.4,11.9-3.9c1-1.1,1.4-2.6,1.1-4c-0.8-4.6-5.6-9.5-13.1-9.5c-7.2,0-12,3.5-13.5,9.9
			c-0.3,1.2,0,2.5,0.8,3.5C113.1,238.6,118,240.2,123.8,240.2z"/>
		<path class="st3" d="M134.1,224.9c-0.5-3.3-1.8-6.4-3.8-9c-0.7,0.3-1.5,0.5-2.3,0.6c-0.4,0.1-0.7-0.1-0.8-0.5c0,0,0,0,0,0
			c-0.1-0.4,0.2-0.7,0.5-0.8c0,0,0,0,0,0c0.8-0.2,1.6-0.4,2.3-0.7l0,0c0.1-0.1,0.3-0.2,0.4-0.2c1.6-0.8,2.6-1.8,2.6-2.8
			c0-1.9-3.5-4-8.8-4s-8.8,2.1-8.8,4c0,1,0.8,1.9,2.1,2.6c0.2,0,0.3,0.1,0.4,0.2v0.1c1.7,0.7,3.5,1.1,5.4,1.2c0.4,0,0.7,0.3,0.7,0.7
			c0,0.4-0.3,0.6-0.7,0.6l0,0c-1.9-0.1-3.9-0.5-5.7-1.2c-2,2.5-3.3,5.4-3.9,8.5c2.9-2,6.3-3,9.8-2.9
			C127.6,221.2,131.2,222.5,134.1,224.9z"/>
		<path d="M138.4,233.4c0-0.4,0-0.9-0.1-1.3c-0.4-2-1.2-3.8-2.5-5.4c-0.3-4.1-1.8-8-4.2-11.4c1.8-1,2.8-2.3,2.8-3.8
			c0-3-4.4-5.4-10.1-5.4s-10.1,2.4-10.1,5.4c0.1,1.5,1,2.8,2.3,3.5c-2.4,3.1-3.9,6.8-4.3,10.7c-1.7,1.9-2.8,4.1-3.4,6.6
			c-0.1,0.5-0.2,1-0.2,1.5c-0.9,0.9-1.5,2.2-1.5,3.5c0,4.7,7.3,8.4,16.6,8.4s16.6-3.7,16.6-8.4C140.3,235.8,139.6,234.4,138.4,233.4
			z M117.9,215.7c1.8,0.7,3.7,1.2,5.7,1.2l0,0c0.4,0,0.7-0.3,0.7-0.6c0-0.4-0.3-0.7-0.7-0.7c-1.9,0-3.7-0.5-5.4-1.2v-0.1
			c-0.1-0.1-0.3-0.2-0.4-0.2c-1.3-0.7-2.1-1.6-2.1-2.6c0-1.9,3.5-4,8.8-4c5.2,0,8.8,2.1,8.8,4c0,1.1-1,2.1-2.6,2.8
			c-0.2,0-0.3,0.1-0.4,0.2l0,0c-0.8,0.3-1.5,0.5-2.3,0.7c-0.4,0.1-0.6,0.4-0.5,0.8c0,0,0,0,0,0c0.1,0.4,0.4,0.6,0.8,0.5c0,0,0,0,0,0
			c0.8-0.1,1.6-0.4,2.3-0.6c2,2.6,3.3,5.7,3.8,9c-2.9-2.4-6.5-3.7-10.3-3.6c-3.5-0.1-6.9,0.9-9.8,2.9
			C114.6,221.1,115.9,218.1,117.9,215.7z M110.3,232.7c1.5-6.4,6.3-9.9,13.5-9.9c7.4,0,12.3,4.9,13.1,9.5c0.3,1.4-0.2,2.9-1.1,4
			c-2.1,2.4-6.5,3.9-11.9,3.9c-5.8,0-10.7-1.5-12.7-4C110.3,235.2,110,233.9,110.3,232.7L110.3,232.7z M123.8,244.3
			c-8.2,0-15.1-3.2-15.1-6.9c0-0.6,0.2-1.2,0.5-1.7c0.2,0.5,0.5,1,0.8,1.4c2.3,2.9,7.4,4.6,13.8,4.6c5.9,0,10.7-1.6,13-4.4
			c0.5-0.6,0.9-1.3,1.2-2.1c0.5,0.6,0.8,1.4,0.9,2.2C138.9,241.1,132,244.3,123.8,244.3L123.8,244.3z"/>
		<path class="st4" d="M123.5,212.3c1.7,0,3.2-1.2,3.4-2.9c3.3-20.4-5.9-41.6-6.3-42.5c-0.8-1.8-2.8-2.6-4.6-1.8
			c-1.8,0.8-2.6,2.8-1.8,4.6c0.1,0.3,8.8,20.3,5.8,38.6c-0.3,1.9,1,3.7,2.9,4c0,0,0,0,0,0C123.2,212.2,123.3,212.3,123.5,212.3z"/>
		<path class="st5" d="M124,213.3l-1-0.1c-2.3-0.1-4-2.1-3.9-4.4l0.4-5.8c0-0.4,0.3-0.7,0.7-0.6l7.9,0.5c0.4,0,0.7,0.3,0.6,0.7
			l-0.4,5.7C128.3,211.7,126.3,213.4,124,213.3L124,213.3L124,213.3z"/>
		<path class="st6" d="M155.4,77.1l0.7,9.2c0.7,0,6.8-0.6,15.2-4.7c5-2.5,9.7-5.7,13.8-9.4c4.7-4.3,8.9-9.1,12.4-14.5l-7.7-5.4
			c-6.2,9.4-13.7,16.4-22.4,20.8C163.7,75.1,159.6,76.5,155.4,77.1z"/>
		<path class="st7" d="M191.1,48c0,0-3.5,2.1-1.4,6.5c2.5,5.2,11.3,5.8,11.3-0.5L191.1,48z"/>
		<path class="st7" d="M190.5,48.1c0.2-3.9-4.8-6.3-5.7-9.1c-1-3.2,2.8-7.7,8.1,1c0,0,2-5,0.9-9.1c-1.2-4.6,2.8-6.5,4.8-4.4
			c1.8,1.9,1.7,8,0.5,11.2c-0.1,0.4,0,0.8,0.4,1c0.1,0,0.1,0,0.2,0h0.2c0.4,0,0.7-0.2,0.8-0.5c1-2.7,1.7-5.4,2.3-8.2
			c0.5-3.8,7.3-2.8,6.7,2.2c-0.5,4-3.3,7.1-4.4,8.2c-0.3,0.3-0.3,0.7-0.1,1l0,0c0.2,0.3,0.7,0.4,1,0.1c2.1-1.5,4.2-3.1,6.1-4.7
			c2.4-2.2,8.1,4.7-3.7,9.7c0,0-1.4,8.5-9.3,8.2C190.3,54.5,190.5,48.1,190.5,48.1z"/>
		<path class="st8" d="M194.2,42.1c0,0,5.7,1.2,3.6,6.9"/>
		<rect x="74.6" y="0.7" class="st9" width="86.6" height="117.6"/>
		<rect x="135.4" y="0.6" class="st10" width="23.7" height="117.6"/>
		<line class="st11" x1="139.5" y1="0.7" x2="139.5" y2="118.3"/>
		<line class="st11" x1="143.6" y1="0.6" x2="143.6" y2="118.4"/>
		<line class="st11" x1="147.7" y1="0.6" x2="147.7" y2="118.4"/>
		<line class="st11" x1="151.8" y1="0.8" x2="151.8" y2="118.3"/>
		<line class="st11" x1="155.9" y1="0.8" x2="155.9" y2="118.3"/>
		<rect x="62.9" y="0.9" class="st12" width="86.6" height="117.6"/>
		<path class="st13" d="M175.1,208.1c1.8,1,4,1.1,5.9,0.2l4.1-29.7c-1.8-0.8-3.7-1.4-5.7-1.8L175.1,208.1z"/>
		<path class="st13" d="M26,176.3c-2.8,0-5.5-0.5-8.1-1.6c-5.6,3-8.8,7.4-8.8,12.1v71.6c2.4,1.2,5.3,1,7.6-0.4v-69.4
			c0-5.7,5.7-10.6,13.8-12.4L26,176.3z"/>
		<path class="st13" d="M185.1,176.3h-4.5c8,1.8,13.8,6.7,13.8,12.4v69.2c2.3,1.3,5.2,1.3,7.6,0.1v-71.2c0-4.7-3.2-9.1-8.8-12.1
			C190.7,175.8,187.9,176.3,185.1,176.3z"/>
		<path class="st13" d="M28.2,177.8l4,30.7c2.1,1.1,4.6,1,6.5-0.3l-4.1-31.7C32.4,176.7,30.2,177.1,28.2,177.8z"/>
		<path class="st14" d="M13.7,169.8c1.6,3.4,6.7,5.8,12.3,5.8h159.2c5.6,0,10.6-2.4,12.3-5.8l3.8-8.1H9.9L13.7,169.8z"/>
		<path class="st15" d="M191.3,113.4c-0.9-1.8-3.4-3-6.4-3H26.1c-2.9,0-5.5,1.2-6.4,3L1.5,150.1c-0.1,0.3-0.2,0.6-0.3,0.9v0.9
			c0.2,0.8,0.6,1.5,1.3,2.1c1.5,1.2,3.5,1.8,5.4,1.7h195.2c1.9,0.1,3.9-0.5,5.4-1.7c0.6-0.5,1-1.2,1.2-1.9v-1.1l0,0
			c-0.1-0.3-0.1-0.5-0.3-0.7L191.3,113.4z"/>
		<path class="st16" d="M203.1,156.4H7.9c-2.4,0.1-4.8-0.7-6.7-2.3v2.9c0,2.2,2.8,4,6.3,4h195.9c3.5,0,6.3-1.8,6.3-4v-2.8
			C207.9,155.7,205.5,156.5,203.1,156.4z"/>
		<path d="M192.4,113.1c-1-2.1-4.1-3.5-7.5-3.5H26.1c-3.5,0-6.5,1.4-7.5,3.5L0.4,149.9c-0.2,0.3-0.3,0.6-0.3,0.9H0v0.1
			c0,0.3,0,0.6,0,0.9v5.1c0,2.6,3.4,4.8,7.5,4.8h1.2l3.9,8.3c1,1.8,2.5,3.3,4.4,4.2c-5.7,3.2-9,7.8-9,12.6v71
			c-0.4-0.1-0.9,0-0.9,0.3v5.5c0,0.7,0.5,1.4,1.1,1.7c2.8,1.5,6.2,1.6,9,0.1c0.9-0.3,1.5-1.1,1.5-2l-0.5-5.4c0-0.1-0.1-0.3-0.3-0.3
			v-69c0-4.4,3.6-8.3,9.1-10.4l3.9,29.9c-0.1,0-0.2,0.1-0.2,0.3l-0.3,5.4c0,0.8,0.4,1.6,1.1,2c2.8,1.9,6.5,1.8,9.2-0.2
			c0.9-0.5,1.3-1.5,1-2.5l-1.7-5.1c0-0.1-0.1-0.2-0.2-0.2l-4.1-31.4c0.5,0,1.1-0.1,1.7-0.1h136.3c1.5,0,3,0.1,4.5,0.3l-4.2,30.8
			c-0.3,0-0.6,0.1-0.6,0.3l-1.7,5.2c-0.3,1,0.1,2,1,2.5c2.7,2,6.4,2.1,9.2,0.2c0.7-0.4,1.1-1.2,1.1-2l-0.3-5.4
			c0-0.2-0.2-0.3-0.5-0.3l3.9-28.6c4.3,2.3,7,5.7,7,9.5v68.7c-0.2,0-0.4,0.1-0.4,0.3l-0.5,5.3c0,0.9,0.7,1.7,1.5,2
			c2.8,1.5,6.2,1.4,9-0.1c0.7-0.3,1.1-1,1.1-1.7v-5.5c0-0.3-0.4-0.4-0.7-0.4v-70.6c0-4.9-3.3-9.4-9-12.6c1.9-0.9,3.4-2.4,4.3-4.2
			l3.9-8.3h1c4.1,0,7.5-2.1,7.5-4.8V152c0.1-0.7,0-1.5-0.3-2.1L192.4,113.1z M16.7,188.7v69.4c-2.3,1.4-5.2,1.5-7.6,0.4v-71.6
			c0-4.7,3.2-9.1,8.8-12.1c2.6,1.1,5.3,1.7,8.1,1.6h4.5C22.5,178.1,16.7,183,16.7,188.7z M38.7,208.1c-2,1.3-4.5,1.4-6.5,0.3
			l-4-30.7c2.1-0.7,4.2-1.2,6.4-1.4L38.7,208.1z M181,208.3c-1.9,0.9-4.1,0.8-5.9-0.2l4.3-31.2c2,0.4,3.9,1,5.7,1.8L181,208.3z
			 M202,186.8V258c-2.4,1.2-5.2,1.1-7.6-0.2v-69.1c0-5.7-5.8-10.6-13.8-12.4h4.5c2.8,0,5.5-0.5,8.1-1.7
			C198.8,177.7,202,182.1,202,186.8L202,186.8z M197.4,169.8c-1.6,3.4-6.6,5.8-12.3,5.8H26c-5.6,0-10.6-2.4-12.3-5.8l-3.8-8.1h191.3
			L197.4,169.8z M209.8,157c0,2.2-2.8,4-6.3,4H7.5c-3.5,0-6.3-1.8-6.3-4v-2.9c1.8,1.6,4.2,2.4,6.7,2.3h195.2
			c2.4,0.1,4.8-0.7,6.6-2.3L209.8,157z M209.8,150.9v1.1c-0.2,0.8-0.6,1.4-1.2,1.9c-1.5,1.2-3.5,1.8-5.4,1.7H7.9
			c-1.9,0.1-3.9-0.5-5.4-1.7c-0.6-0.5-1.1-1.2-1.3-2.1V151c0-0.3,0.1-0.6,0.3-0.9l18.2-36.8c0.9-1.8,3.5-3,6.4-3h158.7
			c2.9,0,5.5,1.2,6.4,3l18.2,36.8C209.6,150.4,209.7,150.6,209.8,150.9L209.8,150.9z"/>
		<polygon class="st1" points="89.5,113.7 136.5,113.7 143.4,134.8 80.7,134.8 		"/>
		<polyline class="st17" points="99.2,127.7 99.2,119.4 106.9,119.4 106.9,127.7 114.8,127.7 122.3,119.6 130.1,127.7 		"/>
		<path class="st6" d="M74.1,105.8c-7.3-1.7-12.9-6.6-14.6-12.8c-0.7-2.5-1.4-7.3,1.3-11.7c0.5-0.8,1.1-1.5,1.7-2.1V67
			c0-0.2,0-0.4,0-0.6c-4.4,1.9-8.2,5-10.8,9c-2.5,3.9-3.8,8.5-3.7,13.1c0,2.5,0.3,4.9,1,7.3c2.8,10,11.4,17.8,22.6,20.4
			c2.9,0.8,5.9-1,6.6-3.9s-1-5.9-3.9-6.6C74.3,105.8,74.2,105.8,74.1,105.8L74.1,105.8z"/>
		<ellipse transform="matrix(0.533 -0.8461 0.8461 0.533 -61.8726 109.9011)" class="st18" cx="68.6" cy="111" rx="7.6" ry="5.4"/>
		<ellipse transform="matrix(0.533 -0.8461 0.8461 0.533 -62.3068 115.9762)" class="st1" cx="73.9" cy="114.4" rx="7.6" ry="9.7"/>
		<path class="st18" d="M78.9,122.3c-1.5,2.4-3.2,3.6-5.5,3.7c-1.8,0.1-3.5-0.6-4.8-1.7c-2.5-2.2-3.6-5.7-3.3-10.6"/>
		<path class="st18" d="M69.1,106.4c2.1-2.1,4.8-3.4,7.7-3.7c1.9-0.3,3.9-0.1,5.8,0.4c2.1,0.5,3.9,1.7,5.2,3.4
			c0.8,1.2,0.6,2.7-0.3,3.7c0,0-0.1,0.1-0.1,0.1c-0.7,0.6-1.6,0.8-2.5,0.5c-4.2-1.3-7.1-1.1-8.8,0.2"/>
		<path class="st19" d="M90.5,118.4c-1.9-0.6-4.5-1.3-4.5-1.3l1.2-2.3l2.3-1.3c0,0,1.2,2.2,2.1,3.8L90.5,118.4z"/>
		<path class="st20" d="M92.2,118.2c0.5,0.8-0.3,0.7-0.6,0.6l-1.1-0.4l1.1-1.2L92.2,118.2z"/>
		<path class="st21" d="M61.9,96.2c-0.4-0.3-0.9-0.2-1.3,0.1l0,0c-0.3,0.3-0.3,0.8,0,1.1c0,0,0.1,0.1,0.1,0.1l25,19.5
			c0.4,0.3,0.9,0.3,1.3-0.1l0,0c0.3-0.3,0.3-0.8,0-1.1c0,0-0.1-0.1-0.1-0.1L61.9,96.2z"/>
		<path class="st22" d="M63.1,95c-0.4-0.3-0.9-0.2-1.3,0.1l0,0c-0.3,0.3-0.3,0.8,0,1.1c0,0,0.1,0.1,0.1,0.1l25,19.5
			c0.4,0.3,0.9,0.2,1.3-0.1l0,0c0.3-0.3,0.3-0.8,0-1.1c0,0-0.1-0.1-0.1-0.1L63.1,95z"/>
		<path class="st21" d="M64.3,93.7c-0.4-0.3-0.9-0.2-1.3,0.1l0,0c-0.3,0.3-0.3,0.8-0.1,1.1c0,0,0.1,0.1,0.1,0.1l25,19.5
			c0.4,0.3,0.9,0.2,1.3-0.1l0,0c0.3-0.3,0.3-0.8,0-1.1c0,0-0.1-0.1-0.1-0.1L64.3,93.7z"/>
		<polygon class="st23" points="64.7,94.1 61.2,97.8 60,96.8 63.5,93.1 		"/>
		<path class="st24" d="M63.5,93.1L60,96.8l-1.3-1l0,0h-0.1c-0.9-0.8-0.9-2.1-0.2-3c0.1-0.1,0.1-0.1,0.2-0.2c0.9-1,2.4-1.2,3.5-0.5
			h0l0,0L63.5,93.1z"/>
		<path class="st18" d="M84.1,117.2c-0.1,2.8-2.3,5-5.1,5.1c-1.9,0.2-3.9-0.3-5.6-1.2"/>
		<path class="st18" d="M75.7,109.8l1,0.3c1.7,0.5,3.5,0.6,5.3,0.5c0.9-0.1,1.9,0,2.8,0.2c0.6,0.1,1.1,0.4,1.6,0.8l0,0
			c1.1,0.9,1.3,2.6,0.3,3.7c-0.1,0.1-0.2,0.2-0.3,0.3c-0.8,0.8-1.8,1.3-2.8,1.7l-0.5,0.2c-2.8,0.6-5.6,0.3-8.2-0.8"/>
		<ellipse class="st25" cx="121.2" cy="56.6" rx="11.1" ry="16.5"/>
		<ellipse class="st26" cx="121.6" cy="56.6" rx="5.7" ry="8.5"/>
		<path class="st27" d="M115.8,35.5c0,0,5.9-6.2,11.6,0"/>
		<circle class="st1" cx="119.6" cy="53.8" r="2.2"/>
		<ellipse class="st25" cx="93.3" cy="56.6" rx="11.1" ry="16.5"/>
		<ellipse class="st26" cx="93.6" cy="56.6" rx="5.7" ry="8.5"/>
		<path class="st27" d="M87.8,35.5c0,0,5.9-6.2,11.6,0"/>
		<circle class="st1" cx="91.6" cy="53.8" r="2.2"/>
		<path class="st28" d="M121.4,78.6c2.1,0,3.7,1.7,3.7,3.8c0,1.3-0.7,2.4-1.7,3.1c-10.1,6.5-23.1,6.5-33.1,0
			c-1.8-1.1-2.3-3.4-1.2-5.2c1.1-1.8,3.4-2.3,5.2-1.2c0,0,0,0,0.1,0c7.6,4.9,17.4,4.9,25,0C120,78.8,120.7,78.6,121.4,78.6z"/>
		<path class="st29" d="M92.4,81.1c0.2,0,0.5,0.1,0.7,0.2c8.4,5.5,19.3,5.5,27.7,0c0.6-0.3,1.4-0.1,1.7,0.5c0.3,0.6,0.2,1.3-0.3,1.6
			c-9.3,6-21.2,6-30.4,0c-0.6-0.4-0.8-1.2-0.4-1.7C91.5,81.3,91.9,81.1,92.4,81.1z"/>
	</g>
</g>
<g>
	<path class="st30" d="M68.5,9.7c0,0-22.3,0-6.3,7.1"/>
	<path class="st30" d="M68.5,32.8c0,0-22.3,0-6.3,7.1"/>
	<path class="st30" d="M68.5,55.9c0,0-22.3,0-6.3,7.1"/>
	<path class="st30" d="M68.5,79.1c0,0-22.3,0-6.3,7.1"/>
</g>
</svg>
