<?xml version="1.0" encoding="utf-8"?>
<!-- Generator: Adobe Illustrator 24.0.2, SVG Export Plug-In . SVG Version: 6.00 Build 0)  -->
<svg version="1.1" id="Layer_1" xmlns="http://www.w3.org/2000/svg" xmlns:xlink="http://www.w3.org/1999/xlink" x="0px" y="0px"
	 viewBox="0 0 145.3 133.2" style="enable-background:new 0 0 145.3 133.2;" xml:space="preserve">
<style type="text/css">
	.st0{fill:#441216;}
	.st1{fill:#441216;stroke:#000000;stroke-width:0.9982;stroke-miterlimit:10;}
	.st2{fill:#FFFFFF;stroke:#000000;stroke-width:0.5627;stroke-miterlimit:10;}
	.st3{fill:#FFFFFF;}
	.st4{fill:#FFFFFF;stroke:#000000;stroke-width:0.4243;stroke-miterlimit:10;}
	.st5{fill:#82000A;stroke:#000000;stroke-width:0.9982;stroke-miterlimit:10;}
	.st6{fill:#FFFFFF;stroke:#000000;stroke-width:0.5225;stroke-miterlimit:10;}
	.st7{fill:none;stroke:#000000;stroke-width:0.5225;stroke-miterlimit:10;}
	.st8{fill:#C1272D;stroke:#000000;stroke-width:0.9982;stroke-miterlimit:10;}
	.st9{fill:none;stroke:#000000;stroke-width:1.7352;stroke-linecap:round;stroke-miterlimit:10;}
	.st10{fill:#FFFFFF;stroke:#000000;stroke-width:0.5784;stroke-miterlimit:10;}
	.st11{stroke:#000000;stroke-width:0.3327;stroke-miterlimit:10;}
	.st12{fill:none;stroke:#000000;stroke-width:1.1568;stroke-linecap:round;stroke-miterlimit:10;}
	.st13{stroke:#000000;stroke-width:0.3135;stroke-miterlimit:10;}
	.st14{fill:#EA5E58;stroke:#000000;stroke-width:0.3135;stroke-miterlimit:10;}
	.st15{fill:#FFFFFF;stroke:#000000;stroke-width:0.3135;stroke-miterlimit:10;}
	.st16{fill:#D85067;stroke:#000000;stroke-width:0.4338;stroke-miterlimit:10;}
	.st17{fill:#FFFFFF;stroke:#000000;stroke-width:0.7746;stroke-linecap:round;stroke-linejoin:round;}
	.st18{fill:#FFFFFF;stroke:#000000;stroke-width:0.7322;stroke-linecap:round;stroke-linejoin:round;}
	.st19{fill:#FFFFFF;stroke:#000000;stroke-width:0.6473;stroke-linecap:round;stroke-linejoin:round;}
	.st20{fill:#E5E5E5;}
	.st21{fill:#004F27;}
	.st22{fill:#FFFFFF;stroke:#000000;stroke-width:0.9042;stroke-miterlimit:10;}
	.st23{fill:#FFFFFF;stroke:#000000;stroke-width:0.9466;stroke-miterlimit:10;}
</style>
<title>lcp</title>
<g>
	<g>
		<path class="st0" d="M66.1,100c-1.6,0-3.1-0.9-3.8-2.4l-0.1-0.3c-0.9-1.8-0.2-4.1,1.6-5l0.1-0.1l0.4-0.2
			c6.4-2.2,10.6-4.7,12.9-7.9c-0.8,0.3-1.7,0.6-2.4,0.7c-0.4,0.1-0.9,0.2-1,0.3l-0.4,0.2L73,85.2c-1.9-2.1-1.6-5.6-1.6-5.7l0-0.3
			l3-2.2l0.2,0c0,0,0.6,0,1.6,0c2.8,0,7.8,0.4,9.9,2.8c0.9,1.1,1.3,2.7,0.9,4.1c-1.5,5.9-7.5,10.8-19.3,15.8
			C67.2,99.9,66.7,100,66.1,100z"/>
		<path d="M76.2,77.5c2.6,0,7.5,0.3,9.5,2.6c0.8,1,1.1,2.3,0.8,3.6c-1.7,6.5-9.3,11.3-18.9,15.4c-0.5,0.2-0.9,0.3-1.4,0.3
			c-1.4,0-2.6-0.8-3.3-2l-0.1-0.3c-0.8-1.6-0.2-3.5,1.4-4.2c0,0,0.1,0,0.1,0l0.3-0.1c6.6-2.2,12-5.3,14.3-10.1
			c-1.4,1.5-4.8,1.8-5.4,2.2c-1.8-2-1.5-5.3-1.5-5.3l2.6-2C74.6,77.6,75.2,77.5,76.2,77.5 M76.2,76.4c-1,0-1.7,0-1.7,0l-0.3,0
			l-0.3,0.2l-2.6,2l-0.4,0.3l0,0.5c0,0.2-0.3,3.8,1.8,6.1l0.6,0.7l0.8-0.5c0.1-0.1,0.6-0.2,0.9-0.2c0.2,0,0.4-0.1,0.5-0.1
			c-2.4,2.4-6.1,4.4-11.3,6.2l0,0l0,0l-0.3,0.1l-0.2,0.1c-2.1,1.1-3,3.7-1.9,5.8l0.1,0.3c0.8,1.6,2.5,2.7,4.3,2.7
			c0.6,0,1.3-0.1,1.9-0.4C80,95.1,86,90.1,87.6,84c0.4-1.6,0-3.3-1-4.6C84.4,76.9,79.8,76.4,76.2,76.4L76.2,76.4z"/>
	</g>
	<g>
		<path class="st1" d="M95.2,51l-3.3,5.9c3.5,1.8,7.2,2.9,11.1,3.3c4,0.5,8.1,0.5,12.2-0.1c4.6-0.7,9.1-1.9,13.3-3.7l-2.5-6.4
			c-7.5,3.2-14.9,4.4-21.9,3.5C101,53.1,98,52.3,95.2,51z"/>
		<path class="st2" d="M126.7,46.1c0,0-3.1,0.2-2.5,4.6c0.8,5.1,7.5,9.1,8.9,4.1L126.7,46.1z"/>
		<ellipse transform="matrix(0.8515 -0.5244 0.5244 0.8515 -6.1304 77.3915)" class="st3" cx="133.5" cy="49.5" rx="5.4" ry="5.2"/>
		<path class="st3" d="M138.2,53.7c-0.7,0.8-1.6,1.4-2.6,1.7c-0.9,0.3-1.8,0.3-2.7,0l0,0c-0.9-0.3-1.7-0.9-2.3-1.6l-0.7-0.9"/>
		<path d="M138,53.6c-1.2,1.3-3.2,2.2-4.9,1.6c-1.2-0.5-2.2-1.3-3-2.3c-0.2-0.2-0.7,0.1-0.4,0.3c0.9,1.2,2.1,2,3.4,2.6
			c2,0.4,4-0.3,5.3-1.9C138.6,53.7,138.2,53.3,138,53.6z"/>
		<path class="st4" d="M140.1,47.5c1.1-0.1,2.3,0.4,2.9,1.3c0.2,0.4,0.3,0.8,0.3,1.3c-0.1,0.5-0.3,1-0.6,1.4
			c-0.2,0.2-0.4,0.4-0.6,0.6c-0.2,0.2-0.4,0.3-0.6,0.5c-0.8,0.6-1.8,1-2.8,1.1l0,0c-0.7,0.1-1.3,0-1.9-0.3l-0.2-0.1
			c-0.4-0.2-0.7-0.5-0.9-1l0,0c-0.1-0.4-0.1-0.8,0.2-1.1l0.1-0.1c0.5-0.8,1.4-1.3,2.3-1.6l2.3-0.6 M140.5,49l-2.7-0.1
			c0,0-0.1,0,0-0.1c0,0,0,0,0,0L140.5,49z"/>
		<path class="st4" d="M138.6,43.4c1.2-0.3,2.5,0.2,3.3,1.2c0.3,0.4,0.5,0.9,0.4,1.4c0,0.6-0.2,1.1-0.5,1.6
			c-0.2,0.3-0.4,0.5-0.6,0.7c-0.2,0.2-0.4,0.4-0.6,0.6c-0.8,0.7-1.8,1.2-2.9,1.5l0,0c-0.7,0.1-1.4,0.1-2.1-0.1l-0.2-0.1
			c-0.5-0.2-0.8-0.5-1-1l0,0c-0.2-0.4-0.2-0.8,0-1.2l0.1-0.1c0.5-0.9,1.3-1.6,2.3-1.9l2.4-0.9c0,0,0,0,0-0.1c0,0,0,0-0.1,0l-2.9,0.1
			c0,0-0.1,0-0.1-0.1c0,0,0-0.1,0.1-0.1L138.6,43.4z"/>
		<path class="st2" d="M133.7,41.6l5.3-3.7l3.4-2.3c1-0.7,2.3-0.5,3,0.3l0,0c0.6,1,0.4,2.2-0.4,3.4c-2.2,2.8-5.4,4.4-8.7,5.9
			L133.7,41.6z"/>
		<path class="st3" d="M128.3,50.6c-1.1-2.1-2.5-4.1,0.3-7.8c1.2-1.6,2.5-2.4,3.9-2.2c0.5,0.1,1.1,0.3,1.4,0.7
			c0.5,0.5,1,1.1,1.4,1.7c0.4,0.6,0.8,1.1,1.4,1.4c0.2,0.2,0.5,0.4,0.6,0.6c0.6,0.6,0.7,1.6,0.2,2.4c-0.4,0.7-1.1,1.1-1.9,1
			c-0.7,0-1.4-0.3-2-0.7c-1-0.7-1.8-1.8-2.1-3l1.4,3.2l0.1,0.1c0.1,0.2,0.1,0.5,0.1,0.7c-0.1,0.6-0.4,1.1-0.8,1.5l-0.9,0.9"/>
		<path d="M128.6,50.5c-0.7-1.1-1.1-2.3-1.3-3.6c0.1-2,1.1-3.8,2.6-5.1c0.7-0.7,1.6-1,2.6-1c1.1,0.1,1.9,1.2,2.5,2
			c0.2,0.4,0.5,0.7,0.8,1c0.4,0.4,0.8,0.7,1.2,1c0.7,0.7,0.8,1.8,0.1,2.5c-0.1,0.1-0.3,0.3-0.5,0.4c-1,0.5-2.3,0-3.1-0.6
			c-0.8-0.7-1.4-1.6-1.7-2.7l-0.5,0.2l1.2,2.8c0,0.1,0.1,0.2,0.1,0.3c0.3,0.6,0.2,1.3-0.3,1.7c-0.4,0.4-0.8,0.8-1.2,1.1
			c-0.3,0.2,0.1,0.7,0.3,0.4c1-1,2.3-2.1,1.6-3.6c-0.5-1-0.9-2-1.3-3.1c-0.1-0.1-0.2-0.2-0.4-0.1c-0.1,0.1-0.1,0.2-0.1,0.3
			c0.6,2,2.4,4.1,4.7,3.9c1-0.1,1.8-0.8,2.1-1.8c0.3-1.2-0.4-2-1.3-2.7c-0.9-0.7-1.6-2-2.5-2.9c-0.8-0.8-1.9-1.1-2.9-0.8
			c-1.1,0.3-2,1-2.7,1.9c-0.8,0.9-1.4,2-1.7,3.2c-0.5,1.9,0.3,3.5,1.2,5.2C128.2,51,128.7,50.8,128.6,50.5L128.6,50.5z"/>
	</g>
	<g>
		<g>
			<g>
				<g>
					
						<rect x="29.7" y="3.9" transform="matrix(-1 4.489641e-11 -4.489641e-11 -1 120.3583 90.6795)" class="st5" width="61" height="82.8"/>
					<g>
						
							<rect x="31.1" y="3.8" transform="matrix(-1 4.475252e-11 -4.475252e-11 -1 78.9978 90.4651)" class="st6" width="16.7" height="82.8"/>
						<line class="st7" x1="45" y1="4" x2="45" y2="86.7"/>
						<line class="st7" x1="42.1" y1="3.8" x2="42.1" y2="86.8"/>
						<line class="st7" x1="39.2" y1="3.8" x2="39.2" y2="86.8"/>
						<line class="st7" x1="36.3" y1="4" x2="36.3" y2="86.8"/>
						<line class="st7" x1="33.4" y1="4" x2="33.4" y2="86.8"/>
					</g>
				</g>
				
					<rect x="37.9" y="4" transform="matrix(-1 4.489641e-11 -4.489641e-11 -1 136.8064 90.8847)" class="st8" width="61" height="82.8"/>
				<path class="st9" d="M95.2,10.3c0,0,15.7,0,4.4,5"/>
				<path class="st9" d="M95.2,26.6c0,0,15.7,0,4.4,5"/>
				<path class="st9" d="M95.2,42.9c0,0,15.7,0,4.4,5"/>
				<path class="st9" d="M95.2,59.2c0,0,15.7,0,4.4,5"/>
				<path class="st9" d="M95.2,75.5c0,0,15.7,0,4.4,5"/>
			</g>
			<ellipse class="st10" cx="80.8" cy="43.1" rx="7" ry="10.4"/>
			<ellipse class="st10" cx="62.1" cy="42.6" rx="7" ry="10.4"/>
			<ellipse class="st11" cx="65.5" cy="42.6" rx="3.6" ry="5.3"/>
			<ellipse class="st11" cx="84.1" cy="42.6" rx="3.6" ry="5.3"/>
			<path class="st12" d="M85.8,29.2c0,0-3.7-3.9-7.3,0"/>
			<path class="st12" d="M65.5,29.2c0,0-3.7-3.9-7.3,0"/>
			<g>
				<path class="st13" d="M57.5,59.6c0,0.6,0,1.1,0.2,1.7c1.3-0.3,2.6-0.4,4-0.1c4,0.8,6.8,4.2,7,8c4.6,0.2,8.6-1.9,9.9-5.3
					c0.2-0.6-0.3-1.3-1-1.4L59,58.7C58.2,58.5,57.5,59,57.5,59.6z"/>
				<path class="st14" d="M57.6,61.2c0.8,3.6,4.3,6.7,9,7.6c0.7,0.1,1.4,0.2,2.1,0.3c-0.3-3.9-3.1-7.2-7-8
					C60.3,60.8,58.9,60.9,57.6,61.2z"/>
				<g>
					<g>
						<path class="st15" d="M68.2,60.7c-0.3,1.5,0.4,2.9,1.6,3.1c1.2,0.2,2.4-0.8,2.7-2.2c0-0.2,0.1-0.4,0.1-0.7
							c-1.3,0-2.7-0.1-4.3-0.4C68.2,60.5,68.2,60.6,68.2,60.7z"/>
					</g>
					<g>
						<path class="st15" d="M63.9,59.8c-0.3,1.5,0.4,2.9,1.6,3.1c1.2,0.2,2.4-0.8,2.7-2.2c0-0.1,0-0.1,0-0.2l0,0
							c-1.5-0.3-2.9-0.8-4.1-1.3C64,59.4,64,59.6,63.9,59.8z"/>
					</g>
				</g>
				<path class="st16" d="M54.7,59.5c0,1,0.1,1.9,0.4,2.9c0.5,1.8,1.5,3.5,2.9,4.9c2.1,2.1,4.9,3.6,8,4.2c0.8,0.2,1.6,0.3,2.4,0.3
					c2.3,0.1,4.7-0.3,6.7-1.1c2.9-1.2,5-3.3,6-5.9c0.4-1,0.3-2.1-0.2-3.1c-0.6-1.1-1.6-1.8-2.9-2.1L59.5,56c-1.2-0.2-2.5,0-3.4,0.8
					C55.2,57.5,54.7,58.5,54.7,59.5z M59,58.7l18.5,3.7c0.8,0.2,1.3,0.8,1,1.4c-1.3,3.4-5.3,5.5-9.9,5.3c-0.7,0-1.4-0.1-2.1-0.3
					c-4.7-0.9-8.2-4.1-9-7.6c-0.1-0.5-0.2-1.1-0.2-1.7C57.5,59,58.2,58.5,59,58.7z"/>
			</g>
			<circle class="st3" cx="84.6" cy="40.5" r="1.1"/>
			<circle class="st3" cx="66.3" cy="40.5" r="1.1"/>
		</g>
		<path class="st3" d="M22.1,92.7H9.2c0,0,0,0,0-0.1l0,0c0-3.5,2.9-6.3,6.4-6.4h6.5V92.7C22.1,92.8,22.1,92.8,22.1,92.7L22.1,92.7z"
			/>
		<g>
			<path class="st1" d="M33.4,54.9c-5.1,7.7-8.1,17.6-8.7,29.2c-2.7,0.5-5.4,0-7.7-1.4c0.8-14.5,4.9-27,16.4-37.1
				C33.4,48.7,33.8,51.2,33.4,54.9z"/>
			
				<ellipse transform="matrix(0.2987 -0.9543 0.9543 0.2987 -65.5486 78.2872)" class="st17" cx="20.5" cy="83.7" rx="3.3" ry="5.6"/>
			<path class="st18" d="M5.2,87.3l-0.1-0.6C5,86,5.2,85.3,5.8,85l0,0c0.4-0.2,0.9-0.4,1.4-0.4c0.6,0,1.2-0.1,1.7-0.1
				c1.1-0.1,2.3-0.4,3.3-0.8c2-0.8,4.1-0.9,6.1-0.3"/>
			<path class="st19" d="M10.9,85.5c-2.7,0.5-5.4,0.8-7.2,2.9c-0.4,0.4-0.5,1-0.5,1.5c0.1,0.7,0.6,1.2,1.2,1.4
				c0.5,0.2,1.1,0.2,1.7,0.1c0.9-0.2,1.8-0.5,2.7-1"/>
			<path class="st18" d="M13.2,86.4c-2.6,0.5-5.3,0.9-7.1,3.2c-0.4,0.4-0.5,1-0.4,1.6c0.1,0.7,0.6,1.2,1.3,1.3
				c0.5,0.2,1.1,0.2,1.7,0.1c0.9-0.2,1.8-0.5,2.6-1.1"/>
			<path class="st18" d="M22.3,84.4c2.1,0.7,3.3,1.7,3.8,3.1c0.5,1.6-0.4,3.2-2,3.7c-1.5,0.5-3.1,0.7-4.7,0.7c-1,0-1.9,0.2-2.7,0.7
				l-2.3,1.2c-0.9,0.5-1.9,0.5-2.8,0c-0.6-0.4-1-1.1-1-1.8c0-0.8,0.4-1.5,1-2c1.9-1.5,4.3-2.3,6.8-2.3"/>
		</g>
	</g>
	<path class="st20" d="M54.8,119.6c-0.4-0.9-0.7-1.8-1-2.7c-0.6-2.1-1.3-4.1-2.2-6.1l0,0c-1.3-2.2-2.8-4.2-4.4-6.2l-0.2-0.2
		c-0.3-0.4-0.5-0.8-0.8-1.2c-1.1-2.2-1-4.9,0.4-7c-1.7,0.2-3,1.5-3.3,3.2c-0.5,3.7,1.1,5.7,3,8.4c0.9,1.2,1.8,2.5,2.5,3.8
		c1.1,2.1,2.1,4.3,2.8,6.6c1.1,3.2,2,5.5,5,7.5c1.5,0.9,3.5,0.9,5,0C58.7,124.8,56.1,122.6,54.8,119.6z"/>
	<path d="M67.9,113c-0.8-1.6-1.9-3-3.3-4.2c-0.3-0.3-0.7-0.5-1.1-0.7c0.9-1.3,1.4-2.7,1.7-4.2c1.1,0.9,2.5,1.1,3.8,0.7
		c2.3-1.1,2.4-5.4,0.2-9.7c-2.1-4.3-5.6-6.8-7.9-5.6c-1.2,0.6-1.8,2-1.8,3.8c-4-2-8.9-1.1-12,2.1c-3.3,0.2-4.8,2.3-5,4.1
		c-0.3,1.9,0,3.9,0.9,5.6c0.7,1.2,1.4,2.4,2.3,3.5c0.9,1.2,1.8,2.4,2.5,3.7c1.1,2,2,4.2,2.8,6.4c1.1,3.2,2,5.8,5.3,8
		c1.5,1,3.4,1.1,5.1,0.5c0.7-0.3,1.4-0.6,2-1.1c0.9,0,1.7-0.2,2.5-0.6C69.4,123.4,70.4,117.9,67.9,113z M56.8,125.7
		c-3-2.1-3.8-4.3-5-7.5c-0.7-2.3-1.7-4.5-2.8-6.6c-0.8-1.3-1.6-2.6-2.6-3.8c-2-2.6-3.5-4.7-3-8.4c0.3-1.7,1.6-2.9,3.3-3.2
		c-1.4,2.1-1.6,4.8-0.4,7c0.2,0.4,0.5,0.8,0.8,1.2l0.2,0.2c1.6,2,3.1,4,4.4,6.2l0,0c0.8,2,1.5,4,2.2,6.1c0.3,0.9,0.6,1.8,1,2.7
		c1.3,3,3.9,5.2,7.1,6C60.2,126.5,58.3,126.5,56.8,125.7L56.8,125.7z"/>
	<path class="st21" d="M68.5,103.9c-0.9,0.5-2.2,0-3.4-1c-0.9-0.8-1.7-1.6-2.3-2.6c-0.1-0.2-0.4-0.3-0.6-0.1
		c-0.2,0.1-0.3,0.4-0.1,0.6c0.6,1,1.4,1.9,2.3,2.6c-0.2,1.6-0.7,3.1-1.6,4.4c-1.2-0.4-2.5-0.6-3.7-0.5c-0.3,0-0.5,0.1-0.5,0.4
		c0,0,0,0,0,0.1c0,0.2,0.2,0.4,0.4,0.5c0,0,0.1,0,0.1,0c1.8-0.2,3.6,0.3,5,1.3c1.3,1.1,2.3,2.4,3.1,3.9c2.2,4.5,1.5,9.4-1.7,11
		c-0.7,0.3-1.4,0.5-2.2,0.5h-0.1c-2.8,0-5.9-2.3-7.6-5.7c-0.4-0.8-0.7-1.7-1-2.5c-0.6-2.1-1.4-4.3-2.3-6.3c-1.3-2.2-2.8-4.3-4.4-6.3
		l-0.2-0.2c-1.9-2.3-1.8-5.7,0.3-7.9H48c3-3.2,7.7-3.9,11.5-1.7c0.1,0.7,0.2,1.4,0.4,2.1c0.1,0.2,0.3,0.4,0.5,0.3
		c0.2-0.1,0.3-0.2,0.3-0.4c0,0,0-0.1,0-0.1c-0.2-0.7-0.3-1.4-0.4-2.1v-0.1c-0.2-1.8,0.3-3.3,1.2-3.7c1.8-0.9,4.8,1.5,6.7,5.3
		C70.1,99.2,70.2,103.1,68.5,103.9z"/>
	<path class="st22" d="M63.6,97.6L63.6,97.6c-0.9-1.7-0.2-3.8,1.5-4.6c0,0,0,0,0,0l3.4-1.7c0.3-0.1,0.6,0,0.8,0.2c0,0,0,0,0,0l0,0
		l2.6,5.1c0.1,0.3,0,0.6-0.3,0.7l-3.4,1.7C66.5,100,64.4,99.3,63.6,97.6L63.6,97.6z"/>
	<path class="st20" d="M89.5,128.5c-1-0.1-2.1-0.2-3.1-0.3c-2.2-0.4-4.4-0.7-6.7-0.8h-0.1c-2.6,0.2-5.2,0.5-7.8,1.1h-0.3
		c-0.5,0.1-1,0.2-1.5,0.1c-2.6,0-5.1-1.4-6.4-3.7c-0.6,1.7,0,3.5,1.5,4.6c3.2,2.2,5.9,1.7,9.2,1.1c1.6-0.3,3.2-0.5,4.8-0.6
		c2.5-0.1,5,0.1,7.5,0.4c3.5,0.4,6,0.7,9.4-1.1c1.6-1,2.5-2.8,2.4-4.7C96.6,127.1,93.3,128.5,89.5,128.5z"/>
	<path class="st21" d="M89.5,114.2c-1.8,0-3.5,0.3-5.1,1l0,0c-1.7,0.9-2.9,2.3-3.6,4.1c-0.1,0.2-0.4,0.4-0.6,0.3c0,0,0,0,0,0
		c-0.2-0.1-0.4-0.4-0.3-0.6c0.5-1.2,1.3-2.4,2.2-3.3c-0.8-1.5-2-2.7-3.5-3.6c-1.1,0.5-2.3,0.8-3.5,0.9l0,0c-0.2,0-0.4-0.2-0.5-0.4
		c0-0.3,0.1-0.5,0.4-0.5c1.2-0.1,2.4-0.4,3.5-0.9l0,0c1.6-0.7,2.6-1.7,2.6-2.8c0-2-3.7-3.8-8-3.8s-8,1.7-8,3.8
		c0,1.1,1.1,2.2,2.9,2.9l0,0c0.7,0.3,1.5,0.5,2.2,0.6c0.3,0,0.5,0.2,0.4,0.5c0,0.3-0.2,0.5-0.5,0.4c0,0-0.1,0-0.1,0
		c-0.7-0.1-1.4-0.3-2.1-0.6c-3.8,2.6-5.3,7.3-3.7,11.6l0,0c1.1,2.9,4.2,4.6,7.2,4h0.3c2.7-0.6,5.4-0.9,8.1-1.1
		c2.3,0.2,4.6,0.4,6.9,0.8l0,0c0.9,0.2,1.9,0.3,2.8,0.3c3.9,0,7.5-1.8,8.9-4.4c0.4-0.7,0.6-1.5,0.6-2.4
		C99,117.2,94.8,114.2,89.5,114.2z"/>
	<path d="M89.5,113.1c-1.9,0-3.8,0.3-5.5,1.1c-0.4,0.2-0.8,0.4-1.2,0.7c-0.8-1.4-1.9-2.6-3.2-3.5c1.3-0.6,2.2-1.8,2.4-3.2
		c0-2.7-3.9-4.7-9-4.7s-9,2-9,4.7c0,1.4,1,2.6,2.8,3.4c-3.7,2.8-5.2,7.8-3.7,12.2c-1.4,3.2-0.1,5.5,1.5,6.6c1.6,1.2,3.6,1.8,5.6,1.8
		c1.5,0,2.9-0.2,4.3-0.5c1.5-0.3,3.1-0.5,4.6-0.6c2.5-0.1,4.9,0.1,7.3,0.4c3.5,0.4,6.3,0.8,9.9-1.2c1.6-1,2.7-2.7,2.8-4.6
		c0.1-0.8,0.1-1.5-0.1-2.3c0.4-0.8,0.6-1.7,0.6-2.6C99.9,116.6,95.3,113.1,89.5,113.1z M96.1,129.5c-3.3,1.9-5.9,1.6-9.4,1.1
		c-2.5-0.4-5-0.5-7.5-0.4c-1.6,0.1-3.2,0.3-4.8,0.6c-3.4,0.6-6,1.1-9.2-1.1c-1.4-1-2-2.9-1.5-4.6c1.6,2.7,4.7,4.2,7.8,3.5H72
		c2.6-0.6,5.2-1,7.8-1.2h0.1c2.2,0.2,4.5,0.4,6.7,0.8c1,0.2,2,0.3,3.1,0.3c3.4,0.1,6.7-1.2,9-3.8C98.6,126.7,97.7,128.5,96.1,129.5
		L96.1,129.5z M98.4,123.2c-1.4,2.6-5,4.4-8.9,4.4c-0.9-0.1-1.9-0.2-2.8-0.3l0,0c-2.3-0.4-4.6-0.7-7-0.8c-2.7,0.2-5.4,0.6-8,1.3
		l-0.3,0.1c-3.1,0.6-6.1-1-7.3-4v-0.1c-1.6-4.3,0-9.1,3.8-11.6c0.7,0.2,1.4,0.4,2.1,0.6c0.3,0,0.5-0.1,0.6-0.4
		c0.1-0.3-0.1-0.5-0.4-0.6c0,0,0,0,0,0c-0.8-0.1-1.5-0.3-2.2-0.6h-0.1c-1.8-0.7-2.9-1.8-2.9-2.9c0-2,3.7-3.8,8-3.8
		c4.3,0,8,1.7,8,3.8c0,1-1,2-2.6,2.8l0,0c-1.1,0.5-2.3,0.8-3.5,0.9c-0.3,0-0.4,0.3-0.4,0.5c0,0.2,0.2,0.4,0.5,0.4h0.1
		c1.2-0.1,2.4-0.4,3.5-0.9c1.5,0.9,2.7,2.1,3.5,3.6c-0.9,0.9-1.7,2.1-2.2,3.3c-0.1,0.2,0,0.5,0.3,0.6c0.2,0.1,0.5,0,0.6-0.3
		c0.6-1.8,1.9-3.2,3.6-4.1l0,0c1.6-0.7,3.4-1.1,5.1-1c5.2,0,9.5,3.1,9.5,6.8C99,121.7,98.8,122.5,98.4,123.2L98.4,123.2z"/>
	<path class="st23" d="M73.1,109.9L73.1,109.9c-2,0-3.6-1.6-3.6-3.6v-4c0-0.3,0.3-0.6,0.6-0.6l0,0h6c0.3,0,0.6,0.3,0.6,0.6l0,0l0,0
		v4C76.7,108.3,75.1,109.9,73.1,109.9z"/>
	<g>
		<path class="st0" d="M70,101.8c-0.3,0-0.6-0.3-0.6-0.6c0-8.8-1-14.2-2.8-16.3c-0.4-0.4-1-0.7-1.6-0.7c-0.1,0-0.3,0-0.4,0
			c-1.3,0.3-3,1-5.3,2.5c-0.1,0.1-0.2,0.1-0.3,0.1h-6c-0.2,0-0.4-0.1-0.5-0.3c-0.3-0.5-0.5-1.1-0.6-1.8c0,0,0-0.1,0-0.1
			c-0.1-0.8,0.3-1.7,1-2.3c4.8-4,9-6,12.9-6.1l0.2,0c2,0,3.9,0.8,5.2,2.3c1.7,1.9,2.9,4.2,3.4,6.7c1.2,4,1.7,10,2,15.9
			c0,0.2,0,0.3-0.2,0.4c-0.1,0.1-0.3,0.2-0.4,0.2H70z"/>
		<path d="M66.1,76.8c1.8,0,3.5,0.8,4.7,2.1c1.6,1.8,2.7,4,3.2,6.4c1.1,3.9,1.6,9.6,2,15.9h-6c0-8.2-0.8-14.3-3-16.7
			c-0.5-0.6-1.3-0.9-2-0.9c-0.2,0-0.4,0-0.6,0.1C62.9,84,61,85,59,86.3h-6c-0.3-0.5-0.4-1-0.5-1.6v-0.1c0-0.7,0.2-1.4,0.8-1.9
			c5-4.2,9.1-5.9,12.6-6C65.9,76.8,66,76.8,66.1,76.8 M66.1,75.6c-0.1,0-0.2,0-0.2,0c-4,0.1-8.4,2.2-13.3,6.3
			c-0.8,0.7-1.3,1.7-1.2,2.8v0c0,0,0,0.1,0,0.1c0.1,0.8,0.3,1.5,0.7,2.1c0.2,0.3,0.6,0.6,1,0.6h6c0.2,0,0.4-0.1,0.6-0.2
			c2.2-1.4,3.8-2.2,5.1-2.4c0.1,0,0.2,0,0.3,0c0.4,0,0.9,0.2,1.2,0.5c1.8,1.9,2.7,7.3,2.7,15.9c0,0.6,0.5,1.2,1.2,1.2h6
			c0.3,0,0.6-0.1,0.8-0.4c0.2-0.2,0.3-0.5,0.3-0.9c-0.4-5.9-0.8-12-2-16.1c-0.5-2.6-1.7-5-3.5-6.9C70.3,76.5,68.2,75.6,66.1,75.6
			L66.1,75.6z"/>
	</g>
</g>
</svg>
