<svg xmlns="http://www.w3.org/2000/svg" viewBox="0 0 108.63 140.08"><defs><style>.cls-1,.cls-16{fill:#f9b233;}.cls-1,.cls-11,.cls-13,.cls-14,.cls-17,.cls-18,.cls-2,.cls-20,.cls-22,.cls-23,.cls-24,.cls-25,.cls-26,.cls-27,.cls-28,.cls-29,.cls-30,.cls-4,.cls-5,.cls-6,.cls-7,.cls-8{stroke:#000;}.cls-1,.cls-17,.cls-23,.cls-5,.cls-6,.cls-7,.cls-8{stroke-linecap:round;}.cls-1,.cls-17,.cls-5,.cls-6,.cls-7,.cls-8{stroke-linejoin:round;}.cls-1{stroke-width:1.16px;}.cls-11,.cls-2,.cls-27,.cls-28,.cls-3,.cls-30,.cls-4,.cls-6,.cls-7,.cls-8{fill:#fff;}.cls-13,.cls-14,.cls-18,.cls-2,.cls-20,.cls-21,.cls-22,.cls-23,.cls-24,.cls-25,.cls-26,.cls-27,.cls-28,.cls-29,.cls-30,.cls-4{stroke-miterlimit:10;}.cls-2{stroke-width:0.61px;}.cls-4{stroke-width:0.46px;}.cls-15,.cls-5{fill:#d88500;}.cls-5{stroke-width:0.76px;}.cls-6{stroke-width:0.73px;}.cls-7{stroke-width:0.69px;}.cls-8{stroke-width:0.61px;}.cls-9{fill:#e5e5e5;}.cls-10{fill:#760dc9;}.cls-11{stroke-miterlimit:10;stroke-width:0.86px;}.cls-12{fill:#fbccac;}.cls-13{fill:#ff7bac;}.cls-13,.cls-14,.cls-22,.cls-23{stroke-width:1.2px;}.cls-14{fill:#ccc;}.cls-17{stroke-width:0.01px;}.cls-18,.cls-19,.cls-20,.cls-21,.cls-22,.cls-23{fill:none;}.cls-18,.cls-28{stroke-width:0.6px;}.cls-20{stroke-width:0.9px;}.cls-21{stroke:#bf720c;stroke-width:0.48px;}.cls-24{fill:#abd6bd;stroke-width:0.23px;}.cls-25{fill:#ffd18f;stroke-width:0.45px;}.cls-26,.cls-27{stroke-width:0.02px;}.cls-29{stroke-width:0.07px;}.cls-30{stroke-width:0.86px;}</style></defs><title>lcp</title><g id="Layer_2" data-name="Layer 2"><g id="Layer_1-2" data-name="Layer 1"><path class="cls-1" d="M52.22,60,48,66a34.28,34.28,0,0,0,11.58,4.74,49,49,0,0,0,13.12,1.2,59.68,59.68,0,0,0,14.78-2.54l-2-7.15c-8.48,2.6-16.53,3.07-24,1.41A29.06,29.06,0,0,1,52.22,60Z"/><path class="cls-2" d="M86.77,58.22s-3.41-.09-3.15,4.7c.3,5.55,7.06,10.58,9.1,5.42Z"/><ellipse class="cls-3" cx="93.74" cy="62.65" rx="5.81" ry="5.69" transform="translate(-17.93 47.08) rotate(-25.82)"/><path class="cls-3" d="M98.27,67.71a6.74,6.74,0,0,1-3,1.57A4.32,4.32,0,0,1,92.41,69h0A6.39,6.39,0,0,1,90.07,67l-.7-1"/><path d="M98.06,67.51c-1.45,1.3-3.65,2.08-5.51,1.2a8,8,0,0,1-2.93-2.8c-.21-.29-.71,0-.49.29a8.23,8.23,0,0,0,3.41,3.13,5.82,5.82,0,0,0,5.93-1.42c.28-.24-.13-.65-.41-.4Z"/><path class="cls-4" d="M101.08,61.15a3.33,3.33,0,0,1,3,1.75,2.05,2.05,0,0,1,.16,1.42,3.42,3.42,0,0,1-.78,1.46,4.58,4.58,0,0,1-.71.61c-.25.18-.49.33-.72.47a6.55,6.55,0,0,1-3.14.89h0a4,4,0,0,1-2.07-.53l-.16-.09A1.81,1.81,0,0,1,95.82,66h0a1.29,1.29,0,0,1,.3-1.14l.07-.09a4.38,4.38,0,0,1,2.63-1.45l2.5-.4a0,0,0,0,0,0-.08l-2.87-.42a.07.07,0,0,1,0-.13Z"/><path class="cls-4" d="M99.86,56.56a3.59,3.59,0,0,1,3.43,1.61,2.29,2.29,0,0,1,.32,1.53,3.65,3.65,0,0,1-.72,1.65,4.53,4.53,0,0,1-.71.74c-.25.21-.5.4-.73.57a7,7,0,0,1-3.33,1.27h0a4.38,4.38,0,0,1-2.29-.38l-.19-.08a2,2,0,0,1-1-1.19h0A1.41,1.41,0,0,1,94.81,61l.07-.11a4.87,4.87,0,0,1,2.71-1.82l2.69-.66a.05.05,0,0,0,0-.1l-3.16-.18a.07.07,0,0,1,0-.14Z"/><path class="cls-2" d="M94.82,54.13l6.1-3.37,3.89-2.14a2.52,2.52,0,0,1,3.25.71v0c.54,1.17.18,2.37-.84,3.6-2.73,2.78-6.35,4.19-10.07,5.44Z"/><path class="cls-3" d="M88,63.26c-1-2.37-2.21-4.65,1.13-8.35,1.49-1.62,3-2.26,4.49-1.95a2.5,2.5,0,0,1,1.47.9,9.81,9.81,0,0,1,1.27,2,5.41,5.41,0,0,0,1.33,1.71,5,5,0,0,1,.64.67,2.1,2.1,0,0,1,0,2.59,2.14,2.14,0,0,1-2.16.87,4.07,4.07,0,0,1-2.07-.95,5.85,5.85,0,0,1-1.91-3.5l1.13,3.56.07.16a1.08,1.08,0,0,1,0,.76,2.72,2.72,0,0,1-1,1.53l-1.1.83"/><path d="M88.27,63.18a9.13,9.13,0,0,1-1-4A7.72,7.72,0,0,1,90.61,54a3.79,3.79,0,0,1,2.92-.74c1.2.26,1.92,1.47,2.44,2.48a8,8,0,0,0,.75,1.22c.37.46.83.81,1.22,1.25a1.93,1.93,0,0,1-.67,3.07c-1.13.48-2.51-.24-3.3-1a5.91,5.91,0,0,1-1.55-3.1l-.55.15,1,3.2c0,.11.07.24.11.35a1.72,1.72,0,0,1-.48,1.83A12,12,0,0,1,91.1,63.8c-.3.22,0,.72.29.49,1.22-.92,2.76-2,2.14-3.71-.41-1.13-.74-2.3-1.11-3.45a.29.29,0,0,0-.55.15c.44,2.26,2.09,4.63,4.61,4.68a2.51,2.51,0,0,0,2.41-1.68c.46-1.28-.26-2.25-1.14-3.09s-1.47-2.29-2.33-3.37a3.21,3.21,0,0,0-3.09-1.18,5.68,5.68,0,0,0-3.11,1.76A9.58,9.58,0,0,0,87,57.64c-.76,2-.05,3.83.71,5.7.13.34.69.19.55-.16Z"/><g id="Layer_2-2" data-name="Layer 2"><g id="personaje"><path class="cls-5" d="M28,66.56C23.15,73.78,21,83.3,20.48,94.22a10.33,10.33,0,0,1-7.27-1.29c.77-13.65,4.65-25.54,12.89-35C29.07,60.39,29.63,63.29,28,66.56Z"/><ellipse class="cls-6" cx="16.51" cy="93.9" rx="3.12" ry="5.3" transform="translate(-78.04 81.61) rotate(-72.62)"/><path class="cls-3" d="M18,99.55H5.85a.06.06,0,0,1,0-.06h0a6.06,6.06,0,0,1,6-6H18v6.06a.06.06,0,0,1-.06.06Z"/><path class="cls-7" d="M2.09,97.26,2,96.65a1.44,1.44,0,0,1,.67-1.56h0a2.79,2.79,0,0,1,1.3-.36,14,14,0,0,0,1.63-.12,12.58,12.58,0,0,0,3.13-.77,8.79,8.79,0,0,1,5.79-.29"/><path class="cls-8" d="M7.51,95.53C5,96,2.45,96.26.77,98.27a1.84,1.84,0,0,0-.45,1.44A1.49,1.49,0,0,0,1.47,101a3.48,3.48,0,0,0,1.6.13,7.25,7.25,0,0,0,2.51-.93"/><path class="cls-7" d="M9.66,96.38c-2.49.49-5,.88-6.68,3a1.93,1.93,0,0,0-.41,1.48,1.56,1.56,0,0,0,1.19,1.25,3.34,3.34,0,0,0,1.6.09,7.22,7.22,0,0,0,2.49-1"/><path class="cls-7" d="M18.24,94.48c1.94.67,3.15,1.63,3.54,2.9a2.78,2.78,0,0,1-1.86,3.45,13.27,13.27,0,0,1-4.47.65,5.68,5.68,0,0,0-2.59.62l-2.21,1.14a2.7,2.7,0,0,1-2.6,0,1.87,1.87,0,0,1-.93-1.73,2.7,2.7,0,0,1,.93-1.93,10.1,10.1,0,0,1,6.41-2.15"/><path class="cls-5" d="M49.22,96c-1.69-1.86-1.39-5-1.39-5l2.52-1.86s8-.57,10.52,2.45A3.84,3.84,0,0,1,61.63,95c-1.6,6.21-8.8,10.74-18,14.67A3.46,3.46,0,0,1,39.18,108l-.14-.28a3,3,0,0,1,1.39-4.08l.33-.14c6.28-2.13,11.45-5,13.6-9.57C53,95.31,49.77,95.66,49.22,96Z"/><path class="cls-9" d="M31.48,129.16a23.31,23.31,0,0,1-.93-2.58,60.41,60.41,0,0,0-2.06-5.79h0a49.89,49.89,0,0,0-4.15-5.88l-.15-.21a6.36,6.36,0,0,1-.72-1.13,6.65,6.65,0,0,1,.4-6.69,3.67,3.67,0,0,0-3.12,3.05c-.48,3.49,1,5.46,2.86,7.95A32.3,32.3,0,0,1,26,121.47a39.3,39.3,0,0,1,2.7,6.25c1.07,3,1.86,5.2,4.72,7.16a4.67,4.67,0,0,0,4.76,0A10.37,10.37,0,0,1,31.48,129.16Z"/><path class="cls-10" d="M43.25,123.27a11.08,11.08,0,0,0-2.93-3.72h0a6.71,6.71,0,0,0-4.79-1.25.43.43,0,0,1-.49-.37.42.42,0,0,1,.37-.49h.12a9.28,9.28,0,0,1,3.55.44,8.93,8.93,0,0,0,1.59-4.28,12,12,0,0,1-2.16-2.5h0a.43.43,0,0,1,.74-.44,11.67,11.67,0,0,0,2.14,2.45h0c1.22,1,2.43,1.39,3.29.93,1.66-.84,1.58-4.53-.2-8.06s-4.65-5.83-6.35-5c-.93.47-1.32,1.81-1.16,3.56v.07a10.33,10.33,0,0,0,.38,2,.43.43,0,0,1-.29.53.44.44,0,0,1-.53-.29h0a11.84,11.84,0,0,1-.4-2,9,9,0,0,0-11,1.71h-.05a5.79,5.79,0,0,0-.26,7.51l.16.21a49.34,49.34,0,0,1,4.23,6,57.32,57.32,0,0,1,2.14,6h0q.41,1.23.93,2.43c1.6,3.19,4.49,5.35,7.2,5.4a4.6,4.6,0,0,0,2.16-.47C44.64,132.19,45.38,127.51,43.25,123.27Z"/><path d="M44,122.88a12.14,12.14,0,0,0-3.1-4,4.52,4.52,0,0,0-1.06-.67,9.65,9.65,0,0,0,1.57-4,3.67,3.67,0,0,0,3.61.62c2.16-1.09,2.24-5.13.2-9.23s-5.35-6.44-7.51-5.35c-1.1.54-1.67,1.86-1.67,3.64a9.89,9.89,0,0,0-11.41,2c-3.12.2-4.52,2.21-4.75,3.9a8.5,8.5,0,0,0,.83,5.29,23.25,23.25,0,0,0,2.18,3.3,31.15,31.15,0,0,1,2.38,3.53A36.21,36.21,0,0,1,27.9,128c1.09,3.05,1.94,5.47,5.05,7.58a5.23,5.23,0,0,0,4.84.43,7.05,7.05,0,0,0,1.86-1,5.38,5.38,0,0,0,2.39-.56C45.44,132.75,46.35,127.55,44,122.88Zm-10.6,12c-2.87-2-3.64-4.13-4.72-7.16A38.5,38.5,0,0,0,26,121.47a32.51,32.51,0,0,0-2.45-3.63c-1.86-2.49-3.34-4.46-2.85-8a3.66,3.66,0,0,1,3.11-3,6.65,6.65,0,0,0-.4,6.69,6.36,6.36,0,0,0,.72,1.13l.16.22a50.16,50.16,0,0,1,4.14,5.88h0a59.27,59.27,0,0,1,2.06,5.78,24.23,24.23,0,0,0,.93,2.59,10.38,10.38,0,0,0,6.73,5.74A4.69,4.69,0,0,1,33.42,134.87Zm6-.69c-2.71-.05-5.58-2.22-7.2-5.41-.35-.79-.66-1.6-.93-2.42h0a57.49,57.49,0,0,0-2.14-6,49.23,49.23,0,0,0-4.23-6l-.16-.22a5.78,5.78,0,0,1,.26-7.5h.05A9,9,0,0,1,36,105a12,12,0,0,0,.4,2,.43.43,0,0,0,.52.3h0a.43.43,0,0,0,.29-.53,11,11,0,0,1-.39-2v-.06c-.15-1.76.25-3.1,1.17-3.56,1.67-.84,4.58,1.44,6.35,5s1.86,7.23.19,8.06c-.85.43-2.06,0-3.28-.93h0a11.2,11.2,0,0,1-2.15-2.5.44.44,0,0,0-.59-.12.43.43,0,0,0-.15.56h0a12,12,0,0,0,2.16,2.5A8.93,8.93,0,0,1,39,117.9a9.31,9.31,0,0,0-3.55-.45.43.43,0,0,0-.49.37.44.44,0,0,0,.36.5.28.28,0,0,0,.13,0,6.71,6.71,0,0,1,4.79,1.25h0a10.93,10.93,0,0,1,2.92,3.72c2.13,4.24,1.39,8.92-1.64,10.44a4.6,4.6,0,0,1-2.06.46Z"/><path class="cls-11" d="M39.88,108.21h0a3.27,3.27,0,0,1,1.46-4.39l3.27-1.64a.54.54,0,0,1,.73.24h0l2.45,4.89a.55.55,0,0,1-.26.69l-3.27,1.64a3.28,3.28,0,0,1-4.4-1.46Z"/><polygon class="cls-12" points="24.36 20.48 28.95 25.09 33.43 20.48 37.91 25.09 42.4 20.48 46.88 25.09 51.44 20.48 37.92 1.05 24.36 20.48"/><path class="cls-13" d="M24.83,94.69a11.72,11.72,0,0,0,2.42,4.65c3.88,4.52,9.85,4.22,10.65,4.17a14.39,14.39,0,0,0,10.23-4.12,13.42,13.42,0,0,0,2.94-4.65Z"/><path class="cls-14" d="M24.6,83.33V93.79c0,.26.11.57.2.93H51c.15-.41.26-.78.35-1.1V83.39Z"/><path class="cls-15" d="M24.36,20.46v8.09s.19,36.52.24,54.78h8.88V20.46L29,25.11Z"/><polygon class="cls-15" points="42.42 20.46 42.42 83.31 51.38 83.31 51.46 28.53 51.46 20.46 46.9 25.07 42.42 20.46"/><polygon class="cls-16" points="33.43 20.48 33.43 83.33 42.4 83.33 42.4 20.48 37.91 25.09 33.43 20.48"/><path class="cls-17" d="M40.92,5.51a4.3,4.3,0,0,1-5.8,0L38,1.05Z"/><line class="cls-18" x1="51.37" y1="85.42" x2="24.43" y2="85.42"/><line class="cls-18" x1="51.37" y1="92.71" x2="24.43" y2="92.71"/><line class="cls-19" x1="33.43" y1="20.48" x2="33.43" y2="20.44"/><line class="cls-20" x1="42.4" y1="83.33" x2="42.4" y2="83.33"/><line class="cls-20" x1="42.4" y1="20.48" x2="42.4" y2="20.47"/><line class="cls-21" x1="33.43" y1="20.44" x2="33.43" y2="83.33"/><line class="cls-21" x1="42.4" y1="20.51" x2="42.4" y2="83.33"/><path class="cls-22" d="M24.36,20.46,37.92,1.05,51.44,20.46v8.09l-.07,54.78H24.6c-.05-18.22-.24-54.78-.24-54.78Z"/><polyline class="cls-22" points="51.44 20.48 46.88 25.09 42.4 20.48 37.9 25.09 33.43 20.48 28.95 25.09 24.36 20.48"/><path class="cls-23" d="M54.5,35.39s-3-3.08-5.8,0"/><path class="cls-23" d="M38.43,35.39s-3-3.08-5.81,0"/><path class="cls-24" d="M43.63,60.46a.33.33,0,0,0,0,.14Z"/><path class="cls-25" d="M33.33,58.25a3,3,0,0,1,4.07-.75A11.56,11.56,0,0,0,41.54,59,12.2,12.2,0,0,0,43,59.1h1.21A12,12,0,0,0,45.69,59a11.72,11.72,0,0,0,4.11-1.44,2.94,2.94,0,1,1,3.35,4.83A17.31,17.31,0,0,1,43.61,65a17.4,17.4,0,0,1-9.55-2.68A3,3,0,0,1,33.33,58.25Zm1.47,3a16.2,16.2,0,0,0,8.81,2.43,16.19,16.19,0,0,0,8.8-2.43,1.64,1.64,0,0,0-1.86-2.7,12.3,12.3,0,0,1-4,1.54,13.76,13.76,0,0,1-2.79.29h0a14.51,14.51,0,0,1-2.79-.28,12.5,12.5,0,0,1-4.23-1.53,1.65,1.65,0,1,0-2.06,2.57l.2.13Z"/><path class="cls-26" d="M34.8,61.28a16.2,16.2,0,0,0,8.81,2.43,16.19,16.19,0,0,0,8.8-2.43,1.64,1.64,0,0,0-1.86-2.7,12.3,12.3,0,0,1-4,1.54,3.23,3.23,0,0,1,0,.44,1.48,1.48,0,1,1-2.88,0,1.48,1.48,0,1,1-2.89,0,2,2,0,0,1,.05-.43,12.27,12.27,0,0,1-4.09-1.53,1.65,1.65,0,1,0-2.06,2.57l.2.13Z"/><path class="cls-26" d="M43.61,60.46v.14A.33.33,0,0,1,43.61,60.46Z"/><path class="cls-27" d="M43.62,60.56a1.48,1.48,0,1,0,2.88,0,3.23,3.23,0,0,0,0-.44,13.76,13.76,0,0,1-2.79.29A.6.6,0,0,0,43.62,60.56Z"/><path class="cls-27" d="M40.73,60.56a1.48,1.48,0,1,0,2.89,0v-.15h0a14.51,14.51,0,0,1-2.79-.28A2.07,2.07,0,0,0,40.73,60.56Z"/><ellipse class="cls-28" cx="50.55" cy="46.38" rx="5.55" ry="8.22"/><ellipse class="cls-29" cx="53.4" cy="45.52" rx="2.86" ry="4.23"/><circle class="cls-3" cx="54.57" cy="43.97" r="1.1"/><ellipse class="cls-28" cx="35.71" cy="45.96" rx="5.55" ry="8.22"/><ellipse class="cls-29" cx="38.41" cy="45.55" rx="2.86" ry="4.23"/><circle class="cls-3" cx="39.51" cy="44" r="1.1"/><path class="cls-5" d="M28.27,97.37V97.3a2.24,2.24,0,0,1,.78-1.86c5-4.18,9.05-5.89,12.58-6a6.31,6.31,0,0,1,4.93,2.13A13.75,13.75,0,0,1,49.79,98c1.13,3.87,1.63,9.62,2,15.86h-6c0-8.17-.8-14.3-3-16.66a2.78,2.78,0,0,0-2.6-.83c-2,.39-4.49,1.86-7.22,3.72C31,101.31,28.47,99.88,28.27,97.37Z"/><path class="cls-9" d="M63.79,136.73a26.14,26.14,0,0,1-2.79-.3,56.39,56.39,0,0,0-6.08-.75h-.05a47.05,47.05,0,0,0-7.08,1l-.26,0a6,6,0,0,1-1.34.13,6.64,6.64,0,0,1-5.79-3.35,3.65,3.65,0,0,0,1.33,4.15c2.9,2,5.32,1.57,8.37,1a30.18,30.18,0,0,1,4.33-.56,37.8,37.8,0,0,1,6.81.38c3.18.4,5.48.68,8.51-1a4.65,4.65,0,0,0,2.16-4.25C70.25,135.43,67.2,136.73,63.79,136.73Z"/><path class="cls-10" d="M63.79,123.57a11.27,11.27,0,0,0-4.65.93h0a6.81,6.81,0,0,0-3.26,3.72.43.43,0,0,1-.56.24.44.44,0,0,1-.23-.57,9.17,9.17,0,0,1,2-3,9,9,0,0,0-3.14-3.29,11.76,11.76,0,0,1-3.2.81h0a.44.44,0,0,1-.43-.38.43.43,0,0,1,.37-.48,11.37,11.37,0,0,0,3.14-.82h0c1.44-.65,2.33-1.55,2.33-2.51,0-1.86-3.35-3.44-7.3-3.44s-7.29,1.58-7.29,3.44c0,1,1,2,2.65,2.65h0a11.06,11.06,0,0,0,2,.54.43.43,0,1,1-.16.84,11.7,11.7,0,0,1-1.93-.52,9,9,0,0,0-3.4,10.55v0a5.77,5.77,0,0,0,6.58,3.6l.26,0a49.25,49.25,0,0,1,7.35-1,57.75,57.75,0,0,1,6.29.77h0c.85.14,1.71.23,2.58.29,3.56,0,6.79-1.61,8.05-4a4.49,4.49,0,0,0,.55-2.15C72.4,126.34,68.54,123.57,63.79,123.57Z"/><path d="M63.79,122.72a12.08,12.08,0,0,0-5,1,5.51,5.51,0,0,0-1.07.64,10,10,0,0,0-2.89-3.21,3.61,3.61,0,0,0,2.18-2.94c0-2.41-3.58-4.31-8.16-4.31s-8.16,1.86-8.16,4.31c0,1.23.93,2.34,2.52,3.13a9.83,9.83,0,0,0-3.35,11.08c-1.24,2.88-.06,5,1.35,6a8.55,8.55,0,0,0,5.1,1.62,22.45,22.45,0,0,0,3.92-.47,29.89,29.89,0,0,1,4.22-.55,38,38,0,0,1,6.66.38c3.22.4,5.76.72,9-1.11a5.25,5.25,0,0,0,2.55-4.14,7.11,7.11,0,0,0-.06-2.06,5.36,5.36,0,0,0,.57-2.39C73.25,125.86,69,122.72,63.79,122.72Zm6,14.88c-3,1.69-5.33,1.41-8.51,1a39.73,39.73,0,0,0-6.81-.38,31.66,31.66,0,0,0-4.33.56c-3.07.55-5.49,1-8.37-1a3.66,3.66,0,0,1-1.33-4.15,6.72,6.72,0,0,0,7.13,3.22l.26,0a49.61,49.61,0,0,1,7.06-1.11h.05a59,59,0,0,1,6.08.76,23.77,23.77,0,0,0,2.79.29,10.36,10.36,0,0,0,8.14-3.43,4.64,4.64,0,0,1-2.18,4.25Zm2.08-5.68c-1.26,2.4-4.5,4-8.06,4-.86-.06-1.72-.15-2.57-.29h0a58.85,58.85,0,0,0-6.35-.77A49.75,49.75,0,0,0,47.59,136l-.26.06a5.8,5.8,0,0,1-6.59-3.6v-.06a9,9,0,0,1,3.41-10.54,12.66,12.66,0,0,0,1.92.52.44.44,0,0,0,.51-.34.43.43,0,0,0-.34-.51,10.83,10.83,0,0,1-2-.54h-.06c-1.64-.64-2.65-1.61-2.65-2.64,0-1.86,3.34-3.44,7.29-3.44s7.3,1.57,7.3,3.44c0,.93-.93,1.86-2.32,2.5h0a11,11,0,0,1-3.15.83.43.43,0,0,0-.37.47.45.45,0,0,0,.43.39h.05a12.23,12.23,0,0,0,3.2-.81A8.84,8.84,0,0,1,57.12,125a9.18,9.18,0,0,0-2,3,.45.45,0,0,0,.23.57.43.43,0,0,0,.56-.23,6.76,6.76,0,0,1,3.27-3.72h0a11.08,11.08,0,0,1,4.65-.93c4.74,0,8.6,2.79,8.6,6.15a4.63,4.63,0,0,1-.59,2Z"/><path class="cls-30" d="M48.84,119.84h0a3.27,3.27,0,0,1-3.25-3.27v-3.66a.54.54,0,0,1,.54-.54h5.44a.54.54,0,0,1,.54.54h0v3.66A3.27,3.27,0,0,1,48.84,119.84Z"/></g></g></g></g></svg>