<?xml version="1.0" encoding="utf-8"?>
<!-- Generator: Adobe Illustrator 24.0.2, SVG Export Plug-In . SVG Version: 6.00 Build 0)  -->
<svg version="1.1" id="Layer_1" xmlns="http://www.w3.org/2000/svg" xmlns:xlink="http://www.w3.org/1999/xlink" x="0px" y="0px"
	 viewBox="0 0 159.6 554.6" style="enable-background:new 0 0 159.6 554.6;" xml:space="preserve">
<style type="text/css">
	.st0{fill:none;}
	.st1{fill:#858C02;}
	.st2{fill:#640C19;}
	.st3{fill:#FBB047;}
	.st4{clip-path:url(#SVGID_2_);}
	.st5{fill:#E7E800;}
	.st6{clip-path:url(#SVGID_4_);}
	.st7{fill:#EEBE82;}
	.st8{fill:#1D1D1B;}
	.st9{fill:#FBC96B;}
	.st10{clip-path:url(#SVGID_6_);}
	.st11{fill:#F08F34;}
	.st12{fill:#F19034;}
	.st13{fill:#F19233;}
	.st14{fill:#F19333;}
	.st15{fill:#F19433;}
	.st16{fill:#F29632;}
	.st17{fill:#F29732;}
	.st18{fill:#F29831;}
	.st19{fill:#F29931;}
	.st20{fill:#F39A30;}
	.st21{fill:#F39C2F;}
	.st22{fill:#F39D2F;}
	.st23{fill:#F39E2E;}
	.st24{fill:#F49F2E;}
	.st25{fill:#F4A02D;}
	.st26{fill:#F4A12D;}
	.st27{fill:#F4A22C;}
	.st28{fill:#F5A42C;}
	.st29{fill:#F5A52B;}
	.st30{fill:#F5A62B;}
	.st31{fill:#F5A72A;}
	.st32{fill:#F5A829;}
	.st33{fill:#F6A929;}
	.st34{fill:#F6AA28;}
	.st35{fill:#F6AB28;}
	.st36{fill:#F6AC27;}
	.st37{fill:#F7AD26;}
	.st38{fill:#F7AE26;}
	.st39{fill:#F7AF25;}
	.st40{fill:#F7B024;}
	.st41{fill:#F7B124;}
	.st42{fill:#F8B123;}
	.st43{fill:#F8B223;}
	.st44{fill:#F8B322;}
	.st45{fill:#F8B421;}
	.st46{fill:#F8B521;}
	.st47{fill:#F9B620;}
	.st48{fill:#F9B71F;}
	.st49{fill:#F9B81E;}
	.st50{fill:#F9B91D;}
	.st51{fill:#FABA1D;}
	.st52{fill:#FABA1C;}
	.st53{fill:#FABB1C;}
	.st54{fill:#FABC1B;}
	.st55{fill:#FABC1A;}
	.st56{fill:#FABD1A;}
	.st57{fill:#FABE19;}
	.st58{fill:#FBBE19;}
	.st59{fill:#FBBF18;}
	.st60{fill:#FBBF17;}
	.st61{fill:#FBC017;}
	.st62{fill:#FBC016;}
	.st63{fill:#FBC116;}
	.st64{fill:#FBC115;}
	.st65{fill:#FBC214;}
	.st66{fill:#FCC214;}
	.st67{fill:#FCC313;}
	.st68{fill:#FCC412;}
	.st69{fill:#FCC411;}
	.st70{fill:#FCC511;}
	.st71{fill:#FCC510;}
	.st72{fill:#FCC60F;}
	.st73{fill:#FDC60F;}
	.st74{fill:#FDC60E;}
	.st75{fill:#FDC70E;}
	.st76{fill:#FDC70D;}
	.st77{fill:#FDC70C;}
	.st78{fill:#FCC314;}
	.st79{fill:#FBC215;}
	.st80{fill:#FABD19;}
	.st81{fill:#FABB1B;}
	.st82{fill:#F8B520;}
	.st83{fill:#F8B222;}
	.st84{fill:#F6AD26;}
	.st85{fill:#F6A928;}
	.st86{fill:#F6A829;}
	.st87{fill:#F5A62A;}
	.st88{fill:#F5A42B;}
	.st89{fill:#F4A32C;}
	.st90{fill:#F4A22D;}
	.st91{fill:#F39B30;}
	.st92{fill:#F29731;}
	.st93{fill:#F19532;}
	.st94{fill:#F19134;}
	.st95{fill:#2D2E2D;}
	.st96{fill:#EB6DA4;}
	.st97{fill:#EEA620;}
	.st98{clip-path:url(#SVGID_8_);}
	.st99{clip-path:url(#SVGID_10_);}
	.st100{clip-path:url(#SVGID_12_);}
</style>
<title>barraderecha</title>
<g>
	<g id="Layer_1_1_">
		
			<image style="overflow:visible;opacity:0.4;enable-background:new    ;" width="683" height="479" xlink:href="FECF8127.png"  transform="matrix(0.24 0 0 0.24 -0.37 0)">
		</image>
		<line class="st0" x1="48.8" y1="20.3" x2="26.1" y2="27.1"/>
		<path class="st1" d="M17.9,28.3c-0.7-3.4,1.6-6.8,5.4-7.9L46,13.5c4.3-1.3,9.1,0.6,10.6,4.4s-0.7,7.8-5,9.1l-22.8,6.9
			c-4.3,1.3-9.1-0.6-10.6-4.4C18.1,29.1,18,28.7,17.9,28.3z"/>
		<line class="st0" x1="52.8" y1="20.9" x2="32.5" y2="35.8"/>
		<path class="st1" d="M24.3,37c-0.5-2.6,0.6-5.2,2.8-6.6l20.2-14.9c3.6-2.6,8.5-2.2,11.7,0.8c2.6,2.5,2.7,6.6,0.2,9.1
			c-0.3,0.3-0.7,0.7-1.1,0.9L37.9,41.2c-3.6,2.6-8.5,2.2-11.7-0.8C25.3,39.5,24.6,38.3,24.3,37z"/>
		<line class="st0" x1="42" y1="23.3" x2="39.4" y2="44.4"/>
		<path class="st2" d="M39.4,45c0.4,0,0.7-0.2,0.8-0.6l2.6-21.1c0-0.4-0.3-0.7-0.7-0.7c0,0,0,0,0,0c-0.4-0.1-0.8,0.2-0.9,0.6
			l-2.6,21.1C38.6,44.7,38.9,45,39.4,45C39.3,45,39.3,45,39.4,45L39.4,45z"/>
		<path class="st1" d="M32.9,45.3c-0.1-0.7-0.2-1.3-0.1-2l2.6-21.1c0.5-3.9,4.6-6.8,9.2-6.3s7.9,3.9,7.4,7.9l-2.6,21.2
			c-0.5,3.9-4.6,6.8-9.2,6.3C36.4,50.9,33.5,48.4,32.9,45.3z"/>
		<path class="st3" d="M55.4,11c-0.6-0.1-15.4,12.3-15.4,12.3l11.6,26.3c0,0,17.4-0.3,17.7-0.8s10.2-17,10.3-17.6S55.4,11,55.4,11z"
			/>
		<g>
			<defs>
				<path id="SVGID_1_" d="M74.7,38.1L56,19.9l-30.8-3.5c-3.7-0.4-6.5-2.9-7.1-5.9c-0.1-0.7-0.2-1.4,0-2.1c0.6-3.9,4.8-6.7,9.3-6.2
					l30.8,3.5c3.8,0.4,7.4,2,10.2,4.7l18.8,18.3c3.2,2.9,4.6,7.3,3.9,11.6L74.7,38.1z"/>
			</defs>
			<clipPath id="SVGID_2_">
				<use xlink:href="#SVGID_1_"  style="overflow:visible;"/>
			</clipPath>
			<g class="st4">
				<rect x="69.8" y="-59.2" class="st0" width="61.9" height="89.3"/>
				<rect x="69.8" y="-59.2" class="st5" width="61.9" height="89.3"/>
				<rect x="69.8" y="30.1" class="st0" width="61.9" height="89.3"/>
				<rect x="69.8" y="30.1" class="st5" width="61.9" height="89.3"/>
				<rect x="7.9" y="-59.2" class="st0" width="61.9" height="89.3"/>
				<rect x="7.9" y="-59.2" class="st5" width="61.9" height="89.3"/>
				<rect x="7.9" y="30.1" class="st0" width="61.9" height="89.3"/>
				<rect x="7.9" y="30.1" class="st5" width="61.9" height="89.3"/>
			</g>
		</g>
		<g>
			<defs>
				<path id="SVGID_3_" d="M58.9,91l22.7,1.3l7.3-38.8c0.6-3,2.4-10.4,1.5-13.3l-5.1-5.4l-23.1,5.4L58.9,91z"/>
			</defs>
			<clipPath id="SVGID_4_">
				<use xlink:href="#SVGID_3_"  style="overflow:visible;"/>
			</clipPath>
			<g class="st6">
				<rect x="69.8" y="30.1" class="st0" width="61.9" height="89.3"/>
				<rect x="69.8" y="30.1" class="st5" width="61.9" height="89.3"/>
				<rect x="7.9" y="30.1" class="st0" width="61.9" height="89.3"/>
				<rect x="7.9" y="30.1" class="st5" width="61.9" height="89.3"/>
			</g>
		</g>
		<line class="st0" x1="30.3" y1="17.5" x2="51.1" y2="46.9"/>
		<path class="st2" d="M51.1,47.6c0.1,0,0.3,0,0.4-0.1c0.3-0.1,0.5-0.5,0.3-0.8c0,0,0-0.1-0.1-0.1L30.9,17.1
			c-0.3-0.3-0.7-0.4-1.1-0.2c-0.3,0.1-0.5,0.5-0.3,0.8c0,0,0,0.1,0.1,0.1l20.9,29.4C50.6,47.5,50.9,47.6,51.1,47.6z"/>
		<polygon class="st7" points="19.3,23.8 24.7,20.3 27.2,13.5 25.4,7.3 11,7.8 8.6,14.1 		"/>
		<path class="st8" d="M19.3,24.1l-10.9-10l2.5-6.6l14.8-0.4l1.9,6.4l-2.6,6.9L19.3,24.1z M8.9,14l10.5,9.5l5.2-3.4l2.5-6.7
			l-1.7-5.9L11.1,8L8.9,14z"/>
		<path class="st8" d="M11,7.8L5.2,7.9c-0.7,0-1.3,0.6-1.3,1.4c0,0.4,0.2,0.7,0.4,1l4.2,3.9L11,7.8z"/>
		<path class="st8" d="M8.7,14.5l-4.5-4.1C3.6,9.8,3.5,8.8,4.1,8.2c0.3-0.3,0.7-0.5,1.1-0.5l6.1-0.2L8.7,14.5z M10.6,8L5.2,8.1
			c-0.5,0-0.8,0.3-1,0.7c-0.2,0.4,0,0.9,0.3,1.2l4,3.6L10.6,8z"/>
		<path class="st9" d="M114.2,46.6L24.6,13.3c-1.9-0.7-2.9-2.5-2.3-4l0,0c0.5-1.6,2.5-2.3,4.3-1.6l89.6,33.4L114.2,46.6z"/>
		<path class="st8" d="M114.4,47L24.5,13.5c-2-0.7-3.1-2.7-2.5-4.4s2.8-2.4,4.8-1.7l89.9,33.5L114.4,47z M25.2,7.7
			c-1.1-0.1-2.2,0.6-2.7,1.6c-0.5,1.4,0.5,3,2.2,3.7l89.4,33.3l1.9-5L26.6,8C26.1,7.8,25.7,7.7,25.2,7.7z"/>
		<g>
			<defs>
				
					<rect id="SVGID_5_" x="113" y="48.2" transform="matrix(0.3489 -0.9372 0.9372 0.3489 30.0431 148.5027)" width="17.8" height="8.9"/>
			</defs>
			<clipPath id="SVGID_6_">
				<use xlink:href="#SVGID_5_"  style="overflow:visible;"/>
			</clipPath>
			<g class="st10">
				<polygon class="st11" points="129.1,45.8 120.8,42.7 129.1,42.7 				"/>
				<polygon class="st11" points="129.1,45.9 120.5,42.7 120.8,42.7 129.1,45.8 				"/>
				<polygon class="st12" points="129.1,46.1 120.2,42.7 120.5,42.7 129.1,45.9 				"/>
				<polygon class="st13" points="129.1,46.2 119.9,42.7 120.2,42.7 129.1,46.1 				"/>
				<polygon class="st14" points="129.1,46.3 119.5,42.7 119.9,42.7 129.1,46.2 				"/>
				<polygon class="st15" points="129.1,46.4 119.2,42.7 119.5,42.7 129.1,46.3 				"/>
				<polygon class="st16" points="129.1,46.6 118.9,42.7 119.2,42.7 129.1,46.4 				"/>
				<polygon class="st17" points="129.1,46.7 118.7,42.8 118.7,42.7 118.9,42.7 129.1,46.6 				"/>
				<polygon class="st18" points="129.1,46.8 118.7,42.9 118.7,42.8 129.1,46.7 				"/>
				<polygon class="st19" points="129.1,46.9 118.6,43 118.7,42.9 129.1,46.8 				"/>
				<polygon class="st20" points="129.1,47 118.6,43.1 118.6,43 129.1,46.9 				"/>
				<polygon class="st21" points="129.1,47.2 118.5,43.2 118.6,43.1 129.1,47 				"/>
				<polygon class="st22" points="129.1,47.3 118.5,43.3 118.5,43.2 129.1,47.2 				"/>
				<polygon class="st23" points="129.1,47.4 118.5,43.4 118.5,43.3 129.1,47.3 				"/>
				<polygon class="st24" points="129.1,47.5 118.4,43.5 118.5,43.4 129.1,47.4 				"/>
				<polygon class="st25" points="129.1,47.6 118.4,43.6 118.4,43.5 129.1,47.5 				"/>
				<polygon class="st26" points="129.1,47.8 118.3,43.7 118.4,43.6 129.1,47.6 				"/>
				<polygon class="st27" points="129.1,47.9 118.3,43.9 118.3,43.7 129.1,47.8 				"/>
				<polygon class="st28" points="129.1,48 118.3,44 118.3,43.9 129.1,47.9 				"/>
				<polygon class="st29" points="129.1,48.1 118.2,44.1 118.3,44 129.1,48 				"/>
				<polygon class="st30" points="129.1,48.3 118.2,44.2 118.2,44.1 129.1,48.1 				"/>
				<polygon class="st31" points="129.1,48.4 118.1,44.3 118.2,44.2 129.1,48.3 				"/>
				<polygon class="st32" points="129.1,48.5 118.1,44.4 118.1,44.3 129.1,48.4 				"/>
				<polygon class="st33" points="129.1,48.6 118.1,44.5 118.1,44.4 129.1,48.5 				"/>
				<polygon class="st34" points="129.1,48.7 118,44.6 118.1,44.5 129.1,48.6 				"/>
				<polygon class="st35" points="129.1,48.9 118,44.7 118,44.6 129.1,48.7 				"/>
				<polygon class="st36" points="129.1,49 117.9,44.8 118,44.7 129.1,48.9 				"/>
				<polygon class="st37" points="129.1,49.1 117.9,44.9 117.9,44.8 129.1,49 				"/>
				<polygon class="st38" points="129.1,49.2 117.9,45 117.9,44.9 129.1,49.1 				"/>
				<polygon class="st39" points="129.1,49.4 117.8,45.1 117.9,45 129.1,49.2 				"/>
				<polygon class="st40" points="129.1,49.5 117.8,45.2 117.8,45.1 129.1,49.4 				"/>
				<polygon class="st41" points="129.1,49.6 117.7,45.3 117.8,45.2 129.1,49.5 				"/>
				<polygon class="st42" points="129.1,49.7 117.7,45.5 117.7,45.3 129.1,49.6 				"/>
				<polygon class="st43" points="129.1,49.8 117.7,45.6 117.7,45.5 129.1,49.7 				"/>
				<polygon class="st44" points="129.1,50 117.6,45.7 117.7,45.6 129.1,49.8 				"/>
				<polygon class="st45" points="129.1,50.1 117.6,45.8 117.6,45.7 129.1,50 				"/>
				<polygon class="st46" points="129.1,50.2 117.5,45.9 117.6,45.8 129.1,50.1 				"/>
				<polygon class="st47" points="129.1,50.3 117.5,46 117.5,45.9 129.1,50.2 				"/>
				<polygon class="st48" points="129.1,50.4 117.5,46.1 117.5,46 129.1,50.3 				"/>
				<polygon class="st48" points="129.1,50.6 117.4,46.2 117.5,46.1 129.1,50.4 				"/>
				<polygon class="st49" points="129.1,50.7 117.4,46.3 117.4,46.2 129.1,50.6 				"/>
				<polygon class="st50" points="129.1,50.8 117.3,46.4 117.4,46.3 129.1,50.7 				"/>
				<polygon class="st51" points="129.1,50.9 117.3,46.5 117.3,46.4 129.1,50.8 				"/>
				<polygon class="st52" points="129.1,51.1 117.3,46.6 117.3,46.5 129.1,50.9 				"/>
				<polygon class="st53" points="129.1,51.2 117.2,46.7 117.3,46.6 129.1,51.1 				"/>
				<polygon class="st54" points="129.1,51.3 117.2,46.8 117.2,46.7 129.1,51.2 				"/>
				<polygon class="st55" points="129.1,51.4 117.1,47 117.2,46.8 129.1,51.3 				"/>
				<polygon class="st56" points="129.1,51.5 117.1,47.1 117.1,47 129.1,51.4 				"/>
				<polygon class="st57" points="129.1,51.6 129.1,51.6 117.1,47.2 117.1,47.1 129.1,51.5 				"/>
				
					<rect x="123" y="43" transform="matrix(0.3489 -0.9372 0.9372 0.3489 33.7717 147.549)" class="st58" width="0.1" height="12.8"/>
				
					<rect x="123" y="43.2" transform="matrix(0.3489 -0.9372 0.9372 0.3489 33.6365 147.5862)" class="st59" width="0.1" height="12.8"/>
				
					<rect x="122.9" y="43.3" transform="matrix(0.3489 -0.9372 0.9372 0.3489 33.5172 147.6262)" class="st60" width="0.1" height="12.9"/>
				
					<rect x="122.9" y="43.4" transform="matrix(0.3489 -0.9372 0.9372 0.3489 33.3885 147.6457)" class="st61" width="0.1" height="12.8"/>
				
					<rect x="122.9" y="43.5" transform="matrix(0.3489 -0.9372 0.9372 0.3489 33.2627 147.6764)" class="st62" width="0.1" height="12.8"/>
				
					<rect x="122.8" y="43.6" transform="matrix(0.3489 -0.9372 0.9372 0.3489 33.134 147.7229)" class="st63" width="0.1" height="12.8"/>
				
					<rect x="122.8" y="43.7" transform="matrix(0.3489 -0.9372 0.9372 0.3489 33.0054 147.7424)" class="st64" width="0.1" height="12.8"/>
				
					<rect x="122.7" y="43.8" transform="matrix(0.3489 -0.9372 0.9372 0.3489 32.8861 147.7824)" class="st65" width="0.1" height="12.8"/>
				
					<rect x="122.7" y="43.9" transform="matrix(0.3489 -0.9372 0.9372 0.3489 32.7602 147.8131)" class="st66" width="0.1" height="12.8"/>
				
					<rect x="122.7" y="44" transform="matrix(0.3489 -0.9372 0.9372 0.3489 32.6222 147.8392)" class="st67" width="0.1" height="12.8"/>
				
					<rect x="122.6" y="44.1" transform="matrix(0.3489 -0.9372 0.9372 0.3489 32.5029 147.8792)" class="st67" width="0.1" height="12.8"/>
				
					<rect x="122.6" y="44.2" transform="matrix(0.3489 -0.9372 0.9372 0.3489 32.3771 147.9098)" class="st68" width="0.1" height="12.8"/>
				
					<rect x="122.5" y="44.3" transform="matrix(0.3489 -0.9372 0.9372 0.3489 32.2549 147.9387)" class="st68" width="0.1" height="12.8"/>
				
					<rect x="122.5" y="44.4" transform="matrix(0.3489 -0.9372 0.9372 0.3489 32.1291 147.9694)" class="st69" width="0.1" height="12.8"/>
				
					<rect x="122.5" y="44.6" transform="matrix(0.3489 -0.9372 0.9372 0.3489 31.9939 148.0065)" class="st70" width="0.1" height="12.8"/>
				
					<rect x="122.4" y="44.7" transform="matrix(0.3489 -0.9372 0.9372 0.3489 31.8718 148.0355)" class="st71" width="0.1" height="12.8"/>
				
					<rect x="122.4" y="44.8" transform="matrix(0.3489 -0.9372 0.9372 0.3489 31.746 148.0661)" class="st71" width="0.1" height="12.8"/>
				
					<rect x="122.3" y="44.9" transform="matrix(0.3489 -0.9372 0.9372 0.3489 31.6266 148.1061)" class="st72" width="0.1" height="12.8"/>
				
					<rect x="122.3" y="45" transform="matrix(0.3489 -0.9372 0.9372 0.3489 31.4886 148.1322)" class="st73" width="0.1" height="12.8"/>
				
					<rect x="122.3" y="45.1" transform="matrix(0.3489 -0.9372 0.9372 0.3489 31.3628 148.1628)" class="st74" width="0.1" height="12.8"/>
				
					<rect x="122.2" y="45.2" transform="matrix(0.3489 -0.9372 0.9372 0.3489 31.2435 148.2028)" class="st74" width="0.1" height="12.8"/>
				
					<rect x="122.2" y="45.3" transform="matrix(0.3489 -0.9372 0.9372 0.3489 31.1287 148.2306)" class="st75" width="0.1" height="12.8"/>
				
					<rect x="122.1" y="45.4" transform="matrix(0.3489 -0.9372 0.9372 0.3489 31.0066 148.2595)" class="st76" width="0.1" height="12.8"/>
				
					<rect x="122.1" y="45.5" transform="matrix(0.3489 -0.9372 0.9372 0.3489 30.8714 148.2967)" class="st76" width="0.1" height="12.8"/>
				
					<rect x="122.1" y="45.6" transform="matrix(0.3489 -0.9372 0.9372 0.3489 30.7456 148.3273)" class="st76" width="0.1" height="12.8"/>
				
					<rect x="122" y="45.7" transform="matrix(0.3489 -0.9372 0.9372 0.3489 30.6234 148.3562)" class="st76" width="0.1" height="12.8"/>
				
					<rect x="122" y="45.8" transform="matrix(0.3489 -0.9372 0.9372 0.3489 30.4976 148.3869)" class="st77" width="0.1" height="12.8"/>
				
					<rect x="122" y="45.9" transform="matrix(0.3489 -0.9372 0.9372 0.3489 30.3689 148.4334)" class="st77" width="0.1" height="12.8"/>
				
					<rect x="121.9" y="46" transform="matrix(0.3489 -0.9372 0.9372 0.3489 30.2403 148.453)" class="st77" width="0.1" height="12.8"/>
				
					<rect x="121.9" y="46.1" transform="matrix(0.3489 -0.9372 0.9372 0.3489 30.1144 148.4836)" class="st77" width="0.1" height="12.8"/>
				
					<rect x="121.8" y="46.3" transform="matrix(0.3489 -0.9372 0.9372 0.3489 29.9951 148.5236)" class="st77" width="0.1" height="12.8"/>
				
					<rect x="121.8" y="46.4" transform="matrix(0.3489 -0.9372 0.9372 0.3489 29.8571 148.5497)" class="st77" width="0.1" height="12.8"/>
				
					<rect x="121.7" y="46.5" transform="matrix(0.3489 -0.9372 0.9372 0.3489 29.7378 148.5897)" class="st77" width="0.1" height="12.8"/>
				
					<rect x="121.7" y="46.6" transform="matrix(0.3489 -0.9372 0.9372 0.3489 29.612 148.6203)" class="st77" width="0.1" height="12.8"/>
				
					<rect x="121.7" y="46.7" transform="matrix(0.3489 -0.9372 0.9372 0.3489 29.4833 148.6399)" class="st77" width="0.1" height="12.8"/>
				
					<rect x="121.6" y="46.8" transform="matrix(0.3489 -0.9372 0.9372 0.3489 29.364 148.6799)" class="st76" width="0.1" height="12.8"/>
				
					<rect x="121.6" y="46.9" transform="matrix(0.3489 -0.9372 0.9372 0.3489 29.2288 148.717)" class="st76" width="0.1" height="12.8"/>
				
					<rect x="121.5" y="47" transform="matrix(0.3489 -0.9372 0.9372 0.3489 29.1067 148.746)" class="st76" width="0.1" height="12.9"/>
				
					<rect x="121.5" y="47.1" transform="matrix(0.3489 -0.9372 0.9372 0.3489 28.9809 148.7766)" class="st76" width="0.1" height="12.8"/>
				
					<rect x="121.5" y="47.2" transform="matrix(0.3489 -0.9372 0.9372 0.3489 28.855 148.8072)" class="st76" width="0.1" height="12.8"/>
				
					<rect x="121.4" y="47.3" transform="matrix(0.3489 -0.9372 0.9372 0.3489 28.7263 148.8537)" class="st75" width="0.1" height="12.8"/>
				
					<rect x="121.4" y="47.4" transform="matrix(0.3489 -0.9372 0.9372 0.3489 28.5977 148.8733)" class="st74" width="0.1" height="12.8"/>
				
					<rect x="121.4" y="47.5" transform="matrix(0.3489 -0.9372 0.9372 0.3489 28.4784 148.9133)" class="st74" width="0.1" height="12.8"/>
				
					<rect x="121.3" y="47.6" transform="matrix(0.3489 -0.9372 0.9372 0.3489 28.3526 148.9439)" class="st73" width="0.1" height="12.8"/>
				
					<rect x="121.3" y="47.8" transform="matrix(0.3489 -0.9372 0.9372 0.3489 28.2145 148.97)" class="st72" width="0.1" height="12.9"/>
				
					<rect x="121.2" y="47.9" transform="matrix(0.3489 -0.9372 0.9372 0.3489 28.0952 149.01)" class="st71" width="0.1" height="12.8"/>
				
					<rect x="121.2" y="48" transform="matrix(0.3489 -0.9372 0.9372 0.3489 27.9694 149.0407)" class="st71" width="0.1" height="12.8"/>
				
					<rect x="121.2" y="48.1" transform="matrix(0.3489 -0.9372 0.9372 0.3489 27.8472 149.0696)" class="st70" width="0.1" height="12.9"/>
				
					<rect x="121.1" y="48.2" transform="matrix(0.3489 -0.9372 0.9372 0.3489 27.7214 149.1002)" class="st69" width="0.1" height="12.8"/>
				
					<rect x="121.1" y="48.3" transform="matrix(0.3489 -0.9372 0.9372 0.3489 27.5862 149.1374)" class="st68" width="0.1" height="12.8"/>
				
					<rect x="121" y="48.4" transform="matrix(0.3489 -0.9372 0.9372 0.3489 27.4641 149.1663)" class="st68" width="0.1" height="12.9"/>
				
					<rect x="121" y="48.5" transform="matrix(0.3489 -0.9372 0.9372 0.3489 27.3383 149.1969)" class="st67" width="0.1" height="12.9"/>
				
					<rect x="121" y="48.6" transform="matrix(0.3489 -0.9372 0.9372 0.3489 27.2189 149.237)" class="st67" width="0.1" height="12.8"/>
				
					<rect x="120.9" y="48.7" transform="matrix(0.3489 -0.9372 0.9372 0.3489 27.0809 149.263)" class="st78" width="0.1" height="12.9"/>
				
					<rect x="120.9" y="48.8" transform="matrix(0.3489 -0.9372 0.9372 0.3489 26.9551 149.2937)" class="st66" width="0.1" height="12.9"/>
				
					<rect x="120.8" y="48.9" transform="matrix(0.3489 -0.9372 0.9372 0.3489 26.8358 149.3337)" class="st79" width="0.1" height="12.8"/>
				
					<rect x="120.8" y="49" transform="matrix(0.3489 -0.9372 0.9372 0.3489 26.7071 149.3532)" class="st64" width="0.1" height="12.9"/>
				
					<rect x="120.8" y="49.1" transform="matrix(0.3489 -0.9372 0.9372 0.3489 26.5785 149.3997)" class="st63" width="0.1" height="12.9"/>
				
					<rect x="120.7" y="49.3" transform="matrix(0.3489 -0.9372 0.9372 0.3489 26.4526 149.4304)" class="st62" width="0.1" height="12.9"/>
				
					<rect x="120.7" y="49.4" transform="matrix(0.3489 -0.9372 0.9372 0.3489 26.3268 149.461)" class="st61" width="0.1" height="12.8"/>
				<polygon class="st59" points="126.7,58.1 126.7,58.2 114.6,53.7 114.6,53.7 114.7,53.6 				"/>
				<polygon class="st59" points="126.7,58.2 126.6,58.3 114.6,53.8 114.6,53.7 				"/>
				<polygon class="st58" points="126.6,58.3 126.6,58.4 114.6,53.9 114.6,53.8 				"/>
				<polygon class="st80" points="126.6,58.4 126.6,58.5 114.6,54.1 114.6,53.9 				"/>
				<polygon class="st56" points="126.6,58.5 126.5,58.6 114.6,54.2 114.6,54.1 				"/>
				<polygon class="st54" points="126.5,58.6 126.5,58.7 114.6,54.3 114.6,54.2 				"/>
				<polygon class="st81" points="126.5,58.7 126.4,58.8 114.6,54.4 114.6,54.3 				"/>
				<polygon class="st53" points="126.4,58.8 126.4,58.9 114.6,54.5 114.6,54.4 				"/>
				<polygon class="st51" points="126.4,58.9 126.4,59 114.6,54.7 114.6,54.5 				"/>
				<polygon class="st50" points="126.4,59 126.3,59.1 114.6,54.8 114.6,54.7 				"/>
				<polygon class="st49" points="126.3,59.1 126.3,59.2 114.6,54.9 114.6,54.8 				"/>
				<polygon class="st49" points="126.3,59.2 126.2,59.3 114.6,55 114.6,54.9 				"/>
				<polygon class="st48" points="126.2,59.3 126.2,59.4 114.6,55.1 114.6,55 				"/>
				<polygon class="st47" points="126.2,59.4 126.2,59.6 114.6,55.3 114.6,55.1 				"/>
				<polygon class="st82" points="126.2,59.6 126.1,59.7 114.6,55.4 114.6,55.3 				"/>
				<polygon class="st45" points="126.1,59.7 126.1,59.8 114.6,55.5 114.6,55.4 				"/>
				<polygon class="st44" points="126.1,59.8 126,59.9 114.6,55.6 114.6,55.5 				"/>
				<polygon class="st83" points="126,59.9 126,60 114.6,55.8 114.6,55.6 				"/>
				<polygon class="st43" points="126,60 126,60.1 114.6,55.9 114.6,55.8 				"/>
				<polygon class="st41" points="126,60.1 125.9,60.2 114.6,56 114.6,55.9 				"/>
				<polygon class="st40" points="125.9,60.2 125.9,60.3 114.6,56.1 114.6,56 				"/>
				<polygon class="st39" points="125.9,60.3 125.8,60.4 114.6,56.2 114.6,56.1 				"/>
				<polygon class="st38" points="125.8,60.4 125.8,60.5 114.6,56.4 114.6,56.2 				"/>
				<polygon class="st84" points="125.8,60.5 125.8,60.6 114.6,56.5 114.6,56.4 				"/>
				<polygon class="st36" points="125.8,60.6 125.7,60.7 114.6,56.6 114.6,56.5 				"/>
				<polygon class="st35" points="125.7,60.7 125.7,60.8 114.6,56.7 114.6,56.6 				"/>
				<polygon class="st85" points="125.7,60.8 125.6,60.9 114.6,56.8 114.6,56.7 				"/>
				<polygon class="st86" points="125.6,60.9 125.6,61.1 114.6,57 114.6,56.8 				"/>
				<polygon class="st31" points="125.6,61.1 125.6,61.2 114.6,57.1 114.6,57 				"/>
				<polygon class="st87" points="125.6,61.2 125.5,61.3 114.6,57.2 114.6,57.1 				"/>
				<polygon class="st29" points="125.5,61.3 125.5,61.4 114.6,57.3 114.6,57.2 				"/>
				<polygon class="st88" points="125.5,61.4 125.4,61.5 114.6,57.5 114.6,57.3 				"/>
				<polygon class="st89" points="125.4,61.5 125.4,61.6 114.6,57.6 114.6,57.5 				"/>
				<polygon class="st90" points="125.4,61.6 125.4,61.7 114.6,57.7 114.6,57.6 				"/>
				<polygon class="st25" points="125.4,61.7 125.3,61.8 114.6,57.8 114.6,57.7 				"/>
				<polygon class="st24" points="125.3,61.8 125.3,61.9 114.6,57.9 114.6,57.8 				"/>
				<polygon class="st23" points="125.3,61.9 125.2,62 114.6,58.1 114.6,57.9 				"/>
				<polygon class="st22" points="125.2,62 125.2,62.1 114.6,58.2 114.6,58.1 				"/>
				<polygon class="st91" points="125.2,62.1 125.2,62.2 114.6,58.3 114.6,58.2 				"/>
				<polygon class="st20" points="125.2,62.2 125.1,62.3 114.6,58.4 114.6,58.3 				"/>
				<polygon class="st19" points="125.1,62.3 125.1,62.4 114.6,58.6 114.6,58.4 				"/>
				<polygon class="st92" points="125.1,62.4 125.1,62.5 124.9,62.5 114.6,58.7 114.6,58.6 				"/>
				<polygon class="st16" points="124.6,62.5 114.6,58.8 114.6,58.7 124.9,62.5 				"/>
				<polygon class="st93" points="124.2,62.5 114.6,58.9 114.6,58.8 124.6,62.5 				"/>
				<polygon class="st14" points="123.9,62.5 114.6,59 114.6,58.9 124.2,62.5 				"/>
				<polygon class="st13" points="123.6,62.5 114.6,59.2 114.6,59 123.9,62.5 				"/>
				<polygon class="st94" points="123.3,62.5 114.6,59.3 114.6,59.2 123.6,62.5 				"/>
				<polygon class="st11" points="122.9,62.5 114.6,59.4 114.6,59.3 123.3,62.5 				"/>
				<polygon class="st11" points="114.6,59.4 122.9,62.5 114.6,62.5 				"/>
			</g>
		</g>
		<path class="st8" d="M123.1,62.8l-8.8-3.3l0.1-0.2l6.3-16.9l8.8,3.3L123.1,62.8z M115,59.3l7.8,2.9l6-16.2l-7.8-2.9L115,59.3z"/>
		
			<rect x="106.6" y="47.8" transform="matrix(0.3489 -0.9372 0.9372 0.3489 28.105 140.9468)" class="st95" width="17.8" height="4.8"/>
		<path class="st8" d="M114.8,59.7l-5-1.9l6.4-17.1l5,1.9L114.8,59.7z M110.4,57.6l4.1,1.5l6-16.2l-4.1-1.5L110.4,57.6z"/>
		
			<rect x="119.4" y="52.6" transform="matrix(0.3489 -0.9372 0.9372 0.3489 31.9838 156.0447)" class="st95" width="17.8" height="4.8"/>
		<path class="st8" d="M127.6,64.5l-5-1.8l0.1-0.2l6.3-16.9l5,1.8l-0.1,0.2L127.6,64.5z M123.3,62.3l4,1.5l6-16.2l-4-1.5L123.3,62.3
			z"/>
		<path class="st96" d="M131.1,65.6l-3.7-1.4l6.2-16.7l3.7,1.4c4.6,1.7,6.9,6.8,5.2,11.4l0,0C140.9,64.9,135.7,67.3,131.1,65.6
			C131.1,65.6,131.1,65.6,131.1,65.6z"/>
		<path class="st8" d="M134.2,66.4c-1.1,0-2.2-0.2-3.2-0.6l0,0l-3.9-1.5l6.4-17.1l3.9,1.5c4.7,1.8,7.1,7,5.4,11.8
			C141.5,64,138,66.4,134.2,66.4L134.2,66.4z M131.2,65.4c4.5,1.6,9.4-0.8,11-5.4c1.5-4.4-0.7-9.1-5-10.8l-3.5-1.3l-6,16.2
			L131.2,65.4z"/>
		<path class="st9" d="M110.1,57.7L20.5,24.4c-1.9-0.7-2.9-2.5-2.3-4l0,0c0.6-1.5,2.5-2.2,4.4-1.5l89.6,33.4L110.1,57.7z"/>
		<path class="st8" d="M110.3,58.1L20.4,24.6c-0.9-0.3-1.7-1-2.2-1.8c-0.5-0.8-0.6-1.7-0.3-2.6c0.3-0.8,1-1.5,1.9-1.8
			c0.9-0.3,1.9-0.3,2.9,0.1L112.5,52L110.3,58.1z M21.1,18.8c-0.4,0-0.8,0.1-1.1,0.2c-1.2,0.3-2,1.6-1.6,2.9
			c0.1,0.2,0.2,0.5,0.3,0.7c0.4,0.7,1.1,1.3,1.9,1.6L110,57.4l1.9-5L22.4,19.1C22,18.9,21.5,18.8,21.1,18.8z"/>
		<path class="st97" d="M112.2,52.2L22.5,18.8c-1.9-0.7-2.9-2.5-2.3-4l0,0c0.6-1.5,2.5-2.2,4.4-1.5l89.7,33.4L112.2,52.2z"/>
		<path class="st8" d="M112.3,52.5L22.4,19.1c-2-0.7-3.1-2.7-2.5-4.4c0.3-0.8,1-1.5,1.9-1.8c0.9-0.3,2-0.3,2.9,0.1l89.9,33.5
			L112.3,52.5z M23.1,13.3c-0.4,0-0.8,0.1-1.1,0.2c-0.7,0.2-1.3,0.8-1.5,1.4c-0.5,1.4,0.5,3,2.2,3.7L112,51.8l1.9-5L24.5,13.5
			C24.1,13.3,23.6,13.3,23.1,13.3z"/>
		<g>
			<defs>
				<path id="SVGID_7_" d="M81.2,92.1l-36,0.8l-3.7-9.1c-2.4-5.9-3.5-12.3-3.3-18.7L37.8,51c0.1-1.8-4.4-10.7-8-18.4l0,0
					c-1.3-2.8-2.5-5.6-3.5-8.5c-0.9-2.7,0.2-5.4,3.2-6.9c3.9-2.1,7.7-0.4,10.1,3l5.1,6.1l9.5,11.3c2.1,2.1,5.1,3.1,8,2.6L81.2,92.1z
					"/>
			</defs>
			<clipPath id="SVGID_8_">
				<use xlink:href="#SVGID_7_"  style="overflow:visible;"/>
			</clipPath>
			<g class="st98">
				<rect x="69.8" y="-59.2" class="st0" width="61.9" height="89.3"/>
				<rect x="69.8" y="-59.2" class="st5" width="61.9" height="89.3"/>
				<rect x="69.8" y="30.1" class="st0" width="61.9" height="89.3"/>
				<rect x="69.8" y="30.1" class="st5" width="61.9" height="89.3"/>
				<rect x="7.9" y="-59.2" class="st0" width="61.9" height="89.3"/>
				<rect x="7.9" y="-59.2" class="st5" width="61.9" height="89.3"/>
				<rect x="7.9" y="30.1" class="st0" width="61.9" height="89.3"/>
				<rect x="7.9" y="30.1" class="st5" width="61.9" height="89.3"/>
			</g>
		</g>
		<g>
			<defs>
				<path id="SVGID_9_" d="M44.7,26.2l-5.1-6.1c-2.4-3.4-6.2-5-10.1-3c-3,1.6-4.1,4.2-3.2,6.9c1,2.9,2.2,5.7,3.5,8.5l-4.2-7.2
					c-2-3.5-0.4-7.8,3.7-9.6c0.4-0.2,0.9-0.3,1.3-0.4c3.8-1,8,0.5,9.8,3.7L44.7,26.2z"/>
			</defs>
			<clipPath id="SVGID_10_">
				<use xlink:href="#SVGID_9_"  style="overflow:visible;"/>
			</clipPath>
			<g class="st99">
				<rect x="7.9" y="-59.2" class="st0" width="61.9" height="89.3"/>
				<rect x="7.9" y="-59.2" class="st5" width="61.9" height="89.3"/>
				<rect x="7.9" y="30.1" class="st0" width="61.9" height="89.3"/>
				<rect x="7.9" y="30.1" class="st5" width="61.9" height="89.3"/>
			</g>
		</g>
		
			<image style="overflow:visible;opacity:0.4;enable-background:new    ;" width="274" height="2029" xlink:href="FECF8125.png"  transform="matrix(0.24 0 0 0.24 38.03 75.84)">
		</image>
		<g>
			<defs>
				<path id="SVGID_11_" d="M49.2,540.6h28.9c2.5-171.8,3.6-323.9,1.7-401.1c-0.5-19.6-0.6-41.5,3.8-61.4l-41.3,2.2
					C48,98,49.6,122,50.1,141.6C52.3,228.9,51.6,373.5,49.2,540.6z"/>
			</defs>
			<clipPath id="SVGID_12_">
				<use xlink:href="#SVGID_11_"  style="overflow:visible;"/>
			</clipPath>
			<g class="st100">
				<rect x="69.8" y="30.1" class="st0" width="61.9" height="89.3"/>
				<rect x="69.8" y="30.1" class="st5" width="61.9" height="89.3"/>
				<rect x="69.8" y="119.3" class="st0" width="61.9" height="89.3"/>
				<rect x="69.8" y="119.3" class="st5" width="61.9" height="89.3"/>
				<rect x="69.8" y="208.6" class="st0" width="61.9" height="89.3"/>
				<rect x="69.8" y="208.6" class="st5" width="61.9" height="89.3"/>
				<rect x="69.8" y="297.8" class="st0" width="61.9" height="89.3"/>
				<rect x="69.8" y="297.8" class="st5" width="61.9" height="89.3"/>
				<rect x="69.8" y="387.1" class="st0" width="61.9" height="89.3"/>
				<rect x="69.8" y="387.1" class="st5" width="61.9" height="89.3"/>
				<rect x="69.8" y="476.3" class="st0" width="61.9" height="89.2"/>
				<rect x="69.8" y="476.3" class="st5" width="61.9" height="89.2"/>
				<rect x="7.9" y="30.1" class="st0" width="61.9" height="89.3"/>
				<rect x="7.9" y="30.1" class="st5" width="61.9" height="89.3"/>
				<rect x="7.9" y="119.3" class="st0" width="61.9" height="89.3"/>
				<rect x="7.9" y="119.3" class="st5" width="61.9" height="89.3"/>
				<rect x="7.9" y="208.6" class="st0" width="61.9" height="89.3"/>
				<rect x="7.9" y="208.6" class="st5" width="61.9" height="89.3"/>
				<rect x="7.9" y="297.8" class="st0" width="61.9" height="89.3"/>
				<rect x="7.9" y="297.8" class="st5" width="61.9" height="89.3"/>
				<rect x="7.9" y="387.1" class="st0" width="61.9" height="89.3"/>
				<rect x="7.9" y="387.1" class="st5" width="61.9" height="89.3"/>
				<rect x="7.9" y="476.3" class="st0" width="61.9" height="89.2"/>
				<rect x="7.9" y="476.3" class="st5" width="61.9" height="89.2"/>
			</g>
		</g>
	</g>
</g>
</svg>
