<?xml version="1.0" encoding="utf-8"?>
<!-- Generator: Adobe Illustrator 24.0.2, SVG Export Plug-In . SVG Version: 6.00 Build 0)  -->
<svg version="1.1" id="Layer_1" xmlns="http://www.w3.org/2000/svg" xmlns:xlink="http://www.w3.org/1999/xlink" x="0px" y="0px"
	 viewBox="0 0 86.2 55.8" style="enable-background:new 0 0 86.2 55.8;" xml:space="preserve">
<style type="text/css">
	.st0{fill:#E7E800;}
	.st1{fill:#24B2A0;stroke:#FFFFFF;stroke-width:2;}
	.st2{fill:#FFFFFF;}
</style>
<title>botonreplay</title>
<g id="Layer_2_1_">
	<g id="botones_play_y_repeat">
		<path class="st0" d="M86.2,45.3v-34C86.2,5.1,81.3,0,75.4,0H0v55.8h76.3C81.7,55.8,86.2,51.1,86.2,45.3z"/>
		<circle class="st1" cx="65" cy="27.9" r="13.9"/>
		<path class="st2" d="M65.5,34.3c-0.9,0-1.7-0.2-2.5-0.5c-0.7-0.3-1.4-0.8-2-1.4c-0.3-0.4-0.3-0.9,0.1-1.2c0.3-0.3,0.8-0.3,1.1,0
			c1.8,1.8,4.8,1.8,6.7,0c0.4-0.4,0.8-0.9,1-1.5c0.5-1.2,0.5-2.5,0-3.7c-0.2-0.6-0.6-1.1-1-1.5c-1.8-1.8-4.8-1.8-6.7,0
			c-0.4,0.4-0.8,0.9-1,1.5c-0.2,0.4-0.7,0.6-1.1,0.5c-0.4-0.2-0.6-0.7-0.5-1.1c0.3-0.7,0.8-1.4,1.4-2c0.6-0.6,1.2-1.1,2-1.4
			c1.6-0.7,3.4-0.7,5,0c0.7,0.3,1.4,0.8,2,1.4c1.8,1.8,2.4,4.6,1.4,7c-0.3,0.7-0.8,1.4-1.4,2s-1.3,1-2,1.4
			C67.2,34.1,66.4,34.3,65.5,34.3z"/>
		<path class="st2" d="M62.1,26.9L60,28.5c-0.3,0.3-0.8,0.3-1.1-0.1c-0.1-0.1-0.2-0.3-0.2-0.5l-0.3-2.7c0-0.4,0.3-0.8,0.7-0.9
			c0.1,0,0.3,0,0.4,0.1l2.5,1.1c0.4,0.2,0.6,0.7,0.4,1.1C62.3,26.7,62.3,26.8,62.1,26.9z"/>
	</g>
</g>
</svg>
