<?xml version="1.0" encoding="utf-8"?>
<!-- Generator: Adobe Illustrator 24.0.2, SVG Export Plug-In . SVG Version: 6.00 Build 0)  -->
<svg version="1.1" id="Layer_1" xmlns="http://www.w3.org/2000/svg" xmlns:xlink="http://www.w3.org/1999/xlink" x="0px" y="0px"
	 viewBox="0 0 512 512" style="enable-background:new 0 0 512 512;" xml:space="preserve">
<style type="text/css">
	.st0{clip-path:url(#SVGID_2_);}
	.st1{fill:#82000A;stroke:#000000;stroke-width:8.9899;stroke-miterlimit:10;}
	.st2{fill:#FFFFFF;stroke:#000000;stroke-width:4.7069;stroke-miterlimit:10;}
	.st3{fill:none;stroke:#000000;stroke-width:4.7069;stroke-miterlimit:10;}
	.st4{fill:#C1272D;stroke:#000000;stroke-width:8.9899;stroke-miterlimit:10;}
	.st5{fill:none;stroke:#000000;stroke-width:15.6051;stroke-linecap:round;stroke-miterlimit:10;}
	.st6{fill:#FFFFFF;stroke:#000000;stroke-width:6.4268;stroke-miterlimit:10;}
	.st7{stroke:#000000;stroke-width:3.7098;stroke-miterlimit:10;}
	.st8{fill:none;stroke:#000000;stroke-width:12.8013;stroke-linecap:round;stroke-miterlimit:10;}
	.st9{fill:#FFFFFF;}
</style>
<title>favicon</title>
<g>
	<g>
		<g>
			<defs>
				<rect id="SVGID_1_" y="25.2" width="512" height="486.8"/>
			</defs>
			<clipPath id="SVGID_2_">
				<use xlink:href="#SVGID_1_"  style="overflow:visible;"/>
			</clipPath>
			<g class="st0">
				<rect x="-45.1" y="31.9" class="st1" width="548.3" height="744.6"/>
				<rect x="-31.8" y="30.6" class="st2" width="150.2" height="744.6"/>
				<line class="st3" x1="91.9" y1="776.5" x2="91.9" y2="31.9"/>
				<line class="st3" x1="66.1" y1="777.4" x2="66.1" y2="30.6"/>
				<line class="st3" x1="40.2" y1="777.4" x2="40.2" y2="30.6"/>
				<line class="st3" x1="14.4" y1="776.9" x2="14.4" y2="32.3"/>
				<line class="st3" x1="-11.9" y1="776.9" x2="-11.9" y2="32.3"/>
				<rect x="28.7" y="32.7" class="st4" width="548.3" height="744.6"/>
				<path class="st5" d="M583.5,134.6c101.4-45.4-39.8-45.4-39.8-45.4"/>
				<path class="st5" d="M583.5,281.3c101.4-45.4-39.8-45.4-39.8-45.4"/>
				<path class="st5" d="M583.5,428c101.4-45.4-39.8-45.4-39.8-45.4"/>
				<path class="st5" d="M583.5,574.3c101.4-45-39.8-45-39.8-45"/>
				<path class="st5" d="M583.5,720.5c101.4-45-39.8-45-39.8-45"/>
				<g>
					<ellipse class="st6" cx="411.9" cy="379.7" rx="77.9" ry="115.5"/>
					<ellipse class="st7" cx="447.9" cy="373.4" rx="40.2" ry="59"/>
					<path class="st8" d="M385.2,225.5c40.2-43.3,81.5,0,81.5,0"/>
					<circle class="st9" cx="454.2" cy="350.4" r="11.5"/>
				</g>
				<g>
					<ellipse class="st6" cx="203.9" cy="373.4" rx="77.9" ry="115.5"/>
					<ellipse class="st7" cx="241.5" cy="373.4" rx="40.2" ry="59"/>
					<path class="st8" d="M160.5,225.5c40.2-43.3,81.5,0,81.5,0"/>
					<ellipse class="st9" cx="250.5" cy="350.4" rx="11.5" ry="11.5"/>
				</g>
			</g>
		</g>
	</g>
</g>
</svg>
