<svg xmlns="http://www.w3.org/2000/svg" viewBox="0 0 399.98 111.96"><defs><style>.cls-1{fill:#03826e;}.cls-2{fill:#fff;}.cls-3,.cls-4{fill:none;stroke-width:5px;}.cls-3{stroke:#b6ba01;stroke-linejoin:round;}.cls-4{stroke:#fff;}.cls-5{fill:#b6ba01;}</style></defs><title>11t</title><g id="Layer_2" data-name="Layer 2"><g id="pestaña_identificativa" data-name="pestaña identificativa"><path class="cls-1" d="M368.29,0H43.76C19.59,0,0,15.89,0,35.49V79.56A32.4,32.4,0,0,0,32.4,112H367.58A32.4,32.4,0,0,0,400,79.56V25.7C400,11.51,385.79,0,368.29,0Z"/><path class="cls-2" d="M109.73,35.77a8.64,8.64,0,0,1-2.33-.34,9.39,9.39,0,0,1-2.41-1,8.82,8.82,0,0,1-2.13-1.79A7.87,7.87,0,0,1,101.35,30a9.14,9.14,0,0,1-.57-3.32,8.59,8.59,0,0,1,.57-3.24A8.06,8.06,0,0,1,102.86,21,9,9,0,0,1,105,19.28a9.69,9.69,0,0,1,2.41-1,8.89,8.89,0,0,1,2.39-.34,7.48,7.48,0,0,1,2.23.3,9,9,0,0,1,1.53.63l.76.43a6.82,6.82,0,0,1,.85.65,1.21,1.21,0,0,1,.43.9,1.81,1.81,0,0,1-.11.6,2.61,2.61,0,0,1-.34.6,3.33,3.33,0,0,1-.78.83,1.24,1.24,0,0,1-.72.27,1.13,1.13,0,0,1-.58-.16c-.18-.1-.4-.23-.65-.4s-.28-.18-.5-.31a4,4,0,0,0-.88-.34,5.82,5.82,0,0,0-3.16.15,5,5,0,0,0-1.63.93,4.45,4.45,0,0,0-1.2,1.58,5.3,5.3,0,0,0-.45,2.26,4.92,4.92,0,0,0,.46,2.25,4.57,4.57,0,0,0,1.21,1.58,5.29,5.29,0,0,0,3.37,1.25,4.73,4.73,0,0,0,1.28-.15,4.64,4.64,0,0,0,.92-.36c.27-.14.49-.27.68-.39l.56-.32a1.26,1.26,0,0,1,.59-.15,1.15,1.15,0,0,1,.71.28,3.21,3.21,0,0,1,.74.87,2.6,2.6,0,0,1,.33.64,1.7,1.7,0,0,1,.12.61,1,1,0,0,1-.42.86,7.5,7.5,0,0,1-.86.62l-.75.43a6.67,6.67,0,0,1-1.53.63A8,8,0,0,1,109.73,35.77Z"/><path class="cls-2" d="M119.6,35.58a2.5,2.5,0,0,1-1.31-.26,1.1,1.1,0,0,1-.47-.72,4.7,4.7,0,0,1-.09-.92V25a5.25,5.25,0,0,1,.08-.92,1,1,0,0,1,.49-.69,2.59,2.59,0,0,1,1.33-.26,2.5,2.5,0,0,1,1.26.24,1.06,1.06,0,0,1,.49.55,2.09,2.09,0,0,1,.1.53l-.3.15a3.22,3.22,0,0,1,.26-.36,3.58,3.58,0,0,1,.59-.55,3.53,3.53,0,0,1,2.15-.68l.61,0a4.89,4.89,0,0,1,.7.15,3.32,3.32,0,0,1,.66.3,1.69,1.69,0,0,1,.49.47,1.2,1.2,0,0,1,.19.67,3,3,0,0,1-.48,1.74,1.4,1.4,0,0,1-1.2.71,2.11,2.11,0,0,1-.6-.06,1,1,0,0,1-.29-.15.93.93,0,0,0-.26-.15,1.68,1.68,0,0,0-.55-.06,2.34,2.34,0,0,0-.71.1,1.85,1.85,0,0,0-.63.31,1.5,1.5,0,0,0-.45.52,1.53,1.53,0,0,0-.16.72v5.47a4.46,4.46,0,0,1-.09.91,1.07,1.07,0,0,1-.49.69A2.6,2.6,0,0,1,119.6,35.58Z"/><path class="cls-2" d="M134.18,35.56a5.21,5.21,0,0,1-3.92-1.71,5.87,5.87,0,0,1-1.17-1.93,7.06,7.06,0,0,1-.41-2.44V25a4.6,4.6,0,0,1,.08-.93,1.13,1.13,0,0,1,.49-.7,2.47,2.47,0,0,1,1.33-.27,2.29,2.29,0,0,1,1.31.28,1.1,1.1,0,0,1,.47.71,4.62,4.62,0,0,1,.09.94v4.5a2.78,2.78,0,0,0,.26,1.26,1.73,1.73,0,0,0,.77.81,2.78,2.78,0,0,0,2.45,0,2,2,0,0,0,.8-.81,2.48,2.48,0,0,0,.29-1.25V24.94a4.59,4.59,0,0,1,.09-.93,1,1,0,0,1,.49-.68,3.42,3.42,0,0,1,2.64,0,1.1,1.1,0,0,1,.47.71,4.63,4.63,0,0,1,.09.92v8.8a4.12,4.12,0,0,1-.08.88,1,1,0,0,1-.49.67,2.63,2.63,0,0,1-1.3.25,2.89,2.89,0,0,1-1.05-.16,1.23,1.23,0,0,1-.55-.37.94.94,0,0,1-.21-.48,2.42,2.42,0,0,1,0-.45l.32-.27a2.17,2.17,0,0,1-.32.39,7.18,7.18,0,0,1-.66.57,4.28,4.28,0,0,1-1,.54A3.31,3.31,0,0,1,134.18,35.56Z"/><path class="cls-2" d="M149.48,35.7a6.47,6.47,0,0,1-2.24-.42,6.92,6.92,0,0,1-2.1-1.21,5.77,5.77,0,0,1-1.53-2,6.76,6.76,0,0,1,0-5.48,5.85,5.85,0,0,1,1.53-2,6.71,6.71,0,0,1,2.08-1.21,6.38,6.38,0,0,1,2.22-.41,6.08,6.08,0,0,1,1.66.21,5.41,5.41,0,0,1,1.25.51,3.87,3.87,0,0,1,.74.53,8.35,8.35,0,0,1,.75.65,1.08,1.08,0,0,1,.29.85,1.38,1.38,0,0,1-.17.56,4.48,4.48,0,0,1-.38.59c-.51.7-1,1-1.5,1a2.22,2.22,0,0,1-.68-.25l-.6-.35a5.15,5.15,0,0,0-.62-.32,1.9,1.9,0,0,0-.75-.13,2.59,2.59,0,0,0-1.3.33,2.7,2.7,0,0,0-.91.9,2.55,2.55,0,0,0-.34,1.31,2.45,2.45,0,0,0,.34,1.3,2.48,2.48,0,0,0,.9.92,2.42,2.42,0,0,0,1.26.34,2.74,2.74,0,0,0,.73-.1,2.83,2.83,0,0,0,.55-.24l.35-.21a6.54,6.54,0,0,1,.57-.36,1.1,1.1,0,0,1,.55-.17,1.23,1.23,0,0,1,.74.27,4.28,4.28,0,0,1,.81.83,2.1,2.1,0,0,1,.49,1,1.18,1.18,0,0,1-.22.86,2.52,2.52,0,0,1-.84.76,4.23,4.23,0,0,1-.72.45,6.49,6.49,0,0,1-1.25.5A5.64,5.64,0,0,1,149.48,35.7Z"/><path class="cls-2" d="M162.63,35.83a7.09,7.09,0,0,1-3-.58,6,6,0,0,1-2.07-1.51,6.4,6.4,0,0,1-1.19-2.09,6.88,6.88,0,0,1-.4-2.3,6.38,6.38,0,0,1,.85-3.32,6.11,6.11,0,0,1,2.36-2.29,7,7,0,0,1,3.47-.84,6.24,6.24,0,0,1,2.51.47,5.23,5.23,0,0,1,1.75,1.2,4.89,4.89,0,0,1,1,1.59,4.28,4.28,0,0,1,.34,1.62,2.78,2.78,0,0,1-.67,2,2.25,2.25,0,0,1-1.68.68H160a1.71,1.71,0,0,0,.46,1.08,2.81,2.81,0,0,0,1,.7,3.5,3.5,0,0,0,1.33.25,8.22,8.22,0,0,0,1-.06,3.7,3.7,0,0,0,.79-.18l.58-.22c.18-.08.34-.14.49-.19a2.41,2.41,0,0,1,.43-.1,1.08,1.08,0,0,1,.67.21,2.06,2.06,0,0,1,.58.72,1.93,1.93,0,0,1,.23.52,2.2,2.2,0,0,1,.06.5,1.34,1.34,0,0,1-.61,1.09,4.85,4.85,0,0,1-1.72.74A11.62,11.62,0,0,1,162.63,35.83ZM160,28.43h3.95a1,1,0,0,0,.57-.14.59.59,0,0,0,.2-.53,1.23,1.23,0,0,0-.27-.78,1.8,1.8,0,0,0-.74-.54,3.22,3.22,0,0,0-1.09-.19,3,3,0,0,0-1.35.3,2.36,2.36,0,0,0-.93.8A1.89,1.89,0,0,0,160,28.43Z"/><path class="cls-2" d="M181.38,35.82a9.16,9.16,0,0,1-1.48-.15,9.62,9.62,0,0,1-1.53-.44,5.23,5.23,0,0,1-1.25-.68,1.31,1.31,0,0,1-.57-.89,1.37,1.37,0,0,1,0-.53,2.08,2.08,0,0,1,.22-.6,5.08,5.08,0,0,1,.44-.67.89.89,0,0,1,.44-.35,1,1,0,0,1,.59,0,3.72,3.72,0,0,1,.8.26l.82.4a7.77,7.77,0,0,0,.88.38,2.58,2.58,0,0,0,.92.16,2.32,2.32,0,0,0,1.09-.21.64.64,0,0,0,.38-.59.6.6,0,0,0-.16-.45,1.6,1.6,0,0,0-.45-.3c-.19-.08-.41-.16-.67-.24l-.81-.21c-.29-.07-.59-.15-.9-.25A9.05,9.05,0,0,1,179,30a4,4,0,0,1-1.05-.71,3.19,3.19,0,0,1-.74-1.08,4,4,0,0,1-.27-1.56,3.59,3.59,0,0,1,.56-2.05,3.51,3.51,0,0,1,1.67-1.26,7.34,7.34,0,0,1,2.7-.44c.3,0,.6,0,.9,0a5.5,5.5,0,0,1,.88.18,7.37,7.37,0,0,1,1.72.72,1.13,1.13,0,0,1,.77.95,2,2,0,0,1-.43,1.25,1.9,1.9,0,0,1-.57.59.89.89,0,0,1-.63.14,4.36,4.36,0,0,1-.86-.34c-.31-.16-.63-.3-1-.44a2.89,2.89,0,0,0-1-.2,2.18,2.18,0,0,0-.72.11,1.11,1.11,0,0,0-.45.3.69.69,0,0,0-.15.44.66.66,0,0,0,.19.51,1.4,1.4,0,0,0,.51.32,6.32,6.32,0,0,0,.75.22c.28.07.59.14.92.2s.92.2,1.39.34a4.85,4.85,0,0,1,1.3.61,3,3,0,0,1,.95,1.08,3.76,3.76,0,0,1,.36,1.77,3.58,3.58,0,0,1-1.38,3A6.33,6.33,0,0,1,181.38,35.82Z"/><path class="cls-2" d="M190.84,21.32a2.48,2.48,0,0,1-1.35-.27,1.14,1.14,0,0,1-.49-.73,4.86,4.86,0,0,1-.09-.95,4.75,4.75,0,0,1,.09-1,1.07,1.07,0,0,1,.5-.7,2.61,2.61,0,0,1,1.36-.26,2.47,2.47,0,0,1,1.33.27,1.18,1.18,0,0,1,.49.73,5.86,5.86,0,0,1,.08,1,4.73,4.73,0,0,1-.09.93,1.09,1.09,0,0,1-.48.71A2.65,2.65,0,0,1,190.84,21.32Zm0,14.3a2.59,2.59,0,0,1-1.33-.26,1,1,0,0,1-.47-.7,5.4,5.4,0,0,1-.08-.91V25a4.46,4.46,0,0,1,.09-.91,1.07,1.07,0,0,1,.48-.7,2.49,2.49,0,0,1,1.33-.26,2.34,2.34,0,0,1,1.29.27,1.13,1.13,0,0,1,.47.71,4.76,4.76,0,0,1,.09.94v8.7a5.31,5.31,0,0,1-.08.91,1,1,0,0,1-.48.69A2.52,2.52,0,0,1,190.83,35.62Z"/><path class="cls-2" d="M197.2,35.63a2.39,2.39,0,0,1-1.3-.28,1.07,1.07,0,0,1-.47-.7,5.28,5.28,0,0,1-.08-.93V25a4.43,4.43,0,0,1,.09-.9,1,1,0,0,1,.49-.68,2.42,2.42,0,0,1,1.32-.26,2.06,2.06,0,0,1,1.35.36,1.5,1.5,0,0,1,.42,1.19l-.32.27a1.88,1.88,0,0,1,.3-.42,4.93,4.93,0,0,1,.65-.63,4.49,4.49,0,0,1,.94-.56,2.8,2.8,0,0,1,1.16-.24,4.35,4.35,0,0,1,1.49.24,3.82,3.82,0,0,1,1.2.7,4.22,4.22,0,0,1,.93,1.17,6.93,6.93,0,0,1,.85-1,4.71,4.71,0,0,1,1.18-.8,3.58,3.58,0,0,1,1.53-.32,4,4,0,0,1,2.48.74A4.46,4.46,0,0,1,213,26a9.39,9.39,0,0,1,.52,3.33v4.47a4.45,4.45,0,0,1-.1.91,1.13,1.13,0,0,1-.49.7,2.41,2.41,0,0,1-1.31.26,2.47,2.47,0,0,1-1.33-.27,1.09,1.09,0,0,1-.47-.72,5.31,5.31,0,0,1-.08-.91V29.26a4.08,4.08,0,0,0-.19-1.29,1.77,1.77,0,0,0-.54-.83,1.36,1.36,0,0,0-.9-.28,1.68,1.68,0,0,0-1,.27,1.6,1.6,0,0,0-.6.8,3.7,3.7,0,0,0-.2,1.35v4.48a3.48,3.48,0,0,1-.12.93,1.21,1.21,0,0,1-.54.7,2.39,2.39,0,0,1-1.34.24,2.11,2.11,0,0,1-1.25-.29,1.12,1.12,0,0,1-.45-.72,5.34,5.34,0,0,1-.07-.89V29.25a4.55,4.55,0,0,0-.17-1.3,1.63,1.63,0,0,0-.53-.82,1.4,1.4,0,0,0-.92-.28,1.57,1.57,0,0,0-1,.33,1.92,1.92,0,0,0-.59.86,3.8,3.8,0,0,0-.18,1.21v4.5a5.37,5.37,0,0,1-.08.93,1.08,1.08,0,0,1-.49.68A2.47,2.47,0,0,1,197.2,35.63Z"/><path class="cls-2" d="M217.65,40.81a2.51,2.51,0,0,1-1.3-.26,1,1,0,0,1-.48-.68,4.91,4.91,0,0,1-.07-.88V25a5.1,5.1,0,0,1,.07-.91,1.05,1.05,0,0,1,.47-.69,2.3,2.3,0,0,1,1.28-.27,2.87,2.87,0,0,1,1.24.22,1.33,1.33,0,0,1,.66.7V39a3.28,3.28,0,0,1-.08.9,1.11,1.11,0,0,1-.49.69A2.38,2.38,0,0,1,217.65,40.81Zm4.8-5.39a4.64,4.64,0,0,1-2.15-.49,4.46,4.46,0,0,1-1.53-1.33,6,6,0,0,1-.93-1.94,7.87,7.87,0,0,1-.28-2.37,8.53,8.53,0,0,1,.32-2.34,6.53,6.53,0,0,1,.94-2,4.3,4.3,0,0,1,1.53-1.35,4.35,4.35,0,0,1,2.11-.49,4.88,4.88,0,0,1,2.15.5A6.54,6.54,0,0,1,226.45,25a6.4,6.4,0,0,1,1.27,2,6.19,6.19,0,0,1,.46,2.38,6.14,6.14,0,0,1-1.73,4.3A5.73,5.73,0,0,1,224.63,35,5.24,5.24,0,0,1,222.45,35.42Zm-.5-3.53a2.28,2.28,0,0,0,1.25-.34,2.51,2.51,0,0,0,.89-.91,2.42,2.42,0,0,0,.34-1.27,2.61,2.61,0,0,0-.32-1.28,2.48,2.48,0,0,0-3.37-.89,2.5,2.5,0,0,0-.87.9,2.56,2.56,0,0,0-.31,1.26,2.51,2.51,0,0,0,.32,1.28,2.48,2.48,0,0,0,.88.91A2.17,2.17,0,0,0,222,31.89Z"/><path class="cls-2" d="M235,35.65a16.4,16.4,0,0,1-1.83-.1,3.9,3.9,0,0,1-1.35-.4,2.58,2.58,0,0,1-.9-.84,4,4,0,0,1-.52-1.38,9.39,9.39,0,0,1-.17-2.06V19.32a4.4,4.4,0,0,1,.1-.92,1.15,1.15,0,0,1,.49-.7,2.29,2.29,0,0,1,1.31-.28,2.24,2.24,0,0,1,1.29.28,1.15,1.15,0,0,1,.49.7,4.4,4.4,0,0,1,.1.92V30.7a4.16,4.16,0,0,0,0,.66.8.8,0,0,0,.15.41.51.51,0,0,0,.31.2,1.9,1.9,0,0,0,.52.05,2.7,2.7,0,0,1,.62.08.9.9,0,0,1,.53.45,2.56,2.56,0,0,1,.23,1.25,2.79,2.79,0,0,1-.23,1.3.86.86,0,0,1-.54.47A2.65,2.65,0,0,1,235,35.65Z"/><path class="cls-2" d="M244.45,35.88a7.09,7.09,0,0,1-3-.58,5.84,5.84,0,0,1-2.06-1.51,6.43,6.43,0,0,1-1.2-2.09,6.88,6.88,0,0,1-.4-2.3,6.48,6.48,0,0,1,.85-3.32A6.14,6.14,0,0,1,241,23.79a7,7,0,0,1,3.46-.84,6.21,6.21,0,0,1,2.51.47,5.23,5.23,0,0,1,1.75,1.2,5.1,5.1,0,0,1,1,1.59,4.46,4.46,0,0,1,.33,1.62,2.82,2.82,0,0,1-.66,2.05,2.28,2.28,0,0,1-1.69.68h-5.95a1.77,1.77,0,0,0,.46,1.08,2.85,2.85,0,0,0,1,.7,3.44,3.44,0,0,0,1.32.25,8.1,8.1,0,0,0,1-.06,3.7,3.7,0,0,0,.79-.18c.22-.07.41-.15.59-.22a4.32,4.32,0,0,1,.48-.19,2.63,2.63,0,0,1,.43-.1,1,1,0,0,1,.67.21,2.06,2.06,0,0,1,.58.72,2.37,2.37,0,0,1,.24.52,2.2,2.2,0,0,1,.06.5,1.35,1.35,0,0,1-.62,1.09,4.61,4.61,0,0,1-1.72.73A11,11,0,0,1,244.45,35.88Zm-2.67-7.4h3.95a1.06,1.06,0,0,0,.58-.14.62.62,0,0,0,.2-.54,1.18,1.18,0,0,0-.28-.77,1.84,1.84,0,0,0-.73-.54,3,3,0,0,0-1.09-.19,3,3,0,0,0-1.35.3,2.39,2.39,0,0,0-.94.8A1.87,1.87,0,0,0,241.78,28.48Z"/><path class="cls-3" d="M109.73,35.77a8.64,8.64,0,0,1-2.33-.34,9.39,9.39,0,0,1-2.41-1,8.82,8.82,0,0,1-2.13-1.79A7.87,7.87,0,0,1,101.35,30a9.14,9.14,0,0,1-.57-3.32,8.59,8.59,0,0,1,.57-3.24A8.06,8.06,0,0,1,102.86,21,9,9,0,0,1,105,19.28a9.69,9.69,0,0,1,2.41-1,8.89,8.89,0,0,1,2.39-.34,7.48,7.48,0,0,1,2.23.3,9,9,0,0,1,1.53.63l.76.43a6.82,6.82,0,0,1,.85.65,1.21,1.21,0,0,1,.43.9,1.81,1.81,0,0,1-.11.6,2.61,2.61,0,0,1-.34.6,3.33,3.33,0,0,1-.78.83,1.24,1.24,0,0,1-.72.27,1.13,1.13,0,0,1-.58-.16c-.18-.1-.4-.23-.65-.4s-.28-.18-.5-.31a4,4,0,0,0-.88-.34,5.82,5.82,0,0,0-3.16.15,5,5,0,0,0-1.63.93,4.45,4.45,0,0,0-1.2,1.58,5.3,5.3,0,0,0-.45,2.26,4.92,4.92,0,0,0,.46,2.25,4.57,4.57,0,0,0,1.21,1.58,5.29,5.29,0,0,0,3.37,1.25,4.73,4.73,0,0,0,1.28-.15,4.64,4.64,0,0,0,.92-.36c.27-.14.49-.27.68-.39l.56-.32a1.26,1.26,0,0,1,.59-.15,1.15,1.15,0,0,1,.71.28,3.21,3.21,0,0,1,.74.87,2.6,2.6,0,0,1,.33.64,1.7,1.7,0,0,1,.12.61,1,1,0,0,1-.42.86,7.5,7.5,0,0,1-.86.62l-.75.43a6.67,6.67,0,0,1-1.53.63A8,8,0,0,1,109.73,35.77Z"/><path class="cls-3" d="M119.6,35.58a2.5,2.5,0,0,1-1.31-.26,1.1,1.1,0,0,1-.47-.72,4.7,4.7,0,0,1-.09-.92V25a5.25,5.25,0,0,1,.08-.92,1,1,0,0,1,.49-.69,2.59,2.59,0,0,1,1.33-.26,2.5,2.5,0,0,1,1.26.24,1.06,1.06,0,0,1,.49.55,2.09,2.09,0,0,1,.1.53l-.3.15a3.22,3.22,0,0,1,.26-.36,3.58,3.58,0,0,1,.59-.55,3.53,3.53,0,0,1,2.15-.68l.61,0a4.89,4.89,0,0,1,.7.15,3.32,3.32,0,0,1,.66.3,1.69,1.69,0,0,1,.49.47,1.2,1.2,0,0,1,.19.67,3,3,0,0,1-.48,1.74,1.4,1.4,0,0,1-1.2.71,2.11,2.11,0,0,1-.6-.06,1,1,0,0,1-.29-.15.93.93,0,0,0-.26-.15,1.68,1.68,0,0,0-.55-.06,2.34,2.34,0,0,0-.71.1,1.85,1.85,0,0,0-.63.31,1.5,1.5,0,0,0-.45.52,1.53,1.53,0,0,0-.16.72v5.47a4.46,4.46,0,0,1-.09.91,1.07,1.07,0,0,1-.49.69A2.6,2.6,0,0,1,119.6,35.58Z"/><path class="cls-3" d="M134.18,35.56a5.21,5.21,0,0,1-3.92-1.71,5.87,5.87,0,0,1-1.17-1.93,7.06,7.06,0,0,1-.41-2.44V25a4.6,4.6,0,0,1,.08-.93,1.13,1.13,0,0,1,.49-.7,2.47,2.47,0,0,1,1.33-.27,2.29,2.29,0,0,1,1.31.28,1.1,1.1,0,0,1,.47.71,4.62,4.62,0,0,1,.09.94v4.5a2.78,2.78,0,0,0,.26,1.26,1.73,1.73,0,0,0,.77.81,2.78,2.78,0,0,0,2.45,0,2,2,0,0,0,.8-.81,2.48,2.48,0,0,0,.29-1.25V24.94a4.59,4.59,0,0,1,.09-.93,1,1,0,0,1,.49-.68,3.42,3.42,0,0,1,2.64,0,1.1,1.1,0,0,1,.47.71,4.63,4.63,0,0,1,.09.92v8.8a4.12,4.12,0,0,1-.08.88,1,1,0,0,1-.49.67,2.63,2.63,0,0,1-1.3.25,2.89,2.89,0,0,1-1.05-.16,1.23,1.23,0,0,1-.55-.37.94.94,0,0,1-.21-.48,2.42,2.42,0,0,1,0-.45l.32-.27a2.17,2.17,0,0,1-.32.39,7.18,7.18,0,0,1-.66.57,4.28,4.28,0,0,1-1,.54A3.31,3.31,0,0,1,134.18,35.56Z"/><path class="cls-3" d="M149.48,35.7a6.47,6.47,0,0,1-2.24-.42,6.92,6.92,0,0,1-2.1-1.21,5.77,5.77,0,0,1-1.53-2,6.76,6.76,0,0,1,0-5.48,5.85,5.85,0,0,1,1.53-2,6.71,6.71,0,0,1,2.08-1.21,6.38,6.38,0,0,1,2.22-.41,6.08,6.08,0,0,1,1.66.21,5.41,5.41,0,0,1,1.25.51,3.87,3.87,0,0,1,.74.53,8.35,8.35,0,0,1,.75.65,1.08,1.08,0,0,1,.29.85,1.38,1.38,0,0,1-.17.56,4.48,4.48,0,0,1-.38.59c-.51.7-1,1-1.5,1a2.22,2.22,0,0,1-.68-.25l-.6-.35a5.15,5.15,0,0,0-.62-.32,1.9,1.9,0,0,0-.75-.13,2.59,2.59,0,0,0-1.3.33,2.7,2.7,0,0,0-.91.9,2.55,2.55,0,0,0-.34,1.31,2.45,2.45,0,0,0,.34,1.3,2.48,2.48,0,0,0,.9.92,2.42,2.42,0,0,0,1.26.34,2.74,2.74,0,0,0,.73-.1,2.83,2.83,0,0,0,.55-.24l.35-.21a6.54,6.54,0,0,1,.57-.36,1.1,1.1,0,0,1,.55-.17,1.23,1.23,0,0,1,.74.27,4.28,4.28,0,0,1,.81.83,2.1,2.1,0,0,1,.49,1,1.18,1.18,0,0,1-.22.86,2.52,2.52,0,0,1-.84.76,4.23,4.23,0,0,1-.72.45,6.49,6.49,0,0,1-1.25.5A5.64,5.64,0,0,1,149.48,35.7Z"/><path class="cls-3" d="M162.63,35.83a7.09,7.09,0,0,1-3-.58,6,6,0,0,1-2.07-1.51,6.4,6.4,0,0,1-1.19-2.09,6.88,6.88,0,0,1-.4-2.3,6.38,6.38,0,0,1,.85-3.32,6.11,6.11,0,0,1,2.36-2.29,7,7,0,0,1,3.47-.84,6.24,6.24,0,0,1,2.51.47,5.23,5.23,0,0,1,1.75,1.2,4.89,4.89,0,0,1,1,1.59,4.28,4.28,0,0,1,.34,1.62,2.78,2.78,0,0,1-.67,2,2.25,2.25,0,0,1-1.68.68H160a1.71,1.71,0,0,0,.46,1.08,2.81,2.81,0,0,0,1,.7,3.5,3.5,0,0,0,1.33.25,8.22,8.22,0,0,0,1-.06,3.7,3.7,0,0,0,.79-.18l.58-.22c.18-.08.34-.14.49-.19a2.41,2.41,0,0,1,.43-.1,1.08,1.08,0,0,1,.67.21,2.06,2.06,0,0,1,.58.72,1.93,1.93,0,0,1,.23.52,2.2,2.2,0,0,1,.06.5,1.34,1.34,0,0,1-.61,1.09,4.85,4.85,0,0,1-1.72.74A11.62,11.62,0,0,1,162.63,35.83ZM160,28.43h3.95a1,1,0,0,0,.57-.14.59.59,0,0,0,.2-.53,1.23,1.23,0,0,0-.27-.78,1.8,1.8,0,0,0-.74-.54,3.22,3.22,0,0,0-1.09-.19,3,3,0,0,0-1.35.3,2.36,2.36,0,0,0-.93.8A1.89,1.89,0,0,0,160,28.43Z"/><path class="cls-3" d="M181.38,35.82a9.16,9.16,0,0,1-1.48-.15,9.62,9.62,0,0,1-1.53-.44,5.23,5.23,0,0,1-1.25-.68,1.31,1.31,0,0,1-.57-.89,1.37,1.37,0,0,1,0-.53,2.08,2.08,0,0,1,.22-.6,5.08,5.08,0,0,1,.44-.67.89.89,0,0,1,.44-.35,1,1,0,0,1,.59,0,3.72,3.72,0,0,1,.8.26l.82.4a7.77,7.77,0,0,0,.88.38,2.58,2.58,0,0,0,.92.16,2.32,2.32,0,0,0,1.09-.21.64.64,0,0,0,.38-.59.6.6,0,0,0-.16-.45,1.6,1.6,0,0,0-.45-.3c-.19-.08-.41-.16-.67-.24l-.81-.21c-.29-.07-.59-.15-.9-.25A9.05,9.05,0,0,1,179,30a4,4,0,0,1-1.05-.71,3.19,3.19,0,0,1-.74-1.08,4,4,0,0,1-.27-1.56,3.59,3.59,0,0,1,.56-2.05,3.51,3.51,0,0,1,1.67-1.26,7.34,7.34,0,0,1,2.7-.44c.3,0,.6,0,.9,0a5.5,5.5,0,0,1,.88.18,7.37,7.37,0,0,1,1.72.72,1.13,1.13,0,0,1,.77.95,2,2,0,0,1-.43,1.25,1.9,1.9,0,0,1-.57.59.89.89,0,0,1-.63.14,4.36,4.36,0,0,1-.86-.34c-.31-.16-.63-.3-1-.44a2.89,2.89,0,0,0-1-.2,2.18,2.18,0,0,0-.72.11,1.11,1.11,0,0,0-.45.3.69.69,0,0,0-.15.44.66.66,0,0,0,.19.51,1.4,1.4,0,0,0,.51.32,6.32,6.32,0,0,0,.75.22c.28.07.59.14.92.2s.92.2,1.39.34a4.85,4.85,0,0,1,1.3.61,3,3,0,0,1,.95,1.08,3.76,3.76,0,0,1,.36,1.77,3.58,3.58,0,0,1-1.38,3A6.33,6.33,0,0,1,181.38,35.82Z"/><path class="cls-3" d="M190.84,21.32a2.48,2.48,0,0,1-1.35-.27,1.14,1.14,0,0,1-.49-.73,4.86,4.86,0,0,1-.09-.95,4.75,4.75,0,0,1,.09-1,1.07,1.07,0,0,1,.5-.7,2.61,2.61,0,0,1,1.36-.26,2.47,2.47,0,0,1,1.33.27,1.18,1.18,0,0,1,.49.73,5.86,5.86,0,0,1,.08,1,4.73,4.73,0,0,1-.09.93,1.09,1.09,0,0,1-.48.71A2.65,2.65,0,0,1,190.84,21.32Zm0,14.3a2.59,2.59,0,0,1-1.33-.26,1,1,0,0,1-.47-.7,5.4,5.4,0,0,1-.08-.91V25a4.46,4.46,0,0,1,.09-.91,1.07,1.07,0,0,1,.48-.7,2.49,2.49,0,0,1,1.33-.26,2.34,2.34,0,0,1,1.29.27,1.13,1.13,0,0,1,.47.71,4.76,4.76,0,0,1,.09.94v8.7a5.31,5.31,0,0,1-.08.91,1,1,0,0,1-.48.69A2.52,2.52,0,0,1,190.83,35.62Z"/><path class="cls-3" d="M197.2,35.63a2.39,2.39,0,0,1-1.3-.28,1.07,1.07,0,0,1-.47-.7,5.28,5.28,0,0,1-.08-.93V25a4.43,4.43,0,0,1,.09-.9,1,1,0,0,1,.49-.68,2.42,2.42,0,0,1,1.32-.26,2.06,2.06,0,0,1,1.35.36,1.5,1.5,0,0,1,.42,1.19l-.32.27a1.88,1.88,0,0,1,.3-.42,4.93,4.93,0,0,1,.65-.63,4.49,4.49,0,0,1,.94-.56,2.8,2.8,0,0,1,1.16-.24,4.35,4.35,0,0,1,1.49.24,3.82,3.82,0,0,1,1.2.7,4.22,4.22,0,0,1,.93,1.17,6.93,6.93,0,0,1,.85-1,4.71,4.71,0,0,1,1.18-.8,3.58,3.58,0,0,1,1.53-.32,4,4,0,0,1,2.48.74A4.46,4.46,0,0,1,213,26a9.39,9.39,0,0,1,.52,3.33v4.47a4.45,4.45,0,0,1-.1.91,1.13,1.13,0,0,1-.49.7,2.41,2.41,0,0,1-1.31.26,2.47,2.47,0,0,1-1.33-.27,1.09,1.09,0,0,1-.47-.72,5.31,5.31,0,0,1-.08-.91V29.26a4.08,4.08,0,0,0-.19-1.29,1.77,1.77,0,0,0-.54-.83,1.36,1.36,0,0,0-.9-.28,1.68,1.68,0,0,0-1,.27,1.6,1.6,0,0,0-.6.8,3.7,3.7,0,0,0-.2,1.35v4.48a3.48,3.48,0,0,1-.12.93,1.21,1.21,0,0,1-.54.7,2.39,2.39,0,0,1-1.34.24,2.11,2.11,0,0,1-1.25-.29,1.12,1.12,0,0,1-.45-.72,5.34,5.34,0,0,1-.07-.89V29.25a4.55,4.55,0,0,0-.17-1.3,1.63,1.63,0,0,0-.53-.82,1.4,1.4,0,0,0-.92-.28,1.57,1.57,0,0,0-1,.33,1.92,1.92,0,0,0-.59.86,3.8,3.8,0,0,0-.18,1.21v4.5a5.37,5.37,0,0,1-.08.93,1.08,1.08,0,0,1-.49.68A2.47,2.47,0,0,1,197.2,35.63Z"/><path class="cls-3" d="M217.65,40.81a2.51,2.51,0,0,1-1.3-.26,1,1,0,0,1-.48-.68,4.91,4.91,0,0,1-.07-.88V25a5.1,5.1,0,0,1,.07-.91,1.05,1.05,0,0,1,.47-.69,2.3,2.3,0,0,1,1.28-.27,2.87,2.87,0,0,1,1.24.22,1.33,1.33,0,0,1,.66.7V39a3.28,3.28,0,0,1-.08.9,1.11,1.11,0,0,1-.49.69A2.38,2.38,0,0,1,217.65,40.81Zm4.8-5.39a4.64,4.64,0,0,1-2.15-.49,4.46,4.46,0,0,1-1.53-1.33,6,6,0,0,1-.93-1.94,7.87,7.87,0,0,1-.28-2.37,8.53,8.53,0,0,1,.32-2.34,6.53,6.53,0,0,1,.94-2,4.3,4.3,0,0,1,1.53-1.35,4.35,4.35,0,0,1,2.11-.49,4.88,4.88,0,0,1,2.15.5A6.54,6.54,0,0,1,226.45,25a6.4,6.4,0,0,1,1.27,2,6.19,6.19,0,0,1,.46,2.38,6.14,6.14,0,0,1-1.73,4.3A5.73,5.73,0,0,1,224.63,35,5.24,5.24,0,0,1,222.45,35.42Zm-.5-3.53a2.28,2.28,0,0,0,1.25-.34,2.51,2.51,0,0,0,.89-.91,2.42,2.42,0,0,0,.34-1.27,2.61,2.61,0,0,0-.32-1.28,2.48,2.48,0,0,0-3.37-.89,2.5,2.5,0,0,0-.87.9,2.56,2.56,0,0,0-.31,1.26,2.51,2.51,0,0,0,.32,1.28,2.48,2.48,0,0,0,.88.91A2.17,2.17,0,0,0,222,31.89Z"/><path class="cls-3" d="M235,35.65a16.4,16.4,0,0,1-1.83-.1,3.9,3.9,0,0,1-1.35-.4,2.58,2.58,0,0,1-.9-.84,4,4,0,0,1-.52-1.38,9.39,9.39,0,0,1-.17-2.06V19.32a4.4,4.4,0,0,1,.1-.92,1.15,1.15,0,0,1,.49-.7,2.29,2.29,0,0,1,1.31-.28,2.24,2.24,0,0,1,1.29.28,1.15,1.15,0,0,1,.49.7,4.4,4.4,0,0,1,.1.92V30.7a4.16,4.16,0,0,0,0,.66.8.8,0,0,0,.15.41.51.51,0,0,0,.31.2,1.9,1.9,0,0,0,.52.05,2.7,2.7,0,0,1,.62.08.9.9,0,0,1,.53.45,2.56,2.56,0,0,1,.23,1.25,2.79,2.79,0,0,1-.23,1.3.86.86,0,0,1-.54.47A2.65,2.65,0,0,1,235,35.65Z"/><path class="cls-3" d="M244.45,35.88a7.09,7.09,0,0,1-3-.58,5.84,5.84,0,0,1-2.06-1.51,6.43,6.43,0,0,1-1.2-2.09,6.88,6.88,0,0,1-.4-2.3,6.48,6.48,0,0,1,.85-3.32A6.14,6.14,0,0,1,241,23.79a7,7,0,0,1,3.46-.84,6.21,6.21,0,0,1,2.51.47,5.23,5.23,0,0,1,1.75,1.2,5.1,5.1,0,0,1,1,1.59,4.46,4.46,0,0,1,.33,1.62,2.82,2.82,0,0,1-.66,2.05,2.28,2.28,0,0,1-1.69.68h-5.95a1.77,1.77,0,0,0,.46,1.08,2.85,2.85,0,0,0,1,.7,3.44,3.44,0,0,0,1.32.25,8.1,8.1,0,0,0,1-.06,3.7,3.7,0,0,0,.79-.18c.22-.07.41-.15.59-.22a4.32,4.32,0,0,1,.48-.19,2.63,2.63,0,0,1,.43-.1,1,1,0,0,1,.67.21,2.06,2.06,0,0,1,.58.72,2.37,2.37,0,0,1,.24.52,2.2,2.2,0,0,1,.06.5,1.35,1.35,0,0,1-.62,1.09,4.61,4.61,0,0,1-1.72.73A11,11,0,0,1,244.45,35.88Zm-2.67-7.4h3.95a1.06,1.06,0,0,0,.58-.14.62.62,0,0,0,.2-.54,1.18,1.18,0,0,0-.28-.77,1.84,1.84,0,0,0-.73-.54,3,3,0,0,0-1.09-.19,3,3,0,0,0-1.35.3,2.39,2.39,0,0,0-.94.8A1.87,1.87,0,0,0,241.78,28.48Z"/><path class="cls-2" d="M109.73,35.77a8.64,8.64,0,0,1-2.33-.34,9.39,9.39,0,0,1-2.41-1,8.82,8.82,0,0,1-2.13-1.79A7.87,7.87,0,0,1,101.35,30a9.14,9.14,0,0,1-.57-3.32,8.59,8.59,0,0,1,.57-3.24A8.06,8.06,0,0,1,102.86,21,9,9,0,0,1,105,19.28a9.69,9.69,0,0,1,2.41-1,8.89,8.89,0,0,1,2.39-.34,7.48,7.48,0,0,1,2.23.3,9,9,0,0,1,1.53.63l.76.43a6.82,6.82,0,0,1,.85.65,1.21,1.21,0,0,1,.43.9,1.81,1.81,0,0,1-.11.6,2.61,2.61,0,0,1-.34.6,3.33,3.33,0,0,1-.78.83,1.24,1.24,0,0,1-.72.27,1.13,1.13,0,0,1-.58-.16c-.18-.1-.4-.23-.65-.4s-.28-.18-.5-.31a4,4,0,0,0-.88-.34,5.82,5.82,0,0,0-3.16.15,5,5,0,0,0-1.63.93,4.45,4.45,0,0,0-1.2,1.58,5.3,5.3,0,0,0-.45,2.26,4.92,4.92,0,0,0,.46,2.25,4.57,4.57,0,0,0,1.21,1.58,5.29,5.29,0,0,0,3.37,1.25,4.73,4.73,0,0,0,1.28-.15,4.64,4.64,0,0,0,.92-.36c.27-.14.49-.27.68-.39l.56-.32a1.26,1.26,0,0,1,.59-.15,1.15,1.15,0,0,1,.71.28,3.21,3.21,0,0,1,.74.87,2.6,2.6,0,0,1,.33.64,1.7,1.7,0,0,1,.12.61,1,1,0,0,1-.42.86,7.5,7.5,0,0,1-.86.62l-.75.43a6.67,6.67,0,0,1-1.53.63A8,8,0,0,1,109.73,35.77Z"/><path class="cls-2" d="M119.6,35.58a2.5,2.5,0,0,1-1.31-.26,1.1,1.1,0,0,1-.47-.72,4.7,4.7,0,0,1-.09-.92V25a5.25,5.25,0,0,1,.08-.92,1,1,0,0,1,.49-.69,2.59,2.59,0,0,1,1.33-.26,2.5,2.5,0,0,1,1.26.24,1.06,1.06,0,0,1,.49.55,2.09,2.09,0,0,1,.1.53l-.3.15a3.22,3.22,0,0,1,.26-.36,3.58,3.58,0,0,1,.59-.55,3.53,3.53,0,0,1,2.15-.68l.61,0a4.89,4.89,0,0,1,.7.15,3.32,3.32,0,0,1,.66.3,1.69,1.69,0,0,1,.49.47,1.2,1.2,0,0,1,.19.67,3,3,0,0,1-.48,1.74,1.4,1.4,0,0,1-1.2.71,2.11,2.11,0,0,1-.6-.06,1,1,0,0,1-.29-.15.93.93,0,0,0-.26-.15,1.68,1.68,0,0,0-.55-.06,2.34,2.34,0,0,0-.71.1,1.85,1.85,0,0,0-.63.31,1.5,1.5,0,0,0-.45.52,1.53,1.53,0,0,0-.16.72v5.47a4.46,4.46,0,0,1-.09.91,1.07,1.07,0,0,1-.49.69A2.6,2.6,0,0,1,119.6,35.58Z"/><path class="cls-2" d="M134.18,35.56a5.21,5.21,0,0,1-3.92-1.71,5.87,5.87,0,0,1-1.17-1.93,7.06,7.06,0,0,1-.41-2.44V25a4.6,4.6,0,0,1,.08-.93,1.13,1.13,0,0,1,.49-.7,2.47,2.47,0,0,1,1.33-.27,2.29,2.29,0,0,1,1.31.28,1.1,1.1,0,0,1,.47.71,4.62,4.62,0,0,1,.09.94v4.5a2.78,2.78,0,0,0,.26,1.26,1.73,1.73,0,0,0,.77.81,2.78,2.78,0,0,0,2.45,0,2,2,0,0,0,.8-.81,2.48,2.48,0,0,0,.29-1.25V24.94a4.59,4.59,0,0,1,.09-.93,1,1,0,0,1,.49-.68,3.42,3.42,0,0,1,2.64,0,1.1,1.1,0,0,1,.47.71,4.63,4.63,0,0,1,.09.92v8.8a4.12,4.12,0,0,1-.08.88,1,1,0,0,1-.49.67,2.63,2.63,0,0,1-1.3.25,2.89,2.89,0,0,1-1.05-.16,1.23,1.23,0,0,1-.55-.37.94.94,0,0,1-.21-.48,2.42,2.42,0,0,1,0-.45l.32-.27a2.17,2.17,0,0,1-.32.39,7.18,7.18,0,0,1-.66.57,4.28,4.28,0,0,1-1,.54A3.31,3.31,0,0,1,134.18,35.56Z"/><path class="cls-2" d="M149.48,35.7a6.47,6.47,0,0,1-2.24-.42,6.92,6.92,0,0,1-2.1-1.21,5.77,5.77,0,0,1-1.53-2,6.76,6.76,0,0,1,0-5.48,5.85,5.85,0,0,1,1.53-2,6.71,6.71,0,0,1,2.08-1.21,6.38,6.38,0,0,1,2.22-.41,6.08,6.08,0,0,1,1.66.21,5.41,5.41,0,0,1,1.25.51,3.87,3.87,0,0,1,.74.53,8.35,8.35,0,0,1,.75.65,1.08,1.08,0,0,1,.29.85,1.38,1.38,0,0,1-.17.56,4.48,4.48,0,0,1-.38.59c-.51.7-1,1-1.5,1a2.22,2.22,0,0,1-.68-.25l-.6-.35a5.15,5.15,0,0,0-.62-.32,1.9,1.9,0,0,0-.75-.13,2.59,2.59,0,0,0-1.3.33,2.7,2.7,0,0,0-.91.9,2.55,2.55,0,0,0-.34,1.31,2.45,2.45,0,0,0,.34,1.3,2.48,2.48,0,0,0,.9.92,2.42,2.42,0,0,0,1.26.34,2.74,2.74,0,0,0,.73-.1,2.83,2.83,0,0,0,.55-.24l.35-.21a6.54,6.54,0,0,1,.57-.36,1.1,1.1,0,0,1,.55-.17,1.23,1.23,0,0,1,.74.27,4.28,4.28,0,0,1,.81.83,2.1,2.1,0,0,1,.49,1,1.18,1.18,0,0,1-.22.86,2.52,2.52,0,0,1-.84.76,4.23,4.23,0,0,1-.72.45,6.49,6.49,0,0,1-1.25.5A5.64,5.64,0,0,1,149.48,35.7Z"/><path class="cls-2" d="M162.63,35.83a7.09,7.09,0,0,1-3-.58,6,6,0,0,1-2.07-1.51,6.4,6.4,0,0,1-1.19-2.09,6.88,6.88,0,0,1-.4-2.3,6.38,6.38,0,0,1,.85-3.32,6.11,6.11,0,0,1,2.36-2.29,7,7,0,0,1,3.47-.84,6.24,6.24,0,0,1,2.51.47,5.23,5.23,0,0,1,1.75,1.2,4.89,4.89,0,0,1,1,1.59,4.28,4.28,0,0,1,.34,1.62,2.78,2.78,0,0,1-.67,2,2.25,2.25,0,0,1-1.68.68H160a1.71,1.71,0,0,0,.46,1.08,2.81,2.81,0,0,0,1,.7,3.5,3.5,0,0,0,1.33.25,8.22,8.22,0,0,0,1-.06,3.7,3.7,0,0,0,.79-.18l.58-.22c.18-.08.34-.14.49-.19a2.41,2.41,0,0,1,.43-.1,1.08,1.08,0,0,1,.67.21,2.06,2.06,0,0,1,.58.72,1.93,1.93,0,0,1,.23.52,2.2,2.2,0,0,1,.06.5,1.34,1.34,0,0,1-.61,1.09,4.85,4.85,0,0,1-1.72.74A11.62,11.62,0,0,1,162.63,35.83ZM160,28.43h3.95a1,1,0,0,0,.57-.14.59.59,0,0,0,.2-.53,1.23,1.23,0,0,0-.27-.78,1.8,1.8,0,0,0-.74-.54,3.22,3.22,0,0,0-1.09-.19,3,3,0,0,0-1.35.3,2.36,2.36,0,0,0-.93.8A1.89,1.89,0,0,0,160,28.43Z"/><path class="cls-2" d="M181.38,35.82a9.16,9.16,0,0,1-1.48-.15,9.62,9.62,0,0,1-1.53-.44,5.23,5.23,0,0,1-1.25-.68,1.31,1.31,0,0,1-.57-.89,1.37,1.37,0,0,1,0-.53,2.08,2.08,0,0,1,.22-.6,5.08,5.08,0,0,1,.44-.67.89.89,0,0,1,.44-.35,1,1,0,0,1,.59,0,3.72,3.72,0,0,1,.8.26l.82.4a7.77,7.77,0,0,0,.88.38,2.58,2.58,0,0,0,.92.16,2.32,2.32,0,0,0,1.09-.21.64.64,0,0,0,.38-.59.6.6,0,0,0-.16-.45,1.6,1.6,0,0,0-.45-.3c-.19-.08-.41-.16-.67-.24l-.81-.21c-.29-.07-.59-.15-.9-.25A9.05,9.05,0,0,1,179,30a4,4,0,0,1-1.05-.71,3.19,3.19,0,0,1-.74-1.08,4,4,0,0,1-.27-1.56,3.59,3.59,0,0,1,.56-2.05,3.51,3.51,0,0,1,1.67-1.26,7.34,7.34,0,0,1,2.7-.44c.3,0,.6,0,.9,0a5.5,5.5,0,0,1,.88.18,7.37,7.37,0,0,1,1.72.72,1.13,1.13,0,0,1,.77.95,2,2,0,0,1-.43,1.25,1.9,1.9,0,0,1-.57.59.89.89,0,0,1-.63.14,4.36,4.36,0,0,1-.86-.34c-.31-.16-.63-.3-1-.44a2.89,2.89,0,0,0-1-.2,2.18,2.18,0,0,0-.72.11,1.11,1.11,0,0,0-.45.3.69.69,0,0,0-.15.44.66.66,0,0,0,.19.51,1.4,1.4,0,0,0,.51.32,6.32,6.32,0,0,0,.75.22c.28.07.59.14.92.2s.92.2,1.39.34a4.85,4.85,0,0,1,1.3.61,3,3,0,0,1,.95,1.08,3.76,3.76,0,0,1,.36,1.77,3.58,3.58,0,0,1-1.38,3A6.33,6.33,0,0,1,181.38,35.82Z"/><path class="cls-2" d="M190.84,21.32a2.48,2.48,0,0,1-1.35-.27,1.14,1.14,0,0,1-.49-.73,4.86,4.86,0,0,1-.09-.95,4.75,4.75,0,0,1,.09-1,1.07,1.07,0,0,1,.5-.7,2.61,2.61,0,0,1,1.36-.26,2.47,2.47,0,0,1,1.33.27,1.18,1.18,0,0,1,.49.73,5.86,5.86,0,0,1,.08,1,4.73,4.73,0,0,1-.09.93,1.09,1.09,0,0,1-.48.71A2.65,2.65,0,0,1,190.84,21.32Zm0,14.3a2.59,2.59,0,0,1-1.33-.26,1,1,0,0,1-.47-.7,5.4,5.4,0,0,1-.08-.91V25a4.46,4.46,0,0,1,.09-.91,1.07,1.07,0,0,1,.48-.7,2.49,2.49,0,0,1,1.33-.26,2.34,2.34,0,0,1,1.29.27,1.13,1.13,0,0,1,.47.71,4.76,4.76,0,0,1,.09.94v8.7a5.31,5.31,0,0,1-.08.91,1,1,0,0,1-.48.69A2.52,2.52,0,0,1,190.83,35.62Z"/><path class="cls-2" d="M197.2,35.63a2.39,2.39,0,0,1-1.3-.28,1.07,1.07,0,0,1-.47-.7,5.28,5.28,0,0,1-.08-.93V25a4.43,4.43,0,0,1,.09-.9,1,1,0,0,1,.49-.68,2.42,2.42,0,0,1,1.32-.26,2.06,2.06,0,0,1,1.35.36,1.5,1.5,0,0,1,.42,1.19l-.32.27a1.88,1.88,0,0,1,.3-.42,4.93,4.93,0,0,1,.65-.63,4.49,4.49,0,0,1,.94-.56,2.8,2.8,0,0,1,1.16-.24,4.35,4.35,0,0,1,1.49.24,3.82,3.82,0,0,1,1.2.7,4.22,4.22,0,0,1,.93,1.17,6.93,6.93,0,0,1,.85-1,4.71,4.71,0,0,1,1.18-.8,3.58,3.58,0,0,1,1.53-.32,4,4,0,0,1,2.48.74A4.46,4.46,0,0,1,213,26a9.39,9.39,0,0,1,.52,3.33v4.47a4.45,4.45,0,0,1-.1.91,1.13,1.13,0,0,1-.49.7,2.41,2.41,0,0,1-1.31.26,2.47,2.47,0,0,1-1.33-.27,1.09,1.09,0,0,1-.47-.72,5.31,5.31,0,0,1-.08-.91V29.26a4.08,4.08,0,0,0-.19-1.29,1.77,1.77,0,0,0-.54-.83,1.36,1.36,0,0,0-.9-.28,1.68,1.68,0,0,0-1,.27,1.6,1.6,0,0,0-.6.8,3.7,3.7,0,0,0-.2,1.35v4.48a3.48,3.48,0,0,1-.12.93,1.21,1.21,0,0,1-.54.7,2.39,2.39,0,0,1-1.34.24,2.11,2.11,0,0,1-1.25-.29,1.12,1.12,0,0,1-.45-.72,5.34,5.34,0,0,1-.07-.89V29.25a4.55,4.55,0,0,0-.17-1.3,1.63,1.63,0,0,0-.53-.82,1.4,1.4,0,0,0-.92-.28,1.57,1.57,0,0,0-1,.33,1.92,1.92,0,0,0-.59.86,3.8,3.8,0,0,0-.18,1.21v4.5a5.37,5.37,0,0,1-.08.93,1.08,1.08,0,0,1-.49.68A2.47,2.47,0,0,1,197.2,35.63Z"/><path class="cls-2" d="M217.65,40.81a2.51,2.51,0,0,1-1.3-.26,1,1,0,0,1-.48-.68,4.91,4.91,0,0,1-.07-.88V25a5.1,5.1,0,0,1,.07-.91,1.05,1.05,0,0,1,.47-.69,2.3,2.3,0,0,1,1.28-.27,2.87,2.87,0,0,1,1.24.22,1.33,1.33,0,0,1,.66.7V39a3.28,3.28,0,0,1-.08.9,1.11,1.11,0,0,1-.49.69A2.38,2.38,0,0,1,217.65,40.81Zm4.8-5.39a4.64,4.64,0,0,1-2.15-.49,4.46,4.46,0,0,1-1.53-1.33,6,6,0,0,1-.93-1.94,7.87,7.87,0,0,1-.28-2.37,8.53,8.53,0,0,1,.32-2.34,6.53,6.53,0,0,1,.94-2,4.3,4.3,0,0,1,1.53-1.35,4.35,4.35,0,0,1,2.11-.49,4.88,4.88,0,0,1,2.15.5A6.54,6.54,0,0,1,226.45,25a6.4,6.4,0,0,1,1.27,2,6.19,6.19,0,0,1,.46,2.38,6.14,6.14,0,0,1-1.73,4.3A5.73,5.73,0,0,1,224.63,35,5.24,5.24,0,0,1,222.45,35.42Zm-.5-3.53a2.28,2.28,0,0,0,1.25-.34,2.51,2.51,0,0,0,.89-.91,2.42,2.42,0,0,0,.34-1.27,2.61,2.61,0,0,0-.32-1.28,2.48,2.48,0,0,0-3.37-.89,2.5,2.5,0,0,0-.87.9,2.56,2.56,0,0,0-.31,1.26,2.51,2.51,0,0,0,.32,1.28,2.48,2.48,0,0,0,.88.91A2.17,2.17,0,0,0,222,31.89Z"/><path class="cls-2" d="M235,35.65a16.4,16.4,0,0,1-1.83-.1,3.9,3.9,0,0,1-1.35-.4,2.58,2.58,0,0,1-.9-.84,4,4,0,0,1-.52-1.38,9.39,9.39,0,0,1-.17-2.06V19.32a4.4,4.4,0,0,1,.1-.92,1.15,1.15,0,0,1,.49-.7,2.29,2.29,0,0,1,1.31-.28,2.24,2.24,0,0,1,1.29.28,1.15,1.15,0,0,1,.49.7,4.4,4.4,0,0,1,.1.92V30.7a4.16,4.16,0,0,0,0,.66.8.8,0,0,0,.15.41.51.51,0,0,0,.31.2,1.9,1.9,0,0,0,.52.05,2.7,2.7,0,0,1,.62.08.9.9,0,0,1,.53.45,2.56,2.56,0,0,1,.23,1.25,2.79,2.79,0,0,1-.23,1.3.86.86,0,0,1-.54.47A2.65,2.65,0,0,1,235,35.65Z"/><path class="cls-2" d="M244.45,35.88a7.09,7.09,0,0,1-3-.58,5.84,5.84,0,0,1-2.06-1.51,6.43,6.43,0,0,1-1.2-2.09,6.88,6.88,0,0,1-.4-2.3,6.48,6.48,0,0,1,.85-3.32A6.14,6.14,0,0,1,241,23.79a7,7,0,0,1,3.46-.84,6.21,6.21,0,0,1,2.51.47,5.23,5.23,0,0,1,1.75,1.2,5.1,5.1,0,0,1,1,1.59,4.46,4.46,0,0,1,.33,1.62,2.82,2.82,0,0,1-.66,2.05,2.28,2.28,0,0,1-1.69.68h-5.95a1.77,1.77,0,0,0,.46,1.08,2.85,2.85,0,0,0,1,.7,3.44,3.44,0,0,0,1.32.25,8.1,8.1,0,0,0,1-.06,3.7,3.7,0,0,0,.79-.18c.22-.07.41-.15.59-.22a4.32,4.32,0,0,1,.48-.19,2.63,2.63,0,0,1,.43-.1,1,1,0,0,1,.67.21,2.06,2.06,0,0,1,.58.72,2.37,2.37,0,0,1,.24.52,2.2,2.2,0,0,1,.06.5,1.35,1.35,0,0,1-.62,1.09,4.61,4.61,0,0,1-1.72.73A11,11,0,0,1,244.45,35.88Zm-2.67-7.4h3.95a1.06,1.06,0,0,0,.58-.14.62.62,0,0,0,.2-.54,1.18,1.18,0,0,0-.28-.77,1.84,1.84,0,0,0-.73-.54,3,3,0,0,0-1.09-.19,3,3,0,0,0-1.35.3,2.39,2.39,0,0,0-.94.8A1.87,1.87,0,0,0,241.78,28.48Z"/><path class="cls-4" d="M55.46,36.28q0,3.4-1.18,4.85a4.36,4.36,0,0,1-3.59,1.45,5.6,5.6,0,0,1-2.57-.5,3.25,3.25,0,0,1-1.48-1.85,11,11,0,0,1-.55-3.61L46,21a6.3,6.3,0,0,1-3.21-.73,2.58,2.58,0,0,1-1.26-2.46,2.77,2.77,0,0,1,1.16-2.29,5.16,5.16,0,0,1,3.24-.9l2.3,0,2.1,0c2,0,3.36.34,4,1a5,5,0,0,1,1,3.59Z"/><path class="cls-4" d="M59.21,39.73a2.78,2.78,0,0,1,1.16-2.31,5.33,5.33,0,0,1,3.28-.88q4.44,0,4.44,3.19a3.1,3.1,0,0,1-.57,2,2.8,2.8,0,0,1-1.51,1,9.21,9.21,0,0,1-2.36.25,6,6,0,0,1-3.18-.76A2.61,2.61,0,0,1,59.21,39.73Z"/><path class="cls-4" d="M80.32,36.28c0,2.27-.4,3.89-1.19,4.85a4.36,4.36,0,0,1-3.59,1.45,5.53,5.53,0,0,1-2.56-.5,3.23,3.23,0,0,1-1.49-1.85,11,11,0,0,1-.55-3.61L70.88,21a6.32,6.32,0,0,1-3.22-.73,2.62,2.62,0,0,1-1.26-2.46,2.77,2.77,0,0,1,1.16-2.29,5.16,5.16,0,0,1,3.24-.9l2.3,0,2.1,0c2,0,3.36.34,4,1a5,5,0,0,1,1,3.59Z"/><path class="cls-5" d="M55.46,36.28q0,3.4-1.18,4.85a4.36,4.36,0,0,1-3.59,1.45,5.6,5.6,0,0,1-2.57-.5,3.25,3.25,0,0,1-1.48-1.85,11,11,0,0,1-.55-3.61L46,21a6.3,6.3,0,0,1-3.21-.73,2.58,2.58,0,0,1-1.26-2.46,2.77,2.77,0,0,1,1.16-2.29,5.16,5.16,0,0,1,3.24-.9l2.3,0,2.1,0c2,0,3.36.34,4,1a5,5,0,0,1,1,3.59Z"/><path class="cls-5" d="M59.21,39.73a2.78,2.78,0,0,1,1.16-2.31,5.33,5.33,0,0,1,3.28-.88q4.44,0,4.44,3.19a3.1,3.1,0,0,1-.57,2,2.8,2.8,0,0,1-1.51,1,9.21,9.21,0,0,1-2.36.25,6,6,0,0,1-3.18-.76A2.61,2.61,0,0,1,59.21,39.73Z"/><path class="cls-5" d="M80.32,36.28c0,2.27-.4,3.89-1.19,4.85a4.36,4.36,0,0,1-3.59,1.45,5.53,5.53,0,0,1-2.56-.5,3.23,3.23,0,0,1-1.49-1.85,11,11,0,0,1-.55-3.61L70.88,21a6.32,6.32,0,0,1-3.22-.73,2.62,2.62,0,0,1-1.26-2.46,2.77,2.77,0,0,1,1.16-2.29,5.16,5.16,0,0,1,3.24-.9l2.3,0,2.1,0c2,0,3.36.34,4,1a5,5,0,0,1,1,3.59Z"/></g></g></svg>