<svg xmlns="http://www.w3.org/2000/svg" viewBox="0 0 399.98 100.52"><defs><style>.cls-1{fill:#03826e;}.cls-2{fill:#fff;}.cls-3,.cls-4{fill:none;stroke-width:5px;}.cls-3{stroke:#b6ba01;stroke-linejoin:round;}.cls-4{stroke:#fff;}.cls-5{fill:#b6ba01;}</style></defs><title>11t</title><g id="Layer_2" data-name="Layer 2"><g id="pestaña_identificativa" data-name="pestaña identificativa"><rect class="cls-1" width="399.98" height="100.52" rx="32.4"/><path class="cls-2" d="M109.73,35a8.64,8.64,0,0,1-2.33-.34A9.39,9.39,0,0,1,105,33.65a9.05,9.05,0,0,1-2.13-1.79,8.09,8.09,0,0,1-1.51-2.55,9.15,9.15,0,0,1-.57-3.33,8.78,8.78,0,0,1,.57-3.23,8.26,8.26,0,0,1,1.51-2.46A9.24,9.24,0,0,1,105,18.55a9.69,9.69,0,0,1,2.41-1,8.89,8.89,0,0,1,2.39-.34,7.48,7.48,0,0,1,2.23.3,8.25,8.25,0,0,1,1.53.63l.76.42a7.94,7.94,0,0,1,.85.65,1.25,1.25,0,0,1,.43.9,1.81,1.81,0,0,1-.11.6,2.61,2.61,0,0,1-.34.6,3.23,3.23,0,0,1-.78.84,1.16,1.16,0,0,1-1.3.11c-.18-.1-.4-.23-.65-.4a4.72,4.72,0,0,0-.5-.31,3.44,3.44,0,0,0-.88-.34,5.82,5.82,0,0,0-3.16.15,5.18,5.18,0,0,0-1.63.92,4.58,4.58,0,0,0-1.2,1.59,5.3,5.3,0,0,0-.45,2.26,4.92,4.92,0,0,0,.46,2.25,4.57,4.57,0,0,0,1.21,1.58,5.34,5.34,0,0,0,3.37,1.25,4.73,4.73,0,0,0,1.28-.15,4.64,4.64,0,0,0,.92-.36c.27-.14.49-.27.68-.39l.56-.32a1.26,1.26,0,0,1,.59-.15,1.19,1.19,0,0,1,.71.27,3.44,3.44,0,0,1,.74.88,2.6,2.6,0,0,1,.33.64,1.66,1.66,0,0,1,.12.61,1,1,0,0,1-.42.86,6.38,6.38,0,0,1-.86.61l-.75.44a7.3,7.3,0,0,1-1.52.62A7.71,7.71,0,0,1,109.73,35Z"/><path class="cls-2" d="M119.61,34.85a2.41,2.41,0,0,1-1.32-.27,1.06,1.06,0,0,1-.47-.71,4.7,4.7,0,0,1-.09-.92V24.22a5.25,5.25,0,0,1,.08-.92,1,1,0,0,1,.49-.69,2.49,2.49,0,0,1,1.33-.26,2.63,2.63,0,0,1,1.26.23,1.07,1.07,0,0,1,.49.56,2,2,0,0,1,.1.53l-.3.15a3.22,3.22,0,0,1,.26-.36,3.58,3.58,0,0,1,.59-.55,3.71,3.71,0,0,1,.91-.49,3.62,3.62,0,0,1,1.24-.2c.18,0,.38,0,.61,0a4.89,4.89,0,0,1,.7.15,3.32,3.32,0,0,1,.66.3,1.69,1.69,0,0,1,.49.47,1.18,1.18,0,0,1,.19.67,3.06,3.06,0,0,1-.48,1.74,1.42,1.42,0,0,1-1.2.71,2.11,2.11,0,0,1-.6-.06,1.3,1.3,0,0,1-.29-.15.93.93,0,0,0-.26-.15,1.39,1.39,0,0,0-.55-.07,2.71,2.71,0,0,0-.71.1,1.88,1.88,0,0,0-.63.32,1.45,1.45,0,0,0-.61,1.23V33a4.53,4.53,0,0,1-.09.91,1,1,0,0,1-.49.69A2.69,2.69,0,0,1,119.61,34.85Z"/><path class="cls-2" d="M134.18,34.83a5.28,5.28,0,0,1-2.18-.45,5.39,5.39,0,0,1-1.74-1.26,6,6,0,0,1-1.17-1.93,7.06,7.06,0,0,1-.41-2.44V24.23a4.54,4.54,0,0,1,.08-.93,1.13,1.13,0,0,1,.49-.7,2.47,2.47,0,0,1,1.33-.27,2.39,2.39,0,0,1,1.31.27,1.09,1.09,0,0,1,.47.72,4.59,4.59,0,0,1,.09.93v4.5a2.8,2.8,0,0,0,.26,1.27,1.73,1.73,0,0,0,.77.81,2.74,2.74,0,0,0,1.22.28,2.49,2.49,0,0,0,1.23-.29,2,2,0,0,0,.8-.81,2.48,2.48,0,0,0,.29-1.25V24.21a5.28,5.28,0,0,1,.08-.93,1.12,1.12,0,0,1,.49-.69,2.59,2.59,0,0,1,1.33-.26,2.38,2.38,0,0,1,1.31.28,1.07,1.07,0,0,1,.47.71,4.53,4.53,0,0,1,.09.91V33a4.87,4.87,0,0,1-.09.89,1,1,0,0,1-.49.66,2.52,2.52,0,0,1-1.3.25,2.92,2.92,0,0,1-1.05-.15,1.3,1.3,0,0,1-.55-.37.94.94,0,0,1-.21-.48,2.42,2.42,0,0,1,0-.45l.33-.27a2.55,2.55,0,0,1-.33.38,5.89,5.89,0,0,1-.66.58,4.28,4.28,0,0,1-1,.54A3.31,3.31,0,0,1,134.18,34.83Z"/><path class="cls-2" d="M149.48,35a6.45,6.45,0,0,1-2.24-.41,7.13,7.13,0,0,1-2.1-1.21,5.87,5.87,0,0,1-1.53-2,6.76,6.76,0,0,1,0-5.48,5.85,5.85,0,0,1,1.53-2,6.52,6.52,0,0,1,2.08-1.21,6.4,6.4,0,0,1,2.22-.42,6.06,6.06,0,0,1,1.66.22,5.41,5.41,0,0,1,1.25.51,3.87,3.87,0,0,1,.74.53,7,7,0,0,1,.75.65,1.11,1.11,0,0,1,.3.85,1.59,1.59,0,0,1-.18.56,4.48,4.48,0,0,1-.38.59c-.51.7-1,1-1.5.95a2.89,2.89,0,0,1-.68-.25l-.6-.35a4,4,0,0,0-.62-.32,1.88,1.88,0,0,0-.74-.14,2.61,2.61,0,0,0-1.31.34,2.7,2.7,0,0,0-.91.9,2.55,2.55,0,0,0-.34,1.31,2.45,2.45,0,0,0,.34,1.3,2.48,2.48,0,0,0,.9.92,2.42,2.42,0,0,0,1.26.33,2.39,2.39,0,0,0,.73-.1,2.33,2.33,0,0,0,.55-.23c.15-.09.26-.17.35-.21s.39-.26.57-.37a1.08,1.08,0,0,1,.55-.16,1.28,1.28,0,0,1,.74.26,4.7,4.7,0,0,1,.81.84,2.1,2.1,0,0,1,.49,1A1.19,1.19,0,0,1,154,33a2.62,2.62,0,0,1-.84.76,4.23,4.23,0,0,1-.72.45,7.21,7.21,0,0,1-1.25.5A5.34,5.34,0,0,1,149.48,35Z"/><path class="cls-2" d="M162.63,35.1a7.25,7.25,0,0,1-3-.58A5.88,5.88,0,0,1,157.55,33a6.4,6.4,0,0,1-1.19-2.09,6.88,6.88,0,0,1-.4-2.3,6.45,6.45,0,0,1,.85-3.33A6.09,6.09,0,0,1,159.17,23a7,7,0,0,1,3.47-.84,6.24,6.24,0,0,1,2.51.47,5.08,5.08,0,0,1,1.75,1.2,4.89,4.89,0,0,1,1,1.59,4.25,4.25,0,0,1,.34,1.62,2.82,2.82,0,0,1-.66,2.05,2.28,2.28,0,0,1-1.69.67H160a1.71,1.71,0,0,0,.46,1.08,2.77,2.77,0,0,0,1,.7,3.6,3.6,0,0,0,1.32.25,6.63,6.63,0,0,0,1-.07,3.74,3.74,0,0,0,.79-.17l.58-.22c.18-.08.34-.14.49-.19a2.41,2.41,0,0,1,.43-.1,1,1,0,0,1,.67.21,2.06,2.06,0,0,1,.58.72,1.8,1.8,0,0,1,.23.52,2.14,2.14,0,0,1,.06.5,1.34,1.34,0,0,1-.61,1.09,4.86,4.86,0,0,1-1.72.73A11.06,11.06,0,0,1,162.63,35.1ZM160,27.7h3.95a1,1,0,0,0,.57-.14c.14-.09.2-.27.2-.54a1.23,1.23,0,0,0-.27-.77,1.72,1.72,0,0,0-.74-.54,2.8,2.8,0,0,0-1.09-.19,3,3,0,0,0-1.35.3,2.36,2.36,0,0,0-.93.8A1.84,1.84,0,0,0,160,27.7Z"/><path class="cls-2" d="M181.38,35.08a8.15,8.15,0,0,1-1.48-.15,7.9,7.9,0,0,1-1.53-.44,4.89,4.89,0,0,1-1.25-.67,1.3,1.3,0,0,1-.57-.89,1.42,1.42,0,0,1,0-.54,2.32,2.32,0,0,1,.22-.6,4.44,4.44,0,0,1,.44-.66.89.89,0,0,1,.44-.35,1,1,0,0,1,.59,0,3.24,3.24,0,0,1,.8.26l.82.4a8.64,8.64,0,0,0,.88.38,2.87,2.87,0,0,0,.92.16,2.32,2.32,0,0,0,1.09-.21.66.66,0,0,0,.39-.59.64.64,0,0,0-.17-.45,1.27,1.27,0,0,0-.45-.3c-.19-.08-.41-.16-.67-.24s-.53-.15-.81-.21-.59-.15-.9-.25a9.05,9.05,0,0,1-1.19-.45,4,4,0,0,1-1.05-.72,3.3,3.3,0,0,1-.74-1.07,4,4,0,0,1-.27-1.56,3.29,3.29,0,0,1,2.23-3.32,7.35,7.35,0,0,1,2.7-.43c.3,0,.6,0,.9.05a5.26,5.26,0,0,1,.88.17l.87.3a7.55,7.55,0,0,1,.85.43,1.12,1.12,0,0,1,.77.95,2.08,2.08,0,0,1-.42,1.25,2.17,2.17,0,0,1-.58.59.89.89,0,0,1-.63.13,3.75,3.75,0,0,1-.86-.33,9.53,9.53,0,0,0-1-.44,2.85,2.85,0,0,0-1-.2,2,2,0,0,0-.72.11,1,1,0,0,0-.45.3.75.75,0,0,0,0,.95,1.27,1.27,0,0,0,.51.31,4.8,4.8,0,0,0,.75.23l.92.2a12.76,12.76,0,0,1,1.39.34,4.44,4.44,0,0,1,1.3.61,3,3,0,0,1,.95,1.08,3.76,3.76,0,0,1,.36,1.77,3.58,3.58,0,0,1-1.38,3A6.4,6.4,0,0,1,181.38,35.08Z"/><path class="cls-2" d="M190.84,20.59a2.38,2.38,0,0,1-1.35-.28,1.09,1.09,0,0,1-.49-.72,4.86,4.86,0,0,1-.09-.95,4.75,4.75,0,0,1,.09-1,1,1,0,0,1,.5-.7,2.59,2.59,0,0,1,1.36-.27,2.46,2.46,0,0,1,1.33.28,1.09,1.09,0,0,1,.49.73,5.86,5.86,0,0,1,.08,1,5.74,5.74,0,0,1-.08.93,1.13,1.13,0,0,1-.49.71A2.65,2.65,0,0,1,190.84,20.59Zm0,14.3a2.59,2.59,0,0,1-1.33-.26,1,1,0,0,1-.47-.7A5.52,5.52,0,0,1,189,33V24.29a4.46,4.46,0,0,1,.09-.91,1,1,0,0,1,.49-.7,2.41,2.41,0,0,1,1.32-.27,2.33,2.33,0,0,1,1.29.28,1.1,1.1,0,0,1,.47.71,4.69,4.69,0,0,1,.09.94V33a5.31,5.31,0,0,1-.08.91,1.06,1.06,0,0,1-.48.69A2.52,2.52,0,0,1,190.83,34.89Z"/><path class="cls-2" d="M197.2,34.89a2.4,2.4,0,0,1-1.3-.27,1.1,1.1,0,0,1-.47-.7,5.46,5.46,0,0,1-.08-.93V24.24a4.43,4.43,0,0,1,.09-.9,1.08,1.08,0,0,1,.49-.69,2.52,2.52,0,0,1,1.32-.26,2,2,0,0,1,1.35.37,1.47,1.47,0,0,1,.42,1.18l-.32.28a1.87,1.87,0,0,1,.3-.43,4.92,4.92,0,0,1,.65-.62,4.1,4.1,0,0,1,.94-.56,2.8,2.8,0,0,1,1.16-.24,4.35,4.35,0,0,1,1.49.24,3.82,3.82,0,0,1,1.2.7,4.32,4.32,0,0,1,.93,1.16,6.87,6.87,0,0,1,.85-1,4.71,4.71,0,0,1,1.18-.8,3.3,3.3,0,0,1,1.53-.32,4.09,4.09,0,0,1,2.48.73A4.54,4.54,0,0,1,213,25.23a9.29,9.29,0,0,1,.52,3.32V33a4.53,4.53,0,0,1-.1.91,1.13,1.13,0,0,1-.49.7,2.5,2.5,0,0,1-1.31.26,2.47,2.47,0,0,1-1.33-.27,1.11,1.11,0,0,1-.47-.72,5.31,5.31,0,0,1-.08-.91V28.53a3.81,3.81,0,0,0-.19-1.29,1.72,1.72,0,0,0-.54-.83,1.43,1.43,0,0,0-.9-.29,1.68,1.68,0,0,0-1,.28,1.6,1.6,0,0,0-.6.8,3.7,3.7,0,0,0-.2,1.35V33a3.51,3.51,0,0,1-.12.94,1.2,1.2,0,0,1-.54.7,2.46,2.46,0,0,1-1.34.24,2.11,2.11,0,0,1-1.25-.29,1.12,1.12,0,0,1-.45-.73,5.14,5.14,0,0,1-.07-.88V28.52a4.55,4.55,0,0,0-.17-1.3,1.66,1.66,0,0,0-.53-.83,1.46,1.46,0,0,0-.92-.27,1.62,1.62,0,0,0-1,.32,2,2,0,0,0-.59.87,3.76,3.76,0,0,0-.18,1.21V33a5.25,5.25,0,0,1-.08.92,1.07,1.07,0,0,1-.49.69A2.49,2.49,0,0,1,197.2,34.89Z"/><path class="cls-2" d="M217.65,40.08a2.51,2.51,0,0,1-1.3-.26,1,1,0,0,1-.47-.68,4.91,4.91,0,0,1-.08-.89v-14a5.1,5.1,0,0,1,.07-.91,1.09,1.09,0,0,1,.47-.69,2.3,2.3,0,0,1,1.29-.28,3,3,0,0,1,1.23.23,1.29,1.29,0,0,1,.66.7v14.9a3.28,3.28,0,0,1-.08.9,1.16,1.16,0,0,1-.49.69A2.48,2.48,0,0,1,217.65,40.08Zm4.8-5.4a4.52,4.52,0,0,1-2.15-.49,4.33,4.33,0,0,1-1.53-1.32,6.12,6.12,0,0,1-.93-1.94,7.91,7.91,0,0,1-.28-2.37,8.53,8.53,0,0,1,.32-2.34,6.71,6.71,0,0,1,.94-2,4.25,4.25,0,0,1,3.64-1.83,4.88,4.88,0,0,1,2.15.5,6.37,6.37,0,0,1,1.84,1.36,6.56,6.56,0,0,1,1.27,2,6.15,6.15,0,0,1,.46,2.38,6.08,6.08,0,0,1-3.55,5.58A5.23,5.23,0,0,1,222.45,34.68Zm-.5-3.52a2.28,2.28,0,0,0,1.25-.34,2.51,2.51,0,0,0,.89-.91,2.43,2.43,0,0,0,.34-1.28,2.6,2.6,0,0,0-.32-1.27A2.43,2.43,0,0,0,222,26.13a2.28,2.28,0,0,0-1.23.34,2.31,2.31,0,0,0-.88.9,2.5,2.5,0,0,0-.31,1.26,2.5,2.5,0,0,0,1.2,2.19A2.26,2.26,0,0,0,222,31.16Z"/><path class="cls-2" d="M235,34.92a16.22,16.22,0,0,1-1.83-.11,3.7,3.7,0,0,1-1.35-.4,2.64,2.64,0,0,1-.9-.83,4,4,0,0,1-.52-1.38,10.11,10.11,0,0,1-.17-2.06V18.59a4.49,4.49,0,0,1,.1-.93,1.21,1.21,0,0,1,.49-.7,2.39,2.39,0,0,1,1.31-.27,2.34,2.34,0,0,1,1.29.27,1.21,1.21,0,0,1,.49.7,4.57,4.57,0,0,1,.1.93V30a4.16,4.16,0,0,0,0,.66.8.8,0,0,0,.15.41.51.51,0,0,0,.31.2,2.4,2.4,0,0,0,.52.05,2.7,2.7,0,0,1,.62.08.87.87,0,0,1,.53.45,2.53,2.53,0,0,1,.23,1.25,2.79,2.79,0,0,1-.23,1.3.91.91,0,0,1-.53.47A2.8,2.8,0,0,1,235,34.92Z"/><path class="cls-2" d="M244.45,35.15a7.44,7.44,0,0,1-3-.58,5.84,5.84,0,0,1-2.06-1.51,6.73,6.73,0,0,1-1.2-2.09,6.92,6.92,0,0,1-.4-2.3,6.54,6.54,0,0,1,.85-3.33A6.12,6.12,0,0,1,241,23.06a7,7,0,0,1,3.46-.84,6.39,6.39,0,0,1,2.51.46,5.11,5.11,0,0,1,1.75,1.21,5.18,5.18,0,0,1,1,1.58,4.51,4.51,0,0,1,.33,1.63,2.82,2.82,0,0,1-.66,2,2.27,2.27,0,0,1-1.69.67h-5.95a1.74,1.74,0,0,0,.46,1.07,2.87,2.87,0,0,0,1,.71,3.7,3.7,0,0,0,1.33.25,6.5,6.5,0,0,0,1-.07,4.49,4.49,0,0,0,.79-.17c.22-.07.41-.15.59-.22s.34-.14.48-.19a2.63,2.63,0,0,1,.43-.1,1,1,0,0,1,.68.21,2.22,2.22,0,0,1,.57.71,2,2,0,0,1,.24.53,2.14,2.14,0,0,1,.06.5,1.36,1.36,0,0,1-.61,1.09,4.91,4.91,0,0,1-1.73.73A11,11,0,0,1,244.45,35.15Zm-2.67-7.41h3.95a1.06,1.06,0,0,0,.58-.14.62.62,0,0,0,.2-.54,1.18,1.18,0,0,0-.28-.77,1.67,1.67,0,0,0-.73-.54,2.83,2.83,0,0,0-1.09-.19,3,3,0,0,0-1.35.3,2.47,2.47,0,0,0-.94.8A1.91,1.91,0,0,0,241.78,27.74Z"/><path class="cls-3" d="M109.73,35a8.64,8.64,0,0,1-2.33-.34A9.39,9.39,0,0,1,105,33.65a9.05,9.05,0,0,1-2.13-1.79,8.09,8.09,0,0,1-1.51-2.55,9.15,9.15,0,0,1-.57-3.33,8.78,8.78,0,0,1,.57-3.23,8.26,8.26,0,0,1,1.51-2.46A9.24,9.24,0,0,1,105,18.55a9.69,9.69,0,0,1,2.41-1,8.89,8.89,0,0,1,2.39-.34,7.48,7.48,0,0,1,2.23.3,8.25,8.25,0,0,1,1.53.63l.76.42a7.94,7.94,0,0,1,.85.65,1.25,1.25,0,0,1,.43.9,1.81,1.81,0,0,1-.11.6,2.61,2.61,0,0,1-.34.6,3.23,3.23,0,0,1-.78.84,1.16,1.16,0,0,1-1.3.11c-.18-.1-.4-.23-.65-.4a4.72,4.72,0,0,0-.5-.31,3.44,3.44,0,0,0-.88-.34,5.82,5.82,0,0,0-3.16.15,5.18,5.18,0,0,0-1.63.92,4.58,4.58,0,0,0-1.2,1.59,5.3,5.3,0,0,0-.45,2.26,4.92,4.92,0,0,0,.46,2.25,4.57,4.57,0,0,0,1.21,1.58,5.34,5.34,0,0,0,3.37,1.25,4.73,4.73,0,0,0,1.28-.15,4.64,4.64,0,0,0,.92-.36c.27-.14.49-.27.68-.39l.56-.32a1.26,1.26,0,0,1,.59-.15,1.19,1.19,0,0,1,.71.27,3.44,3.44,0,0,1,.74.88,2.6,2.6,0,0,1,.33.64,1.66,1.66,0,0,1,.12.61,1,1,0,0,1-.42.86,6.38,6.38,0,0,1-.86.61l-.75.44a7.3,7.3,0,0,1-1.52.62A7.71,7.71,0,0,1,109.73,35Z"/><path class="cls-3" d="M119.61,34.85a2.41,2.41,0,0,1-1.32-.27,1.06,1.06,0,0,1-.47-.71,4.7,4.7,0,0,1-.09-.92V24.22a5.25,5.25,0,0,1,.08-.92,1,1,0,0,1,.49-.69,2.49,2.49,0,0,1,1.33-.26,2.63,2.63,0,0,1,1.26.23,1.07,1.07,0,0,1,.49.56,2,2,0,0,1,.1.53l-.3.15a3.22,3.22,0,0,1,.26-.36,3.58,3.58,0,0,1,.59-.55,3.71,3.71,0,0,1,.91-.49,3.62,3.62,0,0,1,1.24-.2c.18,0,.38,0,.61,0a4.89,4.89,0,0,1,.7.15,3.32,3.32,0,0,1,.66.3,1.69,1.69,0,0,1,.49.47,1.18,1.18,0,0,1,.19.67,3.06,3.06,0,0,1-.48,1.74,1.42,1.42,0,0,1-1.2.71,2.11,2.11,0,0,1-.6-.06,1.3,1.3,0,0,1-.29-.15.93.93,0,0,0-.26-.15,1.39,1.39,0,0,0-.55-.07,2.71,2.71,0,0,0-.71.1,1.88,1.88,0,0,0-.63.32,1.45,1.45,0,0,0-.61,1.23V33a4.53,4.53,0,0,1-.09.91,1,1,0,0,1-.49.69A2.69,2.69,0,0,1,119.61,34.85Z"/><path class="cls-3" d="M134.18,34.83a5.28,5.28,0,0,1-2.18-.45,5.39,5.39,0,0,1-1.74-1.26,6,6,0,0,1-1.17-1.93,7.06,7.06,0,0,1-.41-2.44V24.23a4.54,4.54,0,0,1,.08-.93,1.13,1.13,0,0,1,.49-.7,2.47,2.47,0,0,1,1.33-.27,2.39,2.39,0,0,1,1.31.27,1.09,1.09,0,0,1,.47.72,4.59,4.59,0,0,1,.09.93v4.5a2.8,2.8,0,0,0,.26,1.27,1.73,1.73,0,0,0,.77.81,2.74,2.74,0,0,0,1.22.28,2.49,2.49,0,0,0,1.23-.29,2,2,0,0,0,.8-.81,2.48,2.48,0,0,0,.29-1.25V24.21a5.28,5.28,0,0,1,.08-.93,1.12,1.12,0,0,1,.49-.69,2.59,2.59,0,0,1,1.33-.26,2.38,2.38,0,0,1,1.31.28,1.07,1.07,0,0,1,.47.71,4.53,4.53,0,0,1,.09.91V33a4.87,4.87,0,0,1-.09.89,1,1,0,0,1-.49.66,2.52,2.52,0,0,1-1.3.25,2.92,2.92,0,0,1-1.05-.15,1.3,1.3,0,0,1-.55-.37.94.94,0,0,1-.21-.48,2.42,2.42,0,0,1,0-.45l.33-.27a2.55,2.55,0,0,1-.33.38,5.89,5.89,0,0,1-.66.58,4.28,4.28,0,0,1-1,.54A3.31,3.31,0,0,1,134.18,34.83Z"/><path class="cls-3" d="M149.48,35a6.45,6.45,0,0,1-2.24-.41,7.13,7.13,0,0,1-2.1-1.21,5.87,5.87,0,0,1-1.53-2,6.76,6.76,0,0,1,0-5.48,5.85,5.85,0,0,1,1.53-2,6.52,6.52,0,0,1,2.08-1.21,6.4,6.4,0,0,1,2.22-.42,6.06,6.06,0,0,1,1.66.22,5.41,5.41,0,0,1,1.25.51,3.87,3.87,0,0,1,.74.53,7,7,0,0,1,.75.65,1.11,1.11,0,0,1,.3.85,1.59,1.59,0,0,1-.18.56,4.48,4.48,0,0,1-.38.59c-.51.7-1,1-1.5.95a2.89,2.89,0,0,1-.68-.25l-.6-.35a4,4,0,0,0-.62-.32,1.88,1.88,0,0,0-.74-.14,2.61,2.61,0,0,0-1.31.34,2.7,2.7,0,0,0-.91.9,2.55,2.55,0,0,0-.34,1.31,2.45,2.45,0,0,0,.34,1.3,2.48,2.48,0,0,0,.9.92,2.42,2.42,0,0,0,1.26.33,2.39,2.39,0,0,0,.73-.1,2.33,2.33,0,0,0,.55-.23c.15-.09.26-.17.35-.21s.39-.26.57-.37a1.08,1.08,0,0,1,.55-.16,1.28,1.28,0,0,1,.74.26,4.7,4.7,0,0,1,.81.84,2.1,2.1,0,0,1,.49,1A1.19,1.19,0,0,1,154,33a2.62,2.62,0,0,1-.84.76,4.23,4.23,0,0,1-.72.45,7.21,7.21,0,0,1-1.25.5A5.34,5.34,0,0,1,149.48,35Z"/><path class="cls-3" d="M162.63,35.1a7.25,7.25,0,0,1-3-.58A5.88,5.88,0,0,1,157.55,33a6.4,6.4,0,0,1-1.19-2.09,6.88,6.88,0,0,1-.4-2.3,6.45,6.45,0,0,1,.85-3.33A6.09,6.09,0,0,1,159.17,23a7,7,0,0,1,3.47-.84,6.24,6.24,0,0,1,2.51.47,5.08,5.08,0,0,1,1.75,1.2,4.89,4.89,0,0,1,1,1.59,4.25,4.25,0,0,1,.34,1.62,2.82,2.82,0,0,1-.66,2.05,2.28,2.28,0,0,1-1.69.67H160a1.71,1.71,0,0,0,.46,1.08,2.77,2.77,0,0,0,1,.7,3.6,3.6,0,0,0,1.32.25,6.63,6.63,0,0,0,1-.07,3.74,3.74,0,0,0,.79-.17l.58-.22c.18-.08.34-.14.49-.19a2.41,2.41,0,0,1,.43-.1,1,1,0,0,1,.67.21,2.06,2.06,0,0,1,.58.72,1.8,1.8,0,0,1,.23.52,2.14,2.14,0,0,1,.06.5,1.34,1.34,0,0,1-.61,1.09,4.86,4.86,0,0,1-1.72.73A11.06,11.06,0,0,1,162.63,35.1ZM160,27.7h3.95a1,1,0,0,0,.57-.14c.14-.09.2-.27.2-.54a1.23,1.23,0,0,0-.27-.77,1.72,1.72,0,0,0-.74-.54,2.8,2.8,0,0,0-1.09-.19,3,3,0,0,0-1.35.3,2.36,2.36,0,0,0-.93.8A1.84,1.84,0,0,0,160,27.7Z"/><path class="cls-3" d="M181.38,35.08a8.15,8.15,0,0,1-1.48-.15,7.9,7.9,0,0,1-1.53-.44,4.89,4.89,0,0,1-1.25-.67,1.3,1.3,0,0,1-.57-.89,1.42,1.42,0,0,1,0-.54,2.32,2.32,0,0,1,.22-.6,4.44,4.44,0,0,1,.44-.66.89.89,0,0,1,.44-.35,1,1,0,0,1,.59,0,3.24,3.24,0,0,1,.8.26l.82.4a8.64,8.64,0,0,0,.88.38,2.87,2.87,0,0,0,.92.16,2.32,2.32,0,0,0,1.09-.21.66.66,0,0,0,.39-.59.64.64,0,0,0-.17-.45,1.27,1.27,0,0,0-.45-.3c-.19-.08-.41-.16-.67-.24s-.53-.15-.81-.21-.59-.15-.9-.25a9.05,9.05,0,0,1-1.19-.45,4,4,0,0,1-1.05-.72,3.3,3.3,0,0,1-.74-1.07,4,4,0,0,1-.27-1.56,3.29,3.29,0,0,1,2.23-3.32,7.35,7.35,0,0,1,2.7-.43c.3,0,.6,0,.9.05a5.26,5.26,0,0,1,.88.17l.87.3a7.55,7.55,0,0,1,.85.43,1.12,1.12,0,0,1,.77.95,2.08,2.08,0,0,1-.42,1.25,2.17,2.17,0,0,1-.58.59.89.89,0,0,1-.63.13,3.75,3.75,0,0,1-.86-.33,9.53,9.53,0,0,0-1-.44,2.85,2.85,0,0,0-1-.2,2,2,0,0,0-.72.11,1,1,0,0,0-.45.3.75.75,0,0,0,0,.95,1.27,1.27,0,0,0,.51.31,4.8,4.8,0,0,0,.75.23l.92.2a12.76,12.76,0,0,1,1.39.34,4.44,4.44,0,0,1,1.3.61,3,3,0,0,1,.95,1.08,3.76,3.76,0,0,1,.36,1.77,3.58,3.58,0,0,1-1.38,3A6.4,6.4,0,0,1,181.38,35.08Z"/><path class="cls-3" d="M190.84,20.59a2.38,2.38,0,0,1-1.35-.28,1.09,1.09,0,0,1-.49-.72,4.86,4.86,0,0,1-.09-.95,4.75,4.75,0,0,1,.09-1,1,1,0,0,1,.5-.7,2.59,2.59,0,0,1,1.36-.27,2.46,2.46,0,0,1,1.33.28,1.09,1.09,0,0,1,.49.73,5.86,5.86,0,0,1,.08,1,5.74,5.74,0,0,1-.08.93,1.13,1.13,0,0,1-.49.71A2.65,2.65,0,0,1,190.84,20.59Zm0,14.3a2.59,2.59,0,0,1-1.33-.26,1,1,0,0,1-.47-.7A5.52,5.52,0,0,1,189,33V24.29a4.46,4.46,0,0,1,.09-.91,1,1,0,0,1,.49-.7,2.41,2.41,0,0,1,1.32-.27,2.33,2.33,0,0,1,1.29.28,1.1,1.1,0,0,1,.47.71,4.69,4.69,0,0,1,.09.94V33a5.31,5.31,0,0,1-.08.91,1.06,1.06,0,0,1-.48.69A2.52,2.52,0,0,1,190.83,34.89Z"/><path class="cls-3" d="M197.2,34.89a2.4,2.4,0,0,1-1.3-.27,1.1,1.1,0,0,1-.47-.7,5.46,5.46,0,0,1-.08-.93V24.24a4.43,4.43,0,0,1,.09-.9,1.08,1.08,0,0,1,.49-.69,2.52,2.52,0,0,1,1.32-.26,2,2,0,0,1,1.35.37,1.47,1.47,0,0,1,.42,1.18l-.32.28a1.87,1.87,0,0,1,.3-.43,4.92,4.92,0,0,1,.65-.62,4.1,4.1,0,0,1,.94-.56,2.8,2.8,0,0,1,1.16-.24,4.35,4.35,0,0,1,1.49.24,3.82,3.82,0,0,1,1.2.7,4.32,4.32,0,0,1,.93,1.16,6.87,6.87,0,0,1,.85-1,4.71,4.71,0,0,1,1.18-.8,3.3,3.3,0,0,1,1.53-.32,4.09,4.09,0,0,1,2.48.73A4.54,4.54,0,0,1,213,25.23a9.29,9.29,0,0,1,.52,3.32V33a4.53,4.53,0,0,1-.1.91,1.13,1.13,0,0,1-.49.7,2.5,2.5,0,0,1-1.31.26,2.47,2.47,0,0,1-1.33-.27,1.11,1.11,0,0,1-.47-.72,5.31,5.31,0,0,1-.08-.91V28.53a3.81,3.81,0,0,0-.19-1.29,1.72,1.72,0,0,0-.54-.83,1.43,1.43,0,0,0-.9-.29,1.68,1.68,0,0,0-1,.28,1.6,1.6,0,0,0-.6.8,3.7,3.7,0,0,0-.2,1.35V33a3.51,3.51,0,0,1-.12.94,1.2,1.2,0,0,1-.54.7,2.46,2.46,0,0,1-1.34.24,2.11,2.11,0,0,1-1.25-.29,1.12,1.12,0,0,1-.45-.73,5.14,5.14,0,0,1-.07-.88V28.52a4.55,4.55,0,0,0-.17-1.3,1.66,1.66,0,0,0-.53-.83,1.46,1.46,0,0,0-.92-.27,1.62,1.62,0,0,0-1,.32,2,2,0,0,0-.59.87,3.76,3.76,0,0,0-.18,1.21V33a5.25,5.25,0,0,1-.08.92,1.07,1.07,0,0,1-.49.69A2.49,2.49,0,0,1,197.2,34.89Z"/><path class="cls-3" d="M217.65,40.08a2.51,2.51,0,0,1-1.3-.26,1,1,0,0,1-.47-.68,4.91,4.91,0,0,1-.08-.89v-14a5.1,5.1,0,0,1,.07-.91,1.09,1.09,0,0,1,.47-.69,2.3,2.3,0,0,1,1.29-.28,3,3,0,0,1,1.23.23,1.29,1.29,0,0,1,.66.7v14.9a3.28,3.28,0,0,1-.08.9,1.16,1.16,0,0,1-.49.69A2.48,2.48,0,0,1,217.65,40.08Zm4.8-5.4a4.52,4.52,0,0,1-2.15-.49,4.33,4.33,0,0,1-1.53-1.32,6.12,6.12,0,0,1-.93-1.94,7.91,7.91,0,0,1-.28-2.37,8.53,8.53,0,0,1,.32-2.34,6.71,6.71,0,0,1,.94-2,4.25,4.25,0,0,1,3.64-1.83,4.88,4.88,0,0,1,2.15.5,6.37,6.37,0,0,1,1.84,1.36,6.56,6.56,0,0,1,1.27,2,6.15,6.15,0,0,1,.46,2.38,6.08,6.08,0,0,1-3.55,5.58A5.23,5.23,0,0,1,222.45,34.68Zm-.5-3.52a2.28,2.28,0,0,0,1.25-.34,2.51,2.51,0,0,0,.89-.91,2.43,2.43,0,0,0,.34-1.28,2.6,2.6,0,0,0-.32-1.27A2.43,2.43,0,0,0,222,26.13a2.28,2.28,0,0,0-1.23.34,2.31,2.31,0,0,0-.88.9,2.5,2.5,0,0,0-.31,1.26,2.5,2.5,0,0,0,1.2,2.19A2.26,2.26,0,0,0,222,31.16Z"/><path class="cls-3" d="M235,34.92a16.22,16.22,0,0,1-1.83-.11,3.7,3.7,0,0,1-1.35-.4,2.64,2.64,0,0,1-.9-.83,4,4,0,0,1-.52-1.38,10.11,10.11,0,0,1-.17-2.06V18.59a4.49,4.49,0,0,1,.1-.93,1.21,1.21,0,0,1,.49-.7,2.39,2.39,0,0,1,1.31-.27,2.34,2.34,0,0,1,1.29.27,1.21,1.21,0,0,1,.49.7,4.57,4.57,0,0,1,.1.93V30a4.16,4.16,0,0,0,0,.66.8.8,0,0,0,.15.41.51.51,0,0,0,.31.2,2.4,2.4,0,0,0,.52.05,2.7,2.7,0,0,1,.62.08.87.87,0,0,1,.53.45,2.53,2.53,0,0,1,.23,1.25,2.79,2.79,0,0,1-.23,1.3.91.91,0,0,1-.53.47A2.8,2.8,0,0,1,235,34.92Z"/><path class="cls-3" d="M244.45,35.15a7.44,7.44,0,0,1-3-.58,5.84,5.84,0,0,1-2.06-1.51,6.73,6.73,0,0,1-1.2-2.09,6.92,6.92,0,0,1-.4-2.3,6.54,6.54,0,0,1,.85-3.33A6.12,6.12,0,0,1,241,23.06a7,7,0,0,1,3.46-.84,6.39,6.39,0,0,1,2.51.46,5.11,5.11,0,0,1,1.75,1.21,5.18,5.18,0,0,1,1,1.58,4.51,4.51,0,0,1,.33,1.63,2.82,2.82,0,0,1-.66,2,2.27,2.27,0,0,1-1.69.67h-5.95a1.74,1.74,0,0,0,.46,1.07,2.87,2.87,0,0,0,1,.71,3.7,3.7,0,0,0,1.33.25,6.5,6.5,0,0,0,1-.07,4.49,4.49,0,0,0,.79-.17c.22-.07.41-.15.59-.22s.34-.14.48-.19a2.63,2.63,0,0,1,.43-.1,1,1,0,0,1,.68.21,2.22,2.22,0,0,1,.57.71,2,2,0,0,1,.24.53,2.14,2.14,0,0,1,.06.5,1.36,1.36,0,0,1-.61,1.09,4.91,4.91,0,0,1-1.73.73A11,11,0,0,1,244.45,35.15Zm-2.67-7.41h3.95a1.06,1.06,0,0,0,.58-.14.62.62,0,0,0,.2-.54,1.18,1.18,0,0,0-.28-.77,1.67,1.67,0,0,0-.73-.54,2.83,2.83,0,0,0-1.09-.19,3,3,0,0,0-1.35.3,2.47,2.47,0,0,0-.94.8A1.91,1.91,0,0,0,241.78,27.74Z"/><path class="cls-2" d="M109.73,35a8.64,8.64,0,0,1-2.33-.34A9.39,9.39,0,0,1,105,33.65a9.05,9.05,0,0,1-2.13-1.79,8.09,8.09,0,0,1-1.51-2.55,9.15,9.15,0,0,1-.57-3.33,8.78,8.78,0,0,1,.57-3.23,8.26,8.26,0,0,1,1.51-2.46A9.24,9.24,0,0,1,105,18.55a9.69,9.69,0,0,1,2.41-1,8.89,8.89,0,0,1,2.39-.34,7.48,7.48,0,0,1,2.23.3,8.25,8.25,0,0,1,1.53.63l.76.42a7.94,7.94,0,0,1,.85.65,1.25,1.25,0,0,1,.43.9,1.81,1.81,0,0,1-.11.6,2.61,2.61,0,0,1-.34.6,3.23,3.23,0,0,1-.78.84,1.16,1.16,0,0,1-1.3.11c-.18-.1-.4-.23-.65-.4a4.72,4.72,0,0,0-.5-.31,3.44,3.44,0,0,0-.88-.34,5.82,5.82,0,0,0-3.16.15,5.18,5.18,0,0,0-1.63.92,4.58,4.58,0,0,0-1.2,1.59,5.3,5.3,0,0,0-.45,2.26,4.92,4.92,0,0,0,.46,2.25,4.57,4.57,0,0,0,1.21,1.58,5.34,5.34,0,0,0,3.37,1.25,4.73,4.73,0,0,0,1.28-.15,4.64,4.64,0,0,0,.92-.36c.27-.14.49-.27.68-.39l.56-.32a1.26,1.26,0,0,1,.59-.15,1.19,1.19,0,0,1,.71.27,3.44,3.44,0,0,1,.74.88,2.6,2.6,0,0,1,.33.64,1.66,1.66,0,0,1,.12.61,1,1,0,0,1-.42.86,6.38,6.38,0,0,1-.86.61l-.75.44a7.3,7.3,0,0,1-1.52.62A7.71,7.71,0,0,1,109.73,35Z"/><path class="cls-2" d="M119.61,34.85a2.41,2.41,0,0,1-1.32-.27,1.06,1.06,0,0,1-.47-.71,4.7,4.7,0,0,1-.09-.92V24.22a5.25,5.25,0,0,1,.08-.92,1,1,0,0,1,.49-.69,2.49,2.49,0,0,1,1.33-.26,2.63,2.63,0,0,1,1.26.23,1.07,1.07,0,0,1,.49.56,2,2,0,0,1,.1.53l-.3.15a3.22,3.22,0,0,1,.26-.36,3.58,3.58,0,0,1,.59-.55,3.71,3.71,0,0,1,.91-.49,3.62,3.62,0,0,1,1.24-.2c.18,0,.38,0,.61,0a4.89,4.89,0,0,1,.7.15,3.32,3.32,0,0,1,.66.3,1.69,1.69,0,0,1,.49.47,1.18,1.18,0,0,1,.19.67,3.06,3.06,0,0,1-.48,1.74,1.42,1.42,0,0,1-1.2.71,2.11,2.11,0,0,1-.6-.06,1.3,1.3,0,0,1-.29-.15.93.93,0,0,0-.26-.15,1.39,1.39,0,0,0-.55-.07,2.71,2.71,0,0,0-.71.1,1.88,1.88,0,0,0-.63.32,1.45,1.45,0,0,0-.61,1.23V33a4.53,4.53,0,0,1-.09.91,1,1,0,0,1-.49.69A2.69,2.69,0,0,1,119.61,34.85Z"/><path class="cls-2" d="M134.18,34.83a5.28,5.28,0,0,1-2.18-.45,5.39,5.39,0,0,1-1.74-1.26,6,6,0,0,1-1.17-1.93,7.06,7.06,0,0,1-.41-2.44V24.23a4.54,4.54,0,0,1,.08-.93,1.13,1.13,0,0,1,.49-.7,2.47,2.47,0,0,1,1.33-.27,2.39,2.39,0,0,1,1.31.27,1.09,1.09,0,0,1,.47.72,4.59,4.59,0,0,1,.09.93v4.5a2.8,2.8,0,0,0,.26,1.27,1.73,1.73,0,0,0,.77.81,2.74,2.74,0,0,0,1.22.28,2.49,2.49,0,0,0,1.23-.29,2,2,0,0,0,.8-.81,2.48,2.48,0,0,0,.29-1.25V24.21a5.28,5.28,0,0,1,.08-.93,1.12,1.12,0,0,1,.49-.69,2.59,2.59,0,0,1,1.33-.26,2.38,2.38,0,0,1,1.31.28,1.07,1.07,0,0,1,.47.71,4.53,4.53,0,0,1,.09.91V33a4.87,4.87,0,0,1-.09.89,1,1,0,0,1-.49.66,2.52,2.52,0,0,1-1.3.25,2.92,2.92,0,0,1-1.05-.15,1.3,1.3,0,0,1-.55-.37.94.94,0,0,1-.21-.48,2.42,2.42,0,0,1,0-.45l.33-.27a2.55,2.55,0,0,1-.33.38,5.89,5.89,0,0,1-.66.58,4.28,4.28,0,0,1-1,.54A3.31,3.31,0,0,1,134.18,34.83Z"/><path class="cls-2" d="M149.48,35a6.45,6.45,0,0,1-2.24-.41,7.13,7.13,0,0,1-2.1-1.21,5.87,5.87,0,0,1-1.53-2,6.76,6.76,0,0,1,0-5.48,5.85,5.85,0,0,1,1.53-2,6.52,6.52,0,0,1,2.08-1.21,6.4,6.4,0,0,1,2.22-.42,6.06,6.06,0,0,1,1.66.22,5.41,5.41,0,0,1,1.25.51,3.87,3.87,0,0,1,.74.53,7,7,0,0,1,.75.65,1.11,1.11,0,0,1,.3.85,1.59,1.59,0,0,1-.18.56,4.48,4.48,0,0,1-.38.59c-.51.7-1,1-1.5.95a2.89,2.89,0,0,1-.68-.25l-.6-.35a4,4,0,0,0-.62-.32,1.88,1.88,0,0,0-.74-.14,2.61,2.61,0,0,0-1.31.34,2.7,2.7,0,0,0-.91.9,2.55,2.55,0,0,0-.34,1.31,2.45,2.45,0,0,0,.34,1.3,2.48,2.48,0,0,0,.9.92,2.42,2.42,0,0,0,1.26.33,2.39,2.39,0,0,0,.73-.1,2.33,2.33,0,0,0,.55-.23c.15-.09.26-.17.35-.21s.39-.26.57-.37a1.08,1.08,0,0,1,.55-.16,1.28,1.28,0,0,1,.74.26,4.7,4.7,0,0,1,.81.84,2.1,2.1,0,0,1,.49,1A1.19,1.19,0,0,1,154,33a2.62,2.62,0,0,1-.84.76,4.23,4.23,0,0,1-.72.45,7.21,7.21,0,0,1-1.25.5A5.34,5.34,0,0,1,149.48,35Z"/><path class="cls-2" d="M162.63,35.1a7.25,7.25,0,0,1-3-.58A5.88,5.88,0,0,1,157.55,33a6.4,6.4,0,0,1-1.19-2.09,6.88,6.88,0,0,1-.4-2.3,6.45,6.45,0,0,1,.85-3.33A6.09,6.09,0,0,1,159.17,23a7,7,0,0,1,3.47-.84,6.24,6.24,0,0,1,2.51.47,5.08,5.08,0,0,1,1.75,1.2,4.89,4.89,0,0,1,1,1.59,4.25,4.25,0,0,1,.34,1.62,2.82,2.82,0,0,1-.66,2.05,2.28,2.28,0,0,1-1.69.67H160a1.71,1.71,0,0,0,.46,1.08,2.77,2.77,0,0,0,1,.7,3.6,3.6,0,0,0,1.32.25,6.63,6.63,0,0,0,1-.07,3.74,3.74,0,0,0,.79-.17l.58-.22c.18-.08.34-.14.49-.19a2.41,2.41,0,0,1,.43-.1,1,1,0,0,1,.67.21,2.06,2.06,0,0,1,.58.72,1.8,1.8,0,0,1,.23.52,2.14,2.14,0,0,1,.06.5,1.34,1.34,0,0,1-.61,1.09,4.86,4.86,0,0,1-1.72.73A11.06,11.06,0,0,1,162.63,35.1ZM160,27.7h3.95a1,1,0,0,0,.57-.14c.14-.09.2-.27.2-.54a1.23,1.23,0,0,0-.27-.77,1.72,1.72,0,0,0-.74-.54,2.8,2.8,0,0,0-1.09-.19,3,3,0,0,0-1.35.3,2.36,2.36,0,0,0-.93.8A1.84,1.84,0,0,0,160,27.7Z"/><path class="cls-2" d="M181.38,35.08a8.15,8.15,0,0,1-1.48-.15,7.9,7.9,0,0,1-1.53-.44,4.89,4.89,0,0,1-1.25-.67,1.3,1.3,0,0,1-.57-.89,1.42,1.42,0,0,1,0-.54,2.32,2.32,0,0,1,.22-.6,4.44,4.44,0,0,1,.44-.66.89.89,0,0,1,.44-.35,1,1,0,0,1,.59,0,3.24,3.24,0,0,1,.8.26l.82.4a8.64,8.64,0,0,0,.88.38,2.87,2.87,0,0,0,.92.16,2.32,2.32,0,0,0,1.09-.21.66.66,0,0,0,.39-.59.64.64,0,0,0-.17-.45,1.27,1.27,0,0,0-.45-.3c-.19-.08-.41-.16-.67-.24s-.53-.15-.81-.21-.59-.15-.9-.25a9.05,9.05,0,0,1-1.19-.45,4,4,0,0,1-1.05-.72,3.3,3.3,0,0,1-.74-1.07,4,4,0,0,1-.27-1.56,3.29,3.29,0,0,1,2.23-3.32,7.35,7.35,0,0,1,2.7-.43c.3,0,.6,0,.9.05a5.26,5.26,0,0,1,.88.17l.87.3a7.55,7.55,0,0,1,.85.43,1.12,1.12,0,0,1,.77.95,2.08,2.08,0,0,1-.42,1.25,2.17,2.17,0,0,1-.58.59.89.89,0,0,1-.63.13,3.75,3.75,0,0,1-.86-.33,9.53,9.53,0,0,0-1-.44,2.85,2.85,0,0,0-1-.2,2,2,0,0,0-.72.11,1,1,0,0,0-.45.3.75.75,0,0,0,0,.95,1.27,1.27,0,0,0,.51.31,4.8,4.8,0,0,0,.75.23l.92.2a12.76,12.76,0,0,1,1.39.34,4.44,4.44,0,0,1,1.3.61,3,3,0,0,1,.95,1.08,3.76,3.76,0,0,1,.36,1.77,3.58,3.58,0,0,1-1.38,3A6.4,6.4,0,0,1,181.38,35.08Z"/><path class="cls-2" d="M190.84,20.59a2.38,2.38,0,0,1-1.35-.28,1.09,1.09,0,0,1-.49-.72,4.86,4.86,0,0,1-.09-.95,4.75,4.75,0,0,1,.09-1,1,1,0,0,1,.5-.7,2.59,2.59,0,0,1,1.36-.27,2.46,2.46,0,0,1,1.33.28,1.09,1.09,0,0,1,.49.73,5.86,5.86,0,0,1,.08,1,5.74,5.74,0,0,1-.08.93,1.13,1.13,0,0,1-.49.71A2.65,2.65,0,0,1,190.84,20.59Zm0,14.3a2.59,2.59,0,0,1-1.33-.26,1,1,0,0,1-.47-.7A5.52,5.52,0,0,1,189,33V24.29a4.46,4.46,0,0,1,.09-.91,1,1,0,0,1,.49-.7,2.41,2.41,0,0,1,1.32-.27,2.33,2.33,0,0,1,1.29.28,1.1,1.1,0,0,1,.47.71,4.69,4.69,0,0,1,.09.94V33a5.31,5.31,0,0,1-.08.91,1.06,1.06,0,0,1-.48.69A2.52,2.52,0,0,1,190.83,34.89Z"/><path class="cls-2" d="M197.2,34.89a2.4,2.4,0,0,1-1.3-.27,1.1,1.1,0,0,1-.47-.7,5.46,5.46,0,0,1-.08-.93V24.24a4.43,4.43,0,0,1,.09-.9,1.08,1.08,0,0,1,.49-.69,2.52,2.52,0,0,1,1.32-.26,2,2,0,0,1,1.35.37,1.47,1.47,0,0,1,.42,1.18l-.32.28a1.87,1.87,0,0,1,.3-.43,4.92,4.92,0,0,1,.65-.62,4.1,4.1,0,0,1,.94-.56,2.8,2.8,0,0,1,1.16-.24,4.35,4.35,0,0,1,1.49.24,3.82,3.82,0,0,1,1.2.7,4.32,4.32,0,0,1,.93,1.16,6.87,6.87,0,0,1,.85-1,4.71,4.71,0,0,1,1.18-.8,3.3,3.3,0,0,1,1.53-.32,4.09,4.09,0,0,1,2.48.73A4.54,4.54,0,0,1,213,25.23a9.29,9.29,0,0,1,.52,3.32V33a4.53,4.53,0,0,1-.1.91,1.13,1.13,0,0,1-.49.7,2.5,2.5,0,0,1-1.31.26,2.47,2.47,0,0,1-1.33-.27,1.11,1.11,0,0,1-.47-.72,5.31,5.31,0,0,1-.08-.91V28.53a3.81,3.81,0,0,0-.19-1.29,1.72,1.72,0,0,0-.54-.83,1.43,1.43,0,0,0-.9-.29,1.68,1.68,0,0,0-1,.28,1.6,1.6,0,0,0-.6.8,3.7,3.7,0,0,0-.2,1.35V33a3.51,3.51,0,0,1-.12.94,1.2,1.2,0,0,1-.54.7,2.46,2.46,0,0,1-1.34.24,2.11,2.11,0,0,1-1.25-.29,1.12,1.12,0,0,1-.45-.73,5.14,5.14,0,0,1-.07-.88V28.52a4.55,4.55,0,0,0-.17-1.3,1.66,1.66,0,0,0-.53-.83,1.46,1.46,0,0,0-.92-.27,1.62,1.62,0,0,0-1,.32,2,2,0,0,0-.59.87,3.76,3.76,0,0,0-.18,1.21V33a5.25,5.25,0,0,1-.08.92,1.07,1.07,0,0,1-.49.69A2.49,2.49,0,0,1,197.2,34.89Z"/><path class="cls-2" d="M217.65,40.08a2.51,2.51,0,0,1-1.3-.26,1,1,0,0,1-.47-.68,4.91,4.91,0,0,1-.08-.89v-14a5.1,5.1,0,0,1,.07-.91,1.09,1.09,0,0,1,.47-.69,2.3,2.3,0,0,1,1.29-.28,3,3,0,0,1,1.23.23,1.29,1.29,0,0,1,.66.7v14.9a3.28,3.28,0,0,1-.08.9,1.16,1.16,0,0,1-.49.69A2.48,2.48,0,0,1,217.65,40.08Zm4.8-5.4a4.52,4.52,0,0,1-2.15-.49,4.33,4.33,0,0,1-1.53-1.32,6.12,6.12,0,0,1-.93-1.94,7.91,7.91,0,0,1-.28-2.37,8.53,8.53,0,0,1,.32-2.34,6.71,6.71,0,0,1,.94-2,4.25,4.25,0,0,1,3.64-1.83,4.88,4.88,0,0,1,2.15.5,6.37,6.37,0,0,1,1.84,1.36,6.56,6.56,0,0,1,1.27,2,6.15,6.15,0,0,1,.46,2.38,6.08,6.08,0,0,1-3.55,5.58A5.23,5.23,0,0,1,222.45,34.68Zm-.5-3.52a2.28,2.28,0,0,0,1.25-.34,2.51,2.51,0,0,0,.89-.91,2.43,2.43,0,0,0,.34-1.28,2.6,2.6,0,0,0-.32-1.27A2.43,2.43,0,0,0,222,26.13a2.28,2.28,0,0,0-1.23.34,2.31,2.31,0,0,0-.88.9,2.5,2.5,0,0,0-.31,1.26,2.5,2.5,0,0,0,1.2,2.19A2.26,2.26,0,0,0,222,31.16Z"/><path class="cls-2" d="M235,34.92a16.22,16.22,0,0,1-1.83-.11,3.7,3.7,0,0,1-1.35-.4,2.64,2.64,0,0,1-.9-.83,4,4,0,0,1-.52-1.38,10.11,10.11,0,0,1-.17-2.06V18.59a4.49,4.49,0,0,1,.1-.93,1.21,1.21,0,0,1,.49-.7,2.39,2.39,0,0,1,1.31-.27,2.34,2.34,0,0,1,1.29.27,1.21,1.21,0,0,1,.49.7,4.57,4.57,0,0,1,.1.93V30a4.16,4.16,0,0,0,0,.66.8.8,0,0,0,.15.41.51.51,0,0,0,.31.2,2.4,2.4,0,0,0,.52.05,2.7,2.7,0,0,1,.62.08.87.87,0,0,1,.53.45,2.53,2.53,0,0,1,.23,1.25,2.79,2.79,0,0,1-.23,1.3.91.91,0,0,1-.53.47A2.8,2.8,0,0,1,235,34.92Z"/><path class="cls-2" d="M244.45,35.15a7.44,7.44,0,0,1-3-.58,5.84,5.84,0,0,1-2.06-1.51,6.73,6.73,0,0,1-1.2-2.09,6.92,6.92,0,0,1-.4-2.3,6.54,6.54,0,0,1,.85-3.33A6.12,6.12,0,0,1,241,23.06a7,7,0,0,1,3.46-.84,6.39,6.39,0,0,1,2.51.46,5.11,5.11,0,0,1,1.75,1.21,5.18,5.18,0,0,1,1,1.58,4.51,4.51,0,0,1,.33,1.63,2.82,2.82,0,0,1-.66,2,2.27,2.27,0,0,1-1.69.67h-5.95a1.74,1.74,0,0,0,.46,1.07,2.87,2.87,0,0,0,1,.71,3.7,3.7,0,0,0,1.33.25,6.5,6.5,0,0,0,1-.07,4.49,4.49,0,0,0,.79-.17c.22-.07.41-.15.59-.22s.34-.14.48-.19a2.63,2.63,0,0,1,.43-.1,1,1,0,0,1,.68.21,2.22,2.22,0,0,1,.57.71,2,2,0,0,1,.24.53,2.14,2.14,0,0,1,.06.5,1.36,1.36,0,0,1-.61,1.09,4.91,4.91,0,0,1-1.73.73A11,11,0,0,1,244.45,35.15Zm-2.67-7.41h3.95a1.06,1.06,0,0,0,.58-.14.62.62,0,0,0,.2-.54,1.18,1.18,0,0,0-.28-.77,1.67,1.67,0,0,0-.73-.54,2.83,2.83,0,0,0-1.09-.19,3,3,0,0,0-1.35.3,2.47,2.47,0,0,0-.94.8A1.91,1.91,0,0,0,241.78,27.74Z"/><path class="cls-4" d="M55.46,35.55q0,3.41-1.18,4.85a4.36,4.36,0,0,1-3.59,1.45,5.73,5.73,0,0,1-2.57-.5,3.29,3.29,0,0,1-1.48-1.85,11.09,11.09,0,0,1-.55-3.61L46,20.22a6.2,6.2,0,0,1-3.21-.74A2.56,2.56,0,0,1,41.55,17a2.76,2.76,0,0,1,1.16-2.29,5.16,5.16,0,0,1,3.24-.9c.54,0,1.31,0,2.3,0l2.1,0c2,0,3.36.34,4,1a5,5,0,0,1,1,3.59Z"/><path class="cls-4" d="M59.21,39a2.78,2.78,0,0,1,1.16-2.31,5.4,5.4,0,0,1,3.28-.88c3,0,4.44,1.07,4.44,3.19a3.11,3.11,0,0,1-.57,2,2.73,2.73,0,0,1-1.51,1,9.17,9.17,0,0,1-2.36.26,6.13,6.13,0,0,1-3.18-.76A2.62,2.62,0,0,1,59.21,39Z"/><path class="cls-4" d="M80.32,35.55c0,2.27-.4,3.89-1.19,4.85a4.36,4.36,0,0,1-3.59,1.45,5.66,5.66,0,0,1-2.56-.5,3.26,3.26,0,0,1-1.49-1.85,11.09,11.09,0,0,1-.55-3.61l-.06-15.67a6.22,6.22,0,0,1-3.22-.74A2.59,2.59,0,0,1,66.4,17a2.76,2.76,0,0,1,1.16-2.29,5.16,5.16,0,0,1,3.24-.9c.54,0,1.31,0,2.3,0l2.1,0c2,0,3.36.34,4,1a5,5,0,0,1,1,3.59Z"/><path class="cls-5" d="M55.46,35.55q0,3.41-1.18,4.85a4.36,4.36,0,0,1-3.59,1.45,5.73,5.73,0,0,1-2.57-.5,3.29,3.29,0,0,1-1.48-1.85,11.09,11.09,0,0,1-.55-3.61L46,20.22a6.2,6.2,0,0,1-3.21-.74A2.56,2.56,0,0,1,41.55,17a2.76,2.76,0,0,1,1.16-2.29,5.16,5.16,0,0,1,3.24-.9c.54,0,1.31,0,2.3,0l2.1,0c2,0,3.36.34,4,1a5,5,0,0,1,1,3.59Z"/><path class="cls-5" d="M59.21,39a2.78,2.78,0,0,1,1.16-2.31,5.4,5.4,0,0,1,3.28-.88c3,0,4.44,1.07,4.44,3.19a3.11,3.11,0,0,1-.57,2,2.73,2.73,0,0,1-1.51,1,9.17,9.17,0,0,1-2.36.26,6.13,6.13,0,0,1-3.18-.76A2.62,2.62,0,0,1,59.21,39Z"/><path class="cls-5" d="M80.32,35.55c0,2.27-.4,3.89-1.19,4.85a4.36,4.36,0,0,1-3.59,1.45,5.66,5.66,0,0,1-2.56-.5,3.26,3.26,0,0,1-1.49-1.85,11.09,11.09,0,0,1-.55-3.61l-.06-15.67a6.22,6.22,0,0,1-3.22-.74A2.59,2.59,0,0,1,66.4,17a2.76,2.76,0,0,1,1.16-2.29,5.16,5.16,0,0,1,3.24-.9c.54,0,1.31,0,2.3,0l2.1,0c2,0,3.36.34,4,1a5,5,0,0,1,1,3.59Z"/></g></g></svg>