<svg xmlns="http://www.w3.org/2000/svg" viewBox="0 0 399.98 111.96"><defs><style>.cls-1{fill:#03826e;}.cls-2{fill:#fff;}.cls-3,.cls-4{fill:none;stroke-width:5px;}.cls-3{stroke:#b6ba01;stroke-linejoin:round;}.cls-4{stroke:#fff;}.cls-5{fill:#b6ba01;}</style></defs><title>12t</title><g id="Layer_2" data-name="Layer 2"><g id="pestaña_identificativa" data-name="pestaña identificativa"><path class="cls-1" d="M368.29,0H43.76C19.59,0,0,15.89,0,35.49V79.56A32.4,32.4,0,0,0,32.4,112H367.58A32.4,32.4,0,0,0,400,79.56V25.7C400,11.51,385.79,0,368.29,0Z"/><path class="cls-2" d="M119.73,35.77a8.64,8.64,0,0,1-2.33-.34,9.39,9.39,0,0,1-2.41-1,8.82,8.82,0,0,1-2.13-1.79A7.87,7.87,0,0,1,111.35,30a8.93,8.93,0,0,1-.56-3.32,8.6,8.6,0,0,1,.56-3.24A8.06,8.06,0,0,1,112.86,21,9,9,0,0,1,115,19.28a9.69,9.69,0,0,1,2.41-1,8.89,8.89,0,0,1,2.39-.34,7.36,7.36,0,0,1,2.22.3,8.09,8.09,0,0,1,1.54.63l.76.43a6.82,6.82,0,0,1,.85.65,1.21,1.21,0,0,1,.43.9,1.81,1.81,0,0,1-.11.6,2.61,2.61,0,0,1-.34.6,3.33,3.33,0,0,1-.78.83,1.24,1.24,0,0,1-.72.27,1.35,1.35,0,0,1-.58-.15c-.18-.11-.4-.24-.65-.41s-.28-.18-.5-.31a3.85,3.85,0,0,0-.88-.34,5.82,5.82,0,0,0-3.16.15,5,5,0,0,0-1.63.93,4.45,4.45,0,0,0-1.2,1.58,5.45,5.45,0,0,0-.46,2.26,5.12,5.12,0,0,0,.47,2.26,4.62,4.62,0,0,0,1.21,1.57,5.29,5.29,0,0,0,3.37,1.25,4.73,4.73,0,0,0,1.28-.15,4.64,4.64,0,0,0,.92-.36c.27-.14.49-.27.68-.39l.56-.32a1.26,1.26,0,0,1,.59-.15,1.15,1.15,0,0,1,.71.28,3.21,3.21,0,0,1,.74.87,2.6,2.6,0,0,1,.33.64,1.7,1.7,0,0,1,.12.61,1,1,0,0,1-.42.86,7.5,7.5,0,0,1-.86.62l-.75.43a6.67,6.67,0,0,1-1.53.63A8,8,0,0,1,119.73,35.77Z"/><path class="cls-2" d="M129.6,35.58a2.5,2.5,0,0,1-1.31-.26,1.1,1.1,0,0,1-.47-.72,4.7,4.7,0,0,1-.09-.92V25a4.44,4.44,0,0,1,.08-.92,1.06,1.06,0,0,1,.49-.69,2.59,2.59,0,0,1,1.33-.26,2.5,2.5,0,0,1,1.26.24,1.06,1.06,0,0,1,.49.55,2,2,0,0,1,.1.53l-.3.16a2.39,2.39,0,0,1,.26-.37,3.58,3.58,0,0,1,.59-.55,3.53,3.53,0,0,1,2.15-.68l.61,0a3.89,3.89,0,0,1,.7.16,2.47,2.47,0,0,1,.66.3,1.66,1.66,0,0,1,.49.46,1.2,1.2,0,0,1,.19.67,3,3,0,0,1-.48,1.74,1.4,1.4,0,0,1-1.2.71,2.11,2.11,0,0,1-.6-.06,1,1,0,0,1-.29-.15.93.93,0,0,0-.26-.15,1.68,1.68,0,0,0-.55-.06,2.34,2.34,0,0,0-.71.1,1.85,1.85,0,0,0-.63.31,1.45,1.45,0,0,0-.61,1.23v5.48a4.47,4.47,0,0,1-.08.91,1,1,0,0,1-.49.69A2.6,2.6,0,0,1,129.6,35.58Z"/><path class="cls-2" d="M144.18,35.56a5.28,5.28,0,0,1-2.18-.45,5.43,5.43,0,0,1-1.75-1.26,6,6,0,0,1-1.16-1.93,7,7,0,0,1-.41-2.43V25a4.6,4.6,0,0,1,.08-.93,1.13,1.13,0,0,1,.49-.7,2.47,2.47,0,0,1,1.33-.27,2.29,2.29,0,0,1,1.31.28,1.1,1.1,0,0,1,.47.71,4.62,4.62,0,0,1,.09.94v4.5a2.78,2.78,0,0,0,.26,1.26,1.73,1.73,0,0,0,.77.81,2.78,2.78,0,0,0,2.45,0,2,2,0,0,0,.8-.81,2.48,2.48,0,0,0,.29-1.25V24.94a4.6,4.6,0,0,1,.08-.93,1,1,0,0,1,.49-.68,2.49,2.49,0,0,1,1.33-.26,2.39,2.39,0,0,1,1.31.27,1.13,1.13,0,0,1,.47.71,4.63,4.63,0,0,1,.09.92v8.8a4.12,4.12,0,0,1-.08.88,1,1,0,0,1-.49.67,2.63,2.63,0,0,1-1.3.25,2.89,2.89,0,0,1-1.05-.16,1.21,1.21,0,0,1-.55-.37.94.94,0,0,1-.21-.47,2.6,2.6,0,0,1,0-.46l.33-.27a3.06,3.06,0,0,1-.33.39,7.18,7.18,0,0,1-.66.57,4.28,4.28,0,0,1-1,.54A3.31,3.31,0,0,1,144.18,35.56Z"/><path class="cls-2" d="M159.48,35.7a6.47,6.47,0,0,1-2.24-.42,6.92,6.92,0,0,1-2.1-1.21,5.77,5.77,0,0,1-1.53-2,6.76,6.76,0,0,1,0-5.48,5.85,5.85,0,0,1,1.53-2,6.71,6.71,0,0,1,2.08-1.21,6.38,6.38,0,0,1,2.22-.41,6.08,6.08,0,0,1,1.66.21,5.41,5.41,0,0,1,1.25.51,3.87,3.87,0,0,1,.74.53,7,7,0,0,1,.74.65,1.05,1.05,0,0,1,.3.85,1.38,1.38,0,0,1-.17.56,4.48,4.48,0,0,1-.38.59c-.51.7-1,1-1.5,1a2.12,2.12,0,0,1-.68-.25l-.6-.35a6,6,0,0,0-.62-.32,1.9,1.9,0,0,0-.75-.13,2.59,2.59,0,0,0-1.3.33,2.7,2.7,0,0,0-.91.9,2.59,2.59,0,0,0-.34,1.32,2.5,2.5,0,0,0,.34,1.3,2.53,2.53,0,0,0,.9.91,2.42,2.42,0,0,0,1.26.34,2.74,2.74,0,0,0,.73-.1,2.83,2.83,0,0,0,.55-.24l.35-.21a6.54,6.54,0,0,1,.57-.36,1.1,1.1,0,0,1,.55-.17,1.23,1.23,0,0,1,.74.27,4.28,4.28,0,0,1,.81.83,2.1,2.1,0,0,1,.49,1,1.18,1.18,0,0,1-.22.86,2.46,2.46,0,0,1-.85.76,3.69,3.69,0,0,1-.71.45,6.49,6.49,0,0,1-1.25.5A5.64,5.64,0,0,1,159.48,35.7Z"/><path class="cls-2" d="M172.63,35.83a7.09,7.09,0,0,1-3-.58,5.88,5.88,0,0,1-2.07-1.51,6.4,6.4,0,0,1-1.19-2.09,6.88,6.88,0,0,1-.4-2.3,6.38,6.38,0,0,1,.85-3.32,6.11,6.11,0,0,1,2.36-2.29,7,7,0,0,1,3.47-.84,6.24,6.24,0,0,1,2.51.47,5.23,5.23,0,0,1,1.75,1.2,4.89,4.89,0,0,1,1,1.59,4.32,4.32,0,0,1,.34,1.62,2.78,2.78,0,0,1-.67,2,2.25,2.25,0,0,1-1.68.68H170a1.71,1.71,0,0,0,.46,1.08,2.81,2.81,0,0,0,1,.7,3.5,3.5,0,0,0,1.33.25,8.22,8.22,0,0,0,1-.06,3.7,3.7,0,0,0,.79-.18l.58-.22c.18-.08.34-.14.49-.19a2.41,2.41,0,0,1,.43-.1,1.08,1.08,0,0,1,.67.21,2.06,2.06,0,0,1,.58.72,1.93,1.93,0,0,1,.23.52,2.2,2.2,0,0,1,.06.5,1.34,1.34,0,0,1-.61,1.09,4.85,4.85,0,0,1-1.72.74A11.62,11.62,0,0,1,172.63,35.83ZM170,28.43h3.95a.92.92,0,0,0,.57-.14.59.59,0,0,0,.2-.53,1.23,1.23,0,0,0-.27-.78,1.8,1.8,0,0,0-.74-.54,3.2,3.2,0,0,0-2.44.11,2.36,2.36,0,0,0-.93.8A1.89,1.89,0,0,0,170,28.43Z"/><path class="cls-2" d="M188.7,35.61a2.4,2.4,0,0,1-1.3-.27,1.1,1.1,0,0,1-.47-.7,5.28,5.28,0,0,1-.08-.93V25a4.43,4.43,0,0,1,.09-.9,1,1,0,0,1,.49-.68,2.41,2.41,0,0,1,1.32-.27,2.05,2.05,0,0,1,1.35.37,1.45,1.45,0,0,1,.42,1.18l-.32.28a1.88,1.88,0,0,1,.3-.42,4.93,4.93,0,0,1,.65-.63,4.1,4.1,0,0,1,.94-.56,2.8,2.8,0,0,1,1.16-.24,4.35,4.35,0,0,1,1.49.24,3.82,3.82,0,0,1,1.2.7,4.32,4.32,0,0,1,.93,1.16,6.88,6.88,0,0,1,.86-1,4.48,4.48,0,0,1,1.17-.8,3.44,3.44,0,0,1,1.53-.32,4,4,0,0,1,2.48.74A4.46,4.46,0,0,1,204.46,26a9.33,9.33,0,0,1,.52,3.32v4.48a3.85,3.85,0,0,1-.1.91,1.13,1.13,0,0,1-.49.7,2.41,2.41,0,0,1-1.31.26,2.47,2.47,0,0,1-1.33-.27,1.09,1.09,0,0,1-.47-.72,5.31,5.31,0,0,1-.08-.91V29.25A3.81,3.81,0,0,0,201,28a1.77,1.77,0,0,0-.54-.83,1.36,1.36,0,0,0-.9-.28,1.68,1.68,0,0,0-1,.27,1.6,1.6,0,0,0-.6.8,3.7,3.7,0,0,0-.2,1.35v4.47a3.51,3.51,0,0,1-.12.94,1.21,1.21,0,0,1-.54.7,2.37,2.37,0,0,1-1.34.24,2.11,2.11,0,0,1-1.25-.29,1.12,1.12,0,0,1-.45-.72,5.34,5.34,0,0,1-.07-.89V29.24a4.55,4.55,0,0,0-.17-1.3,1.63,1.63,0,0,0-.53-.82,1.4,1.4,0,0,0-.92-.28,1.57,1.57,0,0,0-1,.33,1.92,1.92,0,0,0-.59.86,3.8,3.8,0,0,0-.18,1.21v4.5a5.25,5.25,0,0,1-.08.92,1.07,1.07,0,0,1-.49.69A2.49,2.49,0,0,1,188.7,35.61Z"/><path class="cls-2" d="M212.8,35.6a5.2,5.2,0,0,1-2.17-.45,5.33,5.33,0,0,1-1.75-1.26A5.59,5.59,0,0,1,207.72,32a6.81,6.81,0,0,1-.41-2.43V25a4.59,4.59,0,0,1,.09-.93,1.08,1.08,0,0,1,.49-.69,2.31,2.31,0,0,1,1.32-.28,2.27,2.27,0,0,1,1.31.28,1.12,1.12,0,0,1,.48.71,4.7,4.7,0,0,1,.08.94v4.5a2.92,2.92,0,0,0,.26,1.26,1.8,1.8,0,0,0,.78.81,2.43,2.43,0,0,0,1.21.28,2.53,2.53,0,0,0,1.24-.29,2,2,0,0,0,.8-.81,2.59,2.59,0,0,0,.29-1.25V25a4.42,4.42,0,0,1,.09-.92,1,1,0,0,1,.49-.69,2.42,2.42,0,0,1,1.32-.26,2.37,2.37,0,0,1,1.31.27,1.14,1.14,0,0,1,.48.72,4.47,4.47,0,0,1,.08.91v8.8a4.26,4.26,0,0,1-.09.89,1,1,0,0,1-.49.66,2.61,2.61,0,0,1-1.3.25,2.92,2.92,0,0,1-1.05-.15,1.31,1.31,0,0,1-.55-.38,1.16,1.16,0,0,1-.21-.47,4.09,4.09,0,0,1,0-.46l.33-.27a3.06,3.06,0,0,1-.33.39,4.52,4.52,0,0,1-.66.57,4.21,4.21,0,0,1-1,.54A3.37,3.37,0,0,1,212.8,35.6Zm-.39-13.37a.86.86,0,0,1-.74-.25,2.63,2.63,0,0,1-.51-1,2.11,2.11,0,0,1-.1-1.3A1.44,1.44,0,0,1,212,19l4.4-1.34a.89.89,0,0,1,.72.28,2.4,2.4,0,0,1,.5,1,1.83,1.83,0,0,1,.09,1.28,1.34,1.34,0,0,1-.91.67Z"/><path class="cls-2" d="M226.73,35.64a16.4,16.4,0,0,1-1.83-.1,4.13,4.13,0,0,1-1.35-.4,2.67,2.67,0,0,1-.9-.84,4.19,4.19,0,0,1-.52-1.38,9.39,9.39,0,0,1-.17-2.06V19.31a4.57,4.57,0,0,1,.1-.93,1.21,1.21,0,0,1,.49-.7,2.39,2.39,0,0,1,1.31-.27,2.24,2.24,0,0,1,1.29.28,1.15,1.15,0,0,1,.49.7,4.4,4.4,0,0,1,.1.92V30.69a4.16,4.16,0,0,0,0,.66.8.8,0,0,0,.15.41.51.51,0,0,0,.31.2,2.4,2.4,0,0,0,.52,0,2.7,2.7,0,0,1,.62.08.91.91,0,0,1,.54.45,2.68,2.68,0,0,1,.22,1.25,2.79,2.79,0,0,1-.23,1.3.91.91,0,0,1-.53.47A2.8,2.8,0,0,1,226.73,35.64Z"/><path class="cls-2" d="M230.74,23.34h2.75l3.45-.1a4.26,4.26,0,0,1,.89.09,1.12,1.12,0,0,1,.71.49,2.47,2.47,0,0,1,.27,1.33,2.34,2.34,0,0,1-.26,1.24,1.21,1.21,0,0,1-.69.52,3.89,3.89,0,0,1-.93.11l-3.27-.08-3,0a1.23,1.23,0,0,1-1-.46,2.52,2.52,0,0,1-.29-1.39,2.11,2.11,0,0,1,.35-1.33A1.3,1.3,0,0,1,230.74,23.34Zm5.64,12.3a7.87,7.87,0,0,1-2.2-.27,3.64,3.64,0,0,1-1.51-.85,3.45,3.45,0,0,1-.88-1.47,6.91,6.91,0,0,1-.28-2.11V20.82a4.31,4.31,0,0,1,.09-.93,1,1,0,0,1,.49-.66,3.32,3.32,0,0,1,2.6,0,1.11,1.11,0,0,1,.48.71,4.63,4.63,0,0,1,.09.92v9.92a3,3,0,0,0,.06.66.79.79,0,0,0,.18.39.65.65,0,0,0,.35.18,2.9,2.9,0,0,0,.56,0,4.07,4.07,0,0,1,1,.1,1.1,1.1,0,0,1,.66.45,2.13,2.13,0,0,1,.24,1.17,2.28,2.28,0,0,1-.28,1.3,1,1,0,0,1-.71.48A5.41,5.41,0,0,1,236.38,35.64Z"/><path class="cls-2" d="M242.74,21.35a2.47,2.47,0,0,1-1.35-.28,1.09,1.09,0,0,1-.49-.72,4.86,4.86,0,0,1-.09-1,4.92,4.92,0,0,1,.09-1,1.09,1.09,0,0,1,.5-.7,2.71,2.71,0,0,1,1.36-.26,2.37,2.37,0,0,1,1.33.28,1.09,1.09,0,0,1,.49.72,6,6,0,0,1,.08,1,4.7,4.7,0,0,1-.09.92,1,1,0,0,1-.48.71A2.53,2.53,0,0,1,242.74,21.35Zm0,14.3a2.47,2.47,0,0,1-1.33-.27,1,1,0,0,1-.47-.7,5.31,5.31,0,0,1-.08-.91V25.05a4.56,4.56,0,0,1,.09-.92,1.08,1.08,0,0,1,.49-.7,2.52,2.52,0,0,1,1.32-.26,2.24,2.24,0,0,1,1.29.28,1.1,1.1,0,0,1,.47.71,4.62,4.62,0,0,1,.09.94v8.7a5.4,5.4,0,0,1-.08.91,1.06,1.06,0,0,1-.48.69A2.62,2.62,0,0,1,242.73,35.65Z"/><path class="cls-2" d="M249,40.82a2.41,2.41,0,0,1-1.3-.26,1,1,0,0,1-.47-.67,4.21,4.21,0,0,1-.08-.89V25a5.17,5.17,0,0,1,.07-.91,1.1,1.1,0,0,1,.47-.69,2.31,2.31,0,0,1,1.29-.27,2.84,2.84,0,0,1,1.23.23,1.29,1.29,0,0,1,.66.7V39a3.36,3.36,0,0,1-.08.9,1.11,1.11,0,0,1-.49.68A2.3,2.3,0,0,1,249,40.82Zm4.8-5.39a4.64,4.64,0,0,1-2.15-.49,4.46,4.46,0,0,1-1.53-1.33,6,6,0,0,1-.93-1.93,8,8,0,0,1-.28-2.38,8.53,8.53,0,0,1,.32-2.34,6.53,6.53,0,0,1,.94-2,4.3,4.3,0,0,1,1.53-1.35,4.47,4.47,0,0,1,2.11-.49,4.88,4.88,0,0,1,2.15.5A6.54,6.54,0,0,1,257.8,25a6.44,6.44,0,0,1,1.27,2,6.14,6.14,0,0,1,.46,2.37,6.14,6.14,0,0,1-1.73,4.3A5.92,5.92,0,0,1,256,35,5.23,5.23,0,0,1,253.8,35.43Zm-.5-3.53a2.36,2.36,0,0,0,1.25-.33,2.53,2.53,0,0,0,.89-.92,2.39,2.39,0,0,0,.34-1.27,2.64,2.64,0,0,0-.32-1.28,2.4,2.4,0,0,0-.89-.9,2.49,2.49,0,0,0-1.24-.32,2.34,2.34,0,0,0-1.24.34,2.4,2.4,0,0,0-.87.89,2.57,2.57,0,0,0-.31,1.27,2.53,2.53,0,0,0,1.2,2.19A2.25,2.25,0,0,0,253.3,31.9Z"/><path class="cls-2" d="M266.38,35.66a14.2,14.2,0,0,1-1.83-.1,3.9,3.9,0,0,1-1.35-.4,2.58,2.58,0,0,1-.9-.84,4,4,0,0,1-.52-1.37,10.07,10.07,0,0,1-.18-2.07V19.33a4.4,4.4,0,0,1,.1-.92,1.18,1.18,0,0,1,.49-.7,2.38,2.38,0,0,1,1.31-.28,2.33,2.33,0,0,1,1.29.28,1.18,1.18,0,0,1,.49.7,4.4,4.4,0,0,1,.1.92V30.71a4,4,0,0,0,0,.66.8.8,0,0,0,.15.42.56.56,0,0,0,.31.2,2.4,2.4,0,0,0,.52.05,2.68,2.68,0,0,1,.62.07.9.9,0,0,1,.53.45,2.56,2.56,0,0,1,.23,1.25,2.76,2.76,0,0,1-.23,1.3.88.88,0,0,1-.54.48A2.65,2.65,0,0,1,266.38,35.66Z"/><path class="cls-2" d="M275.8,35.89a7.25,7.25,0,0,1-3-.57,5.86,5.86,0,0,1-2.06-1.52,6.16,6.16,0,0,1-1.2-2.09,6.83,6.83,0,0,1-.4-2.3,6.38,6.38,0,0,1,.85-3.32,6.14,6.14,0,0,1,2.37-2.29,7,7,0,0,1,3.46-.83,6.22,6.22,0,0,1,2.51.46,5.23,5.23,0,0,1,1.75,1.2,4.89,4.89,0,0,1,1,1.59,4.32,4.32,0,0,1,.34,1.62,2.85,2.85,0,0,1-.66,2.06,2.31,2.31,0,0,1-1.69.67h-5.95a1.76,1.76,0,0,0,.46,1.07,2.85,2.85,0,0,0,1,.7,3.44,3.44,0,0,0,1.32.25,8.1,8.1,0,0,0,1-.06,4.49,4.49,0,0,0,.79-.17l.59-.23.48-.19a2.63,2.63,0,0,1,.43-.1,1,1,0,0,1,.67.22,2,2,0,0,1,.58.71,2.37,2.37,0,0,1,.24.52,2.2,2.2,0,0,1,.06.5,1.35,1.35,0,0,1-.62,1.09,4.6,4.6,0,0,1-1.72.74A11.56,11.56,0,0,1,275.8,35.89Zm-2.67-7.4h3.95a1.06,1.06,0,0,0,.58-.13.65.65,0,0,0,.2-.54,1.26,1.26,0,0,0-.28-.78,1.8,1.8,0,0,0-.74-.54,2.94,2.94,0,0,0-1.08-.18,3,3,0,0,0-1.35.3,2.37,2.37,0,0,0-.94.79A1.89,1.89,0,0,0,273.13,28.49Z"/><path class="cls-3" d="M119.73,35.77a8.64,8.64,0,0,1-2.33-.34,9.39,9.39,0,0,1-2.41-1,8.82,8.82,0,0,1-2.13-1.79A7.87,7.87,0,0,1,111.35,30a8.93,8.93,0,0,1-.56-3.32,8.6,8.6,0,0,1,.56-3.24A8.06,8.06,0,0,1,112.86,21,9,9,0,0,1,115,19.28a9.69,9.69,0,0,1,2.41-1,8.89,8.89,0,0,1,2.39-.34,7.36,7.36,0,0,1,2.22.3,8.09,8.09,0,0,1,1.54.63l.76.43a6.82,6.82,0,0,1,.85.65,1.21,1.21,0,0,1,.43.9,1.81,1.81,0,0,1-.11.6,2.61,2.61,0,0,1-.34.6,3.33,3.33,0,0,1-.78.83,1.24,1.24,0,0,1-.72.27,1.35,1.35,0,0,1-.58-.15c-.18-.11-.4-.24-.65-.41s-.28-.18-.5-.31a3.85,3.85,0,0,0-.88-.34,5.82,5.82,0,0,0-3.16.15,5,5,0,0,0-1.63.93,4.45,4.45,0,0,0-1.2,1.58,5.45,5.45,0,0,0-.46,2.26,5.12,5.12,0,0,0,.47,2.26,4.62,4.62,0,0,0,1.21,1.57,5.29,5.29,0,0,0,3.37,1.25,4.73,4.73,0,0,0,1.28-.15,4.64,4.64,0,0,0,.92-.36c.27-.14.49-.27.68-.39l.56-.32a1.26,1.26,0,0,1,.59-.15,1.15,1.15,0,0,1,.71.28,3.21,3.21,0,0,1,.74.87,2.6,2.6,0,0,1,.33.64,1.7,1.7,0,0,1,.12.61,1,1,0,0,1-.42.86,7.5,7.5,0,0,1-.86.62l-.75.43a6.67,6.67,0,0,1-1.53.63A8,8,0,0,1,119.73,35.77Z"/><path class="cls-3" d="M129.6,35.58a2.5,2.5,0,0,1-1.31-.26,1.1,1.1,0,0,1-.47-.72,4.7,4.7,0,0,1-.09-.92V25a4.44,4.44,0,0,1,.08-.92,1.06,1.06,0,0,1,.49-.69,2.59,2.59,0,0,1,1.33-.26,2.5,2.5,0,0,1,1.26.24,1.06,1.06,0,0,1,.49.55,2,2,0,0,1,.1.53l-.3.16a2.39,2.39,0,0,1,.26-.37,3.58,3.58,0,0,1,.59-.55,3.53,3.53,0,0,1,2.15-.68l.61,0a3.89,3.89,0,0,1,.7.16,2.47,2.47,0,0,1,.66.3,1.66,1.66,0,0,1,.49.46,1.2,1.2,0,0,1,.19.67,3,3,0,0,1-.48,1.74,1.4,1.4,0,0,1-1.2.71,2.11,2.11,0,0,1-.6-.06,1,1,0,0,1-.29-.15.93.93,0,0,0-.26-.15,1.68,1.68,0,0,0-.55-.06,2.34,2.34,0,0,0-.71.1,1.85,1.85,0,0,0-.63.31,1.45,1.45,0,0,0-.61,1.23v5.48a4.47,4.47,0,0,1-.08.91,1,1,0,0,1-.49.69A2.6,2.6,0,0,1,129.6,35.58Z"/><path class="cls-3" d="M144.18,35.56a5.28,5.28,0,0,1-2.18-.45,5.43,5.43,0,0,1-1.75-1.26,6,6,0,0,1-1.16-1.93,7,7,0,0,1-.41-2.43V25a4.6,4.6,0,0,1,.08-.93,1.13,1.13,0,0,1,.49-.7,2.47,2.47,0,0,1,1.33-.27,2.29,2.29,0,0,1,1.31.28,1.1,1.1,0,0,1,.47.71,4.62,4.62,0,0,1,.09.94v4.5a2.78,2.78,0,0,0,.26,1.26,1.73,1.73,0,0,0,.77.81,2.78,2.78,0,0,0,2.45,0,2,2,0,0,0,.8-.81,2.48,2.48,0,0,0,.29-1.25V24.94a4.6,4.6,0,0,1,.08-.93,1,1,0,0,1,.49-.68,2.49,2.49,0,0,1,1.33-.26,2.39,2.39,0,0,1,1.31.27,1.13,1.13,0,0,1,.47.71,4.63,4.63,0,0,1,.09.92v8.8a4.12,4.12,0,0,1-.08.88,1,1,0,0,1-.49.67,2.63,2.63,0,0,1-1.3.25,2.89,2.89,0,0,1-1.05-.16,1.21,1.21,0,0,1-.55-.37.94.94,0,0,1-.21-.47,2.6,2.6,0,0,1,0-.46l.33-.27a3.06,3.06,0,0,1-.33.39,7.18,7.18,0,0,1-.66.57,4.28,4.28,0,0,1-1,.54A3.31,3.31,0,0,1,144.18,35.56Z"/><path class="cls-3" d="M159.48,35.7a6.47,6.47,0,0,1-2.24-.42,6.92,6.92,0,0,1-2.1-1.21,5.77,5.77,0,0,1-1.53-2,6.76,6.76,0,0,1,0-5.48,5.85,5.85,0,0,1,1.53-2,6.71,6.71,0,0,1,2.08-1.21,6.38,6.38,0,0,1,2.22-.41,6.08,6.08,0,0,1,1.66.21,5.41,5.41,0,0,1,1.25.51,3.87,3.87,0,0,1,.74.53,7,7,0,0,1,.74.65,1.05,1.05,0,0,1,.3.85,1.38,1.38,0,0,1-.17.56,4.48,4.48,0,0,1-.38.59c-.51.7-1,1-1.5,1a2.12,2.12,0,0,1-.68-.25l-.6-.35a6,6,0,0,0-.62-.32,1.9,1.9,0,0,0-.75-.13,2.59,2.59,0,0,0-1.3.33,2.7,2.7,0,0,0-.91.9,2.59,2.59,0,0,0-.34,1.32,2.5,2.5,0,0,0,.34,1.3,2.53,2.53,0,0,0,.9.91,2.42,2.42,0,0,0,1.26.34,2.74,2.74,0,0,0,.73-.1,2.83,2.83,0,0,0,.55-.24l.35-.21a6.54,6.54,0,0,1,.57-.36,1.1,1.1,0,0,1,.55-.17,1.23,1.23,0,0,1,.74.27,4.28,4.28,0,0,1,.81.83,2.1,2.1,0,0,1,.49,1,1.18,1.18,0,0,1-.22.86,2.46,2.46,0,0,1-.85.76,3.69,3.69,0,0,1-.71.45,6.49,6.49,0,0,1-1.25.5A5.64,5.64,0,0,1,159.48,35.7Z"/><path class="cls-3" d="M172.63,35.83a7.09,7.09,0,0,1-3-.58,5.88,5.88,0,0,1-2.07-1.51,6.4,6.4,0,0,1-1.19-2.09,6.88,6.88,0,0,1-.4-2.3,6.38,6.38,0,0,1,.85-3.32,6.11,6.11,0,0,1,2.36-2.29,7,7,0,0,1,3.47-.84,6.24,6.24,0,0,1,2.51.47,5.23,5.23,0,0,1,1.75,1.2,4.89,4.89,0,0,1,1,1.59,4.32,4.32,0,0,1,.34,1.62,2.78,2.78,0,0,1-.67,2,2.25,2.25,0,0,1-1.68.68H170a1.71,1.71,0,0,0,.46,1.08,2.81,2.81,0,0,0,1,.7,3.5,3.5,0,0,0,1.33.25,8.22,8.22,0,0,0,1-.06,3.7,3.7,0,0,0,.79-.18l.58-.22c.18-.08.34-.14.49-.19a2.41,2.41,0,0,1,.43-.1,1.08,1.08,0,0,1,.67.21,2.06,2.06,0,0,1,.58.72,1.93,1.93,0,0,1,.23.52,2.2,2.2,0,0,1,.06.5,1.34,1.34,0,0,1-.61,1.09,4.85,4.85,0,0,1-1.72.74A11.62,11.62,0,0,1,172.63,35.83ZM170,28.43h3.95a.92.92,0,0,0,.57-.14.59.59,0,0,0,.2-.53,1.23,1.23,0,0,0-.27-.78,1.8,1.8,0,0,0-.74-.54,3.2,3.2,0,0,0-2.44.11,2.36,2.36,0,0,0-.93.8A1.89,1.89,0,0,0,170,28.43Z"/><path class="cls-3" d="M188.7,35.61a2.4,2.4,0,0,1-1.3-.27,1.1,1.1,0,0,1-.47-.7,5.28,5.28,0,0,1-.08-.93V25a4.43,4.43,0,0,1,.09-.9,1,1,0,0,1,.49-.68,2.41,2.41,0,0,1,1.32-.27,2.05,2.05,0,0,1,1.35.37,1.45,1.45,0,0,1,.42,1.18l-.32.28a1.88,1.88,0,0,1,.3-.42,4.93,4.93,0,0,1,.65-.63,4.1,4.1,0,0,1,.94-.56,2.8,2.8,0,0,1,1.16-.24,4.35,4.35,0,0,1,1.49.24,3.82,3.82,0,0,1,1.2.7,4.32,4.32,0,0,1,.93,1.16,6.88,6.88,0,0,1,.86-1,4.48,4.48,0,0,1,1.17-.8,3.44,3.44,0,0,1,1.53-.32,4,4,0,0,1,2.48.74A4.46,4.46,0,0,1,204.46,26a9.33,9.33,0,0,1,.52,3.32v4.48a3.85,3.85,0,0,1-.1.91,1.13,1.13,0,0,1-.49.7,2.41,2.41,0,0,1-1.31.26,2.47,2.47,0,0,1-1.33-.27,1.09,1.09,0,0,1-.47-.72,5.31,5.31,0,0,1-.08-.91V29.25A3.81,3.81,0,0,0,201,28a1.77,1.77,0,0,0-.54-.83,1.36,1.36,0,0,0-.9-.28,1.68,1.68,0,0,0-1,.27,1.6,1.6,0,0,0-.6.8,3.7,3.7,0,0,0-.2,1.35v4.47a3.51,3.51,0,0,1-.12.94,1.21,1.21,0,0,1-.54.7,2.37,2.37,0,0,1-1.34.24,2.11,2.11,0,0,1-1.25-.29,1.12,1.12,0,0,1-.45-.72,5.34,5.34,0,0,1-.07-.89V29.24a4.55,4.55,0,0,0-.17-1.3,1.63,1.63,0,0,0-.53-.82,1.4,1.4,0,0,0-.92-.28,1.57,1.57,0,0,0-1,.33,1.92,1.92,0,0,0-.59.86,3.8,3.8,0,0,0-.18,1.21v4.5a5.25,5.25,0,0,1-.08.92,1.07,1.07,0,0,1-.49.69A2.49,2.49,0,0,1,188.7,35.61Z"/><path class="cls-3" d="M212.8,35.6a5.2,5.2,0,0,1-2.17-.45,5.33,5.33,0,0,1-1.75-1.26A5.59,5.59,0,0,1,207.72,32a6.81,6.81,0,0,1-.41-2.43V25a4.59,4.59,0,0,1,.09-.93,1.08,1.08,0,0,1,.49-.69,2.31,2.31,0,0,1,1.32-.28,2.27,2.27,0,0,1,1.31.28,1.12,1.12,0,0,1,.48.71,4.7,4.7,0,0,1,.08.94v4.5a2.92,2.92,0,0,0,.26,1.26,1.8,1.8,0,0,0,.78.81,2.43,2.43,0,0,0,1.21.28,2.53,2.53,0,0,0,1.24-.29,2,2,0,0,0,.8-.81,2.59,2.59,0,0,0,.29-1.25V25a4.42,4.42,0,0,1,.09-.92,1,1,0,0,1,.49-.69,2.42,2.42,0,0,1,1.32-.26,2.37,2.37,0,0,1,1.31.27,1.14,1.14,0,0,1,.48.72,4.47,4.47,0,0,1,.08.91v8.8a4.26,4.26,0,0,1-.09.89,1,1,0,0,1-.49.66,2.61,2.61,0,0,1-1.3.25,2.92,2.92,0,0,1-1.05-.15,1.31,1.31,0,0,1-.55-.38,1.16,1.16,0,0,1-.21-.47,4.09,4.09,0,0,1,0-.46l.33-.27a3.06,3.06,0,0,1-.33.39,4.52,4.52,0,0,1-.66.57,4.21,4.21,0,0,1-1,.54A3.37,3.37,0,0,1,212.8,35.6Zm-.39-13.37a.86.86,0,0,1-.74-.25,2.63,2.63,0,0,1-.51-1,2.11,2.11,0,0,1-.1-1.3A1.44,1.44,0,0,1,212,19l4.4-1.34a.89.89,0,0,1,.72.28,2.4,2.4,0,0,1,.5,1,1.83,1.83,0,0,1,.09,1.28,1.34,1.34,0,0,1-.91.67Z"/><path class="cls-3" d="M226.73,35.64a16.4,16.4,0,0,1-1.83-.1,4.13,4.13,0,0,1-1.35-.4,2.67,2.67,0,0,1-.9-.84,4.19,4.19,0,0,1-.52-1.38,9.39,9.39,0,0,1-.17-2.06V19.31a4.57,4.57,0,0,1,.1-.93,1.21,1.21,0,0,1,.49-.7,2.39,2.39,0,0,1,1.31-.27,2.24,2.24,0,0,1,1.29.28,1.15,1.15,0,0,1,.49.7,4.4,4.4,0,0,1,.1.92V30.69a4.16,4.16,0,0,0,0,.66.8.8,0,0,0,.15.41.51.51,0,0,0,.31.2,2.4,2.4,0,0,0,.52,0,2.7,2.7,0,0,1,.62.08.91.91,0,0,1,.54.45,2.68,2.68,0,0,1,.22,1.25,2.79,2.79,0,0,1-.23,1.3.91.91,0,0,1-.53.47A2.8,2.8,0,0,1,226.73,35.64Z"/><path class="cls-3" d="M230.74,23.34h2.75l3.45-.1a4.26,4.26,0,0,1,.89.09,1.12,1.12,0,0,1,.71.49,2.47,2.47,0,0,1,.27,1.33,2.34,2.34,0,0,1-.26,1.24,1.21,1.21,0,0,1-.69.52,3.89,3.89,0,0,1-.93.11l-3.27-.08-3,0a1.23,1.23,0,0,1-1-.46,2.52,2.52,0,0,1-.29-1.39,2.11,2.11,0,0,1,.35-1.33A1.3,1.3,0,0,1,230.74,23.34Zm5.64,12.3a7.87,7.87,0,0,1-2.2-.27,3.64,3.64,0,0,1-1.51-.85,3.45,3.45,0,0,1-.88-1.47,6.91,6.91,0,0,1-.28-2.11V20.82a4.31,4.31,0,0,1,.09-.93,1,1,0,0,1,.49-.66,3.32,3.32,0,0,1,2.6,0,1.11,1.11,0,0,1,.48.71,4.63,4.63,0,0,1,.09.92v9.92a3,3,0,0,0,.06.66.79.79,0,0,0,.18.39.65.65,0,0,0,.35.18,2.9,2.9,0,0,0,.56,0,4.07,4.07,0,0,1,1,.1,1.1,1.1,0,0,1,.66.45,2.13,2.13,0,0,1,.24,1.17,2.28,2.28,0,0,1-.28,1.3,1,1,0,0,1-.71.48A5.41,5.41,0,0,1,236.38,35.64Z"/><path class="cls-3" d="M242.74,21.35a2.47,2.47,0,0,1-1.35-.28,1.09,1.09,0,0,1-.49-.72,4.86,4.86,0,0,1-.09-1,4.92,4.92,0,0,1,.09-1,1.09,1.09,0,0,1,.5-.7,2.71,2.71,0,0,1,1.36-.26,2.37,2.37,0,0,1,1.33.28,1.09,1.09,0,0,1,.49.72,6,6,0,0,1,.08,1,4.7,4.7,0,0,1-.09.92,1,1,0,0,1-.48.71A2.53,2.53,0,0,1,242.74,21.35Zm0,14.3a2.47,2.47,0,0,1-1.33-.27,1,1,0,0,1-.47-.7,5.31,5.31,0,0,1-.08-.91V25.05a4.56,4.56,0,0,1,.09-.92,1.08,1.08,0,0,1,.49-.7,2.52,2.52,0,0,1,1.32-.26,2.24,2.24,0,0,1,1.29.28,1.1,1.1,0,0,1,.47.71,4.62,4.62,0,0,1,.09.94v8.7a5.4,5.4,0,0,1-.08.91,1.06,1.06,0,0,1-.48.69A2.62,2.62,0,0,1,242.73,35.65Z"/><path class="cls-3" d="M249,40.82a2.41,2.41,0,0,1-1.3-.26,1,1,0,0,1-.47-.67,4.21,4.21,0,0,1-.08-.89V25a5.17,5.17,0,0,1,.07-.91,1.1,1.1,0,0,1,.47-.69,2.31,2.31,0,0,1,1.29-.27,2.84,2.84,0,0,1,1.23.23,1.29,1.29,0,0,1,.66.7V39a3.36,3.36,0,0,1-.08.9,1.11,1.11,0,0,1-.49.68A2.3,2.3,0,0,1,249,40.82Zm4.8-5.39a4.64,4.64,0,0,1-2.15-.49,4.46,4.46,0,0,1-1.53-1.33,6,6,0,0,1-.93-1.93,8,8,0,0,1-.28-2.38,8.53,8.53,0,0,1,.32-2.34,6.53,6.53,0,0,1,.94-2,4.3,4.3,0,0,1,1.53-1.35,4.47,4.47,0,0,1,2.11-.49,4.88,4.88,0,0,1,2.15.5A6.54,6.54,0,0,1,257.8,25a6.44,6.44,0,0,1,1.27,2,6.14,6.14,0,0,1,.46,2.37,6.14,6.14,0,0,1-1.73,4.3A5.92,5.92,0,0,1,256,35,5.23,5.23,0,0,1,253.8,35.43Zm-.5-3.53a2.36,2.36,0,0,0,1.25-.33,2.53,2.53,0,0,0,.89-.92,2.39,2.39,0,0,0,.34-1.27,2.64,2.64,0,0,0-.32-1.28,2.4,2.4,0,0,0-.89-.9,2.49,2.49,0,0,0-1.24-.32,2.34,2.34,0,0,0-1.24.34,2.4,2.4,0,0,0-.87.89,2.57,2.57,0,0,0-.31,1.27,2.53,2.53,0,0,0,1.2,2.19A2.25,2.25,0,0,0,253.3,31.9Z"/><path class="cls-3" d="M266.38,35.66a14.2,14.2,0,0,1-1.83-.1,3.9,3.9,0,0,1-1.35-.4,2.58,2.58,0,0,1-.9-.84,4,4,0,0,1-.52-1.37,10.07,10.07,0,0,1-.18-2.07V19.33a4.4,4.4,0,0,1,.1-.92,1.18,1.18,0,0,1,.49-.7,2.38,2.38,0,0,1,1.31-.28,2.33,2.33,0,0,1,1.29.28,1.18,1.18,0,0,1,.49.7,4.4,4.4,0,0,1,.1.92V30.71a4,4,0,0,0,0,.66.8.8,0,0,0,.15.42.56.56,0,0,0,.31.2,2.4,2.4,0,0,0,.52.05,2.68,2.68,0,0,1,.62.07.9.9,0,0,1,.53.45,2.56,2.56,0,0,1,.23,1.25,2.76,2.76,0,0,1-.23,1.3.88.88,0,0,1-.54.48A2.65,2.65,0,0,1,266.38,35.66Z"/><path class="cls-3" d="M275.8,35.89a7.25,7.25,0,0,1-3-.57,5.86,5.86,0,0,1-2.06-1.52,6.16,6.16,0,0,1-1.2-2.09,6.83,6.83,0,0,1-.4-2.3,6.38,6.38,0,0,1,.85-3.32,6.14,6.14,0,0,1,2.37-2.29,7,7,0,0,1,3.46-.83,6.22,6.22,0,0,1,2.51.46,5.23,5.23,0,0,1,1.75,1.2,4.89,4.89,0,0,1,1,1.59,4.32,4.32,0,0,1,.34,1.62,2.85,2.85,0,0,1-.66,2.06,2.31,2.31,0,0,1-1.69.67h-5.95a1.76,1.76,0,0,0,.46,1.07,2.85,2.85,0,0,0,1,.7,3.44,3.44,0,0,0,1.32.25,8.1,8.1,0,0,0,1-.06,4.49,4.49,0,0,0,.79-.17l.59-.23.48-.19a2.63,2.63,0,0,1,.43-.1,1,1,0,0,1,.67.22,2,2,0,0,1,.58.71,2.37,2.37,0,0,1,.24.52,2.2,2.2,0,0,1,.06.5,1.35,1.35,0,0,1-.62,1.09,4.6,4.6,0,0,1-1.72.74A11.56,11.56,0,0,1,275.8,35.89Zm-2.67-7.4h3.95a1.06,1.06,0,0,0,.58-.13.65.65,0,0,0,.2-.54,1.26,1.26,0,0,0-.28-.78,1.8,1.8,0,0,0-.74-.54,2.94,2.94,0,0,0-1.08-.18,3,3,0,0,0-1.35.3,2.37,2.37,0,0,0-.94.79A1.89,1.89,0,0,0,273.13,28.49Z"/><path class="cls-2" d="M119.73,35.77a8.64,8.64,0,0,1-2.33-.34,9.39,9.39,0,0,1-2.41-1,8.82,8.82,0,0,1-2.13-1.79A7.87,7.87,0,0,1,111.35,30a8.93,8.93,0,0,1-.56-3.32,8.6,8.6,0,0,1,.56-3.24A8.06,8.06,0,0,1,112.86,21,9,9,0,0,1,115,19.28a9.69,9.69,0,0,1,2.41-1,8.89,8.89,0,0,1,2.39-.34,7.36,7.36,0,0,1,2.22.3,8.09,8.09,0,0,1,1.54.63l.76.43a6.82,6.82,0,0,1,.85.65,1.21,1.21,0,0,1,.43.9,1.81,1.81,0,0,1-.11.6,2.61,2.61,0,0,1-.34.6,3.33,3.33,0,0,1-.78.83,1.24,1.24,0,0,1-.72.27,1.35,1.35,0,0,1-.58-.15c-.18-.11-.4-.24-.65-.41s-.28-.18-.5-.31a3.85,3.85,0,0,0-.88-.34,5.82,5.82,0,0,0-3.16.15,5,5,0,0,0-1.63.93,4.45,4.45,0,0,0-1.2,1.58,5.45,5.45,0,0,0-.46,2.26,5.12,5.12,0,0,0,.47,2.26,4.62,4.62,0,0,0,1.21,1.57,5.29,5.29,0,0,0,3.37,1.25,4.73,4.73,0,0,0,1.28-.15,4.64,4.64,0,0,0,.92-.36c.27-.14.49-.27.68-.39l.56-.32a1.26,1.26,0,0,1,.59-.15,1.15,1.15,0,0,1,.71.28,3.21,3.21,0,0,1,.74.87,2.6,2.6,0,0,1,.33.64,1.7,1.7,0,0,1,.12.61,1,1,0,0,1-.42.86,7.5,7.5,0,0,1-.86.62l-.75.43a6.67,6.67,0,0,1-1.53.63A8,8,0,0,1,119.73,35.77Z"/><path class="cls-2" d="M129.6,35.58a2.5,2.5,0,0,1-1.31-.26,1.1,1.1,0,0,1-.47-.72,4.7,4.7,0,0,1-.09-.92V25a4.44,4.44,0,0,1,.08-.92,1.06,1.06,0,0,1,.49-.69,2.59,2.59,0,0,1,1.33-.26,2.5,2.5,0,0,1,1.26.24,1.06,1.06,0,0,1,.49.55,2,2,0,0,1,.1.53l-.3.16a2.39,2.39,0,0,1,.26-.37,3.58,3.58,0,0,1,.59-.55,3.53,3.53,0,0,1,2.15-.68l.61,0a3.89,3.89,0,0,1,.7.16,2.47,2.47,0,0,1,.66.3,1.66,1.66,0,0,1,.49.46,1.2,1.2,0,0,1,.19.67,3,3,0,0,1-.48,1.74,1.4,1.4,0,0,1-1.2.71,2.11,2.11,0,0,1-.6-.06,1,1,0,0,1-.29-.15.93.93,0,0,0-.26-.15,1.68,1.68,0,0,0-.55-.06,2.34,2.34,0,0,0-.71.1,1.85,1.85,0,0,0-.63.31,1.45,1.45,0,0,0-.61,1.23v5.48a4.47,4.47,0,0,1-.08.91,1,1,0,0,1-.49.69A2.6,2.6,0,0,1,129.6,35.58Z"/><path class="cls-2" d="M144.18,35.56a5.28,5.28,0,0,1-2.18-.45,5.43,5.43,0,0,1-1.75-1.26,6,6,0,0,1-1.16-1.93,7,7,0,0,1-.41-2.43V25a4.6,4.6,0,0,1,.08-.93,1.13,1.13,0,0,1,.49-.7,2.47,2.47,0,0,1,1.33-.27,2.29,2.29,0,0,1,1.31.28,1.1,1.1,0,0,1,.47.71,4.62,4.62,0,0,1,.09.94v4.5a2.78,2.78,0,0,0,.26,1.26,1.73,1.73,0,0,0,.77.81,2.78,2.78,0,0,0,2.45,0,2,2,0,0,0,.8-.81,2.48,2.48,0,0,0,.29-1.25V24.94a4.6,4.6,0,0,1,.08-.93,1,1,0,0,1,.49-.68,2.49,2.49,0,0,1,1.33-.26,2.39,2.39,0,0,1,1.31.27,1.13,1.13,0,0,1,.47.71,4.63,4.63,0,0,1,.09.92v8.8a4.12,4.12,0,0,1-.08.88,1,1,0,0,1-.49.67,2.63,2.63,0,0,1-1.3.25,2.89,2.89,0,0,1-1.05-.16,1.21,1.21,0,0,1-.55-.37.94.94,0,0,1-.21-.47,2.6,2.6,0,0,1,0-.46l.33-.27a3.06,3.06,0,0,1-.33.39,7.18,7.18,0,0,1-.66.57,4.28,4.28,0,0,1-1,.54A3.31,3.31,0,0,1,144.18,35.56Z"/><path class="cls-2" d="M159.48,35.7a6.47,6.47,0,0,1-2.24-.42,6.92,6.92,0,0,1-2.1-1.21,5.77,5.77,0,0,1-1.53-2,6.76,6.76,0,0,1,0-5.48,5.85,5.85,0,0,1,1.53-2,6.71,6.71,0,0,1,2.08-1.21,6.38,6.38,0,0,1,2.22-.41,6.08,6.08,0,0,1,1.66.21,5.41,5.41,0,0,1,1.25.51,3.87,3.87,0,0,1,.74.53,7,7,0,0,1,.74.65,1.05,1.05,0,0,1,.3.85,1.38,1.38,0,0,1-.17.56,4.48,4.48,0,0,1-.38.59c-.51.7-1,1-1.5,1a2.12,2.12,0,0,1-.68-.25l-.6-.35a6,6,0,0,0-.62-.32,1.9,1.9,0,0,0-.75-.13,2.59,2.59,0,0,0-1.3.33,2.7,2.7,0,0,0-.91.9,2.59,2.59,0,0,0-.34,1.32,2.5,2.5,0,0,0,.34,1.3,2.53,2.53,0,0,0,.9.91,2.42,2.42,0,0,0,1.26.34,2.74,2.74,0,0,0,.73-.1,2.83,2.83,0,0,0,.55-.24l.35-.21a6.54,6.54,0,0,1,.57-.36,1.1,1.1,0,0,1,.55-.17,1.23,1.23,0,0,1,.74.27,4.28,4.28,0,0,1,.81.83,2.1,2.1,0,0,1,.49,1,1.18,1.18,0,0,1-.22.86,2.46,2.46,0,0,1-.85.76,3.69,3.69,0,0,1-.71.45,6.49,6.49,0,0,1-1.25.5A5.64,5.64,0,0,1,159.48,35.7Z"/><path class="cls-2" d="M172.63,35.83a7.09,7.09,0,0,1-3-.58,5.88,5.88,0,0,1-2.07-1.51,6.4,6.4,0,0,1-1.19-2.09,6.88,6.88,0,0,1-.4-2.3,6.38,6.38,0,0,1,.85-3.32,6.11,6.11,0,0,1,2.36-2.29,7,7,0,0,1,3.47-.84,6.24,6.24,0,0,1,2.51.47,5.23,5.23,0,0,1,1.75,1.2,4.89,4.89,0,0,1,1,1.59,4.32,4.32,0,0,1,.34,1.62,2.78,2.78,0,0,1-.67,2,2.25,2.25,0,0,1-1.68.68H170a1.71,1.71,0,0,0,.46,1.08,2.81,2.81,0,0,0,1,.7,3.5,3.5,0,0,0,1.33.25,8.22,8.22,0,0,0,1-.06,3.7,3.7,0,0,0,.79-.18l.58-.22c.18-.08.34-.14.49-.19a2.41,2.41,0,0,1,.43-.1,1.08,1.08,0,0,1,.67.21,2.06,2.06,0,0,1,.58.72,1.93,1.93,0,0,1,.23.52,2.2,2.2,0,0,1,.06.5,1.34,1.34,0,0,1-.61,1.09,4.85,4.85,0,0,1-1.72.74A11.62,11.62,0,0,1,172.63,35.83ZM170,28.43h3.95a.92.92,0,0,0,.57-.14.59.59,0,0,0,.2-.53,1.23,1.23,0,0,0-.27-.78,1.8,1.8,0,0,0-.74-.54,3.2,3.2,0,0,0-2.44.11,2.36,2.36,0,0,0-.93.8A1.89,1.89,0,0,0,170,28.43Z"/><path class="cls-2" d="M188.7,35.61a2.4,2.4,0,0,1-1.3-.27,1.1,1.1,0,0,1-.47-.7,5.28,5.28,0,0,1-.08-.93V25a4.43,4.43,0,0,1,.09-.9,1,1,0,0,1,.49-.68,2.41,2.41,0,0,1,1.32-.27,2.05,2.05,0,0,1,1.35.37,1.45,1.45,0,0,1,.42,1.18l-.32.28a1.88,1.88,0,0,1,.3-.42,4.93,4.93,0,0,1,.65-.63,4.1,4.1,0,0,1,.94-.56,2.8,2.8,0,0,1,1.16-.24,4.35,4.35,0,0,1,1.49.24,3.82,3.82,0,0,1,1.2.7,4.32,4.32,0,0,1,.93,1.16,6.88,6.88,0,0,1,.86-1,4.48,4.48,0,0,1,1.17-.8,3.44,3.44,0,0,1,1.53-.32,4,4,0,0,1,2.48.74A4.46,4.46,0,0,1,204.46,26a9.33,9.33,0,0,1,.52,3.32v4.48a3.85,3.85,0,0,1-.1.91,1.13,1.13,0,0,1-.49.7,2.41,2.41,0,0,1-1.31.26,2.47,2.47,0,0,1-1.33-.27,1.09,1.09,0,0,1-.47-.72,5.31,5.31,0,0,1-.08-.91V29.25A3.81,3.81,0,0,0,201,28a1.77,1.77,0,0,0-.54-.83,1.36,1.36,0,0,0-.9-.28,1.68,1.68,0,0,0-1,.27,1.6,1.6,0,0,0-.6.8,3.7,3.7,0,0,0-.2,1.35v4.47a3.51,3.51,0,0,1-.12.94,1.21,1.21,0,0,1-.54.7,2.37,2.37,0,0,1-1.34.24,2.11,2.11,0,0,1-1.25-.29,1.12,1.12,0,0,1-.45-.72,5.34,5.34,0,0,1-.07-.89V29.24a4.55,4.55,0,0,0-.17-1.3,1.63,1.63,0,0,0-.53-.82,1.4,1.4,0,0,0-.92-.28,1.57,1.57,0,0,0-1,.33,1.92,1.92,0,0,0-.59.86,3.8,3.8,0,0,0-.18,1.21v4.5a5.25,5.25,0,0,1-.08.92,1.07,1.07,0,0,1-.49.69A2.49,2.49,0,0,1,188.7,35.61Z"/><path class="cls-2" d="M212.8,35.6a5.2,5.2,0,0,1-2.17-.45,5.33,5.33,0,0,1-1.75-1.26A5.59,5.59,0,0,1,207.72,32a6.81,6.81,0,0,1-.41-2.43V25a4.59,4.59,0,0,1,.09-.93,1.08,1.08,0,0,1,.49-.69,2.31,2.31,0,0,1,1.32-.28,2.27,2.27,0,0,1,1.31.28,1.12,1.12,0,0,1,.48.71,4.7,4.7,0,0,1,.08.94v4.5a2.92,2.92,0,0,0,.26,1.26,1.8,1.8,0,0,0,.78.81,2.43,2.43,0,0,0,1.21.28,2.53,2.53,0,0,0,1.24-.29,2,2,0,0,0,.8-.81,2.59,2.59,0,0,0,.29-1.25V25a4.42,4.42,0,0,1,.09-.92,1,1,0,0,1,.49-.69,2.42,2.42,0,0,1,1.32-.26,2.37,2.37,0,0,1,1.31.27,1.14,1.14,0,0,1,.48.72,4.47,4.47,0,0,1,.08.91v8.8a4.26,4.26,0,0,1-.09.89,1,1,0,0,1-.49.66,2.61,2.61,0,0,1-1.3.25,2.92,2.92,0,0,1-1.05-.15,1.31,1.31,0,0,1-.55-.38,1.16,1.16,0,0,1-.21-.47,4.09,4.09,0,0,1,0-.46l.33-.27a3.06,3.06,0,0,1-.33.39,4.52,4.52,0,0,1-.66.57,4.21,4.21,0,0,1-1,.54A3.37,3.37,0,0,1,212.8,35.6Zm-.39-13.37a.86.86,0,0,1-.74-.25,2.63,2.63,0,0,1-.51-1,2.11,2.11,0,0,1-.1-1.3A1.44,1.44,0,0,1,212,19l4.4-1.34a.89.89,0,0,1,.72.28,2.4,2.4,0,0,1,.5,1,1.83,1.83,0,0,1,.09,1.28,1.34,1.34,0,0,1-.91.67Z"/><path class="cls-2" d="M226.73,35.64a16.4,16.4,0,0,1-1.83-.1,4.13,4.13,0,0,1-1.35-.4,2.67,2.67,0,0,1-.9-.84,4.19,4.19,0,0,1-.52-1.38,9.39,9.39,0,0,1-.17-2.06V19.31a4.57,4.57,0,0,1,.1-.93,1.21,1.21,0,0,1,.49-.7,2.39,2.39,0,0,1,1.31-.27,2.24,2.24,0,0,1,1.29.28,1.15,1.15,0,0,1,.49.7,4.4,4.4,0,0,1,.1.92V30.69a4.16,4.16,0,0,0,0,.66.8.8,0,0,0,.15.41.51.51,0,0,0,.31.2,2.4,2.4,0,0,0,.52,0,2.7,2.7,0,0,1,.62.08.91.91,0,0,1,.54.45,2.68,2.68,0,0,1,.22,1.25,2.79,2.79,0,0,1-.23,1.3.91.91,0,0,1-.53.47A2.8,2.8,0,0,1,226.73,35.64Z"/><path class="cls-2" d="M230.74,23.34h2.75l3.45-.1a4.26,4.26,0,0,1,.89.09,1.12,1.12,0,0,1,.71.49,2.47,2.47,0,0,1,.27,1.33,2.34,2.34,0,0,1-.26,1.24,1.21,1.21,0,0,1-.69.52,3.89,3.89,0,0,1-.93.11l-3.27-.08-3,0a1.23,1.23,0,0,1-1-.46,2.52,2.52,0,0,1-.29-1.39,2.11,2.11,0,0,1,.35-1.33A1.3,1.3,0,0,1,230.74,23.34Zm5.64,12.3a7.87,7.87,0,0,1-2.2-.27,3.64,3.64,0,0,1-1.51-.85,3.45,3.45,0,0,1-.88-1.47,6.91,6.91,0,0,1-.28-2.11V20.82a4.31,4.31,0,0,1,.09-.93,1,1,0,0,1,.49-.66,3.32,3.32,0,0,1,2.6,0,1.11,1.11,0,0,1,.48.71,4.63,4.63,0,0,1,.09.92v9.92a3,3,0,0,0,.06.66.79.79,0,0,0,.18.39.65.65,0,0,0,.35.18,2.9,2.9,0,0,0,.56,0,4.07,4.07,0,0,1,1,.1,1.1,1.1,0,0,1,.66.45,2.13,2.13,0,0,1,.24,1.17,2.28,2.28,0,0,1-.28,1.3,1,1,0,0,1-.71.48A5.41,5.41,0,0,1,236.38,35.64Z"/><path class="cls-2" d="M242.74,21.35a2.47,2.47,0,0,1-1.35-.28,1.09,1.09,0,0,1-.49-.72,4.86,4.86,0,0,1-.09-1,4.92,4.92,0,0,1,.09-1,1.09,1.09,0,0,1,.5-.7,2.71,2.71,0,0,1,1.36-.26,2.37,2.37,0,0,1,1.33.28,1.09,1.09,0,0,1,.49.72,6,6,0,0,1,.08,1,4.7,4.7,0,0,1-.09.92,1,1,0,0,1-.48.71A2.53,2.53,0,0,1,242.74,21.35Zm0,14.3a2.47,2.47,0,0,1-1.33-.27,1,1,0,0,1-.47-.7,5.31,5.31,0,0,1-.08-.91V25.05a4.56,4.56,0,0,1,.09-.92,1.08,1.08,0,0,1,.49-.7,2.52,2.52,0,0,1,1.32-.26,2.24,2.24,0,0,1,1.29.28,1.1,1.1,0,0,1,.47.71,4.62,4.62,0,0,1,.09.94v8.7a5.4,5.4,0,0,1-.08.91,1.06,1.06,0,0,1-.48.69A2.62,2.62,0,0,1,242.73,35.65Z"/><path class="cls-2" d="M249,40.82a2.41,2.41,0,0,1-1.3-.26,1,1,0,0,1-.47-.67,4.21,4.21,0,0,1-.08-.89V25a5.17,5.17,0,0,1,.07-.91,1.1,1.1,0,0,1,.47-.69,2.31,2.31,0,0,1,1.29-.27,2.84,2.84,0,0,1,1.23.23,1.29,1.29,0,0,1,.66.7V39a3.36,3.36,0,0,1-.08.9,1.11,1.11,0,0,1-.49.68A2.3,2.3,0,0,1,249,40.82Zm4.8-5.39a4.64,4.64,0,0,1-2.15-.49,4.46,4.46,0,0,1-1.53-1.33,6,6,0,0,1-.93-1.93,8,8,0,0,1-.28-2.38,8.53,8.53,0,0,1,.32-2.34,6.53,6.53,0,0,1,.94-2,4.3,4.3,0,0,1,1.53-1.35,4.47,4.47,0,0,1,2.11-.49,4.88,4.88,0,0,1,2.15.5A6.54,6.54,0,0,1,257.8,25a6.44,6.44,0,0,1,1.27,2,6.14,6.14,0,0,1,.46,2.37,6.14,6.14,0,0,1-1.73,4.3A5.92,5.92,0,0,1,256,35,5.23,5.23,0,0,1,253.8,35.43Zm-.5-3.53a2.36,2.36,0,0,0,1.25-.33,2.53,2.53,0,0,0,.89-.92,2.39,2.39,0,0,0,.34-1.27,2.64,2.64,0,0,0-.32-1.28,2.4,2.4,0,0,0-.89-.9,2.49,2.49,0,0,0-1.24-.32,2.34,2.34,0,0,0-1.24.34,2.4,2.4,0,0,0-.87.89,2.57,2.57,0,0,0-.31,1.27,2.53,2.53,0,0,0,1.2,2.19A2.25,2.25,0,0,0,253.3,31.9Z"/><path class="cls-2" d="M266.38,35.66a14.2,14.2,0,0,1-1.83-.1,3.9,3.9,0,0,1-1.35-.4,2.58,2.58,0,0,1-.9-.84,4,4,0,0,1-.52-1.37,10.07,10.07,0,0,1-.18-2.07V19.33a4.4,4.4,0,0,1,.1-.92,1.18,1.18,0,0,1,.49-.7,2.38,2.38,0,0,1,1.31-.28,2.33,2.33,0,0,1,1.29.28,1.18,1.18,0,0,1,.49.7,4.4,4.4,0,0,1,.1.92V30.71a4,4,0,0,0,0,.66.8.8,0,0,0,.15.42.56.56,0,0,0,.31.2,2.4,2.4,0,0,0,.52.05,2.68,2.68,0,0,1,.62.07.9.9,0,0,1,.53.45,2.56,2.56,0,0,1,.23,1.25,2.76,2.76,0,0,1-.23,1.3.88.88,0,0,1-.54.48A2.65,2.65,0,0,1,266.38,35.66Z"/><path class="cls-2" d="M275.8,35.89a7.25,7.25,0,0,1-3-.57,5.86,5.86,0,0,1-2.06-1.52,6.16,6.16,0,0,1-1.2-2.09,6.83,6.83,0,0,1-.4-2.3,6.38,6.38,0,0,1,.85-3.32,6.14,6.14,0,0,1,2.37-2.29,7,7,0,0,1,3.46-.83,6.22,6.22,0,0,1,2.51.46,5.23,5.23,0,0,1,1.75,1.2,4.89,4.89,0,0,1,1,1.59,4.32,4.32,0,0,1,.34,1.62,2.85,2.85,0,0,1-.66,2.06,2.31,2.31,0,0,1-1.69.67h-5.95a1.76,1.76,0,0,0,.46,1.07,2.85,2.85,0,0,0,1,.7,3.44,3.44,0,0,0,1.32.25,8.1,8.1,0,0,0,1-.06,4.49,4.49,0,0,0,.79-.17l.59-.23.48-.19a2.63,2.63,0,0,1,.43-.1,1,1,0,0,1,.67.22,2,2,0,0,1,.58.71,2.37,2.37,0,0,1,.24.52,2.2,2.2,0,0,1,.06.5,1.35,1.35,0,0,1-.62,1.09,4.6,4.6,0,0,1-1.72.74A11.56,11.56,0,0,1,275.8,35.89Zm-2.67-7.4h3.95a1.06,1.06,0,0,0,.58-.13.65.65,0,0,0,.2-.54,1.26,1.26,0,0,0-.28-.78,1.8,1.8,0,0,0-.74-.54,2.94,2.94,0,0,0-1.08-.18,3,3,0,0,0-1.35.3,2.37,2.37,0,0,0-.94.79A1.89,1.89,0,0,0,273.13,28.49Z"/><path class="cls-4" d="M55.46,36.28c0,2.27-.4,3.89-1.18,4.85a4.36,4.36,0,0,1-3.59,1.45,5.73,5.73,0,0,1-2.57-.5,3.25,3.25,0,0,1-1.48-1.85,11.09,11.09,0,0,1-.55-3.61L46,21a6.3,6.3,0,0,1-3.21-.73,2.61,2.61,0,0,1-1.27-2.46,2.81,2.81,0,0,1,1.17-2.29,5.16,5.16,0,0,1,3.24-.9l2.3,0,2.1,0c2,0,3.36.34,4,1a5,5,0,0,1,1,3.59Z"/><path class="cls-4" d="M59.21,39.73a2.77,2.77,0,0,1,1.16-2.31,5.31,5.31,0,0,1,3.28-.89q4.44,0,4.44,3.2a3.1,3.1,0,0,1-.57,2,2.8,2.8,0,0,1-1.51,1,9.68,9.68,0,0,1-2.36.25,6,6,0,0,1-3.18-.76A2.61,2.61,0,0,1,59.21,39.73Z"/><path class="cls-4" d="M83.82,34.81h4.52q3.42,0,3.42,3.95a4,4,0,0,1-1.08,3.17,6,6,0,0,1-3.85,1h-11a6.85,6.85,0,0,1-3.89-.78c-.7-.52-1-1.63-1-3.34A5.2,5.2,0,0,1,71,37.31a3.41,3.41,0,0,1,.61-1.2A5.62,5.62,0,0,1,72.86,35c1.47-1,2.62-1.82,3.46-2.44s1.67-1.26,2.47-1.95a12.68,12.68,0,0,0,1.77-1.76,10.45,10.45,0,0,0,1-1.66,6.38,6.38,0,0,0,.61-1.85,15.24,15.24,0,0,0,.14-2.18c0-1.57-.47-2.36-1.42-2.36s-1.55.93-1.55,2.78a2,2,0,0,1-1,2,7,7,0,0,1-2.89.46c-1.74,0-2.92-.39-3.53-1.17A6.48,6.48,0,0,1,71.08,21a5.45,5.45,0,0,1,2.51-4.55,11.66,11.66,0,0,1,7-1.83q11.07,0,11.07,8.69a14.05,14.05,0,0,1-.45,3.68,11.66,11.66,0,0,1-1.1,2.77,9.08,9.08,0,0,1-1.78,2.12,16.67,16.67,0,0,1-2.1,1.64A24.42,24.42,0,0,1,83.82,34.81Z"/><path class="cls-5" d="M55.46,36.28c0,2.27-.4,3.89-1.18,4.85a4.36,4.36,0,0,1-3.59,1.45,5.73,5.73,0,0,1-2.57-.5,3.25,3.25,0,0,1-1.48-1.85,11.09,11.09,0,0,1-.55-3.61L46,21a6.3,6.3,0,0,1-3.21-.73,2.61,2.61,0,0,1-1.27-2.46,2.81,2.81,0,0,1,1.17-2.29,5.16,5.16,0,0,1,3.24-.9l2.3,0,2.1,0c2,0,3.36.34,4,1a5,5,0,0,1,1,3.59Z"/><path class="cls-5" d="M59.21,39.73a2.77,2.77,0,0,1,1.16-2.31,5.31,5.31,0,0,1,3.28-.89q4.44,0,4.44,3.2a3.1,3.1,0,0,1-.57,2,2.8,2.8,0,0,1-1.51,1,9.68,9.68,0,0,1-2.36.25,6,6,0,0,1-3.18-.76A2.61,2.61,0,0,1,59.21,39.73Z"/><path class="cls-5" d="M83.82,34.81h4.52q3.42,0,3.42,3.95a4,4,0,0,1-1.08,3.17,6,6,0,0,1-3.85,1h-11a6.85,6.85,0,0,1-3.89-.78c-.7-.52-1-1.63-1-3.34A5.2,5.2,0,0,1,71,37.31a3.41,3.41,0,0,1,.61-1.2A5.62,5.62,0,0,1,72.86,35c1.47-1,2.62-1.82,3.46-2.44s1.67-1.26,2.47-1.95a12.68,12.68,0,0,0,1.77-1.76,10.45,10.45,0,0,0,1-1.66,6.38,6.38,0,0,0,.61-1.85,15.24,15.24,0,0,0,.14-2.18c0-1.57-.47-2.36-1.42-2.36s-1.55.93-1.55,2.78a2,2,0,0,1-1,2,7,7,0,0,1-2.89.46c-1.74,0-2.92-.39-3.53-1.17A6.48,6.48,0,0,1,71.08,21a5.45,5.45,0,0,1,2.51-4.55,11.66,11.66,0,0,1,7-1.83q11.07,0,11.07,8.69a14.05,14.05,0,0,1-.45,3.68,11.66,11.66,0,0,1-1.1,2.77,9.08,9.08,0,0,1-1.78,2.12,16.67,16.67,0,0,1-2.1,1.64A24.42,24.42,0,0,1,83.82,34.81Z"/></g></g></svg>