<svg xmlns="http://www.w3.org/2000/svg" viewBox="0 0 399.98 100.52"><defs><style>.cls-1{fill:#03826e;}.cls-2{fill:#fff;}.cls-3,.cls-4{fill:none;stroke-width:5px;}.cls-3{stroke:#b6ba01;stroke-linejoin:round;}.cls-4{stroke:#fff;}.cls-5{fill:#b6ba01;}</style></defs><title>12t</title><g id="Layer_2" data-name="Layer 2"><g id="pestaña_identificativa" data-name="pestaña identificativa"><rect class="cls-1" width="399.98" height="100.52" rx="32.4"/><path class="cls-2" d="M119.73,35a8.64,8.64,0,0,1-2.33-.34A9.39,9.39,0,0,1,115,33.65a9.05,9.05,0,0,1-2.13-1.79,8.3,8.3,0,0,1-1.52-2.55,9.38,9.38,0,0,1-.56-3.33,8.78,8.78,0,0,1,.57-3.23,8.06,8.06,0,0,1,1.51-2.46A9.24,9.24,0,0,1,115,18.55a9.69,9.69,0,0,1,2.41-1,8.89,8.89,0,0,1,2.39-.34,7.36,7.36,0,0,1,2.22.3,8.09,8.09,0,0,1,1.54.63l.76.42a7.94,7.94,0,0,1,.85.65,1.25,1.25,0,0,1,.43.9,1.81,1.81,0,0,1-.11.6,2.61,2.61,0,0,1-.34.6,3.23,3.23,0,0,1-.78.84,1.16,1.16,0,0,1-1.3.11c-.18-.1-.4-.23-.65-.4a4.72,4.72,0,0,0-.5-.31,3.44,3.44,0,0,0-.88-.34,5.82,5.82,0,0,0-3.16.15,5.18,5.18,0,0,0-1.63.92,4.58,4.58,0,0,0-1.2,1.59,5.3,5.3,0,0,0-.45,2.26,4.92,4.92,0,0,0,.46,2.25,4.57,4.57,0,0,0,1.21,1.58,5.29,5.29,0,0,0,3.37,1.25,4.73,4.73,0,0,0,1.28-.15,4.64,4.64,0,0,0,.92-.36c.27-.14.49-.27.68-.39l.56-.32a1.26,1.26,0,0,1,.59-.15,1.19,1.19,0,0,1,.71.27,3.44,3.44,0,0,1,.74.88,2.6,2.6,0,0,1,.33.64,1.66,1.66,0,0,1,.12.61,1,1,0,0,1-.42.86,6.38,6.38,0,0,1-.86.61l-.75.44a7.19,7.19,0,0,1-1.53.62A7.59,7.59,0,0,1,119.73,35Z"/><path class="cls-2" d="M129.6,34.85a2.39,2.39,0,0,1-1.31-.27,1.06,1.06,0,0,1-.47-.71,4.7,4.7,0,0,1-.09-.92V24.22a4.44,4.44,0,0,1,.08-.92,1,1,0,0,1,.49-.69,2.49,2.49,0,0,1,1.33-.26,2.63,2.63,0,0,1,1.26.23,1.07,1.07,0,0,1,.49.56,2,2,0,0,1,.1.53l-.3.15a3.22,3.22,0,0,1,.26-.36,3.58,3.58,0,0,1,.59-.55,3.71,3.71,0,0,1,.91-.49,3.62,3.62,0,0,1,1.24-.2c.18,0,.38,0,.61,0a4.89,4.89,0,0,1,.7.15,3.32,3.32,0,0,1,.66.3,1.69,1.69,0,0,1,.49.47,1.18,1.18,0,0,1,.19.67,3.06,3.06,0,0,1-.48,1.74,1.42,1.42,0,0,1-1.2.71,2.06,2.06,0,0,1-.6-.06,1.3,1.3,0,0,1-.29-.15.93.93,0,0,0-.26-.15,1.39,1.39,0,0,0-.55-.07,2.71,2.71,0,0,0-.71.1,1.88,1.88,0,0,0-.63.32,1.45,1.45,0,0,0-.61,1.23V33a4.53,4.53,0,0,1-.08.91,1,1,0,0,1-.49.69A2.71,2.71,0,0,1,129.6,34.85Z"/><path class="cls-2" d="M144.18,34.83a5.28,5.28,0,0,1-2.18-.45,5.43,5.43,0,0,1-1.75-1.26,6,6,0,0,1-1.16-1.93,7.06,7.06,0,0,1-.41-2.44V24.23a4.52,4.52,0,0,1,.09-.93,1.13,1.13,0,0,1,.49-.7,2.47,2.47,0,0,1,1.33-.27,2.39,2.39,0,0,1,1.31.27,1.13,1.13,0,0,1,.47.72,4.59,4.59,0,0,1,.09.93v4.5a2.8,2.8,0,0,0,.26,1.27,1.73,1.73,0,0,0,.77.81,2.74,2.74,0,0,0,1.22.28,2.49,2.49,0,0,0,1.23-.29,2,2,0,0,0,.8-.81,2.48,2.48,0,0,0,.29-1.25V24.21a4.48,4.48,0,0,1,.08-.93,1.08,1.08,0,0,1,.49-.69,2.59,2.59,0,0,1,1.33-.26,2.38,2.38,0,0,1,1.31.28,1.07,1.07,0,0,1,.47.71,4.53,4.53,0,0,1,.09.91V33a4.91,4.91,0,0,1-.08.89,1,1,0,0,1-.49.66,2.52,2.52,0,0,1-1.3.25,2.92,2.92,0,0,1-1.05-.15,1.3,1.3,0,0,1-.55-.37.94.94,0,0,1-.21-.48,2.42,2.42,0,0,1,0-.45l.33-.27a3.36,3.36,0,0,1-.33.38,5.89,5.89,0,0,1-.66.58,4.28,4.28,0,0,1-1,.54A3.31,3.31,0,0,1,144.18,34.83Z"/><path class="cls-2" d="M159.48,35a6.45,6.45,0,0,1-2.24-.41,7.13,7.13,0,0,1-2.1-1.21,5.87,5.87,0,0,1-1.53-2,6.76,6.76,0,0,1,0-5.48,5.85,5.85,0,0,1,1.53-2,6.52,6.52,0,0,1,2.08-1.21,6.4,6.4,0,0,1,2.22-.42,6.06,6.06,0,0,1,1.66.22,5.41,5.41,0,0,1,1.25.51,3.87,3.87,0,0,1,.74.53,7,7,0,0,1,.75.65,1.07,1.07,0,0,1,.29.85,1.38,1.38,0,0,1-.17.56,4.48,4.48,0,0,1-.38.59c-.51.7-1,1-1.5.95a2.74,2.74,0,0,1-.68-.25l-.6-.35a4.54,4.54,0,0,0-.62-.32,1.89,1.89,0,0,0-.75-.14,2.6,2.6,0,0,0-1.3.34,2.7,2.7,0,0,0-.91.9,2.55,2.55,0,0,0-.34,1.31,2.45,2.45,0,0,0,.34,1.3,2.48,2.48,0,0,0,.9.92,2.42,2.42,0,0,0,1.26.33,2.39,2.39,0,0,0,.73-.1,2.33,2.33,0,0,0,.55-.23c.15-.09.26-.17.35-.21s.39-.26.57-.37a1.05,1.05,0,0,1,.55-.16,1.28,1.28,0,0,1,.74.26,4.7,4.7,0,0,1,.81.84,2.1,2.1,0,0,1,.49,1A1.19,1.19,0,0,1,164,33a2.57,2.57,0,0,1-.85.76,3.69,3.69,0,0,1-.71.45,7.21,7.21,0,0,1-1.25.5A5.38,5.38,0,0,1,159.48,35Z"/><path class="cls-2" d="M172.63,35.1a7.25,7.25,0,0,1-3-.58A5.88,5.88,0,0,1,167.55,33a6.4,6.4,0,0,1-1.19-2.09,6.88,6.88,0,0,1-.4-2.3,6.45,6.45,0,0,1,.85-3.33A6.09,6.09,0,0,1,169.17,23a7,7,0,0,1,3.47-.84,6.24,6.24,0,0,1,2.51.47,5.08,5.08,0,0,1,1.75,1.2,4.89,4.89,0,0,1,1,1.59,4.25,4.25,0,0,1,.34,1.62,2.78,2.78,0,0,1-.67,2.05,2.25,2.25,0,0,1-1.68.67H170a1.71,1.71,0,0,0,.46,1.08,2.77,2.77,0,0,0,1,.7,3.6,3.6,0,0,0,1.32.25,6.63,6.63,0,0,0,1-.07,3.74,3.74,0,0,0,.79-.17l.58-.22c.18-.08.34-.14.49-.19a2.41,2.41,0,0,1,.43-.1,1,1,0,0,1,.67.21,1.94,1.94,0,0,1,.57.72,1.61,1.61,0,0,1,.24.52,2.14,2.14,0,0,1,.06.5,1.34,1.34,0,0,1-.61,1.09,4.86,4.86,0,0,1-1.72.73A11.06,11.06,0,0,1,172.63,35.1ZM170,27.7h3.95a1,1,0,0,0,.57-.14c.14-.09.2-.27.2-.54a1.23,1.23,0,0,0-.27-.77,1.72,1.72,0,0,0-.74-.54,2.8,2.8,0,0,0-1.09-.19,3,3,0,0,0-1.35.3,2.36,2.36,0,0,0-.93.8A1.84,1.84,0,0,0,170,27.7Z"/><path class="cls-2" d="M188.7,34.88a2.4,2.4,0,0,1-1.3-.27,1.1,1.1,0,0,1-.47-.7,5.46,5.46,0,0,1-.08-.93V24.23a4.29,4.29,0,0,1,.09-.9,1,1,0,0,1,.49-.69,2.52,2.52,0,0,1,1.32-.26,2.06,2.06,0,0,1,1.35.36,1.51,1.51,0,0,1,.42,1.19l-.32.28a1.67,1.67,0,0,1,.3-.43,4.92,4.92,0,0,1,.65-.62,3.77,3.77,0,0,1,.94-.56,2.8,2.8,0,0,1,1.16-.24,4.35,4.35,0,0,1,1.49.24,3.82,3.82,0,0,1,1.2.7,4.17,4.17,0,0,1,.93,1.16,6.37,6.37,0,0,1,.86-1,4.25,4.25,0,0,1,1.17-.8,3.44,3.44,0,0,1,1.53-.33,4.1,4.1,0,0,1,2.48.74,4.49,4.49,0,0,1,1.54,2.12,9.29,9.29,0,0,1,.52,3.32V33a4.53,4.53,0,0,1-.1.91,1.15,1.15,0,0,1-.49.7,2.5,2.5,0,0,1-1.31.26,2.37,2.37,0,0,1-1.33-.28,1.07,1.07,0,0,1-.47-.71,5.31,5.31,0,0,1-.08-.91V28.51a3.71,3.71,0,0,0-.19-1.28,1.72,1.72,0,0,0-.54-.83,1.37,1.37,0,0,0-.9-.29,1.68,1.68,0,0,0-1,.28,1.6,1.6,0,0,0-.6.8,3.7,3.7,0,0,0-.2,1.35V33a3.51,3.51,0,0,1-.12.94,1.21,1.21,0,0,1-.54.7,2.56,2.56,0,0,1-1.34.24,2.11,2.11,0,0,1-1.25-.29,1.14,1.14,0,0,1-.45-.73A5.18,5.18,0,0,1,194,33V28.51a4.55,4.55,0,0,0-.17-1.3,1.59,1.59,0,0,0-.53-.82,1.4,1.4,0,0,0-.92-.28,1.62,1.62,0,0,0-1,.32,2,2,0,0,0-.59.87,3.76,3.76,0,0,0-.18,1.21V33a5.25,5.25,0,0,1-.08.92,1.07,1.07,0,0,1-.49.69A2.49,2.49,0,0,1,188.7,34.88Z"/><path class="cls-2" d="M212.8,34.87a5.2,5.2,0,0,1-2.17-.45,5.33,5.33,0,0,1-1.75-1.26,5.78,5.78,0,0,1-1.16-1.93,6.83,6.83,0,0,1-.41-2.44V24.27a4.52,4.52,0,0,1,.09-.93,1.13,1.13,0,0,1,.49-.7,2.41,2.41,0,0,1,1.32-.27,2.37,2.37,0,0,1,1.31.27,1.17,1.17,0,0,1,.48.72,4.64,4.64,0,0,1,.08.94v4.5a2.92,2.92,0,0,0,.26,1.26,1.8,1.8,0,0,0,.78.81,2.43,2.43,0,0,0,1.21.28,2.53,2.53,0,0,0,1.24-.29,2,2,0,0,0,.8-.81,2.59,2.59,0,0,0,.29-1.25V24.25a4.52,4.52,0,0,1,.09-.93,1,1,0,0,1,.49-.68,2.41,2.41,0,0,1,1.32-.27,2.36,2.36,0,0,1,1.31.28,1.12,1.12,0,0,1,.48.71,4.57,4.57,0,0,1,.08.92v8.79a4.13,4.13,0,0,1-.09.89,1,1,0,0,1-.49.67,2.62,2.62,0,0,1-1.3.24,2.92,2.92,0,0,1-1.05-.15,1.3,1.3,0,0,1-.55-.37,1.14,1.14,0,0,1-.21-.48,3.75,3.75,0,0,1,0-.45l.33-.27a3.06,3.06,0,0,1-.33.39,5.22,5.22,0,0,1-.66.57,4.21,4.21,0,0,1-1,.54A3.37,3.37,0,0,1,212.8,34.87Zm-.39-13.37a.85.85,0,0,1-.74-.25,2.71,2.71,0,0,1-.51-1,2.11,2.11,0,0,1-.1-1.3,1.41,1.41,0,0,1,.93-.68l4.4-1.35a.9.9,0,0,1,.72.29,2.4,2.4,0,0,1,.5,1,1.81,1.81,0,0,1,.09,1.27,1.35,1.35,0,0,1-.91.68Z"/><path class="cls-2" d="M226.73,34.9a14.3,14.3,0,0,1-1.83-.1,3.7,3.7,0,0,1-1.35-.4,2.58,2.58,0,0,1-.9-.84,4,4,0,0,1-.52-1.37,10.11,10.11,0,0,1-.17-2.06V18.58a4.49,4.49,0,0,1,.1-.93,1.21,1.21,0,0,1,.49-.7,2.39,2.39,0,0,1,1.31-.27,2.34,2.34,0,0,1,1.29.27,1.21,1.21,0,0,1,.49.7,4.57,4.57,0,0,1,.1.93V30a4.22,4.22,0,0,0,0,.67.8.8,0,0,0,.15.41.51.51,0,0,0,.31.2,2.4,2.4,0,0,0,.52.05,3.37,3.37,0,0,1,.62.07.94.94,0,0,1,.54.46,2.68,2.68,0,0,1,.22,1.25,2.74,2.74,0,0,1-.23,1.29.89.89,0,0,1-.53.48A2.79,2.79,0,0,1,226.73,34.9Z"/><path class="cls-2" d="M230.74,22.61h2.75l3.44-.1a4.46,4.46,0,0,1,.91.09,1.08,1.08,0,0,1,.69.49,2.33,2.33,0,0,1,.28,1.32,2.38,2.38,0,0,1-.26,1.25,1.15,1.15,0,0,1-.69.51,3.43,3.43,0,0,1-.93.12l-3.27-.08-3,0a1.26,1.26,0,0,1-1-.46,2.55,2.55,0,0,1-.29-1.39,2.17,2.17,0,0,1,.35-1.34A1.29,1.29,0,0,1,230.74,22.61Zm5.64,12.3a7.5,7.5,0,0,1-2.2-.28,3.37,3.37,0,0,1-2.39-2.31,6.66,6.66,0,0,1-.28-2.11V20.08a4.15,4.15,0,0,1,.09-.92,1.07,1.07,0,0,1,.49-.67,2.48,2.48,0,0,1,1.3-.26,2.39,2.39,0,0,1,1.3.28,1.08,1.08,0,0,1,.48.71,4.56,4.56,0,0,1,.09.92v9.92a2.47,2.47,0,0,0,.06.66.79.79,0,0,0,.18.39.83.83,0,0,0,.35.18,4,4,0,0,0,.56.05,4.07,4.07,0,0,1,1,.1,1,1,0,0,1,.66.45,2.13,2.13,0,0,1,.24,1.17,2.28,2.28,0,0,1-.28,1.3,1,1,0,0,1-.71.48A5.41,5.41,0,0,1,236.38,34.91Z"/><path class="cls-2" d="M242.74,20.61a2.48,2.48,0,0,1-1.35-.27,1.14,1.14,0,0,1-.49-.73,5.11,5.11,0,0,1,0-1.91,1.09,1.09,0,0,1,.5-.7,2.71,2.71,0,0,1,1.36-.26,2.37,2.37,0,0,1,1.33.28,1.13,1.13,0,0,1,.49.72,6,6,0,0,1,.08,1,4.7,4.7,0,0,1-.09.92,1.07,1.07,0,0,1-.48.71A2.54,2.54,0,0,1,242.74,20.61Zm0,14.3a2.49,2.49,0,0,1-1.33-.26,1,1,0,0,1-.47-.7,5.4,5.4,0,0,1-.08-.91V24.31a4.53,4.53,0,0,1,.09-.91,1.06,1.06,0,0,1,.48-.7,2.59,2.59,0,0,1,1.33-.26,2.24,2.24,0,0,1,1.29.28,1.1,1.1,0,0,1,.47.71,4.62,4.62,0,0,1,.09.94v8.69a5.43,5.43,0,0,1-.08.92,1,1,0,0,1-.48.68A2.52,2.52,0,0,1,242.73,34.91Z"/><path class="cls-2" d="M249,40.09a2.51,2.51,0,0,1-1.3-.26,1,1,0,0,1-.47-.68,4.12,4.12,0,0,1-.08-.88v-14a5.1,5.1,0,0,1,.07-.91,1.08,1.08,0,0,1,.47-.69,2.31,2.31,0,0,1,1.29-.27,2.85,2.85,0,0,1,1.23.22,1.33,1.33,0,0,1,.66.7v14.9a3.28,3.28,0,0,1-.08.9,1.11,1.11,0,0,1-.49.69A2.38,2.38,0,0,1,249,40.09Zm4.8-5.39a4.64,4.64,0,0,1-2.15-.49,4.46,4.46,0,0,1-1.53-1.33,6,6,0,0,1-.93-1.94,7.87,7.87,0,0,1-.28-2.37,8.53,8.53,0,0,1,.32-2.34,6.53,6.53,0,0,1,.94-2,4.3,4.3,0,0,1,1.53-1.35,4.35,4.35,0,0,1,2.11-.49,4.88,4.88,0,0,1,2.15.5,6.54,6.54,0,0,1,1.84,1.37,6.4,6.4,0,0,1,1.27,2,6.19,6.19,0,0,1,.46,2.38A6.14,6.14,0,0,1,257.8,33,5.73,5.73,0,0,1,256,34.23,5.24,5.24,0,0,1,253.8,34.7Zm-.5-3.53a2.28,2.28,0,0,0,1.25-.34,2.55,2.55,0,0,0,1.23-2.18,2.64,2.64,0,0,0-.32-1.28,2.48,2.48,0,0,0-.89-.9,2.53,2.53,0,0,0-1.24-.33,2.43,2.43,0,0,0-1.24.34,2.5,2.5,0,0,0-.87.9,2.56,2.56,0,0,0-.31,1.26,2.52,2.52,0,0,0,1.19,2.19A2.23,2.23,0,0,0,253.3,31.17Z"/><path class="cls-2" d="M266.38,34.93a16.4,16.4,0,0,1-1.83-.1,3.9,3.9,0,0,1-1.35-.4,2.58,2.58,0,0,1-.9-.84,4,4,0,0,1-.52-1.38,10,10,0,0,1-.18-2.06V18.6a4.4,4.4,0,0,1,.1-.92,1.15,1.15,0,0,1,.49-.7,2.29,2.29,0,0,1,1.31-.28,2.24,2.24,0,0,1,1.29.28,1.15,1.15,0,0,1,.49.7,4.4,4.4,0,0,1,.1.92V30a4.08,4.08,0,0,0,0,.66.8.8,0,0,0,.15.41.51.51,0,0,0,.31.2,1.9,1.9,0,0,0,.52.05,2.7,2.7,0,0,1,.62.08.9.9,0,0,1,.53.45,2.56,2.56,0,0,1,.23,1.25,2.79,2.79,0,0,1-.23,1.3.86.86,0,0,1-.54.47A2.65,2.65,0,0,1,266.38,34.93Z"/><path class="cls-2" d="M275.8,35.16a7.09,7.09,0,0,1-3-.58,5.84,5.84,0,0,1-2.06-1.51,6.25,6.25,0,0,1-1.2-2.09,6.88,6.88,0,0,1-.4-2.3,6.48,6.48,0,0,1,.85-3.32,6.14,6.14,0,0,1,2.37-2.29,7,7,0,0,1,3.46-.84,6.21,6.21,0,0,1,2.51.47,5.23,5.23,0,0,1,1.75,1.2,4.89,4.89,0,0,1,1,1.59,4.28,4.28,0,0,1,.34,1.62,2.82,2.82,0,0,1-.66,2.05,2.28,2.28,0,0,1-1.69.68h-5.95a1.77,1.77,0,0,0,.46,1.08,2.85,2.85,0,0,0,1,.7,3.44,3.44,0,0,0,1.32.25,8.1,8.1,0,0,0,1-.06,3.7,3.7,0,0,0,.79-.18c.22-.07.41-.15.59-.22a4.32,4.32,0,0,1,.48-.19,2.63,2.63,0,0,1,.43-.1,1.06,1.06,0,0,1,.67.21,2.06,2.06,0,0,1,.58.72,2.18,2.18,0,0,1,.24.52,2.14,2.14,0,0,1,.06.5,1.35,1.35,0,0,1-.62,1.09,4.77,4.77,0,0,1-1.72.74A11.56,11.56,0,0,1,275.8,35.16Zm-2.67-7.4h3.95a1.06,1.06,0,0,0,.58-.14.61.61,0,0,0,.2-.53,1.24,1.24,0,0,0-.28-.78,1.8,1.8,0,0,0-.74-.54,2.94,2.94,0,0,0-1.08-.19,3,3,0,0,0-1.35.3,2.39,2.39,0,0,0-.94.8A1.87,1.87,0,0,0,273.13,27.76Z"/><path class="cls-3" d="M119.73,35a8.64,8.64,0,0,1-2.33-.34A9.39,9.39,0,0,1,115,33.65a9.05,9.05,0,0,1-2.13-1.79,8.3,8.3,0,0,1-1.52-2.55,9.38,9.38,0,0,1-.56-3.33,8.78,8.78,0,0,1,.57-3.23,8.06,8.06,0,0,1,1.51-2.46A9.24,9.24,0,0,1,115,18.55a9.69,9.69,0,0,1,2.41-1,8.89,8.89,0,0,1,2.39-.34,7.36,7.36,0,0,1,2.22.3,8.09,8.09,0,0,1,1.54.63l.76.42a7.94,7.94,0,0,1,.85.65,1.25,1.25,0,0,1,.43.9,1.81,1.81,0,0,1-.11.6,2.61,2.61,0,0,1-.34.6,3.23,3.23,0,0,1-.78.84,1.16,1.16,0,0,1-1.3.11c-.18-.1-.4-.23-.65-.4a4.72,4.72,0,0,0-.5-.31,3.44,3.44,0,0,0-.88-.34,5.82,5.82,0,0,0-3.16.15,5.18,5.18,0,0,0-1.63.92,4.58,4.58,0,0,0-1.2,1.59,5.3,5.3,0,0,0-.45,2.26,4.92,4.92,0,0,0,.46,2.25,4.57,4.57,0,0,0,1.21,1.58,5.29,5.29,0,0,0,3.37,1.25,4.73,4.73,0,0,0,1.28-.15,4.64,4.64,0,0,0,.92-.36c.27-.14.49-.27.68-.39l.56-.32a1.26,1.26,0,0,1,.59-.15,1.19,1.19,0,0,1,.71.27,3.44,3.44,0,0,1,.74.88,2.6,2.6,0,0,1,.33.64,1.66,1.66,0,0,1,.12.61,1,1,0,0,1-.42.86,6.38,6.38,0,0,1-.86.61l-.75.44a7.19,7.19,0,0,1-1.53.62A7.59,7.59,0,0,1,119.73,35Z"/><path class="cls-3" d="M129.6,34.85a2.39,2.39,0,0,1-1.31-.27,1.06,1.06,0,0,1-.47-.71,4.7,4.7,0,0,1-.09-.92V24.22a4.44,4.44,0,0,1,.08-.92,1,1,0,0,1,.49-.69,2.49,2.49,0,0,1,1.33-.26,2.63,2.63,0,0,1,1.26.23,1.07,1.07,0,0,1,.49.56,2,2,0,0,1,.1.53l-.3.15a3.22,3.22,0,0,1,.26-.36,3.58,3.58,0,0,1,.59-.55,3.71,3.71,0,0,1,.91-.49,3.62,3.62,0,0,1,1.24-.2c.18,0,.38,0,.61,0a4.89,4.89,0,0,1,.7.15,3.32,3.32,0,0,1,.66.3,1.69,1.69,0,0,1,.49.47,1.18,1.18,0,0,1,.19.67,3.06,3.06,0,0,1-.48,1.74,1.42,1.42,0,0,1-1.2.71,2.06,2.06,0,0,1-.6-.06,1.3,1.3,0,0,1-.29-.15.93.93,0,0,0-.26-.15,1.39,1.39,0,0,0-.55-.07,2.71,2.71,0,0,0-.71.1,1.88,1.88,0,0,0-.63.32,1.45,1.45,0,0,0-.61,1.23V33a4.53,4.53,0,0,1-.08.91,1,1,0,0,1-.49.69A2.71,2.71,0,0,1,129.6,34.85Z"/><path class="cls-3" d="M144.18,34.83a5.28,5.28,0,0,1-2.18-.45,5.43,5.43,0,0,1-1.75-1.26,6,6,0,0,1-1.16-1.93,7.06,7.06,0,0,1-.41-2.44V24.23a4.52,4.52,0,0,1,.09-.93,1.13,1.13,0,0,1,.49-.7,2.47,2.47,0,0,1,1.33-.27,2.39,2.39,0,0,1,1.31.27,1.13,1.13,0,0,1,.47.72,4.59,4.59,0,0,1,.09.93v4.5a2.8,2.8,0,0,0,.26,1.27,1.73,1.73,0,0,0,.77.81,2.74,2.74,0,0,0,1.22.28,2.49,2.49,0,0,0,1.23-.29,2,2,0,0,0,.8-.81,2.48,2.48,0,0,0,.29-1.25V24.21a4.48,4.48,0,0,1,.08-.93,1.08,1.08,0,0,1,.49-.69,2.59,2.59,0,0,1,1.33-.26,2.38,2.38,0,0,1,1.31.28,1.07,1.07,0,0,1,.47.71,4.53,4.53,0,0,1,.09.91V33a4.91,4.91,0,0,1-.08.89,1,1,0,0,1-.49.66,2.52,2.52,0,0,1-1.3.25,2.92,2.92,0,0,1-1.05-.15,1.3,1.3,0,0,1-.55-.37.94.94,0,0,1-.21-.48,2.42,2.42,0,0,1,0-.45l.33-.27a3.36,3.36,0,0,1-.33.38,5.89,5.89,0,0,1-.66.58,4.28,4.28,0,0,1-1,.54A3.31,3.31,0,0,1,144.18,34.83Z"/><path class="cls-3" d="M159.48,35a6.45,6.45,0,0,1-2.24-.41,7.13,7.13,0,0,1-2.1-1.21,5.87,5.87,0,0,1-1.53-2,6.76,6.76,0,0,1,0-5.48,5.85,5.85,0,0,1,1.53-2,6.52,6.52,0,0,1,2.08-1.21,6.4,6.4,0,0,1,2.22-.42,6.06,6.06,0,0,1,1.66.22,5.41,5.41,0,0,1,1.25.51,3.87,3.87,0,0,1,.74.53,7,7,0,0,1,.75.65,1.07,1.07,0,0,1,.29.85,1.38,1.38,0,0,1-.17.56,4.48,4.48,0,0,1-.38.59c-.51.7-1,1-1.5.95a2.74,2.74,0,0,1-.68-.25l-.6-.35a4.54,4.54,0,0,0-.62-.32,1.89,1.89,0,0,0-.75-.14,2.6,2.6,0,0,0-1.3.34,2.7,2.7,0,0,0-.91.9,2.55,2.55,0,0,0-.34,1.31,2.45,2.45,0,0,0,.34,1.3,2.48,2.48,0,0,0,.9.92,2.42,2.42,0,0,0,1.26.33,2.39,2.39,0,0,0,.73-.1,2.33,2.33,0,0,0,.55-.23c.15-.09.26-.17.35-.21s.39-.26.57-.37a1.05,1.05,0,0,1,.55-.16,1.28,1.28,0,0,1,.74.26,4.7,4.7,0,0,1,.81.84,2.1,2.1,0,0,1,.49,1A1.19,1.19,0,0,1,164,33a2.57,2.57,0,0,1-.85.76,3.69,3.69,0,0,1-.71.45,7.21,7.21,0,0,1-1.25.5A5.38,5.38,0,0,1,159.48,35Z"/><path class="cls-3" d="M172.63,35.1a7.25,7.25,0,0,1-3-.58A5.88,5.88,0,0,1,167.55,33a6.4,6.4,0,0,1-1.19-2.09,6.88,6.88,0,0,1-.4-2.3,6.45,6.45,0,0,1,.85-3.33A6.09,6.09,0,0,1,169.17,23a7,7,0,0,1,3.47-.84,6.24,6.24,0,0,1,2.51.47,5.08,5.08,0,0,1,1.75,1.2,4.89,4.89,0,0,1,1,1.59,4.25,4.25,0,0,1,.34,1.62,2.78,2.78,0,0,1-.67,2.05,2.25,2.25,0,0,1-1.68.67H170a1.71,1.71,0,0,0,.46,1.08,2.77,2.77,0,0,0,1,.7,3.6,3.6,0,0,0,1.32.25,6.63,6.63,0,0,0,1-.07,3.74,3.74,0,0,0,.79-.17l.58-.22c.18-.08.34-.14.49-.19a2.41,2.41,0,0,1,.43-.1,1,1,0,0,1,.67.21,1.94,1.94,0,0,1,.57.72,1.61,1.61,0,0,1,.24.52,2.14,2.14,0,0,1,.06.5,1.34,1.34,0,0,1-.61,1.09,4.86,4.86,0,0,1-1.72.73A11.06,11.06,0,0,1,172.63,35.1ZM170,27.7h3.95a1,1,0,0,0,.57-.14c.14-.09.2-.27.2-.54a1.23,1.23,0,0,0-.27-.77,1.72,1.72,0,0,0-.74-.54,2.8,2.8,0,0,0-1.09-.19,3,3,0,0,0-1.35.3,2.36,2.36,0,0,0-.93.8A1.84,1.84,0,0,0,170,27.7Z"/><path class="cls-3" d="M188.7,34.88a2.4,2.4,0,0,1-1.3-.27,1.1,1.1,0,0,1-.47-.7,5.46,5.46,0,0,1-.08-.93V24.23a4.29,4.29,0,0,1,.09-.9,1,1,0,0,1,.49-.69,2.52,2.52,0,0,1,1.32-.26,2.06,2.06,0,0,1,1.35.36,1.51,1.51,0,0,1,.42,1.19l-.32.28a1.67,1.67,0,0,1,.3-.43,4.92,4.92,0,0,1,.65-.62,3.77,3.77,0,0,1,.94-.56,2.8,2.8,0,0,1,1.16-.24,4.35,4.35,0,0,1,1.49.24,3.82,3.82,0,0,1,1.2.7,4.17,4.17,0,0,1,.93,1.16,6.37,6.37,0,0,1,.86-1,4.25,4.25,0,0,1,1.17-.8,3.44,3.44,0,0,1,1.53-.33,4.1,4.1,0,0,1,2.48.74,4.49,4.49,0,0,1,1.54,2.12,9.29,9.29,0,0,1,.52,3.32V33a4.53,4.53,0,0,1-.1.91,1.15,1.15,0,0,1-.49.7,2.5,2.5,0,0,1-1.31.26,2.37,2.37,0,0,1-1.33-.28,1.07,1.07,0,0,1-.47-.71,5.31,5.31,0,0,1-.08-.91V28.51a3.71,3.71,0,0,0-.19-1.28,1.72,1.72,0,0,0-.54-.83,1.37,1.37,0,0,0-.9-.29,1.68,1.68,0,0,0-1,.28,1.6,1.6,0,0,0-.6.8,3.7,3.7,0,0,0-.2,1.35V33a3.51,3.51,0,0,1-.12.94,1.21,1.21,0,0,1-.54.7,2.56,2.56,0,0,1-1.34.24,2.11,2.11,0,0,1-1.25-.29,1.14,1.14,0,0,1-.45-.73A5.18,5.18,0,0,1,194,33V28.51a4.55,4.55,0,0,0-.17-1.3,1.59,1.59,0,0,0-.53-.82,1.4,1.4,0,0,0-.92-.28,1.62,1.62,0,0,0-1,.32,2,2,0,0,0-.59.87,3.76,3.76,0,0,0-.18,1.21V33a5.25,5.25,0,0,1-.08.92,1.07,1.07,0,0,1-.49.69A2.49,2.49,0,0,1,188.7,34.88Z"/><path class="cls-3" d="M212.8,34.87a5.2,5.2,0,0,1-2.17-.45,5.33,5.33,0,0,1-1.75-1.26,5.78,5.78,0,0,1-1.16-1.93,6.83,6.83,0,0,1-.41-2.44V24.27a4.52,4.52,0,0,1,.09-.93,1.13,1.13,0,0,1,.49-.7,2.41,2.41,0,0,1,1.32-.27,2.37,2.37,0,0,1,1.31.27,1.17,1.17,0,0,1,.48.72,4.64,4.64,0,0,1,.08.94v4.5a2.92,2.92,0,0,0,.26,1.26,1.8,1.8,0,0,0,.78.81,2.43,2.43,0,0,0,1.21.28,2.53,2.53,0,0,0,1.24-.29,2,2,0,0,0,.8-.81,2.59,2.59,0,0,0,.29-1.25V24.25a4.52,4.52,0,0,1,.09-.93,1,1,0,0,1,.49-.68,2.41,2.41,0,0,1,1.32-.27,2.36,2.36,0,0,1,1.31.28,1.12,1.12,0,0,1,.48.71,4.57,4.57,0,0,1,.08.92v8.79a4.13,4.13,0,0,1-.09.89,1,1,0,0,1-.49.67,2.62,2.62,0,0,1-1.3.24,2.92,2.92,0,0,1-1.05-.15,1.3,1.3,0,0,1-.55-.37,1.14,1.14,0,0,1-.21-.48,3.75,3.75,0,0,1,0-.45l.33-.27a3.06,3.06,0,0,1-.33.39,5.22,5.22,0,0,1-.66.57,4.21,4.21,0,0,1-1,.54A3.37,3.37,0,0,1,212.8,34.87Zm-.39-13.37a.85.85,0,0,1-.74-.25,2.71,2.71,0,0,1-.51-1,2.11,2.11,0,0,1-.1-1.3,1.41,1.41,0,0,1,.93-.68l4.4-1.35a.9.9,0,0,1,.72.29,2.4,2.4,0,0,1,.5,1,1.81,1.81,0,0,1,.09,1.27,1.35,1.35,0,0,1-.91.68Z"/><path class="cls-3" d="M226.73,34.9a14.3,14.3,0,0,1-1.83-.1,3.7,3.7,0,0,1-1.35-.4,2.58,2.58,0,0,1-.9-.84,4,4,0,0,1-.52-1.37,10.11,10.11,0,0,1-.17-2.06V18.58a4.49,4.49,0,0,1,.1-.93,1.21,1.21,0,0,1,.49-.7,2.39,2.39,0,0,1,1.31-.27,2.34,2.34,0,0,1,1.29.27,1.21,1.21,0,0,1,.49.7,4.57,4.57,0,0,1,.1.93V30a4.22,4.22,0,0,0,0,.67.8.8,0,0,0,.15.41.51.51,0,0,0,.31.2,2.4,2.4,0,0,0,.52.05,3.37,3.37,0,0,1,.62.07.94.94,0,0,1,.54.46,2.68,2.68,0,0,1,.22,1.25,2.74,2.74,0,0,1-.23,1.29.89.89,0,0,1-.53.48A2.79,2.79,0,0,1,226.73,34.9Z"/><path class="cls-3" d="M230.74,22.61h2.75l3.44-.1a4.46,4.46,0,0,1,.91.09,1.08,1.08,0,0,1,.69.49,2.33,2.33,0,0,1,.28,1.32,2.38,2.38,0,0,1-.26,1.25,1.15,1.15,0,0,1-.69.51,3.43,3.43,0,0,1-.93.12l-3.27-.08-3,0a1.26,1.26,0,0,1-1-.46,2.55,2.55,0,0,1-.29-1.39,2.17,2.17,0,0,1,.35-1.34A1.29,1.29,0,0,1,230.74,22.61Zm5.64,12.3a7.5,7.5,0,0,1-2.2-.28,3.37,3.37,0,0,1-2.39-2.31,6.66,6.66,0,0,1-.28-2.11V20.08a4.15,4.15,0,0,1,.09-.92,1.07,1.07,0,0,1,.49-.67,2.48,2.48,0,0,1,1.3-.26,2.39,2.39,0,0,1,1.3.28,1.08,1.08,0,0,1,.48.71,4.56,4.56,0,0,1,.09.92v9.92a2.47,2.47,0,0,0,.06.66.79.79,0,0,0,.18.39.83.83,0,0,0,.35.18,4,4,0,0,0,.56.05,4.07,4.07,0,0,1,1,.1,1,1,0,0,1,.66.45,2.13,2.13,0,0,1,.24,1.17,2.28,2.28,0,0,1-.28,1.3,1,1,0,0,1-.71.48A5.41,5.41,0,0,1,236.38,34.91Z"/><path class="cls-3" d="M242.74,20.61a2.48,2.48,0,0,1-1.35-.27,1.14,1.14,0,0,1-.49-.73,5.11,5.11,0,0,1,0-1.91,1.09,1.09,0,0,1,.5-.7,2.71,2.71,0,0,1,1.36-.26,2.37,2.37,0,0,1,1.33.28,1.13,1.13,0,0,1,.49.72,6,6,0,0,1,.08,1,4.7,4.7,0,0,1-.09.92,1.07,1.07,0,0,1-.48.71A2.54,2.54,0,0,1,242.74,20.61Zm0,14.3a2.49,2.49,0,0,1-1.33-.26,1,1,0,0,1-.47-.7,5.4,5.4,0,0,1-.08-.91V24.31a4.53,4.53,0,0,1,.09-.91,1.06,1.06,0,0,1,.48-.7,2.59,2.59,0,0,1,1.33-.26,2.24,2.24,0,0,1,1.29.28,1.1,1.1,0,0,1,.47.71,4.62,4.62,0,0,1,.09.94v8.69a5.43,5.43,0,0,1-.08.92,1,1,0,0,1-.48.68A2.52,2.52,0,0,1,242.73,34.91Z"/><path class="cls-3" d="M249,40.09a2.51,2.51,0,0,1-1.3-.26,1,1,0,0,1-.47-.68,4.12,4.12,0,0,1-.08-.88v-14a5.1,5.1,0,0,1,.07-.91,1.08,1.08,0,0,1,.47-.69,2.31,2.31,0,0,1,1.29-.27,2.85,2.85,0,0,1,1.23.22,1.33,1.33,0,0,1,.66.7v14.9a3.28,3.28,0,0,1-.08.9,1.11,1.11,0,0,1-.49.69A2.38,2.38,0,0,1,249,40.09Zm4.8-5.39a4.64,4.64,0,0,1-2.15-.49,4.46,4.46,0,0,1-1.53-1.33,6,6,0,0,1-.93-1.94,7.87,7.87,0,0,1-.28-2.37,8.53,8.53,0,0,1,.32-2.34,6.53,6.53,0,0,1,.94-2,4.3,4.3,0,0,1,1.53-1.35,4.35,4.35,0,0,1,2.11-.49,4.88,4.88,0,0,1,2.15.5,6.54,6.54,0,0,1,1.84,1.37,6.4,6.4,0,0,1,1.27,2,6.19,6.19,0,0,1,.46,2.38A6.14,6.14,0,0,1,257.8,33,5.73,5.73,0,0,1,256,34.23,5.24,5.24,0,0,1,253.8,34.7Zm-.5-3.53a2.28,2.28,0,0,0,1.25-.34,2.55,2.55,0,0,0,1.23-2.18,2.64,2.64,0,0,0-.32-1.28,2.48,2.48,0,0,0-.89-.9,2.53,2.53,0,0,0-1.24-.33,2.43,2.43,0,0,0-1.24.34,2.5,2.5,0,0,0-.87.9,2.56,2.56,0,0,0-.31,1.26,2.52,2.52,0,0,0,1.19,2.19A2.23,2.23,0,0,0,253.3,31.17Z"/><path class="cls-3" d="M266.38,34.93a16.4,16.4,0,0,1-1.83-.1,3.9,3.9,0,0,1-1.35-.4,2.58,2.58,0,0,1-.9-.84,4,4,0,0,1-.52-1.38,10,10,0,0,1-.18-2.06V18.6a4.4,4.4,0,0,1,.1-.92,1.15,1.15,0,0,1,.49-.7,2.29,2.29,0,0,1,1.31-.28,2.24,2.24,0,0,1,1.29.28,1.15,1.15,0,0,1,.49.7,4.4,4.4,0,0,1,.1.92V30a4.08,4.08,0,0,0,0,.66.8.8,0,0,0,.15.41.51.51,0,0,0,.31.2,1.9,1.9,0,0,0,.52.05,2.7,2.7,0,0,1,.62.08.9.9,0,0,1,.53.45,2.56,2.56,0,0,1,.23,1.25,2.79,2.79,0,0,1-.23,1.3.86.86,0,0,1-.54.47A2.65,2.65,0,0,1,266.38,34.93Z"/><path class="cls-3" d="M275.8,35.16a7.09,7.09,0,0,1-3-.58,5.84,5.84,0,0,1-2.06-1.51,6.25,6.25,0,0,1-1.2-2.09,6.88,6.88,0,0,1-.4-2.3,6.48,6.48,0,0,1,.85-3.32,6.14,6.14,0,0,1,2.37-2.29,7,7,0,0,1,3.46-.84,6.21,6.21,0,0,1,2.51.47,5.23,5.23,0,0,1,1.75,1.2,4.89,4.89,0,0,1,1,1.59,4.28,4.28,0,0,1,.34,1.62,2.82,2.82,0,0,1-.66,2.05,2.28,2.28,0,0,1-1.69.68h-5.95a1.77,1.77,0,0,0,.46,1.08,2.85,2.85,0,0,0,1,.7,3.44,3.44,0,0,0,1.32.25,8.1,8.1,0,0,0,1-.06,3.7,3.7,0,0,0,.79-.18c.22-.07.41-.15.59-.22a4.32,4.32,0,0,1,.48-.19,2.63,2.63,0,0,1,.43-.1,1.06,1.06,0,0,1,.67.21,2.06,2.06,0,0,1,.58.72,2.18,2.18,0,0,1,.24.52,2.14,2.14,0,0,1,.06.5,1.35,1.35,0,0,1-.62,1.09,4.77,4.77,0,0,1-1.72.74A11.56,11.56,0,0,1,275.8,35.16Zm-2.67-7.4h3.95a1.06,1.06,0,0,0,.58-.14.61.61,0,0,0,.2-.53,1.24,1.24,0,0,0-.28-.78,1.8,1.8,0,0,0-.74-.54,2.94,2.94,0,0,0-1.08-.19,3,3,0,0,0-1.35.3,2.39,2.39,0,0,0-.94.8A1.87,1.87,0,0,0,273.13,27.76Z"/><path class="cls-2" d="M119.73,35a8.64,8.64,0,0,1-2.33-.34A9.39,9.39,0,0,1,115,33.65a9.05,9.05,0,0,1-2.13-1.79,8.3,8.3,0,0,1-1.52-2.55,9.38,9.38,0,0,1-.56-3.33,8.78,8.78,0,0,1,.57-3.23,8.06,8.06,0,0,1,1.51-2.46A9.24,9.24,0,0,1,115,18.55a9.69,9.69,0,0,1,2.41-1,8.89,8.89,0,0,1,2.39-.34,7.36,7.36,0,0,1,2.22.3,8.09,8.09,0,0,1,1.54.63l.76.42a7.94,7.94,0,0,1,.85.65,1.25,1.25,0,0,1,.43.9,1.81,1.81,0,0,1-.11.6,2.61,2.61,0,0,1-.34.6,3.23,3.23,0,0,1-.78.84,1.16,1.16,0,0,1-1.3.11c-.18-.1-.4-.23-.65-.4a4.72,4.72,0,0,0-.5-.31,3.44,3.44,0,0,0-.88-.34,5.82,5.82,0,0,0-3.16.15,5.18,5.18,0,0,0-1.63.92,4.58,4.58,0,0,0-1.2,1.59,5.3,5.3,0,0,0-.45,2.26,4.92,4.92,0,0,0,.46,2.25,4.57,4.57,0,0,0,1.21,1.58,5.29,5.29,0,0,0,3.37,1.25,4.73,4.73,0,0,0,1.28-.15,4.64,4.64,0,0,0,.92-.36c.27-.14.49-.27.68-.39l.56-.32a1.26,1.26,0,0,1,.59-.15,1.19,1.19,0,0,1,.71.27,3.44,3.44,0,0,1,.74.88,2.6,2.6,0,0,1,.33.64,1.66,1.66,0,0,1,.12.61,1,1,0,0,1-.42.86,6.38,6.38,0,0,1-.86.61l-.75.44a7.19,7.19,0,0,1-1.53.62A7.59,7.59,0,0,1,119.73,35Z"/><path class="cls-2" d="M129.6,34.85a2.39,2.39,0,0,1-1.31-.27,1.06,1.06,0,0,1-.47-.71,4.7,4.7,0,0,1-.09-.92V24.22a4.44,4.44,0,0,1,.08-.92,1,1,0,0,1,.49-.69,2.49,2.49,0,0,1,1.33-.26,2.63,2.63,0,0,1,1.26.23,1.07,1.07,0,0,1,.49.56,2,2,0,0,1,.1.53l-.3.15a3.22,3.22,0,0,1,.26-.36,3.58,3.58,0,0,1,.59-.55,3.71,3.71,0,0,1,.91-.49,3.62,3.62,0,0,1,1.24-.2c.18,0,.38,0,.61,0a4.89,4.89,0,0,1,.7.15,3.32,3.32,0,0,1,.66.3,1.69,1.69,0,0,1,.49.47,1.18,1.18,0,0,1,.19.67,3.06,3.06,0,0,1-.48,1.74,1.42,1.42,0,0,1-1.2.71,2.06,2.06,0,0,1-.6-.06,1.3,1.3,0,0,1-.29-.15.93.93,0,0,0-.26-.15,1.39,1.39,0,0,0-.55-.07,2.71,2.71,0,0,0-.71.1,1.88,1.88,0,0,0-.63.32,1.45,1.45,0,0,0-.61,1.23V33a4.53,4.53,0,0,1-.08.91,1,1,0,0,1-.49.69A2.71,2.71,0,0,1,129.6,34.85Z"/><path class="cls-2" d="M144.18,34.83a5.28,5.28,0,0,1-2.18-.45,5.43,5.43,0,0,1-1.75-1.26,6,6,0,0,1-1.16-1.93,7.06,7.06,0,0,1-.41-2.44V24.23a4.52,4.52,0,0,1,.09-.93,1.13,1.13,0,0,1,.49-.7,2.47,2.47,0,0,1,1.33-.27,2.39,2.39,0,0,1,1.31.27,1.13,1.13,0,0,1,.47.72,4.59,4.59,0,0,1,.09.93v4.5a2.8,2.8,0,0,0,.26,1.27,1.73,1.73,0,0,0,.77.81,2.74,2.74,0,0,0,1.22.28,2.49,2.49,0,0,0,1.23-.29,2,2,0,0,0,.8-.81,2.48,2.48,0,0,0,.29-1.25V24.21a4.48,4.48,0,0,1,.08-.93,1.08,1.08,0,0,1,.49-.69,2.59,2.59,0,0,1,1.33-.26,2.38,2.38,0,0,1,1.31.28,1.07,1.07,0,0,1,.47.71,4.53,4.53,0,0,1,.09.91V33a4.91,4.91,0,0,1-.08.89,1,1,0,0,1-.49.66,2.52,2.52,0,0,1-1.3.25,2.92,2.92,0,0,1-1.05-.15,1.3,1.3,0,0,1-.55-.37.94.94,0,0,1-.21-.48,2.42,2.42,0,0,1,0-.45l.33-.27a3.36,3.36,0,0,1-.33.38,5.89,5.89,0,0,1-.66.58,4.28,4.28,0,0,1-1,.54A3.31,3.31,0,0,1,144.18,34.83Z"/><path class="cls-2" d="M159.48,35a6.45,6.45,0,0,1-2.24-.41,7.13,7.13,0,0,1-2.1-1.21,5.87,5.87,0,0,1-1.53-2,6.76,6.76,0,0,1,0-5.48,5.85,5.85,0,0,1,1.53-2,6.52,6.52,0,0,1,2.08-1.21,6.4,6.4,0,0,1,2.22-.42,6.06,6.06,0,0,1,1.66.22,5.41,5.41,0,0,1,1.25.51,3.87,3.87,0,0,1,.74.53,7,7,0,0,1,.75.65,1.07,1.07,0,0,1,.29.85,1.38,1.38,0,0,1-.17.56,4.48,4.48,0,0,1-.38.59c-.51.7-1,1-1.5.95a2.74,2.74,0,0,1-.68-.25l-.6-.35a4.54,4.54,0,0,0-.62-.32,1.89,1.89,0,0,0-.75-.14,2.6,2.6,0,0,0-1.3.34,2.7,2.7,0,0,0-.91.9,2.55,2.55,0,0,0-.34,1.31,2.45,2.45,0,0,0,.34,1.3,2.48,2.48,0,0,0,.9.92,2.42,2.42,0,0,0,1.26.33,2.39,2.39,0,0,0,.73-.1,2.33,2.33,0,0,0,.55-.23c.15-.09.26-.17.35-.21s.39-.26.57-.37a1.05,1.05,0,0,1,.55-.16,1.28,1.28,0,0,1,.74.26,4.7,4.7,0,0,1,.81.84,2.1,2.1,0,0,1,.49,1A1.19,1.19,0,0,1,164,33a2.57,2.57,0,0,1-.85.76,3.69,3.69,0,0,1-.71.45,7.21,7.21,0,0,1-1.25.5A5.38,5.38,0,0,1,159.48,35Z"/><path class="cls-2" d="M172.63,35.1a7.25,7.25,0,0,1-3-.58A5.88,5.88,0,0,1,167.55,33a6.4,6.4,0,0,1-1.19-2.09,6.88,6.88,0,0,1-.4-2.3,6.45,6.45,0,0,1,.85-3.33A6.09,6.09,0,0,1,169.17,23a7,7,0,0,1,3.47-.84,6.24,6.24,0,0,1,2.51.47,5.08,5.08,0,0,1,1.75,1.2,4.89,4.89,0,0,1,1,1.59,4.25,4.25,0,0,1,.34,1.62,2.78,2.78,0,0,1-.67,2.05,2.25,2.25,0,0,1-1.68.67H170a1.71,1.71,0,0,0,.46,1.08,2.77,2.77,0,0,0,1,.7,3.6,3.6,0,0,0,1.32.25,6.63,6.63,0,0,0,1-.07,3.74,3.74,0,0,0,.79-.17l.58-.22c.18-.08.34-.14.49-.19a2.41,2.41,0,0,1,.43-.1,1,1,0,0,1,.67.21,1.94,1.94,0,0,1,.57.72,1.61,1.61,0,0,1,.24.52,2.14,2.14,0,0,1,.06.5,1.34,1.34,0,0,1-.61,1.09,4.86,4.86,0,0,1-1.72.73A11.06,11.06,0,0,1,172.63,35.1ZM170,27.7h3.95a1,1,0,0,0,.57-.14c.14-.09.2-.27.2-.54a1.23,1.23,0,0,0-.27-.77,1.72,1.72,0,0,0-.74-.54,2.8,2.8,0,0,0-1.09-.19,3,3,0,0,0-1.35.3,2.36,2.36,0,0,0-.93.8A1.84,1.84,0,0,0,170,27.7Z"/><path class="cls-2" d="M188.7,34.88a2.4,2.4,0,0,1-1.3-.27,1.1,1.1,0,0,1-.47-.7,5.46,5.46,0,0,1-.08-.93V24.23a4.29,4.29,0,0,1,.09-.9,1,1,0,0,1,.49-.69,2.52,2.52,0,0,1,1.32-.26,2.06,2.06,0,0,1,1.35.36,1.51,1.51,0,0,1,.42,1.19l-.32.28a1.67,1.67,0,0,1,.3-.43,4.92,4.92,0,0,1,.65-.62,3.77,3.77,0,0,1,.94-.56,2.8,2.8,0,0,1,1.16-.24,4.35,4.35,0,0,1,1.49.24,3.82,3.82,0,0,1,1.2.7,4.17,4.17,0,0,1,.93,1.16,6.37,6.37,0,0,1,.86-1,4.25,4.25,0,0,1,1.17-.8,3.44,3.44,0,0,1,1.53-.33,4.1,4.1,0,0,1,2.48.74,4.49,4.49,0,0,1,1.54,2.12,9.29,9.29,0,0,1,.52,3.32V33a4.53,4.53,0,0,1-.1.91,1.15,1.15,0,0,1-.49.7,2.5,2.5,0,0,1-1.31.26,2.37,2.37,0,0,1-1.33-.28,1.07,1.07,0,0,1-.47-.71,5.31,5.31,0,0,1-.08-.91V28.51a3.71,3.71,0,0,0-.19-1.28,1.72,1.72,0,0,0-.54-.83,1.37,1.37,0,0,0-.9-.29,1.68,1.68,0,0,0-1,.28,1.6,1.6,0,0,0-.6.8,3.7,3.7,0,0,0-.2,1.35V33a3.51,3.51,0,0,1-.12.94,1.21,1.21,0,0,1-.54.7,2.56,2.56,0,0,1-1.34.24,2.11,2.11,0,0,1-1.25-.29,1.14,1.14,0,0,1-.45-.73A5.18,5.18,0,0,1,194,33V28.51a4.55,4.55,0,0,0-.17-1.3,1.59,1.59,0,0,0-.53-.82,1.4,1.4,0,0,0-.92-.28,1.62,1.62,0,0,0-1,.32,2,2,0,0,0-.59.87,3.76,3.76,0,0,0-.18,1.21V33a5.25,5.25,0,0,1-.08.92,1.07,1.07,0,0,1-.49.69A2.49,2.49,0,0,1,188.7,34.88Z"/><path class="cls-2" d="M212.8,34.87a5.2,5.2,0,0,1-2.17-.45,5.33,5.33,0,0,1-1.75-1.26,5.78,5.78,0,0,1-1.16-1.93,6.83,6.83,0,0,1-.41-2.44V24.27a4.52,4.52,0,0,1,.09-.93,1.13,1.13,0,0,1,.49-.7,2.41,2.41,0,0,1,1.32-.27,2.37,2.37,0,0,1,1.31.27,1.17,1.17,0,0,1,.48.72,4.64,4.64,0,0,1,.08.94v4.5a2.92,2.92,0,0,0,.26,1.26,1.8,1.8,0,0,0,.78.81,2.43,2.43,0,0,0,1.21.28,2.53,2.53,0,0,0,1.24-.29,2,2,0,0,0,.8-.81,2.59,2.59,0,0,0,.29-1.25V24.25a4.52,4.52,0,0,1,.09-.93,1,1,0,0,1,.49-.68,2.41,2.41,0,0,1,1.32-.27,2.36,2.36,0,0,1,1.31.28,1.12,1.12,0,0,1,.48.71,4.57,4.57,0,0,1,.08.92v8.79a4.13,4.13,0,0,1-.09.89,1,1,0,0,1-.49.67,2.62,2.62,0,0,1-1.3.24,2.92,2.92,0,0,1-1.05-.15,1.3,1.3,0,0,1-.55-.37,1.14,1.14,0,0,1-.21-.48,3.75,3.75,0,0,1,0-.45l.33-.27a3.06,3.06,0,0,1-.33.39,5.22,5.22,0,0,1-.66.57,4.21,4.21,0,0,1-1,.54A3.37,3.37,0,0,1,212.8,34.87Zm-.39-13.37a.85.85,0,0,1-.74-.25,2.71,2.71,0,0,1-.51-1,2.11,2.11,0,0,1-.1-1.3,1.41,1.41,0,0,1,.93-.68l4.4-1.35a.9.9,0,0,1,.72.29,2.4,2.4,0,0,1,.5,1,1.81,1.81,0,0,1,.09,1.27,1.35,1.35,0,0,1-.91.68Z"/><path class="cls-2" d="M226.73,34.9a14.3,14.3,0,0,1-1.83-.1,3.7,3.7,0,0,1-1.35-.4,2.58,2.58,0,0,1-.9-.84,4,4,0,0,1-.52-1.37,10.11,10.11,0,0,1-.17-2.06V18.58a4.49,4.49,0,0,1,.1-.93,1.21,1.21,0,0,1,.49-.7,2.39,2.39,0,0,1,1.31-.27,2.34,2.34,0,0,1,1.29.27,1.21,1.21,0,0,1,.49.7,4.57,4.57,0,0,1,.1.93V30a4.22,4.22,0,0,0,0,.67.8.8,0,0,0,.15.41.51.51,0,0,0,.31.2,2.4,2.4,0,0,0,.52.05,3.37,3.37,0,0,1,.62.07.94.94,0,0,1,.54.46,2.68,2.68,0,0,1,.22,1.25,2.74,2.74,0,0,1-.23,1.29.89.89,0,0,1-.53.48A2.79,2.79,0,0,1,226.73,34.9Z"/><path class="cls-2" d="M230.74,22.61h2.75l3.44-.1a4.46,4.46,0,0,1,.91.09,1.08,1.08,0,0,1,.69.49,2.33,2.33,0,0,1,.28,1.32,2.38,2.38,0,0,1-.26,1.25,1.15,1.15,0,0,1-.69.51,3.43,3.43,0,0,1-.93.12l-3.27-.08-3,0a1.26,1.26,0,0,1-1-.46,2.55,2.55,0,0,1-.29-1.39,2.17,2.17,0,0,1,.35-1.34A1.29,1.29,0,0,1,230.74,22.61Zm5.64,12.3a7.5,7.5,0,0,1-2.2-.28,3.37,3.37,0,0,1-2.39-2.31,6.66,6.66,0,0,1-.28-2.11V20.08a4.15,4.15,0,0,1,.09-.92,1.07,1.07,0,0,1,.49-.67,2.48,2.48,0,0,1,1.3-.26,2.39,2.39,0,0,1,1.3.28,1.08,1.08,0,0,1,.48.71,4.56,4.56,0,0,1,.09.92v9.92a2.47,2.47,0,0,0,.06.66.79.79,0,0,0,.18.39.83.83,0,0,0,.35.18,4,4,0,0,0,.56.05,4.07,4.07,0,0,1,1,.1,1,1,0,0,1,.66.45,2.13,2.13,0,0,1,.24,1.17,2.28,2.28,0,0,1-.28,1.3,1,1,0,0,1-.71.48A5.41,5.41,0,0,1,236.38,34.91Z"/><path class="cls-2" d="M242.74,20.61a2.48,2.48,0,0,1-1.35-.27,1.14,1.14,0,0,1-.49-.73,5.11,5.11,0,0,1,0-1.91,1.09,1.09,0,0,1,.5-.7,2.71,2.71,0,0,1,1.36-.26,2.37,2.37,0,0,1,1.33.28,1.13,1.13,0,0,1,.49.72,6,6,0,0,1,.08,1,4.7,4.7,0,0,1-.09.92,1.07,1.07,0,0,1-.48.71A2.54,2.54,0,0,1,242.74,20.61Zm0,14.3a2.49,2.49,0,0,1-1.33-.26,1,1,0,0,1-.47-.7,5.4,5.4,0,0,1-.08-.91V24.31a4.53,4.53,0,0,1,.09-.91,1.06,1.06,0,0,1,.48-.7,2.59,2.59,0,0,1,1.33-.26,2.24,2.24,0,0,1,1.29.28,1.1,1.1,0,0,1,.47.71,4.62,4.62,0,0,1,.09.94v8.69a5.43,5.43,0,0,1-.08.92,1,1,0,0,1-.48.68A2.52,2.52,0,0,1,242.73,34.91Z"/><path class="cls-2" d="M249,40.09a2.51,2.51,0,0,1-1.3-.26,1,1,0,0,1-.47-.68,4.12,4.12,0,0,1-.08-.88v-14a5.1,5.1,0,0,1,.07-.91,1.08,1.08,0,0,1,.47-.69,2.31,2.31,0,0,1,1.29-.27,2.85,2.85,0,0,1,1.23.22,1.33,1.33,0,0,1,.66.7v14.9a3.28,3.28,0,0,1-.08.9,1.11,1.11,0,0,1-.49.69A2.38,2.38,0,0,1,249,40.09Zm4.8-5.39a4.64,4.64,0,0,1-2.15-.49,4.46,4.46,0,0,1-1.53-1.33,6,6,0,0,1-.93-1.94,7.87,7.87,0,0,1-.28-2.37,8.53,8.53,0,0,1,.32-2.34,6.53,6.53,0,0,1,.94-2,4.3,4.3,0,0,1,1.53-1.35,4.35,4.35,0,0,1,2.11-.49,4.88,4.88,0,0,1,2.15.5,6.54,6.54,0,0,1,1.84,1.37,6.4,6.4,0,0,1,1.27,2,6.19,6.19,0,0,1,.46,2.38A6.14,6.14,0,0,1,257.8,33,5.73,5.73,0,0,1,256,34.23,5.24,5.24,0,0,1,253.8,34.7Zm-.5-3.53a2.28,2.28,0,0,0,1.25-.34,2.55,2.55,0,0,0,1.23-2.18,2.64,2.64,0,0,0-.32-1.28,2.48,2.48,0,0,0-.89-.9,2.53,2.53,0,0,0-1.24-.33,2.43,2.43,0,0,0-1.24.34,2.5,2.5,0,0,0-.87.9,2.56,2.56,0,0,0-.31,1.26,2.52,2.52,0,0,0,1.19,2.19A2.23,2.23,0,0,0,253.3,31.17Z"/><path class="cls-2" d="M266.38,34.93a16.4,16.4,0,0,1-1.83-.1,3.9,3.9,0,0,1-1.35-.4,2.58,2.58,0,0,1-.9-.84,4,4,0,0,1-.52-1.38,10,10,0,0,1-.18-2.06V18.6a4.4,4.4,0,0,1,.1-.92,1.15,1.15,0,0,1,.49-.7,2.29,2.29,0,0,1,1.31-.28,2.24,2.24,0,0,1,1.29.28,1.15,1.15,0,0,1,.49.7,4.4,4.4,0,0,1,.1.92V30a4.08,4.08,0,0,0,0,.66.8.8,0,0,0,.15.41.51.51,0,0,0,.31.2,1.9,1.9,0,0,0,.52.05,2.7,2.7,0,0,1,.62.08.9.9,0,0,1,.53.45,2.56,2.56,0,0,1,.23,1.25,2.79,2.79,0,0,1-.23,1.3.86.86,0,0,1-.54.47A2.65,2.65,0,0,1,266.38,34.93Z"/><path class="cls-2" d="M275.8,35.16a7.09,7.09,0,0,1-3-.58,5.84,5.84,0,0,1-2.06-1.51,6.25,6.25,0,0,1-1.2-2.09,6.88,6.88,0,0,1-.4-2.3,6.48,6.48,0,0,1,.85-3.32,6.14,6.14,0,0,1,2.37-2.29,7,7,0,0,1,3.46-.84,6.21,6.21,0,0,1,2.51.47,5.23,5.23,0,0,1,1.75,1.2,4.89,4.89,0,0,1,1,1.59,4.28,4.28,0,0,1,.34,1.62,2.82,2.82,0,0,1-.66,2.05,2.28,2.28,0,0,1-1.69.68h-5.95a1.77,1.77,0,0,0,.46,1.08,2.85,2.85,0,0,0,1,.7,3.44,3.44,0,0,0,1.32.25,8.1,8.1,0,0,0,1-.06,3.7,3.7,0,0,0,.79-.18c.22-.07.41-.15.59-.22a4.32,4.32,0,0,1,.48-.19,2.63,2.63,0,0,1,.43-.1,1.06,1.06,0,0,1,.67.21,2.06,2.06,0,0,1,.58.72,2.18,2.18,0,0,1,.24.52,2.14,2.14,0,0,1,.06.5,1.35,1.35,0,0,1-.62,1.09,4.77,4.77,0,0,1-1.72.74A11.56,11.56,0,0,1,275.8,35.16Zm-2.67-7.4h3.95a1.06,1.06,0,0,0,.58-.14.61.61,0,0,0,.2-.53,1.24,1.24,0,0,0-.28-.78,1.8,1.8,0,0,0-.74-.54,2.94,2.94,0,0,0-1.08-.19,3,3,0,0,0-1.35.3,2.39,2.39,0,0,0-.94.8A1.87,1.87,0,0,0,273.13,27.76Z"/><path class="cls-4" d="M55.46,35.55c0,2.27-.39,3.88-1.18,4.85a4.36,4.36,0,0,1-3.59,1.45,5.73,5.73,0,0,1-2.57-.5,3.29,3.29,0,0,1-1.48-1.85,11.09,11.09,0,0,1-.55-3.61L46,20.22a6.2,6.2,0,0,1-3.21-.74A2.56,2.56,0,0,1,41.55,17a2.76,2.76,0,0,1,1.16-2.29,5.16,5.16,0,0,1,3.24-.9c.54,0,1.31,0,2.3,0l2.1,0c2,0,3.36.34,4,1a5,5,0,0,1,1,3.59Z"/><path class="cls-4" d="M59.21,39a2.78,2.78,0,0,1,1.16-2.31,5.4,5.4,0,0,1,3.28-.88c3,0,4.44,1.07,4.44,3.19a3.11,3.11,0,0,1-.57,2,2.73,2.73,0,0,1-1.51,1,9.17,9.17,0,0,1-2.36.26,6.13,6.13,0,0,1-3.18-.76A2.63,2.63,0,0,1,59.21,39Z"/><path class="cls-4" d="M83.82,34.08h4.52q3.42,0,3.42,4a4,4,0,0,1-1.08,3.17c-.72.63-2,.94-3.85.94h-11c-1.9,0-3.2-.25-3.89-.77s-1-1.63-1-3.34A6.05,6.05,0,0,1,71,36.58a3.45,3.45,0,0,1,.62-1.2,5.18,5.18,0,0,1,1.22-1.13c1.47-1,2.62-1.82,3.47-2.44s1.66-1.26,2.46-1.95a14.09,14.09,0,0,0,1.78-1.76,11.18,11.18,0,0,0,1-1.66,6.47,6.47,0,0,0,.61-1.85,15.39,15.39,0,0,0,.14-2.19c0-1.56-.47-2.35-1.42-2.35s-1.55.93-1.55,2.77a2,2,0,0,1-1,2,7,7,0,0,1-2.89.46c-1.74,0-2.92-.39-3.53-1.17a6.48,6.48,0,0,1-.91-3.91,5.48,5.48,0,0,1,2.51-4.56,11.67,11.67,0,0,1,7-1.82q11.08,0,11.07,8.69a14.11,14.11,0,0,1-.45,3.68A11.66,11.66,0,0,1,90.1,29a9.28,9.28,0,0,1-1.77,2.12,16.71,16.71,0,0,1-2.11,1.64A26.68,26.68,0,0,1,83.82,34.08Z"/><path class="cls-5" d="M55.46,35.55c0,2.27-.39,3.88-1.18,4.85a4.36,4.36,0,0,1-3.59,1.45,5.73,5.73,0,0,1-2.57-.5,3.29,3.29,0,0,1-1.48-1.85,11.09,11.09,0,0,1-.55-3.61L46,20.22a6.2,6.2,0,0,1-3.21-.74A2.56,2.56,0,0,1,41.55,17a2.76,2.76,0,0,1,1.16-2.29,5.16,5.16,0,0,1,3.24-.9c.54,0,1.31,0,2.3,0l2.1,0c2,0,3.36.34,4,1a5,5,0,0,1,1,3.59Z"/><path class="cls-5" d="M59.21,39a2.78,2.78,0,0,1,1.16-2.31,5.4,5.4,0,0,1,3.28-.88c3,0,4.44,1.07,4.44,3.19a3.11,3.11,0,0,1-.57,2,2.73,2.73,0,0,1-1.51,1,9.17,9.17,0,0,1-2.36.26,6.13,6.13,0,0,1-3.18-.76A2.63,2.63,0,0,1,59.21,39Z"/><path class="cls-5" d="M83.82,34.08h4.52q3.42,0,3.42,4a4,4,0,0,1-1.08,3.17c-.72.63-2,.94-3.85.94h-11c-1.9,0-3.2-.25-3.89-.77s-1-1.63-1-3.34A6.05,6.05,0,0,1,71,36.58a3.45,3.45,0,0,1,.62-1.2,5.18,5.18,0,0,1,1.22-1.13c1.47-1,2.62-1.82,3.47-2.44s1.66-1.26,2.46-1.95a14.09,14.09,0,0,0,1.78-1.76,11.18,11.18,0,0,0,1-1.66,6.47,6.47,0,0,0,.61-1.85,15.39,15.39,0,0,0,.14-2.19c0-1.56-.47-2.35-1.42-2.35s-1.55.93-1.55,2.77a2,2,0,0,1-1,2,7,7,0,0,1-2.89.46c-1.74,0-2.92-.39-3.53-1.17a6.48,6.48,0,0,1-.91-3.91,5.48,5.48,0,0,1,2.51-4.56,11.67,11.67,0,0,1,7-1.82q11.08,0,11.07,8.69a14.11,14.11,0,0,1-.45,3.68A11.66,11.66,0,0,1,90.1,29a9.28,9.28,0,0,1-1.77,2.12,16.71,16.71,0,0,1-2.11,1.64A26.68,26.68,0,0,1,83.82,34.08Z"/></g></g></svg>