<svg xmlns="http://www.w3.org/2000/svg" viewBox="0 0 401.16 89.13"><defs><style>.cls-1{fill:#0468ad;}.cls-2{fill:#fff;}.cls-3,.cls-4{fill:none;stroke-width:5px;}.cls-3{stroke:#c8a927;stroke-linejoin:round;}.cls-4{stroke:#fff;}.cls-5{fill:#c8a927;}</style></defs><title>12t_1</title><g id="Layer_2" data-name="Layer 2"><g id="pestaña_identificativa" data-name="pestaña identificativa"><rect class="cls-1" width="401.16" height="89.13" rx="32.4"/><path class="cls-2" d="M120.43,33.84a2.38,2.38,0,0,1-1.3-.27,1.05,1.05,0,0,1-.49-.71,4.7,4.7,0,0,1-.09-.92V18.26a2,2,0,0,1,.43-1.49,2.2,2.2,0,0,1,1.52-.41H130a5.46,5.46,0,0,1,.93.08,1.08,1.08,0,0,1,.68.49,2.45,2.45,0,0,1,.26,1.35,2.38,2.38,0,0,1-.27,1.3,1.1,1.1,0,0,1-.71.49,4.76,4.76,0,0,1-.94.09h-7.55v3.23h5.12a4.66,4.66,0,0,1,.89.08.91.91,0,0,1,.61.42,2.34,2.34,0,0,1,.23,1.2A2,2,0,0,1,129,26.2a.93.93,0,0,1-.62.42,5,5,0,0,1-.9.07h-5.1V32a4,4,0,0,1-.1.92,1.11,1.11,0,0,1-.49.69A2.43,2.43,0,0,1,120.43,33.84Z"/><path class="cls-2" d="M136.28,19.55a2.52,2.52,0,0,1-1.35-.28,1.08,1.08,0,0,1-.48-.73,5.11,5.11,0,0,1,0-1.91,1.06,1.06,0,0,1,.5-.7,2.69,2.69,0,0,1,1.36-.26,2.37,2.37,0,0,1,1.33.28,1.11,1.11,0,0,1,.48.72,5,5,0,0,1,.09,1,4.7,4.7,0,0,1-.09.92,1.05,1.05,0,0,1-.49.71A2.48,2.48,0,0,1,136.28,19.55Zm0,14.3a2.47,2.47,0,0,1-1.33-.27,1,1,0,0,1-.47-.7,5.31,5.31,0,0,1-.08-.91V23.24a4.53,4.53,0,0,1,.09-.91,1.06,1.06,0,0,1,.48-.7,2.59,2.59,0,0,1,1.33-.26,2.24,2.24,0,0,1,1.29.28,1.14,1.14,0,0,1,.47.71,4.62,4.62,0,0,1,.09.94V32a4.53,4.53,0,0,1-.09.91,1,1,0,0,1-.47.69A2.62,2.62,0,0,1,136.28,33.85Z"/><path class="cls-2" d="M146,33.53a5,5,0,0,1-2.16-.49,5.84,5.84,0,0,1-1.79-1.34,6.76,6.76,0,0,1-1.22-1.95,6.08,6.08,0,0,1-.45-2.33,6,6,0,0,1,.45-2.31,6.3,6.3,0,0,1,3-3.25,4.86,4.86,0,0,1,2.11-.48,3.71,3.71,0,0,1,1.9.44,3.2,3.2,0,0,1,1.25,1.25,6.13,6.13,0,0,1,.71,1.92,11.82,11.82,0,0,1,.24,2.49,11.33,11.33,0,0,1-.41,3.21,4.22,4.22,0,0,1-1.31,2.1A3.58,3.58,0,0,1,146,33.53Zm.45,5.47a6.9,6.9,0,0,1-1.76-.22,7,7,0,0,1-1.59-.61,4.28,4.28,0,0,1-1.15-.8,1.23,1.23,0,0,1-.43-.85,1.77,1.77,0,0,1,.15-.73,2.46,2.46,0,0,1,.45-.67,7,7,0,0,1,.6-.57,1,1,0,0,1,.61-.2,1,1,0,0,1,.62.19l.59.41a3.54,3.54,0,0,0,.78.41,3.21,3.21,0,0,0,1.2.19,2.26,2.26,0,0,0,.94-.19,2,2,0,0,0,.75-.54,2.89,2.89,0,0,0,.5-.85,2.94,2.94,0,0,0,.19-1.09V22.53a1.23,1.23,0,0,1,.51-.94,2.49,2.49,0,0,1,1.34-.29,2.21,2.21,0,0,1,1.25.27,1.06,1.06,0,0,1,.46.69,4.29,4.29,0,0,1,.09.9V33a5.88,5.88,0,0,1-.53,2.54,5.57,5.57,0,0,1-1.4,1.87,6,6,0,0,1-2,1.16A6.23,6.23,0,0,1,146.45,39Zm0-9.1a2.21,2.21,0,0,0,1.2-.33,2.47,2.47,0,0,0,1.15-2.14,2.47,2.47,0,0,0-.31-1.25,2.39,2.39,0,0,0-.85-.88,2.35,2.35,0,0,0-1.21-.32,2.21,2.21,0,0,0-1.2.33,2.56,2.56,0,0,0-.84.89,2.47,2.47,0,0,0-.32,1.25,2.36,2.36,0,0,0,.33,1.23,2.5,2.5,0,0,0,.86.88A2.15,2.15,0,0,0,146.43,29.9Z"/><path class="cls-2" d="M160.5,33.84a5.21,5.21,0,0,1-2.17-.46,5.33,5.33,0,0,1-1.75-1.26,5.59,5.59,0,0,1-1.16-1.93,6.81,6.81,0,0,1-.42-2.43V23.23a5.25,5.25,0,0,1,.08-.92,1.11,1.11,0,0,1,.49-.7,3.25,3.25,0,0,1,2.64,0,1.07,1.07,0,0,1,.47.71,4.69,4.69,0,0,1,.09.94v4.5A2.92,2.92,0,0,0,159,29a1.77,1.77,0,0,0,.78.82,2.54,2.54,0,0,0,1.21.27,2.45,2.45,0,0,0,1.24-.29,2.08,2.08,0,0,0,.8-.81,2.57,2.57,0,0,0,.28-1.25V23.21a5.25,5.25,0,0,1,.08-.92,1.07,1.07,0,0,1,.49-.69,2.59,2.59,0,0,1,1.33-.26,2.39,2.39,0,0,1,1.31.27,1.11,1.11,0,0,1,.47.72,4.46,4.46,0,0,1,.09.91V32a4.19,4.19,0,0,1-.09.89,1,1,0,0,1-.49.66,2.52,2.52,0,0,1-1.3.25,2.92,2.92,0,0,1-1.05-.15,1.31,1.31,0,0,1-.55-.38.94.94,0,0,1-.21-.47,2.57,2.57,0,0,1,0-.45l.33-.28a2.49,2.49,0,0,1-.33.39,5.91,5.91,0,0,1-.66.57,4.43,4.43,0,0,1-1,.54A3.4,3.4,0,0,1,160.5,33.84Z"/><path class="cls-2" d="M171.5,33.87a2.37,2.37,0,0,1-1.31-.27,1.07,1.07,0,0,1-.48-.71,4.7,4.7,0,0,1-.08-.92V23.24a4.42,4.42,0,0,1,.09-.92,1,1,0,0,1,.49-.69,3.45,3.45,0,0,1,2.58,0,1,1,0,0,1,.49.55,1.63,1.63,0,0,1,.1.53l-.3.15c0-.06.12-.18.26-.36a4,4,0,0,1,.59-.55,3.9,3.9,0,0,1,.91-.49,3.66,3.66,0,0,1,1.24-.2c.19,0,.39,0,.62,0a5.2,5.2,0,0,1,.7.15,3.32,3.32,0,0,1,.66.3,1.54,1.54,0,0,1,.48.47,1.13,1.13,0,0,1,.19.67,3.12,3.12,0,0,1-.47,1.74,1.42,1.42,0,0,1-1.2.71,2,2,0,0,1-.6-.06.87.87,0,0,1-.29-.15,1.1,1.1,0,0,0-.26-.15,1.65,1.65,0,0,0-.55-.07,2.84,2.84,0,0,0-.72.1,1.93,1.93,0,0,0-.62.32,1.5,1.5,0,0,0-.45.52,1.52,1.52,0,0,0-.17.71V32a4.53,4.53,0,0,1-.09.91,1.06,1.06,0,0,1-.48.69A2.71,2.71,0,0,1,171.5,33.87Z"/><path class="cls-2" d="M190.9,33.85a2.39,2.39,0,0,1-1.37-.32.91.91,0,0,1-.43-.8l.25-.43a2.72,2.72,0,0,1-.57.61,4.08,4.08,0,0,1-1.12.65,4.15,4.15,0,0,1-1.66.29,5,5,0,0,1-2.19-.5A5.85,5.85,0,0,1,182,32a7,7,0,0,1-1.28-2,6.16,6.16,0,0,1-.47-2.38,5.9,5.9,0,0,1,.48-2.34,6.62,6.62,0,0,1,1.28-2,6.51,6.51,0,0,1,1.84-1.36,5,5,0,0,1,2.18-.5,4.3,4.3,0,0,1,1.57.26,4.16,4.16,0,0,1,1.09.62,3.43,3.43,0,0,1,.66.67l-.22-.35a1,1,0,0,1,.43-.91,2.44,2.44,0,0,1,1.39-.31,2.34,2.34,0,0,1,1.29.27,1.11,1.11,0,0,1,.47.73,4.86,4.86,0,0,1,.09.95V32a4.73,4.73,0,0,1-.09.93,1.07,1.07,0,0,1-.48.71A2.38,2.38,0,0,1,190.9,33.85Zm-4.37-3.72a2.21,2.21,0,0,0,1.2-.34,2.56,2.56,0,0,0,1.17-2.19,2.46,2.46,0,0,0-.32-1.28,2.4,2.4,0,0,0-.87-.89,2.36,2.36,0,0,0-1.23-.33,2.33,2.33,0,0,0-1.26.34A2.53,2.53,0,0,0,184,27.65a2.34,2.34,0,0,0,.34,1.24,2.56,2.56,0,0,0,.92.9A2.59,2.59,0,0,0,186.53,30.13Z"/><path class="cls-2" d="M199.77,34.08a8.73,8.73,0,0,1-3-.59,5.07,5.07,0,0,1-1.25-.67,1.28,1.28,0,0,1-.56-.89,1.41,1.41,0,0,1,0-.54,2.37,2.37,0,0,1,.23-.6,4.19,4.19,0,0,1,.44-.66.92.92,0,0,1,.43-.35,1,1,0,0,1,.59,0,3,3,0,0,1,.8.26c.27.12.54.26.83.4a8.47,8.47,0,0,0,.87.38,2.93,2.93,0,0,0,.93.16,2.27,2.27,0,0,0,1.08-.21.65.65,0,0,0,.39-.59.64.64,0,0,0-.16-.45,1.27,1.27,0,0,0-.45-.3c-.19-.08-.42-.16-.67-.24l-.82-.21c-.28-.07-.58-.15-.9-.25a8.93,8.93,0,0,1-1.18-.45,3.7,3.7,0,0,1-1.05-.72,3.15,3.15,0,0,1-.74-1.07A4,4,0,0,1,195.3,25a3.59,3.59,0,0,1,.57-2.05,3.48,3.48,0,0,1,1.66-1.26,7.2,7.2,0,0,1,2.7-.44c.3,0,.6,0,.9.05a4.53,4.53,0,0,1,.89.18,6.74,6.74,0,0,1,.86.3,5.16,5.16,0,0,1,.85.42,1.14,1.14,0,0,1,.78.95,2.1,2.1,0,0,1-.43,1.25,1.92,1.92,0,0,1-.58.59.92.92,0,0,1-.62.14,4.13,4.13,0,0,1-.86-.34,9.71,9.71,0,0,0-1-.44,2.84,2.84,0,0,0-1-.2,2.18,2.18,0,0,0-.72.11,1.11,1.11,0,0,0-.45.3.64.64,0,0,0-.15.44.69.69,0,0,0,.18.51,1.42,1.42,0,0,0,.51.31,5.58,5.58,0,0,0,.75.23l.93.2a13.35,13.35,0,0,1,1.39.34,4.69,4.69,0,0,1,1.3.61,3.12,3.12,0,0,1,.95,1.08,3.76,3.76,0,0,1,.36,1.77,3.58,3.58,0,0,1-1.38,3A6.38,6.38,0,0,1,199.77,34.08Z"/><path class="cls-2" d="M219.1,33.87a5,5,0,0,1-2.18-.49A5.83,5.83,0,0,1,215.1,32a6.88,6.88,0,0,1-1.26-2,6.27,6.27,0,0,1-.46-2.41,6.06,6.06,0,0,1,.46-2.34,6.62,6.62,0,0,1,1.28-2A6.24,6.24,0,0,1,217,21.92a4.88,4.88,0,0,1,2.15-.5,4.28,4.28,0,0,1,3.63,1.83,6.42,6.42,0,0,1,.94,2,9.14,9.14,0,0,1,.35,2.35,9.28,9.28,0,0,1-.3,2.4,6,6,0,0,1-.93,2,4.58,4.58,0,0,1-1.55,1.39A4.38,4.38,0,0,1,219.1,33.87Zm.5-3.7a2.16,2.16,0,0,0,1.21-.34,2.56,2.56,0,0,0,.88-.91,2.42,2.42,0,0,0,.34-1.27,2.52,2.52,0,0,0-1.2-2.17,2.38,2.38,0,0,0-1.25-.33,2.41,2.41,0,0,0-1.24.32,2.28,2.28,0,0,0-.87.9,2.6,2.6,0,0,0-.32,1.27,2.52,2.52,0,0,0,.33,1.28,2.48,2.48,0,0,0,2.12,1.25ZM224,33.9a2.22,2.22,0,0,1-1.26-.28,1.25,1.25,0,0,1-.54-.85V17.62a6.73,6.73,0,0,1,.06-.91,1,1,0,0,1,.44-.71,2.16,2.16,0,0,1,1.28-.28,2.36,2.36,0,0,1,1.32.27,1.08,1.08,0,0,1,.47.68,4,4,0,0,1,.1.93V32a4.46,4.46,0,0,1-.09.91,1.12,1.12,0,0,1-.48.71A2.27,2.27,0,0,1,224,33.9Z"/><path class="cls-2" d="M234.55,34.13a7.09,7.09,0,0,1-3-.58A5.84,5.84,0,0,1,229.48,32a6.25,6.25,0,0,1-1.2-2.09,6.83,6.83,0,0,1-.4-2.3,6.38,6.38,0,0,1,.85-3.32A6.11,6.11,0,0,1,231.09,22a7,7,0,0,1,3.47-.84,6.42,6.42,0,0,1,2.51.47,5.23,5.23,0,0,1,1.75,1.2,4.89,4.89,0,0,1,1,1.59,4.28,4.28,0,0,1,.34,1.62,2.82,2.82,0,0,1-.66,2.05,2.29,2.29,0,0,1-1.69.68h-6a1.71,1.71,0,0,0,.46,1.08,2.77,2.77,0,0,0,1,.7,3.41,3.41,0,0,0,1.32.25,8.22,8.22,0,0,0,1-.06,3.7,3.7,0,0,0,.79-.18l.58-.22c.18-.08.34-.14.49-.19a2.41,2.41,0,0,1,.43-.1,1.08,1.08,0,0,1,.67.21,2.06,2.06,0,0,1,.58.72,1.93,1.93,0,0,1,.23.52,2.23,2.23,0,0,1,.07.5,1.35,1.35,0,0,1-.62,1.09,4.85,4.85,0,0,1-1.72.74A11.56,11.56,0,0,1,234.55,34.13Zm-2.67-7.4h4a.92.92,0,0,0,.57-.14.59.59,0,0,0,.2-.53,1.23,1.23,0,0,0-.27-.78,1.8,1.8,0,0,0-.74-.54,3,3,0,0,0-1.09-.18,2.78,2.78,0,0,0-1.34.29,2.32,2.32,0,0,0-.94.8A1.89,1.89,0,0,0,231.88,26.73Z"/><path class="cls-2" d="M250.62,33.91a2.4,2.4,0,0,1-1.3-.27,1.11,1.11,0,0,1-.48-.71,4.63,4.63,0,0,1-.09-.92V17.64a4.69,4.69,0,0,1,.09-.94,1.06,1.06,0,0,1,.48-.7,2.59,2.59,0,0,1,1.33-.26,2.15,2.15,0,0,1,1.27.28,1.08,1.08,0,0,1,.45.71,3.88,3.88,0,0,1,.05.91V32.79a1.29,1.29,0,0,1-.52.85A2.34,2.34,0,0,1,250.62,33.91Zm4.85,0a4.41,4.41,0,0,1-2.15-.51A4.62,4.62,0,0,1,251.79,32a6.45,6.45,0,0,1-.93-2,8.5,8.5,0,0,1-.28-2.4,8.66,8.66,0,0,1,.32-2.35,6.31,6.31,0,0,1,.94-2,4.32,4.32,0,0,1,3.64-1.83,4.88,4.88,0,0,1,2.15.5,6.4,6.4,0,0,1,1.84,1.37,6.47,6.47,0,0,1,1.27,2,6,6,0,0,1,.46,2.34,6.3,6.3,0,0,1-.46,2.41,6.54,6.54,0,0,1-1.27,2,5.86,5.86,0,0,1-1.82,1.37A5.1,5.1,0,0,1,255.47,33.89Zm-.49-3.7a2.41,2.41,0,0,0,1.25-.33,2.59,2.59,0,0,0,.88-.92,2.39,2.39,0,0,0,.34-1.27,2.64,2.64,0,0,0-.32-1.28,2.4,2.4,0,0,0-.89-.9,2.49,2.49,0,0,0-1.24-.32,2.36,2.36,0,0,0-1.23.33,2.45,2.45,0,0,0-.88.9,2.57,2.57,0,0,0-.31,1.27,2.5,2.5,0,0,0,1.2,2.18A2.18,2.18,0,0,0,255,30.19Z"/><path class="cls-2" d="M269.37,34.13a6.42,6.42,0,0,1-2.33-.47,7.08,7.08,0,0,1-2.12-1.31,6.53,6.53,0,0,1-1.51-2,6.15,6.15,0,0,1-.56-2.64,6,6,0,0,1,.52-2.51,6.63,6.63,0,0,1,1.41-2.06,6.75,6.75,0,0,1,2.06-1.41,6.16,6.16,0,0,1,2.49-.51,6.23,6.23,0,0,1,3.26.86,6.56,6.56,0,0,1,2.34,2.34,6.71,6.71,0,0,1,.31,6,6.5,6.5,0,0,1-1.5,2,6.57,6.57,0,0,1-2.08,1.29A6.38,6.38,0,0,1,269.37,34.13Zm0-3.78a2.81,2.81,0,0,0,1.22-.3,2.67,2.67,0,0,0,1.05-.9,2.6,2.6,0,0,0,.43-1.52,2.74,2.74,0,0,0-.35-1.4,2.55,2.55,0,0,0-1-.94A2.84,2.84,0,0,0,269.3,25,2.59,2.59,0,0,0,267,26.26a2.6,2.6,0,0,0-.37,1.39,2.68,2.68,0,0,0,.41,1.51,2.49,2.49,0,0,0,1,.9A3,3,0,0,0,269.33,30.35Z"/><path class="cls-2" d="M282.62,33.93a14.14,14.14,0,0,1-1.82-.1,3.64,3.64,0,0,1-1.35-.4,2.42,2.42,0,0,1-.9-.84,3.92,3.92,0,0,1-.52-1.37,10,10,0,0,1-.18-2.06V17.61a3.84,3.84,0,0,1,.1-.93,1.18,1.18,0,0,1,.49-.7,2.37,2.37,0,0,1,1.31-.27,2.34,2.34,0,0,1,1.29.27,1.19,1.19,0,0,1,.48.7,3.9,3.9,0,0,1,.1.93V29a6.19,6.19,0,0,0,0,.67,1,1,0,0,0,.15.41.54.54,0,0,0,.32.2,2.34,2.34,0,0,0,.52,0,2.6,2.6,0,0,1,.61.07.89.89,0,0,1,.54.45,2.47,2.47,0,0,1,.22,1.25,2.78,2.78,0,0,1-.22,1.3.88.88,0,0,1-.54.48A2.73,2.73,0,0,1,282.62,33.93Z"/><path class="cls-2" d="M287.86,19.64a2.47,2.47,0,0,1-1.35-.28,1.09,1.09,0,0,1-.49-.72,4.86,4.86,0,0,1-.09-.95,4.92,4.92,0,0,1,.09-1,1.09,1.09,0,0,1,.5-.7,2.71,2.71,0,0,1,1.36-.26,2.37,2.37,0,0,1,1.33.28,1.09,1.09,0,0,1,.49.72,6,6,0,0,1,.08,1,5.62,5.62,0,0,1-.08.92,1.13,1.13,0,0,1-.49.72A2.65,2.65,0,0,1,287.86,19.64Zm0,14.3a2.47,2.47,0,0,1-1.33-.27,1,1,0,0,1-.47-.7,5.31,5.31,0,0,1-.08-.91V23.34a4.63,4.63,0,0,1,.09-.92,1.08,1.08,0,0,1,.49-.7,2.52,2.52,0,0,1,1.32-.26,2.24,2.24,0,0,1,1.29.28,1.1,1.1,0,0,1,.47.71,4.62,4.62,0,0,1,.09.94v8.7a5.4,5.4,0,0,1-.08.91,1.06,1.06,0,0,1-.48.69A2.62,2.62,0,0,1,287.85,33.94Z"/><path class="cls-2" d="M293.18,21.64h2.75l3.45-.1a4.29,4.29,0,0,1,.9.09,1.1,1.1,0,0,1,.7.49,2.46,2.46,0,0,1,.27,1.32,2.26,2.26,0,0,1-.26,1.25,1.15,1.15,0,0,1-.69.52,3.8,3.8,0,0,1-.92.11l-3.28-.08-3,0a1.25,1.25,0,0,1-1-.47,2.44,2.44,0,0,1-.29-1.39,2.11,2.11,0,0,1,.35-1.33A1.26,1.26,0,0,1,293.18,21.64Zm5.64,12.3a7.92,7.92,0,0,1-2.2-.27,3.7,3.7,0,0,1-1.51-.85,3.6,3.6,0,0,1-.87-1.47,6.89,6.89,0,0,1-.29-2.11V19.12a5.12,5.12,0,0,1,.08-.93,1.06,1.06,0,0,1,.49-.66,2.41,2.41,0,0,1,1.3-.26,2.38,2.38,0,0,1,1.3.27,1.12,1.12,0,0,1,.49.72,4.46,4.46,0,0,1,.09.91v9.92a3.13,3.13,0,0,0,.06.67.8.8,0,0,0,.19.38.69.69,0,0,0,.35.18,2.79,2.79,0,0,0,.55.05,4.16,4.16,0,0,1,1,.1,1.1,1.1,0,0,1,.66.45,2.14,2.14,0,0,1,.23,1.17,2.38,2.38,0,0,1-.27,1.3,1.07,1.07,0,0,1-.71.48A5.53,5.53,0,0,1,298.82,33.94Z"/><path class="cls-2" d="M313.37,33.93A2.33,2.33,0,0,1,312,33.6a.92.92,0,0,1-.43-.8l.25-.42a3,3,0,0,1-.57.61,4.45,4.45,0,0,1-1.11.65,4.39,4.39,0,0,1-1.67.28,4.87,4.87,0,0,1-2.18-.5A5.63,5.63,0,0,1,304.45,32a7,7,0,0,1-1.27-2,6,6,0,0,1-.48-2.37,5.83,5.83,0,0,1,.48-2.34,6.7,6.7,0,0,1,1.29-2A6.42,6.42,0,0,1,306.31,22a4.9,4.9,0,0,1,2.17-.5,4.14,4.14,0,0,1,1.58.27,4.24,4.24,0,0,1,1.08.61,3,3,0,0,1,.66.68l-.22-.35a1.07,1.07,0,0,1,.44-.92,2.48,2.48,0,0,1,1.39-.31,2.21,2.21,0,0,1,1.28.28,1.11,1.11,0,0,1,.48.72,4.87,4.87,0,0,1,.08.95V32a4.63,4.63,0,0,1-.09.92,1.14,1.14,0,0,1-.47.72A2.52,2.52,0,0,1,313.37,33.93ZM309,30.2a2.13,2.13,0,0,0,1.2-.34,2.57,2.57,0,0,0,.85-.91,2.51,2.51,0,0,0,.33-1.27,2.48,2.48,0,0,0-.33-1.29,2.4,2.4,0,0,0-.87-.89,2.48,2.48,0,0,0-2.49,0,2.7,2.7,0,0,0-.9.91,2.6,2.6,0,0,0-.34,1.3,2.31,2.31,0,0,0,.34,1.24,2.41,2.41,0,0,0,.92.9A2.49,2.49,0,0,0,309,30.2Z"/><path class="cls-2" d="M322.25,34.16a8.15,8.15,0,0,1-1.48-.15,8.68,8.68,0,0,1-1.53-.44,4.9,4.9,0,0,1-1.25-.68,1.28,1.28,0,0,1-.57-.89,1.37,1.37,0,0,1,0-.53,2.19,2.19,0,0,1,.22-.6,5.08,5.08,0,0,1,.44-.67.82.82,0,0,1,.44-.34,1,1,0,0,1,.58,0,3.63,3.63,0,0,1,.81.26l.82.4a7.4,7.4,0,0,0,.87.38,2.68,2.68,0,0,0,.93.16,2.32,2.32,0,0,0,1.09-.21.64.64,0,0,0,.38-.59.6.6,0,0,0-.16-.45,1.6,1.6,0,0,0-.45-.3,5.18,5.18,0,0,0-.67-.23l-.81-.22a8.76,8.76,0,0,1-.9-.25,7.83,7.83,0,0,1-1.19-.45,4,4,0,0,1-1-.71,3.24,3.24,0,0,1-.74-1.08,4,4,0,0,1-.27-1.56,3.59,3.59,0,0,1,.56-2.05A3.53,3.53,0,0,1,320,21.72a7.43,7.43,0,0,1,2.71-.44c.29,0,.6,0,.9,0a6.54,6.54,0,0,1,.88.18,7.47,7.47,0,0,1,.87.3c.28.12.56.26.85.42a1.13,1.13,0,0,1,.77,1,2.05,2.05,0,0,1-.43,1.25A2,2,0,0,1,326,25a.89.89,0,0,1-.63.14,4.36,4.36,0,0,1-.86-.34c-.31-.16-.63-.3-1-.44a2.89,2.89,0,0,0-1-.2,2.18,2.18,0,0,0-.72.11,1.11,1.11,0,0,0-.45.3.71.71,0,0,0-.15.44.66.66,0,0,0,.19.51,1.4,1.4,0,0,0,.51.32,4.87,4.87,0,0,0,.75.22c.28.07.59.14.92.2s.91.2,1.39.34a4.71,4.71,0,0,1,1.3.61,3,3,0,0,1,.95,1.08,3.78,3.78,0,0,1,.36,1.78,3.57,3.57,0,0,1-1.38,3A6.33,6.33,0,0,1,322.25,34.16Z"/><path class="cls-3" d="M120.43,33.84a2.38,2.38,0,0,1-1.3-.27,1.05,1.05,0,0,1-.49-.71,4.7,4.7,0,0,1-.09-.92V18.26a2,2,0,0,1,.43-1.49,2.2,2.2,0,0,1,1.52-.41H130a5.46,5.46,0,0,1,.93.08,1.08,1.08,0,0,1,.68.49,2.45,2.45,0,0,1,.26,1.35,2.38,2.38,0,0,1-.27,1.3,1.1,1.1,0,0,1-.71.49,4.76,4.76,0,0,1-.94.09h-7.55v3.23h5.12a4.66,4.66,0,0,1,.89.08.91.91,0,0,1,.61.42,2.34,2.34,0,0,1,.23,1.2A2,2,0,0,1,129,26.2a.93.93,0,0,1-.62.42,5,5,0,0,1-.9.07h-5.1V32a4,4,0,0,1-.1.92,1.11,1.11,0,0,1-.49.69A2.43,2.43,0,0,1,120.43,33.84Z"/><path class="cls-3" d="M136.28,19.55a2.52,2.52,0,0,1-1.35-.28,1.08,1.08,0,0,1-.48-.73,5.11,5.11,0,0,1,0-1.91,1.06,1.06,0,0,1,.5-.7,2.69,2.69,0,0,1,1.36-.26,2.37,2.37,0,0,1,1.33.28,1.11,1.11,0,0,1,.48.72,5,5,0,0,1,.09,1,4.7,4.7,0,0,1-.09.92,1.05,1.05,0,0,1-.49.71A2.48,2.48,0,0,1,136.28,19.55Zm0,14.3a2.47,2.47,0,0,1-1.33-.27,1,1,0,0,1-.47-.7,5.31,5.31,0,0,1-.08-.91V23.24a4.53,4.53,0,0,1,.09-.91,1.06,1.06,0,0,1,.48-.7,2.59,2.59,0,0,1,1.33-.26,2.24,2.24,0,0,1,1.29.28,1.14,1.14,0,0,1,.47.71,4.62,4.62,0,0,1,.09.94V32a4.53,4.53,0,0,1-.09.91,1,1,0,0,1-.47.69A2.62,2.62,0,0,1,136.28,33.85Z"/><path class="cls-3" d="M146,33.53a5,5,0,0,1-2.16-.49,5.84,5.84,0,0,1-1.79-1.34,6.76,6.76,0,0,1-1.22-1.95,6.08,6.08,0,0,1-.45-2.33,6,6,0,0,1,.45-2.31,6.3,6.3,0,0,1,3-3.25,4.86,4.86,0,0,1,2.11-.48,3.71,3.71,0,0,1,1.9.44,3.2,3.2,0,0,1,1.25,1.25,6.13,6.13,0,0,1,.71,1.92,11.82,11.82,0,0,1,.24,2.49,11.33,11.33,0,0,1-.41,3.21,4.22,4.22,0,0,1-1.31,2.1A3.58,3.58,0,0,1,146,33.53Zm.45,5.47a6.9,6.9,0,0,1-1.76-.22,7,7,0,0,1-1.59-.61,4.28,4.28,0,0,1-1.15-.8,1.23,1.23,0,0,1-.43-.85,1.77,1.77,0,0,1,.15-.73,2.46,2.46,0,0,1,.45-.67,7,7,0,0,1,.6-.57,1,1,0,0,1,.61-.2,1,1,0,0,1,.62.19l.59.41a3.54,3.54,0,0,0,.78.41,3.21,3.21,0,0,0,1.2.19,2.26,2.26,0,0,0,.94-.19,2,2,0,0,0,.75-.54,2.89,2.89,0,0,0,.5-.85,2.94,2.94,0,0,0,.19-1.09V22.53a1.23,1.23,0,0,1,.51-.94,2.49,2.49,0,0,1,1.34-.29,2.21,2.21,0,0,1,1.25.27,1.06,1.06,0,0,1,.46.69,4.29,4.29,0,0,1,.09.9V33a5.88,5.88,0,0,1-.53,2.54,5.57,5.57,0,0,1-1.4,1.87,6,6,0,0,1-2,1.16A6.23,6.23,0,0,1,146.45,39Zm0-9.1a2.21,2.21,0,0,0,1.2-.33,2.47,2.47,0,0,0,1.15-2.14,2.47,2.47,0,0,0-.31-1.25,2.39,2.39,0,0,0-.85-.88,2.35,2.35,0,0,0-1.21-.32,2.21,2.21,0,0,0-1.2.33,2.56,2.56,0,0,0-.84.89,2.47,2.47,0,0,0-.32,1.25,2.36,2.36,0,0,0,.33,1.23,2.5,2.5,0,0,0,.86.88A2.15,2.15,0,0,0,146.43,29.9Z"/><path class="cls-3" d="M160.5,33.84a5.21,5.21,0,0,1-2.17-.46,5.33,5.33,0,0,1-1.75-1.26,5.59,5.59,0,0,1-1.16-1.93,6.81,6.81,0,0,1-.42-2.43V23.23a5.25,5.25,0,0,1,.08-.92,1.11,1.11,0,0,1,.49-.7,3.25,3.25,0,0,1,2.64,0,1.07,1.07,0,0,1,.47.71,4.69,4.69,0,0,1,.09.94v4.5A2.92,2.92,0,0,0,159,29a1.77,1.77,0,0,0,.78.82,2.54,2.54,0,0,0,1.21.27,2.45,2.45,0,0,0,1.24-.29,2.08,2.08,0,0,0,.8-.81,2.57,2.57,0,0,0,.28-1.25V23.21a5.25,5.25,0,0,1,.08-.92,1.07,1.07,0,0,1,.49-.69,2.59,2.59,0,0,1,1.33-.26,2.39,2.39,0,0,1,1.31.27,1.11,1.11,0,0,1,.47.72,4.46,4.46,0,0,1,.09.91V32a4.19,4.19,0,0,1-.09.89,1,1,0,0,1-.49.66,2.52,2.52,0,0,1-1.3.25,2.92,2.92,0,0,1-1.05-.15,1.31,1.31,0,0,1-.55-.38.94.94,0,0,1-.21-.47,2.57,2.57,0,0,1,0-.45l.33-.28a2.49,2.49,0,0,1-.33.39,5.91,5.91,0,0,1-.66.57,4.43,4.43,0,0,1-1,.54A3.4,3.4,0,0,1,160.5,33.84Z"/><path class="cls-3" d="M171.5,33.87a2.37,2.37,0,0,1-1.31-.27,1.07,1.07,0,0,1-.48-.71,4.7,4.7,0,0,1-.08-.92V23.24a4.42,4.42,0,0,1,.09-.92,1,1,0,0,1,.49-.69,3.45,3.45,0,0,1,2.58,0,1,1,0,0,1,.49.55,1.63,1.63,0,0,1,.1.53l-.3.15c0-.06.12-.18.26-.36a4,4,0,0,1,.59-.55,3.9,3.9,0,0,1,.91-.49,3.66,3.66,0,0,1,1.24-.2c.19,0,.39,0,.62,0a5.2,5.2,0,0,1,.7.15,3.32,3.32,0,0,1,.66.3,1.54,1.54,0,0,1,.48.47,1.13,1.13,0,0,1,.19.67,3.12,3.12,0,0,1-.47,1.74,1.42,1.42,0,0,1-1.2.71,2,2,0,0,1-.6-.06.87.87,0,0,1-.29-.15,1.1,1.1,0,0,0-.26-.15,1.65,1.65,0,0,0-.55-.07,2.84,2.84,0,0,0-.72.1,1.93,1.93,0,0,0-.62.32,1.5,1.5,0,0,0-.45.52,1.52,1.52,0,0,0-.17.71V32a4.53,4.53,0,0,1-.09.91,1.06,1.06,0,0,1-.48.69A2.71,2.71,0,0,1,171.5,33.87Z"/><path class="cls-3" d="M190.9,33.85a2.39,2.39,0,0,1-1.37-.32.91.91,0,0,1-.43-.8l.25-.43a2.72,2.72,0,0,1-.57.61,4.08,4.08,0,0,1-1.12.65,4.15,4.15,0,0,1-1.66.29,5,5,0,0,1-2.19-.5A5.85,5.85,0,0,1,182,32a7,7,0,0,1-1.28-2,6.16,6.16,0,0,1-.47-2.38,5.9,5.9,0,0,1,.48-2.34,6.62,6.62,0,0,1,1.28-2,6.51,6.51,0,0,1,1.84-1.36,5,5,0,0,1,2.18-.5,4.3,4.3,0,0,1,1.57.26,4.16,4.16,0,0,1,1.09.62,3.43,3.43,0,0,1,.66.67l-.22-.35a1,1,0,0,1,.43-.91,2.44,2.44,0,0,1,1.39-.31,2.34,2.34,0,0,1,1.29.27,1.11,1.11,0,0,1,.47.73,4.86,4.86,0,0,1,.09.95V32a4.73,4.73,0,0,1-.09.93,1.07,1.07,0,0,1-.48.71A2.38,2.38,0,0,1,190.9,33.85Zm-4.37-3.72a2.21,2.21,0,0,0,1.2-.34,2.56,2.56,0,0,0,1.17-2.19,2.46,2.46,0,0,0-.32-1.28,2.4,2.4,0,0,0-.87-.89,2.36,2.36,0,0,0-1.23-.33,2.33,2.33,0,0,0-1.26.34A2.53,2.53,0,0,0,184,27.65a2.34,2.34,0,0,0,.34,1.24,2.56,2.56,0,0,0,.92.9A2.59,2.59,0,0,0,186.53,30.13Z"/><path class="cls-3" d="M199.77,34.08a8.73,8.73,0,0,1-3-.59,5.07,5.07,0,0,1-1.25-.67,1.28,1.28,0,0,1-.56-.89,1.41,1.41,0,0,1,0-.54,2.37,2.37,0,0,1,.23-.6,4.19,4.19,0,0,1,.44-.66.92.92,0,0,1,.43-.35,1,1,0,0,1,.59,0,3,3,0,0,1,.8.26c.27.12.54.26.83.4a8.47,8.47,0,0,0,.87.38,2.93,2.93,0,0,0,.93.16,2.27,2.27,0,0,0,1.08-.21.65.65,0,0,0,.39-.59.64.64,0,0,0-.16-.45,1.27,1.27,0,0,0-.45-.3c-.19-.08-.42-.16-.67-.24l-.82-.21c-.28-.07-.58-.15-.9-.25a8.93,8.93,0,0,1-1.18-.45,3.7,3.7,0,0,1-1.05-.72,3.15,3.15,0,0,1-.74-1.07A4,4,0,0,1,195.3,25a3.59,3.59,0,0,1,.57-2.05,3.48,3.48,0,0,1,1.66-1.26,7.2,7.2,0,0,1,2.7-.44c.3,0,.6,0,.9.05a4.53,4.53,0,0,1,.89.18,6.74,6.74,0,0,1,.86.3,5.16,5.16,0,0,1,.85.42,1.14,1.14,0,0,1,.78.95,2.1,2.1,0,0,1-.43,1.25,1.92,1.92,0,0,1-.58.59.92.92,0,0,1-.62.14,4.13,4.13,0,0,1-.86-.34,9.71,9.71,0,0,0-1-.44,2.84,2.84,0,0,0-1-.2,2.18,2.18,0,0,0-.72.11,1.11,1.11,0,0,0-.45.3.64.64,0,0,0-.15.44.69.69,0,0,0,.18.51,1.42,1.42,0,0,0,.51.31,5.58,5.58,0,0,0,.75.23l.93.2a13.35,13.35,0,0,1,1.39.34,4.69,4.69,0,0,1,1.3.61,3.12,3.12,0,0,1,.95,1.08,3.76,3.76,0,0,1,.36,1.77,3.58,3.58,0,0,1-1.38,3A6.38,6.38,0,0,1,199.77,34.08Z"/><path class="cls-3" d="M219.1,33.87a5,5,0,0,1-2.18-.49A5.83,5.83,0,0,1,215.1,32a6.88,6.88,0,0,1-1.26-2,6.27,6.27,0,0,1-.46-2.41,6.06,6.06,0,0,1,.46-2.34,6.62,6.62,0,0,1,1.28-2A6.24,6.24,0,0,1,217,21.92a4.88,4.88,0,0,1,2.15-.5,4.28,4.28,0,0,1,3.63,1.83,6.42,6.42,0,0,1,.94,2,9.14,9.14,0,0,1,.35,2.35,9.28,9.28,0,0,1-.3,2.4,6,6,0,0,1-.93,2,4.58,4.58,0,0,1-1.55,1.39A4.38,4.38,0,0,1,219.1,33.87Zm.5-3.7a2.16,2.16,0,0,0,1.21-.34,2.56,2.56,0,0,0,.88-.91,2.42,2.42,0,0,0,.34-1.27,2.52,2.52,0,0,0-1.2-2.17,2.38,2.38,0,0,0-1.25-.33,2.41,2.41,0,0,0-1.24.32,2.28,2.28,0,0,0-.87.9,2.6,2.6,0,0,0-.32,1.27,2.52,2.52,0,0,0,.33,1.28,2.48,2.48,0,0,0,2.12,1.25ZM224,33.9a2.22,2.22,0,0,1-1.26-.28,1.25,1.25,0,0,1-.54-.85V17.62a6.73,6.73,0,0,1,.06-.91,1,1,0,0,1,.44-.71,2.16,2.16,0,0,1,1.28-.28,2.36,2.36,0,0,1,1.32.27,1.08,1.08,0,0,1,.47.68,4,4,0,0,1,.1.93V32a4.46,4.46,0,0,1-.09.91,1.12,1.12,0,0,1-.48.71A2.27,2.27,0,0,1,224,33.9Z"/><path class="cls-3" d="M234.55,34.13a7.09,7.09,0,0,1-3-.58A5.84,5.84,0,0,1,229.48,32a6.25,6.25,0,0,1-1.2-2.09,6.83,6.83,0,0,1-.4-2.3,6.38,6.38,0,0,1,.85-3.32A6.11,6.11,0,0,1,231.09,22a7,7,0,0,1,3.47-.84,6.42,6.42,0,0,1,2.51.47,5.23,5.23,0,0,1,1.75,1.2,4.89,4.89,0,0,1,1,1.59,4.28,4.28,0,0,1,.34,1.62,2.82,2.82,0,0,1-.66,2.05,2.29,2.29,0,0,1-1.69.68h-6a1.71,1.71,0,0,0,.46,1.08,2.77,2.77,0,0,0,1,.7,3.41,3.41,0,0,0,1.32.25,8.22,8.22,0,0,0,1-.06,3.7,3.7,0,0,0,.79-.18l.58-.22c.18-.08.34-.14.49-.19a2.41,2.41,0,0,1,.43-.1,1.08,1.08,0,0,1,.67.21,2.06,2.06,0,0,1,.58.72,1.93,1.93,0,0,1,.23.52,2.23,2.23,0,0,1,.07.5,1.35,1.35,0,0,1-.62,1.09,4.85,4.85,0,0,1-1.72.74A11.56,11.56,0,0,1,234.55,34.13Zm-2.67-7.4h4a.92.92,0,0,0,.57-.14.59.59,0,0,0,.2-.53,1.23,1.23,0,0,0-.27-.78,1.8,1.8,0,0,0-.74-.54,3,3,0,0,0-1.09-.18,2.78,2.78,0,0,0-1.34.29,2.32,2.32,0,0,0-.94.8A1.89,1.89,0,0,0,231.88,26.73Z"/><path class="cls-3" d="M250.62,33.91a2.4,2.4,0,0,1-1.3-.27,1.11,1.11,0,0,1-.48-.71,4.63,4.63,0,0,1-.09-.92V17.64a4.69,4.69,0,0,1,.09-.94,1.06,1.06,0,0,1,.48-.7,2.59,2.59,0,0,1,1.33-.26,2.15,2.15,0,0,1,1.27.28,1.08,1.08,0,0,1,.45.71,3.88,3.88,0,0,1,.05.91V32.79a1.29,1.29,0,0,1-.52.85A2.34,2.34,0,0,1,250.62,33.91Zm4.85,0a4.41,4.41,0,0,1-2.15-.51A4.62,4.62,0,0,1,251.79,32a6.45,6.45,0,0,1-.93-2,8.5,8.5,0,0,1-.28-2.4,8.66,8.66,0,0,1,.32-2.35,6.31,6.31,0,0,1,.94-2,4.32,4.32,0,0,1,3.64-1.83,4.88,4.88,0,0,1,2.15.5,6.4,6.4,0,0,1,1.84,1.37,6.47,6.47,0,0,1,1.27,2,6,6,0,0,1,.46,2.34,6.3,6.3,0,0,1-.46,2.41,6.54,6.54,0,0,1-1.27,2,5.86,5.86,0,0,1-1.82,1.37A5.1,5.1,0,0,1,255.47,33.89Zm-.49-3.7a2.41,2.41,0,0,0,1.25-.33,2.59,2.59,0,0,0,.88-.92,2.39,2.39,0,0,0,.34-1.27,2.64,2.64,0,0,0-.32-1.28,2.4,2.4,0,0,0-.89-.9,2.49,2.49,0,0,0-1.24-.32,2.36,2.36,0,0,0-1.23.33,2.45,2.45,0,0,0-.88.9,2.57,2.57,0,0,0-.31,1.27,2.5,2.5,0,0,0,1.2,2.18A2.18,2.18,0,0,0,255,30.19Z"/><path class="cls-3" d="M269.37,34.13a6.42,6.42,0,0,1-2.33-.47,7.08,7.08,0,0,1-2.12-1.31,6.53,6.53,0,0,1-1.51-2,6.15,6.15,0,0,1-.56-2.64,6,6,0,0,1,.52-2.51,6.63,6.63,0,0,1,1.41-2.06,6.75,6.75,0,0,1,2.06-1.41,6.16,6.16,0,0,1,2.49-.51,6.23,6.23,0,0,1,3.26.86,6.56,6.56,0,0,1,2.34,2.34,6.71,6.71,0,0,1,.31,6,6.5,6.5,0,0,1-1.5,2,6.57,6.57,0,0,1-2.08,1.29A6.38,6.38,0,0,1,269.37,34.13Zm0-3.78a2.81,2.81,0,0,0,1.22-.3,2.67,2.67,0,0,0,1.05-.9,2.6,2.6,0,0,0,.43-1.52,2.74,2.74,0,0,0-.35-1.4,2.55,2.55,0,0,0-1-.94A2.84,2.84,0,0,0,269.3,25,2.59,2.59,0,0,0,267,26.26a2.6,2.6,0,0,0-.37,1.39,2.68,2.68,0,0,0,.41,1.51,2.49,2.49,0,0,0,1,.9A3,3,0,0,0,269.33,30.35Z"/><path class="cls-3" d="M282.62,33.93a14.14,14.14,0,0,1-1.82-.1,3.64,3.64,0,0,1-1.35-.4,2.42,2.42,0,0,1-.9-.84,3.92,3.92,0,0,1-.52-1.37,10,10,0,0,1-.18-2.06V17.61a3.84,3.84,0,0,1,.1-.93,1.18,1.18,0,0,1,.49-.7,2.37,2.37,0,0,1,1.31-.27,2.34,2.34,0,0,1,1.29.27,1.19,1.19,0,0,1,.48.7,3.9,3.9,0,0,1,.1.93V29a6.19,6.19,0,0,0,0,.67,1,1,0,0,0,.15.41.54.54,0,0,0,.32.2,2.34,2.34,0,0,0,.52,0,2.6,2.6,0,0,1,.61.07.89.89,0,0,1,.54.45,2.47,2.47,0,0,1,.22,1.25,2.78,2.78,0,0,1-.22,1.3.88.88,0,0,1-.54.48A2.73,2.73,0,0,1,282.62,33.93Z"/><path class="cls-3" d="M287.86,19.64a2.47,2.47,0,0,1-1.35-.28,1.09,1.09,0,0,1-.49-.72,4.86,4.86,0,0,1-.09-.95,4.92,4.92,0,0,1,.09-1,1.09,1.09,0,0,1,.5-.7,2.71,2.71,0,0,1,1.36-.26,2.37,2.37,0,0,1,1.33.28,1.09,1.09,0,0,1,.49.72,6,6,0,0,1,.08,1,5.62,5.62,0,0,1-.08.92,1.13,1.13,0,0,1-.49.72A2.65,2.65,0,0,1,287.86,19.64Zm0,14.3a2.47,2.47,0,0,1-1.33-.27,1,1,0,0,1-.47-.7,5.31,5.31,0,0,1-.08-.91V23.34a4.63,4.63,0,0,1,.09-.92,1.08,1.08,0,0,1,.49-.7,2.52,2.52,0,0,1,1.32-.26,2.24,2.24,0,0,1,1.29.28,1.1,1.1,0,0,1,.47.71,4.62,4.62,0,0,1,.09.94v8.7a5.4,5.4,0,0,1-.08.91,1.06,1.06,0,0,1-.48.69A2.62,2.62,0,0,1,287.85,33.94Z"/><path class="cls-3" d="M293.18,21.64h2.75l3.45-.1a4.29,4.29,0,0,1,.9.09,1.1,1.1,0,0,1,.7.49,2.46,2.46,0,0,1,.27,1.32,2.26,2.26,0,0,1-.26,1.25,1.15,1.15,0,0,1-.69.52,3.8,3.8,0,0,1-.92.11l-3.28-.08-3,0a1.25,1.25,0,0,1-1-.47,2.44,2.44,0,0,1-.29-1.39,2.11,2.11,0,0,1,.35-1.33A1.26,1.26,0,0,1,293.18,21.64Zm5.64,12.3a7.92,7.92,0,0,1-2.2-.27,3.7,3.7,0,0,1-1.51-.85,3.6,3.6,0,0,1-.87-1.47,6.89,6.89,0,0,1-.29-2.11V19.12a5.12,5.12,0,0,1,.08-.93,1.06,1.06,0,0,1,.49-.66,2.41,2.41,0,0,1,1.3-.26,2.38,2.38,0,0,1,1.3.27,1.12,1.12,0,0,1,.49.72,4.46,4.46,0,0,1,.09.91v9.92a3.13,3.13,0,0,0,.06.67.8.8,0,0,0,.19.38.69.69,0,0,0,.35.18,2.79,2.79,0,0,0,.55.05,4.16,4.16,0,0,1,1,.1,1.1,1.1,0,0,1,.66.45,2.14,2.14,0,0,1,.23,1.17,2.38,2.38,0,0,1-.27,1.3,1.07,1.07,0,0,1-.71.48A5.53,5.53,0,0,1,298.82,33.94Z"/><path class="cls-3" d="M313.37,33.93A2.33,2.33,0,0,1,312,33.6a.92.92,0,0,1-.43-.8l.25-.42a3,3,0,0,1-.57.61,4.45,4.45,0,0,1-1.11.65,4.39,4.39,0,0,1-1.67.28,4.87,4.87,0,0,1-2.18-.5A5.63,5.63,0,0,1,304.45,32a7,7,0,0,1-1.27-2,6,6,0,0,1-.48-2.37,5.83,5.83,0,0,1,.48-2.34,6.7,6.7,0,0,1,1.29-2A6.42,6.42,0,0,1,306.31,22a4.9,4.9,0,0,1,2.17-.5,4.14,4.14,0,0,1,1.58.27,4.24,4.24,0,0,1,1.08.61,3,3,0,0,1,.66.68l-.22-.35a1.07,1.07,0,0,1,.44-.92,2.48,2.48,0,0,1,1.39-.31,2.21,2.21,0,0,1,1.28.28,1.11,1.11,0,0,1,.48.72,4.87,4.87,0,0,1,.08.95V32a4.63,4.63,0,0,1-.09.92,1.14,1.14,0,0,1-.47.72A2.52,2.52,0,0,1,313.37,33.93ZM309,30.2a2.13,2.13,0,0,0,1.2-.34,2.57,2.57,0,0,0,.85-.91,2.51,2.51,0,0,0,.33-1.27,2.48,2.48,0,0,0-.33-1.29,2.4,2.4,0,0,0-.87-.89,2.48,2.48,0,0,0-2.49,0,2.7,2.7,0,0,0-.9.91,2.6,2.6,0,0,0-.34,1.3,2.31,2.31,0,0,0,.34,1.24,2.41,2.41,0,0,0,.92.9A2.49,2.49,0,0,0,309,30.2Z"/><path class="cls-3" d="M322.25,34.16a8.15,8.15,0,0,1-1.48-.15,8.68,8.68,0,0,1-1.53-.44,4.9,4.9,0,0,1-1.25-.68,1.28,1.28,0,0,1-.57-.89,1.37,1.37,0,0,1,0-.53,2.19,2.19,0,0,1,.22-.6,5.08,5.08,0,0,1,.44-.67.82.82,0,0,1,.44-.34,1,1,0,0,1,.58,0,3.63,3.63,0,0,1,.81.26l.82.4a7.4,7.4,0,0,0,.87.38,2.68,2.68,0,0,0,.93.16,2.32,2.32,0,0,0,1.09-.21.64.64,0,0,0,.38-.59.6.6,0,0,0-.16-.45,1.6,1.6,0,0,0-.45-.3,5.18,5.18,0,0,0-.67-.23l-.81-.22a8.76,8.76,0,0,1-.9-.25,7.83,7.83,0,0,1-1.19-.45,4,4,0,0,1-1-.71,3.24,3.24,0,0,1-.74-1.08,4,4,0,0,1-.27-1.56,3.59,3.59,0,0,1,.56-2.05A3.53,3.53,0,0,1,320,21.72a7.43,7.43,0,0,1,2.71-.44c.29,0,.6,0,.9,0a6.54,6.54,0,0,1,.88.18,7.47,7.47,0,0,1,.87.3c.28.12.56.26.85.42a1.13,1.13,0,0,1,.77,1,2.05,2.05,0,0,1-.43,1.25A2,2,0,0,1,326,25a.89.89,0,0,1-.63.14,4.36,4.36,0,0,1-.86-.34c-.31-.16-.63-.3-1-.44a2.89,2.89,0,0,0-1-.2,2.18,2.18,0,0,0-.72.11,1.11,1.11,0,0,0-.45.3.71.71,0,0,0-.15.44.66.66,0,0,0,.19.51,1.4,1.4,0,0,0,.51.32,4.87,4.87,0,0,0,.75.22c.28.07.59.14.92.2s.91.2,1.39.34a4.71,4.71,0,0,1,1.3.61,3,3,0,0,1,.95,1.08,3.78,3.78,0,0,1,.36,1.78,3.57,3.57,0,0,1-1.38,3A6.33,6.33,0,0,1,322.25,34.16Z"/><path class="cls-2" d="M120.43,33.84a2.38,2.38,0,0,1-1.3-.27,1.05,1.05,0,0,1-.49-.71,4.7,4.7,0,0,1-.09-.92V18.26a2,2,0,0,1,.43-1.49,2.2,2.2,0,0,1,1.52-.41H130a5.46,5.46,0,0,1,.93.08,1.08,1.08,0,0,1,.68.49,2.45,2.45,0,0,1,.26,1.35,2.38,2.38,0,0,1-.27,1.3,1.1,1.1,0,0,1-.71.49,4.76,4.76,0,0,1-.94.09h-7.55v3.23h5.12a4.66,4.66,0,0,1,.89.08.91.91,0,0,1,.61.42,2.34,2.34,0,0,1,.23,1.2A2,2,0,0,1,129,26.2a.93.93,0,0,1-.62.42,5,5,0,0,1-.9.07h-5.1V32a4,4,0,0,1-.1.92,1.11,1.11,0,0,1-.49.69A2.43,2.43,0,0,1,120.43,33.84Z"/><path class="cls-2" d="M136.28,19.55a2.52,2.52,0,0,1-1.35-.28,1.08,1.08,0,0,1-.48-.73,5.11,5.11,0,0,1,0-1.91,1.06,1.06,0,0,1,.5-.7,2.69,2.69,0,0,1,1.36-.26,2.37,2.37,0,0,1,1.33.28,1.11,1.11,0,0,1,.48.72,5,5,0,0,1,.09,1,4.7,4.7,0,0,1-.09.92,1.05,1.05,0,0,1-.49.71A2.48,2.48,0,0,1,136.28,19.55Zm0,14.3a2.47,2.47,0,0,1-1.33-.27,1,1,0,0,1-.47-.7,5.31,5.31,0,0,1-.08-.91V23.24a4.53,4.53,0,0,1,.09-.91,1.06,1.06,0,0,1,.48-.7,2.59,2.59,0,0,1,1.33-.26,2.24,2.24,0,0,1,1.29.28,1.14,1.14,0,0,1,.47.71,4.62,4.62,0,0,1,.09.94V32a4.53,4.53,0,0,1-.09.91,1,1,0,0,1-.47.69A2.62,2.62,0,0,1,136.28,33.85Z"/><path class="cls-2" d="M146,33.53a5,5,0,0,1-2.16-.49,5.84,5.84,0,0,1-1.79-1.34,6.76,6.76,0,0,1-1.22-1.95,6.08,6.08,0,0,1-.45-2.33,6,6,0,0,1,.45-2.31,6.3,6.3,0,0,1,3-3.25,4.86,4.86,0,0,1,2.11-.48,3.71,3.71,0,0,1,1.9.44,3.2,3.2,0,0,1,1.25,1.25,6.13,6.13,0,0,1,.71,1.92,11.82,11.82,0,0,1,.24,2.49,11.33,11.33,0,0,1-.41,3.21,4.22,4.22,0,0,1-1.31,2.1A3.58,3.58,0,0,1,146,33.53Zm.45,5.47a6.9,6.9,0,0,1-1.76-.22,7,7,0,0,1-1.59-.61,4.28,4.28,0,0,1-1.15-.8,1.23,1.23,0,0,1-.43-.85,1.77,1.77,0,0,1,.15-.73,2.46,2.46,0,0,1,.45-.67,7,7,0,0,1,.6-.57,1,1,0,0,1,.61-.2,1,1,0,0,1,.62.19l.59.41a3.54,3.54,0,0,0,.78.41,3.21,3.21,0,0,0,1.2.19,2.26,2.26,0,0,0,.94-.19,2,2,0,0,0,.75-.54,2.89,2.89,0,0,0,.5-.85,2.94,2.94,0,0,0,.19-1.09V22.53a1.23,1.23,0,0,1,.51-.94,2.49,2.49,0,0,1,1.34-.29,2.21,2.21,0,0,1,1.25.27,1.06,1.06,0,0,1,.46.69,4.29,4.29,0,0,1,.09.9V33a5.88,5.88,0,0,1-.53,2.54,5.57,5.57,0,0,1-1.4,1.87,6,6,0,0,1-2,1.16A6.23,6.23,0,0,1,146.45,39Zm0-9.1a2.21,2.21,0,0,0,1.2-.33,2.47,2.47,0,0,0,1.15-2.14,2.47,2.47,0,0,0-.31-1.25,2.39,2.39,0,0,0-.85-.88,2.35,2.35,0,0,0-1.21-.32,2.21,2.21,0,0,0-1.2.33,2.56,2.56,0,0,0-.84.89,2.47,2.47,0,0,0-.32,1.25,2.36,2.36,0,0,0,.33,1.23,2.5,2.5,0,0,0,.86.88A2.15,2.15,0,0,0,146.43,29.9Z"/><path class="cls-2" d="M160.5,33.84a5.21,5.21,0,0,1-2.17-.46,5.33,5.33,0,0,1-1.75-1.26,5.59,5.59,0,0,1-1.16-1.93,6.81,6.81,0,0,1-.42-2.43V23.23a5.25,5.25,0,0,1,.08-.92,1.11,1.11,0,0,1,.49-.7,3.25,3.25,0,0,1,2.64,0,1.07,1.07,0,0,1,.47.71,4.69,4.69,0,0,1,.09.94v4.5A2.92,2.92,0,0,0,159,29a1.77,1.77,0,0,0,.78.82,2.54,2.54,0,0,0,1.21.27,2.45,2.45,0,0,0,1.24-.29,2.08,2.08,0,0,0,.8-.81,2.57,2.57,0,0,0,.28-1.25V23.21a5.25,5.25,0,0,1,.08-.92,1.07,1.07,0,0,1,.49-.69,2.59,2.59,0,0,1,1.33-.26,2.39,2.39,0,0,1,1.31.27,1.11,1.11,0,0,1,.47.72,4.46,4.46,0,0,1,.09.91V32a4.19,4.19,0,0,1-.09.89,1,1,0,0,1-.49.66,2.52,2.52,0,0,1-1.3.25,2.92,2.92,0,0,1-1.05-.15,1.31,1.31,0,0,1-.55-.38.94.94,0,0,1-.21-.47,2.57,2.57,0,0,1,0-.45l.33-.28a2.49,2.49,0,0,1-.33.39,5.91,5.91,0,0,1-.66.57,4.43,4.43,0,0,1-1,.54A3.4,3.4,0,0,1,160.5,33.84Z"/><path class="cls-2" d="M171.5,33.87a2.37,2.37,0,0,1-1.31-.27,1.07,1.07,0,0,1-.48-.71,4.7,4.7,0,0,1-.08-.92V23.24a4.42,4.42,0,0,1,.09-.92,1,1,0,0,1,.49-.69,3.45,3.45,0,0,1,2.58,0,1,1,0,0,1,.49.55,1.63,1.63,0,0,1,.1.53l-.3.15c0-.06.12-.18.26-.36a4,4,0,0,1,.59-.55,3.9,3.9,0,0,1,.91-.49,3.66,3.66,0,0,1,1.24-.2c.19,0,.39,0,.62,0a5.2,5.2,0,0,1,.7.15,3.32,3.32,0,0,1,.66.3,1.54,1.54,0,0,1,.48.47,1.13,1.13,0,0,1,.19.67,3.12,3.12,0,0,1-.47,1.74,1.42,1.42,0,0,1-1.2.71,2,2,0,0,1-.6-.06.87.87,0,0,1-.29-.15,1.1,1.1,0,0,0-.26-.15,1.65,1.65,0,0,0-.55-.07,2.84,2.84,0,0,0-.72.1,1.93,1.93,0,0,0-.62.32,1.5,1.5,0,0,0-.45.52,1.52,1.52,0,0,0-.17.71V32a4.53,4.53,0,0,1-.09.91,1.06,1.06,0,0,1-.48.69A2.71,2.71,0,0,1,171.5,33.87Z"/><path class="cls-2" d="M190.9,33.85a2.39,2.39,0,0,1-1.37-.32.91.91,0,0,1-.43-.8l.25-.43a2.72,2.72,0,0,1-.57.61,4.08,4.08,0,0,1-1.12.65,4.15,4.15,0,0,1-1.66.29,5,5,0,0,1-2.19-.5A5.85,5.85,0,0,1,182,32a7,7,0,0,1-1.28-2,6.16,6.16,0,0,1-.47-2.38,5.9,5.9,0,0,1,.48-2.34,6.62,6.62,0,0,1,1.28-2,6.51,6.51,0,0,1,1.84-1.36,5,5,0,0,1,2.18-.5,4.3,4.3,0,0,1,1.57.26,4.16,4.16,0,0,1,1.09.62,3.43,3.43,0,0,1,.66.67l-.22-.35a1,1,0,0,1,.43-.91,2.44,2.44,0,0,1,1.39-.31,2.34,2.34,0,0,1,1.29.27,1.11,1.11,0,0,1,.47.73,4.86,4.86,0,0,1,.09.95V32a4.73,4.73,0,0,1-.09.93,1.07,1.07,0,0,1-.48.71A2.38,2.38,0,0,1,190.9,33.85Zm-4.37-3.72a2.21,2.21,0,0,0,1.2-.34,2.56,2.56,0,0,0,1.17-2.19,2.46,2.46,0,0,0-.32-1.28,2.4,2.4,0,0,0-.87-.89,2.36,2.36,0,0,0-1.23-.33,2.33,2.33,0,0,0-1.26.34A2.53,2.53,0,0,0,184,27.65a2.34,2.34,0,0,0,.34,1.24,2.56,2.56,0,0,0,.92.9A2.59,2.59,0,0,0,186.53,30.13Z"/><path class="cls-2" d="M199.77,34.08a8.73,8.73,0,0,1-3-.59,5.07,5.07,0,0,1-1.25-.67,1.28,1.28,0,0,1-.56-.89,1.41,1.41,0,0,1,0-.54,2.37,2.37,0,0,1,.23-.6,4.19,4.19,0,0,1,.44-.66.92.92,0,0,1,.43-.35,1,1,0,0,1,.59,0,3,3,0,0,1,.8.26c.27.12.54.26.83.4a8.47,8.47,0,0,0,.87.38,2.93,2.93,0,0,0,.93.16,2.27,2.27,0,0,0,1.08-.21.65.65,0,0,0,.39-.59.64.64,0,0,0-.16-.45,1.27,1.27,0,0,0-.45-.3c-.19-.08-.42-.16-.67-.24l-.82-.21c-.28-.07-.58-.15-.9-.25a8.93,8.93,0,0,1-1.18-.45,3.7,3.7,0,0,1-1.05-.72,3.15,3.15,0,0,1-.74-1.07A4,4,0,0,1,195.3,25a3.59,3.59,0,0,1,.57-2.05,3.48,3.48,0,0,1,1.66-1.26,7.2,7.2,0,0,1,2.7-.44c.3,0,.6,0,.9.05a4.53,4.53,0,0,1,.89.18,6.74,6.74,0,0,1,.86.3,5.16,5.16,0,0,1,.85.42,1.14,1.14,0,0,1,.78.95,2.1,2.1,0,0,1-.43,1.25,1.92,1.92,0,0,1-.58.59.92.92,0,0,1-.62.14,4.13,4.13,0,0,1-.86-.34,9.71,9.71,0,0,0-1-.44,2.84,2.84,0,0,0-1-.2,2.18,2.18,0,0,0-.72.11,1.11,1.11,0,0,0-.45.3.64.64,0,0,0-.15.44.69.69,0,0,0,.18.51,1.42,1.42,0,0,0,.51.31,5.58,5.58,0,0,0,.75.23l.93.2a13.35,13.35,0,0,1,1.39.34,4.69,4.69,0,0,1,1.3.61,3.12,3.12,0,0,1,.95,1.08,3.76,3.76,0,0,1,.36,1.77,3.58,3.58,0,0,1-1.38,3A6.38,6.38,0,0,1,199.77,34.08Z"/><path class="cls-2" d="M219.1,33.87a5,5,0,0,1-2.18-.49A5.83,5.83,0,0,1,215.1,32a6.88,6.88,0,0,1-1.26-2,6.27,6.27,0,0,1-.46-2.41,6.06,6.06,0,0,1,.46-2.34,6.62,6.62,0,0,1,1.28-2A6.24,6.24,0,0,1,217,21.92a4.88,4.88,0,0,1,2.15-.5,4.28,4.28,0,0,1,3.63,1.83,6.42,6.42,0,0,1,.94,2,9.14,9.14,0,0,1,.35,2.35,9.28,9.28,0,0,1-.3,2.4,6,6,0,0,1-.93,2,4.58,4.58,0,0,1-1.55,1.39A4.38,4.38,0,0,1,219.1,33.87Zm.5-3.7a2.16,2.16,0,0,0,1.21-.34,2.56,2.56,0,0,0,.88-.91,2.42,2.42,0,0,0,.34-1.27,2.52,2.52,0,0,0-1.2-2.17,2.38,2.38,0,0,0-1.25-.33,2.41,2.41,0,0,0-1.24.32,2.28,2.28,0,0,0-.87.9,2.6,2.6,0,0,0-.32,1.27,2.52,2.52,0,0,0,.33,1.28,2.48,2.48,0,0,0,2.12,1.25ZM224,33.9a2.22,2.22,0,0,1-1.26-.28,1.25,1.25,0,0,1-.54-.85V17.62a6.73,6.73,0,0,1,.06-.91,1,1,0,0,1,.44-.71,2.16,2.16,0,0,1,1.28-.28,2.36,2.36,0,0,1,1.32.27,1.08,1.08,0,0,1,.47.68,4,4,0,0,1,.1.93V32a4.46,4.46,0,0,1-.09.91,1.12,1.12,0,0,1-.48.71A2.27,2.27,0,0,1,224,33.9Z"/><path class="cls-2" d="M234.55,34.13a7.09,7.09,0,0,1-3-.58A5.84,5.84,0,0,1,229.48,32a6.25,6.25,0,0,1-1.2-2.09,6.83,6.83,0,0,1-.4-2.3,6.38,6.38,0,0,1,.85-3.32A6.11,6.11,0,0,1,231.09,22a7,7,0,0,1,3.47-.84,6.42,6.42,0,0,1,2.51.47,5.23,5.23,0,0,1,1.75,1.2,4.89,4.89,0,0,1,1,1.59,4.28,4.28,0,0,1,.34,1.62,2.82,2.82,0,0,1-.66,2.05,2.29,2.29,0,0,1-1.69.68h-6a1.71,1.71,0,0,0,.46,1.08,2.77,2.77,0,0,0,1,.7,3.41,3.41,0,0,0,1.32.25,8.22,8.22,0,0,0,1-.06,3.7,3.7,0,0,0,.79-.18l.58-.22c.18-.08.34-.14.49-.19a2.41,2.41,0,0,1,.43-.1,1.08,1.08,0,0,1,.67.21,2.06,2.06,0,0,1,.58.72,1.93,1.93,0,0,1,.23.52,2.23,2.23,0,0,1,.07.5,1.35,1.35,0,0,1-.62,1.09,4.85,4.85,0,0,1-1.72.74A11.56,11.56,0,0,1,234.55,34.13Zm-2.67-7.4h4a.92.92,0,0,0,.57-.14.59.59,0,0,0,.2-.53,1.23,1.23,0,0,0-.27-.78,1.8,1.8,0,0,0-.74-.54,3,3,0,0,0-1.09-.18,2.78,2.78,0,0,0-1.34.29,2.32,2.32,0,0,0-.94.8A1.89,1.89,0,0,0,231.88,26.73Z"/><path class="cls-2" d="M250.62,33.91a2.4,2.4,0,0,1-1.3-.27,1.11,1.11,0,0,1-.48-.71,4.63,4.63,0,0,1-.09-.92V17.64a4.69,4.69,0,0,1,.09-.94,1.06,1.06,0,0,1,.48-.7,2.59,2.59,0,0,1,1.33-.26,2.15,2.15,0,0,1,1.27.28,1.08,1.08,0,0,1,.45.71,3.88,3.88,0,0,1,.05.91V32.79a1.29,1.29,0,0,1-.52.85A2.34,2.34,0,0,1,250.62,33.91Zm4.85,0a4.41,4.41,0,0,1-2.15-.51A4.62,4.62,0,0,1,251.79,32a6.45,6.45,0,0,1-.93-2,8.5,8.5,0,0,1-.28-2.4,8.66,8.66,0,0,1,.32-2.35,6.31,6.31,0,0,1,.94-2,4.32,4.32,0,0,1,3.64-1.83,4.88,4.88,0,0,1,2.15.5,6.4,6.4,0,0,1,1.84,1.37,6.47,6.47,0,0,1,1.27,2,6,6,0,0,1,.46,2.34,6.3,6.3,0,0,1-.46,2.41,6.54,6.54,0,0,1-1.27,2,5.86,5.86,0,0,1-1.82,1.37A5.1,5.1,0,0,1,255.47,33.89Zm-.49-3.7a2.41,2.41,0,0,0,1.25-.33,2.59,2.59,0,0,0,.88-.92,2.39,2.39,0,0,0,.34-1.27,2.64,2.64,0,0,0-.32-1.28,2.4,2.4,0,0,0-.89-.9,2.49,2.49,0,0,0-1.24-.32,2.36,2.36,0,0,0-1.23.33,2.45,2.45,0,0,0-.88.9,2.57,2.57,0,0,0-.31,1.27,2.5,2.5,0,0,0,1.2,2.18A2.18,2.18,0,0,0,255,30.19Z"/><path class="cls-2" d="M269.37,34.13a6.42,6.42,0,0,1-2.33-.47,7.08,7.08,0,0,1-2.12-1.31,6.53,6.53,0,0,1-1.51-2,6.15,6.15,0,0,1-.56-2.64,6,6,0,0,1,.52-2.51,6.63,6.63,0,0,1,1.41-2.06,6.75,6.75,0,0,1,2.06-1.41,6.16,6.16,0,0,1,2.49-.51,6.23,6.23,0,0,1,3.26.86,6.56,6.56,0,0,1,2.34,2.34,6.71,6.71,0,0,1,.31,6,6.5,6.5,0,0,1-1.5,2,6.57,6.57,0,0,1-2.08,1.29A6.38,6.38,0,0,1,269.37,34.13Zm0-3.78a2.81,2.81,0,0,0,1.22-.3,2.67,2.67,0,0,0,1.05-.9,2.6,2.6,0,0,0,.43-1.52,2.74,2.74,0,0,0-.35-1.4,2.55,2.55,0,0,0-1-.94A2.84,2.84,0,0,0,269.3,25,2.59,2.59,0,0,0,267,26.26a2.6,2.6,0,0,0-.37,1.39,2.68,2.68,0,0,0,.41,1.51,2.49,2.49,0,0,0,1,.9A3,3,0,0,0,269.33,30.35Z"/><path class="cls-2" d="M282.62,33.93a14.14,14.14,0,0,1-1.82-.1,3.64,3.64,0,0,1-1.35-.4,2.42,2.42,0,0,1-.9-.84,3.92,3.92,0,0,1-.52-1.37,10,10,0,0,1-.18-2.06V17.61a3.84,3.84,0,0,1,.1-.93,1.18,1.18,0,0,1,.49-.7,2.37,2.37,0,0,1,1.31-.27,2.34,2.34,0,0,1,1.29.27,1.19,1.19,0,0,1,.48.7,3.9,3.9,0,0,1,.1.93V29a6.19,6.19,0,0,0,0,.67,1,1,0,0,0,.15.41.54.54,0,0,0,.32.2,2.34,2.34,0,0,0,.52,0,2.6,2.6,0,0,1,.61.07.89.89,0,0,1,.54.45,2.47,2.47,0,0,1,.22,1.25,2.78,2.78,0,0,1-.22,1.3.88.88,0,0,1-.54.48A2.73,2.73,0,0,1,282.62,33.93Z"/><path class="cls-2" d="M287.86,19.64a2.47,2.47,0,0,1-1.35-.28,1.09,1.09,0,0,1-.49-.72,4.86,4.86,0,0,1-.09-.95,4.92,4.92,0,0,1,.09-1,1.09,1.09,0,0,1,.5-.7,2.71,2.71,0,0,1,1.36-.26,2.37,2.37,0,0,1,1.33.28,1.09,1.09,0,0,1,.49.72,6,6,0,0,1,.08,1,5.62,5.62,0,0,1-.08.92,1.13,1.13,0,0,1-.49.72A2.65,2.65,0,0,1,287.86,19.64Zm0,14.3a2.47,2.47,0,0,1-1.33-.27,1,1,0,0,1-.47-.7,5.31,5.31,0,0,1-.08-.91V23.34a4.63,4.63,0,0,1,.09-.92,1.08,1.08,0,0,1,.49-.7,2.52,2.52,0,0,1,1.32-.26,2.24,2.24,0,0,1,1.29.28,1.1,1.1,0,0,1,.47.71,4.62,4.62,0,0,1,.09.94v8.7a5.4,5.4,0,0,1-.08.91,1.06,1.06,0,0,1-.48.69A2.62,2.62,0,0,1,287.85,33.94Z"/><path class="cls-2" d="M293.18,21.64h2.75l3.45-.1a4.29,4.29,0,0,1,.9.09,1.1,1.1,0,0,1,.7.49,2.46,2.46,0,0,1,.27,1.32,2.26,2.26,0,0,1-.26,1.25,1.15,1.15,0,0,1-.69.52,3.8,3.8,0,0,1-.92.11l-3.28-.08-3,0a1.25,1.25,0,0,1-1-.47,2.44,2.44,0,0,1-.29-1.39,2.11,2.11,0,0,1,.35-1.33A1.26,1.26,0,0,1,293.18,21.64Zm5.64,12.3a7.92,7.92,0,0,1-2.2-.27,3.7,3.7,0,0,1-1.51-.85,3.6,3.6,0,0,1-.87-1.47,6.89,6.89,0,0,1-.29-2.11V19.12a5.12,5.12,0,0,1,.08-.93,1.06,1.06,0,0,1,.49-.66,2.41,2.41,0,0,1,1.3-.26,2.38,2.38,0,0,1,1.3.27,1.12,1.12,0,0,1,.49.72,4.46,4.46,0,0,1,.09.91v9.92a3.13,3.13,0,0,0,.06.67.8.8,0,0,0,.19.38.69.69,0,0,0,.35.18,2.79,2.79,0,0,0,.55.05,4.16,4.16,0,0,1,1,.1,1.1,1.1,0,0,1,.66.45,2.14,2.14,0,0,1,.23,1.17,2.38,2.38,0,0,1-.27,1.3,1.07,1.07,0,0,1-.71.48A5.53,5.53,0,0,1,298.82,33.94Z"/><path class="cls-2" d="M313.37,33.93A2.33,2.33,0,0,1,312,33.6a.92.92,0,0,1-.43-.8l.25-.42a3,3,0,0,1-.57.61,4.45,4.45,0,0,1-1.11.65,4.39,4.39,0,0,1-1.67.28,4.87,4.87,0,0,1-2.18-.5A5.63,5.63,0,0,1,304.45,32a7,7,0,0,1-1.27-2,6,6,0,0,1-.48-2.37,5.83,5.83,0,0,1,.48-2.34,6.7,6.7,0,0,1,1.29-2A6.42,6.42,0,0,1,306.31,22a4.9,4.9,0,0,1,2.17-.5,4.14,4.14,0,0,1,1.58.27,4.24,4.24,0,0,1,1.08.61,3,3,0,0,1,.66.68l-.22-.35a1.07,1.07,0,0,1,.44-.92,2.48,2.48,0,0,1,1.39-.31,2.21,2.21,0,0,1,1.28.28,1.11,1.11,0,0,1,.48.72,4.87,4.87,0,0,1,.08.95V32a4.63,4.63,0,0,1-.09.92,1.14,1.14,0,0,1-.47.72A2.52,2.52,0,0,1,313.37,33.93ZM309,30.2a2.13,2.13,0,0,0,1.2-.34,2.57,2.57,0,0,0,.85-.91,2.51,2.51,0,0,0,.33-1.27,2.48,2.48,0,0,0-.33-1.29,2.4,2.4,0,0,0-.87-.89,2.48,2.48,0,0,0-2.49,0,2.7,2.7,0,0,0-.9.91,2.6,2.6,0,0,0-.34,1.3,2.31,2.31,0,0,0,.34,1.24,2.41,2.41,0,0,0,.92.9A2.49,2.49,0,0,0,309,30.2Z"/><path class="cls-2" d="M322.25,34.16a8.15,8.15,0,0,1-1.48-.15,8.68,8.68,0,0,1-1.53-.44,4.9,4.9,0,0,1-1.25-.68,1.28,1.28,0,0,1-.57-.89,1.37,1.37,0,0,1,0-.53,2.19,2.19,0,0,1,.22-.6,5.08,5.08,0,0,1,.44-.67.82.82,0,0,1,.44-.34,1,1,0,0,1,.58,0,3.63,3.63,0,0,1,.81.26l.82.4a7.4,7.4,0,0,0,.87.38,2.68,2.68,0,0,0,.93.16,2.32,2.32,0,0,0,1.09-.21.64.64,0,0,0,.38-.59.6.6,0,0,0-.16-.45,1.6,1.6,0,0,0-.45-.3,5.18,5.18,0,0,0-.67-.23l-.81-.22a8.76,8.76,0,0,1-.9-.25,7.83,7.83,0,0,1-1.19-.45,4,4,0,0,1-1-.71,3.24,3.24,0,0,1-.74-1.08,4,4,0,0,1-.27-1.56,3.59,3.59,0,0,1,.56-2.05A3.53,3.53,0,0,1,320,21.72a7.43,7.43,0,0,1,2.71-.44c.29,0,.6,0,.9,0a6.54,6.54,0,0,1,.88.18,7.47,7.47,0,0,1,.87.3c.28.12.56.26.85.42a1.13,1.13,0,0,1,.77,1,2.05,2.05,0,0,1-.43,1.25A2,2,0,0,1,326,25a.89.89,0,0,1-.63.14,4.36,4.36,0,0,1-.86-.34c-.31-.16-.63-.3-1-.44a2.89,2.89,0,0,0-1-.2,2.18,2.18,0,0,0-.72.11,1.11,1.11,0,0,0-.45.3.71.71,0,0,0-.15.44.66.66,0,0,0,.19.51,1.4,1.4,0,0,0,.51.32,4.87,4.87,0,0,0,.75.22c.28.07.59.14.92.2s.91.2,1.39.34a4.71,4.71,0,0,1,1.3.61,3,3,0,0,1,.95,1.08,3.78,3.78,0,0,1,.36,1.78,3.57,3.57,0,0,1-1.38,3A6.33,6.33,0,0,1,322.25,34.16Z"/><path class="cls-4" d="M66.64,32.55q0,3.41-1.18,4.85a4.36,4.36,0,0,1-3.59,1.45,5.73,5.73,0,0,1-2.57-.5,3.29,3.29,0,0,1-1.48-1.85,11.09,11.09,0,0,1-.55-3.61L57.2,17.22A6.2,6.2,0,0,1,54,16.48,2.56,2.56,0,0,1,52.73,14a2.76,2.76,0,0,1,1.16-2.29,5.16,5.16,0,0,1,3.24-.9c.54,0,1.31,0,2.3,0l2.1,0c2,0,3.36.34,4,1a5,5,0,0,1,1,3.59Z"/><path class="cls-4" d="M70.39,36a2.78,2.78,0,0,1,1.16-2.31,5.4,5.4,0,0,1,3.28-.88c3,0,4.44,1.07,4.44,3.19a3.11,3.11,0,0,1-.57,2,2.73,2.73,0,0,1-1.51,1,9.17,9.17,0,0,1-2.36.26,6.13,6.13,0,0,1-3.18-.76A2.63,2.63,0,0,1,70.39,36Z"/><path class="cls-4" d="M95,31.08h4.52q3.42,0,3.42,4a4,4,0,0,1-1.08,3.17c-.72.63-2,.94-3.85.94H87c-1.9,0-3.2-.25-3.89-.77S82,36.74,82,35a5.15,5.15,0,0,1,.17-1.45,3.25,3.25,0,0,1,.61-1.2A5.39,5.39,0,0,1,84,31.25c1.47-1,2.62-1.82,3.46-2.44s1.67-1.26,2.47-1.95a14.09,14.09,0,0,0,1.78-1.76,11.18,11.18,0,0,0,1-1.66,6.47,6.47,0,0,0,.61-1.85,15.39,15.39,0,0,0,.14-2.19c0-1.56-.47-2.35-1.42-2.35s-1.55.93-1.55,2.77a2,2,0,0,1-1,2,7,7,0,0,1-2.89.46c-1.74,0-2.92-.39-3.53-1.17a6.48,6.48,0,0,1-.91-3.91,5.48,5.48,0,0,1,2.51-4.56,11.67,11.67,0,0,1,7-1.82q11.08,0,11.07,8.69a14.11,14.11,0,0,1-.45,3.68,11.66,11.66,0,0,1-1.1,2.77A9.08,9.08,0,0,1,99.5,28.1a16,16,0,0,1-2.1,1.64A26.68,26.68,0,0,1,95,31.08Z"/><path class="cls-5" d="M66.64,32.55q0,3.41-1.18,4.85a4.36,4.36,0,0,1-3.59,1.45,5.73,5.73,0,0,1-2.57-.5,3.29,3.29,0,0,1-1.48-1.85,11.09,11.09,0,0,1-.55-3.61L57.2,17.22A6.2,6.2,0,0,1,54,16.48,2.56,2.56,0,0,1,52.73,14a2.76,2.76,0,0,1,1.16-2.29,5.16,5.16,0,0,1,3.24-.9c.54,0,1.31,0,2.3,0l2.1,0c2,0,3.36.34,4,1a5,5,0,0,1,1,3.59Z"/><path class="cls-5" d="M70.39,36a2.78,2.78,0,0,1,1.16-2.31,5.4,5.4,0,0,1,3.28-.88c3,0,4.44,1.07,4.44,3.19a3.11,3.11,0,0,1-.57,2,2.73,2.73,0,0,1-1.51,1,9.17,9.17,0,0,1-2.36.26,6.13,6.13,0,0,1-3.18-.76A2.63,2.63,0,0,1,70.39,36Z"/><path class="cls-5" d="M95,31.08h4.52q3.42,0,3.42,4a4,4,0,0,1-1.08,3.17c-.72.63-2,.94-3.85.94H87c-1.9,0-3.2-.25-3.89-.77S82,36.74,82,35a5.15,5.15,0,0,1,.17-1.45,3.25,3.25,0,0,1,.61-1.2A5.39,5.39,0,0,1,84,31.25c1.47-1,2.62-1.82,3.46-2.44s1.67-1.26,2.47-1.95a14.09,14.09,0,0,0,1.78-1.76,11.18,11.18,0,0,0,1-1.66,6.47,6.47,0,0,0,.61-1.85,15.39,15.39,0,0,0,.14-2.19c0-1.56-.47-2.35-1.42-2.35s-1.55.93-1.55,2.77a2,2,0,0,1-1,2,7,7,0,0,1-2.89.46c-1.74,0-2.92-.39-3.53-1.17a6.48,6.48,0,0,1-.91-3.91,5.48,5.48,0,0,1,2.51-4.56,11.67,11.67,0,0,1,7-1.82q11.08,0,11.07,8.69a14.11,14.11,0,0,1-.45,3.68,11.66,11.66,0,0,1-1.1,2.77A9.08,9.08,0,0,1,99.5,28.1a16,16,0,0,1-2.1,1.64A26.68,26.68,0,0,1,95,31.08Z"/></g></g></svg>