<svg xmlns="http://www.w3.org/2000/svg" viewBox="0 0 399.98 111.96"><defs><style>.cls-1{fill:#03826e;}.cls-2{fill:#fff;}.cls-3,.cls-4{fill:none;stroke-width:5px;}.cls-3{stroke:#b6ba01;stroke-linejoin:round;}.cls-4{stroke:#fff;}.cls-5{fill:#b6ba01;}</style></defs><title>13t</title><g id="Layer_2" data-name="Layer 2"><g id="pestaña_identificativa" data-name="pestaña identificativa"><path class="cls-1" d="M368.29,0H43.76C19.59,0,0,15.89,0,35.49V79.56A32.4,32.4,0,0,0,32.4,112H367.58A32.4,32.4,0,0,0,400,79.56V25.7C400,11.51,385.79,0,368.29,0Z"/><path class="cls-2" d="M113.18,35.57a2.37,2.37,0,0,1-1.33-.28,1.11,1.11,0,0,1-.48-.72,4.73,4.73,0,0,1-.09-.93V20a3.91,3.91,0,0,1,.1-.91,1.15,1.15,0,0,1,.5-.71,2.46,2.46,0,0,1,1.33-.28h5.12a6.37,6.37,0,0,1,2.1.37,6,6,0,0,1,2,1.17,6,6,0,0,1,1.47,1.94,6.11,6.11,0,0,1,.56,2.7A6,6,0,0,1,123.9,27a5.87,5.87,0,0,1-1.48,1.91,6.15,6.15,0,0,1-2,1.15,6.37,6.37,0,0,1-2.12.38h-3.2v3.28a3.84,3.84,0,0,1-.11.91,1.16,1.16,0,0,1-.5.72A2.41,2.41,0,0,1,113.18,35.57Zm1.93-9h3.22a2.65,2.65,0,0,0,1.09-.24,2.12,2.12,0,0,0,.9-.76,2.27,2.27,0,0,0,.37-1.35,2.35,2.35,0,0,0-.32-1.23,2.18,2.18,0,0,0-.83-.82,2.44,2.44,0,0,0-1.23-.3h-3.2Z"/><path class="cls-2" d="M132.78,35.81a7.25,7.25,0,0,1-3-.58,5.84,5.84,0,0,1-2.06-1.51,6.35,6.35,0,0,1-1.2-2.09,6.92,6.92,0,0,1-.4-2.3A6.45,6.45,0,0,1,127,26a6.16,6.16,0,0,1,2.36-2.28,7,7,0,0,1,3.47-.84,6.43,6.43,0,0,1,2.51.46,5.11,5.11,0,0,1,1.75,1.21,5,5,0,0,1,1,1.58,4.33,4.33,0,0,1,.34,1.63,2.78,2.78,0,0,1-.67,2,2.25,2.25,0,0,1-1.68.67h-5.95a1.73,1.73,0,0,0,.46,1.08,2.89,2.89,0,0,0,1,.7,3.6,3.6,0,0,0,1.32.25,6.54,6.54,0,0,0,1-.07,4.49,4.49,0,0,0,.79-.17c.21-.08.41-.15.58-.23l.49-.18a1.78,1.78,0,0,1,.43-.1,1,1,0,0,1,.67.21,2.11,2.11,0,0,1,.58.71,2,2,0,0,1,.23.53,2.15,2.15,0,0,1,.07.5,1.35,1.35,0,0,1-.62,1.09,4.86,4.86,0,0,1-1.72.73A11,11,0,0,1,132.78,35.81Zm-2.67-7.41h3.95a1,1,0,0,0,.57-.14c.14-.09.2-.27.2-.54a1.23,1.23,0,0,0-.27-.77,1.64,1.64,0,0,0-.74-.54,2.8,2.8,0,0,0-1.09-.19,2.91,2.91,0,0,0-1.34.3,2.32,2.32,0,0,0-.94.8A1.84,1.84,0,0,0,130.11,28.4Z"/><path class="cls-2" d="M142.51,21.29a2.52,2.52,0,0,1-1.35-.28,1.08,1.08,0,0,1-.48-.72,5.16,5.16,0,0,1,0-1.92,1,1,0,0,1,.5-.7,2.69,2.69,0,0,1,1.36-.26,2.31,2.31,0,0,1,1.32.28,1.09,1.09,0,0,1,.49.72,5,5,0,0,1,.09,1,4.7,4.7,0,0,1-.09.92,1.05,1.05,0,0,1-.49.71A2.48,2.48,0,0,1,142.51,21.29Zm0,14.3a2.43,2.43,0,0,1-1.32-.27,1,1,0,0,1-.48-.7,5.33,5.33,0,0,1-.07-.91V25a4.57,4.57,0,0,1,.08-.92,1.08,1.08,0,0,1,.49-.7,2.59,2.59,0,0,1,1.33-.26,2.18,2.18,0,0,1,1.28.28,1.12,1.12,0,0,1,.48.71,4.62,4.62,0,0,1,.09.94v8.7a4.46,4.46,0,0,1-.09.91,1.08,1.08,0,0,1-.47.69A2.64,2.64,0,0,1,142.5,35.59Z"/><path class="cls-2" d="M148.93,35.57a2.44,2.44,0,0,1-1.31-.27,1.07,1.07,0,0,1-.48-.7,4.46,4.46,0,0,1-.09-.91v-8.8a4.19,4.19,0,0,1,.09-.89,1,1,0,0,1,.49-.66,3.52,3.52,0,0,1,2.5,0,1,1,0,0,1,.48.52,1.47,1.47,0,0,1,.11.56,1,1,0,0,0,.05.36l-.14.48a1.5,1.5,0,0,1,.38-.77,3.71,3.71,0,0,1,.85-.69,4.35,4.35,0,0,1,1.1-.49,4,4,0,0,1,1.17-.18,5,5,0,0,1,2.13.44,4.27,4.27,0,0,1,1.59,1.27,6,6,0,0,1,1,1.93,8.62,8.62,0,0,1,.33,2.44v4.55a4.46,4.46,0,0,1-.09.91,1.05,1.05,0,0,1-.47.69,3.62,3.62,0,0,1-2.67,0,1.06,1.06,0,0,1-.48-.7,4.56,4.56,0,0,1-.09-.92V29.17a2.78,2.78,0,0,0-.26-1.28,1.81,1.81,0,0,0-.75-.8,2.46,2.46,0,0,0-1.21-.27,2.59,2.59,0,0,0-1.25.28,2.06,2.06,0,0,0-.81.82,2.46,2.46,0,0,0-.29,1.25v4.55a5.4,5.4,0,0,1-.08.91,1.06,1.06,0,0,1-.48.69A2.6,2.6,0,0,1,148.93,35.57Z"/><path class="cls-2" d="M167.83,35.83a7.25,7.25,0,0,1-3-.58,5.88,5.88,0,0,1-2.07-1.51,6.4,6.4,0,0,1-1.19-2.09,6.92,6.92,0,0,1-.4-2.3A6.45,6.45,0,0,1,162,26a6.16,6.16,0,0,1,2.36-2.28,7,7,0,0,1,3.47-.84,6.24,6.24,0,0,1,2.51.47,5.08,5.08,0,0,1,1.75,1.2,5,5,0,0,1,1,1.58,4.33,4.33,0,0,1,.34,1.63,2.82,2.82,0,0,1-.67,2,2.25,2.25,0,0,1-1.68.67h-6a1.73,1.73,0,0,0,.46,1.08,2.81,2.81,0,0,0,1,.7,3.7,3.7,0,0,0,1.33.25,8.22,8.22,0,0,0,1-.06,4.43,4.43,0,0,0,.79-.18l.58-.22c.18-.08.34-.14.49-.19a2.41,2.41,0,0,1,.43-.1A1,1,0,0,1,172,32a2.11,2.11,0,0,1,.58.71,2,2,0,0,1,.23.53,2.14,2.14,0,0,1,.06.5,1.34,1.34,0,0,1-.61,1.09,4.68,4.68,0,0,1-1.72.73A11.06,11.06,0,0,1,167.83,35.83Zm-2.67-7.4h4a1,1,0,0,0,.57-.14c.14-.09.2-.27.2-.54a1.23,1.23,0,0,0-.27-.77,1.7,1.7,0,0,0-.74-.54,2.8,2.8,0,0,0-1.09-.19,3,3,0,0,0-1.35.3,2.36,2.36,0,0,0-.93.8A1.84,1.84,0,0,0,165.16,28.43Z"/><path class="cls-2" d="M192.28,35.59a2.42,2.42,0,0,1-1.38-.32.9.9,0,0,1-.42-.8l.25-.43a2.59,2.59,0,0,1-.58.61,4.11,4.11,0,0,1-1.11.65,4.33,4.33,0,0,1-1.66.29,5,5,0,0,1-2.19-.5,6.17,6.17,0,0,1-1.84-1.39,7.21,7.21,0,0,1-1.27-2,6.16,6.16,0,0,1,0-4.72,6.72,6.72,0,0,1,1.29-2,6.19,6.19,0,0,1,1.84-1.36,4.94,4.94,0,0,1,2.18-.5,4.05,4.05,0,0,1,2.66.88,3.18,3.18,0,0,1,.66.67l-.23-.35a1.05,1.05,0,0,1,.44-.91,2.42,2.42,0,0,1,1.39-.31,2.34,2.34,0,0,1,1.29.27,1.15,1.15,0,0,1,.47.73,4.79,4.79,0,0,1,.09.95v8.62a5.64,5.64,0,0,1-.08.93,1.09,1.09,0,0,1-.48.71A2.5,2.5,0,0,1,192.28,35.59Zm-4.38-3.73a2.24,2.24,0,0,0,1.21-.33,2.56,2.56,0,0,0,1.17-2.19,2.62,2.62,0,0,0-.32-1.29,2.5,2.5,0,0,0-.88-.89,2.39,2.39,0,0,0-1.22-.32,2.33,2.33,0,0,0-1.26.34,2.48,2.48,0,0,0-.91.91,2.54,2.54,0,0,0-.33,1.3,2.36,2.36,0,0,0,.33,1.23,2.62,2.62,0,0,0,.93.91A2.57,2.57,0,0,0,187.9,31.86Z"/><path class="cls-2" d="M198.48,35.62a2.28,2.28,0,0,1-1.3-.28,1.1,1.1,0,0,1-.49-.71,4.46,4.46,0,0,1-.09-.91V19.34a4.59,4.59,0,0,1,.09-.93,1.06,1.06,0,0,1,.49-.7,2.43,2.43,0,0,1,1.32-.27,2.35,2.35,0,0,1,1.28.28,1.08,1.08,0,0,1,.45.71,4.65,4.65,0,0,1,0,.92V34.5a1.37,1.37,0,0,1-.53.85A2.31,2.31,0,0,1,198.48,35.62Zm4.85,0a4.25,4.25,0,0,1-2.15-.52,4.53,4.53,0,0,1-1.54-1.38,6.49,6.49,0,0,1-.92-2,8.12,8.12,0,0,1-.29-2.39,8.36,8.36,0,0,1,.33-2.36,6.3,6.3,0,0,1,.94-2,4.24,4.24,0,0,1,3.63-1.82,4.88,4.88,0,0,1,2.15.5A6.24,6.24,0,0,1,207.32,25a6.45,6.45,0,0,1,1.27,2,6,6,0,0,1,.47,2.34,6.31,6.31,0,0,1-.47,2.41,6.7,6.7,0,0,1-1.26,2,5.87,5.87,0,0,1-1.83,1.36A4.92,4.92,0,0,1,203.33,35.6Zm-.5-3.7a2.3,2.3,0,0,0,1.25-.34,2.59,2.59,0,0,0,.89-.91,2.59,2.59,0,0,0,0-2.55,2.33,2.33,0,0,0-.89-.9,2.36,2.36,0,0,0-1.23-.33,2.43,2.43,0,0,0-2.12,1.24,2.61,2.61,0,0,0-.31,1.26,2.54,2.54,0,0,0,.33,1.28,2.45,2.45,0,0,0,.87.91A2.32,2.32,0,0,0,202.83,31.9Z"/><path class="cls-2" d="M213.23,21.33a2.36,2.36,0,0,1-1.34-.28,1.09,1.09,0,0,1-.49-.72,4.86,4.86,0,0,1-.09-.95,4.75,4.75,0,0,1,.09-1,1,1,0,0,1,.5-.7,2.59,2.59,0,0,1,1.36-.27,2.46,2.46,0,0,1,1.33.28,1.08,1.08,0,0,1,.48.72,5.1,5.1,0,0,1,.09,1,4.56,4.56,0,0,1-.09.92,1.11,1.11,0,0,1-.48.72A2.66,2.66,0,0,1,213.23,21.33Zm0,14.3a2.59,2.59,0,0,1-1.33-.26,1,1,0,0,1-.47-.7,5.52,5.52,0,0,1-.08-.92V25a4.46,4.46,0,0,1,.09-.91,1,1,0,0,1,.48-.7,2.47,2.47,0,0,1,1.33-.27,2.33,2.33,0,0,1,1.29.28,1.1,1.1,0,0,1,.47.71,4.69,4.69,0,0,1,.09.94v8.7a5.31,5.31,0,0,1-.08.91,1.06,1.06,0,0,1-.48.69A2.52,2.52,0,0,1,213.23,35.63Z"/><path class="cls-2" d="M224,35.86a7.17,7.17,0,0,1-3-.58,5.93,5.93,0,0,1-2.06-1.51,6.61,6.61,0,0,1-1.2-2.09,7.08,7.08,0,0,1-.39-2.3,6.38,6.38,0,0,1,.85-3.32,6.11,6.11,0,0,1,2.36-2.29,7,7,0,0,1,3.46-.83,6.27,6.27,0,0,1,2.52.46,5.33,5.33,0,0,1,1.75,1.2,5.07,5.07,0,0,1,1,1.59,4.53,4.53,0,0,1,.34,1.62,2.82,2.82,0,0,1-.67,2.05,2.26,2.26,0,0,1-1.69.68h-5.94a1.71,1.71,0,0,0,.46,1.08,2.81,2.81,0,0,0,1,.7,3.5,3.5,0,0,0,1.33.25,8.22,8.22,0,0,0,1-.06,3.46,3.46,0,0,0,.78-.18c.22-.07.42-.15.59-.22s.34-.14.49-.19a2.53,2.53,0,0,1,.42-.1,1.09,1.09,0,0,1,.68.21,1.94,1.94,0,0,1,.57.72,1.71,1.71,0,0,1,.24.52,2.2,2.2,0,0,1,.06.5,1.34,1.34,0,0,1-.61,1.09,4.83,4.83,0,0,1-1.73.74A11.47,11.47,0,0,1,224,35.86Zm-2.67-7.4h3.95a.92.92,0,0,0,.57-.14.61.61,0,0,0,.2-.53,1.25,1.25,0,0,0-.27-.78,1.87,1.87,0,0,0-.74-.54,3,3,0,0,0-1.09-.18,3.11,3.11,0,0,0-1.35.29,2.36,2.36,0,0,0-.93.8A1.89,1.89,0,0,0,221.31,28.46Z"/><path class="cls-2" d="M233.58,35.64a2.52,2.52,0,0,1-1.32-.26,1.12,1.12,0,0,1-.47-.71,4.73,4.73,0,0,1-.09-.93V25a4.45,4.45,0,0,1,.09-.93,1.07,1.07,0,0,1,.48-.69,2.59,2.59,0,0,1,1.33-.26,2.5,2.5,0,0,1,1.26.24,1.06,1.06,0,0,1,.49.55,2.08,2.08,0,0,1,.1.54l-.3.15a2.39,2.39,0,0,1,.26-.37,3.57,3.57,0,0,1,.59-.54,3.14,3.14,0,0,1,.91-.49,3.62,3.62,0,0,1,1.24-.2,4.55,4.55,0,0,1,.61,0,3,3,0,0,1,.7.15,2.47,2.47,0,0,1,.66.3,1.55,1.55,0,0,1,.49.46,1.14,1.14,0,0,1,.19.68,3,3,0,0,1-.48,1.73,1.37,1.37,0,0,1-1.2.71,2.11,2.11,0,0,1-.6-.06,1,1,0,0,1-.29-.15.93.93,0,0,0-.26-.15,1.68,1.68,0,0,0-.55-.06,2.34,2.34,0,0,0-.71.1,2.17,2.17,0,0,0-.63.31,1.6,1.6,0,0,0-.45.52,1.66,1.66,0,0,0-.16.72v5.47a4.46,4.46,0,0,1-.09.91,1,1,0,0,1-.49.69A2.56,2.56,0,0,1,233.58,35.64Z"/><path class="cls-2" d="M243.56,23.35h2.75l3.45-.1a4.36,4.36,0,0,1,.9.09,1.1,1.1,0,0,1,.7.49,2.43,2.43,0,0,1,.27,1.32,2.26,2.26,0,0,1-.26,1.25,1.13,1.13,0,0,1-.69.51,3.36,3.36,0,0,1-.92.12L246.48,27l-3,0a1.28,1.28,0,0,1-1-.46,2.56,2.56,0,0,1-.28-1.39,2.1,2.1,0,0,1,.35-1.34A1.26,1.26,0,0,1,243.56,23.35Zm5.64,12.3a7.54,7.54,0,0,1-2.2-.28,3.33,3.33,0,0,1-2.38-2.31,6.64,6.64,0,0,1-.29-2.11V20.82a4.2,4.2,0,0,1,.08-.92,1.06,1.06,0,0,1,.49-.66,3.21,3.21,0,0,1,2.6,0A1.1,1.1,0,0,1,248,20a4.56,4.56,0,0,1,.09.92V30.8a3,3,0,0,0,.06.66.71.71,0,0,0,.19.39.77.77,0,0,0,.35.18,2.79,2.79,0,0,0,.55,0,4.07,4.07,0,0,1,1,.1,1,1,0,0,1,.67.45,2.24,2.24,0,0,1,.23,1.17,2.38,2.38,0,0,1-.27,1.3,1.09,1.09,0,0,1-.72.48A5.33,5.33,0,0,1,249.2,35.65Z"/><path class="cls-2" d="M259.55,35.86a6.3,6.3,0,0,1-2.34-.47,7,7,0,0,1-2.11-1.31,6.53,6.53,0,0,1-1.51-2,6.47,6.47,0,0,1-.05-5.15A7,7,0,0,1,255,24.83,6.75,6.75,0,0,1,257,23.42a6.16,6.16,0,0,1,2.49-.51,6.33,6.33,0,0,1,3.26.86,6.64,6.64,0,0,1,2.34,2.34,6.36,6.36,0,0,1-1.2,8,6.53,6.53,0,0,1-4.36,1.73Zm-.05-3.78a2.85,2.85,0,0,0,1.23-.3,2.74,2.74,0,0,0,1-.9,2.65,2.65,0,0,0,.43-1.52,2.74,2.74,0,0,0-.35-1.4,2.58,2.58,0,0,0-1-.94,2.78,2.78,0,0,0-1.41-.34,2.63,2.63,0,0,0-1.34.35,2.73,2.73,0,0,0-.95,1,2.93,2.93,0,0,0,.05,2.9,2.49,2.49,0,0,0,1,.9A2.76,2.76,0,0,0,259.5,32.08Z"/><path class="cls-3" d="M113.18,35.57a2.37,2.37,0,0,1-1.33-.28,1.11,1.11,0,0,1-.48-.72,4.73,4.73,0,0,1-.09-.93V20a3.91,3.91,0,0,1,.1-.91,1.15,1.15,0,0,1,.5-.71,2.46,2.46,0,0,1,1.33-.28h5.12a6.37,6.37,0,0,1,2.1.37,6,6,0,0,1,2,1.17,6,6,0,0,1,1.47,1.94,6.11,6.11,0,0,1,.56,2.7A6,6,0,0,1,123.9,27a5.87,5.87,0,0,1-1.48,1.91,6.15,6.15,0,0,1-2,1.15,6.37,6.37,0,0,1-2.12.38h-3.2v3.28a3.84,3.84,0,0,1-.11.91,1.16,1.16,0,0,1-.5.72A2.41,2.41,0,0,1,113.18,35.57Zm1.93-9h3.22a2.65,2.65,0,0,0,1.09-.24,2.12,2.12,0,0,0,.9-.76,2.27,2.27,0,0,0,.37-1.35,2.35,2.35,0,0,0-.32-1.23,2.18,2.18,0,0,0-.83-.82,2.44,2.44,0,0,0-1.23-.3h-3.2Z"/><path class="cls-3" d="M132.78,35.81a7.25,7.25,0,0,1-3-.58,5.84,5.84,0,0,1-2.06-1.51,6.35,6.35,0,0,1-1.2-2.09,6.92,6.92,0,0,1-.4-2.3A6.45,6.45,0,0,1,127,26a6.16,6.16,0,0,1,2.36-2.28,7,7,0,0,1,3.47-.84,6.43,6.43,0,0,1,2.51.46,5.11,5.11,0,0,1,1.75,1.21,5,5,0,0,1,1,1.58,4.33,4.33,0,0,1,.34,1.63,2.78,2.78,0,0,1-.67,2,2.25,2.25,0,0,1-1.68.67h-5.95a1.73,1.73,0,0,0,.46,1.08,2.89,2.89,0,0,0,1,.7,3.6,3.6,0,0,0,1.32.25,6.54,6.54,0,0,0,1-.07,4.49,4.49,0,0,0,.79-.17c.21-.08.41-.15.58-.23l.49-.18a1.78,1.78,0,0,1,.43-.1,1,1,0,0,1,.67.21,2.11,2.11,0,0,1,.58.71,2,2,0,0,1,.23.53,2.15,2.15,0,0,1,.07.5,1.35,1.35,0,0,1-.62,1.09,4.86,4.86,0,0,1-1.72.73A11,11,0,0,1,132.78,35.81Zm-2.67-7.41h3.95a1,1,0,0,0,.57-.14c.14-.09.2-.27.2-.54a1.23,1.23,0,0,0-.27-.77,1.64,1.64,0,0,0-.74-.54,2.8,2.8,0,0,0-1.09-.19,2.91,2.91,0,0,0-1.34.3,2.32,2.32,0,0,0-.94.8A1.84,1.84,0,0,0,130.11,28.4Z"/><path class="cls-3" d="M142.51,21.29a2.52,2.52,0,0,1-1.35-.28,1.08,1.08,0,0,1-.48-.72,5.16,5.16,0,0,1,0-1.92,1,1,0,0,1,.5-.7,2.69,2.69,0,0,1,1.36-.26,2.31,2.31,0,0,1,1.32.28,1.09,1.09,0,0,1,.49.72,5,5,0,0,1,.09,1,4.7,4.7,0,0,1-.09.92,1.05,1.05,0,0,1-.49.71A2.48,2.48,0,0,1,142.51,21.29Zm0,14.3a2.43,2.43,0,0,1-1.32-.27,1,1,0,0,1-.48-.7,5.33,5.33,0,0,1-.07-.91V25a4.57,4.57,0,0,1,.08-.92,1.08,1.08,0,0,1,.49-.7,2.59,2.59,0,0,1,1.33-.26,2.18,2.18,0,0,1,1.28.28,1.12,1.12,0,0,1,.48.71,4.62,4.62,0,0,1,.09.94v8.7a4.46,4.46,0,0,1-.09.91,1.08,1.08,0,0,1-.47.69A2.64,2.64,0,0,1,142.5,35.59Z"/><path class="cls-3" d="M148.93,35.57a2.44,2.44,0,0,1-1.31-.27,1.07,1.07,0,0,1-.48-.7,4.46,4.46,0,0,1-.09-.91v-8.8a4.19,4.19,0,0,1,.09-.89,1,1,0,0,1,.49-.66,3.52,3.52,0,0,1,2.5,0,1,1,0,0,1,.48.52,1.47,1.47,0,0,1,.11.56,1,1,0,0,0,.05.36l-.14.48a1.5,1.5,0,0,1,.38-.77,3.71,3.71,0,0,1,.85-.69,4.35,4.35,0,0,1,1.1-.49,4,4,0,0,1,1.17-.18,5,5,0,0,1,2.13.44,4.27,4.27,0,0,1,1.59,1.27,6,6,0,0,1,1,1.93,8.62,8.62,0,0,1,.33,2.44v4.55a4.46,4.46,0,0,1-.09.91,1.05,1.05,0,0,1-.47.69,3.62,3.62,0,0,1-2.67,0,1.06,1.06,0,0,1-.48-.7,4.56,4.56,0,0,1-.09-.92V29.17a2.78,2.78,0,0,0-.26-1.28,1.81,1.81,0,0,0-.75-.8,2.46,2.46,0,0,0-1.21-.27,2.59,2.59,0,0,0-1.25.28,2.06,2.06,0,0,0-.81.82,2.46,2.46,0,0,0-.29,1.25v4.55a5.4,5.4,0,0,1-.08.91,1.06,1.06,0,0,1-.48.69A2.6,2.6,0,0,1,148.93,35.57Z"/><path class="cls-3" d="M167.83,35.83a7.25,7.25,0,0,1-3-.58,5.88,5.88,0,0,1-2.07-1.51,6.4,6.4,0,0,1-1.19-2.09,6.92,6.92,0,0,1-.4-2.3A6.45,6.45,0,0,1,162,26a6.16,6.16,0,0,1,2.36-2.28,7,7,0,0,1,3.47-.84,6.24,6.24,0,0,1,2.51.47,5.08,5.08,0,0,1,1.75,1.2,5,5,0,0,1,1,1.58,4.33,4.33,0,0,1,.34,1.63,2.82,2.82,0,0,1-.67,2,2.25,2.25,0,0,1-1.68.67h-6a1.73,1.73,0,0,0,.46,1.08,2.81,2.81,0,0,0,1,.7,3.7,3.7,0,0,0,1.33.25,8.22,8.22,0,0,0,1-.06,4.43,4.43,0,0,0,.79-.18l.58-.22c.18-.08.34-.14.49-.19a2.41,2.41,0,0,1,.43-.1A1,1,0,0,1,172,32a2.11,2.11,0,0,1,.58.71,2,2,0,0,1,.23.53,2.14,2.14,0,0,1,.06.5,1.34,1.34,0,0,1-.61,1.09,4.68,4.68,0,0,1-1.72.73A11.06,11.06,0,0,1,167.83,35.83Zm-2.67-7.4h4a1,1,0,0,0,.57-.14c.14-.09.2-.27.2-.54a1.23,1.23,0,0,0-.27-.77,1.7,1.7,0,0,0-.74-.54,2.8,2.8,0,0,0-1.09-.19,3,3,0,0,0-1.35.3,2.36,2.36,0,0,0-.93.8A1.84,1.84,0,0,0,165.16,28.43Z"/><path class="cls-3" d="M192.28,35.59a2.42,2.42,0,0,1-1.38-.32.9.9,0,0,1-.42-.8l.25-.43a2.59,2.59,0,0,1-.58.61,4.11,4.11,0,0,1-1.11.65,4.33,4.33,0,0,1-1.66.29,5,5,0,0,1-2.19-.5,6.17,6.17,0,0,1-1.84-1.39,7.21,7.21,0,0,1-1.27-2,6.16,6.16,0,0,1,0-4.72,6.72,6.72,0,0,1,1.29-2,6.19,6.19,0,0,1,1.84-1.36,4.94,4.94,0,0,1,2.18-.5,4.05,4.05,0,0,1,2.66.88,3.18,3.18,0,0,1,.66.67l-.23-.35a1.05,1.05,0,0,1,.44-.91,2.42,2.42,0,0,1,1.39-.31,2.34,2.34,0,0,1,1.29.27,1.15,1.15,0,0,1,.47.73,4.79,4.79,0,0,1,.09.95v8.62a5.64,5.64,0,0,1-.08.93,1.09,1.09,0,0,1-.48.71A2.5,2.5,0,0,1,192.28,35.59Zm-4.38-3.73a2.24,2.24,0,0,0,1.21-.33,2.56,2.56,0,0,0,1.17-2.19,2.62,2.62,0,0,0-.32-1.29,2.5,2.5,0,0,0-.88-.89,2.39,2.39,0,0,0-1.22-.32,2.33,2.33,0,0,0-1.26.34,2.48,2.48,0,0,0-.91.91,2.54,2.54,0,0,0-.33,1.3,2.36,2.36,0,0,0,.33,1.23,2.62,2.62,0,0,0,.93.91A2.57,2.57,0,0,0,187.9,31.86Z"/><path class="cls-3" d="M198.48,35.62a2.28,2.28,0,0,1-1.3-.28,1.1,1.1,0,0,1-.49-.71,4.46,4.46,0,0,1-.09-.91V19.34a4.59,4.59,0,0,1,.09-.93,1.06,1.06,0,0,1,.49-.7,2.43,2.43,0,0,1,1.32-.27,2.35,2.35,0,0,1,1.28.28,1.08,1.08,0,0,1,.45.71,4.65,4.65,0,0,1,0,.92V34.5a1.37,1.37,0,0,1-.53.85A2.31,2.31,0,0,1,198.48,35.62Zm4.85,0a4.25,4.25,0,0,1-2.15-.52,4.53,4.53,0,0,1-1.54-1.38,6.49,6.49,0,0,1-.92-2,8.12,8.12,0,0,1-.29-2.39,8.36,8.36,0,0,1,.33-2.36,6.3,6.3,0,0,1,.94-2,4.24,4.24,0,0,1,3.63-1.82,4.88,4.88,0,0,1,2.15.5A6.24,6.24,0,0,1,207.32,25a6.45,6.45,0,0,1,1.27,2,6,6,0,0,1,.47,2.34,6.31,6.31,0,0,1-.47,2.41,6.7,6.7,0,0,1-1.26,2,5.87,5.87,0,0,1-1.83,1.36A4.92,4.92,0,0,1,203.33,35.6Zm-.5-3.7a2.3,2.3,0,0,0,1.25-.34,2.59,2.59,0,0,0,.89-.91,2.59,2.59,0,0,0,0-2.55,2.33,2.33,0,0,0-.89-.9,2.36,2.36,0,0,0-1.23-.33,2.43,2.43,0,0,0-2.12,1.24,2.61,2.61,0,0,0-.31,1.26,2.54,2.54,0,0,0,.33,1.28,2.45,2.45,0,0,0,.87.91A2.32,2.32,0,0,0,202.83,31.9Z"/><path class="cls-3" d="M213.23,21.33a2.36,2.36,0,0,1-1.34-.28,1.09,1.09,0,0,1-.49-.72,4.86,4.86,0,0,1-.09-.95,4.75,4.75,0,0,1,.09-1,1,1,0,0,1,.5-.7,2.59,2.59,0,0,1,1.36-.27,2.46,2.46,0,0,1,1.33.28,1.08,1.08,0,0,1,.48.72,5.1,5.1,0,0,1,.09,1,4.56,4.56,0,0,1-.09.92,1.11,1.11,0,0,1-.48.72A2.66,2.66,0,0,1,213.23,21.33Zm0,14.3a2.59,2.59,0,0,1-1.33-.26,1,1,0,0,1-.47-.7,5.52,5.52,0,0,1-.08-.92V25a4.46,4.46,0,0,1,.09-.91,1,1,0,0,1,.48-.7,2.47,2.47,0,0,1,1.33-.27,2.33,2.33,0,0,1,1.29.28,1.1,1.1,0,0,1,.47.71,4.69,4.69,0,0,1,.09.94v8.7a5.31,5.31,0,0,1-.08.91,1.06,1.06,0,0,1-.48.69A2.52,2.52,0,0,1,213.23,35.63Z"/><path class="cls-3" d="M224,35.86a7.17,7.17,0,0,1-3-.58,5.93,5.93,0,0,1-2.06-1.51,6.61,6.61,0,0,1-1.2-2.09,7.08,7.08,0,0,1-.39-2.3,6.38,6.38,0,0,1,.85-3.32,6.11,6.11,0,0,1,2.36-2.29,7,7,0,0,1,3.46-.83,6.27,6.27,0,0,1,2.52.46,5.33,5.33,0,0,1,1.75,1.2,5.07,5.07,0,0,1,1,1.59,4.53,4.53,0,0,1,.34,1.62,2.82,2.82,0,0,1-.67,2.05,2.26,2.26,0,0,1-1.69.68h-5.94a1.71,1.71,0,0,0,.46,1.08,2.81,2.81,0,0,0,1,.7,3.5,3.5,0,0,0,1.33.25,8.22,8.22,0,0,0,1-.06,3.46,3.46,0,0,0,.78-.18c.22-.07.42-.15.59-.22s.34-.14.49-.19a2.53,2.53,0,0,1,.42-.1,1.09,1.09,0,0,1,.68.21,1.94,1.94,0,0,1,.57.72,1.71,1.71,0,0,1,.24.52,2.2,2.2,0,0,1,.06.5,1.34,1.34,0,0,1-.61,1.09,4.83,4.83,0,0,1-1.73.74A11.47,11.47,0,0,1,224,35.86Zm-2.67-7.4h3.95a.92.92,0,0,0,.57-.14.61.61,0,0,0,.2-.53,1.25,1.25,0,0,0-.27-.78,1.87,1.87,0,0,0-.74-.54,3,3,0,0,0-1.09-.18,3.11,3.11,0,0,0-1.35.29,2.36,2.36,0,0,0-.93.8A1.89,1.89,0,0,0,221.31,28.46Z"/><path class="cls-3" d="M233.58,35.64a2.52,2.52,0,0,1-1.32-.26,1.12,1.12,0,0,1-.47-.71,4.73,4.73,0,0,1-.09-.93V25a4.45,4.45,0,0,1,.09-.93,1.07,1.07,0,0,1,.48-.69,2.59,2.59,0,0,1,1.33-.26,2.5,2.5,0,0,1,1.26.24,1.06,1.06,0,0,1,.49.55,2.08,2.08,0,0,1,.1.54l-.3.15a2.39,2.39,0,0,1,.26-.37,3.57,3.57,0,0,1,.59-.54,3.14,3.14,0,0,1,.91-.49,3.62,3.62,0,0,1,1.24-.2,4.55,4.55,0,0,1,.61,0,3,3,0,0,1,.7.15,2.47,2.47,0,0,1,.66.3,1.55,1.55,0,0,1,.49.46,1.14,1.14,0,0,1,.19.68,3,3,0,0,1-.48,1.73,1.37,1.37,0,0,1-1.2.71,2.11,2.11,0,0,1-.6-.06,1,1,0,0,1-.29-.15.93.93,0,0,0-.26-.15,1.68,1.68,0,0,0-.55-.06,2.34,2.34,0,0,0-.71.1,2.17,2.17,0,0,0-.63.31,1.6,1.6,0,0,0-.45.52,1.66,1.66,0,0,0-.16.72v5.47a4.46,4.46,0,0,1-.09.91,1,1,0,0,1-.49.69A2.56,2.56,0,0,1,233.58,35.64Z"/><path class="cls-3" d="M243.56,23.35h2.75l3.45-.1a4.36,4.36,0,0,1,.9.09,1.1,1.1,0,0,1,.7.49,2.43,2.43,0,0,1,.27,1.32,2.26,2.26,0,0,1-.26,1.25,1.13,1.13,0,0,1-.69.51,3.36,3.36,0,0,1-.92.12L246.48,27l-3,0a1.28,1.28,0,0,1-1-.46,2.56,2.56,0,0,1-.28-1.39,2.1,2.1,0,0,1,.35-1.34A1.26,1.26,0,0,1,243.56,23.35Zm5.64,12.3a7.54,7.54,0,0,1-2.2-.28,3.33,3.33,0,0,1-2.38-2.31,6.64,6.64,0,0,1-.29-2.11V20.82a4.2,4.2,0,0,1,.08-.92,1.06,1.06,0,0,1,.49-.66,3.21,3.21,0,0,1,2.6,0A1.1,1.1,0,0,1,248,20a4.56,4.56,0,0,1,.09.92V30.8a3,3,0,0,0,.06.66.71.71,0,0,0,.19.39.77.77,0,0,0,.35.18,2.79,2.79,0,0,0,.55,0,4.07,4.07,0,0,1,1,.1,1,1,0,0,1,.67.45,2.24,2.24,0,0,1,.23,1.17,2.38,2.38,0,0,1-.27,1.3,1.09,1.09,0,0,1-.72.48A5.33,5.33,0,0,1,249.2,35.65Z"/><path class="cls-3" d="M259.55,35.86a6.3,6.3,0,0,1-2.34-.47,7,7,0,0,1-2.11-1.31,6.53,6.53,0,0,1-1.51-2,6.47,6.47,0,0,1-.05-5.15A7,7,0,0,1,255,24.83,6.75,6.75,0,0,1,257,23.42a6.16,6.16,0,0,1,2.49-.51,6.33,6.33,0,0,1,3.26.86,6.64,6.64,0,0,1,2.34,2.34,6.36,6.36,0,0,1-1.2,8,6.53,6.53,0,0,1-4.36,1.73Zm-.05-3.78a2.85,2.85,0,0,0,1.23-.3,2.74,2.74,0,0,0,1-.9,2.65,2.65,0,0,0,.43-1.52,2.74,2.74,0,0,0-.35-1.4,2.58,2.58,0,0,0-1-.94,2.78,2.78,0,0,0-1.41-.34,2.63,2.63,0,0,0-1.34.35,2.73,2.73,0,0,0-.95,1,2.93,2.93,0,0,0,.05,2.9,2.49,2.49,0,0,0,1,.9A2.76,2.76,0,0,0,259.5,32.08Z"/><path class="cls-2" d="M113.18,35.57a2.37,2.37,0,0,1-1.33-.28,1.11,1.11,0,0,1-.48-.72,4.73,4.73,0,0,1-.09-.93V20a3.91,3.91,0,0,1,.1-.91,1.15,1.15,0,0,1,.5-.71,2.46,2.46,0,0,1,1.33-.28h5.12a6.37,6.37,0,0,1,2.1.37,6,6,0,0,1,2,1.17,6,6,0,0,1,1.47,1.94,6.11,6.11,0,0,1,.56,2.7A6,6,0,0,1,123.9,27a5.87,5.87,0,0,1-1.48,1.91,6.15,6.15,0,0,1-2,1.15,6.37,6.37,0,0,1-2.12.38h-3.2v3.28a3.84,3.84,0,0,1-.11.91,1.16,1.16,0,0,1-.5.72A2.41,2.41,0,0,1,113.18,35.57Zm1.93-9h3.22a2.65,2.65,0,0,0,1.09-.24,2.12,2.12,0,0,0,.9-.76,2.27,2.27,0,0,0,.37-1.35,2.35,2.35,0,0,0-.32-1.23,2.18,2.18,0,0,0-.83-.82,2.44,2.44,0,0,0-1.23-.3h-3.2Z"/><path class="cls-2" d="M132.78,35.81a7.25,7.25,0,0,1-3-.58,5.84,5.84,0,0,1-2.06-1.51,6.35,6.35,0,0,1-1.2-2.09,6.92,6.92,0,0,1-.4-2.3A6.45,6.45,0,0,1,127,26a6.16,6.16,0,0,1,2.36-2.28,7,7,0,0,1,3.47-.84,6.43,6.43,0,0,1,2.51.46,5.11,5.11,0,0,1,1.75,1.21,5,5,0,0,1,1,1.58,4.33,4.33,0,0,1,.34,1.63,2.78,2.78,0,0,1-.67,2,2.25,2.25,0,0,1-1.68.67h-5.95a1.73,1.73,0,0,0,.46,1.08,2.89,2.89,0,0,0,1,.7,3.6,3.6,0,0,0,1.32.25,6.54,6.54,0,0,0,1-.07,4.49,4.49,0,0,0,.79-.17c.21-.08.41-.15.58-.23l.49-.18a1.78,1.78,0,0,1,.43-.1,1,1,0,0,1,.67.21,2.11,2.11,0,0,1,.58.71,2,2,0,0,1,.23.53,2.15,2.15,0,0,1,.07.5,1.35,1.35,0,0,1-.62,1.09,4.86,4.86,0,0,1-1.72.73A11,11,0,0,1,132.78,35.81Zm-2.67-7.41h3.95a1,1,0,0,0,.57-.14c.14-.09.2-.27.2-.54a1.23,1.23,0,0,0-.27-.77,1.64,1.64,0,0,0-.74-.54,2.8,2.8,0,0,0-1.09-.19,2.91,2.91,0,0,0-1.34.3,2.32,2.32,0,0,0-.94.8A1.84,1.84,0,0,0,130.11,28.4Z"/><path class="cls-2" d="M142.51,21.29a2.52,2.52,0,0,1-1.35-.28,1.08,1.08,0,0,1-.48-.72,5.16,5.16,0,0,1,0-1.92,1,1,0,0,1,.5-.7,2.69,2.69,0,0,1,1.36-.26,2.31,2.31,0,0,1,1.32.28,1.09,1.09,0,0,1,.49.72,5,5,0,0,1,.09,1,4.7,4.7,0,0,1-.09.92,1.05,1.05,0,0,1-.49.71A2.48,2.48,0,0,1,142.51,21.29Zm0,14.3a2.43,2.43,0,0,1-1.32-.27,1,1,0,0,1-.48-.7,5.33,5.33,0,0,1-.07-.91V25a4.57,4.57,0,0,1,.08-.92,1.08,1.08,0,0,1,.49-.7,2.59,2.59,0,0,1,1.33-.26,2.18,2.18,0,0,1,1.28.28,1.12,1.12,0,0,1,.48.71,4.62,4.62,0,0,1,.09.94v8.7a4.46,4.46,0,0,1-.09.91,1.08,1.08,0,0,1-.47.69A2.64,2.64,0,0,1,142.5,35.59Z"/><path class="cls-2" d="M148.93,35.57a2.44,2.44,0,0,1-1.31-.27,1.07,1.07,0,0,1-.48-.7,4.46,4.46,0,0,1-.09-.91v-8.8a4.19,4.19,0,0,1,.09-.89,1,1,0,0,1,.49-.66,3.52,3.52,0,0,1,2.5,0,1,1,0,0,1,.48.52,1.47,1.47,0,0,1,.11.56,1,1,0,0,0,.05.36l-.14.48a1.5,1.5,0,0,1,.38-.77,3.71,3.71,0,0,1,.85-.69,4.35,4.35,0,0,1,1.1-.49,4,4,0,0,1,1.17-.18,5,5,0,0,1,2.13.44,4.27,4.27,0,0,1,1.59,1.27,6,6,0,0,1,1,1.93,8.62,8.62,0,0,1,.33,2.44v4.55a4.46,4.46,0,0,1-.09.91,1.05,1.05,0,0,1-.47.69,3.62,3.62,0,0,1-2.67,0,1.06,1.06,0,0,1-.48-.7,4.56,4.56,0,0,1-.09-.92V29.17a2.78,2.78,0,0,0-.26-1.28,1.81,1.81,0,0,0-.75-.8,2.46,2.46,0,0,0-1.21-.27,2.59,2.59,0,0,0-1.25.28,2.06,2.06,0,0,0-.81.82,2.46,2.46,0,0,0-.29,1.25v4.55a5.4,5.4,0,0,1-.08.91,1.06,1.06,0,0,1-.48.69A2.6,2.6,0,0,1,148.93,35.57Z"/><path class="cls-2" d="M167.83,35.83a7.25,7.25,0,0,1-3-.58,5.88,5.88,0,0,1-2.07-1.51,6.4,6.4,0,0,1-1.19-2.09,6.92,6.92,0,0,1-.4-2.3A6.45,6.45,0,0,1,162,26a6.16,6.16,0,0,1,2.36-2.28,7,7,0,0,1,3.47-.84,6.24,6.24,0,0,1,2.51.47,5.08,5.08,0,0,1,1.75,1.2,5,5,0,0,1,1,1.58,4.33,4.33,0,0,1,.34,1.63,2.82,2.82,0,0,1-.67,2,2.25,2.25,0,0,1-1.68.67h-6a1.73,1.73,0,0,0,.46,1.08,2.81,2.81,0,0,0,1,.7,3.7,3.7,0,0,0,1.33.25,8.22,8.22,0,0,0,1-.06,4.43,4.43,0,0,0,.79-.18l.58-.22c.18-.08.34-.14.49-.19a2.41,2.41,0,0,1,.43-.1A1,1,0,0,1,172,32a2.11,2.11,0,0,1,.58.71,2,2,0,0,1,.23.53,2.14,2.14,0,0,1,.06.5,1.34,1.34,0,0,1-.61,1.09,4.68,4.68,0,0,1-1.72.73A11.06,11.06,0,0,1,167.83,35.83Zm-2.67-7.4h4a1,1,0,0,0,.57-.14c.14-.09.2-.27.2-.54a1.23,1.23,0,0,0-.27-.77,1.7,1.7,0,0,0-.74-.54,2.8,2.8,0,0,0-1.09-.19,3,3,0,0,0-1.35.3,2.36,2.36,0,0,0-.93.8A1.84,1.84,0,0,0,165.16,28.43Z"/><path class="cls-2" d="M192.28,35.59a2.42,2.42,0,0,1-1.38-.32.9.9,0,0,1-.42-.8l.25-.43a2.59,2.59,0,0,1-.58.61,4.11,4.11,0,0,1-1.11.65,4.33,4.33,0,0,1-1.66.29,5,5,0,0,1-2.19-.5,6.17,6.17,0,0,1-1.84-1.39,7.21,7.21,0,0,1-1.27-2,6.16,6.16,0,0,1,0-4.72,6.72,6.72,0,0,1,1.29-2,6.19,6.19,0,0,1,1.84-1.36,4.94,4.94,0,0,1,2.18-.5,4.05,4.05,0,0,1,2.66.88,3.18,3.18,0,0,1,.66.67l-.23-.35a1.05,1.05,0,0,1,.44-.91,2.42,2.42,0,0,1,1.39-.31,2.34,2.34,0,0,1,1.29.27,1.15,1.15,0,0,1,.47.73,4.79,4.79,0,0,1,.09.95v8.62a5.64,5.64,0,0,1-.08.93,1.09,1.09,0,0,1-.48.71A2.5,2.5,0,0,1,192.28,35.59Zm-4.38-3.73a2.24,2.24,0,0,0,1.21-.33,2.56,2.56,0,0,0,1.17-2.19,2.62,2.62,0,0,0-.32-1.29,2.5,2.5,0,0,0-.88-.89,2.39,2.39,0,0,0-1.22-.32,2.33,2.33,0,0,0-1.26.34,2.48,2.48,0,0,0-.91.91,2.54,2.54,0,0,0-.33,1.3,2.36,2.36,0,0,0,.33,1.23,2.62,2.62,0,0,0,.93.91A2.57,2.57,0,0,0,187.9,31.86Z"/><path class="cls-2" d="M198.48,35.62a2.28,2.28,0,0,1-1.3-.28,1.1,1.1,0,0,1-.49-.71,4.46,4.46,0,0,1-.09-.91V19.34a4.59,4.59,0,0,1,.09-.93,1.06,1.06,0,0,1,.49-.7,2.43,2.43,0,0,1,1.32-.27,2.35,2.35,0,0,1,1.28.28,1.08,1.08,0,0,1,.45.71,4.65,4.65,0,0,1,0,.92V34.5a1.37,1.37,0,0,1-.53.85A2.31,2.31,0,0,1,198.48,35.62Zm4.85,0a4.25,4.25,0,0,1-2.15-.52,4.53,4.53,0,0,1-1.54-1.38,6.49,6.49,0,0,1-.92-2,8.12,8.12,0,0,1-.29-2.39,8.36,8.36,0,0,1,.33-2.36,6.3,6.3,0,0,1,.94-2,4.24,4.24,0,0,1,3.63-1.82,4.88,4.88,0,0,1,2.15.5A6.24,6.24,0,0,1,207.32,25a6.45,6.45,0,0,1,1.27,2,6,6,0,0,1,.47,2.34,6.31,6.31,0,0,1-.47,2.41,6.7,6.7,0,0,1-1.26,2,5.87,5.87,0,0,1-1.83,1.36A4.92,4.92,0,0,1,203.33,35.6Zm-.5-3.7a2.3,2.3,0,0,0,1.25-.34,2.59,2.59,0,0,0,.89-.91,2.59,2.59,0,0,0,0-2.55,2.33,2.33,0,0,0-.89-.9,2.36,2.36,0,0,0-1.23-.33,2.43,2.43,0,0,0-2.12,1.24,2.61,2.61,0,0,0-.31,1.26,2.54,2.54,0,0,0,.33,1.28,2.45,2.45,0,0,0,.87.91A2.32,2.32,0,0,0,202.83,31.9Z"/><path class="cls-2" d="M213.23,21.33a2.36,2.36,0,0,1-1.34-.28,1.09,1.09,0,0,1-.49-.72,4.86,4.86,0,0,1-.09-.95,4.75,4.75,0,0,1,.09-1,1,1,0,0,1,.5-.7,2.59,2.59,0,0,1,1.36-.27,2.46,2.46,0,0,1,1.33.28,1.08,1.08,0,0,1,.48.72,5.1,5.1,0,0,1,.09,1,4.56,4.56,0,0,1-.09.92,1.11,1.11,0,0,1-.48.72A2.66,2.66,0,0,1,213.23,21.33Zm0,14.3a2.59,2.59,0,0,1-1.33-.26,1,1,0,0,1-.47-.7,5.52,5.52,0,0,1-.08-.92V25a4.46,4.46,0,0,1,.09-.91,1,1,0,0,1,.48-.7,2.47,2.47,0,0,1,1.33-.27,2.33,2.33,0,0,1,1.29.28,1.1,1.1,0,0,1,.47.71,4.69,4.69,0,0,1,.09.94v8.7a5.31,5.31,0,0,1-.08.91,1.06,1.06,0,0,1-.48.69A2.52,2.52,0,0,1,213.23,35.63Z"/><path class="cls-2" d="M224,35.86a7.17,7.17,0,0,1-3-.58,5.93,5.93,0,0,1-2.06-1.51,6.61,6.61,0,0,1-1.2-2.09,7.08,7.08,0,0,1-.39-2.3,6.38,6.38,0,0,1,.85-3.32,6.11,6.11,0,0,1,2.36-2.29,7,7,0,0,1,3.46-.83,6.27,6.27,0,0,1,2.52.46,5.33,5.33,0,0,1,1.75,1.2,5.07,5.07,0,0,1,1,1.59,4.53,4.53,0,0,1,.34,1.62,2.82,2.82,0,0,1-.67,2.05,2.26,2.26,0,0,1-1.69.68h-5.94a1.71,1.71,0,0,0,.46,1.08,2.81,2.81,0,0,0,1,.7,3.5,3.5,0,0,0,1.33.25,8.22,8.22,0,0,0,1-.06,3.46,3.46,0,0,0,.78-.18c.22-.07.42-.15.59-.22s.34-.14.49-.19a2.53,2.53,0,0,1,.42-.1,1.09,1.09,0,0,1,.68.21,1.94,1.94,0,0,1,.57.72,1.71,1.71,0,0,1,.24.52,2.2,2.2,0,0,1,.06.5,1.34,1.34,0,0,1-.61,1.09,4.83,4.83,0,0,1-1.73.74A11.47,11.47,0,0,1,224,35.86Zm-2.67-7.4h3.95a.92.92,0,0,0,.57-.14.61.61,0,0,0,.2-.53,1.25,1.25,0,0,0-.27-.78,1.87,1.87,0,0,0-.74-.54,3,3,0,0,0-1.09-.18,3.11,3.11,0,0,0-1.35.29,2.36,2.36,0,0,0-.93.8A1.89,1.89,0,0,0,221.31,28.46Z"/><path class="cls-2" d="M233.58,35.64a2.52,2.52,0,0,1-1.32-.26,1.12,1.12,0,0,1-.47-.71,4.73,4.73,0,0,1-.09-.93V25a4.45,4.45,0,0,1,.09-.93,1.07,1.07,0,0,1,.48-.69,2.59,2.59,0,0,1,1.33-.26,2.5,2.5,0,0,1,1.26.24,1.06,1.06,0,0,1,.49.55,2.08,2.08,0,0,1,.1.54l-.3.15a2.39,2.39,0,0,1,.26-.37,3.57,3.57,0,0,1,.59-.54,3.14,3.14,0,0,1,.91-.49,3.62,3.62,0,0,1,1.24-.2,4.55,4.55,0,0,1,.61,0,3,3,0,0,1,.7.15,2.47,2.47,0,0,1,.66.3,1.55,1.55,0,0,1,.49.46,1.14,1.14,0,0,1,.19.68,3,3,0,0,1-.48,1.73,1.37,1.37,0,0,1-1.2.71,2.11,2.11,0,0,1-.6-.06,1,1,0,0,1-.29-.15.93.93,0,0,0-.26-.15,1.68,1.68,0,0,0-.55-.06,2.34,2.34,0,0,0-.71.1,2.17,2.17,0,0,0-.63.31,1.6,1.6,0,0,0-.45.52,1.66,1.66,0,0,0-.16.72v5.47a4.46,4.46,0,0,1-.09.91,1,1,0,0,1-.49.69A2.56,2.56,0,0,1,233.58,35.64Z"/><path class="cls-2" d="M243.56,23.35h2.75l3.45-.1a4.36,4.36,0,0,1,.9.09,1.1,1.1,0,0,1,.7.49,2.43,2.43,0,0,1,.27,1.32,2.26,2.26,0,0,1-.26,1.25,1.13,1.13,0,0,1-.69.51,3.36,3.36,0,0,1-.92.12L246.48,27l-3,0a1.28,1.28,0,0,1-1-.46,2.56,2.56,0,0,1-.28-1.39,2.1,2.1,0,0,1,.35-1.34A1.26,1.26,0,0,1,243.56,23.35Zm5.64,12.3a7.54,7.54,0,0,1-2.2-.28,3.33,3.33,0,0,1-2.38-2.31,6.64,6.64,0,0,1-.29-2.11V20.82a4.2,4.2,0,0,1,.08-.92,1.06,1.06,0,0,1,.49-.66,3.21,3.21,0,0,1,2.6,0A1.1,1.1,0,0,1,248,20a4.56,4.56,0,0,1,.09.92V30.8a3,3,0,0,0,.06.66.71.71,0,0,0,.19.39.77.77,0,0,0,.35.18,2.79,2.79,0,0,0,.55,0,4.07,4.07,0,0,1,1,.1,1,1,0,0,1,.67.45,2.24,2.24,0,0,1,.23,1.17,2.38,2.38,0,0,1-.27,1.3,1.09,1.09,0,0,1-.72.48A5.33,5.33,0,0,1,249.2,35.65Z"/><path class="cls-2" d="M259.55,35.86a6.3,6.3,0,0,1-2.34-.47,7,7,0,0,1-2.11-1.31,6.53,6.53,0,0,1-1.51-2,6.47,6.47,0,0,1-.05-5.15A7,7,0,0,1,255,24.83,6.75,6.75,0,0,1,257,23.42a6.16,6.16,0,0,1,2.49-.51,6.33,6.33,0,0,1,3.26.86,6.64,6.64,0,0,1,2.34,2.34,6.36,6.36,0,0,1-1.2,8,6.53,6.53,0,0,1-4.36,1.73Zm-.05-3.78a2.85,2.85,0,0,0,1.23-.3,2.74,2.74,0,0,0,1-.9,2.65,2.65,0,0,0,.43-1.52,2.74,2.74,0,0,0-.35-1.4,2.58,2.58,0,0,0-1-.94,2.78,2.78,0,0,0-1.41-.34,2.63,2.63,0,0,0-1.34.35,2.73,2.73,0,0,0-.95,1,2.93,2.93,0,0,0,.05,2.9,2.49,2.49,0,0,0,1,.9A2.76,2.76,0,0,0,259.5,32.08Z"/><path class="cls-4" d="M55.46,36.28q0,3.4-1.18,4.85a4.36,4.36,0,0,1-3.59,1.45,5.6,5.6,0,0,1-2.57-.5,3.25,3.25,0,0,1-1.48-1.85,11,11,0,0,1-.55-3.61L46,21a6.3,6.3,0,0,1-3.21-.73,2.58,2.58,0,0,1-1.26-2.46,2.77,2.77,0,0,1,1.16-2.29,5.16,5.16,0,0,1,3.24-.9l2.3,0,2.1,0c2,0,3.36.34,4,1a5,5,0,0,1,1,3.59Z"/><path class="cls-4" d="M59.21,39.73a2.78,2.78,0,0,1,1.16-2.31,5.33,5.33,0,0,1,3.28-.88q4.44,0,4.44,3.19a3.1,3.1,0,0,1-.57,2,2.8,2.8,0,0,1-1.51,1,9.21,9.21,0,0,1-2.36.25,6,6,0,0,1-3.18-.76A2.61,2.61,0,0,1,59.21,39.73Z"/><path class="cls-4" d="M82.48,23.68c0-1.37-1.23-2.05-3.7-2.05a19.15,19.15,0,0,0-2.1.14,19.23,19.23,0,0,1-1.94.15q-2.92,0-2.93-3.61t8.48-3.74q5.5,0,8.23,1.85a5.6,5.6,0,0,1,2.73,4.83,7.77,7.77,0,0,1-3.51,6.63,9.52,9.52,0,0,1,3.32,2.71,7.26,7.26,0,0,1,1,4.05,7.35,7.35,0,0,1-2.8,6,11.46,11.46,0,0,1-7.48,2.29c-3.91,0-6.71-.42-8.41-1.24a4,4,0,0,1-2.54-3.76A3.92,3.92,0,0,1,71.6,35a3.15,3.15,0,0,1,2.28-.77c.49,0,1.25.05,2.28.16a21.56,21.56,0,0,0,2.36.17q4.44,0,4.45-1.68a1.61,1.61,0,0,0-.86-1.57,7.8,7.8,0,0,0-3.22-.44,6.5,6.5,0,0,1-3.34-.63,2.6,2.6,0,0,1-1-2.36c0-1.73,1.11-2.6,3.34-2.6a17.65,17.65,0,0,0,3.2-.21q1-.21,1.2-.48A1.9,1.9,0,0,0,82.48,23.68Z"/><path class="cls-5" d="M55.46,36.28q0,3.4-1.18,4.85a4.36,4.36,0,0,1-3.59,1.45,5.6,5.6,0,0,1-2.57-.5,3.25,3.25,0,0,1-1.48-1.85,11,11,0,0,1-.55-3.61L46,21a6.3,6.3,0,0,1-3.21-.73,2.58,2.58,0,0,1-1.26-2.46,2.77,2.77,0,0,1,1.16-2.29,5.16,5.16,0,0,1,3.24-.9l2.3,0,2.1,0c2,0,3.36.34,4,1a5,5,0,0,1,1,3.59Z"/><path class="cls-5" d="M59.21,39.73a2.78,2.78,0,0,1,1.16-2.31,5.33,5.33,0,0,1,3.28-.88q4.44,0,4.44,3.19a3.1,3.1,0,0,1-.57,2,2.8,2.8,0,0,1-1.51,1,9.21,9.21,0,0,1-2.36.25,6,6,0,0,1-3.18-.76A2.61,2.61,0,0,1,59.21,39.73Z"/><path class="cls-5" d="M82.48,23.68c0-1.37-1.23-2.05-3.7-2.05a19.15,19.15,0,0,0-2.1.14,19.23,19.23,0,0,1-1.94.15q-2.92,0-2.93-3.61t8.48-3.74q5.5,0,8.23,1.85a5.6,5.6,0,0,1,2.73,4.83,7.77,7.77,0,0,1-3.51,6.63,9.52,9.52,0,0,1,3.32,2.71,7.26,7.26,0,0,1,1,4.05,7.35,7.35,0,0,1-2.8,6,11.46,11.46,0,0,1-7.48,2.29c-3.91,0-6.71-.42-8.41-1.24a4,4,0,0,1-2.54-3.76A3.92,3.92,0,0,1,71.6,35a3.15,3.15,0,0,1,2.28-.77c.49,0,1.25.05,2.28.16a21.56,21.56,0,0,0,2.36.17q4.44,0,4.45-1.68a1.61,1.61,0,0,0-.86-1.57,7.8,7.8,0,0,0-3.22-.44,6.5,6.5,0,0,1-3.34-.63,2.6,2.6,0,0,1-1-2.36c0-1.73,1.11-2.6,3.34-2.6a17.65,17.65,0,0,0,3.2-.21q1-.21,1.2-.48A1.9,1.9,0,0,0,82.48,23.68Z"/></g></g></svg>