<svg xmlns="http://www.w3.org/2000/svg" viewBox="0 0 399.98 100.52"><defs><style>.cls-1{fill:#03826e;}.cls-2{fill:#fff;}.cls-3,.cls-4{fill:none;stroke-width:5px;}.cls-3{stroke:#b6ba01;stroke-linejoin:round;}.cls-4{stroke:#fff;}.cls-5{fill:#b6ba01;}</style></defs><title>13t</title><g id="Layer_2" data-name="Layer 2"><g id="pestaña_identificativa" data-name="pestaña identificativa"><rect class="cls-1" width="399.98" height="100.52" rx="32.4"/><path class="cls-2" d="M113.18,34.84a2.4,2.4,0,0,1-1.32-.28,1.09,1.09,0,0,1-.49-.72,4.73,4.73,0,0,1-.09-.93V19.26a3.85,3.85,0,0,1,.1-.91,1.15,1.15,0,0,1,.5-.71,2.37,2.37,0,0,1,1.33-.28h5.12a6.39,6.39,0,0,1,2.1.38,5.94,5.94,0,0,1,4,5.8,6.06,6.06,0,0,1-.56,2.69,5.87,5.87,0,0,1-1.48,1.91,6.15,6.15,0,0,1-2,1.15,6.36,6.36,0,0,1-2.12.37h-3.2v3.28a4.53,4.53,0,0,1-.1.91,1.17,1.17,0,0,1-.51.71A2.31,2.31,0,0,1,113.18,34.84Zm1.93-9h3.23a2.63,2.63,0,0,0,1.08-.23,2.12,2.12,0,0,0,.9-.76,2.27,2.27,0,0,0,.37-1.35,2.35,2.35,0,0,0-.32-1.23,2.18,2.18,0,0,0-.83-.82,2.44,2.44,0,0,0-1.23-.31h-3.2Z"/><path class="cls-2" d="M132.78,35.07a7.25,7.25,0,0,1-3-.57A5.86,5.86,0,0,1,127.71,33a6.16,6.16,0,0,1-1.2-2.09,6.83,6.83,0,0,1-.4-2.3,6.41,6.41,0,0,1,.85-3.32A6.18,6.18,0,0,1,129.32,23a7.15,7.15,0,0,1,3.47-.83,6.25,6.25,0,0,1,2.51.46,5.23,5.23,0,0,1,1.75,1.2,5.11,5.11,0,0,1,1,1.59,4.33,4.33,0,0,1,.34,1.63,2.84,2.84,0,0,1-.66,2,2.28,2.28,0,0,1-1.69.67h-5.95a1.71,1.71,0,0,0,.46,1.07,2.66,2.66,0,0,0,1,.7,3.41,3.41,0,0,0,1.32.25,8.1,8.1,0,0,0,1-.06,4.49,4.49,0,0,0,.79-.17c.21-.08.41-.15.58-.23l.49-.18a1.78,1.78,0,0,1,.43-.1,1,1,0,0,1,.67.21,2.11,2.11,0,0,1,.58.71,2,2,0,0,1,.23.53,2.08,2.08,0,0,1,.07.5,1.33,1.33,0,0,1-.62,1.08,4.68,4.68,0,0,1-1.72.74A11.56,11.56,0,0,1,132.78,35.07Zm-2.67-7.4h3.95a1,1,0,0,0,.57-.13c.14-.09.2-.27.2-.54a1.23,1.23,0,0,0-.27-.77,1.64,1.64,0,0,0-.74-.54,2.8,2.8,0,0,0-1.09-.19,2.91,2.91,0,0,0-1.34.3,2.25,2.25,0,0,0-.94.8A1.84,1.84,0,0,0,130.11,27.67Z"/><path class="cls-2" d="M142.51,20.55a2.53,2.53,0,0,1-1.35-.27,1.1,1.1,0,0,1-.48-.73,5.11,5.11,0,0,1,0-1.91,1,1,0,0,1,.5-.7,2.69,2.69,0,0,1,1.36-.26,2.31,2.31,0,0,1,1.32.28,1.09,1.09,0,0,1,.49.72,5,5,0,0,1,.09,1,4.7,4.7,0,0,1-.09.92,1.05,1.05,0,0,1-.49.71A2.5,2.5,0,0,1,142.51,20.55Zm0,14.3a2.45,2.45,0,0,1-1.32-.26,1,1,0,0,1-.48-.7,5.33,5.33,0,0,1-.07-.91V24.25a4.53,4.53,0,0,1,.08-.91,1.08,1.08,0,0,1,.49-.7,2.59,2.59,0,0,1,1.33-.26,2.28,2.28,0,0,1,1.28.27,1.17,1.17,0,0,1,.48.72,4.62,4.62,0,0,1,.09.94V33a4.53,4.53,0,0,1-.09.91,1,1,0,0,1-.47.68A2.53,2.53,0,0,1,142.5,34.85Z"/><path class="cls-2" d="M148.93,34.83a2.45,2.45,0,0,1-1.31-.26,1.1,1.1,0,0,1-.48-.7,4.53,4.53,0,0,1-.09-.91v-8.8a4.13,4.13,0,0,1,.09-.89,1,1,0,0,1,.49-.66,3.52,3.52,0,0,1,2.5,0,1,1,0,0,1,.48.51,1.54,1.54,0,0,1,.12.57.84.84,0,0,0,0,.36l-.14.47a1.48,1.48,0,0,1,.38-.76,3.74,3.74,0,0,1,.85-.7,4.32,4.32,0,0,1,1.1-.48,4,4,0,0,1,1.17-.18,5,5,0,0,1,2.13.44,4.24,4.24,0,0,1,1.59,1.26,6,6,0,0,1,1,1.94,8.57,8.57,0,0,1,.33,2.44V33a4.46,4.46,0,0,1-.09.91,1.08,1.08,0,0,1-.47.69,2.59,2.59,0,0,1-1.34.25,2.47,2.47,0,0,1-1.33-.27,1,1,0,0,1-.48-.7,4.46,4.46,0,0,1-.09-.91V28.44a2.78,2.78,0,0,0-.26-1.28,1.81,1.81,0,0,0-.75-.8,2.46,2.46,0,0,0-1.21-.27,2.59,2.59,0,0,0-1.25.28,2,2,0,0,0-.81.81,2.48,2.48,0,0,0-.29,1.25V33a5.52,5.52,0,0,1-.08.92,1,1,0,0,1-.48.68A2.49,2.49,0,0,1,148.93,34.83Z"/><path class="cls-2" d="M167.83,35.09a7.25,7.25,0,0,1-3-.57A5.9,5.9,0,0,1,162.75,33a6.36,6.36,0,0,1-1.19-2.08,6.92,6.92,0,0,1-.4-2.3,6.45,6.45,0,0,1,.85-3.33A6.11,6.11,0,0,1,164.37,23a7.15,7.15,0,0,1,3.47-.83,6.25,6.25,0,0,1,2.51.46,5.23,5.23,0,0,1,1.75,1.2,5.11,5.11,0,0,1,1,1.59,4.33,4.33,0,0,1,.34,1.63,2.8,2.8,0,0,1-.67,2.05,2.25,2.25,0,0,1-1.68.67h-6a1.71,1.71,0,0,0,.46,1.07,2.69,2.69,0,0,0,1,.7,3.5,3.5,0,0,0,1.33.25,8.22,8.22,0,0,0,1-.06,4.49,4.49,0,0,0,.79-.17c.21-.08.41-.15.58-.23l.49-.18a1.78,1.78,0,0,1,.43-.1,1,1,0,0,1,.67.21,2.11,2.11,0,0,1,.58.71,2,2,0,0,1,.23.53,2.07,2.07,0,0,1,.06.5,1.32,1.32,0,0,1-.61,1.08,4.68,4.68,0,0,1-1.72.74A11.1,11.1,0,0,1,167.83,35.09Zm-2.67-7.4h4a1,1,0,0,0,.57-.13c.14-.09.2-.27.2-.54a1.23,1.23,0,0,0-.27-.77,1.64,1.64,0,0,0-.74-.54,2.8,2.8,0,0,0-1.09-.19,3,3,0,0,0-1.35.3,2.28,2.28,0,0,0-.93.8A1.84,1.84,0,0,0,165.16,27.69Z"/><path class="cls-2" d="M192.28,34.86a2.34,2.34,0,0,1-1.38-.33.88.88,0,0,1-.42-.8l.25-.42a2.59,2.59,0,0,1-.58.61,4.11,4.11,0,0,1-1.11.65,4.33,4.33,0,0,1-1.66.29,4.89,4.89,0,0,1-2.19-.51A6,6,0,0,1,183.35,33a7.41,7.41,0,0,1-1.27-2,6.13,6.13,0,0,1,0-4.71,6.72,6.72,0,0,1,1.29-2,6.4,6.4,0,0,1,1.84-1.37,4.93,4.93,0,0,1,2.18-.49,4.1,4.1,0,0,1,1.57.26,4.65,4.65,0,0,1,1.09.61,3.45,3.45,0,0,1,.66.68l-.23-.35a1,1,0,0,1,.44-.91,2.42,2.42,0,0,1,1.39-.32,2.33,2.33,0,0,1,1.29.28,1.12,1.12,0,0,1,.47.73,4.72,4.72,0,0,1,.09.95V33a5.64,5.64,0,0,1-.08.93,1.12,1.12,0,0,1-.48.71A2.5,2.5,0,0,1,192.28,34.86Zm-4.38-3.73a2.22,2.22,0,0,0,1.21-.33,2.67,2.67,0,0,0,.85-3.48,2.42,2.42,0,0,0-.88-.89,2.39,2.39,0,0,0-1.22-.32,2.42,2.42,0,0,0-1.26.33,2.64,2.64,0,0,0-.91.91,2.59,2.59,0,0,0-.33,1.3,2.4,2.4,0,0,0,.33,1.24,2.51,2.51,0,0,0,.93.9A2.48,2.48,0,0,0,187.9,31.13Z"/><path class="cls-2" d="M198.48,34.89a2.28,2.28,0,0,1-1.3-.28,1.1,1.1,0,0,1-.49-.71,4.53,4.53,0,0,1-.09-.91V18.61a4.76,4.76,0,0,1,.09-.94,1.08,1.08,0,0,1,.49-.7,2.54,2.54,0,0,1,1.32-.26,2.26,2.26,0,0,1,1.28.28,1.08,1.08,0,0,1,.45.71,4.55,4.55,0,0,1,0,.91V33.76a1.31,1.31,0,0,1-.53.85A2.21,2.21,0,0,1,198.48,34.89Zm4.85,0a4.36,4.36,0,0,1-2.15-.52A4.46,4.46,0,0,1,199.64,33a6.44,6.44,0,0,1-.92-2,8.15,8.15,0,0,1-.29-2.4,8.34,8.34,0,0,1,.33-2.35,6.2,6.2,0,0,1,.94-2,4.25,4.25,0,0,1,3.64-1.82,4.7,4.7,0,0,1,2.14.5,6.24,6.24,0,0,1,1.84,1.36,6.67,6.67,0,0,1,1.28,2,6.16,6.16,0,0,1,.46,2.33,6.36,6.36,0,0,1-.47,2.42,6.83,6.83,0,0,1-1.26,2,5.87,5.87,0,0,1-1.83,1.36A5.06,5.06,0,0,1,203.33,34.87Zm-.5-3.7a2.39,2.39,0,0,0,1.25-.34,2.67,2.67,0,0,0,.89-.91,2.55,2.55,0,0,0,.34-1.28,2.51,2.51,0,0,0-.33-1.27,2.24,2.24,0,0,0-.88-.9,2.42,2.42,0,0,0-1.24-.33,2.43,2.43,0,0,0-2.12,1.24,2.61,2.61,0,0,0-.31,1.26,2.48,2.48,0,0,0,.33,1.27,2.41,2.41,0,0,0,.87.92A2.32,2.32,0,0,0,202.83,31.17Z"/><path class="cls-2" d="M213.24,20.6a2.47,2.47,0,0,1-1.35-.28,1.09,1.09,0,0,1-.49-.72,4.86,4.86,0,0,1-.09-1,4.92,4.92,0,0,1,.09-1,1.09,1.09,0,0,1,.5-.7,2.71,2.71,0,0,1,1.36-.26,2.37,2.37,0,0,1,1.33.28,1,1,0,0,1,.48.72,5,5,0,0,1,.09,1,4.63,4.63,0,0,1-.09.92,1.08,1.08,0,0,1-.48.72A2.65,2.65,0,0,1,213.24,20.6Zm0,14.3a2.47,2.47,0,0,1-1.33-.27,1,1,0,0,1-.47-.7,5.31,5.31,0,0,1-.08-.91V24.3a4.63,4.63,0,0,1,.09-.92,1.08,1.08,0,0,1,.49-.7,2.52,2.52,0,0,1,1.32-.26,2.24,2.24,0,0,1,1.29.28,1.1,1.1,0,0,1,.47.71,4.62,4.62,0,0,1,.09.94v8.7A5.4,5.4,0,0,1,215,34a1.06,1.06,0,0,1-.48.69A2.62,2.62,0,0,1,213.23,34.9Z"/><path class="cls-2" d="M224,35.13a7.33,7.33,0,0,1-3-.58A5.93,5.93,0,0,1,218.9,33,6.61,6.61,0,0,1,217.7,31a7.12,7.12,0,0,1-.39-2.3,6.45,6.45,0,0,1,.85-3.33A6.16,6.16,0,0,1,220.52,23,7,7,0,0,1,224,22.2a6.26,6.26,0,0,1,2.52.47,5.33,5.33,0,0,1,1.75,1.2,5.07,5.07,0,0,1,1,1.59,4.44,4.44,0,0,1,.34,1.62,2.82,2.82,0,0,1-.67,2.05,2.25,2.25,0,0,1-1.68.68h-5.95a1.71,1.71,0,0,0,.46,1.08,2.81,2.81,0,0,0,1,.7,3.7,3.7,0,0,0,1.33.25,8.22,8.22,0,0,0,1-.06,3.46,3.46,0,0,0,.78-.18c.22-.07.42-.15.59-.22s.34-.14.49-.19a2.53,2.53,0,0,1,.42-.1,1,1,0,0,1,.68.21,1.94,1.94,0,0,1,.57.72,1.61,1.61,0,0,1,.24.52,2.14,2.14,0,0,1,.06.5,1.34,1.34,0,0,1-.61,1.09,4.66,4.66,0,0,1-1.73.73A10.91,10.91,0,0,1,224,35.13Zm-2.67-7.4h3.95a1,1,0,0,0,.57-.14.62.62,0,0,0,.2-.54,1.23,1.23,0,0,0-.27-.77,1.87,1.87,0,0,0-.74-.54,3.2,3.2,0,0,0-2.44.11,2.36,2.36,0,0,0-.93.8A1.84,1.84,0,0,0,221.31,27.73Z"/><path class="cls-2" d="M233.58,34.91a2.52,2.52,0,0,1-1.32-.26,1.14,1.14,0,0,1-.47-.72,4.7,4.7,0,0,1-.09-.92V24.28a4.42,4.42,0,0,1,.09-.92,1.08,1.08,0,0,1,.48-.69,2.59,2.59,0,0,1,1.33-.26,2.5,2.5,0,0,1,1.26.24,1.06,1.06,0,0,1,.49.55,1.68,1.68,0,0,1,.1.53l-.3.16a2.39,2.39,0,0,1,.26-.37A3.58,3.58,0,0,1,236,23a3.53,3.53,0,0,1,2.15-.68l.61,0a3.7,3.7,0,0,1,.7.16,2.81,2.81,0,0,1,.66.29,1.7,1.7,0,0,1,.49.47,1.13,1.13,0,0,1,.19.67,3,3,0,0,1-.48,1.74,1.39,1.39,0,0,1-1.2.71,2.11,2.11,0,0,1-.6-.06,1.13,1.13,0,0,1-.29-.15A.93.93,0,0,0,238,26a1.68,1.68,0,0,0-.55-.06,2.34,2.34,0,0,0-.71.1,2,2,0,0,0-.63.31,1.5,1.5,0,0,0-.45.52,1.66,1.66,0,0,0-.16.72v5.47a4.46,4.46,0,0,1-.09.91,1,1,0,0,1-.49.69A2.56,2.56,0,0,1,233.58,34.91Z"/><path class="cls-2" d="M243.56,22.61h2.75l3.45-.1a4.29,4.29,0,0,1,.9.09,1.12,1.12,0,0,1,.7.48,2.47,2.47,0,0,1,.27,1.33,2.28,2.28,0,0,1-.26,1.25,1.13,1.13,0,0,1-.69.51,3.36,3.36,0,0,1-.92.11l-3.28-.07-3,0a1.28,1.28,0,0,1-1-.46,2.56,2.56,0,0,1-.28-1.39,2.08,2.08,0,0,1,.35-1.34A1.26,1.26,0,0,1,243.56,22.61Zm5.64,12.31a7.54,7.54,0,0,1-2.2-.28,3.59,3.59,0,0,1-1.51-.85,3.5,3.5,0,0,1-.87-1.46,6.64,6.64,0,0,1-.29-2.11V20.09a4.2,4.2,0,0,1,.08-.92,1.11,1.11,0,0,1,.49-.67,2.51,2.51,0,0,1,1.3-.26,2.3,2.3,0,0,1,1.3.28,1.1,1.1,0,0,1,.49.71,4.53,4.53,0,0,1,.09.91v9.93a3,3,0,0,0,.06.66.89.89,0,0,0,.19.39.68.68,0,0,0,.35.17,2.19,2.19,0,0,0,.55.05,4.59,4.59,0,0,1,1,.1,1.1,1.1,0,0,1,.67.45,2.3,2.3,0,0,1,.23,1.18,2.4,2.4,0,0,1-.27,1.3,1.05,1.05,0,0,1-.72.47A5.31,5.31,0,0,1,249.2,34.92Z"/><path class="cls-2" d="M259.55,35.12a6.29,6.29,0,0,1-2.34-.46,7.24,7.24,0,0,1-2.11-1.31,6.53,6.53,0,0,1-1.51-2,6.47,6.47,0,0,1-.05-5.15A6.83,6.83,0,0,1,255,24.1,7,7,0,0,1,257,22.68a6.16,6.16,0,0,1,2.49-.51,6.33,6.33,0,0,1,3.26.87,6.48,6.48,0,0,1,2.34,2.34,6.3,6.3,0,0,1,.87,3.27,6.39,6.39,0,0,1-.56,2.72,6.5,6.5,0,0,1-1.5,2,6.57,6.57,0,0,1-2.08,1.29A6.36,6.36,0,0,1,259.55,35.12Zm-.05-3.77a2.85,2.85,0,0,0,1.23-.3,2.56,2.56,0,0,0,1.48-2.42,2.74,2.74,0,0,0-.35-1.4,2.5,2.5,0,0,0-1-.94,2.78,2.78,0,0,0-1.41-.34,2.63,2.63,0,0,0-1.34.35,2.73,2.73,0,0,0-.95,1,2.93,2.93,0,0,0,.05,2.9,2.49,2.49,0,0,0,1,.9A2.9,2.9,0,0,0,259.5,31.35Z"/><path class="cls-3" d="M113.18,34.84a2.4,2.4,0,0,1-1.32-.28,1.09,1.09,0,0,1-.49-.72,4.73,4.73,0,0,1-.09-.93V19.26a3.85,3.85,0,0,1,.1-.91,1.15,1.15,0,0,1,.5-.71,2.37,2.37,0,0,1,1.33-.28h5.12a6.39,6.39,0,0,1,2.1.38,5.94,5.94,0,0,1,4,5.8,6.06,6.06,0,0,1-.56,2.69,5.87,5.87,0,0,1-1.48,1.91,6.15,6.15,0,0,1-2,1.15,6.36,6.36,0,0,1-2.12.37h-3.2v3.28a4.53,4.53,0,0,1-.1.91,1.17,1.17,0,0,1-.51.71A2.31,2.31,0,0,1,113.18,34.84Zm1.93-9h3.23a2.63,2.63,0,0,0,1.08-.23,2.12,2.12,0,0,0,.9-.76,2.27,2.27,0,0,0,.37-1.35,2.35,2.35,0,0,0-.32-1.23,2.18,2.18,0,0,0-.83-.82,2.44,2.44,0,0,0-1.23-.31h-3.2Z"/><path class="cls-3" d="M132.78,35.07a7.25,7.25,0,0,1-3-.57A5.86,5.86,0,0,1,127.71,33a6.16,6.16,0,0,1-1.2-2.09,6.83,6.83,0,0,1-.4-2.3,6.41,6.41,0,0,1,.85-3.32A6.18,6.18,0,0,1,129.32,23a7.15,7.15,0,0,1,3.47-.83,6.25,6.25,0,0,1,2.51.46,5.23,5.23,0,0,1,1.75,1.2,5.11,5.11,0,0,1,1,1.59,4.33,4.33,0,0,1,.34,1.63,2.84,2.84,0,0,1-.66,2,2.28,2.28,0,0,1-1.69.67h-5.95a1.71,1.71,0,0,0,.46,1.07,2.66,2.66,0,0,0,1,.7,3.41,3.41,0,0,0,1.32.25,8.1,8.1,0,0,0,1-.06,4.49,4.49,0,0,0,.79-.17c.21-.08.41-.15.58-.23l.49-.18a1.78,1.78,0,0,1,.43-.1,1,1,0,0,1,.67.21,2.11,2.11,0,0,1,.58.71,2,2,0,0,1,.23.53,2.08,2.08,0,0,1,.07.5,1.33,1.33,0,0,1-.62,1.08,4.68,4.68,0,0,1-1.72.74A11.56,11.56,0,0,1,132.78,35.07Zm-2.67-7.4h3.95a1,1,0,0,0,.57-.13c.14-.09.2-.27.2-.54a1.23,1.23,0,0,0-.27-.77,1.64,1.64,0,0,0-.74-.54,2.8,2.8,0,0,0-1.09-.19,2.91,2.91,0,0,0-1.34.3,2.25,2.25,0,0,0-.94.8A1.84,1.84,0,0,0,130.11,27.67Z"/><path class="cls-3" d="M142.51,20.55a2.53,2.53,0,0,1-1.35-.27,1.1,1.1,0,0,1-.48-.73,5.11,5.11,0,0,1,0-1.91,1,1,0,0,1,.5-.7,2.69,2.69,0,0,1,1.36-.26,2.31,2.31,0,0,1,1.32.28,1.09,1.09,0,0,1,.49.72,5,5,0,0,1,.09,1,4.7,4.7,0,0,1-.09.92,1.05,1.05,0,0,1-.49.71A2.5,2.5,0,0,1,142.51,20.55Zm0,14.3a2.45,2.45,0,0,1-1.32-.26,1,1,0,0,1-.48-.7,5.33,5.33,0,0,1-.07-.91V24.25a4.53,4.53,0,0,1,.08-.91,1.08,1.08,0,0,1,.49-.7,2.59,2.59,0,0,1,1.33-.26,2.28,2.28,0,0,1,1.28.27,1.17,1.17,0,0,1,.48.72,4.62,4.62,0,0,1,.09.94V33a4.53,4.53,0,0,1-.09.91,1,1,0,0,1-.47.68A2.53,2.53,0,0,1,142.5,34.85Z"/><path class="cls-3" d="M148.93,34.83a2.45,2.45,0,0,1-1.31-.26,1.1,1.1,0,0,1-.48-.7,4.53,4.53,0,0,1-.09-.91v-8.8a4.13,4.13,0,0,1,.09-.89,1,1,0,0,1,.49-.66,3.52,3.52,0,0,1,2.5,0,1,1,0,0,1,.48.51,1.54,1.54,0,0,1,.12.57.84.84,0,0,0,0,.36l-.14.47a1.48,1.48,0,0,1,.38-.76,3.74,3.74,0,0,1,.85-.7,4.32,4.32,0,0,1,1.1-.48,4,4,0,0,1,1.17-.18,5,5,0,0,1,2.13.44,4.24,4.24,0,0,1,1.59,1.26,6,6,0,0,1,1,1.94,8.57,8.57,0,0,1,.33,2.44V33a4.46,4.46,0,0,1-.09.91,1.08,1.08,0,0,1-.47.69,2.59,2.59,0,0,1-1.34.25,2.47,2.47,0,0,1-1.33-.27,1,1,0,0,1-.48-.7,4.46,4.46,0,0,1-.09-.91V28.44a2.78,2.78,0,0,0-.26-1.28,1.81,1.81,0,0,0-.75-.8,2.46,2.46,0,0,0-1.21-.27,2.59,2.59,0,0,0-1.25.28,2,2,0,0,0-.81.81,2.48,2.48,0,0,0-.29,1.25V33a5.52,5.52,0,0,1-.08.92,1,1,0,0,1-.48.68A2.49,2.49,0,0,1,148.93,34.83Z"/><path class="cls-3" d="M167.83,35.09a7.25,7.25,0,0,1-3-.57A5.9,5.9,0,0,1,162.75,33a6.36,6.36,0,0,1-1.19-2.08,6.92,6.92,0,0,1-.4-2.3,6.45,6.45,0,0,1,.85-3.33A6.11,6.11,0,0,1,164.37,23a7.15,7.15,0,0,1,3.47-.83,6.25,6.25,0,0,1,2.51.46,5.23,5.23,0,0,1,1.75,1.2,5.11,5.11,0,0,1,1,1.59,4.33,4.33,0,0,1,.34,1.63,2.8,2.8,0,0,1-.67,2.05,2.25,2.25,0,0,1-1.68.67h-6a1.71,1.71,0,0,0,.46,1.07,2.69,2.69,0,0,0,1,.7,3.5,3.5,0,0,0,1.33.25,8.22,8.22,0,0,0,1-.06,4.49,4.49,0,0,0,.79-.17c.21-.08.41-.15.58-.23l.49-.18a1.78,1.78,0,0,1,.43-.1,1,1,0,0,1,.67.21,2.11,2.11,0,0,1,.58.71,2,2,0,0,1,.23.53,2.07,2.07,0,0,1,.06.5,1.32,1.32,0,0,1-.61,1.08,4.68,4.68,0,0,1-1.72.74A11.1,11.1,0,0,1,167.83,35.09Zm-2.67-7.4h4a1,1,0,0,0,.57-.13c.14-.09.2-.27.2-.54a1.23,1.23,0,0,0-.27-.77,1.64,1.64,0,0,0-.74-.54,2.8,2.8,0,0,0-1.09-.19,3,3,0,0,0-1.35.3,2.28,2.28,0,0,0-.93.8A1.84,1.84,0,0,0,165.16,27.69Z"/><path class="cls-3" d="M192.28,34.86a2.34,2.34,0,0,1-1.38-.33.88.88,0,0,1-.42-.8l.25-.42a2.59,2.59,0,0,1-.58.61,4.11,4.11,0,0,1-1.11.65,4.33,4.33,0,0,1-1.66.29,4.89,4.89,0,0,1-2.19-.51A6,6,0,0,1,183.35,33a7.41,7.41,0,0,1-1.27-2,6.13,6.13,0,0,1,0-4.71,6.72,6.72,0,0,1,1.29-2,6.4,6.4,0,0,1,1.84-1.37,4.93,4.93,0,0,1,2.18-.49,4.1,4.1,0,0,1,1.57.26,4.65,4.65,0,0,1,1.09.61,3.45,3.45,0,0,1,.66.68l-.23-.35a1,1,0,0,1,.44-.91,2.42,2.42,0,0,1,1.39-.32,2.33,2.33,0,0,1,1.29.28,1.12,1.12,0,0,1,.47.73,4.72,4.72,0,0,1,.09.95V33a5.64,5.64,0,0,1-.08.93,1.12,1.12,0,0,1-.48.71A2.5,2.5,0,0,1,192.28,34.86Zm-4.38-3.73a2.22,2.22,0,0,0,1.21-.33,2.67,2.67,0,0,0,.85-3.48,2.42,2.42,0,0,0-.88-.89,2.39,2.39,0,0,0-1.22-.32,2.42,2.42,0,0,0-1.26.33,2.64,2.64,0,0,0-.91.91,2.59,2.59,0,0,0-.33,1.3,2.4,2.4,0,0,0,.33,1.24,2.51,2.51,0,0,0,.93.9A2.48,2.48,0,0,0,187.9,31.13Z"/><path class="cls-3" d="M198.48,34.89a2.28,2.28,0,0,1-1.3-.28,1.1,1.1,0,0,1-.49-.71,4.53,4.53,0,0,1-.09-.91V18.61a4.76,4.76,0,0,1,.09-.94,1.08,1.08,0,0,1,.49-.7,2.54,2.54,0,0,1,1.32-.26,2.26,2.26,0,0,1,1.28.28,1.08,1.08,0,0,1,.45.71,4.55,4.55,0,0,1,0,.91V33.76a1.31,1.31,0,0,1-.53.85A2.21,2.21,0,0,1,198.48,34.89Zm4.85,0a4.36,4.36,0,0,1-2.15-.52A4.46,4.46,0,0,1,199.64,33a6.44,6.44,0,0,1-.92-2,8.15,8.15,0,0,1-.29-2.4,8.34,8.34,0,0,1,.33-2.35,6.2,6.2,0,0,1,.94-2,4.25,4.25,0,0,1,3.64-1.82,4.7,4.7,0,0,1,2.14.5,6.24,6.24,0,0,1,1.84,1.36,6.67,6.67,0,0,1,1.28,2,6.16,6.16,0,0,1,.46,2.33,6.36,6.36,0,0,1-.47,2.42,6.83,6.83,0,0,1-1.26,2,5.87,5.87,0,0,1-1.83,1.36A5.06,5.06,0,0,1,203.33,34.87Zm-.5-3.7a2.39,2.39,0,0,0,1.25-.34,2.67,2.67,0,0,0,.89-.91,2.55,2.55,0,0,0,.34-1.28,2.51,2.51,0,0,0-.33-1.27,2.24,2.24,0,0,0-.88-.9,2.42,2.42,0,0,0-1.24-.33,2.43,2.43,0,0,0-2.12,1.24,2.61,2.61,0,0,0-.31,1.26,2.48,2.48,0,0,0,.33,1.27,2.41,2.41,0,0,0,.87.92A2.32,2.32,0,0,0,202.83,31.17Z"/><path class="cls-3" d="M213.24,20.6a2.47,2.47,0,0,1-1.35-.28,1.09,1.09,0,0,1-.49-.72,4.86,4.86,0,0,1-.09-1,4.92,4.92,0,0,1,.09-1,1.09,1.09,0,0,1,.5-.7,2.71,2.71,0,0,1,1.36-.26,2.37,2.37,0,0,1,1.33.28,1,1,0,0,1,.48.72,5,5,0,0,1,.09,1,4.63,4.63,0,0,1-.09.92,1.08,1.08,0,0,1-.48.72A2.65,2.65,0,0,1,213.24,20.6Zm0,14.3a2.47,2.47,0,0,1-1.33-.27,1,1,0,0,1-.47-.7,5.31,5.31,0,0,1-.08-.91V24.3a4.63,4.63,0,0,1,.09-.92,1.08,1.08,0,0,1,.49-.7,2.52,2.52,0,0,1,1.32-.26,2.24,2.24,0,0,1,1.29.28,1.1,1.1,0,0,1,.47.71,4.62,4.62,0,0,1,.09.94v8.7A5.4,5.4,0,0,1,215,34a1.06,1.06,0,0,1-.48.69A2.62,2.62,0,0,1,213.23,34.9Z"/><path class="cls-3" d="M224,35.13a7.33,7.33,0,0,1-3-.58A5.93,5.93,0,0,1,218.9,33,6.61,6.61,0,0,1,217.7,31a7.12,7.12,0,0,1-.39-2.3,6.45,6.45,0,0,1,.85-3.33A6.16,6.16,0,0,1,220.52,23,7,7,0,0,1,224,22.2a6.26,6.26,0,0,1,2.52.47,5.33,5.33,0,0,1,1.75,1.2,5.07,5.07,0,0,1,1,1.59,4.44,4.44,0,0,1,.34,1.62,2.82,2.82,0,0,1-.67,2.05,2.25,2.25,0,0,1-1.68.68h-5.95a1.71,1.71,0,0,0,.46,1.08,2.81,2.81,0,0,0,1,.7,3.7,3.7,0,0,0,1.33.25,8.22,8.22,0,0,0,1-.06,3.46,3.46,0,0,0,.78-.18c.22-.07.42-.15.59-.22s.34-.14.49-.19a2.53,2.53,0,0,1,.42-.1,1,1,0,0,1,.68.21,1.94,1.94,0,0,1,.57.72,1.61,1.61,0,0,1,.24.52,2.14,2.14,0,0,1,.06.5,1.34,1.34,0,0,1-.61,1.09,4.66,4.66,0,0,1-1.73.73A10.91,10.91,0,0,1,224,35.13Zm-2.67-7.4h3.95a1,1,0,0,0,.57-.14.62.62,0,0,0,.2-.54,1.23,1.23,0,0,0-.27-.77,1.87,1.87,0,0,0-.74-.54,3.2,3.2,0,0,0-2.44.11,2.36,2.36,0,0,0-.93.8A1.84,1.84,0,0,0,221.31,27.73Z"/><path class="cls-3" d="M233.58,34.91a2.52,2.52,0,0,1-1.32-.26,1.14,1.14,0,0,1-.47-.72,4.7,4.7,0,0,1-.09-.92V24.28a4.42,4.42,0,0,1,.09-.92,1.08,1.08,0,0,1,.48-.69,2.59,2.59,0,0,1,1.33-.26,2.5,2.5,0,0,1,1.26.24,1.06,1.06,0,0,1,.49.55,1.68,1.68,0,0,1,.1.53l-.3.16a2.39,2.39,0,0,1,.26-.37A3.58,3.58,0,0,1,236,23a3.53,3.53,0,0,1,2.15-.68l.61,0a3.7,3.7,0,0,1,.7.16,2.81,2.81,0,0,1,.66.29,1.7,1.7,0,0,1,.49.47,1.13,1.13,0,0,1,.19.67,3,3,0,0,1-.48,1.74,1.39,1.39,0,0,1-1.2.71,2.11,2.11,0,0,1-.6-.06,1.13,1.13,0,0,1-.29-.15A.93.93,0,0,0,238,26a1.68,1.68,0,0,0-.55-.06,2.34,2.34,0,0,0-.71.1,2,2,0,0,0-.63.31,1.5,1.5,0,0,0-.45.52,1.66,1.66,0,0,0-.16.72v5.47a4.46,4.46,0,0,1-.09.91,1,1,0,0,1-.49.69A2.56,2.56,0,0,1,233.58,34.91Z"/><path class="cls-3" d="M243.56,22.61h2.75l3.45-.1a4.29,4.29,0,0,1,.9.09,1.12,1.12,0,0,1,.7.48,2.47,2.47,0,0,1,.27,1.33,2.28,2.28,0,0,1-.26,1.25,1.13,1.13,0,0,1-.69.51,3.36,3.36,0,0,1-.92.11l-3.28-.07-3,0a1.28,1.28,0,0,1-1-.46,2.56,2.56,0,0,1-.28-1.39,2.08,2.08,0,0,1,.35-1.34A1.26,1.26,0,0,1,243.56,22.61Zm5.64,12.31a7.54,7.54,0,0,1-2.2-.28,3.59,3.59,0,0,1-1.51-.85,3.5,3.5,0,0,1-.87-1.46,6.64,6.64,0,0,1-.29-2.11V20.09a4.2,4.2,0,0,1,.08-.92,1.11,1.11,0,0,1,.49-.67,2.51,2.51,0,0,1,1.3-.26,2.3,2.3,0,0,1,1.3.28,1.1,1.1,0,0,1,.49.71,4.53,4.53,0,0,1,.09.91v9.93a3,3,0,0,0,.06.66.89.89,0,0,0,.19.39.68.68,0,0,0,.35.17,2.19,2.19,0,0,0,.55.05,4.59,4.59,0,0,1,1,.1,1.1,1.1,0,0,1,.67.45,2.3,2.3,0,0,1,.23,1.18,2.4,2.4,0,0,1-.27,1.3,1.05,1.05,0,0,1-.72.47A5.31,5.31,0,0,1,249.2,34.92Z"/><path class="cls-3" d="M259.55,35.12a6.29,6.29,0,0,1-2.34-.46,7.24,7.24,0,0,1-2.11-1.31,6.53,6.53,0,0,1-1.51-2,6.47,6.47,0,0,1-.05-5.15A6.83,6.83,0,0,1,255,24.1,7,7,0,0,1,257,22.68a6.16,6.16,0,0,1,2.49-.51,6.33,6.33,0,0,1,3.26.87,6.48,6.48,0,0,1,2.34,2.34,6.3,6.3,0,0,1,.87,3.27,6.39,6.39,0,0,1-.56,2.72,6.5,6.5,0,0,1-1.5,2,6.57,6.57,0,0,1-2.08,1.29A6.36,6.36,0,0,1,259.55,35.12Zm-.05-3.77a2.85,2.85,0,0,0,1.23-.3,2.56,2.56,0,0,0,1.48-2.42,2.74,2.74,0,0,0-.35-1.4,2.5,2.5,0,0,0-1-.94,2.78,2.78,0,0,0-1.41-.34,2.63,2.63,0,0,0-1.34.35,2.73,2.73,0,0,0-.95,1,2.93,2.93,0,0,0,.05,2.9,2.49,2.49,0,0,0,1,.9A2.9,2.9,0,0,0,259.5,31.35Z"/><path class="cls-2" d="M113.18,34.84a2.4,2.4,0,0,1-1.32-.28,1.09,1.09,0,0,1-.49-.72,4.73,4.73,0,0,1-.09-.93V19.26a3.85,3.85,0,0,1,.1-.91,1.15,1.15,0,0,1,.5-.71,2.37,2.37,0,0,1,1.33-.28h5.12a6.39,6.39,0,0,1,2.1.38,5.94,5.94,0,0,1,4,5.8,6.06,6.06,0,0,1-.56,2.69,5.87,5.87,0,0,1-1.48,1.91,6.15,6.15,0,0,1-2,1.15,6.36,6.36,0,0,1-2.12.37h-3.2v3.28a4.53,4.53,0,0,1-.1.91,1.17,1.17,0,0,1-.51.71A2.31,2.31,0,0,1,113.18,34.84Zm1.93-9h3.23a2.63,2.63,0,0,0,1.08-.23,2.12,2.12,0,0,0,.9-.76,2.27,2.27,0,0,0,.37-1.35,2.35,2.35,0,0,0-.32-1.23,2.18,2.18,0,0,0-.83-.82,2.44,2.44,0,0,0-1.23-.31h-3.2Z"/><path class="cls-2" d="M132.78,35.07a7.25,7.25,0,0,1-3-.57A5.86,5.86,0,0,1,127.71,33a6.16,6.16,0,0,1-1.2-2.09,6.83,6.83,0,0,1-.4-2.3,6.41,6.41,0,0,1,.85-3.32A6.18,6.18,0,0,1,129.32,23a7.15,7.15,0,0,1,3.47-.83,6.25,6.25,0,0,1,2.51.46,5.23,5.23,0,0,1,1.75,1.2,5.11,5.11,0,0,1,1,1.59,4.33,4.33,0,0,1,.34,1.63,2.84,2.84,0,0,1-.66,2,2.28,2.28,0,0,1-1.69.67h-5.95a1.71,1.71,0,0,0,.46,1.07,2.66,2.66,0,0,0,1,.7,3.41,3.41,0,0,0,1.32.25,8.1,8.1,0,0,0,1-.06,4.49,4.49,0,0,0,.79-.17c.21-.08.41-.15.58-.23l.49-.18a1.78,1.78,0,0,1,.43-.1,1,1,0,0,1,.67.21,2.11,2.11,0,0,1,.58.71,2,2,0,0,1,.23.53,2.08,2.08,0,0,1,.07.5,1.33,1.33,0,0,1-.62,1.08,4.68,4.68,0,0,1-1.72.74A11.56,11.56,0,0,1,132.78,35.07Zm-2.67-7.4h3.95a1,1,0,0,0,.57-.13c.14-.09.2-.27.2-.54a1.23,1.23,0,0,0-.27-.77,1.64,1.64,0,0,0-.74-.54,2.8,2.8,0,0,0-1.09-.19,2.91,2.91,0,0,0-1.34.3,2.25,2.25,0,0,0-.94.8A1.84,1.84,0,0,0,130.11,27.67Z"/><path class="cls-2" d="M142.51,20.55a2.53,2.53,0,0,1-1.35-.27,1.1,1.1,0,0,1-.48-.73,5.11,5.11,0,0,1,0-1.91,1,1,0,0,1,.5-.7,2.69,2.69,0,0,1,1.36-.26,2.31,2.31,0,0,1,1.32.28,1.09,1.09,0,0,1,.49.72,5,5,0,0,1,.09,1,4.7,4.7,0,0,1-.09.92,1.05,1.05,0,0,1-.49.71A2.5,2.5,0,0,1,142.51,20.55Zm0,14.3a2.45,2.45,0,0,1-1.32-.26,1,1,0,0,1-.48-.7,5.33,5.33,0,0,1-.07-.91V24.25a4.53,4.53,0,0,1,.08-.91,1.08,1.08,0,0,1,.49-.7,2.59,2.59,0,0,1,1.33-.26,2.28,2.28,0,0,1,1.28.27,1.17,1.17,0,0,1,.48.72,4.62,4.62,0,0,1,.09.94V33a4.53,4.53,0,0,1-.09.91,1,1,0,0,1-.47.68A2.53,2.53,0,0,1,142.5,34.85Z"/><path class="cls-2" d="M148.93,34.83a2.45,2.45,0,0,1-1.31-.26,1.1,1.1,0,0,1-.48-.7,4.53,4.53,0,0,1-.09-.91v-8.8a4.13,4.13,0,0,1,.09-.89,1,1,0,0,1,.49-.66,3.52,3.52,0,0,1,2.5,0,1,1,0,0,1,.48.51,1.54,1.54,0,0,1,.12.57.84.84,0,0,0,0,.36l-.14.47a1.48,1.48,0,0,1,.38-.76,3.74,3.74,0,0,1,.85-.7,4.32,4.32,0,0,1,1.1-.48,4,4,0,0,1,1.17-.18,5,5,0,0,1,2.13.44,4.24,4.24,0,0,1,1.59,1.26,6,6,0,0,1,1,1.94,8.57,8.57,0,0,1,.33,2.44V33a4.46,4.46,0,0,1-.09.91,1.08,1.08,0,0,1-.47.69,2.59,2.59,0,0,1-1.34.25,2.47,2.47,0,0,1-1.33-.27,1,1,0,0,1-.48-.7,4.46,4.46,0,0,1-.09-.91V28.44a2.78,2.78,0,0,0-.26-1.28,1.81,1.81,0,0,0-.75-.8,2.46,2.46,0,0,0-1.21-.27,2.59,2.59,0,0,0-1.25.28,2,2,0,0,0-.81.81,2.48,2.48,0,0,0-.29,1.25V33a5.52,5.52,0,0,1-.08.92,1,1,0,0,1-.48.68A2.49,2.49,0,0,1,148.93,34.83Z"/><path class="cls-2" d="M167.83,35.09a7.25,7.25,0,0,1-3-.57A5.9,5.9,0,0,1,162.75,33a6.36,6.36,0,0,1-1.19-2.08,6.92,6.92,0,0,1-.4-2.3,6.45,6.45,0,0,1,.85-3.33A6.11,6.11,0,0,1,164.37,23a7.15,7.15,0,0,1,3.47-.83,6.25,6.25,0,0,1,2.51.46,5.23,5.23,0,0,1,1.75,1.2,5.11,5.11,0,0,1,1,1.59,4.33,4.33,0,0,1,.34,1.63,2.8,2.8,0,0,1-.67,2.05,2.25,2.25,0,0,1-1.68.67h-6a1.71,1.71,0,0,0,.46,1.07,2.69,2.69,0,0,0,1,.7,3.5,3.5,0,0,0,1.33.25,8.22,8.22,0,0,0,1-.06,4.49,4.49,0,0,0,.79-.17c.21-.08.41-.15.58-.23l.49-.18a1.78,1.78,0,0,1,.43-.1,1,1,0,0,1,.67.21,2.11,2.11,0,0,1,.58.71,2,2,0,0,1,.23.53,2.07,2.07,0,0,1,.06.5,1.32,1.32,0,0,1-.61,1.08,4.68,4.68,0,0,1-1.72.74A11.1,11.1,0,0,1,167.83,35.09Zm-2.67-7.4h4a1,1,0,0,0,.57-.13c.14-.09.2-.27.2-.54a1.23,1.23,0,0,0-.27-.77,1.64,1.64,0,0,0-.74-.54,2.8,2.8,0,0,0-1.09-.19,3,3,0,0,0-1.35.3,2.28,2.28,0,0,0-.93.8A1.84,1.84,0,0,0,165.16,27.69Z"/><path class="cls-2" d="M192.28,34.86a2.34,2.34,0,0,1-1.38-.33.88.88,0,0,1-.42-.8l.25-.42a2.59,2.59,0,0,1-.58.61,4.11,4.11,0,0,1-1.11.65,4.33,4.33,0,0,1-1.66.29,4.89,4.89,0,0,1-2.19-.51A6,6,0,0,1,183.35,33a7.41,7.41,0,0,1-1.27-2,6.13,6.13,0,0,1,0-4.71,6.72,6.72,0,0,1,1.29-2,6.4,6.4,0,0,1,1.84-1.37,4.93,4.93,0,0,1,2.18-.49,4.1,4.1,0,0,1,1.57.26,4.65,4.65,0,0,1,1.09.61,3.45,3.45,0,0,1,.66.68l-.23-.35a1,1,0,0,1,.44-.91,2.42,2.42,0,0,1,1.39-.32,2.33,2.33,0,0,1,1.29.28,1.12,1.12,0,0,1,.47.73,4.72,4.72,0,0,1,.09.95V33a5.64,5.64,0,0,1-.08.93,1.12,1.12,0,0,1-.48.71A2.5,2.5,0,0,1,192.28,34.86Zm-4.38-3.73a2.22,2.22,0,0,0,1.21-.33,2.67,2.67,0,0,0,.85-3.48,2.42,2.42,0,0,0-.88-.89,2.39,2.39,0,0,0-1.22-.32,2.42,2.42,0,0,0-1.26.33,2.64,2.64,0,0,0-.91.91,2.59,2.59,0,0,0-.33,1.3,2.4,2.4,0,0,0,.33,1.24,2.51,2.51,0,0,0,.93.9A2.48,2.48,0,0,0,187.9,31.13Z"/><path class="cls-2" d="M198.48,34.89a2.28,2.28,0,0,1-1.3-.28,1.1,1.1,0,0,1-.49-.71,4.53,4.53,0,0,1-.09-.91V18.61a4.76,4.76,0,0,1,.09-.94,1.08,1.08,0,0,1,.49-.7,2.54,2.54,0,0,1,1.32-.26,2.26,2.26,0,0,1,1.28.28,1.08,1.08,0,0,1,.45.71,4.55,4.55,0,0,1,0,.91V33.76a1.31,1.31,0,0,1-.53.85A2.21,2.21,0,0,1,198.48,34.89Zm4.85,0a4.36,4.36,0,0,1-2.15-.52A4.46,4.46,0,0,1,199.64,33a6.44,6.44,0,0,1-.92-2,8.15,8.15,0,0,1-.29-2.4,8.34,8.34,0,0,1,.33-2.35,6.2,6.2,0,0,1,.94-2,4.25,4.25,0,0,1,3.64-1.82,4.7,4.7,0,0,1,2.14.5,6.24,6.24,0,0,1,1.84,1.36,6.67,6.67,0,0,1,1.28,2,6.16,6.16,0,0,1,.46,2.33,6.36,6.36,0,0,1-.47,2.42,6.83,6.83,0,0,1-1.26,2,5.87,5.87,0,0,1-1.83,1.36A5.06,5.06,0,0,1,203.33,34.87Zm-.5-3.7a2.39,2.39,0,0,0,1.25-.34,2.67,2.67,0,0,0,.89-.91,2.55,2.55,0,0,0,.34-1.28,2.51,2.51,0,0,0-.33-1.27,2.24,2.24,0,0,0-.88-.9,2.42,2.42,0,0,0-1.24-.33,2.43,2.43,0,0,0-2.12,1.24,2.61,2.61,0,0,0-.31,1.26,2.48,2.48,0,0,0,.33,1.27,2.41,2.41,0,0,0,.87.92A2.32,2.32,0,0,0,202.83,31.17Z"/><path class="cls-2" d="M213.24,20.6a2.47,2.47,0,0,1-1.35-.28,1.09,1.09,0,0,1-.49-.72,4.86,4.86,0,0,1-.09-1,4.92,4.92,0,0,1,.09-1,1.09,1.09,0,0,1,.5-.7,2.71,2.71,0,0,1,1.36-.26,2.37,2.37,0,0,1,1.33.28,1,1,0,0,1,.48.72,5,5,0,0,1,.09,1,4.63,4.63,0,0,1-.09.92,1.08,1.08,0,0,1-.48.72A2.65,2.65,0,0,1,213.24,20.6Zm0,14.3a2.47,2.47,0,0,1-1.33-.27,1,1,0,0,1-.47-.7,5.31,5.31,0,0,1-.08-.91V24.3a4.63,4.63,0,0,1,.09-.92,1.08,1.08,0,0,1,.49-.7,2.52,2.52,0,0,1,1.32-.26,2.24,2.24,0,0,1,1.29.28,1.1,1.1,0,0,1,.47.71,4.62,4.62,0,0,1,.09.94v8.7A5.4,5.4,0,0,1,215,34a1.06,1.06,0,0,1-.48.69A2.62,2.62,0,0,1,213.23,34.9Z"/><path class="cls-2" d="M224,35.13a7.33,7.33,0,0,1-3-.58A5.93,5.93,0,0,1,218.9,33,6.61,6.61,0,0,1,217.7,31a7.12,7.12,0,0,1-.39-2.3,6.45,6.45,0,0,1,.85-3.33A6.16,6.16,0,0,1,220.52,23,7,7,0,0,1,224,22.2a6.26,6.26,0,0,1,2.52.47,5.33,5.33,0,0,1,1.75,1.2,5.07,5.07,0,0,1,1,1.59,4.44,4.44,0,0,1,.34,1.62,2.82,2.82,0,0,1-.67,2.05,2.25,2.25,0,0,1-1.68.68h-5.95a1.71,1.71,0,0,0,.46,1.08,2.81,2.81,0,0,0,1,.7,3.7,3.7,0,0,0,1.33.25,8.22,8.22,0,0,0,1-.06,3.46,3.46,0,0,0,.78-.18c.22-.07.42-.15.59-.22s.34-.14.49-.19a2.53,2.53,0,0,1,.42-.1,1,1,0,0,1,.68.21,1.94,1.94,0,0,1,.57.72,1.61,1.61,0,0,1,.24.52,2.14,2.14,0,0,1,.06.5,1.34,1.34,0,0,1-.61,1.09,4.66,4.66,0,0,1-1.73.73A10.91,10.91,0,0,1,224,35.13Zm-2.67-7.4h3.95a1,1,0,0,0,.57-.14.62.62,0,0,0,.2-.54,1.23,1.23,0,0,0-.27-.77,1.87,1.87,0,0,0-.74-.54,3.2,3.2,0,0,0-2.44.11,2.36,2.36,0,0,0-.93.8A1.84,1.84,0,0,0,221.31,27.73Z"/><path class="cls-2" d="M233.58,34.91a2.52,2.52,0,0,1-1.32-.26,1.14,1.14,0,0,1-.47-.72,4.7,4.7,0,0,1-.09-.92V24.28a4.42,4.42,0,0,1,.09-.92,1.08,1.08,0,0,1,.48-.69,2.59,2.59,0,0,1,1.33-.26,2.5,2.5,0,0,1,1.26.24,1.06,1.06,0,0,1,.49.55,1.68,1.68,0,0,1,.1.53l-.3.16a2.39,2.39,0,0,1,.26-.37A3.58,3.58,0,0,1,236,23a3.53,3.53,0,0,1,2.15-.68l.61,0a3.7,3.7,0,0,1,.7.16,2.81,2.81,0,0,1,.66.29,1.7,1.7,0,0,1,.49.47,1.13,1.13,0,0,1,.19.67,3,3,0,0,1-.48,1.74,1.39,1.39,0,0,1-1.2.71,2.11,2.11,0,0,1-.6-.06,1.13,1.13,0,0,1-.29-.15A.93.93,0,0,0,238,26a1.68,1.68,0,0,0-.55-.06,2.34,2.34,0,0,0-.71.1,2,2,0,0,0-.63.31,1.5,1.5,0,0,0-.45.52,1.66,1.66,0,0,0-.16.72v5.47a4.46,4.46,0,0,1-.09.91,1,1,0,0,1-.49.69A2.56,2.56,0,0,1,233.58,34.91Z"/><path class="cls-2" d="M243.56,22.61h2.75l3.45-.1a4.29,4.29,0,0,1,.9.09,1.12,1.12,0,0,1,.7.48,2.47,2.47,0,0,1,.27,1.33,2.28,2.28,0,0,1-.26,1.25,1.13,1.13,0,0,1-.69.51,3.36,3.36,0,0,1-.92.11l-3.28-.07-3,0a1.28,1.28,0,0,1-1-.46,2.56,2.56,0,0,1-.28-1.39,2.08,2.08,0,0,1,.35-1.34A1.26,1.26,0,0,1,243.56,22.61Zm5.64,12.31a7.54,7.54,0,0,1-2.2-.28,3.59,3.59,0,0,1-1.51-.85,3.5,3.5,0,0,1-.87-1.46,6.64,6.64,0,0,1-.29-2.11V20.09a4.2,4.2,0,0,1,.08-.92,1.11,1.11,0,0,1,.49-.67,2.51,2.51,0,0,1,1.3-.26,2.3,2.3,0,0,1,1.3.28,1.1,1.1,0,0,1,.49.71,4.53,4.53,0,0,1,.09.91v9.93a3,3,0,0,0,.06.66.89.89,0,0,0,.19.39.68.68,0,0,0,.35.17,2.19,2.19,0,0,0,.55.05,4.59,4.59,0,0,1,1,.1,1.1,1.1,0,0,1,.67.45,2.3,2.3,0,0,1,.23,1.18,2.4,2.4,0,0,1-.27,1.3,1.05,1.05,0,0,1-.72.47A5.31,5.31,0,0,1,249.2,34.92Z"/><path class="cls-2" d="M259.55,35.12a6.29,6.29,0,0,1-2.34-.46,7.24,7.24,0,0,1-2.11-1.31,6.53,6.53,0,0,1-1.51-2,6.47,6.47,0,0,1-.05-5.15A6.83,6.83,0,0,1,255,24.1,7,7,0,0,1,257,22.68a6.16,6.16,0,0,1,2.49-.51,6.33,6.33,0,0,1,3.26.87,6.48,6.48,0,0,1,2.34,2.34,6.3,6.3,0,0,1,.87,3.27,6.39,6.39,0,0,1-.56,2.72,6.5,6.5,0,0,1-1.5,2,6.57,6.57,0,0,1-2.08,1.29A6.36,6.36,0,0,1,259.55,35.12Zm-.05-3.77a2.85,2.85,0,0,0,1.23-.3,2.56,2.56,0,0,0,1.48-2.42,2.74,2.74,0,0,0-.35-1.4,2.5,2.5,0,0,0-1-.94,2.78,2.78,0,0,0-1.41-.34,2.63,2.63,0,0,0-1.34.35,2.73,2.73,0,0,0-.95,1,2.93,2.93,0,0,0,.05,2.9,2.49,2.49,0,0,0,1,.9A2.9,2.9,0,0,0,259.5,31.35Z"/><path class="cls-4" d="M55.46,35.55q0,3.41-1.18,4.85a4.36,4.36,0,0,1-3.59,1.45,5.73,5.73,0,0,1-2.57-.5,3.29,3.29,0,0,1-1.48-1.85,11.09,11.09,0,0,1-.55-3.61L46,20.22a6.2,6.2,0,0,1-3.21-.74A2.56,2.56,0,0,1,41.55,17a2.76,2.76,0,0,1,1.16-2.29,5.16,5.16,0,0,1,3.24-.9c.54,0,1.31,0,2.3,0l2.1,0c2,0,3.36.34,4,1a5,5,0,0,1,1,3.59Z"/><path class="cls-4" d="M59.21,39a2.78,2.78,0,0,1,1.16-2.31,5.4,5.4,0,0,1,3.28-.88c3,0,4.44,1.07,4.44,3.19a3.11,3.11,0,0,1-.57,2,2.73,2.73,0,0,1-1.51,1,9.17,9.17,0,0,1-2.36.26,6.13,6.13,0,0,1-3.18-.76A2.62,2.62,0,0,1,59.21,39Z"/><path class="cls-4" d="M82.48,23c0-1.37-1.23-2.06-3.7-2.06a19.62,19.62,0,0,0-2.1.15,19.23,19.23,0,0,1-1.94.15q-2.92,0-2.93-3.62t8.48-3.73q5.5,0,8.23,1.84a5.63,5.63,0,0,1,2.73,4.83,7.77,7.77,0,0,1-3.51,6.64,9.52,9.52,0,0,1,3.32,2.71,7.26,7.26,0,0,1,1,4,7.35,7.35,0,0,1-2.8,6,11.46,11.46,0,0,1-7.48,2.28q-5.87,0-8.41-1.24a4,4,0,0,1-2.54-3.75,3.92,3.92,0,0,1,.82-2.88,3.15,3.15,0,0,1,2.28-.78c.49,0,1.25.06,2.28.17s1.82.17,2.36.17q4.44,0,4.45-1.68a1.63,1.63,0,0,0-.86-1.58,8,8,0,0,0-3.22-.44,6.5,6.5,0,0,1-3.34-.63,2.58,2.58,0,0,1-1-2.35c0-1.74,1.11-2.6,3.34-2.6a17.65,17.65,0,0,0,3.2-.21c.69-.14,1.09-.3,1.2-.49A1.82,1.82,0,0,0,82.48,23Z"/><path class="cls-5" d="M55.46,35.55q0,3.41-1.18,4.85a4.36,4.36,0,0,1-3.59,1.45,5.73,5.73,0,0,1-2.57-.5,3.29,3.29,0,0,1-1.48-1.85,11.09,11.09,0,0,1-.55-3.61L46,20.22a6.2,6.2,0,0,1-3.21-.74A2.56,2.56,0,0,1,41.55,17a2.76,2.76,0,0,1,1.16-2.29,5.16,5.16,0,0,1,3.24-.9c.54,0,1.31,0,2.3,0l2.1,0c2,0,3.36.34,4,1a5,5,0,0,1,1,3.59Z"/><path class="cls-5" d="M59.21,39a2.78,2.78,0,0,1,1.16-2.31,5.4,5.4,0,0,1,3.28-.88c3,0,4.44,1.07,4.44,3.19a3.11,3.11,0,0,1-.57,2,2.73,2.73,0,0,1-1.51,1,9.17,9.17,0,0,1-2.36.26,6.13,6.13,0,0,1-3.18-.76A2.62,2.62,0,0,1,59.21,39Z"/><path class="cls-5" d="M82.48,23c0-1.37-1.23-2.06-3.7-2.06a19.62,19.62,0,0,0-2.1.15,19.23,19.23,0,0,1-1.94.15q-2.92,0-2.93-3.62t8.48-3.73q5.5,0,8.23,1.84a5.63,5.63,0,0,1,2.73,4.83,7.77,7.77,0,0,1-3.51,6.64,9.52,9.52,0,0,1,3.32,2.71,7.26,7.26,0,0,1,1,4,7.35,7.35,0,0,1-2.8,6,11.46,11.46,0,0,1-7.48,2.28q-5.87,0-8.41-1.24a4,4,0,0,1-2.54-3.75,3.92,3.92,0,0,1,.82-2.88,3.15,3.15,0,0,1,2.28-.78c.49,0,1.25.06,2.28.17s1.82.17,2.36.17q4.44,0,4.45-1.68a1.63,1.63,0,0,0-.86-1.58,8,8,0,0,0-3.22-.44,6.5,6.5,0,0,1-3.34-.63,2.58,2.58,0,0,1-1-2.35c0-1.74,1.11-2.6,3.34-2.6a17.65,17.65,0,0,0,3.2-.21c.69-.14,1.09-.3,1.2-.49A1.82,1.82,0,0,0,82.48,23Z"/></g></g></svg>