<svg xmlns="http://www.w3.org/2000/svg" viewBox="0 0 401.16 89.13"><defs><style>.cls-1{fill:#0468ad;}.cls-2{fill:#fff;}.cls-3,.cls-4{fill:none;stroke-width:5px;}.cls-3{stroke:#c8a927;stroke-linejoin:round;}.cls-4{stroke:#fff;}.cls-5{fill:#c8a927;}</style></defs><title>13t_1</title><g id="Layer_2" data-name="Layer 2"><g id="pestaña_identificativa" data-name="pestaña identificativa"><rect class="cls-1" width="401.16" height="89.13" rx="32.4"/><path class="cls-2" d="M134.48,31.2a2.77,2.77,0,0,1,.32,1.06,1,1,0,0,1-.26.77,2.84,2.84,0,0,1-.94.66,2,2,0,0,1-1.55.3,2.1,2.1,0,0,1-1-1.2l-4.9-10.25-4.88,10.25a2.2,2.2,0,0,1-1,1.16,2.16,2.16,0,0,1-1.53-.29,2.74,2.74,0,0,1-1-.64,1,1,0,0,1-.27-.8,3,3,0,0,1,.37-1.09l6.58-13.67a2,2,0,0,1,1.75-1.1,2,2,0,0,1,.7.14,1.89,1.89,0,0,1,.59.39,2.45,2.45,0,0,1,.44.6Zm-12.55-1.44,1.55-3.22h5.33l1.54,3.23Z"/><path class="cls-2" d="M138.25,39a2.48,2.48,0,0,1-1.3-.26,1,1,0,0,1-.48-.68,4.91,4.91,0,0,1-.07-.88v-14a5.1,5.1,0,0,1,.07-.91,1.05,1.05,0,0,1,.47-.69,2.28,2.28,0,0,1,1.28-.27,2.87,2.87,0,0,1,1.24.22,1.33,1.33,0,0,1,.66.7v14.9a2.94,2.94,0,0,1-.07.9,1.11,1.11,0,0,1-.49.69A2.41,2.41,0,0,1,138.25,39Zm4.8-5.39a4.73,4.73,0,0,1-2.15-.49,4.59,4.59,0,0,1-1.54-1.33,6.22,6.22,0,0,1-.92-1.94,7.87,7.87,0,0,1-.28-2.37,8.17,8.17,0,0,1,.32-2.34,6.53,6.53,0,0,1,.94-2,4.29,4.29,0,0,1,3.64-1.84,4.88,4.88,0,0,1,2.15.5A6.36,6.36,0,0,1,147,23.22a6.32,6.32,0,0,1,1.28,6.72,6.1,6.1,0,0,1-1.27,1.94,5.73,5.73,0,0,1-1.82,1.28A5.24,5.24,0,0,1,143.05,33.63Zm-.5-3.53a2.28,2.28,0,0,0,1.25-.34,2.51,2.51,0,0,0,.89-.91,2.42,2.42,0,0,0,.34-1.27,2.61,2.61,0,0,0-.32-1.28,2.48,2.48,0,0,0-.89-.9,2.41,2.41,0,0,0-1.24-.32,2.33,2.33,0,0,0-1.24.33,2.5,2.5,0,0,0-.87.9,2.56,2.56,0,0,0-.31,1.26,2.41,2.41,0,0,0,.32,1.28,2.53,2.53,0,0,0,.87.91A2.23,2.23,0,0,0,142.55,30.1Z"/><path class="cls-2" d="M155.63,33.86a16.26,16.26,0,0,1-1.83-.1,3.9,3.9,0,0,1-1.35-.4,2.49,2.49,0,0,1-.9-.84,4,4,0,0,1-.52-1.38,10,10,0,0,1-.18-2.06V17.53a4,4,0,0,1,.1-.93,1.21,1.21,0,0,1,.49-.7,2.37,2.37,0,0,1,1.31-.27,2.24,2.24,0,0,1,1.29.28,1.15,1.15,0,0,1,.49.7,4.4,4.4,0,0,1,.1.92V28.91a4.16,4.16,0,0,0,0,.66.8.8,0,0,0,.15.41.49.49,0,0,0,.31.2,1.9,1.9,0,0,0,.52.05,2.7,2.7,0,0,1,.62.08.9.9,0,0,1,.53.45A2.53,2.53,0,0,1,157,32a2.79,2.79,0,0,1-.23,1.3.86.86,0,0,1-.54.47A2.72,2.72,0,0,1,155.63,33.86Z"/><path class="cls-2" d="M169.05,33.84a2.3,2.3,0,0,1-1.37-.33.88.88,0,0,1-.43-.79l.25-.43a2.72,2.72,0,0,1-.57.61,4.25,4.25,0,0,1-2.78.94,5,5,0,0,1-2.19-.5A6,6,0,0,1,160.13,32a7.07,7.07,0,0,1-1.28-2,6.15,6.15,0,0,1-.47-2.37,5.83,5.83,0,0,1,.48-2.34,6.5,6.5,0,0,1,1.28-2A6.32,6.32,0,0,1,162,21.89a4.84,4.84,0,0,1,2.18-.5,4.3,4.3,0,0,1,1.57.26,4.45,4.45,0,0,1,1.09.61,3.45,3.45,0,0,1,.66.68l-.22-.35a1,1,0,0,1,.44-.91,2.39,2.39,0,0,1,1.38-.31,2.34,2.34,0,0,1,1.29.27,1.11,1.11,0,0,1,.47.73,4.79,4.79,0,0,1,.09.95v8.62a4.73,4.73,0,0,1-.09.93,1.09,1.09,0,0,1-.48.71A2.48,2.48,0,0,1,169.05,33.84Zm-4.37-3.73a2.21,2.21,0,0,0,1.2-.33,2.59,2.59,0,0,0,1.17-2.19,2.52,2.52,0,0,0-.32-1.29,2.56,2.56,0,0,0-.87-.89,2.45,2.45,0,0,0-1.23-.32,2.42,2.42,0,0,0-1.26.33,2.48,2.48,0,0,0-.9.92,2.45,2.45,0,0,0-.34,1.3,2.28,2.28,0,0,0,.34,1.23,2.41,2.41,0,0,0,.92.9A2.49,2.49,0,0,0,164.68,30.11Z"/><path class="cls-2" d="M177.92,34.07a8.05,8.05,0,0,1-1.47-.15,8.79,8.79,0,0,1-1.54-.44,5.43,5.43,0,0,1-1.25-.67,1.28,1.28,0,0,1-.56-.89,1.41,1.41,0,0,1,0-.54,2.82,2.82,0,0,1,.23-.6,3.78,3.78,0,0,1,.44-.66.92.92,0,0,1,.43-.35,1.09,1.09,0,0,1,.59,0,3,3,0,0,1,.8.27c.27.12.54.26.83.4a8.41,8.41,0,0,0,.87.37,2.69,2.69,0,0,0,.93.17,2.15,2.15,0,0,0,1.08-.22.64.64,0,0,0,.39-.58.61.61,0,0,0-.16-.45,1.27,1.27,0,0,0-.45-.3,4.32,4.32,0,0,0-.67-.24c-.26-.08-.53-.15-.82-.21s-.58-.15-.9-.25a7.78,7.78,0,0,1-1.18-.46,3.67,3.67,0,0,1-1.05-.71,3.15,3.15,0,0,1-.74-1.07,4.05,4.05,0,0,1-.27-1.57,3.53,3.53,0,0,1,.56-2.05,3.48,3.48,0,0,1,1.66-1.26,7.42,7.42,0,0,1,2.7-.43,6.79,6.79,0,0,1,.9.05,5.38,5.38,0,0,1,.89.17c.29.09.58.19.86.3a6.16,6.16,0,0,1,.85.43,1.13,1.13,0,0,1,.78,1,2.1,2.1,0,0,1-.43,1.25,2,2,0,0,1-.57.59.89.89,0,0,1-.63.13,3.64,3.64,0,0,1-.86-.34c-.31-.15-.64-.3-1-.43a2.63,2.63,0,0,0-1-.2,2,2,0,0,0-.72.11.94.94,0,0,0-.45.3.67.67,0,0,0-.15.44.72.72,0,0,0,.18.51,1.58,1.58,0,0,0,.51.31,7.54,7.54,0,0,0,.75.23l.93.2a11.22,11.22,0,0,1,1.39.34,4.69,4.69,0,0,1,1.3.61,3.08,3.08,0,0,1,1,1.07,3.8,3.8,0,0,1,.36,1.78,3.56,3.56,0,0,1-1.38,3A6.38,6.38,0,0,1,177.92,34.07Z"/><path class="cls-2" d="M186.16,21.58h2.75l3.45-.1a4.43,4.43,0,0,1,.9.09,1.13,1.13,0,0,1,.7.49,2.41,2.41,0,0,1,.27,1.32,2.38,2.38,0,0,1-.26,1.25,1.15,1.15,0,0,1-.69.51,3.36,3.36,0,0,1-.92.12l-3.28-.08-3,0a1.27,1.27,0,0,1-1-.46,2.56,2.56,0,0,1-.28-1.39,2.08,2.08,0,0,1,.35-1.34A1.26,1.26,0,0,1,186.16,21.58Zm5.64,12.3a7.54,7.54,0,0,1-2.2-.28,3.43,3.43,0,0,1-1.51-.85,3.62,3.62,0,0,1-.88-1.46,7,7,0,0,1-.28-2.11V19.05a4.15,4.15,0,0,1,.09-.92,1.07,1.07,0,0,1,.49-.67,2.51,2.51,0,0,1,1.3-.26,2.39,2.39,0,0,1,1.3.28,1.1,1.1,0,0,1,.49.71,4.53,4.53,0,0,1,.08.91V29a3,3,0,0,0,.06.66.71.71,0,0,0,.19.39.68.68,0,0,0,.35.17,2.19,2.19,0,0,0,.55.05,4.67,4.67,0,0,1,1,.1,1,1,0,0,1,.66.46A2.13,2.13,0,0,1,193.7,32a2.4,2.4,0,0,1-.27,1.3,1,1,0,0,1-.72.47A5.31,5.31,0,0,1,191.8,33.88Z"/><path class="cls-2" d="M206.35,33.86a2.39,2.39,0,0,1-1.37-.32.91.91,0,0,1-.43-.8l.25-.43a2.72,2.72,0,0,1-.57.61,4.08,4.08,0,0,1-1.12.65,4.33,4.33,0,0,1-1.66.29,5,5,0,0,1-2.19-.5A6,6,0,0,1,197.43,32a7,7,0,0,1-1.28-2,6.16,6.16,0,0,1-.47-2.38,5.87,5.87,0,0,1,.48-2.34,6.51,6.51,0,0,1,3.12-3.33,5,5,0,0,1,2.18-.5,4.3,4.3,0,0,1,1.57.26,4.16,4.16,0,0,1,1.09.62,3.43,3.43,0,0,1,.66.67l-.22-.35a1,1,0,0,1,.44-.91,2.39,2.39,0,0,1,1.38-.31,2.34,2.34,0,0,1,1.29.27,1.11,1.11,0,0,1,.47.73,4.86,4.86,0,0,1,.09.95V32a4.73,4.73,0,0,1-.09.93,1.07,1.07,0,0,1-.48.71A2.38,2.38,0,0,1,206.35,33.86ZM202,30.14a2.21,2.21,0,0,0,1.2-.34,2.56,2.56,0,0,0,1.17-2.19,2.52,2.52,0,0,0-.32-1.29,2.45,2.45,0,0,0-.87-.88,2.36,2.36,0,0,0-1.23-.33,2.33,2.33,0,0,0-1.26.34,2.53,2.53,0,0,0-1.24,2.21,2.34,2.34,0,0,0,.34,1.24,2.56,2.56,0,0,0,.92.9A2.7,2.7,0,0,0,202,30.14Z"/><path class="cls-2" d="M212.6,33.89a2.48,2.48,0,0,1-1.31-.26,1.09,1.09,0,0,1-.48-.71,4.73,4.73,0,0,1-.08-.93V23.27a4.45,4.45,0,0,1,.09-.93,1.08,1.08,0,0,1,.49-.69,2.54,2.54,0,0,1,1.32-.26,2.45,2.45,0,0,1,1.26.24,1,1,0,0,1,.49.55,1.73,1.73,0,0,1,.1.54l-.3.15a2,2,0,0,1,.26-.36A3.55,3.55,0,0,1,215,22a3.28,3.28,0,0,1,.91-.49,3.66,3.66,0,0,1,1.24-.2,4.45,4.45,0,0,1,.61,0,3.22,3.22,0,0,1,.71.15,2.47,2.47,0,0,1,.66.3,1.51,1.51,0,0,1,.48.46,1.14,1.14,0,0,1,.19.68,3.08,3.08,0,0,1-.47,1.73,1.4,1.4,0,0,1-1.2.71,2.14,2.14,0,0,1-.61-.06.92.92,0,0,1-.28-.15A1,1,0,0,0,217,25a1.61,1.61,0,0,0-.54-.06,2.46,2.46,0,0,0-.72.1,2.12,2.12,0,0,0-.62.31,1.54,1.54,0,0,0-.45.53,1.46,1.46,0,0,0-.17.71V32a4.63,4.63,0,0,1-.09.92,1,1,0,0,1-.49.68A2.53,2.53,0,0,1,212.6,33.89Z"/><path class="cls-3" d="M134.48,31.2a2.77,2.77,0,0,1,.32,1.06,1,1,0,0,1-.26.77,2.84,2.84,0,0,1-.94.66,2,2,0,0,1-1.55.3,2.1,2.1,0,0,1-1-1.2l-4.9-10.25-4.88,10.25a2.2,2.2,0,0,1-1,1.16,2.16,2.16,0,0,1-1.53-.29,2.74,2.74,0,0,1-1-.64,1,1,0,0,1-.27-.8,3,3,0,0,1,.37-1.09l6.58-13.67a2,2,0,0,1,1.75-1.1,2,2,0,0,1,.7.14,1.89,1.89,0,0,1,.59.39,2.45,2.45,0,0,1,.44.6Zm-12.55-1.44,1.55-3.22h5.33l1.54,3.23Z"/><path class="cls-3" d="M138.25,39a2.48,2.48,0,0,1-1.3-.26,1,1,0,0,1-.48-.68,4.91,4.91,0,0,1-.07-.88v-14a5.1,5.1,0,0,1,.07-.91,1.05,1.05,0,0,1,.47-.69,2.28,2.28,0,0,1,1.28-.27,2.87,2.87,0,0,1,1.24.22,1.33,1.33,0,0,1,.66.7v14.9a2.94,2.94,0,0,1-.07.9,1.11,1.11,0,0,1-.49.69A2.41,2.41,0,0,1,138.25,39Zm4.8-5.39a4.73,4.73,0,0,1-2.15-.49,4.59,4.59,0,0,1-1.54-1.33,6.22,6.22,0,0,1-.92-1.94,7.87,7.87,0,0,1-.28-2.37,8.17,8.17,0,0,1,.32-2.34,6.53,6.53,0,0,1,.94-2,4.29,4.29,0,0,1,3.64-1.84,4.88,4.88,0,0,1,2.15.5A6.36,6.36,0,0,1,147,23.22a6.32,6.32,0,0,1,1.28,6.72,6.1,6.1,0,0,1-1.27,1.94,5.73,5.73,0,0,1-1.82,1.28A5.24,5.24,0,0,1,143.05,33.63Zm-.5-3.53a2.28,2.28,0,0,0,1.25-.34,2.51,2.51,0,0,0,.89-.91,2.42,2.42,0,0,0,.34-1.27,2.61,2.61,0,0,0-.32-1.28,2.48,2.48,0,0,0-.89-.9,2.41,2.41,0,0,0-1.24-.32,2.33,2.33,0,0,0-1.24.33,2.5,2.5,0,0,0-.87.9,2.56,2.56,0,0,0-.31,1.26,2.41,2.41,0,0,0,.32,1.28,2.53,2.53,0,0,0,.87.91A2.23,2.23,0,0,0,142.55,30.1Z"/><path class="cls-3" d="M155.63,33.86a16.26,16.26,0,0,1-1.83-.1,3.9,3.9,0,0,1-1.35-.4,2.49,2.49,0,0,1-.9-.84,4,4,0,0,1-.52-1.38,10,10,0,0,1-.18-2.06V17.53a4,4,0,0,1,.1-.93,1.21,1.21,0,0,1,.49-.7,2.37,2.37,0,0,1,1.31-.27,2.24,2.24,0,0,1,1.29.28,1.15,1.15,0,0,1,.49.7,4.4,4.4,0,0,1,.1.92V28.91a4.16,4.16,0,0,0,0,.66.8.8,0,0,0,.15.41.49.49,0,0,0,.31.2,1.9,1.9,0,0,0,.52.05,2.7,2.7,0,0,1,.62.08.9.9,0,0,1,.53.45A2.53,2.53,0,0,1,157,32a2.79,2.79,0,0,1-.23,1.3.86.86,0,0,1-.54.47A2.72,2.72,0,0,1,155.63,33.86Z"/><path class="cls-3" d="M169.05,33.84a2.3,2.3,0,0,1-1.37-.33.88.88,0,0,1-.43-.79l.25-.43a2.72,2.72,0,0,1-.57.61,4.25,4.25,0,0,1-2.78.94,5,5,0,0,1-2.19-.5A6,6,0,0,1,160.13,32a7.07,7.07,0,0,1-1.28-2,6.15,6.15,0,0,1-.47-2.37,5.83,5.83,0,0,1,.48-2.34,6.5,6.5,0,0,1,1.28-2A6.32,6.32,0,0,1,162,21.89a4.84,4.84,0,0,1,2.18-.5,4.3,4.3,0,0,1,1.57.26,4.45,4.45,0,0,1,1.09.61,3.45,3.45,0,0,1,.66.68l-.22-.35a1,1,0,0,1,.44-.91,2.39,2.39,0,0,1,1.38-.31,2.34,2.34,0,0,1,1.29.27,1.11,1.11,0,0,1,.47.73,4.79,4.79,0,0,1,.09.95v8.62a4.73,4.73,0,0,1-.09.93,1.09,1.09,0,0,1-.48.71A2.48,2.48,0,0,1,169.05,33.84Zm-4.37-3.73a2.21,2.21,0,0,0,1.2-.33,2.59,2.59,0,0,0,1.17-2.19,2.52,2.52,0,0,0-.32-1.29,2.56,2.56,0,0,0-.87-.89,2.45,2.45,0,0,0-1.23-.32,2.42,2.42,0,0,0-1.26.33,2.48,2.48,0,0,0-.9.92,2.45,2.45,0,0,0-.34,1.3,2.28,2.28,0,0,0,.34,1.23,2.41,2.41,0,0,0,.92.9A2.49,2.49,0,0,0,164.68,30.11Z"/><path class="cls-3" d="M177.92,34.07a8.05,8.05,0,0,1-1.47-.15,8.79,8.79,0,0,1-1.54-.44,5.43,5.43,0,0,1-1.25-.67,1.28,1.28,0,0,1-.56-.89,1.41,1.41,0,0,1,0-.54,2.82,2.82,0,0,1,.23-.6,3.78,3.78,0,0,1,.44-.66.92.92,0,0,1,.43-.35,1.09,1.09,0,0,1,.59,0,3,3,0,0,1,.8.27c.27.12.54.26.83.4a8.41,8.41,0,0,0,.87.37,2.69,2.69,0,0,0,.93.17,2.15,2.15,0,0,0,1.08-.22.64.64,0,0,0,.39-.58.61.61,0,0,0-.16-.45,1.27,1.27,0,0,0-.45-.3,4.32,4.32,0,0,0-.67-.24c-.26-.08-.53-.15-.82-.21s-.58-.15-.9-.25a7.78,7.78,0,0,1-1.18-.46,3.67,3.67,0,0,1-1.05-.71,3.15,3.15,0,0,1-.74-1.07,4.05,4.05,0,0,1-.27-1.57,3.53,3.53,0,0,1,.56-2.05,3.48,3.48,0,0,1,1.66-1.26,7.42,7.42,0,0,1,2.7-.43,6.79,6.79,0,0,1,.9.05,5.38,5.38,0,0,1,.89.17c.29.09.58.19.86.3a6.16,6.16,0,0,1,.85.43,1.13,1.13,0,0,1,.78,1,2.1,2.1,0,0,1-.43,1.25,2,2,0,0,1-.57.59.89.89,0,0,1-.63.13,3.64,3.64,0,0,1-.86-.34c-.31-.15-.64-.3-1-.43a2.63,2.63,0,0,0-1-.2,2,2,0,0,0-.72.11.94.94,0,0,0-.45.3.67.67,0,0,0-.15.44.72.72,0,0,0,.18.51,1.58,1.58,0,0,0,.51.31,7.54,7.54,0,0,0,.75.23l.93.2a11.22,11.22,0,0,1,1.39.34,4.69,4.69,0,0,1,1.3.61,3.08,3.08,0,0,1,1,1.07,3.8,3.8,0,0,1,.36,1.78,3.56,3.56,0,0,1-1.38,3A6.38,6.38,0,0,1,177.92,34.07Z"/><path class="cls-3" d="M186.16,21.58h2.75l3.45-.1a4.43,4.43,0,0,1,.9.09,1.13,1.13,0,0,1,.7.49,2.41,2.41,0,0,1,.27,1.32,2.38,2.38,0,0,1-.26,1.25,1.15,1.15,0,0,1-.69.51,3.36,3.36,0,0,1-.92.12l-3.28-.08-3,0a1.27,1.27,0,0,1-1-.46,2.56,2.56,0,0,1-.28-1.39,2.08,2.08,0,0,1,.35-1.34A1.26,1.26,0,0,1,186.16,21.58Zm5.64,12.3a7.54,7.54,0,0,1-2.2-.28,3.43,3.43,0,0,1-1.51-.85,3.62,3.62,0,0,1-.88-1.46,7,7,0,0,1-.28-2.11V19.05a4.15,4.15,0,0,1,.09-.92,1.07,1.07,0,0,1,.49-.67,2.51,2.51,0,0,1,1.3-.26,2.39,2.39,0,0,1,1.3.28,1.1,1.1,0,0,1,.49.71,4.53,4.53,0,0,1,.08.91V29a3,3,0,0,0,.06.66.71.71,0,0,0,.19.39.68.68,0,0,0,.35.17,2.19,2.19,0,0,0,.55.05,4.67,4.67,0,0,1,1,.1,1,1,0,0,1,.66.46A2.13,2.13,0,0,1,193.7,32a2.4,2.4,0,0,1-.27,1.3,1,1,0,0,1-.72.47A5.31,5.31,0,0,1,191.8,33.88Z"/><path class="cls-3" d="M206.35,33.86a2.39,2.39,0,0,1-1.37-.32.91.91,0,0,1-.43-.8l.25-.43a2.72,2.72,0,0,1-.57.61,4.08,4.08,0,0,1-1.12.65,4.33,4.33,0,0,1-1.66.29,5,5,0,0,1-2.19-.5A6,6,0,0,1,197.43,32a7,7,0,0,1-1.28-2,6.16,6.16,0,0,1-.47-2.38,5.87,5.87,0,0,1,.48-2.34,6.51,6.51,0,0,1,3.12-3.33,5,5,0,0,1,2.18-.5,4.3,4.3,0,0,1,1.57.26,4.16,4.16,0,0,1,1.09.62,3.43,3.43,0,0,1,.66.67l-.22-.35a1,1,0,0,1,.44-.91,2.39,2.39,0,0,1,1.38-.31,2.34,2.34,0,0,1,1.29.27,1.11,1.11,0,0,1,.47.73,4.86,4.86,0,0,1,.09.95V32a4.73,4.73,0,0,1-.09.93,1.07,1.07,0,0,1-.48.71A2.38,2.38,0,0,1,206.35,33.86ZM202,30.14a2.21,2.21,0,0,0,1.2-.34,2.56,2.56,0,0,0,1.17-2.19,2.52,2.52,0,0,0-.32-1.29,2.45,2.45,0,0,0-.87-.88,2.36,2.36,0,0,0-1.23-.33,2.33,2.33,0,0,0-1.26.34,2.53,2.53,0,0,0-1.24,2.21,2.34,2.34,0,0,0,.34,1.24,2.56,2.56,0,0,0,.92.9A2.7,2.7,0,0,0,202,30.14Z"/><path class="cls-3" d="M212.6,33.89a2.48,2.48,0,0,1-1.31-.26,1.09,1.09,0,0,1-.48-.71,4.73,4.73,0,0,1-.08-.93V23.27a4.45,4.45,0,0,1,.09-.93,1.08,1.08,0,0,1,.49-.69,2.54,2.54,0,0,1,1.32-.26,2.45,2.45,0,0,1,1.26.24,1,1,0,0,1,.49.55,1.73,1.73,0,0,1,.1.54l-.3.15a2,2,0,0,1,.26-.36A3.55,3.55,0,0,1,215,22a3.28,3.28,0,0,1,.91-.49,3.66,3.66,0,0,1,1.24-.2,4.45,4.45,0,0,1,.61,0,3.22,3.22,0,0,1,.71.15,2.47,2.47,0,0,1,.66.3,1.51,1.51,0,0,1,.48.46,1.14,1.14,0,0,1,.19.68,3.08,3.08,0,0,1-.47,1.73,1.4,1.4,0,0,1-1.2.71,2.14,2.14,0,0,1-.61-.06.92.92,0,0,1-.28-.15A1,1,0,0,0,217,25a1.61,1.61,0,0,0-.54-.06,2.46,2.46,0,0,0-.72.1,2.12,2.12,0,0,0-.62.31,1.54,1.54,0,0,0-.45.53,1.46,1.46,0,0,0-.17.71V32a4.63,4.63,0,0,1-.09.92,1,1,0,0,1-.49.68A2.53,2.53,0,0,1,212.6,33.89Z"/><path class="cls-2" d="M134.48,31.2a2.77,2.77,0,0,1,.32,1.06,1,1,0,0,1-.26.77,2.84,2.84,0,0,1-.94.66,2,2,0,0,1-1.55.3,2.1,2.1,0,0,1-1-1.2l-4.9-10.25-4.88,10.25a2.2,2.2,0,0,1-1,1.16,2.16,2.16,0,0,1-1.53-.29,2.74,2.74,0,0,1-1-.64,1,1,0,0,1-.27-.8,3,3,0,0,1,.37-1.09l6.58-13.67a2,2,0,0,1,1.75-1.1,2,2,0,0,1,.7.14,1.89,1.89,0,0,1,.59.39,2.45,2.45,0,0,1,.44.6Zm-12.55-1.44,1.55-3.22h5.33l1.54,3.23Z"/><path class="cls-2" d="M138.25,39a2.48,2.48,0,0,1-1.3-.26,1,1,0,0,1-.48-.68,4.91,4.91,0,0,1-.07-.88v-14a5.1,5.1,0,0,1,.07-.91,1.05,1.05,0,0,1,.47-.69,2.28,2.28,0,0,1,1.28-.27,2.87,2.87,0,0,1,1.24.22,1.33,1.33,0,0,1,.66.7v14.9a2.94,2.94,0,0,1-.07.9,1.11,1.11,0,0,1-.49.69A2.41,2.41,0,0,1,138.25,39Zm4.8-5.39a4.73,4.73,0,0,1-2.15-.49,4.59,4.59,0,0,1-1.54-1.33,6.22,6.22,0,0,1-.92-1.94,7.87,7.87,0,0,1-.28-2.37,8.17,8.17,0,0,1,.32-2.34,6.53,6.53,0,0,1,.94-2,4.29,4.29,0,0,1,3.64-1.84,4.88,4.88,0,0,1,2.15.5A6.36,6.36,0,0,1,147,23.22a6.32,6.32,0,0,1,1.28,6.72,6.1,6.1,0,0,1-1.27,1.94,5.73,5.73,0,0,1-1.82,1.28A5.24,5.24,0,0,1,143.05,33.63Zm-.5-3.53a2.28,2.28,0,0,0,1.25-.34,2.51,2.51,0,0,0,.89-.91,2.42,2.42,0,0,0,.34-1.27,2.61,2.61,0,0,0-.32-1.28,2.48,2.48,0,0,0-.89-.9,2.41,2.41,0,0,0-1.24-.32,2.33,2.33,0,0,0-1.24.33,2.5,2.5,0,0,0-.87.9,2.56,2.56,0,0,0-.31,1.26,2.41,2.41,0,0,0,.32,1.28,2.53,2.53,0,0,0,.87.91A2.23,2.23,0,0,0,142.55,30.1Z"/><path class="cls-2" d="M155.63,33.86a16.26,16.26,0,0,1-1.83-.1,3.9,3.9,0,0,1-1.35-.4,2.49,2.49,0,0,1-.9-.84,4,4,0,0,1-.52-1.38,10,10,0,0,1-.18-2.06V17.53a4,4,0,0,1,.1-.93,1.21,1.21,0,0,1,.49-.7,2.37,2.37,0,0,1,1.31-.27,2.24,2.24,0,0,1,1.29.28,1.15,1.15,0,0,1,.49.7,4.4,4.4,0,0,1,.1.92V28.91a4.16,4.16,0,0,0,0,.66.8.8,0,0,0,.15.41.49.49,0,0,0,.31.2,1.9,1.9,0,0,0,.52.05,2.7,2.7,0,0,1,.62.08.9.9,0,0,1,.53.45A2.53,2.53,0,0,1,157,32a2.79,2.79,0,0,1-.23,1.3.86.86,0,0,1-.54.47A2.72,2.72,0,0,1,155.63,33.86Z"/><path class="cls-2" d="M169.05,33.84a2.3,2.3,0,0,1-1.37-.33.88.88,0,0,1-.43-.79l.25-.43a2.72,2.72,0,0,1-.57.61,4.25,4.25,0,0,1-2.78.94,5,5,0,0,1-2.19-.5A6,6,0,0,1,160.13,32a7.07,7.07,0,0,1-1.28-2,6.15,6.15,0,0,1-.47-2.37,5.83,5.83,0,0,1,.48-2.34,6.5,6.5,0,0,1,1.28-2A6.32,6.32,0,0,1,162,21.89a4.84,4.84,0,0,1,2.18-.5,4.3,4.3,0,0,1,1.57.26,4.45,4.45,0,0,1,1.09.61,3.45,3.45,0,0,1,.66.68l-.22-.35a1,1,0,0,1,.44-.91,2.39,2.39,0,0,1,1.38-.31,2.34,2.34,0,0,1,1.29.27,1.11,1.11,0,0,1,.47.73,4.79,4.79,0,0,1,.09.95v8.62a4.73,4.73,0,0,1-.09.93,1.09,1.09,0,0,1-.48.71A2.48,2.48,0,0,1,169.05,33.84Zm-4.37-3.73a2.21,2.21,0,0,0,1.2-.33,2.59,2.59,0,0,0,1.17-2.19,2.52,2.52,0,0,0-.32-1.29,2.56,2.56,0,0,0-.87-.89,2.45,2.45,0,0,0-1.23-.32,2.42,2.42,0,0,0-1.26.33,2.48,2.48,0,0,0-.9.92,2.45,2.45,0,0,0-.34,1.3,2.28,2.28,0,0,0,.34,1.23,2.41,2.41,0,0,0,.92.9A2.49,2.49,0,0,0,164.68,30.11Z"/><path class="cls-2" d="M177.92,34.07a8.05,8.05,0,0,1-1.47-.15,8.79,8.79,0,0,1-1.54-.44,5.43,5.43,0,0,1-1.25-.67,1.28,1.28,0,0,1-.56-.89,1.41,1.41,0,0,1,0-.54,2.82,2.82,0,0,1,.23-.6,3.78,3.78,0,0,1,.44-.66.92.92,0,0,1,.43-.35,1.09,1.09,0,0,1,.59,0,3,3,0,0,1,.8.27c.27.12.54.26.83.4a8.41,8.41,0,0,0,.87.37,2.69,2.69,0,0,0,.93.17,2.15,2.15,0,0,0,1.08-.22.64.64,0,0,0,.39-.58.61.61,0,0,0-.16-.45,1.27,1.27,0,0,0-.45-.3,4.32,4.32,0,0,0-.67-.24c-.26-.08-.53-.15-.82-.21s-.58-.15-.9-.25a7.78,7.78,0,0,1-1.18-.46,3.67,3.67,0,0,1-1.05-.71,3.15,3.15,0,0,1-.74-1.07,4.05,4.05,0,0,1-.27-1.57,3.53,3.53,0,0,1,.56-2.05,3.48,3.48,0,0,1,1.66-1.26,7.42,7.42,0,0,1,2.7-.43,6.79,6.79,0,0,1,.9.05,5.38,5.38,0,0,1,.89.17c.29.09.58.19.86.3a6.16,6.16,0,0,1,.85.43,1.13,1.13,0,0,1,.78,1,2.1,2.1,0,0,1-.43,1.25,2,2,0,0,1-.57.59.89.89,0,0,1-.63.13,3.64,3.64,0,0,1-.86-.34c-.31-.15-.64-.3-1-.43a2.63,2.63,0,0,0-1-.2,2,2,0,0,0-.72.11.94.94,0,0,0-.45.3.67.67,0,0,0-.15.44.72.72,0,0,0,.18.51,1.58,1.58,0,0,0,.51.31,7.54,7.54,0,0,0,.75.23l.93.2a11.22,11.22,0,0,1,1.39.34,4.69,4.69,0,0,1,1.3.61,3.08,3.08,0,0,1,1,1.07,3.8,3.8,0,0,1,.36,1.78,3.56,3.56,0,0,1-1.38,3A6.38,6.38,0,0,1,177.92,34.07Z"/><path class="cls-2" d="M186.16,21.58h2.75l3.45-.1a4.43,4.43,0,0,1,.9.09,1.13,1.13,0,0,1,.7.49,2.41,2.41,0,0,1,.27,1.32,2.38,2.38,0,0,1-.26,1.25,1.15,1.15,0,0,1-.69.51,3.36,3.36,0,0,1-.92.12l-3.28-.08-3,0a1.27,1.27,0,0,1-1-.46,2.56,2.56,0,0,1-.28-1.39,2.08,2.08,0,0,1,.35-1.34A1.26,1.26,0,0,1,186.16,21.58Zm5.64,12.3a7.54,7.54,0,0,1-2.2-.28,3.43,3.43,0,0,1-1.51-.85,3.62,3.62,0,0,1-.88-1.46,7,7,0,0,1-.28-2.11V19.05a4.15,4.15,0,0,1,.09-.92,1.07,1.07,0,0,1,.49-.67,2.51,2.51,0,0,1,1.3-.26,2.39,2.39,0,0,1,1.3.28,1.1,1.1,0,0,1,.49.71,4.53,4.53,0,0,1,.08.91V29a3,3,0,0,0,.06.66.71.71,0,0,0,.19.39.68.68,0,0,0,.35.17,2.19,2.19,0,0,0,.55.05,4.67,4.67,0,0,1,1,.1,1,1,0,0,1,.66.46A2.13,2.13,0,0,1,193.7,32a2.4,2.4,0,0,1-.27,1.3,1,1,0,0,1-.72.47A5.31,5.31,0,0,1,191.8,33.88Z"/><path class="cls-2" d="M206.35,33.86a2.39,2.39,0,0,1-1.37-.32.91.91,0,0,1-.43-.8l.25-.43a2.72,2.72,0,0,1-.57.61,4.08,4.08,0,0,1-1.12.65,4.33,4.33,0,0,1-1.66.29,5,5,0,0,1-2.19-.5A6,6,0,0,1,197.43,32a7,7,0,0,1-1.28-2,6.16,6.16,0,0,1-.47-2.38,5.87,5.87,0,0,1,.48-2.34,6.51,6.51,0,0,1,3.12-3.33,5,5,0,0,1,2.18-.5,4.3,4.3,0,0,1,1.57.26,4.16,4.16,0,0,1,1.09.62,3.43,3.43,0,0,1,.66.67l-.22-.35a1,1,0,0,1,.44-.91,2.39,2.39,0,0,1,1.38-.31,2.34,2.34,0,0,1,1.29.27,1.11,1.11,0,0,1,.47.73,4.86,4.86,0,0,1,.09.95V32a4.73,4.73,0,0,1-.09.93,1.07,1.07,0,0,1-.48.71A2.38,2.38,0,0,1,206.35,33.86ZM202,30.14a2.21,2.21,0,0,0,1.2-.34,2.56,2.56,0,0,0,1.17-2.19,2.52,2.52,0,0,0-.32-1.29,2.45,2.45,0,0,0-.87-.88,2.36,2.36,0,0,0-1.23-.33,2.33,2.33,0,0,0-1.26.34,2.53,2.53,0,0,0-1.24,2.21,2.34,2.34,0,0,0,.34,1.24,2.56,2.56,0,0,0,.92.9A2.7,2.7,0,0,0,202,30.14Z"/><path class="cls-2" d="M212.6,33.89a2.48,2.48,0,0,1-1.31-.26,1.09,1.09,0,0,1-.48-.71,4.73,4.73,0,0,1-.08-.93V23.27a4.45,4.45,0,0,1,.09-.93,1.08,1.08,0,0,1,.49-.69,2.54,2.54,0,0,1,1.32-.26,2.45,2.45,0,0,1,1.26.24,1,1,0,0,1,.49.55,1.73,1.73,0,0,1,.1.54l-.3.15a2,2,0,0,1,.26-.36A3.55,3.55,0,0,1,215,22a3.28,3.28,0,0,1,.91-.49,3.66,3.66,0,0,1,1.24-.2,4.45,4.45,0,0,1,.61,0,3.22,3.22,0,0,1,.71.15,2.47,2.47,0,0,1,.66.3,1.51,1.51,0,0,1,.48.46,1.14,1.14,0,0,1,.19.68,3.08,3.08,0,0,1-.47,1.73,1.4,1.4,0,0,1-1.2.71,2.14,2.14,0,0,1-.61-.06.92.92,0,0,1-.28-.15A1,1,0,0,0,217,25a1.61,1.61,0,0,0-.54-.06,2.46,2.46,0,0,0-.72.1,2.12,2.12,0,0,0-.62.31,1.54,1.54,0,0,0-.45.53,1.46,1.46,0,0,0-.17.71V32a4.63,4.63,0,0,1-.09.92,1,1,0,0,1-.49.68A2.53,2.53,0,0,1,212.6,33.89Z"/><path class="cls-4" d="M66.64,32.55q0,3.41-1.18,4.85a4.36,4.36,0,0,1-3.59,1.45,5.73,5.73,0,0,1-2.57-.5,3.29,3.29,0,0,1-1.48-1.85,11.09,11.09,0,0,1-.55-3.61L57.2,17.22A6.3,6.3,0,0,1,54,16.49,2.58,2.58,0,0,1,52.73,14a2.76,2.76,0,0,1,1.16-2.29,5.16,5.16,0,0,1,3.24-.9c.54,0,1.31,0,2.3,0l2.1,0c2,0,3.36.34,4,1a5,5,0,0,1,1,3.59Z"/><path class="cls-4" d="M70.39,36a2.78,2.78,0,0,1,1.16-2.31,5.4,5.4,0,0,1,3.28-.88c3,0,4.44,1.07,4.44,3.19a3.11,3.11,0,0,1-.57,2,2.73,2.73,0,0,1-1.51,1,9.17,9.17,0,0,1-2.36.26,6.13,6.13,0,0,1-3.18-.76A2.62,2.62,0,0,1,70.39,36Z"/><path class="cls-4" d="M93.67,20c0-1.37-1.24-2.06-3.71-2.06a19.62,19.62,0,0,0-2.1.15,19.23,19.23,0,0,1-1.94.15Q83,18.19,83,14.57t8.48-3.73q5.5,0,8.23,1.84a5.63,5.63,0,0,1,2.73,4.83,7.77,7.77,0,0,1-3.51,6.64,9.52,9.52,0,0,1,3.32,2.71,7.26,7.26,0,0,1,1,4.05,7.35,7.35,0,0,1-2.8,5.95,11.45,11.45,0,0,1-7.47,2.28c-3.92,0-6.72-.41-8.42-1.23A4,4,0,0,1,82,34.15a3.92,3.92,0,0,1,.82-2.88,3.15,3.15,0,0,1,2.28-.78c.49,0,1.25.06,2.28.17s1.82.17,2.36.17q4.44,0,4.45-1.68a1.63,1.63,0,0,0-.86-1.58,8,8,0,0,0-3.22-.44,6.5,6.5,0,0,1-3.34-.63,2.58,2.58,0,0,1-1-2.35c0-1.73,1.11-2.6,3.34-2.6a17.65,17.65,0,0,0,3.2-.21c.69-.14,1.09-.3,1.2-.49A1.92,1.92,0,0,0,93.67,20Z"/><path class="cls-5" d="M66.64,32.55q0,3.41-1.18,4.85a4.36,4.36,0,0,1-3.59,1.45,5.73,5.73,0,0,1-2.57-.5,3.29,3.29,0,0,1-1.48-1.85,11.09,11.09,0,0,1-.55-3.61L57.2,17.22A6.3,6.3,0,0,1,54,16.49,2.58,2.58,0,0,1,52.73,14a2.76,2.76,0,0,1,1.16-2.29,5.16,5.16,0,0,1,3.24-.9c.54,0,1.31,0,2.3,0l2.1,0c2,0,3.36.34,4,1a5,5,0,0,1,1,3.59Z"/><path class="cls-5" d="M70.39,36a2.78,2.78,0,0,1,1.16-2.31,5.4,5.4,0,0,1,3.28-.88c3,0,4.44,1.07,4.44,3.19a3.11,3.11,0,0,1-.57,2,2.73,2.73,0,0,1-1.51,1,9.17,9.17,0,0,1-2.36.26,6.13,6.13,0,0,1-3.18-.76A2.62,2.62,0,0,1,70.39,36Z"/><path class="cls-5" d="M93.67,20c0-1.37-1.24-2.06-3.71-2.06a19.62,19.62,0,0,0-2.1.15,19.23,19.23,0,0,1-1.94.15Q83,18.19,83,14.57t8.48-3.73q5.5,0,8.23,1.84a5.63,5.63,0,0,1,2.73,4.83,7.77,7.77,0,0,1-3.51,6.64,9.52,9.52,0,0,1,3.32,2.71,7.26,7.26,0,0,1,1,4.05,7.35,7.35,0,0,1-2.8,5.95,11.45,11.45,0,0,1-7.47,2.28c-3.92,0-6.72-.41-8.42-1.23A4,4,0,0,1,82,34.15a3.92,3.92,0,0,1,.82-2.88,3.15,3.15,0,0,1,2.28-.78c.49,0,1.25.06,2.28.17s1.82.17,2.36.17q4.44,0,4.45-1.68a1.63,1.63,0,0,0-.86-1.58,8,8,0,0,0-3.22-.44,6.5,6.5,0,0,1-3.34-.63,2.58,2.58,0,0,1-1-2.35c0-1.73,1.11-2.6,3.34-2.6a17.65,17.65,0,0,0,3.2-.21c.69-.14,1.09-.3,1.2-.49A1.92,1.92,0,0,0,93.67,20Z"/></g></g></svg>