<svg xmlns="http://www.w3.org/2000/svg" viewBox="0 0 399.98 111.96"><defs><style>.cls-1{fill:#03826e;}.cls-2{fill:#fff;}.cls-3,.cls-4{fill:none;stroke-width:5px;}.cls-3{stroke:#b6ba01;stroke-linejoin:round;}.cls-4{stroke:#fff;}.cls-5{fill:#b6ba01;}</style></defs><title>14t</title><g id="Layer_2" data-name="Layer 2"><g id="pestaña_identificativa" data-name="pestaña identificativa"><path class="cls-1" d="M368.29,0H43.76C19.59,0,0,15.89,0,35.49V79.56A32.4,32.4,0,0,0,32.4,112H367.58A32.4,32.4,0,0,0,400,79.56V25.7C400,11.51,385.79,0,368.29,0Z"/><path class="cls-2" d="M113.18,38.71a2.47,2.47,0,0,1-1.33-.27,1.16,1.16,0,0,1-.48-.73,4.7,4.7,0,0,1-.09-.92V23.14a3.85,3.85,0,0,1,.1-.91,1.17,1.17,0,0,1,.5-.72,2.47,2.47,0,0,1,1.33-.27h5.12a6.39,6.39,0,0,1,2.1.38,6.18,6.18,0,0,1,2,1.16,6.45,6.45,0,0,1,1.47,7.33A6,6,0,0,1,122.42,32a6.15,6.15,0,0,1-2,1.15,6.36,6.36,0,0,1-2.12.37h-3.2v3.28a3.91,3.91,0,0,1-.11.91,1.11,1.11,0,0,1-.5.71A2.41,2.41,0,0,1,113.18,38.71Zm1.93-9h3.22a2.81,2.81,0,0,0,1.09-.23,2.14,2.14,0,0,0,.9-.77,2.27,2.27,0,0,0,.37-1.35,2.34,2.34,0,0,0-.32-1.22,2.2,2.2,0,0,0-.83-.83,2.44,2.44,0,0,0-1.23-.3h-3.2Z"/><path class="cls-2" d="M132.78,39a7.09,7.09,0,0,1-3-.58,5.72,5.72,0,0,1-2.06-1.51,6.25,6.25,0,0,1-1.2-2.09,6.83,6.83,0,0,1-.4-2.3,6.38,6.38,0,0,1,.85-3.32,6.18,6.18,0,0,1,2.36-2.29,7,7,0,0,1,3.47-.83,6.25,6.25,0,0,1,2.51.46,5.23,5.23,0,0,1,1.75,1.2,4.89,4.89,0,0,1,1,1.59,4.32,4.32,0,0,1,.34,1.62,2.78,2.78,0,0,1-.67,2.05,2.25,2.25,0,0,1-1.68.68h-5.95a1.71,1.71,0,0,0,.46,1.08,2.77,2.77,0,0,0,1,.7,3.41,3.41,0,0,0,1.32.25,8.1,8.1,0,0,0,1-.06,3.7,3.7,0,0,0,.79-.18l.58-.22c.18-.08.34-.14.49-.19a2.41,2.41,0,0,1,.43-.1,1.08,1.08,0,0,1,.67.21,2.06,2.06,0,0,1,.58.72,1.93,1.93,0,0,1,.23.52,2.23,2.23,0,0,1,.07.5,1.35,1.35,0,0,1-.62,1.09,4.85,4.85,0,0,1-1.72.74A11.56,11.56,0,0,1,132.78,39Zm-2.67-7.4h3.95a.92.92,0,0,0,.57-.14.59.59,0,0,0,.2-.53,1.25,1.25,0,0,0-.27-.78,1.8,1.8,0,0,0-.74-.54,3,3,0,0,0-1.08-.18,3.08,3.08,0,0,0-1.35.29,2.39,2.39,0,0,0-.94.8A1.89,1.89,0,0,0,130.11,31.55Z"/><path class="cls-2" d="M142.51,24.43a2.53,2.53,0,0,1-1.35-.27,1.12,1.12,0,0,1-.48-.73,4.86,4.86,0,0,1-.09-.95,4.75,4.75,0,0,1,.09-1,1,1,0,0,1,.5-.7,2.59,2.59,0,0,1,1.36-.26,2.41,2.41,0,0,1,1.32.27,1.14,1.14,0,0,1,.49.73,4.92,4.92,0,0,1,.09,1,4.73,4.73,0,0,1-.09.93,1.07,1.07,0,0,1-.49.71A2.59,2.59,0,0,1,142.51,24.43Zm0,14.3a2.57,2.57,0,0,1-1.32-.26,1,1,0,0,1-.48-.7,5.41,5.41,0,0,1-.07-.91V28.13a4.47,4.47,0,0,1,.08-.91,1.06,1.06,0,0,1,.49-.7,2.49,2.49,0,0,1,1.33-.26,2.28,2.28,0,0,1,1.28.27,1.15,1.15,0,0,1,.48.71,4.76,4.76,0,0,1,.09.94v8.7a4.46,4.46,0,0,1-.09.91,1,1,0,0,1-.47.69A2.53,2.53,0,0,1,142.5,38.73Z"/><path class="cls-2" d="M148.93,38.71a2.45,2.45,0,0,1-1.31-.26,1.1,1.1,0,0,1-.48-.7,4.56,4.56,0,0,1-.09-.92V28a4.1,4.1,0,0,1,.09-.88,1,1,0,0,1,.49-.66,3.52,3.52,0,0,1,2.5,0,1,1,0,0,1,.48.51,1.53,1.53,0,0,1,.12.56,1.07,1.07,0,0,0,0,.37l-.14.47a1.48,1.48,0,0,1,.38-.76,3.74,3.74,0,0,1,.85-.7,4.73,4.73,0,0,1,1.1-.49,4.36,4.36,0,0,1,1.17-.17,5,5,0,0,1,2.13.44,4.24,4.24,0,0,1,1.59,1.26,6,6,0,0,1,1,1.94,8.52,8.52,0,0,1,.33,2.44v4.55a4.53,4.53,0,0,1-.09.91,1.08,1.08,0,0,1-.47.69,2.7,2.7,0,0,1-1.34.25,2.47,2.47,0,0,1-1.33-.27,1,1,0,0,1-.48-.7,4.46,4.46,0,0,1-.09-.91V32.31a2.74,2.74,0,0,0-.26-1.27,1.76,1.76,0,0,0-.75-.8,2.46,2.46,0,0,0-1.21-.28,2.59,2.59,0,0,0-1.25.29,2,2,0,0,0-.81.81,2.48,2.48,0,0,0-.29,1.25v4.55a5.31,5.31,0,0,1-.08.91,1,1,0,0,1-.48.69A2.49,2.49,0,0,1,148.93,38.71Z"/><path class="cls-2" d="M167.83,39a7.25,7.25,0,0,1-3-.57,5.9,5.9,0,0,1-2.07-1.52,6.3,6.3,0,0,1-1.19-2.09,6.83,6.83,0,0,1-.4-2.3,6.38,6.38,0,0,1,.85-3.32,6.11,6.11,0,0,1,2.36-2.29,7,7,0,0,1,3.47-.83,6.25,6.25,0,0,1,2.51.46,5.23,5.23,0,0,1,1.75,1.2,4.89,4.89,0,0,1,1,1.59,4.32,4.32,0,0,1,.34,1.62,2.77,2.77,0,0,1-.67,2,2.25,2.25,0,0,1-1.68.68h-6a1.71,1.71,0,0,0,.46,1.07,2.77,2.77,0,0,0,1,.7,3.41,3.41,0,0,0,1.32.25,8.22,8.22,0,0,0,1-.06,4.49,4.49,0,0,0,.79-.17c.21-.08.41-.15.58-.23l.49-.19a2.41,2.41,0,0,1,.43-.1,1,1,0,0,1,.67.22,2,2,0,0,1,.58.71,1.93,1.93,0,0,1,.23.52,2.2,2.2,0,0,1,.06.5,1.34,1.34,0,0,1-.61,1.09,4.68,4.68,0,0,1-1.72.74A11.62,11.62,0,0,1,167.83,39Zm-2.67-7.4h4a1,1,0,0,0,.57-.13.62.62,0,0,0,.2-.54,1.25,1.25,0,0,0-.27-.78,1.87,1.87,0,0,0-.74-.54,3.27,3.27,0,0,0-2.44.12,2.28,2.28,0,0,0-.93.8A1.84,1.84,0,0,0,165.16,31.57Z"/><path class="cls-2" d="M188.25,38.86a6.37,6.37,0,0,1-2.23-.42,6.72,6.72,0,0,1-2.1-1.21,5.68,5.68,0,0,1-1.54-2,6.35,6.35,0,0,1-.57-2.75,6.15,6.15,0,0,1,.57-2.72,6,6,0,0,1,1.53-2A6.75,6.75,0,0,1,186,26.57a6.57,6.57,0,0,1,2.21-.41,6,6,0,0,1,1.66.21,5.41,5.41,0,0,1,1.25.52,3.91,3.91,0,0,1,.74.52c.28.22.53.44.75.65a1.09,1.09,0,0,1,.3.85,1.53,1.53,0,0,1-.18.56,3.82,3.82,0,0,1-.37.59c-.52.7-1,1-1.5,1a2.27,2.27,0,0,1-.69-.25l-.6-.35a4.37,4.37,0,0,0-.61-.31,2,2,0,0,0-.75-.14,2.47,2.47,0,0,0-1.3.34,2.53,2.53,0,0,0-.92.89,2.77,2.77,0,0,0,0,2.62,2.7,2.7,0,0,0,.9.91,2.39,2.39,0,0,0,1.27.34,2.37,2.37,0,0,0,.72-.1,2.59,2.59,0,0,0,.55-.24l.35-.21.58-.36a1,1,0,0,1,.55-.16,1.19,1.19,0,0,1,.73.26,3.85,3.85,0,0,1,.81.84,2,2,0,0,1,.49,1,1.22,1.22,0,0,1-.21.86,2.69,2.69,0,0,1-.85.77,5.76,5.76,0,0,1-.71.45,7.34,7.34,0,0,1-1.26.5A6,6,0,0,1,188.25,38.86Z"/><path class="cls-2" d="M201.4,39a7.12,7.12,0,0,1-3-.58,5.72,5.72,0,0,1-2.06-1.51,6.51,6.51,0,0,1-1.2-2.09,6.83,6.83,0,0,1-.4-2.3,6.48,6.48,0,0,1,.85-3.32A6.14,6.14,0,0,1,198,26.9a7,7,0,0,1,3.46-.83,6.22,6.22,0,0,1,2.51.46,5.23,5.23,0,0,1,1.75,1.2,5.1,5.1,0,0,1,1,1.59,4.5,4.5,0,0,1,.33,1.62,2.82,2.82,0,0,1-.66,2.05,2.28,2.28,0,0,1-1.69.68h-6a1.77,1.77,0,0,0,.46,1.08,2.85,2.85,0,0,0,1,.7,3.5,3.5,0,0,0,1.33.25,8.05,8.05,0,0,0,1-.06,4.49,4.49,0,0,0,.79-.17l.59-.23.48-.19a2.63,2.63,0,0,1,.43-.1,1.06,1.06,0,0,1,.68.22,2.11,2.11,0,0,1,.57.71,1.65,1.65,0,0,1,.24.53,2.07,2.07,0,0,1,.06.5,1.36,1.36,0,0,1-.61,1.08,4.73,4.73,0,0,1-1.73.74A11.56,11.56,0,0,1,201.4,39Zm-2.67-7.4h4a1.06,1.06,0,0,0,.58-.13.65.65,0,0,0,.2-.54,1.21,1.21,0,0,0-.28-.78,1.73,1.73,0,0,0-.73-.53,2.83,2.83,0,0,0-1.09-.19,3,3,0,0,0-1.35.3,2.38,2.38,0,0,0-.94.8A1.91,1.91,0,0,0,198.73,31.59Z"/><path class="cls-2" d="M211,38.77a2.5,2.5,0,0,1-1.31-.26,1,1,0,0,1-.47-.71,4.73,4.73,0,0,1-.09-.93V28.15a4.45,4.45,0,0,1,.09-.93,1.08,1.08,0,0,1,.49-.69,2.57,2.57,0,0,1,1.32-.26,2.52,2.52,0,0,1,1.27.24,1,1,0,0,1,.48.55,1.73,1.73,0,0,1,.1.54l-.3.15a2.27,2.27,0,0,1,.27-.36,3.1,3.1,0,0,1,.58-.55,3.47,3.47,0,0,1,.92-.49,3.6,3.6,0,0,1,1.23-.2,4.7,4.7,0,0,1,.62,0,3.14,3.14,0,0,1,.7.15,2.47,2.47,0,0,1,.66.3,1.66,1.66,0,0,1,.49.46,1.21,1.21,0,0,1,.18.68,3,3,0,0,1-.47,1.73,1.41,1.41,0,0,1-1.2.72,1.93,1.93,0,0,1-.6-.07.87.87,0,0,1-.29-.15,1.1,1.1,0,0,0-.26-.15,1.72,1.72,0,0,0-.55-.06,2.34,2.34,0,0,0-.71.1,2.06,2.06,0,0,0-.63.31,1.54,1.54,0,0,0-.45.53,1.46,1.46,0,0,0-.16.71v5.47a5.52,5.52,0,0,1-.08.92,1,1,0,0,1-.49.68A2.6,2.6,0,0,1,211,38.77Z"/><path class="cls-2" d="M222.08,38.78a2.52,2.52,0,0,1-1.32-.26,1.14,1.14,0,0,1-.47-.72,4.7,4.7,0,0,1-.09-.92V28.15a4.42,4.42,0,0,1,.09-.92,1,1,0,0,1,.48-.69,2.59,2.59,0,0,1,1.33-.26,2.5,2.5,0,0,1,1.26.24,1.06,1.06,0,0,1,.49.55,2,2,0,0,1,.1.54l-.3.15a2.39,2.39,0,0,1,.26-.37,3.58,3.58,0,0,1,.59-.55,3.53,3.53,0,0,1,2.15-.68l.61,0a3.7,3.7,0,0,1,.7.16,2.47,2.47,0,0,1,.66.3,1.55,1.55,0,0,1,.49.46,1.13,1.13,0,0,1,.19.67,3,3,0,0,1-.48,1.74,1.38,1.38,0,0,1-1.2.71,2.11,2.11,0,0,1-.6-.06,1,1,0,0,1-.29-.15.93.93,0,0,0-.26-.15,1.68,1.68,0,0,0-.55-.06,2.39,2.39,0,0,0-.71.1,2,2,0,0,0-.63.31,1.5,1.5,0,0,0-.45.52,1.65,1.65,0,0,0-.16.71v5.48a4.46,4.46,0,0,1-.09.91,1,1,0,0,1-.49.69A2.56,2.56,0,0,1,222.08,38.78Z"/><path class="cls-2" d="M241.48,38.77a2.34,2.34,0,0,1-1.38-.33.89.89,0,0,1-.42-.8l.25-.43a2.59,2.59,0,0,1-.58.62,4.39,4.39,0,0,1-1.11.65,4.34,4.34,0,0,1-1.66.28,4.88,4.88,0,0,1-2.19-.5,5.74,5.74,0,0,1-1.84-1.39,7,7,0,0,1-1.27-2,6,6,0,0,1-.47-2.38,5.81,5.81,0,0,1,.47-2.33,6.9,6.9,0,0,1,1.29-2,6.37,6.37,0,0,1,1.84-1.36,4.93,4.93,0,0,1,2.17-.5,4.11,4.11,0,0,1,1.58.27,4.5,4.5,0,0,1,1.09.61,3.43,3.43,0,0,1,.66.67l-.23-.34a1.06,1.06,0,0,1,.44-.92,2.42,2.42,0,0,1,1.39-.31,2.24,2.24,0,0,1,1.29.28,1.1,1.1,0,0,1,.47.72,4.86,4.86,0,0,1,.09.95v8.63a4.7,4.7,0,0,1-.09.92,1,1,0,0,1-.47.71A2.39,2.39,0,0,1,241.48,38.77ZM237.1,35a2.13,2.13,0,0,0,1.2-.34,2.54,2.54,0,0,0,1.18-2.19,2.56,2.56,0,0,0-.32-1.28,2.42,2.42,0,0,0-.88-.89,2.33,2.33,0,0,0-1.22-.33,2.39,2.39,0,0,0-1.27.34,2.5,2.5,0,0,0-1.23,2.21,2.42,2.42,0,0,0,.33,1.24A2.6,2.6,0,0,0,237.1,35Z"/><path class="cls-2" d="M251.2,38.77a4.89,4.89,0,0,1-2.17-.49,5.87,5.87,0,0,1-1.83-1.36,6.83,6.83,0,0,1-1.26-2,6.35,6.35,0,0,1-.46-2.42,6.16,6.16,0,0,1,.46-2.33,6.54,6.54,0,0,1,1.28-2,6.24,6.24,0,0,1,1.84-1.36,4.88,4.88,0,0,1,2.15-.5,4.32,4.32,0,0,1,3.64,1.83,6.4,6.4,0,0,1,.93,2,9.14,9.14,0,0,1,.35,2.35,9.28,9.28,0,0,1-.3,2.4,6,6,0,0,1-.93,2,4.49,4.49,0,0,1-1.55,1.39A4.35,4.35,0,0,1,251.2,38.77Zm.5-3.7a2.3,2.3,0,0,0,1.22-.33,2.65,2.65,0,0,0,.87-.92,2.39,2.39,0,0,0,.34-1.27,2.51,2.51,0,0,0-.32-1.26,2.45,2.45,0,0,0-.88-.9,2.28,2.28,0,0,0-1.25-.34,2.41,2.41,0,0,0-1.24.32,2.35,2.35,0,0,0-.87.9,2.61,2.61,0,0,0-.32,1.28,2.51,2.51,0,0,0,.33,1.27,2.46,2.46,0,0,0,.9.91A2.32,2.32,0,0,0,251.7,35.07Zm4.35,3.73a2.24,2.24,0,0,1-1.26-.28,1.25,1.25,0,0,1-.54-.85V22.52a6.73,6.73,0,0,1,.06-.91,1.06,1.06,0,0,1,.44-.71,2.26,2.26,0,0,1,1.28-.28,2.36,2.36,0,0,1,1.32.27,1.13,1.13,0,0,1,.48.69,4.4,4.4,0,0,1,.1.92V36.9a4.46,4.46,0,0,1-.09.91,1.14,1.14,0,0,1-.48.72A2.35,2.35,0,0,1,256.05,38.8Z"/><path class="cls-2" d="M266.45,39a6.3,6.3,0,0,1-2.34-.47A7.16,7.16,0,0,1,262,37.23a6.53,6.53,0,0,1-1.51-2,6.47,6.47,0,0,1-.05-5.15A7,7,0,0,1,261.86,28a6.75,6.75,0,0,1,2.06-1.41,6.16,6.16,0,0,1,2.49-.51,6.23,6.23,0,0,1,3.26.86A6.64,6.64,0,0,1,272,29.26a6.71,6.71,0,0,1,.31,6,6.5,6.5,0,0,1-1.5,2,6.57,6.57,0,0,1-2.08,1.29A6.38,6.38,0,0,1,266.45,39Zm-.05-3.78a2.85,2.85,0,0,0,1.23-.3,2.56,2.56,0,0,0,1.48-2.42,2.74,2.74,0,0,0-.35-1.4,2.5,2.5,0,0,0-1-.94,2.8,2.8,0,0,0-1.41-.34,2.59,2.59,0,0,0-2.29,1.31,2.93,2.93,0,0,0,.05,2.9,2.49,2.49,0,0,0,1,.9A2.9,2.9,0,0,0,266.4,35.23Z"/><path class="cls-3" d="M113.18,38.71a2.47,2.47,0,0,1-1.33-.27,1.16,1.16,0,0,1-.48-.73,4.7,4.7,0,0,1-.09-.92V23.14a3.85,3.85,0,0,1,.1-.91,1.17,1.17,0,0,1,.5-.72,2.47,2.47,0,0,1,1.33-.27h5.12a6.39,6.39,0,0,1,2.1.38,6.18,6.18,0,0,1,2,1.16,6.45,6.45,0,0,1,1.47,7.33A6,6,0,0,1,122.42,32a6.15,6.15,0,0,1-2,1.15,6.36,6.36,0,0,1-2.12.37h-3.2v3.28a3.91,3.91,0,0,1-.11.91,1.11,1.11,0,0,1-.5.71A2.41,2.41,0,0,1,113.18,38.71Zm1.93-9h3.22a2.81,2.81,0,0,0,1.09-.23,2.14,2.14,0,0,0,.9-.77,2.27,2.27,0,0,0,.37-1.35,2.34,2.34,0,0,0-.32-1.22,2.2,2.2,0,0,0-.83-.83,2.44,2.44,0,0,0-1.23-.3h-3.2Z"/><path class="cls-3" d="M132.78,39a7.09,7.09,0,0,1-3-.58,5.72,5.72,0,0,1-2.06-1.51,6.25,6.25,0,0,1-1.2-2.09,6.83,6.83,0,0,1-.4-2.3,6.38,6.38,0,0,1,.85-3.32,6.18,6.18,0,0,1,2.36-2.29,7,7,0,0,1,3.47-.83,6.25,6.25,0,0,1,2.51.46,5.23,5.23,0,0,1,1.75,1.2,4.89,4.89,0,0,1,1,1.59,4.32,4.32,0,0,1,.34,1.62,2.78,2.78,0,0,1-.67,2.05,2.25,2.25,0,0,1-1.68.68h-5.95a1.71,1.71,0,0,0,.46,1.08,2.77,2.77,0,0,0,1,.7,3.41,3.41,0,0,0,1.32.25,8.1,8.1,0,0,0,1-.06,3.7,3.7,0,0,0,.79-.18l.58-.22c.18-.08.34-.14.49-.19a2.41,2.41,0,0,1,.43-.1,1.08,1.08,0,0,1,.67.21,2.06,2.06,0,0,1,.58.72,1.93,1.93,0,0,1,.23.52,2.23,2.23,0,0,1,.07.5,1.35,1.35,0,0,1-.62,1.09,4.85,4.85,0,0,1-1.72.74A11.56,11.56,0,0,1,132.78,39Zm-2.67-7.4h3.95a.92.92,0,0,0,.57-.14.59.59,0,0,0,.2-.53,1.25,1.25,0,0,0-.27-.78,1.8,1.8,0,0,0-.74-.54,3,3,0,0,0-1.08-.18,3.08,3.08,0,0,0-1.35.29,2.39,2.39,0,0,0-.94.8A1.89,1.89,0,0,0,130.11,31.55Z"/><path class="cls-3" d="M142.51,24.43a2.53,2.53,0,0,1-1.35-.27,1.12,1.12,0,0,1-.48-.73,4.86,4.86,0,0,1-.09-.95,4.75,4.75,0,0,1,.09-1,1,1,0,0,1,.5-.7,2.59,2.59,0,0,1,1.36-.26,2.41,2.41,0,0,1,1.32.27,1.14,1.14,0,0,1,.49.73,4.92,4.92,0,0,1,.09,1,4.73,4.73,0,0,1-.09.93,1.07,1.07,0,0,1-.49.71A2.59,2.59,0,0,1,142.51,24.43Zm0,14.3a2.57,2.57,0,0,1-1.32-.26,1,1,0,0,1-.48-.7,5.41,5.41,0,0,1-.07-.91V28.13a4.47,4.47,0,0,1,.08-.91,1.06,1.06,0,0,1,.49-.7,2.49,2.49,0,0,1,1.33-.26,2.28,2.28,0,0,1,1.28.27,1.15,1.15,0,0,1,.48.71,4.76,4.76,0,0,1,.09.94v8.7a4.46,4.46,0,0,1-.09.91,1,1,0,0,1-.47.69A2.53,2.53,0,0,1,142.5,38.73Z"/><path class="cls-3" d="M148.93,38.71a2.45,2.45,0,0,1-1.31-.26,1.1,1.1,0,0,1-.48-.7,4.56,4.56,0,0,1-.09-.92V28a4.1,4.1,0,0,1,.09-.88,1,1,0,0,1,.49-.66,3.52,3.52,0,0,1,2.5,0,1,1,0,0,1,.48.51,1.53,1.53,0,0,1,.12.56,1.07,1.07,0,0,0,0,.37l-.14.47a1.48,1.48,0,0,1,.38-.76,3.74,3.74,0,0,1,.85-.7,4.73,4.73,0,0,1,1.1-.49,4.36,4.36,0,0,1,1.17-.17,5,5,0,0,1,2.13.44,4.24,4.24,0,0,1,1.59,1.26,6,6,0,0,1,1,1.94,8.52,8.52,0,0,1,.33,2.44v4.55a4.53,4.53,0,0,1-.09.91,1.08,1.08,0,0,1-.47.69,2.7,2.7,0,0,1-1.34.25,2.47,2.47,0,0,1-1.33-.27,1,1,0,0,1-.48-.7,4.46,4.46,0,0,1-.09-.91V32.31a2.74,2.74,0,0,0-.26-1.27,1.76,1.76,0,0,0-.75-.8,2.46,2.46,0,0,0-1.21-.28,2.59,2.59,0,0,0-1.25.29,2,2,0,0,0-.81.81,2.48,2.48,0,0,0-.29,1.25v4.55a5.31,5.31,0,0,1-.08.91,1,1,0,0,1-.48.69A2.49,2.49,0,0,1,148.93,38.71Z"/><path class="cls-3" d="M167.83,39a7.25,7.25,0,0,1-3-.57,5.9,5.9,0,0,1-2.07-1.52,6.3,6.3,0,0,1-1.19-2.09,6.83,6.83,0,0,1-.4-2.3,6.38,6.38,0,0,1,.85-3.32,6.11,6.11,0,0,1,2.36-2.29,7,7,0,0,1,3.47-.83,6.25,6.25,0,0,1,2.51.46,5.23,5.23,0,0,1,1.75,1.2,4.89,4.89,0,0,1,1,1.59,4.32,4.32,0,0,1,.34,1.62,2.77,2.77,0,0,1-.67,2,2.25,2.25,0,0,1-1.68.68h-6a1.71,1.71,0,0,0,.46,1.07,2.77,2.77,0,0,0,1,.7,3.41,3.41,0,0,0,1.32.25,8.22,8.22,0,0,0,1-.06,4.49,4.49,0,0,0,.79-.17c.21-.08.41-.15.58-.23l.49-.19a2.41,2.41,0,0,1,.43-.1,1,1,0,0,1,.67.22,2,2,0,0,1,.58.71,1.93,1.93,0,0,1,.23.52,2.2,2.2,0,0,1,.06.5,1.34,1.34,0,0,1-.61,1.09,4.68,4.68,0,0,1-1.72.74A11.62,11.62,0,0,1,167.83,39Zm-2.67-7.4h4a1,1,0,0,0,.57-.13.62.62,0,0,0,.2-.54,1.25,1.25,0,0,0-.27-.78,1.87,1.87,0,0,0-.74-.54,3.27,3.27,0,0,0-2.44.12,2.28,2.28,0,0,0-.93.8A1.84,1.84,0,0,0,165.16,31.57Z"/><path class="cls-3" d="M188.25,38.86a6.37,6.37,0,0,1-2.23-.42,6.72,6.72,0,0,1-2.1-1.21,5.68,5.68,0,0,1-1.54-2,6.35,6.35,0,0,1-.57-2.75,6.15,6.15,0,0,1,.57-2.72,6,6,0,0,1,1.53-2A6.75,6.75,0,0,1,186,26.57a6.57,6.57,0,0,1,2.21-.41,6,6,0,0,1,1.66.21,5.41,5.41,0,0,1,1.25.52,3.91,3.91,0,0,1,.74.52c.28.22.53.44.75.65a1.09,1.09,0,0,1,.3.85,1.53,1.53,0,0,1-.18.56,3.82,3.82,0,0,1-.37.59c-.52.7-1,1-1.5,1a2.27,2.27,0,0,1-.69-.25l-.6-.35a4.37,4.37,0,0,0-.61-.31,2,2,0,0,0-.75-.14,2.47,2.47,0,0,0-1.3.34,2.53,2.53,0,0,0-.92.89,2.77,2.77,0,0,0,0,2.62,2.7,2.7,0,0,0,.9.91,2.39,2.39,0,0,0,1.27.34,2.37,2.37,0,0,0,.72-.1,2.59,2.59,0,0,0,.55-.24l.35-.21.58-.36a1,1,0,0,1,.55-.16,1.19,1.19,0,0,1,.73.26,3.85,3.85,0,0,1,.81.84,2,2,0,0,1,.49,1,1.22,1.22,0,0,1-.21.86,2.69,2.69,0,0,1-.85.77,5.76,5.76,0,0,1-.71.45,7.34,7.34,0,0,1-1.26.5A6,6,0,0,1,188.25,38.86Z"/><path class="cls-3" d="M201.4,39a7.12,7.12,0,0,1-3-.58,5.72,5.72,0,0,1-2.06-1.51,6.51,6.51,0,0,1-1.2-2.09,6.83,6.83,0,0,1-.4-2.3,6.48,6.48,0,0,1,.85-3.32A6.14,6.14,0,0,1,198,26.9a7,7,0,0,1,3.46-.83,6.22,6.22,0,0,1,2.51.46,5.23,5.23,0,0,1,1.75,1.2,5.1,5.1,0,0,1,1,1.59,4.5,4.5,0,0,1,.33,1.62,2.82,2.82,0,0,1-.66,2.05,2.28,2.28,0,0,1-1.69.68h-6a1.77,1.77,0,0,0,.46,1.08,2.85,2.85,0,0,0,1,.7,3.5,3.5,0,0,0,1.33.25,8.05,8.05,0,0,0,1-.06,4.49,4.49,0,0,0,.79-.17l.59-.23.48-.19a2.63,2.63,0,0,1,.43-.1,1.06,1.06,0,0,1,.68.22,2.11,2.11,0,0,1,.57.71,1.65,1.65,0,0,1,.24.53,2.07,2.07,0,0,1,.06.5,1.36,1.36,0,0,1-.61,1.08,4.73,4.73,0,0,1-1.73.74A11.56,11.56,0,0,1,201.4,39Zm-2.67-7.4h4a1.06,1.06,0,0,0,.58-.13.65.65,0,0,0,.2-.54,1.21,1.21,0,0,0-.28-.78,1.73,1.73,0,0,0-.73-.53,2.83,2.83,0,0,0-1.09-.19,3,3,0,0,0-1.35.3,2.38,2.38,0,0,0-.94.8A1.91,1.91,0,0,0,198.73,31.59Z"/><path class="cls-3" d="M211,38.77a2.5,2.5,0,0,1-1.31-.26,1,1,0,0,1-.47-.71,4.73,4.73,0,0,1-.09-.93V28.15a4.45,4.45,0,0,1,.09-.93,1.08,1.08,0,0,1,.49-.69,2.57,2.57,0,0,1,1.32-.26,2.52,2.52,0,0,1,1.27.24,1,1,0,0,1,.48.55,1.73,1.73,0,0,1,.1.54l-.3.15a2.27,2.27,0,0,1,.27-.36,3.1,3.1,0,0,1,.58-.55,3.47,3.47,0,0,1,.92-.49,3.6,3.6,0,0,1,1.23-.2,4.7,4.7,0,0,1,.62,0,3.14,3.14,0,0,1,.7.15,2.47,2.47,0,0,1,.66.3,1.66,1.66,0,0,1,.49.46,1.21,1.21,0,0,1,.18.68,3,3,0,0,1-.47,1.73,1.41,1.41,0,0,1-1.2.72,1.93,1.93,0,0,1-.6-.07.87.87,0,0,1-.29-.15,1.1,1.1,0,0,0-.26-.15,1.72,1.72,0,0,0-.55-.06,2.34,2.34,0,0,0-.71.1,2.06,2.06,0,0,0-.63.31,1.54,1.54,0,0,0-.45.53,1.46,1.46,0,0,0-.16.71v5.47a5.52,5.52,0,0,1-.08.92,1,1,0,0,1-.49.68A2.6,2.6,0,0,1,211,38.77Z"/><path class="cls-3" d="M222.08,38.78a2.52,2.52,0,0,1-1.32-.26,1.14,1.14,0,0,1-.47-.72,4.7,4.7,0,0,1-.09-.92V28.15a4.42,4.42,0,0,1,.09-.92,1,1,0,0,1,.48-.69,2.59,2.59,0,0,1,1.33-.26,2.5,2.5,0,0,1,1.26.24,1.06,1.06,0,0,1,.49.55,2,2,0,0,1,.1.54l-.3.15a2.39,2.39,0,0,1,.26-.37,3.58,3.58,0,0,1,.59-.55,3.53,3.53,0,0,1,2.15-.68l.61,0a3.7,3.7,0,0,1,.7.16,2.47,2.47,0,0,1,.66.3,1.55,1.55,0,0,1,.49.46,1.13,1.13,0,0,1,.19.67,3,3,0,0,1-.48,1.74,1.38,1.38,0,0,1-1.2.71,2.11,2.11,0,0,1-.6-.06,1,1,0,0,1-.29-.15.93.93,0,0,0-.26-.15,1.68,1.68,0,0,0-.55-.06,2.39,2.39,0,0,0-.71.1,2,2,0,0,0-.63.31,1.5,1.5,0,0,0-.45.52,1.65,1.65,0,0,0-.16.71v5.48a4.46,4.46,0,0,1-.09.91,1,1,0,0,1-.49.69A2.56,2.56,0,0,1,222.08,38.78Z"/><path class="cls-3" d="M241.48,38.77a2.34,2.34,0,0,1-1.38-.33.89.89,0,0,1-.42-.8l.25-.43a2.59,2.59,0,0,1-.58.62,4.39,4.39,0,0,1-1.11.65,4.34,4.34,0,0,1-1.66.28,4.88,4.88,0,0,1-2.19-.5,5.74,5.74,0,0,1-1.84-1.39,7,7,0,0,1-1.27-2,6,6,0,0,1-.47-2.38,5.81,5.81,0,0,1,.47-2.33,6.9,6.9,0,0,1,1.29-2,6.37,6.37,0,0,1,1.84-1.36,4.93,4.93,0,0,1,2.17-.5,4.11,4.11,0,0,1,1.58.27,4.5,4.5,0,0,1,1.09.61,3.43,3.43,0,0,1,.66.67l-.23-.34a1.06,1.06,0,0,1,.44-.92,2.42,2.42,0,0,1,1.39-.31,2.24,2.24,0,0,1,1.29.28,1.1,1.1,0,0,1,.47.72,4.86,4.86,0,0,1,.09.95v8.63a4.7,4.7,0,0,1-.09.92,1,1,0,0,1-.47.71A2.39,2.39,0,0,1,241.48,38.77ZM237.1,35a2.13,2.13,0,0,0,1.2-.34,2.54,2.54,0,0,0,1.18-2.19,2.56,2.56,0,0,0-.32-1.28,2.42,2.42,0,0,0-.88-.89,2.33,2.33,0,0,0-1.22-.33,2.39,2.39,0,0,0-1.27.34,2.5,2.5,0,0,0-1.23,2.21,2.42,2.42,0,0,0,.33,1.24A2.6,2.6,0,0,0,237.1,35Z"/><path class="cls-3" d="M251.2,38.77a4.89,4.89,0,0,1-2.17-.49,5.87,5.87,0,0,1-1.83-1.36,6.83,6.83,0,0,1-1.26-2,6.35,6.35,0,0,1-.46-2.42,6.16,6.16,0,0,1,.46-2.33,6.54,6.54,0,0,1,1.28-2,6.24,6.24,0,0,1,1.84-1.36,4.88,4.88,0,0,1,2.15-.5,4.32,4.32,0,0,1,3.64,1.83,6.4,6.4,0,0,1,.93,2,9.14,9.14,0,0,1,.35,2.35,9.28,9.28,0,0,1-.3,2.4,6,6,0,0,1-.93,2,4.49,4.49,0,0,1-1.55,1.39A4.35,4.35,0,0,1,251.2,38.77Zm.5-3.7a2.3,2.3,0,0,0,1.22-.33,2.65,2.65,0,0,0,.87-.92,2.39,2.39,0,0,0,.34-1.27,2.51,2.51,0,0,0-.32-1.26,2.45,2.45,0,0,0-.88-.9,2.28,2.28,0,0,0-1.25-.34,2.41,2.41,0,0,0-1.24.32,2.35,2.35,0,0,0-.87.9,2.61,2.61,0,0,0-.32,1.28,2.51,2.51,0,0,0,.33,1.27,2.46,2.46,0,0,0,.9.91A2.32,2.32,0,0,0,251.7,35.07Zm4.35,3.73a2.24,2.24,0,0,1-1.26-.28,1.25,1.25,0,0,1-.54-.85V22.52a6.73,6.73,0,0,1,.06-.91,1.06,1.06,0,0,1,.44-.71,2.26,2.26,0,0,1,1.28-.28,2.36,2.36,0,0,1,1.32.27,1.13,1.13,0,0,1,.48.69,4.4,4.4,0,0,1,.1.92V36.9a4.46,4.46,0,0,1-.09.91,1.14,1.14,0,0,1-.48.72A2.35,2.35,0,0,1,256.05,38.8Z"/><path class="cls-3" d="M266.45,39a6.3,6.3,0,0,1-2.34-.47A7.16,7.16,0,0,1,262,37.23a6.53,6.53,0,0,1-1.51-2,6.47,6.47,0,0,1-.05-5.15A7,7,0,0,1,261.86,28a6.75,6.75,0,0,1,2.06-1.41,6.16,6.16,0,0,1,2.49-.51,6.23,6.23,0,0,1,3.26.86A6.64,6.64,0,0,1,272,29.26a6.71,6.71,0,0,1,.31,6,6.5,6.5,0,0,1-1.5,2,6.57,6.57,0,0,1-2.08,1.29A6.38,6.38,0,0,1,266.45,39Zm-.05-3.78a2.85,2.85,0,0,0,1.23-.3,2.56,2.56,0,0,0,1.48-2.42,2.74,2.74,0,0,0-.35-1.4,2.5,2.5,0,0,0-1-.94,2.8,2.8,0,0,0-1.41-.34,2.59,2.59,0,0,0-2.29,1.31,2.93,2.93,0,0,0,.05,2.9,2.49,2.49,0,0,0,1,.9A2.9,2.9,0,0,0,266.4,35.23Z"/><path class="cls-2" d="M113.18,38.71a2.47,2.47,0,0,1-1.33-.27,1.16,1.16,0,0,1-.48-.73,4.7,4.7,0,0,1-.09-.92V23.14a3.85,3.85,0,0,1,.1-.91,1.17,1.17,0,0,1,.5-.72,2.47,2.47,0,0,1,1.33-.27h5.12a6.39,6.39,0,0,1,2.1.38,6.18,6.18,0,0,1,2,1.16,6.45,6.45,0,0,1,1.47,7.33A6,6,0,0,1,122.42,32a6.15,6.15,0,0,1-2,1.15,6.36,6.36,0,0,1-2.12.37h-3.2v3.28a3.91,3.91,0,0,1-.11.91,1.11,1.11,0,0,1-.5.71A2.41,2.41,0,0,1,113.18,38.71Zm1.93-9h3.22a2.81,2.81,0,0,0,1.09-.23,2.14,2.14,0,0,0,.9-.77,2.27,2.27,0,0,0,.37-1.35,2.34,2.34,0,0,0-.32-1.22,2.2,2.2,0,0,0-.83-.83,2.44,2.44,0,0,0-1.23-.3h-3.2Z"/><path class="cls-2" d="M132.78,39a7.09,7.09,0,0,1-3-.58,5.72,5.72,0,0,1-2.06-1.51,6.25,6.25,0,0,1-1.2-2.09,6.83,6.83,0,0,1-.4-2.3,6.38,6.38,0,0,1,.85-3.32,6.18,6.18,0,0,1,2.36-2.29,7,7,0,0,1,3.47-.83,6.25,6.25,0,0,1,2.51.46,5.23,5.23,0,0,1,1.75,1.2,4.89,4.89,0,0,1,1,1.59,4.32,4.32,0,0,1,.34,1.62,2.78,2.78,0,0,1-.67,2.05,2.25,2.25,0,0,1-1.68.68h-5.95a1.71,1.71,0,0,0,.46,1.08,2.77,2.77,0,0,0,1,.7,3.41,3.41,0,0,0,1.32.25,8.1,8.1,0,0,0,1-.06,3.7,3.7,0,0,0,.79-.18l.58-.22c.18-.08.34-.14.49-.19a2.41,2.41,0,0,1,.43-.1,1.08,1.08,0,0,1,.67.21,2.06,2.06,0,0,1,.58.72,1.93,1.93,0,0,1,.23.52,2.23,2.23,0,0,1,.07.5,1.35,1.35,0,0,1-.62,1.09,4.85,4.85,0,0,1-1.72.74A11.56,11.56,0,0,1,132.78,39Zm-2.67-7.4h3.95a.92.92,0,0,0,.57-.14.59.59,0,0,0,.2-.53,1.25,1.25,0,0,0-.27-.78,1.8,1.8,0,0,0-.74-.54,3,3,0,0,0-1.08-.18,3.08,3.08,0,0,0-1.35.29,2.39,2.39,0,0,0-.94.8A1.89,1.89,0,0,0,130.11,31.55Z"/><path class="cls-2" d="M142.51,24.43a2.53,2.53,0,0,1-1.35-.27,1.12,1.12,0,0,1-.48-.73,4.86,4.86,0,0,1-.09-.95,4.75,4.75,0,0,1,.09-1,1,1,0,0,1,.5-.7,2.59,2.59,0,0,1,1.36-.26,2.41,2.41,0,0,1,1.32.27,1.14,1.14,0,0,1,.49.73,4.92,4.92,0,0,1,.09,1,4.73,4.73,0,0,1-.09.93,1.07,1.07,0,0,1-.49.71A2.59,2.59,0,0,1,142.51,24.43Zm0,14.3a2.57,2.57,0,0,1-1.32-.26,1,1,0,0,1-.48-.7,5.41,5.41,0,0,1-.07-.91V28.13a4.47,4.47,0,0,1,.08-.91,1.06,1.06,0,0,1,.49-.7,2.49,2.49,0,0,1,1.33-.26,2.28,2.28,0,0,1,1.28.27,1.15,1.15,0,0,1,.48.71,4.76,4.76,0,0,1,.09.94v8.7a4.46,4.46,0,0,1-.09.91,1,1,0,0,1-.47.69A2.53,2.53,0,0,1,142.5,38.73Z"/><path class="cls-2" d="M148.93,38.71a2.45,2.45,0,0,1-1.31-.26,1.1,1.1,0,0,1-.48-.7,4.56,4.56,0,0,1-.09-.92V28a4.1,4.1,0,0,1,.09-.88,1,1,0,0,1,.49-.66,3.52,3.52,0,0,1,2.5,0,1,1,0,0,1,.48.51,1.53,1.53,0,0,1,.12.56,1.07,1.07,0,0,0,0,.37l-.14.47a1.48,1.48,0,0,1,.38-.76,3.74,3.74,0,0,1,.85-.7,4.73,4.73,0,0,1,1.1-.49,4.36,4.36,0,0,1,1.17-.17,5,5,0,0,1,2.13.44,4.24,4.24,0,0,1,1.59,1.26,6,6,0,0,1,1,1.94,8.52,8.52,0,0,1,.33,2.44v4.55a4.53,4.53,0,0,1-.09.91,1.08,1.08,0,0,1-.47.69,2.7,2.7,0,0,1-1.34.25,2.47,2.47,0,0,1-1.33-.27,1,1,0,0,1-.48-.7,4.46,4.46,0,0,1-.09-.91V32.31a2.74,2.74,0,0,0-.26-1.27,1.76,1.76,0,0,0-.75-.8,2.46,2.46,0,0,0-1.21-.28,2.59,2.59,0,0,0-1.25.29,2,2,0,0,0-.81.81,2.48,2.48,0,0,0-.29,1.25v4.55a5.31,5.31,0,0,1-.08.91,1,1,0,0,1-.48.69A2.49,2.49,0,0,1,148.93,38.71Z"/><path class="cls-2" d="M167.83,39a7.25,7.25,0,0,1-3-.57,5.9,5.9,0,0,1-2.07-1.52,6.3,6.3,0,0,1-1.19-2.09,6.83,6.83,0,0,1-.4-2.3,6.38,6.38,0,0,1,.85-3.32,6.11,6.11,0,0,1,2.36-2.29,7,7,0,0,1,3.47-.83,6.25,6.25,0,0,1,2.51.46,5.23,5.23,0,0,1,1.75,1.2,4.89,4.89,0,0,1,1,1.59,4.32,4.32,0,0,1,.34,1.62,2.77,2.77,0,0,1-.67,2,2.25,2.25,0,0,1-1.68.68h-6a1.71,1.71,0,0,0,.46,1.07,2.77,2.77,0,0,0,1,.7,3.41,3.41,0,0,0,1.32.25,8.22,8.22,0,0,0,1-.06,4.49,4.49,0,0,0,.79-.17c.21-.08.41-.15.58-.23l.49-.19a2.41,2.41,0,0,1,.43-.1,1,1,0,0,1,.67.22,2,2,0,0,1,.58.71,1.93,1.93,0,0,1,.23.52,2.2,2.2,0,0,1,.06.5,1.34,1.34,0,0,1-.61,1.09,4.68,4.68,0,0,1-1.72.74A11.62,11.62,0,0,1,167.83,39Zm-2.67-7.4h4a1,1,0,0,0,.57-.13.62.62,0,0,0,.2-.54,1.25,1.25,0,0,0-.27-.78,1.87,1.87,0,0,0-.74-.54,3.27,3.27,0,0,0-2.44.12,2.28,2.28,0,0,0-.93.8A1.84,1.84,0,0,0,165.16,31.57Z"/><path class="cls-2" d="M188.25,38.86a6.37,6.37,0,0,1-2.23-.42,6.72,6.72,0,0,1-2.1-1.21,5.68,5.68,0,0,1-1.54-2,6.35,6.35,0,0,1-.57-2.75,6.15,6.15,0,0,1,.57-2.72,6,6,0,0,1,1.53-2A6.75,6.75,0,0,1,186,26.57a6.57,6.57,0,0,1,2.21-.41,6,6,0,0,1,1.66.21,5.41,5.41,0,0,1,1.25.52,3.91,3.91,0,0,1,.74.52c.28.22.53.44.75.65a1.09,1.09,0,0,1,.3.85,1.53,1.53,0,0,1-.18.56,3.82,3.82,0,0,1-.37.59c-.52.7-1,1-1.5,1a2.27,2.27,0,0,1-.69-.25l-.6-.35a4.37,4.37,0,0,0-.61-.31,2,2,0,0,0-.75-.14,2.47,2.47,0,0,0-1.3.34,2.53,2.53,0,0,0-.92.89,2.77,2.77,0,0,0,0,2.62,2.7,2.7,0,0,0,.9.91,2.39,2.39,0,0,0,1.27.34,2.37,2.37,0,0,0,.72-.1,2.59,2.59,0,0,0,.55-.24l.35-.21.58-.36a1,1,0,0,1,.55-.16,1.19,1.19,0,0,1,.73.26,3.85,3.85,0,0,1,.81.84,2,2,0,0,1,.49,1,1.22,1.22,0,0,1-.21.86,2.69,2.69,0,0,1-.85.77,5.76,5.76,0,0,1-.71.45,7.34,7.34,0,0,1-1.26.5A6,6,0,0,1,188.25,38.86Z"/><path class="cls-2" d="M201.4,39a7.12,7.12,0,0,1-3-.58,5.72,5.72,0,0,1-2.06-1.51,6.51,6.51,0,0,1-1.2-2.09,6.83,6.83,0,0,1-.4-2.3,6.48,6.48,0,0,1,.85-3.32A6.14,6.14,0,0,1,198,26.9a7,7,0,0,1,3.46-.83,6.22,6.22,0,0,1,2.51.46,5.23,5.23,0,0,1,1.75,1.2,5.1,5.1,0,0,1,1,1.59,4.5,4.5,0,0,1,.33,1.62,2.82,2.82,0,0,1-.66,2.05,2.28,2.28,0,0,1-1.69.68h-6a1.77,1.77,0,0,0,.46,1.08,2.85,2.85,0,0,0,1,.7,3.5,3.5,0,0,0,1.33.25,8.05,8.05,0,0,0,1-.06,4.49,4.49,0,0,0,.79-.17l.59-.23.48-.19a2.63,2.63,0,0,1,.43-.1,1.06,1.06,0,0,1,.68.22,2.11,2.11,0,0,1,.57.71,1.65,1.65,0,0,1,.24.53,2.07,2.07,0,0,1,.06.5,1.36,1.36,0,0,1-.61,1.08,4.73,4.73,0,0,1-1.73.74A11.56,11.56,0,0,1,201.4,39Zm-2.67-7.4h4a1.06,1.06,0,0,0,.58-.13.65.65,0,0,0,.2-.54,1.21,1.21,0,0,0-.28-.78,1.73,1.73,0,0,0-.73-.53,2.83,2.83,0,0,0-1.09-.19,3,3,0,0,0-1.35.3,2.38,2.38,0,0,0-.94.8A1.91,1.91,0,0,0,198.73,31.59Z"/><path class="cls-2" d="M211,38.77a2.5,2.5,0,0,1-1.31-.26,1,1,0,0,1-.47-.71,4.73,4.73,0,0,1-.09-.93V28.15a4.45,4.45,0,0,1,.09-.93,1.08,1.08,0,0,1,.49-.69,2.57,2.57,0,0,1,1.32-.26,2.52,2.52,0,0,1,1.27.24,1,1,0,0,1,.48.55,1.73,1.73,0,0,1,.1.54l-.3.15a2.27,2.27,0,0,1,.27-.36,3.1,3.1,0,0,1,.58-.55,3.47,3.47,0,0,1,.92-.49,3.6,3.6,0,0,1,1.23-.2,4.7,4.7,0,0,1,.62,0,3.14,3.14,0,0,1,.7.15,2.47,2.47,0,0,1,.66.3,1.66,1.66,0,0,1,.49.46,1.21,1.21,0,0,1,.18.68,3,3,0,0,1-.47,1.73,1.41,1.41,0,0,1-1.2.72,1.93,1.93,0,0,1-.6-.07.87.87,0,0,1-.29-.15,1.1,1.1,0,0,0-.26-.15,1.72,1.72,0,0,0-.55-.06,2.34,2.34,0,0,0-.71.1,2.06,2.06,0,0,0-.63.31,1.54,1.54,0,0,0-.45.53,1.46,1.46,0,0,0-.16.71v5.47a5.52,5.52,0,0,1-.08.92,1,1,0,0,1-.49.68A2.6,2.6,0,0,1,211,38.77Z"/><path class="cls-2" d="M222.08,38.78a2.52,2.52,0,0,1-1.32-.26,1.14,1.14,0,0,1-.47-.72,4.7,4.7,0,0,1-.09-.92V28.15a4.42,4.42,0,0,1,.09-.92,1,1,0,0,1,.48-.69,2.59,2.59,0,0,1,1.33-.26,2.5,2.5,0,0,1,1.26.24,1.06,1.06,0,0,1,.49.55,2,2,0,0,1,.1.54l-.3.15a2.39,2.39,0,0,1,.26-.37,3.58,3.58,0,0,1,.59-.55,3.53,3.53,0,0,1,2.15-.68l.61,0a3.7,3.7,0,0,1,.7.16,2.47,2.47,0,0,1,.66.3,1.55,1.55,0,0,1,.49.46,1.13,1.13,0,0,1,.19.67,3,3,0,0,1-.48,1.74,1.38,1.38,0,0,1-1.2.71,2.11,2.11,0,0,1-.6-.06,1,1,0,0,1-.29-.15.93.93,0,0,0-.26-.15,1.68,1.68,0,0,0-.55-.06,2.39,2.39,0,0,0-.71.1,2,2,0,0,0-.63.31,1.5,1.5,0,0,0-.45.52,1.65,1.65,0,0,0-.16.71v5.48a4.46,4.46,0,0,1-.09.91,1,1,0,0,1-.49.69A2.56,2.56,0,0,1,222.08,38.78Z"/><path class="cls-2" d="M241.48,38.77a2.34,2.34,0,0,1-1.38-.33.89.89,0,0,1-.42-.8l.25-.43a2.59,2.59,0,0,1-.58.62,4.39,4.39,0,0,1-1.11.65,4.34,4.34,0,0,1-1.66.28,4.88,4.88,0,0,1-2.19-.5,5.74,5.74,0,0,1-1.84-1.39,7,7,0,0,1-1.27-2,6,6,0,0,1-.47-2.38,5.81,5.81,0,0,1,.47-2.33,6.9,6.9,0,0,1,1.29-2,6.37,6.37,0,0,1,1.84-1.36,4.93,4.93,0,0,1,2.17-.5,4.11,4.11,0,0,1,1.58.27,4.5,4.5,0,0,1,1.09.61,3.43,3.43,0,0,1,.66.67l-.23-.34a1.06,1.06,0,0,1,.44-.92,2.42,2.42,0,0,1,1.39-.31,2.24,2.24,0,0,1,1.29.28,1.1,1.1,0,0,1,.47.72,4.86,4.86,0,0,1,.09.95v8.63a4.7,4.7,0,0,1-.09.92,1,1,0,0,1-.47.71A2.39,2.39,0,0,1,241.48,38.77ZM237.1,35a2.13,2.13,0,0,0,1.2-.34,2.54,2.54,0,0,0,1.18-2.19,2.56,2.56,0,0,0-.32-1.28,2.42,2.42,0,0,0-.88-.89,2.33,2.33,0,0,0-1.22-.33,2.39,2.39,0,0,0-1.27.34,2.5,2.5,0,0,0-1.23,2.21,2.42,2.42,0,0,0,.33,1.24A2.6,2.6,0,0,0,237.1,35Z"/><path class="cls-2" d="M251.2,38.77a4.89,4.89,0,0,1-2.17-.49,5.87,5.87,0,0,1-1.83-1.36,6.83,6.83,0,0,1-1.26-2,6.35,6.35,0,0,1-.46-2.42,6.16,6.16,0,0,1,.46-2.33,6.54,6.54,0,0,1,1.28-2,6.24,6.24,0,0,1,1.84-1.36,4.88,4.88,0,0,1,2.15-.5,4.32,4.32,0,0,1,3.64,1.83,6.4,6.4,0,0,1,.93,2,9.14,9.14,0,0,1,.35,2.35,9.28,9.28,0,0,1-.3,2.4,6,6,0,0,1-.93,2,4.49,4.49,0,0,1-1.55,1.39A4.35,4.35,0,0,1,251.2,38.77Zm.5-3.7a2.3,2.3,0,0,0,1.22-.33,2.65,2.65,0,0,0,.87-.92,2.39,2.39,0,0,0,.34-1.27,2.51,2.51,0,0,0-.32-1.26,2.45,2.45,0,0,0-.88-.9,2.28,2.28,0,0,0-1.25-.34,2.41,2.41,0,0,0-1.24.32,2.35,2.35,0,0,0-.87.9,2.61,2.61,0,0,0-.32,1.28,2.51,2.51,0,0,0,.33,1.27,2.46,2.46,0,0,0,.9.91A2.32,2.32,0,0,0,251.7,35.07Zm4.35,3.73a2.24,2.24,0,0,1-1.26-.28,1.25,1.25,0,0,1-.54-.85V22.52a6.73,6.73,0,0,1,.06-.91,1.06,1.06,0,0,1,.44-.71,2.26,2.26,0,0,1,1.28-.28,2.36,2.36,0,0,1,1.32.27,1.13,1.13,0,0,1,.48.69,4.4,4.4,0,0,1,.1.92V36.9a4.46,4.46,0,0,1-.09.91,1.14,1.14,0,0,1-.48.72A2.35,2.35,0,0,1,256.05,38.8Z"/><path class="cls-2" d="M266.45,39a6.3,6.3,0,0,1-2.34-.47A7.16,7.16,0,0,1,262,37.23a6.53,6.53,0,0,1-1.51-2,6.47,6.47,0,0,1-.05-5.15A7,7,0,0,1,261.86,28a6.75,6.75,0,0,1,2.06-1.41,6.16,6.16,0,0,1,2.49-.51,6.23,6.23,0,0,1,3.26.86A6.64,6.64,0,0,1,272,29.26a6.71,6.71,0,0,1,.31,6,6.5,6.5,0,0,1-1.5,2,6.57,6.57,0,0,1-2.08,1.29A6.38,6.38,0,0,1,266.45,39Zm-.05-3.78a2.85,2.85,0,0,0,1.23-.3,2.56,2.56,0,0,0,1.48-2.42,2.74,2.74,0,0,0-.35-1.4,2.5,2.5,0,0,0-1-.94,2.8,2.8,0,0,0-1.41-.34,2.59,2.59,0,0,0-2.29,1.31,2.93,2.93,0,0,0,.05,2.9,2.49,2.49,0,0,0,1,.9A2.9,2.9,0,0,0,266.4,35.23Z"/><path class="cls-4" d="M55.46,39.43c0,2.27-.39,3.88-1.18,4.85a4.39,4.39,0,0,1-3.59,1.45,5.59,5.59,0,0,1-2.57-.51,3.23,3.23,0,0,1-1.48-1.84,11.11,11.11,0,0,1-.55-3.62L46,24.1a6.3,6.3,0,0,1-3.21-.74,2.58,2.58,0,0,1-1.26-2.45,2.76,2.76,0,0,1,1.16-2.29A5.16,5.16,0,0,1,46,17.71l2.3,0,2.1,0q3,0,4,1a5,5,0,0,1,1,3.6Z"/><path class="cls-4" d="M59.21,42.87a2.78,2.78,0,0,1,1.16-2.31,5.33,5.33,0,0,1,3.28-.88q4.44,0,4.44,3.19a3.08,3.08,0,0,1-.57,2,2.74,2.74,0,0,1-1.51,1,9.21,9.21,0,0,1-2.36.25,6.14,6.14,0,0,1-3.18-.75A2.64,2.64,0,0,1,59.21,42.87Z"/><path class="cls-4" d="M84,45.73a4.25,4.25,0,0,1-3.51-1.37c-.73-.91-1.09-2.5-1.09-4.76H71.88A5.29,5.29,0,0,1,68,38.29a4.58,4.58,0,0,1-1.28-3.36A7.17,7.17,0,0,1,67.77,31q2.9-4.66,6.53-10.08a6.65,6.65,0,0,1,5.83-3.2l3.54.05c2,0,3.33.34,4,1a5,5,0,0,1,1.05,3.6V33.46a3.74,3.74,0,0,1,2.41.89,3.3,3.3,0,0,1,.65,2.26,2.86,2.86,0,0,1-.7,2.21,4,4,0,0,1-2.36.73c0,2.22-.4,3.8-1.19,4.75A4.34,4.34,0,0,1,84,45.73Zm-4.64-12.1.13-8.94-5.46,8.94Z"/><path class="cls-5" d="M55.46,39.43c0,2.27-.39,3.88-1.18,4.85a4.39,4.39,0,0,1-3.59,1.45,5.59,5.59,0,0,1-2.57-.51,3.23,3.23,0,0,1-1.48-1.84,11.11,11.11,0,0,1-.55-3.62L46,24.1a6.3,6.3,0,0,1-3.21-.74,2.58,2.58,0,0,1-1.26-2.45,2.76,2.76,0,0,1,1.16-2.29A5.16,5.16,0,0,1,46,17.71l2.3,0,2.1,0q3,0,4,1a5,5,0,0,1,1,3.6Z"/><path class="cls-5" d="M59.21,42.87a2.78,2.78,0,0,1,1.16-2.31,5.33,5.33,0,0,1,3.28-.88q4.44,0,4.44,3.19a3.08,3.08,0,0,1-.57,2,2.74,2.74,0,0,1-1.51,1,9.21,9.21,0,0,1-2.36.25,6.14,6.14,0,0,1-3.18-.75A2.64,2.64,0,0,1,59.21,42.87Z"/><path class="cls-5" d="M84,45.73a4.25,4.25,0,0,1-3.51-1.37c-.73-.91-1.09-2.5-1.09-4.76H71.88A5.29,5.29,0,0,1,68,38.29a4.58,4.58,0,0,1-1.28-3.36A7.17,7.17,0,0,1,67.77,31q2.9-4.66,6.53-10.08a6.65,6.65,0,0,1,5.83-3.2l3.54.05c2,0,3.33.34,4,1a5,5,0,0,1,1.05,3.6V33.46a3.74,3.74,0,0,1,2.41.89,3.3,3.3,0,0,1,.65,2.26,2.86,2.86,0,0,1-.7,2.21,4,4,0,0,1-2.36.73c0,2.22-.4,3.8-1.19,4.75A4.34,4.34,0,0,1,84,45.73Zm-4.64-12.1.13-8.94-5.46,8.94Z"/></g></g></svg>