<svg xmlns="http://www.w3.org/2000/svg" viewBox="0 0 401.16 89.13"><defs><style>.cls-1{fill:#0468ad;}.cls-2{fill:#fff;}.cls-3,.cls-4{fill:none;stroke-width:5px;}.cls-3{stroke:#c8a927;stroke-linejoin:round;}.cls-4{stroke:#fff;}.cls-5{fill:#c8a927;}</style></defs><title>14t_1</title><g id="Layer_2" data-name="Layer 2"><g id="pestaña_identificativa" data-name="pestaña identificativa"><rect class="cls-1" width="401.16" height="89.13" rx="32.4"/><path class="cls-2" d="M126.88,34a8.58,8.58,0,0,1-2.33-.34A9.52,9.52,0,0,1,120,30.86a8.48,8.48,0,0,1-1.51-2.55,9.36,9.36,0,0,1-.56-3.32,8.59,8.59,0,0,1,.57-3.24A8.06,8.06,0,0,1,120,19.29a8.84,8.84,0,0,1,2.13-1.74,9.54,9.54,0,0,1,2.41-1,8.84,8.84,0,0,1,2.39-.34,7.36,7.36,0,0,1,2.22.3,8.38,8.38,0,0,1,1.54.63l.76.42a9.08,9.08,0,0,1,.85.65,1.25,1.25,0,0,1,.43.9,1.61,1.61,0,0,1-.12.6,2.29,2.29,0,0,1-.34.6,3.05,3.05,0,0,1-.77.84,1.23,1.23,0,0,1-.73.26,1.16,1.16,0,0,1-.57-.15,6.85,6.85,0,0,1-.65-.4c-.12-.08-.28-.19-.5-.31a3.53,3.53,0,0,0-.89-.34,5.78,5.78,0,0,0-3.15.15,5.23,5.23,0,0,0-1.64.92,4.58,4.58,0,0,0-1.2,1.59,5.3,5.3,0,0,0-.45,2.26,5,5,0,0,0,.46,2.25,4.69,4.69,0,0,0,1.21,1.58,5.29,5.29,0,0,0,1.64.94,5.16,5.16,0,0,0,1.74.31,4.66,4.66,0,0,0,1.27-.15,5,5,0,0,0,.93-.36,7.11,7.11,0,0,0,.67-.39c.19-.11.37-.22.57-.32a1.14,1.14,0,0,1,1.3.12,3.43,3.43,0,0,1,.73.88,2.66,2.66,0,0,1,.34.64,1.68,1.68,0,0,1,.11.61,1.07,1.07,0,0,1-.41.86,7.09,7.09,0,0,1-.86.61l-.75.44a7.66,7.66,0,0,1-3.8.91Z"/><path class="cls-2" d="M140.25,33.82a5.2,5.2,0,0,1-2.17-.45,5.33,5.33,0,0,1-1.75-1.26,5.69,5.69,0,0,1-1.16-1.93,6.83,6.83,0,0,1-.42-2.44V23.22a5.46,5.46,0,0,1,.08-.93,1.12,1.12,0,0,1,.49-.69,2.37,2.37,0,0,1,1.33-.28,2.29,2.29,0,0,1,1.31.28,1.12,1.12,0,0,1,.48.71,5.49,5.49,0,0,1,.08.94v4.5a2.92,2.92,0,0,0,.26,1.26,1.75,1.75,0,0,0,.78.81,2.43,2.43,0,0,0,1.21.28,2.55,2.55,0,0,0,1.24-.29,2.08,2.08,0,0,0,.8-.81,2.59,2.59,0,0,0,.28-1.25V23.2a4.42,4.42,0,0,1,.09-.92,1,1,0,0,1,.48-.69,2.49,2.49,0,0,1,1.33-.26,2.39,2.39,0,0,1,1.31.27,1.09,1.09,0,0,1,.47.72,4.46,4.46,0,0,1,.09.91V32a4.1,4.1,0,0,1-.09.88,1,1,0,0,1-.49.67,2.63,2.63,0,0,1-1.3.25,2.92,2.92,0,0,1-1.05-.15,1.31,1.31,0,0,1-.55-.38.94.94,0,0,1-.21-.48,2.42,2.42,0,0,1,0-.45l.33-.27a3.06,3.06,0,0,1-.33.39,7.18,7.18,0,0,1-.66.57,4.43,4.43,0,0,1-1,.54A3.4,3.4,0,0,1,140.25,33.82Z"/><path class="cls-2" d="M154.18,33.86a16.26,16.26,0,0,1-1.83-.1,4.13,4.13,0,0,1-1.35-.4,2.5,2.5,0,0,1-.9-.84,4,4,0,0,1-.52-1.38,10,10,0,0,1-.18-2.06V17.53a4,4,0,0,1,.1-.93,1.21,1.21,0,0,1,.49-.7,2.37,2.37,0,0,1,1.31-.27,2.24,2.24,0,0,1,1.29.28,1.15,1.15,0,0,1,.49.7,4.4,4.4,0,0,1,.1.92V28.91a4.16,4.16,0,0,0,0,.66.8.8,0,0,0,.15.41.49.49,0,0,0,.31.2,2.4,2.4,0,0,0,.52.05,2.7,2.7,0,0,1,.62.08.9.9,0,0,1,.53.45,2.53,2.53,0,0,1,.23,1.25,2.79,2.79,0,0,1-.23,1.3.89.89,0,0,1-.54.47A2.72,2.72,0,0,1,154.18,33.86Z"/><path class="cls-2" d="M163.6,34.09a7.25,7.25,0,0,1-3-.58A5.84,5.84,0,0,1,158.53,32a6.25,6.25,0,0,1-1.2-2.09,6.92,6.92,0,0,1-.4-2.3,6.45,6.45,0,0,1,.85-3.33A6.19,6.19,0,0,1,160.15,22a7,7,0,0,1,3.46-.84,6.24,6.24,0,0,1,2.51.47,5.23,5.23,0,0,1,1.75,1.2,4.89,4.89,0,0,1,1,1.59,4.25,4.25,0,0,1,.34,1.62,2.82,2.82,0,0,1-.66,2.05,2.28,2.28,0,0,1-1.69.67h-5.95a1.77,1.77,0,0,0,.46,1.08,2.85,2.85,0,0,0,1,.7,3.64,3.64,0,0,0,1.32.25,8.1,8.1,0,0,0,1-.06,4.43,4.43,0,0,0,.79-.18l.59-.22a4.32,4.32,0,0,1,.48-.19,2.41,2.41,0,0,1,.43-.1,1,1,0,0,1,.67.21,2.06,2.06,0,0,1,.58.72,1.8,1.8,0,0,1,.23.52,1.73,1.73,0,0,1,.07.5,1.35,1.35,0,0,1-.62,1.09,4.68,4.68,0,0,1-1.72.73A11,11,0,0,1,163.6,34.09Zm-2.67-7.4h3.95a1.06,1.06,0,0,0,.58-.14.62.62,0,0,0,.2-.54,1.24,1.24,0,0,0-.28-.77,1.72,1.72,0,0,0-.74-.54,2.78,2.78,0,0,0-1.08-.19,3,3,0,0,0-1.35.3,2.39,2.39,0,0,0-.94.8A1.84,1.84,0,0,0,160.93,26.69Z"/><path class="cls-2" d="M173.15,33.87a2.3,2.3,0,0,1-1.3-.28,1.1,1.1,0,0,1-.49-.71,4.53,4.53,0,0,1-.08-.91V17.59a4.6,4.6,0,0,1,.08-.93,1.07,1.07,0,0,1,.49-.71,2.59,2.59,0,0,1,1.33-.26,2.15,2.15,0,0,1,1.27.28,1.08,1.08,0,0,1,.45.71,3.91,3.91,0,0,1,.05.91V32.74a1.3,1.3,0,0,1-.52.85A2.27,2.27,0,0,1,173.15,33.87Zm4.85,0a4.39,4.39,0,0,1-2.15-.52,4.46,4.46,0,0,1-1.54-1.39,6.67,6.67,0,0,1-.92-2,8.49,8.49,0,0,1-.29-2.4,8.34,8.34,0,0,1,.33-2.35,6.31,6.31,0,0,1,.94-2A4.28,4.28,0,0,1,178,21.4a4.78,4.78,0,0,1,2.15.5,6.52,6.52,0,0,1,3.11,3.34,6,6,0,0,1,.46,2.33,6.55,6.55,0,0,1-.46,2.42A6.66,6.66,0,0,1,182,32a5.83,5.83,0,0,1-1.82,1.36A5.11,5.11,0,0,1,178,33.85Zm-.5-3.7a2.36,2.36,0,0,0,1.25-.34,2.59,2.59,0,0,0,.89-.91,2.45,2.45,0,0,0,.34-1.28,2.6,2.6,0,0,0-.32-1.27,2.33,2.33,0,0,0-.89-.9,2.42,2.42,0,0,0-1.24-.33,2.4,2.4,0,0,0-2.11,1.24,2.51,2.51,0,0,0-.32,1.26,2.59,2.59,0,0,0,1.2,2.19A2.32,2.32,0,0,0,177.5,30.15Z"/><path class="cls-2" d="M187.78,33.88a2.41,2.41,0,0,1-1.32-.27,1.06,1.06,0,0,1-.47-.71,4.7,4.7,0,0,1-.09-.92V23.25a5.25,5.25,0,0,1,.08-.92,1.07,1.07,0,0,1,.49-.69,2.49,2.49,0,0,1,1.33-.26,2.63,2.63,0,0,1,1.26.23,1.07,1.07,0,0,1,.49.56,2,2,0,0,1,.1.53l-.3.15a3.22,3.22,0,0,1,.26-.36,3.58,3.58,0,0,1,.59-.55,3.71,3.71,0,0,1,.91-.49,3.62,3.62,0,0,1,1.24-.2c.18,0,.39,0,.61,0a4.62,4.62,0,0,1,.7.15,3.32,3.32,0,0,1,.66.3,1.69,1.69,0,0,1,.49.47,1.18,1.18,0,0,1,.19.67,3,3,0,0,1-.48,1.74,1.42,1.42,0,0,1-1.2.71,2.11,2.11,0,0,1-.6-.06,1,1,0,0,1-.29-.15.93.93,0,0,0-.26-.15,1.61,1.61,0,0,0-.55-.07,2.71,2.71,0,0,0-.71.1,1.88,1.88,0,0,0-.63.32,1.45,1.45,0,0,0-.61,1.23V32a4.53,4.53,0,0,1-.09.91,1,1,0,0,1-.49.69A2.69,2.69,0,0,1,187.78,33.88Z"/><path class="cls-2" d="M199,19.58a2.53,2.53,0,0,1-1.35-.27,1.12,1.12,0,0,1-.48-.73,5.11,5.11,0,0,1,0-1.91,1.06,1.06,0,0,1,.5-.7,2.69,2.69,0,0,1,1.36-.26,2.37,2.37,0,0,1,1.33.28,1.11,1.11,0,0,1,.48.72,4.92,4.92,0,0,1,.09,1,4.73,4.73,0,0,1-.09.93,1.05,1.05,0,0,1-.49.71A2.5,2.5,0,0,1,199,19.58Zm0,14.3a2.47,2.47,0,0,1-1.32-.26,1,1,0,0,1-.47-.7,4.53,4.53,0,0,1-.08-.91V23.28a5.4,5.4,0,0,1,.08-.91,1.11,1.11,0,0,1,.49-.7,2.59,2.59,0,0,1,1.33-.26,2.28,2.28,0,0,1,1.28.27,1.17,1.17,0,0,1,.48.72,4.59,4.59,0,0,1,.09.93V32a4.56,4.56,0,0,1-.09.92,1,1,0,0,1-.47.68A2.53,2.53,0,0,1,199,33.88Z"/><path class="cls-2" d="M204.31,21.59h2.75l3.45-.1a4.43,4.43,0,0,1,.9.09,1.13,1.13,0,0,1,.7.49,2.43,2.43,0,0,1,.27,1.32,2.38,2.38,0,0,1-.26,1.25,1.15,1.15,0,0,1-.69.51,3.38,3.38,0,0,1-.93.12l-3.27-.08-3,0a1.27,1.27,0,0,1-1-.46,2.56,2.56,0,0,1-.28-1.39,2.1,2.1,0,0,1,.35-1.34A1.26,1.26,0,0,1,204.31,21.59ZM210,33.89a7.54,7.54,0,0,1-2.2-.28,3.43,3.43,0,0,1-1.51-.85,3.51,3.51,0,0,1-.88-1.46,7,7,0,0,1-.28-2.11V19.06a4.15,4.15,0,0,1,.09-.92,1,1,0,0,1,.49-.66,3.21,3.21,0,0,1,2.6,0,1.1,1.1,0,0,1,.49.71,5.4,5.4,0,0,1,.08.91V29a3,3,0,0,0,.06.66.71.71,0,0,0,.19.39.77.77,0,0,0,.35.18,2.79,2.79,0,0,0,.55.05,4.07,4.07,0,0,1,1,.1,1,1,0,0,1,.66.45,2.13,2.13,0,0,1,.24,1.17,2.4,2.4,0,0,1-.27,1.3,1.09,1.09,0,0,1-.72.48A5.33,5.33,0,0,1,210,33.89Z"/><path class="cls-2" d="M224.5,33.87a2.42,2.42,0,0,1-1.38-.32.92.92,0,0,1-.42-.8l.25-.43a2.79,2.79,0,0,1-.58.62,4.26,4.26,0,0,1-2.77.93,5,5,0,0,1-2.19-.5A5.85,5.85,0,0,1,215.58,32a7,7,0,0,1-1.28-2,6.16,6.16,0,0,1-.47-2.38,6,6,0,0,1,.47-2.33,6.77,6.77,0,0,1,1.29-2,6.51,6.51,0,0,1,1.84-1.36,5,5,0,0,1,2.18-.5,4.3,4.3,0,0,1,1.57.26,4.16,4.16,0,0,1,1.09.62,3.43,3.43,0,0,1,.66.67l-.22-.35a1,1,0,0,1,.43-.91,2.44,2.44,0,0,1,1.39-.31,2.34,2.34,0,0,1,1.29.27,1.11,1.11,0,0,1,.47.73,4.86,4.86,0,0,1,.09,1V32a4.7,4.7,0,0,1-.09.92,1.07,1.07,0,0,1-.48.71A2.38,2.38,0,0,1,224.5,33.87Zm-4.37-3.72a2.21,2.21,0,0,0,1.2-.34,2.56,2.56,0,0,0,1.17-2.19,2.52,2.52,0,0,0-.32-1.29,2.4,2.4,0,0,0-.88-.88,2.3,2.3,0,0,0-1.22-.33,2.33,2.33,0,0,0-1.26.34,2.53,2.53,0,0,0-1.24,2.21,2.34,2.34,0,0,0,.34,1.24,2.56,2.56,0,0,0,.92.9A2.59,2.59,0,0,0,220.13,30.15Z"/><path class="cls-2" d="M233.37,34.1a8.73,8.73,0,0,1-3-.59,5.07,5.07,0,0,1-1.25-.67,1.28,1.28,0,0,1-.56-.89,1.41,1.41,0,0,1,0-.54,2.37,2.37,0,0,1,.23-.6,4.71,4.71,0,0,1,.44-.66.87.87,0,0,1,.43-.35,1,1,0,0,1,.59,0,3.55,3.55,0,0,1,.8.26l.83.4a8.47,8.47,0,0,0,.87.38,2.68,2.68,0,0,0,.93.16,2.3,2.3,0,0,0,1.08-.21.65.65,0,0,0,.39-.59.64.64,0,0,0-.16-.45,1.27,1.27,0,0,0-.45-.3c-.19-.08-.42-.16-.68-.24l-.81-.21c-.28-.07-.58-.15-.9-.25a9.62,9.62,0,0,1-1.19-.45,3.79,3.79,0,0,1-1-.72,3.15,3.15,0,0,1-.74-1.07A4,4,0,0,1,228.9,25a3.51,3.51,0,0,1,.57-2.05,3.56,3.56,0,0,1,1.66-1.27,7.35,7.35,0,0,1,2.7-.43c.3,0,.6,0,.9.05a4.53,4.53,0,0,1,.89.18,7.54,7.54,0,0,1,1.71.72,1.14,1.14,0,0,1,.78.95,2.1,2.1,0,0,1-.43,1.25,2,2,0,0,1-.58.59.92.92,0,0,1-.62.14,3.93,3.93,0,0,1-.86-.34,9.71,9.71,0,0,0-1-.44,2.84,2.84,0,0,0-1-.2,2.24,2.24,0,0,0-.73.11,1.18,1.18,0,0,0-.45.3.75.75,0,0,0,0,.95,1.42,1.42,0,0,0,.51.31,5.58,5.58,0,0,0,.75.23l.93.2a13.35,13.35,0,0,1,1.39.34,4.69,4.69,0,0,1,1.3.61,3,3,0,0,1,.94,1.08,3.64,3.64,0,0,1,.37,1.77,3.58,3.58,0,0,1-1.38,3A6.32,6.32,0,0,1,233.37,34.1Z"/><path class="cls-3" d="M126.88,34a8.58,8.58,0,0,1-2.33-.34A9.52,9.52,0,0,1,120,30.86a8.48,8.48,0,0,1-1.51-2.55,9.36,9.36,0,0,1-.56-3.32,8.59,8.59,0,0,1,.57-3.24A8.06,8.06,0,0,1,120,19.29a8.84,8.84,0,0,1,2.13-1.74,9.54,9.54,0,0,1,2.41-1,8.84,8.84,0,0,1,2.39-.34,7.36,7.36,0,0,1,2.22.3,8.38,8.38,0,0,1,1.54.63l.76.42a9.08,9.08,0,0,1,.85.65,1.25,1.25,0,0,1,.43.9,1.61,1.61,0,0,1-.12.6,2.29,2.29,0,0,1-.34.6,3.05,3.05,0,0,1-.77.84,1.23,1.23,0,0,1-.73.26,1.16,1.16,0,0,1-.57-.15,6.85,6.85,0,0,1-.65-.4c-.12-.08-.28-.19-.5-.31a3.53,3.53,0,0,0-.89-.34,5.78,5.78,0,0,0-3.15.15,5.23,5.23,0,0,0-1.64.92,4.58,4.58,0,0,0-1.2,1.59,5.3,5.3,0,0,0-.45,2.26,5,5,0,0,0,.46,2.25,4.69,4.69,0,0,0,1.21,1.58,5.29,5.29,0,0,0,1.64.94,5.16,5.16,0,0,0,1.74.31,4.66,4.66,0,0,0,1.27-.15,5,5,0,0,0,.93-.36,7.11,7.11,0,0,0,.67-.39c.19-.11.37-.22.57-.32a1.14,1.14,0,0,1,1.3.12,3.43,3.43,0,0,1,.73.88,2.66,2.66,0,0,1,.34.64,1.68,1.68,0,0,1,.11.61,1.07,1.07,0,0,1-.41.86,7.09,7.09,0,0,1-.86.61l-.75.44a7.66,7.66,0,0,1-3.8.91Z"/><path class="cls-3" d="M140.25,33.82a5.2,5.2,0,0,1-2.17-.45,5.33,5.33,0,0,1-1.75-1.26,5.69,5.69,0,0,1-1.16-1.93,6.83,6.83,0,0,1-.42-2.44V23.22a5.46,5.46,0,0,1,.08-.93,1.12,1.12,0,0,1,.49-.69,2.37,2.37,0,0,1,1.33-.28,2.29,2.29,0,0,1,1.31.28,1.12,1.12,0,0,1,.48.71,5.49,5.49,0,0,1,.08.94v4.5a2.92,2.92,0,0,0,.26,1.26,1.75,1.75,0,0,0,.78.81,2.43,2.43,0,0,0,1.21.28,2.55,2.55,0,0,0,1.24-.29,2.08,2.08,0,0,0,.8-.81,2.59,2.59,0,0,0,.28-1.25V23.2a4.42,4.42,0,0,1,.09-.92,1,1,0,0,1,.48-.69,2.49,2.49,0,0,1,1.33-.26,2.39,2.39,0,0,1,1.31.27,1.09,1.09,0,0,1,.47.72,4.46,4.46,0,0,1,.09.91V32a4.1,4.1,0,0,1-.09.88,1,1,0,0,1-.49.67,2.63,2.63,0,0,1-1.3.25,2.92,2.92,0,0,1-1.05-.15,1.31,1.31,0,0,1-.55-.38.94.94,0,0,1-.21-.48,2.42,2.42,0,0,1,0-.45l.33-.27a3.06,3.06,0,0,1-.33.39,7.18,7.18,0,0,1-.66.57,4.43,4.43,0,0,1-1,.54A3.4,3.4,0,0,1,140.25,33.82Z"/><path class="cls-3" d="M154.18,33.86a16.26,16.26,0,0,1-1.83-.1,4.13,4.13,0,0,1-1.35-.4,2.5,2.5,0,0,1-.9-.84,4,4,0,0,1-.52-1.38,10,10,0,0,1-.18-2.06V17.53a4,4,0,0,1,.1-.93,1.21,1.21,0,0,1,.49-.7,2.37,2.37,0,0,1,1.31-.27,2.24,2.24,0,0,1,1.29.28,1.15,1.15,0,0,1,.49.7,4.4,4.4,0,0,1,.1.92V28.91a4.16,4.16,0,0,0,0,.66.8.8,0,0,0,.15.41.49.49,0,0,0,.31.2,2.4,2.4,0,0,0,.52.05,2.7,2.7,0,0,1,.62.08.9.9,0,0,1,.53.45,2.53,2.53,0,0,1,.23,1.25,2.79,2.79,0,0,1-.23,1.3.89.89,0,0,1-.54.47A2.72,2.72,0,0,1,154.18,33.86Z"/><path class="cls-3" d="M163.6,34.09a7.25,7.25,0,0,1-3-.58A5.84,5.84,0,0,1,158.53,32a6.25,6.25,0,0,1-1.2-2.09,6.92,6.92,0,0,1-.4-2.3,6.45,6.45,0,0,1,.85-3.33A6.19,6.19,0,0,1,160.15,22a7,7,0,0,1,3.46-.84,6.24,6.24,0,0,1,2.51.47,5.23,5.23,0,0,1,1.75,1.2,4.89,4.89,0,0,1,1,1.59,4.25,4.25,0,0,1,.34,1.62,2.82,2.82,0,0,1-.66,2.05,2.28,2.28,0,0,1-1.69.67h-5.95a1.77,1.77,0,0,0,.46,1.08,2.85,2.85,0,0,0,1,.7,3.64,3.64,0,0,0,1.32.25,8.1,8.1,0,0,0,1-.06,4.43,4.43,0,0,0,.79-.18l.59-.22a4.32,4.32,0,0,1,.48-.19,2.41,2.41,0,0,1,.43-.1,1,1,0,0,1,.67.21,2.06,2.06,0,0,1,.58.72,1.8,1.8,0,0,1,.23.52,1.73,1.73,0,0,1,.07.5,1.35,1.35,0,0,1-.62,1.09,4.68,4.68,0,0,1-1.72.73A11,11,0,0,1,163.6,34.09Zm-2.67-7.4h3.95a1.06,1.06,0,0,0,.58-.14.62.62,0,0,0,.2-.54,1.24,1.24,0,0,0-.28-.77,1.72,1.72,0,0,0-.74-.54,2.78,2.78,0,0,0-1.08-.19,3,3,0,0,0-1.35.3,2.39,2.39,0,0,0-.94.8A1.84,1.84,0,0,0,160.93,26.69Z"/><path class="cls-3" d="M173.15,33.87a2.3,2.3,0,0,1-1.3-.28,1.1,1.1,0,0,1-.49-.71,4.53,4.53,0,0,1-.08-.91V17.59a4.6,4.6,0,0,1,.08-.93,1.07,1.07,0,0,1,.49-.71,2.59,2.59,0,0,1,1.33-.26,2.15,2.15,0,0,1,1.27.28,1.08,1.08,0,0,1,.45.71,3.91,3.91,0,0,1,.05.91V32.74a1.3,1.3,0,0,1-.52.85A2.27,2.27,0,0,1,173.15,33.87Zm4.85,0a4.39,4.39,0,0,1-2.15-.52,4.46,4.46,0,0,1-1.54-1.39,6.67,6.67,0,0,1-.92-2,8.49,8.49,0,0,1-.29-2.4,8.34,8.34,0,0,1,.33-2.35,6.31,6.31,0,0,1,.94-2A4.28,4.28,0,0,1,178,21.4a4.78,4.78,0,0,1,2.15.5,6.52,6.52,0,0,1,3.11,3.34,6,6,0,0,1,.46,2.33,6.55,6.55,0,0,1-.46,2.42A6.66,6.66,0,0,1,182,32a5.83,5.83,0,0,1-1.82,1.36A5.11,5.11,0,0,1,178,33.85Zm-.5-3.7a2.36,2.36,0,0,0,1.25-.34,2.59,2.59,0,0,0,.89-.91,2.45,2.45,0,0,0,.34-1.28,2.6,2.6,0,0,0-.32-1.27,2.33,2.33,0,0,0-.89-.9,2.42,2.42,0,0,0-1.24-.33,2.4,2.4,0,0,0-2.11,1.24,2.51,2.51,0,0,0-.32,1.26,2.59,2.59,0,0,0,1.2,2.19A2.32,2.32,0,0,0,177.5,30.15Z"/><path class="cls-3" d="M187.78,33.88a2.41,2.41,0,0,1-1.32-.27,1.06,1.06,0,0,1-.47-.71,4.7,4.7,0,0,1-.09-.92V23.25a5.25,5.25,0,0,1,.08-.92,1.07,1.07,0,0,1,.49-.69,2.49,2.49,0,0,1,1.33-.26,2.63,2.63,0,0,1,1.26.23,1.07,1.07,0,0,1,.49.56,2,2,0,0,1,.1.53l-.3.15a3.22,3.22,0,0,1,.26-.36,3.58,3.58,0,0,1,.59-.55,3.71,3.71,0,0,1,.91-.49,3.62,3.62,0,0,1,1.24-.2c.18,0,.39,0,.61,0a4.62,4.62,0,0,1,.7.15,3.32,3.32,0,0,1,.66.3,1.69,1.69,0,0,1,.49.47,1.18,1.18,0,0,1,.19.67,3,3,0,0,1-.48,1.74,1.42,1.42,0,0,1-1.2.71,2.11,2.11,0,0,1-.6-.06,1,1,0,0,1-.29-.15.93.93,0,0,0-.26-.15,1.61,1.61,0,0,0-.55-.07,2.71,2.71,0,0,0-.71.1,1.88,1.88,0,0,0-.63.32,1.45,1.45,0,0,0-.61,1.23V32a4.53,4.53,0,0,1-.09.91,1,1,0,0,1-.49.69A2.69,2.69,0,0,1,187.78,33.88Z"/><path class="cls-3" d="M199,19.58a2.53,2.53,0,0,1-1.35-.27,1.12,1.12,0,0,1-.48-.73,5.11,5.11,0,0,1,0-1.91,1.06,1.06,0,0,1,.5-.7,2.69,2.69,0,0,1,1.36-.26,2.37,2.37,0,0,1,1.33.28,1.11,1.11,0,0,1,.48.72,4.92,4.92,0,0,1,.09,1,4.73,4.73,0,0,1-.09.93,1.05,1.05,0,0,1-.49.71A2.5,2.5,0,0,1,199,19.58Zm0,14.3a2.47,2.47,0,0,1-1.32-.26,1,1,0,0,1-.47-.7,4.53,4.53,0,0,1-.08-.91V23.28a5.4,5.4,0,0,1,.08-.91,1.11,1.11,0,0,1,.49-.7,2.59,2.59,0,0,1,1.33-.26,2.28,2.28,0,0,1,1.28.27,1.17,1.17,0,0,1,.48.72,4.59,4.59,0,0,1,.09.93V32a4.56,4.56,0,0,1-.09.92,1,1,0,0,1-.47.68A2.53,2.53,0,0,1,199,33.88Z"/><path class="cls-3" d="M204.31,21.59h2.75l3.45-.1a4.43,4.43,0,0,1,.9.09,1.13,1.13,0,0,1,.7.49,2.43,2.43,0,0,1,.27,1.32,2.38,2.38,0,0,1-.26,1.25,1.15,1.15,0,0,1-.69.51,3.38,3.38,0,0,1-.93.12l-3.27-.08-3,0a1.27,1.27,0,0,1-1-.46,2.56,2.56,0,0,1-.28-1.39,2.1,2.1,0,0,1,.35-1.34A1.26,1.26,0,0,1,204.31,21.59ZM210,33.89a7.54,7.54,0,0,1-2.2-.28,3.43,3.43,0,0,1-1.51-.85,3.51,3.51,0,0,1-.88-1.46,7,7,0,0,1-.28-2.11V19.06a4.15,4.15,0,0,1,.09-.92,1,1,0,0,1,.49-.66,3.21,3.21,0,0,1,2.6,0,1.1,1.1,0,0,1,.49.71,5.4,5.4,0,0,1,.08.91V29a3,3,0,0,0,.06.66.71.71,0,0,0,.19.39.77.77,0,0,0,.35.18,2.79,2.79,0,0,0,.55.05,4.07,4.07,0,0,1,1,.1,1,1,0,0,1,.66.45,2.13,2.13,0,0,1,.24,1.17,2.4,2.4,0,0,1-.27,1.3,1.09,1.09,0,0,1-.72.48A5.33,5.33,0,0,1,210,33.89Z"/><path class="cls-3" d="M224.5,33.87a2.42,2.42,0,0,1-1.38-.32.92.92,0,0,1-.42-.8l.25-.43a2.79,2.79,0,0,1-.58.62,4.26,4.26,0,0,1-2.77.93,5,5,0,0,1-2.19-.5A5.85,5.85,0,0,1,215.58,32a7,7,0,0,1-1.28-2,6.16,6.16,0,0,1-.47-2.38,6,6,0,0,1,.47-2.33,6.77,6.77,0,0,1,1.29-2,6.51,6.51,0,0,1,1.84-1.36,5,5,0,0,1,2.18-.5,4.3,4.3,0,0,1,1.57.26,4.16,4.16,0,0,1,1.09.62,3.43,3.43,0,0,1,.66.67l-.22-.35a1,1,0,0,1,.43-.91,2.44,2.44,0,0,1,1.39-.31,2.34,2.34,0,0,1,1.29.27,1.11,1.11,0,0,1,.47.73,4.86,4.86,0,0,1,.09,1V32a4.7,4.7,0,0,1-.09.92,1.07,1.07,0,0,1-.48.71A2.38,2.38,0,0,1,224.5,33.87Zm-4.37-3.72a2.21,2.21,0,0,0,1.2-.34,2.56,2.56,0,0,0,1.17-2.19,2.52,2.52,0,0,0-.32-1.29,2.4,2.4,0,0,0-.88-.88,2.3,2.3,0,0,0-1.22-.33,2.33,2.33,0,0,0-1.26.34,2.53,2.53,0,0,0-1.24,2.21,2.34,2.34,0,0,0,.34,1.24,2.56,2.56,0,0,0,.92.9A2.59,2.59,0,0,0,220.13,30.15Z"/><path class="cls-3" d="M233.37,34.1a8.73,8.73,0,0,1-3-.59,5.07,5.07,0,0,1-1.25-.67,1.28,1.28,0,0,1-.56-.89,1.41,1.41,0,0,1,0-.54,2.37,2.37,0,0,1,.23-.6,4.71,4.71,0,0,1,.44-.66.87.87,0,0,1,.43-.35,1,1,0,0,1,.59,0,3.55,3.55,0,0,1,.8.26l.83.4a8.47,8.47,0,0,0,.87.38,2.68,2.68,0,0,0,.93.16,2.3,2.3,0,0,0,1.08-.21.65.65,0,0,0,.39-.59.64.64,0,0,0-.16-.45,1.27,1.27,0,0,0-.45-.3c-.19-.08-.42-.16-.68-.24l-.81-.21c-.28-.07-.58-.15-.9-.25a9.62,9.62,0,0,1-1.19-.45,3.79,3.79,0,0,1-1-.72,3.15,3.15,0,0,1-.74-1.07A4,4,0,0,1,228.9,25a3.51,3.51,0,0,1,.57-2.05,3.56,3.56,0,0,1,1.66-1.27,7.35,7.35,0,0,1,2.7-.43c.3,0,.6,0,.9.05a4.53,4.53,0,0,1,.89.18,7.54,7.54,0,0,1,1.71.72,1.14,1.14,0,0,1,.78.95,2.1,2.1,0,0,1-.43,1.25,2,2,0,0,1-.58.59.92.92,0,0,1-.62.14,3.93,3.93,0,0,1-.86-.34,9.71,9.71,0,0,0-1-.44,2.84,2.84,0,0,0-1-.2,2.24,2.24,0,0,0-.73.11,1.18,1.18,0,0,0-.45.3.75.75,0,0,0,0,.95,1.42,1.42,0,0,0,.51.31,5.58,5.58,0,0,0,.75.23l.93.2a13.35,13.35,0,0,1,1.39.34,4.69,4.69,0,0,1,1.3.61,3,3,0,0,1,.94,1.08,3.64,3.64,0,0,1,.37,1.77,3.58,3.58,0,0,1-1.38,3A6.32,6.32,0,0,1,233.37,34.1Z"/><path class="cls-2" d="M126.88,34a8.58,8.58,0,0,1-2.33-.34A9.52,9.52,0,0,1,120,30.86a8.48,8.48,0,0,1-1.51-2.55,9.36,9.36,0,0,1-.56-3.32,8.59,8.59,0,0,1,.57-3.24A8.06,8.06,0,0,1,120,19.29a8.84,8.84,0,0,1,2.13-1.74,9.54,9.54,0,0,1,2.41-1,8.84,8.84,0,0,1,2.39-.34,7.36,7.36,0,0,1,2.22.3,8.38,8.38,0,0,1,1.54.63l.76.42a9.08,9.08,0,0,1,.85.65,1.25,1.25,0,0,1,.43.9,1.61,1.61,0,0,1-.12.6,2.29,2.29,0,0,1-.34.6,3.05,3.05,0,0,1-.77.84,1.23,1.23,0,0,1-.73.26,1.16,1.16,0,0,1-.57-.15,6.85,6.85,0,0,1-.65-.4c-.12-.08-.28-.19-.5-.31a3.53,3.53,0,0,0-.89-.34,5.78,5.78,0,0,0-3.15.15,5.23,5.23,0,0,0-1.64.92,4.58,4.58,0,0,0-1.2,1.59,5.3,5.3,0,0,0-.45,2.26,5,5,0,0,0,.46,2.25,4.69,4.69,0,0,0,1.21,1.58,5.29,5.29,0,0,0,1.64.94,5.16,5.16,0,0,0,1.74.31,4.66,4.66,0,0,0,1.27-.15,5,5,0,0,0,.93-.36,7.11,7.11,0,0,0,.67-.39c.19-.11.37-.22.57-.32a1.14,1.14,0,0,1,1.3.12,3.43,3.43,0,0,1,.73.88,2.66,2.66,0,0,1,.34.64,1.68,1.68,0,0,1,.11.61,1.07,1.07,0,0,1-.41.86,7.09,7.09,0,0,1-.86.61l-.75.44a7.66,7.66,0,0,1-3.8.91Z"/><path class="cls-2" d="M140.25,33.82a5.2,5.2,0,0,1-2.17-.45,5.33,5.33,0,0,1-1.75-1.26,5.69,5.69,0,0,1-1.16-1.93,6.83,6.83,0,0,1-.42-2.44V23.22a5.46,5.46,0,0,1,.08-.93,1.12,1.12,0,0,1,.49-.69,2.37,2.37,0,0,1,1.33-.28,2.29,2.29,0,0,1,1.31.28,1.12,1.12,0,0,1,.48.71,5.49,5.49,0,0,1,.08.94v4.5a2.92,2.92,0,0,0,.26,1.26,1.75,1.75,0,0,0,.78.81,2.43,2.43,0,0,0,1.21.28,2.55,2.55,0,0,0,1.24-.29,2.08,2.08,0,0,0,.8-.81,2.59,2.59,0,0,0,.28-1.25V23.2a4.42,4.42,0,0,1,.09-.92,1,1,0,0,1,.48-.69,2.49,2.49,0,0,1,1.33-.26,2.39,2.39,0,0,1,1.31.27,1.09,1.09,0,0,1,.47.72,4.46,4.46,0,0,1,.09.91V32a4.1,4.1,0,0,1-.09.88,1,1,0,0,1-.49.67,2.63,2.63,0,0,1-1.3.25,2.92,2.92,0,0,1-1.05-.15,1.31,1.31,0,0,1-.55-.38.94.94,0,0,1-.21-.48,2.42,2.42,0,0,1,0-.45l.33-.27a3.06,3.06,0,0,1-.33.39,7.18,7.18,0,0,1-.66.57,4.43,4.43,0,0,1-1,.54A3.4,3.4,0,0,1,140.25,33.82Z"/><path class="cls-2" d="M154.18,33.86a16.26,16.26,0,0,1-1.83-.1,4.13,4.13,0,0,1-1.35-.4,2.5,2.5,0,0,1-.9-.84,4,4,0,0,1-.52-1.38,10,10,0,0,1-.18-2.06V17.53a4,4,0,0,1,.1-.93,1.21,1.21,0,0,1,.49-.7,2.37,2.37,0,0,1,1.31-.27,2.24,2.24,0,0,1,1.29.28,1.15,1.15,0,0,1,.49.7,4.4,4.4,0,0,1,.1.92V28.91a4.16,4.16,0,0,0,0,.66.8.8,0,0,0,.15.41.49.49,0,0,0,.31.2,2.4,2.4,0,0,0,.52.05,2.7,2.7,0,0,1,.62.08.9.9,0,0,1,.53.45,2.53,2.53,0,0,1,.23,1.25,2.79,2.79,0,0,1-.23,1.3.89.89,0,0,1-.54.47A2.72,2.72,0,0,1,154.18,33.86Z"/><path class="cls-2" d="M163.6,34.09a7.25,7.25,0,0,1-3-.58A5.84,5.84,0,0,1,158.53,32a6.25,6.25,0,0,1-1.2-2.09,6.92,6.92,0,0,1-.4-2.3,6.45,6.45,0,0,1,.85-3.33A6.19,6.19,0,0,1,160.15,22a7,7,0,0,1,3.46-.84,6.24,6.24,0,0,1,2.51.47,5.23,5.23,0,0,1,1.75,1.2,4.89,4.89,0,0,1,1,1.59,4.25,4.25,0,0,1,.34,1.62,2.82,2.82,0,0,1-.66,2.05,2.28,2.28,0,0,1-1.69.67h-5.95a1.77,1.77,0,0,0,.46,1.08,2.85,2.85,0,0,0,1,.7,3.64,3.64,0,0,0,1.32.25,8.1,8.1,0,0,0,1-.06,4.43,4.43,0,0,0,.79-.18l.59-.22a4.32,4.32,0,0,1,.48-.19,2.41,2.41,0,0,1,.43-.1,1,1,0,0,1,.67.21,2.06,2.06,0,0,1,.58.72,1.8,1.8,0,0,1,.23.52,1.73,1.73,0,0,1,.07.5,1.35,1.35,0,0,1-.62,1.09,4.68,4.68,0,0,1-1.72.73A11,11,0,0,1,163.6,34.09Zm-2.67-7.4h3.95a1.06,1.06,0,0,0,.58-.14.62.62,0,0,0,.2-.54,1.24,1.24,0,0,0-.28-.77,1.72,1.72,0,0,0-.74-.54,2.78,2.78,0,0,0-1.08-.19,3,3,0,0,0-1.35.3,2.39,2.39,0,0,0-.94.8A1.84,1.84,0,0,0,160.93,26.69Z"/><path class="cls-2" d="M173.15,33.87a2.3,2.3,0,0,1-1.3-.28,1.1,1.1,0,0,1-.49-.71,4.53,4.53,0,0,1-.08-.91V17.59a4.6,4.6,0,0,1,.08-.93,1.07,1.07,0,0,1,.49-.71,2.59,2.59,0,0,1,1.33-.26,2.15,2.15,0,0,1,1.27.28,1.08,1.08,0,0,1,.45.71,3.91,3.91,0,0,1,.05.91V32.74a1.3,1.3,0,0,1-.52.85A2.27,2.27,0,0,1,173.15,33.87Zm4.85,0a4.39,4.39,0,0,1-2.15-.52,4.46,4.46,0,0,1-1.54-1.39,6.67,6.67,0,0,1-.92-2,8.49,8.49,0,0,1-.29-2.4,8.34,8.34,0,0,1,.33-2.35,6.31,6.31,0,0,1,.94-2A4.28,4.28,0,0,1,178,21.4a4.78,4.78,0,0,1,2.15.5,6.52,6.52,0,0,1,3.11,3.34,6,6,0,0,1,.46,2.33,6.55,6.55,0,0,1-.46,2.42A6.66,6.66,0,0,1,182,32a5.83,5.83,0,0,1-1.82,1.36A5.11,5.11,0,0,1,178,33.85Zm-.5-3.7a2.36,2.36,0,0,0,1.25-.34,2.59,2.59,0,0,0,.89-.91,2.45,2.45,0,0,0,.34-1.28,2.6,2.6,0,0,0-.32-1.27,2.33,2.33,0,0,0-.89-.9,2.42,2.42,0,0,0-1.24-.33,2.4,2.4,0,0,0-2.11,1.24,2.51,2.51,0,0,0-.32,1.26,2.59,2.59,0,0,0,1.2,2.19A2.32,2.32,0,0,0,177.5,30.15Z"/><path class="cls-2" d="M187.78,33.88a2.41,2.41,0,0,1-1.32-.27,1.06,1.06,0,0,1-.47-.71,4.7,4.7,0,0,1-.09-.92V23.25a5.25,5.25,0,0,1,.08-.92,1.07,1.07,0,0,1,.49-.69,2.49,2.49,0,0,1,1.33-.26,2.63,2.63,0,0,1,1.26.23,1.07,1.07,0,0,1,.49.56,2,2,0,0,1,.1.53l-.3.15a3.22,3.22,0,0,1,.26-.36,3.58,3.58,0,0,1,.59-.55,3.71,3.71,0,0,1,.91-.49,3.62,3.62,0,0,1,1.24-.2c.18,0,.39,0,.61,0a4.62,4.62,0,0,1,.7.15,3.32,3.32,0,0,1,.66.3,1.69,1.69,0,0,1,.49.47,1.18,1.18,0,0,1,.19.67,3,3,0,0,1-.48,1.74,1.42,1.42,0,0,1-1.2.71,2.11,2.11,0,0,1-.6-.06,1,1,0,0,1-.29-.15.93.93,0,0,0-.26-.15,1.61,1.61,0,0,0-.55-.07,2.71,2.71,0,0,0-.71.1,1.88,1.88,0,0,0-.63.32,1.45,1.45,0,0,0-.61,1.23V32a4.53,4.53,0,0,1-.09.91,1,1,0,0,1-.49.69A2.69,2.69,0,0,1,187.78,33.88Z"/><path class="cls-2" d="M199,19.58a2.53,2.53,0,0,1-1.35-.27,1.12,1.12,0,0,1-.48-.73,5.11,5.11,0,0,1,0-1.91,1.06,1.06,0,0,1,.5-.7,2.69,2.69,0,0,1,1.36-.26,2.37,2.37,0,0,1,1.33.28,1.11,1.11,0,0,1,.48.72,4.92,4.92,0,0,1,.09,1,4.73,4.73,0,0,1-.09.93,1.05,1.05,0,0,1-.49.71A2.5,2.5,0,0,1,199,19.58Zm0,14.3a2.47,2.47,0,0,1-1.32-.26,1,1,0,0,1-.47-.7,4.53,4.53,0,0,1-.08-.91V23.28a5.4,5.4,0,0,1,.08-.91,1.11,1.11,0,0,1,.49-.7,2.59,2.59,0,0,1,1.33-.26,2.28,2.28,0,0,1,1.28.27,1.17,1.17,0,0,1,.48.72,4.59,4.59,0,0,1,.09.93V32a4.56,4.56,0,0,1-.09.92,1,1,0,0,1-.47.68A2.53,2.53,0,0,1,199,33.88Z"/><path class="cls-2" d="M204.31,21.59h2.75l3.45-.1a4.43,4.43,0,0,1,.9.09,1.13,1.13,0,0,1,.7.49,2.43,2.43,0,0,1,.27,1.32,2.38,2.38,0,0,1-.26,1.25,1.15,1.15,0,0,1-.69.51,3.38,3.38,0,0,1-.93.12l-3.27-.08-3,0a1.27,1.27,0,0,1-1-.46,2.56,2.56,0,0,1-.28-1.39,2.1,2.1,0,0,1,.35-1.34A1.26,1.26,0,0,1,204.31,21.59ZM210,33.89a7.54,7.54,0,0,1-2.2-.28,3.43,3.43,0,0,1-1.51-.85,3.51,3.51,0,0,1-.88-1.46,7,7,0,0,1-.28-2.11V19.06a4.15,4.15,0,0,1,.09-.92,1,1,0,0,1,.49-.66,3.21,3.21,0,0,1,2.6,0,1.1,1.1,0,0,1,.49.71,5.4,5.4,0,0,1,.08.91V29a3,3,0,0,0,.06.66.71.71,0,0,0,.19.39.77.77,0,0,0,.35.18,2.79,2.79,0,0,0,.55.05,4.07,4.07,0,0,1,1,.1,1,1,0,0,1,.66.45,2.13,2.13,0,0,1,.24,1.17,2.4,2.4,0,0,1-.27,1.3,1.09,1.09,0,0,1-.72.48A5.33,5.33,0,0,1,210,33.89Z"/><path class="cls-2" d="M224.5,33.87a2.42,2.42,0,0,1-1.38-.32.92.92,0,0,1-.42-.8l.25-.43a2.79,2.79,0,0,1-.58.62,4.26,4.26,0,0,1-2.77.93,5,5,0,0,1-2.19-.5A5.85,5.85,0,0,1,215.58,32a7,7,0,0,1-1.28-2,6.16,6.16,0,0,1-.47-2.38,6,6,0,0,1,.47-2.33,6.77,6.77,0,0,1,1.29-2,6.51,6.51,0,0,1,1.84-1.36,5,5,0,0,1,2.18-.5,4.3,4.3,0,0,1,1.57.26,4.16,4.16,0,0,1,1.09.62,3.43,3.43,0,0,1,.66.67l-.22-.35a1,1,0,0,1,.43-.91,2.44,2.44,0,0,1,1.39-.31,2.34,2.34,0,0,1,1.29.27,1.11,1.11,0,0,1,.47.73,4.86,4.86,0,0,1,.09,1V32a4.7,4.7,0,0,1-.09.92,1.07,1.07,0,0,1-.48.71A2.38,2.38,0,0,1,224.5,33.87Zm-4.37-3.72a2.21,2.21,0,0,0,1.2-.34,2.56,2.56,0,0,0,1.17-2.19,2.52,2.52,0,0,0-.32-1.29,2.4,2.4,0,0,0-.88-.88,2.3,2.3,0,0,0-1.22-.33,2.33,2.33,0,0,0-1.26.34,2.53,2.53,0,0,0-1.24,2.21,2.34,2.34,0,0,0,.34,1.24,2.56,2.56,0,0,0,.92.9A2.59,2.59,0,0,0,220.13,30.15Z"/><path class="cls-2" d="M233.37,34.1a8.73,8.73,0,0,1-3-.59,5.07,5.07,0,0,1-1.25-.67,1.28,1.28,0,0,1-.56-.89,1.41,1.41,0,0,1,0-.54,2.37,2.37,0,0,1,.23-.6,4.71,4.71,0,0,1,.44-.66.87.87,0,0,1,.43-.35,1,1,0,0,1,.59,0,3.55,3.55,0,0,1,.8.26l.83.4a8.47,8.47,0,0,0,.87.38,2.68,2.68,0,0,0,.93.16,2.3,2.3,0,0,0,1.08-.21.65.65,0,0,0,.39-.59.64.64,0,0,0-.16-.45,1.27,1.27,0,0,0-.45-.3c-.19-.08-.42-.16-.68-.24l-.81-.21c-.28-.07-.58-.15-.9-.25a9.62,9.62,0,0,1-1.19-.45,3.79,3.79,0,0,1-1-.72,3.15,3.15,0,0,1-.74-1.07A4,4,0,0,1,228.9,25a3.51,3.51,0,0,1,.57-2.05,3.56,3.56,0,0,1,1.66-1.27,7.35,7.35,0,0,1,2.7-.43c.3,0,.6,0,.9.05a4.53,4.53,0,0,1,.89.18,7.54,7.54,0,0,1,1.71.72,1.14,1.14,0,0,1,.78.95,2.1,2.1,0,0,1-.43,1.25,2,2,0,0,1-.58.59.92.92,0,0,1-.62.14,3.93,3.93,0,0,1-.86-.34,9.71,9.71,0,0,0-1-.44,2.84,2.84,0,0,0-1-.2,2.24,2.24,0,0,0-.73.11,1.18,1.18,0,0,0-.45.3.75.75,0,0,0,0,.95,1.42,1.42,0,0,0,.51.31,5.58,5.58,0,0,0,.75.23l.93.2a13.35,13.35,0,0,1,1.39.34,4.69,4.69,0,0,1,1.3.61,3,3,0,0,1,.94,1.08,3.64,3.64,0,0,1,.37,1.77,3.58,3.58,0,0,1-1.38,3A6.32,6.32,0,0,1,233.37,34.1Z"/><path class="cls-4" d="M66.64,32.55q0,3.41-1.18,4.85a4.36,4.36,0,0,1-3.59,1.45,5.73,5.73,0,0,1-2.57-.5,3.29,3.29,0,0,1-1.48-1.85,11.09,11.09,0,0,1-.55-3.61L57.2,17.22A6.3,6.3,0,0,1,54,16.49,2.58,2.58,0,0,1,52.73,14a2.76,2.76,0,0,1,1.16-2.29,5.16,5.16,0,0,1,3.24-.9c.54,0,1.31,0,2.3,0l2.1,0c2,0,3.36.34,4,1a5,5,0,0,1,1,3.59Z"/><path class="cls-4" d="M70.39,36a2.78,2.78,0,0,1,1.16-2.31,5.4,5.4,0,0,1,3.28-.88c3,0,4.44,1.07,4.44,3.19a3.11,3.11,0,0,1-.57,2,2.73,2.73,0,0,1-1.51,1,9.17,9.17,0,0,1-2.36.26,6.13,6.13,0,0,1-3.18-.76A2.63,2.63,0,0,1,70.39,36Z"/><path class="cls-4" d="M95.2,38.85a4.25,4.25,0,0,1-3.51-1.36C91,36.58,90.6,35,90.6,32.72H83.06a5.33,5.33,0,0,1-3.93-1.3,4.61,4.61,0,0,1-1.28-3.36A7.2,7.2,0,0,1,79,24.11Q81.85,19.45,85.48,14a6.64,6.64,0,0,1,5.83-3.19l3.54,0c2,0,3.33.34,4,1a4.92,4.92,0,0,1,1,3.59V26.59a3.69,3.69,0,0,1,2.41.88,3.33,3.33,0,0,1,.65,2.27,2.84,2.84,0,0,1-.7,2.2,4.07,4.07,0,0,1-2.36.74c0,2.21-.4,3.79-1.19,4.74A4.34,4.34,0,0,1,95.2,38.85Zm-4.64-12.1.13-8.94-5.46,8.94Z"/><path class="cls-5" d="M66.64,32.55q0,3.41-1.18,4.85a4.36,4.36,0,0,1-3.59,1.45,5.73,5.73,0,0,1-2.57-.5,3.29,3.29,0,0,1-1.48-1.85,11.09,11.09,0,0,1-.55-3.61L57.2,17.22A6.3,6.3,0,0,1,54,16.49,2.58,2.58,0,0,1,52.73,14a2.76,2.76,0,0,1,1.16-2.29,5.16,5.16,0,0,1,3.24-.9c.54,0,1.31,0,2.3,0l2.1,0c2,0,3.36.34,4,1a5,5,0,0,1,1,3.59Z"/><path class="cls-5" d="M70.39,36a2.78,2.78,0,0,1,1.16-2.31,5.4,5.4,0,0,1,3.28-.88c3,0,4.44,1.07,4.44,3.19a3.11,3.11,0,0,1-.57,2,2.73,2.73,0,0,1-1.51,1,9.17,9.17,0,0,1-2.36.26,6.13,6.13,0,0,1-3.18-.76A2.63,2.63,0,0,1,70.39,36Z"/><path class="cls-5" d="M95.2,38.85a4.25,4.25,0,0,1-3.51-1.36C91,36.58,90.6,35,90.6,32.72H83.06a5.33,5.33,0,0,1-3.93-1.3,4.61,4.61,0,0,1-1.28-3.36A7.2,7.2,0,0,1,79,24.11Q81.85,19.45,85.48,14a6.64,6.64,0,0,1,5.83-3.19l3.54,0c2,0,3.33.34,4,1a4.92,4.92,0,0,1,1,3.59V26.59a3.69,3.69,0,0,1,2.41.88,3.33,3.33,0,0,1,.65,2.27,2.84,2.84,0,0,1-.7,2.2,4.07,4.07,0,0,1-2.36.74c0,2.21-.4,3.79-1.19,4.74A4.34,4.34,0,0,1,95.2,38.85Zm-4.64-12.1.13-8.94-5.46,8.94Z"/></g></g></svg>