<svg xmlns="http://www.w3.org/2000/svg" viewBox="0 0 399.98 100.52"><defs><style>.cls-1{fill:#03826e;}.cls-2{fill:#fff;}.cls-3,.cls-4{fill:none;stroke-width:5px;}.cls-3{stroke:#b6ba01;stroke-linejoin:round;}.cls-4{stroke:#fff;}.cls-5{fill:#b6ba01;}</style></defs><title>14t</title><g id="Layer_2" data-name="Layer 2"><g id="pestaña_identificativa" data-name="pestaña identificativa"><rect class="cls-1" width="399.98" height="100.52" rx="32.4"/><path class="cls-2" d="M113.18,34.84a2.46,2.46,0,0,1-1.33-.28,1.11,1.11,0,0,1-.48-.72,4.73,4.73,0,0,1-.09-.93V19.26a3.85,3.85,0,0,1,.1-.91,1.15,1.15,0,0,1,.5-.71,2.37,2.37,0,0,1,1.33-.28h5.12a6.39,6.39,0,0,1,2.1.38,5.94,5.94,0,0,1,4,5.8,6.06,6.06,0,0,1-.56,2.69,5.87,5.87,0,0,1-1.48,1.91,6.15,6.15,0,0,1-2,1.15,6.36,6.36,0,0,1-2.12.37h-3.2v3.28a4.53,4.53,0,0,1-.1.91,1.19,1.19,0,0,1-.5.71A2.37,2.37,0,0,1,113.18,34.84Zm1.93-9h3.23a2.63,2.63,0,0,0,1.08-.23,2.12,2.12,0,0,0,.9-.76,2.59,2.59,0,0,0,.05-2.58,2.11,2.11,0,0,0-.83-.82,2.44,2.44,0,0,0-1.23-.31h-3.2Z"/><path class="cls-2" d="M132.78,35.07a7.25,7.25,0,0,1-3-.57A5.86,5.86,0,0,1,127.71,33a6.16,6.16,0,0,1-1.2-2.09,6.83,6.83,0,0,1-.4-2.3,6.41,6.41,0,0,1,.85-3.32A6.18,6.18,0,0,1,129.32,23a7.15,7.15,0,0,1,3.47-.83,6.25,6.25,0,0,1,2.51.46,5.23,5.23,0,0,1,1.75,1.2,5,5,0,0,1,1,1.59,4.33,4.33,0,0,1,.34,1.63,2.84,2.84,0,0,1-.66,2,2.28,2.28,0,0,1-1.69.67h-5.95a1.71,1.71,0,0,0,.46,1.07,2.66,2.66,0,0,0,1,.7,3.41,3.41,0,0,0,1.32.25,8.22,8.22,0,0,0,1-.06,4.49,4.49,0,0,0,.79-.17c.21-.08.41-.15.58-.23a5.09,5.09,0,0,1,.49-.18,1.41,1.41,0,0,1,.43-.1,1,1,0,0,1,.67.21,2.11,2.11,0,0,1,.58.71,2,2,0,0,1,.23.53,2.08,2.08,0,0,1,.07.5,1.33,1.33,0,0,1-.62,1.08,4.68,4.68,0,0,1-1.72.74A11.56,11.56,0,0,1,132.78,35.07Zm-2.67-7.4h3.95a1,1,0,0,0,.57-.13c.14-.09.2-.27.2-.54a1.23,1.23,0,0,0-.27-.77,1.64,1.64,0,0,0-.74-.54,2.8,2.8,0,0,0-1.09-.19,2.91,2.91,0,0,0-1.34.3,2.25,2.25,0,0,0-.94.8A1.84,1.84,0,0,0,130.11,27.67Z"/><path class="cls-2" d="M142.51,20.55a2.53,2.53,0,0,1-1.35-.27,1.12,1.12,0,0,1-.48-.73,5.11,5.11,0,0,1,0-1.91,1,1,0,0,1,.5-.7,2.69,2.69,0,0,1,1.36-.26,2.31,2.31,0,0,1,1.32.28,1.09,1.09,0,0,1,.49.72,5,5,0,0,1,.09,1,4.73,4.73,0,0,1-.09.93,1.05,1.05,0,0,1-.49.71A2.5,2.5,0,0,1,142.51,20.55Zm0,14.3a2.45,2.45,0,0,1-1.32-.26,1,1,0,0,1-.48-.7,5.33,5.33,0,0,1-.07-.91V24.25a4.53,4.53,0,0,1,.08-.91,1.06,1.06,0,0,1,.49-.7,2.59,2.59,0,0,1,1.33-.26,2.28,2.28,0,0,1,1.28.27,1.17,1.17,0,0,1,.48.72,4.62,4.62,0,0,1,.09.94V33a4.53,4.53,0,0,1-.09.91,1,1,0,0,1-.47.68A2.53,2.53,0,0,1,142.5,34.85Z"/><path class="cls-2" d="M148.93,34.83a2.45,2.45,0,0,1-1.31-.26,1.1,1.1,0,0,1-.48-.7,4.53,4.53,0,0,1-.09-.91v-8.8a4.13,4.13,0,0,1,.09-.89,1,1,0,0,1,.49-.66,3.52,3.52,0,0,1,2.5,0,1,1,0,0,1,.48.51,1.54,1.54,0,0,1,.12.57,1,1,0,0,0,0,.36l-.14.47a1.48,1.48,0,0,1,.38-.76,3.74,3.74,0,0,1,.85-.7,4.32,4.32,0,0,1,1.1-.48,4,4,0,0,1,1.17-.18,5,5,0,0,1,2.13.44,4.24,4.24,0,0,1,1.59,1.26,6,6,0,0,1,1,1.94,8.57,8.57,0,0,1,.33,2.44V33a4.46,4.46,0,0,1-.09.91,1.08,1.08,0,0,1-.47.69,2.7,2.7,0,0,1-1.34.25,2.47,2.47,0,0,1-1.33-.27,1,1,0,0,1-.48-.7,4.46,4.46,0,0,1-.09-.91V28.44a2.78,2.78,0,0,0-.26-1.28,1.81,1.81,0,0,0-.75-.8,2.46,2.46,0,0,0-1.21-.27,2.59,2.59,0,0,0-1.25.28,2,2,0,0,0-.81.81,2.48,2.48,0,0,0-.29,1.25V33a5.52,5.52,0,0,1-.08.92,1,1,0,0,1-.48.68A2.49,2.49,0,0,1,148.93,34.83Z"/><path class="cls-2" d="M167.83,35.09a7.25,7.25,0,0,1-3-.57A5.9,5.9,0,0,1,162.75,33a6.36,6.36,0,0,1-1.19-2.08,6.92,6.92,0,0,1-.4-2.3,6.45,6.45,0,0,1,.85-3.33A6.11,6.11,0,0,1,164.37,23a7.15,7.15,0,0,1,3.47-.83,6.25,6.25,0,0,1,2.51.46,5.23,5.23,0,0,1,1.75,1.2,5.11,5.11,0,0,1,1,1.59,4.33,4.33,0,0,1,.34,1.63,2.8,2.8,0,0,1-.67,2.05,2.25,2.25,0,0,1-1.68.67h-6a1.71,1.71,0,0,0,.46,1.07,2.66,2.66,0,0,0,1,.7,3.41,3.41,0,0,0,1.32.25,8.22,8.22,0,0,0,1-.06,4.49,4.49,0,0,0,.79-.17c.21-.08.41-.15.58-.23l.49-.18a1.78,1.78,0,0,1,.43-.1,1,1,0,0,1,.67.21,2.11,2.11,0,0,1,.58.71,2,2,0,0,1,.23.53,2.07,2.07,0,0,1,.06.5,1.32,1.32,0,0,1-.61,1.08,4.68,4.68,0,0,1-1.72.74A11.1,11.1,0,0,1,167.83,35.09Zm-2.67-7.4h4a1,1,0,0,0,.57-.13c.14-.09.2-.27.2-.54a1.23,1.23,0,0,0-.27-.77,1.64,1.64,0,0,0-.74-.54,2.8,2.8,0,0,0-1.09-.19,3,3,0,0,0-1.35.3,2.28,2.28,0,0,0-.93.8A1.84,1.84,0,0,0,165.16,27.69Z"/><path class="cls-2" d="M188.25,35a6.59,6.59,0,0,1-2.23-.41,7,7,0,0,1-2.1-1.22,5.68,5.68,0,0,1-1.54-2,6.32,6.32,0,0,1-.57-2.75,6.15,6.15,0,0,1,.57-2.72,6.26,6.26,0,0,1,1.53-2A7,7,0,0,1,186,22.69a6.57,6.57,0,0,1,2.21-.41,6,6,0,0,1,1.66.21,5.88,5.88,0,0,1,1.25.52,3.91,3.91,0,0,1,.74.52c.28.22.53.44.75.65a1.05,1.05,0,0,1,.3.85,1.64,1.64,0,0,1-.18.57,4.29,4.29,0,0,1-.37.58c-.52.7-1,1-1.5.95a2.27,2.27,0,0,1-.69-.25c-.21-.11-.41-.23-.6-.35a5.81,5.81,0,0,0-.61-.31,2,2,0,0,0-.75-.14,2.47,2.47,0,0,0-1.3.34,2.38,2.38,0,0,0-.91.9,2.44,2.44,0,0,0-.34,1.31,2.56,2.56,0,0,0,.33,1.3,2.61,2.61,0,0,0,.9.91,2.39,2.39,0,0,0,1.27.34,2.37,2.37,0,0,0,.72-.1,1.86,1.86,0,0,0,.55-.24l.35-.21.57-.36a1.09,1.09,0,0,1,.56-.16,1.25,1.25,0,0,1,.73.26,4.38,4.38,0,0,1,.81.84,2,2,0,0,1,.49,1,1.26,1.26,0,0,1-.21.87,2.67,2.67,0,0,1-.85.76,4.27,4.27,0,0,1-.71.45,7.55,7.55,0,0,1-1.25.5A5.77,5.77,0,0,1,188.25,35Z"/><path class="cls-2" d="M201.4,35.11a7.28,7.28,0,0,1-3-.57A5.86,5.86,0,0,1,196.33,33a6.57,6.57,0,0,1-1.2-2.08,6.92,6.92,0,0,1-.4-2.3,6.54,6.54,0,0,1,.85-3.33A6.14,6.14,0,0,1,198,23a7.11,7.11,0,0,1,3.46-.83,6.22,6.22,0,0,1,2.51.46,5.23,5.23,0,0,1,1.75,1.2,5.34,5.34,0,0,1,1,1.59,4.51,4.51,0,0,1,.33,1.63,2.84,2.84,0,0,1-.66,2.05,2.27,2.27,0,0,1-1.69.67h-6a1.76,1.76,0,0,0,.46,1.07,2.73,2.73,0,0,0,1,.7,3.5,3.5,0,0,0,1.33.25,8.05,8.05,0,0,0,1-.06,4.49,4.49,0,0,0,.79-.17l.59-.23.48-.18a1.89,1.89,0,0,1,.43-.1,1,1,0,0,1,.68.21,2.22,2.22,0,0,1,.57.71,1.75,1.75,0,0,1,.24.53,2.07,2.07,0,0,1,.06.5,1.35,1.35,0,0,1-.61,1.08,4.73,4.73,0,0,1-1.73.74A11,11,0,0,1,201.4,35.11Zm-2.67-7.4h4a1.06,1.06,0,0,0,.58-.14.62.62,0,0,0,.2-.54,1.18,1.18,0,0,0-.28-.77,1.67,1.67,0,0,0-.73-.54,2.83,2.83,0,0,0-1.09-.19,3,3,0,0,0-1.35.3,2.47,2.47,0,0,0-.94.8A1.91,1.91,0,0,0,198.73,27.71Z"/><path class="cls-2" d="M211,34.89a2.41,2.41,0,0,1-1.31-.26,1,1,0,0,1-.47-.71,4.73,4.73,0,0,1-.09-.93V24.27a4.59,4.59,0,0,1,.09-.93,1,1,0,0,1,.49-.68,2.46,2.46,0,0,1,1.32-.27,2.63,2.63,0,0,1,1.27.24,1,1,0,0,1,.48.55,1.73,1.73,0,0,1,.1.54l-.3.15a2.87,2.87,0,0,1,.27-.36,3.1,3.1,0,0,1,.58-.55,3.79,3.79,0,0,1,.92-.49,3.62,3.62,0,0,1,1.24-.2c.18,0,.38,0,.61,0a4.89,4.89,0,0,1,.7.15,3.32,3.32,0,0,1,.66.3,1.8,1.8,0,0,1,.49.46,1.23,1.23,0,0,1,.18.68,3.14,3.14,0,0,1-.47,1.74,1.42,1.42,0,0,1-1.2.71,2,2,0,0,1-.6-.06,1.92,1.92,0,0,1-.29-.15,1.28,1.28,0,0,0-.26-.16,1.72,1.72,0,0,0-.55-.06,2.71,2.71,0,0,0-.71.1,2.06,2.06,0,0,0-.63.31,1.63,1.63,0,0,0-.45.53,1.51,1.51,0,0,0-.16.71v5.48a5.4,5.4,0,0,1-.08.91,1.07,1.07,0,0,1-.49.69A2.73,2.73,0,0,1,211,34.89Z"/><path class="cls-2" d="M222.08,34.9a2.45,2.45,0,0,1-1.31-.26,1.09,1.09,0,0,1-.48-.71,4.73,4.73,0,0,1-.09-.93V24.28a4.45,4.45,0,0,1,.09-.93,1.07,1.07,0,0,1,.48-.69,2.59,2.59,0,0,1,1.33-.26,2.5,2.5,0,0,1,1.26.24,1.06,1.06,0,0,1,.49.55,1.73,1.73,0,0,1,.1.54l-.3.15a2,2,0,0,1,.26-.36,3.2,3.2,0,0,1,.59-.55,3.14,3.14,0,0,1,.91-.49,3.62,3.62,0,0,1,1.24-.2,4.55,4.55,0,0,1,.61,0,3,3,0,0,1,.7.15,2.47,2.47,0,0,1,.66.3,1.55,1.55,0,0,1,.49.46,1.14,1.14,0,0,1,.19.68,3,3,0,0,1-.48,1.73,1.39,1.39,0,0,1-1.2.71,2.11,2.11,0,0,1-.6-.06.92.92,0,0,1-.28-.15,1.17,1.17,0,0,0-.27-.15,1.68,1.68,0,0,0-.55-.06,2.34,2.34,0,0,0-.71.1,2.12,2.12,0,0,0-.62.31,1.46,1.46,0,0,0-.46.53,1.58,1.58,0,0,0-.16.71v5.47a4.63,4.63,0,0,1-.09.92,1,1,0,0,1-.49.68A2.56,2.56,0,0,1,222.08,34.9Z"/><path class="cls-2" d="M241.48,34.89a2.34,2.34,0,0,1-1.38-.33.88.88,0,0,1-.42-.8l.25-.42a2.8,2.8,0,0,1-.58.61,4.11,4.11,0,0,1-1.11.65,4.33,4.33,0,0,1-1.66.29,4.89,4.89,0,0,1-2.19-.51A6,6,0,0,1,232.55,33a7.41,7.41,0,0,1-1.27-2,6,6,0,0,1-.47-2.37,5.82,5.82,0,0,1,.47-2.34,6.72,6.72,0,0,1,1.29-2,6.4,6.4,0,0,1,1.84-1.37,4.79,4.79,0,0,1,2.17-.49,4.12,4.12,0,0,1,1.58.26,4.5,4.5,0,0,1,1.09.61,3.45,3.45,0,0,1,.66.68l-.23-.35a1,1,0,0,1,.44-.91,2.42,2.42,0,0,1,1.39-.32,2.33,2.33,0,0,1,1.29.28,1.1,1.1,0,0,1,.47.72,4.86,4.86,0,0,1,.09.95V33a5.52,5.52,0,0,1-.08.92,1.11,1.11,0,0,1-.48.72A2.5,2.5,0,0,1,241.48,34.89Zm-4.38-3.73a2.13,2.13,0,0,0,1.2-.34,2.41,2.41,0,0,0,.85-.91,2.51,2.51,0,0,0,.33-1.27,2.6,2.6,0,0,0-.32-1.29,2.5,2.5,0,0,0-.88-.89,2.29,2.29,0,0,0-1.22-.32,2.48,2.48,0,0,0-1.27.33,2.64,2.64,0,0,0-.9.92,2.53,2.53,0,0,0-.33,1.29,2.4,2.4,0,0,0,.33,1.24,2.51,2.51,0,0,0,.93.9A2.48,2.48,0,0,0,237.1,31.16Z"/><path class="cls-2" d="M251.2,34.89A4.89,4.89,0,0,1,249,34.4,5.72,5.72,0,0,1,247.2,33a6.7,6.7,0,0,1-1.26-2,6.3,6.3,0,0,1-.46-2.41,6.18,6.18,0,0,1,.46-2.34,6.67,6.67,0,0,1,1.28-2,6.42,6.42,0,0,1,1.84-1.36,4.88,4.88,0,0,1,2.15-.5,4.47,4.47,0,0,1,2.11.49,4.58,4.58,0,0,1,1.53,1.34,6.46,6.46,0,0,1,.93,2,9.08,9.08,0,0,1,.35,2.35,9.28,9.28,0,0,1-.3,2.4,6.12,6.12,0,0,1-.93,2,4.56,4.56,0,0,1-1.55,1.38A4.38,4.38,0,0,1,251.2,34.89Zm.5-3.7a2.3,2.3,0,0,0,1.22-.33,2.71,2.71,0,0,0,.87-.91,2.45,2.45,0,0,0,.34-1.28,2.51,2.51,0,0,0-.32-1.26,2.45,2.45,0,0,0-.88-.9,2.3,2.3,0,0,0-1.25-.34,2.52,2.52,0,0,0-1.24.32,2.35,2.35,0,0,0-.87.9,2.63,2.63,0,0,0-.31,1.28,2.49,2.49,0,0,0,1.22,2.19A2.4,2.4,0,0,0,251.7,31.19Zm4.35,3.73a2.31,2.31,0,0,1-1.26-.27,1.34,1.34,0,0,1-.54-.85V18.65a6.88,6.88,0,0,1,.06-.92,1.09,1.09,0,0,1,.44-.71,2.28,2.28,0,0,1,1.28-.27,2.47,2.47,0,0,1,1.32.26,1.16,1.16,0,0,1,.48.69,4.4,4.4,0,0,1,.1.92V33a4.63,4.63,0,0,1-.09.92,1.12,1.12,0,0,1-.48.71A2.37,2.37,0,0,1,256.05,34.92Z"/><path class="cls-2" d="M266.45,35.13a6.3,6.3,0,0,1-2.34-.47A7,7,0,0,1,262,33.35a6.53,6.53,0,0,1-1.51-2,6.47,6.47,0,0,1-.05-5.15,7,7,0,0,1,1.42-2.06,6.75,6.75,0,0,1,2.06-1.41,6.13,6.13,0,0,1,2.49-.51,6.33,6.33,0,0,1,3.26.86A6.64,6.64,0,0,1,272,25.38a6.71,6.71,0,0,1,.31,6,6.5,6.5,0,0,1-3.58,3.32A6.38,6.38,0,0,1,266.45,35.13Zm-.05-3.78a2.85,2.85,0,0,0,1.23-.3,2.53,2.53,0,0,0,1.47-2.42,2.77,2.77,0,0,0-.34-1.4,2.58,2.58,0,0,0-1-.94,2.88,2.88,0,0,0-1.41-.34,2.63,2.63,0,0,0-1.34.35,2.91,2.91,0,0,0-1,1,2.72,2.72,0,0,0-.36,1.39,2.66,2.66,0,0,0,.41,1.51,2.49,2.49,0,0,0,1,.9A2.79,2.79,0,0,0,266.4,31.35Z"/><path class="cls-3" d="M113.18,34.84a2.46,2.46,0,0,1-1.33-.28,1.11,1.11,0,0,1-.48-.72,4.73,4.73,0,0,1-.09-.93V19.26a3.85,3.85,0,0,1,.1-.91,1.15,1.15,0,0,1,.5-.71,2.37,2.37,0,0,1,1.33-.28h5.12a6.39,6.39,0,0,1,2.1.38,5.94,5.94,0,0,1,4,5.8,6.06,6.06,0,0,1-.56,2.69,5.87,5.87,0,0,1-1.48,1.91,6.15,6.15,0,0,1-2,1.15,6.36,6.36,0,0,1-2.12.37h-3.2v3.28a4.53,4.53,0,0,1-.1.91,1.19,1.19,0,0,1-.5.71A2.37,2.37,0,0,1,113.18,34.84Zm1.93-9h3.23a2.63,2.63,0,0,0,1.08-.23,2.12,2.12,0,0,0,.9-.76,2.59,2.59,0,0,0,.05-2.58,2.11,2.11,0,0,0-.83-.82,2.44,2.44,0,0,0-1.23-.31h-3.2Z"/><path class="cls-3" d="M132.78,35.07a7.25,7.25,0,0,1-3-.57A5.86,5.86,0,0,1,127.71,33a6.16,6.16,0,0,1-1.2-2.09,6.83,6.83,0,0,1-.4-2.3,6.41,6.41,0,0,1,.85-3.32A6.18,6.18,0,0,1,129.32,23a7.15,7.15,0,0,1,3.47-.83,6.25,6.25,0,0,1,2.51.46,5.23,5.23,0,0,1,1.75,1.2,5,5,0,0,1,1,1.59,4.33,4.33,0,0,1,.34,1.63,2.84,2.84,0,0,1-.66,2,2.28,2.28,0,0,1-1.69.67h-5.95a1.71,1.71,0,0,0,.46,1.07,2.66,2.66,0,0,0,1,.7,3.41,3.41,0,0,0,1.32.25,8.22,8.22,0,0,0,1-.06,4.49,4.49,0,0,0,.79-.17c.21-.08.41-.15.58-.23a5.09,5.09,0,0,1,.49-.18,1.41,1.41,0,0,1,.43-.1,1,1,0,0,1,.67.21,2.11,2.11,0,0,1,.58.71,2,2,0,0,1,.23.53,2.08,2.08,0,0,1,.07.5,1.33,1.33,0,0,1-.62,1.08,4.68,4.68,0,0,1-1.72.74A11.56,11.56,0,0,1,132.78,35.07Zm-2.67-7.4h3.95a1,1,0,0,0,.57-.13c.14-.09.2-.27.2-.54a1.23,1.23,0,0,0-.27-.77,1.64,1.64,0,0,0-.74-.54,2.8,2.8,0,0,0-1.09-.19,2.91,2.91,0,0,0-1.34.3,2.25,2.25,0,0,0-.94.8A1.84,1.84,0,0,0,130.11,27.67Z"/><path class="cls-3" d="M142.51,20.55a2.53,2.53,0,0,1-1.35-.27,1.12,1.12,0,0,1-.48-.73,5.11,5.11,0,0,1,0-1.91,1,1,0,0,1,.5-.7,2.69,2.69,0,0,1,1.36-.26,2.31,2.31,0,0,1,1.32.28,1.09,1.09,0,0,1,.49.72,5,5,0,0,1,.09,1,4.73,4.73,0,0,1-.09.93,1.05,1.05,0,0,1-.49.71A2.5,2.5,0,0,1,142.51,20.55Zm0,14.3a2.45,2.45,0,0,1-1.32-.26,1,1,0,0,1-.48-.7,5.33,5.33,0,0,1-.07-.91V24.25a4.53,4.53,0,0,1,.08-.91,1.06,1.06,0,0,1,.49-.7,2.59,2.59,0,0,1,1.33-.26,2.28,2.28,0,0,1,1.28.27,1.17,1.17,0,0,1,.48.72,4.62,4.62,0,0,1,.09.94V33a4.53,4.53,0,0,1-.09.91,1,1,0,0,1-.47.68A2.53,2.53,0,0,1,142.5,34.85Z"/><path class="cls-3" d="M148.93,34.83a2.45,2.45,0,0,1-1.31-.26,1.1,1.1,0,0,1-.48-.7,4.53,4.53,0,0,1-.09-.91v-8.8a4.13,4.13,0,0,1,.09-.89,1,1,0,0,1,.49-.66,3.52,3.52,0,0,1,2.5,0,1,1,0,0,1,.48.51,1.54,1.54,0,0,1,.12.57,1,1,0,0,0,0,.36l-.14.47a1.48,1.48,0,0,1,.38-.76,3.74,3.74,0,0,1,.85-.7,4.32,4.32,0,0,1,1.1-.48,4,4,0,0,1,1.17-.18,5,5,0,0,1,2.13.44,4.24,4.24,0,0,1,1.59,1.26,6,6,0,0,1,1,1.94,8.57,8.57,0,0,1,.33,2.44V33a4.46,4.46,0,0,1-.09.91,1.08,1.08,0,0,1-.47.69,2.7,2.7,0,0,1-1.34.25,2.47,2.47,0,0,1-1.33-.27,1,1,0,0,1-.48-.7,4.46,4.46,0,0,1-.09-.91V28.44a2.78,2.78,0,0,0-.26-1.28,1.81,1.81,0,0,0-.75-.8,2.46,2.46,0,0,0-1.21-.27,2.59,2.59,0,0,0-1.25.28,2,2,0,0,0-.81.81,2.48,2.48,0,0,0-.29,1.25V33a5.52,5.52,0,0,1-.08.92,1,1,0,0,1-.48.68A2.49,2.49,0,0,1,148.93,34.83Z"/><path class="cls-3" d="M167.83,35.09a7.25,7.25,0,0,1-3-.57A5.9,5.9,0,0,1,162.75,33a6.36,6.36,0,0,1-1.19-2.08,6.92,6.92,0,0,1-.4-2.3,6.45,6.45,0,0,1,.85-3.33A6.11,6.11,0,0,1,164.37,23a7.15,7.15,0,0,1,3.47-.83,6.25,6.25,0,0,1,2.51.46,5.23,5.23,0,0,1,1.75,1.2,5.11,5.11,0,0,1,1,1.59,4.33,4.33,0,0,1,.34,1.63,2.8,2.8,0,0,1-.67,2.05,2.25,2.25,0,0,1-1.68.67h-6a1.71,1.71,0,0,0,.46,1.07,2.66,2.66,0,0,0,1,.7,3.41,3.41,0,0,0,1.32.25,8.22,8.22,0,0,0,1-.06,4.49,4.49,0,0,0,.79-.17c.21-.08.41-.15.58-.23l.49-.18a1.78,1.78,0,0,1,.43-.1,1,1,0,0,1,.67.21,2.11,2.11,0,0,1,.58.71,2,2,0,0,1,.23.53,2.07,2.07,0,0,1,.06.5,1.32,1.32,0,0,1-.61,1.08,4.68,4.68,0,0,1-1.72.74A11.1,11.1,0,0,1,167.83,35.09Zm-2.67-7.4h4a1,1,0,0,0,.57-.13c.14-.09.2-.27.2-.54a1.23,1.23,0,0,0-.27-.77,1.64,1.64,0,0,0-.74-.54,2.8,2.8,0,0,0-1.09-.19,3,3,0,0,0-1.35.3,2.28,2.28,0,0,0-.93.8A1.84,1.84,0,0,0,165.16,27.69Z"/><path class="cls-3" d="M188.25,35a6.59,6.59,0,0,1-2.23-.41,7,7,0,0,1-2.1-1.22,5.68,5.68,0,0,1-1.54-2,6.32,6.32,0,0,1-.57-2.75,6.15,6.15,0,0,1,.57-2.72,6.26,6.26,0,0,1,1.53-2A7,7,0,0,1,186,22.69a6.57,6.57,0,0,1,2.21-.41,6,6,0,0,1,1.66.21,5.88,5.88,0,0,1,1.25.52,3.91,3.91,0,0,1,.74.52c.28.22.53.44.75.65a1.05,1.05,0,0,1,.3.85,1.64,1.64,0,0,1-.18.57,4.29,4.29,0,0,1-.37.58c-.52.7-1,1-1.5.95a2.27,2.27,0,0,1-.69-.25c-.21-.11-.41-.23-.6-.35a5.81,5.81,0,0,0-.61-.31,2,2,0,0,0-.75-.14,2.47,2.47,0,0,0-1.3.34,2.38,2.38,0,0,0-.91.9,2.44,2.44,0,0,0-.34,1.31,2.56,2.56,0,0,0,.33,1.3,2.61,2.61,0,0,0,.9.91,2.39,2.39,0,0,0,1.27.34,2.37,2.37,0,0,0,.72-.1,1.86,1.86,0,0,0,.55-.24l.35-.21.57-.36a1.09,1.09,0,0,1,.56-.16,1.25,1.25,0,0,1,.73.26,4.38,4.38,0,0,1,.81.84,2,2,0,0,1,.49,1,1.26,1.26,0,0,1-.21.87,2.67,2.67,0,0,1-.85.76,4.27,4.27,0,0,1-.71.45,7.55,7.55,0,0,1-1.25.5A5.77,5.77,0,0,1,188.25,35Z"/><path class="cls-3" d="M201.4,35.11a7.28,7.28,0,0,1-3-.57A5.86,5.86,0,0,1,196.33,33a6.57,6.57,0,0,1-1.2-2.08,6.92,6.92,0,0,1-.4-2.3,6.54,6.54,0,0,1,.85-3.33A6.14,6.14,0,0,1,198,23a7.11,7.11,0,0,1,3.46-.83,6.22,6.22,0,0,1,2.51.46,5.23,5.23,0,0,1,1.75,1.2,5.34,5.34,0,0,1,1,1.59,4.51,4.51,0,0,1,.33,1.63,2.84,2.84,0,0,1-.66,2.05,2.27,2.27,0,0,1-1.69.67h-6a1.76,1.76,0,0,0,.46,1.07,2.73,2.73,0,0,0,1,.7,3.5,3.5,0,0,0,1.33.25,8.05,8.05,0,0,0,1-.06,4.49,4.49,0,0,0,.79-.17l.59-.23.48-.18a1.89,1.89,0,0,1,.43-.1,1,1,0,0,1,.68.21,2.22,2.22,0,0,1,.57.71,1.75,1.75,0,0,1,.24.53,2.07,2.07,0,0,1,.06.5,1.35,1.35,0,0,1-.61,1.08,4.73,4.73,0,0,1-1.73.74A11,11,0,0,1,201.4,35.11Zm-2.67-7.4h4a1.06,1.06,0,0,0,.58-.14.62.62,0,0,0,.2-.54,1.18,1.18,0,0,0-.28-.77,1.67,1.67,0,0,0-.73-.54,2.83,2.83,0,0,0-1.09-.19,3,3,0,0,0-1.35.3,2.47,2.47,0,0,0-.94.8A1.91,1.91,0,0,0,198.73,27.71Z"/><path class="cls-3" d="M211,34.89a2.41,2.41,0,0,1-1.31-.26,1,1,0,0,1-.47-.71,4.73,4.73,0,0,1-.09-.93V24.27a4.59,4.59,0,0,1,.09-.93,1,1,0,0,1,.49-.68,2.46,2.46,0,0,1,1.32-.27,2.63,2.63,0,0,1,1.27.24,1,1,0,0,1,.48.55,1.73,1.73,0,0,1,.1.54l-.3.15a2.87,2.87,0,0,1,.27-.36,3.1,3.1,0,0,1,.58-.55,3.79,3.79,0,0,1,.92-.49,3.62,3.62,0,0,1,1.24-.2c.18,0,.38,0,.61,0a4.89,4.89,0,0,1,.7.15,3.32,3.32,0,0,1,.66.3,1.8,1.8,0,0,1,.49.46,1.23,1.23,0,0,1,.18.68,3.14,3.14,0,0,1-.47,1.74,1.42,1.42,0,0,1-1.2.71,2,2,0,0,1-.6-.06,1.92,1.92,0,0,1-.29-.15,1.28,1.28,0,0,0-.26-.16,1.72,1.72,0,0,0-.55-.06,2.71,2.71,0,0,0-.71.1,2.06,2.06,0,0,0-.63.31,1.63,1.63,0,0,0-.45.53,1.51,1.51,0,0,0-.16.71v5.48a5.4,5.4,0,0,1-.08.91,1.07,1.07,0,0,1-.49.69A2.73,2.73,0,0,1,211,34.89Z"/><path class="cls-3" d="M222.08,34.9a2.45,2.45,0,0,1-1.31-.26,1.09,1.09,0,0,1-.48-.71,4.73,4.73,0,0,1-.09-.93V24.28a4.45,4.45,0,0,1,.09-.93,1.07,1.07,0,0,1,.48-.69,2.59,2.59,0,0,1,1.33-.26,2.5,2.5,0,0,1,1.26.24,1.06,1.06,0,0,1,.49.55,1.73,1.73,0,0,1,.1.54l-.3.15a2,2,0,0,1,.26-.36,3.2,3.2,0,0,1,.59-.55,3.14,3.14,0,0,1,.91-.49,3.62,3.62,0,0,1,1.24-.2,4.55,4.55,0,0,1,.61,0,3,3,0,0,1,.7.15,2.47,2.47,0,0,1,.66.3,1.55,1.55,0,0,1,.49.46,1.14,1.14,0,0,1,.19.68,3,3,0,0,1-.48,1.73,1.39,1.39,0,0,1-1.2.71,2.11,2.11,0,0,1-.6-.06.92.92,0,0,1-.28-.15,1.17,1.17,0,0,0-.27-.15,1.68,1.68,0,0,0-.55-.06,2.34,2.34,0,0,0-.71.1,2.12,2.12,0,0,0-.62.31,1.46,1.46,0,0,0-.46.53,1.58,1.58,0,0,0-.16.71v5.47a4.63,4.63,0,0,1-.09.92,1,1,0,0,1-.49.68A2.56,2.56,0,0,1,222.08,34.9Z"/><path class="cls-3" d="M241.48,34.89a2.34,2.34,0,0,1-1.38-.33.88.88,0,0,1-.42-.8l.25-.42a2.8,2.8,0,0,1-.58.61,4.11,4.11,0,0,1-1.11.65,4.33,4.33,0,0,1-1.66.29,4.89,4.89,0,0,1-2.19-.51A6,6,0,0,1,232.55,33a7.41,7.41,0,0,1-1.27-2,6,6,0,0,1-.47-2.37,5.82,5.82,0,0,1,.47-2.34,6.72,6.72,0,0,1,1.29-2,6.4,6.4,0,0,1,1.84-1.37,4.79,4.79,0,0,1,2.17-.49,4.12,4.12,0,0,1,1.58.26,4.5,4.5,0,0,1,1.09.61,3.45,3.45,0,0,1,.66.68l-.23-.35a1,1,0,0,1,.44-.91,2.42,2.42,0,0,1,1.39-.32,2.33,2.33,0,0,1,1.29.28,1.1,1.1,0,0,1,.47.72,4.86,4.86,0,0,1,.09.95V33a5.52,5.52,0,0,1-.08.92,1.11,1.11,0,0,1-.48.72A2.5,2.5,0,0,1,241.48,34.89Zm-4.38-3.73a2.13,2.13,0,0,0,1.2-.34,2.41,2.41,0,0,0,.85-.91,2.51,2.51,0,0,0,.33-1.27,2.6,2.6,0,0,0-.32-1.29,2.5,2.5,0,0,0-.88-.89,2.29,2.29,0,0,0-1.22-.32,2.48,2.48,0,0,0-1.27.33,2.64,2.64,0,0,0-.9.92,2.53,2.53,0,0,0-.33,1.29,2.4,2.4,0,0,0,.33,1.24,2.51,2.51,0,0,0,.93.9A2.48,2.48,0,0,0,237.1,31.16Z"/><path class="cls-3" d="M251.2,34.89A4.89,4.89,0,0,1,249,34.4,5.72,5.72,0,0,1,247.2,33a6.7,6.7,0,0,1-1.26-2,6.3,6.3,0,0,1-.46-2.41,6.18,6.18,0,0,1,.46-2.34,6.67,6.67,0,0,1,1.28-2,6.42,6.42,0,0,1,1.84-1.36,4.88,4.88,0,0,1,2.15-.5,4.47,4.47,0,0,1,2.11.49,4.58,4.58,0,0,1,1.53,1.34,6.46,6.46,0,0,1,.93,2,9.08,9.08,0,0,1,.35,2.35,9.28,9.28,0,0,1-.3,2.4,6.12,6.12,0,0,1-.93,2,4.56,4.56,0,0,1-1.55,1.38A4.38,4.38,0,0,1,251.2,34.89Zm.5-3.7a2.3,2.3,0,0,0,1.22-.33,2.71,2.71,0,0,0,.87-.91,2.45,2.45,0,0,0,.34-1.28,2.51,2.51,0,0,0-.32-1.26,2.45,2.45,0,0,0-.88-.9,2.3,2.3,0,0,0-1.25-.34,2.52,2.52,0,0,0-1.24.32,2.35,2.35,0,0,0-.87.9,2.63,2.63,0,0,0-.31,1.28,2.49,2.49,0,0,0,1.22,2.19A2.4,2.4,0,0,0,251.7,31.19Zm4.35,3.73a2.31,2.31,0,0,1-1.26-.27,1.34,1.34,0,0,1-.54-.85V18.65a6.88,6.88,0,0,1,.06-.92,1.09,1.09,0,0,1,.44-.71,2.28,2.28,0,0,1,1.28-.27,2.47,2.47,0,0,1,1.32.26,1.16,1.16,0,0,1,.48.69,4.4,4.4,0,0,1,.1.92V33a4.63,4.63,0,0,1-.09.92,1.12,1.12,0,0,1-.48.71A2.37,2.37,0,0,1,256.05,34.92Z"/><path class="cls-3" d="M266.45,35.13a6.3,6.3,0,0,1-2.34-.47A7,7,0,0,1,262,33.35a6.53,6.53,0,0,1-1.51-2,6.47,6.47,0,0,1-.05-5.15,7,7,0,0,1,1.42-2.06,6.75,6.75,0,0,1,2.06-1.41,6.13,6.13,0,0,1,2.49-.51,6.33,6.33,0,0,1,3.26.86A6.64,6.64,0,0,1,272,25.38a6.71,6.71,0,0,1,.31,6,6.5,6.5,0,0,1-3.58,3.32A6.38,6.38,0,0,1,266.45,35.13Zm-.05-3.78a2.85,2.85,0,0,0,1.23-.3,2.53,2.53,0,0,0,1.47-2.42,2.77,2.77,0,0,0-.34-1.4,2.58,2.58,0,0,0-1-.94,2.88,2.88,0,0,0-1.41-.34,2.63,2.63,0,0,0-1.34.35,2.91,2.91,0,0,0-1,1,2.72,2.72,0,0,0-.36,1.39,2.66,2.66,0,0,0,.41,1.51,2.49,2.49,0,0,0,1,.9A2.79,2.79,0,0,0,266.4,31.35Z"/><path class="cls-2" d="M113.18,34.84a2.46,2.46,0,0,1-1.33-.28,1.11,1.11,0,0,1-.48-.72,4.73,4.73,0,0,1-.09-.93V19.26a3.85,3.85,0,0,1,.1-.91,1.15,1.15,0,0,1,.5-.71,2.37,2.37,0,0,1,1.33-.28h5.12a6.39,6.39,0,0,1,2.1.38,5.94,5.94,0,0,1,4,5.8,6.06,6.06,0,0,1-.56,2.69,5.87,5.87,0,0,1-1.48,1.91,6.15,6.15,0,0,1-2,1.15,6.36,6.36,0,0,1-2.12.37h-3.2v3.28a4.53,4.53,0,0,1-.1.91,1.19,1.19,0,0,1-.5.71A2.37,2.37,0,0,1,113.18,34.84Zm1.93-9h3.23a2.63,2.63,0,0,0,1.08-.23,2.12,2.12,0,0,0,.9-.76,2.59,2.59,0,0,0,.05-2.58,2.11,2.11,0,0,0-.83-.82,2.44,2.44,0,0,0-1.23-.31h-3.2Z"/><path class="cls-2" d="M132.78,35.07a7.25,7.25,0,0,1-3-.57A5.86,5.86,0,0,1,127.71,33a6.16,6.16,0,0,1-1.2-2.09,6.83,6.83,0,0,1-.4-2.3,6.41,6.41,0,0,1,.85-3.32A6.18,6.18,0,0,1,129.32,23a7.15,7.15,0,0,1,3.47-.83,6.25,6.25,0,0,1,2.51.46,5.23,5.23,0,0,1,1.75,1.2,5,5,0,0,1,1,1.59,4.33,4.33,0,0,1,.34,1.63,2.84,2.84,0,0,1-.66,2,2.28,2.28,0,0,1-1.69.67h-5.95a1.71,1.71,0,0,0,.46,1.07,2.66,2.66,0,0,0,1,.7,3.41,3.41,0,0,0,1.32.25,8.22,8.22,0,0,0,1-.06,4.49,4.49,0,0,0,.79-.17c.21-.08.41-.15.58-.23a5.09,5.09,0,0,1,.49-.18,1.41,1.41,0,0,1,.43-.1,1,1,0,0,1,.67.21,2.11,2.11,0,0,1,.58.71,2,2,0,0,1,.23.53,2.08,2.08,0,0,1,.07.5,1.33,1.33,0,0,1-.62,1.08,4.68,4.68,0,0,1-1.72.74A11.56,11.56,0,0,1,132.78,35.07Zm-2.67-7.4h3.95a1,1,0,0,0,.57-.13c.14-.09.2-.27.2-.54a1.23,1.23,0,0,0-.27-.77,1.64,1.64,0,0,0-.74-.54,2.8,2.8,0,0,0-1.09-.19,2.91,2.91,0,0,0-1.34.3,2.25,2.25,0,0,0-.94.8A1.84,1.84,0,0,0,130.11,27.67Z"/><path class="cls-2" d="M142.51,20.55a2.53,2.53,0,0,1-1.35-.27,1.12,1.12,0,0,1-.48-.73,5.11,5.11,0,0,1,0-1.91,1,1,0,0,1,.5-.7,2.69,2.69,0,0,1,1.36-.26,2.31,2.31,0,0,1,1.32.28,1.09,1.09,0,0,1,.49.72,5,5,0,0,1,.09,1,4.73,4.73,0,0,1-.09.93,1.05,1.05,0,0,1-.49.71A2.5,2.5,0,0,1,142.51,20.55Zm0,14.3a2.45,2.45,0,0,1-1.32-.26,1,1,0,0,1-.48-.7,5.33,5.33,0,0,1-.07-.91V24.25a4.53,4.53,0,0,1,.08-.91,1.06,1.06,0,0,1,.49-.7,2.59,2.59,0,0,1,1.33-.26,2.28,2.28,0,0,1,1.28.27,1.17,1.17,0,0,1,.48.72,4.62,4.62,0,0,1,.09.94V33a4.53,4.53,0,0,1-.09.91,1,1,0,0,1-.47.68A2.53,2.53,0,0,1,142.5,34.85Z"/><path class="cls-2" d="M148.93,34.83a2.45,2.45,0,0,1-1.31-.26,1.1,1.1,0,0,1-.48-.7,4.53,4.53,0,0,1-.09-.91v-8.8a4.13,4.13,0,0,1,.09-.89,1,1,0,0,1,.49-.66,3.52,3.52,0,0,1,2.5,0,1,1,0,0,1,.48.51,1.54,1.54,0,0,1,.12.57,1,1,0,0,0,0,.36l-.14.47a1.48,1.48,0,0,1,.38-.76,3.74,3.74,0,0,1,.85-.7,4.32,4.32,0,0,1,1.1-.48,4,4,0,0,1,1.17-.18,5,5,0,0,1,2.13.44,4.24,4.24,0,0,1,1.59,1.26,6,6,0,0,1,1,1.94,8.57,8.57,0,0,1,.33,2.44V33a4.46,4.46,0,0,1-.09.91,1.08,1.08,0,0,1-.47.69,2.7,2.7,0,0,1-1.34.25,2.47,2.47,0,0,1-1.33-.27,1,1,0,0,1-.48-.7,4.46,4.46,0,0,1-.09-.91V28.44a2.78,2.78,0,0,0-.26-1.28,1.81,1.81,0,0,0-.75-.8,2.46,2.46,0,0,0-1.21-.27,2.59,2.59,0,0,0-1.25.28,2,2,0,0,0-.81.81,2.48,2.48,0,0,0-.29,1.25V33a5.52,5.52,0,0,1-.08.92,1,1,0,0,1-.48.68A2.49,2.49,0,0,1,148.93,34.83Z"/><path class="cls-2" d="M167.83,35.09a7.25,7.25,0,0,1-3-.57A5.9,5.9,0,0,1,162.75,33a6.36,6.36,0,0,1-1.19-2.08,6.92,6.92,0,0,1-.4-2.3,6.45,6.45,0,0,1,.85-3.33A6.11,6.11,0,0,1,164.37,23a7.15,7.15,0,0,1,3.47-.83,6.25,6.25,0,0,1,2.51.46,5.23,5.23,0,0,1,1.75,1.2,5.11,5.11,0,0,1,1,1.59,4.33,4.33,0,0,1,.34,1.63,2.8,2.8,0,0,1-.67,2.05,2.25,2.25,0,0,1-1.68.67h-6a1.71,1.71,0,0,0,.46,1.07,2.66,2.66,0,0,0,1,.7,3.41,3.41,0,0,0,1.32.25,8.22,8.22,0,0,0,1-.06,4.49,4.49,0,0,0,.79-.17c.21-.08.41-.15.58-.23l.49-.18a1.78,1.78,0,0,1,.43-.1,1,1,0,0,1,.67.21,2.11,2.11,0,0,1,.58.71,2,2,0,0,1,.23.53,2.07,2.07,0,0,1,.06.5,1.32,1.32,0,0,1-.61,1.08,4.68,4.68,0,0,1-1.72.74A11.1,11.1,0,0,1,167.83,35.09Zm-2.67-7.4h4a1,1,0,0,0,.57-.13c.14-.09.2-.27.2-.54a1.23,1.23,0,0,0-.27-.77,1.64,1.64,0,0,0-.74-.54,2.8,2.8,0,0,0-1.09-.19,3,3,0,0,0-1.35.3,2.28,2.28,0,0,0-.93.8A1.84,1.84,0,0,0,165.16,27.69Z"/><path class="cls-2" d="M188.25,35a6.59,6.59,0,0,1-2.23-.41,7,7,0,0,1-2.1-1.22,5.68,5.68,0,0,1-1.54-2,6.32,6.32,0,0,1-.57-2.75,6.15,6.15,0,0,1,.57-2.72,6.26,6.26,0,0,1,1.53-2A7,7,0,0,1,186,22.69a6.57,6.57,0,0,1,2.21-.41,6,6,0,0,1,1.66.21,5.88,5.88,0,0,1,1.25.52,3.91,3.91,0,0,1,.74.52c.28.22.53.44.75.65a1.05,1.05,0,0,1,.3.85,1.64,1.64,0,0,1-.18.57,4.29,4.29,0,0,1-.37.58c-.52.7-1,1-1.5.95a2.27,2.27,0,0,1-.69-.25c-.21-.11-.41-.23-.6-.35a5.81,5.81,0,0,0-.61-.31,2,2,0,0,0-.75-.14,2.47,2.47,0,0,0-1.3.34,2.38,2.38,0,0,0-.91.9,2.44,2.44,0,0,0-.34,1.31,2.56,2.56,0,0,0,.33,1.3,2.61,2.61,0,0,0,.9.91,2.39,2.39,0,0,0,1.27.34,2.37,2.37,0,0,0,.72-.1,1.86,1.86,0,0,0,.55-.24l.35-.21.57-.36a1.09,1.09,0,0,1,.56-.16,1.25,1.25,0,0,1,.73.26,4.38,4.38,0,0,1,.81.84,2,2,0,0,1,.49,1,1.26,1.26,0,0,1-.21.87,2.67,2.67,0,0,1-.85.76,4.27,4.27,0,0,1-.71.45,7.55,7.55,0,0,1-1.25.5A5.77,5.77,0,0,1,188.25,35Z"/><path class="cls-2" d="M201.4,35.11a7.28,7.28,0,0,1-3-.57A5.86,5.86,0,0,1,196.33,33a6.57,6.57,0,0,1-1.2-2.08,6.92,6.92,0,0,1-.4-2.3,6.54,6.54,0,0,1,.85-3.33A6.14,6.14,0,0,1,198,23a7.11,7.11,0,0,1,3.46-.83,6.22,6.22,0,0,1,2.51.46,5.23,5.23,0,0,1,1.75,1.2,5.34,5.34,0,0,1,1,1.59,4.51,4.51,0,0,1,.33,1.63,2.84,2.84,0,0,1-.66,2.05,2.27,2.27,0,0,1-1.69.67h-6a1.76,1.76,0,0,0,.46,1.07,2.73,2.73,0,0,0,1,.7,3.5,3.5,0,0,0,1.33.25,8.05,8.05,0,0,0,1-.06,4.49,4.49,0,0,0,.79-.17l.59-.23.48-.18a1.89,1.89,0,0,1,.43-.1,1,1,0,0,1,.68.21,2.22,2.22,0,0,1,.57.71,1.75,1.75,0,0,1,.24.53,2.07,2.07,0,0,1,.06.5,1.35,1.35,0,0,1-.61,1.08,4.73,4.73,0,0,1-1.73.74A11,11,0,0,1,201.4,35.11Zm-2.67-7.4h4a1.06,1.06,0,0,0,.58-.14.62.62,0,0,0,.2-.54,1.18,1.18,0,0,0-.28-.77,1.67,1.67,0,0,0-.73-.54,2.83,2.83,0,0,0-1.09-.19,3,3,0,0,0-1.35.3,2.47,2.47,0,0,0-.94.8A1.91,1.91,0,0,0,198.73,27.71Z"/><path class="cls-2" d="M211,34.89a2.41,2.41,0,0,1-1.31-.26,1,1,0,0,1-.47-.71,4.73,4.73,0,0,1-.09-.93V24.27a4.59,4.59,0,0,1,.09-.93,1,1,0,0,1,.49-.68,2.46,2.46,0,0,1,1.32-.27,2.63,2.63,0,0,1,1.27.24,1,1,0,0,1,.48.55,1.73,1.73,0,0,1,.1.54l-.3.15a2.87,2.87,0,0,1,.27-.36,3.1,3.1,0,0,1,.58-.55,3.79,3.79,0,0,1,.92-.49,3.62,3.62,0,0,1,1.24-.2c.18,0,.38,0,.61,0a4.89,4.89,0,0,1,.7.15,3.32,3.32,0,0,1,.66.3,1.8,1.8,0,0,1,.49.46,1.23,1.23,0,0,1,.18.68,3.14,3.14,0,0,1-.47,1.74,1.42,1.42,0,0,1-1.2.71,2,2,0,0,1-.6-.06,1.92,1.92,0,0,1-.29-.15,1.28,1.28,0,0,0-.26-.16,1.72,1.72,0,0,0-.55-.06,2.71,2.71,0,0,0-.71.1,2.06,2.06,0,0,0-.63.31,1.63,1.63,0,0,0-.45.53,1.51,1.51,0,0,0-.16.71v5.48a5.4,5.4,0,0,1-.08.91,1.07,1.07,0,0,1-.49.69A2.73,2.73,0,0,1,211,34.89Z"/><path class="cls-2" d="M222.08,34.9a2.45,2.45,0,0,1-1.31-.26,1.09,1.09,0,0,1-.48-.71,4.73,4.73,0,0,1-.09-.93V24.28a4.45,4.45,0,0,1,.09-.93,1.07,1.07,0,0,1,.48-.69,2.59,2.59,0,0,1,1.33-.26,2.5,2.5,0,0,1,1.26.24,1.06,1.06,0,0,1,.49.55,1.73,1.73,0,0,1,.1.54l-.3.15a2,2,0,0,1,.26-.36,3.2,3.2,0,0,1,.59-.55,3.14,3.14,0,0,1,.91-.49,3.62,3.62,0,0,1,1.24-.2,4.55,4.55,0,0,1,.61,0,3,3,0,0,1,.7.15,2.47,2.47,0,0,1,.66.3,1.55,1.55,0,0,1,.49.46,1.14,1.14,0,0,1,.19.68,3,3,0,0,1-.48,1.73,1.39,1.39,0,0,1-1.2.71,2.11,2.11,0,0,1-.6-.06.92.92,0,0,1-.28-.15,1.17,1.17,0,0,0-.27-.15,1.68,1.68,0,0,0-.55-.06,2.34,2.34,0,0,0-.71.1,2.12,2.12,0,0,0-.62.31,1.46,1.46,0,0,0-.46.53,1.58,1.58,0,0,0-.16.71v5.47a4.63,4.63,0,0,1-.09.92,1,1,0,0,1-.49.68A2.56,2.56,0,0,1,222.08,34.9Z"/><path class="cls-2" d="M241.48,34.89a2.34,2.34,0,0,1-1.38-.33.88.88,0,0,1-.42-.8l.25-.42a2.8,2.8,0,0,1-.58.61,4.11,4.11,0,0,1-1.11.65,4.33,4.33,0,0,1-1.66.29,4.89,4.89,0,0,1-2.19-.51A6,6,0,0,1,232.55,33a7.41,7.41,0,0,1-1.27-2,6,6,0,0,1-.47-2.37,5.82,5.82,0,0,1,.47-2.34,6.72,6.72,0,0,1,1.29-2,6.4,6.4,0,0,1,1.84-1.37,4.79,4.79,0,0,1,2.17-.49,4.12,4.12,0,0,1,1.58.26,4.5,4.5,0,0,1,1.09.61,3.45,3.45,0,0,1,.66.68l-.23-.35a1,1,0,0,1,.44-.91,2.42,2.42,0,0,1,1.39-.32,2.33,2.33,0,0,1,1.29.28,1.1,1.1,0,0,1,.47.72,4.86,4.86,0,0,1,.09.95V33a5.52,5.52,0,0,1-.08.92,1.11,1.11,0,0,1-.48.72A2.5,2.5,0,0,1,241.48,34.89Zm-4.38-3.73a2.13,2.13,0,0,0,1.2-.34,2.41,2.41,0,0,0,.85-.91,2.51,2.51,0,0,0,.33-1.27,2.6,2.6,0,0,0-.32-1.29,2.5,2.5,0,0,0-.88-.89,2.29,2.29,0,0,0-1.22-.32,2.48,2.48,0,0,0-1.27.33,2.64,2.64,0,0,0-.9.92,2.53,2.53,0,0,0-.33,1.29,2.4,2.4,0,0,0,.33,1.24,2.51,2.51,0,0,0,.93.9A2.48,2.48,0,0,0,237.1,31.16Z"/><path class="cls-2" d="M251.2,34.89A4.89,4.89,0,0,1,249,34.4,5.72,5.72,0,0,1,247.2,33a6.7,6.7,0,0,1-1.26-2,6.3,6.3,0,0,1-.46-2.41,6.18,6.18,0,0,1,.46-2.34,6.67,6.67,0,0,1,1.28-2,6.42,6.42,0,0,1,1.84-1.36,4.88,4.88,0,0,1,2.15-.5,4.47,4.47,0,0,1,2.11.49,4.58,4.58,0,0,1,1.53,1.34,6.46,6.46,0,0,1,.93,2,9.08,9.08,0,0,1,.35,2.35,9.28,9.28,0,0,1-.3,2.4,6.12,6.12,0,0,1-.93,2,4.56,4.56,0,0,1-1.55,1.38A4.38,4.38,0,0,1,251.2,34.89Zm.5-3.7a2.3,2.3,0,0,0,1.22-.33,2.71,2.71,0,0,0,.87-.91,2.45,2.45,0,0,0,.34-1.28,2.51,2.51,0,0,0-.32-1.26,2.45,2.45,0,0,0-.88-.9,2.3,2.3,0,0,0-1.25-.34,2.52,2.52,0,0,0-1.24.32,2.35,2.35,0,0,0-.87.9,2.63,2.63,0,0,0-.31,1.28,2.49,2.49,0,0,0,1.22,2.19A2.4,2.4,0,0,0,251.7,31.19Zm4.35,3.73a2.31,2.31,0,0,1-1.26-.27,1.34,1.34,0,0,1-.54-.85V18.65a6.88,6.88,0,0,1,.06-.92,1.09,1.09,0,0,1,.44-.71,2.28,2.28,0,0,1,1.28-.27,2.47,2.47,0,0,1,1.32.26,1.16,1.16,0,0,1,.48.69,4.4,4.4,0,0,1,.1.92V33a4.63,4.63,0,0,1-.09.92,1.12,1.12,0,0,1-.48.71A2.37,2.37,0,0,1,256.05,34.92Z"/><path class="cls-2" d="M266.45,35.13a6.3,6.3,0,0,1-2.34-.47A7,7,0,0,1,262,33.35a6.53,6.53,0,0,1-1.51-2,6.47,6.47,0,0,1-.05-5.15,7,7,0,0,1,1.42-2.06,6.75,6.75,0,0,1,2.06-1.41,6.13,6.13,0,0,1,2.49-.51,6.33,6.33,0,0,1,3.26.86A6.64,6.64,0,0,1,272,25.38a6.71,6.71,0,0,1,.31,6,6.5,6.5,0,0,1-3.58,3.32A6.38,6.38,0,0,1,266.45,35.13Zm-.05-3.78a2.85,2.85,0,0,0,1.23-.3,2.53,2.53,0,0,0,1.47-2.42,2.77,2.77,0,0,0-.34-1.4,2.58,2.58,0,0,0-1-.94,2.88,2.88,0,0,0-1.41-.34,2.63,2.63,0,0,0-1.34.35,2.91,2.91,0,0,0-1,1,2.72,2.72,0,0,0-.36,1.39,2.66,2.66,0,0,0,.41,1.51,2.49,2.49,0,0,0,1,.9A2.79,2.79,0,0,0,266.4,31.35Z"/><path class="cls-4" d="M55.46,35.55c0,2.27-.4,3.89-1.18,4.85a4.36,4.36,0,0,1-3.59,1.45,5.73,5.73,0,0,1-2.57-.5,3.29,3.29,0,0,1-1.48-1.85,11.09,11.09,0,0,1-.55-3.61L46,20.22a6.2,6.2,0,0,1-3.21-.74A2.56,2.56,0,0,1,41.55,17a2.76,2.76,0,0,1,1.16-2.29,5.16,5.16,0,0,1,3.24-.9c.54,0,1.31,0,2.3,0l2.1,0c2,0,3.36.34,4,1a5,5,0,0,1,1,3.59Z"/><path class="cls-4" d="M59.21,39a2.78,2.78,0,0,1,1.16-2.31,5.38,5.38,0,0,1,3.28-.88c3,0,4.44,1.07,4.44,3.19a3.11,3.11,0,0,1-.57,2,2.73,2.73,0,0,1-1.51,1,9.17,9.17,0,0,1-2.36.26,6.13,6.13,0,0,1-3.18-.76A2.62,2.62,0,0,1,59.21,39Z"/><path class="cls-4" d="M84,41.85a4.25,4.25,0,0,1-3.51-1.37c-.73-.9-1.09-2.49-1.09-4.76H71.88A5.29,5.29,0,0,1,68,34.42a4.61,4.61,0,0,1-1.28-3.36,7.2,7.2,0,0,1,1.1-3.95Q70.67,22.45,74.3,17a6.64,6.64,0,0,1,5.83-3.19l3.54,0c2,0,3.33.34,4,1a4.92,4.92,0,0,1,1.05,3.59V29.59a3.69,3.69,0,0,1,2.41.88,3.33,3.33,0,0,1,.65,2.27,2.84,2.84,0,0,1-.7,2.2,4.07,4.07,0,0,1-2.36.74c0,2.21-.4,3.79-1.19,4.74A4.31,4.31,0,0,1,84,41.85Zm-4.64-12.1.13-8.94-5.46,8.94Z"/><path class="cls-5" d="M55.46,35.55c0,2.27-.4,3.89-1.18,4.85a4.36,4.36,0,0,1-3.59,1.45,5.73,5.73,0,0,1-2.57-.5,3.29,3.29,0,0,1-1.48-1.85,11.09,11.09,0,0,1-.55-3.61L46,20.22a6.2,6.2,0,0,1-3.21-.74A2.56,2.56,0,0,1,41.55,17a2.76,2.76,0,0,1,1.16-2.29,5.16,5.16,0,0,1,3.24-.9c.54,0,1.31,0,2.3,0l2.1,0c2,0,3.36.34,4,1a5,5,0,0,1,1,3.59Z"/><path class="cls-5" d="M59.21,39a2.78,2.78,0,0,1,1.16-2.31,5.38,5.38,0,0,1,3.28-.88c3,0,4.44,1.07,4.44,3.19a3.11,3.11,0,0,1-.57,2,2.73,2.73,0,0,1-1.51,1,9.17,9.17,0,0,1-2.36.26,6.13,6.13,0,0,1-3.18-.76A2.62,2.62,0,0,1,59.21,39Z"/><path class="cls-5" d="M84,41.85a4.25,4.25,0,0,1-3.51-1.37c-.73-.9-1.09-2.49-1.09-4.76H71.88A5.29,5.29,0,0,1,68,34.42a4.61,4.61,0,0,1-1.28-3.36,7.2,7.2,0,0,1,1.1-3.95Q70.67,22.45,74.3,17a6.64,6.64,0,0,1,5.83-3.19l3.54,0c2,0,3.33.34,4,1a4.92,4.92,0,0,1,1.05,3.59V29.59a3.69,3.69,0,0,1,2.41.88,3.33,3.33,0,0,1,.65,2.27,2.84,2.84,0,0,1-.7,2.2,4.07,4.07,0,0,1-2.36.74c0,2.21-.4,3.79-1.19,4.74A4.31,4.31,0,0,1,84,41.85Zm-4.64-12.1.13-8.94-5.46,8.94Z"/></g></g></svg>