<svg xmlns="http://www.w3.org/2000/svg" viewBox="0 0 399.98 114.79"><defs><style>.cls-1{fill:#b30553;}.cls-2{fill:#fff;}.cls-3,.cls-4{fill:none;stroke-width:5px;}.cls-3{stroke:#b6ba01;stroke-linejoin:round;}.cls-4{stroke:#fff;}.cls-5{fill:#b6ba01;}</style></defs><title>17tt</title><g id="Layer_2" data-name="Layer 2"><g id="pestaña_identificativa" data-name="pestaña identificativa"><rect class="cls-1" width="399.98" height="114.79" rx="32.4"/><path class="cls-2" d="M114.16,17.34a3.84,3.84,0,0,1,.79.08.92.92,0,0,1,.59.42,2.24,2.24,0,0,1,.22,1.15,2.16,2.16,0,0,1-.22,1.13.91.91,0,0,1-.6.42,4.09,4.09,0,0,1-.8.08h-4V33a4.29,4.29,0,0,1-.09.9,1.1,1.1,0,0,1-.48.69,2.55,2.55,0,0,1-1.34.26,2.43,2.43,0,0,1-1.27-.26,1.08,1.08,0,0,1-.49-.7,4.63,4.63,0,0,1-.08-.92V20.61h-4a3.31,3.31,0,0,1-.77-.09,1,1,0,0,1-.61-.42,2.06,2.06,0,0,1-.24-1.14,2,2,0,0,1,.24-1.12.93.93,0,0,1,.61-.43,3.94,3.94,0,0,1,.77-.07Z"/><path class="cls-2" d="M119.73,34.85a2.37,2.37,0,0,1-1.31-.27,1.07,1.07,0,0,1-.48-.71,4.7,4.7,0,0,1-.09-.92V24.22a4.42,4.42,0,0,1,.09-.92,1,1,0,0,1,.49-.69,2.42,2.42,0,0,1,1.32-.26,2.63,2.63,0,0,1,1.26.23,1.07,1.07,0,0,1,.49.56,1.63,1.63,0,0,1,.1.53l-.3.15a3.22,3.22,0,0,1,.26-.36,4,4,0,0,1,.59-.55,3.9,3.9,0,0,1,.91-.49,3.62,3.62,0,0,1,1.24-.2c.18,0,.39,0,.61,0a4.62,4.62,0,0,1,.7.15,3.16,3.16,0,0,1,.67.3,1.54,1.54,0,0,1,.48.47,1.11,1.11,0,0,1,.19.67,3.06,3.06,0,0,1-.48,1.74,1.4,1.4,0,0,1-1.2.71,2.11,2.11,0,0,1-.6-.06,1.21,1.21,0,0,1-.28-.15,1.17,1.17,0,0,0-.27-.15,1.39,1.39,0,0,0-.55-.07,2.77,2.77,0,0,0-.71.1,1.93,1.93,0,0,0-.62.32,1.32,1.32,0,0,0-.45.52,1.52,1.52,0,0,0-.17.71V33a4.53,4.53,0,0,1-.09.91,1,1,0,0,1-.49.69A2.64,2.64,0,0,1,119.73,34.85Z"/><path class="cls-2" d="M139.13,34.83a2.42,2.42,0,0,1-1.38-.32.9.9,0,0,1-.42-.8l.25-.43a2.59,2.59,0,0,1-.58.61,3.87,3.87,0,0,1-1.11.65,4.33,4.33,0,0,1-1.66.29,5,5,0,0,1-2.19-.5,6,6,0,0,1-1.84-1.39,7.21,7.21,0,0,1-1.27-2,6.16,6.16,0,0,1,0-4.72,6.72,6.72,0,0,1,1.29-2,6.37,6.37,0,0,1,1.84-1.36,4.94,4.94,0,0,1,2.18-.5,4.05,4.05,0,0,1,2.66.88,3.43,3.43,0,0,1,.66.67l-.22-.35a1,1,0,0,1,.43-.91,2.42,2.42,0,0,1,1.39-.31,2.34,2.34,0,0,1,1.29.27,1.15,1.15,0,0,1,.47.73,4.86,4.86,0,0,1,.09.95v8.62a5.64,5.64,0,0,1-.09.93,1.07,1.07,0,0,1-.48.71A2.38,2.38,0,0,1,139.13,34.83Zm-4.37-3.72a2.21,2.21,0,0,0,1.2-.34,2.56,2.56,0,0,0,1.17-2.19,2.62,2.62,0,0,0-.32-1.29,2.4,2.4,0,0,0-.88-.88,2.3,2.3,0,0,0-1.22-.33,2.33,2.33,0,0,0-1.26.34,2.53,2.53,0,0,0-1.24,2.21,2.42,2.42,0,0,0,.33,1.24,2.6,2.6,0,0,0,2.22,1.24Z"/><path class="cls-2" d="M144.88,34.86a1.76,1.76,0,0,1-1.31-.54A1.8,1.8,0,0,1,143,33a2,2,0,0,1,.14-.73,1.81,1.81,0,0,1,.41-.62l5.68-5.5h-3.8a4.45,4.45,0,0,1-.91-.1,1.22,1.22,0,0,1-.73-.49,2.28,2.28,0,0,1-.29-1.31,2.38,2.38,0,0,1,.29-1.32,1.21,1.21,0,0,1,.73-.47,4.46,4.46,0,0,1,.91-.09h7.83a1.78,1.78,0,0,1,1.84,1.85A2.17,2.17,0,0,1,155,25a1.45,1.45,0,0,1-.39.59l-5.55,5.52h4.52a4.57,4.57,0,0,1,.93.1,1.13,1.13,0,0,1,.68.5,2.39,2.39,0,0,1,.26,1.33,2.4,2.4,0,0,1-.27,1.3,1.07,1.07,0,0,1-.7.47,5.37,5.37,0,0,1-.93.08Z"/><path class="cls-2" d="M167.7,34.85a2.33,2.33,0,0,1-1.37-.33.91.91,0,0,1-.43-.8l.25-.42a2.72,2.72,0,0,1-.57.61,4.28,4.28,0,0,1-1.11.65,4.38,4.38,0,0,1-1.67.29,5,5,0,0,1-2.18-.5A6,6,0,0,1,158.78,33a7,7,0,0,1-1.27-2,6,6,0,0,1-.48-2.37,5.83,5.83,0,0,1,.48-2.34,6.72,6.72,0,0,1,1.29-2,6.07,6.07,0,0,1,1.84-1.36,4.77,4.77,0,0,1,2.17-.5,4.35,4.35,0,0,1,1.58.26,4.57,4.57,0,0,1,1.08.61,3.18,3.18,0,0,1,.66.68l-.22-.35a1,1,0,0,1,.44-.91,2.4,2.4,0,0,1,1.39-.31,2.3,2.3,0,0,1,1.28.27,1.14,1.14,0,0,1,.48.73,4.79,4.79,0,0,1,.09.95V33a4.73,4.73,0,0,1-.09.93,1.12,1.12,0,0,1-.47.71A2.52,2.52,0,0,1,167.7,34.85Zm-4.37-3.73a2.21,2.21,0,0,0,1.2-.33,2.6,2.6,0,0,0,.85-.92,2.48,2.48,0,0,0,.33-1.27,2.53,2.53,0,0,0-.33-1.29,2.4,2.4,0,0,0-.87-.89,2.55,2.55,0,0,0-2.49,0,2.64,2.64,0,0,0-.9.92,2.54,2.54,0,0,0-.34,1.3,2.28,2.28,0,0,0,.34,1.23,2.41,2.41,0,0,0,.92.9A2.49,2.49,0,0,0,163.33,31.12Z"/><path class="cls-2" d="M183.4,34.89a16,16,0,0,1-1.82-.11,3.58,3.58,0,0,1-1.35-.4,2.47,2.47,0,0,1-.9-.83,4.19,4.19,0,0,1-.53-1.38,10.88,10.88,0,0,1-.17-2.06V18.56a3.9,3.9,0,0,1,.1-.93,1.17,1.17,0,0,1,.49-.7,3.26,3.26,0,0,1,2.6,0,1.19,1.19,0,0,1,.48.7,4,4,0,0,1,.1.93V29.93a6.19,6.19,0,0,0,0,.67,1,1,0,0,0,.15.41.54.54,0,0,0,.32.2,2.34,2.34,0,0,0,.52.05,2.18,2.18,0,0,1,.61.08.89.89,0,0,1,.54.45A2.55,2.55,0,0,1,184.8,33a2.81,2.81,0,0,1-.22,1.3.89.89,0,0,1-.54.47A2.74,2.74,0,0,1,183.4,34.89Z"/><path class="cls-2" d="M196.83,34.87a2.34,2.34,0,0,1-1.38-.33.88.88,0,0,1-.42-.8l.25-.42a2.8,2.8,0,0,1-.58.61,4.12,4.12,0,0,1-2.77.93,4.88,4.88,0,0,1-2.19-.5A5.85,5.85,0,0,1,187.9,33a7.21,7.21,0,0,1-1.27-2,6.13,6.13,0,0,1,0-4.71,6.9,6.9,0,0,1,1.29-2,6.56,6.56,0,0,1,1.84-1.36,4.94,4.94,0,0,1,2.18-.5,4.2,4.2,0,0,1,2.66.88,3.2,3.2,0,0,1,.66.68l-.23-.35a1.07,1.07,0,0,1,.44-.92,2.51,2.51,0,0,1,1.39-.31,2.33,2.33,0,0,1,1.29.28,1.1,1.1,0,0,1,.47.72,4.86,4.86,0,0,1,.09.95V33a5.52,5.52,0,0,1-.08.92,1.11,1.11,0,0,1-.48.72A2.5,2.5,0,0,1,196.83,34.87Zm-4.37-3.73a2.16,2.16,0,0,0,1.2-.34,2.57,2.57,0,0,0,.85-.91,2.6,2.6,0,0,0,.32-1.27,2.57,2.57,0,0,0-.32-1.29,2.42,2.42,0,0,0-.88-.89,2.29,2.29,0,0,0-1.22-.32,2.33,2.33,0,0,0-1.26.33,2.53,2.53,0,0,0-.9.91,2.5,2.5,0,0,0-.34,1.3,2.4,2.4,0,0,0,.33,1.24,2.6,2.6,0,0,0,2.22,1.24Z"/><path class="cls-2" d="M212.53,34.9a14.3,14.3,0,0,1-1.83-.1,3.9,3.9,0,0,1-1.35-.4,2.58,2.58,0,0,1-.9-.84,4.13,4.13,0,0,1-.52-1.37,10.15,10.15,0,0,1-.17-2.07V18.57a4.4,4.4,0,0,1,.1-.92,1.18,1.18,0,0,1,.49-.7,2.39,2.39,0,0,1,1.31-.27A2.34,2.34,0,0,1,211,17a1.21,1.21,0,0,1,.49.7,4.42,4.42,0,0,1,.1.93V30a4,4,0,0,0,0,.66.8.8,0,0,0,.15.42.56.56,0,0,0,.31.2,2.4,2.4,0,0,0,.52.05,2.68,2.68,0,0,1,.62.07.87.87,0,0,1,.53.45,2.56,2.56,0,0,1,.23,1.25,2.76,2.76,0,0,1-.23,1.3.89.89,0,0,1-.53.48A2.79,2.79,0,0,1,212.53,34.9Z"/><path class="cls-2" d="M222,35.13a7.28,7.28,0,0,1-3-.57A5.86,5.86,0,0,1,216.88,33a6.33,6.33,0,0,1-1.2-2.09,6.83,6.83,0,0,1-.4-2.3,6.51,6.51,0,0,1,.85-3.32A6.14,6.14,0,0,1,218.5,23a7.11,7.11,0,0,1,3.46-.83,6.22,6.22,0,0,1,2.51.46,5.23,5.23,0,0,1,1.75,1.2,5.1,5.1,0,0,1,1,1.59,4.51,4.51,0,0,1,.33,1.63,2.84,2.84,0,0,1-.66,2.05,2.27,2.27,0,0,1-1.69.67h-5.95a1.76,1.76,0,0,0,.46,1.07,2.73,2.73,0,0,0,1,.7,3.48,3.48,0,0,0,1.32.25,8.1,8.1,0,0,0,1-.06,4.49,4.49,0,0,0,.79-.17l.59-.23.48-.19a4.34,4.34,0,0,1,.43-.1,1,1,0,0,1,.67.22,2,2,0,0,1,.58.71,1.9,1.9,0,0,1,.24.53,2.07,2.07,0,0,1,.06.5,1.36,1.36,0,0,1-.61,1.08,4.73,4.73,0,0,1-1.73.74A11.56,11.56,0,0,1,222,35.13Zm-2.67-7.4h3.95a1.06,1.06,0,0,0,.58-.13.62.62,0,0,0,.2-.54,1.23,1.23,0,0,0-.28-.78,1.73,1.73,0,0,0-.73-.53,2.83,2.83,0,0,0-1.09-.19,3,3,0,0,0-1.35.3,2.31,2.31,0,0,0-.94.8A1.84,1.84,0,0,0,219.28,27.73Z"/><path class="cls-2" d="M230.46,22.61h2.75l3.45-.09a5.11,5.11,0,0,1,.9.08,1.14,1.14,0,0,1,.7.49,2.47,2.47,0,0,1,.27,1.33,2.31,2.31,0,0,1-.26,1.25,1.21,1.21,0,0,1-.69.51,3.8,3.8,0,0,1-.92.11l-3.28-.08-3,0a1.29,1.29,0,0,1-1-.47,2.5,2.5,0,0,1-.28-1.38,2.15,2.15,0,0,1,.35-1.34A1.26,1.26,0,0,1,230.46,22.61Zm5.64,12.31a7.9,7.9,0,0,1-2.2-.28,3.59,3.59,0,0,1-1.51-.85,3.5,3.5,0,0,1-.87-1.46,7,7,0,0,1-.29-2.12V20.09a5.12,5.12,0,0,1,.08-.93,1.12,1.12,0,0,1,.49-.66,2.51,2.51,0,0,1,1.3-.26,2.38,2.38,0,0,1,1.3.27,1.14,1.14,0,0,1,.49.72,4.46,4.46,0,0,1,.09.91v9.93a3.1,3.1,0,0,0,.06.66.89.89,0,0,0,.19.39.68.68,0,0,0,.35.17,2.79,2.79,0,0,0,.55.05,4.59,4.59,0,0,1,1,.1,1.1,1.1,0,0,1,.67.45,2.3,2.3,0,0,1,.23,1.18,2.4,2.4,0,0,1-.27,1.3,1.09,1.09,0,0,1-.72.47A5.31,5.31,0,0,1,236.1,34.92Z"/><path class="cls-2" d="M242.33,34.92a2.52,2.52,0,0,1-1.32-.26,1.14,1.14,0,0,1-.47-.72,4.63,4.63,0,0,1-.09-.92V24.29a4.42,4.42,0,0,1,.09-.92,1.07,1.07,0,0,1,.48-.69,2.59,2.59,0,0,1,1.33-.26,2.5,2.5,0,0,1,1.26.24,1.06,1.06,0,0,1,.49.55,1.73,1.73,0,0,1,.1.54l-.3.15a2.39,2.39,0,0,1,.26-.37,4.06,4.06,0,0,1,.59-.55,3.53,3.53,0,0,1,2.15-.68,4.55,4.55,0,0,1,.61,0,3,3,0,0,1,.7.15,2.47,2.47,0,0,1,.66.3,1.55,1.55,0,0,1,.49.46,1.13,1.13,0,0,1,.19.67,3,3,0,0,1-.48,1.74,1.38,1.38,0,0,1-1.2.71,2.11,2.11,0,0,1-.6-.06.92.92,0,0,1-.28-.15,1.17,1.17,0,0,0-.27-.15,1.68,1.68,0,0,0-.55-.06,2.39,2.39,0,0,0-.71.1,2.05,2.05,0,0,0-.63.31,1.6,1.6,0,0,0-.45.52,1.66,1.66,0,0,0-.16.72v5.47a4.46,4.46,0,0,1-.09.91,1,1,0,0,1-.49.69A2.58,2.58,0,0,1,242.33,34.92Z"/><path class="cls-2" d="M261.73,34.91a2.34,2.34,0,0,1-1.38-.33.89.89,0,0,1-.42-.8l.25-.42a2.8,2.8,0,0,1-.58.61,4.11,4.11,0,0,1-1.11.65,4.34,4.34,0,0,1-1.66.28,4.88,4.88,0,0,1-2.19-.5A5.85,5.85,0,0,1,252.8,33a7,7,0,0,1-1.27-2,5.8,5.8,0,0,1-.47-2.37,6,6,0,0,1,.47-2.34,6.9,6.9,0,0,1,1.29-2A6.42,6.42,0,0,1,254.66,23a4.93,4.93,0,0,1,2.17-.5,4.11,4.11,0,0,1,1.58.27,4.5,4.5,0,0,1,1.09.61,3.2,3.2,0,0,1,.66.68l-.23-.35a1.07,1.07,0,0,1,.44-.92,2.51,2.51,0,0,1,1.39-.31,2.24,2.24,0,0,1,1.29.28,1.14,1.14,0,0,1,.47.72,4.86,4.86,0,0,1,.09.95V33a4.7,4.7,0,0,1-.09.92,1,1,0,0,1-.47.71A2.39,2.39,0,0,1,261.73,34.91Zm-4.38-3.73a2.13,2.13,0,0,0,1.2-.34,2.6,2.6,0,0,0,1.18-2.18,2.57,2.57,0,0,0-.32-1.29,2.42,2.42,0,0,0-.88-.89,2.3,2.3,0,0,0-1.22-.33,2.49,2.49,0,0,0-1.27.34,2.53,2.53,0,0,0-1.24,2.21,2.43,2.43,0,0,0,.34,1.24,2.59,2.59,0,0,0,.93.9A2.48,2.48,0,0,0,257.35,31.18Z"/><path class="cls-2" d="M274.73,34.94a2.48,2.48,0,0,1-1.3-.26,1.09,1.09,0,0,1-.49-.72,4.7,4.7,0,0,1-.09-.92V19.36a4.42,4.42,0,0,1,.09-.92,1.1,1.1,0,0,1,.49-.7,2.4,2.4,0,0,1,1.32-.28,2.55,2.55,0,0,1,1.34.28,1.1,1.1,0,0,1,.47.71,4.69,4.69,0,0,1,.09.94v4.3L282,18.12a3.57,3.57,0,0,1,.91-.73,1.19,1.19,0,0,1,.85-.07,2.15,2.15,0,0,1,.94.63,2.08,2.08,0,0,1,.86,1.36,2,2,0,0,1-.71,1.33l-5.75,5.58,5.79,5.55a1.94,1.94,0,0,1,.74,1.39,2,2,0,0,1-.89,1.31,2.83,2.83,0,0,1-1,.65,1,1,0,0,1-.81-.09,3.73,3.73,0,0,1-.85-.74l-5.39-5.62v4.4a4.53,4.53,0,0,1-.09.91,1.06,1.06,0,0,1-.48.7A2.65,2.65,0,0,1,274.73,34.94Z"/><path class="cls-2" d="M298.33,31.55a2.06,2.06,0,0,1,.82,1.29,2,2,0,0,1-.67,1.41,3.42,3.42,0,0,1-1,.77,1,1,0,0,1-.81,0,4.35,4.35,0,0,1-.95-.65l-3.92-3.45v2.14a4.45,4.45,0,0,1-.09.93,1.1,1.1,0,0,1-.48.69A2.45,2.45,0,0,1,290,35a2.37,2.37,0,0,1-1.31-.27,1.06,1.06,0,0,1-.48-.69,5.67,5.67,0,0,1-.08-.94V18.65a4,4,0,0,1,.1-.94,1.11,1.11,0,0,1,.48-.7,2.52,2.52,0,0,1,1.32-.26,2.38,2.38,0,0,1,1.28.26,1.1,1.1,0,0,1,.48.7,4.78,4.78,0,0,1,.09,1V26.2l2.8-2.7a3.19,3.19,0,0,1,.94-.65,1.22,1.22,0,0,1,.86,0,2.23,2.23,0,0,1,.9.67,2.32,2.32,0,0,1,.78,1.42,2.24,2.24,0,0,1-.78,1.28l-2.7,2.45Z"/><path class="cls-3" d="M114.16,17.34a3.84,3.84,0,0,1,.79.08.92.92,0,0,1,.59.42,2.24,2.24,0,0,1,.22,1.15,2.16,2.16,0,0,1-.22,1.13.91.91,0,0,1-.6.42,4.09,4.09,0,0,1-.8.08h-4V33a4.29,4.29,0,0,1-.09.9,1.1,1.1,0,0,1-.48.69,2.55,2.55,0,0,1-1.34.26,2.43,2.43,0,0,1-1.27-.26,1.08,1.08,0,0,1-.49-.7,4.63,4.63,0,0,1-.08-.92V20.61h-4a3.31,3.31,0,0,1-.77-.09,1,1,0,0,1-.61-.42,2.06,2.06,0,0,1-.24-1.14,2,2,0,0,1,.24-1.12.93.93,0,0,1,.61-.43,3.94,3.94,0,0,1,.77-.07Z"/><path class="cls-3" d="M119.73,34.85a2.37,2.37,0,0,1-1.31-.27,1.07,1.07,0,0,1-.48-.71,4.7,4.7,0,0,1-.09-.92V24.22a4.42,4.42,0,0,1,.09-.92,1,1,0,0,1,.49-.69,2.42,2.42,0,0,1,1.32-.26,2.63,2.63,0,0,1,1.26.23,1.07,1.07,0,0,1,.49.56,1.63,1.63,0,0,1,.1.53l-.3.15a3.22,3.22,0,0,1,.26-.36,4,4,0,0,1,.59-.55,3.9,3.9,0,0,1,.91-.49,3.62,3.62,0,0,1,1.24-.2c.18,0,.39,0,.61,0a4.62,4.62,0,0,1,.7.15,3.16,3.16,0,0,1,.67.3,1.54,1.54,0,0,1,.48.47,1.11,1.11,0,0,1,.19.67,3.06,3.06,0,0,1-.48,1.74,1.4,1.4,0,0,1-1.2.71,2.11,2.11,0,0,1-.6-.06,1.21,1.21,0,0,1-.28-.15,1.17,1.17,0,0,0-.27-.15,1.39,1.39,0,0,0-.55-.07,2.77,2.77,0,0,0-.71.1,1.93,1.93,0,0,0-.62.32,1.32,1.32,0,0,0-.45.52,1.52,1.52,0,0,0-.17.71V33a4.53,4.53,0,0,1-.09.91,1,1,0,0,1-.49.69A2.64,2.64,0,0,1,119.73,34.85Z"/><path class="cls-3" d="M139.13,34.83a2.42,2.42,0,0,1-1.38-.32.9.9,0,0,1-.42-.8l.25-.43a2.59,2.59,0,0,1-.58.61,3.87,3.87,0,0,1-1.11.65,4.33,4.33,0,0,1-1.66.29,5,5,0,0,1-2.19-.5,6,6,0,0,1-1.84-1.39,7.21,7.21,0,0,1-1.27-2,6.16,6.16,0,0,1,0-4.72,6.72,6.72,0,0,1,1.29-2,6.37,6.37,0,0,1,1.84-1.36,4.94,4.94,0,0,1,2.18-.5,4.05,4.05,0,0,1,2.66.88,3.43,3.43,0,0,1,.66.67l-.22-.35a1,1,0,0,1,.43-.91,2.42,2.42,0,0,1,1.39-.31,2.34,2.34,0,0,1,1.29.27,1.15,1.15,0,0,1,.47.73,4.86,4.86,0,0,1,.09.95v8.62a5.64,5.64,0,0,1-.09.93,1.07,1.07,0,0,1-.48.71A2.38,2.38,0,0,1,139.13,34.83Zm-4.37-3.72a2.21,2.21,0,0,0,1.2-.34,2.56,2.56,0,0,0,1.17-2.19,2.62,2.62,0,0,0-.32-1.29,2.4,2.4,0,0,0-.88-.88,2.3,2.3,0,0,0-1.22-.33,2.33,2.33,0,0,0-1.26.34,2.53,2.53,0,0,0-1.24,2.21,2.42,2.42,0,0,0,.33,1.24,2.6,2.6,0,0,0,2.22,1.24Z"/><path class="cls-3" d="M144.88,34.86a1.76,1.76,0,0,1-1.31-.54A1.8,1.8,0,0,1,143,33a2,2,0,0,1,.14-.73,1.81,1.81,0,0,1,.41-.62l5.68-5.5h-3.8a4.45,4.45,0,0,1-.91-.1,1.22,1.22,0,0,1-.73-.49,2.28,2.28,0,0,1-.29-1.31,2.38,2.38,0,0,1,.29-1.32,1.21,1.21,0,0,1,.73-.47,4.46,4.46,0,0,1,.91-.09h7.83a1.78,1.78,0,0,1,1.84,1.85A2.17,2.17,0,0,1,155,25a1.45,1.45,0,0,1-.39.59l-5.55,5.52h4.52a4.57,4.57,0,0,1,.93.1,1.13,1.13,0,0,1,.68.5,2.39,2.39,0,0,1,.26,1.33,2.4,2.4,0,0,1-.27,1.3,1.07,1.07,0,0,1-.7.47,5.37,5.37,0,0,1-.93.08Z"/><path class="cls-3" d="M167.7,34.85a2.33,2.33,0,0,1-1.37-.33.91.91,0,0,1-.43-.8l.25-.42a2.72,2.72,0,0,1-.57.61,4.28,4.28,0,0,1-1.11.65,4.38,4.38,0,0,1-1.67.29,5,5,0,0,1-2.18-.5A6,6,0,0,1,158.78,33a7,7,0,0,1-1.27-2,6,6,0,0,1-.48-2.37,5.83,5.83,0,0,1,.48-2.34,6.72,6.72,0,0,1,1.29-2,6.07,6.07,0,0,1,1.84-1.36,4.77,4.77,0,0,1,2.17-.5,4.35,4.35,0,0,1,1.58.26,4.57,4.57,0,0,1,1.08.61,3.18,3.18,0,0,1,.66.68l-.22-.35a1,1,0,0,1,.44-.91,2.4,2.4,0,0,1,1.39-.31,2.3,2.3,0,0,1,1.28.27,1.14,1.14,0,0,1,.48.73,4.79,4.79,0,0,1,.09.95V33a4.73,4.73,0,0,1-.09.93,1.12,1.12,0,0,1-.47.71A2.52,2.52,0,0,1,167.7,34.85Zm-4.37-3.73a2.21,2.21,0,0,0,1.2-.33,2.6,2.6,0,0,0,.85-.92,2.48,2.48,0,0,0,.33-1.27,2.53,2.53,0,0,0-.33-1.29,2.4,2.4,0,0,0-.87-.89,2.55,2.55,0,0,0-2.49,0,2.64,2.64,0,0,0-.9.92,2.54,2.54,0,0,0-.34,1.3,2.28,2.28,0,0,0,.34,1.23,2.41,2.41,0,0,0,.92.9A2.49,2.49,0,0,0,163.33,31.12Z"/><path class="cls-3" d="M183.4,34.89a16,16,0,0,1-1.82-.11,3.58,3.58,0,0,1-1.35-.4,2.47,2.47,0,0,1-.9-.83,4.19,4.19,0,0,1-.53-1.38,10.88,10.88,0,0,1-.17-2.06V18.56a3.9,3.9,0,0,1,.1-.93,1.17,1.17,0,0,1,.49-.7,3.26,3.26,0,0,1,2.6,0,1.19,1.19,0,0,1,.48.7,4,4,0,0,1,.1.93V29.93a6.19,6.19,0,0,0,0,.67,1,1,0,0,0,.15.41.54.54,0,0,0,.32.2,2.34,2.34,0,0,0,.52.05,2.18,2.18,0,0,1,.61.08.89.89,0,0,1,.54.45A2.55,2.55,0,0,1,184.8,33a2.81,2.81,0,0,1-.22,1.3.89.89,0,0,1-.54.47A2.74,2.74,0,0,1,183.4,34.89Z"/><path class="cls-3" d="M196.83,34.87a2.34,2.34,0,0,1-1.38-.33.88.88,0,0,1-.42-.8l.25-.42a2.8,2.8,0,0,1-.58.61,4.12,4.12,0,0,1-2.77.93,4.88,4.88,0,0,1-2.19-.5A5.85,5.85,0,0,1,187.9,33a7.21,7.21,0,0,1-1.27-2,6.13,6.13,0,0,1,0-4.71,6.9,6.9,0,0,1,1.29-2,6.56,6.56,0,0,1,1.84-1.36,4.94,4.94,0,0,1,2.18-.5,4.2,4.2,0,0,1,2.66.88,3.2,3.2,0,0,1,.66.68l-.23-.35a1.07,1.07,0,0,1,.44-.92,2.51,2.51,0,0,1,1.39-.31,2.33,2.33,0,0,1,1.29.28,1.1,1.1,0,0,1,.47.72,4.86,4.86,0,0,1,.09.95V33a5.52,5.52,0,0,1-.08.92,1.11,1.11,0,0,1-.48.72A2.5,2.5,0,0,1,196.83,34.87Zm-4.37-3.73a2.16,2.16,0,0,0,1.2-.34,2.57,2.57,0,0,0,.85-.91,2.6,2.6,0,0,0,.32-1.27,2.57,2.57,0,0,0-.32-1.29,2.42,2.42,0,0,0-.88-.89,2.29,2.29,0,0,0-1.22-.32,2.33,2.33,0,0,0-1.26.33,2.53,2.53,0,0,0-.9.91,2.5,2.5,0,0,0-.34,1.3,2.4,2.4,0,0,0,.33,1.24,2.6,2.6,0,0,0,2.22,1.24Z"/><path class="cls-3" d="M212.53,34.9a14.3,14.3,0,0,1-1.83-.1,3.9,3.9,0,0,1-1.35-.4,2.58,2.58,0,0,1-.9-.84,4.13,4.13,0,0,1-.52-1.37,10.15,10.15,0,0,1-.17-2.07V18.57a4.4,4.4,0,0,1,.1-.92,1.18,1.18,0,0,1,.49-.7,2.39,2.39,0,0,1,1.31-.27A2.34,2.34,0,0,1,211,17a1.21,1.21,0,0,1,.49.7,4.42,4.42,0,0,1,.1.93V30a4,4,0,0,0,0,.66.8.8,0,0,0,.15.42.56.56,0,0,0,.31.2,2.4,2.4,0,0,0,.52.05,2.68,2.68,0,0,1,.62.07.87.87,0,0,1,.53.45,2.56,2.56,0,0,1,.23,1.25,2.76,2.76,0,0,1-.23,1.3.89.89,0,0,1-.53.48A2.79,2.79,0,0,1,212.53,34.9Z"/><path class="cls-3" d="M222,35.13a7.28,7.28,0,0,1-3-.57A5.86,5.86,0,0,1,216.88,33a6.33,6.33,0,0,1-1.2-2.09,6.83,6.83,0,0,1-.4-2.3,6.51,6.51,0,0,1,.85-3.32A6.14,6.14,0,0,1,218.5,23a7.11,7.11,0,0,1,3.46-.83,6.22,6.22,0,0,1,2.51.46,5.23,5.23,0,0,1,1.75,1.2,5.1,5.1,0,0,1,1,1.59,4.51,4.51,0,0,1,.33,1.63,2.84,2.84,0,0,1-.66,2.05,2.27,2.27,0,0,1-1.69.67h-5.95a1.76,1.76,0,0,0,.46,1.07,2.73,2.73,0,0,0,1,.7,3.48,3.48,0,0,0,1.32.25,8.1,8.1,0,0,0,1-.06,4.49,4.49,0,0,0,.79-.17l.59-.23.48-.19a4.34,4.34,0,0,1,.43-.1,1,1,0,0,1,.67.22,2,2,0,0,1,.58.71,1.9,1.9,0,0,1,.24.53,2.07,2.07,0,0,1,.06.5,1.36,1.36,0,0,1-.61,1.08,4.73,4.73,0,0,1-1.73.74A11.56,11.56,0,0,1,222,35.13Zm-2.67-7.4h3.95a1.06,1.06,0,0,0,.58-.13.62.62,0,0,0,.2-.54,1.23,1.23,0,0,0-.28-.78,1.73,1.73,0,0,0-.73-.53,2.83,2.83,0,0,0-1.09-.19,3,3,0,0,0-1.35.3,2.31,2.31,0,0,0-.94.8A1.84,1.84,0,0,0,219.28,27.73Z"/><path class="cls-3" d="M230.46,22.61h2.75l3.45-.09a5.11,5.11,0,0,1,.9.08,1.14,1.14,0,0,1,.7.49,2.47,2.47,0,0,1,.27,1.33,2.31,2.31,0,0,1-.26,1.25,1.21,1.21,0,0,1-.69.51,3.8,3.8,0,0,1-.92.11l-3.28-.08-3,0a1.29,1.29,0,0,1-1-.47,2.5,2.5,0,0,1-.28-1.38,2.15,2.15,0,0,1,.35-1.34A1.26,1.26,0,0,1,230.46,22.61Zm5.64,12.31a7.9,7.9,0,0,1-2.2-.28,3.59,3.59,0,0,1-1.51-.85,3.5,3.5,0,0,1-.87-1.46,7,7,0,0,1-.29-2.12V20.09a5.12,5.12,0,0,1,.08-.93,1.12,1.12,0,0,1,.49-.66,2.51,2.51,0,0,1,1.3-.26,2.38,2.38,0,0,1,1.3.27,1.14,1.14,0,0,1,.49.72,4.46,4.46,0,0,1,.09.91v9.93a3.1,3.1,0,0,0,.06.66.89.89,0,0,0,.19.39.68.68,0,0,0,.35.17,2.79,2.79,0,0,0,.55.05,4.59,4.59,0,0,1,1,.1,1.1,1.1,0,0,1,.67.45,2.3,2.3,0,0,1,.23,1.18,2.4,2.4,0,0,1-.27,1.3,1.09,1.09,0,0,1-.72.47A5.31,5.31,0,0,1,236.1,34.92Z"/><path class="cls-3" d="M242.33,34.92a2.52,2.52,0,0,1-1.32-.26,1.14,1.14,0,0,1-.47-.72,4.63,4.63,0,0,1-.09-.92V24.29a4.42,4.42,0,0,1,.09-.92,1.07,1.07,0,0,1,.48-.69,2.59,2.59,0,0,1,1.33-.26,2.5,2.5,0,0,1,1.26.24,1.06,1.06,0,0,1,.49.55,1.73,1.73,0,0,1,.1.54l-.3.15a2.39,2.39,0,0,1,.26-.37,4.06,4.06,0,0,1,.59-.55,3.53,3.53,0,0,1,2.15-.68,4.55,4.55,0,0,1,.61,0,3,3,0,0,1,.7.15,2.47,2.47,0,0,1,.66.3,1.55,1.55,0,0,1,.49.46,1.13,1.13,0,0,1,.19.67,3,3,0,0,1-.48,1.74,1.38,1.38,0,0,1-1.2.71,2.11,2.11,0,0,1-.6-.06.92.92,0,0,1-.28-.15,1.17,1.17,0,0,0-.27-.15,1.68,1.68,0,0,0-.55-.06,2.39,2.39,0,0,0-.71.1,2.05,2.05,0,0,0-.63.31,1.6,1.6,0,0,0-.45.52,1.66,1.66,0,0,0-.16.72v5.47a4.46,4.46,0,0,1-.09.91,1,1,0,0,1-.49.69A2.58,2.58,0,0,1,242.33,34.92Z"/><path class="cls-3" d="M261.73,34.91a2.34,2.34,0,0,1-1.38-.33.89.89,0,0,1-.42-.8l.25-.42a2.8,2.8,0,0,1-.58.61,4.11,4.11,0,0,1-1.11.65,4.34,4.34,0,0,1-1.66.28,4.88,4.88,0,0,1-2.19-.5A5.85,5.85,0,0,1,252.8,33a7,7,0,0,1-1.27-2,5.8,5.8,0,0,1-.47-2.37,6,6,0,0,1,.47-2.34,6.9,6.9,0,0,1,1.29-2A6.42,6.42,0,0,1,254.66,23a4.93,4.93,0,0,1,2.17-.5,4.11,4.11,0,0,1,1.58.27,4.5,4.5,0,0,1,1.09.61,3.2,3.2,0,0,1,.66.68l-.23-.35a1.07,1.07,0,0,1,.44-.92,2.51,2.51,0,0,1,1.39-.31,2.24,2.24,0,0,1,1.29.28,1.14,1.14,0,0,1,.47.72,4.86,4.86,0,0,1,.09.95V33a4.7,4.7,0,0,1-.09.92,1,1,0,0,1-.47.71A2.39,2.39,0,0,1,261.73,34.91Zm-4.38-3.73a2.13,2.13,0,0,0,1.2-.34,2.6,2.6,0,0,0,1.18-2.18,2.57,2.57,0,0,0-.32-1.29,2.42,2.42,0,0,0-.88-.89,2.3,2.3,0,0,0-1.22-.33,2.49,2.49,0,0,0-1.27.34,2.53,2.53,0,0,0-1.24,2.21,2.43,2.43,0,0,0,.34,1.24,2.59,2.59,0,0,0,.93.9A2.48,2.48,0,0,0,257.35,31.18Z"/><path class="cls-3" d="M274.73,34.94a2.48,2.48,0,0,1-1.3-.26,1.09,1.09,0,0,1-.49-.72,4.7,4.7,0,0,1-.09-.92V19.36a4.42,4.42,0,0,1,.09-.92,1.1,1.1,0,0,1,.49-.7,2.4,2.4,0,0,1,1.32-.28,2.55,2.55,0,0,1,1.34.28,1.1,1.1,0,0,1,.47.71,4.69,4.69,0,0,1,.09.94v4.3L282,18.12a3.57,3.57,0,0,1,.91-.73,1.19,1.19,0,0,1,.85-.07,2.15,2.15,0,0,1,.94.63,2.08,2.08,0,0,1,.86,1.36,2,2,0,0,1-.71,1.33l-5.75,5.58,5.79,5.55a1.94,1.94,0,0,1,.74,1.39,2,2,0,0,1-.89,1.31,2.83,2.83,0,0,1-1,.65,1,1,0,0,1-.81-.09,3.73,3.73,0,0,1-.85-.74l-5.39-5.62v4.4a4.53,4.53,0,0,1-.09.91,1.06,1.06,0,0,1-.48.7A2.65,2.65,0,0,1,274.73,34.94Z"/><path class="cls-3" d="M298.33,31.55a2.06,2.06,0,0,1,.82,1.29,2,2,0,0,1-.67,1.41,3.42,3.42,0,0,1-1,.77,1,1,0,0,1-.81,0,4.35,4.35,0,0,1-.95-.65l-3.92-3.45v2.14a4.45,4.45,0,0,1-.09.93,1.1,1.1,0,0,1-.48.69A2.45,2.45,0,0,1,290,35a2.37,2.37,0,0,1-1.31-.27,1.06,1.06,0,0,1-.48-.69,5.67,5.67,0,0,1-.08-.94V18.65a4,4,0,0,1,.1-.94,1.11,1.11,0,0,1,.48-.7,2.52,2.52,0,0,1,1.32-.26,2.38,2.38,0,0,1,1.28.26,1.1,1.1,0,0,1,.48.7,4.78,4.78,0,0,1,.09,1V26.2l2.8-2.7a3.19,3.19,0,0,1,.94-.65,1.22,1.22,0,0,1,.86,0,2.23,2.23,0,0,1,.9.67,2.32,2.32,0,0,1,.78,1.42,2.24,2.24,0,0,1-.78,1.28l-2.7,2.45Z"/><path class="cls-2" d="M114.16,17.34a3.84,3.84,0,0,1,.79.08.92.92,0,0,1,.59.42,2.24,2.24,0,0,1,.22,1.15,2.16,2.16,0,0,1-.22,1.13.91.91,0,0,1-.6.42,4.09,4.09,0,0,1-.8.08h-4V33a4.29,4.29,0,0,1-.09.9,1.1,1.1,0,0,1-.48.69,2.55,2.55,0,0,1-1.34.26,2.43,2.43,0,0,1-1.27-.26,1.08,1.08,0,0,1-.49-.7,4.63,4.63,0,0,1-.08-.92V20.61h-4a3.31,3.31,0,0,1-.77-.09,1,1,0,0,1-.61-.42,2.06,2.06,0,0,1-.24-1.14,2,2,0,0,1,.24-1.12.93.93,0,0,1,.61-.43,3.94,3.94,0,0,1,.77-.07Z"/><path class="cls-2" d="M119.73,34.85a2.37,2.37,0,0,1-1.31-.27,1.07,1.07,0,0,1-.48-.71,4.7,4.7,0,0,1-.09-.92V24.22a4.42,4.42,0,0,1,.09-.92,1,1,0,0,1,.49-.69,2.42,2.42,0,0,1,1.32-.26,2.63,2.63,0,0,1,1.26.23,1.07,1.07,0,0,1,.49.56,1.63,1.63,0,0,1,.1.53l-.3.15a3.22,3.22,0,0,1,.26-.36,4,4,0,0,1,.59-.55,3.9,3.9,0,0,1,.91-.49,3.62,3.62,0,0,1,1.24-.2c.18,0,.39,0,.61,0a4.62,4.62,0,0,1,.7.15,3.16,3.16,0,0,1,.67.3,1.54,1.54,0,0,1,.48.47,1.11,1.11,0,0,1,.19.67,3.06,3.06,0,0,1-.48,1.74,1.4,1.4,0,0,1-1.2.71,2.11,2.11,0,0,1-.6-.06,1.21,1.21,0,0,1-.28-.15,1.17,1.17,0,0,0-.27-.15,1.39,1.39,0,0,0-.55-.07,2.77,2.77,0,0,0-.71.1,1.93,1.93,0,0,0-.62.32,1.32,1.32,0,0,0-.45.52,1.52,1.52,0,0,0-.17.71V33a4.53,4.53,0,0,1-.09.91,1,1,0,0,1-.49.69A2.64,2.64,0,0,1,119.73,34.85Z"/><path class="cls-2" d="M139.13,34.83a2.42,2.42,0,0,1-1.38-.32.9.9,0,0,1-.42-.8l.25-.43a2.59,2.59,0,0,1-.58.61,3.87,3.87,0,0,1-1.11.65,4.33,4.33,0,0,1-1.66.29,5,5,0,0,1-2.19-.5,6,6,0,0,1-1.84-1.39,7.21,7.21,0,0,1-1.27-2,6.16,6.16,0,0,1,0-4.72,6.72,6.72,0,0,1,1.29-2,6.37,6.37,0,0,1,1.84-1.36,4.94,4.94,0,0,1,2.18-.5,4.05,4.05,0,0,1,2.66.88,3.43,3.43,0,0,1,.66.67l-.22-.35a1,1,0,0,1,.43-.91,2.42,2.42,0,0,1,1.39-.31,2.34,2.34,0,0,1,1.29.27,1.15,1.15,0,0,1,.47.73,4.86,4.86,0,0,1,.09.95v8.62a5.64,5.64,0,0,1-.09.93,1.07,1.07,0,0,1-.48.71A2.38,2.38,0,0,1,139.13,34.83Zm-4.37-3.72a2.21,2.21,0,0,0,1.2-.34,2.56,2.56,0,0,0,1.17-2.19,2.62,2.62,0,0,0-.32-1.29,2.4,2.4,0,0,0-.88-.88,2.3,2.3,0,0,0-1.22-.33,2.33,2.33,0,0,0-1.26.34,2.53,2.53,0,0,0-1.24,2.21,2.42,2.42,0,0,0,.33,1.24,2.6,2.6,0,0,0,2.22,1.24Z"/><path class="cls-2" d="M144.88,34.86a1.76,1.76,0,0,1-1.31-.54A1.8,1.8,0,0,1,143,33a2,2,0,0,1,.14-.73,1.81,1.81,0,0,1,.41-.62l5.68-5.5h-3.8a4.45,4.45,0,0,1-.91-.1,1.22,1.22,0,0,1-.73-.49,2.28,2.28,0,0,1-.29-1.31,2.38,2.38,0,0,1,.29-1.32,1.21,1.21,0,0,1,.73-.47,4.46,4.46,0,0,1,.91-.09h7.83a1.78,1.78,0,0,1,1.84,1.85A2.17,2.17,0,0,1,155,25a1.45,1.45,0,0,1-.39.59l-5.55,5.52h4.52a4.57,4.57,0,0,1,.93.1,1.13,1.13,0,0,1,.68.5,2.39,2.39,0,0,1,.26,1.33,2.4,2.4,0,0,1-.27,1.3,1.07,1.07,0,0,1-.7.47,5.37,5.37,0,0,1-.93.08Z"/><path class="cls-2" d="M167.7,34.85a2.33,2.33,0,0,1-1.37-.33.91.91,0,0,1-.43-.8l.25-.42a2.72,2.72,0,0,1-.57.61,4.28,4.28,0,0,1-1.11.65,4.38,4.38,0,0,1-1.67.29,5,5,0,0,1-2.18-.5A6,6,0,0,1,158.78,33a7,7,0,0,1-1.27-2,6,6,0,0,1-.48-2.37,5.83,5.83,0,0,1,.48-2.34,6.72,6.72,0,0,1,1.29-2,6.07,6.07,0,0,1,1.84-1.36,4.77,4.77,0,0,1,2.17-.5,4.35,4.35,0,0,1,1.58.26,4.57,4.57,0,0,1,1.08.61,3.18,3.18,0,0,1,.66.68l-.22-.35a1,1,0,0,1,.44-.91,2.4,2.4,0,0,1,1.39-.31,2.3,2.3,0,0,1,1.28.27,1.14,1.14,0,0,1,.48.73,4.79,4.79,0,0,1,.09.95V33a4.73,4.73,0,0,1-.09.93,1.12,1.12,0,0,1-.47.71A2.52,2.52,0,0,1,167.7,34.85Zm-4.37-3.73a2.21,2.21,0,0,0,1.2-.33,2.6,2.6,0,0,0,.85-.92,2.48,2.48,0,0,0,.33-1.27,2.53,2.53,0,0,0-.33-1.29,2.4,2.4,0,0,0-.87-.89,2.55,2.55,0,0,0-2.49,0,2.64,2.64,0,0,0-.9.92,2.54,2.54,0,0,0-.34,1.3,2.28,2.28,0,0,0,.34,1.23,2.41,2.41,0,0,0,.92.9A2.49,2.49,0,0,0,163.33,31.12Z"/><path class="cls-2" d="M183.4,34.89a16,16,0,0,1-1.82-.11,3.58,3.58,0,0,1-1.35-.4,2.47,2.47,0,0,1-.9-.83,4.19,4.19,0,0,1-.53-1.38,10.88,10.88,0,0,1-.17-2.06V18.56a3.9,3.9,0,0,1,.1-.93,1.17,1.17,0,0,1,.49-.7,3.26,3.26,0,0,1,2.6,0,1.19,1.19,0,0,1,.48.7,4,4,0,0,1,.1.93V29.93a6.19,6.19,0,0,0,0,.67,1,1,0,0,0,.15.41.54.54,0,0,0,.32.2,2.34,2.34,0,0,0,.52.05,2.18,2.18,0,0,1,.61.08.89.89,0,0,1,.54.45A2.55,2.55,0,0,1,184.8,33a2.81,2.81,0,0,1-.22,1.3.89.89,0,0,1-.54.47A2.74,2.74,0,0,1,183.4,34.89Z"/><path class="cls-2" d="M196.83,34.87a2.34,2.34,0,0,1-1.38-.33.88.88,0,0,1-.42-.8l.25-.42a2.8,2.8,0,0,1-.58.61,4.12,4.12,0,0,1-2.77.93,4.88,4.88,0,0,1-2.19-.5A5.85,5.85,0,0,1,187.9,33a7.21,7.21,0,0,1-1.27-2,6.13,6.13,0,0,1,0-4.71,6.9,6.9,0,0,1,1.29-2,6.56,6.56,0,0,1,1.84-1.36,4.94,4.94,0,0,1,2.18-.5,4.2,4.2,0,0,1,2.66.88,3.2,3.2,0,0,1,.66.68l-.23-.35a1.07,1.07,0,0,1,.44-.92,2.51,2.51,0,0,1,1.39-.31,2.33,2.33,0,0,1,1.29.28,1.1,1.1,0,0,1,.47.72,4.86,4.86,0,0,1,.09.95V33a5.52,5.52,0,0,1-.08.92,1.11,1.11,0,0,1-.48.72A2.5,2.5,0,0,1,196.83,34.87Zm-4.37-3.73a2.16,2.16,0,0,0,1.2-.34,2.57,2.57,0,0,0,.85-.91,2.6,2.6,0,0,0,.32-1.27,2.57,2.57,0,0,0-.32-1.29,2.42,2.42,0,0,0-.88-.89,2.29,2.29,0,0,0-1.22-.32,2.33,2.33,0,0,0-1.26.33,2.53,2.53,0,0,0-.9.91,2.5,2.5,0,0,0-.34,1.3,2.4,2.4,0,0,0,.33,1.24,2.6,2.6,0,0,0,2.22,1.24Z"/><path class="cls-2" d="M212.53,34.9a14.3,14.3,0,0,1-1.83-.1,3.9,3.9,0,0,1-1.35-.4,2.58,2.58,0,0,1-.9-.84,4.13,4.13,0,0,1-.52-1.37,10.15,10.15,0,0,1-.17-2.07V18.57a4.4,4.4,0,0,1,.1-.92,1.18,1.18,0,0,1,.49-.7,2.39,2.39,0,0,1,1.31-.27A2.34,2.34,0,0,1,211,17a1.21,1.21,0,0,1,.49.7,4.42,4.42,0,0,1,.1.93V30a4,4,0,0,0,0,.66.8.8,0,0,0,.15.42.56.56,0,0,0,.31.2,2.4,2.4,0,0,0,.52.05,2.68,2.68,0,0,1,.62.07.87.87,0,0,1,.53.45,2.56,2.56,0,0,1,.23,1.25,2.76,2.76,0,0,1-.23,1.3.89.89,0,0,1-.53.48A2.79,2.79,0,0,1,212.53,34.9Z"/><path class="cls-2" d="M222,35.13a7.28,7.28,0,0,1-3-.57A5.86,5.86,0,0,1,216.88,33a6.33,6.33,0,0,1-1.2-2.09,6.83,6.83,0,0,1-.4-2.3,6.51,6.51,0,0,1,.85-3.32A6.14,6.14,0,0,1,218.5,23a7.11,7.11,0,0,1,3.46-.83,6.22,6.22,0,0,1,2.51.46,5.23,5.23,0,0,1,1.75,1.2,5.1,5.1,0,0,1,1,1.59,4.51,4.51,0,0,1,.33,1.63,2.84,2.84,0,0,1-.66,2.05,2.27,2.27,0,0,1-1.69.67h-5.95a1.76,1.76,0,0,0,.46,1.07,2.73,2.73,0,0,0,1,.7,3.48,3.48,0,0,0,1.32.25,8.1,8.1,0,0,0,1-.06,4.49,4.49,0,0,0,.79-.17l.59-.23.48-.19a4.34,4.34,0,0,1,.43-.1,1,1,0,0,1,.67.22,2,2,0,0,1,.58.71,1.9,1.9,0,0,1,.24.53,2.07,2.07,0,0,1,.06.5,1.36,1.36,0,0,1-.61,1.08,4.73,4.73,0,0,1-1.73.74A11.56,11.56,0,0,1,222,35.13Zm-2.67-7.4h3.95a1.06,1.06,0,0,0,.58-.13.62.62,0,0,0,.2-.54,1.23,1.23,0,0,0-.28-.78,1.73,1.73,0,0,0-.73-.53,2.83,2.83,0,0,0-1.09-.19,3,3,0,0,0-1.35.3,2.31,2.31,0,0,0-.94.8A1.84,1.84,0,0,0,219.28,27.73Z"/><path class="cls-2" d="M230.46,22.61h2.75l3.45-.09a5.11,5.11,0,0,1,.9.08,1.14,1.14,0,0,1,.7.49,2.47,2.47,0,0,1,.27,1.33,2.31,2.31,0,0,1-.26,1.25,1.21,1.21,0,0,1-.69.51,3.8,3.8,0,0,1-.92.11l-3.28-.08-3,0a1.29,1.29,0,0,1-1-.47,2.5,2.5,0,0,1-.28-1.38,2.15,2.15,0,0,1,.35-1.34A1.26,1.26,0,0,1,230.46,22.61Zm5.64,12.31a7.9,7.9,0,0,1-2.2-.28,3.59,3.59,0,0,1-1.51-.85,3.5,3.5,0,0,1-.87-1.46,7,7,0,0,1-.29-2.12V20.09a5.12,5.12,0,0,1,.08-.93,1.12,1.12,0,0,1,.49-.66,2.51,2.51,0,0,1,1.3-.26,2.38,2.38,0,0,1,1.3.27,1.14,1.14,0,0,1,.49.72,4.46,4.46,0,0,1,.09.91v9.93a3.1,3.1,0,0,0,.06.66.89.89,0,0,0,.19.39.68.68,0,0,0,.35.17,2.79,2.79,0,0,0,.55.05,4.59,4.59,0,0,1,1,.1,1.1,1.1,0,0,1,.67.45,2.3,2.3,0,0,1,.23,1.18,2.4,2.4,0,0,1-.27,1.3,1.09,1.09,0,0,1-.72.47A5.31,5.31,0,0,1,236.1,34.92Z"/><path class="cls-2" d="M242.33,34.92a2.52,2.52,0,0,1-1.32-.26,1.14,1.14,0,0,1-.47-.72,4.63,4.63,0,0,1-.09-.92V24.29a4.42,4.42,0,0,1,.09-.92,1.07,1.07,0,0,1,.48-.69,2.59,2.59,0,0,1,1.33-.26,2.5,2.5,0,0,1,1.26.24,1.06,1.06,0,0,1,.49.55,1.73,1.73,0,0,1,.1.54l-.3.15a2.39,2.39,0,0,1,.26-.37,4.06,4.06,0,0,1,.59-.55,3.53,3.53,0,0,1,2.15-.68,4.55,4.55,0,0,1,.61,0,3,3,0,0,1,.7.15,2.47,2.47,0,0,1,.66.3,1.55,1.55,0,0,1,.49.46,1.13,1.13,0,0,1,.19.67,3,3,0,0,1-.48,1.74,1.38,1.38,0,0,1-1.2.71,2.11,2.11,0,0,1-.6-.06.92.92,0,0,1-.28-.15,1.17,1.17,0,0,0-.27-.15,1.68,1.68,0,0,0-.55-.06,2.39,2.39,0,0,0-.71.1,2.05,2.05,0,0,0-.63.31,1.6,1.6,0,0,0-.45.52,1.66,1.66,0,0,0-.16.72v5.47a4.46,4.46,0,0,1-.09.91,1,1,0,0,1-.49.69A2.58,2.58,0,0,1,242.33,34.92Z"/><path class="cls-2" d="M261.73,34.91a2.34,2.34,0,0,1-1.38-.33.89.89,0,0,1-.42-.8l.25-.42a2.8,2.8,0,0,1-.58.61,4.11,4.11,0,0,1-1.11.65,4.34,4.34,0,0,1-1.66.28,4.88,4.88,0,0,1-2.19-.5A5.85,5.85,0,0,1,252.8,33a7,7,0,0,1-1.27-2,5.8,5.8,0,0,1-.47-2.37,6,6,0,0,1,.47-2.34,6.9,6.9,0,0,1,1.29-2A6.42,6.42,0,0,1,254.66,23a4.93,4.93,0,0,1,2.17-.5,4.11,4.11,0,0,1,1.58.27,4.5,4.5,0,0,1,1.09.61,3.2,3.2,0,0,1,.66.68l-.23-.35a1.07,1.07,0,0,1,.44-.92,2.51,2.51,0,0,1,1.39-.31,2.24,2.24,0,0,1,1.29.28,1.14,1.14,0,0,1,.47.72,4.86,4.86,0,0,1,.09.95V33a4.7,4.7,0,0,1-.09.92,1,1,0,0,1-.47.71A2.39,2.39,0,0,1,261.73,34.91Zm-4.38-3.73a2.13,2.13,0,0,0,1.2-.34,2.6,2.6,0,0,0,1.18-2.18,2.57,2.57,0,0,0-.32-1.29,2.42,2.42,0,0,0-.88-.89,2.3,2.3,0,0,0-1.22-.33,2.49,2.49,0,0,0-1.27.34,2.53,2.53,0,0,0-1.24,2.21,2.43,2.43,0,0,0,.34,1.24,2.59,2.59,0,0,0,.93.9A2.48,2.48,0,0,0,257.35,31.18Z"/><path class="cls-2" d="M274.73,34.94a2.48,2.48,0,0,1-1.3-.26,1.09,1.09,0,0,1-.49-.72,4.7,4.7,0,0,1-.09-.92V19.36a4.42,4.42,0,0,1,.09-.92,1.1,1.1,0,0,1,.49-.7,2.4,2.4,0,0,1,1.32-.28,2.55,2.55,0,0,1,1.34.28,1.1,1.1,0,0,1,.47.71,4.69,4.69,0,0,1,.09.94v4.3L282,18.12a3.57,3.57,0,0,1,.91-.73,1.19,1.19,0,0,1,.85-.07,2.15,2.15,0,0,1,.94.63,2.08,2.08,0,0,1,.86,1.36,2,2,0,0,1-.71,1.33l-5.75,5.58,5.79,5.55a1.94,1.94,0,0,1,.74,1.39,2,2,0,0,1-.89,1.31,2.83,2.83,0,0,1-1,.65,1,1,0,0,1-.81-.09,3.73,3.73,0,0,1-.85-.74l-5.39-5.62v4.4a4.53,4.53,0,0,1-.09.91,1.06,1.06,0,0,1-.48.7A2.65,2.65,0,0,1,274.73,34.94Z"/><path class="cls-2" d="M298.33,31.55a2.06,2.06,0,0,1,.82,1.29,2,2,0,0,1-.67,1.41,3.42,3.42,0,0,1-1,.77,1,1,0,0,1-.81,0,4.35,4.35,0,0,1-.95-.65l-3.92-3.45v2.14a4.45,4.45,0,0,1-.09.93,1.1,1.1,0,0,1-.48.69A2.45,2.45,0,0,1,290,35a2.37,2.37,0,0,1-1.31-.27,1.06,1.06,0,0,1-.48-.69,5.67,5.67,0,0,1-.08-.94V18.65a4,4,0,0,1,.1-.94,1.11,1.11,0,0,1,.48-.7,2.52,2.52,0,0,1,1.32-.26,2.38,2.38,0,0,1,1.28.26,1.1,1.1,0,0,1,.48.7,4.78,4.78,0,0,1,.09,1V26.2l2.8-2.7a3.19,3.19,0,0,1,.94-.65,1.22,1.22,0,0,1,.86,0,2.23,2.23,0,0,1,.9.67,2.32,2.32,0,0,1,.78,1.42,2.24,2.24,0,0,1-.78,1.28l-2.7,2.45Z"/><path class="cls-4" d="M55.46,35.55c0,2.27-.4,3.89-1.18,4.85a4.36,4.36,0,0,1-3.59,1.45,5.73,5.73,0,0,1-2.57-.5,3.29,3.29,0,0,1-1.48-1.85,11.09,11.09,0,0,1-.55-3.61L46,20.22a6.3,6.3,0,0,1-3.21-.73A2.58,2.58,0,0,1,41.55,17a2.76,2.76,0,0,1,1.16-2.29,5.16,5.16,0,0,1,3.24-.9c.54,0,1.31,0,2.3,0l2.1,0c2,0,3.36.34,4,1a5,5,0,0,1,1,3.59Z"/><path class="cls-4" d="M59.21,39a2.78,2.78,0,0,1,1.16-2.31,5.38,5.38,0,0,1,3.28-.88c3,0,4.44,1.07,4.44,3.19a3.11,3.11,0,0,1-.57,2,2.73,2.73,0,0,1-1.51,1,9.17,9.17,0,0,1-2.36.26,6.13,6.13,0,0,1-3.18-.76A2.62,2.62,0,0,1,59.21,39Z"/><path class="cls-4" d="M70.58,37.44a18.23,18.23,0,0,1,.67-4.7,27.86,27.86,0,0,1,1.64-4.58c.63-1.37,1.28-2.64,1.93-3.8s1.2-2.07,1.64-2.71l.69-1H71.53a5.22,5.22,0,0,1-3.28-.75,3.2,3.2,0,0,1-.87-2.57c0-1.43.33-2.36,1-2.79a6.88,6.88,0,0,1,3.52-.65l12.06,0a7.41,7.41,0,0,1,4.05.8c.78.53,1.16,1.63,1.16,3.31,0,.17,0,.34,0,.51a1.86,1.86,0,0,1-.1.48,2.16,2.16,0,0,0-.12.4,1.55,1.55,0,0,1-.19.4,3.81,3.81,0,0,0-.2.36,2.26,2.26,0,0,1-.29.37q-.23.26-.3.36l-.37.44c-.19.23-.33.38-.41.46a29.19,29.19,0,0,0-5,7.61,34.41,34.41,0,0,0-2.24,7.81c-.33,2-.8,3.3-1.39,3.86a5,5,0,0,1-3.34.84,4.67,4.67,0,0,1-3.42-1.15A4.35,4.35,0,0,1,70.58,37.44Z"/><path class="cls-5" d="M55.46,35.55c0,2.27-.4,3.89-1.18,4.85a4.36,4.36,0,0,1-3.59,1.45,5.73,5.73,0,0,1-2.57-.5,3.29,3.29,0,0,1-1.48-1.85,11.09,11.09,0,0,1-.55-3.61L46,20.22a6.3,6.3,0,0,1-3.21-.73A2.58,2.58,0,0,1,41.55,17a2.76,2.76,0,0,1,1.16-2.29,5.16,5.16,0,0,1,3.24-.9c.54,0,1.31,0,2.3,0l2.1,0c2,0,3.36.34,4,1a5,5,0,0,1,1,3.59Z"/><path class="cls-5" d="M59.21,39a2.78,2.78,0,0,1,1.16-2.31,5.38,5.38,0,0,1,3.28-.88c3,0,4.44,1.07,4.44,3.19a3.11,3.11,0,0,1-.57,2,2.73,2.73,0,0,1-1.51,1,9.17,9.17,0,0,1-2.36.26,6.13,6.13,0,0,1-3.18-.76A2.62,2.62,0,0,1,59.21,39Z"/><path class="cls-5" d="M70.58,37.44a18.23,18.23,0,0,1,.67-4.7,27.86,27.86,0,0,1,1.64-4.58c.63-1.37,1.28-2.64,1.93-3.8s1.2-2.07,1.64-2.71l.69-1H71.53a5.22,5.22,0,0,1-3.28-.75,3.2,3.2,0,0,1-.87-2.57c0-1.43.33-2.36,1-2.79a6.88,6.88,0,0,1,3.52-.65l12.06,0a7.41,7.41,0,0,1,4.05.8c.78.53,1.16,1.63,1.16,3.31,0,.17,0,.34,0,.51a1.86,1.86,0,0,1-.1.48,2.16,2.16,0,0,0-.12.4,1.55,1.55,0,0,1-.19.4,3.81,3.81,0,0,0-.2.36,2.26,2.26,0,0,1-.29.37q-.23.26-.3.36l-.37.44c-.19.23-.33.38-.41.46a29.19,29.19,0,0,0-5,7.61,34.41,34.41,0,0,0-2.24,7.81c-.33,2-.8,3.3-1.39,3.86a5,5,0,0,1-3.34.84,4.67,4.67,0,0,1-3.42-1.15A4.35,4.35,0,0,1,70.58,37.44Z"/></g></g></svg>