<svg xmlns="http://www.w3.org/2000/svg" viewBox="0 0 399.98 99.09"><defs><style>.cls-1{fill:#03826e;}.cls-2{fill:#fff;}.cls-3,.cls-4{fill:none;stroke-width:5px;}.cls-3{stroke:#b6ba01;stroke-linejoin:round;}.cls-4{stroke:#fff;}.cls-5{fill:#b6ba01;}</style></defs><title>21t</title><g id="Layer_2" data-name="Layer 2"><g id="pestaña_identificativa" data-name="pestaña identificativa"><rect class="cls-1" width="399.98" height="99.09" rx="32.4"/><path class="cls-2" d="M102.5,32.89A1.85,1.85,0,0,1,100.61,31a2.38,2.38,0,0,1,.06-.55.81.81,0,0,1,.21-.4l7.71-10.92h-6a4.81,4.81,0,0,1-.93-.09,1.25,1.25,0,0,1-.77-.48,2.09,2.09,0,0,1-.3-1.26,2.4,2.4,0,0,1,.28-1.32,1.13,1.13,0,0,1,.72-.5,4.08,4.08,0,0,1,.93-.1h9.65a1.8,1.8,0,0,1,1.34.56,1.9,1.9,0,0,1,.53,1.37,2.3,2.3,0,0,1-.07.6,1.2,1.2,0,0,1-.23.45l-7.65,10.87h6.42a4.59,4.59,0,0,1,.93.09,1.06,1.06,0,0,1,.68.48,2.18,2.18,0,0,1,.27,1.23,2.56,2.56,0,0,1-.28,1.33,1.14,1.14,0,0,1-.7.49,5.44,5.44,0,0,1-1,.08Z"/><path class="cls-2" d="M118.41,18.55a2.61,2.61,0,0,1-1.35-.28,1.1,1.1,0,0,1-.48-.73,5.11,5.11,0,0,1,0-1.91,1.06,1.06,0,0,1,.5-.7,2.69,2.69,0,0,1,1.36-.26,2.37,2.37,0,0,1,1.33.28,1.11,1.11,0,0,1,.48.72,5,5,0,0,1,.09,1,4.7,4.7,0,0,1-.09.92,1.05,1.05,0,0,1-.49.71A2.48,2.48,0,0,1,118.41,18.55Zm0,14.3a2.46,2.46,0,0,1-1.32-.27,1,1,0,0,1-.47-.7,5.31,5.31,0,0,1-.08-.91V22.24a5.4,5.4,0,0,1,.08-.91,1.11,1.11,0,0,1,.49-.7,2.59,2.59,0,0,1,1.33-.26,2.18,2.18,0,0,1,1.28.28,1.12,1.12,0,0,1,.48.71,4.62,4.62,0,0,1,.09.94V31a4.53,4.53,0,0,1-.09.91,1,1,0,0,1-.47.69A2.64,2.64,0,0,1,118.4,32.85Z"/><path class="cls-2" d="M128.13,32.53A5,5,0,0,1,126,32a5.84,5.84,0,0,1-1.79-1.34A6.55,6.55,0,0,1,123,28.75a6.12,6.12,0,0,1-.45-2.33,6,6,0,0,1,.45-2.31,6.15,6.15,0,0,1,1.24-1.92,6,6,0,0,1,1.8-1.33,4.86,4.86,0,0,1,2.11-.48,3.84,3.84,0,0,1,1.9.43,3.36,3.36,0,0,1,1.25,1.26A6.39,6.39,0,0,1,132,24a11.82,11.82,0,0,1,.24,2.49,11,11,0,0,1-.42,3.21,4.2,4.2,0,0,1-1.3,2.1A3.58,3.58,0,0,1,128.13,32.53Zm.45,5.47a6.62,6.62,0,0,1-1.77-.23,7.09,7.09,0,0,1-1.58-.6,4.28,4.28,0,0,1-1.15-.8,1.19,1.19,0,0,1-.43-.85,1.77,1.77,0,0,1,.15-.73,2.46,2.46,0,0,1,.45-.67,7,7,0,0,1,.6-.57,1,1,0,0,1,.6-.2,1,1,0,0,1,.63.19l.59.41a3.33,3.33,0,0,0,.78.41,3.21,3.21,0,0,0,1.2.19,2.26,2.26,0,0,0,.94-.19,1.92,1.92,0,0,0,.75-.55,2.71,2.71,0,0,0,.5-.84,2.94,2.94,0,0,0,.19-1.09V21.53a1.23,1.23,0,0,1,.51-.94,2.49,2.49,0,0,1,1.34-.29,2.21,2.21,0,0,1,1.25.27,1.06,1.06,0,0,1,.46.69,4.26,4.26,0,0,1,.09.89V32a5.88,5.88,0,0,1-.53,2.54,5.57,5.57,0,0,1-1.4,1.87,6,6,0,0,1-1.95,1.16A6.27,6.27,0,0,1,128.58,38Zm0-9.1a2.13,2.13,0,0,0,1.2-.34,2.53,2.53,0,0,0,.84-.88,2.6,2.6,0,0,0,.31-1.25,2.54,2.54,0,0,0-.31-1.25,2.3,2.3,0,0,0-2.07-1.2,2.23,2.23,0,0,0-1.2.33,2.44,2.44,0,0,0-.83.89,2.47,2.47,0,0,0-.32,1.25,2.36,2.36,0,0,0,.33,1.23,2.5,2.5,0,0,0,.86.88A2.15,2.15,0,0,0,128.56,28.9Z"/><path class="cls-2" d="M138.63,32.86a1.76,1.76,0,0,1-1.31-.54,1.81,1.81,0,0,1-.54-1.34,2,2,0,0,1,.14-.72,1.76,1.76,0,0,1,.41-.63L143,24.14h-3.8a3.85,3.85,0,0,1-.91-.1,1.18,1.18,0,0,1-.73-.49,2.24,2.24,0,0,1-.29-1.31,2.34,2.34,0,0,1,.29-1.31,1.21,1.21,0,0,1,.73-.48,5.31,5.31,0,0,1,.91-.08H147a1.81,1.81,0,0,1,1.85,1.85,2.23,2.23,0,0,1-.14.77,1.42,1.42,0,0,1-.39.58l-5.55,5.53h4.52a4,4,0,0,1,.93.1,1.09,1.09,0,0,1,.68.5A2.38,2.38,0,0,1,149.2,31a2.38,2.38,0,0,1-.27,1.3,1.05,1.05,0,0,1-.7.48,5.41,5.41,0,0,1-.93.07Z"/><path class="cls-2" d="M161.45,32.85a2.33,2.33,0,0,1-1.37-.33.92.92,0,0,1-.43-.8l.25-.42a2.7,2.7,0,0,1-.57.61,4.28,4.28,0,0,1-1.11.65,4.39,4.39,0,0,1-1.67.28,4.87,4.87,0,0,1-2.18-.5A5.74,5.74,0,0,1,152.53,31a7,7,0,0,1-1.27-2,6,6,0,0,1-.48-2.38,5.82,5.82,0,0,1,.48-2.33,6.9,6.9,0,0,1,1.29-2,6.42,6.42,0,0,1,1.84-1.36,4.9,4.9,0,0,1,2.17-.5,4.14,4.14,0,0,1,1.58.27,4.24,4.24,0,0,1,1.08.61,3.51,3.51,0,0,1,.67.67l-.23-.34a1.06,1.06,0,0,1,.44-.92,2.48,2.48,0,0,1,1.39-.31,2.18,2.18,0,0,1,1.28.28,1.11,1.11,0,0,1,.48.72,4.86,4.86,0,0,1,.09.95V31a4.7,4.7,0,0,1-.09.92,1.06,1.06,0,0,1-.47.71A2.41,2.41,0,0,1,161.45,32.85Zm-4.37-3.73a2.13,2.13,0,0,0,1.2-.34,2.57,2.57,0,0,0,.85-.91,2.51,2.51,0,0,0,.33-1.27,2.48,2.48,0,0,0-.33-1.29,2.32,2.32,0,0,0-.87-.89,2.36,2.36,0,0,0-1.23-.33,2.48,2.48,0,0,0-1.26.34,2.53,2.53,0,0,0-1.24,2.21,2.34,2.34,0,0,0,.34,1.24,2.48,2.48,0,0,0,.92.9A2.51,2.51,0,0,0,157.08,29.12Z"/><path class="cls-2" d="M171,32.55a4.88,4.88,0,0,1-2.16-.49,5.93,5.93,0,0,1-1.79-1.33,6.68,6.68,0,0,1-1.22-2,6,6,0,0,1-.45-2.32,6,6,0,0,1,.45-2.31,6.38,6.38,0,0,1,1.24-1.93,6.06,6.06,0,0,1,1.8-1.32A4.77,4.77,0,0,1,171,20.4a3.84,3.84,0,0,1,1.9.44,3.41,3.41,0,0,1,1.25,1.25,6.63,6.63,0,0,1,.71,1.93,12.53,12.53,0,0,1,.23,2.48,11.35,11.35,0,0,1-.41,3.22,4.32,4.32,0,0,1-1.3,2.1A3.59,3.59,0,0,1,171,32.55Zm.45,5.48a6.91,6.91,0,0,1-1.76-.23,7.49,7.49,0,0,1-1.59-.6,4.71,4.71,0,0,1-1.15-.8,1.23,1.23,0,0,1-.42-.85,1.81,1.81,0,0,1,.15-.74,2.58,2.58,0,0,1,.45-.66,6.14,6.14,0,0,1,.6-.58.92.92,0,0,1,.6-.19,1.1,1.1,0,0,1,.62.18l.59.42a3.85,3.85,0,0,0,.79.41,3.35,3.35,0,0,0,1.2.19,2.32,2.32,0,0,0,.94-.19,2,2,0,0,0,.75-.55,3.08,3.08,0,0,0,.5-.85,3.12,3.12,0,0,0,.18-1.09V21.55a1.21,1.21,0,0,1,.51-.93,2.49,2.49,0,0,1,1.34-.29,2.31,2.31,0,0,1,1.25.26,1.11,1.11,0,0,1,.46.69,4.29,4.29,0,0,1,.09.9v9.88a5.84,5.84,0,0,1-.52,2.53,5.75,5.75,0,0,1-1.4,1.88A6.35,6.35,0,0,1,171.45,38Zm0-9.1a2.21,2.21,0,0,0,1.2-.34,2.48,2.48,0,0,0,.84-.89,2.44,2.44,0,0,0,.31-1.25,2.49,2.49,0,0,0-.31-1.25,2.36,2.36,0,0,0-.85-.87,2.27,2.27,0,0,0-1.21-.33,2.13,2.13,0,0,0-1.2.34,2.48,2.48,0,0,0-.84.89,2.44,2.44,0,0,0-.31,1.25,2.41,2.41,0,0,0,.32,1.22,2.71,2.71,0,0,0,.86.89A2.26,2.26,0,0,0,171.43,28.93Z"/><path class="cls-2" d="M192.83,33a6.64,6.64,0,0,1-2.24-.41,7,7,0,0,1-2.1-1.22,5.77,5.77,0,0,1-1.53-2,6.21,6.21,0,0,1-.58-2.75,6,6,0,0,1,2.1-4.7,7.08,7.08,0,0,1,2.09-1.21,6.62,6.62,0,0,1,2.22-.41,6.08,6.08,0,0,1,1.66.21,5.88,5.88,0,0,1,1.25.52,4.28,4.28,0,0,1,.74.52,8.35,8.35,0,0,1,.74.65,1.05,1.05,0,0,1,.3.85,1.43,1.43,0,0,1-.17.57,4.41,4.41,0,0,1-.38.58c-.51.7-1,1-1.5.95a2.12,2.12,0,0,1-.68-.25l-.6-.35a4.48,4.48,0,0,0-.62-.31,1.89,1.89,0,0,0-.75-.14,2.5,2.5,0,0,0-1.3.34,2.48,2.48,0,0,0-1.25,2.21,2.53,2.53,0,0,0,1.24,2.21,2.33,2.33,0,0,0,1.26.34,2.39,2.39,0,0,0,.73-.1,2.83,2.83,0,0,0,.55-.24l.35-.21.57-.36a1.05,1.05,0,0,1,.55-.16,1.21,1.21,0,0,1,.74.26,4.38,4.38,0,0,1,.81.84,2.07,2.07,0,0,1,.49,1,1.22,1.22,0,0,1-.22.87,2.68,2.68,0,0,1-.85.76,5.06,5.06,0,0,1-.71.45,7.21,7.21,0,0,1-1.25.5A5.7,5.7,0,0,1,192.83,33Z"/><path class="cls-2" d="M205.78,33.1a6.26,6.26,0,0,1-2.34-.47,7,7,0,0,1-2.11-1.31,6.24,6.24,0,0,1-1.51-2,6,6,0,0,1-.56-2.64,6.19,6.19,0,0,1,.51-2.51,6.75,6.75,0,0,1,1.41-2.06,6.67,6.67,0,0,1,2.07-1.41,6.08,6.08,0,0,1,2.48-.51A6.36,6.36,0,0,1,209,21a6.61,6.61,0,0,1,2.33,2.34,6.27,6.27,0,0,1,.88,3.28,6.2,6.2,0,0,1-.57,2.71,6.35,6.35,0,0,1-1.5,2,6.68,6.68,0,0,1-2.07,1.28A6.42,6.42,0,0,1,205.78,33.1Zm-.05-3.78A2.85,2.85,0,0,0,207,29a2.81,2.81,0,0,0,1-.9,2.57,2.57,0,0,0,.42-1.52,2.67,2.67,0,0,0-.35-1.4,2.48,2.48,0,0,0-1-.94,2.94,2.94,0,0,0-1.41-.34,2.6,2.6,0,0,0-1.34.35,2.82,2.82,0,0,0-1,1,2.72,2.72,0,0,0-.36,1.39,2.58,2.58,0,0,0,.41,1.51,2.43,2.43,0,0,0,1,.9A2.76,2.76,0,0,0,205.73,29.32Z"/><path class="cls-2" d="M216.1,32.9a2.41,2.41,0,0,1-1.31-.26,1,1,0,0,1-.47-.71,4.73,4.73,0,0,1-.09-.93V22.28a4.52,4.52,0,0,1,.09-.93,1,1,0,0,1,.49-.68,2.47,2.47,0,0,1,1.33-.27,2.5,2.5,0,0,1,1.26.24,1,1,0,0,1,.48.55,1.73,1.73,0,0,1,.1.54l-.3.15a3.2,3.2,0,0,1,.27-.36,3.1,3.1,0,0,1,.58-.55,3.5,3.5,0,0,1,2.16-.69,4.66,4.66,0,0,1,.61,0,4.89,4.89,0,0,1,.7.15,3.32,3.32,0,0,1,.66.3,1.8,1.8,0,0,1,.49.46,1.23,1.23,0,0,1,.18.68,3.06,3.06,0,0,1-.47,1.74,1.42,1.42,0,0,1-1.2.71,1.66,1.66,0,0,1-.6-.07,1,1,0,0,1-.29-.15l-.26-.15a1.68,1.68,0,0,0-.55-.06,2.34,2.34,0,0,0-.71.1,2.06,2.06,0,0,0-.63.31,1.54,1.54,0,0,0-.45.53,1.49,1.49,0,0,0-.16.71v5.48a5.4,5.4,0,0,1-.08.91,1,1,0,0,1-.49.68A2.6,2.6,0,0,1,216.1,32.9Z"/><path class="cls-2" d="M226.08,20.61h2.75l3.45-.1a4.46,4.46,0,0,1,.91.09,1.08,1.08,0,0,1,.69.49,2.35,2.35,0,0,1,.28,1.32,2.35,2.35,0,0,1-.26,1.25,1.21,1.21,0,0,1-.69.52,3.89,3.89,0,0,1-.93.11L229,24.21l-3,0a1.23,1.23,0,0,1-1-.46,2.52,2.52,0,0,1-.29-1.39,2.11,2.11,0,0,1,.35-1.33A1.29,1.29,0,0,1,226.08,20.61Zm5.65,12.3a7.87,7.87,0,0,1-2.2-.27,3.64,3.64,0,0,1-1.51-.85,3.45,3.45,0,0,1-.88-1.47,6.91,6.91,0,0,1-.28-2.11V18.09a4.25,4.25,0,0,1,.09-.93,1,1,0,0,1,.49-.66,3.32,3.32,0,0,1,2.6,0,1.1,1.1,0,0,1,.48.72,4.46,4.46,0,0,1,.09.91v9.92a3.13,3.13,0,0,0,.06.67.72.72,0,0,0,.19.38.65.65,0,0,0,.34.18,3,3,0,0,0,.55.05,4.1,4.1,0,0,1,1,.1,1.1,1.1,0,0,1,.66.45,2.15,2.15,0,0,1,.24,1.17,2.28,2.28,0,0,1-.28,1.3,1,1,0,0,1-.71.48A5.41,5.41,0,0,1,231.73,32.91Z"/><path class="cls-2" d="M242.08,33.12a6.45,6.45,0,0,1-2.34-.46,7.06,7.06,0,0,1-2.11-1.32,6.13,6.13,0,0,1-1.51-2,6,6,0,0,1-.56-2.63,6.24,6.24,0,0,1,.51-2.52,6.75,6.75,0,0,1,1.41-2.06,6.67,6.67,0,0,1,2.07-1.41,6.08,6.08,0,0,1,2.48-.51,6.39,6.39,0,0,1,3.27.86,6.61,6.61,0,0,1,2.33,2.34,6.27,6.27,0,0,1,.88,3.28,6.17,6.17,0,0,1-.57,2.71,6.35,6.35,0,0,1-1.5,2,6.61,6.61,0,0,1-2.08,1.28A6.32,6.32,0,0,1,242.08,33.12ZM242,29.34a3,3,0,0,0,1.23-.29,2.81,2.81,0,0,0,1.05-.9,2.61,2.61,0,0,0,.42-1.53,2.77,2.77,0,0,0-.35-1.4,2.48,2.48,0,0,0-1-.94,2.94,2.94,0,0,0-1.41-.34,2.6,2.6,0,0,0-1.34.35,2.76,2.76,0,0,0-.95,1,2.93,2.93,0,0,0,.05,2.9,2.57,2.57,0,0,0,1,.9A2.89,2.89,0,0,0,242,29.34Z"/><path class="cls-3" d="M102.5,32.89A1.85,1.85,0,0,1,100.61,31a2.38,2.38,0,0,1,.06-.55.81.81,0,0,1,.21-.4l7.71-10.92h-6a4.81,4.81,0,0,1-.93-.09,1.25,1.25,0,0,1-.77-.48,2.09,2.09,0,0,1-.3-1.26,2.4,2.4,0,0,1,.28-1.32,1.13,1.13,0,0,1,.72-.5,4.08,4.08,0,0,1,.93-.1h9.65a1.8,1.8,0,0,1,1.34.56,1.9,1.9,0,0,1,.53,1.37,2.3,2.3,0,0,1-.07.6,1.2,1.2,0,0,1-.23.45l-7.65,10.87h6.42a4.59,4.59,0,0,1,.93.09,1.06,1.06,0,0,1,.68.48,2.18,2.18,0,0,1,.27,1.23,2.56,2.56,0,0,1-.28,1.33,1.14,1.14,0,0,1-.7.49,5.44,5.44,0,0,1-1,.08Z"/><path class="cls-3" d="M118.41,18.55a2.61,2.61,0,0,1-1.35-.28,1.1,1.1,0,0,1-.48-.73,5.11,5.11,0,0,1,0-1.91,1.06,1.06,0,0,1,.5-.7,2.69,2.69,0,0,1,1.36-.26,2.37,2.37,0,0,1,1.33.28,1.11,1.11,0,0,1,.48.72,5,5,0,0,1,.09,1,4.7,4.7,0,0,1-.09.92,1.05,1.05,0,0,1-.49.71A2.48,2.48,0,0,1,118.41,18.55Zm0,14.3a2.46,2.46,0,0,1-1.32-.27,1,1,0,0,1-.47-.7,5.31,5.31,0,0,1-.08-.91V22.24a5.4,5.4,0,0,1,.08-.91,1.11,1.11,0,0,1,.49-.7,2.59,2.59,0,0,1,1.33-.26,2.18,2.18,0,0,1,1.28.28,1.12,1.12,0,0,1,.48.71,4.62,4.62,0,0,1,.09.94V31a4.53,4.53,0,0,1-.09.91,1,1,0,0,1-.47.69A2.64,2.64,0,0,1,118.4,32.85Z"/><path class="cls-3" d="M128.13,32.53A5,5,0,0,1,126,32a5.84,5.84,0,0,1-1.79-1.34A6.55,6.55,0,0,1,123,28.75a6.12,6.12,0,0,1-.45-2.33,6,6,0,0,1,.45-2.31,6.15,6.15,0,0,1,1.24-1.92,6,6,0,0,1,1.8-1.33,4.86,4.86,0,0,1,2.11-.48,3.84,3.84,0,0,1,1.9.43,3.36,3.36,0,0,1,1.25,1.26A6.39,6.39,0,0,1,132,24a11.82,11.82,0,0,1,.24,2.49,11,11,0,0,1-.42,3.21,4.2,4.2,0,0,1-1.3,2.1A3.58,3.58,0,0,1,128.13,32.53Zm.45,5.47a6.62,6.62,0,0,1-1.77-.23,7.09,7.09,0,0,1-1.58-.6,4.28,4.28,0,0,1-1.15-.8,1.19,1.19,0,0,1-.43-.85,1.77,1.77,0,0,1,.15-.73,2.46,2.46,0,0,1,.45-.67,7,7,0,0,1,.6-.57,1,1,0,0,1,.6-.2,1,1,0,0,1,.63.19l.59.41a3.33,3.33,0,0,0,.78.41,3.21,3.21,0,0,0,1.2.19,2.26,2.26,0,0,0,.94-.19,1.92,1.92,0,0,0,.75-.55,2.71,2.71,0,0,0,.5-.84,2.94,2.94,0,0,0,.19-1.09V21.53a1.23,1.23,0,0,1,.51-.94,2.49,2.49,0,0,1,1.34-.29,2.21,2.21,0,0,1,1.25.27,1.06,1.06,0,0,1,.46.69,4.26,4.26,0,0,1,.09.89V32a5.88,5.88,0,0,1-.53,2.54,5.57,5.57,0,0,1-1.4,1.87,6,6,0,0,1-1.95,1.16A6.27,6.27,0,0,1,128.58,38Zm0-9.1a2.13,2.13,0,0,0,1.2-.34,2.53,2.53,0,0,0,.84-.88,2.6,2.6,0,0,0,.31-1.25,2.54,2.54,0,0,0-.31-1.25,2.3,2.3,0,0,0-2.07-1.2,2.23,2.23,0,0,0-1.2.33,2.44,2.44,0,0,0-.83.89,2.47,2.47,0,0,0-.32,1.25,2.36,2.36,0,0,0,.33,1.23,2.5,2.5,0,0,0,.86.88A2.15,2.15,0,0,0,128.56,28.9Z"/><path class="cls-3" d="M138.63,32.86a1.76,1.76,0,0,1-1.31-.54,1.81,1.81,0,0,1-.54-1.34,2,2,0,0,1,.14-.72,1.76,1.76,0,0,1,.41-.63L143,24.14h-3.8a3.85,3.85,0,0,1-.91-.1,1.18,1.18,0,0,1-.73-.49,2.24,2.24,0,0,1-.29-1.31,2.34,2.34,0,0,1,.29-1.31,1.21,1.21,0,0,1,.73-.48,5.31,5.31,0,0,1,.91-.08H147a1.81,1.81,0,0,1,1.85,1.85,2.23,2.23,0,0,1-.14.77,1.42,1.42,0,0,1-.39.58l-5.55,5.53h4.52a4,4,0,0,1,.93.1,1.09,1.09,0,0,1,.68.5A2.38,2.38,0,0,1,149.2,31a2.38,2.38,0,0,1-.27,1.3,1.05,1.05,0,0,1-.7.48,5.41,5.41,0,0,1-.93.07Z"/><path class="cls-3" d="M161.45,32.85a2.33,2.33,0,0,1-1.37-.33.92.92,0,0,1-.43-.8l.25-.42a2.7,2.7,0,0,1-.57.61,4.28,4.28,0,0,1-1.11.65,4.39,4.39,0,0,1-1.67.28,4.87,4.87,0,0,1-2.18-.5A5.74,5.74,0,0,1,152.53,31a7,7,0,0,1-1.27-2,6,6,0,0,1-.48-2.38,5.82,5.82,0,0,1,.48-2.33,6.9,6.9,0,0,1,1.29-2,6.42,6.42,0,0,1,1.84-1.36,4.9,4.9,0,0,1,2.17-.5,4.14,4.14,0,0,1,1.58.27,4.24,4.24,0,0,1,1.08.61,3.51,3.51,0,0,1,.67.67l-.23-.34a1.06,1.06,0,0,1,.44-.92,2.48,2.48,0,0,1,1.39-.31,2.18,2.18,0,0,1,1.28.28,1.11,1.11,0,0,1,.48.72,4.86,4.86,0,0,1,.09.95V31a4.7,4.7,0,0,1-.09.92,1.06,1.06,0,0,1-.47.71A2.41,2.41,0,0,1,161.45,32.85Zm-4.37-3.73a2.13,2.13,0,0,0,1.2-.34,2.57,2.57,0,0,0,.85-.91,2.51,2.51,0,0,0,.33-1.27,2.48,2.48,0,0,0-.33-1.29,2.32,2.32,0,0,0-.87-.89,2.36,2.36,0,0,0-1.23-.33,2.48,2.48,0,0,0-1.26.34,2.53,2.53,0,0,0-1.24,2.21,2.34,2.34,0,0,0,.34,1.24,2.48,2.48,0,0,0,.92.9A2.51,2.51,0,0,0,157.08,29.12Z"/><path class="cls-3" d="M171,32.55a4.88,4.88,0,0,1-2.16-.49,5.93,5.93,0,0,1-1.79-1.33,6.68,6.68,0,0,1-1.22-2,6,6,0,0,1-.45-2.32,6,6,0,0,1,.45-2.31,6.38,6.38,0,0,1,1.24-1.93,6.06,6.06,0,0,1,1.8-1.32A4.77,4.77,0,0,1,171,20.4a3.84,3.84,0,0,1,1.9.44,3.41,3.41,0,0,1,1.25,1.25,6.63,6.63,0,0,1,.71,1.93,12.53,12.53,0,0,1,.23,2.48,11.35,11.35,0,0,1-.41,3.22,4.32,4.32,0,0,1-1.3,2.1A3.59,3.59,0,0,1,171,32.55Zm.45,5.48a6.91,6.91,0,0,1-1.76-.23,7.49,7.49,0,0,1-1.59-.6,4.71,4.71,0,0,1-1.15-.8,1.23,1.23,0,0,1-.42-.85,1.81,1.81,0,0,1,.15-.74,2.58,2.58,0,0,1,.45-.66,6.14,6.14,0,0,1,.6-.58.92.92,0,0,1,.6-.19,1.1,1.1,0,0,1,.62.18l.59.42a3.85,3.85,0,0,0,.79.41,3.35,3.35,0,0,0,1.2.19,2.32,2.32,0,0,0,.94-.19,2,2,0,0,0,.75-.55,3.08,3.08,0,0,0,.5-.85,3.12,3.12,0,0,0,.18-1.09V21.55a1.21,1.21,0,0,1,.51-.93,2.49,2.49,0,0,1,1.34-.29,2.31,2.31,0,0,1,1.25.26,1.11,1.11,0,0,1,.46.69,4.29,4.29,0,0,1,.09.9v9.88a5.84,5.84,0,0,1-.52,2.53,5.75,5.75,0,0,1-1.4,1.88A6.35,6.35,0,0,1,171.45,38Zm0-9.1a2.21,2.21,0,0,0,1.2-.34,2.48,2.48,0,0,0,.84-.89,2.44,2.44,0,0,0,.31-1.25,2.49,2.49,0,0,0-.31-1.25,2.36,2.36,0,0,0-.85-.87,2.27,2.27,0,0,0-1.21-.33,2.13,2.13,0,0,0-1.2.34,2.48,2.48,0,0,0-.84.89,2.44,2.44,0,0,0-.31,1.25,2.41,2.41,0,0,0,.32,1.22,2.71,2.71,0,0,0,.86.89A2.26,2.26,0,0,0,171.43,28.93Z"/><path class="cls-3" d="M192.83,33a6.64,6.64,0,0,1-2.24-.41,7,7,0,0,1-2.1-1.22,5.77,5.77,0,0,1-1.53-2,6.21,6.21,0,0,1-.58-2.75,6,6,0,0,1,2.1-4.7,7.08,7.08,0,0,1,2.09-1.21,6.62,6.62,0,0,1,2.22-.41,6.08,6.08,0,0,1,1.66.21,5.88,5.88,0,0,1,1.25.52,4.28,4.28,0,0,1,.74.52,8.35,8.35,0,0,1,.74.65,1.05,1.05,0,0,1,.3.85,1.43,1.43,0,0,1-.17.57,4.41,4.41,0,0,1-.38.58c-.51.7-1,1-1.5.95a2.12,2.12,0,0,1-.68-.25l-.6-.35a4.48,4.48,0,0,0-.62-.31,1.89,1.89,0,0,0-.75-.14,2.5,2.5,0,0,0-1.3.34,2.48,2.48,0,0,0-1.25,2.21,2.53,2.53,0,0,0,1.24,2.21,2.33,2.33,0,0,0,1.26.34,2.39,2.39,0,0,0,.73-.1,2.83,2.83,0,0,0,.55-.24l.35-.21.57-.36a1.05,1.05,0,0,1,.55-.16,1.21,1.21,0,0,1,.74.26,4.38,4.38,0,0,1,.81.84,2.07,2.07,0,0,1,.49,1,1.22,1.22,0,0,1-.22.87,2.68,2.68,0,0,1-.85.76,5.06,5.06,0,0,1-.71.45,7.21,7.21,0,0,1-1.25.5A5.7,5.7,0,0,1,192.83,33Z"/><path class="cls-3" d="M205.78,33.1a6.26,6.26,0,0,1-2.34-.47,7,7,0,0,1-2.11-1.31,6.24,6.24,0,0,1-1.51-2,6,6,0,0,1-.56-2.64,6.19,6.19,0,0,1,.51-2.51,6.75,6.75,0,0,1,1.41-2.06,6.67,6.67,0,0,1,2.07-1.41,6.08,6.08,0,0,1,2.48-.51A6.36,6.36,0,0,1,209,21a6.61,6.61,0,0,1,2.33,2.34,6.27,6.27,0,0,1,.88,3.28,6.2,6.2,0,0,1-.57,2.71,6.35,6.35,0,0,1-1.5,2,6.68,6.68,0,0,1-2.07,1.28A6.42,6.42,0,0,1,205.78,33.1Zm-.05-3.78A2.85,2.85,0,0,0,207,29a2.81,2.81,0,0,0,1-.9,2.57,2.57,0,0,0,.42-1.52,2.67,2.67,0,0,0-.35-1.4,2.48,2.48,0,0,0-1-.94,2.94,2.94,0,0,0-1.41-.34,2.6,2.6,0,0,0-1.34.35,2.82,2.82,0,0,0-1,1,2.72,2.72,0,0,0-.36,1.39,2.58,2.58,0,0,0,.41,1.51,2.43,2.43,0,0,0,1,.9A2.76,2.76,0,0,0,205.73,29.32Z"/><path class="cls-3" d="M216.1,32.9a2.41,2.41,0,0,1-1.31-.26,1,1,0,0,1-.47-.71,4.73,4.73,0,0,1-.09-.93V22.28a4.52,4.52,0,0,1,.09-.93,1,1,0,0,1,.49-.68,2.47,2.47,0,0,1,1.33-.27,2.5,2.5,0,0,1,1.26.24,1,1,0,0,1,.48.55,1.73,1.73,0,0,1,.1.54l-.3.15a3.2,3.2,0,0,1,.27-.36,3.1,3.1,0,0,1,.58-.55,3.5,3.5,0,0,1,2.16-.69,4.66,4.66,0,0,1,.61,0,4.89,4.89,0,0,1,.7.15,3.32,3.32,0,0,1,.66.3,1.8,1.8,0,0,1,.49.46,1.23,1.23,0,0,1,.18.68,3.06,3.06,0,0,1-.47,1.74,1.42,1.42,0,0,1-1.2.71,1.66,1.66,0,0,1-.6-.07,1,1,0,0,1-.29-.15l-.26-.15a1.68,1.68,0,0,0-.55-.06,2.34,2.34,0,0,0-.71.1,2.06,2.06,0,0,0-.63.31,1.54,1.54,0,0,0-.45.53,1.49,1.49,0,0,0-.16.71v5.48a5.4,5.4,0,0,1-.08.91,1,1,0,0,1-.49.68A2.6,2.6,0,0,1,216.1,32.9Z"/><path class="cls-3" d="M226.08,20.61h2.75l3.45-.1a4.46,4.46,0,0,1,.91.09,1.08,1.08,0,0,1,.69.49,2.35,2.35,0,0,1,.28,1.32,2.35,2.35,0,0,1-.26,1.25,1.21,1.21,0,0,1-.69.52,3.89,3.89,0,0,1-.93.11L229,24.21l-3,0a1.23,1.23,0,0,1-1-.46,2.52,2.52,0,0,1-.29-1.39,2.11,2.11,0,0,1,.35-1.33A1.29,1.29,0,0,1,226.08,20.61Zm5.65,12.3a7.87,7.87,0,0,1-2.2-.27,3.64,3.64,0,0,1-1.51-.85,3.45,3.45,0,0,1-.88-1.47,6.91,6.91,0,0,1-.28-2.11V18.09a4.25,4.25,0,0,1,.09-.93,1,1,0,0,1,.49-.66,3.32,3.32,0,0,1,2.6,0,1.1,1.1,0,0,1,.48.72,4.46,4.46,0,0,1,.09.91v9.92a3.13,3.13,0,0,0,.06.67.72.72,0,0,0,.19.38.65.65,0,0,0,.34.18,3,3,0,0,0,.55.05,4.1,4.1,0,0,1,1,.1,1.1,1.1,0,0,1,.66.45,2.15,2.15,0,0,1,.24,1.17,2.28,2.28,0,0,1-.28,1.3,1,1,0,0,1-.71.48A5.41,5.41,0,0,1,231.73,32.91Z"/><path class="cls-3" d="M242.08,33.12a6.45,6.45,0,0,1-2.34-.46,7.06,7.06,0,0,1-2.11-1.32,6.13,6.13,0,0,1-1.51-2,6,6,0,0,1-.56-2.63,6.24,6.24,0,0,1,.51-2.52,6.75,6.75,0,0,1,1.41-2.06,6.67,6.67,0,0,1,2.07-1.41,6.08,6.08,0,0,1,2.48-.51,6.39,6.39,0,0,1,3.27.86,6.61,6.61,0,0,1,2.33,2.34,6.27,6.27,0,0,1,.88,3.28,6.17,6.17,0,0,1-.57,2.71,6.35,6.35,0,0,1-1.5,2,6.61,6.61,0,0,1-2.08,1.28A6.32,6.32,0,0,1,242.08,33.12ZM242,29.34a3,3,0,0,0,1.23-.29,2.81,2.81,0,0,0,1.05-.9,2.61,2.61,0,0,0,.42-1.53,2.77,2.77,0,0,0-.35-1.4,2.48,2.48,0,0,0-1-.94,2.94,2.94,0,0,0-1.41-.34,2.6,2.6,0,0,0-1.34.35,2.76,2.76,0,0,0-.95,1,2.93,2.93,0,0,0,.05,2.9,2.57,2.57,0,0,0,1,.9A2.89,2.89,0,0,0,242,29.34Z"/><path class="cls-2" d="M102.5,32.89A1.85,1.85,0,0,1,100.61,31a2.38,2.38,0,0,1,.06-.55.81.81,0,0,1,.21-.4l7.71-10.92h-6a4.81,4.81,0,0,1-.93-.09,1.25,1.25,0,0,1-.77-.48,2.09,2.09,0,0,1-.3-1.26,2.4,2.4,0,0,1,.28-1.32,1.13,1.13,0,0,1,.72-.5,4.08,4.08,0,0,1,.93-.1h9.65a1.8,1.8,0,0,1,1.34.56,1.9,1.9,0,0,1,.53,1.37,2.3,2.3,0,0,1-.07.6,1.2,1.2,0,0,1-.23.45l-7.65,10.87h6.42a4.59,4.59,0,0,1,.93.09,1.06,1.06,0,0,1,.68.48,2.18,2.18,0,0,1,.27,1.23,2.56,2.56,0,0,1-.28,1.33,1.14,1.14,0,0,1-.7.49,5.44,5.44,0,0,1-1,.08Z"/><path class="cls-2" d="M118.41,18.55a2.61,2.61,0,0,1-1.35-.28,1.1,1.1,0,0,1-.48-.73,5.11,5.11,0,0,1,0-1.91,1.06,1.06,0,0,1,.5-.7,2.69,2.69,0,0,1,1.36-.26,2.37,2.37,0,0,1,1.33.28,1.11,1.11,0,0,1,.48.72,5,5,0,0,1,.09,1,4.7,4.7,0,0,1-.09.92,1.05,1.05,0,0,1-.49.71A2.48,2.48,0,0,1,118.41,18.55Zm0,14.3a2.46,2.46,0,0,1-1.32-.27,1,1,0,0,1-.47-.7,5.31,5.31,0,0,1-.08-.91V22.24a5.4,5.4,0,0,1,.08-.91,1.11,1.11,0,0,1,.49-.7,2.59,2.59,0,0,1,1.33-.26,2.18,2.18,0,0,1,1.28.28,1.12,1.12,0,0,1,.48.71,4.62,4.62,0,0,1,.09.94V31a4.53,4.53,0,0,1-.09.91,1,1,0,0,1-.47.69A2.64,2.64,0,0,1,118.4,32.85Z"/><path class="cls-2" d="M128.13,32.53A5,5,0,0,1,126,32a5.84,5.84,0,0,1-1.79-1.34A6.55,6.55,0,0,1,123,28.75a6.12,6.12,0,0,1-.45-2.33,6,6,0,0,1,.45-2.31,6.15,6.15,0,0,1,1.24-1.92,6,6,0,0,1,1.8-1.33,4.86,4.86,0,0,1,2.11-.48,3.84,3.84,0,0,1,1.9.43,3.36,3.36,0,0,1,1.25,1.26A6.39,6.39,0,0,1,132,24a11.82,11.82,0,0,1,.24,2.49,11,11,0,0,1-.42,3.21,4.2,4.2,0,0,1-1.3,2.1A3.58,3.58,0,0,1,128.13,32.53Zm.45,5.47a6.62,6.62,0,0,1-1.77-.23,7.09,7.09,0,0,1-1.58-.6,4.28,4.28,0,0,1-1.15-.8,1.19,1.19,0,0,1-.43-.85,1.77,1.77,0,0,1,.15-.73,2.46,2.46,0,0,1,.45-.67,7,7,0,0,1,.6-.57,1,1,0,0,1,.6-.2,1,1,0,0,1,.63.19l.59.41a3.33,3.33,0,0,0,.78.41,3.21,3.21,0,0,0,1.2.19,2.26,2.26,0,0,0,.94-.19,1.92,1.92,0,0,0,.75-.55,2.71,2.71,0,0,0,.5-.84,2.94,2.94,0,0,0,.19-1.09V21.53a1.23,1.23,0,0,1,.51-.94,2.49,2.49,0,0,1,1.34-.29,2.21,2.21,0,0,1,1.25.27,1.06,1.06,0,0,1,.46.69,4.26,4.26,0,0,1,.09.89V32a5.88,5.88,0,0,1-.53,2.54,5.57,5.57,0,0,1-1.4,1.87,6,6,0,0,1-1.95,1.16A6.27,6.27,0,0,1,128.58,38Zm0-9.1a2.13,2.13,0,0,0,1.2-.34,2.53,2.53,0,0,0,.84-.88,2.6,2.6,0,0,0,.31-1.25,2.54,2.54,0,0,0-.31-1.25,2.3,2.3,0,0,0-2.07-1.2,2.23,2.23,0,0,0-1.2.33,2.44,2.44,0,0,0-.83.89,2.47,2.47,0,0,0-.32,1.25,2.36,2.36,0,0,0,.33,1.23,2.5,2.5,0,0,0,.86.88A2.15,2.15,0,0,0,128.56,28.9Z"/><path class="cls-2" d="M138.63,32.86a1.76,1.76,0,0,1-1.31-.54,1.81,1.81,0,0,1-.54-1.34,2,2,0,0,1,.14-.72,1.76,1.76,0,0,1,.41-.63L143,24.14h-3.8a3.85,3.85,0,0,1-.91-.1,1.18,1.18,0,0,1-.73-.49,2.24,2.24,0,0,1-.29-1.31,2.34,2.34,0,0,1,.29-1.31,1.21,1.21,0,0,1,.73-.48,5.31,5.31,0,0,1,.91-.08H147a1.81,1.81,0,0,1,1.85,1.85,2.23,2.23,0,0,1-.14.77,1.42,1.42,0,0,1-.39.58l-5.55,5.53h4.52a4,4,0,0,1,.93.1,1.09,1.09,0,0,1,.68.5A2.38,2.38,0,0,1,149.2,31a2.38,2.38,0,0,1-.27,1.3,1.05,1.05,0,0,1-.7.48,5.41,5.41,0,0,1-.93.07Z"/><path class="cls-2" d="M161.45,32.85a2.33,2.33,0,0,1-1.37-.33.92.92,0,0,1-.43-.8l.25-.42a2.7,2.7,0,0,1-.57.61,4.28,4.28,0,0,1-1.11.65,4.39,4.39,0,0,1-1.67.28,4.87,4.87,0,0,1-2.18-.5A5.74,5.74,0,0,1,152.53,31a7,7,0,0,1-1.27-2,6,6,0,0,1-.48-2.38,5.82,5.82,0,0,1,.48-2.33,6.9,6.9,0,0,1,1.29-2,6.42,6.42,0,0,1,1.84-1.36,4.9,4.9,0,0,1,2.17-.5,4.14,4.14,0,0,1,1.58.27,4.24,4.24,0,0,1,1.08.61,3.51,3.51,0,0,1,.67.67l-.23-.34a1.06,1.06,0,0,1,.44-.92,2.48,2.48,0,0,1,1.39-.31,2.18,2.18,0,0,1,1.28.28,1.11,1.11,0,0,1,.48.72,4.86,4.86,0,0,1,.09.95V31a4.7,4.7,0,0,1-.09.92,1.06,1.06,0,0,1-.47.71A2.41,2.41,0,0,1,161.45,32.85Zm-4.37-3.73a2.13,2.13,0,0,0,1.2-.34,2.57,2.57,0,0,0,.85-.91,2.51,2.51,0,0,0,.33-1.27,2.48,2.48,0,0,0-.33-1.29,2.32,2.32,0,0,0-.87-.89,2.36,2.36,0,0,0-1.23-.33,2.48,2.48,0,0,0-1.26.34,2.53,2.53,0,0,0-1.24,2.21,2.34,2.34,0,0,0,.34,1.24,2.48,2.48,0,0,0,.92.9A2.51,2.51,0,0,0,157.08,29.12Z"/><path class="cls-2" d="M171,32.55a4.88,4.88,0,0,1-2.16-.49,5.93,5.93,0,0,1-1.79-1.33,6.68,6.68,0,0,1-1.22-2,6,6,0,0,1-.45-2.32,6,6,0,0,1,.45-2.31,6.38,6.38,0,0,1,1.24-1.93,6.06,6.06,0,0,1,1.8-1.32A4.77,4.77,0,0,1,171,20.4a3.84,3.84,0,0,1,1.9.44,3.41,3.41,0,0,1,1.25,1.25,6.63,6.63,0,0,1,.71,1.93,12.53,12.53,0,0,1,.23,2.48,11.35,11.35,0,0,1-.41,3.22,4.32,4.32,0,0,1-1.3,2.1A3.59,3.59,0,0,1,171,32.55Zm.45,5.48a6.91,6.91,0,0,1-1.76-.23,7.49,7.49,0,0,1-1.59-.6,4.71,4.71,0,0,1-1.15-.8,1.23,1.23,0,0,1-.42-.85,1.81,1.81,0,0,1,.15-.74,2.58,2.58,0,0,1,.45-.66,6.14,6.14,0,0,1,.6-.58.92.92,0,0,1,.6-.19,1.1,1.1,0,0,1,.62.18l.59.42a3.85,3.85,0,0,0,.79.41,3.35,3.35,0,0,0,1.2.19,2.32,2.32,0,0,0,.94-.19,2,2,0,0,0,.75-.55,3.08,3.08,0,0,0,.5-.85,3.12,3.12,0,0,0,.18-1.09V21.55a1.21,1.21,0,0,1,.51-.93,2.49,2.49,0,0,1,1.34-.29,2.31,2.31,0,0,1,1.25.26,1.11,1.11,0,0,1,.46.69,4.29,4.29,0,0,1,.09.9v9.88a5.84,5.84,0,0,1-.52,2.53,5.75,5.75,0,0,1-1.4,1.88A6.35,6.35,0,0,1,171.45,38Zm0-9.1a2.21,2.21,0,0,0,1.2-.34,2.48,2.48,0,0,0,.84-.89,2.44,2.44,0,0,0,.31-1.25,2.49,2.49,0,0,0-.31-1.25,2.36,2.36,0,0,0-.85-.87,2.27,2.27,0,0,0-1.21-.33,2.13,2.13,0,0,0-1.2.34,2.48,2.48,0,0,0-.84.89,2.44,2.44,0,0,0-.31,1.25,2.41,2.41,0,0,0,.32,1.22,2.71,2.71,0,0,0,.86.89A2.26,2.26,0,0,0,171.43,28.93Z"/><path class="cls-2" d="M192.83,33a6.64,6.64,0,0,1-2.24-.41,7,7,0,0,1-2.1-1.22,5.77,5.77,0,0,1-1.53-2,6.21,6.21,0,0,1-.58-2.75,6,6,0,0,1,2.1-4.7,7.08,7.08,0,0,1,2.09-1.21,6.62,6.62,0,0,1,2.22-.41,6.08,6.08,0,0,1,1.66.21,5.88,5.88,0,0,1,1.25.52,4.28,4.28,0,0,1,.74.52,8.35,8.35,0,0,1,.74.65,1.05,1.05,0,0,1,.3.85,1.43,1.43,0,0,1-.17.57,4.41,4.41,0,0,1-.38.58c-.51.7-1,1-1.5.95a2.12,2.12,0,0,1-.68-.25l-.6-.35a4.48,4.48,0,0,0-.62-.31,1.89,1.89,0,0,0-.75-.14,2.5,2.5,0,0,0-1.3.34,2.48,2.48,0,0,0-1.25,2.21,2.53,2.53,0,0,0,1.24,2.21,2.33,2.33,0,0,0,1.26.34,2.39,2.39,0,0,0,.73-.1,2.83,2.83,0,0,0,.55-.24l.35-.21.57-.36a1.05,1.05,0,0,1,.55-.16,1.21,1.21,0,0,1,.74.26,4.38,4.38,0,0,1,.81.84,2.07,2.07,0,0,1,.49,1,1.22,1.22,0,0,1-.22.87,2.68,2.68,0,0,1-.85.76,5.06,5.06,0,0,1-.71.45,7.21,7.21,0,0,1-1.25.5A5.7,5.7,0,0,1,192.83,33Z"/><path class="cls-2" d="M205.78,33.1a6.26,6.26,0,0,1-2.34-.47,7,7,0,0,1-2.11-1.31,6.24,6.24,0,0,1-1.51-2,6,6,0,0,1-.56-2.64,6.19,6.19,0,0,1,.51-2.51,6.75,6.75,0,0,1,1.41-2.06,6.67,6.67,0,0,1,2.07-1.41,6.08,6.08,0,0,1,2.48-.51A6.36,6.36,0,0,1,209,21a6.61,6.61,0,0,1,2.33,2.34,6.27,6.27,0,0,1,.88,3.28,6.2,6.2,0,0,1-.57,2.71,6.35,6.35,0,0,1-1.5,2,6.68,6.68,0,0,1-2.07,1.28A6.42,6.42,0,0,1,205.78,33.1Zm-.05-3.78A2.85,2.85,0,0,0,207,29a2.81,2.81,0,0,0,1-.9,2.57,2.57,0,0,0,.42-1.52,2.67,2.67,0,0,0-.35-1.4,2.48,2.48,0,0,0-1-.94,2.94,2.94,0,0,0-1.41-.34,2.6,2.6,0,0,0-1.34.35,2.82,2.82,0,0,0-1,1,2.72,2.72,0,0,0-.36,1.39,2.58,2.58,0,0,0,.41,1.51,2.43,2.43,0,0,0,1,.9A2.76,2.76,0,0,0,205.73,29.32Z"/><path class="cls-2" d="M216.1,32.9a2.41,2.41,0,0,1-1.31-.26,1,1,0,0,1-.47-.71,4.73,4.73,0,0,1-.09-.93V22.28a4.52,4.52,0,0,1,.09-.93,1,1,0,0,1,.49-.68,2.47,2.47,0,0,1,1.33-.27,2.5,2.5,0,0,1,1.26.24,1,1,0,0,1,.48.55,1.73,1.73,0,0,1,.1.54l-.3.15a3.2,3.2,0,0,1,.27-.36,3.1,3.1,0,0,1,.58-.55,3.5,3.5,0,0,1,2.16-.69,4.66,4.66,0,0,1,.61,0,4.89,4.89,0,0,1,.7.15,3.32,3.32,0,0,1,.66.3,1.8,1.8,0,0,1,.49.46,1.23,1.23,0,0,1,.18.68,3.06,3.06,0,0,1-.47,1.74,1.42,1.42,0,0,1-1.2.71,1.66,1.66,0,0,1-.6-.07,1,1,0,0,1-.29-.15l-.26-.15a1.68,1.68,0,0,0-.55-.06,2.34,2.34,0,0,0-.71.1,2.06,2.06,0,0,0-.63.31,1.54,1.54,0,0,0-.45.53,1.49,1.49,0,0,0-.16.71v5.48a5.4,5.4,0,0,1-.08.91,1,1,0,0,1-.49.68A2.6,2.6,0,0,1,216.1,32.9Z"/><path class="cls-2" d="M226.08,20.61h2.75l3.45-.1a4.46,4.46,0,0,1,.91.09,1.08,1.08,0,0,1,.69.49,2.35,2.35,0,0,1,.28,1.32,2.35,2.35,0,0,1-.26,1.25,1.21,1.21,0,0,1-.69.52,3.89,3.89,0,0,1-.93.11L229,24.21l-3,0a1.23,1.23,0,0,1-1-.46,2.52,2.52,0,0,1-.29-1.39,2.11,2.11,0,0,1,.35-1.33A1.29,1.29,0,0,1,226.08,20.61Zm5.65,12.3a7.87,7.87,0,0,1-2.2-.27,3.64,3.64,0,0,1-1.51-.85,3.45,3.45,0,0,1-.88-1.47,6.91,6.91,0,0,1-.28-2.11V18.09a4.25,4.25,0,0,1,.09-.93,1,1,0,0,1,.49-.66,3.32,3.32,0,0,1,2.6,0,1.1,1.1,0,0,1,.48.72,4.46,4.46,0,0,1,.09.91v9.92a3.13,3.13,0,0,0,.06.67.72.72,0,0,0,.19.38.65.65,0,0,0,.34.18,3,3,0,0,0,.55.05,4.1,4.1,0,0,1,1,.1,1.1,1.1,0,0,1,.66.45,2.15,2.15,0,0,1,.24,1.17,2.28,2.28,0,0,1-.28,1.3,1,1,0,0,1-.71.48A5.41,5.41,0,0,1,231.73,32.91Z"/><path class="cls-2" d="M242.08,33.12a6.45,6.45,0,0,1-2.34-.46,7.06,7.06,0,0,1-2.11-1.32,6.13,6.13,0,0,1-1.51-2,6,6,0,0,1-.56-2.63,6.24,6.24,0,0,1,.51-2.52,6.75,6.75,0,0,1,1.41-2.06,6.67,6.67,0,0,1,2.07-1.41,6.08,6.08,0,0,1,2.48-.51,6.39,6.39,0,0,1,3.27.86,6.61,6.61,0,0,1,2.33,2.34,6.27,6.27,0,0,1,.88,3.28,6.17,6.17,0,0,1-.57,2.71,6.35,6.35,0,0,1-1.5,2,6.61,6.61,0,0,1-2.08,1.28A6.32,6.32,0,0,1,242.08,33.12ZM242,29.34a3,3,0,0,0,1.23-.29,2.81,2.81,0,0,0,1.05-.9,2.61,2.61,0,0,0,.42-1.53,2.77,2.77,0,0,0-.35-1.4,2.48,2.48,0,0,0-1-.94,2.94,2.94,0,0,0-1.41-.34,2.6,2.6,0,0,0-1.34.35,2.76,2.76,0,0,0-.95,1,2.93,2.93,0,0,0,.05,2.9,2.57,2.57,0,0,0,1,.9A2.89,2.89,0,0,0,242,29.34Z"/><path class="cls-4" d="M54.61,32.08h4.52q3.42,0,3.42,4a4,4,0,0,1-1.08,3.17c-.72.63-2,.94-3.85.94h-11c-1.91,0-3.2-.25-3.89-.77s-1-1.63-1-3.34a5.58,5.58,0,0,1,.16-1.45,3.45,3.45,0,0,1,.62-1.2,5.18,5.18,0,0,1,1.22-1.13c1.47-1,2.62-1.82,3.46-2.44s1.67-1.26,2.47-1.95a13.25,13.25,0,0,0,1.77-1.76,11.21,11.21,0,0,0,1-1.66A6.47,6.47,0,0,0,53,22.59a15.39,15.39,0,0,0,.14-2.19c0-1.56-.47-2.35-1.42-2.35s-1.55.93-1.55,2.77a2,2,0,0,1-1,2,7,7,0,0,1-2.89.46c-1.74,0-2.92-.39-3.53-1.17a6.48,6.48,0,0,1-.91-3.91,5.48,5.48,0,0,1,2.51-4.56,11.67,11.67,0,0,1,7-1.82q11.07,0,11.07,8.69A14.11,14.11,0,0,1,62,24.21,11.66,11.66,0,0,1,60.89,27a9.08,9.08,0,0,1-1.78,2.12A17.42,17.42,0,0,1,57,30.74,26.68,26.68,0,0,1,54.61,32.08Z"/><path class="cls-4" d="M65.24,37a2.78,2.78,0,0,1,1.16-2.31,5.38,5.38,0,0,1,3.28-.88c3,0,4.44,1.07,4.44,3.19a3.11,3.11,0,0,1-.57,2,2.73,2.73,0,0,1-1.51,1,9.17,9.17,0,0,1-2.36.26,6.13,6.13,0,0,1-3.18-.76A2.63,2.63,0,0,1,65.24,37Z"/><path class="cls-4" d="M86.35,33.55c0,2.27-.4,3.89-1.19,4.85a4.36,4.36,0,0,1-3.59,1.45,5.66,5.66,0,0,1-2.56-.5,3.3,3.3,0,0,1-1.49-1.85A11.09,11.09,0,0,1,77,33.89l-.06-15.67a6.22,6.22,0,0,1-3.22-.74A2.59,2.59,0,0,1,72.43,15a2.78,2.78,0,0,1,1.16-2.29,5.16,5.16,0,0,1,3.24-.9c.54,0,1.31,0,2.3,0l2.1,0c2,0,3.36.34,4,1a5,5,0,0,1,1,3.59Z"/><path class="cls-5" d="M54.61,32.08h4.52q3.42,0,3.42,4a4,4,0,0,1-1.08,3.17c-.72.63-2,.94-3.85.94h-11c-1.91,0-3.2-.25-3.89-.77s-1-1.63-1-3.34a5.58,5.58,0,0,1,.16-1.45,3.45,3.45,0,0,1,.62-1.2,5.18,5.18,0,0,1,1.22-1.13c1.47-1,2.62-1.82,3.46-2.44s1.67-1.26,2.47-1.95a13.25,13.25,0,0,0,1.77-1.76,11.21,11.21,0,0,0,1-1.66A6.47,6.47,0,0,0,53,22.59a15.39,15.39,0,0,0,.14-2.19c0-1.56-.47-2.35-1.42-2.35s-1.55.93-1.55,2.77a2,2,0,0,1-1,2,7,7,0,0,1-2.89.46c-1.74,0-2.92-.39-3.53-1.17a6.48,6.48,0,0,1-.91-3.91,5.48,5.48,0,0,1,2.51-4.56,11.67,11.67,0,0,1,7-1.82q11.07,0,11.07,8.69A14.11,14.11,0,0,1,62,24.21,11.66,11.66,0,0,1,60.89,27a9.08,9.08,0,0,1-1.78,2.12A17.42,17.42,0,0,1,57,30.74,26.68,26.68,0,0,1,54.61,32.08Z"/><path class="cls-5" d="M65.24,37a2.78,2.78,0,0,1,1.16-2.31,5.38,5.38,0,0,1,3.28-.88c3,0,4.44,1.07,4.44,3.19a3.11,3.11,0,0,1-.57,2,2.73,2.73,0,0,1-1.51,1,9.17,9.17,0,0,1-2.36.26,6.13,6.13,0,0,1-3.18-.76A2.63,2.63,0,0,1,65.24,37Z"/><path class="cls-5" d="M86.35,33.55c0,2.27-.4,3.89-1.19,4.85a4.36,4.36,0,0,1-3.59,1.45,5.66,5.66,0,0,1-2.56-.5,3.3,3.3,0,0,1-1.49-1.85A11.09,11.09,0,0,1,77,33.89l-.06-15.67a6.22,6.22,0,0,1-3.22-.74A2.59,2.59,0,0,1,72.43,15a2.78,2.78,0,0,1,1.16-2.29,5.16,5.16,0,0,1,3.24-.9c.54,0,1.31,0,2.3,0l2.1,0c2,0,3.36.34,4,1a5,5,0,0,1,1,3.59Z"/></g></g></svg>