<svg xmlns="http://www.w3.org/2000/svg" viewBox="0 0 399.98 99.09"><defs><style>.cls-1{fill:#03826e;}.cls-2{fill:#fff;}.cls-3,.cls-4{fill:none;stroke-width:5px;}.cls-3{stroke:#b6ba01;stroke-linejoin:round;}.cls-4{stroke:#fff;}.cls-5{fill:#b6ba01;}</style></defs><title>22t</title><g id="Layer_2" data-name="Layer 2"><g id="pestaña_identificativa" data-name="pestaña identificativa"><rect class="cls-1" width="399.98" height="99.09" rx="32.4"/><path class="cls-2" d="M112.5,31.89a1.86,1.86,0,0,1-1.35-.54,1.84,1.84,0,0,1-.54-1.39,2.38,2.38,0,0,1,.06-.55.81.81,0,0,1,.21-.4l7.71-10.92h-6a4.81,4.81,0,0,1-.93-.09,1.25,1.25,0,0,1-.77-.48,2.09,2.09,0,0,1-.3-1.26,2.4,2.4,0,0,1,.28-1.32,1.11,1.11,0,0,1,.72-.5,4.08,4.08,0,0,1,.93-.1h9.65a1.8,1.8,0,0,1,1.34.56,1.9,1.9,0,0,1,.53,1.37,2.3,2.3,0,0,1-.07.6,1.2,1.2,0,0,1-.23.45l-7.65,10.87h6.42a4.59,4.59,0,0,1,.93.09,1.06,1.06,0,0,1,.68.48,2.18,2.18,0,0,1,.27,1.23,2.56,2.56,0,0,1-.28,1.33,1.14,1.14,0,0,1-.7.49,5.44,5.44,0,0,1-1,.08Z"/><path class="cls-2" d="M128.41,17.55a2.52,2.52,0,0,1-1.35-.28,1.1,1.1,0,0,1-.48-.73,5.11,5.11,0,0,1,0-1.91,1.06,1.06,0,0,1,.5-.7,2.69,2.69,0,0,1,1.36-.26,2.37,2.37,0,0,1,1.33.28,1.11,1.11,0,0,1,.48.72,5,5,0,0,1,.09,1,4.7,4.7,0,0,1-.09.92,1.05,1.05,0,0,1-.49.71A2.48,2.48,0,0,1,128.41,17.55Zm0,14.3a2.46,2.46,0,0,1-1.32-.27,1,1,0,0,1-.48-.7,6.59,6.59,0,0,1-.07-.91V21.24a4.53,4.53,0,0,1,.08-.91,1.11,1.11,0,0,1,.49-.7,2.59,2.59,0,0,1,1.33-.26,2.18,2.18,0,0,1,1.28.28,1.12,1.12,0,0,1,.48.71,4.62,4.62,0,0,1,.09.94V30a4.53,4.53,0,0,1-.09.91,1,1,0,0,1-.47.69A2.64,2.64,0,0,1,128.4,31.85Z"/><path class="cls-2" d="M138.13,31.53A5,5,0,0,1,136,31a5.84,5.84,0,0,1-1.79-1.34A6.55,6.55,0,0,1,133,27.75a6.12,6.12,0,0,1-.45-2.33,6,6,0,0,1,.45-2.31,6.15,6.15,0,0,1,1.24-1.92,6,6,0,0,1,1.8-1.33,4.86,4.86,0,0,1,2.11-.48,3.84,3.84,0,0,1,1.9.43,3.36,3.36,0,0,1,1.25,1.26A6.39,6.39,0,0,1,142,23a11.82,11.82,0,0,1,.24,2.49,11,11,0,0,1-.42,3.21,4.2,4.2,0,0,1-1.3,2.1A3.58,3.58,0,0,1,138.13,31.53Zm.45,5.47a7,7,0,0,1-1.77-.22,7.63,7.63,0,0,1-1.58-.61,4.28,4.28,0,0,1-1.15-.8,1.19,1.19,0,0,1-.43-.85,1.77,1.77,0,0,1,.15-.73,2.46,2.46,0,0,1,.45-.67,7,7,0,0,1,.6-.57,1,1,0,0,1,.6-.2,1.07,1.07,0,0,1,.63.19l.59.41a3.33,3.33,0,0,0,.78.41,3.21,3.21,0,0,0,1.2.19,2.26,2.26,0,0,0,.94-.19,1.92,1.92,0,0,0,.75-.55,2.71,2.71,0,0,0,.5-.84,2.94,2.94,0,0,0,.19-1.09V20.53a1.23,1.23,0,0,1,.51-.94,2.49,2.49,0,0,1,1.34-.29,2.21,2.21,0,0,1,1.25.27,1.06,1.06,0,0,1,.46.69,4.26,4.26,0,0,1,.09.89V31a5.88,5.88,0,0,1-.53,2.54,5.57,5.57,0,0,1-1.4,1.87,6,6,0,0,1-1.95,1.16A6.27,6.27,0,0,1,138.58,37Zm0-9.1a2.13,2.13,0,0,0,1.2-.34,2.45,2.45,0,0,0,.84-.88,2.68,2.68,0,0,0,0-2.5,2.47,2.47,0,0,0-.85-.88,2.39,2.39,0,0,0-1.22-.32,2.21,2.21,0,0,0-1.2.33,2.44,2.44,0,0,0-.83.89,2.47,2.47,0,0,0-.32,1.25,2.36,2.36,0,0,0,.33,1.23,2.5,2.5,0,0,0,.86.88A2.15,2.15,0,0,0,138.56,27.9Z"/><path class="cls-2" d="M148.63,31.86a1.76,1.76,0,0,1-1.31-.54,1.81,1.81,0,0,1-.54-1.34,2,2,0,0,1,.14-.72,1.76,1.76,0,0,1,.41-.63L153,23.14h-3.8a3.85,3.85,0,0,1-.91-.1,1.18,1.18,0,0,1-.73-.49,2.24,2.24,0,0,1-.29-1.31,2.37,2.37,0,0,1,.29-1.31,1.21,1.21,0,0,1,.73-.48,5.31,5.31,0,0,1,.91-.08H157a1.81,1.81,0,0,1,1.85,1.85,2.23,2.23,0,0,1-.14.77,1.42,1.42,0,0,1-.39.58l-5.55,5.53h4.52a4,4,0,0,1,.93.1,1.09,1.09,0,0,1,.68.5A2.38,2.38,0,0,1,159.2,30a2.38,2.38,0,0,1-.27,1.3,1.05,1.05,0,0,1-.7.48,5.41,5.41,0,0,1-.93.07Z"/><path class="cls-2" d="M171.45,31.85a2.33,2.33,0,0,1-1.37-.33.92.92,0,0,1-.43-.8l.25-.42a2.7,2.7,0,0,1-.57.61,4.28,4.28,0,0,1-1.11.65,4.39,4.39,0,0,1-1.67.28,4.87,4.87,0,0,1-2.18-.5A5.74,5.74,0,0,1,162.53,30a7,7,0,0,1-1.27-2,6,6,0,0,1-.48-2.38,5.82,5.82,0,0,1,.48-2.33,6.9,6.9,0,0,1,1.29-2,6.42,6.42,0,0,1,1.84-1.36,4.9,4.9,0,0,1,2.17-.5,4.14,4.14,0,0,1,1.58.27,4.24,4.24,0,0,1,1.08.61,3.27,3.27,0,0,1,.67.68l-.23-.35a1.07,1.07,0,0,1,.44-.92,2.48,2.48,0,0,1,1.39-.31,2.18,2.18,0,0,1,1.28.28,1.11,1.11,0,0,1,.48.72,4.86,4.86,0,0,1,.09.95V30a4.7,4.7,0,0,1-.09.92,1.09,1.09,0,0,1-.47.71A2.41,2.41,0,0,1,171.45,31.85Zm-4.37-3.73a2.13,2.13,0,0,0,1.2-.34,2.57,2.57,0,0,0,.85-.91,2.51,2.51,0,0,0,.33-1.27,2.48,2.48,0,0,0-.33-1.29,2.32,2.32,0,0,0-.87-.89,2.36,2.36,0,0,0-1.23-.33,2.48,2.48,0,0,0-1.26.34,2.53,2.53,0,0,0-1.24,2.21,2.34,2.34,0,0,0,.34,1.24,2.56,2.56,0,0,0,2.21,1.24Z"/><path class="cls-2" d="M181,31.55a4.88,4.88,0,0,1-2.16-.49,5.93,5.93,0,0,1-1.79-1.33,6.68,6.68,0,0,1-1.22-2,6,6,0,0,1-.45-2.32,6,6,0,0,1,.45-2.31,6.38,6.38,0,0,1,1.24-1.93,6.06,6.06,0,0,1,1.8-1.32A4.77,4.77,0,0,1,181,19.4a3.84,3.84,0,0,1,1.9.44,3.41,3.41,0,0,1,1.25,1.25,6.74,6.74,0,0,1,.71,1.93,12.53,12.53,0,0,1,.23,2.48,11.35,11.35,0,0,1-.41,3.22,4.32,4.32,0,0,1-1.3,2.1A3.61,3.61,0,0,1,181,31.55Zm.45,5.48a6.91,6.91,0,0,1-1.76-.23,7.49,7.49,0,0,1-1.59-.6,4.71,4.71,0,0,1-1.15-.8,1.23,1.23,0,0,1-.42-.85,1.81,1.81,0,0,1,.15-.74,2.58,2.58,0,0,1,.45-.66,6.14,6.14,0,0,1,.6-.58.92.92,0,0,1,.6-.19,1.1,1.1,0,0,1,.62.18l.59.42a3.85,3.85,0,0,0,.79.41,3.35,3.35,0,0,0,1.2.19,2.32,2.32,0,0,0,.94-.19,2,2,0,0,0,.75-.55,3.08,3.08,0,0,0,.5-.85,3.12,3.12,0,0,0,.18-1.09V20.55a1.21,1.21,0,0,1,.51-.93,2.49,2.49,0,0,1,1.34-.29,2.31,2.31,0,0,1,1.25.26,1.11,1.11,0,0,1,.46.69,4.29,4.29,0,0,1,.09.9v9.88a5.84,5.84,0,0,1-.52,2.53,5.75,5.75,0,0,1-1.4,1.88,6.46,6.46,0,0,1-1.95,1.16A6.28,6.28,0,0,1,181.45,37Zm0-9.1a2.21,2.21,0,0,0,1.2-.34,2.48,2.48,0,0,0,.84-.89,2.44,2.44,0,0,0,.31-1.25,2.49,2.49,0,0,0-.31-1.25,2.44,2.44,0,0,0-.85-.87,2.27,2.27,0,0,0-1.21-.33,2.13,2.13,0,0,0-1.2.34,2.48,2.48,0,0,0-.84.89,2.44,2.44,0,0,0-.31,1.25,2.41,2.41,0,0,0,.32,1.22,2.71,2.71,0,0,0,.86.89A2.26,2.26,0,0,0,181.43,27.93Z"/><path class="cls-2" d="M202.83,32a6.64,6.64,0,0,1-2.24-.41,7,7,0,0,1-2.1-1.22,5.77,5.77,0,0,1-1.53-2,6.18,6.18,0,0,1-.58-2.75,6,6,0,0,1,2.1-4.7,7.08,7.08,0,0,1,2.09-1.21,6.62,6.62,0,0,1,2.22-.41,6.08,6.08,0,0,1,1.66.21,5.88,5.88,0,0,1,1.25.52,3.77,3.77,0,0,1,.73.52,7.31,7.31,0,0,1,.75.65,1.05,1.05,0,0,1,.3.85,1.43,1.43,0,0,1-.17.57,4.41,4.41,0,0,1-.38.58c-.51.7-1,1-1.5.95a2.12,2.12,0,0,1-.68-.25l-.6-.35a4.48,4.48,0,0,0-.62-.31,1.89,1.89,0,0,0-.75-.14,2.5,2.5,0,0,0-1.3.34,2.48,2.48,0,0,0-1.25,2.21,2.53,2.53,0,0,0,1.24,2.21,2.33,2.33,0,0,0,1.26.34,2.39,2.39,0,0,0,.73-.1,2.33,2.33,0,0,0,.55-.24l.35-.21.57-.36a1.05,1.05,0,0,1,.55-.16,1.21,1.21,0,0,1,.74.26,4.38,4.38,0,0,1,.81.84,2.07,2.07,0,0,1,.49,1,1.22,1.22,0,0,1-.22.87,2.68,2.68,0,0,1-.85.76,5.06,5.06,0,0,1-.71.45,7.21,7.21,0,0,1-1.25.5A5.7,5.7,0,0,1,202.83,32Z"/><path class="cls-2" d="M215.78,32.1a6.26,6.26,0,0,1-2.34-.47,7,7,0,0,1-2.11-1.31,6.24,6.24,0,0,1-1.51-2,6,6,0,0,1-.56-2.64,6.19,6.19,0,0,1,.51-2.51,6.75,6.75,0,0,1,1.41-2.06,6.67,6.67,0,0,1,2.07-1.41,6.08,6.08,0,0,1,2.48-.51A6.39,6.39,0,0,1,219,20a6.61,6.61,0,0,1,2.33,2.34,6.27,6.27,0,0,1,.88,3.28,6.2,6.2,0,0,1-.57,2.71,6.35,6.35,0,0,1-1.5,2,6.61,6.61,0,0,1-2.08,1.28A6.32,6.32,0,0,1,215.78,32.1Zm-.05-3.78A2.85,2.85,0,0,0,217,28a2.81,2.81,0,0,0,1-.9,2.57,2.57,0,0,0,.42-1.52,2.77,2.77,0,0,0-.35-1.4,2.48,2.48,0,0,0-1-.94,2.94,2.94,0,0,0-1.41-.34,2.6,2.6,0,0,0-1.34.35,2.82,2.82,0,0,0-1,1,2.72,2.72,0,0,0-.36,1.39,2.58,2.58,0,0,0,.41,1.51,2.43,2.43,0,0,0,1,.9A2.76,2.76,0,0,0,215.73,28.32Z"/><path class="cls-2" d="M226.1,31.88a2.5,2.5,0,0,1-1.31-.26,1,1,0,0,1-.47-.7,4.63,4.63,0,0,1-.09-.92V21.2a4.1,4.1,0,0,1,.09-.88,1,1,0,0,1,.49-.67,2.71,2.71,0,0,1,1.33-.25,2.47,2.47,0,0,1,1.17.22,1,1,0,0,1,.49.51,1.73,1.73,0,0,1,.11.56,1,1,0,0,0,.05.37l-.15.47a1.43,1.43,0,0,1,.39-.76,3.53,3.53,0,0,1,.85-.7,4.73,4.73,0,0,1,1.1-.49,4.29,4.29,0,0,1,1.16-.17,4.9,4.9,0,0,1,2.14.44A4.29,4.29,0,0,1,235,21.11a5.65,5.65,0,0,1,1,1.94,8.16,8.16,0,0,1,.34,2.43V30a5.4,5.4,0,0,1-.08.91,1.06,1.06,0,0,1-.48.69,2.59,2.59,0,0,1-1.34.24,2.45,2.45,0,0,1-1.32-.26,1.06,1.06,0,0,1-.49-.7,4.53,4.53,0,0,1-.09-.91V25.48a2.74,2.74,0,0,0-.27-1.27,1.8,1.8,0,0,0-.74-.8,2.39,2.39,0,0,0-1.22-.28,2.59,2.59,0,0,0-1.25.29,2,2,0,0,0-.81.81,2.59,2.59,0,0,0-.29,1.25V30a4.46,4.46,0,0,1-.09.91,1.08,1.08,0,0,1-.47.69A2.53,2.53,0,0,1,226.1,31.88Z"/><path class="cls-2" d="M239.58,19.61h2.75l3.45-.09a5.11,5.11,0,0,1,.9.08,1.11,1.11,0,0,1,.7.49,2.37,2.37,0,0,1,.28,1.33,2.3,2.3,0,0,1-.27,1.25,1.19,1.19,0,0,1-.68.51,3.89,3.89,0,0,1-.93.11l-3.27-.08-3,0a1.27,1.27,0,0,1-1-.47,2.48,2.48,0,0,1-.29-1.38,2.15,2.15,0,0,1,.35-1.34A1.29,1.29,0,0,1,239.58,19.61Zm5.65,12.31a8.23,8.23,0,0,1-2.2-.28,3.53,3.53,0,0,1-1.51-.85,3.47,3.47,0,0,1-.88-1.46,6.72,6.72,0,0,1-.28-2.12V17.09a4.31,4.31,0,0,1,.09-.93,1.08,1.08,0,0,1,.49-.66,2.48,2.48,0,0,1,1.3-.26,2.4,2.4,0,0,1,1.3.27,1.13,1.13,0,0,1,.48.72,4.46,4.46,0,0,1,.09.91v9.92a2.6,2.6,0,0,0,.06.67.79.79,0,0,0,.18.38.65.65,0,0,0,.35.18,2.87,2.87,0,0,0,.55.05,4.1,4.1,0,0,1,1,.1,1.1,1.1,0,0,1,.66.45,2.19,2.19,0,0,1,.24,1.18,2.3,2.3,0,0,1-.28,1.3,1.07,1.07,0,0,1-.71.47A5.4,5.4,0,0,1,245.23,31.92Z"/><path class="cls-2" d="M251.59,17.62a2.38,2.38,0,0,1-1.35-.28,1.09,1.09,0,0,1-.49-.72,4.86,4.86,0,0,1-.09-1,4.75,4.75,0,0,1,.09-1,1,1,0,0,1,.5-.7,2.59,2.59,0,0,1,1.36-.27,2.46,2.46,0,0,1,1.33.28,1.15,1.15,0,0,1,.49.73,5.86,5.86,0,0,1,.08,1,4.73,4.73,0,0,1-.09.93,1.09,1.09,0,0,1-.48.71A2.65,2.65,0,0,1,251.59,17.62Zm0,14.3a2.59,2.59,0,0,1-1.33-.26,1,1,0,0,1-.47-.7,5.52,5.52,0,0,1-.08-.92V21.32a4.46,4.46,0,0,1,.09-.91,1,1,0,0,1,.48-.7,2.47,2.47,0,0,1,1.33-.27,2.33,2.33,0,0,1,1.29.28,1.1,1.1,0,0,1,.47.71,4.76,4.76,0,0,1,.09.94v8.7a5.31,5.31,0,0,1-.08.91,1.06,1.06,0,0,1-.48.69A2.52,2.52,0,0,1,251.58,31.92Z"/><path class="cls-2" d="M258,31.9a2.5,2.5,0,0,1-1.31-.26,1,1,0,0,1-.47-.71,4.46,4.46,0,0,1-.09-.91v-8.8a4.26,4.26,0,0,1,.09-.89,1,1,0,0,1,.49-.66,2.69,2.69,0,0,1,1.32-.25,2.37,2.37,0,0,1,1.18.22,1,1,0,0,1,.49.51,1.73,1.73,0,0,1,.11.56.75.75,0,0,0,.05.36l-.15.48a1.43,1.43,0,0,1,.39-.76,3.35,3.35,0,0,1,.85-.7,4.73,4.73,0,0,1,1.1-.49,3.93,3.93,0,0,1,1.16-.17,4.9,4.9,0,0,1,2.14.44,4.29,4.29,0,0,1,1.58,1.26,5.56,5.56,0,0,1,1,1.94,8.49,8.49,0,0,1,.34,2.43v4.56a5.4,5.4,0,0,1-.08.91,1,1,0,0,1-.48.68,2.57,2.57,0,0,1-1.34.25,2.54,2.54,0,0,1-1.32-.26,1.06,1.06,0,0,1-.49-.7,4.53,4.53,0,0,1-.09-.91V25.5a2.74,2.74,0,0,0-.27-1.27,1.76,1.76,0,0,0-.75-.8,2.33,2.33,0,0,0-1.21-.28,2.59,2.59,0,0,0-1.25.29,2,2,0,0,0-.81.81,2.59,2.59,0,0,0-.29,1.25v4.55a4.46,4.46,0,0,1-.09.91,1.06,1.06,0,0,1-.48.69A2.57,2.57,0,0,1,258,31.9Z"/><path class="cls-2" d="M276.08,31.91a5.25,5.25,0,0,1-2.18-.45,5.31,5.31,0,0,1-1.75-1.27A5.8,5.8,0,0,1,271,28.27a7.06,7.06,0,0,1-.41-2.44V21.31a4.45,4.45,0,0,1,.09-.93,1.1,1.1,0,0,1,.49-.7,2.46,2.46,0,0,1,1.32-.27,2.41,2.41,0,0,1,1.32.27,1.13,1.13,0,0,1,.47.72,4.59,4.59,0,0,1,.09.93v4.5a2.8,2.8,0,0,0,.27,1.27,1.78,1.78,0,0,0,.77.81,2.57,2.57,0,0,0,1.21.27,2.4,2.4,0,0,0,1.24-.28,2,2,0,0,0,.8-.81,2.59,2.59,0,0,0,.29-1.25V21.29a4.52,4.52,0,0,1,.09-.93,1.08,1.08,0,0,1,.49-.69,2.57,2.57,0,0,1,1.32-.26,2.31,2.31,0,0,1,1.32.28,1.14,1.14,0,0,1,.47.71,4.53,4.53,0,0,1,.09.91v8.8a4.13,4.13,0,0,1-.09.89,1,1,0,0,1-.48.66,2.52,2.52,0,0,1-1.3.25,2.92,2.92,0,0,1-1.05-.15,1.23,1.23,0,0,1-.55-.37.94.94,0,0,1-.21-.48,2.57,2.57,0,0,1,0-.45l.32-.27a3,3,0,0,1-.32.38,5.28,5.28,0,0,1-.67.58,4,4,0,0,1-1,.54A3.55,3.55,0,0,1,276.08,31.91Z"/><path class="cls-2" d="M291.2,32.14a6.29,6.29,0,0,1-2.34-.46,7.37,7.37,0,0,1-2.11-1.31,6.53,6.53,0,0,1-1.51-2,6.47,6.47,0,0,1-.05-5.15,6.83,6.83,0,0,1,1.42-2.06,7,7,0,0,1,2.06-1.42,6.16,6.16,0,0,1,2.49-.51,6.24,6.24,0,0,1,3.26.87,6.48,6.48,0,0,1,2.34,2.34,6.69,6.69,0,0,1,.31,6,6.43,6.43,0,0,1-1.5,2,6.57,6.57,0,0,1-2.08,1.29A6.36,6.36,0,0,1,291.2,32.14Zm-.05-3.77a2.85,2.85,0,0,0,1.23-.3,2.56,2.56,0,0,0,1.48-2.42,2.81,2.81,0,0,0-.35-1.41,2.48,2.48,0,0,0-1-.93,2.78,2.78,0,0,0-1.41-.34,2.53,2.53,0,0,0-1.34.35,2.73,2.73,0,0,0-1,1,2.93,2.93,0,0,0,.05,2.9,2.49,2.49,0,0,0,1,.9A2.94,2.94,0,0,0,291.15,28.37Z"/><path class="cls-3" d="M112.5,31.89a1.86,1.86,0,0,1-1.35-.54,1.84,1.84,0,0,1-.54-1.39,2.38,2.38,0,0,1,.06-.55.81.81,0,0,1,.21-.4l7.71-10.92h-6a4.81,4.81,0,0,1-.93-.09,1.25,1.25,0,0,1-.77-.48,2.09,2.09,0,0,1-.3-1.26,2.4,2.4,0,0,1,.28-1.32,1.11,1.11,0,0,1,.72-.5,4.08,4.08,0,0,1,.93-.1h9.65a1.8,1.8,0,0,1,1.34.56,1.9,1.9,0,0,1,.53,1.37,2.3,2.3,0,0,1-.07.6,1.2,1.2,0,0,1-.23.45l-7.65,10.87h6.42a4.59,4.59,0,0,1,.93.09,1.06,1.06,0,0,1,.68.48,2.18,2.18,0,0,1,.27,1.23,2.56,2.56,0,0,1-.28,1.33,1.14,1.14,0,0,1-.7.49,5.44,5.44,0,0,1-1,.08Z"/><path class="cls-3" d="M128.41,17.55a2.52,2.52,0,0,1-1.35-.28,1.1,1.1,0,0,1-.48-.73,5.11,5.11,0,0,1,0-1.91,1.06,1.06,0,0,1,.5-.7,2.69,2.69,0,0,1,1.36-.26,2.37,2.37,0,0,1,1.33.28,1.11,1.11,0,0,1,.48.72,5,5,0,0,1,.09,1,4.7,4.7,0,0,1-.09.92,1.05,1.05,0,0,1-.49.71A2.48,2.48,0,0,1,128.41,17.55Zm0,14.3a2.46,2.46,0,0,1-1.32-.27,1,1,0,0,1-.48-.7,6.59,6.59,0,0,1-.07-.91V21.24a4.53,4.53,0,0,1,.08-.91,1.11,1.11,0,0,1,.49-.7,2.59,2.59,0,0,1,1.33-.26,2.18,2.18,0,0,1,1.28.28,1.12,1.12,0,0,1,.48.71,4.62,4.62,0,0,1,.09.94V30a4.53,4.53,0,0,1-.09.91,1,1,0,0,1-.47.69A2.64,2.64,0,0,1,128.4,31.85Z"/><path class="cls-3" d="M138.13,31.53A5,5,0,0,1,136,31a5.84,5.84,0,0,1-1.79-1.34A6.55,6.55,0,0,1,133,27.75a6.12,6.12,0,0,1-.45-2.33,6,6,0,0,1,.45-2.31,6.15,6.15,0,0,1,1.24-1.92,6,6,0,0,1,1.8-1.33,4.86,4.86,0,0,1,2.11-.48,3.84,3.84,0,0,1,1.9.43,3.36,3.36,0,0,1,1.25,1.26A6.39,6.39,0,0,1,142,23a11.82,11.82,0,0,1,.24,2.49,11,11,0,0,1-.42,3.21,4.2,4.2,0,0,1-1.3,2.1A3.58,3.58,0,0,1,138.13,31.53Zm.45,5.47a7,7,0,0,1-1.77-.22,7.63,7.63,0,0,1-1.58-.61,4.28,4.28,0,0,1-1.15-.8,1.19,1.19,0,0,1-.43-.85,1.77,1.77,0,0,1,.15-.73,2.46,2.46,0,0,1,.45-.67,7,7,0,0,1,.6-.57,1,1,0,0,1,.6-.2,1.07,1.07,0,0,1,.63.19l.59.41a3.33,3.33,0,0,0,.78.41,3.21,3.21,0,0,0,1.2.19,2.26,2.26,0,0,0,.94-.19,1.92,1.92,0,0,0,.75-.55,2.71,2.71,0,0,0,.5-.84,2.94,2.94,0,0,0,.19-1.09V20.53a1.23,1.23,0,0,1,.51-.94,2.49,2.49,0,0,1,1.34-.29,2.21,2.21,0,0,1,1.25.27,1.06,1.06,0,0,1,.46.69,4.26,4.26,0,0,1,.09.89V31a5.88,5.88,0,0,1-.53,2.54,5.57,5.57,0,0,1-1.4,1.87,6,6,0,0,1-1.95,1.16A6.27,6.27,0,0,1,138.58,37Zm0-9.1a2.13,2.13,0,0,0,1.2-.34,2.45,2.45,0,0,0,.84-.88,2.68,2.68,0,0,0,0-2.5,2.47,2.47,0,0,0-.85-.88,2.39,2.39,0,0,0-1.22-.32,2.21,2.21,0,0,0-1.2.33,2.44,2.44,0,0,0-.83.89,2.47,2.47,0,0,0-.32,1.25,2.36,2.36,0,0,0,.33,1.23,2.5,2.5,0,0,0,.86.88A2.15,2.15,0,0,0,138.56,27.9Z"/><path class="cls-3" d="M148.63,31.86a1.76,1.76,0,0,1-1.31-.54,1.81,1.81,0,0,1-.54-1.34,2,2,0,0,1,.14-.72,1.76,1.76,0,0,1,.41-.63L153,23.14h-3.8a3.85,3.85,0,0,1-.91-.1,1.18,1.18,0,0,1-.73-.49,2.24,2.24,0,0,1-.29-1.31,2.37,2.37,0,0,1,.29-1.31,1.21,1.21,0,0,1,.73-.48,5.31,5.31,0,0,1,.91-.08H157a1.81,1.81,0,0,1,1.85,1.85,2.23,2.23,0,0,1-.14.77,1.42,1.42,0,0,1-.39.58l-5.55,5.53h4.52a4,4,0,0,1,.93.1,1.09,1.09,0,0,1,.68.5A2.38,2.38,0,0,1,159.2,30a2.38,2.38,0,0,1-.27,1.3,1.05,1.05,0,0,1-.7.48,5.41,5.41,0,0,1-.93.07Z"/><path class="cls-3" d="M171.45,31.85a2.33,2.33,0,0,1-1.37-.33.92.92,0,0,1-.43-.8l.25-.42a2.7,2.7,0,0,1-.57.61,4.28,4.28,0,0,1-1.11.65,4.39,4.39,0,0,1-1.67.28,4.87,4.87,0,0,1-2.18-.5A5.74,5.74,0,0,1,162.53,30a7,7,0,0,1-1.27-2,6,6,0,0,1-.48-2.38,5.82,5.82,0,0,1,.48-2.33,6.9,6.9,0,0,1,1.29-2,6.42,6.42,0,0,1,1.84-1.36,4.9,4.9,0,0,1,2.17-.5,4.14,4.14,0,0,1,1.58.27,4.24,4.24,0,0,1,1.08.61,3.27,3.27,0,0,1,.67.68l-.23-.35a1.07,1.07,0,0,1,.44-.92,2.48,2.48,0,0,1,1.39-.31,2.18,2.18,0,0,1,1.28.28,1.11,1.11,0,0,1,.48.72,4.86,4.86,0,0,1,.09.95V30a4.7,4.7,0,0,1-.09.92,1.09,1.09,0,0,1-.47.71A2.41,2.41,0,0,1,171.45,31.85Zm-4.37-3.73a2.13,2.13,0,0,0,1.2-.34,2.57,2.57,0,0,0,.85-.91,2.51,2.51,0,0,0,.33-1.27,2.48,2.48,0,0,0-.33-1.29,2.32,2.32,0,0,0-.87-.89,2.36,2.36,0,0,0-1.23-.33,2.48,2.48,0,0,0-1.26.34,2.53,2.53,0,0,0-1.24,2.21,2.34,2.34,0,0,0,.34,1.24,2.56,2.56,0,0,0,2.21,1.24Z"/><path class="cls-3" d="M181,31.55a4.88,4.88,0,0,1-2.16-.49,5.93,5.93,0,0,1-1.79-1.33,6.68,6.68,0,0,1-1.22-2,6,6,0,0,1-.45-2.32,6,6,0,0,1,.45-2.31,6.38,6.38,0,0,1,1.24-1.93,6.06,6.06,0,0,1,1.8-1.32A4.77,4.77,0,0,1,181,19.4a3.84,3.84,0,0,1,1.9.44,3.41,3.41,0,0,1,1.25,1.25,6.74,6.74,0,0,1,.71,1.93,12.53,12.53,0,0,1,.23,2.48,11.35,11.35,0,0,1-.41,3.22,4.32,4.32,0,0,1-1.3,2.1A3.61,3.61,0,0,1,181,31.55Zm.45,5.48a6.91,6.91,0,0,1-1.76-.23,7.49,7.49,0,0,1-1.59-.6,4.71,4.71,0,0,1-1.15-.8,1.23,1.23,0,0,1-.42-.85,1.81,1.81,0,0,1,.15-.74,2.58,2.58,0,0,1,.45-.66,6.14,6.14,0,0,1,.6-.58.92.92,0,0,1,.6-.19,1.1,1.1,0,0,1,.62.18l.59.42a3.85,3.85,0,0,0,.79.41,3.35,3.35,0,0,0,1.2.19,2.32,2.32,0,0,0,.94-.19,2,2,0,0,0,.75-.55,3.08,3.08,0,0,0,.5-.85,3.12,3.12,0,0,0,.18-1.09V20.55a1.21,1.21,0,0,1,.51-.93,2.49,2.49,0,0,1,1.34-.29,2.31,2.31,0,0,1,1.25.26,1.11,1.11,0,0,1,.46.69,4.29,4.29,0,0,1,.09.9v9.88a5.84,5.84,0,0,1-.52,2.53,5.75,5.75,0,0,1-1.4,1.88,6.46,6.46,0,0,1-1.95,1.16A6.28,6.28,0,0,1,181.45,37Zm0-9.1a2.21,2.21,0,0,0,1.2-.34,2.48,2.48,0,0,0,.84-.89,2.44,2.44,0,0,0,.31-1.25,2.49,2.49,0,0,0-.31-1.25,2.44,2.44,0,0,0-.85-.87,2.27,2.27,0,0,0-1.21-.33,2.13,2.13,0,0,0-1.2.34,2.48,2.48,0,0,0-.84.89,2.44,2.44,0,0,0-.31,1.25,2.41,2.41,0,0,0,.32,1.22,2.71,2.71,0,0,0,.86.89A2.26,2.26,0,0,0,181.43,27.93Z"/><path class="cls-3" d="M202.83,32a6.64,6.64,0,0,1-2.24-.41,7,7,0,0,1-2.1-1.22,5.77,5.77,0,0,1-1.53-2,6.18,6.18,0,0,1-.58-2.75,6,6,0,0,1,2.1-4.7,7.08,7.08,0,0,1,2.09-1.21,6.62,6.62,0,0,1,2.22-.41,6.08,6.08,0,0,1,1.66.21,5.88,5.88,0,0,1,1.25.52,3.77,3.77,0,0,1,.73.52,7.31,7.31,0,0,1,.75.65,1.05,1.05,0,0,1,.3.85,1.43,1.43,0,0,1-.17.57,4.41,4.41,0,0,1-.38.58c-.51.7-1,1-1.5.95a2.12,2.12,0,0,1-.68-.25l-.6-.35a4.48,4.48,0,0,0-.62-.31,1.89,1.89,0,0,0-.75-.14,2.5,2.5,0,0,0-1.3.34,2.48,2.48,0,0,0-1.25,2.21,2.53,2.53,0,0,0,1.24,2.21,2.33,2.33,0,0,0,1.26.34,2.39,2.39,0,0,0,.73-.1,2.33,2.33,0,0,0,.55-.24l.35-.21.57-.36a1.05,1.05,0,0,1,.55-.16,1.21,1.21,0,0,1,.74.26,4.38,4.38,0,0,1,.81.84,2.07,2.07,0,0,1,.49,1,1.22,1.22,0,0,1-.22.87,2.68,2.68,0,0,1-.85.76,5.06,5.06,0,0,1-.71.45,7.21,7.21,0,0,1-1.25.5A5.7,5.7,0,0,1,202.83,32Z"/><path class="cls-3" d="M215.78,32.1a6.26,6.26,0,0,1-2.34-.47,7,7,0,0,1-2.11-1.31,6.24,6.24,0,0,1-1.51-2,6,6,0,0,1-.56-2.64,6.19,6.19,0,0,1,.51-2.51,6.75,6.75,0,0,1,1.41-2.06,6.67,6.67,0,0,1,2.07-1.41,6.08,6.08,0,0,1,2.48-.51A6.39,6.39,0,0,1,219,20a6.61,6.61,0,0,1,2.33,2.34,6.27,6.27,0,0,1,.88,3.28,6.2,6.2,0,0,1-.57,2.71,6.35,6.35,0,0,1-1.5,2,6.61,6.61,0,0,1-2.08,1.28A6.32,6.32,0,0,1,215.78,32.1Zm-.05-3.78A2.85,2.85,0,0,0,217,28a2.81,2.81,0,0,0,1-.9,2.57,2.57,0,0,0,.42-1.52,2.77,2.77,0,0,0-.35-1.4,2.48,2.48,0,0,0-1-.94,2.94,2.94,0,0,0-1.41-.34,2.6,2.6,0,0,0-1.34.35,2.82,2.82,0,0,0-1,1,2.72,2.72,0,0,0-.36,1.39,2.58,2.58,0,0,0,.41,1.51,2.43,2.43,0,0,0,1,.9A2.76,2.76,0,0,0,215.73,28.32Z"/><path class="cls-3" d="M226.1,31.88a2.5,2.5,0,0,1-1.31-.26,1,1,0,0,1-.47-.7,4.63,4.63,0,0,1-.09-.92V21.2a4.1,4.1,0,0,1,.09-.88,1,1,0,0,1,.49-.67,2.71,2.71,0,0,1,1.33-.25,2.47,2.47,0,0,1,1.17.22,1,1,0,0,1,.49.51,1.73,1.73,0,0,1,.11.56,1,1,0,0,0,.05.37l-.15.47a1.43,1.43,0,0,1,.39-.76,3.53,3.53,0,0,1,.85-.7,4.73,4.73,0,0,1,1.1-.49,4.29,4.29,0,0,1,1.16-.17,4.9,4.9,0,0,1,2.14.44A4.29,4.29,0,0,1,235,21.11a5.65,5.65,0,0,1,1,1.94,8.16,8.16,0,0,1,.34,2.43V30a5.4,5.4,0,0,1-.08.91,1.06,1.06,0,0,1-.48.69,2.59,2.59,0,0,1-1.34.24,2.45,2.45,0,0,1-1.32-.26,1.06,1.06,0,0,1-.49-.7,4.53,4.53,0,0,1-.09-.91V25.48a2.74,2.74,0,0,0-.27-1.27,1.8,1.8,0,0,0-.74-.8,2.39,2.39,0,0,0-1.22-.28,2.59,2.59,0,0,0-1.25.29,2,2,0,0,0-.81.81,2.59,2.59,0,0,0-.29,1.25V30a4.46,4.46,0,0,1-.09.91,1.08,1.08,0,0,1-.47.69A2.53,2.53,0,0,1,226.1,31.88Z"/><path class="cls-3" d="M239.58,19.61h2.75l3.45-.09a5.11,5.11,0,0,1,.9.08,1.11,1.11,0,0,1,.7.49,2.37,2.37,0,0,1,.28,1.33,2.3,2.3,0,0,1-.27,1.25,1.19,1.19,0,0,1-.68.51,3.89,3.89,0,0,1-.93.11l-3.27-.08-3,0a1.27,1.27,0,0,1-1-.47,2.48,2.48,0,0,1-.29-1.38,2.15,2.15,0,0,1,.35-1.34A1.29,1.29,0,0,1,239.58,19.61Zm5.65,12.31a8.23,8.23,0,0,1-2.2-.28,3.53,3.53,0,0,1-1.51-.85,3.47,3.47,0,0,1-.88-1.46,6.72,6.72,0,0,1-.28-2.12V17.09a4.31,4.31,0,0,1,.09-.93,1.08,1.08,0,0,1,.49-.66,2.48,2.48,0,0,1,1.3-.26,2.4,2.4,0,0,1,1.3.27,1.13,1.13,0,0,1,.48.72,4.46,4.46,0,0,1,.09.91v9.92a2.6,2.6,0,0,0,.06.67.79.79,0,0,0,.18.38.65.65,0,0,0,.35.18,2.87,2.87,0,0,0,.55.05,4.1,4.1,0,0,1,1,.1,1.1,1.1,0,0,1,.66.45,2.19,2.19,0,0,1,.24,1.18,2.3,2.3,0,0,1-.28,1.3,1.07,1.07,0,0,1-.71.47A5.4,5.4,0,0,1,245.23,31.92Z"/><path class="cls-3" d="M251.59,17.62a2.38,2.38,0,0,1-1.35-.28,1.09,1.09,0,0,1-.49-.72,4.86,4.86,0,0,1-.09-1,4.75,4.75,0,0,1,.09-1,1,1,0,0,1,.5-.7,2.59,2.59,0,0,1,1.36-.27,2.46,2.46,0,0,1,1.33.28,1.15,1.15,0,0,1,.49.73,5.86,5.86,0,0,1,.08,1,4.73,4.73,0,0,1-.09.93,1.09,1.09,0,0,1-.48.71A2.65,2.65,0,0,1,251.59,17.62Zm0,14.3a2.59,2.59,0,0,1-1.33-.26,1,1,0,0,1-.47-.7,5.52,5.52,0,0,1-.08-.92V21.32a4.46,4.46,0,0,1,.09-.91,1,1,0,0,1,.48-.7,2.47,2.47,0,0,1,1.33-.27,2.33,2.33,0,0,1,1.29.28,1.1,1.1,0,0,1,.47.71,4.76,4.76,0,0,1,.09.94v8.7a5.31,5.31,0,0,1-.08.91,1.06,1.06,0,0,1-.48.69A2.52,2.52,0,0,1,251.58,31.92Z"/><path class="cls-3" d="M258,31.9a2.5,2.5,0,0,1-1.31-.26,1,1,0,0,1-.47-.71,4.46,4.46,0,0,1-.09-.91v-8.8a4.26,4.26,0,0,1,.09-.89,1,1,0,0,1,.49-.66,2.69,2.69,0,0,1,1.32-.25,2.37,2.37,0,0,1,1.18.22,1,1,0,0,1,.49.51,1.73,1.73,0,0,1,.11.56.75.75,0,0,0,.05.36l-.15.48a1.43,1.43,0,0,1,.39-.76,3.35,3.35,0,0,1,.85-.7,4.73,4.73,0,0,1,1.1-.49,3.93,3.93,0,0,1,1.16-.17,4.9,4.9,0,0,1,2.14.44,4.29,4.29,0,0,1,1.58,1.26,5.56,5.56,0,0,1,1,1.94,8.49,8.49,0,0,1,.34,2.43v4.56a5.4,5.4,0,0,1-.08.91,1,1,0,0,1-.48.68,2.57,2.57,0,0,1-1.34.25,2.54,2.54,0,0,1-1.32-.26,1.06,1.06,0,0,1-.49-.7,4.53,4.53,0,0,1-.09-.91V25.5a2.74,2.74,0,0,0-.27-1.27,1.76,1.76,0,0,0-.75-.8,2.33,2.33,0,0,0-1.21-.28,2.59,2.59,0,0,0-1.25.29,2,2,0,0,0-.81.81,2.59,2.59,0,0,0-.29,1.25v4.55a4.46,4.46,0,0,1-.09.91,1.06,1.06,0,0,1-.48.69A2.57,2.57,0,0,1,258,31.9Z"/><path class="cls-3" d="M276.08,31.91a5.25,5.25,0,0,1-2.18-.45,5.31,5.31,0,0,1-1.75-1.27A5.8,5.8,0,0,1,271,28.27a7.06,7.06,0,0,1-.41-2.44V21.31a4.45,4.45,0,0,1,.09-.93,1.1,1.1,0,0,1,.49-.7,2.46,2.46,0,0,1,1.32-.27,2.41,2.41,0,0,1,1.32.27,1.13,1.13,0,0,1,.47.72,4.59,4.59,0,0,1,.09.93v4.5a2.8,2.8,0,0,0,.27,1.27,1.78,1.78,0,0,0,.77.81,2.57,2.57,0,0,0,1.21.27,2.4,2.4,0,0,0,1.24-.28,2,2,0,0,0,.8-.81,2.59,2.59,0,0,0,.29-1.25V21.29a4.52,4.52,0,0,1,.09-.93,1.08,1.08,0,0,1,.49-.69,2.57,2.57,0,0,1,1.32-.26,2.31,2.31,0,0,1,1.32.28,1.14,1.14,0,0,1,.47.71,4.53,4.53,0,0,1,.09.91v8.8a4.13,4.13,0,0,1-.09.89,1,1,0,0,1-.48.66,2.52,2.52,0,0,1-1.3.25,2.92,2.92,0,0,1-1.05-.15,1.23,1.23,0,0,1-.55-.37.94.94,0,0,1-.21-.48,2.57,2.57,0,0,1,0-.45l.32-.27a3,3,0,0,1-.32.38,5.28,5.28,0,0,1-.67.58,4,4,0,0,1-1,.54A3.55,3.55,0,0,1,276.08,31.91Z"/><path class="cls-3" d="M291.2,32.14a6.29,6.29,0,0,1-2.34-.46,7.37,7.37,0,0,1-2.11-1.31,6.53,6.53,0,0,1-1.51-2,6.47,6.47,0,0,1-.05-5.15,6.83,6.83,0,0,1,1.42-2.06,7,7,0,0,1,2.06-1.42,6.16,6.16,0,0,1,2.49-.51,6.24,6.24,0,0,1,3.26.87,6.48,6.48,0,0,1,2.34,2.34,6.69,6.69,0,0,1,.31,6,6.43,6.43,0,0,1-1.5,2,6.57,6.57,0,0,1-2.08,1.29A6.36,6.36,0,0,1,291.2,32.14Zm-.05-3.77a2.85,2.85,0,0,0,1.23-.3,2.56,2.56,0,0,0,1.48-2.42,2.81,2.81,0,0,0-.35-1.41,2.48,2.48,0,0,0-1-.93,2.78,2.78,0,0,0-1.41-.34,2.53,2.53,0,0,0-1.34.35,2.73,2.73,0,0,0-1,1,2.93,2.93,0,0,0,.05,2.9,2.49,2.49,0,0,0,1,.9A2.94,2.94,0,0,0,291.15,28.37Z"/><path class="cls-2" d="M112.5,31.89a1.86,1.86,0,0,1-1.35-.54,1.84,1.84,0,0,1-.54-1.39,2.38,2.38,0,0,1,.06-.55.81.81,0,0,1,.21-.4l7.71-10.92h-6a4.81,4.81,0,0,1-.93-.09,1.25,1.25,0,0,1-.77-.48,2.09,2.09,0,0,1-.3-1.26,2.4,2.4,0,0,1,.28-1.32,1.11,1.11,0,0,1,.72-.5,4.08,4.08,0,0,1,.93-.1h9.65a1.8,1.8,0,0,1,1.34.56,1.9,1.9,0,0,1,.53,1.37,2.3,2.3,0,0,1-.07.6,1.2,1.2,0,0,1-.23.45l-7.65,10.87h6.42a4.59,4.59,0,0,1,.93.09,1.06,1.06,0,0,1,.68.48,2.18,2.18,0,0,1,.27,1.23,2.56,2.56,0,0,1-.28,1.33,1.14,1.14,0,0,1-.7.49,5.44,5.44,0,0,1-1,.08Z"/><path class="cls-2" d="M128.41,17.55a2.52,2.52,0,0,1-1.35-.28,1.1,1.1,0,0,1-.48-.73,5.11,5.11,0,0,1,0-1.91,1.06,1.06,0,0,1,.5-.7,2.69,2.69,0,0,1,1.36-.26,2.37,2.37,0,0,1,1.33.28,1.11,1.11,0,0,1,.48.72,5,5,0,0,1,.09,1,4.7,4.7,0,0,1-.09.92,1.05,1.05,0,0,1-.49.71A2.48,2.48,0,0,1,128.41,17.55Zm0,14.3a2.46,2.46,0,0,1-1.32-.27,1,1,0,0,1-.48-.7,6.59,6.59,0,0,1-.07-.91V21.24a4.53,4.53,0,0,1,.08-.91,1.11,1.11,0,0,1,.49-.7,2.59,2.59,0,0,1,1.33-.26,2.18,2.18,0,0,1,1.28.28,1.12,1.12,0,0,1,.48.71,4.62,4.62,0,0,1,.09.94V30a4.53,4.53,0,0,1-.09.91,1,1,0,0,1-.47.69A2.64,2.64,0,0,1,128.4,31.85Z"/><path class="cls-2" d="M138.13,31.53A5,5,0,0,1,136,31a5.84,5.84,0,0,1-1.79-1.34A6.55,6.55,0,0,1,133,27.75a6.12,6.12,0,0,1-.45-2.33,6,6,0,0,1,.45-2.31,6.15,6.15,0,0,1,1.24-1.92,6,6,0,0,1,1.8-1.33,4.86,4.86,0,0,1,2.11-.48,3.84,3.84,0,0,1,1.9.43,3.36,3.36,0,0,1,1.25,1.26A6.39,6.39,0,0,1,142,23a11.82,11.82,0,0,1,.24,2.49,11,11,0,0,1-.42,3.21,4.2,4.2,0,0,1-1.3,2.1A3.58,3.58,0,0,1,138.13,31.53Zm.45,5.47a7,7,0,0,1-1.77-.22,7.63,7.63,0,0,1-1.58-.61,4.28,4.28,0,0,1-1.15-.8,1.19,1.19,0,0,1-.43-.85,1.77,1.77,0,0,1,.15-.73,2.46,2.46,0,0,1,.45-.67,7,7,0,0,1,.6-.57,1,1,0,0,1,.6-.2,1.07,1.07,0,0,1,.63.19l.59.41a3.33,3.33,0,0,0,.78.41,3.21,3.21,0,0,0,1.2.19,2.26,2.26,0,0,0,.94-.19,1.92,1.92,0,0,0,.75-.55,2.71,2.71,0,0,0,.5-.84,2.94,2.94,0,0,0,.19-1.09V20.53a1.23,1.23,0,0,1,.51-.94,2.49,2.49,0,0,1,1.34-.29,2.21,2.21,0,0,1,1.25.27,1.06,1.06,0,0,1,.46.69,4.26,4.26,0,0,1,.09.89V31a5.88,5.88,0,0,1-.53,2.54,5.57,5.57,0,0,1-1.4,1.87,6,6,0,0,1-1.95,1.16A6.27,6.27,0,0,1,138.58,37Zm0-9.1a2.13,2.13,0,0,0,1.2-.34,2.45,2.45,0,0,0,.84-.88,2.68,2.68,0,0,0,0-2.5,2.47,2.47,0,0,0-.85-.88,2.39,2.39,0,0,0-1.22-.32,2.21,2.21,0,0,0-1.2.33,2.44,2.44,0,0,0-.83.89,2.47,2.47,0,0,0-.32,1.25,2.36,2.36,0,0,0,.33,1.23,2.5,2.5,0,0,0,.86.88A2.15,2.15,0,0,0,138.56,27.9Z"/><path class="cls-2" d="M148.63,31.86a1.76,1.76,0,0,1-1.31-.54,1.81,1.81,0,0,1-.54-1.34,2,2,0,0,1,.14-.72,1.76,1.76,0,0,1,.41-.63L153,23.14h-3.8a3.85,3.85,0,0,1-.91-.1,1.18,1.18,0,0,1-.73-.49,2.24,2.24,0,0,1-.29-1.31,2.37,2.37,0,0,1,.29-1.31,1.21,1.21,0,0,1,.73-.48,5.31,5.31,0,0,1,.91-.08H157a1.81,1.81,0,0,1,1.85,1.85,2.23,2.23,0,0,1-.14.77,1.42,1.42,0,0,1-.39.58l-5.55,5.53h4.52a4,4,0,0,1,.93.1,1.09,1.09,0,0,1,.68.5A2.38,2.38,0,0,1,159.2,30a2.38,2.38,0,0,1-.27,1.3,1.05,1.05,0,0,1-.7.48,5.41,5.41,0,0,1-.93.07Z"/><path class="cls-2" d="M171.45,31.85a2.33,2.33,0,0,1-1.37-.33.92.92,0,0,1-.43-.8l.25-.42a2.7,2.7,0,0,1-.57.61,4.28,4.28,0,0,1-1.11.65,4.39,4.39,0,0,1-1.67.28,4.87,4.87,0,0,1-2.18-.5A5.74,5.74,0,0,1,162.53,30a7,7,0,0,1-1.27-2,6,6,0,0,1-.48-2.38,5.82,5.82,0,0,1,.48-2.33,6.9,6.9,0,0,1,1.29-2,6.42,6.42,0,0,1,1.84-1.36,4.9,4.9,0,0,1,2.17-.5,4.14,4.14,0,0,1,1.58.27,4.24,4.24,0,0,1,1.08.61,3.27,3.27,0,0,1,.67.68l-.23-.35a1.07,1.07,0,0,1,.44-.92,2.48,2.48,0,0,1,1.39-.31,2.18,2.18,0,0,1,1.28.28,1.11,1.11,0,0,1,.48.72,4.86,4.86,0,0,1,.09.95V30a4.7,4.7,0,0,1-.09.92,1.09,1.09,0,0,1-.47.71A2.41,2.41,0,0,1,171.45,31.85Zm-4.37-3.73a2.13,2.13,0,0,0,1.2-.34,2.57,2.57,0,0,0,.85-.91,2.51,2.51,0,0,0,.33-1.27,2.48,2.48,0,0,0-.33-1.29,2.32,2.32,0,0,0-.87-.89,2.36,2.36,0,0,0-1.23-.33,2.48,2.48,0,0,0-1.26.34,2.53,2.53,0,0,0-1.24,2.21,2.34,2.34,0,0,0,.34,1.24,2.56,2.56,0,0,0,2.21,1.24Z"/><path class="cls-2" d="M181,31.55a4.88,4.88,0,0,1-2.16-.49,5.93,5.93,0,0,1-1.79-1.33,6.68,6.68,0,0,1-1.22-2,6,6,0,0,1-.45-2.32,6,6,0,0,1,.45-2.31,6.38,6.38,0,0,1,1.24-1.93,6.06,6.06,0,0,1,1.8-1.32A4.77,4.77,0,0,1,181,19.4a3.84,3.84,0,0,1,1.9.44,3.41,3.41,0,0,1,1.25,1.25,6.74,6.74,0,0,1,.71,1.93,12.53,12.53,0,0,1,.23,2.48,11.35,11.35,0,0,1-.41,3.22,4.32,4.32,0,0,1-1.3,2.1A3.61,3.61,0,0,1,181,31.55Zm.45,5.48a6.91,6.91,0,0,1-1.76-.23,7.49,7.49,0,0,1-1.59-.6,4.71,4.71,0,0,1-1.15-.8,1.23,1.23,0,0,1-.42-.85,1.81,1.81,0,0,1,.15-.74,2.58,2.58,0,0,1,.45-.66,6.14,6.14,0,0,1,.6-.58.92.92,0,0,1,.6-.19,1.1,1.1,0,0,1,.62.18l.59.42a3.85,3.85,0,0,0,.79.41,3.35,3.35,0,0,0,1.2.19,2.32,2.32,0,0,0,.94-.19,2,2,0,0,0,.75-.55,3.08,3.08,0,0,0,.5-.85,3.12,3.12,0,0,0,.18-1.09V20.55a1.21,1.21,0,0,1,.51-.93,2.49,2.49,0,0,1,1.34-.29,2.31,2.31,0,0,1,1.25.26,1.11,1.11,0,0,1,.46.69,4.29,4.29,0,0,1,.09.9v9.88a5.84,5.84,0,0,1-.52,2.53,5.75,5.75,0,0,1-1.4,1.88,6.46,6.46,0,0,1-1.95,1.16A6.28,6.28,0,0,1,181.45,37Zm0-9.1a2.21,2.21,0,0,0,1.2-.34,2.48,2.48,0,0,0,.84-.89,2.44,2.44,0,0,0,.31-1.25,2.49,2.49,0,0,0-.31-1.25,2.44,2.44,0,0,0-.85-.87,2.27,2.27,0,0,0-1.21-.33,2.13,2.13,0,0,0-1.2.34,2.48,2.48,0,0,0-.84.89,2.44,2.44,0,0,0-.31,1.25,2.41,2.41,0,0,0,.32,1.22,2.71,2.71,0,0,0,.86.89A2.26,2.26,0,0,0,181.43,27.93Z"/><path class="cls-2" d="M202.83,32a6.64,6.64,0,0,1-2.24-.41,7,7,0,0,1-2.1-1.22,5.77,5.77,0,0,1-1.53-2,6.18,6.18,0,0,1-.58-2.75,6,6,0,0,1,2.1-4.7,7.08,7.08,0,0,1,2.09-1.21,6.62,6.62,0,0,1,2.22-.41,6.08,6.08,0,0,1,1.66.21,5.88,5.88,0,0,1,1.25.52,3.77,3.77,0,0,1,.73.52,7.31,7.31,0,0,1,.75.65,1.05,1.05,0,0,1,.3.85,1.43,1.43,0,0,1-.17.57,4.41,4.41,0,0,1-.38.58c-.51.7-1,1-1.5.95a2.12,2.12,0,0,1-.68-.25l-.6-.35a4.48,4.48,0,0,0-.62-.31,1.89,1.89,0,0,0-.75-.14,2.5,2.5,0,0,0-1.3.34,2.48,2.48,0,0,0-1.25,2.21,2.53,2.53,0,0,0,1.24,2.21,2.33,2.33,0,0,0,1.26.34,2.39,2.39,0,0,0,.73-.1,2.33,2.33,0,0,0,.55-.24l.35-.21.57-.36a1.05,1.05,0,0,1,.55-.16,1.21,1.21,0,0,1,.74.26,4.38,4.38,0,0,1,.81.84,2.07,2.07,0,0,1,.49,1,1.22,1.22,0,0,1-.22.87,2.68,2.68,0,0,1-.85.76,5.06,5.06,0,0,1-.71.45,7.21,7.21,0,0,1-1.25.5A5.7,5.7,0,0,1,202.83,32Z"/><path class="cls-2" d="M215.78,32.1a6.26,6.26,0,0,1-2.34-.47,7,7,0,0,1-2.11-1.31,6.24,6.24,0,0,1-1.51-2,6,6,0,0,1-.56-2.64,6.19,6.19,0,0,1,.51-2.51,6.75,6.75,0,0,1,1.41-2.06,6.67,6.67,0,0,1,2.07-1.41,6.08,6.08,0,0,1,2.48-.51A6.39,6.39,0,0,1,219,20a6.61,6.61,0,0,1,2.33,2.34,6.27,6.27,0,0,1,.88,3.28,6.2,6.2,0,0,1-.57,2.71,6.35,6.35,0,0,1-1.5,2,6.61,6.61,0,0,1-2.08,1.28A6.32,6.32,0,0,1,215.78,32.1Zm-.05-3.78A2.85,2.85,0,0,0,217,28a2.81,2.81,0,0,0,1-.9,2.57,2.57,0,0,0,.42-1.52,2.77,2.77,0,0,0-.35-1.4,2.48,2.48,0,0,0-1-.94,2.94,2.94,0,0,0-1.41-.34,2.6,2.6,0,0,0-1.34.35,2.82,2.82,0,0,0-1,1,2.72,2.72,0,0,0-.36,1.39,2.58,2.58,0,0,0,.41,1.51,2.43,2.43,0,0,0,1,.9A2.76,2.76,0,0,0,215.73,28.32Z"/><path class="cls-2" d="M226.1,31.88a2.5,2.5,0,0,1-1.31-.26,1,1,0,0,1-.47-.7,4.63,4.63,0,0,1-.09-.92V21.2a4.1,4.1,0,0,1,.09-.88,1,1,0,0,1,.49-.67,2.71,2.71,0,0,1,1.33-.25,2.47,2.47,0,0,1,1.17.22,1,1,0,0,1,.49.51,1.73,1.73,0,0,1,.11.56,1,1,0,0,0,.05.37l-.15.47a1.43,1.43,0,0,1,.39-.76,3.53,3.53,0,0,1,.85-.7,4.73,4.73,0,0,1,1.1-.49,4.29,4.29,0,0,1,1.16-.17,4.9,4.9,0,0,1,2.14.44A4.29,4.29,0,0,1,235,21.11a5.65,5.65,0,0,1,1,1.94,8.16,8.16,0,0,1,.34,2.43V30a5.4,5.4,0,0,1-.08.91,1.06,1.06,0,0,1-.48.69,2.59,2.59,0,0,1-1.34.24,2.45,2.45,0,0,1-1.32-.26,1.06,1.06,0,0,1-.49-.7,4.53,4.53,0,0,1-.09-.91V25.48a2.74,2.74,0,0,0-.27-1.27,1.8,1.8,0,0,0-.74-.8,2.39,2.39,0,0,0-1.22-.28,2.59,2.59,0,0,0-1.25.29,2,2,0,0,0-.81.81,2.59,2.59,0,0,0-.29,1.25V30a4.46,4.46,0,0,1-.09.91,1.08,1.08,0,0,1-.47.69A2.53,2.53,0,0,1,226.1,31.88Z"/><path class="cls-2" d="M239.58,19.61h2.75l3.45-.09a5.11,5.11,0,0,1,.9.08,1.11,1.11,0,0,1,.7.49,2.37,2.37,0,0,1,.28,1.33,2.3,2.3,0,0,1-.27,1.25,1.19,1.19,0,0,1-.68.51,3.89,3.89,0,0,1-.93.11l-3.27-.08-3,0a1.27,1.27,0,0,1-1-.47,2.48,2.48,0,0,1-.29-1.38,2.15,2.15,0,0,1,.35-1.34A1.29,1.29,0,0,1,239.58,19.61Zm5.65,12.31a8.23,8.23,0,0,1-2.2-.28,3.53,3.53,0,0,1-1.51-.85,3.47,3.47,0,0,1-.88-1.46,6.72,6.72,0,0,1-.28-2.12V17.09a4.31,4.31,0,0,1,.09-.93,1.08,1.08,0,0,1,.49-.66,2.48,2.48,0,0,1,1.3-.26,2.4,2.4,0,0,1,1.3.27,1.13,1.13,0,0,1,.48.72,4.46,4.46,0,0,1,.09.91v9.92a2.6,2.6,0,0,0,.06.67.79.79,0,0,0,.18.38.65.65,0,0,0,.35.18,2.87,2.87,0,0,0,.55.05,4.1,4.1,0,0,1,1,.1,1.1,1.1,0,0,1,.66.45,2.19,2.19,0,0,1,.24,1.18,2.3,2.3,0,0,1-.28,1.3,1.07,1.07,0,0,1-.71.47A5.4,5.4,0,0,1,245.23,31.92Z"/><path class="cls-2" d="M251.59,17.62a2.38,2.38,0,0,1-1.35-.28,1.09,1.09,0,0,1-.49-.72,4.86,4.86,0,0,1-.09-1,4.75,4.75,0,0,1,.09-1,1,1,0,0,1,.5-.7,2.59,2.59,0,0,1,1.36-.27,2.46,2.46,0,0,1,1.33.28,1.15,1.15,0,0,1,.49.73,5.86,5.86,0,0,1,.08,1,4.73,4.73,0,0,1-.09.93,1.09,1.09,0,0,1-.48.71A2.65,2.65,0,0,1,251.59,17.62Zm0,14.3a2.59,2.59,0,0,1-1.33-.26,1,1,0,0,1-.47-.7,5.52,5.52,0,0,1-.08-.92V21.32a4.46,4.46,0,0,1,.09-.91,1,1,0,0,1,.48-.7,2.47,2.47,0,0,1,1.33-.27,2.33,2.33,0,0,1,1.29.28,1.1,1.1,0,0,1,.47.71,4.76,4.76,0,0,1,.09.94v8.7a5.31,5.31,0,0,1-.08.91,1.06,1.06,0,0,1-.48.69A2.52,2.52,0,0,1,251.58,31.92Z"/><path class="cls-2" d="M258,31.9a2.5,2.5,0,0,1-1.31-.26,1,1,0,0,1-.47-.71,4.46,4.46,0,0,1-.09-.91v-8.8a4.26,4.26,0,0,1,.09-.89,1,1,0,0,1,.49-.66,2.69,2.69,0,0,1,1.32-.25,2.37,2.37,0,0,1,1.18.22,1,1,0,0,1,.49.51,1.73,1.73,0,0,1,.11.56.75.75,0,0,0,.05.36l-.15.48a1.43,1.43,0,0,1,.39-.76,3.35,3.35,0,0,1,.85-.7,4.73,4.73,0,0,1,1.1-.49,3.93,3.93,0,0,1,1.16-.17,4.9,4.9,0,0,1,2.14.44,4.29,4.29,0,0,1,1.58,1.26,5.56,5.56,0,0,1,1,1.94,8.49,8.49,0,0,1,.34,2.43v4.56a5.4,5.4,0,0,1-.08.91,1,1,0,0,1-.48.68,2.57,2.57,0,0,1-1.34.25,2.54,2.54,0,0,1-1.32-.26,1.06,1.06,0,0,1-.49-.7,4.53,4.53,0,0,1-.09-.91V25.5a2.74,2.74,0,0,0-.27-1.27,1.76,1.76,0,0,0-.75-.8,2.33,2.33,0,0,0-1.21-.28,2.59,2.59,0,0,0-1.25.29,2,2,0,0,0-.81.81,2.59,2.59,0,0,0-.29,1.25v4.55a4.46,4.46,0,0,1-.09.91,1.06,1.06,0,0,1-.48.69A2.57,2.57,0,0,1,258,31.9Z"/><path class="cls-2" d="M276.08,31.91a5.25,5.25,0,0,1-2.18-.45,5.31,5.31,0,0,1-1.75-1.27A5.8,5.8,0,0,1,271,28.27a7.06,7.06,0,0,1-.41-2.44V21.31a4.45,4.45,0,0,1,.09-.93,1.1,1.1,0,0,1,.49-.7,2.46,2.46,0,0,1,1.32-.27,2.41,2.41,0,0,1,1.32.27,1.13,1.13,0,0,1,.47.72,4.59,4.59,0,0,1,.09.93v4.5a2.8,2.8,0,0,0,.27,1.27,1.78,1.78,0,0,0,.77.81,2.57,2.57,0,0,0,1.21.27,2.4,2.4,0,0,0,1.24-.28,2,2,0,0,0,.8-.81,2.59,2.59,0,0,0,.29-1.25V21.29a4.52,4.52,0,0,1,.09-.93,1.08,1.08,0,0,1,.49-.69,2.57,2.57,0,0,1,1.32-.26,2.31,2.31,0,0,1,1.32.28,1.14,1.14,0,0,1,.47.71,4.53,4.53,0,0,1,.09.91v8.8a4.13,4.13,0,0,1-.09.89,1,1,0,0,1-.48.66,2.52,2.52,0,0,1-1.3.25,2.92,2.92,0,0,1-1.05-.15,1.23,1.23,0,0,1-.55-.37.94.94,0,0,1-.21-.48,2.57,2.57,0,0,1,0-.45l.32-.27a3,3,0,0,1-.32.38,5.28,5.28,0,0,1-.67.58,4,4,0,0,1-1,.54A3.55,3.55,0,0,1,276.08,31.91Z"/><path class="cls-2" d="M291.2,32.14a6.29,6.29,0,0,1-2.34-.46,7.37,7.37,0,0,1-2.11-1.31,6.53,6.53,0,0,1-1.51-2,6.47,6.47,0,0,1-.05-5.15,6.83,6.83,0,0,1,1.42-2.06,7,7,0,0,1,2.06-1.42,6.16,6.16,0,0,1,2.49-.51,6.24,6.24,0,0,1,3.26.87,6.48,6.48,0,0,1,2.34,2.34,6.69,6.69,0,0,1,.31,6,6.43,6.43,0,0,1-1.5,2,6.57,6.57,0,0,1-2.08,1.29A6.36,6.36,0,0,1,291.2,32.14Zm-.05-3.77a2.85,2.85,0,0,0,1.23-.3,2.56,2.56,0,0,0,1.48-2.42,2.81,2.81,0,0,0-.35-1.41,2.48,2.48,0,0,0-1-.93,2.78,2.78,0,0,0-1.41-.34,2.53,2.53,0,0,0-1.34.35,2.73,2.73,0,0,0-1,1,2.93,2.93,0,0,0,.05,2.9,2.49,2.49,0,0,0,1,.9A2.94,2.94,0,0,0,291.15,28.37Z"/><path class="cls-4" d="M54.61,31.08h4.52q3.42,0,3.42,4a4,4,0,0,1-1.08,3.17c-.72.63-2,.94-3.85.94h-11a6.93,6.93,0,0,1-3.9-.77c-.69-.52-1-1.63-1-3.34a5.58,5.58,0,0,1,.16-1.45,3.45,3.45,0,0,1,.62-1.2,5.18,5.18,0,0,1,1.22-1.13c1.47-1,2.62-1.82,3.46-2.44s1.67-1.26,2.47-1.95a13.25,13.25,0,0,0,1.77-1.76,10.41,10.41,0,0,0,1-1.66A6.21,6.21,0,0,0,53,21.59a15.39,15.39,0,0,0,.14-2.19c0-1.56-.47-2.35-1.42-2.35s-1.55.93-1.55,2.77a2,2,0,0,1-1,2,7,7,0,0,1-2.89.46c-1.74,0-2.92-.39-3.53-1.17a6.48,6.48,0,0,1-.91-3.91,5.48,5.48,0,0,1,2.51-4.56,11.67,11.67,0,0,1,7-1.82q11.07,0,11.07,8.69A14.11,14.11,0,0,1,62,23.21,11.66,11.66,0,0,1,60.89,26a9.08,9.08,0,0,1-1.78,2.12A17.42,17.42,0,0,1,57,29.74,26.68,26.68,0,0,1,54.61,31.08Z"/><path class="cls-4" d="M65.24,36a2.78,2.78,0,0,1,1.16-2.31,5.38,5.38,0,0,1,3.28-.88c3,0,4.44,1.07,4.44,3.19a3.11,3.11,0,0,1-.57,2,2.73,2.73,0,0,1-1.51,1,9.17,9.17,0,0,1-2.36.26,6.13,6.13,0,0,1-3.18-.76A2.63,2.63,0,0,1,65.24,36Z"/><path class="cls-4" d="M89.85,31.08h4.52q3.42,0,3.42,4a4,4,0,0,1-1.08,3.17c-.72.63-2,.94-3.85.94h-11c-1.91,0-3.2-.25-3.89-.77s-1-1.63-1-3.34a5.58,5.58,0,0,1,.16-1.45,3.45,3.45,0,0,1,.62-1.2,5.18,5.18,0,0,1,1.22-1.13c1.47-1,2.62-1.82,3.46-2.44s1.67-1.26,2.47-1.95a13.25,13.25,0,0,0,1.77-1.76,10.45,10.45,0,0,0,1-1.66,6.47,6.47,0,0,0,.61-1.85,15.39,15.39,0,0,0,.14-2.19c0-1.56-.47-2.35-1.42-2.35s-1.55.93-1.55,2.77a2,2,0,0,1-1,2,7,7,0,0,1-2.89.46c-1.74,0-2.92-.39-3.53-1.17a6.48,6.48,0,0,1-.91-3.91,5.48,5.48,0,0,1,2.51-4.56,11.67,11.67,0,0,1,7-1.82q11.07,0,11.07,8.69a14,14,0,0,1-.45,3.67A11.75,11.75,0,0,1,96.13,26a9.08,9.08,0,0,1-1.78,2.12,17.25,17.25,0,0,1-2.1,1.63A24.29,24.29,0,0,1,89.85,31.08Z"/><path class="cls-5" d="M54.61,31.08h4.52q3.42,0,3.42,4a4,4,0,0,1-1.08,3.17c-.72.63-2,.94-3.85.94h-11a6.93,6.93,0,0,1-3.9-.77c-.69-.52-1-1.63-1-3.34a5.58,5.58,0,0,1,.16-1.45,3.45,3.45,0,0,1,.62-1.2,5.18,5.18,0,0,1,1.22-1.13c1.47-1,2.62-1.82,3.46-2.44s1.67-1.26,2.47-1.95a13.25,13.25,0,0,0,1.77-1.76,10.41,10.41,0,0,0,1-1.66A6.21,6.21,0,0,0,53,21.59a15.39,15.39,0,0,0,.14-2.19c0-1.56-.47-2.35-1.42-2.35s-1.55.93-1.55,2.77a2,2,0,0,1-1,2,7,7,0,0,1-2.89.46c-1.74,0-2.92-.39-3.53-1.17a6.48,6.48,0,0,1-.91-3.91,5.48,5.48,0,0,1,2.51-4.56,11.67,11.67,0,0,1,7-1.82q11.07,0,11.07,8.69A14.11,14.11,0,0,1,62,23.21,11.66,11.66,0,0,1,60.89,26a9.08,9.08,0,0,1-1.78,2.12A17.42,17.42,0,0,1,57,29.74,26.68,26.68,0,0,1,54.61,31.08Z"/><path class="cls-5" d="M65.24,36a2.78,2.78,0,0,1,1.16-2.31,5.38,5.38,0,0,1,3.28-.88c3,0,4.44,1.07,4.44,3.19a3.11,3.11,0,0,1-.57,2,2.73,2.73,0,0,1-1.51,1,9.17,9.17,0,0,1-2.36.26,6.13,6.13,0,0,1-3.18-.76A2.63,2.63,0,0,1,65.24,36Z"/><path class="cls-5" d="M89.85,31.08h4.52q3.42,0,3.42,4a4,4,0,0,1-1.08,3.17c-.72.63-2,.94-3.85.94h-11c-1.91,0-3.2-.25-3.89-.77s-1-1.63-1-3.34a5.58,5.58,0,0,1,.16-1.45,3.45,3.45,0,0,1,.62-1.2,5.18,5.18,0,0,1,1.22-1.13c1.47-1,2.62-1.82,3.46-2.44s1.67-1.26,2.47-1.95a13.25,13.25,0,0,0,1.77-1.76,10.45,10.45,0,0,0,1-1.66,6.47,6.47,0,0,0,.61-1.85,15.39,15.39,0,0,0,.14-2.19c0-1.56-.47-2.35-1.42-2.35s-1.55.93-1.55,2.77a2,2,0,0,1-1,2,7,7,0,0,1-2.89.46c-1.74,0-2.92-.39-3.53-1.17a6.48,6.48,0,0,1-.91-3.91,5.48,5.48,0,0,1,2.51-4.56,11.67,11.67,0,0,1,7-1.82q11.07,0,11.07,8.69a14,14,0,0,1-.45,3.67A11.75,11.75,0,0,1,96.13,26a9.08,9.08,0,0,1-1.78,2.12,17.25,17.25,0,0,1-2.1,1.63A24.29,24.29,0,0,1,89.85,31.08Z"/></g></g></svg>