<svg xmlns="http://www.w3.org/2000/svg" viewBox="0 0 399.98 99.09"><defs><style>.cls-1{fill:#03826e;}.cls-2{fill:#fff;}.cls-3,.cls-4{fill:none;stroke-width:5px;}.cls-3{stroke:#b6ba01;stroke-linejoin:round;}.cls-4{stroke:#fff;}.cls-5{fill:#b6ba01;}</style></defs><title>23t</title><g id="Layer_2" data-name="Layer 2"><g id="pestaña_identificativa" data-name="pestaña identificativa"><rect class="cls-1" width="399.98" height="99.09" rx="32.4"/><path class="cls-2" d="M113.28,31.84a2.4,2.4,0,0,1-1.3-.27,1.05,1.05,0,0,1-.49-.71,4.7,4.7,0,0,1-.08-.92V16.26a2.07,2.07,0,0,1,.43-1.49,2.2,2.2,0,0,1,1.52-.41h9.45a4.45,4.45,0,0,1,.93.09,1.09,1.09,0,0,1,.7.48,2.53,2.53,0,0,1,.27,1.35,2.38,2.38,0,0,1-.27,1.3,1.12,1.12,0,0,1-.71.49,4.76,4.76,0,0,1-.94.09h-7.58v3.23h5.15a4.74,4.74,0,0,1,.89.08.91.91,0,0,1,.61.42,2.3,2.3,0,0,1,.23,1.18,2.13,2.13,0,0,1-.23,1.12.9.9,0,0,1-.64.43,5.1,5.1,0,0,1-.91.07h-5.1V28h7.6a4.4,4.4,0,0,1,.92.1,1.18,1.18,0,0,1,.7.49,2.43,2.43,0,0,1,.28,1.34,2.39,2.39,0,0,1-.28,1.3,1.1,1.1,0,0,1-.71.49,5.58,5.58,0,0,1-.94.08Z"/><path class="cls-2" d="M131.4,32.05a8,8,0,0,1-1.47-.15,8.79,8.79,0,0,1-1.54-.44,5.08,5.08,0,0,1-1.25-.68,1.26,1.26,0,0,1-.56-.88,1.41,1.41,0,0,1,0-.54,2.37,2.37,0,0,1,.23-.6,3.78,3.78,0,0,1,.44-.66,1,1,0,0,1,.43-.36,1.1,1.1,0,0,1,.59,0,3.55,3.55,0,0,1,.8.26l.83.4a6.74,6.74,0,0,0,.87.38,2.68,2.68,0,0,0,.93.16,2.3,2.3,0,0,0,1.08-.21.65.65,0,0,0,.39-.59.64.64,0,0,0-.16-.45,1.6,1.6,0,0,0-.45-.3,5.37,5.37,0,0,0-.68-.23c-.25-.08-.52-.15-.81-.22s-.58-.15-.9-.25a7.72,7.72,0,0,1-1.18-.45,3.67,3.67,0,0,1-1-.71,3.1,3.1,0,0,1-.74-1.08,3.79,3.79,0,0,1-.28-1.56,3.3,3.3,0,0,1,2.23-3.31,7.34,7.34,0,0,1,2.7-.44c.3,0,.6,0,.9,0a5.4,5.4,0,0,1,.89.18,6.74,6.74,0,0,1,.86.3,8.36,8.36,0,0,1,.85.42,1.14,1.14,0,0,1,.78.95,2.08,2.08,0,0,1-.43,1.25,1.82,1.82,0,0,1-.58.59.87.87,0,0,1-.62.14,4.13,4.13,0,0,1-.86-.34c-.31-.16-.64-.3-1-.44a2.84,2.84,0,0,0-1-.2,2.29,2.29,0,0,0-.73.11,1.27,1.27,0,0,0-.45.3.7.7,0,0,0-.14.44.69.69,0,0,0,.18.51,1.59,1.59,0,0,0,.51.32,5.64,5.64,0,0,0,.75.22c.29.07.59.14.93.2s.91.2,1.39.34a4.72,4.72,0,0,1,1.3.62,2.88,2.88,0,0,1,.94,1.07,3.65,3.65,0,0,1,.37,1.78,3.57,3.57,0,0,1-1.38,3A6.38,6.38,0,0,1,131.4,32.05Z"/><path class="cls-2" d="M145,32a6.47,6.47,0,0,1-2.24-.42,6.92,6.92,0,0,1-2.1-1.21,5.87,5.87,0,0,1-1.53-2,6.21,6.21,0,0,1-.58-2.75,6.06,6.06,0,0,1,.58-2.73,6,6,0,0,1,1.52-2,6.87,6.87,0,0,1,2.09-1.21,6.16,6.16,0,0,1,2.22-.41,6.08,6.08,0,0,1,1.66.21,5.41,5.41,0,0,1,1.25.51,3.87,3.87,0,0,1,.74.53,8.35,8.35,0,0,1,.75.65,1.08,1.08,0,0,1,.29.85,1.38,1.38,0,0,1-.17.56,4.48,4.48,0,0,1-.38.59c-.51.7-1,1-1.5.95a2.39,2.39,0,0,1-.68-.25l-.6-.35a6,6,0,0,0-.62-.32,1.9,1.9,0,0,0-.75-.13,2.59,2.59,0,0,0-1.3.33,2.7,2.7,0,0,0-.91.9,2.55,2.55,0,0,0-.34,1.31,2.45,2.45,0,0,0,.34,1.3,2.48,2.48,0,0,0,.9.92,2.71,2.71,0,0,0,2,.24,2.83,2.83,0,0,0,.55-.24l.35-.21c.2-.14.39-.26.57-.37a1.19,1.19,0,0,1,.55-.16,1.23,1.23,0,0,1,.74.27,4.28,4.28,0,0,1,.81.83,2.1,2.1,0,0,1,.49,1,1.22,1.22,0,0,1-.21.86,2.6,2.6,0,0,1-.86.76,3.69,3.69,0,0,1-.71.45,6.49,6.49,0,0,1-1.25.5A5.64,5.64,0,0,1,145,32Z"/><path class="cls-2" d="M162.18,31.84a2.42,2.42,0,0,1-1.38-.32.9.9,0,0,1-.42-.8l.25-.43a2.59,2.59,0,0,1-.58.61,4.11,4.11,0,0,1-1.11.65,4.33,4.33,0,0,1-1.66.29,5,5,0,0,1-2.19-.5A6,6,0,0,1,153.26,30a7.07,7.07,0,0,1-1.28-2,6.15,6.15,0,0,1-.47-2.37,6,6,0,0,1,.47-2.34,6.72,6.72,0,0,1,1.29-2,6.19,6.19,0,0,1,1.84-1.36,4.81,4.81,0,0,1,2.18-.5,4.3,4.3,0,0,1,1.57.26,4.65,4.65,0,0,1,1.09.61,3.45,3.45,0,0,1,.66.68l-.22-.35a1,1,0,0,1,.43-.91,2.42,2.42,0,0,1,1.39-.31,2.34,2.34,0,0,1,1.29.27,1.09,1.09,0,0,1,.47.73,4.79,4.79,0,0,1,.09.95v8.62a5.64,5.64,0,0,1-.08.93,1.09,1.09,0,0,1-.48.71A2.48,2.48,0,0,1,162.18,31.84Zm-4.37-3.73a2.21,2.21,0,0,0,1.2-.33,2.67,2.67,0,0,0,.85-3.48,2.5,2.5,0,0,0-.88-.89,2.39,2.39,0,0,0-1.22-.32,2.42,2.42,0,0,0-1.26.33,2.48,2.48,0,0,0-.9.92,2.45,2.45,0,0,0-.34,1.3,2.36,2.36,0,0,0,.33,1.23,2.6,2.6,0,0,0,2.22,1.24Z"/><path class="cls-2" d="M171.35,31.87a14.14,14.14,0,0,1-1.82-.1,3.9,3.9,0,0,1-1.35-.4,2.42,2.42,0,0,1-.9-.84,3.92,3.92,0,0,1-.52-1.37,10.07,10.07,0,0,1-.18-2.07V15.54a3.82,3.82,0,0,1,.1-.92,1.18,1.18,0,0,1,.49-.7,2.26,2.26,0,0,1,1.31-.27,2.34,2.34,0,0,1,1.29.27,1.17,1.17,0,0,1,.48.7,3.84,3.84,0,0,1,.1.93V26.92a5.86,5.86,0,0,0,0,.66,1,1,0,0,0,.15.42.59.59,0,0,0,.32.2,2.34,2.34,0,0,0,.52.05,2.6,2.6,0,0,1,.61.07.89.89,0,0,1,.54.45,2.56,2.56,0,0,1,.23,1.25,2.9,2.9,0,0,1-.23,1.3.88.88,0,0,1-.54.48A2.73,2.73,0,0,1,171.35,31.87Z"/><path class="cls-2" d="M180.78,32.1a7.25,7.25,0,0,1-3-.57A6,6,0,0,1,175.7,30a6.3,6.3,0,0,1-1.19-2.09,6.83,6.83,0,0,1-.4-2.3A6.38,6.38,0,0,1,175,22.3,6.11,6.11,0,0,1,177.32,20a7,7,0,0,1,3.47-.83,6.25,6.25,0,0,1,2.51.46,5.23,5.23,0,0,1,1.75,1.2,4.89,4.89,0,0,1,1,1.59,4.33,4.33,0,0,1,.34,1.63,2.81,2.81,0,0,1-.67,2.05,2.25,2.25,0,0,1-1.68.67h-5.95a1.71,1.71,0,0,0,.46,1.07,2.81,2.81,0,0,0,1,.7,3.5,3.5,0,0,0,1.33.25,8.22,8.22,0,0,0,1-.06,4.49,4.49,0,0,0,.79-.17c.21-.08.41-.15.58-.23l.49-.19a2.41,2.41,0,0,1,.43-.1,1,1,0,0,1,.67.22,2,2,0,0,1,.58.71,1.93,1.93,0,0,1,.23.52,2.2,2.2,0,0,1,.06.5,1.34,1.34,0,0,1-.61,1.09,4.68,4.68,0,0,1-1.72.74A11.62,11.62,0,0,1,180.78,32.1Zm-2.67-7.4h3.95a1,1,0,0,0,.57-.13c.14-.09.2-.27.2-.54a1.25,1.25,0,0,0-.27-.78,1.7,1.7,0,0,0-.74-.53,2.8,2.8,0,0,0-1.09-.19,3,3,0,0,0-1.35.3,2.28,2.28,0,0,0-.93.8A1.84,1.84,0,0,0,178.11,24.7Z"/><path class="cls-2" d="M190.38,31.88a2.36,2.36,0,0,1-1.31-.26,1.09,1.09,0,0,1-.48-.71,4.73,4.73,0,0,1-.09-.93V21.26a4.52,4.52,0,0,1,.09-.93,1,1,0,0,1,.49-.68,2.41,2.41,0,0,1,1.32-.27,2.5,2.5,0,0,1,1.26.24,1.06,1.06,0,0,1,.49.55,1.73,1.73,0,0,1,.1.54l-.3.15a2,2,0,0,1,.26-.36,3.2,3.2,0,0,1,.59-.55,3.4,3.4,0,0,1,.91-.49,3.62,3.62,0,0,1,1.24-.2,4.55,4.55,0,0,1,.61,0,3,3,0,0,1,.7.15,2.54,2.54,0,0,1,.67.3,1.51,1.51,0,0,1,.48.46,1.16,1.16,0,0,1,.19.68,3,3,0,0,1-.48,1.73,1.39,1.39,0,0,1-1.2.72,2,2,0,0,1-.6-.07.92.92,0,0,1-.28-.15,1.73,1.73,0,0,0-.27-.15,1.68,1.68,0,0,0-.55-.06,2.39,2.39,0,0,0-.71.1,2.12,2.12,0,0,0-.62.31,1.35,1.35,0,0,0-.45.53,1.49,1.49,0,0,0-.17.71V30a4.63,4.63,0,0,1-.09.92,1,1,0,0,1-.49.68A2.53,2.53,0,0,1,190.38,31.88Z"/><path class="cls-2" d="M209.78,31.87a2.34,2.34,0,0,1-1.38-.33.88.88,0,0,1-.42-.8l.25-.42a2.8,2.8,0,0,1-.58.61,4.11,4.11,0,0,1-1.11.65,4.33,4.33,0,0,1-1.66.29,5,5,0,0,1-2.19-.5A6.17,6.17,0,0,1,200.85,30a7.27,7.27,0,0,1-1.27-2,6.13,6.13,0,0,1,0-4.71,6.72,6.72,0,0,1,1.29-2,6.4,6.4,0,0,1,1.84-1.37,4.93,4.93,0,0,1,2.18-.49,4.1,4.1,0,0,1,1.57.26,4.65,4.65,0,0,1,1.09.61,3.45,3.45,0,0,1,.66.68l-.23-.35a1,1,0,0,1,.44-.91,3.24,3.24,0,0,1,2.68,0,1.12,1.12,0,0,1,.47.73,4.79,4.79,0,0,1,.09,1V30a5.64,5.64,0,0,1-.08.93,1.09,1.09,0,0,1-.48.71A2.5,2.5,0,0,1,209.78,31.87Zm-4.37-3.73a2.17,2.17,0,0,0,1.19-.33,2.54,2.54,0,0,0,.86-.92,2.72,2.72,0,0,0,0-2.56,2.5,2.5,0,0,0-.88-.89,2.39,2.39,0,0,0-1.22-.32,2.48,2.48,0,0,0-1.27.33,2.64,2.64,0,0,0-.9.92,2.53,2.53,0,0,0-.33,1.29,2.37,2.37,0,0,0,.33,1.24,2.6,2.6,0,0,0,2.22,1.24Z"/><path class="cls-2" d="M230.88,31.88a2.42,2.42,0,0,1-1.38-.32.9.9,0,0,1-.42-.8l.25-.43a2.59,2.59,0,0,1-.58.61,3.87,3.87,0,0,1-1.11.65,4.33,4.33,0,0,1-1.66.29,5,5,0,0,1-2.19-.5A6.17,6.17,0,0,1,222,30a7.21,7.21,0,0,1-1.27-2,6.16,6.16,0,0,1,0-4.72,6.72,6.72,0,0,1,1.29-2,6.37,6.37,0,0,1,1.84-1.36,4.94,4.94,0,0,1,2.18-.5,4.3,4.3,0,0,1,1.57.26,4.51,4.51,0,0,1,1.09.62,3.18,3.18,0,0,1,.66.67l-.23-.35a1.05,1.05,0,0,1,.44-.91,2.42,2.42,0,0,1,1.39-.31,2.34,2.34,0,0,1,1.29.27,1.15,1.15,0,0,1,.47.73,4.79,4.79,0,0,1,.09.95V30a5.64,5.64,0,0,1-.08.93,1.07,1.07,0,0,1-.48.71A2.41,2.41,0,0,1,230.88,31.88Zm-4.37-3.73a2.2,2.2,0,0,0,1.19-.33,2.68,2.68,0,0,0,.86-.91,2.74,2.74,0,0,0,0-2.57,2.4,2.4,0,0,0-.88-.88,2.3,2.3,0,0,0-1.22-.33,2.39,2.39,0,0,0-1.27.34A2.5,2.5,0,0,0,224,25.68a2.42,2.42,0,0,0,.33,1.24,2.67,2.67,0,0,0,.93.9A2.58,2.58,0,0,0,226.51,28.15Z"/><path class="cls-2" d="M237.13,31.89a2.41,2.41,0,0,1-1.32-.27,1.1,1.1,0,0,1-.47-.7,4.46,4.46,0,0,1-.09-.91v-8.8a4.19,4.19,0,0,1,.09-.89,1,1,0,0,1,.49-.66,3.52,3.52,0,0,1,2.5,0,1,1,0,0,1,.48.52,1.47,1.47,0,0,1,.11.56,1,1,0,0,0,0,.36l-.15.48a1.61,1.61,0,0,1,.39-.77,4,4,0,0,1,.85-.7,4.7,4.7,0,0,1,1.1-.48,4,4,0,0,1,1.17-.18,5,5,0,0,1,2.13.44,4.37,4.37,0,0,1,1.59,1.27,6,6,0,0,1,1,1.93,8.62,8.62,0,0,1,.33,2.44V30a4.46,4.46,0,0,1-.09.91,1,1,0,0,1-.48.69,2.53,2.53,0,0,1-1.33.25,2.59,2.59,0,0,1-1.33-.26,1.06,1.06,0,0,1-.48-.7,4.56,4.56,0,0,1-.09-.92V25.49a2.92,2.92,0,0,0-.26-1.28,1.93,1.93,0,0,0-.75-.8,2.46,2.46,0,0,0-1.21-.27,2.57,2.57,0,0,0-1.25.28,2.15,2.15,0,0,0-.82.82,2.57,2.57,0,0,0-.28,1.25V30a5.4,5.4,0,0,1-.08.91,1.06,1.06,0,0,1-.48.69A2.62,2.62,0,0,1,237.13,31.89Z"/><path class="cls-2" d="M255,31.6a5,5,0,0,1-2.16-.49,6,6,0,0,1-1.79-1.34,6.76,6.76,0,0,1-1.22-1.95,6.12,6.12,0,0,1-.45-2.33,6,6,0,0,1,.45-2.31,6.3,6.3,0,0,1,3-3.25,4.89,4.89,0,0,1,2.11-.48,3.71,3.71,0,0,1,1.9.44,3.2,3.2,0,0,1,1.25,1.25,6.13,6.13,0,0,1,.71,1.92,11.82,11.82,0,0,1,.24,2.49,11.33,11.33,0,0,1-.41,3.21,4.22,4.22,0,0,1-1.31,2.1A3.57,3.57,0,0,1,255,31.6Zm.45,5.47a6.9,6.9,0,0,1-1.76-.22,7.5,7.5,0,0,1-1.59-.61,4.45,4.45,0,0,1-1.15-.8,1.17,1.17,0,0,1-.42-.85,1.77,1.77,0,0,1,.15-.73,2.46,2.46,0,0,1,.45-.67,4.94,4.94,0,0,1,.6-.57.92.92,0,0,1,.6-.2,1,1,0,0,1,.62.19l.59.41a3.41,3.41,0,0,0,.79.41,3.14,3.14,0,0,0,1.2.19,2.24,2.24,0,0,0,.93-.19,1.86,1.86,0,0,0,.75-.54,2.89,2.89,0,0,0,.5-.85A2.94,2.94,0,0,0,257.9,31V20.6a1.21,1.21,0,0,1,.51-.94,2.49,2.49,0,0,1,1.34-.29,2.21,2.21,0,0,1,1.25.27,1.07,1.07,0,0,1,.46.68,4.46,4.46,0,0,1,.09.91V31.1a5.88,5.88,0,0,1-.52,2.54,5.6,5.6,0,0,1-1.41,1.87,6,6,0,0,1-1.95,1.16A6.19,6.19,0,0,1,255.45,37.07Zm0-9.1a2.21,2.21,0,0,0,1.2-.33,2.65,2.65,0,0,0,.84-.89,2.68,2.68,0,0,0,0-2.5,2.39,2.39,0,0,0-.85-.88,2.35,2.35,0,0,0-1.21-.32,2.21,2.21,0,0,0-1.2.33,2.56,2.56,0,0,0-.84.89,2.47,2.47,0,0,0-.31,1.25,2.35,2.35,0,0,0,.32,1.23,2.59,2.59,0,0,0,.86.88A2.17,2.17,0,0,0,255.43,28Z"/><path class="cls-2" d="M269.5,31.9a5.2,5.2,0,0,1-2.17-.45,5.33,5.33,0,0,1-1.75-1.26,5.59,5.59,0,0,1-1.16-1.93,6.6,6.6,0,0,1-.41-2.43V21.3a5.25,5.25,0,0,1,.08-.92,1.11,1.11,0,0,1,.49-.7,3.25,3.25,0,0,1,2.64,0,1.12,1.12,0,0,1,.48.71,5.58,5.58,0,0,1,.08.94v4.5a2.92,2.92,0,0,0,.26,1.26,1.75,1.75,0,0,0,.78.81,2.78,2.78,0,0,0,2.45,0,2.08,2.08,0,0,0,.8-.81,2.59,2.59,0,0,0,.28-1.25V21.28a4.42,4.42,0,0,1,.09-.92,1,1,0,0,1,.48-.69,2.49,2.49,0,0,1,1.33-.26,2.37,2.37,0,0,1,1.31.27,1.17,1.17,0,0,1,.48.72,5.31,5.31,0,0,1,.08.91v8.8A4.19,4.19,0,0,1,276,31a1,1,0,0,1-.49.66,2.63,2.63,0,0,1-1.3.25,2.92,2.92,0,0,1-1.05-.15,1.31,1.31,0,0,1-.55-.38.94.94,0,0,1-.21-.47,2.57,2.57,0,0,1,0-.45l.33-.28a2.1,2.1,0,0,1-.33.39,5.12,5.12,0,0,1-.66.57,4.43,4.43,0,0,1-1,.54A3.22,3.22,0,0,1,269.5,31.9Z"/><path class="cls-2" d="M283.43,31.94a16.26,16.26,0,0,1-1.83-.1,3.9,3.9,0,0,1-1.35-.4,2.58,2.58,0,0,1-.9-.84,4,4,0,0,1-.52-1.38,10,10,0,0,1-.18-2.06V15.61a3.82,3.82,0,0,1,.1-.92,1.15,1.15,0,0,1,.49-.7,2.27,2.27,0,0,1,1.31-.28,2.24,2.24,0,0,1,1.29.28,1.15,1.15,0,0,1,.49.7,4.4,4.4,0,0,1,.1.92V27a4.08,4.08,0,0,0,0,.66.8.8,0,0,0,.15.41.49.49,0,0,0,.31.2,1.9,1.9,0,0,0,.52,0,2.7,2.7,0,0,1,.62.08.9.9,0,0,1,.53.45,2.56,2.56,0,0,1,.23,1.25,2.79,2.79,0,0,1-.23,1.3.86.86,0,0,1-.54.47A2.72,2.72,0,0,1,283.43,31.94Z"/><path class="cls-2" d="M296.85,31.92a2.39,2.39,0,0,1-1.37-.32.91.91,0,0,1-.43-.8l.25-.43a2.72,2.72,0,0,1-.57.61,4.08,4.08,0,0,1-1.12.65,4.29,4.29,0,0,1-1.66.29,5,5,0,0,1-2.19-.5A6,6,0,0,1,287.93,30a7,7,0,0,1-1.28-2,6.2,6.2,0,0,1-.47-2.38,5.83,5.83,0,0,1,.48-2.34,6.5,6.5,0,0,1,1.28-2A6.32,6.32,0,0,1,289.78,20a5,5,0,0,1,2.18-.5,4.26,4.26,0,0,1,1.57.26,4.16,4.16,0,0,1,1.09.62,3.18,3.18,0,0,1,.66.67l-.22-.35a1,1,0,0,1,.44-.91,2.39,2.39,0,0,1,1.38-.31,2.34,2.34,0,0,1,1.29.27,1.16,1.16,0,0,1,.48.73,5.7,5.7,0,0,1,.08.95V30a4.73,4.73,0,0,1-.09.93,1.09,1.09,0,0,1-.48.71A2.45,2.45,0,0,1,296.85,31.92Zm-4.37-3.73a2.21,2.21,0,0,0,1.2-.33,2.66,2.66,0,0,0,.85-.91,2.55,2.55,0,0,0-.87-3.46,2.45,2.45,0,0,0-1.23-.32,2.33,2.33,0,0,0-1.26.34,2.38,2.38,0,0,0-.9.91,2.45,2.45,0,0,0-.34,1.3,2.34,2.34,0,0,0,.34,1.24,2.53,2.53,0,0,0,2.21,1.23Z"/><path class="cls-2" d="M303.1,32a2.48,2.48,0,0,1-1.31-.26,1.11,1.11,0,0,1-.48-.72,5.52,5.52,0,0,1-.08-.92V21.32a4.42,4.42,0,0,1,.09-.92,1.08,1.08,0,0,1,.49-.69,2.54,2.54,0,0,1,1.32-.26,2.52,2.52,0,0,1,1.27.24,1,1,0,0,1,.48.55,1.73,1.73,0,0,1,.1.54l-.3.15a3.45,3.45,0,0,1,.26-.37,4.66,4.66,0,0,1,.59-.55,3.46,3.46,0,0,1,.92-.48,3.56,3.56,0,0,1,1.23-.2,4.7,4.7,0,0,1,.62,0,3.26,3.26,0,0,1,.7.15,2.47,2.47,0,0,1,.66.3,1.66,1.66,0,0,1,.49.46,1.2,1.2,0,0,1,.18.67,3.09,3.09,0,0,1-.47,1.74,1.4,1.4,0,0,1-1.2.71,2,2,0,0,1-.6-.06.87.87,0,0,1-.29-.15,1.1,1.1,0,0,0-.26-.15A1.72,1.72,0,0,0,307,23a2.46,2.46,0,0,0-.72.1,1.9,1.9,0,0,0-.62.31,1.6,1.6,0,0,0-.45.52,1.53,1.53,0,0,0-.16.72V30.1a4.46,4.46,0,0,1-.09.91,1,1,0,0,1-.48.69A2.6,2.6,0,0,1,303.1,32Z"/><path class="cls-3" d="M113.28,31.84a2.4,2.4,0,0,1-1.3-.27,1.05,1.05,0,0,1-.49-.71,4.7,4.7,0,0,1-.08-.92V16.26a2.07,2.07,0,0,1,.43-1.49,2.2,2.2,0,0,1,1.52-.41h9.45a4.45,4.45,0,0,1,.93.09,1.09,1.09,0,0,1,.7.48,2.53,2.53,0,0,1,.27,1.35,2.38,2.38,0,0,1-.27,1.3,1.12,1.12,0,0,1-.71.49,4.76,4.76,0,0,1-.94.09h-7.58v3.23h5.15a4.74,4.74,0,0,1,.89.08.91.91,0,0,1,.61.42,2.3,2.3,0,0,1,.23,1.18,2.13,2.13,0,0,1-.23,1.12.9.9,0,0,1-.64.43,5.1,5.1,0,0,1-.91.07h-5.1V28h7.6a4.4,4.4,0,0,1,.92.1,1.18,1.18,0,0,1,.7.49,2.43,2.43,0,0,1,.28,1.34,2.39,2.39,0,0,1-.28,1.3,1.1,1.1,0,0,1-.71.49,5.58,5.58,0,0,1-.94.08Z"/><path class="cls-3" d="M131.4,32.05a8,8,0,0,1-1.47-.15,8.79,8.79,0,0,1-1.54-.44,5.08,5.08,0,0,1-1.25-.68,1.26,1.26,0,0,1-.56-.88,1.41,1.41,0,0,1,0-.54,2.37,2.37,0,0,1,.23-.6,3.78,3.78,0,0,1,.44-.66,1,1,0,0,1,.43-.36,1.1,1.1,0,0,1,.59,0,3.55,3.55,0,0,1,.8.26l.83.4a6.74,6.74,0,0,0,.87.38,2.68,2.68,0,0,0,.93.16,2.3,2.3,0,0,0,1.08-.21.65.65,0,0,0,.39-.59.64.64,0,0,0-.16-.45,1.6,1.6,0,0,0-.45-.3,5.37,5.37,0,0,0-.68-.23c-.25-.08-.52-.15-.81-.22s-.58-.15-.9-.25a7.72,7.72,0,0,1-1.18-.45,3.67,3.67,0,0,1-1-.71,3.1,3.1,0,0,1-.74-1.08,3.79,3.79,0,0,1-.28-1.56,3.3,3.3,0,0,1,2.23-3.31,7.34,7.34,0,0,1,2.7-.44c.3,0,.6,0,.9,0a5.4,5.4,0,0,1,.89.18,6.74,6.74,0,0,1,.86.3,8.36,8.36,0,0,1,.85.42,1.14,1.14,0,0,1,.78.95,2.08,2.08,0,0,1-.43,1.25,1.82,1.82,0,0,1-.58.59.87.87,0,0,1-.62.14,4.13,4.13,0,0,1-.86-.34c-.31-.16-.64-.3-1-.44a2.84,2.84,0,0,0-1-.2,2.29,2.29,0,0,0-.73.11,1.27,1.27,0,0,0-.45.3.7.7,0,0,0-.14.44.69.69,0,0,0,.18.51,1.59,1.59,0,0,0,.51.32,5.64,5.64,0,0,0,.75.22c.29.07.59.14.93.2s.91.2,1.39.34a4.72,4.72,0,0,1,1.3.62,2.88,2.88,0,0,1,.94,1.07,3.65,3.65,0,0,1,.37,1.78,3.57,3.57,0,0,1-1.38,3A6.38,6.38,0,0,1,131.4,32.05Z"/><path class="cls-3" d="M145,32a6.47,6.47,0,0,1-2.24-.42,6.92,6.92,0,0,1-2.1-1.21,5.87,5.87,0,0,1-1.53-2,6.21,6.21,0,0,1-.58-2.75,6.06,6.06,0,0,1,.58-2.73,6,6,0,0,1,1.52-2,6.87,6.87,0,0,1,2.09-1.21,6.16,6.16,0,0,1,2.22-.41,6.08,6.08,0,0,1,1.66.21,5.41,5.41,0,0,1,1.25.51,3.87,3.87,0,0,1,.74.53,8.35,8.35,0,0,1,.75.65,1.08,1.08,0,0,1,.29.85,1.38,1.38,0,0,1-.17.56,4.48,4.48,0,0,1-.38.59c-.51.7-1,1-1.5.95a2.39,2.39,0,0,1-.68-.25l-.6-.35a6,6,0,0,0-.62-.32,1.9,1.9,0,0,0-.75-.13,2.59,2.59,0,0,0-1.3.33,2.7,2.7,0,0,0-.91.9,2.55,2.55,0,0,0-.34,1.31,2.45,2.45,0,0,0,.34,1.3,2.48,2.48,0,0,0,.9.92,2.71,2.71,0,0,0,2,.24,2.83,2.83,0,0,0,.55-.24l.35-.21c.2-.14.39-.26.57-.37a1.19,1.19,0,0,1,.55-.16,1.23,1.23,0,0,1,.74.27,4.28,4.28,0,0,1,.81.83,2.1,2.1,0,0,1,.49,1,1.22,1.22,0,0,1-.21.86,2.6,2.6,0,0,1-.86.76,3.69,3.69,0,0,1-.71.45,6.49,6.49,0,0,1-1.25.5A5.64,5.64,0,0,1,145,32Z"/><path class="cls-3" d="M162.18,31.84a2.42,2.42,0,0,1-1.38-.32.9.9,0,0,1-.42-.8l.25-.43a2.59,2.59,0,0,1-.58.61,4.11,4.11,0,0,1-1.11.65,4.33,4.33,0,0,1-1.66.29,5,5,0,0,1-2.19-.5A6,6,0,0,1,153.26,30a7.07,7.07,0,0,1-1.28-2,6.15,6.15,0,0,1-.47-2.37,6,6,0,0,1,.47-2.34,6.72,6.72,0,0,1,1.29-2,6.19,6.19,0,0,1,1.84-1.36,4.81,4.81,0,0,1,2.18-.5,4.3,4.3,0,0,1,1.57.26,4.65,4.65,0,0,1,1.09.61,3.45,3.45,0,0,1,.66.68l-.22-.35a1,1,0,0,1,.43-.91,2.42,2.42,0,0,1,1.39-.31,2.34,2.34,0,0,1,1.29.27,1.09,1.09,0,0,1,.47.73,4.79,4.79,0,0,1,.09.95v8.62a5.64,5.64,0,0,1-.08.93,1.09,1.09,0,0,1-.48.71A2.48,2.48,0,0,1,162.18,31.84Zm-4.37-3.73a2.21,2.21,0,0,0,1.2-.33,2.67,2.67,0,0,0,.85-3.48,2.5,2.5,0,0,0-.88-.89,2.39,2.39,0,0,0-1.22-.32,2.42,2.42,0,0,0-1.26.33,2.48,2.48,0,0,0-.9.92,2.45,2.45,0,0,0-.34,1.3,2.36,2.36,0,0,0,.33,1.23,2.6,2.6,0,0,0,2.22,1.24Z"/><path class="cls-3" d="M171.35,31.87a14.14,14.14,0,0,1-1.82-.1,3.9,3.9,0,0,1-1.35-.4,2.42,2.42,0,0,1-.9-.84,3.92,3.92,0,0,1-.52-1.37,10.07,10.07,0,0,1-.18-2.07V15.54a3.82,3.82,0,0,1,.1-.92,1.18,1.18,0,0,1,.49-.7,2.26,2.26,0,0,1,1.31-.27,2.34,2.34,0,0,1,1.29.27,1.17,1.17,0,0,1,.48.7,3.84,3.84,0,0,1,.1.93V26.92a5.86,5.86,0,0,0,0,.66,1,1,0,0,0,.15.42.59.59,0,0,0,.32.2,2.34,2.34,0,0,0,.52.05,2.6,2.6,0,0,1,.61.07.89.89,0,0,1,.54.45,2.56,2.56,0,0,1,.23,1.25,2.9,2.9,0,0,1-.23,1.3.88.88,0,0,1-.54.48A2.73,2.73,0,0,1,171.35,31.87Z"/><path class="cls-3" d="M180.78,32.1a7.25,7.25,0,0,1-3-.57A6,6,0,0,1,175.7,30a6.3,6.3,0,0,1-1.19-2.09,6.83,6.83,0,0,1-.4-2.3A6.38,6.38,0,0,1,175,22.3,6.11,6.11,0,0,1,177.32,20a7,7,0,0,1,3.47-.83,6.25,6.25,0,0,1,2.51.46,5.23,5.23,0,0,1,1.75,1.2,4.89,4.89,0,0,1,1,1.59,4.33,4.33,0,0,1,.34,1.63,2.81,2.81,0,0,1-.67,2.05,2.25,2.25,0,0,1-1.68.67h-5.95a1.71,1.71,0,0,0,.46,1.07,2.81,2.81,0,0,0,1,.7,3.5,3.5,0,0,0,1.33.25,8.22,8.22,0,0,0,1-.06,4.49,4.49,0,0,0,.79-.17c.21-.08.41-.15.58-.23l.49-.19a2.41,2.41,0,0,1,.43-.1,1,1,0,0,1,.67.22,2,2,0,0,1,.58.71,1.93,1.93,0,0,1,.23.52,2.2,2.2,0,0,1,.06.5,1.34,1.34,0,0,1-.61,1.09,4.68,4.68,0,0,1-1.72.74A11.62,11.62,0,0,1,180.78,32.1Zm-2.67-7.4h3.95a1,1,0,0,0,.57-.13c.14-.09.2-.27.2-.54a1.25,1.25,0,0,0-.27-.78,1.7,1.7,0,0,0-.74-.53,2.8,2.8,0,0,0-1.09-.19,3,3,0,0,0-1.35.3,2.28,2.28,0,0,0-.93.8A1.84,1.84,0,0,0,178.11,24.7Z"/><path class="cls-3" d="M190.38,31.88a2.36,2.36,0,0,1-1.31-.26,1.09,1.09,0,0,1-.48-.71,4.73,4.73,0,0,1-.09-.93V21.26a4.52,4.52,0,0,1,.09-.93,1,1,0,0,1,.49-.68,2.41,2.41,0,0,1,1.32-.27,2.5,2.5,0,0,1,1.26.24,1.06,1.06,0,0,1,.49.55,1.73,1.73,0,0,1,.1.54l-.3.15a2,2,0,0,1,.26-.36,3.2,3.2,0,0,1,.59-.55,3.4,3.4,0,0,1,.91-.49,3.62,3.62,0,0,1,1.24-.2,4.55,4.55,0,0,1,.61,0,3,3,0,0,1,.7.15,2.54,2.54,0,0,1,.67.3,1.51,1.51,0,0,1,.48.46,1.16,1.16,0,0,1,.19.68,3,3,0,0,1-.48,1.73,1.39,1.39,0,0,1-1.2.72,2,2,0,0,1-.6-.07.92.92,0,0,1-.28-.15,1.73,1.73,0,0,0-.27-.15,1.68,1.68,0,0,0-.55-.06,2.39,2.39,0,0,0-.71.1,2.12,2.12,0,0,0-.62.31,1.35,1.35,0,0,0-.45.53,1.49,1.49,0,0,0-.17.71V30a4.63,4.63,0,0,1-.09.92,1,1,0,0,1-.49.68A2.53,2.53,0,0,1,190.38,31.88Z"/><path class="cls-3" d="M209.78,31.87a2.34,2.34,0,0,1-1.38-.33.88.88,0,0,1-.42-.8l.25-.42a2.8,2.8,0,0,1-.58.61,4.11,4.11,0,0,1-1.11.65,4.33,4.33,0,0,1-1.66.29,5,5,0,0,1-2.19-.5A6.17,6.17,0,0,1,200.85,30a7.27,7.27,0,0,1-1.27-2,6.13,6.13,0,0,1,0-4.71,6.72,6.72,0,0,1,1.29-2,6.4,6.4,0,0,1,1.84-1.37,4.93,4.93,0,0,1,2.18-.49,4.1,4.1,0,0,1,1.57.26,4.65,4.65,0,0,1,1.09.61,3.45,3.45,0,0,1,.66.68l-.23-.35a1,1,0,0,1,.44-.91,3.24,3.24,0,0,1,2.68,0,1.12,1.12,0,0,1,.47.73,4.79,4.79,0,0,1,.09,1V30a5.64,5.64,0,0,1-.08.93,1.09,1.09,0,0,1-.48.71A2.5,2.5,0,0,1,209.78,31.87Zm-4.37-3.73a2.17,2.17,0,0,0,1.19-.33,2.54,2.54,0,0,0,.86-.92,2.72,2.72,0,0,0,0-2.56,2.5,2.5,0,0,0-.88-.89,2.39,2.39,0,0,0-1.22-.32,2.48,2.48,0,0,0-1.27.33,2.64,2.64,0,0,0-.9.92,2.53,2.53,0,0,0-.33,1.29,2.37,2.37,0,0,0,.33,1.24,2.6,2.6,0,0,0,2.22,1.24Z"/><path class="cls-3" d="M230.88,31.88a2.42,2.42,0,0,1-1.38-.32.9.9,0,0,1-.42-.8l.25-.43a2.59,2.59,0,0,1-.58.61,3.87,3.87,0,0,1-1.11.65,4.33,4.33,0,0,1-1.66.29,5,5,0,0,1-2.19-.5A6.17,6.17,0,0,1,222,30a7.21,7.21,0,0,1-1.27-2,6.16,6.16,0,0,1,0-4.72,6.72,6.72,0,0,1,1.29-2,6.37,6.37,0,0,1,1.84-1.36,4.94,4.94,0,0,1,2.18-.5,4.3,4.3,0,0,1,1.57.26,4.51,4.51,0,0,1,1.09.62,3.18,3.18,0,0,1,.66.67l-.23-.35a1.05,1.05,0,0,1,.44-.91,2.42,2.42,0,0,1,1.39-.31,2.34,2.34,0,0,1,1.29.27,1.15,1.15,0,0,1,.47.73,4.79,4.79,0,0,1,.09.95V30a5.64,5.64,0,0,1-.08.93,1.07,1.07,0,0,1-.48.71A2.41,2.41,0,0,1,230.88,31.88Zm-4.37-3.73a2.2,2.2,0,0,0,1.19-.33,2.68,2.68,0,0,0,.86-.91,2.74,2.74,0,0,0,0-2.57,2.4,2.4,0,0,0-.88-.88,2.3,2.3,0,0,0-1.22-.33,2.39,2.39,0,0,0-1.27.34A2.5,2.5,0,0,0,224,25.68a2.42,2.42,0,0,0,.33,1.24,2.67,2.67,0,0,0,.93.9A2.58,2.58,0,0,0,226.51,28.15Z"/><path class="cls-3" d="M237.13,31.89a2.41,2.41,0,0,1-1.32-.27,1.1,1.1,0,0,1-.47-.7,4.46,4.46,0,0,1-.09-.91v-8.8a4.19,4.19,0,0,1,.09-.89,1,1,0,0,1,.49-.66,3.52,3.52,0,0,1,2.5,0,1,1,0,0,1,.48.52,1.47,1.47,0,0,1,.11.56,1,1,0,0,0,0,.36l-.15.48a1.61,1.61,0,0,1,.39-.77,4,4,0,0,1,.85-.7,4.7,4.7,0,0,1,1.1-.48,4,4,0,0,1,1.17-.18,5,5,0,0,1,2.13.44,4.37,4.37,0,0,1,1.59,1.27,6,6,0,0,1,1,1.93,8.62,8.62,0,0,1,.33,2.44V30a4.46,4.46,0,0,1-.09.91,1,1,0,0,1-.48.69,2.53,2.53,0,0,1-1.33.25,2.59,2.59,0,0,1-1.33-.26,1.06,1.06,0,0,1-.48-.7,4.56,4.56,0,0,1-.09-.92V25.49a2.92,2.92,0,0,0-.26-1.28,1.93,1.93,0,0,0-.75-.8,2.46,2.46,0,0,0-1.21-.27,2.57,2.57,0,0,0-1.25.28,2.15,2.15,0,0,0-.82.82,2.57,2.57,0,0,0-.28,1.25V30a5.4,5.4,0,0,1-.08.91,1.06,1.06,0,0,1-.48.69A2.62,2.62,0,0,1,237.13,31.89Z"/><path class="cls-3" d="M255,31.6a5,5,0,0,1-2.16-.49,6,6,0,0,1-1.79-1.34,6.76,6.76,0,0,1-1.22-1.95,6.12,6.12,0,0,1-.45-2.33,6,6,0,0,1,.45-2.31,6.3,6.3,0,0,1,3-3.25,4.89,4.89,0,0,1,2.11-.48,3.71,3.71,0,0,1,1.9.44,3.2,3.2,0,0,1,1.25,1.25,6.13,6.13,0,0,1,.71,1.92,11.82,11.82,0,0,1,.24,2.49,11.33,11.33,0,0,1-.41,3.21,4.22,4.22,0,0,1-1.31,2.1A3.57,3.57,0,0,1,255,31.6Zm.45,5.47a6.9,6.9,0,0,1-1.76-.22,7.5,7.5,0,0,1-1.59-.61,4.45,4.45,0,0,1-1.15-.8,1.17,1.17,0,0,1-.42-.85,1.77,1.77,0,0,1,.15-.73,2.46,2.46,0,0,1,.45-.67,4.94,4.94,0,0,1,.6-.57.92.92,0,0,1,.6-.2,1,1,0,0,1,.62.19l.59.41a3.41,3.41,0,0,0,.79.41,3.14,3.14,0,0,0,1.2.19,2.24,2.24,0,0,0,.93-.19,1.86,1.86,0,0,0,.75-.54,2.89,2.89,0,0,0,.5-.85A2.94,2.94,0,0,0,257.9,31V20.6a1.21,1.21,0,0,1,.51-.94,2.49,2.49,0,0,1,1.34-.29,2.21,2.21,0,0,1,1.25.27,1.07,1.07,0,0,1,.46.68,4.46,4.46,0,0,1,.09.91V31.1a5.88,5.88,0,0,1-.52,2.54,5.6,5.6,0,0,1-1.41,1.87,6,6,0,0,1-1.95,1.16A6.19,6.19,0,0,1,255.45,37.07Zm0-9.1a2.21,2.21,0,0,0,1.2-.33,2.65,2.65,0,0,0,.84-.89,2.68,2.68,0,0,0,0-2.5,2.39,2.39,0,0,0-.85-.88,2.35,2.35,0,0,0-1.21-.32,2.21,2.21,0,0,0-1.2.33,2.56,2.56,0,0,0-.84.89,2.47,2.47,0,0,0-.31,1.25,2.35,2.35,0,0,0,.32,1.23,2.59,2.59,0,0,0,.86.88A2.17,2.17,0,0,0,255.43,28Z"/><path class="cls-3" d="M269.5,31.9a5.2,5.2,0,0,1-2.17-.45,5.33,5.33,0,0,1-1.75-1.26,5.59,5.59,0,0,1-1.16-1.93,6.6,6.6,0,0,1-.41-2.43V21.3a5.25,5.25,0,0,1,.08-.92,1.11,1.11,0,0,1,.49-.7,3.25,3.25,0,0,1,2.64,0,1.12,1.12,0,0,1,.48.71,5.58,5.58,0,0,1,.08.94v4.5a2.92,2.92,0,0,0,.26,1.26,1.75,1.75,0,0,0,.78.81,2.78,2.78,0,0,0,2.45,0,2.08,2.08,0,0,0,.8-.81,2.59,2.59,0,0,0,.28-1.25V21.28a4.42,4.42,0,0,1,.09-.92,1,1,0,0,1,.48-.69,2.49,2.49,0,0,1,1.33-.26,2.37,2.37,0,0,1,1.31.27,1.17,1.17,0,0,1,.48.72,5.31,5.31,0,0,1,.08.91v8.8A4.19,4.19,0,0,1,276,31a1,1,0,0,1-.49.66,2.63,2.63,0,0,1-1.3.25,2.92,2.92,0,0,1-1.05-.15,1.31,1.31,0,0,1-.55-.38.94.94,0,0,1-.21-.47,2.57,2.57,0,0,1,0-.45l.33-.28a2.1,2.1,0,0,1-.33.39,5.12,5.12,0,0,1-.66.57,4.43,4.43,0,0,1-1,.54A3.22,3.22,0,0,1,269.5,31.9Z"/><path class="cls-3" d="M283.43,31.94a16.26,16.26,0,0,1-1.83-.1,3.9,3.9,0,0,1-1.35-.4,2.58,2.58,0,0,1-.9-.84,4,4,0,0,1-.52-1.38,10,10,0,0,1-.18-2.06V15.61a3.82,3.82,0,0,1,.1-.92,1.15,1.15,0,0,1,.49-.7,2.27,2.27,0,0,1,1.31-.28,2.24,2.24,0,0,1,1.29.28,1.15,1.15,0,0,1,.49.7,4.4,4.4,0,0,1,.1.92V27a4.08,4.08,0,0,0,0,.66.8.8,0,0,0,.15.41.49.49,0,0,0,.31.2,1.9,1.9,0,0,0,.52,0,2.7,2.7,0,0,1,.62.08.9.9,0,0,1,.53.45,2.56,2.56,0,0,1,.23,1.25,2.79,2.79,0,0,1-.23,1.3.86.86,0,0,1-.54.47A2.72,2.72,0,0,1,283.43,31.94Z"/><path class="cls-3" d="M296.85,31.92a2.39,2.39,0,0,1-1.37-.32.91.91,0,0,1-.43-.8l.25-.43a2.72,2.72,0,0,1-.57.61,4.08,4.08,0,0,1-1.12.65,4.29,4.29,0,0,1-1.66.29,5,5,0,0,1-2.19-.5A6,6,0,0,1,287.93,30a7,7,0,0,1-1.28-2,6.2,6.2,0,0,1-.47-2.38,5.83,5.83,0,0,1,.48-2.34,6.5,6.5,0,0,1,1.28-2A6.32,6.32,0,0,1,289.78,20a5,5,0,0,1,2.18-.5,4.26,4.26,0,0,1,1.57.26,4.16,4.16,0,0,1,1.09.62,3.18,3.18,0,0,1,.66.67l-.22-.35a1,1,0,0,1,.44-.91,2.39,2.39,0,0,1,1.38-.31,2.34,2.34,0,0,1,1.29.27,1.16,1.16,0,0,1,.48.73,5.7,5.7,0,0,1,.08.95V30a4.73,4.73,0,0,1-.09.93,1.09,1.09,0,0,1-.48.71A2.45,2.45,0,0,1,296.85,31.92Zm-4.37-3.73a2.21,2.21,0,0,0,1.2-.33,2.66,2.66,0,0,0,.85-.91,2.55,2.55,0,0,0-.87-3.46,2.45,2.45,0,0,0-1.23-.32,2.33,2.33,0,0,0-1.26.34,2.38,2.38,0,0,0-.9.91,2.45,2.45,0,0,0-.34,1.3,2.34,2.34,0,0,0,.34,1.24,2.53,2.53,0,0,0,2.21,1.23Z"/><path class="cls-3" d="M303.1,32a2.48,2.48,0,0,1-1.31-.26,1.11,1.11,0,0,1-.48-.72,5.52,5.52,0,0,1-.08-.92V21.32a4.42,4.42,0,0,1,.09-.92,1.08,1.08,0,0,1,.49-.69,2.54,2.54,0,0,1,1.32-.26,2.52,2.52,0,0,1,1.27.24,1,1,0,0,1,.48.55,1.73,1.73,0,0,1,.1.54l-.3.15a3.45,3.45,0,0,1,.26-.37,4.66,4.66,0,0,1,.59-.55,3.46,3.46,0,0,1,.92-.48,3.56,3.56,0,0,1,1.23-.2,4.7,4.7,0,0,1,.62,0,3.26,3.26,0,0,1,.7.15,2.47,2.47,0,0,1,.66.3,1.66,1.66,0,0,1,.49.46,1.2,1.2,0,0,1,.18.67,3.09,3.09,0,0,1-.47,1.74,1.4,1.4,0,0,1-1.2.71,2,2,0,0,1-.6-.06.87.87,0,0,1-.29-.15,1.1,1.1,0,0,0-.26-.15A1.72,1.72,0,0,0,307,23a2.46,2.46,0,0,0-.72.1,1.9,1.9,0,0,0-.62.31,1.6,1.6,0,0,0-.45.52,1.53,1.53,0,0,0-.16.72V30.1a4.46,4.46,0,0,1-.09.91,1,1,0,0,1-.48.69A2.6,2.6,0,0,1,303.1,32Z"/><path class="cls-2" d="M113.28,31.84a2.4,2.4,0,0,1-1.3-.27,1.05,1.05,0,0,1-.49-.71,4.7,4.7,0,0,1-.08-.92V16.26a2.07,2.07,0,0,1,.43-1.49,2.2,2.2,0,0,1,1.52-.41h9.45a4.45,4.45,0,0,1,.93.09,1.09,1.09,0,0,1,.7.48,2.53,2.53,0,0,1,.27,1.35,2.38,2.38,0,0,1-.27,1.3,1.12,1.12,0,0,1-.71.49,4.76,4.76,0,0,1-.94.09h-7.58v3.23h5.15a4.74,4.74,0,0,1,.89.08.91.91,0,0,1,.61.42,2.3,2.3,0,0,1,.23,1.18,2.13,2.13,0,0,1-.23,1.12.9.9,0,0,1-.64.43,5.1,5.1,0,0,1-.91.07h-5.1V28h7.6a4.4,4.4,0,0,1,.92.1,1.18,1.18,0,0,1,.7.49,2.43,2.43,0,0,1,.28,1.34,2.39,2.39,0,0,1-.28,1.3,1.1,1.1,0,0,1-.71.49,5.58,5.58,0,0,1-.94.08Z"/><path class="cls-2" d="M131.4,32.05a8,8,0,0,1-1.47-.15,8.79,8.79,0,0,1-1.54-.44,5.08,5.08,0,0,1-1.25-.68,1.26,1.26,0,0,1-.56-.88,1.41,1.41,0,0,1,0-.54,2.37,2.37,0,0,1,.23-.6,3.78,3.78,0,0,1,.44-.66,1,1,0,0,1,.43-.36,1.1,1.1,0,0,1,.59,0,3.55,3.55,0,0,1,.8.26l.83.4a6.74,6.74,0,0,0,.87.38,2.68,2.68,0,0,0,.93.16,2.3,2.3,0,0,0,1.08-.21.65.65,0,0,0,.39-.59.64.64,0,0,0-.16-.45,1.6,1.6,0,0,0-.45-.3,5.37,5.37,0,0,0-.68-.23c-.25-.08-.52-.15-.81-.22s-.58-.15-.9-.25a7.72,7.72,0,0,1-1.18-.45,3.67,3.67,0,0,1-1-.71,3.1,3.1,0,0,1-.74-1.08,3.79,3.79,0,0,1-.28-1.56,3.3,3.3,0,0,1,2.23-3.31,7.34,7.34,0,0,1,2.7-.44c.3,0,.6,0,.9,0a5.4,5.4,0,0,1,.89.18,6.74,6.74,0,0,1,.86.3,8.36,8.36,0,0,1,.85.42,1.14,1.14,0,0,1,.78.95,2.08,2.08,0,0,1-.43,1.25,1.82,1.82,0,0,1-.58.59.87.87,0,0,1-.62.14,4.13,4.13,0,0,1-.86-.34c-.31-.16-.64-.3-1-.44a2.84,2.84,0,0,0-1-.2,2.29,2.29,0,0,0-.73.11,1.27,1.27,0,0,0-.45.3.7.7,0,0,0-.14.44.69.69,0,0,0,.18.51,1.59,1.59,0,0,0,.51.32,5.64,5.64,0,0,0,.75.22c.29.07.59.14.93.2s.91.2,1.39.34a4.72,4.72,0,0,1,1.3.62,2.88,2.88,0,0,1,.94,1.07,3.65,3.65,0,0,1,.37,1.78,3.57,3.57,0,0,1-1.38,3A6.38,6.38,0,0,1,131.4,32.05Z"/><path class="cls-2" d="M145,32a6.47,6.47,0,0,1-2.24-.42,6.92,6.92,0,0,1-2.1-1.21,5.87,5.87,0,0,1-1.53-2,6.21,6.21,0,0,1-.58-2.75,6.06,6.06,0,0,1,.58-2.73,6,6,0,0,1,1.52-2,6.87,6.87,0,0,1,2.09-1.21,6.16,6.16,0,0,1,2.22-.41,6.08,6.08,0,0,1,1.66.21,5.41,5.41,0,0,1,1.25.51,3.87,3.87,0,0,1,.74.53,8.35,8.35,0,0,1,.75.65,1.08,1.08,0,0,1,.29.85,1.38,1.38,0,0,1-.17.56,4.48,4.48,0,0,1-.38.59c-.51.7-1,1-1.5.95a2.39,2.39,0,0,1-.68-.25l-.6-.35a6,6,0,0,0-.62-.32,1.9,1.9,0,0,0-.75-.13,2.59,2.59,0,0,0-1.3.33,2.7,2.7,0,0,0-.91.9,2.55,2.55,0,0,0-.34,1.31,2.45,2.45,0,0,0,.34,1.3,2.48,2.48,0,0,0,.9.92,2.71,2.71,0,0,0,2,.24,2.83,2.83,0,0,0,.55-.24l.35-.21c.2-.14.39-.26.57-.37a1.19,1.19,0,0,1,.55-.16,1.23,1.23,0,0,1,.74.27,4.28,4.28,0,0,1,.81.83,2.1,2.1,0,0,1,.49,1,1.22,1.22,0,0,1-.21.86,2.6,2.6,0,0,1-.86.76,3.69,3.69,0,0,1-.71.45,6.49,6.49,0,0,1-1.25.5A5.64,5.64,0,0,1,145,32Z"/><path class="cls-2" d="M162.18,31.84a2.42,2.42,0,0,1-1.38-.32.9.9,0,0,1-.42-.8l.25-.43a2.59,2.59,0,0,1-.58.61,4.11,4.11,0,0,1-1.11.65,4.33,4.33,0,0,1-1.66.29,5,5,0,0,1-2.19-.5A6,6,0,0,1,153.26,30a7.07,7.07,0,0,1-1.28-2,6.15,6.15,0,0,1-.47-2.37,6,6,0,0,1,.47-2.34,6.72,6.72,0,0,1,1.29-2,6.19,6.19,0,0,1,1.84-1.36,4.81,4.81,0,0,1,2.18-.5,4.3,4.3,0,0,1,1.57.26,4.65,4.65,0,0,1,1.09.61,3.45,3.45,0,0,1,.66.68l-.22-.35a1,1,0,0,1,.43-.91,2.42,2.42,0,0,1,1.39-.31,2.34,2.34,0,0,1,1.29.27,1.09,1.09,0,0,1,.47.73,4.79,4.79,0,0,1,.09.95v8.62a5.64,5.64,0,0,1-.08.93,1.09,1.09,0,0,1-.48.71A2.48,2.48,0,0,1,162.18,31.84Zm-4.37-3.73a2.21,2.21,0,0,0,1.2-.33,2.67,2.67,0,0,0,.85-3.48,2.5,2.5,0,0,0-.88-.89,2.39,2.39,0,0,0-1.22-.32,2.42,2.42,0,0,0-1.26.33,2.48,2.48,0,0,0-.9.92,2.45,2.45,0,0,0-.34,1.3,2.36,2.36,0,0,0,.33,1.23,2.6,2.6,0,0,0,2.22,1.24Z"/><path class="cls-2" d="M171.35,31.87a14.14,14.14,0,0,1-1.82-.1,3.9,3.9,0,0,1-1.35-.4,2.42,2.42,0,0,1-.9-.84,3.92,3.92,0,0,1-.52-1.37,10.07,10.07,0,0,1-.18-2.07V15.54a3.82,3.82,0,0,1,.1-.92,1.18,1.18,0,0,1,.49-.7,2.26,2.26,0,0,1,1.31-.27,2.34,2.34,0,0,1,1.29.27,1.17,1.17,0,0,1,.48.7,3.84,3.84,0,0,1,.1.93V26.92a5.86,5.86,0,0,0,0,.66,1,1,0,0,0,.15.42.59.59,0,0,0,.32.2,2.34,2.34,0,0,0,.52.05,2.6,2.6,0,0,1,.61.07.89.89,0,0,1,.54.45,2.56,2.56,0,0,1,.23,1.25,2.9,2.9,0,0,1-.23,1.3.88.88,0,0,1-.54.48A2.73,2.73,0,0,1,171.35,31.87Z"/><path class="cls-2" d="M180.78,32.1a7.25,7.25,0,0,1-3-.57A6,6,0,0,1,175.7,30a6.3,6.3,0,0,1-1.19-2.09,6.83,6.83,0,0,1-.4-2.3A6.38,6.38,0,0,1,175,22.3,6.11,6.11,0,0,1,177.32,20a7,7,0,0,1,3.47-.83,6.25,6.25,0,0,1,2.51.46,5.23,5.23,0,0,1,1.75,1.2,4.89,4.89,0,0,1,1,1.59,4.33,4.33,0,0,1,.34,1.63,2.81,2.81,0,0,1-.67,2.05,2.25,2.25,0,0,1-1.68.67h-5.95a1.71,1.71,0,0,0,.46,1.07,2.81,2.81,0,0,0,1,.7,3.5,3.5,0,0,0,1.33.25,8.22,8.22,0,0,0,1-.06,4.49,4.49,0,0,0,.79-.17c.21-.08.41-.15.58-.23l.49-.19a2.41,2.41,0,0,1,.43-.1,1,1,0,0,1,.67.22,2,2,0,0,1,.58.71,1.93,1.93,0,0,1,.23.52,2.2,2.2,0,0,1,.06.5,1.34,1.34,0,0,1-.61,1.09,4.68,4.68,0,0,1-1.72.74A11.62,11.62,0,0,1,180.78,32.1Zm-2.67-7.4h3.95a1,1,0,0,0,.57-.13c.14-.09.2-.27.2-.54a1.25,1.25,0,0,0-.27-.78,1.7,1.7,0,0,0-.74-.53,2.8,2.8,0,0,0-1.09-.19,3,3,0,0,0-1.35.3,2.28,2.28,0,0,0-.93.8A1.84,1.84,0,0,0,178.11,24.7Z"/><path class="cls-2" d="M190.38,31.88a2.36,2.36,0,0,1-1.31-.26,1.09,1.09,0,0,1-.48-.71,4.73,4.73,0,0,1-.09-.93V21.26a4.52,4.52,0,0,1,.09-.93,1,1,0,0,1,.49-.68,2.41,2.41,0,0,1,1.32-.27,2.5,2.5,0,0,1,1.26.24,1.06,1.06,0,0,1,.49.55,1.73,1.73,0,0,1,.1.54l-.3.15a2,2,0,0,1,.26-.36,3.2,3.2,0,0,1,.59-.55,3.4,3.4,0,0,1,.91-.49,3.62,3.62,0,0,1,1.24-.2,4.55,4.55,0,0,1,.61,0,3,3,0,0,1,.7.15,2.54,2.54,0,0,1,.67.3,1.51,1.51,0,0,1,.48.46,1.16,1.16,0,0,1,.19.68,3,3,0,0,1-.48,1.73,1.39,1.39,0,0,1-1.2.72,2,2,0,0,1-.6-.07.92.92,0,0,1-.28-.15,1.73,1.73,0,0,0-.27-.15,1.68,1.68,0,0,0-.55-.06,2.39,2.39,0,0,0-.71.1,2.12,2.12,0,0,0-.62.31,1.35,1.35,0,0,0-.45.53,1.49,1.49,0,0,0-.17.71V30a4.63,4.63,0,0,1-.09.92,1,1,0,0,1-.49.68A2.53,2.53,0,0,1,190.38,31.88Z"/><path class="cls-2" d="M209.78,31.87a2.34,2.34,0,0,1-1.38-.33.88.88,0,0,1-.42-.8l.25-.42a2.8,2.8,0,0,1-.58.61,4.11,4.11,0,0,1-1.11.65,4.33,4.33,0,0,1-1.66.29,5,5,0,0,1-2.19-.5A6.17,6.17,0,0,1,200.85,30a7.27,7.27,0,0,1-1.27-2,6.13,6.13,0,0,1,0-4.71,6.72,6.72,0,0,1,1.29-2,6.4,6.4,0,0,1,1.84-1.37,4.93,4.93,0,0,1,2.18-.49,4.1,4.1,0,0,1,1.57.26,4.65,4.65,0,0,1,1.09.61,3.45,3.45,0,0,1,.66.68l-.23-.35a1,1,0,0,1,.44-.91,3.24,3.24,0,0,1,2.68,0,1.12,1.12,0,0,1,.47.73,4.79,4.79,0,0,1,.09,1V30a5.64,5.64,0,0,1-.08.93,1.09,1.09,0,0,1-.48.71A2.5,2.5,0,0,1,209.78,31.87Zm-4.37-3.73a2.17,2.17,0,0,0,1.19-.33,2.54,2.54,0,0,0,.86-.92,2.72,2.72,0,0,0,0-2.56,2.5,2.5,0,0,0-.88-.89,2.39,2.39,0,0,0-1.22-.32,2.48,2.48,0,0,0-1.27.33,2.64,2.64,0,0,0-.9.92,2.53,2.53,0,0,0-.33,1.29,2.37,2.37,0,0,0,.33,1.24,2.6,2.6,0,0,0,2.22,1.24Z"/><path class="cls-2" d="M230.88,31.88a2.42,2.42,0,0,1-1.38-.32.9.9,0,0,1-.42-.8l.25-.43a2.59,2.59,0,0,1-.58.61,3.87,3.87,0,0,1-1.11.65,4.33,4.33,0,0,1-1.66.29,5,5,0,0,1-2.19-.5A6.17,6.17,0,0,1,222,30a7.21,7.21,0,0,1-1.27-2,6.16,6.16,0,0,1,0-4.72,6.72,6.72,0,0,1,1.29-2,6.37,6.37,0,0,1,1.84-1.36,4.94,4.94,0,0,1,2.18-.5,4.3,4.3,0,0,1,1.57.26,4.51,4.51,0,0,1,1.09.62,3.18,3.18,0,0,1,.66.67l-.23-.35a1.05,1.05,0,0,1,.44-.91,2.42,2.42,0,0,1,1.39-.31,2.34,2.34,0,0,1,1.29.27,1.15,1.15,0,0,1,.47.73,4.79,4.79,0,0,1,.09.95V30a5.64,5.64,0,0,1-.08.93,1.07,1.07,0,0,1-.48.71A2.41,2.41,0,0,1,230.88,31.88Zm-4.37-3.73a2.2,2.2,0,0,0,1.19-.33,2.68,2.68,0,0,0,.86-.91,2.74,2.74,0,0,0,0-2.57,2.4,2.4,0,0,0-.88-.88,2.3,2.3,0,0,0-1.22-.33,2.39,2.39,0,0,0-1.27.34A2.5,2.5,0,0,0,224,25.68a2.42,2.42,0,0,0,.33,1.24,2.67,2.67,0,0,0,.93.9A2.58,2.58,0,0,0,226.51,28.15Z"/><path class="cls-2" d="M237.13,31.89a2.41,2.41,0,0,1-1.32-.27,1.1,1.1,0,0,1-.47-.7,4.46,4.46,0,0,1-.09-.91v-8.8a4.19,4.19,0,0,1,.09-.89,1,1,0,0,1,.49-.66,3.52,3.52,0,0,1,2.5,0,1,1,0,0,1,.48.52,1.47,1.47,0,0,1,.11.56,1,1,0,0,0,0,.36l-.15.48a1.61,1.61,0,0,1,.39-.77,4,4,0,0,1,.85-.7,4.7,4.7,0,0,1,1.1-.48,4,4,0,0,1,1.17-.18,5,5,0,0,1,2.13.44,4.37,4.37,0,0,1,1.59,1.27,6,6,0,0,1,1,1.93,8.62,8.62,0,0,1,.33,2.44V30a4.46,4.46,0,0,1-.09.91,1,1,0,0,1-.48.69,2.53,2.53,0,0,1-1.33.25,2.59,2.59,0,0,1-1.33-.26,1.06,1.06,0,0,1-.48-.7,4.56,4.56,0,0,1-.09-.92V25.49a2.92,2.92,0,0,0-.26-1.28,1.93,1.93,0,0,0-.75-.8,2.46,2.46,0,0,0-1.21-.27,2.57,2.57,0,0,0-1.25.28,2.15,2.15,0,0,0-.82.82,2.57,2.57,0,0,0-.28,1.25V30a5.4,5.4,0,0,1-.08.91,1.06,1.06,0,0,1-.48.69A2.62,2.62,0,0,1,237.13,31.89Z"/><path class="cls-2" d="M255,31.6a5,5,0,0,1-2.16-.49,6,6,0,0,1-1.79-1.34,6.76,6.76,0,0,1-1.22-1.95,6.12,6.12,0,0,1-.45-2.33,6,6,0,0,1,.45-2.31,6.3,6.3,0,0,1,3-3.25,4.89,4.89,0,0,1,2.11-.48,3.71,3.71,0,0,1,1.9.44,3.2,3.2,0,0,1,1.25,1.25,6.13,6.13,0,0,1,.71,1.92,11.82,11.82,0,0,1,.24,2.49,11.33,11.33,0,0,1-.41,3.21,4.22,4.22,0,0,1-1.31,2.1A3.57,3.57,0,0,1,255,31.6Zm.45,5.47a6.9,6.9,0,0,1-1.76-.22,7.5,7.5,0,0,1-1.59-.61,4.45,4.45,0,0,1-1.15-.8,1.17,1.17,0,0,1-.42-.85,1.77,1.77,0,0,1,.15-.73,2.46,2.46,0,0,1,.45-.67,4.94,4.94,0,0,1,.6-.57.92.92,0,0,1,.6-.2,1,1,0,0,1,.62.19l.59.41a3.41,3.41,0,0,0,.79.41,3.14,3.14,0,0,0,1.2.19,2.24,2.24,0,0,0,.93-.19,1.86,1.86,0,0,0,.75-.54,2.89,2.89,0,0,0,.5-.85A2.94,2.94,0,0,0,257.9,31V20.6a1.21,1.21,0,0,1,.51-.94,2.49,2.49,0,0,1,1.34-.29,2.21,2.21,0,0,1,1.25.27,1.07,1.07,0,0,1,.46.68,4.46,4.46,0,0,1,.09.91V31.1a5.88,5.88,0,0,1-.52,2.54,5.6,5.6,0,0,1-1.41,1.87,6,6,0,0,1-1.95,1.16A6.19,6.19,0,0,1,255.45,37.07Zm0-9.1a2.21,2.21,0,0,0,1.2-.33,2.65,2.65,0,0,0,.84-.89,2.68,2.68,0,0,0,0-2.5,2.39,2.39,0,0,0-.85-.88,2.35,2.35,0,0,0-1.21-.32,2.21,2.21,0,0,0-1.2.33,2.56,2.56,0,0,0-.84.89,2.47,2.47,0,0,0-.31,1.25,2.35,2.35,0,0,0,.32,1.23,2.59,2.59,0,0,0,.86.88A2.17,2.17,0,0,0,255.43,28Z"/><path class="cls-2" d="M269.5,31.9a5.2,5.2,0,0,1-2.17-.45,5.33,5.33,0,0,1-1.75-1.26,5.59,5.59,0,0,1-1.16-1.93,6.6,6.6,0,0,1-.41-2.43V21.3a5.25,5.25,0,0,1,.08-.92,1.11,1.11,0,0,1,.49-.7,3.25,3.25,0,0,1,2.64,0,1.12,1.12,0,0,1,.48.71,5.58,5.58,0,0,1,.08.94v4.5a2.92,2.92,0,0,0,.26,1.26,1.75,1.75,0,0,0,.78.81,2.78,2.78,0,0,0,2.45,0,2.08,2.08,0,0,0,.8-.81,2.59,2.59,0,0,0,.28-1.25V21.28a4.42,4.42,0,0,1,.09-.92,1,1,0,0,1,.48-.69,2.49,2.49,0,0,1,1.33-.26,2.37,2.37,0,0,1,1.31.27,1.17,1.17,0,0,1,.48.72,5.31,5.31,0,0,1,.08.91v8.8A4.19,4.19,0,0,1,276,31a1,1,0,0,1-.49.66,2.63,2.63,0,0,1-1.3.25,2.92,2.92,0,0,1-1.05-.15,1.31,1.31,0,0,1-.55-.38.94.94,0,0,1-.21-.47,2.57,2.57,0,0,1,0-.45l.33-.28a2.1,2.1,0,0,1-.33.39,5.12,5.12,0,0,1-.66.57,4.43,4.43,0,0,1-1,.54A3.22,3.22,0,0,1,269.5,31.9Z"/><path class="cls-2" d="M283.43,31.94a16.26,16.26,0,0,1-1.83-.1,3.9,3.9,0,0,1-1.35-.4,2.58,2.58,0,0,1-.9-.84,4,4,0,0,1-.52-1.38,10,10,0,0,1-.18-2.06V15.61a3.82,3.82,0,0,1,.1-.92,1.15,1.15,0,0,1,.49-.7,2.27,2.27,0,0,1,1.31-.28,2.24,2.24,0,0,1,1.29.28,1.15,1.15,0,0,1,.49.7,4.4,4.4,0,0,1,.1.92V27a4.08,4.08,0,0,0,0,.66.8.8,0,0,0,.15.41.49.49,0,0,0,.31.2,1.9,1.9,0,0,0,.52,0,2.7,2.7,0,0,1,.62.08.9.9,0,0,1,.53.45,2.56,2.56,0,0,1,.23,1.25,2.79,2.79,0,0,1-.23,1.3.86.86,0,0,1-.54.47A2.72,2.72,0,0,1,283.43,31.94Z"/><path class="cls-2" d="M296.85,31.92a2.39,2.39,0,0,1-1.37-.32.91.91,0,0,1-.43-.8l.25-.43a2.72,2.72,0,0,1-.57.61,4.08,4.08,0,0,1-1.12.65,4.29,4.29,0,0,1-1.66.29,5,5,0,0,1-2.19-.5A6,6,0,0,1,287.93,30a7,7,0,0,1-1.28-2,6.2,6.2,0,0,1-.47-2.38,5.83,5.83,0,0,1,.48-2.34,6.5,6.5,0,0,1,1.28-2A6.32,6.32,0,0,1,289.78,20a5,5,0,0,1,2.18-.5,4.26,4.26,0,0,1,1.57.26,4.16,4.16,0,0,1,1.09.62,3.18,3.18,0,0,1,.66.67l-.22-.35a1,1,0,0,1,.44-.91,2.39,2.39,0,0,1,1.38-.31,2.34,2.34,0,0,1,1.29.27,1.16,1.16,0,0,1,.48.73,5.7,5.7,0,0,1,.08.95V30a4.73,4.73,0,0,1-.09.93,1.09,1.09,0,0,1-.48.71A2.45,2.45,0,0,1,296.85,31.92Zm-4.37-3.73a2.21,2.21,0,0,0,1.2-.33,2.66,2.66,0,0,0,.85-.91,2.55,2.55,0,0,0-.87-3.46,2.45,2.45,0,0,0-1.23-.32,2.33,2.33,0,0,0-1.26.34,2.38,2.38,0,0,0-.9.91,2.45,2.45,0,0,0-.34,1.3,2.34,2.34,0,0,0,.34,1.24,2.53,2.53,0,0,0,2.21,1.23Z"/><path class="cls-2" d="M303.1,32a2.48,2.48,0,0,1-1.31-.26,1.11,1.11,0,0,1-.48-.72,5.52,5.52,0,0,1-.08-.92V21.32a4.42,4.42,0,0,1,.09-.92,1.08,1.08,0,0,1,.49-.69,2.54,2.54,0,0,1,1.32-.26,2.52,2.52,0,0,1,1.27.24,1,1,0,0,1,.48.55,1.73,1.73,0,0,1,.1.54l-.3.15a3.45,3.45,0,0,1,.26-.37,4.66,4.66,0,0,1,.59-.55,3.46,3.46,0,0,1,.92-.48,3.56,3.56,0,0,1,1.23-.2,4.7,4.7,0,0,1,.62,0,3.26,3.26,0,0,1,.7.15,2.47,2.47,0,0,1,.66.3,1.66,1.66,0,0,1,.49.46,1.2,1.2,0,0,1,.18.67,3.09,3.09,0,0,1-.47,1.74,1.4,1.4,0,0,1-1.2.71,2,2,0,0,1-.6-.06.87.87,0,0,1-.29-.15,1.1,1.1,0,0,0-.26-.15A1.72,1.72,0,0,0,307,23a2.46,2.46,0,0,0-.72.1,1.9,1.9,0,0,0-.62.31,1.6,1.6,0,0,0-.45.52,1.53,1.53,0,0,0-.16.72V30.1a4.46,4.46,0,0,1-.09.91,1,1,0,0,1-.48.69A2.6,2.6,0,0,1,303.1,32Z"/><path class="cls-4" d="M54.61,31.08h4.52q3.42,0,3.42,4a4,4,0,0,1-1.08,3.17c-.72.63-2,.94-3.85.94h-11a6.93,6.93,0,0,1-3.9-.77c-.69-.52-1-1.63-1-3.34a5.58,5.58,0,0,1,.16-1.45,3.45,3.45,0,0,1,.62-1.2,5.18,5.18,0,0,1,1.22-1.13c1.47-1,2.62-1.82,3.46-2.44s1.67-1.26,2.47-1.95a13.25,13.25,0,0,0,1.77-1.76,10.41,10.41,0,0,0,1-1.66A6.21,6.21,0,0,0,53,21.59a15.39,15.39,0,0,0,.14-2.19c0-1.56-.47-2.35-1.42-2.35s-1.55.93-1.55,2.77a2,2,0,0,1-1,2,7,7,0,0,1-2.9.46c-1.73,0-2.91-.39-3.52-1.17a6.48,6.48,0,0,1-.91-3.91,5.48,5.48,0,0,1,2.51-4.56,11.67,11.67,0,0,1,7-1.82q11.07,0,11.07,8.69A14.11,14.11,0,0,1,62,23.21,11.66,11.66,0,0,1,60.89,26a9.08,9.08,0,0,1-1.78,2.12A17.42,17.42,0,0,1,57,29.74,26.68,26.68,0,0,1,54.61,31.08Z"/><path class="cls-4" d="M65.24,36a2.78,2.78,0,0,1,1.16-2.31,5.38,5.38,0,0,1,3.28-.88c3,0,4.44,1.07,4.44,3.19a3.11,3.11,0,0,1-.57,2,2.73,2.73,0,0,1-1.51,1,9.17,9.17,0,0,1-2.36.26,6.13,6.13,0,0,1-3.18-.76A2.63,2.63,0,0,1,65.24,36Z"/><path class="cls-4" d="M88.51,20c0-1.37-1.23-2.06-3.7-2.06a19.62,19.62,0,0,0-2.1.15,19.23,19.23,0,0,1-1.94.15q-2.92,0-2.93-3.62t8.48-3.73q5.5,0,8.23,1.84a5.58,5.58,0,0,1,2.72,4.83,7.75,7.75,0,0,1-3.5,6.64,9.38,9.38,0,0,1,3.31,2.71,7.17,7.17,0,0,1,1,4.05,7.32,7.32,0,0,1-2.8,5.94,11.41,11.41,0,0,1-7.48,2.29q-5.87,0-8.41-1.24a4,4,0,0,1-2.54-3.75,3.92,3.92,0,0,1,.82-2.88,3.15,3.15,0,0,1,2.28-.78c.49,0,1.25.06,2.28.17s1.82.17,2.36.17q4.44,0,4.44-1.68a1.62,1.62,0,0,0-.85-1.58,8,8,0,0,0-3.22-.44,6.5,6.5,0,0,1-3.34-.63,2.56,2.56,0,0,1-1-2.35c0-1.74,1.11-2.6,3.34-2.6a17.73,17.73,0,0,0,3.2-.21c.69-.14,1.09-.3,1.2-.49A1.82,1.82,0,0,0,88.51,20Z"/><path class="cls-5" d="M54.61,31.08h4.52q3.42,0,3.42,4a4,4,0,0,1-1.08,3.17c-.72.63-2,.94-3.85.94h-11a6.93,6.93,0,0,1-3.9-.77c-.69-.52-1-1.63-1-3.34a5.58,5.58,0,0,1,.16-1.45,3.45,3.45,0,0,1,.62-1.2,5.18,5.18,0,0,1,1.22-1.13c1.47-1,2.62-1.82,3.46-2.44s1.67-1.26,2.47-1.95a13.25,13.25,0,0,0,1.77-1.76,10.41,10.41,0,0,0,1-1.66A6.21,6.21,0,0,0,53,21.59a15.39,15.39,0,0,0,.14-2.19c0-1.56-.47-2.35-1.42-2.35s-1.55.93-1.55,2.77a2,2,0,0,1-1,2,7,7,0,0,1-2.9.46c-1.73,0-2.91-.39-3.52-1.17a6.48,6.48,0,0,1-.91-3.91,5.48,5.48,0,0,1,2.51-4.56,11.67,11.67,0,0,1,7-1.82q11.07,0,11.07,8.69A14.11,14.11,0,0,1,62,23.21,11.66,11.66,0,0,1,60.89,26a9.08,9.08,0,0,1-1.78,2.12A17.42,17.42,0,0,1,57,29.74,26.68,26.68,0,0,1,54.61,31.08Z"/><path class="cls-5" d="M65.24,36a2.78,2.78,0,0,1,1.16-2.31,5.38,5.38,0,0,1,3.28-.88c3,0,4.44,1.07,4.44,3.19a3.11,3.11,0,0,1-.57,2,2.73,2.73,0,0,1-1.51,1,9.17,9.17,0,0,1-2.36.26,6.13,6.13,0,0,1-3.18-.76A2.63,2.63,0,0,1,65.24,36Z"/><path class="cls-5" d="M88.51,20c0-1.37-1.23-2.06-3.7-2.06a19.62,19.62,0,0,0-2.1.15,19.23,19.23,0,0,1-1.94.15q-2.92,0-2.93-3.62t8.48-3.73q5.5,0,8.23,1.84a5.58,5.58,0,0,1,2.72,4.83,7.75,7.75,0,0,1-3.5,6.64,9.38,9.38,0,0,1,3.31,2.71,7.17,7.17,0,0,1,1,4.05,7.32,7.32,0,0,1-2.8,5.94,11.41,11.41,0,0,1-7.48,2.29q-5.87,0-8.41-1.24a4,4,0,0,1-2.54-3.75,3.92,3.92,0,0,1,.82-2.88,3.15,3.15,0,0,1,2.28-.78c.49,0,1.25.06,2.28.17s1.82.17,2.36.17q4.44,0,4.44-1.68a1.62,1.62,0,0,0-.85-1.58,8,8,0,0,0-3.22-.44,6.5,6.5,0,0,1-3.34-.63,2.56,2.56,0,0,1-1-2.35c0-1.74,1.11-2.6,3.34-2.6a17.73,17.73,0,0,0,3.2-.21c.69-.14,1.09-.3,1.2-.49A1.82,1.82,0,0,0,88.51,20Z"/></g></g></svg>