<svg xmlns="http://www.w3.org/2000/svg" viewBox="0 0 399.98 91.27"><defs><style>.cls-1{fill:#512573;}.cls-2{fill:#fff;}.cls-3,.cls-4{fill:none;stroke-width:4.85px;}.cls-3{stroke:#ff7300;stroke-linejoin:round;}.cls-4{stroke:#fff;}.cls-5{fill:#ff7300;}</style></defs><title>23tv</title><g id="Layer_2" data-name="Layer 2"><g id="pestaña_identificativa" data-name="pestaña identificativa"><rect class="cls-1" width="399.98" height="91.27" rx="32.4"/><path class="cls-2" d="M114.16,16.28a3.94,3.94,0,0,1,.79.07.92.92,0,0,1,.59.4,2.08,2.08,0,0,1,.22,1.08,1.91,1.91,0,0,1-.23,1.06.88.88,0,0,1-.6.4,4,4,0,0,1-.8.07h-4V31a3.89,3.89,0,0,1-.09.85,1,1,0,0,1-.47.65,2.72,2.72,0,0,1-1.34.24,2.42,2.42,0,0,1-1.27-.25,1,1,0,0,1-.49-.66,4,4,0,0,1-.09-.85V19.36h-4a3.33,3.33,0,0,1-.78-.09,1,1,0,0,1-.61-.4,1.82,1.82,0,0,1-.24-1.07,1.84,1.84,0,0,1,.24-1.06,1,1,0,0,1,.62-.4,4.79,4.79,0,0,1,.77-.07Z"/><path class="cls-2" d="M119.73,32.76a2.53,2.53,0,0,1-1.32-.25,1,1,0,0,1-.47-.67,4.14,4.14,0,0,1-.09-.87V22.75a4.77,4.77,0,0,1,.08-.87,1,1,0,0,1,.49-.64,2.6,2.6,0,0,1,1.33-.25,2.78,2.78,0,0,1,1.26.22,1,1,0,0,1,.49.52,1.89,1.89,0,0,1,.1.51l-.3.14a2.15,2.15,0,0,1,.26-.34,3.15,3.15,0,0,1,.59-.52,3.68,3.68,0,0,1,.91-.46,3.89,3.89,0,0,1,1.24-.19l.61,0a3.62,3.62,0,0,1,.7.14,2.81,2.81,0,0,1,.66.29,1.57,1.57,0,0,1,.49.43,1.1,1.1,0,0,1,.19.64,2.73,2.73,0,0,1-.48,1.63,1.42,1.42,0,0,1-1.2.67,2.11,2.11,0,0,1-.6-.06,1,1,0,0,1-.29-.14,1.26,1.26,0,0,0-.26-.14,1.68,1.68,0,0,0-.55-.06,2.71,2.71,0,0,0-.71.09,2.29,2.29,0,0,0-.63.3,1.5,1.5,0,0,0-.45.49,1.35,1.35,0,0,0-.16.67V31a4,4,0,0,1-.09.86,1,1,0,0,1-.49.64A2.71,2.71,0,0,1,119.73,32.76Z"/><path class="cls-2" d="M139.12,32.75a2.5,2.5,0,0,1-1.37-.31.82.82,0,0,1-.42-.75l.25-.4a3.11,3.11,0,0,1-.58.57,4.25,4.25,0,0,1-1.11.61,4.6,4.6,0,0,1-1.67.27,5.12,5.12,0,0,1-2.18-.47A5.79,5.79,0,0,1,130.2,31a6.54,6.54,0,0,1-1.27-1.89,5.37,5.37,0,0,1-.48-2.24,5.22,5.22,0,0,1,.48-2.2,6.33,6.33,0,0,1,1.29-1.86,6.15,6.15,0,0,1,1.84-1.28,5.2,5.2,0,0,1,2.17-.47,4.37,4.37,0,0,1,1.58.25,4.21,4.21,0,0,1,1.08.58,3.18,3.18,0,0,1,.67.63l-.23-.33a1,1,0,0,1,.44-.86,2.59,2.59,0,0,1,1.39-.29,2.38,2.38,0,0,1,1.28.26,1.06,1.06,0,0,1,.48.68,4.36,4.36,0,0,1,.09.9V31a4.14,4.14,0,0,1-.09.87,1,1,0,0,1-.47.67A2.64,2.64,0,0,1,139.12,32.75Zm-4.37-3.51a2.29,2.29,0,0,0,1.2-.32,2.42,2.42,0,0,0,.85-.86,2.37,2.37,0,0,0,0-2.41,2.34,2.34,0,0,0-.87-.84,2.54,2.54,0,0,0-3.39.87,2.31,2.31,0,0,0-.34,1.22,2.08,2.08,0,0,0,.34,1.17,2.4,2.4,0,0,0,.93.85A2.64,2.64,0,0,0,134.75,29.24Z"/><path class="cls-2" d="M144.88,32.77a1.89,1.89,0,0,1-1.32-.5A1.66,1.66,0,0,1,143,31a1.8,1.8,0,0,1,.13-.69,1.69,1.69,0,0,1,.42-.58l5.68-5.18h-3.81a3.91,3.91,0,0,1-.91-.1,1.18,1.18,0,0,1-.72-.46,2,2,0,0,1-.29-1.23,2.07,2.07,0,0,1,.29-1.24,1.14,1.14,0,0,1,.73-.44,4.46,4.46,0,0,1,.91-.09h7.82a1.85,1.85,0,0,1,1.33.49,1.65,1.65,0,0,1,.52,1.25,2,2,0,0,1-.14.72,1.39,1.39,0,0,1-.38.55l-5.56,5.2h4.53a4.4,4.4,0,0,1,.92.1,1.1,1.1,0,0,1,.69.47,2.31,2.31,0,0,1,.26,1.25,2.14,2.14,0,0,1-.27,1.22,1.1,1.1,0,0,1-.71.45,6.5,6.5,0,0,1-.92.07Z"/><path class="cls-2" d="M167.7,32.76a2.55,2.55,0,0,1-1.38-.3.83.83,0,0,1-.42-.76l.25-.4a2.72,2.72,0,0,1-.57.58,4.33,4.33,0,0,1-1.12.61,4.55,4.55,0,0,1-1.66.27,5.29,5.29,0,0,1-2.19-.47A5.91,5.91,0,0,1,158.78,31a6.62,6.62,0,0,1-1.28-1.9,5.47,5.47,0,0,1-.47-2.23,5.22,5.22,0,0,1,.48-2.2,6.12,6.12,0,0,1,1.28-1.86,6.42,6.42,0,0,1,1.84-1.28,5.09,5.09,0,0,1,2.18-.47,4.37,4.37,0,0,1,2.66.82,3.38,3.38,0,0,1,.66.64l-.22-.33a1,1,0,0,1,.43-.86,2.55,2.55,0,0,1,1.39-.29,2.35,2.35,0,0,1,1.29.26,1,1,0,0,1,.47.68,4.26,4.26,0,0,1,.09.89V31a4.31,4.31,0,0,1-.09.88,1,1,0,0,1-.48.67A2.62,2.62,0,0,1,167.7,32.76Zm-4.37-3.51a2.28,2.28,0,0,0,1.2-.31,2.59,2.59,0,0,0,.85-.86,2.45,2.45,0,0,0,0-2.42,2.39,2.39,0,0,0-.87-.83,2.44,2.44,0,0,0-1.23-.31,2.51,2.51,0,0,0-1.26.32,2.4,2.4,0,0,0-.9.86,2.22,2.22,0,0,0-.34,1.22,2.13,2.13,0,0,0,.34,1.17,2.41,2.41,0,0,0,.92.84A2.57,2.57,0,0,0,163.33,29.25Z"/><path class="cls-2" d="M184.8,33a7.42,7.42,0,0,1-3-.55A5.77,5.77,0,0,1,179.73,31a5.84,5.84,0,0,1-1.2-2,6.11,6.11,0,0,1-.4-2.16,5.76,5.76,0,0,1,.85-3.13,6.08,6.08,0,0,1,2.36-2.16,7.48,7.48,0,0,1,3.47-.78,6.43,6.43,0,0,1,2.51.44,5.09,5.09,0,0,1,1.75,1.13,4.61,4.61,0,0,1,1,1.49,3.83,3.83,0,0,1,.34,1.53,2.56,2.56,0,0,1-.66,1.93,2.38,2.38,0,0,1-1.69.64h-6a1.55,1.55,0,0,0,.46,1,2.58,2.58,0,0,0,1,.66,3.6,3.6,0,0,0,1.32.24,8.22,8.22,0,0,0,1-.06,4.56,4.56,0,0,0,.79-.16l.58-.21.49-.18a1.74,1.74,0,0,1,.43-.09,1,1,0,0,1,.67.2,1.94,1.94,0,0,1,.58.67,1.78,1.78,0,0,1,.23.49,2,2,0,0,1,.07.47,1.26,1.26,0,0,1-.62,1,4.88,4.88,0,0,1-1.72.69A12.19,12.19,0,0,1,184.8,33Zm-2.67-7h4a1,1,0,0,0,.57-.13c.14-.08.2-.25.2-.5a1.12,1.12,0,0,0-.27-.73,1.75,1.75,0,0,0-.74-.51,3,3,0,0,0-1.08-.18,3.22,3.22,0,0,0-1.35.28,2.25,2.25,0,0,0-.94.76A1.66,1.66,0,0,0,182.13,26Z"/><path class="cls-2" d="M197.32,32.8a16.39,16.39,0,0,1-1.82-.09,4.14,4.14,0,0,1-1.35-.38,2.37,2.37,0,0,1-.9-.79,3.63,3.63,0,0,1-.52-1.29,9,9,0,0,1-.18-1.95V17.43a3.46,3.46,0,0,1,.1-.87,1.1,1.1,0,0,1,.49-.66,2.48,2.48,0,0,1,1.31-.26,2.44,2.44,0,0,1,1.29.26,1,1,0,0,1,.48.66,3.46,3.46,0,0,1,.1.87V28.14a5.22,5.22,0,0,0,0,.62.88.88,0,0,0,.15.39.52.52,0,0,0,.32.19,2.34,2.34,0,0,0,.52.05,2.54,2.54,0,0,1,.61.07.9.9,0,0,1,.54.42,2.22,2.22,0,0,1,.22,1.18,2.47,2.47,0,0,1-.22,1.22.86.86,0,0,1-.54.45A2.73,2.73,0,0,1,197.32,32.8Z"/><path class="cls-2" d="M209,32.79a2.68,2.68,0,0,1-1.31-.25,1,1,0,0,1-.48-.66,4,4,0,0,1-.08-.86V22.73a3.7,3.7,0,0,1,.09-.83,1,1,0,0,1,.49-.63A2.83,2.83,0,0,1,209,21a2.69,2.69,0,0,1,1.18.2,1,1,0,0,1,.48.48,1.39,1.39,0,0,1,.12.53.68.68,0,0,0,.05.34l-.16.45a1.52,1.52,0,0,1,.39-.72,3.6,3.6,0,0,1,.85-.65,4.65,4.65,0,0,1,1.1-.46,4.36,4.36,0,0,1,1.17-.17,5.12,5.12,0,0,1,2.13.42,4.17,4.17,0,0,1,1.59,1.19,5.42,5.42,0,0,1,1,1.82,7.61,7.61,0,0,1,.33,2.3v4.28a4,4,0,0,1-.09.86,1,1,0,0,1-.47.64,2.72,2.72,0,0,1-1.34.24,2.6,2.6,0,0,1-1.33-.25,1,1,0,0,1-.48-.66,4,4,0,0,1-.09-.86V26.76a2.47,2.47,0,0,0-.26-1.2,1.7,1.7,0,0,0-.75-.75,2.58,2.58,0,0,0-1.21-.26,2.71,2.71,0,0,0-1.25.27,1.92,1.92,0,0,0-.81.76,2.34,2.34,0,0,0-.29,1.18V31a4,4,0,0,1-.09.86,1,1,0,0,1-.48.65A2.62,2.62,0,0,1,209,32.79Z"/><path class="cls-2" d="M227,32.8a5.71,5.71,0,0,1-2.17-.43,5.32,5.32,0,0,1-2.91-3,6.15,6.15,0,0,1-.41-2.3V22.81a4,4,0,0,1,.09-.87,1.05,1.05,0,0,1,.49-.66,2.52,2.52,0,0,1,1.32-.26,2.48,2.48,0,0,1,1.31.26,1.09,1.09,0,0,1,.48.68,4.06,4.06,0,0,1,.08.88v4.23a2.58,2.58,0,0,0,.26,1.19,1.76,1.76,0,0,0,.78.77,2.67,2.67,0,0,0,1.21.26,2.64,2.64,0,0,0,1.24-.27,2,2,0,0,0,.8-.77,2.31,2.31,0,0,0,.29-1.17V22.79a4,4,0,0,1,.09-.87,1,1,0,0,1,.49-.64,2.53,2.53,0,0,1,1.32-.25,2.45,2.45,0,0,1,1.31.26,1.07,1.07,0,0,1,.48.67,4,4,0,0,1,.09.86V31.1a3.73,3.73,0,0,1-.09.84.94.94,0,0,1-.49.62,2.62,2.62,0,0,1-1.3.24,3.2,3.2,0,0,1-1.05-.14,1.38,1.38,0,0,1-.55-.36,1,1,0,0,1-.21-.44,3.62,3.62,0,0,1,0-.43l.33-.26a2.63,2.63,0,0,1-.33.37,5.33,5.33,0,0,1-.66.54,4.55,4.55,0,0,1-1,.5A3.37,3.37,0,0,1,227,32.8Zm-.39-12.6a.88.88,0,0,1-.74-.23,2.53,2.53,0,0,1-.51-.94,1.89,1.89,0,0,1-.1-1.23,1.37,1.37,0,0,1,.93-.63l4.4-1.27a.89.89,0,0,1,.72.27,2.18,2.18,0,0,1,.5.93,1.62,1.62,0,0,1,.09,1.2,1.33,1.33,0,0,1-.91.63Z"/><path class="cls-2" d="M238,32.82a2.52,2.52,0,0,1-1.3-.25,1,1,0,0,1-.47-.66,4.79,4.79,0,0,1-.08-.88V22.8a3.89,3.89,0,0,1,.09-.85,1,1,0,0,1,.49-.65,2.66,2.66,0,0,1,1.32-.24,2.12,2.12,0,0,1,1.35.34,1.36,1.36,0,0,1,.42,1.12l-.32.26a1.52,1.52,0,0,1,.3-.4,4.29,4.29,0,0,1,.65-.59,4,4,0,0,1,.94-.53,3,3,0,0,1,1.16-.22,4.62,4.62,0,0,1,1.49.22,3.91,3.91,0,0,1,1.2.66,4.13,4.13,0,0,1,.93,1.09,6.58,6.58,0,0,1,.86-.91,4.63,4.63,0,0,1,1.17-.76,3.73,3.73,0,0,1,1.53-.3,4.07,4.07,0,0,1,4,2.68,8.39,8.39,0,0,1,.52,3.14v4.21a3.49,3.49,0,0,1-.1.86,1.1,1.1,0,0,1-.49.66,2.62,2.62,0,0,1-1.31.24,2.49,2.49,0,0,1-1.33-.26,1,1,0,0,1-.47-.67,4.74,4.74,0,0,1-.08-.86V26.83a3.38,3.38,0,0,0-.19-1.21,1.61,1.61,0,0,0-.54-.78,1.42,1.42,0,0,0-.9-.27,1.75,1.75,0,0,0-1,.26,1.51,1.51,0,0,0-.6.75,3.28,3.28,0,0,0-.2,1.27v4.21A3.19,3.19,0,0,1,247,32a1.19,1.19,0,0,1-.54.66,2.7,2.7,0,0,1-1.34.22,2.21,2.21,0,0,1-1.25-.27,1.06,1.06,0,0,1-.45-.69,4.57,4.57,0,0,1-.07-.83V26.83a4.11,4.11,0,0,0-.17-1.23,1.6,1.6,0,0,0-.53-.78,1.52,1.52,0,0,0-.92-.25,1.68,1.68,0,0,0-1,.3,1.78,1.78,0,0,0-.58.81,3.17,3.17,0,0,0-.19,1.14v4.24a4.77,4.77,0,0,1-.08.87,1,1,0,0,1-.49.65A2.62,2.62,0,0,1,238,32.82Z"/><path class="cls-2" d="M262.9,33.05a7.6,7.6,0,0,1-3-.54,5.83,5.83,0,0,1-2.07-1.43,5.93,5.93,0,0,1-1.19-2,6.2,6.2,0,0,1-.4-2.17,5.76,5.76,0,0,1,.85-3.13,5.92,5.92,0,0,1,2.36-2.15,7.36,7.36,0,0,1,3.47-.79,6.62,6.62,0,0,1,2.51.44,5.24,5.24,0,0,1,1.75,1.13,4.61,4.61,0,0,1,1,1.49,3.9,3.9,0,0,1,.34,1.53,2.51,2.51,0,0,1-.67,1.93,2.3,2.3,0,0,1-1.68.64h-5.95a1.55,1.55,0,0,0,.46,1,2.86,2.86,0,0,0,1,.66,3.91,3.91,0,0,0,1.33.23c.38,0,.73,0,1-.05a4.49,4.49,0,0,0,.79-.17l.58-.21.49-.18.43-.09a1,1,0,0,1,.67.2,1.94,1.94,0,0,1,.58.67,1.71,1.71,0,0,1,.23.5,1.84,1.84,0,0,1,.06.47,1.24,1.24,0,0,1-.61,1,4.88,4.88,0,0,1-1.72.69A11.67,11.67,0,0,1,262.9,33.05Zm-2.67-7h3.95a1.1,1.1,0,0,0,.57-.12.56.56,0,0,0,.2-.51,1.12,1.12,0,0,0-.27-.73,1.82,1.82,0,0,0-.74-.51,3.24,3.24,0,0,0-1.09-.17,3.11,3.11,0,0,0-1.35.28,2.34,2.34,0,0,0-.93.75A1.66,1.66,0,0,0,260.23,26.08Z"/><path class="cls-2" d="M272.5,32.84a2.59,2.59,0,0,1-1.31-.24,1,1,0,0,1-.48-.67,4.31,4.31,0,0,1-.09-.88V22.84a4,4,0,0,1,.09-.87,1,1,0,0,1,.49-.65,3.73,3.73,0,0,1,2.58,0,1,1,0,0,1,.49.52,1.47,1.47,0,0,1,.1.5l-.3.15a2.08,2.08,0,0,1,.26-.35,3.55,3.55,0,0,1,.59-.51,3.37,3.37,0,0,1,.91-.46,3.63,3.63,0,0,1,1.24-.19,4.55,4.55,0,0,1,.61,0,3.62,3.62,0,0,1,.7.14,2.87,2.87,0,0,1,.67.28,1.46,1.46,0,0,1,.48.44,1,1,0,0,1,.19.63,2.74,2.74,0,0,1-.48,1.64,1.42,1.42,0,0,1-1.2.67,2.11,2.11,0,0,1-.6-.06,1.22,1.22,0,0,1-.28-.14,1.15,1.15,0,0,0-.27-.14,1.68,1.68,0,0,0-.55-.06,2.76,2.76,0,0,0-.71.09,2.24,2.24,0,0,0-.63.29,1.4,1.4,0,0,0-.44.5,1.33,1.33,0,0,0-.17.67V31.1a4,4,0,0,1-.09.86,1,1,0,0,1-.49.65A2.71,2.71,0,0,1,272.5,32.84Z"/><path class="cls-2" d="M283.42,37.72a2.52,2.52,0,0,1-1.3-.25.93.93,0,0,1-.48-.63,4.46,4.46,0,0,1-.07-.84V22.85a4.54,4.54,0,0,1,.07-.86,1,1,0,0,1,.47-.65,2.4,2.4,0,0,1,1.28-.26,3,3,0,0,1,1.24.21,1.33,1.33,0,0,1,.66.66V36a3,3,0,0,1-.08.85,1.08,1.08,0,0,1-.49.65A2.62,2.62,0,0,1,283.42,37.72Zm4.8-5.08a4.76,4.76,0,0,1-2.15-.46,4.35,4.35,0,0,1-1.53-1.25,5.5,5.5,0,0,1-.93-1.82,7.06,7.06,0,0,1-.28-2.24,7.27,7.27,0,0,1,.32-2.2,6,6,0,0,1,.94-1.86,4.38,4.38,0,0,1,1.53-1.27,4.71,4.71,0,0,1,2.11-.46,5,5,0,0,1,2.15.48,6.28,6.28,0,0,1,1.84,1.28,6.13,6.13,0,0,1,1.27,1.87A5.51,5.51,0,0,1,294,27a5.42,5.42,0,0,1-.46,2.22A5.73,5.73,0,0,1,292.22,31a6,6,0,0,1-1.82,1.21A5.54,5.54,0,0,1,288.22,32.64Zm-.5-3.32A2.44,2.44,0,0,0,289,29a2.53,2.53,0,0,0,.89-.86,2.18,2.18,0,0,0,.34-1.2,2.34,2.34,0,0,0-.32-1.2,2.27,2.27,0,0,0-.89-.85,2.6,2.6,0,0,0-2.48,0,2.29,2.29,0,0,0-.87.85,2.41,2.41,0,0,0,0,2.38,2.39,2.39,0,0,0,.87.86A2.3,2.3,0,0,0,287.72,29.32Z"/><path class="cls-2" d="M305.15,22.81a2.08,2.08,0,0,1-1.3.58,1.94,1.94,0,0,1-1.25-.7A1.7,1.7,0,0,1,302,21.4a2,2,0,0,1,.87-1.3l3.73-3.1a1.87,1.87,0,0,1,1.29-.54,2,2,0,0,1,1.24.73,1.6,1.6,0,0,1,.61,1.26,2.1,2.1,0,0,1-.89,1.28Zm3.15,10.1a2,2,0,0,1-1.44-.4,1.92,1.92,0,0,1-.41-1.39V18.18a1.84,1.84,0,0,1,.41-1.38,2.13,2.13,0,0,1,1.46-.39,2.15,2.15,0,0,1,1.47.4,2,2,0,0,1,.41,1.42V31.15a1.79,1.79,0,0,1-.42,1.37A2.15,2.15,0,0,1,308.3,32.91Z"/><path class="cls-2" d="M314.07,32.84a1.83,1.83,0,0,1-1.32-.55,1.69,1.69,0,0,1-.58-1.26,3.44,3.44,0,0,1,.09-.8,3,3,0,0,1,.28-.73,2.28,2.28,0,0,1,.49-.63,13.74,13.74,0,0,1,2-1.55c.72-.46,1.43-.9,2.14-1.31s1.36-.83,1.95-1.25a5.86,5.86,0,0,0,1.41-1.34,2.6,2.6,0,0,0,.53-1.56,2.38,2.38,0,0,0-.21-1,1.74,1.74,0,0,0-.75-.8,3.07,3.07,0,0,0-1.54-.32,3.41,3.41,0,0,0-1.11.17,1.9,1.9,0,0,0-.8.49,2,2,0,0,0-.46.8A3.23,3.23,0,0,0,316,22.3a4.44,4.44,0,0,1-.08.84,1,1,0,0,1-.49.62,2.82,2.82,0,0,1-1.35.23,2.44,2.44,0,0,1-1.34-.27,1,1,0,0,1-.47-.7,4.41,4.41,0,0,1-.09-.89,5.82,5.82,0,0,1,.43-2.2,5.56,5.56,0,0,1,1.25-1.9,6,6,0,0,1,2-1.33,6.73,6.73,0,0,1,2.65-.49,6.85,6.85,0,0,1,3.26.76A5.85,5.85,0,0,1,324,19.08a5.69,5.69,0,0,1,.84,3.08,5,5,0,0,1-.36,1.91,7,7,0,0,1-.94,1.59,8.67,8.67,0,0,1-1.29,1.28,13.87,13.87,0,0,1-1.44,1c-.48.29-.93.54-1.35.74l-1.05.52-.35,0h5.52a4.62,4.62,0,0,1,.94.09,1.14,1.14,0,0,1,.7.47,2.31,2.31,0,0,1,.26,1.28,2.17,2.17,0,0,1-.27,1.21,1.15,1.15,0,0,1-.73.47,5.7,5.7,0,0,1-.95.08Z"/><path class="cls-3" d="M114.16,16.28a3.94,3.94,0,0,1,.79.07.92.92,0,0,1,.59.4,2.08,2.08,0,0,1,.22,1.08,1.91,1.91,0,0,1-.23,1.06.88.88,0,0,1-.6.4,4,4,0,0,1-.8.07h-4V31a3.89,3.89,0,0,1-.09.85,1,1,0,0,1-.47.65,2.72,2.72,0,0,1-1.34.24,2.42,2.42,0,0,1-1.27-.25,1,1,0,0,1-.49-.66,4,4,0,0,1-.09-.85V19.36h-4a3.33,3.33,0,0,1-.78-.09,1,1,0,0,1-.61-.4,1.82,1.82,0,0,1-.24-1.07,1.84,1.84,0,0,1,.24-1.06,1,1,0,0,1,.62-.4,4.79,4.79,0,0,1,.77-.07Z"/><path class="cls-3" d="M119.73,32.76a2.53,2.53,0,0,1-1.32-.25,1,1,0,0,1-.47-.67,4.14,4.14,0,0,1-.09-.87V22.75a4.77,4.77,0,0,1,.08-.87,1,1,0,0,1,.49-.64,2.6,2.6,0,0,1,1.33-.25,2.78,2.78,0,0,1,1.26.22,1,1,0,0,1,.49.52,1.89,1.89,0,0,1,.1.51l-.3.14a2.15,2.15,0,0,1,.26-.34,3.15,3.15,0,0,1,.59-.52,3.68,3.68,0,0,1,.91-.46,3.89,3.89,0,0,1,1.24-.19l.61,0a3.62,3.62,0,0,1,.7.14,2.81,2.81,0,0,1,.66.29,1.57,1.57,0,0,1,.49.43,1.1,1.1,0,0,1,.19.64,2.73,2.73,0,0,1-.48,1.63,1.42,1.42,0,0,1-1.2.67,2.11,2.11,0,0,1-.6-.06,1,1,0,0,1-.29-.14,1.26,1.26,0,0,0-.26-.14,1.68,1.68,0,0,0-.55-.06,2.71,2.71,0,0,0-.71.09,2.29,2.29,0,0,0-.63.3,1.5,1.5,0,0,0-.45.49,1.35,1.35,0,0,0-.16.67V31a4,4,0,0,1-.09.86,1,1,0,0,1-.49.64A2.71,2.71,0,0,1,119.73,32.76Z"/><path class="cls-3" d="M139.12,32.75a2.5,2.5,0,0,1-1.37-.31.82.82,0,0,1-.42-.75l.25-.4a3.11,3.11,0,0,1-.58.57,4.25,4.25,0,0,1-1.11.61,4.6,4.6,0,0,1-1.67.27,5.12,5.12,0,0,1-2.18-.47A5.79,5.79,0,0,1,130.2,31a6.54,6.54,0,0,1-1.27-1.89,5.37,5.37,0,0,1-.48-2.24,5.22,5.22,0,0,1,.48-2.2,6.33,6.33,0,0,1,1.29-1.86,6.15,6.15,0,0,1,1.84-1.28,5.2,5.2,0,0,1,2.17-.47,4.37,4.37,0,0,1,1.58.25,4.21,4.21,0,0,1,1.08.58,3.18,3.18,0,0,1,.67.63l-.23-.33a1,1,0,0,1,.44-.86,2.59,2.59,0,0,1,1.39-.29,2.38,2.38,0,0,1,1.28.26,1.06,1.06,0,0,1,.48.68,4.36,4.36,0,0,1,.09.9V31a4.14,4.14,0,0,1-.09.87,1,1,0,0,1-.47.67A2.64,2.64,0,0,1,139.12,32.75Zm-4.37-3.51a2.29,2.29,0,0,0,1.2-.32,2.42,2.42,0,0,0,.85-.86,2.37,2.37,0,0,0,0-2.41,2.34,2.34,0,0,0-.87-.84,2.54,2.54,0,0,0-3.39.87,2.31,2.31,0,0,0-.34,1.22,2.08,2.08,0,0,0,.34,1.17,2.4,2.4,0,0,0,.93.85A2.64,2.64,0,0,0,134.75,29.24Z"/><path class="cls-3" d="M144.88,32.77a1.89,1.89,0,0,1-1.32-.5A1.66,1.66,0,0,1,143,31a1.8,1.8,0,0,1,.13-.69,1.69,1.69,0,0,1,.42-.58l5.68-5.18h-3.81a3.91,3.91,0,0,1-.91-.1,1.18,1.18,0,0,1-.72-.46,2,2,0,0,1-.29-1.23,2.07,2.07,0,0,1,.29-1.24,1.14,1.14,0,0,1,.73-.44,4.46,4.46,0,0,1,.91-.09h7.82a1.85,1.85,0,0,1,1.33.49,1.65,1.65,0,0,1,.52,1.25,2,2,0,0,1-.14.72,1.39,1.39,0,0,1-.38.55l-5.56,5.2h4.53a4.4,4.4,0,0,1,.92.1,1.1,1.1,0,0,1,.69.47,2.31,2.31,0,0,1,.26,1.25,2.14,2.14,0,0,1-.27,1.22,1.1,1.1,0,0,1-.71.45,6.5,6.5,0,0,1-.92.07Z"/><path class="cls-3" d="M167.7,32.76a2.55,2.55,0,0,1-1.38-.3.83.83,0,0,1-.42-.76l.25-.4a2.72,2.72,0,0,1-.57.58,4.33,4.33,0,0,1-1.12.61,4.55,4.55,0,0,1-1.66.27,5.29,5.29,0,0,1-2.19-.47A5.91,5.91,0,0,1,158.78,31a6.62,6.62,0,0,1-1.28-1.9,5.47,5.47,0,0,1-.47-2.23,5.22,5.22,0,0,1,.48-2.2,6.12,6.12,0,0,1,1.28-1.86,6.42,6.42,0,0,1,1.84-1.28,5.09,5.09,0,0,1,2.18-.47,4.37,4.37,0,0,1,2.66.82,3.38,3.38,0,0,1,.66.64l-.22-.33a1,1,0,0,1,.43-.86,2.55,2.55,0,0,1,1.39-.29,2.35,2.35,0,0,1,1.29.26,1,1,0,0,1,.47.68,4.26,4.26,0,0,1,.09.89V31a4.31,4.31,0,0,1-.09.88,1,1,0,0,1-.48.67A2.62,2.62,0,0,1,167.7,32.76Zm-4.37-3.51a2.28,2.28,0,0,0,1.2-.31,2.59,2.59,0,0,0,.85-.86,2.45,2.45,0,0,0,0-2.42,2.39,2.39,0,0,0-.87-.83,2.44,2.44,0,0,0-1.23-.31,2.51,2.51,0,0,0-1.26.32,2.4,2.4,0,0,0-.9.86,2.22,2.22,0,0,0-.34,1.22,2.13,2.13,0,0,0,.34,1.17,2.41,2.41,0,0,0,.92.84A2.57,2.57,0,0,0,163.33,29.25Z"/><path class="cls-3" d="M184.8,33a7.42,7.42,0,0,1-3-.55A5.77,5.77,0,0,1,179.73,31a5.84,5.84,0,0,1-1.2-2,6.11,6.11,0,0,1-.4-2.16,5.76,5.76,0,0,1,.85-3.13,6.08,6.08,0,0,1,2.36-2.16,7.48,7.48,0,0,1,3.47-.78,6.43,6.43,0,0,1,2.51.44,5.09,5.09,0,0,1,1.75,1.13,4.61,4.61,0,0,1,1,1.49,3.83,3.83,0,0,1,.34,1.53,2.56,2.56,0,0,1-.66,1.93,2.38,2.38,0,0,1-1.69.64h-6a1.55,1.55,0,0,0,.46,1,2.58,2.58,0,0,0,1,.66,3.6,3.6,0,0,0,1.32.24,8.22,8.22,0,0,0,1-.06,4.56,4.56,0,0,0,.79-.16l.58-.21.49-.18a1.74,1.74,0,0,1,.43-.09,1,1,0,0,1,.67.2,1.94,1.94,0,0,1,.58.67,1.78,1.78,0,0,1,.23.49,2,2,0,0,1,.07.47,1.26,1.26,0,0,1-.62,1,4.88,4.88,0,0,1-1.72.69A12.19,12.19,0,0,1,184.8,33Zm-2.67-7h4a1,1,0,0,0,.57-.13c.14-.08.2-.25.2-.5a1.12,1.12,0,0,0-.27-.73,1.75,1.75,0,0,0-.74-.51,3,3,0,0,0-1.08-.18,3.22,3.22,0,0,0-1.35.28,2.25,2.25,0,0,0-.94.76A1.66,1.66,0,0,0,182.13,26Z"/><path class="cls-3" d="M197.32,32.8a16.39,16.39,0,0,1-1.82-.09,4.14,4.14,0,0,1-1.35-.38,2.37,2.37,0,0,1-.9-.79,3.63,3.63,0,0,1-.52-1.29,9,9,0,0,1-.18-1.95V17.43a3.46,3.46,0,0,1,.1-.87,1.1,1.1,0,0,1,.49-.66,2.48,2.48,0,0,1,1.31-.26,2.44,2.44,0,0,1,1.29.26,1,1,0,0,1,.48.66,3.46,3.46,0,0,1,.1.87V28.14a5.22,5.22,0,0,0,0,.62.88.88,0,0,0,.15.39.52.52,0,0,0,.32.19,2.34,2.34,0,0,0,.52.05,2.54,2.54,0,0,1,.61.07.9.9,0,0,1,.54.42,2.22,2.22,0,0,1,.22,1.18,2.47,2.47,0,0,1-.22,1.22.86.86,0,0,1-.54.45A2.73,2.73,0,0,1,197.32,32.8Z"/><path class="cls-3" d="M209,32.79a2.68,2.68,0,0,1-1.31-.25,1,1,0,0,1-.48-.66,4,4,0,0,1-.08-.86V22.73a3.7,3.7,0,0,1,.09-.83,1,1,0,0,1,.49-.63A2.83,2.83,0,0,1,209,21a2.69,2.69,0,0,1,1.18.2,1,1,0,0,1,.48.48,1.39,1.39,0,0,1,.12.53.68.68,0,0,0,.05.34l-.16.45a1.52,1.52,0,0,1,.39-.72,3.6,3.6,0,0,1,.85-.65,4.65,4.65,0,0,1,1.1-.46,4.36,4.36,0,0,1,1.17-.17,5.12,5.12,0,0,1,2.13.42,4.17,4.17,0,0,1,1.59,1.19,5.42,5.42,0,0,1,1,1.82,7.61,7.61,0,0,1,.33,2.3v4.28a4,4,0,0,1-.09.86,1,1,0,0,1-.47.64,2.72,2.72,0,0,1-1.34.24,2.6,2.6,0,0,1-1.33-.25,1,1,0,0,1-.48-.66,4,4,0,0,1-.09-.86V26.76a2.47,2.47,0,0,0-.26-1.2,1.7,1.7,0,0,0-.75-.75,2.58,2.58,0,0,0-1.21-.26,2.71,2.71,0,0,0-1.25.27,1.92,1.92,0,0,0-.81.76,2.34,2.34,0,0,0-.29,1.18V31a4,4,0,0,1-.09.86,1,1,0,0,1-.48.65A2.62,2.62,0,0,1,209,32.79Z"/><path class="cls-3" d="M227,32.8a5.71,5.71,0,0,1-2.17-.43,5.32,5.32,0,0,1-2.91-3,6.15,6.15,0,0,1-.41-2.3V22.81a4,4,0,0,1,.09-.87,1.05,1.05,0,0,1,.49-.66,2.52,2.52,0,0,1,1.32-.26,2.48,2.48,0,0,1,1.31.26,1.09,1.09,0,0,1,.48.68,4.06,4.06,0,0,1,.08.88v4.23a2.58,2.58,0,0,0,.26,1.19,1.76,1.76,0,0,0,.78.77,2.67,2.67,0,0,0,1.21.26,2.64,2.64,0,0,0,1.24-.27,2,2,0,0,0,.8-.77,2.31,2.31,0,0,0,.29-1.17V22.79a4,4,0,0,1,.09-.87,1,1,0,0,1,.49-.64,2.53,2.53,0,0,1,1.32-.25,2.45,2.45,0,0,1,1.31.26,1.07,1.07,0,0,1,.48.67,4,4,0,0,1,.09.86V31.1a3.73,3.73,0,0,1-.09.84.94.94,0,0,1-.49.62,2.62,2.62,0,0,1-1.3.24,3.2,3.2,0,0,1-1.05-.14,1.38,1.38,0,0,1-.55-.36,1,1,0,0,1-.21-.44,3.62,3.62,0,0,1,0-.43l.33-.26a2.63,2.63,0,0,1-.33.37,5.33,5.33,0,0,1-.66.54,4.55,4.55,0,0,1-1,.5A3.37,3.37,0,0,1,227,32.8Zm-.39-12.6a.88.88,0,0,1-.74-.23,2.53,2.53,0,0,1-.51-.94,1.89,1.89,0,0,1-.1-1.23,1.37,1.37,0,0,1,.93-.63l4.4-1.27a.89.89,0,0,1,.72.27,2.18,2.18,0,0,1,.5.93,1.62,1.62,0,0,1,.09,1.2,1.33,1.33,0,0,1-.91.63Z"/><path class="cls-3" d="M238,32.82a2.52,2.52,0,0,1-1.3-.25,1,1,0,0,1-.47-.66,4.79,4.79,0,0,1-.08-.88V22.8a3.89,3.89,0,0,1,.09-.85,1,1,0,0,1,.49-.65,2.66,2.66,0,0,1,1.32-.24,2.12,2.12,0,0,1,1.35.34,1.36,1.36,0,0,1,.42,1.12l-.32.26a1.52,1.52,0,0,1,.3-.4,4.29,4.29,0,0,1,.65-.59,4,4,0,0,1,.94-.53,3,3,0,0,1,1.16-.22,4.62,4.62,0,0,1,1.49.22,3.91,3.91,0,0,1,1.2.66,4.13,4.13,0,0,1,.93,1.09,6.58,6.58,0,0,1,.86-.91,4.63,4.63,0,0,1,1.17-.76,3.73,3.73,0,0,1,1.53-.3,4.07,4.07,0,0,1,4,2.68,8.39,8.39,0,0,1,.52,3.14v4.21a3.49,3.49,0,0,1-.1.86,1.1,1.1,0,0,1-.49.66,2.62,2.62,0,0,1-1.31.24,2.49,2.49,0,0,1-1.33-.26,1,1,0,0,1-.47-.67,4.74,4.74,0,0,1-.08-.86V26.83a3.38,3.38,0,0,0-.19-1.21,1.61,1.61,0,0,0-.54-.78,1.42,1.42,0,0,0-.9-.27,1.75,1.75,0,0,0-1,.26,1.51,1.51,0,0,0-.6.75,3.28,3.28,0,0,0-.2,1.27v4.21A3.19,3.19,0,0,1,247,32a1.19,1.19,0,0,1-.54.66,2.7,2.7,0,0,1-1.34.22,2.21,2.21,0,0,1-1.25-.27,1.06,1.06,0,0,1-.45-.69,4.57,4.57,0,0,1-.07-.83V26.83a4.11,4.11,0,0,0-.17-1.23,1.6,1.6,0,0,0-.53-.78,1.52,1.52,0,0,0-.92-.25,1.68,1.68,0,0,0-1,.3,1.78,1.78,0,0,0-.58.81,3.17,3.17,0,0,0-.19,1.14v4.24a4.77,4.77,0,0,1-.08.87,1,1,0,0,1-.49.65A2.62,2.62,0,0,1,238,32.82Z"/><path class="cls-3" d="M262.9,33.05a7.6,7.6,0,0,1-3-.54,5.83,5.83,0,0,1-2.07-1.43,5.93,5.93,0,0,1-1.19-2,6.2,6.2,0,0,1-.4-2.17,5.76,5.76,0,0,1,.85-3.13,5.92,5.92,0,0,1,2.36-2.15,7.36,7.36,0,0,1,3.47-.79,6.62,6.62,0,0,1,2.51.44,5.24,5.24,0,0,1,1.75,1.13,4.61,4.61,0,0,1,1,1.49,3.9,3.9,0,0,1,.34,1.53,2.51,2.51,0,0,1-.67,1.93,2.3,2.3,0,0,1-1.68.64h-5.95a1.55,1.55,0,0,0,.46,1,2.86,2.86,0,0,0,1,.66,3.91,3.91,0,0,0,1.33.23c.38,0,.73,0,1-.05a4.49,4.49,0,0,0,.79-.17l.58-.21.49-.18.43-.09a1,1,0,0,1,.67.2,1.94,1.94,0,0,1,.58.67,1.71,1.71,0,0,1,.23.5,1.84,1.84,0,0,1,.06.47,1.24,1.24,0,0,1-.61,1,4.88,4.88,0,0,1-1.72.69A11.67,11.67,0,0,1,262.9,33.05Zm-2.67-7h3.95a1.1,1.1,0,0,0,.57-.12.56.56,0,0,0,.2-.51,1.12,1.12,0,0,0-.27-.73,1.82,1.82,0,0,0-.74-.51,3.24,3.24,0,0,0-1.09-.17,3.11,3.11,0,0,0-1.35.28,2.34,2.34,0,0,0-.93.75A1.66,1.66,0,0,0,260.23,26.08Z"/><path class="cls-3" d="M272.5,32.84a2.59,2.59,0,0,1-1.31-.24,1,1,0,0,1-.48-.67,4.31,4.31,0,0,1-.09-.88V22.84a4,4,0,0,1,.09-.87,1,1,0,0,1,.49-.65,3.73,3.73,0,0,1,2.58,0,1,1,0,0,1,.49.52,1.47,1.47,0,0,1,.1.5l-.3.15a2.08,2.08,0,0,1,.26-.35,3.55,3.55,0,0,1,.59-.51,3.37,3.37,0,0,1,.91-.46,3.63,3.63,0,0,1,1.24-.19,4.55,4.55,0,0,1,.61,0,3.62,3.62,0,0,1,.7.14,2.87,2.87,0,0,1,.67.28,1.46,1.46,0,0,1,.48.44,1,1,0,0,1,.19.63,2.74,2.74,0,0,1-.48,1.64,1.42,1.42,0,0,1-1.2.67,2.11,2.11,0,0,1-.6-.06,1.22,1.22,0,0,1-.28-.14,1.15,1.15,0,0,0-.27-.14,1.68,1.68,0,0,0-.55-.06,2.76,2.76,0,0,0-.71.09,2.24,2.24,0,0,0-.63.29,1.4,1.4,0,0,0-.44.5,1.33,1.33,0,0,0-.17.67V31.1a4,4,0,0,1-.09.86,1,1,0,0,1-.49.65A2.71,2.71,0,0,1,272.5,32.84Z"/><path class="cls-3" d="M283.42,37.72a2.52,2.52,0,0,1-1.3-.25.93.93,0,0,1-.48-.63,4.46,4.46,0,0,1-.07-.84V22.85a4.54,4.54,0,0,1,.07-.86,1,1,0,0,1,.47-.65,2.4,2.4,0,0,1,1.28-.26,3,3,0,0,1,1.24.21,1.33,1.33,0,0,1,.66.66V36a3,3,0,0,1-.08.85,1.08,1.08,0,0,1-.49.65A2.62,2.62,0,0,1,283.42,37.72Zm4.8-5.08a4.76,4.76,0,0,1-2.15-.46,4.35,4.35,0,0,1-1.53-1.25,5.5,5.5,0,0,1-.93-1.82,7.06,7.06,0,0,1-.28-2.24,7.27,7.27,0,0,1,.32-2.2,6,6,0,0,1,.94-1.86,4.38,4.38,0,0,1,1.53-1.27,4.71,4.71,0,0,1,2.11-.46,5,5,0,0,1,2.15.48,6.28,6.28,0,0,1,1.84,1.28,6.13,6.13,0,0,1,1.27,1.87A5.51,5.51,0,0,1,294,27a5.42,5.42,0,0,1-.46,2.22A5.73,5.73,0,0,1,292.22,31a6,6,0,0,1-1.82,1.21A5.54,5.54,0,0,1,288.22,32.64Zm-.5-3.32A2.44,2.44,0,0,0,289,29a2.53,2.53,0,0,0,.89-.86,2.18,2.18,0,0,0,.34-1.2,2.34,2.34,0,0,0-.32-1.2,2.27,2.27,0,0,0-.89-.85,2.6,2.6,0,0,0-2.48,0,2.29,2.29,0,0,0-.87.85,2.41,2.41,0,0,0,0,2.38,2.39,2.39,0,0,0,.87.86A2.3,2.3,0,0,0,287.72,29.32Z"/><path class="cls-3" d="M305.15,22.81a2.08,2.08,0,0,1-1.3.58,1.94,1.94,0,0,1-1.25-.7A1.7,1.7,0,0,1,302,21.4a2,2,0,0,1,.87-1.3l3.73-3.1a1.87,1.87,0,0,1,1.29-.54,2,2,0,0,1,1.24.73,1.6,1.6,0,0,1,.61,1.26,2.1,2.1,0,0,1-.89,1.28Zm3.15,10.1a2,2,0,0,1-1.44-.4,1.92,1.92,0,0,1-.41-1.39V18.18a1.84,1.84,0,0,1,.41-1.38,2.13,2.13,0,0,1,1.46-.39,2.15,2.15,0,0,1,1.47.4,2,2,0,0,1,.41,1.42V31.15a1.79,1.79,0,0,1-.42,1.37A2.15,2.15,0,0,1,308.3,32.91Z"/><path class="cls-3" d="M314.07,32.84a1.83,1.83,0,0,1-1.32-.55,1.69,1.69,0,0,1-.58-1.26,3.44,3.44,0,0,1,.09-.8,3,3,0,0,1,.28-.73,2.28,2.28,0,0,1,.49-.63,13.74,13.74,0,0,1,2-1.55c.72-.46,1.43-.9,2.14-1.31s1.36-.83,1.95-1.25a5.86,5.86,0,0,0,1.41-1.34,2.6,2.6,0,0,0,.53-1.56,2.38,2.38,0,0,0-.21-1,1.74,1.74,0,0,0-.75-.8,3.07,3.07,0,0,0-1.54-.32,3.41,3.41,0,0,0-1.11.17,1.9,1.9,0,0,0-.8.49,2,2,0,0,0-.46.8A3.23,3.23,0,0,0,316,22.3a4.44,4.44,0,0,1-.08.84,1,1,0,0,1-.49.62,2.82,2.82,0,0,1-1.35.23,2.44,2.44,0,0,1-1.34-.27,1,1,0,0,1-.47-.7,4.41,4.41,0,0,1-.09-.89,5.82,5.82,0,0,1,.43-2.2,5.56,5.56,0,0,1,1.25-1.9,6,6,0,0,1,2-1.33,6.73,6.73,0,0,1,2.65-.49,6.85,6.85,0,0,1,3.26.76A5.85,5.85,0,0,1,324,19.08a5.69,5.69,0,0,1,.84,3.08,5,5,0,0,1-.36,1.91,7,7,0,0,1-.94,1.59,8.67,8.67,0,0,1-1.29,1.28,13.87,13.87,0,0,1-1.44,1c-.48.29-.93.54-1.35.74l-1.05.52-.35,0h5.52a4.62,4.62,0,0,1,.94.09,1.14,1.14,0,0,1,.7.47,2.31,2.31,0,0,1,.26,1.28,2.17,2.17,0,0,1-.27,1.21,1.15,1.15,0,0,1-.73.47,5.7,5.7,0,0,1-.95.08Z"/><path class="cls-2" d="M114.16,16.28a3.94,3.94,0,0,1,.79.07.92.92,0,0,1,.59.4,2.08,2.08,0,0,1,.22,1.08,1.91,1.91,0,0,1-.23,1.06.88.88,0,0,1-.6.4,4,4,0,0,1-.8.07h-4V31a3.89,3.89,0,0,1-.09.85,1,1,0,0,1-.47.65,2.72,2.72,0,0,1-1.34.24,2.42,2.42,0,0,1-1.27-.25,1,1,0,0,1-.49-.66,4,4,0,0,1-.09-.85V19.36h-4a3.33,3.33,0,0,1-.78-.09,1,1,0,0,1-.61-.4,1.82,1.82,0,0,1-.24-1.07,1.84,1.84,0,0,1,.24-1.06,1,1,0,0,1,.62-.4,4.79,4.79,0,0,1,.77-.07Z"/><path class="cls-2" d="M119.73,32.76a2.53,2.53,0,0,1-1.32-.25,1,1,0,0,1-.47-.67,4.14,4.14,0,0,1-.09-.87V22.75a4.77,4.77,0,0,1,.08-.87,1,1,0,0,1,.49-.64,2.6,2.6,0,0,1,1.33-.25,2.78,2.78,0,0,1,1.26.22,1,1,0,0,1,.49.52,1.89,1.89,0,0,1,.1.51l-.3.14a2.15,2.15,0,0,1,.26-.34,3.15,3.15,0,0,1,.59-.52,3.68,3.68,0,0,1,.91-.46,3.89,3.89,0,0,1,1.24-.19l.61,0a3.62,3.62,0,0,1,.7.14,2.81,2.81,0,0,1,.66.29,1.57,1.57,0,0,1,.49.43,1.1,1.1,0,0,1,.19.64,2.73,2.73,0,0,1-.48,1.63,1.42,1.42,0,0,1-1.2.67,2.11,2.11,0,0,1-.6-.06,1,1,0,0,1-.29-.14,1.26,1.26,0,0,0-.26-.14,1.68,1.68,0,0,0-.55-.06,2.71,2.71,0,0,0-.71.09,2.29,2.29,0,0,0-.63.3,1.5,1.5,0,0,0-.45.49,1.35,1.35,0,0,0-.16.67V31a4,4,0,0,1-.09.86,1,1,0,0,1-.49.64A2.71,2.71,0,0,1,119.73,32.76Z"/><path class="cls-2" d="M139.12,32.75a2.5,2.5,0,0,1-1.37-.31.82.82,0,0,1-.42-.75l.25-.4a3.11,3.11,0,0,1-.58.57,4.25,4.25,0,0,1-1.11.61,4.6,4.6,0,0,1-1.67.27,5.12,5.12,0,0,1-2.18-.47A5.79,5.79,0,0,1,130.2,31a6.54,6.54,0,0,1-1.27-1.89,5.37,5.37,0,0,1-.48-2.24,5.22,5.22,0,0,1,.48-2.2,6.33,6.33,0,0,1,1.29-1.86,6.15,6.15,0,0,1,1.84-1.28,5.2,5.2,0,0,1,2.17-.47,4.37,4.37,0,0,1,1.58.25,4.21,4.21,0,0,1,1.08.58,3.18,3.18,0,0,1,.67.63l-.23-.33a1,1,0,0,1,.44-.86,2.59,2.59,0,0,1,1.39-.29,2.38,2.38,0,0,1,1.28.26,1.06,1.06,0,0,1,.48.68,4.36,4.36,0,0,1,.09.9V31a4.14,4.14,0,0,1-.09.87,1,1,0,0,1-.47.67A2.64,2.64,0,0,1,139.12,32.75Zm-4.37-3.51a2.29,2.29,0,0,0,1.2-.32,2.42,2.42,0,0,0,.85-.86,2.37,2.37,0,0,0,0-2.41,2.34,2.34,0,0,0-.87-.84,2.54,2.54,0,0,0-3.39.87,2.31,2.31,0,0,0-.34,1.22,2.08,2.08,0,0,0,.34,1.17,2.4,2.4,0,0,0,.93.85A2.64,2.64,0,0,0,134.75,29.24Z"/><path class="cls-2" d="M144.88,32.77a1.89,1.89,0,0,1-1.32-.5A1.66,1.66,0,0,1,143,31a1.8,1.8,0,0,1,.13-.69,1.69,1.69,0,0,1,.42-.58l5.68-5.18h-3.81a3.91,3.91,0,0,1-.91-.1,1.18,1.18,0,0,1-.72-.46,2,2,0,0,1-.29-1.23,2.07,2.07,0,0,1,.29-1.24,1.14,1.14,0,0,1,.73-.44,4.46,4.46,0,0,1,.91-.09h7.82a1.85,1.85,0,0,1,1.33.49,1.65,1.65,0,0,1,.52,1.25,2,2,0,0,1-.14.72,1.39,1.39,0,0,1-.38.55l-5.56,5.2h4.53a4.4,4.4,0,0,1,.92.1,1.1,1.1,0,0,1,.69.47,2.31,2.31,0,0,1,.26,1.25,2.14,2.14,0,0,1-.27,1.22,1.1,1.1,0,0,1-.71.45,6.5,6.5,0,0,1-.92.07Z"/><path class="cls-2" d="M167.7,32.76a2.55,2.55,0,0,1-1.38-.3.83.83,0,0,1-.42-.76l.25-.4a2.72,2.72,0,0,1-.57.58,4.33,4.33,0,0,1-1.12.61,4.55,4.55,0,0,1-1.66.27,5.29,5.29,0,0,1-2.19-.47A5.91,5.91,0,0,1,158.78,31a6.62,6.62,0,0,1-1.28-1.9,5.47,5.47,0,0,1-.47-2.23,5.22,5.22,0,0,1,.48-2.2,6.12,6.12,0,0,1,1.28-1.86,6.42,6.42,0,0,1,1.84-1.28,5.09,5.09,0,0,1,2.18-.47,4.37,4.37,0,0,1,2.66.82,3.38,3.38,0,0,1,.66.64l-.22-.33a1,1,0,0,1,.43-.86,2.55,2.55,0,0,1,1.39-.29,2.35,2.35,0,0,1,1.29.26,1,1,0,0,1,.47.68,4.26,4.26,0,0,1,.09.89V31a4.31,4.31,0,0,1-.09.88,1,1,0,0,1-.48.67A2.62,2.62,0,0,1,167.7,32.76Zm-4.37-3.51a2.28,2.28,0,0,0,1.2-.31,2.59,2.59,0,0,0,.85-.86,2.45,2.45,0,0,0,0-2.42,2.39,2.39,0,0,0-.87-.83,2.44,2.44,0,0,0-1.23-.31,2.51,2.51,0,0,0-1.26.32,2.4,2.4,0,0,0-.9.86,2.22,2.22,0,0,0-.34,1.22,2.13,2.13,0,0,0,.34,1.17,2.41,2.41,0,0,0,.92.84A2.57,2.57,0,0,0,163.33,29.25Z"/><path class="cls-2" d="M184.8,33a7.42,7.42,0,0,1-3-.55A5.77,5.77,0,0,1,179.73,31a5.84,5.84,0,0,1-1.2-2,6.11,6.11,0,0,1-.4-2.16,5.76,5.76,0,0,1,.85-3.13,6.08,6.08,0,0,1,2.36-2.16,7.48,7.48,0,0,1,3.47-.78,6.43,6.43,0,0,1,2.51.44,5.09,5.09,0,0,1,1.75,1.13,4.61,4.61,0,0,1,1,1.49,3.83,3.83,0,0,1,.34,1.53,2.56,2.56,0,0,1-.66,1.93,2.38,2.38,0,0,1-1.69.64h-6a1.55,1.55,0,0,0,.46,1,2.58,2.58,0,0,0,1,.66,3.6,3.6,0,0,0,1.32.24,8.22,8.22,0,0,0,1-.06,4.56,4.56,0,0,0,.79-.16l.58-.21.49-.18a1.74,1.74,0,0,1,.43-.09,1,1,0,0,1,.67.2,1.94,1.94,0,0,1,.58.67,1.78,1.78,0,0,1,.23.49,2,2,0,0,1,.07.47,1.26,1.26,0,0,1-.62,1,4.88,4.88,0,0,1-1.72.69A12.19,12.19,0,0,1,184.8,33Zm-2.67-7h4a1,1,0,0,0,.57-.13c.14-.08.2-.25.2-.5a1.12,1.12,0,0,0-.27-.73,1.75,1.75,0,0,0-.74-.51,3,3,0,0,0-1.08-.18,3.22,3.22,0,0,0-1.35.28,2.25,2.25,0,0,0-.94.76A1.66,1.66,0,0,0,182.13,26Z"/><path class="cls-2" d="M197.32,32.8a16.39,16.39,0,0,1-1.82-.09,4.14,4.14,0,0,1-1.35-.38,2.37,2.37,0,0,1-.9-.79,3.63,3.63,0,0,1-.52-1.29,9,9,0,0,1-.18-1.95V17.43a3.46,3.46,0,0,1,.1-.87,1.1,1.1,0,0,1,.49-.66,2.48,2.48,0,0,1,1.31-.26,2.44,2.44,0,0,1,1.29.26,1,1,0,0,1,.48.66,3.46,3.46,0,0,1,.1.87V28.14a5.22,5.22,0,0,0,0,.62.88.88,0,0,0,.15.39.52.52,0,0,0,.32.19,2.34,2.34,0,0,0,.52.05,2.54,2.54,0,0,1,.61.07.9.9,0,0,1,.54.42,2.22,2.22,0,0,1,.22,1.18,2.47,2.47,0,0,1-.22,1.22.86.86,0,0,1-.54.45A2.73,2.73,0,0,1,197.32,32.8Z"/><path class="cls-2" d="M209,32.79a2.68,2.68,0,0,1-1.31-.25,1,1,0,0,1-.48-.66,4,4,0,0,1-.08-.86V22.73a3.7,3.7,0,0,1,.09-.83,1,1,0,0,1,.49-.63A2.83,2.83,0,0,1,209,21a2.69,2.69,0,0,1,1.18.2,1,1,0,0,1,.48.48,1.39,1.39,0,0,1,.12.53.68.68,0,0,0,.05.34l-.16.45a1.52,1.52,0,0,1,.39-.72,3.6,3.6,0,0,1,.85-.65,4.65,4.65,0,0,1,1.1-.46,4.36,4.36,0,0,1,1.17-.17,5.12,5.12,0,0,1,2.13.42,4.17,4.17,0,0,1,1.59,1.19,5.42,5.42,0,0,1,1,1.82,7.61,7.61,0,0,1,.33,2.3v4.28a4,4,0,0,1-.09.86,1,1,0,0,1-.47.64,2.72,2.72,0,0,1-1.34.24,2.6,2.6,0,0,1-1.33-.25,1,1,0,0,1-.48-.66,4,4,0,0,1-.09-.86V26.76a2.47,2.47,0,0,0-.26-1.2,1.7,1.7,0,0,0-.75-.75,2.58,2.58,0,0,0-1.21-.26,2.71,2.71,0,0,0-1.25.27,1.92,1.92,0,0,0-.81.76,2.34,2.34,0,0,0-.29,1.18V31a4,4,0,0,1-.09.86,1,1,0,0,1-.48.65A2.62,2.62,0,0,1,209,32.79Z"/><path class="cls-2" d="M227,32.8a5.71,5.71,0,0,1-2.17-.43,5.32,5.32,0,0,1-2.91-3,6.15,6.15,0,0,1-.41-2.3V22.81a4,4,0,0,1,.09-.87,1.05,1.05,0,0,1,.49-.66,2.52,2.52,0,0,1,1.32-.26,2.48,2.48,0,0,1,1.31.26,1.09,1.09,0,0,1,.48.68,4.06,4.06,0,0,1,.08.88v4.23a2.58,2.58,0,0,0,.26,1.19,1.76,1.76,0,0,0,.78.77,2.67,2.67,0,0,0,1.21.26,2.64,2.64,0,0,0,1.24-.27,2,2,0,0,0,.8-.77,2.31,2.31,0,0,0,.29-1.17V22.79a4,4,0,0,1,.09-.87,1,1,0,0,1,.49-.64,2.53,2.53,0,0,1,1.32-.25,2.45,2.45,0,0,1,1.31.26,1.07,1.07,0,0,1,.48.67,4,4,0,0,1,.09.86V31.1a3.73,3.73,0,0,1-.09.84.94.94,0,0,1-.49.62,2.62,2.62,0,0,1-1.3.24,3.2,3.2,0,0,1-1.05-.14,1.38,1.38,0,0,1-.55-.36,1,1,0,0,1-.21-.44,3.62,3.62,0,0,1,0-.43l.33-.26a2.63,2.63,0,0,1-.33.37,5.33,5.33,0,0,1-.66.54,4.55,4.55,0,0,1-1,.5A3.37,3.37,0,0,1,227,32.8Zm-.39-12.6a.88.88,0,0,1-.74-.23,2.53,2.53,0,0,1-.51-.94,1.89,1.89,0,0,1-.1-1.23,1.37,1.37,0,0,1,.93-.63l4.4-1.27a.89.89,0,0,1,.72.27,2.18,2.18,0,0,1,.5.93,1.62,1.62,0,0,1,.09,1.2,1.33,1.33,0,0,1-.91.63Z"/><path class="cls-2" d="M238,32.82a2.52,2.52,0,0,1-1.3-.25,1,1,0,0,1-.47-.66,4.79,4.79,0,0,1-.08-.88V22.8a3.89,3.89,0,0,1,.09-.85,1,1,0,0,1,.49-.65,2.66,2.66,0,0,1,1.32-.24,2.12,2.12,0,0,1,1.35.34,1.36,1.36,0,0,1,.42,1.12l-.32.26a1.52,1.52,0,0,1,.3-.4,4.29,4.29,0,0,1,.65-.59,4,4,0,0,1,.94-.53,3,3,0,0,1,1.16-.22,4.62,4.62,0,0,1,1.49.22,3.91,3.91,0,0,1,1.2.66,4.13,4.13,0,0,1,.93,1.09,6.58,6.58,0,0,1,.86-.91,4.63,4.63,0,0,1,1.17-.76,3.73,3.73,0,0,1,1.53-.3,4.07,4.07,0,0,1,4,2.68,8.39,8.39,0,0,1,.52,3.14v4.21a3.49,3.49,0,0,1-.1.86,1.1,1.1,0,0,1-.49.66,2.62,2.62,0,0,1-1.31.24,2.49,2.49,0,0,1-1.33-.26,1,1,0,0,1-.47-.67,4.74,4.74,0,0,1-.08-.86V26.83a3.38,3.38,0,0,0-.19-1.21,1.61,1.61,0,0,0-.54-.78,1.42,1.42,0,0,0-.9-.27,1.75,1.75,0,0,0-1,.26,1.51,1.51,0,0,0-.6.75,3.28,3.28,0,0,0-.2,1.27v4.21A3.19,3.19,0,0,1,247,32a1.19,1.19,0,0,1-.54.66,2.7,2.7,0,0,1-1.34.22,2.21,2.21,0,0,1-1.25-.27,1.06,1.06,0,0,1-.45-.69,4.57,4.57,0,0,1-.07-.83V26.83a4.11,4.11,0,0,0-.17-1.23,1.6,1.6,0,0,0-.53-.78,1.52,1.52,0,0,0-.92-.25,1.68,1.68,0,0,0-1,.3,1.78,1.78,0,0,0-.58.81,3.17,3.17,0,0,0-.19,1.14v4.24a4.77,4.77,0,0,1-.08.87,1,1,0,0,1-.49.65A2.62,2.62,0,0,1,238,32.82Z"/><path class="cls-2" d="M262.9,33.05a7.6,7.6,0,0,1-3-.54,5.83,5.83,0,0,1-2.07-1.43,5.93,5.93,0,0,1-1.19-2,6.2,6.2,0,0,1-.4-2.17,5.76,5.76,0,0,1,.85-3.13,5.92,5.92,0,0,1,2.36-2.15,7.36,7.36,0,0,1,3.47-.79,6.62,6.62,0,0,1,2.51.44,5.24,5.24,0,0,1,1.75,1.13,4.61,4.61,0,0,1,1,1.49,3.9,3.9,0,0,1,.34,1.53,2.51,2.51,0,0,1-.67,1.93,2.3,2.3,0,0,1-1.68.64h-5.95a1.55,1.55,0,0,0,.46,1,2.86,2.86,0,0,0,1,.66,3.91,3.91,0,0,0,1.33.23c.38,0,.73,0,1-.05a4.49,4.49,0,0,0,.79-.17l.58-.21.49-.18.43-.09a1,1,0,0,1,.67.2,1.94,1.94,0,0,1,.58.67,1.71,1.71,0,0,1,.23.5,1.84,1.84,0,0,1,.06.47,1.24,1.24,0,0,1-.61,1,4.88,4.88,0,0,1-1.72.69A11.67,11.67,0,0,1,262.9,33.05Zm-2.67-7h3.95a1.1,1.1,0,0,0,.57-.12.56.56,0,0,0,.2-.51,1.12,1.12,0,0,0-.27-.73,1.82,1.82,0,0,0-.74-.51,3.24,3.24,0,0,0-1.09-.17,3.11,3.11,0,0,0-1.35.28,2.34,2.34,0,0,0-.93.75A1.66,1.66,0,0,0,260.23,26.08Z"/><path class="cls-2" d="M272.5,32.84a2.59,2.59,0,0,1-1.31-.24,1,1,0,0,1-.48-.67,4.31,4.31,0,0,1-.09-.88V22.84a4,4,0,0,1,.09-.87,1,1,0,0,1,.49-.65,3.73,3.73,0,0,1,2.58,0,1,1,0,0,1,.49.52,1.47,1.47,0,0,1,.1.5l-.3.15a2.08,2.08,0,0,1,.26-.35,3.55,3.55,0,0,1,.59-.51,3.37,3.37,0,0,1,.91-.46,3.63,3.63,0,0,1,1.24-.19,4.55,4.55,0,0,1,.61,0,3.62,3.62,0,0,1,.7.14,2.87,2.87,0,0,1,.67.28,1.46,1.46,0,0,1,.48.44,1,1,0,0,1,.19.63,2.74,2.74,0,0,1-.48,1.64,1.42,1.42,0,0,1-1.2.67,2.11,2.11,0,0,1-.6-.06,1.22,1.22,0,0,1-.28-.14,1.15,1.15,0,0,0-.27-.14,1.68,1.68,0,0,0-.55-.06,2.76,2.76,0,0,0-.71.09,2.24,2.24,0,0,0-.63.29,1.4,1.4,0,0,0-.44.5,1.33,1.33,0,0,0-.17.67V31.1a4,4,0,0,1-.09.86,1,1,0,0,1-.49.65A2.71,2.71,0,0,1,272.5,32.84Z"/><path class="cls-2" d="M283.42,37.72a2.52,2.52,0,0,1-1.3-.25.93.93,0,0,1-.48-.63,4.46,4.46,0,0,1-.07-.84V22.85a4.54,4.54,0,0,1,.07-.86,1,1,0,0,1,.47-.65,2.4,2.4,0,0,1,1.28-.26,3,3,0,0,1,1.24.21,1.33,1.33,0,0,1,.66.66V36a3,3,0,0,1-.08.85,1.08,1.08,0,0,1-.49.65A2.62,2.62,0,0,1,283.42,37.72Zm4.8-5.08a4.76,4.76,0,0,1-2.15-.46,4.35,4.35,0,0,1-1.53-1.25,5.5,5.5,0,0,1-.93-1.82,7.06,7.06,0,0,1-.28-2.24,7.27,7.27,0,0,1,.32-2.2,6,6,0,0,1,.94-1.86,4.38,4.38,0,0,1,1.53-1.27,4.71,4.71,0,0,1,2.11-.46,5,5,0,0,1,2.15.48,6.28,6.28,0,0,1,1.84,1.28,6.13,6.13,0,0,1,1.27,1.87A5.51,5.51,0,0,1,294,27a5.42,5.42,0,0,1-.46,2.22A5.73,5.73,0,0,1,292.22,31a6,6,0,0,1-1.82,1.21A5.54,5.54,0,0,1,288.22,32.64Zm-.5-3.32A2.44,2.44,0,0,0,289,29a2.53,2.53,0,0,0,.89-.86,2.18,2.18,0,0,0,.34-1.2,2.34,2.34,0,0,0-.32-1.2,2.27,2.27,0,0,0-.89-.85,2.6,2.6,0,0,0-2.48,0,2.29,2.29,0,0,0-.87.85,2.41,2.41,0,0,0,0,2.38,2.39,2.39,0,0,0,.87.86A2.3,2.3,0,0,0,287.72,29.32Z"/><path class="cls-2" d="M305.15,22.81a2.08,2.08,0,0,1-1.3.58,1.94,1.94,0,0,1-1.25-.7A1.7,1.7,0,0,1,302,21.4a2,2,0,0,1,.87-1.3l3.73-3.1a1.87,1.87,0,0,1,1.29-.54,2,2,0,0,1,1.24.73,1.6,1.6,0,0,1,.61,1.26,2.1,2.1,0,0,1-.89,1.28Zm3.15,10.1a2,2,0,0,1-1.44-.4,1.92,1.92,0,0,1-.41-1.39V18.18a1.84,1.84,0,0,1,.41-1.38,2.13,2.13,0,0,1,1.46-.39,2.15,2.15,0,0,1,1.47.4,2,2,0,0,1,.41,1.42V31.15a1.79,1.79,0,0,1-.42,1.37A2.15,2.15,0,0,1,308.3,32.91Z"/><path class="cls-2" d="M314.07,32.84a1.83,1.83,0,0,1-1.32-.55,1.69,1.69,0,0,1-.58-1.26,3.44,3.44,0,0,1,.09-.8,3,3,0,0,1,.28-.73,2.28,2.28,0,0,1,.49-.63,13.74,13.74,0,0,1,2-1.55c.72-.46,1.43-.9,2.14-1.31s1.36-.83,1.95-1.25a5.86,5.86,0,0,0,1.41-1.34,2.6,2.6,0,0,0,.53-1.56,2.38,2.38,0,0,0-.21-1,1.74,1.74,0,0,0-.75-.8,3.07,3.07,0,0,0-1.54-.32,3.41,3.41,0,0,0-1.11.17,1.9,1.9,0,0,0-.8.49,2,2,0,0,0-.46.8A3.23,3.23,0,0,0,316,22.3a4.44,4.44,0,0,1-.08.84,1,1,0,0,1-.49.62,2.82,2.82,0,0,1-1.35.23,2.44,2.44,0,0,1-1.34-.27,1,1,0,0,1-.47-.7,4.41,4.41,0,0,1-.09-.89,5.82,5.82,0,0,1,.43-2.2,5.56,5.56,0,0,1,1.25-1.9,6,6,0,0,1,2-1.33,6.73,6.73,0,0,1,2.65-.49,6.85,6.85,0,0,1,3.26.76A5.85,5.85,0,0,1,324,19.08a5.69,5.69,0,0,1,.84,3.08,5,5,0,0,1-.36,1.91,7,7,0,0,1-.94,1.59,8.67,8.67,0,0,1-1.29,1.28,13.87,13.87,0,0,1-1.44,1c-.48.29-.93.54-1.35.74l-1.05.52-.35,0h5.52a4.62,4.62,0,0,1,.94.09,1.14,1.14,0,0,1,.7.47,2.31,2.31,0,0,1,.26,1.28,2.17,2.17,0,0,1-.27,1.21,1.15,1.15,0,0,1-.73.47,5.7,5.7,0,0,1-.95.08Z"/><path class="cls-4" d="M55.47,33.47c0,2.13-.4,3.65-1.19,4.56A4.48,4.48,0,0,1,50.7,39.4a5.86,5.86,0,0,1-2.57-.48,3.08,3.08,0,0,1-1.49-1.74,9.62,9.62,0,0,1-.54-3.4L46,19a6.68,6.68,0,0,1-3.22-.69A2.42,2.42,0,0,1,41.55,16a2.59,2.59,0,0,1,1.16-2.16A5.47,5.47,0,0,1,46,13l2.3,0c1,0,1.7,0,2.1,0,2,0,3.36.32,4.06,1a4.51,4.51,0,0,1,1,3.38Z"/><path class="cls-4" d="M72.29,32.08h4.53q3.42,0,3.42,3.72a3.65,3.65,0,0,1-1.09,3c-.72.6-2,.89-3.85.89h-11a7.23,7.23,0,0,1-3.89-.73c-.69-.49-1-1.53-1-3.14a5.05,5.05,0,0,1,.16-1.37,3.18,3.18,0,0,1,.61-1.12,5.31,5.31,0,0,1,1.23-1.07c1.46-1,2.62-1.71,3.46-2.29s1.67-1.2,2.47-1.84A13,13,0,0,0,69,26.45a9.5,9.5,0,0,0,1-1.57,5.49,5.49,0,0,0,.61-1.74,12.2,12.2,0,0,0,.15-2.05c0-1.48-.47-2.22-1.43-2.22s-1.54.87-1.55,2.61a1.84,1.84,0,0,1-1,1.9,7.38,7.38,0,0,1-2.89.44c-1.74,0-2.91-.37-3.52-1.11A5.8,5.8,0,0,1,59.55,19a5.11,5.11,0,0,1,2.51-4.29,12.3,12.3,0,0,1,7-1.72q11.08,0,11.08,8.19a12.88,12.88,0,0,1-.45,3.46,10.24,10.24,0,0,1-1.11,2.61,8.31,8.31,0,0,1-1.77,2,16.94,16.94,0,0,1-2.1,1.55A27.08,27.08,0,0,1,72.29,32.08Z"/><path class="cls-5" d="M55.47,33.47c0,2.13-.4,3.65-1.19,4.56A4.48,4.48,0,0,1,50.7,39.4a5.86,5.86,0,0,1-2.57-.48,3.08,3.08,0,0,1-1.49-1.74,9.62,9.62,0,0,1-.54-3.4L46,19a6.68,6.68,0,0,1-3.22-.69A2.42,2.42,0,0,1,41.55,16a2.59,2.59,0,0,1,1.16-2.16A5.47,5.47,0,0,1,46,13l2.3,0c1,0,1.7,0,2.1,0,2,0,3.36.32,4.06,1a4.51,4.51,0,0,1,1,3.38Z"/><path class="cls-5" d="M72.29,32.08h4.53q3.42,0,3.42,3.72a3.65,3.65,0,0,1-1.09,3c-.72.6-2,.89-3.85.89h-11a7.23,7.23,0,0,1-3.89-.73c-.69-.49-1-1.53-1-3.14a5.05,5.05,0,0,1,.16-1.37,3.18,3.18,0,0,1,.61-1.12,5.31,5.31,0,0,1,1.23-1.07c1.46-1,2.62-1.71,3.46-2.29s1.67-1.2,2.47-1.84A13,13,0,0,0,69,26.45a9.5,9.5,0,0,0,1-1.57,5.49,5.49,0,0,0,.61-1.74,12.2,12.2,0,0,0,.15-2.05c0-1.48-.47-2.22-1.43-2.22s-1.54.87-1.55,2.61a1.84,1.84,0,0,1-1,1.9,7.38,7.38,0,0,1-2.89.44c-1.74,0-2.91-.37-3.52-1.11A5.8,5.8,0,0,1,59.55,19a5.11,5.11,0,0,1,2.51-4.29,12.3,12.3,0,0,1,7-1.72q11.08,0,11.08,8.19a12.88,12.88,0,0,1-.45,3.46,10.24,10.24,0,0,1-1.11,2.61,8.31,8.31,0,0,1-1.77,2,16.94,16.94,0,0,1-2.1,1.55A27.08,27.08,0,0,1,72.29,32.08Z"/></g></g></svg>