<svg xmlns="http://www.w3.org/2000/svg" viewBox="0 0 399.98 99.09"><defs><style>.cls-1{fill:#03826e;}.cls-2{fill:#fff;}.cls-3,.cls-4{fill:none;stroke-width:5px;}.cls-3{stroke:#b6ba01;stroke-linejoin:round;}.cls-4{stroke:#fff;}.cls-5{fill:#b6ba01;}</style></defs><title>24t</title><g id="Layer_2" data-name="Layer 2"><g id="pestaña_identificativa" data-name="pestaña identificativa"><rect class="cls-1" width="399.98" height="99.09" rx="32.4"/><path class="cls-2" d="M119.73,34.6a8.64,8.64,0,0,1-2.33-.34,9.39,9.39,0,0,1-2.41-1,9.05,9.05,0,0,1-2.13-1.79,8,8,0,0,1-1.51-2.55,9.14,9.14,0,0,1-.57-3.32,8.79,8.79,0,0,1,.57-3.24,8.26,8.26,0,0,1,1.51-2.46A9.24,9.24,0,0,1,115,18.11a9.69,9.69,0,0,1,2.41-1,8.89,8.89,0,0,1,2.39-.34,7.36,7.36,0,0,1,2.22.3,8.09,8.09,0,0,1,1.54.63l.76.42a7.94,7.94,0,0,1,.85.65,1.25,1.25,0,0,1,.43.9,1.81,1.81,0,0,1-.11.6,2.61,2.61,0,0,1-.34.6,3.23,3.23,0,0,1-.78.84,1.23,1.23,0,0,1-.72.26,1.19,1.19,0,0,1-.58-.15c-.18-.1-.4-.23-.65-.4s-.28-.18-.5-.31a3.85,3.85,0,0,0-.88-.34,5.82,5.82,0,0,0-3.16.15,5.18,5.18,0,0,0-1.63.92,4.58,4.58,0,0,0-1.2,1.59,5.45,5.45,0,0,0-.46,2.26,5,5,0,0,0,.47,2.25,4.57,4.57,0,0,0,1.21,1.58,5.18,5.18,0,0,0,1.64.94,5.1,5.1,0,0,0,1.73.31,4.73,4.73,0,0,0,1.28-.15,4.64,4.64,0,0,0,.92-.36c.27-.14.49-.27.68-.39l.56-.32a1.26,1.26,0,0,1,.59-.15,1.19,1.19,0,0,1,.71.27,3.44,3.44,0,0,1,.74.88,2.6,2.6,0,0,1,.33.64,1.7,1.7,0,0,1,.12.61,1,1,0,0,1-.42.86,6.38,6.38,0,0,1-.86.61l-.75.44a7.19,7.19,0,0,1-1.53.62A7.59,7.59,0,0,1,119.73,34.6Z"/><path class="cls-2" d="M137.93,34.39a2.34,2.34,0,0,1-1.38-.33.89.89,0,0,1-.42-.8l.25-.42a3,3,0,0,1-.57.61,4.17,4.17,0,0,1-2.78.93,4.88,4.88,0,0,1-2.19-.5A5.85,5.85,0,0,1,129,32.49a7.21,7.21,0,0,1-1.27-2,6.13,6.13,0,0,1,0-4.71,6.9,6.9,0,0,1,1.29-2,6.7,6.7,0,0,1,1.84-1.36,4.94,4.94,0,0,1,2.18-.5,4.09,4.09,0,0,1,1.57.27,4.32,4.32,0,0,1,1.09.61,3.2,3.2,0,0,1,.66.68l-.22-.35a1.05,1.05,0,0,1,.43-.92,2.53,2.53,0,0,1,1.39-.31,2.24,2.24,0,0,1,1.29.28,1.1,1.1,0,0,1,.47.72,4.86,4.86,0,0,1,.09.95v8.63a4.63,4.63,0,0,1-.09.92,1.11,1.11,0,0,1-.48.72A2.48,2.48,0,0,1,137.93,34.39Zm-4.37-3.73a2.13,2.13,0,0,0,1.2-.34,2.57,2.57,0,0,0,.85-.91,2.6,2.6,0,0,0,.32-1.27,2.57,2.57,0,0,0-.32-1.29,2.42,2.42,0,0,0-.88-.89,2.4,2.4,0,0,0-1.22-.33,2.42,2.42,0,0,0-1.26.34,2.53,2.53,0,0,0-.9.91,2.5,2.5,0,0,0-.34,1.3,2.4,2.4,0,0,0,.33,1.24,2.6,2.6,0,0,0,2.22,1.24Z"/><path class="cls-2" d="M144.13,34.42a2.39,2.39,0,0,1-1.3-.28,1.05,1.05,0,0,1-.48-.7,5.33,5.33,0,0,1-.07-.93V23.76a5.29,5.29,0,0,1,.08-.9,1,1,0,0,1,.49-.68,2.49,2.49,0,0,1,1.33-.26,2.09,2.09,0,0,1,1.35.36,1.5,1.5,0,0,1,.42,1.19l-.32.27a1.88,1.88,0,0,1,.3-.42,4.38,4.38,0,0,1,.65-.63,4.17,4.17,0,0,1,.93-.56,2.85,2.85,0,0,1,1.17-.24,4.29,4.29,0,0,1,1.48.24,3.71,3.71,0,0,1,1.2.7,4.55,4.55,0,0,1,.94,1.16,6.79,6.79,0,0,1,.85-1,4.8,4.8,0,0,1,1.18-.8,3.53,3.53,0,0,1,1.52-.32,4.08,4.08,0,0,1,2.49.74,4.53,4.53,0,0,1,1.54,2.11,9.6,9.6,0,0,1,.52,3.32v4.48a3.85,3.85,0,0,1-.1.91,1.11,1.11,0,0,1-.48.7,2.42,2.42,0,0,1-1.32.26,2.46,2.46,0,0,1-1.32-.27,1,1,0,0,1-.48-.71,5.53,5.53,0,0,1-.07-.92V28.05a4.1,4.1,0,0,0-.18-1.29,1.94,1.94,0,0,0-.54-.83,1.36,1.36,0,0,0-.9-.28,1.56,1.56,0,0,0-1.58,1.07,3.92,3.92,0,0,0-.2,1.35v4.48a3.12,3.12,0,0,1-.13.93,1.19,1.19,0,0,1-.53.7,2.39,2.39,0,0,1-1.34.24,2.11,2.11,0,0,1-1.25-.29,1.12,1.12,0,0,1-.45-.72,5.35,5.35,0,0,1-.08-.89V28a4.21,4.21,0,0,0-.18-1.3,1.62,1.62,0,0,0-.52-.82,1.41,1.41,0,0,0-.93-.28,1.54,1.54,0,0,0-1,.33,1.85,1.85,0,0,0-.59.86A3.79,3.79,0,0,0,146,28v4.5a4.52,4.52,0,0,1-.09.93,1,1,0,0,1-.49.68A2.43,2.43,0,0,1,144.13,34.42Z"/><path class="cls-2" d="M164.86,20.13a2.43,2.43,0,0,1-1.35-.28,1.08,1.08,0,0,1-.48-.72,4.86,4.86,0,0,1-.09-.95,4.92,4.92,0,0,1,.09-1,1,1,0,0,1,.5-.7,2.69,2.69,0,0,1,1.36-.26,2.4,2.4,0,0,1,1.32.28,1.09,1.09,0,0,1,.49.72,5,5,0,0,1,.09,1,4.63,4.63,0,0,1-.09.92,1.09,1.09,0,0,1-.49.72A2.62,2.62,0,0,1,164.86,20.13Zm0,14.3a2.46,2.46,0,0,1-1.32-.27,1,1,0,0,1-.48-.69,5.53,5.53,0,0,1-.07-.92V23.83a4.63,4.63,0,0,1,.09-.92,1,1,0,0,1,.49-.69,2.47,2.47,0,0,1,1.33-.27,2.29,2.29,0,0,1,1.28.28,1.12,1.12,0,0,1,.48.71,4.7,4.7,0,0,1,.08.94v8.7a4.46,4.46,0,0,1-.09.91,1.08,1.08,0,0,1-.47.69A2.53,2.53,0,0,1,164.85,34.43Z"/><path class="cls-2" d="M171.28,34.41a2.35,2.35,0,0,1-1.31-.27,1.07,1.07,0,0,1-.48-.7,4.46,4.46,0,0,1-.09-.91v-8.8a4.19,4.19,0,0,1,.09-.89,1,1,0,0,1,.49-.66,3.52,3.52,0,0,1,2.5,0,1,1,0,0,1,.48.52,1.53,1.53,0,0,1,.12.56.66.66,0,0,0,0,.36l-.16.48a1.54,1.54,0,0,1,.39-.76,3.74,3.74,0,0,1,.85-.7,4.93,4.93,0,0,1,1.1-.49,4,4,0,0,1,1.17-.18,5.13,5.13,0,0,1,2.13.44,4.37,4.37,0,0,1,1.59,1.27,6,6,0,0,1,1,1.93,8.62,8.62,0,0,1,.33,2.44v4.55a4.63,4.63,0,0,1-.09.92,1,1,0,0,1-.47.68,3.62,3.62,0,0,1-2.67,0,1.06,1.06,0,0,1-.48-.7,4.53,4.53,0,0,1-.09-.91V28a2.81,2.81,0,0,0-.26-1.28,1.87,1.87,0,0,0-.75-.8,2.84,2.84,0,0,0-2.46,0,2,2,0,0,0-.81.81,2.46,2.46,0,0,0-.29,1.25v4.55a5.31,5.31,0,0,1-.08.91,1.06,1.06,0,0,1-.48.69A2.6,2.6,0,0,1,171.28,34.41Z"/><path class="cls-2" d="M190,34.64a6.25,6.25,0,0,1-2.34-.46,7.24,7.24,0,0,1-2.11-1.31,6.38,6.38,0,0,1-1.51-2,6,6,0,0,1-.56-2.64,6.16,6.16,0,0,1,.51-2.51,6.63,6.63,0,0,1,1.41-2.06,6.88,6.88,0,0,1,2.07-1.42,6.09,6.09,0,0,1,2.49-.51,6.26,6.26,0,0,1,3.26.87,6.45,6.45,0,0,1,2.33,2.34,6.4,6.4,0,0,1-1.19,8,6.53,6.53,0,0,1-2.07,1.29A6.4,6.4,0,0,1,190,34.64Zm0-3.77a2.85,2.85,0,0,0,1.23-.3,2.81,2.81,0,0,0,1.05-.9,2.61,2.61,0,0,0,.42-1.53,2.67,2.67,0,0,0-.35-1.4,2.39,2.39,0,0,0-1-.93,2.83,2.83,0,0,0-1.41-.34,2.51,2.51,0,0,0-1.34.35,2.65,2.65,0,0,0-.95,1,2.69,2.69,0,0,0-.36,1.39,2.6,2.6,0,0,0,.41,1.51,2.43,2.43,0,0,0,1,.9A2.9,2.9,0,0,0,189.93,30.87Z"/><path class="cls-2" d="M215.15,34.43a2.41,2.41,0,0,1-1.37-.32.93.93,0,0,1-.43-.8l.25-.43a2.72,2.72,0,0,1-.57.61,4.08,4.08,0,0,1-1.12.65,4.29,4.29,0,0,1-1.66.29,5,5,0,0,1-2.18-.5,5.78,5.78,0,0,1-1.84-1.39,7,7,0,0,1-1.27-2,6,6,0,0,1-.48-2.38,5.87,5.87,0,0,1,.48-2.34,6.62,6.62,0,0,1,3.12-3.33,5,5,0,0,1,2.18-.5,4.26,4.26,0,0,1,1.57.26,4.16,4.16,0,0,1,1.09.62,3.18,3.18,0,0,1,.66.67l-.22-.35a1.05,1.05,0,0,1,.44-.91,2.4,2.4,0,0,1,1.39-.31,2.3,2.3,0,0,1,1.28.27A1.16,1.16,0,0,1,217,23a4.87,4.87,0,0,1,.08.95v8.62a4.73,4.73,0,0,1-.09.93,1.09,1.09,0,0,1-.47.71A2.42,2.42,0,0,1,215.15,34.43Zm-4.37-3.72a2.21,2.21,0,0,0,1.2-.34,2.66,2.66,0,0,0,.85-.91,2.67,2.67,0,0,0,0-2.57,2.45,2.45,0,0,0-3.36-.87,2.61,2.61,0,0,0-.9.91,2.47,2.47,0,0,0-.34,1.3,2.34,2.34,0,0,0,.34,1.24,2.56,2.56,0,0,0,.92.9A2.59,2.59,0,0,0,210.78,30.71Z"/><path class="cls-2" d="M221.4,34.44a2.39,2.39,0,0,1-1.31-.27,1,1,0,0,1-.47-.7,4.46,4.46,0,0,1-.09-.91v-8.8a4.19,4.19,0,0,1,.09-.89,1,1,0,0,1,.49-.66,2.69,2.69,0,0,1,1.32-.25,2.37,2.37,0,0,1,1.18.22,1,1,0,0,1,.49.51,1.68,1.68,0,0,1,.11.56.91.91,0,0,0,0,.36l-.15.48a1.39,1.39,0,0,1,.39-.76,3.15,3.15,0,0,1,.85-.7,4.73,4.73,0,0,1,1.1-.49,3.93,3.93,0,0,1,1.16-.17,5,5,0,0,1,2.14.43,4.42,4.42,0,0,1,1.58,1.27,5.6,5.6,0,0,1,1,1.93,8.27,8.27,0,0,1,.34,2.44v4.55a5.52,5.52,0,0,1-.08.92,1,1,0,0,1-.48.68,2.57,2.57,0,0,1-1.34.25,2.54,2.54,0,0,1-1.32-.26,1.08,1.08,0,0,1-.49-.7,4.53,4.53,0,0,1-.09-.91V28a2.74,2.74,0,0,0-.27-1.27,1.76,1.76,0,0,0-.75-.8,2.33,2.33,0,0,0-1.21-.28,2.48,2.48,0,0,0-1.25.29,2,2,0,0,0-.81.81,2.59,2.59,0,0,0-.29,1.25v4.55a4.53,4.53,0,0,1-.09.91,1.08,1.08,0,0,1-.47.69A2.64,2.64,0,0,1,221.4,34.44Z"/><path class="cls-2" d="M239.28,34.15a5,5,0,0,1-2.16-.49,5.72,5.72,0,0,1-1.79-1.34,6.58,6.58,0,0,1-1.23-1.95,6.27,6.27,0,0,1-.44-2.33,6,6,0,0,1,.45-2.31,6.27,6.27,0,0,1,1.24-1.92,6,6,0,0,1,1.8-1.33,4.86,4.86,0,0,1,2.11-.48,3.74,3.74,0,0,1,1.9.44,3.26,3.26,0,0,1,1.25,1.25,6.39,6.39,0,0,1,.71,1.92,11.82,11.82,0,0,1,.24,2.49,11,11,0,0,1-.42,3.21,4.2,4.2,0,0,1-1.3,2.1A3.58,3.58,0,0,1,239.28,34.15Zm.44,5.47A7,7,0,0,1,238,39.4a7.92,7.92,0,0,1-1.59-.6,4.39,4.39,0,0,1-1.14-.81,1.19,1.19,0,0,1-.43-.85,1.77,1.77,0,0,1,.15-.73,2.46,2.46,0,0,1,.45-.67,7.15,7.15,0,0,1,.6-.57,1,1,0,0,1,.6-.2,1.09,1.09,0,0,1,.63.19l.58.41a3.41,3.41,0,0,0,.79.41,3.21,3.21,0,0,0,1.2.19,2.46,2.46,0,0,0,.94-.18,2.15,2.15,0,0,0,.75-.55,3.12,3.12,0,0,0,.5-.85,3.15,3.15,0,0,0,.19-1.09V23.15a1.21,1.21,0,0,1,.52-.94,2.37,2.37,0,0,1,1.33-.28,2.2,2.2,0,0,1,1.25.26,1.08,1.08,0,0,1,.47.69,4.31,4.31,0,0,1,.08.9v9.87a5.88,5.88,0,0,1-.53,2.54,5.61,5.61,0,0,1-1.4,1.87,6,6,0,0,1-2,1.16A6.28,6.28,0,0,1,239.72,39.62Zm0-9.1a2.18,2.18,0,0,0,1.2-.33,2.56,2.56,0,0,0,.84-.89,2.6,2.6,0,0,0,0-2.5,2.27,2.27,0,0,0-2.06-1.2,2.21,2.21,0,0,0-1.2.33,2.65,2.65,0,0,0-.84.89,2.57,2.57,0,0,0-.31,1.25,2.45,2.45,0,0,0,.32,1.23,2.62,2.62,0,0,0,.87.88A2.14,2.14,0,0,0,239.7,30.52Z"/><path class="cls-2" d="M253.78,34.46A5.1,5.1,0,0,1,251.6,34a5.29,5.29,0,0,1-1.75-1.26,5.8,5.8,0,0,1-1.16-1.92,7.14,7.14,0,0,1-.41-2.44V23.85a4.42,4.42,0,0,1,.09-.92,1.08,1.08,0,0,1,.49-.7,2.44,2.44,0,0,1,1.32-.28,2.4,2.4,0,0,1,1.32.28,1.14,1.14,0,0,1,.47.71,4.69,4.69,0,0,1,.09.94v4.5a2.78,2.78,0,0,0,.26,1.26,1.8,1.8,0,0,0,.77.82,2.57,2.57,0,0,0,1.21.27,2.4,2.4,0,0,0,1.24-.29,2,2,0,0,0,.8-.81,2.57,2.57,0,0,0,.29-1.25V23.83a4.42,4.42,0,0,1,.09-.92,1.08,1.08,0,0,1,.49-.69,2.57,2.57,0,0,1,1.32-.26,2.41,2.41,0,0,1,1.32.27,1.15,1.15,0,0,1,.47.72,4.46,4.46,0,0,1,.09.91v8.8a5,5,0,0,1-.08.89,1.06,1.06,0,0,1-.49.66,2.52,2.52,0,0,1-1.3.25,2.92,2.92,0,0,1-1-.15,1.25,1.25,0,0,1-.55-.38.91.91,0,0,1-.21-.47,2.57,2.57,0,0,1,0-.45l.32-.28a2.39,2.39,0,0,1-.32.39,5.89,5.89,0,0,1-.66.58,4.69,4.69,0,0,1-1,.53A3.31,3.31,0,0,1,253.78,34.46Z"/><path class="cls-2" d="M267.7,34.49a14.14,14.14,0,0,1-1.82-.1,3.77,3.77,0,0,1-1.35-.4,2.42,2.42,0,0,1-.9-.84,4.19,4.19,0,0,1-.53-1.38,10.73,10.73,0,0,1-.17-2.06V18.16a3.82,3.82,0,0,1,.1-.92,1.11,1.11,0,0,1,.49-.7,2.25,2.25,0,0,1,1.31-.28,2.33,2.33,0,0,1,1.29.28,1.17,1.17,0,0,1,.48.7,3.82,3.82,0,0,1,.1.92V29.54a5.86,5.86,0,0,0,0,.66,1,1,0,0,0,.15.41.54.54,0,0,0,.31.2,2,2,0,0,0,.53.05,2.62,2.62,0,0,1,.61.08.89.89,0,0,1,.54.45,2.58,2.58,0,0,1,.22,1.25,2.81,2.81,0,0,1-.22,1.3.83.83,0,0,1-.54.47A2.29,2.29,0,0,1,267.7,34.49Z"/><path class="cls-2" d="M281.13,34.47a2.42,2.42,0,0,1-1.38-.32.9.9,0,0,1-.42-.8l.25-.43a2.59,2.59,0,0,1-.58.61,3.87,3.87,0,0,1-1.11.65,4.33,4.33,0,0,1-1.66.29A5,5,0,0,1,274,34a5.89,5.89,0,0,1-1.84-1.39,7,7,0,0,1-1.27-2,6,6,0,0,1-.47-2.38,5.86,5.86,0,0,1,.47-2.34,6.72,6.72,0,0,1,1.29-2,6.37,6.37,0,0,1,1.84-1.36,4.93,4.93,0,0,1,2.17-.5,4.32,4.32,0,0,1,1.58.26,4.51,4.51,0,0,1,1.09.62,3.18,3.18,0,0,1,.66.67l-.23-.35a1.05,1.05,0,0,1,.44-.91,2.42,2.42,0,0,1,1.39-.31,2.34,2.34,0,0,1,1.29.27,1.15,1.15,0,0,1,.47.73A4.86,4.86,0,0,1,283,24v8.62a4.73,4.73,0,0,1-.09.93,1,1,0,0,1-.47.71A2.41,2.41,0,0,1,281.13,34.47Zm-4.38-3.73a2.13,2.13,0,0,0,1.2-.33,2.68,2.68,0,0,0,.86-.91,2.74,2.74,0,0,0,0-2.57,2.4,2.4,0,0,0-.88-.88,2.3,2.3,0,0,0-1.22-.33,2.39,2.39,0,0,0-1.27.34,2.61,2.61,0,0,0-.9.91,2.56,2.56,0,0,0-.33,1.3,2.42,2.42,0,0,0,.33,1.24,2.56,2.56,0,0,0,2.21,1.23Z"/><path class="cls-2" d="M287.38,34.5a2.52,2.52,0,0,1-1.32-.26,1.14,1.14,0,0,1-.47-.71,4.73,4.73,0,0,1-.09-.93V23.88a4.45,4.45,0,0,1,.09-.93,1.07,1.07,0,0,1,.48-.69,2.59,2.59,0,0,1,1.33-.26,2.5,2.5,0,0,1,1.26.24,1.06,1.06,0,0,1,.49.55,1.73,1.73,0,0,1,.1.54l-.3.15a2,2,0,0,1,.26-.36,3.59,3.59,0,0,1,.59-.56,3.39,3.39,0,0,1,.91-.48,3.62,3.62,0,0,1,1.24-.2,4.55,4.55,0,0,1,.61,0,3,3,0,0,1,.7.15,2.47,2.47,0,0,1,.66.3,1.55,1.55,0,0,1,.49.46,1.14,1.14,0,0,1,.19.68,3,3,0,0,1-.48,1.73,1.37,1.37,0,0,1-1.2.71,2.11,2.11,0,0,1-.6-.06,1.13,1.13,0,0,1-.29-.15.93.93,0,0,0-.26-.15,1.68,1.68,0,0,0-.55-.06,2.34,2.34,0,0,0-.71.1,2.17,2.17,0,0,0-.63.31,1.54,1.54,0,0,0-.45.53,1.46,1.46,0,0,0-.16.71v5.47a4.46,4.46,0,0,1-.09.91,1,1,0,0,1-.49.69A2.58,2.58,0,0,1,287.38,34.5Z"/><path class="cls-3" d="M119.73,34.6a8.64,8.64,0,0,1-2.33-.34,9.39,9.39,0,0,1-2.41-1,9.05,9.05,0,0,1-2.13-1.79,8,8,0,0,1-1.51-2.55,9.14,9.14,0,0,1-.57-3.32,8.79,8.79,0,0,1,.57-3.24,8.26,8.26,0,0,1,1.51-2.46A9.24,9.24,0,0,1,115,18.11a9.69,9.69,0,0,1,2.41-1,8.89,8.89,0,0,1,2.39-.34,7.36,7.36,0,0,1,2.22.3,8.09,8.09,0,0,1,1.54.63l.76.42a7.94,7.94,0,0,1,.85.65,1.25,1.25,0,0,1,.43.9,1.81,1.81,0,0,1-.11.6,2.61,2.61,0,0,1-.34.6,3.23,3.23,0,0,1-.78.84,1.23,1.23,0,0,1-.72.26,1.19,1.19,0,0,1-.58-.15c-.18-.1-.4-.23-.65-.4s-.28-.18-.5-.31a3.85,3.85,0,0,0-.88-.34,5.82,5.82,0,0,0-3.16.15,5.18,5.18,0,0,0-1.63.92,4.58,4.58,0,0,0-1.2,1.59,5.45,5.45,0,0,0-.46,2.26,5,5,0,0,0,.47,2.25,4.57,4.57,0,0,0,1.21,1.58,5.18,5.18,0,0,0,1.64.94,5.1,5.1,0,0,0,1.73.31,4.73,4.73,0,0,0,1.28-.15,4.64,4.64,0,0,0,.92-.36c.27-.14.49-.27.68-.39l.56-.32a1.26,1.26,0,0,1,.59-.15,1.19,1.19,0,0,1,.71.27,3.44,3.44,0,0,1,.74.88,2.6,2.6,0,0,1,.33.64,1.7,1.7,0,0,1,.12.61,1,1,0,0,1-.42.86,6.38,6.38,0,0,1-.86.61l-.75.44a7.19,7.19,0,0,1-1.53.62A7.59,7.59,0,0,1,119.73,34.6Z"/><path class="cls-3" d="M137.93,34.39a2.34,2.34,0,0,1-1.38-.33.89.89,0,0,1-.42-.8l.25-.42a3,3,0,0,1-.57.61,4.17,4.17,0,0,1-2.78.93,4.88,4.88,0,0,1-2.19-.5A5.85,5.85,0,0,1,129,32.49a7.21,7.21,0,0,1-1.27-2,6.13,6.13,0,0,1,0-4.71,6.9,6.9,0,0,1,1.29-2,6.7,6.7,0,0,1,1.84-1.36,4.94,4.94,0,0,1,2.18-.5,4.09,4.09,0,0,1,1.57.27,4.32,4.32,0,0,1,1.09.61,3.2,3.2,0,0,1,.66.68l-.22-.35a1.05,1.05,0,0,1,.43-.92,2.53,2.53,0,0,1,1.39-.31,2.24,2.24,0,0,1,1.29.28,1.1,1.1,0,0,1,.47.72,4.86,4.86,0,0,1,.09.95v8.63a4.63,4.63,0,0,1-.09.92,1.11,1.11,0,0,1-.48.72A2.48,2.48,0,0,1,137.93,34.39Zm-4.37-3.73a2.13,2.13,0,0,0,1.2-.34,2.57,2.57,0,0,0,.85-.91,2.6,2.6,0,0,0,.32-1.27,2.57,2.57,0,0,0-.32-1.29,2.42,2.42,0,0,0-.88-.89,2.4,2.4,0,0,0-1.22-.33,2.42,2.42,0,0,0-1.26.34,2.53,2.53,0,0,0-.9.91,2.5,2.5,0,0,0-.34,1.3,2.4,2.4,0,0,0,.33,1.24,2.6,2.6,0,0,0,2.22,1.24Z"/><path class="cls-3" d="M144.13,34.42a2.39,2.39,0,0,1-1.3-.28,1.05,1.05,0,0,1-.48-.7,5.33,5.33,0,0,1-.07-.93V23.76a5.29,5.29,0,0,1,.08-.9,1,1,0,0,1,.49-.68,2.49,2.49,0,0,1,1.33-.26,2.09,2.09,0,0,1,1.35.36,1.5,1.5,0,0,1,.42,1.19l-.32.27a1.88,1.88,0,0,1,.3-.42,4.38,4.38,0,0,1,.65-.63,4.17,4.17,0,0,1,.93-.56,2.85,2.85,0,0,1,1.17-.24,4.29,4.29,0,0,1,1.48.24,3.71,3.71,0,0,1,1.2.7,4.55,4.55,0,0,1,.94,1.16,6.79,6.79,0,0,1,.85-1,4.8,4.8,0,0,1,1.18-.8,3.53,3.53,0,0,1,1.52-.32,4.08,4.08,0,0,1,2.49.74,4.53,4.53,0,0,1,1.54,2.11,9.6,9.6,0,0,1,.52,3.32v4.48a3.85,3.85,0,0,1-.1.91,1.11,1.11,0,0,1-.48.7,2.42,2.42,0,0,1-1.32.26,2.46,2.46,0,0,1-1.32-.27,1,1,0,0,1-.48-.71,5.53,5.53,0,0,1-.07-.92V28.05a4.1,4.1,0,0,0-.18-1.29,1.94,1.94,0,0,0-.54-.83,1.36,1.36,0,0,0-.9-.28,1.56,1.56,0,0,0-1.58,1.07,3.92,3.92,0,0,0-.2,1.35v4.48a3.12,3.12,0,0,1-.13.93,1.19,1.19,0,0,1-.53.7,2.39,2.39,0,0,1-1.34.24,2.11,2.11,0,0,1-1.25-.29,1.12,1.12,0,0,1-.45-.72,5.35,5.35,0,0,1-.08-.89V28a4.21,4.21,0,0,0-.18-1.3,1.62,1.62,0,0,0-.52-.82,1.41,1.41,0,0,0-.93-.28,1.54,1.54,0,0,0-1,.33,1.85,1.85,0,0,0-.59.86A3.79,3.79,0,0,0,146,28v4.5a4.52,4.52,0,0,1-.09.93,1,1,0,0,1-.49.68A2.43,2.43,0,0,1,144.13,34.42Z"/><path class="cls-3" d="M164.86,20.13a2.43,2.43,0,0,1-1.35-.28,1.08,1.08,0,0,1-.48-.72,4.86,4.86,0,0,1-.09-.95,4.92,4.92,0,0,1,.09-1,1,1,0,0,1,.5-.7,2.69,2.69,0,0,1,1.36-.26,2.4,2.4,0,0,1,1.32.28,1.09,1.09,0,0,1,.49.72,5,5,0,0,1,.09,1,4.63,4.63,0,0,1-.09.92,1.09,1.09,0,0,1-.49.72A2.62,2.62,0,0,1,164.86,20.13Zm0,14.3a2.46,2.46,0,0,1-1.32-.27,1,1,0,0,1-.48-.69,5.53,5.53,0,0,1-.07-.92V23.83a4.63,4.63,0,0,1,.09-.92,1,1,0,0,1,.49-.69,2.47,2.47,0,0,1,1.33-.27,2.29,2.29,0,0,1,1.28.28,1.12,1.12,0,0,1,.48.71,4.7,4.7,0,0,1,.08.94v8.7a4.46,4.46,0,0,1-.09.91,1.08,1.08,0,0,1-.47.69A2.53,2.53,0,0,1,164.85,34.43Z"/><path class="cls-3" d="M171.28,34.41a2.35,2.35,0,0,1-1.31-.27,1.07,1.07,0,0,1-.48-.7,4.46,4.46,0,0,1-.09-.91v-8.8a4.19,4.19,0,0,1,.09-.89,1,1,0,0,1,.49-.66,3.52,3.52,0,0,1,2.5,0,1,1,0,0,1,.48.52,1.53,1.53,0,0,1,.12.56.66.66,0,0,0,0,.36l-.16.48a1.54,1.54,0,0,1,.39-.76,3.74,3.74,0,0,1,.85-.7,4.93,4.93,0,0,1,1.1-.49,4,4,0,0,1,1.17-.18,5.13,5.13,0,0,1,2.13.44,4.37,4.37,0,0,1,1.59,1.27,6,6,0,0,1,1,1.93,8.62,8.62,0,0,1,.33,2.44v4.55a4.63,4.63,0,0,1-.09.92,1,1,0,0,1-.47.68,3.62,3.62,0,0,1-2.67,0,1.06,1.06,0,0,1-.48-.7,4.53,4.53,0,0,1-.09-.91V28a2.81,2.81,0,0,0-.26-1.28,1.87,1.87,0,0,0-.75-.8,2.84,2.84,0,0,0-2.46,0,2,2,0,0,0-.81.81,2.46,2.46,0,0,0-.29,1.25v4.55a5.31,5.31,0,0,1-.08.91,1.06,1.06,0,0,1-.48.69A2.6,2.6,0,0,1,171.28,34.41Z"/><path class="cls-3" d="M190,34.64a6.25,6.25,0,0,1-2.34-.46,7.24,7.24,0,0,1-2.11-1.31,6.38,6.38,0,0,1-1.51-2,6,6,0,0,1-.56-2.64,6.16,6.16,0,0,1,.51-2.51,6.63,6.63,0,0,1,1.41-2.06,6.88,6.88,0,0,1,2.07-1.42,6.09,6.09,0,0,1,2.49-.51,6.26,6.26,0,0,1,3.26.87,6.45,6.45,0,0,1,2.33,2.34,6.4,6.4,0,0,1-1.19,8,6.53,6.53,0,0,1-2.07,1.29A6.4,6.4,0,0,1,190,34.64Zm0-3.77a2.85,2.85,0,0,0,1.23-.3,2.81,2.81,0,0,0,1.05-.9,2.61,2.61,0,0,0,.42-1.53,2.67,2.67,0,0,0-.35-1.4,2.39,2.39,0,0,0-1-.93,2.83,2.83,0,0,0-1.41-.34,2.51,2.51,0,0,0-1.34.35,2.65,2.65,0,0,0-.95,1,2.69,2.69,0,0,0-.36,1.39,2.6,2.6,0,0,0,.41,1.51,2.43,2.43,0,0,0,1,.9A2.9,2.9,0,0,0,189.93,30.87Z"/><path class="cls-3" d="M215.15,34.43a2.41,2.41,0,0,1-1.37-.32.93.93,0,0,1-.43-.8l.25-.43a2.72,2.72,0,0,1-.57.61,4.08,4.08,0,0,1-1.12.65,4.29,4.29,0,0,1-1.66.29,5,5,0,0,1-2.18-.5,5.78,5.78,0,0,1-1.84-1.39,7,7,0,0,1-1.27-2,6,6,0,0,1-.48-2.38,5.87,5.87,0,0,1,.48-2.34,6.62,6.62,0,0,1,3.12-3.33,5,5,0,0,1,2.18-.5,4.26,4.26,0,0,1,1.57.26,4.16,4.16,0,0,1,1.09.62,3.18,3.18,0,0,1,.66.67l-.22-.35a1.05,1.05,0,0,1,.44-.91,2.4,2.4,0,0,1,1.39-.31,2.3,2.3,0,0,1,1.28.27A1.16,1.16,0,0,1,217,23a4.87,4.87,0,0,1,.08.95v8.62a4.73,4.73,0,0,1-.09.93,1.09,1.09,0,0,1-.47.71A2.42,2.42,0,0,1,215.15,34.43Zm-4.37-3.72a2.21,2.21,0,0,0,1.2-.34,2.66,2.66,0,0,0,.85-.91,2.67,2.67,0,0,0,0-2.57,2.45,2.45,0,0,0-3.36-.87,2.61,2.61,0,0,0-.9.91,2.47,2.47,0,0,0-.34,1.3,2.34,2.34,0,0,0,.34,1.24,2.56,2.56,0,0,0,.92.9A2.59,2.59,0,0,0,210.78,30.71Z"/><path class="cls-3" d="M221.4,34.44a2.39,2.39,0,0,1-1.31-.27,1,1,0,0,1-.47-.7,4.46,4.46,0,0,1-.09-.91v-8.8a4.19,4.19,0,0,1,.09-.89,1,1,0,0,1,.49-.66,2.69,2.69,0,0,1,1.32-.25,2.37,2.37,0,0,1,1.18.22,1,1,0,0,1,.49.51,1.68,1.68,0,0,1,.11.56.91.91,0,0,0,0,.36l-.15.48a1.39,1.39,0,0,1,.39-.76,3.15,3.15,0,0,1,.85-.7,4.73,4.73,0,0,1,1.1-.49,3.93,3.93,0,0,1,1.16-.17,5,5,0,0,1,2.14.43,4.42,4.42,0,0,1,1.58,1.27,5.6,5.6,0,0,1,1,1.93,8.27,8.27,0,0,1,.34,2.44v4.55a5.52,5.52,0,0,1-.08.92,1,1,0,0,1-.48.68,2.57,2.57,0,0,1-1.34.25,2.54,2.54,0,0,1-1.32-.26,1.08,1.08,0,0,1-.49-.7,4.53,4.53,0,0,1-.09-.91V28a2.74,2.74,0,0,0-.27-1.27,1.76,1.76,0,0,0-.75-.8,2.33,2.33,0,0,0-1.21-.28,2.48,2.48,0,0,0-1.25.29,2,2,0,0,0-.81.81,2.59,2.59,0,0,0-.29,1.25v4.55a4.53,4.53,0,0,1-.09.91,1.08,1.08,0,0,1-.47.69A2.64,2.64,0,0,1,221.4,34.44Z"/><path class="cls-3" d="M239.28,34.15a5,5,0,0,1-2.16-.49,5.72,5.72,0,0,1-1.79-1.34,6.58,6.58,0,0,1-1.23-1.95,6.27,6.27,0,0,1-.44-2.33,6,6,0,0,1,.45-2.31,6.27,6.27,0,0,1,1.24-1.92,6,6,0,0,1,1.8-1.33,4.86,4.86,0,0,1,2.11-.48,3.74,3.74,0,0,1,1.9.44,3.26,3.26,0,0,1,1.25,1.25,6.39,6.39,0,0,1,.71,1.92,11.82,11.82,0,0,1,.24,2.49,11,11,0,0,1-.42,3.21,4.2,4.2,0,0,1-1.3,2.1A3.58,3.58,0,0,1,239.28,34.15Zm.44,5.47A7,7,0,0,1,238,39.4a7.92,7.92,0,0,1-1.59-.6,4.39,4.39,0,0,1-1.14-.81,1.19,1.19,0,0,1-.43-.85,1.77,1.77,0,0,1,.15-.73,2.46,2.46,0,0,1,.45-.67,7.15,7.15,0,0,1,.6-.57,1,1,0,0,1,.6-.2,1.09,1.09,0,0,1,.63.19l.58.41a3.41,3.41,0,0,0,.79.41,3.21,3.21,0,0,0,1.2.19,2.46,2.46,0,0,0,.94-.18,2.15,2.15,0,0,0,.75-.55,3.12,3.12,0,0,0,.5-.85,3.15,3.15,0,0,0,.19-1.09V23.15a1.21,1.21,0,0,1,.52-.94,2.37,2.37,0,0,1,1.33-.28,2.2,2.2,0,0,1,1.25.26,1.08,1.08,0,0,1,.47.69,4.31,4.31,0,0,1,.08.9v9.87a5.88,5.88,0,0,1-.53,2.54,5.61,5.61,0,0,1-1.4,1.87,6,6,0,0,1-2,1.16A6.28,6.28,0,0,1,239.72,39.62Zm0-9.1a2.18,2.18,0,0,0,1.2-.33,2.56,2.56,0,0,0,.84-.89,2.6,2.6,0,0,0,0-2.5,2.27,2.27,0,0,0-2.06-1.2,2.21,2.21,0,0,0-1.2.33,2.65,2.65,0,0,0-.84.89,2.57,2.57,0,0,0-.31,1.25,2.45,2.45,0,0,0,.32,1.23,2.62,2.62,0,0,0,.87.88A2.14,2.14,0,0,0,239.7,30.52Z"/><path class="cls-3" d="M253.78,34.46A5.1,5.1,0,0,1,251.6,34a5.29,5.29,0,0,1-1.75-1.26,5.8,5.8,0,0,1-1.16-1.92,7.14,7.14,0,0,1-.41-2.44V23.85a4.42,4.42,0,0,1,.09-.92,1.08,1.08,0,0,1,.49-.7,2.44,2.44,0,0,1,1.32-.28,2.4,2.4,0,0,1,1.32.28,1.14,1.14,0,0,1,.47.71,4.69,4.69,0,0,1,.09.94v4.5a2.78,2.78,0,0,0,.26,1.26,1.8,1.8,0,0,0,.77.82,2.57,2.57,0,0,0,1.21.27,2.4,2.4,0,0,0,1.24-.29,2,2,0,0,0,.8-.81,2.57,2.57,0,0,0,.29-1.25V23.83a4.42,4.42,0,0,1,.09-.92,1.08,1.08,0,0,1,.49-.69,2.57,2.57,0,0,1,1.32-.26,2.41,2.41,0,0,1,1.32.27,1.15,1.15,0,0,1,.47.72,4.46,4.46,0,0,1,.09.91v8.8a5,5,0,0,1-.08.89,1.06,1.06,0,0,1-.49.66,2.52,2.52,0,0,1-1.3.25,2.92,2.92,0,0,1-1-.15,1.25,1.25,0,0,1-.55-.38.91.91,0,0,1-.21-.47,2.57,2.57,0,0,1,0-.45l.32-.28a2.39,2.39,0,0,1-.32.39,5.89,5.89,0,0,1-.66.58,4.69,4.69,0,0,1-1,.53A3.31,3.31,0,0,1,253.78,34.46Z"/><path class="cls-3" d="M267.7,34.49a14.14,14.14,0,0,1-1.82-.1,3.77,3.77,0,0,1-1.35-.4,2.42,2.42,0,0,1-.9-.84,4.19,4.19,0,0,1-.53-1.38,10.73,10.73,0,0,1-.17-2.06V18.16a3.82,3.82,0,0,1,.1-.92,1.11,1.11,0,0,1,.49-.7,2.25,2.25,0,0,1,1.31-.28,2.33,2.33,0,0,1,1.29.28,1.17,1.17,0,0,1,.48.7,3.82,3.82,0,0,1,.1.92V29.54a5.86,5.86,0,0,0,0,.66,1,1,0,0,0,.15.41.54.54,0,0,0,.31.2,2,2,0,0,0,.53.05,2.62,2.62,0,0,1,.61.08.89.89,0,0,1,.54.45,2.58,2.58,0,0,1,.22,1.25,2.81,2.81,0,0,1-.22,1.3.83.83,0,0,1-.54.47A2.29,2.29,0,0,1,267.7,34.49Z"/><path class="cls-3" d="M281.13,34.47a2.42,2.42,0,0,1-1.38-.32.9.9,0,0,1-.42-.8l.25-.43a2.59,2.59,0,0,1-.58.61,3.87,3.87,0,0,1-1.11.65,4.33,4.33,0,0,1-1.66.29A5,5,0,0,1,274,34a5.89,5.89,0,0,1-1.84-1.39,7,7,0,0,1-1.27-2,6,6,0,0,1-.47-2.38,5.86,5.86,0,0,1,.47-2.34,6.72,6.72,0,0,1,1.29-2,6.37,6.37,0,0,1,1.84-1.36,4.93,4.93,0,0,1,2.17-.5,4.32,4.32,0,0,1,1.58.26,4.51,4.51,0,0,1,1.09.62,3.18,3.18,0,0,1,.66.67l-.23-.35a1.05,1.05,0,0,1,.44-.91,2.42,2.42,0,0,1,1.39-.31,2.34,2.34,0,0,1,1.29.27,1.15,1.15,0,0,1,.47.73A4.86,4.86,0,0,1,283,24v8.62a4.73,4.73,0,0,1-.09.93,1,1,0,0,1-.47.71A2.41,2.41,0,0,1,281.13,34.47Zm-4.38-3.73a2.13,2.13,0,0,0,1.2-.33,2.68,2.68,0,0,0,.86-.91,2.74,2.74,0,0,0,0-2.57,2.4,2.4,0,0,0-.88-.88,2.3,2.3,0,0,0-1.22-.33,2.39,2.39,0,0,0-1.27.34,2.61,2.61,0,0,0-.9.91,2.56,2.56,0,0,0-.33,1.3,2.42,2.42,0,0,0,.33,1.24,2.56,2.56,0,0,0,2.21,1.23Z"/><path class="cls-3" d="M287.38,34.5a2.52,2.52,0,0,1-1.32-.26,1.14,1.14,0,0,1-.47-.71,4.73,4.73,0,0,1-.09-.93V23.88a4.45,4.45,0,0,1,.09-.93,1.07,1.07,0,0,1,.48-.69,2.59,2.59,0,0,1,1.33-.26,2.5,2.5,0,0,1,1.26.24,1.06,1.06,0,0,1,.49.55,1.73,1.73,0,0,1,.1.54l-.3.15a2,2,0,0,1,.26-.36,3.59,3.59,0,0,1,.59-.56,3.39,3.39,0,0,1,.91-.48,3.62,3.62,0,0,1,1.24-.2,4.55,4.55,0,0,1,.61,0,3,3,0,0,1,.7.15,2.47,2.47,0,0,1,.66.3,1.55,1.55,0,0,1,.49.46,1.14,1.14,0,0,1,.19.68,3,3,0,0,1-.48,1.73,1.37,1.37,0,0,1-1.2.71,2.11,2.11,0,0,1-.6-.06,1.13,1.13,0,0,1-.29-.15.93.93,0,0,0-.26-.15,1.68,1.68,0,0,0-.55-.06,2.34,2.34,0,0,0-.71.1,2.17,2.17,0,0,0-.63.31,1.54,1.54,0,0,0-.45.53,1.46,1.46,0,0,0-.16.71v5.47a4.46,4.46,0,0,1-.09.91,1,1,0,0,1-.49.69A2.58,2.58,0,0,1,287.38,34.5Z"/><path class="cls-2" d="M119.73,34.6a8.64,8.64,0,0,1-2.33-.34,9.39,9.39,0,0,1-2.41-1,9.05,9.05,0,0,1-2.13-1.79,8,8,0,0,1-1.51-2.55,9.14,9.14,0,0,1-.57-3.32,8.79,8.79,0,0,1,.57-3.24,8.26,8.26,0,0,1,1.51-2.46A9.24,9.24,0,0,1,115,18.11a9.69,9.69,0,0,1,2.41-1,8.89,8.89,0,0,1,2.39-.34,7.36,7.36,0,0,1,2.22.3,8.09,8.09,0,0,1,1.54.63l.76.42a7.94,7.94,0,0,1,.85.65,1.25,1.25,0,0,1,.43.9,1.81,1.81,0,0,1-.11.6,2.61,2.61,0,0,1-.34.6,3.23,3.23,0,0,1-.78.84,1.23,1.23,0,0,1-.72.26,1.19,1.19,0,0,1-.58-.15c-.18-.1-.4-.23-.65-.4s-.28-.18-.5-.31a3.85,3.85,0,0,0-.88-.34,5.82,5.82,0,0,0-3.16.15,5.18,5.18,0,0,0-1.63.92,4.58,4.58,0,0,0-1.2,1.59,5.45,5.45,0,0,0-.46,2.26,5,5,0,0,0,.47,2.25,4.57,4.57,0,0,0,1.21,1.58,5.18,5.18,0,0,0,1.64.94,5.1,5.1,0,0,0,1.73.31,4.73,4.73,0,0,0,1.28-.15,4.64,4.64,0,0,0,.92-.36c.27-.14.49-.27.68-.39l.56-.32a1.26,1.26,0,0,1,.59-.15,1.19,1.19,0,0,1,.71.27,3.44,3.44,0,0,1,.74.88,2.6,2.6,0,0,1,.33.64,1.7,1.7,0,0,1,.12.61,1,1,0,0,1-.42.86,6.38,6.38,0,0,1-.86.61l-.75.44a7.19,7.19,0,0,1-1.53.62A7.59,7.59,0,0,1,119.73,34.6Z"/><path class="cls-2" d="M137.93,34.39a2.34,2.34,0,0,1-1.38-.33.89.89,0,0,1-.42-.8l.25-.42a3,3,0,0,1-.57.61,4.17,4.17,0,0,1-2.78.93,4.88,4.88,0,0,1-2.19-.5A5.85,5.85,0,0,1,129,32.49a7.21,7.21,0,0,1-1.27-2,6.13,6.13,0,0,1,0-4.71,6.9,6.9,0,0,1,1.29-2,6.7,6.7,0,0,1,1.84-1.36,4.94,4.94,0,0,1,2.18-.5,4.09,4.09,0,0,1,1.57.27,4.32,4.32,0,0,1,1.09.61,3.2,3.2,0,0,1,.66.68l-.22-.35a1.05,1.05,0,0,1,.43-.92,2.53,2.53,0,0,1,1.39-.31,2.24,2.24,0,0,1,1.29.28,1.1,1.1,0,0,1,.47.72,4.86,4.86,0,0,1,.09.95v8.63a4.63,4.63,0,0,1-.09.92,1.11,1.11,0,0,1-.48.72A2.48,2.48,0,0,1,137.93,34.39Zm-4.37-3.73a2.13,2.13,0,0,0,1.2-.34,2.57,2.57,0,0,0,.85-.91,2.6,2.6,0,0,0,.32-1.27,2.57,2.57,0,0,0-.32-1.29,2.42,2.42,0,0,0-.88-.89,2.4,2.4,0,0,0-1.22-.33,2.42,2.42,0,0,0-1.26.34,2.53,2.53,0,0,0-.9.91,2.5,2.5,0,0,0-.34,1.3,2.4,2.4,0,0,0,.33,1.24,2.6,2.6,0,0,0,2.22,1.24Z"/><path class="cls-2" d="M144.13,34.42a2.39,2.39,0,0,1-1.3-.28,1.05,1.05,0,0,1-.48-.7,5.33,5.33,0,0,1-.07-.93V23.76a5.29,5.29,0,0,1,.08-.9,1,1,0,0,1,.49-.68,2.49,2.49,0,0,1,1.33-.26,2.09,2.09,0,0,1,1.35.36,1.5,1.5,0,0,1,.42,1.19l-.32.27a1.88,1.88,0,0,1,.3-.42,4.38,4.38,0,0,1,.65-.63,4.17,4.17,0,0,1,.93-.56,2.85,2.85,0,0,1,1.17-.24,4.29,4.29,0,0,1,1.48.24,3.71,3.71,0,0,1,1.2.7,4.55,4.55,0,0,1,.94,1.16,6.79,6.79,0,0,1,.85-1,4.8,4.8,0,0,1,1.18-.8,3.53,3.53,0,0,1,1.52-.32,4.08,4.08,0,0,1,2.49.74,4.53,4.53,0,0,1,1.54,2.11,9.6,9.6,0,0,1,.52,3.32v4.48a3.85,3.85,0,0,1-.1.91,1.11,1.11,0,0,1-.48.7,2.42,2.42,0,0,1-1.32.26,2.46,2.46,0,0,1-1.32-.27,1,1,0,0,1-.48-.71,5.53,5.53,0,0,1-.07-.92V28.05a4.1,4.1,0,0,0-.18-1.29,1.94,1.94,0,0,0-.54-.83,1.36,1.36,0,0,0-.9-.28,1.56,1.56,0,0,0-1.58,1.07,3.92,3.92,0,0,0-.2,1.35v4.48a3.12,3.12,0,0,1-.13.93,1.19,1.19,0,0,1-.53.7,2.39,2.39,0,0,1-1.34.24,2.11,2.11,0,0,1-1.25-.29,1.12,1.12,0,0,1-.45-.72,5.35,5.35,0,0,1-.08-.89V28a4.21,4.21,0,0,0-.18-1.3,1.62,1.62,0,0,0-.52-.82,1.41,1.41,0,0,0-.93-.28,1.54,1.54,0,0,0-1,.33,1.85,1.85,0,0,0-.59.86A3.79,3.79,0,0,0,146,28v4.5a4.52,4.52,0,0,1-.09.93,1,1,0,0,1-.49.68A2.43,2.43,0,0,1,144.13,34.42Z"/><path class="cls-2" d="M164.86,20.13a2.43,2.43,0,0,1-1.35-.28,1.08,1.08,0,0,1-.48-.72,4.86,4.86,0,0,1-.09-.95,4.92,4.92,0,0,1,.09-1,1,1,0,0,1,.5-.7,2.69,2.69,0,0,1,1.36-.26,2.4,2.4,0,0,1,1.32.28,1.09,1.09,0,0,1,.49.72,5,5,0,0,1,.09,1,4.63,4.63,0,0,1-.09.92,1.09,1.09,0,0,1-.49.72A2.62,2.62,0,0,1,164.86,20.13Zm0,14.3a2.46,2.46,0,0,1-1.32-.27,1,1,0,0,1-.48-.69,5.53,5.53,0,0,1-.07-.92V23.83a4.63,4.63,0,0,1,.09-.92,1,1,0,0,1,.49-.69,2.47,2.47,0,0,1,1.33-.27,2.29,2.29,0,0,1,1.28.28,1.12,1.12,0,0,1,.48.71,4.7,4.7,0,0,1,.08.94v8.7a4.46,4.46,0,0,1-.09.91,1.08,1.08,0,0,1-.47.69A2.53,2.53,0,0,1,164.85,34.43Z"/><path class="cls-2" d="M171.28,34.41a2.35,2.35,0,0,1-1.31-.27,1.07,1.07,0,0,1-.48-.7,4.46,4.46,0,0,1-.09-.91v-8.8a4.19,4.19,0,0,1,.09-.89,1,1,0,0,1,.49-.66,3.52,3.52,0,0,1,2.5,0,1,1,0,0,1,.48.52,1.53,1.53,0,0,1,.12.56.66.66,0,0,0,0,.36l-.16.48a1.54,1.54,0,0,1,.39-.76,3.74,3.74,0,0,1,.85-.7,4.93,4.93,0,0,1,1.1-.49,4,4,0,0,1,1.17-.18,5.13,5.13,0,0,1,2.13.44,4.37,4.37,0,0,1,1.59,1.27,6,6,0,0,1,1,1.93,8.62,8.62,0,0,1,.33,2.44v4.55a4.63,4.63,0,0,1-.09.92,1,1,0,0,1-.47.68,3.62,3.62,0,0,1-2.67,0,1.06,1.06,0,0,1-.48-.7,4.53,4.53,0,0,1-.09-.91V28a2.81,2.81,0,0,0-.26-1.28,1.87,1.87,0,0,0-.75-.8,2.84,2.84,0,0,0-2.46,0,2,2,0,0,0-.81.81,2.46,2.46,0,0,0-.29,1.25v4.55a5.31,5.31,0,0,1-.08.91,1.06,1.06,0,0,1-.48.69A2.6,2.6,0,0,1,171.28,34.41Z"/><path class="cls-2" d="M190,34.64a6.25,6.25,0,0,1-2.34-.46,7.24,7.24,0,0,1-2.11-1.31,6.38,6.38,0,0,1-1.51-2,6,6,0,0,1-.56-2.64,6.16,6.16,0,0,1,.51-2.51,6.63,6.63,0,0,1,1.41-2.06,6.88,6.88,0,0,1,2.07-1.42,6.09,6.09,0,0,1,2.49-.51,6.26,6.26,0,0,1,3.26.87,6.45,6.45,0,0,1,2.33,2.34,6.4,6.4,0,0,1-1.19,8,6.53,6.53,0,0,1-2.07,1.29A6.4,6.4,0,0,1,190,34.64Zm0-3.77a2.85,2.85,0,0,0,1.23-.3,2.81,2.81,0,0,0,1.05-.9,2.61,2.61,0,0,0,.42-1.53,2.67,2.67,0,0,0-.35-1.4,2.39,2.39,0,0,0-1-.93,2.83,2.83,0,0,0-1.41-.34,2.51,2.51,0,0,0-1.34.35,2.65,2.65,0,0,0-.95,1,2.69,2.69,0,0,0-.36,1.39,2.6,2.6,0,0,0,.41,1.51,2.43,2.43,0,0,0,1,.9A2.9,2.9,0,0,0,189.93,30.87Z"/><path class="cls-2" d="M215.15,34.43a2.41,2.41,0,0,1-1.37-.32.93.93,0,0,1-.43-.8l.25-.43a2.72,2.72,0,0,1-.57.61,4.08,4.08,0,0,1-1.12.65,4.29,4.29,0,0,1-1.66.29,5,5,0,0,1-2.18-.5,5.78,5.78,0,0,1-1.84-1.39,7,7,0,0,1-1.27-2,6,6,0,0,1-.48-2.38,5.87,5.87,0,0,1,.48-2.34,6.62,6.62,0,0,1,3.12-3.33,5,5,0,0,1,2.18-.5,4.26,4.26,0,0,1,1.57.26,4.16,4.16,0,0,1,1.09.62,3.18,3.18,0,0,1,.66.67l-.22-.35a1.05,1.05,0,0,1,.44-.91,2.4,2.4,0,0,1,1.39-.31,2.3,2.3,0,0,1,1.28.27A1.16,1.16,0,0,1,217,23a4.87,4.87,0,0,1,.08.95v8.62a4.73,4.73,0,0,1-.09.93,1.09,1.09,0,0,1-.47.71A2.42,2.42,0,0,1,215.15,34.43Zm-4.37-3.72a2.21,2.21,0,0,0,1.2-.34,2.66,2.66,0,0,0,.85-.91,2.67,2.67,0,0,0,0-2.57,2.45,2.45,0,0,0-3.36-.87,2.61,2.61,0,0,0-.9.91,2.47,2.47,0,0,0-.34,1.3,2.34,2.34,0,0,0,.34,1.24,2.56,2.56,0,0,0,.92.9A2.59,2.59,0,0,0,210.78,30.71Z"/><path class="cls-2" d="M221.4,34.44a2.39,2.39,0,0,1-1.31-.27,1,1,0,0,1-.47-.7,4.46,4.46,0,0,1-.09-.91v-8.8a4.19,4.19,0,0,1,.09-.89,1,1,0,0,1,.49-.66,2.69,2.69,0,0,1,1.32-.25,2.37,2.37,0,0,1,1.18.22,1,1,0,0,1,.49.51,1.68,1.68,0,0,1,.11.56.91.91,0,0,0,0,.36l-.15.48a1.39,1.39,0,0,1,.39-.76,3.15,3.15,0,0,1,.85-.7,4.73,4.73,0,0,1,1.1-.49,3.93,3.93,0,0,1,1.16-.17,5,5,0,0,1,2.14.43,4.42,4.42,0,0,1,1.58,1.27,5.6,5.6,0,0,1,1,1.93,8.27,8.27,0,0,1,.34,2.44v4.55a5.52,5.52,0,0,1-.08.92,1,1,0,0,1-.48.68,2.57,2.57,0,0,1-1.34.25,2.54,2.54,0,0,1-1.32-.26,1.08,1.08,0,0,1-.49-.7,4.53,4.53,0,0,1-.09-.91V28a2.74,2.74,0,0,0-.27-1.27,1.76,1.76,0,0,0-.75-.8,2.33,2.33,0,0,0-1.21-.28,2.48,2.48,0,0,0-1.25.29,2,2,0,0,0-.81.81,2.59,2.59,0,0,0-.29,1.25v4.55a4.53,4.53,0,0,1-.09.91,1.08,1.08,0,0,1-.47.69A2.64,2.64,0,0,1,221.4,34.44Z"/><path class="cls-2" d="M239.28,34.15a5,5,0,0,1-2.16-.49,5.72,5.72,0,0,1-1.79-1.34,6.58,6.58,0,0,1-1.23-1.95,6.27,6.27,0,0,1-.44-2.33,6,6,0,0,1,.45-2.31,6.27,6.27,0,0,1,1.24-1.92,6,6,0,0,1,1.8-1.33,4.86,4.86,0,0,1,2.11-.48,3.74,3.74,0,0,1,1.9.44,3.26,3.26,0,0,1,1.25,1.25,6.39,6.39,0,0,1,.71,1.92,11.82,11.82,0,0,1,.24,2.49,11,11,0,0,1-.42,3.21,4.2,4.2,0,0,1-1.3,2.1A3.58,3.58,0,0,1,239.28,34.15Zm.44,5.47A7,7,0,0,1,238,39.4a7.92,7.92,0,0,1-1.59-.6,4.39,4.39,0,0,1-1.14-.81,1.19,1.19,0,0,1-.43-.85,1.77,1.77,0,0,1,.15-.73,2.46,2.46,0,0,1,.45-.67,7.15,7.15,0,0,1,.6-.57,1,1,0,0,1,.6-.2,1.09,1.09,0,0,1,.63.19l.58.41a3.41,3.41,0,0,0,.79.41,3.21,3.21,0,0,0,1.2.19,2.46,2.46,0,0,0,.94-.18,2.15,2.15,0,0,0,.75-.55,3.12,3.12,0,0,0,.5-.85,3.15,3.15,0,0,0,.19-1.09V23.15a1.21,1.21,0,0,1,.52-.94,2.37,2.37,0,0,1,1.33-.28,2.2,2.2,0,0,1,1.25.26,1.08,1.08,0,0,1,.47.69,4.31,4.31,0,0,1,.08.9v9.87a5.88,5.88,0,0,1-.53,2.54,5.61,5.61,0,0,1-1.4,1.87,6,6,0,0,1-2,1.16A6.28,6.28,0,0,1,239.72,39.62Zm0-9.1a2.18,2.18,0,0,0,1.2-.33,2.56,2.56,0,0,0,.84-.89,2.6,2.6,0,0,0,0-2.5,2.27,2.27,0,0,0-2.06-1.2,2.21,2.21,0,0,0-1.2.33,2.65,2.65,0,0,0-.84.89,2.57,2.57,0,0,0-.31,1.25,2.45,2.45,0,0,0,.32,1.23,2.62,2.62,0,0,0,.87.88A2.14,2.14,0,0,0,239.7,30.52Z"/><path class="cls-2" d="M253.78,34.46A5.1,5.1,0,0,1,251.6,34a5.29,5.29,0,0,1-1.75-1.26,5.8,5.8,0,0,1-1.16-1.92,7.14,7.14,0,0,1-.41-2.44V23.85a4.42,4.42,0,0,1,.09-.92,1.08,1.08,0,0,1,.49-.7,2.44,2.44,0,0,1,1.32-.28,2.4,2.4,0,0,1,1.32.28,1.14,1.14,0,0,1,.47.71,4.69,4.69,0,0,1,.09.94v4.5a2.78,2.78,0,0,0,.26,1.26,1.8,1.8,0,0,0,.77.82,2.57,2.57,0,0,0,1.21.27,2.4,2.4,0,0,0,1.24-.29,2,2,0,0,0,.8-.81,2.57,2.57,0,0,0,.29-1.25V23.83a4.42,4.42,0,0,1,.09-.92,1.08,1.08,0,0,1,.49-.69,2.57,2.57,0,0,1,1.32-.26,2.41,2.41,0,0,1,1.32.27,1.15,1.15,0,0,1,.47.72,4.46,4.46,0,0,1,.09.91v8.8a5,5,0,0,1-.08.89,1.06,1.06,0,0,1-.49.66,2.52,2.52,0,0,1-1.3.25,2.92,2.92,0,0,1-1-.15,1.25,1.25,0,0,1-.55-.38.91.91,0,0,1-.21-.47,2.57,2.57,0,0,1,0-.45l.32-.28a2.39,2.39,0,0,1-.32.39,5.89,5.89,0,0,1-.66.58,4.69,4.69,0,0,1-1,.53A3.31,3.31,0,0,1,253.78,34.46Z"/><path class="cls-2" d="M267.7,34.49a14.14,14.14,0,0,1-1.82-.1,3.77,3.77,0,0,1-1.35-.4,2.42,2.42,0,0,1-.9-.84,4.19,4.19,0,0,1-.53-1.38,10.73,10.73,0,0,1-.17-2.06V18.16a3.82,3.82,0,0,1,.1-.92,1.11,1.11,0,0,1,.49-.7,2.25,2.25,0,0,1,1.31-.28,2.33,2.33,0,0,1,1.29.28,1.17,1.17,0,0,1,.48.7,3.82,3.82,0,0,1,.1.92V29.54a5.86,5.86,0,0,0,0,.66,1,1,0,0,0,.15.41.54.54,0,0,0,.31.2,2,2,0,0,0,.53.05,2.62,2.62,0,0,1,.61.08.89.89,0,0,1,.54.45,2.58,2.58,0,0,1,.22,1.25,2.81,2.81,0,0,1-.22,1.3.83.83,0,0,1-.54.47A2.29,2.29,0,0,1,267.7,34.49Z"/><path class="cls-2" d="M281.13,34.47a2.42,2.42,0,0,1-1.38-.32.9.9,0,0,1-.42-.8l.25-.43a2.59,2.59,0,0,1-.58.61,3.87,3.87,0,0,1-1.11.65,4.33,4.33,0,0,1-1.66.29A5,5,0,0,1,274,34a5.89,5.89,0,0,1-1.84-1.39,7,7,0,0,1-1.27-2,6,6,0,0,1-.47-2.38,5.86,5.86,0,0,1,.47-2.34,6.72,6.72,0,0,1,1.29-2,6.37,6.37,0,0,1,1.84-1.36,4.93,4.93,0,0,1,2.17-.5,4.32,4.32,0,0,1,1.58.26,4.51,4.51,0,0,1,1.09.62,3.18,3.18,0,0,1,.66.67l-.23-.35a1.05,1.05,0,0,1,.44-.91,2.42,2.42,0,0,1,1.39-.31,2.34,2.34,0,0,1,1.29.27,1.15,1.15,0,0,1,.47.73A4.86,4.86,0,0,1,283,24v8.62a4.73,4.73,0,0,1-.09.93,1,1,0,0,1-.47.71A2.41,2.41,0,0,1,281.13,34.47Zm-4.38-3.73a2.13,2.13,0,0,0,1.2-.33,2.68,2.68,0,0,0,.86-.91,2.74,2.74,0,0,0,0-2.57,2.4,2.4,0,0,0-.88-.88,2.3,2.3,0,0,0-1.22-.33,2.39,2.39,0,0,0-1.27.34,2.61,2.61,0,0,0-.9.91,2.56,2.56,0,0,0-.33,1.3,2.42,2.42,0,0,0,.33,1.24,2.56,2.56,0,0,0,2.21,1.23Z"/><path class="cls-2" d="M287.38,34.5a2.52,2.52,0,0,1-1.32-.26,1.14,1.14,0,0,1-.47-.71,4.73,4.73,0,0,1-.09-.93V23.88a4.45,4.45,0,0,1,.09-.93,1.07,1.07,0,0,1,.48-.69,2.59,2.59,0,0,1,1.33-.26,2.5,2.5,0,0,1,1.26.24,1.06,1.06,0,0,1,.49.55,1.73,1.73,0,0,1,.1.54l-.3.15a2,2,0,0,1,.26-.36,3.59,3.59,0,0,1,.59-.56,3.39,3.39,0,0,1,.91-.48,3.62,3.62,0,0,1,1.24-.2,4.55,4.55,0,0,1,.61,0,3,3,0,0,1,.7.15,2.47,2.47,0,0,1,.66.3,1.55,1.55,0,0,1,.49.46,1.14,1.14,0,0,1,.19.68,3,3,0,0,1-.48,1.73,1.37,1.37,0,0,1-1.2.71,2.11,2.11,0,0,1-.6-.06,1.13,1.13,0,0,1-.29-.15.93.93,0,0,0-.26-.15,1.68,1.68,0,0,0-.55-.06,2.34,2.34,0,0,0-.71.1,2.17,2.17,0,0,0-.63.31,1.54,1.54,0,0,0-.45.53,1.46,1.46,0,0,0-.16.71v5.47a4.46,4.46,0,0,1-.09.91,1,1,0,0,1-.49.69A2.58,2.58,0,0,1,287.38,34.5Z"/><path class="cls-4" d="M54.61,33.64h4.52q3.42,0,3.42,4a4,4,0,0,1-1.08,3.17c-.72.63-2,.94-3.85.94h-11c-1.91,0-3.2-.25-3.89-.77s-1-1.63-1-3.34a5.64,5.64,0,0,1,.16-1.45,3.53,3.53,0,0,1,.62-1.2,5.18,5.18,0,0,1,1.22-1.13c1.47-1,2.62-1.82,3.46-2.44s1.67-1.26,2.47-1.95a13.25,13.25,0,0,0,1.77-1.76,11.21,11.21,0,0,0,1-1.66A6.38,6.38,0,0,0,53,24.15,15.39,15.39,0,0,0,53.15,22c0-1.56-.47-2.35-1.42-2.35s-1.55.93-1.55,2.77a2,2,0,0,1-1,2,7,7,0,0,1-2.89.46c-1.74,0-2.92-.39-3.53-1.17a6.48,6.48,0,0,1-.91-3.91,5.48,5.48,0,0,1,2.51-4.56,11.74,11.74,0,0,1,7-1.82q11.07,0,11.07,8.69A14.11,14.11,0,0,1,62,25.77a11.66,11.66,0,0,1-1.1,2.77,9.08,9.08,0,0,1-1.78,2.12A17.42,17.42,0,0,1,57,32.3,26.68,26.68,0,0,1,54.61,33.64Z"/><path class="cls-4" d="M65.24,38.55a2.78,2.78,0,0,1,1.16-2.31,5.38,5.38,0,0,1,3.28-.88c3,0,4.44,1.07,4.44,3.19a3.11,3.11,0,0,1-.57,2,2.73,2.73,0,0,1-1.51,1,9.17,9.17,0,0,1-2.36.26A6.13,6.13,0,0,1,66.5,41,2.62,2.62,0,0,1,65.24,38.55Z"/><path class="cls-4" d="M90.05,41.41a4.25,4.25,0,0,1-3.51-1.36c-.73-.91-1.09-2.5-1.09-4.77H77.91A5.29,5.29,0,0,1,74,34a4.61,4.61,0,0,1-1.28-3.36,7.2,7.2,0,0,1,1.1-3.95Q76.7,22,80.33,16.59a6.64,6.64,0,0,1,5.83-3.19l3.54,0c2,0,3.33.34,4,1a4.92,4.92,0,0,1,1.05,3.59V29.15a3.69,3.69,0,0,1,2.41.88,3.31,3.31,0,0,1,.65,2.27,2.84,2.84,0,0,1-.7,2.2,4.07,4.07,0,0,1-2.36.74c0,2.21-.4,3.79-1.19,4.74A4.34,4.34,0,0,1,90.05,41.41Zm-4.64-12.1.13-8.94-5.46,8.94Z"/><path class="cls-5" d="M54.61,33.64h4.52q3.42,0,3.42,4a4,4,0,0,1-1.08,3.17c-.72.63-2,.94-3.85.94h-11c-1.91,0-3.2-.25-3.89-.77s-1-1.63-1-3.34a5.64,5.64,0,0,1,.16-1.45,3.53,3.53,0,0,1,.62-1.2,5.18,5.18,0,0,1,1.22-1.13c1.47-1,2.62-1.82,3.46-2.44s1.67-1.26,2.47-1.95a13.25,13.25,0,0,0,1.77-1.76,11.21,11.21,0,0,0,1-1.66A6.38,6.38,0,0,0,53,24.15,15.39,15.39,0,0,0,53.15,22c0-1.56-.47-2.35-1.42-2.35s-1.55.93-1.55,2.77a2,2,0,0,1-1,2,7,7,0,0,1-2.89.46c-1.74,0-2.92-.39-3.53-1.17a6.48,6.48,0,0,1-.91-3.91,5.48,5.48,0,0,1,2.51-4.56,11.74,11.74,0,0,1,7-1.82q11.07,0,11.07,8.69A14.11,14.11,0,0,1,62,25.77a11.66,11.66,0,0,1-1.1,2.77,9.08,9.08,0,0,1-1.78,2.12A17.42,17.42,0,0,1,57,32.3,26.68,26.68,0,0,1,54.61,33.64Z"/><path class="cls-5" d="M65.24,38.55a2.78,2.78,0,0,1,1.16-2.31,5.38,5.38,0,0,1,3.28-.88c3,0,4.44,1.07,4.44,3.19a3.11,3.11,0,0,1-.57,2,2.73,2.73,0,0,1-1.51,1,9.17,9.17,0,0,1-2.36.26A6.13,6.13,0,0,1,66.5,41,2.62,2.62,0,0,1,65.24,38.55Z"/><path class="cls-5" d="M90.05,41.41a4.25,4.25,0,0,1-3.51-1.36c-.73-.91-1.09-2.5-1.09-4.77H77.91A5.29,5.29,0,0,1,74,34a4.61,4.61,0,0,1-1.28-3.36,7.2,7.2,0,0,1,1.1-3.95Q76.7,22,80.33,16.59a6.64,6.64,0,0,1,5.83-3.19l3.54,0c2,0,3.33.34,4,1a4.92,4.92,0,0,1,1.05,3.59V29.15a3.69,3.69,0,0,1,2.41.88,3.31,3.31,0,0,1,.65,2.27,2.84,2.84,0,0,1-.7,2.2,4.07,4.07,0,0,1-2.36.74c0,2.21-.4,3.79-1.19,4.74A4.34,4.34,0,0,1,90.05,41.41Zm-4.64-12.1.13-8.94-5.46,8.94Z"/></g></g></svg>