<svg xmlns="http://www.w3.org/2000/svg" viewBox="0 0 399.98 100.13"><defs><style>.cls-1{fill:#23841a;}.cls-2{fill:#fff;}.cls-3,.cls-4{fill:none;stroke-width:5px;}.cls-3{stroke:#ff7300;stroke-linejoin:round;}.cls-4{stroke:#fff;}.cls-5{fill:#ff7300;}</style></defs><title>24t_1</title><g id="Layer_2" data-name="Layer 2"><g id="pestaña_identificativa" data-name="pestaña identificativa"><rect class="cls-1" width="399.98" height="100.13" rx="32.4"/><path class="cls-2" d="M131.56,35a8.64,8.64,0,0,1-2.33-.34,9.52,9.52,0,0,1-4.55-2.84,8.48,8.48,0,0,1-1.51-2.55,9.38,9.38,0,0,1-.56-3.33,8.58,8.58,0,0,1,.57-3.23,8.06,8.06,0,0,1,1.51-2.46,9,9,0,0,1,2.13-1.74,9.69,9.69,0,0,1,2.41-1,8.89,8.89,0,0,1,2.39-.34,7.36,7.36,0,0,1,2.22.3,8.09,8.09,0,0,1,1.54.63l.76.42a7.94,7.94,0,0,1,.85.65,1.25,1.25,0,0,1,.43.9,1.61,1.61,0,0,1-.12.6,2.24,2.24,0,0,1-.33.6,3.23,3.23,0,0,1-.78.84,1.23,1.23,0,0,1-.72.26,1.19,1.19,0,0,1-.58-.15c-.18-.1-.4-.23-.65-.4s-.28-.19-.5-.31a3.53,3.53,0,0,0-.89-.34,5.38,5.38,0,0,0-1.38-.15,5.53,5.53,0,0,0-1.77.3,5.18,5.18,0,0,0-1.63.92,4.73,4.73,0,0,0-1.21,1.59,5.62,5.62,0,0,0-.45,2.26,5,5,0,0,0,.47,2.25,4.57,4.57,0,0,0,1.21,1.58,5.24,5.24,0,0,0,1.63.94,5.16,5.16,0,0,0,1.74.31,4.73,4.73,0,0,0,1.28-.15,4.9,4.9,0,0,0,.92-.36c.27-.14.49-.27.68-.39l.56-.32a1.26,1.26,0,0,1,.59-.15,1.19,1.19,0,0,1,.71.27,3.44,3.44,0,0,1,.74.88,2.6,2.6,0,0,1,.33.64,1.68,1.68,0,0,1,.11.61,1,1,0,0,1-.41.86,6.38,6.38,0,0,1-.86.61l-.75.44a7.19,7.19,0,0,1-1.53.62A7.93,7.93,0,0,1,131.56,35Z"/><path class="cls-2" d="M140.37,21.45a.83.83,0,0,1-.74-.26,2.63,2.63,0,0,1-.51-1,2,2,0,0,1-.1-1.3,1.38,1.38,0,0,1,.92-.67l4.4-1.35a.91.91,0,0,1,.73.29,2.53,2.53,0,0,1,.5,1,1.93,1.93,0,0,1,.09,1.27,1.35,1.35,0,0,1-.92.68Zm1,13.4a2.39,2.39,0,0,1-1.31-.27,1,1,0,0,1-.47-.7,4.46,4.46,0,0,1-.09-.91V24.24a4.53,4.53,0,0,1,.09-.91,1.08,1.08,0,0,1,.49-.7,2.59,2.59,0,0,1,1.33-.26,2.21,2.21,0,0,1,1.28.28,1.12,1.12,0,0,1,.48.71,4.64,4.64,0,0,1,.08.94V33a4.53,4.53,0,0,1-.09.91,1.08,1.08,0,0,1-.47.69A2.64,2.64,0,0,1,141.33,34.85Z"/><path class="cls-2" d="M147.56,34.85a2.45,2.45,0,0,1-1.31-.26,1.11,1.11,0,0,1-.48-.72,4.63,4.63,0,0,1-.09-.92V24.22a4.42,4.42,0,0,1,.09-.92,1.08,1.08,0,0,1,.49-.69,3.45,3.45,0,0,1,2.58,0,1.06,1.06,0,0,1,.49.55,1.73,1.73,0,0,1,.1.54l-.3.15a2.39,2.39,0,0,1,.26-.37,4.06,4.06,0,0,1,.59-.55,3.53,3.53,0,0,1,2.15-.68,4.55,4.55,0,0,1,.61,0,3,3,0,0,1,.7.15,2.54,2.54,0,0,1,.67.3,1.51,1.51,0,0,1,.48.46,1.13,1.13,0,0,1,.19.67,3,3,0,0,1-.48,1.74,1.38,1.38,0,0,1-1.2.71,2.11,2.11,0,0,1-.6-.06.92.92,0,0,1-.28-.15,1.17,1.17,0,0,0-.27-.15,1.68,1.68,0,0,0-.55-.06,2.39,2.39,0,0,0-.71.1,1.9,1.9,0,0,0-.62.31,1.39,1.39,0,0,0-.45.52,1.53,1.53,0,0,0-.17.72V33a4.46,4.46,0,0,1-.09.91,1,1,0,0,1-.49.69A2.56,2.56,0,0,1,147.56,34.85Z"/><path class="cls-2" d="M162.93,35a6.59,6.59,0,0,1-2.23-.41,7.16,7.16,0,0,1-2.1-1.22,5.68,5.68,0,0,1-1.54-2,6.35,6.35,0,0,1-.57-2.75,6.15,6.15,0,0,1,.57-2.72,6,6,0,0,1,1.53-2,6.75,6.75,0,0,1,2.09-1.21,6.57,6.57,0,0,1,2.21-.41,6,6,0,0,1,1.66.21,5.41,5.41,0,0,1,1.25.52,3.91,3.91,0,0,1,.74.52,8.35,8.35,0,0,1,.75.65,1.09,1.09,0,0,1,.3.85,1.53,1.53,0,0,1-.18.56,3.82,3.82,0,0,1-.37.59c-.52.7-1,1-1.5.95a2.27,2.27,0,0,1-.69-.25l-.6-.35a4.37,4.37,0,0,0-.61-.31,2,2,0,0,0-.75-.14,2.57,2.57,0,0,0-2.22,1.24,2.52,2.52,0,0,0-.33,1.31,2.5,2.5,0,0,0,1.23,2.21,2.39,2.39,0,0,0,1.27.34,2.37,2.37,0,0,0,.72-.1,2.59,2.59,0,0,0,.55-.24l.35-.21.58-.36a1,1,0,0,1,.55-.16,1.19,1.19,0,0,1,.73.26,3.85,3.85,0,0,1,.81.84,2,2,0,0,1,.49,1,1.22,1.22,0,0,1-.21.86,2.69,2.69,0,0,1-.85.77,5.76,5.76,0,0,1-.71.45,6.63,6.63,0,0,1-1.26.49A5.64,5.64,0,0,1,162.93,35Z"/><path class="cls-2" d="M175.26,34.84a5.25,5.25,0,0,1-2.18-.45,5.43,5.43,0,0,1-1.75-1.26,5.85,5.85,0,0,1-1.16-1.93,7.06,7.06,0,0,1-.41-2.44V24.24a4.52,4.52,0,0,1,.09-.93,1.13,1.13,0,0,1,.49-.7,2.47,2.47,0,0,1,1.33-.27,2.39,2.39,0,0,1,1.31.27,1.15,1.15,0,0,1,.47.72,4.62,4.62,0,0,1,.09.94v4.5A2.78,2.78,0,0,0,173.8,30a1.73,1.73,0,0,0,.77.81,2.46,2.46,0,0,0,1.21.28,2.5,2.5,0,0,0,1.24-.29,2,2,0,0,0,.8-.81,2.59,2.59,0,0,0,.29-1.25V24.22a4.52,4.52,0,0,1,.09-.93,1,1,0,0,1,.49-.68,2.46,2.46,0,0,1,1.32-.27,2.49,2.49,0,0,1,1.32.28,1.1,1.1,0,0,1,.47.71,4.56,4.56,0,0,1,.09.92v8.8a4.88,4.88,0,0,1-.08.88,1.06,1.06,0,0,1-.49.67,2.54,2.54,0,0,1-1.3.24,2.92,2.92,0,0,1-1-.15,1.23,1.23,0,0,1-.55-.37.94.94,0,0,1-.21-.48,2.42,2.42,0,0,1,0-.45l.32-.27a2.75,2.75,0,0,1-.32.39,7.18,7.18,0,0,1-.66.57,4.28,4.28,0,0,1-1,.54A3.31,3.31,0,0,1,175.26,34.84Z"/><path class="cls-2" d="M189.18,34.87a14.14,14.14,0,0,1-1.82-.1,3.58,3.58,0,0,1-1.35-.4,2.42,2.42,0,0,1-.9-.84,4,4,0,0,1-.53-1.37,10.88,10.88,0,0,1-.17-2.06V18.55a3.9,3.9,0,0,1,.1-.93,1.17,1.17,0,0,1,.49-.7,3.26,3.26,0,0,1,2.6,0,1.19,1.19,0,0,1,.48.7,4,4,0,0,1,.1.93V29.92a6.19,6.19,0,0,0,0,.67,1,1,0,0,0,.15.41.54.54,0,0,0,.31.2,2.5,2.5,0,0,0,.53.05,3.26,3.26,0,0,1,.61.07.94.94,0,0,1,.54.46,2.55,2.55,0,0,1,.22,1.25,2.81,2.81,0,0,1-.22,1.3.89.89,0,0,1-.54.47A2.73,2.73,0,0,1,189.18,34.87Z"/><path class="cls-2" d="M198.41,35.08a6.21,6.21,0,0,1-2.34-.46A7.06,7.06,0,0,1,194,33.3a6.17,6.17,0,0,1-1.51-2,6,6,0,0,1-.56-2.63,6.24,6.24,0,0,1,.51-2.52,6.75,6.75,0,0,1,1.41-2.06,6.67,6.67,0,0,1,2.07-1.41,6.08,6.08,0,0,1,2.48-.51,6.39,6.39,0,0,1,3.27.86A6.61,6.61,0,0,1,204,25.33a6.27,6.27,0,0,1,.88,3.28,6.17,6.17,0,0,1-.57,2.71,6.35,6.35,0,0,1-1.5,2,6.61,6.61,0,0,1-2.08,1.28A6.12,6.12,0,0,1,198.41,35.08Zm0-3.77a2.85,2.85,0,0,0,1.23-.3,2.81,2.81,0,0,0,1-.9,2.61,2.61,0,0,0,.42-1.53,2.77,2.77,0,0,0-.35-1.4,2.48,2.48,0,0,0-1-.94,3.06,3.06,0,0,0-1.41-.34,2.6,2.6,0,0,0-1.34.35,2.76,2.76,0,0,0-.95,1,2.93,2.93,0,0,0,0,2.9,2.54,2.54,0,0,0,1,.9A3,3,0,0,0,198.36,31.31Z"/><path class="cls-2" d="M211.36,35.09a8.15,8.15,0,0,1-1.48-.15,9,9,0,0,1-1.54-.44,5.27,5.27,0,0,1-1.25-.68,1.28,1.28,0,0,1-.56-.88,1.24,1.24,0,0,1,0-.54,2.32,2.32,0,0,1,.22-.6,4.44,4.44,0,0,1,.44-.66.84.84,0,0,1,.44-.35,1,1,0,0,1,.58,0,3.4,3.4,0,0,1,.8.26l.83.4a6.74,6.74,0,0,0,.87.38,2.68,2.68,0,0,0,.93.16,2.32,2.32,0,0,0,1.09-.21.66.66,0,0,0,.38-.59.64.64,0,0,0-.16-.45,1.6,1.6,0,0,0-.45-.3,5.77,5.77,0,0,0-.67-.23L211,30c-.29-.06-.59-.15-.91-.25a7.12,7.12,0,0,1-1.18-.45,4,4,0,0,1-1-.71,3.1,3.1,0,0,1-.74-1.08,4,4,0,0,1-.27-1.56,3.59,3.59,0,0,1,.56-2.05,3.53,3.53,0,0,1,1.66-1.26,7.41,7.41,0,0,1,2.7-.44,8.88,8.88,0,0,1,.9.05,6.69,6.69,0,0,1,1.75.48,6.16,6.16,0,0,1,.85.43,1.13,1.13,0,0,1,.78.95,2.12,2.12,0,0,1-.43,1.25,2,2,0,0,1-.57.58.89.89,0,0,1-.63.14,4.36,4.36,0,0,1-.86-.34c-.31-.16-.63-.3-1-.44a2.89,2.89,0,0,0-1-.2,1.94,1.94,0,0,0-.72.12.94.94,0,0,0-.45.3.66.66,0,0,0-.15.43.73.73,0,0,0,.18.52,1.7,1.7,0,0,0,.52.31,4.87,4.87,0,0,0,.75.22c.28.07.59.14.92.2s.91.2,1.39.34a4.58,4.58,0,0,1,1.3.62,2.91,2.91,0,0,1,1,1.07,3.78,3.78,0,0,1,.36,1.78,3.57,3.57,0,0,1-1.38,3A6.33,6.33,0,0,1,211.36,35.09Z"/><path class="cls-3" d="M131.56,35a8.64,8.64,0,0,1-2.33-.34,9.52,9.52,0,0,1-4.55-2.84,8.48,8.48,0,0,1-1.51-2.55,9.38,9.38,0,0,1-.56-3.33,8.58,8.58,0,0,1,.57-3.23,8.06,8.06,0,0,1,1.51-2.46,9,9,0,0,1,2.13-1.74,9.69,9.69,0,0,1,2.41-1,8.89,8.89,0,0,1,2.39-.34,7.36,7.36,0,0,1,2.22.3,8.09,8.09,0,0,1,1.54.63l.76.42a7.94,7.94,0,0,1,.85.65,1.25,1.25,0,0,1,.43.9,1.61,1.61,0,0,1-.12.6,2.24,2.24,0,0,1-.33.6,3.23,3.23,0,0,1-.78.84,1.23,1.23,0,0,1-.72.26,1.19,1.19,0,0,1-.58-.15c-.18-.1-.4-.23-.65-.4s-.28-.19-.5-.31a3.53,3.53,0,0,0-.89-.34,5.38,5.38,0,0,0-1.38-.15,5.53,5.53,0,0,0-1.77.3,5.18,5.18,0,0,0-1.63.92,4.73,4.73,0,0,0-1.21,1.59,5.62,5.62,0,0,0-.45,2.26,5,5,0,0,0,.47,2.25,4.57,4.57,0,0,0,1.21,1.58,5.24,5.24,0,0,0,1.63.94,5.16,5.16,0,0,0,1.74.31,4.73,4.73,0,0,0,1.28-.15,4.9,4.9,0,0,0,.92-.36c.27-.14.49-.27.68-.39l.56-.32a1.26,1.26,0,0,1,.59-.15,1.19,1.19,0,0,1,.71.27,3.44,3.44,0,0,1,.74.88,2.6,2.6,0,0,1,.33.64,1.68,1.68,0,0,1,.11.61,1,1,0,0,1-.41.86,6.38,6.38,0,0,1-.86.61l-.75.44a7.19,7.19,0,0,1-1.53.62A7.93,7.93,0,0,1,131.56,35Z"/><path class="cls-3" d="M140.37,21.45a.83.83,0,0,1-.74-.26,2.63,2.63,0,0,1-.51-1,2,2,0,0,1-.1-1.3,1.38,1.38,0,0,1,.92-.67l4.4-1.35a.91.91,0,0,1,.73.29,2.53,2.53,0,0,1,.5,1,1.93,1.93,0,0,1,.09,1.27,1.35,1.35,0,0,1-.92.68Zm1,13.4a2.39,2.39,0,0,1-1.31-.27,1,1,0,0,1-.47-.7,4.46,4.46,0,0,1-.09-.91V24.24a4.53,4.53,0,0,1,.09-.91,1.08,1.08,0,0,1,.49-.7,2.59,2.59,0,0,1,1.33-.26,2.21,2.21,0,0,1,1.28.28,1.12,1.12,0,0,1,.48.71,4.64,4.64,0,0,1,.08.94V33a4.53,4.53,0,0,1-.09.91,1.08,1.08,0,0,1-.47.69A2.64,2.64,0,0,1,141.33,34.85Z"/><path class="cls-3" d="M147.56,34.85a2.45,2.45,0,0,1-1.31-.26,1.11,1.11,0,0,1-.48-.72,4.63,4.63,0,0,1-.09-.92V24.22a4.42,4.42,0,0,1,.09-.92,1.08,1.08,0,0,1,.49-.69,3.45,3.45,0,0,1,2.58,0,1.06,1.06,0,0,1,.49.55,1.73,1.73,0,0,1,.1.54l-.3.15a2.39,2.39,0,0,1,.26-.37,4.06,4.06,0,0,1,.59-.55,3.53,3.53,0,0,1,2.15-.68,4.55,4.55,0,0,1,.61,0,3,3,0,0,1,.7.15,2.54,2.54,0,0,1,.67.3,1.51,1.51,0,0,1,.48.46,1.13,1.13,0,0,1,.19.67,3,3,0,0,1-.48,1.74,1.38,1.38,0,0,1-1.2.71,2.11,2.11,0,0,1-.6-.06.92.92,0,0,1-.28-.15,1.17,1.17,0,0,0-.27-.15,1.68,1.68,0,0,0-.55-.06,2.39,2.39,0,0,0-.71.1,1.9,1.9,0,0,0-.62.31,1.39,1.39,0,0,0-.45.52,1.53,1.53,0,0,0-.17.72V33a4.46,4.46,0,0,1-.09.91,1,1,0,0,1-.49.69A2.56,2.56,0,0,1,147.56,34.85Z"/><path class="cls-3" d="M162.93,35a6.59,6.59,0,0,1-2.23-.41,7.16,7.16,0,0,1-2.1-1.22,5.68,5.68,0,0,1-1.54-2,6.35,6.35,0,0,1-.57-2.75,6.15,6.15,0,0,1,.57-2.72,6,6,0,0,1,1.53-2,6.75,6.75,0,0,1,2.09-1.21,6.57,6.57,0,0,1,2.21-.41,6,6,0,0,1,1.66.21,5.41,5.41,0,0,1,1.25.52,3.91,3.91,0,0,1,.74.52,8.35,8.35,0,0,1,.75.65,1.09,1.09,0,0,1,.3.85,1.53,1.53,0,0,1-.18.56,3.82,3.82,0,0,1-.37.59c-.52.7-1,1-1.5.95a2.27,2.27,0,0,1-.69-.25l-.6-.35a4.37,4.37,0,0,0-.61-.31,2,2,0,0,0-.75-.14,2.57,2.57,0,0,0-2.22,1.24,2.52,2.52,0,0,0-.33,1.31,2.5,2.5,0,0,0,1.23,2.21,2.39,2.39,0,0,0,1.27.34,2.37,2.37,0,0,0,.72-.1,2.59,2.59,0,0,0,.55-.24l.35-.21.58-.36a1,1,0,0,1,.55-.16,1.19,1.19,0,0,1,.73.26,3.85,3.85,0,0,1,.81.84,2,2,0,0,1,.49,1,1.22,1.22,0,0,1-.21.86,2.69,2.69,0,0,1-.85.77,5.76,5.76,0,0,1-.71.45,6.63,6.63,0,0,1-1.26.49A5.64,5.64,0,0,1,162.93,35Z"/><path class="cls-3" d="M175.26,34.84a5.25,5.25,0,0,1-2.18-.45,5.43,5.43,0,0,1-1.75-1.26,5.85,5.85,0,0,1-1.16-1.93,7.06,7.06,0,0,1-.41-2.44V24.24a4.52,4.52,0,0,1,.09-.93,1.13,1.13,0,0,1,.49-.7,2.47,2.47,0,0,1,1.33-.27,2.39,2.39,0,0,1,1.31.27,1.15,1.15,0,0,1,.47.72,4.62,4.62,0,0,1,.09.94v4.5A2.78,2.78,0,0,0,173.8,30a1.73,1.73,0,0,0,.77.81,2.46,2.46,0,0,0,1.21.28,2.5,2.5,0,0,0,1.24-.29,2,2,0,0,0,.8-.81,2.59,2.59,0,0,0,.29-1.25V24.22a4.52,4.52,0,0,1,.09-.93,1,1,0,0,1,.49-.68,2.46,2.46,0,0,1,1.32-.27,2.49,2.49,0,0,1,1.32.28,1.1,1.1,0,0,1,.47.71,4.56,4.56,0,0,1,.09.92v8.8a4.88,4.88,0,0,1-.08.88,1.06,1.06,0,0,1-.49.67,2.54,2.54,0,0,1-1.3.24,2.92,2.92,0,0,1-1-.15,1.23,1.23,0,0,1-.55-.37.94.94,0,0,1-.21-.48,2.42,2.42,0,0,1,0-.45l.32-.27a2.75,2.75,0,0,1-.32.39,7.18,7.18,0,0,1-.66.57,4.28,4.28,0,0,1-1,.54A3.31,3.31,0,0,1,175.26,34.84Z"/><path class="cls-3" d="M189.18,34.87a14.14,14.14,0,0,1-1.82-.1,3.58,3.58,0,0,1-1.35-.4,2.42,2.42,0,0,1-.9-.84,4,4,0,0,1-.53-1.37,10.88,10.88,0,0,1-.17-2.06V18.55a3.9,3.9,0,0,1,.1-.93,1.17,1.17,0,0,1,.49-.7,3.26,3.26,0,0,1,2.6,0,1.19,1.19,0,0,1,.48.7,4,4,0,0,1,.1.93V29.92a6.19,6.19,0,0,0,0,.67,1,1,0,0,0,.15.41.54.54,0,0,0,.31.2,2.5,2.5,0,0,0,.53.05,3.26,3.26,0,0,1,.61.07.94.94,0,0,1,.54.46,2.55,2.55,0,0,1,.22,1.25,2.81,2.81,0,0,1-.22,1.3.89.89,0,0,1-.54.47A2.73,2.73,0,0,1,189.18,34.87Z"/><path class="cls-3" d="M198.41,35.08a6.21,6.21,0,0,1-2.34-.46A7.06,7.06,0,0,1,194,33.3a6.17,6.17,0,0,1-1.51-2,6,6,0,0,1-.56-2.63,6.24,6.24,0,0,1,.51-2.52,6.75,6.75,0,0,1,1.41-2.06,6.67,6.67,0,0,1,2.07-1.41,6.08,6.08,0,0,1,2.48-.51,6.39,6.39,0,0,1,3.27.86A6.61,6.61,0,0,1,204,25.33a6.27,6.27,0,0,1,.88,3.28,6.17,6.17,0,0,1-.57,2.71,6.35,6.35,0,0,1-1.5,2,6.61,6.61,0,0,1-2.08,1.28A6.12,6.12,0,0,1,198.41,35.08Zm0-3.77a2.85,2.85,0,0,0,1.23-.3,2.81,2.81,0,0,0,1-.9,2.61,2.61,0,0,0,.42-1.53,2.77,2.77,0,0,0-.35-1.4,2.48,2.48,0,0,0-1-.94,3.06,3.06,0,0,0-1.41-.34,2.6,2.6,0,0,0-1.34.35,2.76,2.76,0,0,0-.95,1,2.93,2.93,0,0,0,0,2.9,2.54,2.54,0,0,0,1,.9A3,3,0,0,0,198.36,31.31Z"/><path class="cls-3" d="M211.36,35.09a8.15,8.15,0,0,1-1.48-.15,9,9,0,0,1-1.54-.44,5.27,5.27,0,0,1-1.25-.68,1.28,1.28,0,0,1-.56-.88,1.24,1.24,0,0,1,0-.54,2.32,2.32,0,0,1,.22-.6,4.44,4.44,0,0,1,.44-.66.84.84,0,0,1,.44-.35,1,1,0,0,1,.58,0,3.4,3.4,0,0,1,.8.26l.83.4a6.74,6.74,0,0,0,.87.38,2.68,2.68,0,0,0,.93.16,2.32,2.32,0,0,0,1.09-.21.66.66,0,0,0,.38-.59.64.64,0,0,0-.16-.45,1.6,1.6,0,0,0-.45-.3,5.77,5.77,0,0,0-.67-.23L211,30c-.29-.06-.59-.15-.91-.25a7.12,7.12,0,0,1-1.18-.45,4,4,0,0,1-1-.71,3.1,3.1,0,0,1-.74-1.08,4,4,0,0,1-.27-1.56,3.59,3.59,0,0,1,.56-2.05,3.53,3.53,0,0,1,1.66-1.26,7.41,7.41,0,0,1,2.7-.44,8.88,8.88,0,0,1,.9.05,6.69,6.69,0,0,1,1.75.48,6.16,6.16,0,0,1,.85.43,1.13,1.13,0,0,1,.78.95,2.12,2.12,0,0,1-.43,1.25,2,2,0,0,1-.57.58.89.89,0,0,1-.63.14,4.36,4.36,0,0,1-.86-.34c-.31-.16-.63-.3-1-.44a2.89,2.89,0,0,0-1-.2,1.94,1.94,0,0,0-.72.12.94.94,0,0,0-.45.3.66.66,0,0,0-.15.43.73.73,0,0,0,.18.52,1.7,1.7,0,0,0,.52.31,4.87,4.87,0,0,0,.75.22c.28.07.59.14.92.2s.91.2,1.39.34a4.58,4.58,0,0,1,1.3.62,2.91,2.91,0,0,1,1,1.07,3.78,3.78,0,0,1,.36,1.78,3.57,3.57,0,0,1-1.38,3A6.33,6.33,0,0,1,211.36,35.09Z"/><path class="cls-2" d="M131.56,35a8.64,8.64,0,0,1-2.33-.34,9.52,9.52,0,0,1-4.55-2.84,8.48,8.48,0,0,1-1.51-2.55,9.38,9.38,0,0,1-.56-3.33,8.58,8.58,0,0,1,.57-3.23,8.06,8.06,0,0,1,1.51-2.46,9,9,0,0,1,2.13-1.74,9.69,9.69,0,0,1,2.41-1,8.89,8.89,0,0,1,2.39-.34,7.36,7.36,0,0,1,2.22.3,8.09,8.09,0,0,1,1.54.63l.76.42a7.94,7.94,0,0,1,.85.65,1.25,1.25,0,0,1,.43.9,1.61,1.61,0,0,1-.12.6,2.24,2.24,0,0,1-.33.6,3.23,3.23,0,0,1-.78.84,1.23,1.23,0,0,1-.72.26,1.19,1.19,0,0,1-.58-.15c-.18-.1-.4-.23-.65-.4s-.28-.19-.5-.31a3.53,3.53,0,0,0-.89-.34,5.38,5.38,0,0,0-1.38-.15,5.53,5.53,0,0,0-1.77.3,5.18,5.18,0,0,0-1.63.92,4.73,4.73,0,0,0-1.21,1.59,5.62,5.62,0,0,0-.45,2.26,5,5,0,0,0,.47,2.25,4.57,4.57,0,0,0,1.21,1.58,5.24,5.24,0,0,0,1.63.94,5.16,5.16,0,0,0,1.74.31,4.73,4.73,0,0,0,1.28-.15,4.9,4.9,0,0,0,.92-.36c.27-.14.49-.27.68-.39l.56-.32a1.26,1.26,0,0,1,.59-.15,1.19,1.19,0,0,1,.71.27,3.44,3.44,0,0,1,.74.88,2.6,2.6,0,0,1,.33.64,1.68,1.68,0,0,1,.11.61,1,1,0,0,1-.41.86,6.38,6.38,0,0,1-.86.61l-.75.44a7.19,7.19,0,0,1-1.53.62A7.93,7.93,0,0,1,131.56,35Z"/><path class="cls-2" d="M140.37,21.45a.83.83,0,0,1-.74-.26,2.63,2.63,0,0,1-.51-1,2,2,0,0,1-.1-1.3,1.38,1.38,0,0,1,.92-.67l4.4-1.35a.91.91,0,0,1,.73.29,2.53,2.53,0,0,1,.5,1,1.93,1.93,0,0,1,.09,1.27,1.35,1.35,0,0,1-.92.68Zm1,13.4a2.39,2.39,0,0,1-1.31-.27,1,1,0,0,1-.47-.7,4.46,4.46,0,0,1-.09-.91V24.24a4.53,4.53,0,0,1,.09-.91,1.08,1.08,0,0,1,.49-.7,2.59,2.59,0,0,1,1.33-.26,2.21,2.21,0,0,1,1.28.28,1.12,1.12,0,0,1,.48.71,4.64,4.64,0,0,1,.08.94V33a4.53,4.53,0,0,1-.09.91,1.08,1.08,0,0,1-.47.69A2.64,2.64,0,0,1,141.33,34.85Z"/><path class="cls-2" d="M147.56,34.85a2.45,2.45,0,0,1-1.31-.26,1.11,1.11,0,0,1-.48-.72,4.63,4.63,0,0,1-.09-.92V24.22a4.42,4.42,0,0,1,.09-.92,1.08,1.08,0,0,1,.49-.69,3.45,3.45,0,0,1,2.58,0,1.06,1.06,0,0,1,.49.55,1.73,1.73,0,0,1,.1.54l-.3.15a2.39,2.39,0,0,1,.26-.37,4.06,4.06,0,0,1,.59-.55,3.53,3.53,0,0,1,2.15-.68,4.55,4.55,0,0,1,.61,0,3,3,0,0,1,.7.15,2.54,2.54,0,0,1,.67.3,1.51,1.51,0,0,1,.48.46,1.13,1.13,0,0,1,.19.67,3,3,0,0,1-.48,1.74,1.38,1.38,0,0,1-1.2.71,2.11,2.11,0,0,1-.6-.06.92.92,0,0,1-.28-.15,1.17,1.17,0,0,0-.27-.15,1.68,1.68,0,0,0-.55-.06,2.39,2.39,0,0,0-.71.1,1.9,1.9,0,0,0-.62.31,1.39,1.39,0,0,0-.45.52,1.53,1.53,0,0,0-.17.72V33a4.46,4.46,0,0,1-.09.91,1,1,0,0,1-.49.69A2.56,2.56,0,0,1,147.56,34.85Z"/><path class="cls-2" d="M162.93,35a6.59,6.59,0,0,1-2.23-.41,7.16,7.16,0,0,1-2.1-1.22,5.68,5.68,0,0,1-1.54-2,6.35,6.35,0,0,1-.57-2.75,6.15,6.15,0,0,1,.57-2.72,6,6,0,0,1,1.53-2,6.75,6.75,0,0,1,2.09-1.21,6.57,6.57,0,0,1,2.21-.41,6,6,0,0,1,1.66.21,5.41,5.41,0,0,1,1.25.52,3.91,3.91,0,0,1,.74.52,8.35,8.35,0,0,1,.75.65,1.09,1.09,0,0,1,.3.85,1.53,1.53,0,0,1-.18.56,3.82,3.82,0,0,1-.37.59c-.52.7-1,1-1.5.95a2.27,2.27,0,0,1-.69-.25l-.6-.35a4.37,4.37,0,0,0-.61-.31,2,2,0,0,0-.75-.14,2.57,2.57,0,0,0-2.22,1.24,2.52,2.52,0,0,0-.33,1.31,2.5,2.5,0,0,0,1.23,2.21,2.39,2.39,0,0,0,1.27.34,2.37,2.37,0,0,0,.72-.1,2.59,2.59,0,0,0,.55-.24l.35-.21.58-.36a1,1,0,0,1,.55-.16,1.19,1.19,0,0,1,.73.26,3.85,3.85,0,0,1,.81.84,2,2,0,0,1,.49,1,1.22,1.22,0,0,1-.21.86,2.69,2.69,0,0,1-.85.77,5.76,5.76,0,0,1-.71.45,6.63,6.63,0,0,1-1.26.49A5.64,5.64,0,0,1,162.93,35Z"/><path class="cls-2" d="M175.26,34.84a5.25,5.25,0,0,1-2.18-.45,5.43,5.43,0,0,1-1.75-1.26,5.85,5.85,0,0,1-1.16-1.93,7.06,7.06,0,0,1-.41-2.44V24.24a4.52,4.52,0,0,1,.09-.93,1.13,1.13,0,0,1,.49-.7,2.47,2.47,0,0,1,1.33-.27,2.39,2.39,0,0,1,1.31.27,1.15,1.15,0,0,1,.47.72,4.62,4.62,0,0,1,.09.94v4.5A2.78,2.78,0,0,0,173.8,30a1.73,1.73,0,0,0,.77.81,2.46,2.46,0,0,0,1.21.28,2.5,2.5,0,0,0,1.24-.29,2,2,0,0,0,.8-.81,2.59,2.59,0,0,0,.29-1.25V24.22a4.52,4.52,0,0,1,.09-.93,1,1,0,0,1,.49-.68,2.46,2.46,0,0,1,1.32-.27,2.49,2.49,0,0,1,1.32.28,1.1,1.1,0,0,1,.47.71,4.56,4.56,0,0,1,.09.92v8.8a4.88,4.88,0,0,1-.08.88,1.06,1.06,0,0,1-.49.67,2.54,2.54,0,0,1-1.3.24,2.92,2.92,0,0,1-1-.15,1.23,1.23,0,0,1-.55-.37.94.94,0,0,1-.21-.48,2.42,2.42,0,0,1,0-.45l.32-.27a2.75,2.75,0,0,1-.32.39,7.18,7.18,0,0,1-.66.57,4.28,4.28,0,0,1-1,.54A3.31,3.31,0,0,1,175.26,34.84Z"/><path class="cls-2" d="M189.18,34.87a14.14,14.14,0,0,1-1.82-.1,3.58,3.58,0,0,1-1.35-.4,2.42,2.42,0,0,1-.9-.84,4,4,0,0,1-.53-1.37,10.88,10.88,0,0,1-.17-2.06V18.55a3.9,3.9,0,0,1,.1-.93,1.17,1.17,0,0,1,.49-.7,3.26,3.26,0,0,1,2.6,0,1.19,1.19,0,0,1,.48.7,4,4,0,0,1,.1.93V29.92a6.19,6.19,0,0,0,0,.67,1,1,0,0,0,.15.41.54.54,0,0,0,.31.2,2.5,2.5,0,0,0,.53.05,3.26,3.26,0,0,1,.61.07.94.94,0,0,1,.54.46,2.55,2.55,0,0,1,.22,1.25,2.81,2.81,0,0,1-.22,1.3.89.89,0,0,1-.54.47A2.73,2.73,0,0,1,189.18,34.87Z"/><path class="cls-2" d="M198.41,35.08a6.21,6.21,0,0,1-2.34-.46A7.06,7.06,0,0,1,194,33.3a6.17,6.17,0,0,1-1.51-2,6,6,0,0,1-.56-2.63,6.24,6.24,0,0,1,.51-2.52,6.75,6.75,0,0,1,1.41-2.06,6.67,6.67,0,0,1,2.07-1.41,6.08,6.08,0,0,1,2.48-.51,6.39,6.39,0,0,1,3.27.86A6.61,6.61,0,0,1,204,25.33a6.27,6.27,0,0,1,.88,3.28,6.17,6.17,0,0,1-.57,2.71,6.35,6.35,0,0,1-1.5,2,6.61,6.61,0,0,1-2.08,1.28A6.12,6.12,0,0,1,198.41,35.08Zm0-3.77a2.85,2.85,0,0,0,1.23-.3,2.81,2.81,0,0,0,1-.9,2.61,2.61,0,0,0,.42-1.53,2.77,2.77,0,0,0-.35-1.4,2.48,2.48,0,0,0-1-.94,3.06,3.06,0,0,0-1.41-.34,2.6,2.6,0,0,0-1.34.35,2.76,2.76,0,0,0-.95,1,2.93,2.93,0,0,0,0,2.9,2.54,2.54,0,0,0,1,.9A3,3,0,0,0,198.36,31.31Z"/><path class="cls-2" d="M211.36,35.09a8.15,8.15,0,0,1-1.48-.15,9,9,0,0,1-1.54-.44,5.27,5.27,0,0,1-1.25-.68,1.28,1.28,0,0,1-.56-.88,1.24,1.24,0,0,1,0-.54,2.32,2.32,0,0,1,.22-.6,4.44,4.44,0,0,1,.44-.66.84.84,0,0,1,.44-.35,1,1,0,0,1,.58,0,3.4,3.4,0,0,1,.8.26l.83.4a6.74,6.74,0,0,0,.87.38,2.68,2.68,0,0,0,.93.16,2.32,2.32,0,0,0,1.09-.21.66.66,0,0,0,.38-.59.64.64,0,0,0-.16-.45,1.6,1.6,0,0,0-.45-.3,5.77,5.77,0,0,0-.67-.23L211,30c-.29-.06-.59-.15-.91-.25a7.12,7.12,0,0,1-1.18-.45,4,4,0,0,1-1-.71,3.1,3.1,0,0,1-.74-1.08,4,4,0,0,1-.27-1.56,3.59,3.59,0,0,1,.56-2.05,3.53,3.53,0,0,1,1.66-1.26,7.41,7.41,0,0,1,2.7-.44,8.88,8.88,0,0,1,.9.05,6.69,6.69,0,0,1,1.75.48,6.16,6.16,0,0,1,.85.43,1.13,1.13,0,0,1,.78.95,2.12,2.12,0,0,1-.43,1.25,2,2,0,0,1-.57.58.89.89,0,0,1-.63.14,4.36,4.36,0,0,1-.86-.34c-.31-.16-.63-.3-1-.44a2.89,2.89,0,0,0-1-.2,1.94,1.94,0,0,0-.72.12.94.94,0,0,0-.45.3.66.66,0,0,0-.15.43.73.73,0,0,0,.18.52,1.7,1.7,0,0,0,.52.31,4.87,4.87,0,0,0,.75.22c.28.07.59.14.92.2s.91.2,1.39.34a4.58,4.58,0,0,1,1.3.62,2.91,2.91,0,0,1,1,1.07,3.78,3.78,0,0,1,.36,1.78,3.57,3.57,0,0,1-1.38,3A6.33,6.33,0,0,1,211.36,35.09Z"/><path class="cls-4" d="M54.61,34.08h4.52q3.42,0,3.42,4a4,4,0,0,1-1.08,3.17c-.72.63-2,.94-3.85.94h-11a6.93,6.93,0,0,1-3.9-.77c-.69-.52-1-1.63-1-3.34a5.58,5.58,0,0,1,.16-1.45,3.69,3.69,0,0,1,.61-1.2,5.45,5.45,0,0,1,1.23-1.13c1.47-1,2.62-1.82,3.46-2.44s1.67-1.26,2.47-1.95a13.25,13.25,0,0,0,1.77-1.76,10.41,10.41,0,0,0,1-1.66A6.21,6.21,0,0,0,53,24.59a15.39,15.39,0,0,0,.14-2.19c0-1.56-.47-2.35-1.42-2.35s-1.55.93-1.55,2.77a2,2,0,0,1-1,2,7,7,0,0,1-2.9.46c-1.73,0-2.91-.39-3.52-1.17a6.48,6.48,0,0,1-.91-3.91,5.48,5.48,0,0,1,2.51-4.56,11.67,11.67,0,0,1,7-1.82q11.07,0,11.07,8.69A14.11,14.11,0,0,1,62,26.21,11.66,11.66,0,0,1,60.89,29a9.08,9.08,0,0,1-1.78,2.12A17.42,17.42,0,0,1,57,32.74,26.68,26.68,0,0,1,54.61,34.08Z"/><path class="cls-4" d="M65.24,39a2.78,2.78,0,0,1,1.16-2.31,5.38,5.38,0,0,1,3.28-.88c3,0,4.44,1.07,4.44,3.19a3.11,3.11,0,0,1-.57,2,2.73,2.73,0,0,1-1.51,1,9.2,9.2,0,0,1-2.37.26,6.12,6.12,0,0,1-3.17-.76A2.63,2.63,0,0,1,65.24,39Z"/><path class="cls-4" d="M90.05,41.85a4.22,4.22,0,0,1-3.51-1.37c-.73-.9-1.09-2.49-1.09-4.76H77.91A5.33,5.33,0,0,1,74,34.42a4.61,4.61,0,0,1-1.28-3.36,7.2,7.2,0,0,1,1.1-3.95Q76.7,22.45,80.33,17a6.64,6.64,0,0,1,5.83-3.19l3.54,0c2,0,3.33.34,4,1a4.92,4.92,0,0,1,1.05,3.59V29.59a3.69,3.69,0,0,1,2.41.88,3.3,3.3,0,0,1,.65,2.26,2.86,2.86,0,0,1-.7,2.21,4.07,4.07,0,0,1-2.36.74c0,2.21-.4,3.79-1.19,4.74A4.34,4.34,0,0,1,90.05,41.85Zm-4.64-12.1.13-8.94-5.46,8.94Z"/><path class="cls-5" d="M54.61,34.08h4.52q3.42,0,3.42,4a4,4,0,0,1-1.08,3.17c-.72.63-2,.94-3.85.94h-11a6.93,6.93,0,0,1-3.9-.77c-.69-.52-1-1.63-1-3.34a5.58,5.58,0,0,1,.16-1.45,3.69,3.69,0,0,1,.61-1.2,5.45,5.45,0,0,1,1.23-1.13c1.47-1,2.62-1.82,3.46-2.44s1.67-1.26,2.47-1.95a13.25,13.25,0,0,0,1.77-1.76,10.41,10.41,0,0,0,1-1.66A6.21,6.21,0,0,0,53,24.59a15.39,15.39,0,0,0,.14-2.19c0-1.56-.47-2.35-1.42-2.35s-1.55.93-1.55,2.77a2,2,0,0,1-1,2,7,7,0,0,1-2.9.46c-1.73,0-2.91-.39-3.52-1.17a6.48,6.48,0,0,1-.91-3.91,5.48,5.48,0,0,1,2.51-4.56,11.67,11.67,0,0,1,7-1.82q11.07,0,11.07,8.69A14.11,14.11,0,0,1,62,26.21,11.66,11.66,0,0,1,60.89,29a9.08,9.08,0,0,1-1.78,2.12A17.42,17.42,0,0,1,57,32.74,26.68,26.68,0,0,1,54.61,34.08Z"/><path class="cls-5" d="M65.24,39a2.78,2.78,0,0,1,1.16-2.31,5.38,5.38,0,0,1,3.28-.88c3,0,4.44,1.07,4.44,3.19a3.11,3.11,0,0,1-.57,2,2.73,2.73,0,0,1-1.51,1,9.2,9.2,0,0,1-2.37.26,6.12,6.12,0,0,1-3.17-.76A2.63,2.63,0,0,1,65.24,39Z"/><path class="cls-5" d="M90.05,41.85a4.22,4.22,0,0,1-3.51-1.37c-.73-.9-1.09-2.49-1.09-4.76H77.91A5.33,5.33,0,0,1,74,34.42a4.61,4.61,0,0,1-1.28-3.36,7.2,7.2,0,0,1,1.1-3.95Q76.7,22.45,80.33,17a6.64,6.64,0,0,1,5.83-3.19l3.54,0c2,0,3.33.34,4,1a4.92,4.92,0,0,1,1.05,3.59V29.59a3.69,3.69,0,0,1,2.41.88,3.3,3.3,0,0,1,.65,2.26,2.86,2.86,0,0,1-.7,2.21,4.07,4.07,0,0,1-2.36.74c0,2.21-.4,3.79-1.19,4.74A4.34,4.34,0,0,1,90.05,41.85Zm-4.64-12.1.13-8.94-5.46,8.94Z"/></g></g></svg>