<svg xmlns="http://www.w3.org/2000/svg" viewBox="0 0 399.98 100.86"><defs><style>.cls-1{fill:#03826e;}.cls-2{fill:#fff;}.cls-3,.cls-4{fill:none;stroke-width:5px;}.cls-3{stroke:#b6ba01;stroke-linejoin:round;}.cls-4{stroke:#fff;}.cls-5{fill:#b6ba01;}</style></defs><title>31t</title><g id="Layer_2" data-name="Layer 2"><g id="pestaña_identificativa" data-name="pestaña identificativa"><rect class="cls-1" width="399.98" height="100.86" rx="32.4"/><path class="cls-2" d="M109.3,33.09a8.38,8.38,0,0,1-3.38-.69,8.8,8.8,0,0,1-2.79-1.9,8.91,8.91,0,0,1-1.87-2.81,8.64,8.64,0,0,1-.67-3.46,9.38,9.38,0,0,1,.66-3.52,9.11,9.11,0,0,1,1.83-2.89,8.39,8.39,0,0,1,2.71-1.93,7.85,7.85,0,0,1,3.3-.7,8.45,8.45,0,0,1,3.41.69,8.79,8.79,0,0,1,2.78,1.91,9.32,9.32,0,0,1,1.87,9.83,9.3,9.3,0,0,1-1.84,2.86,8.32,8.32,0,0,1-2.72,1.92A7.92,7.92,0,0,1,109.3,33.09Zm-.12-3.8a4.44,4.44,0,0,0,1.88-.4,4.86,4.86,0,0,0,1.53-1.09,4.63,4.63,0,0,0,1-1.62,5.56,5.56,0,0,0,.36-2,5.13,5.13,0,0,0-.37-2,5,5,0,0,0-1-1.65,4.59,4.59,0,0,0-1.52-1.11,4.58,4.58,0,0,0-3.7,0,5,5,0,0,0-1.53,1.1,5.53,5.53,0,0,0-1,1.65,5.32,5.32,0,0,0,0,4,5.36,5.36,0,0,0,1,1.64,5,5,0,0,0,1.52,1.1A4.29,4.29,0,0,0,109.18,29.29Z"/><path class="cls-2" d="M121.63,32.82a2.48,2.48,0,0,1-1.31-.26,1.1,1.1,0,0,1-.48-.7,4.53,4.53,0,0,1-.08-.91v-8.8a4.13,4.13,0,0,1,.09-.89,1,1,0,0,1,.49-.66,2.53,2.53,0,0,1,1.32-.25,2.51,2.51,0,0,1,1.18.21,1,1,0,0,1,.48.51,1.54,1.54,0,0,1,.12.57.8.8,0,0,0,0,.36l-.15.47a1.48,1.48,0,0,1,.38-.76,3.74,3.74,0,0,1,.85-.7,4.93,4.93,0,0,1,1.1-.49,4.36,4.36,0,0,1,1.17-.17,5,5,0,0,1,2.13.44,4.24,4.24,0,0,1,1.59,1.26,6,6,0,0,1,1,1.94,8.57,8.57,0,0,1,.33,2.44V31a4.46,4.46,0,0,1-.09.91,1,1,0,0,1-.47.69,2.7,2.7,0,0,1-1.34.25,2.47,2.47,0,0,1-1.33-.27,1.05,1.05,0,0,1-.48-.7,4.46,4.46,0,0,1-.09-.91V26.43a2.78,2.78,0,0,0-.26-1.28,1.76,1.76,0,0,0-.75-.8,2.46,2.46,0,0,0-1.21-.27,2.59,2.59,0,0,0-1.25.28,2,2,0,0,0-.81.81,2.48,2.48,0,0,0-.29,1.25V31a4.63,4.63,0,0,1-.09.92,1,1,0,0,1-.48.68A2.49,2.49,0,0,1,121.63,32.82Z"/><path class="cls-2" d="M139.68,32.83a5,5,0,0,1-2.18-.49A5.83,5.83,0,0,1,135.68,31a6.7,6.7,0,0,1-1.26-2,6.35,6.35,0,0,1-.46-2.42,6,6,0,0,1,.46-2.33,6.67,6.67,0,0,1,1.28-2,6.42,6.42,0,0,1,1.84-1.36,4.88,4.88,0,0,1,2.15-.5,4.47,4.47,0,0,1,2.11.49,4.35,4.35,0,0,1,1.52,1.34,6.48,6.48,0,0,1,.94,2,9.08,9.08,0,0,1,.35,2.35,9.28,9.28,0,0,1-.3,2.4,6.12,6.12,0,0,1-.93,2,4.66,4.66,0,0,1-1.55,1.38A4.38,4.38,0,0,1,139.68,32.83Zm.5-3.7a2.24,2.24,0,0,0,1.21-.33,2.74,2.74,0,0,0,.88-.91,2.45,2.45,0,0,0,.34-1.28,2.42,2.42,0,0,0-.33-1.26,2.35,2.35,0,0,0-.87-.9,2.3,2.3,0,0,0-1.25-.34,2.52,2.52,0,0,0-1.24.32,2.28,2.28,0,0,0-.87.9,2.64,2.64,0,0,0-.32,1.28,2.51,2.51,0,0,0,.33,1.27,2.34,2.34,0,0,0,.9.92A2.4,2.4,0,0,0,140.18,29.13Zm4.35,3.73a2.31,2.31,0,0,1-1.26-.27,1.3,1.3,0,0,1-.54-.85V16.59a6.77,6.77,0,0,1,.06-.92,1,1,0,0,1,.44-.71,2.28,2.28,0,0,1,1.28-.27,2.38,2.38,0,0,1,1.32.26,1.08,1.08,0,0,1,.47.69,3.82,3.82,0,0,1,.1.92V31a4.46,4.46,0,0,1-.09.91,1.14,1.14,0,0,1-.48.72A2.37,2.37,0,0,1,144.53,32.86Z"/><path class="cls-2" d="M159.13,32.84a2.34,2.34,0,0,1-1.38-.32.89.89,0,0,1-.42-.8l.25-.43a2.59,2.59,0,0,1-.58.62,4.39,4.39,0,0,1-1.11.65,4.34,4.34,0,0,1-1.66.28,5,5,0,0,1-2.19-.5A5.85,5.85,0,0,1,150.21,31a7,7,0,0,1-1.28-2,6.16,6.16,0,0,1-.47-2.38,6,6,0,0,1,.47-2.33,6.9,6.9,0,0,1,1.29-2,6.37,6.37,0,0,1,1.84-1.36,4.94,4.94,0,0,1,2.18-.5,4.09,4.09,0,0,1,1.57.27,4.32,4.32,0,0,1,1.09.61,3.43,3.43,0,0,1,.66.67l-.22-.35a1,1,0,0,1,.43-.91,2.44,2.44,0,0,1,1.39-.31,2.24,2.24,0,0,1,1.29.28,1.07,1.07,0,0,1,.47.72,4.86,4.86,0,0,1,.09.95V31a4.7,4.7,0,0,1-.08.92,1.07,1.07,0,0,1-.48.71A2.3,2.3,0,0,1,159.13,32.84Zm-4.37-3.72a2.13,2.13,0,0,0,1.2-.34,2.57,2.57,0,0,0,.85-.91,2.61,2.61,0,0,0,.32-1.28,2.56,2.56,0,0,0-.32-1.28,2.42,2.42,0,0,0-.88-.89,2.3,2.3,0,0,0-1.22-.33,2.33,2.33,0,0,0-1.26.34,2.53,2.53,0,0,0-1.24,2.21,2.42,2.42,0,0,0,.33,1.24,2.67,2.67,0,0,0,.93.9A2.59,2.59,0,0,0,154.76,29.12Z"/><path class="cls-2" d="M168,33.08a9,9,0,0,1-1.47-.16,8.76,8.76,0,0,1-1.54-.43,5.43,5.43,0,0,1-1.25-.68,1.26,1.26,0,0,1-.56-.89,1.36,1.36,0,0,1,0-.53,2.12,2.12,0,0,1,.23-.6,4.24,4.24,0,0,1,.44-.67.87.87,0,0,1,.43-.35,1,1,0,0,1,.59,0,3.55,3.55,0,0,1,.8.26l.83.4a8.47,8.47,0,0,0,.87.38,2.68,2.68,0,0,0,.93.16,2.3,2.3,0,0,0,1.08-.21.65.65,0,0,0,.39-.59.64.64,0,0,0-.16-.45,1.6,1.6,0,0,0-.45-.3c-.19-.08-.42-.16-.68-.24l-.81-.21c-.28-.07-.58-.15-.9-.25a9.62,9.62,0,0,1-1.19-.45,4,4,0,0,1-1.05-.71,3.32,3.32,0,0,1-.73-1.08,4,4,0,0,1-.28-1.56,3.3,3.3,0,0,1,2.23-3.31,7.34,7.34,0,0,1,2.7-.44c.3,0,.6,0,.9.05a5.4,5.4,0,0,1,.89.18,7.54,7.54,0,0,1,1.71.72,1.14,1.14,0,0,1,.78,1,2.1,2.1,0,0,1-.43,1.25,1.92,1.92,0,0,1-.58.59.92.92,0,0,1-.62.14,3.93,3.93,0,0,1-.86-.34,9.71,9.71,0,0,0-1-.44,2.84,2.84,0,0,0-1-.2,2.24,2.24,0,0,0-.73.11,1.18,1.18,0,0,0-.45.3.75.75,0,0,0,0,.95,1.42,1.42,0,0,0,.51.31,5.58,5.58,0,0,0,.75.23l.93.2c.45.09.91.2,1.39.34a5,5,0,0,1,1.3.61,3,3,0,0,1,.94,1.08,3.64,3.64,0,0,1,.37,1.77,3.58,3.58,0,0,1-1.38,3A6.38,6.38,0,0,1,168,33.08Z"/><path class="cls-2" d="M192.18,32.87a2.42,2.42,0,0,1-1.38-.33.9.9,0,0,1-.42-.8l.25-.43a2.79,2.79,0,0,1-.58.62,4.39,4.39,0,0,1-1.11.65,4.34,4.34,0,0,1-1.66.28,5,5,0,0,1-2.19-.5A6,6,0,0,1,183.25,31,7.21,7.21,0,0,1,182,29a6.16,6.16,0,0,1-.47-2.38,6,6,0,0,1,.47-2.33,6.9,6.9,0,0,1,1.29-2,6.37,6.37,0,0,1,1.84-1.36,4.94,4.94,0,0,1,2.18-.5,4.09,4.09,0,0,1,1.57.27,4,4,0,0,1,1.09.61,3.43,3.43,0,0,1,.66.67l-.22-.35a1,1,0,0,1,.43-.91,2.44,2.44,0,0,1,1.39-.31,2.24,2.24,0,0,1,1.29.28,1.07,1.07,0,0,1,.47.72,4.86,4.86,0,0,1,.09.95V31a4.7,4.7,0,0,1-.08.92,1.07,1.07,0,0,1-.48.71A2.39,2.39,0,0,1,192.18,32.87Zm-4.37-3.73a2.21,2.21,0,0,0,1.2-.34,2.57,2.57,0,0,0,.85-.91,2.61,2.61,0,0,0,.32-1.28,2.56,2.56,0,0,0-.32-1.28,2.35,2.35,0,0,0-.88-.89,2.3,2.3,0,0,0-1.22-.33,2.33,2.33,0,0,0-1.26.34,2.53,2.53,0,0,0-1.24,2.21,2.42,2.42,0,0,0,.33,1.24,2.67,2.67,0,0,0,.93.9A2.59,2.59,0,0,0,187.81,29.14Z"/><path class="cls-2" d="M201.35,32.9a16,16,0,0,1-1.82-.11,3.64,3.64,0,0,1-1.35-.4,2.47,2.47,0,0,1-.9-.83,4.19,4.19,0,0,1-.53-1.38,10.88,10.88,0,0,1-.17-2.06V16.57a3.9,3.9,0,0,1,.1-.93,1.17,1.17,0,0,1,.49-.7,3.26,3.26,0,0,1,2.6,0,1.15,1.15,0,0,1,.48.7,4,4,0,0,1,.1.93V27.94a6.19,6.19,0,0,0,0,.67,1,1,0,0,0,.15.41.54.54,0,0,0,.32.2,2.34,2.34,0,0,0,.52.05,2.62,2.62,0,0,1,.61.08.89.89,0,0,1,.54.45,2.55,2.55,0,0,1,.22,1.25,2.81,2.81,0,0,1-.22,1.3.89.89,0,0,1-.54.47A2.74,2.74,0,0,1,201.35,32.9Z"/><path class="cls-2" d="M205.36,20.6h2.75l3.45-.1a4.29,4.29,0,0,1,.9.09,1.1,1.1,0,0,1,.7.49,2.43,2.43,0,0,1,.27,1.32,2.26,2.26,0,0,1-.26,1.25,1.1,1.1,0,0,1-.69.51,3.36,3.36,0,0,1-.92.12l-3.28-.08-3,0a1.26,1.26,0,0,1-1-.46,2.46,2.46,0,0,1-.29-1.39,2.17,2.17,0,0,1,.35-1.34A1.26,1.26,0,0,1,205.36,20.6ZM211,32.9a7.92,7.92,0,0,1-2.2-.27,3.61,3.61,0,0,1-1.51-.86,3.5,3.5,0,0,1-.87-1.46,6.94,6.94,0,0,1-.29-2.11V18.07a4.22,4.22,0,0,1,.09-.92,1,1,0,0,1,.48-.66,2.4,2.4,0,0,1,1.3-.27,2.36,2.36,0,0,1,1.3.28,1.1,1.1,0,0,1,.49.71,4.56,4.56,0,0,1,.09.92v9.92a3,3,0,0,0,.06.66.79.79,0,0,0,.19.39.77.77,0,0,0,.35.18,2.79,2.79,0,0,0,.55,0,4.16,4.16,0,0,1,1,.1,1,1,0,0,1,.66.45,2.05,2.05,0,0,1,.23,1.17,2.38,2.38,0,0,1-.27,1.3,1,1,0,0,1-.71.48A5.53,5.53,0,0,1,211,32.9Z"/><path class="cls-2" d="M225.55,32.89a2.33,2.33,0,0,1-1.37-.33.92.92,0,0,1-.43-.8l.25-.43a3,3,0,0,1-.57.62,4.58,4.58,0,0,1-1.11.65,4.39,4.39,0,0,1-1.67.28,5,5,0,0,1-2.18-.5A5.78,5.78,0,0,1,216.63,31a7,7,0,0,1-1.27-2,6,6,0,0,1-.48-2.38,5.82,5.82,0,0,1,.48-2.33,6.39,6.39,0,0,1,1.29-2,6.24,6.24,0,0,1,1.84-1.36,4.9,4.9,0,0,1,2.17-.5,4.14,4.14,0,0,1,1.58.27,4.24,4.24,0,0,1,1.08.61A3.17,3.17,0,0,1,224,22l-.22-.35a1.05,1.05,0,0,1,.44-.91,2.4,2.4,0,0,1,1.39-.31,2.21,2.21,0,0,1,1.28.28,1.11,1.11,0,0,1,.48.72,4.87,4.87,0,0,1,.08.95V31a4.7,4.7,0,0,1-.09.92,1.09,1.09,0,0,1-.47.71A2.41,2.41,0,0,1,225.55,32.89Zm-4.37-3.73a2.13,2.13,0,0,0,1.2-.34,2.57,2.57,0,0,0,.85-.91,2.52,2.52,0,0,0,.33-1.28,2.46,2.46,0,0,0-.33-1.28,2.4,2.4,0,0,0-.87-.89,2.48,2.48,0,0,0-2.49,0,2.61,2.61,0,0,0-.9.91,2.57,2.57,0,0,0-.34,1.3,2.34,2.34,0,0,0,.34,1.24,2.56,2.56,0,0,0,.92.9A2.62,2.62,0,0,0,221.18,29.16Z"/><path class="cls-2" d="M234.43,33.12A9.25,9.25,0,0,1,233,33a8.66,8.66,0,0,1-1.53-.43,5.23,5.23,0,0,1-1.25-.68,1.28,1.28,0,0,1-.57-.89,1.37,1.37,0,0,1,0-.53,2.08,2.08,0,0,1,.22-.6,5.08,5.08,0,0,1,.44-.67.89.89,0,0,1,.44-.35,1,1,0,0,1,.58,0,3.63,3.63,0,0,1,.81.26l.82.4a8.47,8.47,0,0,0,.87.38,2.68,2.68,0,0,0,.93.16,2.32,2.32,0,0,0,1.09-.21.64.64,0,0,0,.38-.59.6.6,0,0,0-.16-.45,1.27,1.27,0,0,0-.45-.3c-.19-.08-.41-.16-.67-.24l-.81-.21c-.29-.07-.59-.15-.9-.25a9.05,9.05,0,0,1-1.19-.45,4,4,0,0,1-1.05-.71,3.34,3.34,0,0,1-.74-1.08A4,4,0,0,1,230,24a3.59,3.59,0,0,1,.56-2,3.53,3.53,0,0,1,1.66-1.26,7.41,7.41,0,0,1,2.7-.44c.3,0,.61,0,.91.05a5.28,5.28,0,0,1,.88.18,7.47,7.47,0,0,1,.87.3,6.58,6.58,0,0,1,.84.42,1.14,1.14,0,0,1,.78.95,2.47,2.47,0,0,1-1,1.84,1,1,0,0,1-.63.14,4.36,4.36,0,0,1-.86-.34,9.53,9.53,0,0,0-1-.44,2.89,2.89,0,0,0-1-.2,2.18,2.18,0,0,0-.72.11,1.11,1.11,0,0,0-.45.3.77.77,0,0,0,0,.95,1.38,1.38,0,0,0,.52.31,4.8,4.8,0,0,0,.75.23l.92.2c.45.09.91.2,1.39.34a4.85,4.85,0,0,1,1.3.61,3,3,0,0,1,1,1.08,3.76,3.76,0,0,1,.36,1.77,3.58,3.58,0,0,1-1.38,3A6.33,6.33,0,0,1,234.43,33.12Z"/><path class="cls-3" d="M109.3,33.09a8.38,8.38,0,0,1-3.38-.69,8.8,8.8,0,0,1-2.79-1.9,8.91,8.91,0,0,1-1.87-2.81,8.64,8.64,0,0,1-.67-3.46,9.38,9.38,0,0,1,.66-3.52,9.11,9.11,0,0,1,1.83-2.89,8.39,8.39,0,0,1,2.71-1.93,7.85,7.85,0,0,1,3.3-.7,8.45,8.45,0,0,1,3.41.69,8.79,8.79,0,0,1,2.78,1.91,9.32,9.32,0,0,1,1.87,9.83,9.3,9.3,0,0,1-1.84,2.86,8.32,8.32,0,0,1-2.72,1.92A7.92,7.92,0,0,1,109.3,33.09Zm-.12-3.8a4.44,4.44,0,0,0,1.88-.4,4.86,4.86,0,0,0,1.53-1.09,4.63,4.63,0,0,0,1-1.62,5.56,5.56,0,0,0,.36-2,5.13,5.13,0,0,0-.37-2,5,5,0,0,0-1-1.65,4.59,4.59,0,0,0-1.52-1.11,4.58,4.58,0,0,0-3.7,0,5,5,0,0,0-1.53,1.1,5.53,5.53,0,0,0-1,1.65,5.32,5.32,0,0,0,0,4,5.36,5.36,0,0,0,1,1.64,5,5,0,0,0,1.52,1.1A4.29,4.29,0,0,0,109.18,29.29Z"/><path class="cls-3" d="M121.63,32.82a2.48,2.48,0,0,1-1.31-.26,1.1,1.1,0,0,1-.48-.7,4.53,4.53,0,0,1-.08-.91v-8.8a4.13,4.13,0,0,1,.09-.89,1,1,0,0,1,.49-.66,2.53,2.53,0,0,1,1.32-.25,2.51,2.51,0,0,1,1.18.21,1,1,0,0,1,.48.51,1.54,1.54,0,0,1,.12.57.8.8,0,0,0,0,.36l-.15.47a1.48,1.48,0,0,1,.38-.76,3.74,3.74,0,0,1,.85-.7,4.93,4.93,0,0,1,1.1-.49,4.36,4.36,0,0,1,1.17-.17,5,5,0,0,1,2.13.44,4.24,4.24,0,0,1,1.59,1.26,6,6,0,0,1,1,1.94,8.57,8.57,0,0,1,.33,2.44V31a4.46,4.46,0,0,1-.09.91,1,1,0,0,1-.47.69,2.7,2.7,0,0,1-1.34.25,2.47,2.47,0,0,1-1.33-.27,1.05,1.05,0,0,1-.48-.7,4.46,4.46,0,0,1-.09-.91V26.43a2.78,2.78,0,0,0-.26-1.28,1.76,1.76,0,0,0-.75-.8,2.46,2.46,0,0,0-1.21-.27,2.59,2.59,0,0,0-1.25.28,2,2,0,0,0-.81.81,2.48,2.48,0,0,0-.29,1.25V31a4.63,4.63,0,0,1-.09.92,1,1,0,0,1-.48.68A2.49,2.49,0,0,1,121.63,32.82Z"/><path class="cls-3" d="M139.68,32.83a5,5,0,0,1-2.18-.49A5.83,5.83,0,0,1,135.68,31a6.7,6.7,0,0,1-1.26-2,6.35,6.35,0,0,1-.46-2.42,6,6,0,0,1,.46-2.33,6.67,6.67,0,0,1,1.28-2,6.42,6.42,0,0,1,1.84-1.36,4.88,4.88,0,0,1,2.15-.5,4.47,4.47,0,0,1,2.11.49,4.35,4.35,0,0,1,1.52,1.34,6.48,6.48,0,0,1,.94,2,9.08,9.08,0,0,1,.35,2.35,9.28,9.28,0,0,1-.3,2.4,6.12,6.12,0,0,1-.93,2,4.66,4.66,0,0,1-1.55,1.38A4.38,4.38,0,0,1,139.68,32.83Zm.5-3.7a2.24,2.24,0,0,0,1.21-.33,2.74,2.74,0,0,0,.88-.91,2.45,2.45,0,0,0,.34-1.28,2.42,2.42,0,0,0-.33-1.26,2.35,2.35,0,0,0-.87-.9,2.3,2.3,0,0,0-1.25-.34,2.52,2.52,0,0,0-1.24.32,2.28,2.28,0,0,0-.87.9,2.64,2.64,0,0,0-.32,1.28,2.51,2.51,0,0,0,.33,1.27,2.34,2.34,0,0,0,.9.92A2.4,2.4,0,0,0,140.18,29.13Zm4.35,3.73a2.31,2.31,0,0,1-1.26-.27,1.3,1.3,0,0,1-.54-.85V16.59a6.77,6.77,0,0,1,.06-.92,1,1,0,0,1,.44-.71,2.28,2.28,0,0,1,1.28-.27,2.38,2.38,0,0,1,1.32.26,1.08,1.08,0,0,1,.47.69,3.82,3.82,0,0,1,.1.92V31a4.46,4.46,0,0,1-.09.91,1.14,1.14,0,0,1-.48.72A2.37,2.37,0,0,1,144.53,32.86Z"/><path class="cls-3" d="M159.13,32.84a2.34,2.34,0,0,1-1.38-.32.89.89,0,0,1-.42-.8l.25-.43a2.59,2.59,0,0,1-.58.62,4.39,4.39,0,0,1-1.11.65,4.34,4.34,0,0,1-1.66.28,5,5,0,0,1-2.19-.5A5.85,5.85,0,0,1,150.21,31a7,7,0,0,1-1.28-2,6.16,6.16,0,0,1-.47-2.38,6,6,0,0,1,.47-2.33,6.9,6.9,0,0,1,1.29-2,6.37,6.37,0,0,1,1.84-1.36,4.94,4.94,0,0,1,2.18-.5,4.09,4.09,0,0,1,1.57.27,4.32,4.32,0,0,1,1.09.61,3.43,3.43,0,0,1,.66.67l-.22-.35a1,1,0,0,1,.43-.91,2.44,2.44,0,0,1,1.39-.31,2.24,2.24,0,0,1,1.29.28,1.07,1.07,0,0,1,.47.72,4.86,4.86,0,0,1,.09.95V31a4.7,4.7,0,0,1-.08.92,1.07,1.07,0,0,1-.48.71A2.3,2.3,0,0,1,159.13,32.84Zm-4.37-3.72a2.13,2.13,0,0,0,1.2-.34,2.57,2.57,0,0,0,.85-.91,2.61,2.61,0,0,0,.32-1.28,2.56,2.56,0,0,0-.32-1.28,2.42,2.42,0,0,0-.88-.89,2.3,2.3,0,0,0-1.22-.33,2.33,2.33,0,0,0-1.26.34,2.53,2.53,0,0,0-1.24,2.21,2.42,2.42,0,0,0,.33,1.24,2.67,2.67,0,0,0,.93.9A2.59,2.59,0,0,0,154.76,29.12Z"/><path class="cls-3" d="M168,33.08a9,9,0,0,1-1.47-.16,8.76,8.76,0,0,1-1.54-.43,5.43,5.43,0,0,1-1.25-.68,1.26,1.26,0,0,1-.56-.89,1.36,1.36,0,0,1,0-.53,2.12,2.12,0,0,1,.23-.6,4.24,4.24,0,0,1,.44-.67.87.87,0,0,1,.43-.35,1,1,0,0,1,.59,0,3.55,3.55,0,0,1,.8.26l.83.4a8.47,8.47,0,0,0,.87.38,2.68,2.68,0,0,0,.93.16,2.3,2.3,0,0,0,1.08-.21.65.65,0,0,0,.39-.59.64.64,0,0,0-.16-.45,1.6,1.6,0,0,0-.45-.3c-.19-.08-.42-.16-.68-.24l-.81-.21c-.28-.07-.58-.15-.9-.25a9.62,9.62,0,0,1-1.19-.45,4,4,0,0,1-1.05-.71,3.32,3.32,0,0,1-.73-1.08,4,4,0,0,1-.28-1.56,3.3,3.3,0,0,1,2.23-3.31,7.34,7.34,0,0,1,2.7-.44c.3,0,.6,0,.9.05a5.4,5.4,0,0,1,.89.18,7.54,7.54,0,0,1,1.71.72,1.14,1.14,0,0,1,.78,1,2.1,2.1,0,0,1-.43,1.25,1.92,1.92,0,0,1-.58.59.92.92,0,0,1-.62.14,3.93,3.93,0,0,1-.86-.34,9.71,9.71,0,0,0-1-.44,2.84,2.84,0,0,0-1-.2,2.24,2.24,0,0,0-.73.11,1.18,1.18,0,0,0-.45.3.75.75,0,0,0,0,.95,1.42,1.42,0,0,0,.51.31,5.58,5.58,0,0,0,.75.23l.93.2c.45.09.91.2,1.39.34a5,5,0,0,1,1.3.61,3,3,0,0,1,.94,1.08,3.64,3.64,0,0,1,.37,1.77,3.58,3.58,0,0,1-1.38,3A6.38,6.38,0,0,1,168,33.08Z"/><path class="cls-3" d="M192.18,32.87a2.42,2.42,0,0,1-1.38-.33.9.9,0,0,1-.42-.8l.25-.43a2.79,2.79,0,0,1-.58.62,4.39,4.39,0,0,1-1.11.65,4.34,4.34,0,0,1-1.66.28,5,5,0,0,1-2.19-.5A6,6,0,0,1,183.25,31,7.21,7.21,0,0,1,182,29a6.16,6.16,0,0,1-.47-2.38,6,6,0,0,1,.47-2.33,6.9,6.9,0,0,1,1.29-2,6.37,6.37,0,0,1,1.84-1.36,4.94,4.94,0,0,1,2.18-.5,4.09,4.09,0,0,1,1.57.27,4,4,0,0,1,1.09.61,3.43,3.43,0,0,1,.66.67l-.22-.35a1,1,0,0,1,.43-.91,2.44,2.44,0,0,1,1.39-.31,2.24,2.24,0,0,1,1.29.28,1.07,1.07,0,0,1,.47.72,4.86,4.86,0,0,1,.09.95V31a4.7,4.7,0,0,1-.08.92,1.07,1.07,0,0,1-.48.71A2.39,2.39,0,0,1,192.18,32.87Zm-4.37-3.73a2.21,2.21,0,0,0,1.2-.34,2.57,2.57,0,0,0,.85-.91,2.61,2.61,0,0,0,.32-1.28,2.56,2.56,0,0,0-.32-1.28,2.35,2.35,0,0,0-.88-.89,2.3,2.3,0,0,0-1.22-.33,2.33,2.33,0,0,0-1.26.34,2.53,2.53,0,0,0-1.24,2.21,2.42,2.42,0,0,0,.33,1.24,2.67,2.67,0,0,0,.93.9A2.59,2.59,0,0,0,187.81,29.14Z"/><path class="cls-3" d="M201.35,32.9a16,16,0,0,1-1.82-.11,3.64,3.64,0,0,1-1.35-.4,2.47,2.47,0,0,1-.9-.83,4.19,4.19,0,0,1-.53-1.38,10.88,10.88,0,0,1-.17-2.06V16.57a3.9,3.9,0,0,1,.1-.93,1.17,1.17,0,0,1,.49-.7,3.26,3.26,0,0,1,2.6,0,1.15,1.15,0,0,1,.48.7,4,4,0,0,1,.1.93V27.94a6.19,6.19,0,0,0,0,.67,1,1,0,0,0,.15.41.54.54,0,0,0,.32.2,2.34,2.34,0,0,0,.52.05,2.62,2.62,0,0,1,.61.08.89.89,0,0,1,.54.45,2.55,2.55,0,0,1,.22,1.25,2.81,2.81,0,0,1-.22,1.3.89.89,0,0,1-.54.47A2.74,2.74,0,0,1,201.35,32.9Z"/><path class="cls-3" d="M205.36,20.6h2.75l3.45-.1a4.29,4.29,0,0,1,.9.09,1.1,1.1,0,0,1,.7.49,2.43,2.43,0,0,1,.27,1.32,2.26,2.26,0,0,1-.26,1.25,1.1,1.1,0,0,1-.69.51,3.36,3.36,0,0,1-.92.12l-3.28-.08-3,0a1.26,1.26,0,0,1-1-.46,2.46,2.46,0,0,1-.29-1.39,2.17,2.17,0,0,1,.35-1.34A1.26,1.26,0,0,1,205.36,20.6ZM211,32.9a7.92,7.92,0,0,1-2.2-.27,3.61,3.61,0,0,1-1.51-.86,3.5,3.5,0,0,1-.87-1.46,6.94,6.94,0,0,1-.29-2.11V18.07a4.22,4.22,0,0,1,.09-.92,1,1,0,0,1,.48-.66,2.4,2.4,0,0,1,1.3-.27,2.36,2.36,0,0,1,1.3.28,1.1,1.1,0,0,1,.49.71,4.56,4.56,0,0,1,.09.92v9.92a3,3,0,0,0,.06.66.79.79,0,0,0,.19.39.77.77,0,0,0,.35.18,2.79,2.79,0,0,0,.55,0,4.16,4.16,0,0,1,1,.1,1,1,0,0,1,.66.45,2.05,2.05,0,0,1,.23,1.17,2.38,2.38,0,0,1-.27,1.3,1,1,0,0,1-.71.48A5.53,5.53,0,0,1,211,32.9Z"/><path class="cls-3" d="M225.55,32.89a2.33,2.33,0,0,1-1.37-.33.92.92,0,0,1-.43-.8l.25-.43a3,3,0,0,1-.57.62,4.58,4.58,0,0,1-1.11.65,4.39,4.39,0,0,1-1.67.28,5,5,0,0,1-2.18-.5A5.78,5.78,0,0,1,216.63,31a7,7,0,0,1-1.27-2,6,6,0,0,1-.48-2.38,5.82,5.82,0,0,1,.48-2.33,6.39,6.39,0,0,1,1.29-2,6.24,6.24,0,0,1,1.84-1.36,4.9,4.9,0,0,1,2.17-.5,4.14,4.14,0,0,1,1.58.27,4.24,4.24,0,0,1,1.08.61A3.17,3.17,0,0,1,224,22l-.22-.35a1.05,1.05,0,0,1,.44-.91,2.4,2.4,0,0,1,1.39-.31,2.21,2.21,0,0,1,1.28.28,1.11,1.11,0,0,1,.48.72,4.87,4.87,0,0,1,.08.95V31a4.7,4.7,0,0,1-.09.92,1.09,1.09,0,0,1-.47.71A2.41,2.41,0,0,1,225.55,32.89Zm-4.37-3.73a2.13,2.13,0,0,0,1.2-.34,2.57,2.57,0,0,0,.85-.91,2.52,2.52,0,0,0,.33-1.28,2.46,2.46,0,0,0-.33-1.28,2.4,2.4,0,0,0-.87-.89,2.48,2.48,0,0,0-2.49,0,2.61,2.61,0,0,0-.9.91,2.57,2.57,0,0,0-.34,1.3,2.34,2.34,0,0,0,.34,1.24,2.56,2.56,0,0,0,.92.9A2.62,2.62,0,0,0,221.18,29.16Z"/><path class="cls-3" d="M234.43,33.12A9.25,9.25,0,0,1,233,33a8.66,8.66,0,0,1-1.53-.43,5.23,5.23,0,0,1-1.25-.68,1.28,1.28,0,0,1-.57-.89,1.37,1.37,0,0,1,0-.53,2.08,2.08,0,0,1,.22-.6,5.08,5.08,0,0,1,.44-.67.89.89,0,0,1,.44-.35,1,1,0,0,1,.58,0,3.63,3.63,0,0,1,.81.26l.82.4a8.47,8.47,0,0,0,.87.38,2.68,2.68,0,0,0,.93.16,2.32,2.32,0,0,0,1.09-.21.64.64,0,0,0,.38-.59.6.6,0,0,0-.16-.45,1.27,1.27,0,0,0-.45-.3c-.19-.08-.41-.16-.67-.24l-.81-.21c-.29-.07-.59-.15-.9-.25a9.05,9.05,0,0,1-1.19-.45,4,4,0,0,1-1.05-.71,3.34,3.34,0,0,1-.74-1.08A4,4,0,0,1,230,24a3.59,3.59,0,0,1,.56-2,3.53,3.53,0,0,1,1.66-1.26,7.41,7.41,0,0,1,2.7-.44c.3,0,.61,0,.91.05a5.28,5.28,0,0,1,.88.18,7.47,7.47,0,0,1,.87.3,6.58,6.58,0,0,1,.84.42,1.14,1.14,0,0,1,.78.95,2.47,2.47,0,0,1-1,1.84,1,1,0,0,1-.63.14,4.36,4.36,0,0,1-.86-.34,9.53,9.53,0,0,0-1-.44,2.89,2.89,0,0,0-1-.2,2.18,2.18,0,0,0-.72.11,1.11,1.11,0,0,0-.45.3.77.77,0,0,0,0,.95,1.38,1.38,0,0,0,.52.31,4.8,4.8,0,0,0,.75.23l.92.2c.45.09.91.2,1.39.34a4.85,4.85,0,0,1,1.3.61,3,3,0,0,1,1,1.08,3.76,3.76,0,0,1,.36,1.77,3.58,3.58,0,0,1-1.38,3A6.33,6.33,0,0,1,234.43,33.12Z"/><path class="cls-2" d="M109.3,33.09a8.38,8.38,0,0,1-3.38-.69,8.8,8.8,0,0,1-2.79-1.9,8.91,8.91,0,0,1-1.87-2.81,8.64,8.64,0,0,1-.67-3.46,9.38,9.38,0,0,1,.66-3.52,9.11,9.11,0,0,1,1.83-2.89,8.39,8.39,0,0,1,2.71-1.93,7.85,7.85,0,0,1,3.3-.7,8.45,8.45,0,0,1,3.41.69,8.79,8.79,0,0,1,2.78,1.91,9.32,9.32,0,0,1,1.87,9.83,9.3,9.3,0,0,1-1.84,2.86,8.32,8.32,0,0,1-2.72,1.92A7.92,7.92,0,0,1,109.3,33.09Zm-.12-3.8a4.44,4.44,0,0,0,1.88-.4,4.86,4.86,0,0,0,1.53-1.09,4.63,4.63,0,0,0,1-1.62,5.56,5.56,0,0,0,.36-2,5.13,5.13,0,0,0-.37-2,5,5,0,0,0-1-1.65,4.59,4.59,0,0,0-1.52-1.11,4.58,4.58,0,0,0-3.7,0,5,5,0,0,0-1.53,1.1,5.53,5.53,0,0,0-1,1.65,5.32,5.32,0,0,0,0,4,5.36,5.36,0,0,0,1,1.64,5,5,0,0,0,1.52,1.1A4.29,4.29,0,0,0,109.18,29.29Z"/><path class="cls-2" d="M121.63,32.82a2.48,2.48,0,0,1-1.31-.26,1.1,1.1,0,0,1-.48-.7,4.53,4.53,0,0,1-.08-.91v-8.8a4.13,4.13,0,0,1,.09-.89,1,1,0,0,1,.49-.66,2.53,2.53,0,0,1,1.32-.25,2.51,2.51,0,0,1,1.18.21,1,1,0,0,1,.48.51,1.54,1.54,0,0,1,.12.57.8.8,0,0,0,0,.36l-.15.47a1.48,1.48,0,0,1,.38-.76,3.74,3.74,0,0,1,.85-.7,4.93,4.93,0,0,1,1.1-.49,4.36,4.36,0,0,1,1.17-.17,5,5,0,0,1,2.13.44,4.24,4.24,0,0,1,1.59,1.26,6,6,0,0,1,1,1.94,8.57,8.57,0,0,1,.33,2.44V31a4.46,4.46,0,0,1-.09.91,1,1,0,0,1-.47.69,2.7,2.7,0,0,1-1.34.25,2.47,2.47,0,0,1-1.33-.27,1.05,1.05,0,0,1-.48-.7,4.46,4.46,0,0,1-.09-.91V26.43a2.78,2.78,0,0,0-.26-1.28,1.76,1.76,0,0,0-.75-.8,2.46,2.46,0,0,0-1.21-.27,2.59,2.59,0,0,0-1.25.28,2,2,0,0,0-.81.81,2.48,2.48,0,0,0-.29,1.25V31a4.63,4.63,0,0,1-.09.92,1,1,0,0,1-.48.68A2.49,2.49,0,0,1,121.63,32.82Z"/><path class="cls-2" d="M139.68,32.83a5,5,0,0,1-2.18-.49A5.83,5.83,0,0,1,135.68,31a6.7,6.7,0,0,1-1.26-2,6.35,6.35,0,0,1-.46-2.42,6,6,0,0,1,.46-2.33,6.67,6.67,0,0,1,1.28-2,6.42,6.42,0,0,1,1.84-1.36,4.88,4.88,0,0,1,2.15-.5,4.47,4.47,0,0,1,2.11.49,4.35,4.35,0,0,1,1.52,1.34,6.48,6.48,0,0,1,.94,2,9.08,9.08,0,0,1,.35,2.35,9.28,9.28,0,0,1-.3,2.4,6.12,6.12,0,0,1-.93,2,4.66,4.66,0,0,1-1.55,1.38A4.38,4.38,0,0,1,139.68,32.83Zm.5-3.7a2.24,2.24,0,0,0,1.21-.33,2.74,2.74,0,0,0,.88-.91,2.45,2.45,0,0,0,.34-1.28,2.42,2.42,0,0,0-.33-1.26,2.35,2.35,0,0,0-.87-.9,2.3,2.3,0,0,0-1.25-.34,2.52,2.52,0,0,0-1.24.32,2.28,2.28,0,0,0-.87.9,2.64,2.64,0,0,0-.32,1.28,2.51,2.51,0,0,0,.33,1.27,2.34,2.34,0,0,0,.9.92A2.4,2.4,0,0,0,140.18,29.13Zm4.35,3.73a2.31,2.31,0,0,1-1.26-.27,1.3,1.3,0,0,1-.54-.85V16.59a6.77,6.77,0,0,1,.06-.92,1,1,0,0,1,.44-.71,2.28,2.28,0,0,1,1.28-.27,2.38,2.38,0,0,1,1.32.26,1.08,1.08,0,0,1,.47.69,3.82,3.82,0,0,1,.1.92V31a4.46,4.46,0,0,1-.09.91,1.14,1.14,0,0,1-.48.72A2.37,2.37,0,0,1,144.53,32.86Z"/><path class="cls-2" d="M159.13,32.84a2.34,2.34,0,0,1-1.38-.32.89.89,0,0,1-.42-.8l.25-.43a2.59,2.59,0,0,1-.58.62,4.39,4.39,0,0,1-1.11.65,4.34,4.34,0,0,1-1.66.28,5,5,0,0,1-2.19-.5A5.85,5.85,0,0,1,150.21,31a7,7,0,0,1-1.28-2,6.16,6.16,0,0,1-.47-2.38,6,6,0,0,1,.47-2.33,6.9,6.9,0,0,1,1.29-2,6.37,6.37,0,0,1,1.84-1.36,4.94,4.94,0,0,1,2.18-.5,4.09,4.09,0,0,1,1.57.27,4.32,4.32,0,0,1,1.09.61,3.43,3.43,0,0,1,.66.67l-.22-.35a1,1,0,0,1,.43-.91,2.44,2.44,0,0,1,1.39-.31,2.24,2.24,0,0,1,1.29.28,1.07,1.07,0,0,1,.47.72,4.86,4.86,0,0,1,.09.95V31a4.7,4.7,0,0,1-.08.92,1.07,1.07,0,0,1-.48.71A2.3,2.3,0,0,1,159.13,32.84Zm-4.37-3.72a2.13,2.13,0,0,0,1.2-.34,2.57,2.57,0,0,0,.85-.91,2.61,2.61,0,0,0,.32-1.28,2.56,2.56,0,0,0-.32-1.28,2.42,2.42,0,0,0-.88-.89,2.3,2.3,0,0,0-1.22-.33,2.33,2.33,0,0,0-1.26.34,2.53,2.53,0,0,0-1.24,2.21,2.42,2.42,0,0,0,.33,1.24,2.67,2.67,0,0,0,.93.9A2.59,2.59,0,0,0,154.76,29.12Z"/><path class="cls-2" d="M168,33.08a9,9,0,0,1-1.47-.16,8.76,8.76,0,0,1-1.54-.43,5.43,5.43,0,0,1-1.25-.68,1.26,1.26,0,0,1-.56-.89,1.36,1.36,0,0,1,0-.53,2.12,2.12,0,0,1,.23-.6,4.24,4.24,0,0,1,.44-.67.87.87,0,0,1,.43-.35,1,1,0,0,1,.59,0,3.55,3.55,0,0,1,.8.26l.83.4a8.47,8.47,0,0,0,.87.38,2.68,2.68,0,0,0,.93.16,2.3,2.3,0,0,0,1.08-.21.65.65,0,0,0,.39-.59.64.64,0,0,0-.16-.45,1.6,1.6,0,0,0-.45-.3c-.19-.08-.42-.16-.68-.24l-.81-.21c-.28-.07-.58-.15-.9-.25a9.62,9.62,0,0,1-1.19-.45,4,4,0,0,1-1.05-.71,3.32,3.32,0,0,1-.73-1.08,4,4,0,0,1-.28-1.56,3.3,3.3,0,0,1,2.23-3.31,7.34,7.34,0,0,1,2.7-.44c.3,0,.6,0,.9.05a5.4,5.4,0,0,1,.89.18,7.54,7.54,0,0,1,1.71.72,1.14,1.14,0,0,1,.78,1,2.1,2.1,0,0,1-.43,1.25,1.92,1.92,0,0,1-.58.59.92.92,0,0,1-.62.14,3.93,3.93,0,0,1-.86-.34,9.71,9.71,0,0,0-1-.44,2.84,2.84,0,0,0-1-.2,2.24,2.24,0,0,0-.73.11,1.18,1.18,0,0,0-.45.3.75.75,0,0,0,0,.95,1.42,1.42,0,0,0,.51.31,5.58,5.58,0,0,0,.75.23l.93.2c.45.09.91.2,1.39.34a5,5,0,0,1,1.3.61,3,3,0,0,1,.94,1.08,3.64,3.64,0,0,1,.37,1.77,3.58,3.58,0,0,1-1.38,3A6.38,6.38,0,0,1,168,33.08Z"/><path class="cls-2" d="M192.18,32.87a2.42,2.42,0,0,1-1.38-.33.9.9,0,0,1-.42-.8l.25-.43a2.79,2.79,0,0,1-.58.62,4.39,4.39,0,0,1-1.11.65,4.34,4.34,0,0,1-1.66.28,5,5,0,0,1-2.19-.5A6,6,0,0,1,183.25,31,7.21,7.21,0,0,1,182,29a6.16,6.16,0,0,1-.47-2.38,6,6,0,0,1,.47-2.33,6.9,6.9,0,0,1,1.29-2,6.37,6.37,0,0,1,1.84-1.36,4.94,4.94,0,0,1,2.18-.5,4.09,4.09,0,0,1,1.57.27,4,4,0,0,1,1.09.61,3.43,3.43,0,0,1,.66.67l-.22-.35a1,1,0,0,1,.43-.91,2.44,2.44,0,0,1,1.39-.31,2.24,2.24,0,0,1,1.29.28,1.07,1.07,0,0,1,.47.72,4.86,4.86,0,0,1,.09.95V31a4.7,4.7,0,0,1-.08.92,1.07,1.07,0,0,1-.48.71A2.39,2.39,0,0,1,192.18,32.87Zm-4.37-3.73a2.21,2.21,0,0,0,1.2-.34,2.57,2.57,0,0,0,.85-.91,2.61,2.61,0,0,0,.32-1.28,2.56,2.56,0,0,0-.32-1.28,2.35,2.35,0,0,0-.88-.89,2.3,2.3,0,0,0-1.22-.33,2.33,2.33,0,0,0-1.26.34,2.53,2.53,0,0,0-1.24,2.21,2.42,2.42,0,0,0,.33,1.24,2.67,2.67,0,0,0,.93.9A2.59,2.59,0,0,0,187.81,29.14Z"/><path class="cls-2" d="M201.35,32.9a16,16,0,0,1-1.82-.11,3.64,3.64,0,0,1-1.35-.4,2.47,2.47,0,0,1-.9-.83,4.19,4.19,0,0,1-.53-1.38,10.88,10.88,0,0,1-.17-2.06V16.57a3.9,3.9,0,0,1,.1-.93,1.17,1.17,0,0,1,.49-.7,3.26,3.26,0,0,1,2.6,0,1.15,1.15,0,0,1,.48.7,4,4,0,0,1,.1.93V27.94a6.19,6.19,0,0,0,0,.67,1,1,0,0,0,.15.41.54.54,0,0,0,.32.2,2.34,2.34,0,0,0,.52.05,2.62,2.62,0,0,1,.61.08.89.89,0,0,1,.54.45,2.55,2.55,0,0,1,.22,1.25,2.81,2.81,0,0,1-.22,1.3.89.89,0,0,1-.54.47A2.74,2.74,0,0,1,201.35,32.9Z"/><path class="cls-2" d="M205.36,20.6h2.75l3.45-.1a4.29,4.29,0,0,1,.9.09,1.1,1.1,0,0,1,.7.49,2.43,2.43,0,0,1,.27,1.32,2.26,2.26,0,0,1-.26,1.25,1.1,1.1,0,0,1-.69.51,3.36,3.36,0,0,1-.92.12l-3.28-.08-3,0a1.26,1.26,0,0,1-1-.46,2.46,2.46,0,0,1-.29-1.39,2.17,2.17,0,0,1,.35-1.34A1.26,1.26,0,0,1,205.36,20.6ZM211,32.9a7.92,7.92,0,0,1-2.2-.27,3.61,3.61,0,0,1-1.51-.86,3.5,3.5,0,0,1-.87-1.46,6.94,6.94,0,0,1-.29-2.11V18.07a4.22,4.22,0,0,1,.09-.92,1,1,0,0,1,.48-.66,2.4,2.4,0,0,1,1.3-.27,2.36,2.36,0,0,1,1.3.28,1.1,1.1,0,0,1,.49.71,4.56,4.56,0,0,1,.09.92v9.92a3,3,0,0,0,.06.66.79.79,0,0,0,.19.39.77.77,0,0,0,.35.18,2.79,2.79,0,0,0,.55,0,4.16,4.16,0,0,1,1,.1,1,1,0,0,1,.66.45,2.05,2.05,0,0,1,.23,1.17,2.38,2.38,0,0,1-.27,1.3,1,1,0,0,1-.71.48A5.53,5.53,0,0,1,211,32.9Z"/><path class="cls-2" d="M225.55,32.89a2.33,2.33,0,0,1-1.37-.33.92.92,0,0,1-.43-.8l.25-.43a3,3,0,0,1-.57.62,4.58,4.58,0,0,1-1.11.65,4.39,4.39,0,0,1-1.67.28,5,5,0,0,1-2.18-.5A5.78,5.78,0,0,1,216.63,31a7,7,0,0,1-1.27-2,6,6,0,0,1-.48-2.38,5.82,5.82,0,0,1,.48-2.33,6.39,6.39,0,0,1,1.29-2,6.24,6.24,0,0,1,1.84-1.36,4.9,4.9,0,0,1,2.17-.5,4.14,4.14,0,0,1,1.58.27,4.24,4.24,0,0,1,1.08.61A3.17,3.17,0,0,1,224,22l-.22-.35a1.05,1.05,0,0,1,.44-.91,2.4,2.4,0,0,1,1.39-.31,2.21,2.21,0,0,1,1.28.28,1.11,1.11,0,0,1,.48.72,4.87,4.87,0,0,1,.08.95V31a4.7,4.7,0,0,1-.09.92,1.09,1.09,0,0,1-.47.71A2.41,2.41,0,0,1,225.55,32.89Zm-4.37-3.73a2.13,2.13,0,0,0,1.2-.34,2.57,2.57,0,0,0,.85-.91,2.52,2.52,0,0,0,.33-1.28,2.46,2.46,0,0,0-.33-1.28,2.4,2.4,0,0,0-.87-.89,2.48,2.48,0,0,0-2.49,0,2.61,2.61,0,0,0-.9.91,2.57,2.57,0,0,0-.34,1.3,2.34,2.34,0,0,0,.34,1.24,2.56,2.56,0,0,0,.92.9A2.62,2.62,0,0,0,221.18,29.16Z"/><path class="cls-2" d="M234.43,33.12A9.25,9.25,0,0,1,233,33a8.66,8.66,0,0,1-1.53-.43,5.23,5.23,0,0,1-1.25-.68,1.28,1.28,0,0,1-.57-.89,1.37,1.37,0,0,1,0-.53,2.08,2.08,0,0,1,.22-.6,5.08,5.08,0,0,1,.44-.67.89.89,0,0,1,.44-.35,1,1,0,0,1,.58,0,3.63,3.63,0,0,1,.81.26l.82.4a8.47,8.47,0,0,0,.87.38,2.68,2.68,0,0,0,.93.16,2.32,2.32,0,0,0,1.09-.21.64.64,0,0,0,.38-.59.6.6,0,0,0-.16-.45,1.27,1.27,0,0,0-.45-.3c-.19-.08-.41-.16-.67-.24l-.81-.21c-.29-.07-.59-.15-.9-.25a9.05,9.05,0,0,1-1.19-.45,4,4,0,0,1-1.05-.71,3.34,3.34,0,0,1-.74-1.08A4,4,0,0,1,230,24a3.59,3.59,0,0,1,.56-2,3.53,3.53,0,0,1,1.66-1.26,7.41,7.41,0,0,1,2.7-.44c.3,0,.61,0,.91.05a5.28,5.28,0,0,1,.88.18,7.47,7.47,0,0,1,.87.3,6.58,6.58,0,0,1,.84.42,1.14,1.14,0,0,1,.78.95,2.47,2.47,0,0,1-1,1.84,1,1,0,0,1-.63.14,4.36,4.36,0,0,1-.86-.34,9.53,9.53,0,0,0-1-.44,2.89,2.89,0,0,0-1-.2,2.18,2.18,0,0,0-.72.11,1.11,1.11,0,0,0-.45.3.77.77,0,0,0,0,.95,1.38,1.38,0,0,0,.52.31,4.8,4.8,0,0,0,.75.23l.92.2c.45.09.91.2,1.39.34a4.85,4.85,0,0,1,1.3.61,3,3,0,0,1,1,1.08,3.76,3.76,0,0,1,.36,1.77,3.58,3.58,0,0,1-1.38,3A6.33,6.33,0,0,1,234.43,33.12Z"/><path class="cls-4" d="M53.27,21c0-1.37-1.23-2.06-3.7-2.06a19.62,19.62,0,0,0-2.1.15,19.23,19.23,0,0,1-1.94.15q-2.93,0-2.93-3.62t8.48-3.73q5.51,0,8.23,1.84A5.63,5.63,0,0,1,62,18.51a7.77,7.77,0,0,1-3.51,6.64,9.38,9.38,0,0,1,3.31,2.71,7.17,7.17,0,0,1,1,4.05A7.38,7.38,0,0,1,60,37.86a11.46,11.46,0,0,1-7.48,2.28q-5.87,0-8.41-1.23a4,4,0,0,1-2.54-3.76,3.92,3.92,0,0,1,.82-2.88,3.15,3.15,0,0,1,2.28-.78c.49,0,1.25.06,2.28.17s1.82.17,2.36.17q4.44,0,4.44-1.68a1.62,1.62,0,0,0-.85-1.58,8,8,0,0,0-3.22-.44,6.5,6.5,0,0,1-3.34-.63,2.58,2.58,0,0,1-1-2.35c0-1.73,1.11-2.6,3.34-2.6a17.73,17.73,0,0,0,3.2-.21c.69-.14,1.09-.3,1.2-.49A1.82,1.82,0,0,0,53.27,21Z"/><path class="cls-4" d="M65.4,37a2.78,2.78,0,0,1,1.16-2.31,5.4,5.4,0,0,1,3.28-.88c3,0,4.44,1.07,4.44,3.19a3.11,3.11,0,0,1-.57,2,2.69,2.69,0,0,1-1.51,1,9.11,9.11,0,0,1-2.36.26,6.13,6.13,0,0,1-3.18-.76A2.62,2.62,0,0,1,65.4,37Z"/><path class="cls-4" d="M86.51,33.55q0,3.41-1.19,4.85a4.35,4.35,0,0,1-3.59,1.45,5.69,5.69,0,0,1-2.56-.5,3.3,3.3,0,0,1-1.49-1.85,10.86,10.86,0,0,1-.54-3.61l-.07-15.67a6.34,6.34,0,0,1-3.22-.73A2.62,2.62,0,0,1,72.59,15a2.78,2.78,0,0,1,1.16-2.29,5.2,5.2,0,0,1,3.24-.9c.55,0,1.31,0,2.3,0l2.1,0c2,0,3.36.34,4.06,1a5,5,0,0,1,1,3.59Z"/><path class="cls-5" d="M53.27,21c0-1.37-1.23-2.06-3.7-2.06a19.62,19.62,0,0,0-2.1.15,19.23,19.23,0,0,1-1.94.15q-2.93,0-2.93-3.62t8.48-3.73q5.51,0,8.23,1.84A5.63,5.63,0,0,1,62,18.51a7.77,7.77,0,0,1-3.51,6.64,9.38,9.38,0,0,1,3.31,2.71,7.17,7.17,0,0,1,1,4.05A7.38,7.38,0,0,1,60,37.86a11.46,11.46,0,0,1-7.48,2.28q-5.87,0-8.41-1.23a4,4,0,0,1-2.54-3.76,3.92,3.92,0,0,1,.82-2.88,3.15,3.15,0,0,1,2.28-.78c.49,0,1.25.06,2.28.17s1.82.17,2.36.17q4.44,0,4.44-1.68a1.62,1.62,0,0,0-.85-1.58,8,8,0,0,0-3.22-.44,6.5,6.5,0,0,1-3.34-.63,2.58,2.58,0,0,1-1-2.35c0-1.73,1.11-2.6,3.34-2.6a17.73,17.73,0,0,0,3.2-.21c.69-.14,1.09-.3,1.2-.49A1.82,1.82,0,0,0,53.27,21Z"/><path class="cls-5" d="M65.4,37a2.78,2.78,0,0,1,1.16-2.31,5.4,5.4,0,0,1,3.28-.88c3,0,4.44,1.07,4.44,3.19a3.11,3.11,0,0,1-.57,2,2.69,2.69,0,0,1-1.51,1,9.11,9.11,0,0,1-2.36.26,6.13,6.13,0,0,1-3.18-.76A2.62,2.62,0,0,1,65.4,37Z"/><path class="cls-5" d="M86.51,33.55q0,3.41-1.19,4.85a4.35,4.35,0,0,1-3.59,1.45,5.69,5.69,0,0,1-2.56-.5,3.3,3.3,0,0,1-1.49-1.85,10.86,10.86,0,0,1-.54-3.61l-.07-15.67a6.34,6.34,0,0,1-3.22-.73A2.62,2.62,0,0,1,72.59,15a2.78,2.78,0,0,1,1.16-2.29,5.2,5.2,0,0,1,3.24-.9c.55,0,1.31,0,2.3,0l2.1,0c2,0,3.36.34,4.06,1a5,5,0,0,1,1,3.59Z"/></g></g></svg>