<svg xmlns="http://www.w3.org/2000/svg" viewBox="0 0 401.16 76.19"><defs><style>.cls-1{fill:#0468ad;}.cls-2{fill:#fff;}.cls-3,.cls-4{fill:none;stroke-width:5px;}.cls-3{stroke:#c8a927;stroke-linejoin:round;}.cls-4{stroke:#fff;}.cls-5{fill:#c8a927;}</style></defs><title>31t</title><g id="Layer_2" data-name="Layer 2"><g id="mesa"><rect class="cls-1" width="401.16" height="76.19" rx="32.4"/><path class="cls-2" d="M120.33,33.84a2.46,2.46,0,0,1-1.33-.28,1.09,1.09,0,0,1-.49-.72,4.73,4.73,0,0,1-.08-.93V18.26a3.85,3.85,0,0,1,.1-.91,1.11,1.11,0,0,1,.5-.71,2.31,2.31,0,0,1,1.32-.28h5.13a6.39,6.39,0,0,1,2.1.38,6.12,6.12,0,0,1,3.46,3.1,6.17,6.17,0,0,1,.56,2.7,5.93,5.93,0,0,1-.57,2.69,5.71,5.71,0,0,1-1.47,1.91,6.15,6.15,0,0,1-2,1.15,6.46,6.46,0,0,1-2.13.37h-3.2v3.28a3.91,3.91,0,0,1-.1.91,1.15,1.15,0,0,1-.5.71A2.35,2.35,0,0,1,120.33,33.84Zm1.93-9h3.22a2.64,2.64,0,0,0,1.09-.23,2.12,2.12,0,0,0,.9-.76,2.65,2.65,0,0,0,0-2.58,2.2,2.2,0,0,0-.84-.82,2.4,2.4,0,0,0-1.22-.31h-3.2Z"/><path class="cls-2" d="M138.53,33.85a16.26,16.26,0,0,1-1.83-.1,3.9,3.9,0,0,1-1.35-.4,2.58,2.58,0,0,1-.9-.84,4,4,0,0,1-.52-1.38,10,10,0,0,1-.18-2.06V17.52a4,4,0,0,1,.1-.93,1.21,1.21,0,0,1,.49-.7,2.37,2.37,0,0,1,1.31-.27,2.24,2.24,0,0,1,1.29.28,1.15,1.15,0,0,1,.49.7,4.4,4.4,0,0,1,.1.92V28.9a4.16,4.16,0,0,0,0,.66.8.8,0,0,0,.15.41.49.49,0,0,0,.31.2,1.9,1.9,0,0,0,.52,0,2.7,2.7,0,0,1,.62.08.9.9,0,0,1,.53.45,2.53,2.53,0,0,1,.23,1.25,2.79,2.79,0,0,1-.23,1.3.89.89,0,0,1-.54.47A2.72,2.72,0,0,1,138.53,33.85Z"/><path class="cls-2" d="M148,34.08a7.09,7.09,0,0,1-3-.58A5.84,5.84,0,0,1,142.88,32a6.25,6.25,0,0,1-1.2-2.09,6.88,6.88,0,0,1-.4-2.3,6.45,6.45,0,0,1,.85-3.33A6.19,6.19,0,0,1,144.5,22a7,7,0,0,1,3.46-.84,6.24,6.24,0,0,1,2.51.47,5.23,5.23,0,0,1,1.75,1.2,4.89,4.89,0,0,1,1,1.59,4.28,4.28,0,0,1,.34,1.62,2.82,2.82,0,0,1-.66,2,2.25,2.25,0,0,1-1.69.67h-5.95a1.77,1.77,0,0,0,.46,1.08,2.85,2.85,0,0,0,1,.7,3.64,3.64,0,0,0,1.32.25,8.1,8.1,0,0,0,1-.06,4.43,4.43,0,0,0,.79-.18l.59-.22a4.32,4.32,0,0,1,.48-.19,2.41,2.41,0,0,1,.43-.1,1,1,0,0,1,.67.21,2.06,2.06,0,0,1,.58.72,1.8,1.8,0,0,1,.23.52,1.73,1.73,0,0,1,.07.5,1.35,1.35,0,0,1-.62,1.09,4.68,4.68,0,0,1-1.72.73A11,11,0,0,1,148,34.08Zm-2.67-7.4h3.95a1.06,1.06,0,0,0,.58-.14A.62.62,0,0,0,150,26a1.24,1.24,0,0,0-.28-.77,1.8,1.8,0,0,0-.74-.54,2.94,2.94,0,0,0-1.08-.19,3,3,0,0,0-1.35.3,2.39,2.39,0,0,0-.94.8A1.84,1.84,0,0,0,145.28,26.68Z"/><path class="cls-2" d="M160.85,33.54a5,5,0,0,1-2.16-.49,5.84,5.84,0,0,1-1.79-1.34,6.55,6.55,0,0,1-1.22-1.95,6.12,6.12,0,0,1-.45-2.33,6.12,6.12,0,0,1,1.69-4.23,6.14,6.14,0,0,1,1.8-1.33,4.86,4.86,0,0,1,2.11-.48,3.81,3.81,0,0,1,1.9.43A3.33,3.33,0,0,1,164,23.07a6.56,6.56,0,0,1,.71,1.93,11.82,11.82,0,0,1,.24,2.49,11,11,0,0,1-.42,3.21,4.2,4.2,0,0,1-1.3,2.1A3.58,3.58,0,0,1,160.85,33.54ZM161.3,39a7.45,7.45,0,0,1-3.35-.83,4.28,4.28,0,0,1-1.15-.8,1.19,1.19,0,0,1-.43-.85,1.77,1.77,0,0,1,.15-.73,2.46,2.46,0,0,1,.45-.67,7,7,0,0,1,.6-.57,1,1,0,0,1,.6-.2,1,1,0,0,1,.63.19l.59.41a3.54,3.54,0,0,0,.78.41,3.21,3.21,0,0,0,1.2.19,2.26,2.26,0,0,0,.94-.19,2,2,0,0,0,.75-.55,2.71,2.71,0,0,0,.5-.84,2.94,2.94,0,0,0,.19-1.09V22.54a1.21,1.21,0,0,1,.51-.94,2.49,2.49,0,0,1,1.34-.29,2.21,2.21,0,0,1,1.25.27,1.07,1.07,0,0,1,.46.68,4.43,4.43,0,0,1,.09.9V33a5.88,5.88,0,0,1-.53,2.54,5.57,5.57,0,0,1-1.4,1.87,6,6,0,0,1-1.95,1.16A6.23,6.23,0,0,1,161.3,39Zm0-9.1a2.13,2.13,0,0,0,1.2-.34,2.53,2.53,0,0,0,.84-.88,2.6,2.6,0,0,0,.31-1.25,2.44,2.44,0,0,0-.31-1.25,2.3,2.3,0,0,0-2.06-1.2,2.27,2.27,0,0,0-1.21.33,2.53,2.53,0,0,0-.83.89,2.47,2.47,0,0,0-.32,1.25,2.3,2.3,0,0,0,.33,1.22,2.53,2.53,0,0,0,.86.89A2.15,2.15,0,0,0,161.28,29.91Z"/><path class="cls-2" d="M180.18,33.85a2.34,2.34,0,0,1-1.38-.33.91.91,0,0,1-.43-.8l.26-.42a3.07,3.07,0,0,1-.58.61,4.12,4.12,0,0,1-2.77.93,4.88,4.88,0,0,1-2.19-.5A5.74,5.74,0,0,1,171.25,32a7,7,0,0,1-1.27-2,6,6,0,0,1-.48-2.37,5.83,5.83,0,0,1,.48-2.34,6.9,6.9,0,0,1,1.29-2,6.42,6.42,0,0,1,1.84-1.36,4.93,4.93,0,0,1,2.17-.5,4.14,4.14,0,0,1,1.58.27,4.24,4.24,0,0,1,1.08.61,3,3,0,0,1,.67.68l-.23-.35a1.07,1.07,0,0,1,.44-.92,2.48,2.48,0,0,1,1.39-.31,2.26,2.26,0,0,1,1.28.28,1.11,1.11,0,0,1,.48.72,4.86,4.86,0,0,1,.09.95V32a4.63,4.63,0,0,1-.09.92,1.1,1.1,0,0,1-.47.72A2.5,2.5,0,0,1,180.18,33.85Zm-4.38-3.73a2.13,2.13,0,0,0,1.2-.34,2.63,2.63,0,0,0,.85-3.47,2.32,2.32,0,0,0-.87-.89,2.45,2.45,0,0,0-1.22-.33,2.49,2.49,0,0,0-1.27.34,2.7,2.7,0,0,0-.9.91,2.6,2.6,0,0,0-.34,1.3,2.31,2.31,0,0,0,.34,1.24,2.37,2.37,0,0,0,.93.9A2.48,2.48,0,0,0,175.8,30.12Z"/><path class="cls-2" d="M189.9,33.85a5,5,0,0,1-2.18-.49A5.83,5.83,0,0,1,185.9,32a6.7,6.7,0,0,1-1.26-2,6.35,6.35,0,0,1-.46-2.42,6,6,0,0,1,.46-2.33,6.67,6.67,0,0,1,1.28-2,6.24,6.24,0,0,1,1.84-1.36,4.88,4.88,0,0,1,2.15-.5,4.47,4.47,0,0,1,2.11.49,4.35,4.35,0,0,1,1.52,1.34,6.48,6.48,0,0,1,.94,2,9.08,9.08,0,0,1,.35,2.35,9.28,9.28,0,0,1-.3,2.4,6.12,6.12,0,0,1-.93,2,4.66,4.66,0,0,1-1.55,1.38A4.38,4.38,0,0,1,189.9,33.85Zm.5-3.7a2.24,2.24,0,0,0,1.21-.33,2.68,2.68,0,0,0,.88-.92,2.49,2.49,0,0,0,.34-1.27,2.42,2.42,0,0,0-.33-1.26,2.35,2.35,0,0,0-.87-.9,2.3,2.3,0,0,0-1.25-.34,2.52,2.52,0,0,0-1.24.32,2.35,2.35,0,0,0-.87.9,2.61,2.61,0,0,0-.32,1.28,2.51,2.51,0,0,0,.33,1.27,2.25,2.25,0,0,0,.9.91A2.32,2.32,0,0,0,190.4,30.15Zm4.35,3.73a2.31,2.31,0,0,1-1.26-.27,1.3,1.3,0,0,1-.54-.86V17.6a6.73,6.73,0,0,1,.06-.91,1,1,0,0,1,.44-.71,2.28,2.28,0,0,1,1.28-.27,2.38,2.38,0,0,1,1.32.26,1.08,1.08,0,0,1,.47.69,3.82,3.82,0,0,1,.1.92V32a4.46,4.46,0,0,1-.09.91,1.14,1.14,0,0,1-.48.72A2.37,2.37,0,0,1,194.75,33.88Z"/><path class="cls-2" d="M205.15,34.09a6.3,6.3,0,0,1-2.34-.47,7,7,0,0,1-2.11-1.31,6.38,6.38,0,0,1-1.51-2,6,6,0,0,1-.56-2.64,6.19,6.19,0,0,1,.51-2.51,6.78,6.78,0,0,1,1.42-2.06,6.63,6.63,0,0,1,2.06-1.41,6.09,6.09,0,0,1,2.49-.51,6.35,6.35,0,0,1,3.26.86,6.72,6.72,0,0,1,2.34,2.34,6.34,6.34,0,0,1,.87,3.28,6.2,6.2,0,0,1-.57,2.71,6.35,6.35,0,0,1-1.5,2,6.57,6.57,0,0,1-2.07,1.28A6.38,6.38,0,0,1,205.15,34.09Zm-.05-3.78a2.85,2.85,0,0,0,1.23-.3,2.81,2.81,0,0,0,1-.9,2.57,2.57,0,0,0,.42-1.52,2.67,2.67,0,0,0-.35-1.4,2.48,2.48,0,0,0-1-.94,2.94,2.94,0,0,0-1.41-.34,2.6,2.6,0,0,0-1.34.35,2.65,2.65,0,0,0-1,1,2.69,2.69,0,0,0-.36,1.39,2.66,2.66,0,0,0,.41,1.51,2.43,2.43,0,0,0,1,.9A2.76,2.76,0,0,0,205.1,30.31Z"/><path class="cls-2" d="M226.12,34a2.21,2.21,0,0,1-1-.23,1.37,1.37,0,0,1-.66-.7l-4.5-9a2,2,0,0,1-.26-1.49,2,2,0,0,1,1.14-1.06,2.41,2.41,0,0,1,1.51-.32c.37.1.71.49,1,1.19l2.8,6.5,2.8-6.42c.3-.71.64-1.13,1-1.25a2.26,2.26,0,0,1,1.57.33c.68.31,1.06.69,1.13,1.11a2.31,2.31,0,0,1-.31,1.46l-4.48,8.93a1.53,1.53,0,0,1-.65.7A2.28,2.28,0,0,1,226.12,34Z"/><path class="cls-2" d="M240.92,34.13a7.28,7.28,0,0,1-3-.57A5.86,5.86,0,0,1,235.85,32a6.57,6.57,0,0,1-1.2-2.08,7.2,7.2,0,0,1-.4-2.31,6.42,6.42,0,0,1,.86-3.32A6,6,0,0,1,237.47,22a7.11,7.11,0,0,1,3.46-.83,6.18,6.18,0,0,1,2.51.46,5.13,5.13,0,0,1,1.75,1.2,5.22,5.22,0,0,1,1,1.59,4.51,4.51,0,0,1,.33,1.63,2.84,2.84,0,0,1-.66,2.05,2.25,2.25,0,0,1-1.69.67h-5.95a1.76,1.76,0,0,0,.46,1.07,2.73,2.73,0,0,0,1,.7,3.5,3.5,0,0,0,1.33.25,7.94,7.94,0,0,0,1-.06,4.3,4.3,0,0,0,.79-.17l.59-.23a4.27,4.27,0,0,1,.49-.18,1.81,1.81,0,0,1,.42-.1,1,1,0,0,1,.68.21,2.22,2.22,0,0,1,.57.71,1.75,1.75,0,0,1,.24.53,2.07,2.07,0,0,1,.06.5,1.32,1.32,0,0,1-.61,1.08,4.73,4.73,0,0,1-1.73.74A11,11,0,0,1,240.92,34.13Zm-2.67-7.4h3.95a1,1,0,0,0,.58-.13.62.62,0,0,0,.2-.54,1.18,1.18,0,0,0-.28-.77,1.61,1.61,0,0,0-.73-.54,2.8,2.8,0,0,0-1.09-.19,3,3,0,0,0-1.35.3,2.38,2.38,0,0,0-.94.8A1.91,1.91,0,0,0,238.25,26.73Z"/><path class="cls-2" d="M250.52,33.91a2.41,2.41,0,0,1-1.31-.26,1.06,1.06,0,0,1-.47-.71,4.73,4.73,0,0,1-.09-.93V23.29a5.46,5.46,0,0,1,.08-.93,1,1,0,0,1,.49-.68,2.47,2.47,0,0,1,1.33-.27,2.5,2.5,0,0,1,1.26.24,1.06,1.06,0,0,1,.49.55,2.08,2.08,0,0,1,.1.54l-.3.15a2,2,0,0,1,.26-.36A3.2,3.2,0,0,1,253,22a3.71,3.71,0,0,1,.91-.49,3.62,3.62,0,0,1,1.24-.2c.18,0,.38,0,.61,0a3.83,3.83,0,0,1,.7.15,3.32,3.32,0,0,1,.66.3,1.8,1.8,0,0,1,.49.46,1.24,1.24,0,0,1,.19.68,3.06,3.06,0,0,1-.48,1.74,1.42,1.42,0,0,1-1.2.71,2.11,2.11,0,0,1-.6-.06,1.3,1.3,0,0,1-.29-.16l-.26-.15a1.68,1.68,0,0,0-.55-.06,2.71,2.71,0,0,0-.71.1,2.06,2.06,0,0,0-.63.31,1.54,1.54,0,0,0-.45.53,1.49,1.49,0,0,0-.16.71v5.48a4.53,4.53,0,0,1-.09.91,1.07,1.07,0,0,1-.49.69A2.73,2.73,0,0,1,250.52,33.91Z"/><path class="cls-2" d="M260.51,21.62h2.75l3.45-.1a4.43,4.43,0,0,1,.9.09,1.13,1.13,0,0,1,.7.49,2.47,2.47,0,0,1,.27,1.33,2.4,2.4,0,0,1-.26,1.25,1.24,1.24,0,0,1-.69.51,3.83,3.83,0,0,1-.93.11l-3.27-.08-3,0a1.23,1.23,0,0,1-1-.46,2.51,2.51,0,0,1-.28-1.39,2.07,2.07,0,0,1,.35-1.33A1.26,1.26,0,0,1,260.51,21.62Zm5.64,12.3a7.92,7.92,0,0,1-2.2-.27,3.64,3.64,0,0,1-1.51-.85,3.55,3.55,0,0,1-.88-1.47,6.91,6.91,0,0,1-.28-2.11V19.1a4.31,4.31,0,0,1,.09-.93,1,1,0,0,1,.49-.66,3.32,3.32,0,0,1,2.6,0,1.12,1.12,0,0,1,.49.72,5.31,5.31,0,0,1,.08.91v9.92a3.13,3.13,0,0,0,.06.67.72.72,0,0,0,.19.38.62.62,0,0,0,.35.18,2.79,2.79,0,0,0,.55.05,4.07,4.07,0,0,1,1,.1,1.07,1.07,0,0,1,.66.45,2.15,2.15,0,0,1,.24,1.17,2.35,2.35,0,0,1-.27,1.3,1.09,1.09,0,0,1-.72.48A5.33,5.33,0,0,1,266.15,33.92Z"/><path class="cls-2" d="M272.51,19.63a2.38,2.38,0,0,1-1.35-.28,1.09,1.09,0,0,1-.49-.72,4.86,4.86,0,0,1-.09-.95,4.92,4.92,0,0,1,.09-1,1.09,1.09,0,0,1,.5-.7,2.71,2.71,0,0,1,1.36-.26,2.46,2.46,0,0,1,1.33.28,1.09,1.09,0,0,1,.49.72,5.05,5.05,0,0,1,.08,1,5.52,5.52,0,0,1-.08.92,1.13,1.13,0,0,1-.49.72A2.65,2.65,0,0,1,272.51,19.63Zm0,14.3a2.47,2.47,0,0,1-1.33-.27,1,1,0,0,1-.47-.7,5.31,5.31,0,0,1-.08-.91V23.33a4.63,4.63,0,0,1,.09-.92,1,1,0,0,1,.49-.69,2.41,2.41,0,0,1,1.32-.27,2.33,2.33,0,0,1,1.29.28,1.1,1.1,0,0,1,.47.71,4.69,4.69,0,0,1,.09.94v8.7a4.47,4.47,0,0,1-.08.91,1.06,1.06,0,0,1-.48.69A2.52,2.52,0,0,1,272.5,33.93Z"/><path class="cls-2" d="M283.22,34a6.35,6.35,0,0,1-2.23-.41,6.92,6.92,0,0,1-2.1-1.21,5.77,5.77,0,0,1-1.54-2,6.36,6.36,0,0,1-.57-2.76,5.86,5.86,0,0,1,2.1-4.69A6.56,6.56,0,0,1,281,21.75a6.35,6.35,0,0,1,2.21-.42,6,6,0,0,1,1.66.22,5.41,5.41,0,0,1,1.25.51,3.87,3.87,0,0,1,.74.53,7,7,0,0,1,.75.65,1,1,0,0,1,.3.85,1.59,1.59,0,0,1-.18.56,4.36,4.36,0,0,1-.37.59c-.52.7-1,1-1.5,1a2.58,2.58,0,0,1-.69-.25l-.6-.36a5.81,5.81,0,0,0-.61-.31,2,2,0,0,0-.75-.14,2.57,2.57,0,0,0-1.3.34,2.64,2.64,0,0,0-.92.9A2.75,2.75,0,0,0,281,29a2.64,2.64,0,0,0,.9.92,2.47,2.47,0,0,0,1.26.33,2.39,2.39,0,0,0,.73-.1,2.17,2.17,0,0,0,.55-.23l.35-.22.58-.36a1.12,1.12,0,0,1,.55-.16,1.25,1.25,0,0,1,.73.26,4.38,4.38,0,0,1,.82.84,2.07,2.07,0,0,1,.48,1,1.24,1.24,0,0,1-.21.86,2.67,2.67,0,0,1-.85.76,4.05,4.05,0,0,1-.71.45,7.55,7.55,0,0,1-1.25.5A5.77,5.77,0,0,1,283.22,34Z"/><path class="cls-2" d="M300.37,33.92a2.33,2.33,0,0,1-1.37-.33.91.91,0,0,1-.43-.8l.25-.42a2.72,2.72,0,0,1-.57.61,4.45,4.45,0,0,1-1.11.65,4.38,4.38,0,0,1-1.67.29,5,5,0,0,1-2.18-.5A5.93,5.93,0,0,1,291.45,32a7.18,7.18,0,0,1-1.27-2,6,6,0,0,1-.48-2.37,5.83,5.83,0,0,1,.48-2.34,6.34,6.34,0,0,1,1.29-2A6.07,6.07,0,0,1,293.31,22a4.77,4.77,0,0,1,2.17-.5,4.35,4.35,0,0,1,1.58.26,4.24,4.24,0,0,1,1.08.61,3.18,3.18,0,0,1,.66.68l-.22-.35a1,1,0,0,1,.44-.91,2.39,2.39,0,0,1,1.39-.32,2.29,2.29,0,0,1,1.28.28,1.11,1.11,0,0,1,.48.73,4.77,4.77,0,0,1,.08.94V32a4.81,4.81,0,0,1-.09.93,1.12,1.12,0,0,1-.47.71A2.52,2.52,0,0,1,300.37,33.92ZM296,30.19a2.21,2.21,0,0,0,1.2-.33,2.6,2.6,0,0,0,.85-.92,2.54,2.54,0,0,0-.87-3.45,2.55,2.55,0,0,0-2.49,0,2.64,2.64,0,0,0-.9.92,2.54,2.54,0,0,0-.34,1.3,2.28,2.28,0,0,0,.34,1.23,2.41,2.41,0,0,0,.92.9A2.51,2.51,0,0,0,296,30.19Z"/><path class="cls-2" d="M309.55,34a14.3,14.3,0,0,1-1.83-.1,3.9,3.9,0,0,1-1.35-.4,2.58,2.58,0,0,1-.9-.84,4.19,4.19,0,0,1-.52-1.38,10,10,0,0,1-.17-2.06V17.62a4.4,4.4,0,0,1,.1-.92,1.15,1.15,0,0,1,.49-.7,2.29,2.29,0,0,1,1.31-.28A2.24,2.24,0,0,1,308,16a1.18,1.18,0,0,1,.49.7,3.82,3.82,0,0,1,.1.92V29a4,4,0,0,0,0,.66.74.74,0,0,0,.15.41.51.51,0,0,0,.31.2,1.9,1.9,0,0,0,.52.05,2.64,2.64,0,0,1,.62.08.87.87,0,0,1,.53.45A2.56,2.56,0,0,1,311,32.1a2.79,2.79,0,0,1-.23,1.3.89.89,0,0,1-.53.48A2.79,2.79,0,0,1,309.55,34Z"/><path class="cls-3" d="M120.33,33.84a2.46,2.46,0,0,1-1.33-.28,1.09,1.09,0,0,1-.49-.72,4.73,4.73,0,0,1-.08-.93V18.26a3.85,3.85,0,0,1,.1-.91,1.11,1.11,0,0,1,.5-.71,2.31,2.31,0,0,1,1.32-.28h5.13a6.39,6.39,0,0,1,2.1.38,6.12,6.12,0,0,1,3.46,3.1,6.17,6.17,0,0,1,.56,2.7,5.93,5.93,0,0,1-.57,2.69,5.71,5.71,0,0,1-1.47,1.91,6.15,6.15,0,0,1-2,1.15,6.46,6.46,0,0,1-2.13.37h-3.2v3.28a3.91,3.91,0,0,1-.1.91,1.15,1.15,0,0,1-.5.71A2.35,2.35,0,0,1,120.33,33.84Zm1.93-9h3.22a2.64,2.64,0,0,0,1.09-.23,2.12,2.12,0,0,0,.9-.76,2.65,2.65,0,0,0,0-2.58,2.2,2.2,0,0,0-.84-.82,2.4,2.4,0,0,0-1.22-.31h-3.2Z"/><path class="cls-3" d="M138.53,33.85a16.26,16.26,0,0,1-1.83-.1,3.9,3.9,0,0,1-1.35-.4,2.58,2.58,0,0,1-.9-.84,4,4,0,0,1-.52-1.38,10,10,0,0,1-.18-2.06V17.52a4,4,0,0,1,.1-.93,1.21,1.21,0,0,1,.49-.7,2.37,2.37,0,0,1,1.31-.27,2.24,2.24,0,0,1,1.29.28,1.15,1.15,0,0,1,.49.7,4.4,4.4,0,0,1,.1.92V28.9a4.16,4.16,0,0,0,0,.66.8.8,0,0,0,.15.41.49.49,0,0,0,.31.2,1.9,1.9,0,0,0,.52,0,2.7,2.7,0,0,1,.62.08.9.9,0,0,1,.53.45,2.53,2.53,0,0,1,.23,1.25,2.79,2.79,0,0,1-.23,1.3.89.89,0,0,1-.54.47A2.72,2.72,0,0,1,138.53,33.85Z"/><path class="cls-3" d="M148,34.08a7.09,7.09,0,0,1-3-.58A5.84,5.84,0,0,1,142.88,32a6.25,6.25,0,0,1-1.2-2.09,6.88,6.88,0,0,1-.4-2.3,6.45,6.45,0,0,1,.85-3.33A6.19,6.19,0,0,1,144.5,22a7,7,0,0,1,3.46-.84,6.24,6.24,0,0,1,2.51.47,5.23,5.23,0,0,1,1.75,1.2,4.89,4.89,0,0,1,1,1.59,4.28,4.28,0,0,1,.34,1.62,2.82,2.82,0,0,1-.66,2,2.25,2.25,0,0,1-1.69.67h-5.95a1.77,1.77,0,0,0,.46,1.08,2.85,2.85,0,0,0,1,.7,3.64,3.64,0,0,0,1.32.25,8.1,8.1,0,0,0,1-.06,4.43,4.43,0,0,0,.79-.18l.59-.22a4.32,4.32,0,0,1,.48-.19,2.41,2.41,0,0,1,.43-.1,1,1,0,0,1,.67.21,2.06,2.06,0,0,1,.58.72,1.8,1.8,0,0,1,.23.52,1.73,1.73,0,0,1,.07.5,1.35,1.35,0,0,1-.62,1.09,4.68,4.68,0,0,1-1.72.73A11,11,0,0,1,148,34.08Zm-2.67-7.4h3.95a1.06,1.06,0,0,0,.58-.14A.62.62,0,0,0,150,26a1.24,1.24,0,0,0-.28-.77,1.8,1.8,0,0,0-.74-.54,2.94,2.94,0,0,0-1.08-.19,3,3,0,0,0-1.35.3,2.39,2.39,0,0,0-.94.8A1.84,1.84,0,0,0,145.28,26.68Z"/><path class="cls-3" d="M160.85,33.54a5,5,0,0,1-2.16-.49,5.84,5.84,0,0,1-1.79-1.34,6.55,6.55,0,0,1-1.22-1.95,6.12,6.12,0,0,1-.45-2.33,6.12,6.12,0,0,1,1.69-4.23,6.14,6.14,0,0,1,1.8-1.33,4.86,4.86,0,0,1,2.11-.48,3.81,3.81,0,0,1,1.9.43A3.33,3.33,0,0,1,164,23.07a6.56,6.56,0,0,1,.71,1.93,11.82,11.82,0,0,1,.24,2.49,11,11,0,0,1-.42,3.21,4.2,4.2,0,0,1-1.3,2.1A3.58,3.58,0,0,1,160.85,33.54ZM161.3,39a7.45,7.45,0,0,1-3.35-.83,4.28,4.28,0,0,1-1.15-.8,1.19,1.19,0,0,1-.43-.85,1.77,1.77,0,0,1,.15-.73,2.46,2.46,0,0,1,.45-.67,7,7,0,0,1,.6-.57,1,1,0,0,1,.6-.2,1,1,0,0,1,.63.19l.59.41a3.54,3.54,0,0,0,.78.41,3.21,3.21,0,0,0,1.2.19,2.26,2.26,0,0,0,.94-.19,2,2,0,0,0,.75-.55,2.71,2.71,0,0,0,.5-.84,2.94,2.94,0,0,0,.19-1.09V22.54a1.21,1.21,0,0,1,.51-.94,2.49,2.49,0,0,1,1.34-.29,2.21,2.21,0,0,1,1.25.27,1.07,1.07,0,0,1,.46.68,4.43,4.43,0,0,1,.09.9V33a5.88,5.88,0,0,1-.53,2.54,5.57,5.57,0,0,1-1.4,1.87,6,6,0,0,1-1.95,1.16A6.23,6.23,0,0,1,161.3,39Zm0-9.1a2.13,2.13,0,0,0,1.2-.34,2.53,2.53,0,0,0,.84-.88,2.6,2.6,0,0,0,.31-1.25,2.44,2.44,0,0,0-.31-1.25,2.3,2.3,0,0,0-2.06-1.2,2.27,2.27,0,0,0-1.21.33,2.53,2.53,0,0,0-.83.89,2.47,2.47,0,0,0-.32,1.25,2.3,2.3,0,0,0,.33,1.22,2.53,2.53,0,0,0,.86.89A2.15,2.15,0,0,0,161.28,29.91Z"/><path class="cls-3" d="M180.18,33.85a2.34,2.34,0,0,1-1.38-.33.91.91,0,0,1-.43-.8l.26-.42a3.07,3.07,0,0,1-.58.61,4.12,4.12,0,0,1-2.77.93,4.88,4.88,0,0,1-2.19-.5A5.74,5.74,0,0,1,171.25,32a7,7,0,0,1-1.27-2,6,6,0,0,1-.48-2.37,5.83,5.83,0,0,1,.48-2.34,6.9,6.9,0,0,1,1.29-2,6.42,6.42,0,0,1,1.84-1.36,4.93,4.93,0,0,1,2.17-.5,4.14,4.14,0,0,1,1.58.27,4.24,4.24,0,0,1,1.08.61,3,3,0,0,1,.67.68l-.23-.35a1.07,1.07,0,0,1,.44-.92,2.48,2.48,0,0,1,1.39-.31,2.26,2.26,0,0,1,1.28.28,1.11,1.11,0,0,1,.48.72,4.86,4.86,0,0,1,.09.95V32a4.63,4.63,0,0,1-.09.92,1.1,1.1,0,0,1-.47.72A2.5,2.5,0,0,1,180.18,33.85Zm-4.38-3.73a2.13,2.13,0,0,0,1.2-.34,2.63,2.63,0,0,0,.85-3.47,2.32,2.32,0,0,0-.87-.89,2.45,2.45,0,0,0-1.22-.33,2.49,2.49,0,0,0-1.27.34,2.7,2.7,0,0,0-.9.91,2.6,2.6,0,0,0-.34,1.3,2.31,2.31,0,0,0,.34,1.24,2.37,2.37,0,0,0,.93.9A2.48,2.48,0,0,0,175.8,30.12Z"/><path class="cls-3" d="M189.9,33.85a5,5,0,0,1-2.18-.49A5.83,5.83,0,0,1,185.9,32a6.7,6.7,0,0,1-1.26-2,6.35,6.35,0,0,1-.46-2.42,6,6,0,0,1,.46-2.33,6.67,6.67,0,0,1,1.28-2,6.24,6.24,0,0,1,1.84-1.36,4.88,4.88,0,0,1,2.15-.5,4.47,4.47,0,0,1,2.11.49,4.35,4.35,0,0,1,1.52,1.34,6.48,6.48,0,0,1,.94,2,9.08,9.08,0,0,1,.35,2.35,9.28,9.28,0,0,1-.3,2.4,6.12,6.12,0,0,1-.93,2,4.66,4.66,0,0,1-1.55,1.38A4.38,4.38,0,0,1,189.9,33.85Zm.5-3.7a2.24,2.24,0,0,0,1.21-.33,2.68,2.68,0,0,0,.88-.92,2.49,2.49,0,0,0,.34-1.27,2.42,2.42,0,0,0-.33-1.26,2.35,2.35,0,0,0-.87-.9,2.3,2.3,0,0,0-1.25-.34,2.52,2.52,0,0,0-1.24.32,2.35,2.35,0,0,0-.87.9,2.61,2.61,0,0,0-.32,1.28,2.51,2.51,0,0,0,.33,1.27,2.25,2.25,0,0,0,.9.91A2.32,2.32,0,0,0,190.4,30.15Zm4.35,3.73a2.31,2.31,0,0,1-1.26-.27,1.3,1.3,0,0,1-.54-.86V17.6a6.73,6.73,0,0,1,.06-.91,1,1,0,0,1,.44-.71,2.28,2.28,0,0,1,1.28-.27,2.38,2.38,0,0,1,1.32.26,1.08,1.08,0,0,1,.47.69,3.82,3.82,0,0,1,.1.92V32a4.46,4.46,0,0,1-.09.91,1.14,1.14,0,0,1-.48.72A2.37,2.37,0,0,1,194.75,33.88Z"/><path class="cls-3" d="M205.15,34.09a6.3,6.3,0,0,1-2.34-.47,7,7,0,0,1-2.11-1.31,6.38,6.38,0,0,1-1.51-2,6,6,0,0,1-.56-2.64,6.19,6.19,0,0,1,.51-2.51,6.78,6.78,0,0,1,1.42-2.06,6.63,6.63,0,0,1,2.06-1.41,6.09,6.09,0,0,1,2.49-.51,6.35,6.35,0,0,1,3.26.86,6.72,6.72,0,0,1,2.34,2.34,6.34,6.34,0,0,1,.87,3.28,6.2,6.2,0,0,1-.57,2.71,6.35,6.35,0,0,1-1.5,2,6.57,6.57,0,0,1-2.07,1.28A6.38,6.38,0,0,1,205.15,34.09Zm-.05-3.78a2.85,2.85,0,0,0,1.23-.3,2.81,2.81,0,0,0,1-.9,2.57,2.57,0,0,0,.42-1.52,2.67,2.67,0,0,0-.35-1.4,2.48,2.48,0,0,0-1-.94,2.94,2.94,0,0,0-1.41-.34,2.6,2.6,0,0,0-1.34.35,2.65,2.65,0,0,0-1,1,2.69,2.69,0,0,0-.36,1.39,2.66,2.66,0,0,0,.41,1.51,2.43,2.43,0,0,0,1,.9A2.76,2.76,0,0,0,205.1,30.31Z"/><path class="cls-3" d="M226.12,34a2.21,2.21,0,0,1-1-.23,1.37,1.37,0,0,1-.66-.7l-4.5-9a2,2,0,0,1-.26-1.49,2,2,0,0,1,1.14-1.06,2.41,2.41,0,0,1,1.51-.32c.37.1.71.49,1,1.19l2.8,6.5,2.8-6.42c.3-.71.64-1.13,1-1.25a2.26,2.26,0,0,1,1.57.33c.68.31,1.06.69,1.13,1.11a2.31,2.31,0,0,1-.31,1.46l-4.48,8.93a1.53,1.53,0,0,1-.65.7A2.28,2.28,0,0,1,226.12,34Z"/><path class="cls-3" d="M240.92,34.13a7.28,7.28,0,0,1-3-.57A5.86,5.86,0,0,1,235.85,32a6.57,6.57,0,0,1-1.2-2.08,7.2,7.2,0,0,1-.4-2.31,6.42,6.42,0,0,1,.86-3.32A6,6,0,0,1,237.47,22a7.11,7.11,0,0,1,3.46-.83,6.18,6.18,0,0,1,2.51.46,5.13,5.13,0,0,1,1.75,1.2,5.22,5.22,0,0,1,1,1.59,4.51,4.51,0,0,1,.33,1.63,2.84,2.84,0,0,1-.66,2.05,2.25,2.25,0,0,1-1.69.67h-5.95a1.76,1.76,0,0,0,.46,1.07,2.73,2.73,0,0,0,1,.7,3.5,3.5,0,0,0,1.33.25,7.94,7.94,0,0,0,1-.06,4.3,4.3,0,0,0,.79-.17l.59-.23a4.27,4.27,0,0,1,.49-.18,1.81,1.81,0,0,1,.42-.1,1,1,0,0,1,.68.21,2.22,2.22,0,0,1,.57.71,1.75,1.75,0,0,1,.24.53,2.07,2.07,0,0,1,.06.5,1.32,1.32,0,0,1-.61,1.08,4.73,4.73,0,0,1-1.73.74A11,11,0,0,1,240.92,34.13Zm-2.67-7.4h3.95a1,1,0,0,0,.58-.13.62.62,0,0,0,.2-.54,1.18,1.18,0,0,0-.28-.77,1.61,1.61,0,0,0-.73-.54,2.8,2.8,0,0,0-1.09-.19,3,3,0,0,0-1.35.3,2.38,2.38,0,0,0-.94.8A1.91,1.91,0,0,0,238.25,26.73Z"/><path class="cls-3" d="M250.52,33.91a2.41,2.41,0,0,1-1.31-.26,1.06,1.06,0,0,1-.47-.71,4.73,4.73,0,0,1-.09-.93V23.29a5.46,5.46,0,0,1,.08-.93,1,1,0,0,1,.49-.68,2.47,2.47,0,0,1,1.33-.27,2.5,2.5,0,0,1,1.26.24,1.06,1.06,0,0,1,.49.55,2.08,2.08,0,0,1,.1.54l-.3.15a2,2,0,0,1,.26-.36A3.2,3.2,0,0,1,253,22a3.71,3.71,0,0,1,.91-.49,3.62,3.62,0,0,1,1.24-.2c.18,0,.38,0,.61,0a3.83,3.83,0,0,1,.7.15,3.32,3.32,0,0,1,.66.3,1.8,1.8,0,0,1,.49.46,1.24,1.24,0,0,1,.19.68,3.06,3.06,0,0,1-.48,1.74,1.42,1.42,0,0,1-1.2.71,2.11,2.11,0,0,1-.6-.06,1.3,1.3,0,0,1-.29-.16l-.26-.15a1.68,1.68,0,0,0-.55-.06,2.71,2.71,0,0,0-.71.1,2.06,2.06,0,0,0-.63.31,1.54,1.54,0,0,0-.45.53,1.49,1.49,0,0,0-.16.71v5.48a4.53,4.53,0,0,1-.09.91,1.07,1.07,0,0,1-.49.69A2.73,2.73,0,0,1,250.52,33.91Z"/><path class="cls-3" d="M260.51,21.62h2.75l3.45-.1a4.43,4.43,0,0,1,.9.09,1.13,1.13,0,0,1,.7.49,2.47,2.47,0,0,1,.27,1.33,2.4,2.4,0,0,1-.26,1.25,1.24,1.24,0,0,1-.69.51,3.83,3.83,0,0,1-.93.11l-3.27-.08-3,0a1.23,1.23,0,0,1-1-.46,2.51,2.51,0,0,1-.28-1.39,2.07,2.07,0,0,1,.35-1.33A1.26,1.26,0,0,1,260.51,21.62Zm5.64,12.3a7.92,7.92,0,0,1-2.2-.27,3.64,3.64,0,0,1-1.51-.85,3.55,3.55,0,0,1-.88-1.47,6.91,6.91,0,0,1-.28-2.11V19.1a4.31,4.31,0,0,1,.09-.93,1,1,0,0,1,.49-.66,3.32,3.32,0,0,1,2.6,0,1.12,1.12,0,0,1,.49.72,5.31,5.31,0,0,1,.08.91v9.92a3.13,3.13,0,0,0,.06.67.72.72,0,0,0,.19.38.62.62,0,0,0,.35.18,2.79,2.79,0,0,0,.55.05,4.07,4.07,0,0,1,1,.1,1.07,1.07,0,0,1,.66.45,2.15,2.15,0,0,1,.24,1.17,2.35,2.35,0,0,1-.27,1.3,1.09,1.09,0,0,1-.72.48A5.33,5.33,0,0,1,266.15,33.92Z"/><path class="cls-3" d="M272.51,19.63a2.38,2.38,0,0,1-1.35-.28,1.09,1.09,0,0,1-.49-.72,4.86,4.86,0,0,1-.09-.95,4.92,4.92,0,0,1,.09-1,1.09,1.09,0,0,1,.5-.7,2.71,2.71,0,0,1,1.36-.26,2.46,2.46,0,0,1,1.33.28,1.09,1.09,0,0,1,.49.72,5.05,5.05,0,0,1,.08,1,5.52,5.52,0,0,1-.08.92,1.13,1.13,0,0,1-.49.72A2.65,2.65,0,0,1,272.51,19.63Zm0,14.3a2.47,2.47,0,0,1-1.33-.27,1,1,0,0,1-.47-.7,5.31,5.31,0,0,1-.08-.91V23.33a4.63,4.63,0,0,1,.09-.92,1,1,0,0,1,.49-.69,2.41,2.41,0,0,1,1.32-.27,2.33,2.33,0,0,1,1.29.28,1.1,1.1,0,0,1,.47.71,4.69,4.69,0,0,1,.09.94v8.7a4.47,4.47,0,0,1-.08.91,1.06,1.06,0,0,1-.48.69A2.52,2.52,0,0,1,272.5,33.93Z"/><path class="cls-3" d="M283.22,34a6.35,6.35,0,0,1-2.23-.41,6.92,6.92,0,0,1-2.1-1.21,5.77,5.77,0,0,1-1.54-2,6.36,6.36,0,0,1-.57-2.76,5.86,5.86,0,0,1,2.1-4.69A6.56,6.56,0,0,1,281,21.75a6.35,6.35,0,0,1,2.21-.42,6,6,0,0,1,1.66.22,5.41,5.41,0,0,1,1.25.51,3.87,3.87,0,0,1,.74.53,7,7,0,0,1,.75.65,1,1,0,0,1,.3.85,1.59,1.59,0,0,1-.18.56,4.36,4.36,0,0,1-.37.59c-.52.7-1,1-1.5,1a2.58,2.58,0,0,1-.69-.25l-.6-.36a5.81,5.81,0,0,0-.61-.31,2,2,0,0,0-.75-.14,2.57,2.57,0,0,0-1.3.34,2.64,2.64,0,0,0-.92.9A2.75,2.75,0,0,0,281,29a2.64,2.64,0,0,0,.9.92,2.47,2.47,0,0,0,1.26.33,2.39,2.39,0,0,0,.73-.1,2.17,2.17,0,0,0,.55-.23l.35-.22.58-.36a1.12,1.12,0,0,1,.55-.16,1.25,1.25,0,0,1,.73.26,4.38,4.38,0,0,1,.82.84,2.07,2.07,0,0,1,.48,1,1.24,1.24,0,0,1-.21.86,2.67,2.67,0,0,1-.85.76,4.05,4.05,0,0,1-.71.45,7.55,7.55,0,0,1-1.25.5A5.77,5.77,0,0,1,283.22,34Z"/><path class="cls-3" d="M300.37,33.92a2.33,2.33,0,0,1-1.37-.33.91.91,0,0,1-.43-.8l.25-.42a2.72,2.72,0,0,1-.57.61,4.45,4.45,0,0,1-1.11.65,4.38,4.38,0,0,1-1.67.29,5,5,0,0,1-2.18-.5A5.93,5.93,0,0,1,291.45,32a7.18,7.18,0,0,1-1.27-2,6,6,0,0,1-.48-2.37,5.83,5.83,0,0,1,.48-2.34,6.34,6.34,0,0,1,1.29-2A6.07,6.07,0,0,1,293.31,22a4.77,4.77,0,0,1,2.17-.5,4.35,4.35,0,0,1,1.58.26,4.24,4.24,0,0,1,1.08.61,3.18,3.18,0,0,1,.66.68l-.22-.35a1,1,0,0,1,.44-.91,2.39,2.39,0,0,1,1.39-.32,2.29,2.29,0,0,1,1.28.28,1.11,1.11,0,0,1,.48.73,4.77,4.77,0,0,1,.08.94V32a4.81,4.81,0,0,1-.09.93,1.12,1.12,0,0,1-.47.71A2.52,2.52,0,0,1,300.37,33.92ZM296,30.19a2.21,2.21,0,0,0,1.2-.33,2.6,2.6,0,0,0,.85-.92,2.54,2.54,0,0,0-.87-3.45,2.55,2.55,0,0,0-2.49,0,2.64,2.64,0,0,0-.9.92,2.54,2.54,0,0,0-.34,1.3,2.28,2.28,0,0,0,.34,1.23,2.41,2.41,0,0,0,.92.9A2.51,2.51,0,0,0,296,30.19Z"/><path class="cls-3" d="M309.55,34a14.3,14.3,0,0,1-1.83-.1,3.9,3.9,0,0,1-1.35-.4,2.58,2.58,0,0,1-.9-.84,4.19,4.19,0,0,1-.52-1.38,10,10,0,0,1-.17-2.06V17.62a4.4,4.4,0,0,1,.1-.92,1.15,1.15,0,0,1,.49-.7,2.29,2.29,0,0,1,1.31-.28A2.24,2.24,0,0,1,308,16a1.18,1.18,0,0,1,.49.7,3.82,3.82,0,0,1,.1.92V29a4,4,0,0,0,0,.66.74.74,0,0,0,.15.41.51.51,0,0,0,.31.2,1.9,1.9,0,0,0,.52.05,2.64,2.64,0,0,1,.62.08.87.87,0,0,1,.53.45A2.56,2.56,0,0,1,311,32.1a2.79,2.79,0,0,1-.23,1.3.89.89,0,0,1-.53.48A2.79,2.79,0,0,1,309.55,34Z"/><path class="cls-2" d="M120.33,33.84a2.46,2.46,0,0,1-1.33-.28,1.09,1.09,0,0,1-.49-.72,4.73,4.73,0,0,1-.08-.93V18.26a3.85,3.85,0,0,1,.1-.91,1.11,1.11,0,0,1,.5-.71,2.31,2.31,0,0,1,1.32-.28h5.13a6.39,6.39,0,0,1,2.1.38,6.12,6.12,0,0,1,3.46,3.1,6.17,6.17,0,0,1,.56,2.7,5.93,5.93,0,0,1-.57,2.69,5.71,5.71,0,0,1-1.47,1.91,6.15,6.15,0,0,1-2,1.15,6.46,6.46,0,0,1-2.13.37h-3.2v3.28a3.91,3.91,0,0,1-.1.91,1.15,1.15,0,0,1-.5.71A2.35,2.35,0,0,1,120.33,33.84Zm1.93-9h3.22a2.64,2.64,0,0,0,1.09-.23,2.12,2.12,0,0,0,.9-.76,2.65,2.65,0,0,0,0-2.58,2.2,2.2,0,0,0-.84-.82,2.4,2.4,0,0,0-1.22-.31h-3.2Z"/><path class="cls-2" d="M138.53,33.85a16.26,16.26,0,0,1-1.83-.1,3.9,3.9,0,0,1-1.35-.4,2.58,2.58,0,0,1-.9-.84,4,4,0,0,1-.52-1.38,10,10,0,0,1-.18-2.06V17.52a4,4,0,0,1,.1-.93,1.21,1.21,0,0,1,.49-.7,2.37,2.37,0,0,1,1.31-.27,2.24,2.24,0,0,1,1.29.28,1.15,1.15,0,0,1,.49.7,4.4,4.4,0,0,1,.1.92V28.9a4.16,4.16,0,0,0,0,.66.8.8,0,0,0,.15.41.49.49,0,0,0,.31.2,1.9,1.9,0,0,0,.52,0,2.7,2.7,0,0,1,.62.08.9.9,0,0,1,.53.45,2.53,2.53,0,0,1,.23,1.25,2.79,2.79,0,0,1-.23,1.3.89.89,0,0,1-.54.47A2.72,2.72,0,0,1,138.53,33.85Z"/><path class="cls-2" d="M148,34.08a7.09,7.09,0,0,1-3-.58A5.84,5.84,0,0,1,142.88,32a6.25,6.25,0,0,1-1.2-2.09,6.88,6.88,0,0,1-.4-2.3,6.45,6.45,0,0,1,.85-3.33A6.19,6.19,0,0,1,144.5,22a7,7,0,0,1,3.46-.84,6.24,6.24,0,0,1,2.51.47,5.23,5.23,0,0,1,1.75,1.2,4.89,4.89,0,0,1,1,1.59,4.28,4.28,0,0,1,.34,1.62,2.82,2.82,0,0,1-.66,2,2.25,2.25,0,0,1-1.69.67h-5.95a1.77,1.77,0,0,0,.46,1.08,2.85,2.85,0,0,0,1,.7,3.64,3.64,0,0,0,1.32.25,8.1,8.1,0,0,0,1-.06,4.43,4.43,0,0,0,.79-.18l.59-.22a4.32,4.32,0,0,1,.48-.19,2.41,2.41,0,0,1,.43-.1,1,1,0,0,1,.67.21,2.06,2.06,0,0,1,.58.72,1.8,1.8,0,0,1,.23.52,1.73,1.73,0,0,1,.07.5,1.35,1.35,0,0,1-.62,1.09,4.68,4.68,0,0,1-1.72.73A11,11,0,0,1,148,34.08Zm-2.67-7.4h3.95a1.06,1.06,0,0,0,.58-.14A.62.62,0,0,0,150,26a1.24,1.24,0,0,0-.28-.77,1.8,1.8,0,0,0-.74-.54,2.94,2.94,0,0,0-1.08-.19,3,3,0,0,0-1.35.3,2.39,2.39,0,0,0-.94.8A1.84,1.84,0,0,0,145.28,26.68Z"/><path class="cls-2" d="M160.85,33.54a5,5,0,0,1-2.16-.49,5.84,5.84,0,0,1-1.79-1.34,6.55,6.55,0,0,1-1.22-1.95,6.12,6.12,0,0,1-.45-2.33,6.12,6.12,0,0,1,1.69-4.23,6.14,6.14,0,0,1,1.8-1.33,4.86,4.86,0,0,1,2.11-.48,3.81,3.81,0,0,1,1.9.43A3.33,3.33,0,0,1,164,23.07a6.56,6.56,0,0,1,.71,1.93,11.82,11.82,0,0,1,.24,2.49,11,11,0,0,1-.42,3.21,4.2,4.2,0,0,1-1.3,2.1A3.58,3.58,0,0,1,160.85,33.54ZM161.3,39a7.45,7.45,0,0,1-3.35-.83,4.28,4.28,0,0,1-1.15-.8,1.19,1.19,0,0,1-.43-.85,1.77,1.77,0,0,1,.15-.73,2.46,2.46,0,0,1,.45-.67,7,7,0,0,1,.6-.57,1,1,0,0,1,.6-.2,1,1,0,0,1,.63.19l.59.41a3.54,3.54,0,0,0,.78.41,3.21,3.21,0,0,0,1.2.19,2.26,2.26,0,0,0,.94-.19,2,2,0,0,0,.75-.55,2.71,2.71,0,0,0,.5-.84,2.94,2.94,0,0,0,.19-1.09V22.54a1.21,1.21,0,0,1,.51-.94,2.49,2.49,0,0,1,1.34-.29,2.21,2.21,0,0,1,1.25.27,1.07,1.07,0,0,1,.46.68,4.43,4.43,0,0,1,.09.9V33a5.88,5.88,0,0,1-.53,2.54,5.57,5.57,0,0,1-1.4,1.87,6,6,0,0,1-1.95,1.16A6.23,6.23,0,0,1,161.3,39Zm0-9.1a2.13,2.13,0,0,0,1.2-.34,2.53,2.53,0,0,0,.84-.88,2.6,2.6,0,0,0,.31-1.25,2.44,2.44,0,0,0-.31-1.25,2.3,2.3,0,0,0-2.06-1.2,2.27,2.27,0,0,0-1.21.33,2.53,2.53,0,0,0-.83.89,2.47,2.47,0,0,0-.32,1.25,2.3,2.3,0,0,0,.33,1.22,2.53,2.53,0,0,0,.86.89A2.15,2.15,0,0,0,161.28,29.91Z"/><path class="cls-2" d="M180.18,33.85a2.34,2.34,0,0,1-1.38-.33.91.91,0,0,1-.43-.8l.26-.42a3.07,3.07,0,0,1-.58.61,4.12,4.12,0,0,1-2.77.93,4.88,4.88,0,0,1-2.19-.5A5.74,5.74,0,0,1,171.25,32a7,7,0,0,1-1.27-2,6,6,0,0,1-.48-2.37,5.83,5.83,0,0,1,.48-2.34,6.9,6.9,0,0,1,1.29-2,6.42,6.42,0,0,1,1.84-1.36,4.93,4.93,0,0,1,2.17-.5,4.14,4.14,0,0,1,1.58.27,4.24,4.24,0,0,1,1.08.61,3,3,0,0,1,.67.68l-.23-.35a1.07,1.07,0,0,1,.44-.92,2.48,2.48,0,0,1,1.39-.31,2.26,2.26,0,0,1,1.28.28,1.11,1.11,0,0,1,.48.72,4.86,4.86,0,0,1,.09.95V32a4.63,4.63,0,0,1-.09.92,1.1,1.1,0,0,1-.47.72A2.5,2.5,0,0,1,180.18,33.85Zm-4.38-3.73a2.13,2.13,0,0,0,1.2-.34,2.63,2.63,0,0,0,.85-3.47,2.32,2.32,0,0,0-.87-.89,2.45,2.45,0,0,0-1.22-.33,2.49,2.49,0,0,0-1.27.34,2.7,2.7,0,0,0-.9.91,2.6,2.6,0,0,0-.34,1.3,2.31,2.31,0,0,0,.34,1.24,2.37,2.37,0,0,0,.93.9A2.48,2.48,0,0,0,175.8,30.12Z"/><path class="cls-2" d="M189.9,33.85a5,5,0,0,1-2.18-.49A5.83,5.83,0,0,1,185.9,32a6.7,6.7,0,0,1-1.26-2,6.35,6.35,0,0,1-.46-2.42,6,6,0,0,1,.46-2.33,6.67,6.67,0,0,1,1.28-2,6.24,6.24,0,0,1,1.84-1.36,4.88,4.88,0,0,1,2.15-.5,4.47,4.47,0,0,1,2.11.49,4.35,4.35,0,0,1,1.52,1.34,6.48,6.48,0,0,1,.94,2,9.08,9.08,0,0,1,.35,2.35,9.28,9.28,0,0,1-.3,2.4,6.12,6.12,0,0,1-.93,2,4.66,4.66,0,0,1-1.55,1.38A4.38,4.38,0,0,1,189.9,33.85Zm.5-3.7a2.24,2.24,0,0,0,1.21-.33,2.68,2.68,0,0,0,.88-.92,2.49,2.49,0,0,0,.34-1.27,2.42,2.42,0,0,0-.33-1.26,2.35,2.35,0,0,0-.87-.9,2.3,2.3,0,0,0-1.25-.34,2.52,2.52,0,0,0-1.24.32,2.35,2.35,0,0,0-.87.9,2.61,2.61,0,0,0-.32,1.28,2.51,2.51,0,0,0,.33,1.27,2.25,2.25,0,0,0,.9.91A2.32,2.32,0,0,0,190.4,30.15Zm4.35,3.73a2.31,2.31,0,0,1-1.26-.27,1.3,1.3,0,0,1-.54-.86V17.6a6.73,6.73,0,0,1,.06-.91,1,1,0,0,1,.44-.71,2.28,2.28,0,0,1,1.28-.27,2.38,2.38,0,0,1,1.32.26,1.08,1.08,0,0,1,.47.69,3.82,3.82,0,0,1,.1.92V32a4.46,4.46,0,0,1-.09.91,1.14,1.14,0,0,1-.48.72A2.37,2.37,0,0,1,194.75,33.88Z"/><path class="cls-2" d="M205.15,34.09a6.3,6.3,0,0,1-2.34-.47,7,7,0,0,1-2.11-1.31,6.38,6.38,0,0,1-1.51-2,6,6,0,0,1-.56-2.64,6.19,6.19,0,0,1,.51-2.51,6.78,6.78,0,0,1,1.42-2.06,6.63,6.63,0,0,1,2.06-1.41,6.09,6.09,0,0,1,2.49-.51,6.35,6.35,0,0,1,3.26.86,6.72,6.72,0,0,1,2.34,2.34,6.34,6.34,0,0,1,.87,3.28,6.2,6.2,0,0,1-.57,2.71,6.35,6.35,0,0,1-1.5,2,6.57,6.57,0,0,1-2.07,1.28A6.38,6.38,0,0,1,205.15,34.09Zm-.05-3.78a2.85,2.85,0,0,0,1.23-.3,2.81,2.81,0,0,0,1-.9,2.57,2.57,0,0,0,.42-1.52,2.67,2.67,0,0,0-.35-1.4,2.48,2.48,0,0,0-1-.94,2.94,2.94,0,0,0-1.41-.34,2.6,2.6,0,0,0-1.34.35,2.65,2.65,0,0,0-1,1,2.69,2.69,0,0,0-.36,1.39,2.66,2.66,0,0,0,.41,1.51,2.43,2.43,0,0,0,1,.9A2.76,2.76,0,0,0,205.1,30.31Z"/><path class="cls-2" d="M226.12,34a2.21,2.21,0,0,1-1-.23,1.37,1.37,0,0,1-.66-.7l-4.5-9a2,2,0,0,1-.26-1.49,2,2,0,0,1,1.14-1.06,2.41,2.41,0,0,1,1.51-.32c.37.1.71.49,1,1.19l2.8,6.5,2.8-6.42c.3-.71.64-1.13,1-1.25a2.26,2.26,0,0,1,1.57.33c.68.31,1.06.69,1.13,1.11a2.31,2.31,0,0,1-.31,1.46l-4.48,8.93a1.53,1.53,0,0,1-.65.7A2.28,2.28,0,0,1,226.12,34Z"/><path class="cls-2" d="M240.92,34.13a7.28,7.28,0,0,1-3-.57A5.86,5.86,0,0,1,235.85,32a6.57,6.57,0,0,1-1.2-2.08,7.2,7.2,0,0,1-.4-2.31,6.42,6.42,0,0,1,.86-3.32A6,6,0,0,1,237.47,22a7.11,7.11,0,0,1,3.46-.83,6.18,6.18,0,0,1,2.51.46,5.13,5.13,0,0,1,1.75,1.2,5.22,5.22,0,0,1,1,1.59,4.51,4.51,0,0,1,.33,1.63,2.84,2.84,0,0,1-.66,2.05,2.25,2.25,0,0,1-1.69.67h-5.95a1.76,1.76,0,0,0,.46,1.07,2.73,2.73,0,0,0,1,.7,3.5,3.5,0,0,0,1.33.25,7.94,7.94,0,0,0,1-.06,4.3,4.3,0,0,0,.79-.17l.59-.23a4.27,4.27,0,0,1,.49-.18,1.81,1.81,0,0,1,.42-.1,1,1,0,0,1,.68.21,2.22,2.22,0,0,1,.57.71,1.75,1.75,0,0,1,.24.53,2.07,2.07,0,0,1,.06.5,1.32,1.32,0,0,1-.61,1.08,4.73,4.73,0,0,1-1.73.74A11,11,0,0,1,240.92,34.13Zm-2.67-7.4h3.95a1,1,0,0,0,.58-.13.62.62,0,0,0,.2-.54,1.18,1.18,0,0,0-.28-.77,1.61,1.61,0,0,0-.73-.54,2.8,2.8,0,0,0-1.09-.19,3,3,0,0,0-1.35.3,2.38,2.38,0,0,0-.94.8A1.91,1.91,0,0,0,238.25,26.73Z"/><path class="cls-2" d="M250.52,33.91a2.41,2.41,0,0,1-1.31-.26,1.06,1.06,0,0,1-.47-.71,4.73,4.73,0,0,1-.09-.93V23.29a5.46,5.46,0,0,1,.08-.93,1,1,0,0,1,.49-.68,2.47,2.47,0,0,1,1.33-.27,2.5,2.5,0,0,1,1.26.24,1.06,1.06,0,0,1,.49.55,2.08,2.08,0,0,1,.1.54l-.3.15a2,2,0,0,1,.26-.36A3.2,3.2,0,0,1,253,22a3.71,3.71,0,0,1,.91-.49,3.62,3.62,0,0,1,1.24-.2c.18,0,.38,0,.61,0a3.83,3.83,0,0,1,.7.15,3.32,3.32,0,0,1,.66.3,1.8,1.8,0,0,1,.49.46,1.24,1.24,0,0,1,.19.68,3.06,3.06,0,0,1-.48,1.74,1.42,1.42,0,0,1-1.2.71,2.11,2.11,0,0,1-.6-.06,1.3,1.3,0,0,1-.29-.16l-.26-.15a1.68,1.68,0,0,0-.55-.06,2.71,2.71,0,0,0-.71.1,2.06,2.06,0,0,0-.63.31,1.54,1.54,0,0,0-.45.53,1.49,1.49,0,0,0-.16.71v5.48a4.53,4.53,0,0,1-.09.91,1.07,1.07,0,0,1-.49.69A2.73,2.73,0,0,1,250.52,33.91Z"/><path class="cls-2" d="M260.51,21.62h2.75l3.45-.1a4.43,4.43,0,0,1,.9.09,1.13,1.13,0,0,1,.7.49,2.47,2.47,0,0,1,.27,1.33,2.4,2.4,0,0,1-.26,1.25,1.24,1.24,0,0,1-.69.51,3.83,3.83,0,0,1-.93.11l-3.27-.08-3,0a1.23,1.23,0,0,1-1-.46,2.51,2.51,0,0,1-.28-1.39,2.07,2.07,0,0,1,.35-1.33A1.26,1.26,0,0,1,260.51,21.62Zm5.64,12.3a7.92,7.92,0,0,1-2.2-.27,3.64,3.64,0,0,1-1.51-.85,3.55,3.55,0,0,1-.88-1.47,6.91,6.91,0,0,1-.28-2.11V19.1a4.31,4.31,0,0,1,.09-.93,1,1,0,0,1,.49-.66,3.32,3.32,0,0,1,2.6,0,1.12,1.12,0,0,1,.49.72,5.31,5.31,0,0,1,.08.91v9.92a3.13,3.13,0,0,0,.06.67.72.72,0,0,0,.19.38.62.62,0,0,0,.35.18,2.79,2.79,0,0,0,.55.05,4.07,4.07,0,0,1,1,.1,1.07,1.07,0,0,1,.66.45,2.15,2.15,0,0,1,.24,1.17,2.35,2.35,0,0,1-.27,1.3,1.09,1.09,0,0,1-.72.48A5.33,5.33,0,0,1,266.15,33.92Z"/><path class="cls-2" d="M272.51,19.63a2.38,2.38,0,0,1-1.35-.28,1.09,1.09,0,0,1-.49-.72,4.86,4.86,0,0,1-.09-.95,4.92,4.92,0,0,1,.09-1,1.09,1.09,0,0,1,.5-.7,2.71,2.71,0,0,1,1.36-.26,2.46,2.46,0,0,1,1.33.28,1.09,1.09,0,0,1,.49.72,5.05,5.05,0,0,1,.08,1,5.52,5.52,0,0,1-.08.92,1.13,1.13,0,0,1-.49.72A2.65,2.65,0,0,1,272.51,19.63Zm0,14.3a2.47,2.47,0,0,1-1.33-.27,1,1,0,0,1-.47-.7,5.31,5.31,0,0,1-.08-.91V23.33a4.63,4.63,0,0,1,.09-.92,1,1,0,0,1,.49-.69,2.41,2.41,0,0,1,1.32-.27,2.33,2.33,0,0,1,1.29.28,1.1,1.1,0,0,1,.47.71,4.69,4.69,0,0,1,.09.94v8.7a4.47,4.47,0,0,1-.08.91,1.06,1.06,0,0,1-.48.69A2.52,2.52,0,0,1,272.5,33.93Z"/><path class="cls-2" d="M283.22,34a6.35,6.35,0,0,1-2.23-.41,6.92,6.92,0,0,1-2.1-1.21,5.77,5.77,0,0,1-1.54-2,6.36,6.36,0,0,1-.57-2.76,5.86,5.86,0,0,1,2.1-4.69A6.56,6.56,0,0,1,281,21.75a6.35,6.35,0,0,1,2.21-.42,6,6,0,0,1,1.66.22,5.41,5.41,0,0,1,1.25.51,3.87,3.87,0,0,1,.74.53,7,7,0,0,1,.75.65,1,1,0,0,1,.3.85,1.59,1.59,0,0,1-.18.56,4.36,4.36,0,0,1-.37.59c-.52.7-1,1-1.5,1a2.58,2.58,0,0,1-.69-.25l-.6-.36a5.81,5.81,0,0,0-.61-.31,2,2,0,0,0-.75-.14,2.57,2.57,0,0,0-1.3.34,2.64,2.64,0,0,0-.92.9A2.75,2.75,0,0,0,281,29a2.64,2.64,0,0,0,.9.92,2.47,2.47,0,0,0,1.26.33,2.39,2.39,0,0,0,.73-.1,2.17,2.17,0,0,0,.55-.23l.35-.22.58-.36a1.12,1.12,0,0,1,.55-.16,1.25,1.25,0,0,1,.73.26,4.38,4.38,0,0,1,.82.84,2.07,2.07,0,0,1,.48,1,1.24,1.24,0,0,1-.21.86,2.67,2.67,0,0,1-.85.76,4.05,4.05,0,0,1-.71.45,7.55,7.55,0,0,1-1.25.5A5.77,5.77,0,0,1,283.22,34Z"/><path class="cls-2" d="M300.37,33.92a2.33,2.33,0,0,1-1.37-.33.91.91,0,0,1-.43-.8l.25-.42a2.72,2.72,0,0,1-.57.61,4.45,4.45,0,0,1-1.11.65,4.38,4.38,0,0,1-1.67.29,5,5,0,0,1-2.18-.5A5.93,5.93,0,0,1,291.45,32a7.18,7.18,0,0,1-1.27-2,6,6,0,0,1-.48-2.37,5.83,5.83,0,0,1,.48-2.34,6.34,6.34,0,0,1,1.29-2A6.07,6.07,0,0,1,293.31,22a4.77,4.77,0,0,1,2.17-.5,4.35,4.35,0,0,1,1.58.26,4.24,4.24,0,0,1,1.08.61,3.18,3.18,0,0,1,.66.68l-.22-.35a1,1,0,0,1,.44-.91,2.39,2.39,0,0,1,1.39-.32,2.29,2.29,0,0,1,1.28.28,1.11,1.11,0,0,1,.48.73,4.77,4.77,0,0,1,.08.94V32a4.81,4.81,0,0,1-.09.93,1.12,1.12,0,0,1-.47.71A2.52,2.52,0,0,1,300.37,33.92ZM296,30.19a2.21,2.21,0,0,0,1.2-.33,2.6,2.6,0,0,0,.85-.92,2.54,2.54,0,0,0-.87-3.45,2.55,2.55,0,0,0-2.49,0,2.64,2.64,0,0,0-.9.92,2.54,2.54,0,0,0-.34,1.3,2.28,2.28,0,0,0,.34,1.23,2.41,2.41,0,0,0,.92.9A2.51,2.51,0,0,0,296,30.19Z"/><path class="cls-2" d="M309.55,34a14.3,14.3,0,0,1-1.83-.1,3.9,3.9,0,0,1-1.35-.4,2.58,2.58,0,0,1-.9-.84,4.19,4.19,0,0,1-.52-1.38,10,10,0,0,1-.17-2.06V17.62a4.4,4.4,0,0,1,.1-.92,1.15,1.15,0,0,1,.49-.7,2.29,2.29,0,0,1,1.31-.28A2.24,2.24,0,0,1,308,16a1.18,1.18,0,0,1,.49.7,3.82,3.82,0,0,1,.1.92V29a4,4,0,0,0,0,.66.74.74,0,0,0,.15.41.51.51,0,0,0,.31.2,1.9,1.9,0,0,0,.52.05,2.64,2.64,0,0,1,.62.08.87.87,0,0,1,.53.45A2.56,2.56,0,0,1,311,32.1a2.79,2.79,0,0,1-.23,1.3.89.89,0,0,1-.53.48A2.79,2.79,0,0,1,309.55,34Z"/><path class="cls-4" d="M64.45,20c0-1.37-1.23-2.06-3.7-2.06a19.62,19.62,0,0,0-2.1.15,19.23,19.23,0,0,1-1.94.15q-2.93,0-2.93-3.62t8.48-3.73q5.51,0,8.23,1.84a5.59,5.59,0,0,1,2.72,4.83,7.74,7.74,0,0,1-3.5,6.64A9.52,9.52,0,0,1,73,26.86a7.26,7.26,0,0,1,1,4.05,7.35,7.35,0,0,1-2.8,5.95,11.46,11.46,0,0,1-7.48,2.28q-5.87,0-8.41-1.24a4,4,0,0,1-2.54-3.75,3.92,3.92,0,0,1,.82-2.88,3.15,3.15,0,0,1,2.28-.78c.49,0,1.25.06,2.28.17s1.82.17,2.36.17q4.44,0,4.45-1.68a1.63,1.63,0,0,0-.86-1.58,8,8,0,0,0-3.22-.44,6.5,6.5,0,0,1-3.34-.63,2.56,2.56,0,0,1-1-2.35c0-1.74,1.11-2.6,3.34-2.6a17.73,17.73,0,0,0,3.2-.21c.69-.14,1.09-.3,1.2-.49A1.82,1.82,0,0,0,64.45,20Z"/><path class="cls-4" d="M76.58,36a2.76,2.76,0,0,1,1.17-2.31A5.36,5.36,0,0,1,81,32.8c3,0,4.43,1.07,4.43,3.19a3.11,3.11,0,0,1-.57,2,2.69,2.69,0,0,1-1.51,1,9.11,9.11,0,0,1-2.36.26,6.13,6.13,0,0,1-3.18-.76A2.62,2.62,0,0,1,76.58,36Z"/><path class="cls-4" d="M97.69,32.55q0,3.41-1.19,4.85a4.34,4.34,0,0,1-3.58,1.45,5.7,5.7,0,0,1-2.57-.5,3.3,3.3,0,0,1-1.49-1.85,11.12,11.12,0,0,1-.54-3.61l-.07-15.67A6.24,6.24,0,0,1,85,16.48,2.59,2.59,0,0,1,83.77,14a2.78,2.78,0,0,1,1.16-2.29,5.2,5.2,0,0,1,3.24-.9c.55,0,1.31,0,2.3,0l2.1,0c2,0,3.36.34,4.06,1a5,5,0,0,1,1,3.59Z"/><path class="cls-5" d="M64.45,20c0-1.37-1.23-2.06-3.7-2.06a19.62,19.62,0,0,0-2.1.15,19.23,19.23,0,0,1-1.94.15q-2.93,0-2.93-3.62t8.48-3.73q5.51,0,8.23,1.84a5.59,5.59,0,0,1,2.72,4.83,7.74,7.74,0,0,1-3.5,6.64A9.52,9.52,0,0,1,73,26.86a7.26,7.26,0,0,1,1,4.05,7.35,7.35,0,0,1-2.8,5.95,11.46,11.46,0,0,1-7.48,2.28q-5.87,0-8.41-1.24a4,4,0,0,1-2.54-3.75,3.92,3.92,0,0,1,.82-2.88,3.15,3.15,0,0,1,2.28-.78c.49,0,1.25.06,2.28.17s1.82.17,2.36.17q4.44,0,4.45-1.68a1.63,1.63,0,0,0-.86-1.58,8,8,0,0,0-3.22-.44,6.5,6.5,0,0,1-3.34-.63,2.56,2.56,0,0,1-1-2.35c0-1.74,1.11-2.6,3.34-2.6a17.73,17.73,0,0,0,3.2-.21c.69-.14,1.09-.3,1.2-.49A1.82,1.82,0,0,0,64.45,20Z"/><path class="cls-5" d="M76.58,36a2.76,2.76,0,0,1,1.17-2.31A5.36,5.36,0,0,1,81,32.8c3,0,4.43,1.07,4.43,3.19a3.11,3.11,0,0,1-.57,2,2.69,2.69,0,0,1-1.51,1,9.11,9.11,0,0,1-2.36.26,6.13,6.13,0,0,1-3.18-.76A2.62,2.62,0,0,1,76.58,36Z"/><path class="cls-5" d="M97.69,32.55q0,3.41-1.19,4.85a4.34,4.34,0,0,1-3.58,1.45,5.7,5.7,0,0,1-2.57-.5,3.3,3.3,0,0,1-1.49-1.85,11.12,11.12,0,0,1-.54-3.61l-.07-15.67A6.24,6.24,0,0,1,85,16.48,2.59,2.59,0,0,1,83.77,14a2.78,2.78,0,0,1,1.16-2.29,5.2,5.2,0,0,1,3.24-.9c.55,0,1.31,0,2.3,0l2.1,0c2,0,3.36.34,4.06,1a5,5,0,0,1,1,3.59Z"/></g></g></svg>