<svg xmlns="http://www.w3.org/2000/svg" viewBox="0 0 399.98 100.86"><defs><style>.cls-1{fill:#03826e;}.cls-2{fill:#fff;}.cls-3,.cls-4{fill:none;stroke-width:5px;}.cls-3{stroke:#b6ba01;stroke-linejoin:round;}.cls-4{stroke:#fff;}.cls-5{fill:#b6ba01;}</style></defs><title>32t</title><g id="Layer_2" data-name="Layer 2"><g id="pestaña_identificativa" data-name="pestaña identificativa"><rect class="cls-1" width="399.98" height="100.86" rx="27.69"/><path class="cls-2" d="M119.3,34.09a8.34,8.34,0,0,1-3.38-.69,8.8,8.8,0,0,1-2.79-1.9,8.91,8.91,0,0,1-1.87-2.81,8.82,8.82,0,0,1-.68-3.46,9.58,9.58,0,0,1,.67-3.52,9.11,9.11,0,0,1,1.83-2.89,8.39,8.39,0,0,1,2.71-1.93,7.85,7.85,0,0,1,3.3-.7,8.45,8.45,0,0,1,3.41.69,8.79,8.79,0,0,1,2.78,1.91,9,9,0,0,1,2.53,6.38,8.88,8.88,0,0,1-.67,3.45,9.09,9.09,0,0,1-1.83,2.86,8.32,8.32,0,0,1-2.72,1.92A7.92,7.92,0,0,1,119.3,34.09Zm-.12-3.8a4.44,4.44,0,0,0,1.88-.4,5,5,0,0,0,1.54-1.09,4.75,4.75,0,0,0,1-1.62,5.56,5.56,0,0,0,.36-2,5.32,5.32,0,0,0-.37-2,5,5,0,0,0-1-1.65,4.69,4.69,0,0,0-1.52-1.11,4.49,4.49,0,0,0-1.86-.39,4.44,4.44,0,0,0-1.84.39,4.85,4.85,0,0,0-1.53,1.1,5.53,5.53,0,0,0-1,1.65,5.32,5.32,0,0,0,0,4,5.36,5.36,0,0,0,1,1.64,5,5,0,0,0,1.52,1.1A4.29,4.29,0,0,0,119.18,30.29Z"/><path class="cls-2" d="M131.63,33.82a2.48,2.48,0,0,1-1.31-.26,1.1,1.1,0,0,1-.48-.7,4.53,4.53,0,0,1-.08-.91v-8.8a4.13,4.13,0,0,1,.09-.89,1,1,0,0,1,.49-.66,3.52,3.52,0,0,1,2.5,0,1,1,0,0,1,.48.51,1.54,1.54,0,0,1,.12.57.8.8,0,0,0,.05.36l-.15.47a1.48,1.48,0,0,1,.38-.76,3.74,3.74,0,0,1,.85-.7,4.93,4.93,0,0,1,1.1-.49,4.36,4.36,0,0,1,1.17-.17,5,5,0,0,1,2.13.44,4.24,4.24,0,0,1,1.59,1.26,6,6,0,0,1,1,1.94,8.57,8.57,0,0,1,.33,2.44V32a4.46,4.46,0,0,1-.09.91,1,1,0,0,1-.47.69,2.7,2.7,0,0,1-1.34.25,2.47,2.47,0,0,1-1.33-.27,1.05,1.05,0,0,1-.48-.7,4.46,4.46,0,0,1-.09-.91V27.43a2.78,2.78,0,0,0-.26-1.28,1.76,1.76,0,0,0-.75-.8,2.46,2.46,0,0,0-1.21-.27,2.59,2.59,0,0,0-1.25.28,2,2,0,0,0-.81.81,2.48,2.48,0,0,0-.29,1.25V32a4.63,4.63,0,0,1-.09.92,1,1,0,0,1-.48.68A2.49,2.49,0,0,1,131.63,33.82Z"/><path class="cls-2" d="M149.68,33.83a5,5,0,0,1-2.18-.49A5.83,5.83,0,0,1,145.68,32a6.7,6.7,0,0,1-1.26-2,6.35,6.35,0,0,1-.46-2.42,6,6,0,0,1,.46-2.33,6.67,6.67,0,0,1,1.28-2,6.42,6.42,0,0,1,1.84-1.36,4.88,4.88,0,0,1,2.15-.5,4.47,4.47,0,0,1,2.11.49,4.35,4.35,0,0,1,1.52,1.34,6.48,6.48,0,0,1,.94,2,9.08,9.08,0,0,1,.35,2.35,9.28,9.28,0,0,1-.3,2.4,6.12,6.12,0,0,1-.93,2,4.66,4.66,0,0,1-1.55,1.38A4.38,4.38,0,0,1,149.68,33.83Zm.5-3.7a2.24,2.24,0,0,0,1.21-.33,2.74,2.74,0,0,0,.88-.91,2.55,2.55,0,0,0,.34-1.28,2.52,2.52,0,0,0-1.2-2.16,2.3,2.3,0,0,0-1.25-.34,2.52,2.52,0,0,0-1.24.32,2.35,2.35,0,0,0-.87.9,2.64,2.64,0,0,0-.32,1.28,2.51,2.51,0,0,0,.33,1.27,2.34,2.34,0,0,0,.9.92A2.4,2.4,0,0,0,150.18,30.13Zm4.35,3.73a2.31,2.31,0,0,1-1.26-.27,1.3,1.3,0,0,1-.54-.85V17.59a6.77,6.77,0,0,1,.06-.92,1,1,0,0,1,.44-.71,2.28,2.28,0,0,1,1.28-.27,2.38,2.38,0,0,1,1.32.26,1.08,1.08,0,0,1,.47.69,3.82,3.82,0,0,1,.1.92V32a4.46,4.46,0,0,1-.09.91,1.14,1.14,0,0,1-.48.72A2.37,2.37,0,0,1,154.53,33.86Z"/><path class="cls-2" d="M169.13,33.84a2.34,2.34,0,0,1-1.38-.32.89.89,0,0,1-.42-.8l.25-.43a2.59,2.59,0,0,1-.58.62,4.39,4.39,0,0,1-1.11.65,4.34,4.34,0,0,1-1.66.28,5,5,0,0,1-2.19-.5A6,6,0,0,1,160.2,32a7.21,7.21,0,0,1-1.27-2,6.13,6.13,0,0,1,0-4.71,6.9,6.9,0,0,1,1.29-2,6.51,6.51,0,0,1,1.84-1.36,4.94,4.94,0,0,1,2.18-.5,4.09,4.09,0,0,1,1.57.27,4.32,4.32,0,0,1,1.09.61,3.43,3.43,0,0,1,.66.67l-.22-.35a1,1,0,0,1,.43-.91,2.42,2.42,0,0,1,1.39-.31,2.24,2.24,0,0,1,1.29.28,1.1,1.1,0,0,1,.47.72,4.86,4.86,0,0,1,.09.95V32a5.62,5.62,0,0,1-.09.92,1.07,1.07,0,0,1-.48.71A2.3,2.3,0,0,1,169.13,33.84Zm-4.37-3.72a2.13,2.13,0,0,0,1.2-.34,2.57,2.57,0,0,0,.85-.91,2.61,2.61,0,0,0,.32-1.28,2.56,2.56,0,0,0-.32-1.28,2.42,2.42,0,0,0-.88-.89,2.3,2.3,0,0,0-1.22-.33,2.33,2.33,0,0,0-1.26.34,2.53,2.53,0,0,0-1.24,2.21,2.42,2.42,0,0,0,.33,1.24,2.67,2.67,0,0,0,.93.9A2.59,2.59,0,0,0,164.76,30.12Z"/><path class="cls-2" d="M178,34.08a9,9,0,0,1-1.47-.16,8.76,8.76,0,0,1-1.54-.43,5.43,5.43,0,0,1-1.25-.68,1.26,1.26,0,0,1-.56-.89,1.36,1.36,0,0,1,0-.53,2.12,2.12,0,0,1,.23-.6,4.94,4.94,0,0,1,.43-.67.94.94,0,0,1,.44-.35,1,1,0,0,1,.59,0,3.55,3.55,0,0,1,.8.26l.83.4a8.47,8.47,0,0,0,.87.38,2.68,2.68,0,0,0,.93.16,2.3,2.3,0,0,0,1.08-.21.65.65,0,0,0,.39-.59.64.64,0,0,0-.16-.45,1.6,1.6,0,0,0-.45-.3c-.19-.08-.42-.16-.68-.24l-.81-.21c-.28-.07-.58-.15-.9-.25a9.62,9.62,0,0,1-1.19-.45,4,4,0,0,1-1.05-.71,3.32,3.32,0,0,1-.73-1.08,3.82,3.82,0,0,1-.28-1.56,3.3,3.3,0,0,1,2.23-3.31,7.34,7.34,0,0,1,2.7-.44c.3,0,.6,0,.9.05a5.4,5.4,0,0,1,.89.18,7.54,7.54,0,0,1,1.71.72c.5.24.76.55.77,1a2,2,0,0,1-.42,1.25,1.92,1.92,0,0,1-.58.59.92.92,0,0,1-.62.14,3.93,3.93,0,0,1-.86-.34,9.71,9.71,0,0,0-1-.44,2.84,2.84,0,0,0-1-.2,2.24,2.24,0,0,0-.73.11,1.11,1.11,0,0,0-.45.3.75.75,0,0,0,0,.95,1.42,1.42,0,0,0,.51.31,5.58,5.58,0,0,0,.75.23l.93.2c.45.09.91.2,1.38.34a4.91,4.91,0,0,1,1.31.61,3,3,0,0,1,.94,1.08,3.75,3.75,0,0,1,.37,1.77,3.58,3.58,0,0,1-1.38,3A6.38,6.38,0,0,1,178,34.08Z"/><path class="cls-2" d="M193.8,33.89a2.39,2.39,0,0,1-1.3-.28,1.07,1.07,0,0,1-.47-.7A5.28,5.28,0,0,1,192,32V23.23a4.43,4.43,0,0,1,.09-.9,1,1,0,0,1,.49-.68,2.42,2.42,0,0,1,1.32-.26,2.06,2.06,0,0,1,1.35.36,1.46,1.46,0,0,1,.42,1.19l-.32.27a1.88,1.88,0,0,1,.3-.42,4.93,4.93,0,0,1,.65-.63,4.49,4.49,0,0,1,.94-.56,2.8,2.8,0,0,1,1.16-.24,4.35,4.35,0,0,1,1.49.24,3.82,3.82,0,0,1,1.2.7,4.32,4.32,0,0,1,.93,1.16,6.88,6.88,0,0,1,.86-1,4.48,4.48,0,0,1,1.17-.8,3.44,3.44,0,0,1,1.53-.32,4,4,0,0,1,2.48.74,4.46,4.46,0,0,1,1.54,2.11,9.33,9.33,0,0,1,.52,3.32V32a3.85,3.85,0,0,1-.1.91,1.13,1.13,0,0,1-.49.7,2.41,2.41,0,0,1-1.31.26,2.47,2.47,0,0,1-1.33-.27,1.09,1.09,0,0,1-.47-.72,5.31,5.31,0,0,1-.08-.91V27.52a3.81,3.81,0,0,0-.19-1.29,1.77,1.77,0,0,0-.54-.83,1.36,1.36,0,0,0-.9-.28,1.68,1.68,0,0,0-1,.27,1.6,1.6,0,0,0-.6.8,3.7,3.7,0,0,0-.2,1.35V32a3.51,3.51,0,0,1-.12.94,1.21,1.21,0,0,1-.54.7,2.37,2.37,0,0,1-1.34.24,2.11,2.11,0,0,1-1.25-.29,1.12,1.12,0,0,1-.45-.72,5.34,5.34,0,0,1-.07-.89V27.51a4.55,4.55,0,0,0-.17-1.3,1.63,1.63,0,0,0-.53-.82,1.4,1.4,0,0,0-.92-.28,1.57,1.57,0,0,0-1,.33,1.83,1.83,0,0,0-.58.86,3.53,3.53,0,0,0-.19,1.21V32a4.6,4.6,0,0,1-.08.93,1.08,1.08,0,0,1-.49.68A2.47,2.47,0,0,1,193.8,33.89Z"/><path class="cls-2" d="M214.54,19.6a2.38,2.38,0,0,1-1.35-.28,1.09,1.09,0,0,1-.49-.72,5.16,5.16,0,0,1,0-1.92,1.09,1.09,0,0,1,.5-.7,2.71,2.71,0,0,1,1.36-.26,2.37,2.37,0,0,1,1.33.28,1.09,1.09,0,0,1,.49.72,6,6,0,0,1,.08,1,4.7,4.7,0,0,1-.09.92,1.08,1.08,0,0,1-.48.72A2.65,2.65,0,0,1,214.54,19.6Zm0,14.3a2.47,2.47,0,0,1-1.33-.27,1,1,0,0,1-.47-.7,5.31,5.31,0,0,1-.08-.91V23.3a4.63,4.63,0,0,1,.09-.92,1.08,1.08,0,0,1,.49-.7,2.52,2.52,0,0,1,1.32-.26,2.24,2.24,0,0,1,1.29.28,1.1,1.1,0,0,1,.47.71,4.62,4.62,0,0,1,.09.94v8.7a5.31,5.31,0,0,1-.08.91,1.06,1.06,0,0,1-.48.69A2.62,2.62,0,0,1,214.53,33.9Z"/><path class="cls-2" d="M229.89,21.93a3.32,3.32,0,0,1,.71,1,1.06,1.06,0,0,1,0,.82,3.57,3.57,0,0,1-.7.95l-7.95,8.59a3.15,3.15,0,0,1-.88.7,1,1,0,0,1-.81,0,3.25,3.25,0,0,1-.94-.66,3.47,3.47,0,0,1-.7-.94,1,1,0,0,1,0-.83,3.87,3.87,0,0,1,.67-.91l8-8.62a2.3,2.3,0,0,1,1.31-.81A1.92,1.92,0,0,1,229.89,21.93Zm-10.58,0a2.75,2.75,0,0,1,.94-.65,1,1,0,0,1,.81,0,2.94,2.94,0,0,1,.87.72l7.95,8.63a4.11,4.11,0,0,1,.69.92,1,1,0,0,1,0,.81,2.58,2.58,0,0,1-.72.94A3,3,0,0,1,229,34a.89.89,0,0,1-.78,0,4.88,4.88,0,0,1-.94-.7l-7.95-8.61a4.08,4.08,0,0,1-.66-.94,1,1,0,0,1,0-.83A3,3,0,0,1,219.31,21.93Z"/><path class="cls-2" d="M233.43,21.61h2.75l3.46-.1a4.26,4.26,0,0,1,.89.09,1.08,1.08,0,0,1,.7.49,2.35,2.35,0,0,1,.28,1.32,2.35,2.35,0,0,1-.26,1.25,1.21,1.21,0,0,1-.69.52,3.89,3.89,0,0,1-.93.11l-3.27-.08-3,0a1.23,1.23,0,0,1-1-.46,2.52,2.52,0,0,1-.29-1.39,2.11,2.11,0,0,1,.35-1.33A1.26,1.26,0,0,1,233.43,21.61Zm5.65,12.3a7.87,7.87,0,0,1-2.2-.27,3.55,3.55,0,0,1-1.51-.86,3.41,3.41,0,0,1-.88-1.46,6.91,6.91,0,0,1-.28-2.11V19.08a4.22,4.22,0,0,1,.09-.92,1,1,0,0,1,.49-.66,2.38,2.38,0,0,1,1.3-.27,2.48,2.48,0,0,1,1.3.28,1.08,1.08,0,0,1,.48.71,4.63,4.63,0,0,1,.09.92v9.92a3,3,0,0,0,.06.66.79.79,0,0,0,.18.39.73.73,0,0,0,.35.18,2.87,2.87,0,0,0,.55.05,4.1,4.1,0,0,1,1,.1,1.06,1.06,0,0,1,.66.45,2.13,2.13,0,0,1,.24,1.17,2.28,2.28,0,0,1-.28,1.3,1,1,0,0,1-.71.48A5.41,5.41,0,0,1,239.08,33.91Z"/><path class="cls-2" d="M253.63,33.9a2.34,2.34,0,0,1-1.38-.33.89.89,0,0,1-.42-.8l.25-.43a2.59,2.59,0,0,1-.58.62,4.11,4.11,0,0,1-1.11.65,4.34,4.34,0,0,1-1.66.28,5,5,0,0,1-2.19-.5A6,6,0,0,1,244.7,32a7.21,7.21,0,0,1-1.27-2,6,6,0,0,1-.47-2.38,5.81,5.81,0,0,1,.47-2.33,6.9,6.9,0,0,1,1.29-2,6.37,6.37,0,0,1,1.84-1.36,4.93,4.93,0,0,1,2.17-.5,4.11,4.11,0,0,1,1.58.27,4.5,4.5,0,0,1,1.09.61,3.43,3.43,0,0,1,.66.67l-.23-.35a1.05,1.05,0,0,1,.44-.91,2.42,2.42,0,0,1,1.39-.31,2.24,2.24,0,0,1,1.29.28,1.1,1.1,0,0,1,.47.72,4.86,4.86,0,0,1,.09.95V32a5.62,5.62,0,0,1-.08.92,1.07,1.07,0,0,1-.48.71A2.39,2.39,0,0,1,253.63,33.9Zm-4.38-3.73a2.13,2.13,0,0,0,1.2-.34,2.54,2.54,0,0,0,1.18-2.19,2.56,2.56,0,0,0-.32-1.28,2.42,2.42,0,0,0-.88-.89,2.3,2.3,0,0,0-1.22-.33,2.49,2.49,0,0,0-1.27.34,2.61,2.61,0,0,0-.9.91,2.56,2.56,0,0,0-.33,1.3,2.42,2.42,0,0,0,.33,1.24,2.67,2.67,0,0,0,.93.9A2.58,2.58,0,0,0,249.25,30.17Z"/><path class="cls-2" d="M262.5,34.13A7.24,7.24,0,0,1,261,34a8.53,8.53,0,0,1-1.54-.43,5.43,5.43,0,0,1-1.25-.68,1.26,1.26,0,0,1-.56-.89,1.19,1.19,0,0,1,0-.53,2.12,2.12,0,0,1,.23-.6,4.12,4.12,0,0,1,.43-.67.94.94,0,0,1,.44-.35,1,1,0,0,1,.59,0,3.55,3.55,0,0,1,.8.26l.82.4c.29.14.58.27.88.38a2.66,2.66,0,0,0,.92.16,2.32,2.32,0,0,0,1.09-.21.65.65,0,0,0,.39-.59.69.69,0,0,0-.16-.45,1.6,1.6,0,0,0-.45-.3c-.2-.08-.42-.16-.68-.24l-.81-.21c-.28-.07-.58-.15-.9-.25a9.05,9.05,0,0,1-1.19-.45,4,4,0,0,1-1-.71,3.17,3.17,0,0,1-.73-1.08A3.79,3.79,0,0,1,258,25a3.3,3.3,0,0,1,2.23-3.31,7.34,7.34,0,0,1,2.7-.44c.3,0,.6,0,.9.05a5.62,5.62,0,0,1,.89.18,7.54,7.54,0,0,1,1.71.72c.5.24.76.55.77.95a2.39,2.39,0,0,1-1,1.84.88.88,0,0,1-.62.14,3.93,3.93,0,0,1-.86-.34c-.31-.16-.64-.3-1-.44a2.84,2.84,0,0,0-1-.2,2.2,2.2,0,0,0-.73.11,1.11,1.11,0,0,0-.45.3.69.69,0,0,0-.15.44.66.66,0,0,0,.19.51,1.49,1.49,0,0,0,.51.32,7.67,7.67,0,0,0,.75.22l.93.2c.45.09.91.2,1.38.34a4.71,4.71,0,0,1,1.3.61,3,3,0,0,1,.95,1.08,3.76,3.76,0,0,1,.36,1.77,3.6,3.6,0,0,1-1.37,3A6.38,6.38,0,0,1,262.5,34.13Z"/><path class="cls-3" d="M119.3,34.09a8.34,8.34,0,0,1-3.38-.69,8.8,8.8,0,0,1-2.79-1.9,8.91,8.91,0,0,1-1.87-2.81,8.82,8.82,0,0,1-.68-3.46,9.58,9.58,0,0,1,.67-3.52,9.11,9.11,0,0,1,1.83-2.89,8.39,8.39,0,0,1,2.71-1.93,7.85,7.85,0,0,1,3.3-.7,8.45,8.45,0,0,1,3.41.69,8.79,8.79,0,0,1,2.78,1.91,9,9,0,0,1,2.53,6.38,8.88,8.88,0,0,1-.67,3.45,9.09,9.09,0,0,1-1.83,2.86,8.32,8.32,0,0,1-2.72,1.92A7.92,7.92,0,0,1,119.3,34.09Zm-.12-3.8a4.44,4.44,0,0,0,1.88-.4,5,5,0,0,0,1.54-1.09,4.75,4.75,0,0,0,1-1.62,5.56,5.56,0,0,0,.36-2,5.32,5.32,0,0,0-.37-2,5,5,0,0,0-1-1.65,4.69,4.69,0,0,0-1.52-1.11,4.49,4.49,0,0,0-1.86-.39,4.44,4.44,0,0,0-1.84.39,4.85,4.85,0,0,0-1.53,1.1,5.53,5.53,0,0,0-1,1.65,5.32,5.32,0,0,0,0,4,5.36,5.36,0,0,0,1,1.64,5,5,0,0,0,1.52,1.1A4.29,4.29,0,0,0,119.18,30.29Z"/><path class="cls-3" d="M131.63,33.82a2.48,2.48,0,0,1-1.31-.26,1.1,1.1,0,0,1-.48-.7,4.53,4.53,0,0,1-.08-.91v-8.8a4.13,4.13,0,0,1,.09-.89,1,1,0,0,1,.49-.66,3.52,3.52,0,0,1,2.5,0,1,1,0,0,1,.48.51,1.54,1.54,0,0,1,.12.57.8.8,0,0,0,.05.36l-.15.47a1.48,1.48,0,0,1,.38-.76,3.74,3.74,0,0,1,.85-.7,4.93,4.93,0,0,1,1.1-.49,4.36,4.36,0,0,1,1.17-.17,5,5,0,0,1,2.13.44,4.24,4.24,0,0,1,1.59,1.26,6,6,0,0,1,1,1.94,8.57,8.57,0,0,1,.33,2.44V32a4.46,4.46,0,0,1-.09.91,1,1,0,0,1-.47.69,2.7,2.7,0,0,1-1.34.25,2.47,2.47,0,0,1-1.33-.27,1.05,1.05,0,0,1-.48-.7,4.46,4.46,0,0,1-.09-.91V27.43a2.78,2.78,0,0,0-.26-1.28,1.76,1.76,0,0,0-.75-.8,2.46,2.46,0,0,0-1.21-.27,2.59,2.59,0,0,0-1.25.28,2,2,0,0,0-.81.81,2.48,2.48,0,0,0-.29,1.25V32a4.63,4.63,0,0,1-.09.92,1,1,0,0,1-.48.68A2.49,2.49,0,0,1,131.63,33.82Z"/><path class="cls-3" d="M149.68,33.83a5,5,0,0,1-2.18-.49A5.83,5.83,0,0,1,145.68,32a6.7,6.7,0,0,1-1.26-2,6.35,6.35,0,0,1-.46-2.42,6,6,0,0,1,.46-2.33,6.67,6.67,0,0,1,1.28-2,6.42,6.42,0,0,1,1.84-1.36,4.88,4.88,0,0,1,2.15-.5,4.47,4.47,0,0,1,2.11.49,4.35,4.35,0,0,1,1.52,1.34,6.48,6.48,0,0,1,.94,2,9.08,9.08,0,0,1,.35,2.35,9.28,9.28,0,0,1-.3,2.4,6.12,6.12,0,0,1-.93,2,4.66,4.66,0,0,1-1.55,1.38A4.38,4.38,0,0,1,149.68,33.83Zm.5-3.7a2.24,2.24,0,0,0,1.21-.33,2.74,2.74,0,0,0,.88-.91,2.55,2.55,0,0,0,.34-1.28,2.52,2.52,0,0,0-1.2-2.16,2.3,2.3,0,0,0-1.25-.34,2.52,2.52,0,0,0-1.24.32,2.35,2.35,0,0,0-.87.9,2.64,2.64,0,0,0-.32,1.28,2.51,2.51,0,0,0,.33,1.27,2.34,2.34,0,0,0,.9.92A2.4,2.4,0,0,0,150.18,30.13Zm4.35,3.73a2.31,2.31,0,0,1-1.26-.27,1.3,1.3,0,0,1-.54-.85V17.59a6.77,6.77,0,0,1,.06-.92,1,1,0,0,1,.44-.71,2.28,2.28,0,0,1,1.28-.27,2.38,2.38,0,0,1,1.32.26,1.08,1.08,0,0,1,.47.69,3.82,3.82,0,0,1,.1.92V32a4.46,4.46,0,0,1-.09.91,1.14,1.14,0,0,1-.48.72A2.37,2.37,0,0,1,154.53,33.86Z"/><path class="cls-3" d="M169.13,33.84a2.34,2.34,0,0,1-1.38-.32.89.89,0,0,1-.42-.8l.25-.43a2.59,2.59,0,0,1-.58.62,4.39,4.39,0,0,1-1.11.65,4.34,4.34,0,0,1-1.66.28,5,5,0,0,1-2.19-.5A6,6,0,0,1,160.2,32a7.21,7.21,0,0,1-1.27-2,6.13,6.13,0,0,1,0-4.71,6.9,6.9,0,0,1,1.29-2,6.51,6.51,0,0,1,1.84-1.36,4.94,4.94,0,0,1,2.18-.5,4.09,4.09,0,0,1,1.57.27,4.32,4.32,0,0,1,1.09.61,3.43,3.43,0,0,1,.66.67l-.22-.35a1,1,0,0,1,.43-.91,2.42,2.42,0,0,1,1.39-.31,2.24,2.24,0,0,1,1.29.28,1.1,1.1,0,0,1,.47.72,4.86,4.86,0,0,1,.09.95V32a5.62,5.62,0,0,1-.09.92,1.07,1.07,0,0,1-.48.71A2.3,2.3,0,0,1,169.13,33.84Zm-4.37-3.72a2.13,2.13,0,0,0,1.2-.34,2.57,2.57,0,0,0,.85-.91,2.61,2.61,0,0,0,.32-1.28,2.56,2.56,0,0,0-.32-1.28,2.42,2.42,0,0,0-.88-.89,2.3,2.3,0,0,0-1.22-.33,2.33,2.33,0,0,0-1.26.34,2.53,2.53,0,0,0-1.24,2.21,2.42,2.42,0,0,0,.33,1.24,2.67,2.67,0,0,0,.93.9A2.59,2.59,0,0,0,164.76,30.12Z"/><path class="cls-3" d="M178,34.08a9,9,0,0,1-1.47-.16,8.76,8.76,0,0,1-1.54-.43,5.43,5.43,0,0,1-1.25-.68,1.26,1.26,0,0,1-.56-.89,1.36,1.36,0,0,1,0-.53,2.12,2.12,0,0,1,.23-.6,4.94,4.94,0,0,1,.43-.67.94.94,0,0,1,.44-.35,1,1,0,0,1,.59,0,3.55,3.55,0,0,1,.8.26l.83.4a8.47,8.47,0,0,0,.87.38,2.68,2.68,0,0,0,.93.16,2.3,2.3,0,0,0,1.08-.21.65.65,0,0,0,.39-.59.64.64,0,0,0-.16-.45,1.6,1.6,0,0,0-.45-.3c-.19-.08-.42-.16-.68-.24l-.81-.21c-.28-.07-.58-.15-.9-.25a9.62,9.62,0,0,1-1.19-.45,4,4,0,0,1-1.05-.71,3.32,3.32,0,0,1-.73-1.08,3.82,3.82,0,0,1-.28-1.56,3.3,3.3,0,0,1,2.23-3.31,7.34,7.34,0,0,1,2.7-.44c.3,0,.6,0,.9.05a5.4,5.4,0,0,1,.89.18,7.54,7.54,0,0,1,1.71.72c.5.24.76.55.77,1a2,2,0,0,1-.42,1.25,1.92,1.92,0,0,1-.58.59.92.92,0,0,1-.62.14,3.93,3.93,0,0,1-.86-.34,9.71,9.71,0,0,0-1-.44,2.84,2.84,0,0,0-1-.2,2.24,2.24,0,0,0-.73.11,1.11,1.11,0,0,0-.45.3.75.75,0,0,0,0,.95,1.42,1.42,0,0,0,.51.31,5.58,5.58,0,0,0,.75.23l.93.2c.45.09.91.2,1.38.34a4.91,4.91,0,0,1,1.31.61,3,3,0,0,1,.94,1.08,3.75,3.75,0,0,1,.37,1.77,3.58,3.58,0,0,1-1.38,3A6.38,6.38,0,0,1,178,34.08Z"/><path class="cls-3" d="M193.8,33.89a2.39,2.39,0,0,1-1.3-.28,1.07,1.07,0,0,1-.47-.7A5.28,5.28,0,0,1,192,32V23.23a4.43,4.43,0,0,1,.09-.9,1,1,0,0,1,.49-.68,2.42,2.42,0,0,1,1.32-.26,2.06,2.06,0,0,1,1.35.36,1.46,1.46,0,0,1,.42,1.19l-.32.27a1.88,1.88,0,0,1,.3-.42,4.93,4.93,0,0,1,.65-.63,4.49,4.49,0,0,1,.94-.56,2.8,2.8,0,0,1,1.16-.24,4.35,4.35,0,0,1,1.49.24,3.82,3.82,0,0,1,1.2.7,4.32,4.32,0,0,1,.93,1.16,6.88,6.88,0,0,1,.86-1,4.48,4.48,0,0,1,1.17-.8,3.44,3.44,0,0,1,1.53-.32,4,4,0,0,1,2.48.74,4.46,4.46,0,0,1,1.54,2.11,9.33,9.33,0,0,1,.52,3.32V32a3.85,3.85,0,0,1-.1.91,1.13,1.13,0,0,1-.49.7,2.41,2.41,0,0,1-1.31.26,2.47,2.47,0,0,1-1.33-.27,1.09,1.09,0,0,1-.47-.72,5.31,5.31,0,0,1-.08-.91V27.52a3.81,3.81,0,0,0-.19-1.29,1.77,1.77,0,0,0-.54-.83,1.36,1.36,0,0,0-.9-.28,1.68,1.68,0,0,0-1,.27,1.6,1.6,0,0,0-.6.8,3.7,3.7,0,0,0-.2,1.35V32a3.51,3.51,0,0,1-.12.94,1.21,1.21,0,0,1-.54.7,2.37,2.37,0,0,1-1.34.24,2.11,2.11,0,0,1-1.25-.29,1.12,1.12,0,0,1-.45-.72,5.34,5.34,0,0,1-.07-.89V27.51a4.55,4.55,0,0,0-.17-1.3,1.63,1.63,0,0,0-.53-.82,1.4,1.4,0,0,0-.92-.28,1.57,1.57,0,0,0-1,.33,1.83,1.83,0,0,0-.58.86,3.53,3.53,0,0,0-.19,1.21V32a4.6,4.6,0,0,1-.08.93,1.08,1.08,0,0,1-.49.68A2.47,2.47,0,0,1,193.8,33.89Z"/><path class="cls-3" d="M214.54,19.6a2.38,2.38,0,0,1-1.35-.28,1.09,1.09,0,0,1-.49-.72,5.16,5.16,0,0,1,0-1.92,1.09,1.09,0,0,1,.5-.7,2.71,2.71,0,0,1,1.36-.26,2.37,2.37,0,0,1,1.33.28,1.09,1.09,0,0,1,.49.72,6,6,0,0,1,.08,1,4.7,4.7,0,0,1-.09.92,1.08,1.08,0,0,1-.48.72A2.65,2.65,0,0,1,214.54,19.6Zm0,14.3a2.47,2.47,0,0,1-1.33-.27,1,1,0,0,1-.47-.7,5.31,5.31,0,0,1-.08-.91V23.3a4.63,4.63,0,0,1,.09-.92,1.08,1.08,0,0,1,.49-.7,2.52,2.52,0,0,1,1.32-.26,2.24,2.24,0,0,1,1.29.28,1.1,1.1,0,0,1,.47.71,4.62,4.62,0,0,1,.09.94v8.7a5.31,5.31,0,0,1-.08.91,1.06,1.06,0,0,1-.48.69A2.62,2.62,0,0,1,214.53,33.9Z"/><path class="cls-3" d="M229.89,21.93a3.32,3.32,0,0,1,.71,1,1.06,1.06,0,0,1,0,.82,3.57,3.57,0,0,1-.7.95l-7.95,8.59a3.15,3.15,0,0,1-.88.7,1,1,0,0,1-.81,0,3.25,3.25,0,0,1-.94-.66,3.47,3.47,0,0,1-.7-.94,1,1,0,0,1,0-.83,3.87,3.87,0,0,1,.67-.91l8-8.62a2.3,2.3,0,0,1,1.31-.81A1.92,1.92,0,0,1,229.89,21.93Zm-10.58,0a2.75,2.75,0,0,1,.94-.65,1,1,0,0,1,.81,0,2.94,2.94,0,0,1,.87.72l7.95,8.63a4.11,4.11,0,0,1,.69.92,1,1,0,0,1,0,.81,2.58,2.58,0,0,1-.72.94A3,3,0,0,1,229,34a.89.89,0,0,1-.78,0,4.88,4.88,0,0,1-.94-.7l-7.95-8.61a4.08,4.08,0,0,1-.66-.94,1,1,0,0,1,0-.83A3,3,0,0,1,219.31,21.93Z"/><path class="cls-3" d="M233.43,21.61h2.75l3.46-.1a4.26,4.26,0,0,1,.89.09,1.08,1.08,0,0,1,.7.49,2.35,2.35,0,0,1,.28,1.32,2.35,2.35,0,0,1-.26,1.25,1.21,1.21,0,0,1-.69.52,3.89,3.89,0,0,1-.93.11l-3.27-.08-3,0a1.23,1.23,0,0,1-1-.46,2.52,2.52,0,0,1-.29-1.39,2.11,2.11,0,0,1,.35-1.33A1.26,1.26,0,0,1,233.43,21.61Zm5.65,12.3a7.87,7.87,0,0,1-2.2-.27,3.55,3.55,0,0,1-1.51-.86,3.41,3.41,0,0,1-.88-1.46,6.91,6.91,0,0,1-.28-2.11V19.08a4.22,4.22,0,0,1,.09-.92,1,1,0,0,1,.49-.66,2.38,2.38,0,0,1,1.3-.27,2.48,2.48,0,0,1,1.3.28,1.08,1.08,0,0,1,.48.71,4.63,4.63,0,0,1,.09.92v9.92a3,3,0,0,0,.06.66.79.79,0,0,0,.18.39.73.73,0,0,0,.35.18,2.87,2.87,0,0,0,.55.05,4.1,4.1,0,0,1,1,.1,1.06,1.06,0,0,1,.66.45,2.13,2.13,0,0,1,.24,1.17,2.28,2.28,0,0,1-.28,1.3,1,1,0,0,1-.71.48A5.41,5.41,0,0,1,239.08,33.91Z"/><path class="cls-3" d="M253.63,33.9a2.34,2.34,0,0,1-1.38-.33.89.89,0,0,1-.42-.8l.25-.43a2.59,2.59,0,0,1-.58.62,4.11,4.11,0,0,1-1.11.65,4.34,4.34,0,0,1-1.66.28,5,5,0,0,1-2.19-.5A6,6,0,0,1,244.7,32a7.21,7.21,0,0,1-1.27-2,6,6,0,0,1-.47-2.38,5.81,5.81,0,0,1,.47-2.33,6.9,6.9,0,0,1,1.29-2,6.37,6.37,0,0,1,1.84-1.36,4.93,4.93,0,0,1,2.17-.5,4.11,4.11,0,0,1,1.58.27,4.5,4.5,0,0,1,1.09.61,3.43,3.43,0,0,1,.66.67l-.23-.35a1.05,1.05,0,0,1,.44-.91,2.42,2.42,0,0,1,1.39-.31,2.24,2.24,0,0,1,1.29.28,1.1,1.1,0,0,1,.47.72,4.86,4.86,0,0,1,.09.95V32a5.62,5.62,0,0,1-.08.92,1.07,1.07,0,0,1-.48.71A2.39,2.39,0,0,1,253.63,33.9Zm-4.38-3.73a2.13,2.13,0,0,0,1.2-.34,2.54,2.54,0,0,0,1.18-2.19,2.56,2.56,0,0,0-.32-1.28,2.42,2.42,0,0,0-.88-.89,2.3,2.3,0,0,0-1.22-.33,2.49,2.49,0,0,0-1.27.34,2.61,2.61,0,0,0-.9.91,2.56,2.56,0,0,0-.33,1.3,2.42,2.42,0,0,0,.33,1.24,2.67,2.67,0,0,0,.93.9A2.58,2.58,0,0,0,249.25,30.17Z"/><path class="cls-3" d="M262.5,34.13A7.24,7.24,0,0,1,261,34a8.53,8.53,0,0,1-1.54-.43,5.43,5.43,0,0,1-1.25-.68,1.26,1.26,0,0,1-.56-.89,1.19,1.19,0,0,1,0-.53,2.12,2.12,0,0,1,.23-.6,4.12,4.12,0,0,1,.43-.67.94.94,0,0,1,.44-.35,1,1,0,0,1,.59,0,3.55,3.55,0,0,1,.8.26l.82.4c.29.14.58.27.88.38a2.66,2.66,0,0,0,.92.16,2.32,2.32,0,0,0,1.09-.21.65.65,0,0,0,.39-.59.69.69,0,0,0-.16-.45,1.6,1.6,0,0,0-.45-.3c-.2-.08-.42-.16-.68-.24l-.81-.21c-.28-.07-.58-.15-.9-.25a9.05,9.05,0,0,1-1.19-.45,4,4,0,0,1-1-.71,3.17,3.17,0,0,1-.73-1.08A3.79,3.79,0,0,1,258,25a3.3,3.3,0,0,1,2.23-3.31,7.34,7.34,0,0,1,2.7-.44c.3,0,.6,0,.9.05a5.62,5.62,0,0,1,.89.18,7.54,7.54,0,0,1,1.71.72c.5.24.76.55.77.95a2.39,2.39,0,0,1-1,1.84.88.88,0,0,1-.62.14,3.93,3.93,0,0,1-.86-.34c-.31-.16-.64-.3-1-.44a2.84,2.84,0,0,0-1-.2,2.2,2.2,0,0,0-.73.11,1.11,1.11,0,0,0-.45.3.69.69,0,0,0-.15.44.66.66,0,0,0,.19.51,1.49,1.49,0,0,0,.51.32,7.67,7.67,0,0,0,.75.22l.93.2c.45.09.91.2,1.38.34a4.71,4.71,0,0,1,1.3.61,3,3,0,0,1,.95,1.08,3.76,3.76,0,0,1,.36,1.77,3.6,3.6,0,0,1-1.37,3A6.38,6.38,0,0,1,262.5,34.13Z"/><path class="cls-2" d="M119.3,34.09a8.34,8.34,0,0,1-3.38-.69,8.8,8.8,0,0,1-2.79-1.9,8.91,8.91,0,0,1-1.87-2.81,8.82,8.82,0,0,1-.68-3.46,9.58,9.58,0,0,1,.67-3.52,9.11,9.11,0,0,1,1.83-2.89,8.39,8.39,0,0,1,2.71-1.93,7.85,7.85,0,0,1,3.3-.7,8.45,8.45,0,0,1,3.41.69,8.79,8.79,0,0,1,2.78,1.91,9,9,0,0,1,2.53,6.38,8.88,8.88,0,0,1-.67,3.45,9.09,9.09,0,0,1-1.83,2.86,8.32,8.32,0,0,1-2.72,1.92A7.92,7.92,0,0,1,119.3,34.09Zm-.12-3.8a4.44,4.44,0,0,0,1.88-.4,5,5,0,0,0,1.54-1.09,4.75,4.75,0,0,0,1-1.62,5.56,5.56,0,0,0,.36-2,5.32,5.32,0,0,0-.37-2,5,5,0,0,0-1-1.65,4.69,4.69,0,0,0-1.52-1.11,4.49,4.49,0,0,0-1.86-.39,4.44,4.44,0,0,0-1.84.39,4.85,4.85,0,0,0-1.53,1.1,5.53,5.53,0,0,0-1,1.65,5.32,5.32,0,0,0,0,4,5.36,5.36,0,0,0,1,1.64,5,5,0,0,0,1.52,1.1A4.29,4.29,0,0,0,119.18,30.29Z"/><path class="cls-2" d="M131.63,33.82a2.48,2.48,0,0,1-1.31-.26,1.1,1.1,0,0,1-.48-.7,4.53,4.53,0,0,1-.08-.91v-8.8a4.13,4.13,0,0,1,.09-.89,1,1,0,0,1,.49-.66,3.52,3.52,0,0,1,2.5,0,1,1,0,0,1,.48.51,1.54,1.54,0,0,1,.12.57.8.8,0,0,0,.05.36l-.15.47a1.48,1.48,0,0,1,.38-.76,3.74,3.74,0,0,1,.85-.7,4.93,4.93,0,0,1,1.1-.49,4.36,4.36,0,0,1,1.17-.17,5,5,0,0,1,2.13.44,4.24,4.24,0,0,1,1.59,1.26,6,6,0,0,1,1,1.94,8.57,8.57,0,0,1,.33,2.44V32a4.46,4.46,0,0,1-.09.91,1,1,0,0,1-.47.69,2.7,2.7,0,0,1-1.34.25,2.47,2.47,0,0,1-1.33-.27,1.05,1.05,0,0,1-.48-.7,4.46,4.46,0,0,1-.09-.91V27.43a2.78,2.78,0,0,0-.26-1.28,1.76,1.76,0,0,0-.75-.8,2.46,2.46,0,0,0-1.21-.27,2.59,2.59,0,0,0-1.25.28,2,2,0,0,0-.81.81,2.48,2.48,0,0,0-.29,1.25V32a4.63,4.63,0,0,1-.09.92,1,1,0,0,1-.48.68A2.49,2.49,0,0,1,131.63,33.82Z"/><path class="cls-2" d="M149.68,33.83a5,5,0,0,1-2.18-.49A5.83,5.83,0,0,1,145.68,32a6.7,6.7,0,0,1-1.26-2,6.35,6.35,0,0,1-.46-2.42,6,6,0,0,1,.46-2.33,6.67,6.67,0,0,1,1.28-2,6.42,6.42,0,0,1,1.84-1.36,4.88,4.88,0,0,1,2.15-.5,4.47,4.47,0,0,1,2.11.49,4.35,4.35,0,0,1,1.52,1.34,6.48,6.48,0,0,1,.94,2,9.08,9.08,0,0,1,.35,2.35,9.28,9.28,0,0,1-.3,2.4,6.12,6.12,0,0,1-.93,2,4.66,4.66,0,0,1-1.55,1.38A4.38,4.38,0,0,1,149.68,33.83Zm.5-3.7a2.24,2.24,0,0,0,1.21-.33,2.74,2.74,0,0,0,.88-.91,2.55,2.55,0,0,0,.34-1.28,2.52,2.52,0,0,0-1.2-2.16,2.3,2.3,0,0,0-1.25-.34,2.52,2.52,0,0,0-1.24.32,2.35,2.35,0,0,0-.87.9,2.64,2.64,0,0,0-.32,1.28,2.51,2.51,0,0,0,.33,1.27,2.34,2.34,0,0,0,.9.92A2.4,2.4,0,0,0,150.18,30.13Zm4.35,3.73a2.31,2.31,0,0,1-1.26-.27,1.3,1.3,0,0,1-.54-.85V17.59a6.77,6.77,0,0,1,.06-.92,1,1,0,0,1,.44-.71,2.28,2.28,0,0,1,1.28-.27,2.38,2.38,0,0,1,1.32.26,1.08,1.08,0,0,1,.47.69,3.82,3.82,0,0,1,.1.92V32a4.46,4.46,0,0,1-.09.91,1.14,1.14,0,0,1-.48.72A2.37,2.37,0,0,1,154.53,33.86Z"/><path class="cls-2" d="M169.13,33.84a2.34,2.34,0,0,1-1.38-.32.89.89,0,0,1-.42-.8l.25-.43a2.59,2.59,0,0,1-.58.62,4.39,4.39,0,0,1-1.11.65,4.34,4.34,0,0,1-1.66.28,5,5,0,0,1-2.19-.5A6,6,0,0,1,160.2,32a7.21,7.21,0,0,1-1.27-2,6.13,6.13,0,0,1,0-4.71,6.9,6.9,0,0,1,1.29-2,6.51,6.51,0,0,1,1.84-1.36,4.94,4.94,0,0,1,2.18-.5,4.09,4.09,0,0,1,1.57.27,4.32,4.32,0,0,1,1.09.61,3.43,3.43,0,0,1,.66.67l-.22-.35a1,1,0,0,1,.43-.91,2.42,2.42,0,0,1,1.39-.31,2.24,2.24,0,0,1,1.29.28,1.1,1.1,0,0,1,.47.72,4.86,4.86,0,0,1,.09.95V32a5.62,5.62,0,0,1-.09.92,1.07,1.07,0,0,1-.48.71A2.3,2.3,0,0,1,169.13,33.84Zm-4.37-3.72a2.13,2.13,0,0,0,1.2-.34,2.57,2.57,0,0,0,.85-.91,2.61,2.61,0,0,0,.32-1.28,2.56,2.56,0,0,0-.32-1.28,2.42,2.42,0,0,0-.88-.89,2.3,2.3,0,0,0-1.22-.33,2.33,2.33,0,0,0-1.26.34,2.53,2.53,0,0,0-1.24,2.21,2.42,2.42,0,0,0,.33,1.24,2.67,2.67,0,0,0,.93.9A2.59,2.59,0,0,0,164.76,30.12Z"/><path class="cls-2" d="M178,34.08a9,9,0,0,1-1.47-.16,8.76,8.76,0,0,1-1.54-.43,5.43,5.43,0,0,1-1.25-.68,1.26,1.26,0,0,1-.56-.89,1.36,1.36,0,0,1,0-.53,2.12,2.12,0,0,1,.23-.6,4.94,4.94,0,0,1,.43-.67.94.94,0,0,1,.44-.35,1,1,0,0,1,.59,0,3.55,3.55,0,0,1,.8.26l.83.4a8.47,8.47,0,0,0,.87.38,2.68,2.68,0,0,0,.93.16,2.3,2.3,0,0,0,1.08-.21.65.65,0,0,0,.39-.59.64.64,0,0,0-.16-.45,1.6,1.6,0,0,0-.45-.3c-.19-.08-.42-.16-.68-.24l-.81-.21c-.28-.07-.58-.15-.9-.25a9.62,9.62,0,0,1-1.19-.45,4,4,0,0,1-1.05-.71,3.32,3.32,0,0,1-.73-1.08,3.82,3.82,0,0,1-.28-1.56,3.3,3.3,0,0,1,2.23-3.31,7.34,7.34,0,0,1,2.7-.44c.3,0,.6,0,.9.05a5.4,5.4,0,0,1,.89.18,7.54,7.54,0,0,1,1.71.72c.5.24.76.55.77,1a2,2,0,0,1-.42,1.25,1.92,1.92,0,0,1-.58.59.92.92,0,0,1-.62.14,3.93,3.93,0,0,1-.86-.34,9.71,9.71,0,0,0-1-.44,2.84,2.84,0,0,0-1-.2,2.24,2.24,0,0,0-.73.11,1.11,1.11,0,0,0-.45.3.75.75,0,0,0,0,.95,1.42,1.42,0,0,0,.51.31,5.58,5.58,0,0,0,.75.23l.93.2c.45.09.91.2,1.38.34a4.91,4.91,0,0,1,1.31.61,3,3,0,0,1,.94,1.08,3.75,3.75,0,0,1,.37,1.77,3.58,3.58,0,0,1-1.38,3A6.38,6.38,0,0,1,178,34.08Z"/><path class="cls-2" d="M193.8,33.89a2.39,2.39,0,0,1-1.3-.28,1.07,1.07,0,0,1-.47-.7A5.28,5.28,0,0,1,192,32V23.23a4.43,4.43,0,0,1,.09-.9,1,1,0,0,1,.49-.68,2.42,2.42,0,0,1,1.32-.26,2.06,2.06,0,0,1,1.35.36,1.46,1.46,0,0,1,.42,1.19l-.32.27a1.88,1.88,0,0,1,.3-.42,4.93,4.93,0,0,1,.65-.63,4.49,4.49,0,0,1,.94-.56,2.8,2.8,0,0,1,1.16-.24,4.35,4.35,0,0,1,1.49.24,3.82,3.82,0,0,1,1.2.7,4.32,4.32,0,0,1,.93,1.16,6.88,6.88,0,0,1,.86-1,4.48,4.48,0,0,1,1.17-.8,3.44,3.44,0,0,1,1.53-.32,4,4,0,0,1,2.48.74,4.46,4.46,0,0,1,1.54,2.11,9.33,9.33,0,0,1,.52,3.32V32a3.85,3.85,0,0,1-.1.91,1.13,1.13,0,0,1-.49.7,2.41,2.41,0,0,1-1.31.26,2.47,2.47,0,0,1-1.33-.27,1.09,1.09,0,0,1-.47-.72,5.31,5.31,0,0,1-.08-.91V27.52a3.81,3.81,0,0,0-.19-1.29,1.77,1.77,0,0,0-.54-.83,1.36,1.36,0,0,0-.9-.28,1.68,1.68,0,0,0-1,.27,1.6,1.6,0,0,0-.6.8,3.7,3.7,0,0,0-.2,1.35V32a3.51,3.51,0,0,1-.12.94,1.21,1.21,0,0,1-.54.7,2.37,2.37,0,0,1-1.34.24,2.11,2.11,0,0,1-1.25-.29,1.12,1.12,0,0,1-.45-.72,5.34,5.34,0,0,1-.07-.89V27.51a4.55,4.55,0,0,0-.17-1.3,1.63,1.63,0,0,0-.53-.82,1.4,1.4,0,0,0-.92-.28,1.57,1.57,0,0,0-1,.33,1.83,1.83,0,0,0-.58.86,3.53,3.53,0,0,0-.19,1.21V32a4.6,4.6,0,0,1-.08.93,1.08,1.08,0,0,1-.49.68A2.47,2.47,0,0,1,193.8,33.89Z"/><path class="cls-2" d="M214.54,19.6a2.38,2.38,0,0,1-1.35-.28,1.09,1.09,0,0,1-.49-.72,5.16,5.16,0,0,1,0-1.92,1.09,1.09,0,0,1,.5-.7,2.71,2.71,0,0,1,1.36-.26,2.37,2.37,0,0,1,1.33.28,1.09,1.09,0,0,1,.49.72,6,6,0,0,1,.08,1,4.7,4.7,0,0,1-.09.92,1.08,1.08,0,0,1-.48.72A2.65,2.65,0,0,1,214.54,19.6Zm0,14.3a2.47,2.47,0,0,1-1.33-.27,1,1,0,0,1-.47-.7,5.31,5.31,0,0,1-.08-.91V23.3a4.63,4.63,0,0,1,.09-.92,1.08,1.08,0,0,1,.49-.7,2.52,2.52,0,0,1,1.32-.26,2.24,2.24,0,0,1,1.29.28,1.1,1.1,0,0,1,.47.71,4.62,4.62,0,0,1,.09.94v8.7a5.31,5.31,0,0,1-.08.91,1.06,1.06,0,0,1-.48.69A2.62,2.62,0,0,1,214.53,33.9Z"/><path class="cls-2" d="M229.89,21.93a3.32,3.32,0,0,1,.71,1,1.06,1.06,0,0,1,0,.82,3.57,3.57,0,0,1-.7.95l-7.95,8.59a3.15,3.15,0,0,1-.88.7,1,1,0,0,1-.81,0,3.25,3.25,0,0,1-.94-.66,3.47,3.47,0,0,1-.7-.94,1,1,0,0,1,0-.83,3.87,3.87,0,0,1,.67-.91l8-8.62a2.3,2.3,0,0,1,1.31-.81A1.92,1.92,0,0,1,229.89,21.93Zm-10.58,0a2.75,2.75,0,0,1,.94-.65,1,1,0,0,1,.81,0,2.94,2.94,0,0,1,.87.72l7.95,8.63a4.11,4.11,0,0,1,.69.92,1,1,0,0,1,0,.81,2.58,2.58,0,0,1-.72.94A3,3,0,0,1,229,34a.89.89,0,0,1-.78,0,4.88,4.88,0,0,1-.94-.7l-7.95-8.61a4.08,4.08,0,0,1-.66-.94,1,1,0,0,1,0-.83A3,3,0,0,1,219.31,21.93Z"/><path class="cls-2" d="M233.43,21.61h2.75l3.46-.1a4.26,4.26,0,0,1,.89.09,1.08,1.08,0,0,1,.7.49,2.35,2.35,0,0,1,.28,1.32,2.35,2.35,0,0,1-.26,1.25,1.21,1.21,0,0,1-.69.52,3.89,3.89,0,0,1-.93.11l-3.27-.08-3,0a1.23,1.23,0,0,1-1-.46,2.52,2.52,0,0,1-.29-1.39,2.11,2.11,0,0,1,.35-1.33A1.26,1.26,0,0,1,233.43,21.61Zm5.65,12.3a7.87,7.87,0,0,1-2.2-.27,3.55,3.55,0,0,1-1.51-.86,3.41,3.41,0,0,1-.88-1.46,6.91,6.91,0,0,1-.28-2.11V19.08a4.22,4.22,0,0,1,.09-.92,1,1,0,0,1,.49-.66,2.38,2.38,0,0,1,1.3-.27,2.48,2.48,0,0,1,1.3.28,1.08,1.08,0,0,1,.48.71,4.63,4.63,0,0,1,.09.92v9.92a3,3,0,0,0,.06.66.79.79,0,0,0,.18.39.73.73,0,0,0,.35.18,2.87,2.87,0,0,0,.55.05,4.1,4.1,0,0,1,1,.1,1.06,1.06,0,0,1,.66.45,2.13,2.13,0,0,1,.24,1.17,2.28,2.28,0,0,1-.28,1.3,1,1,0,0,1-.71.48A5.41,5.41,0,0,1,239.08,33.91Z"/><path class="cls-2" d="M253.63,33.9a2.34,2.34,0,0,1-1.38-.33.89.89,0,0,1-.42-.8l.25-.43a2.59,2.59,0,0,1-.58.62,4.11,4.11,0,0,1-1.11.65,4.34,4.34,0,0,1-1.66.28,5,5,0,0,1-2.19-.5A6,6,0,0,1,244.7,32a7.21,7.21,0,0,1-1.27-2,6,6,0,0,1-.47-2.38,5.81,5.81,0,0,1,.47-2.33,6.9,6.9,0,0,1,1.29-2,6.37,6.37,0,0,1,1.84-1.36,4.93,4.93,0,0,1,2.17-.5,4.11,4.11,0,0,1,1.58.27,4.5,4.5,0,0,1,1.09.61,3.43,3.43,0,0,1,.66.67l-.23-.35a1.05,1.05,0,0,1,.44-.91,2.42,2.42,0,0,1,1.39-.31,2.24,2.24,0,0,1,1.29.28,1.1,1.1,0,0,1,.47.72,4.86,4.86,0,0,1,.09.95V32a5.62,5.62,0,0,1-.08.92,1.07,1.07,0,0,1-.48.71A2.39,2.39,0,0,1,253.63,33.9Zm-4.38-3.73a2.13,2.13,0,0,0,1.2-.34,2.54,2.54,0,0,0,1.18-2.19,2.56,2.56,0,0,0-.32-1.28,2.42,2.42,0,0,0-.88-.89,2.3,2.3,0,0,0-1.22-.33,2.49,2.49,0,0,0-1.27.34,2.61,2.61,0,0,0-.9.91,2.56,2.56,0,0,0-.33,1.3,2.42,2.42,0,0,0,.33,1.24,2.67,2.67,0,0,0,.93.9A2.58,2.58,0,0,0,249.25,30.17Z"/><path class="cls-2" d="M262.5,34.13A7.24,7.24,0,0,1,261,34a8.53,8.53,0,0,1-1.54-.43,5.43,5.43,0,0,1-1.25-.68,1.26,1.26,0,0,1-.56-.89,1.19,1.19,0,0,1,0-.53,2.12,2.12,0,0,1,.23-.6,4.12,4.12,0,0,1,.43-.67.94.94,0,0,1,.44-.35,1,1,0,0,1,.59,0,3.55,3.55,0,0,1,.8.26l.82.4c.29.14.58.27.88.38a2.66,2.66,0,0,0,.92.16,2.32,2.32,0,0,0,1.09-.21.65.65,0,0,0,.39-.59.69.69,0,0,0-.16-.45,1.6,1.6,0,0,0-.45-.3c-.2-.08-.42-.16-.68-.24l-.81-.21c-.28-.07-.58-.15-.9-.25a9.05,9.05,0,0,1-1.19-.45,4,4,0,0,1-1-.71,3.17,3.17,0,0,1-.73-1.08A3.79,3.79,0,0,1,258,25a3.3,3.3,0,0,1,2.23-3.31,7.34,7.34,0,0,1,2.7-.44c.3,0,.6,0,.9.05a5.62,5.62,0,0,1,.89.18,7.54,7.54,0,0,1,1.71.72c.5.24.76.55.77.95a2.39,2.39,0,0,1-1,1.84.88.88,0,0,1-.62.14,3.93,3.93,0,0,1-.86-.34c-.31-.16-.64-.3-1-.44a2.84,2.84,0,0,0-1-.2,2.2,2.2,0,0,0-.73.11,1.11,1.11,0,0,0-.45.3.69.69,0,0,0-.15.44.66.66,0,0,0,.19.51,1.49,1.49,0,0,0,.51.32,7.67,7.67,0,0,0,.75.22l.93.2c.45.09.91.2,1.38.34a4.71,4.71,0,0,1,1.3.61,3,3,0,0,1,.95,1.08,3.76,3.76,0,0,1,.36,1.77,3.6,3.6,0,0,1-1.37,3A6.38,6.38,0,0,1,262.5,34.13Z"/><path class="cls-4" d="M53.27,22c0-1.37-1.23-2.06-3.7-2.06a19.62,19.62,0,0,0-2.1.15,19.23,19.23,0,0,1-1.94.15q-2.93,0-2.93-3.62t8.48-3.73q5.51,0,8.23,1.84A5.59,5.59,0,0,1,62,19.51a7.74,7.74,0,0,1-3.5,6.64,9.38,9.38,0,0,1,3.31,2.71,7.17,7.17,0,0,1,1,4,7.35,7.35,0,0,1-2.8,6,11.46,11.46,0,0,1-7.48,2.28q-5.87,0-8.41-1.23a4,4,0,0,1-2.54-3.76,3.92,3.92,0,0,1,.82-2.88,3.15,3.15,0,0,1,2.28-.78c.49,0,1.25.06,2.28.17s1.82.17,2.36.17q4.44,0,4.44-1.68a1.62,1.62,0,0,0-.85-1.58,8,8,0,0,0-3.22-.44,6.5,6.5,0,0,1-3.34-.63,2.56,2.56,0,0,1-1-2.35c0-1.73,1.11-2.6,3.34-2.6a17.73,17.73,0,0,0,3.2-.21c.69-.14,1.09-.3,1.2-.49A1.82,1.82,0,0,0,53.27,22Z"/><path class="cls-4" d="M65.4,38a2.78,2.78,0,0,1,1.16-2.31,5.4,5.4,0,0,1,3.28-.88c3,0,4.44,1.07,4.44,3.19a3.11,3.11,0,0,1-.57,2,2.69,2.69,0,0,1-1.51,1,9.11,9.11,0,0,1-2.36.26,6.13,6.13,0,0,1-3.18-.76A2.62,2.62,0,0,1,65.4,38Z"/><path class="cls-4" d="M90,33.08h4.52q3.43,0,3.42,4a4,4,0,0,1-1.08,3.17c-.72.63-2,.94-3.85.94H82c-1.9,0-3.2-.25-3.89-.77s-1-1.63-1-3.34a5.6,5.6,0,0,1,.17-1.45,3.5,3.5,0,0,1,.61-1.2,5.61,5.61,0,0,1,1.22-1.13c1.47-1,2.63-1.82,3.47-2.44s1.66-1.26,2.46-1.95a12.84,12.84,0,0,0,1.78-1.76,10.41,10.41,0,0,0,1-1.66,6.09,6.09,0,0,0,.61-1.85,13.94,13.94,0,0,0,.15-2.19c0-1.56-.48-2.35-1.43-2.35s-1.55.93-1.55,2.77a2,2,0,0,1-1,2,7,7,0,0,1-2.89.46c-1.74,0-2.91-.39-3.52-1.17a6.41,6.41,0,0,1-.92-3.91,5.48,5.48,0,0,1,2.51-4.56,11.74,11.74,0,0,1,7-1.82q11.08,0,11.08,8.69a14.53,14.53,0,0,1-.46,3.68A11.25,11.25,0,0,1,96.29,28a9,9,0,0,1-1.77,2.12,17.42,17.42,0,0,1-2.1,1.64A27,27,0,0,1,90,33.08Z"/><path class="cls-5" d="M53.27,22c0-1.37-1.23-2.06-3.7-2.06a19.62,19.62,0,0,0-2.1.15,19.23,19.23,0,0,1-1.94.15q-2.93,0-2.93-3.62t8.48-3.73q5.51,0,8.23,1.84A5.59,5.59,0,0,1,62,19.51a7.74,7.74,0,0,1-3.5,6.64,9.38,9.38,0,0,1,3.31,2.71,7.17,7.17,0,0,1,1,4,7.35,7.35,0,0,1-2.8,6,11.46,11.46,0,0,1-7.48,2.28q-5.87,0-8.41-1.23a4,4,0,0,1-2.54-3.76,3.92,3.92,0,0,1,.82-2.88,3.15,3.15,0,0,1,2.28-.78c.49,0,1.25.06,2.28.17s1.82.17,2.36.17q4.44,0,4.44-1.68a1.62,1.62,0,0,0-.85-1.58,8,8,0,0,0-3.22-.44,6.5,6.5,0,0,1-3.34-.63,2.56,2.56,0,0,1-1-2.35c0-1.73,1.11-2.6,3.34-2.6a17.73,17.73,0,0,0,3.2-.21c.69-.14,1.09-.3,1.2-.49A1.82,1.82,0,0,0,53.27,22Z"/><path class="cls-5" d="M65.4,38a2.78,2.78,0,0,1,1.16-2.31,5.4,5.4,0,0,1,3.28-.88c3,0,4.44,1.07,4.44,3.19a3.11,3.11,0,0,1-.57,2,2.69,2.69,0,0,1-1.51,1,9.11,9.11,0,0,1-2.36.26,6.13,6.13,0,0,1-3.18-.76A2.62,2.62,0,0,1,65.4,38Z"/><path class="cls-5" d="M90,33.08h4.52q3.43,0,3.42,4a4,4,0,0,1-1.08,3.17c-.72.63-2,.94-3.85.94H82c-1.9,0-3.2-.25-3.89-.77s-1-1.63-1-3.34a5.6,5.6,0,0,1,.17-1.45,3.5,3.5,0,0,1,.61-1.2,5.61,5.61,0,0,1,1.22-1.13c1.47-1,2.63-1.82,3.47-2.44s1.66-1.26,2.46-1.95a12.84,12.84,0,0,0,1.78-1.76,10.41,10.41,0,0,0,1-1.66,6.09,6.09,0,0,0,.61-1.85,13.94,13.94,0,0,0,.15-2.19c0-1.56-.48-2.35-1.43-2.35s-1.55.93-1.55,2.77a2,2,0,0,1-1,2,7,7,0,0,1-2.89.46c-1.74,0-2.91-.39-3.52-1.17a6.41,6.41,0,0,1-.92-3.91,5.48,5.48,0,0,1,2.51-4.56,11.74,11.74,0,0,1,7-1.82q11.08,0,11.08,8.69a14.53,14.53,0,0,1-.46,3.68A11.25,11.25,0,0,1,96.29,28a9,9,0,0,1-1.77,2.12,17.42,17.42,0,0,1-2.1,1.64A27,27,0,0,1,90,33.08Z"/></g></g></svg>