<svg xmlns="http://www.w3.org/2000/svg" viewBox="0 0 399.98 100.86"><defs><style>.cls-1{fill:#03826e;}.cls-2{fill:#fff;}.cls-3,.cls-4{fill:none;stroke-width:5px;}.cls-3{stroke:#b6ba01;stroke-linejoin:round;}.cls-4{stroke:#fff;}.cls-5{fill:#b6ba01;}</style></defs><title>33t</title><g id="Layer_2" data-name="Layer 2"><g id="pestaña_identificativa" data-name="pestaña identificativa"><rect class="cls-1" width="399.98" height="100.86" rx="32.4"/><path class="cls-2" d="M119.73,34a8.64,8.64,0,0,1-2.33-.34A9.39,9.39,0,0,1,115,32.65a9.05,9.05,0,0,1-2.13-1.79,8.09,8.09,0,0,1-1.51-2.55,9,9,0,0,1-.56-3.33,8.58,8.58,0,0,1,.56-3.23,8.06,8.06,0,0,1,1.51-2.46A9.24,9.24,0,0,1,115,17.55a9.69,9.69,0,0,1,2.41-1,8.89,8.89,0,0,1,2.39-.34,7.48,7.48,0,0,1,2.23.3,8.25,8.25,0,0,1,1.53.63l.76.42a7.94,7.94,0,0,1,.85.65,1.25,1.25,0,0,1,.43.9,1.61,1.61,0,0,1-.12.6,2.24,2.24,0,0,1-.33.6,3.23,3.23,0,0,1-.78.84,1.16,1.16,0,0,1-1.3.11c-.18-.1-.4-.23-.65-.4a4.72,4.72,0,0,0-.5-.31,3.44,3.44,0,0,0-.88-.34,5.78,5.78,0,0,0-3.15.15,5.12,5.12,0,0,0-1.64.92,4.58,4.58,0,0,0-1.2,1.59,5.3,5.3,0,0,0-.45,2.26,4.92,4.92,0,0,0,.46,2.25,4.57,4.57,0,0,0,1.21,1.58,5.29,5.29,0,0,0,3.37,1.25,4.73,4.73,0,0,0,1.28-.15,4.9,4.9,0,0,0,.92-.36c.27-.14.49-.27.68-.39l.56-.32a1.26,1.26,0,0,1,.59-.15,1.19,1.19,0,0,1,.71.27,3.44,3.44,0,0,1,.74.88,2.6,2.6,0,0,1,.33.64,1.66,1.66,0,0,1,.12.61,1,1,0,0,1-.42.86,6.38,6.38,0,0,1-.86.61l-.75.44a7.19,7.19,0,0,1-1.53.62A7.59,7.59,0,0,1,119.73,34Z"/><path class="cls-2" d="M133.1,33.82a5.24,5.24,0,0,1-2.17-.45,5.33,5.33,0,0,1-1.75-1.26A5.59,5.59,0,0,1,128,30.18a6.81,6.81,0,0,1-.41-2.43V23.22a4.42,4.42,0,0,1,.09-.92,1.08,1.08,0,0,1,.49-.7,2.31,2.31,0,0,1,1.32-.28,2.25,2.25,0,0,1,1.31.28,1.12,1.12,0,0,1,.48.71,4.62,4.62,0,0,1,.09.94v4.5a2.92,2.92,0,0,0,.26,1.26,1.8,1.8,0,0,0,.78.81,2.43,2.43,0,0,0,1.21.28,2.53,2.53,0,0,0,1.24-.29,2,2,0,0,0,.8-.81,2.59,2.59,0,0,0,.29-1.25V23.2a4.59,4.59,0,0,1,.09-.93,1,1,0,0,1,.49-.68,2.42,2.42,0,0,1,1.32-.26,2.35,2.35,0,0,1,1.31.27,1.15,1.15,0,0,1,.48.71,4.63,4.63,0,0,1,.09.92V32a4.26,4.26,0,0,1-.09.89,1,1,0,0,1-.49.66,2.61,2.61,0,0,1-1.3.25,2.86,2.86,0,0,1-1-.15,1.35,1.35,0,0,1-.56-.38,1.16,1.16,0,0,1-.21-.47,2.48,2.48,0,0,1,0-.45l.32-.28a3.06,3.06,0,0,1-.33.39,5.22,5.22,0,0,1-.66.57,4,4,0,0,1-1,.54A3.37,3.37,0,0,1,133.1,33.82Z"/><path class="cls-2" d="M144.1,33.85a2.41,2.41,0,0,1-1.31-.26,1.06,1.06,0,0,1-.47-.71,4.73,4.73,0,0,1-.09-.93V23.23a5.46,5.46,0,0,1,.08-.93,1.08,1.08,0,0,1,.49-.68,2.47,2.47,0,0,1,1.33-.27,2.61,2.61,0,0,1,1.26.24,1.06,1.06,0,0,1,.49.55,2.08,2.08,0,0,1,.1.54l-.3.15a2,2,0,0,1,.26-.36,3.2,3.2,0,0,1,.59-.55,3.71,3.71,0,0,1,.91-.49,3.62,3.62,0,0,1,1.24-.2c.18,0,.38,0,.61,0a4.89,4.89,0,0,1,.7.15,3.32,3.32,0,0,1,.66.3,1.8,1.8,0,0,1,.49.46,1.24,1.24,0,0,1,.19.68,3.06,3.06,0,0,1-.48,1.74,1.42,1.42,0,0,1-1.2.71,2.11,2.11,0,0,1-.6-.06,1.3,1.3,0,0,1-.29-.16,1.26,1.26,0,0,0-.26-.14,1.39,1.39,0,0,0-.55-.07,2.71,2.71,0,0,0-.71.1,2.06,2.06,0,0,0-.63.31,1.63,1.63,0,0,0-.45.53,1.49,1.49,0,0,0-.16.71V32a5.4,5.4,0,0,1-.09.91,1,1,0,0,1-.49.69A2.62,2.62,0,0,1,144.1,33.85Z"/><path class="cls-2" d="M159.3,34a2.2,2.2,0,0,1-1-.22,1.47,1.47,0,0,1-.67-.7l-4.49-9a2,2,0,0,1-.26-1.49A2,2,0,0,1,154,21.51a2.39,2.39,0,0,1,1.51-.31c.37.09.71.49,1,1.19l2.8,6.5,2.8-6.42c.3-.72.64-1.14,1-1.25a2.24,2.24,0,0,1,1.57.32c.68.32,1.06.69,1.13,1.12a2.32,2.32,0,0,1-.31,1.46L161,33a1.48,1.48,0,0,1-.65.7A2.28,2.28,0,0,1,159.3,34Z"/><path class="cls-2" d="M178.1,33.85a2.33,2.33,0,0,1-1.37-.33.88.88,0,0,1-.42-.8l.25-.42a2.82,2.82,0,0,1-.58.61,4.28,4.28,0,0,1-1.11.65,4.38,4.38,0,0,1-1.67.29,5,5,0,0,1-2.18-.5A6,6,0,0,1,169.18,32a7,7,0,0,1-1.27-2,6,6,0,0,1-.48-2.37,5.83,5.83,0,0,1,.48-2.34,6.72,6.72,0,0,1,1.29-2A6.07,6.07,0,0,1,171,21.9a4.77,4.77,0,0,1,2.17-.5,4.35,4.35,0,0,1,1.58.26,4.57,4.57,0,0,1,1.08.61,3.53,3.53,0,0,1,.67.68l-.23-.35a1.05,1.05,0,0,1,.44-.91,2.4,2.4,0,0,1,1.39-.31,2.28,2.28,0,0,1,1.28.27,1.16,1.16,0,0,1,.48.73,4.79,4.79,0,0,1,.09.95V32a4.73,4.73,0,0,1-.09.93,1.08,1.08,0,0,1-.47.71A2.52,2.52,0,0,1,178.1,33.85Zm-4.37-3.73a2.21,2.21,0,0,0,1.2-.33,2.6,2.6,0,0,0,.85-.92,2.48,2.48,0,0,0,.33-1.27,2.53,2.53,0,0,0-.33-1.29,2.4,2.4,0,0,0-.87-.89,2.42,2.42,0,0,0-1.23-.32,2.47,2.47,0,0,0-1.26.33,2.64,2.64,0,0,0-.9.92,2.54,2.54,0,0,0-.34,1.3,2.37,2.37,0,0,0,.34,1.23,2.41,2.41,0,0,0,.92.9A2.51,2.51,0,0,0,173.73,30.12Z"/><path class="cls-2" d="M187,34.08a8.15,8.15,0,0,1-1.48-.15,8.68,8.68,0,0,1-1.53-.44,5.22,5.22,0,0,1-1.25-.67,1.33,1.33,0,0,1-.57-.89,1.42,1.42,0,0,1,0-.54,2.32,2.32,0,0,1,.22-.6,4.44,4.44,0,0,1,.44-.66.94.94,0,0,1,.44-.35,1.09,1.09,0,0,1,.59,0,3.28,3.28,0,0,1,.8.27l.82.4a8.59,8.59,0,0,0,.88.37,2.63,2.63,0,0,0,.92.17,2.19,2.19,0,0,0,1.09-.22.64.64,0,0,0,.39-.58.61.61,0,0,0-.17-.45,1.18,1.18,0,0,0-.45-.3,4,4,0,0,0-.67-.24q-.39-.12-.81-.21c-.29-.07-.59-.15-.9-.25a7.89,7.89,0,0,1-1.19-.46,4,4,0,0,1-1-.71,3.3,3.3,0,0,1-.74-1.07,4.05,4.05,0,0,1-.27-1.57,3.61,3.61,0,0,1,.56-2.05,3.51,3.51,0,0,1,1.67-1.26,7.35,7.35,0,0,1,2.7-.43,6.79,6.79,0,0,1,.9.05,5.26,5.26,0,0,1,.88.17c.3.09.58.19.87.3a7.55,7.55,0,0,1,.85.43,1.12,1.12,0,0,1,.77.95,2.08,2.08,0,0,1-.42,1.25,2.17,2.17,0,0,1-.58.59.89.89,0,0,1-.63.13,3.82,3.82,0,0,1-.86-.34c-.31-.15-.63-.3-1-.43a2.65,2.65,0,0,0-1-.2,2,2,0,0,0-.72.11.94.94,0,0,0-.45.3.67.67,0,0,0-.15.44.69.69,0,0,0,.19.51,1.39,1.39,0,0,0,.51.31,6.19,6.19,0,0,0,.75.23l.92.2a10.8,10.8,0,0,1,1.39.34,4.44,4.44,0,0,1,1.3.61,3,3,0,0,1,.95,1.07,3.8,3.8,0,0,1,.36,1.78,3.56,3.56,0,0,1-1.38,3A6.33,6.33,0,0,1,187,34.08Z"/><path class="cls-2" d="M207.15,34.12a7.12,7.12,0,0,1-3-.58A5.84,5.84,0,0,1,202.08,32a6.61,6.61,0,0,1-1.2-2.09,6.88,6.88,0,0,1-.4-2.3,6.54,6.54,0,0,1,.85-3.33A6.19,6.19,0,0,1,203.7,22a7,7,0,0,1,3.46-.84,6.18,6.18,0,0,1,2.51.47,5.23,5.23,0,0,1,1.75,1.2,5.1,5.1,0,0,1,1,1.59,4.42,4.42,0,0,1,.33,1.62,2.82,2.82,0,0,1-.66,2.05,2.28,2.28,0,0,1-1.69.68h-6a1.77,1.77,0,0,0,.46,1.08,2.85,2.85,0,0,0,1,.7,3.7,3.7,0,0,0,1.33.25,8.05,8.05,0,0,0,1-.06,3.7,3.7,0,0,0,.79-.18c.22-.07.41-.15.59-.22a4.44,4.44,0,0,1,.49-.19,2.53,2.53,0,0,1,.42-.1,1,1,0,0,1,.68.21,2.16,2.16,0,0,1,.57.72,1.61,1.61,0,0,1,.24.52,2.14,2.14,0,0,1,.06.5,1.36,1.36,0,0,1-.61,1.09,4.74,4.74,0,0,1-1.73.73A11,11,0,0,1,207.15,34.12Zm-2.67-7.4h4a1.06,1.06,0,0,0,.58-.14.62.62,0,0,0,.2-.54,1.18,1.18,0,0,0-.28-.77,1.84,1.84,0,0,0-.73-.54,3.2,3.2,0,0,0-2.44.11,2.47,2.47,0,0,0-.94.8A1.92,1.92,0,0,0,204.48,26.72Z"/><path class="cls-2" d="M216.75,33.87a2.41,2.41,0,0,1-1.31-.26,1,1,0,0,1-.47-.7,4.53,4.53,0,0,1-.09-.91V23.2a4.21,4.21,0,0,1,.08-.89,1,1,0,0,1,.49-.66,2.6,2.6,0,0,1,1.33-.25,2.49,2.49,0,0,1,1.17.21,1,1,0,0,1,.49.52,1.64,1.64,0,0,1,.11.56,1,1,0,0,0,.05.36l-.15.47a1.43,1.43,0,0,1,.39-.76,3.53,3.53,0,0,1,.85-.7,4.32,4.32,0,0,1,1.1-.48A4,4,0,0,1,222,21.4a5.05,5.05,0,0,1,2.14.44,4.29,4.29,0,0,1,1.58,1.26,5.65,5.65,0,0,1,1,1.94,8.22,8.22,0,0,1,.34,2.44V32a5.31,5.31,0,0,1-.08.91,1.06,1.06,0,0,1-.48.69,3.6,3.6,0,0,1-2.66,0,1.08,1.08,0,0,1-.49-.7,4.63,4.63,0,0,1-.09-.92V27.48A2.92,2.92,0,0,0,223,26.2a1.93,1.93,0,0,0-.75-.8,2.5,2.5,0,0,0-1.22-.27,2.59,2.59,0,0,0-1.25.28,2,2,0,0,0-.81.81,2.59,2.59,0,0,0-.29,1.25V32a4.56,4.56,0,0,1-.09.92,1,1,0,0,1-.47.68A2.53,2.53,0,0,1,216.75,33.87Z"/><path class="cls-2" d="M235.63,34a6.64,6.64,0,0,1-2.24-.41,7,7,0,0,1-2.1-1.22,5.77,5.77,0,0,1-1.53-2,6.21,6.21,0,0,1-.58-2.75,6,6,0,0,1,2.1-4.7,7.08,7.08,0,0,1,2.09-1.21,6.62,6.62,0,0,1,2.22-.41,6.08,6.08,0,0,1,1.66.21,5.88,5.88,0,0,1,1.25.52,3.77,3.77,0,0,1,.73.52,7.31,7.31,0,0,1,.75.65,1.05,1.05,0,0,1,.3.85,1.43,1.43,0,0,1-.17.57,4.41,4.41,0,0,1-.38.58c-.51.7-1,1-1.5.95a2.12,2.12,0,0,1-.68-.25l-.6-.35a4.48,4.48,0,0,0-.62-.31,1.89,1.89,0,0,0-.75-.14,2.5,2.5,0,0,0-1.3.34,2.53,2.53,0,0,0-.91.9,2.44,2.44,0,0,0-.34,1.31,2.53,2.53,0,0,0,1.24,2.21,2.33,2.33,0,0,0,1.26.34,2.39,2.39,0,0,0,.73-.1,2.33,2.33,0,0,0,.55-.24l.35-.21.57-.36a1.05,1.05,0,0,1,.55-.16,1.21,1.21,0,0,1,.74.26,4.1,4.1,0,0,1,.81.84,2.07,2.07,0,0,1,.49,1,1.22,1.22,0,0,1-.22.87,2.68,2.68,0,0,1-.85.76,5.06,5.06,0,0,1-.71.45,7.21,7.21,0,0,1-1.25.5A5.7,5.7,0,0,1,235.63,34Z"/><path class="cls-2" d="M252.78,33.9a2.42,2.42,0,0,1-1.38-.33.89.89,0,0,1-.42-.8l.25-.43a2.59,2.59,0,0,1-.58.62,4.39,4.39,0,0,1-1.11.65,4.34,4.34,0,0,1-1.66.28,5,5,0,0,1-2.19-.5A6,6,0,0,1,243.85,32a7.21,7.21,0,0,1-1.27-2,6.13,6.13,0,0,1,0-4.71,6.9,6.9,0,0,1,1.29-2,6.37,6.37,0,0,1,1.84-1.36,4.94,4.94,0,0,1,2.18-.5,4.09,4.09,0,0,1,1.57.27,4.32,4.32,0,0,1,1.09.61,3.43,3.43,0,0,1,.66.67l-.23-.35a1.05,1.05,0,0,1,.44-.91,2.42,2.42,0,0,1,1.39-.31,2.24,2.24,0,0,1,1.29.28,1.1,1.1,0,0,1,.47.72,4.86,4.86,0,0,1,.09.95V32a5.62,5.62,0,0,1-.08.92,1.07,1.07,0,0,1-.48.71A2.39,2.39,0,0,1,252.78,33.9Zm-4.38-3.73a2.19,2.19,0,0,0,1.2-.34,2.51,2.51,0,0,0,.86-.91,2.61,2.61,0,0,0,.32-1.28,2.56,2.56,0,0,0-.32-1.28,2.35,2.35,0,0,0-.88-.89,2.3,2.3,0,0,0-1.22-.33,2.33,2.33,0,0,0-1.26.34,2.48,2.48,0,0,0-1.24,2.21,2.42,2.42,0,0,0,.33,1.24,2.67,2.67,0,0,0,.93.9A2.58,2.58,0,0,0,248.4,30.17Z"/><path class="cls-2" d="M255.05,39.05a4.31,4.31,0,0,1-.88-.09,1.15,1.15,0,0,1-.7-.48,2.3,2.3,0,0,1-.27-1.28,2.12,2.12,0,0,1,.28-1.24,1.15,1.15,0,0,1,.7-.49,3.82,3.82,0,0,1,.92-.1,3.53,3.53,0,0,0,.7-.07,1.78,1.78,0,0,0,.7-.32,1.62,1.62,0,0,0,.53-.68,3,3,0,0,0,.2-1.18v-10a3.77,3.77,0,0,1,.1-.83,1.13,1.13,0,0,1,.5-.65,2.6,2.6,0,0,1,1.28-.25,2.33,2.33,0,0,1,1.29.28,1.09,1.09,0,0,1,.46.7,5.14,5.14,0,0,1,.07.9v10a5.76,5.76,0,0,1-.52,2.54,5.44,5.44,0,0,1-1.36,1.83,5.73,5.73,0,0,1-1.9,1.09A6.2,6.2,0,0,1,255.05,39.05Zm4-19.45a2,2,0,0,1-1.47-.41,2.23,2.23,0,0,1-.4-1.54,2.08,2.08,0,0,1,.4-1.48,2.18,2.18,0,0,1,1.52-.4,2.06,2.06,0,0,1,1.49.41,2.14,2.14,0,0,1,.39,1.5,2.22,2.22,0,0,1-.4,1.51A2.17,2.17,0,0,1,259.06,19.6Z"/><path class="cls-2" d="M273.75,33.91a2.33,2.33,0,0,1-1.37-.33.91.91,0,0,1-.43-.8l.25-.42a3,3,0,0,1-.57.61,4.35,4.35,0,0,1-1.12.65,4.29,4.29,0,0,1-1.66.29,5.09,5.09,0,0,1-2.19-.51A5.7,5.7,0,0,1,264.83,32a7,7,0,0,1-1.27-2,6,6,0,0,1-.48-2.37,5.83,5.83,0,0,1,.48-2.34A6.59,6.59,0,0,1,266.68,22a4.83,4.83,0,0,1,2.18-.49,4.06,4.06,0,0,1,1.57.26,4.15,4.15,0,0,1,1.09.61,3.2,3.2,0,0,1,.66.68l-.22-.35a1.07,1.07,0,0,1,.44-.92,2.47,2.47,0,0,1,1.38-.31,2.3,2.3,0,0,1,1.29.28,1.11,1.11,0,0,1,.48.72,5.8,5.8,0,0,1,.08.95V32a4.63,4.63,0,0,1-.09.92,1.11,1.11,0,0,1-.48.72A2.45,2.45,0,0,1,273.75,33.91Zm-4.37-3.73a2.13,2.13,0,0,0,1.2-.34,2.57,2.57,0,0,0,.85-.91,2.51,2.51,0,0,0,.33-1.27,2.48,2.48,0,0,0-.33-1.29,2.4,2.4,0,0,0-.87-.89,2.35,2.35,0,0,0-1.23-.32,2.44,2.44,0,0,0-1.26.33,2.53,2.53,0,0,0-.9.91,2.5,2.5,0,0,0-.34,1.3,2.31,2.31,0,0,0,.34,1.24,2.41,2.41,0,0,0,.92.9A2.49,2.49,0,0,0,269.38,30.18Z"/><path class="cls-2" d="M283.48,33.91a5.07,5.07,0,0,1-2.18-.48,6,6,0,0,1-1.82-1.37,6.54,6.54,0,0,1-1.72-4.42,6,6,0,0,1,.46-2.34A6.52,6.52,0,0,1,281.33,22a4.91,4.91,0,0,1,2.15-.5,4.29,4.29,0,0,1,3.64,1.83,6.48,6.48,0,0,1,.94,2,9.53,9.53,0,0,1,.35,2.35,9.28,9.28,0,0,1-.31,2.4,6.32,6.32,0,0,1-.92,2,4.75,4.75,0,0,1-1.55,1.38A4.41,4.41,0,0,1,283.48,33.91Zm.5-3.7a2.27,2.27,0,0,0,1.21-.33,2.74,2.74,0,0,0,.88-.91,2.66,2.66,0,0,0,.34-1.28,2.52,2.52,0,0,0-1.2-2.16,2.32,2.32,0,0,0-1.25-.34,2.49,2.49,0,0,0-1.24.32,2.31,2.31,0,0,0-.88.9,2.75,2.75,0,0,0-.31,1.28,2.6,2.6,0,0,0,.32,1.27A2.43,2.43,0,0,0,284,30.21Zm4.35,3.73a2.38,2.38,0,0,1-1.27-.27,1.32,1.32,0,0,1-.53-.85V17.67a6.77,6.77,0,0,1,.06-.92A1,1,0,0,1,287,16a2.24,2.24,0,0,1,1.27-.27,2.39,2.39,0,0,1,1.33.26,1.08,1.08,0,0,1,.47.69,3.82,3.82,0,0,1,.1.92V32a5.52,5.52,0,0,1-.08.92,1.15,1.15,0,0,1-.48.71A2.39,2.39,0,0,1,288.33,33.94Z"/><path class="cls-2" d="M302.93,33.93a2.34,2.34,0,0,1-1.38-.33.89.89,0,0,1-.42-.8l.25-.43a2.59,2.59,0,0,1-.58.62,4.39,4.39,0,0,1-1.11.65,4.34,4.34,0,0,1-1.66.28,4.88,4.88,0,0,1-2.19-.5A6,6,0,0,1,294,32a7.21,7.21,0,0,1-1.27-2,6.13,6.13,0,0,1,0-4.71,6.9,6.9,0,0,1,1.29-2A6.24,6.24,0,0,1,295.86,22a4.93,4.93,0,0,1,2.17-.5,4.11,4.11,0,0,1,1.58.27,4.5,4.5,0,0,1,1.09.61,3.43,3.43,0,0,1,.66.67l-.23-.35a1.05,1.05,0,0,1,.44-.91,2.4,2.4,0,0,1,1.39-.31,2.24,2.24,0,0,1,1.29.28,1.14,1.14,0,0,1,.47.72,4.86,4.86,0,0,1,.09.95V32a5.62,5.62,0,0,1-.08.92,1.07,1.07,0,0,1-.48.71A2.39,2.39,0,0,1,302.93,33.93Zm-4.38-3.73a2.13,2.13,0,0,0,1.2-.34,2.48,2.48,0,0,0,.85-.91,2.52,2.52,0,0,0,.33-1.28,2.56,2.56,0,0,0-.32-1.28,2.42,2.42,0,0,0-.88-.89,2.33,2.33,0,0,0-1.22-.33,2.39,2.39,0,0,0-1.27.34,2.61,2.61,0,0,0-.9.91,2.68,2.68,0,0,0-.34,1.3,2.43,2.43,0,0,0,.34,1.24,2.67,2.67,0,0,0,.93.9A2.58,2.58,0,0,0,298.55,30.2Z"/><path class="cls-2" d="M311.8,34.16a8,8,0,0,1-1.47-.16,8.53,8.53,0,0,1-1.54-.43,5.43,5.43,0,0,1-1.25-.68A1.26,1.26,0,0,1,307,32a1.19,1.19,0,0,1,0-.53,2.12,2.12,0,0,1,.23-.6,4.12,4.12,0,0,1,.43-.67.94.94,0,0,1,.44-.35,1,1,0,0,1,.59,0,3.55,3.55,0,0,1,.8.26l.82.4c.29.14.58.27.88.38a2.66,2.66,0,0,0,.92.16,2.32,2.32,0,0,0,1.09-.21.65.65,0,0,0,.39-.59.69.69,0,0,0-.16-.45,1.6,1.6,0,0,0-.45-.3c-.2-.08-.42-.16-.68-.24l-.81-.21c-.28-.07-.59-.15-.9-.25a9.05,9.05,0,0,1-1.19-.45,4,4,0,0,1-1.05-.71,3.17,3.17,0,0,1-.73-1.08,3.82,3.82,0,0,1-.28-1.56,3.59,3.59,0,0,1,.56-2.05,3.51,3.51,0,0,1,1.67-1.26,7.34,7.34,0,0,1,2.7-.44c.3,0,.6,0,.9,0a5.62,5.62,0,0,1,.89.18,6.74,6.74,0,0,1,.86.3,7.42,7.42,0,0,1,.85.42c.5.24.76.55.77.95a2.39,2.39,0,0,1-1,1.84.88.88,0,0,1-.62.14,4.2,4.2,0,0,1-.87-.34,8.63,8.63,0,0,0-1-.44,2.84,2.84,0,0,0-1-.2,2.2,2.2,0,0,0-.73.11,1.11,1.11,0,0,0-.45.3.69.69,0,0,0-.15.44.66.66,0,0,0,.19.51,1.4,1.4,0,0,0,.51.32,7.67,7.67,0,0,0,.75.22l.93.2c.45.09.91.2,1.38.34a4.71,4.71,0,0,1,1.3.61,3,3,0,0,1,.95,1.08,3.76,3.76,0,0,1,.36,1.77,3.6,3.6,0,0,1-1.37,3A6.38,6.38,0,0,1,311.8,34.16Z"/><path class="cls-3" d="M119.73,34a8.64,8.64,0,0,1-2.33-.34A9.39,9.39,0,0,1,115,32.65a9.05,9.05,0,0,1-2.13-1.79,8.09,8.09,0,0,1-1.51-2.55,9,9,0,0,1-.56-3.33,8.58,8.58,0,0,1,.56-3.23,8.06,8.06,0,0,1,1.51-2.46A9.24,9.24,0,0,1,115,17.55a9.69,9.69,0,0,1,2.41-1,8.89,8.89,0,0,1,2.39-.34,7.48,7.48,0,0,1,2.23.3,8.25,8.25,0,0,1,1.53.63l.76.42a7.94,7.94,0,0,1,.85.65,1.25,1.25,0,0,1,.43.9,1.61,1.61,0,0,1-.12.6,2.24,2.24,0,0,1-.33.6,3.23,3.23,0,0,1-.78.84,1.16,1.16,0,0,1-1.3.11c-.18-.1-.4-.23-.65-.4a4.72,4.72,0,0,0-.5-.31,3.44,3.44,0,0,0-.88-.34,5.78,5.78,0,0,0-3.15.15,5.12,5.12,0,0,0-1.64.92,4.58,4.58,0,0,0-1.2,1.59,5.3,5.3,0,0,0-.45,2.26,4.92,4.92,0,0,0,.46,2.25,4.57,4.57,0,0,0,1.21,1.58,5.29,5.29,0,0,0,3.37,1.25,4.73,4.73,0,0,0,1.28-.15,4.9,4.9,0,0,0,.92-.36c.27-.14.49-.27.68-.39l.56-.32a1.26,1.26,0,0,1,.59-.15,1.19,1.19,0,0,1,.71.27,3.44,3.44,0,0,1,.74.88,2.6,2.6,0,0,1,.33.64,1.66,1.66,0,0,1,.12.61,1,1,0,0,1-.42.86,6.38,6.38,0,0,1-.86.61l-.75.44a7.19,7.19,0,0,1-1.53.62A7.59,7.59,0,0,1,119.73,34Z"/><path class="cls-3" d="M133.1,33.82a5.24,5.24,0,0,1-2.17-.45,5.33,5.33,0,0,1-1.75-1.26A5.59,5.59,0,0,1,128,30.18a6.81,6.81,0,0,1-.41-2.43V23.22a4.42,4.42,0,0,1,.09-.92,1.08,1.08,0,0,1,.49-.7,2.31,2.31,0,0,1,1.32-.28,2.25,2.25,0,0,1,1.31.28,1.12,1.12,0,0,1,.48.71,4.62,4.62,0,0,1,.09.94v4.5a2.92,2.92,0,0,0,.26,1.26,1.8,1.8,0,0,0,.78.81,2.43,2.43,0,0,0,1.21.28,2.53,2.53,0,0,0,1.24-.29,2,2,0,0,0,.8-.81,2.59,2.59,0,0,0,.29-1.25V23.2a4.59,4.59,0,0,1,.09-.93,1,1,0,0,1,.49-.68,2.42,2.42,0,0,1,1.32-.26,2.35,2.35,0,0,1,1.31.27,1.15,1.15,0,0,1,.48.71,4.63,4.63,0,0,1,.09.92V32a4.26,4.26,0,0,1-.09.89,1,1,0,0,1-.49.66,2.61,2.61,0,0,1-1.3.25,2.86,2.86,0,0,1-1-.15,1.35,1.35,0,0,1-.56-.38,1.16,1.16,0,0,1-.21-.47,2.48,2.48,0,0,1,0-.45l.32-.28a3.06,3.06,0,0,1-.33.39,5.22,5.22,0,0,1-.66.57,4,4,0,0,1-1,.54A3.37,3.37,0,0,1,133.1,33.82Z"/><path class="cls-3" d="M144.1,33.85a2.41,2.41,0,0,1-1.31-.26,1.06,1.06,0,0,1-.47-.71,4.73,4.73,0,0,1-.09-.93V23.23a5.46,5.46,0,0,1,.08-.93,1.08,1.08,0,0,1,.49-.68,2.47,2.47,0,0,1,1.33-.27,2.61,2.61,0,0,1,1.26.24,1.06,1.06,0,0,1,.49.55,2.08,2.08,0,0,1,.1.54l-.3.15a2,2,0,0,1,.26-.36,3.2,3.2,0,0,1,.59-.55,3.71,3.71,0,0,1,.91-.49,3.62,3.62,0,0,1,1.24-.2c.18,0,.38,0,.61,0a4.89,4.89,0,0,1,.7.15,3.32,3.32,0,0,1,.66.3,1.8,1.8,0,0,1,.49.46,1.24,1.24,0,0,1,.19.68,3.06,3.06,0,0,1-.48,1.74,1.42,1.42,0,0,1-1.2.71,2.11,2.11,0,0,1-.6-.06,1.3,1.3,0,0,1-.29-.16,1.26,1.26,0,0,0-.26-.14,1.39,1.39,0,0,0-.55-.07,2.71,2.71,0,0,0-.71.1,2.06,2.06,0,0,0-.63.31,1.63,1.63,0,0,0-.45.53,1.49,1.49,0,0,0-.16.71V32a5.4,5.4,0,0,1-.09.91,1,1,0,0,1-.49.69A2.62,2.62,0,0,1,144.1,33.85Z"/><path class="cls-3" d="M159.3,34a2.2,2.2,0,0,1-1-.22,1.47,1.47,0,0,1-.67-.7l-4.49-9a2,2,0,0,1-.26-1.49A2,2,0,0,1,154,21.51a2.39,2.39,0,0,1,1.51-.31c.37.09.71.49,1,1.19l2.8,6.5,2.8-6.42c.3-.72.64-1.14,1-1.25a2.24,2.24,0,0,1,1.57.32c.68.32,1.06.69,1.13,1.12a2.32,2.32,0,0,1-.31,1.46L161,33a1.48,1.48,0,0,1-.65.7A2.28,2.28,0,0,1,159.3,34Z"/><path class="cls-3" d="M178.1,33.85a2.33,2.33,0,0,1-1.37-.33.88.88,0,0,1-.42-.8l.25-.42a2.82,2.82,0,0,1-.58.61,4.28,4.28,0,0,1-1.11.65,4.38,4.38,0,0,1-1.67.29,5,5,0,0,1-2.18-.5A6,6,0,0,1,169.18,32a7,7,0,0,1-1.27-2,6,6,0,0,1-.48-2.37,5.83,5.83,0,0,1,.48-2.34,6.72,6.72,0,0,1,1.29-2A6.07,6.07,0,0,1,171,21.9a4.77,4.77,0,0,1,2.17-.5,4.35,4.35,0,0,1,1.58.26,4.57,4.57,0,0,1,1.08.61,3.53,3.53,0,0,1,.67.68l-.23-.35a1.05,1.05,0,0,1,.44-.91,2.4,2.4,0,0,1,1.39-.31,2.28,2.28,0,0,1,1.28.27,1.16,1.16,0,0,1,.48.73,4.79,4.79,0,0,1,.09.95V32a4.73,4.73,0,0,1-.09.93,1.08,1.08,0,0,1-.47.71A2.52,2.52,0,0,1,178.1,33.85Zm-4.37-3.73a2.21,2.21,0,0,0,1.2-.33,2.6,2.6,0,0,0,.85-.92,2.48,2.48,0,0,0,.33-1.27,2.53,2.53,0,0,0-.33-1.29,2.4,2.4,0,0,0-.87-.89,2.42,2.42,0,0,0-1.23-.32,2.47,2.47,0,0,0-1.26.33,2.64,2.64,0,0,0-.9.92,2.54,2.54,0,0,0-.34,1.3,2.37,2.37,0,0,0,.34,1.23,2.41,2.41,0,0,0,.92.9A2.51,2.51,0,0,0,173.73,30.12Z"/><path class="cls-3" d="M187,34.08a8.15,8.15,0,0,1-1.48-.15,8.68,8.68,0,0,1-1.53-.44,5.22,5.22,0,0,1-1.25-.67,1.33,1.33,0,0,1-.57-.89,1.42,1.42,0,0,1,0-.54,2.32,2.32,0,0,1,.22-.6,4.44,4.44,0,0,1,.44-.66.94.94,0,0,1,.44-.35,1.09,1.09,0,0,1,.59,0,3.28,3.28,0,0,1,.8.27l.82.4a8.59,8.59,0,0,0,.88.37,2.63,2.63,0,0,0,.92.17,2.19,2.19,0,0,0,1.09-.22.64.64,0,0,0,.39-.58.61.61,0,0,0-.17-.45,1.18,1.18,0,0,0-.45-.3,4,4,0,0,0-.67-.24q-.39-.12-.81-.21c-.29-.07-.59-.15-.9-.25a7.89,7.89,0,0,1-1.19-.46,4,4,0,0,1-1-.71,3.3,3.3,0,0,1-.74-1.07,4.05,4.05,0,0,1-.27-1.57,3.61,3.61,0,0,1,.56-2.05,3.51,3.51,0,0,1,1.67-1.26,7.35,7.35,0,0,1,2.7-.43,6.79,6.79,0,0,1,.9.05,5.26,5.26,0,0,1,.88.17c.3.09.58.19.87.3a7.55,7.55,0,0,1,.85.43,1.12,1.12,0,0,1,.77.95,2.08,2.08,0,0,1-.42,1.25,2.17,2.17,0,0,1-.58.59.89.89,0,0,1-.63.13,3.82,3.82,0,0,1-.86-.34c-.31-.15-.63-.3-1-.43a2.65,2.65,0,0,0-1-.2,2,2,0,0,0-.72.11.94.94,0,0,0-.45.3.67.67,0,0,0-.15.44.69.69,0,0,0,.19.51,1.39,1.39,0,0,0,.51.31,6.19,6.19,0,0,0,.75.23l.92.2a10.8,10.8,0,0,1,1.39.34,4.44,4.44,0,0,1,1.3.61,3,3,0,0,1,.95,1.07,3.8,3.8,0,0,1,.36,1.78,3.56,3.56,0,0,1-1.38,3A6.33,6.33,0,0,1,187,34.08Z"/><path class="cls-3" d="M207.15,34.12a7.12,7.12,0,0,1-3-.58A5.84,5.84,0,0,1,202.08,32a6.61,6.61,0,0,1-1.2-2.09,6.88,6.88,0,0,1-.4-2.3,6.54,6.54,0,0,1,.85-3.33A6.19,6.19,0,0,1,203.7,22a7,7,0,0,1,3.46-.84,6.18,6.18,0,0,1,2.51.47,5.23,5.23,0,0,1,1.75,1.2,5.1,5.1,0,0,1,1,1.59,4.42,4.42,0,0,1,.33,1.62,2.82,2.82,0,0,1-.66,2.05,2.28,2.28,0,0,1-1.69.68h-6a1.77,1.77,0,0,0,.46,1.08,2.85,2.85,0,0,0,1,.7,3.7,3.7,0,0,0,1.33.25,8.05,8.05,0,0,0,1-.06,3.7,3.7,0,0,0,.79-.18c.22-.07.41-.15.59-.22a4.44,4.44,0,0,1,.49-.19,2.53,2.53,0,0,1,.42-.1,1,1,0,0,1,.68.21,2.16,2.16,0,0,1,.57.72,1.61,1.61,0,0,1,.24.52,2.14,2.14,0,0,1,.06.5,1.36,1.36,0,0,1-.61,1.09,4.74,4.74,0,0,1-1.73.73A11,11,0,0,1,207.15,34.12Zm-2.67-7.4h4a1.06,1.06,0,0,0,.58-.14.62.62,0,0,0,.2-.54,1.18,1.18,0,0,0-.28-.77,1.84,1.84,0,0,0-.73-.54,3.2,3.2,0,0,0-2.44.11,2.47,2.47,0,0,0-.94.8A1.92,1.92,0,0,0,204.48,26.72Z"/><path class="cls-3" d="M216.75,33.87a2.41,2.41,0,0,1-1.31-.26,1,1,0,0,1-.47-.7,4.53,4.53,0,0,1-.09-.91V23.2a4.21,4.21,0,0,1,.08-.89,1,1,0,0,1,.49-.66,2.6,2.6,0,0,1,1.33-.25,2.49,2.49,0,0,1,1.17.21,1,1,0,0,1,.49.52,1.64,1.64,0,0,1,.11.56,1,1,0,0,0,.05.36l-.15.47a1.43,1.43,0,0,1,.39-.76,3.53,3.53,0,0,1,.85-.7,4.32,4.32,0,0,1,1.1-.48A4,4,0,0,1,222,21.4a5.05,5.05,0,0,1,2.14.44,4.29,4.29,0,0,1,1.58,1.26,5.65,5.65,0,0,1,1,1.94,8.22,8.22,0,0,1,.34,2.44V32a5.31,5.31,0,0,1-.08.91,1.06,1.06,0,0,1-.48.69,3.6,3.6,0,0,1-2.66,0,1.08,1.08,0,0,1-.49-.7,4.63,4.63,0,0,1-.09-.92V27.48A2.92,2.92,0,0,0,223,26.2a1.93,1.93,0,0,0-.75-.8,2.5,2.5,0,0,0-1.22-.27,2.59,2.59,0,0,0-1.25.28,2,2,0,0,0-.81.81,2.59,2.59,0,0,0-.29,1.25V32a4.56,4.56,0,0,1-.09.92,1,1,0,0,1-.47.68A2.53,2.53,0,0,1,216.75,33.87Z"/><path class="cls-3" d="M235.63,34a6.64,6.64,0,0,1-2.24-.41,7,7,0,0,1-2.1-1.22,5.77,5.77,0,0,1-1.53-2,6.21,6.21,0,0,1-.58-2.75,6,6,0,0,1,2.1-4.7,7.08,7.08,0,0,1,2.09-1.21,6.62,6.62,0,0,1,2.22-.41,6.08,6.08,0,0,1,1.66.21,5.88,5.88,0,0,1,1.25.52,3.77,3.77,0,0,1,.73.52,7.31,7.31,0,0,1,.75.65,1.05,1.05,0,0,1,.3.85,1.43,1.43,0,0,1-.17.57,4.41,4.41,0,0,1-.38.58c-.51.7-1,1-1.5.95a2.12,2.12,0,0,1-.68-.25l-.6-.35a4.48,4.48,0,0,0-.62-.31,1.89,1.89,0,0,0-.75-.14,2.5,2.5,0,0,0-1.3.34,2.53,2.53,0,0,0-.91.9,2.44,2.44,0,0,0-.34,1.31,2.53,2.53,0,0,0,1.24,2.21,2.33,2.33,0,0,0,1.26.34,2.39,2.39,0,0,0,.73-.1,2.33,2.33,0,0,0,.55-.24l.35-.21.57-.36a1.05,1.05,0,0,1,.55-.16,1.21,1.21,0,0,1,.74.26,4.1,4.1,0,0,1,.81.84,2.07,2.07,0,0,1,.49,1,1.22,1.22,0,0,1-.22.87,2.68,2.68,0,0,1-.85.76,5.06,5.06,0,0,1-.71.45,7.21,7.21,0,0,1-1.25.5A5.7,5.7,0,0,1,235.63,34Z"/><path class="cls-3" d="M252.78,33.9a2.42,2.42,0,0,1-1.38-.33.89.89,0,0,1-.42-.8l.25-.43a2.59,2.59,0,0,1-.58.62,4.39,4.39,0,0,1-1.11.65,4.34,4.34,0,0,1-1.66.28,5,5,0,0,1-2.19-.5A6,6,0,0,1,243.85,32a7.21,7.21,0,0,1-1.27-2,6.13,6.13,0,0,1,0-4.71,6.9,6.9,0,0,1,1.29-2,6.37,6.37,0,0,1,1.84-1.36,4.94,4.94,0,0,1,2.18-.5,4.09,4.09,0,0,1,1.57.27,4.32,4.32,0,0,1,1.09.61,3.43,3.43,0,0,1,.66.67l-.23-.35a1.05,1.05,0,0,1,.44-.91,2.42,2.42,0,0,1,1.39-.31,2.24,2.24,0,0,1,1.29.28,1.1,1.1,0,0,1,.47.72,4.86,4.86,0,0,1,.09.95V32a5.62,5.62,0,0,1-.08.92,1.07,1.07,0,0,1-.48.71A2.39,2.39,0,0,1,252.78,33.9Zm-4.38-3.73a2.19,2.19,0,0,0,1.2-.34,2.51,2.51,0,0,0,.86-.91,2.61,2.61,0,0,0,.32-1.28,2.56,2.56,0,0,0-.32-1.28,2.35,2.35,0,0,0-.88-.89,2.3,2.3,0,0,0-1.22-.33,2.33,2.33,0,0,0-1.26.34,2.48,2.48,0,0,0-1.24,2.21,2.42,2.42,0,0,0,.33,1.24,2.67,2.67,0,0,0,.93.9A2.58,2.58,0,0,0,248.4,30.17Z"/><path class="cls-3" d="M255.05,39.05a4.31,4.31,0,0,1-.88-.09,1.15,1.15,0,0,1-.7-.48,2.3,2.3,0,0,1-.27-1.28,2.12,2.12,0,0,1,.28-1.24,1.15,1.15,0,0,1,.7-.49,3.82,3.82,0,0,1,.92-.1,3.53,3.53,0,0,0,.7-.07,1.78,1.78,0,0,0,.7-.32,1.62,1.62,0,0,0,.53-.68,3,3,0,0,0,.2-1.18v-10a3.77,3.77,0,0,1,.1-.83,1.13,1.13,0,0,1,.5-.65,2.6,2.6,0,0,1,1.28-.25,2.33,2.33,0,0,1,1.29.28,1.09,1.09,0,0,1,.46.7,5.14,5.14,0,0,1,.07.9v10a5.76,5.76,0,0,1-.52,2.54,5.44,5.44,0,0,1-1.36,1.83,5.73,5.73,0,0,1-1.9,1.09A6.2,6.2,0,0,1,255.05,39.05Zm4-19.45a2,2,0,0,1-1.47-.41,2.23,2.23,0,0,1-.4-1.54,2.08,2.08,0,0,1,.4-1.48,2.18,2.18,0,0,1,1.52-.4,2.06,2.06,0,0,1,1.49.41,2.14,2.14,0,0,1,.39,1.5,2.22,2.22,0,0,1-.4,1.51A2.17,2.17,0,0,1,259.06,19.6Z"/><path class="cls-3" d="M273.75,33.91a2.33,2.33,0,0,1-1.37-.33.91.91,0,0,1-.43-.8l.25-.42a3,3,0,0,1-.57.61,4.35,4.35,0,0,1-1.12.65,4.29,4.29,0,0,1-1.66.29,5.09,5.09,0,0,1-2.19-.51A5.7,5.7,0,0,1,264.83,32a7,7,0,0,1-1.27-2,6,6,0,0,1-.48-2.37,5.83,5.83,0,0,1,.48-2.34A6.59,6.59,0,0,1,266.68,22a4.83,4.83,0,0,1,2.18-.49,4.06,4.06,0,0,1,1.57.26,4.15,4.15,0,0,1,1.09.61,3.2,3.2,0,0,1,.66.68l-.22-.35a1.07,1.07,0,0,1,.44-.92,2.47,2.47,0,0,1,1.38-.31,2.3,2.3,0,0,1,1.29.28,1.11,1.11,0,0,1,.48.72,5.8,5.8,0,0,1,.08.95V32a4.63,4.63,0,0,1-.09.92,1.11,1.11,0,0,1-.48.72A2.45,2.45,0,0,1,273.75,33.91Zm-4.37-3.73a2.13,2.13,0,0,0,1.2-.34,2.57,2.57,0,0,0,.85-.91,2.51,2.51,0,0,0,.33-1.27,2.48,2.48,0,0,0-.33-1.29,2.4,2.4,0,0,0-.87-.89,2.35,2.35,0,0,0-1.23-.32,2.44,2.44,0,0,0-1.26.33,2.53,2.53,0,0,0-.9.91,2.5,2.5,0,0,0-.34,1.3,2.31,2.31,0,0,0,.34,1.24,2.41,2.41,0,0,0,.92.9A2.49,2.49,0,0,0,269.38,30.18Z"/><path class="cls-3" d="M283.48,33.91a5.07,5.07,0,0,1-2.18-.48,6,6,0,0,1-1.82-1.37,6.54,6.54,0,0,1-1.72-4.42,6,6,0,0,1,.46-2.34A6.52,6.52,0,0,1,281.33,22a4.91,4.91,0,0,1,2.15-.5,4.29,4.29,0,0,1,3.64,1.83,6.48,6.48,0,0,1,.94,2,9.53,9.53,0,0,1,.35,2.35,9.28,9.28,0,0,1-.31,2.4,6.32,6.32,0,0,1-.92,2,4.75,4.75,0,0,1-1.55,1.38A4.41,4.41,0,0,1,283.48,33.91Zm.5-3.7a2.27,2.27,0,0,0,1.21-.33,2.74,2.74,0,0,0,.88-.91,2.66,2.66,0,0,0,.34-1.28,2.52,2.52,0,0,0-1.2-2.16,2.32,2.32,0,0,0-1.25-.34,2.49,2.49,0,0,0-1.24.32,2.31,2.31,0,0,0-.88.9,2.75,2.75,0,0,0-.31,1.28,2.6,2.6,0,0,0,.32,1.27A2.43,2.43,0,0,0,284,30.21Zm4.35,3.73a2.38,2.38,0,0,1-1.27-.27,1.32,1.32,0,0,1-.53-.85V17.67a6.77,6.77,0,0,1,.06-.92A1,1,0,0,1,287,16a2.24,2.24,0,0,1,1.27-.27,2.39,2.39,0,0,1,1.33.26,1.08,1.08,0,0,1,.47.69,3.82,3.82,0,0,1,.1.92V32a5.52,5.52,0,0,1-.08.92,1.15,1.15,0,0,1-.48.71A2.39,2.39,0,0,1,288.33,33.94Z"/><path class="cls-3" d="M302.93,33.93a2.34,2.34,0,0,1-1.38-.33.89.89,0,0,1-.42-.8l.25-.43a2.59,2.59,0,0,1-.58.62,4.39,4.39,0,0,1-1.11.65,4.34,4.34,0,0,1-1.66.28,4.88,4.88,0,0,1-2.19-.5A6,6,0,0,1,294,32a7.21,7.21,0,0,1-1.27-2,6.13,6.13,0,0,1,0-4.71,6.9,6.9,0,0,1,1.29-2A6.24,6.24,0,0,1,295.86,22a4.93,4.93,0,0,1,2.17-.5,4.11,4.11,0,0,1,1.58.27,4.5,4.5,0,0,1,1.09.61,3.43,3.43,0,0,1,.66.67l-.23-.35a1.05,1.05,0,0,1,.44-.91,2.4,2.4,0,0,1,1.39-.31,2.24,2.24,0,0,1,1.29.28,1.14,1.14,0,0,1,.47.72,4.86,4.86,0,0,1,.09.95V32a5.62,5.62,0,0,1-.08.92,1.07,1.07,0,0,1-.48.71A2.39,2.39,0,0,1,302.93,33.93Zm-4.38-3.73a2.13,2.13,0,0,0,1.2-.34,2.48,2.48,0,0,0,.85-.91,2.52,2.52,0,0,0,.33-1.28,2.56,2.56,0,0,0-.32-1.28,2.42,2.42,0,0,0-.88-.89,2.33,2.33,0,0,0-1.22-.33,2.39,2.39,0,0,0-1.27.34,2.61,2.61,0,0,0-.9.91,2.68,2.68,0,0,0-.34,1.3,2.43,2.43,0,0,0,.34,1.24,2.67,2.67,0,0,0,.93.9A2.58,2.58,0,0,0,298.55,30.2Z"/><path class="cls-3" d="M311.8,34.16a8,8,0,0,1-1.47-.16,8.53,8.53,0,0,1-1.54-.43,5.43,5.43,0,0,1-1.25-.68A1.26,1.26,0,0,1,307,32a1.19,1.19,0,0,1,0-.53,2.12,2.12,0,0,1,.23-.6,4.12,4.12,0,0,1,.43-.67.94.94,0,0,1,.44-.35,1,1,0,0,1,.59,0,3.55,3.55,0,0,1,.8.26l.82.4c.29.14.58.27.88.38a2.66,2.66,0,0,0,.92.16,2.32,2.32,0,0,0,1.09-.21.65.65,0,0,0,.39-.59.69.69,0,0,0-.16-.45,1.6,1.6,0,0,0-.45-.3c-.2-.08-.42-.16-.68-.24l-.81-.21c-.28-.07-.59-.15-.9-.25a9.05,9.05,0,0,1-1.19-.45,4,4,0,0,1-1.05-.71,3.17,3.17,0,0,1-.73-1.08,3.82,3.82,0,0,1-.28-1.56,3.59,3.59,0,0,1,.56-2.05,3.51,3.51,0,0,1,1.67-1.26,7.34,7.34,0,0,1,2.7-.44c.3,0,.6,0,.9,0a5.62,5.62,0,0,1,.89.18,6.74,6.74,0,0,1,.86.3,7.42,7.42,0,0,1,.85.42c.5.24.76.55.77.95a2.39,2.39,0,0,1-1,1.84.88.88,0,0,1-.62.14,4.2,4.2,0,0,1-.87-.34,8.63,8.63,0,0,0-1-.44,2.84,2.84,0,0,0-1-.2,2.2,2.2,0,0,0-.73.11,1.11,1.11,0,0,0-.45.3.69.69,0,0,0-.15.44.66.66,0,0,0,.19.51,1.4,1.4,0,0,0,.51.32,7.67,7.67,0,0,0,.75.22l.93.2c.45.09.91.2,1.38.34a4.71,4.71,0,0,1,1.3.61,3,3,0,0,1,.95,1.08,3.76,3.76,0,0,1,.36,1.77,3.6,3.6,0,0,1-1.37,3A6.38,6.38,0,0,1,311.8,34.16Z"/><path class="cls-2" d="M119.73,34a8.64,8.64,0,0,1-2.33-.34A9.39,9.39,0,0,1,115,32.65a9.05,9.05,0,0,1-2.13-1.79,8.09,8.09,0,0,1-1.51-2.55,9,9,0,0,1-.56-3.33,8.58,8.58,0,0,1,.56-3.23,8.06,8.06,0,0,1,1.51-2.46A9.24,9.24,0,0,1,115,17.55a9.69,9.69,0,0,1,2.41-1,8.89,8.89,0,0,1,2.39-.34,7.48,7.48,0,0,1,2.23.3,8.25,8.25,0,0,1,1.53.63l.76.42a7.94,7.94,0,0,1,.85.65,1.25,1.25,0,0,1,.43.9,1.61,1.61,0,0,1-.12.6,2.24,2.24,0,0,1-.33.6,3.23,3.23,0,0,1-.78.84,1.16,1.16,0,0,1-1.3.11c-.18-.1-.4-.23-.65-.4a4.72,4.72,0,0,0-.5-.31,3.44,3.44,0,0,0-.88-.34,5.78,5.78,0,0,0-3.15.15,5.12,5.12,0,0,0-1.64.92,4.58,4.58,0,0,0-1.2,1.59,5.3,5.3,0,0,0-.45,2.26,4.92,4.92,0,0,0,.46,2.25,4.57,4.57,0,0,0,1.21,1.58,5.29,5.29,0,0,0,3.37,1.25,4.73,4.73,0,0,0,1.28-.15,4.9,4.9,0,0,0,.92-.36c.27-.14.49-.27.68-.39l.56-.32a1.26,1.26,0,0,1,.59-.15,1.19,1.19,0,0,1,.71.27,3.44,3.44,0,0,1,.74.88,2.6,2.6,0,0,1,.33.64,1.66,1.66,0,0,1,.12.61,1,1,0,0,1-.42.86,6.38,6.38,0,0,1-.86.61l-.75.44a7.19,7.19,0,0,1-1.53.62A7.59,7.59,0,0,1,119.73,34Z"/><path class="cls-2" d="M133.1,33.82a5.24,5.24,0,0,1-2.17-.45,5.33,5.33,0,0,1-1.75-1.26A5.59,5.59,0,0,1,128,30.18a6.81,6.81,0,0,1-.41-2.43V23.22a4.42,4.42,0,0,1,.09-.92,1.08,1.08,0,0,1,.49-.7,2.31,2.31,0,0,1,1.32-.28,2.25,2.25,0,0,1,1.31.28,1.12,1.12,0,0,1,.48.71,4.62,4.62,0,0,1,.09.94v4.5a2.92,2.92,0,0,0,.26,1.26,1.8,1.8,0,0,0,.78.81,2.43,2.43,0,0,0,1.21.28,2.53,2.53,0,0,0,1.24-.29,2,2,0,0,0,.8-.81,2.59,2.59,0,0,0,.29-1.25V23.2a4.59,4.59,0,0,1,.09-.93,1,1,0,0,1,.49-.68,2.42,2.42,0,0,1,1.32-.26,2.35,2.35,0,0,1,1.31.27,1.15,1.15,0,0,1,.48.71,4.63,4.63,0,0,1,.09.92V32a4.26,4.26,0,0,1-.09.89,1,1,0,0,1-.49.66,2.61,2.61,0,0,1-1.3.25,2.86,2.86,0,0,1-1-.15,1.35,1.35,0,0,1-.56-.38,1.16,1.16,0,0,1-.21-.47,2.48,2.48,0,0,1,0-.45l.32-.28a3.06,3.06,0,0,1-.33.39,5.22,5.22,0,0,1-.66.57,4,4,0,0,1-1,.54A3.37,3.37,0,0,1,133.1,33.82Z"/><path class="cls-2" d="M144.1,33.85a2.41,2.41,0,0,1-1.31-.26,1.06,1.06,0,0,1-.47-.71,4.73,4.73,0,0,1-.09-.93V23.23a5.46,5.46,0,0,1,.08-.93,1.08,1.08,0,0,1,.49-.68,2.47,2.47,0,0,1,1.33-.27,2.61,2.61,0,0,1,1.26.24,1.06,1.06,0,0,1,.49.55,2.08,2.08,0,0,1,.1.54l-.3.15a2,2,0,0,1,.26-.36,3.2,3.2,0,0,1,.59-.55,3.71,3.71,0,0,1,.91-.49,3.62,3.62,0,0,1,1.24-.2c.18,0,.38,0,.61,0a4.89,4.89,0,0,1,.7.15,3.32,3.32,0,0,1,.66.3,1.8,1.8,0,0,1,.49.46,1.24,1.24,0,0,1,.19.68,3.06,3.06,0,0,1-.48,1.74,1.42,1.42,0,0,1-1.2.71,2.11,2.11,0,0,1-.6-.06,1.3,1.3,0,0,1-.29-.16,1.26,1.26,0,0,0-.26-.14,1.39,1.39,0,0,0-.55-.07,2.71,2.71,0,0,0-.71.1,2.06,2.06,0,0,0-.63.31,1.63,1.63,0,0,0-.45.53,1.49,1.49,0,0,0-.16.71V32a5.4,5.4,0,0,1-.09.91,1,1,0,0,1-.49.69A2.62,2.62,0,0,1,144.1,33.85Z"/><path class="cls-2" d="M159.3,34a2.2,2.2,0,0,1-1-.22,1.47,1.47,0,0,1-.67-.7l-4.49-9a2,2,0,0,1-.26-1.49A2,2,0,0,1,154,21.51a2.39,2.39,0,0,1,1.51-.31c.37.09.71.49,1,1.19l2.8,6.5,2.8-6.42c.3-.72.64-1.14,1-1.25a2.24,2.24,0,0,1,1.57.32c.68.32,1.06.69,1.13,1.12a2.32,2.32,0,0,1-.31,1.46L161,33a1.48,1.48,0,0,1-.65.7A2.28,2.28,0,0,1,159.3,34Z"/><path class="cls-2" d="M178.1,33.85a2.33,2.33,0,0,1-1.37-.33.88.88,0,0,1-.42-.8l.25-.42a2.82,2.82,0,0,1-.58.61,4.28,4.28,0,0,1-1.11.65,4.38,4.38,0,0,1-1.67.29,5,5,0,0,1-2.18-.5A6,6,0,0,1,169.18,32a7,7,0,0,1-1.27-2,6,6,0,0,1-.48-2.37,5.83,5.83,0,0,1,.48-2.34,6.72,6.72,0,0,1,1.29-2A6.07,6.07,0,0,1,171,21.9a4.77,4.77,0,0,1,2.17-.5,4.35,4.35,0,0,1,1.58.26,4.57,4.57,0,0,1,1.08.61,3.53,3.53,0,0,1,.67.68l-.23-.35a1.05,1.05,0,0,1,.44-.91,2.4,2.4,0,0,1,1.39-.31,2.28,2.28,0,0,1,1.28.27,1.16,1.16,0,0,1,.48.73,4.79,4.79,0,0,1,.09.95V32a4.73,4.73,0,0,1-.09.93,1.08,1.08,0,0,1-.47.71A2.52,2.52,0,0,1,178.1,33.85Zm-4.37-3.73a2.21,2.21,0,0,0,1.2-.33,2.6,2.6,0,0,0,.85-.92,2.48,2.48,0,0,0,.33-1.27,2.53,2.53,0,0,0-.33-1.29,2.4,2.4,0,0,0-.87-.89,2.42,2.42,0,0,0-1.23-.32,2.47,2.47,0,0,0-1.26.33,2.64,2.64,0,0,0-.9.92,2.54,2.54,0,0,0-.34,1.3,2.37,2.37,0,0,0,.34,1.23,2.41,2.41,0,0,0,.92.9A2.51,2.51,0,0,0,173.73,30.12Z"/><path class="cls-2" d="M187,34.08a8.15,8.15,0,0,1-1.48-.15,8.68,8.68,0,0,1-1.53-.44,5.22,5.22,0,0,1-1.25-.67,1.33,1.33,0,0,1-.57-.89,1.42,1.42,0,0,1,0-.54,2.32,2.32,0,0,1,.22-.6,4.44,4.44,0,0,1,.44-.66.94.94,0,0,1,.44-.35,1.09,1.09,0,0,1,.59,0,3.28,3.28,0,0,1,.8.27l.82.4a8.59,8.59,0,0,0,.88.37,2.63,2.63,0,0,0,.92.17,2.19,2.19,0,0,0,1.09-.22.64.64,0,0,0,.39-.58.61.61,0,0,0-.17-.45,1.18,1.18,0,0,0-.45-.3,4,4,0,0,0-.67-.24q-.39-.12-.81-.21c-.29-.07-.59-.15-.9-.25a7.89,7.89,0,0,1-1.19-.46,4,4,0,0,1-1-.71,3.3,3.3,0,0,1-.74-1.07,4.05,4.05,0,0,1-.27-1.57,3.61,3.61,0,0,1,.56-2.05,3.51,3.51,0,0,1,1.67-1.26,7.35,7.35,0,0,1,2.7-.43,6.79,6.79,0,0,1,.9.05,5.26,5.26,0,0,1,.88.17c.3.09.58.19.87.3a7.55,7.55,0,0,1,.85.43,1.12,1.12,0,0,1,.77.95,2.08,2.08,0,0,1-.42,1.25,2.17,2.17,0,0,1-.58.59.89.89,0,0,1-.63.13,3.82,3.82,0,0,1-.86-.34c-.31-.15-.63-.3-1-.43a2.65,2.65,0,0,0-1-.2,2,2,0,0,0-.72.11.94.94,0,0,0-.45.3.67.67,0,0,0-.15.44.69.69,0,0,0,.19.51,1.39,1.39,0,0,0,.51.31,6.19,6.19,0,0,0,.75.23l.92.2a10.8,10.8,0,0,1,1.39.34,4.44,4.44,0,0,1,1.3.61,3,3,0,0,1,.95,1.07,3.8,3.8,0,0,1,.36,1.78,3.56,3.56,0,0,1-1.38,3A6.33,6.33,0,0,1,187,34.08Z"/><path class="cls-2" d="M207.15,34.12a7.12,7.12,0,0,1-3-.58A5.84,5.84,0,0,1,202.08,32a6.61,6.61,0,0,1-1.2-2.09,6.88,6.88,0,0,1-.4-2.3,6.54,6.54,0,0,1,.85-3.33A6.19,6.19,0,0,1,203.7,22a7,7,0,0,1,3.46-.84,6.18,6.18,0,0,1,2.51.47,5.23,5.23,0,0,1,1.75,1.2,5.1,5.1,0,0,1,1,1.59,4.42,4.42,0,0,1,.33,1.62,2.82,2.82,0,0,1-.66,2.05,2.28,2.28,0,0,1-1.69.68h-6a1.77,1.77,0,0,0,.46,1.08,2.85,2.85,0,0,0,1,.7,3.7,3.7,0,0,0,1.33.25,8.05,8.05,0,0,0,1-.06,3.7,3.7,0,0,0,.79-.18c.22-.07.41-.15.59-.22a4.44,4.44,0,0,1,.49-.19,2.53,2.53,0,0,1,.42-.1,1,1,0,0,1,.68.21,2.16,2.16,0,0,1,.57.72,1.61,1.61,0,0,1,.24.52,2.14,2.14,0,0,1,.06.5,1.36,1.36,0,0,1-.61,1.09,4.74,4.74,0,0,1-1.73.73A11,11,0,0,1,207.15,34.12Zm-2.67-7.4h4a1.06,1.06,0,0,0,.58-.14.62.62,0,0,0,.2-.54,1.18,1.18,0,0,0-.28-.77,1.84,1.84,0,0,0-.73-.54,3.2,3.2,0,0,0-2.44.11,2.47,2.47,0,0,0-.94.8A1.92,1.92,0,0,0,204.48,26.72Z"/><path class="cls-2" d="M216.75,33.87a2.41,2.41,0,0,1-1.31-.26,1,1,0,0,1-.47-.7,4.53,4.53,0,0,1-.09-.91V23.2a4.21,4.21,0,0,1,.08-.89,1,1,0,0,1,.49-.66,2.6,2.6,0,0,1,1.33-.25,2.49,2.49,0,0,1,1.17.21,1,1,0,0,1,.49.52,1.64,1.64,0,0,1,.11.56,1,1,0,0,0,.05.36l-.15.47a1.43,1.43,0,0,1,.39-.76,3.53,3.53,0,0,1,.85-.7,4.32,4.32,0,0,1,1.1-.48A4,4,0,0,1,222,21.4a5.05,5.05,0,0,1,2.14.44,4.29,4.29,0,0,1,1.58,1.26,5.65,5.65,0,0,1,1,1.94,8.22,8.22,0,0,1,.34,2.44V32a5.31,5.31,0,0,1-.08.91,1.06,1.06,0,0,1-.48.69,3.6,3.6,0,0,1-2.66,0,1.08,1.08,0,0,1-.49-.7,4.63,4.63,0,0,1-.09-.92V27.48A2.92,2.92,0,0,0,223,26.2a1.93,1.93,0,0,0-.75-.8,2.5,2.5,0,0,0-1.22-.27,2.59,2.59,0,0,0-1.25.28,2,2,0,0,0-.81.81,2.59,2.59,0,0,0-.29,1.25V32a4.56,4.56,0,0,1-.09.92,1,1,0,0,1-.47.68A2.53,2.53,0,0,1,216.75,33.87Z"/><path class="cls-2" d="M235.63,34a6.64,6.64,0,0,1-2.24-.41,7,7,0,0,1-2.1-1.22,5.77,5.77,0,0,1-1.53-2,6.21,6.21,0,0,1-.58-2.75,6,6,0,0,1,2.1-4.7,7.08,7.08,0,0,1,2.09-1.21,6.62,6.62,0,0,1,2.22-.41,6.08,6.08,0,0,1,1.66.21,5.88,5.88,0,0,1,1.25.52,3.77,3.77,0,0,1,.73.52,7.31,7.31,0,0,1,.75.65,1.05,1.05,0,0,1,.3.85,1.43,1.43,0,0,1-.17.57,4.41,4.41,0,0,1-.38.58c-.51.7-1,1-1.5.95a2.12,2.12,0,0,1-.68-.25l-.6-.35a4.48,4.48,0,0,0-.62-.31,1.89,1.89,0,0,0-.75-.14,2.5,2.5,0,0,0-1.3.34,2.53,2.53,0,0,0-.91.9,2.44,2.44,0,0,0-.34,1.31,2.53,2.53,0,0,0,1.24,2.21,2.33,2.33,0,0,0,1.26.34,2.39,2.39,0,0,0,.73-.1,2.33,2.33,0,0,0,.55-.24l.35-.21.57-.36a1.05,1.05,0,0,1,.55-.16,1.21,1.21,0,0,1,.74.26,4.1,4.1,0,0,1,.81.84,2.07,2.07,0,0,1,.49,1,1.22,1.22,0,0,1-.22.87,2.68,2.68,0,0,1-.85.76,5.06,5.06,0,0,1-.71.45,7.21,7.21,0,0,1-1.25.5A5.7,5.7,0,0,1,235.63,34Z"/><path class="cls-2" d="M252.78,33.9a2.42,2.42,0,0,1-1.38-.33.89.89,0,0,1-.42-.8l.25-.43a2.59,2.59,0,0,1-.58.62,4.39,4.39,0,0,1-1.11.65,4.34,4.34,0,0,1-1.66.28,5,5,0,0,1-2.19-.5A6,6,0,0,1,243.85,32a7.21,7.21,0,0,1-1.27-2,6.13,6.13,0,0,1,0-4.71,6.9,6.9,0,0,1,1.29-2,6.37,6.37,0,0,1,1.84-1.36,4.94,4.94,0,0,1,2.18-.5,4.09,4.09,0,0,1,1.57.27,4.32,4.32,0,0,1,1.09.61,3.43,3.43,0,0,1,.66.67l-.23-.35a1.05,1.05,0,0,1,.44-.91,2.42,2.42,0,0,1,1.39-.31,2.24,2.24,0,0,1,1.29.28,1.1,1.1,0,0,1,.47.72,4.86,4.86,0,0,1,.09.95V32a5.62,5.62,0,0,1-.08.92,1.07,1.07,0,0,1-.48.71A2.39,2.39,0,0,1,252.78,33.9Zm-4.38-3.73a2.19,2.19,0,0,0,1.2-.34,2.51,2.51,0,0,0,.86-.91,2.61,2.61,0,0,0,.32-1.28,2.56,2.56,0,0,0-.32-1.28,2.35,2.35,0,0,0-.88-.89,2.3,2.3,0,0,0-1.22-.33,2.33,2.33,0,0,0-1.26.34,2.48,2.48,0,0,0-1.24,2.21,2.42,2.42,0,0,0,.33,1.24,2.67,2.67,0,0,0,.93.9A2.58,2.58,0,0,0,248.4,30.17Z"/><path class="cls-2" d="M255.05,39.05a4.31,4.31,0,0,1-.88-.09,1.15,1.15,0,0,1-.7-.48,2.3,2.3,0,0,1-.27-1.28,2.12,2.12,0,0,1,.28-1.24,1.15,1.15,0,0,1,.7-.49,3.82,3.82,0,0,1,.92-.1,3.53,3.53,0,0,0,.7-.07,1.78,1.78,0,0,0,.7-.32,1.62,1.62,0,0,0,.53-.68,3,3,0,0,0,.2-1.18v-10a3.77,3.77,0,0,1,.1-.83,1.13,1.13,0,0,1,.5-.65,2.6,2.6,0,0,1,1.28-.25,2.33,2.33,0,0,1,1.29.28,1.09,1.09,0,0,1,.46.7,5.14,5.14,0,0,1,.07.9v10a5.76,5.76,0,0,1-.52,2.54,5.44,5.44,0,0,1-1.36,1.83,5.73,5.73,0,0,1-1.9,1.09A6.2,6.2,0,0,1,255.05,39.05Zm4-19.45a2,2,0,0,1-1.47-.41,2.23,2.23,0,0,1-.4-1.54,2.08,2.08,0,0,1,.4-1.48,2.18,2.18,0,0,1,1.52-.4,2.06,2.06,0,0,1,1.49.41,2.14,2.14,0,0,1,.39,1.5,2.22,2.22,0,0,1-.4,1.51A2.17,2.17,0,0,1,259.06,19.6Z"/><path class="cls-2" d="M273.75,33.91a2.33,2.33,0,0,1-1.37-.33.91.91,0,0,1-.43-.8l.25-.42a3,3,0,0,1-.57.61,4.35,4.35,0,0,1-1.12.65,4.29,4.29,0,0,1-1.66.29,5.09,5.09,0,0,1-2.19-.51A5.7,5.7,0,0,1,264.83,32a7,7,0,0,1-1.27-2,6,6,0,0,1-.48-2.37,5.83,5.83,0,0,1,.48-2.34A6.59,6.59,0,0,1,266.68,22a4.83,4.83,0,0,1,2.18-.49,4.06,4.06,0,0,1,1.57.26,4.15,4.15,0,0,1,1.09.61,3.2,3.2,0,0,1,.66.68l-.22-.35a1.07,1.07,0,0,1,.44-.92,2.47,2.47,0,0,1,1.38-.31,2.3,2.3,0,0,1,1.29.28,1.11,1.11,0,0,1,.48.72,5.8,5.8,0,0,1,.08.95V32a4.63,4.63,0,0,1-.09.92,1.11,1.11,0,0,1-.48.72A2.45,2.45,0,0,1,273.75,33.91Zm-4.37-3.73a2.13,2.13,0,0,0,1.2-.34,2.57,2.57,0,0,0,.85-.91,2.51,2.51,0,0,0,.33-1.27,2.48,2.48,0,0,0-.33-1.29,2.4,2.4,0,0,0-.87-.89,2.35,2.35,0,0,0-1.23-.32,2.44,2.44,0,0,0-1.26.33,2.53,2.53,0,0,0-.9.91,2.5,2.5,0,0,0-.34,1.3,2.31,2.31,0,0,0,.34,1.24,2.41,2.41,0,0,0,.92.9A2.49,2.49,0,0,0,269.38,30.18Z"/><path class="cls-2" d="M283.48,33.91a5.07,5.07,0,0,1-2.18-.48,6,6,0,0,1-1.82-1.37,6.54,6.54,0,0,1-1.72-4.42,6,6,0,0,1,.46-2.34A6.52,6.52,0,0,1,281.33,22a4.91,4.91,0,0,1,2.15-.5,4.29,4.29,0,0,1,3.64,1.83,6.48,6.48,0,0,1,.94,2,9.53,9.53,0,0,1,.35,2.35,9.28,9.28,0,0,1-.31,2.4,6.32,6.32,0,0,1-.92,2,4.75,4.75,0,0,1-1.55,1.38A4.41,4.41,0,0,1,283.48,33.91Zm.5-3.7a2.27,2.27,0,0,0,1.21-.33,2.74,2.74,0,0,0,.88-.91,2.66,2.66,0,0,0,.34-1.28,2.52,2.52,0,0,0-1.2-2.16,2.32,2.32,0,0,0-1.25-.34,2.49,2.49,0,0,0-1.24.32,2.31,2.31,0,0,0-.88.9,2.75,2.75,0,0,0-.31,1.28,2.6,2.6,0,0,0,.32,1.27A2.43,2.43,0,0,0,284,30.21Zm4.35,3.73a2.38,2.38,0,0,1-1.27-.27,1.32,1.32,0,0,1-.53-.85V17.67a6.77,6.77,0,0,1,.06-.92A1,1,0,0,1,287,16a2.24,2.24,0,0,1,1.27-.27,2.39,2.39,0,0,1,1.33.26,1.08,1.08,0,0,1,.47.69,3.82,3.82,0,0,1,.1.92V32a5.52,5.52,0,0,1-.08.92,1.15,1.15,0,0,1-.48.71A2.39,2.39,0,0,1,288.33,33.94Z"/><path class="cls-2" d="M302.93,33.93a2.34,2.34,0,0,1-1.38-.33.89.89,0,0,1-.42-.8l.25-.43a2.59,2.59,0,0,1-.58.62,4.39,4.39,0,0,1-1.11.65,4.34,4.34,0,0,1-1.66.28,4.88,4.88,0,0,1-2.19-.5A6,6,0,0,1,294,32a7.21,7.21,0,0,1-1.27-2,6.13,6.13,0,0,1,0-4.71,6.9,6.9,0,0,1,1.29-2A6.24,6.24,0,0,1,295.86,22a4.93,4.93,0,0,1,2.17-.5,4.11,4.11,0,0,1,1.58.27,4.5,4.5,0,0,1,1.09.61,3.43,3.43,0,0,1,.66.67l-.23-.35a1.05,1.05,0,0,1,.44-.91,2.4,2.4,0,0,1,1.39-.31,2.24,2.24,0,0,1,1.29.28,1.14,1.14,0,0,1,.47.72,4.86,4.86,0,0,1,.09.95V32a5.62,5.62,0,0,1-.08.92,1.07,1.07,0,0,1-.48.71A2.39,2.39,0,0,1,302.93,33.93Zm-4.38-3.73a2.13,2.13,0,0,0,1.2-.34,2.48,2.48,0,0,0,.85-.91,2.52,2.52,0,0,0,.33-1.28,2.56,2.56,0,0,0-.32-1.28,2.42,2.42,0,0,0-.88-.89,2.33,2.33,0,0,0-1.22-.33,2.39,2.39,0,0,0-1.27.34,2.61,2.61,0,0,0-.9.91,2.68,2.68,0,0,0-.34,1.3,2.43,2.43,0,0,0,.34,1.24,2.67,2.67,0,0,0,.93.9A2.58,2.58,0,0,0,298.55,30.2Z"/><path class="cls-2" d="M311.8,34.16a8,8,0,0,1-1.47-.16,8.53,8.53,0,0,1-1.54-.43,5.43,5.43,0,0,1-1.25-.68A1.26,1.26,0,0,1,307,32a1.19,1.19,0,0,1,0-.53,2.12,2.12,0,0,1,.23-.6,4.12,4.12,0,0,1,.43-.67.94.94,0,0,1,.44-.35,1,1,0,0,1,.59,0,3.55,3.55,0,0,1,.8.26l.82.4c.29.14.58.27.88.38a2.66,2.66,0,0,0,.92.16,2.32,2.32,0,0,0,1.09-.21.65.65,0,0,0,.39-.59.69.69,0,0,0-.16-.45,1.6,1.6,0,0,0-.45-.3c-.2-.08-.42-.16-.68-.24l-.81-.21c-.28-.07-.59-.15-.9-.25a9.05,9.05,0,0,1-1.19-.45,4,4,0,0,1-1.05-.71,3.17,3.17,0,0,1-.73-1.08,3.82,3.82,0,0,1-.28-1.56,3.59,3.59,0,0,1,.56-2.05,3.51,3.51,0,0,1,1.67-1.26,7.34,7.34,0,0,1,2.7-.44c.3,0,.6,0,.9,0a5.62,5.62,0,0,1,.89.18,6.74,6.74,0,0,1,.86.3,7.42,7.42,0,0,1,.85.42c.5.24.76.55.77.95a2.39,2.39,0,0,1-1,1.84.88.88,0,0,1-.62.14,4.2,4.2,0,0,1-.87-.34,8.63,8.63,0,0,0-1-.44,2.84,2.84,0,0,0-1-.2,2.2,2.2,0,0,0-.73.11,1.11,1.11,0,0,0-.45.3.69.69,0,0,0-.15.44.66.66,0,0,0,.19.51,1.4,1.4,0,0,0,.51.32,7.67,7.67,0,0,0,.75.22l.93.2c.45.09.91.2,1.38.34a4.71,4.71,0,0,1,1.3.61,3,3,0,0,1,.95,1.08,3.76,3.76,0,0,1,.36,1.77,3.6,3.6,0,0,1-1.37,3A6.38,6.38,0,0,1,311.8,34.16Z"/><path class="cls-4" d="M53.27,22c0-1.37-1.23-2.06-3.7-2.06a19.62,19.62,0,0,0-2.1.15,19.23,19.23,0,0,1-1.94.15q-2.93,0-2.93-3.62t8.48-3.73q5.51,0,8.23,1.84A5.59,5.59,0,0,1,62,19.51a7.74,7.74,0,0,1-3.5,6.64,9.38,9.38,0,0,1,3.31,2.71,7.17,7.17,0,0,1,1,4,7.35,7.35,0,0,1-2.8,6,11.46,11.46,0,0,1-7.48,2.28q-5.87,0-8.41-1.23a4,4,0,0,1-2.54-3.76,3.92,3.92,0,0,1,.82-2.88,3.15,3.15,0,0,1,2.28-.78c.49,0,1.25.06,2.28.17s1.82.17,2.36.17q4.44,0,4.44-1.68a1.62,1.62,0,0,0-.85-1.58,8,8,0,0,0-3.22-.44,6.5,6.5,0,0,1-3.34-.63,2.56,2.56,0,0,1-1-2.35c0-1.73,1.11-2.6,3.34-2.6a17.73,17.73,0,0,0,3.2-.21c.69-.14,1.09-.3,1.2-.49A1.82,1.82,0,0,0,53.27,22Z"/><path class="cls-4" d="M65.4,38a2.78,2.78,0,0,1,1.16-2.31,5.4,5.4,0,0,1,3.28-.88c3,0,4.44,1.07,4.44,3.19a3.11,3.11,0,0,1-.57,2,2.69,2.69,0,0,1-1.51,1,9.11,9.11,0,0,1-2.36.26,6.13,6.13,0,0,1-3.18-.76A2.62,2.62,0,0,1,65.4,38Z"/><path class="cls-4" d="M88.68,22c0-1.37-1.24-2.06-3.71-2.06a20,20,0,0,0-2.1.15,19.08,19.08,0,0,1-1.93.15C79,20.19,78,19,78,16.57s2.83-3.73,8.48-3.73q5.49,0,8.22,1.84a5.63,5.63,0,0,1,2.73,4.83,7.73,7.73,0,0,1-3.51,6.64,9.52,9.52,0,0,1,3.32,2.71,7.18,7.18,0,0,1,1,4,7.31,7.31,0,0,1-2.79,5.94,11.44,11.44,0,0,1-7.48,2.29c-3.91,0-6.72-.41-8.41-1.23A4,4,0,0,1,77,36.15a4,4,0,0,1,.82-2.88,3.15,3.15,0,0,1,2.28-.78c.49,0,1.25.06,2.28.17s1.82.17,2.37.17q4.44,0,4.44-1.68a1.63,1.63,0,0,0-.86-1.58,8,8,0,0,0-3.21-.44,6.47,6.47,0,0,1-3.34-.63,2.56,2.56,0,0,1-1-2.35c0-1.73,1.12-2.6,3.34-2.6a17.65,17.65,0,0,0,3.2-.21c.69-.14,1.09-.3,1.2-.49A1.81,1.81,0,0,0,88.68,22Z"/><path class="cls-5" d="M53.27,22c0-1.37-1.23-2.06-3.7-2.06a19.62,19.62,0,0,0-2.1.15,19.23,19.23,0,0,1-1.94.15q-2.93,0-2.93-3.62t8.48-3.73q5.51,0,8.23,1.84A5.59,5.59,0,0,1,62,19.51a7.74,7.74,0,0,1-3.5,6.64,9.38,9.38,0,0,1,3.31,2.71,7.17,7.17,0,0,1,1,4,7.35,7.35,0,0,1-2.8,6,11.46,11.46,0,0,1-7.48,2.28q-5.87,0-8.41-1.23a4,4,0,0,1-2.54-3.76,3.92,3.92,0,0,1,.82-2.88,3.15,3.15,0,0,1,2.28-.78c.49,0,1.25.06,2.28.17s1.82.17,2.36.17q4.44,0,4.44-1.68a1.62,1.62,0,0,0-.85-1.58,8,8,0,0,0-3.22-.44,6.5,6.5,0,0,1-3.34-.63,2.56,2.56,0,0,1-1-2.35c0-1.73,1.11-2.6,3.34-2.6a17.73,17.73,0,0,0,3.2-.21c.69-.14,1.09-.3,1.2-.49A1.82,1.82,0,0,0,53.27,22Z"/><path class="cls-5" d="M65.4,38a2.78,2.78,0,0,1,1.16-2.31,5.4,5.4,0,0,1,3.28-.88c3,0,4.44,1.07,4.44,3.19a3.11,3.11,0,0,1-.57,2,2.69,2.69,0,0,1-1.51,1,9.11,9.11,0,0,1-2.36.26,6.13,6.13,0,0,1-3.18-.76A2.62,2.62,0,0,1,65.4,38Z"/><path class="cls-5" d="M88.68,22c0-1.37-1.24-2.06-3.71-2.06a20,20,0,0,0-2.1.15,19.08,19.08,0,0,1-1.93.15C79,20.19,78,19,78,16.57s2.83-3.73,8.48-3.73q5.49,0,8.22,1.84a5.63,5.63,0,0,1,2.73,4.83,7.73,7.73,0,0,1-3.51,6.64,9.52,9.52,0,0,1,3.32,2.71,7.18,7.18,0,0,1,1,4,7.31,7.31,0,0,1-2.79,5.94,11.44,11.44,0,0,1-7.48,2.29c-3.91,0-6.72-.41-8.41-1.23A4,4,0,0,1,77,36.15a4,4,0,0,1,.82-2.88,3.15,3.15,0,0,1,2.28-.78c.49,0,1.25.06,2.28.17s1.82.17,2.37.17q4.44,0,4.44-1.68a1.63,1.63,0,0,0-.86-1.58,8,8,0,0,0-3.21-.44,6.47,6.47,0,0,1-3.34-.63,2.56,2.56,0,0,1-1-2.35c0-1.73,1.12-2.6,3.34-2.6a17.65,17.65,0,0,0,3.2-.21c.69-.14,1.09-.3,1.2-.49A1.81,1.81,0,0,0,88.68,22Z"/></g></g></svg>