<svg xmlns="http://www.w3.org/2000/svg" viewBox="0 0 399.98 100.86"><defs><style>.cls-1{fill:#03826e;}.cls-2{fill:#fff;}.cls-3,.cls-4{fill:none;stroke-width:5px;}.cls-3{stroke:#b6ba01;stroke-linejoin:round;}.cls-4{stroke:#fff;}.cls-5{fill:#b6ba01;}</style></defs><title>34t</title><g id="Layer_2" data-name="Layer 2"><g id="pestaña_identificativa" data-name="pestaña identificativa"><rect class="cls-1" width="399.98" height="100.86" rx="27.69"/><path class="cls-2" d="M113.18,33.84a2.46,2.46,0,0,1-1.33-.28,1.11,1.11,0,0,1-.48-.72,4.73,4.73,0,0,1-.09-.93V18.26a3.85,3.85,0,0,1,.1-.91,1.15,1.15,0,0,1,.5-.71,2.35,2.35,0,0,1,1.32-.28h5.13a6.39,6.39,0,0,1,2.1.38,6,6,0,0,1,3.46,3.1,6,6,0,0,1,.56,2.7,6.06,6.06,0,0,1-.56,2.69,5.87,5.87,0,0,1-1.48,1.91,6.15,6.15,0,0,1-2,1.15,6.36,6.36,0,0,1-2.12.37h-3.2v3.28a3.91,3.91,0,0,1-.11.91,1.11,1.11,0,0,1-.5.71A2.31,2.31,0,0,1,113.18,33.84Zm1.93-9h3.22a2.64,2.64,0,0,0,1.09-.23,2.12,2.12,0,0,0,.9-.76,2.59,2.59,0,0,0,.05-2.58,2.18,2.18,0,0,0-.83-.82,2.34,2.34,0,0,0-1.23-.31h-3.2Z"/><path class="cls-2" d="M136.78,33.83a2.34,2.34,0,0,1-1.38-.33.89.89,0,0,1-.42-.8l.25-.43a2.73,2.73,0,0,1-.57.62,4.66,4.66,0,0,1-1.12.65,4.34,4.34,0,0,1-1.66.28,5,5,0,0,1-2.19-.5,5.85,5.85,0,0,1-1.83-1.39,7,7,0,0,1-1.28-2,6.16,6.16,0,0,1-.47-2.38,6,6,0,0,1,.47-2.33,6.9,6.9,0,0,1,1.29-2,6.37,6.37,0,0,1,1.84-1.36,4.94,4.94,0,0,1,2.18-.5,4.09,4.09,0,0,1,1.57.27,4.32,4.32,0,0,1,1.09.61,3.43,3.43,0,0,1,.66.67l-.22-.35a1,1,0,0,1,.43-.91,2.44,2.44,0,0,1,1.39-.31,2.24,2.24,0,0,1,1.29.28,1.07,1.07,0,0,1,.47.72,4.86,4.86,0,0,1,.09.95v8.63a4.7,4.7,0,0,1-.09.92,1.07,1.07,0,0,1-.48.71A2.37,2.37,0,0,1,136.78,33.83Zm-4.37-3.73a2.13,2.13,0,0,0,1.2-.34,2.57,2.57,0,0,0,.85-.91,2.61,2.61,0,0,0,.32-1.28,2.56,2.56,0,0,0-.32-1.28,2.42,2.42,0,0,0-.88-.89,2.3,2.3,0,0,0-1.22-.33,2.33,2.33,0,0,0-1.26.34,2.53,2.53,0,0,0-.9.91,2.5,2.5,0,0,0-.34,1.3,2.34,2.34,0,0,0,.34,1.24,2.56,2.56,0,0,0,.92.9A2.59,2.59,0,0,0,132.41,30.1Z"/><path class="cls-2" d="M141.94,21.55h2.75l3.45-.09a4.43,4.43,0,0,1,.9.09,1.11,1.11,0,0,1,.7.48,2.47,2.47,0,0,1,.27,1.33,2.38,2.38,0,0,1-.26,1.25,1.15,1.15,0,0,1-.69.51,3.39,3.39,0,0,1-.93.11l-3.27-.07-3,0a1.29,1.29,0,0,1-1-.46,2.55,2.55,0,0,1-.29-1.39,2.08,2.08,0,0,1,.36-1.34A1.26,1.26,0,0,1,141.94,21.55Zm5.64,12.31a7.85,7.85,0,0,1-2.2-.28A3.37,3.37,0,0,1,143,31.27a7,7,0,0,1-.28-2.12V19a4.31,4.31,0,0,1,.09-.93,1.08,1.08,0,0,1,.49-.66,2.51,2.51,0,0,1,1.3-.26,2.3,2.3,0,0,1,1.3.28,1.1,1.1,0,0,1,.49.71,5.31,5.31,0,0,1,.08.91V29a3.1,3.1,0,0,0,.06.66.79.79,0,0,0,.19.39.68.68,0,0,0,.35.17,2.19,2.19,0,0,0,.55.05,4.67,4.67,0,0,1,1,.1,1.1,1.1,0,0,1,.66.45,2.19,2.19,0,0,1,.24,1.18,2.3,2.3,0,0,1-.28,1.3,1.07,1.07,0,0,1-.71.47A5.31,5.31,0,0,1,147.58,33.86Z"/><path class="cls-2" d="M153.8,33.86a2.5,2.5,0,0,1-1.31-.26,1.07,1.07,0,0,1-.47-.71,4.73,4.73,0,0,1-.09-.93V23.23a4.44,4.44,0,0,1,.08-.92,1.08,1.08,0,0,1,.49-.69,2.59,2.59,0,0,1,1.33-.26,2.5,2.5,0,0,1,1.26.24,1.06,1.06,0,0,1,.49.55,2.08,2.08,0,0,1,.1.54l-.3.15a2.39,2.39,0,0,1,.26-.37,3.57,3.57,0,0,1,.59-.54,3.14,3.14,0,0,1,.91-.49,3.4,3.4,0,0,1,1.24-.2,4.66,4.66,0,0,1,.61,0,3.14,3.14,0,0,1,.7.15,2.47,2.47,0,0,1,.66.3,1.66,1.66,0,0,1,.49.46,1.13,1.13,0,0,1,.18.68,3,3,0,0,1-.47,1.73,1.4,1.4,0,0,1-1.2.71,2,2,0,0,1-.6-.06,1,1,0,0,1-.29-.15.93.93,0,0,0-.26-.15,1.68,1.68,0,0,0-.55-.06,2.34,2.34,0,0,0-.71.1,1.85,1.85,0,0,0-.63.31,1.6,1.6,0,0,0-.45.52,1.53,1.53,0,0,0-.16.72V32a5.31,5.31,0,0,1-.08.91,1,1,0,0,1-.49.69A2.6,2.6,0,0,1,153.8,33.86Z"/><path class="cls-2" d="M169,34.07a6.4,6.4,0,0,1-2.33-.46,7.11,7.11,0,0,1-2.12-1.32,6.31,6.31,0,0,1-1.51-2,6.41,6.41,0,0,1,0-5.15,6.78,6.78,0,0,1,3.47-3.47,6.16,6.16,0,0,1,2.49-.51,6.33,6.33,0,0,1,3.26.86,6.56,6.56,0,0,1,2.34,2.34,6.71,6.71,0,0,1,.31,6,6.5,6.5,0,0,1-3.58,3.32A6.17,6.17,0,0,1,169,34.07Zm0-3.77a2.81,2.81,0,0,0,1.22-.3,2.67,2.67,0,0,0,1-.9,2.61,2.61,0,0,0,.43-1.53,2.77,2.77,0,0,0-.35-1.4,2.62,2.62,0,0,0-1-.94,3,3,0,0,0-1.42-.34,2.56,2.56,0,0,0-1.33.35,2.68,2.68,0,0,0-.95,1,2.57,2.57,0,0,0-.37,1.38,2.71,2.71,0,0,0,.41,1.52,2.64,2.64,0,0,0,1,.9A3.15,3.15,0,0,0,169,30.3Zm-1-9.83a.85.85,0,0,1-.74-.25,2.63,2.63,0,0,1-.51-1,2,2,0,0,1-.1-1.3,1.39,1.39,0,0,1,.92-.68L172,15.9a.9.9,0,0,1,.73.28,2.4,2.4,0,0,1,.5,1,2,2,0,0,1,.09,1.28,1.34,1.34,0,0,1-.92.67Z"/><path class="cls-2" d="M179.33,33.85a2.45,2.45,0,0,1-1.31-.26,1.1,1.1,0,0,1-.48-.7,4.56,4.56,0,0,1-.09-.92V23.18a4.13,4.13,0,0,1,.09-.89,1,1,0,0,1,.49-.66,3.52,3.52,0,0,1,2.5,0,1,1,0,0,1,.48.51,1.54,1.54,0,0,1,.12.57.84.84,0,0,0,0,.36l-.15.47a1.58,1.58,0,0,1,.39-.76,3.74,3.74,0,0,1,.85-.7,4.73,4.73,0,0,1,1.1-.49,4.3,4.3,0,0,1,1.17-.17,5,5,0,0,1,2.13.44,4.24,4.24,0,0,1,1.59,1.26,6,6,0,0,1,1,1.94,8.52,8.52,0,0,1,.33,2.44V32a4.53,4.53,0,0,1-.09.91,1.08,1.08,0,0,1-.47.69,2.7,2.7,0,0,1-1.34.25,2.47,2.47,0,0,1-1.33-.27,1,1,0,0,1-.48-.7,4.46,4.46,0,0,1-.09-.91V27.45a2.74,2.74,0,0,0-.26-1.27,1.76,1.76,0,0,0-.75-.8,2.46,2.46,0,0,0-1.21-.28,2.57,2.57,0,0,0-1.25.29,2.06,2.06,0,0,0-.82.81,2.59,2.59,0,0,0-.28,1.25V32a5.52,5.52,0,0,1-.08.92,1,1,0,0,1-.48.68A2.49,2.49,0,0,1,179.33,33.85Z"/><path class="cls-2" d="M200.38,33.89a2.28,2.28,0,0,1-1.3-.28,1,1,0,0,1-.48-.7,5.29,5.29,0,0,1-.07-.92V23.24a4.29,4.29,0,0,1,.09-.9,1.06,1.06,0,0,1,.49-.69,2.59,2.59,0,0,1,1.33-.26,2,2,0,0,1,1.34.36,1.47,1.47,0,0,1,.43,1.19l-.33.27a3,3,0,0,1,.3-.42,4.89,4.89,0,0,1,.65-.62,4.13,4.13,0,0,1,.94-.57,3,3,0,0,1,1.17-.23,4.55,4.55,0,0,1,1.48.23,3.85,3.85,0,0,1,1.2.71,4.23,4.23,0,0,1,.94,1.16,6.84,6.84,0,0,1,.85-1,4.93,4.93,0,0,1,1.17-.8,3.58,3.58,0,0,1,1.53-.32,4.15,4.15,0,0,1,2.49.74,4.56,4.56,0,0,1,1.53,2.11,9.38,9.38,0,0,1,.53,3.33V32a4,4,0,0,1-.1.92,1.14,1.14,0,0,1-.48.7,2.52,2.52,0,0,1-1.32.26,2.42,2.42,0,0,1-1.32-.28,1,1,0,0,1-.48-.71,5.41,5.41,0,0,1-.07-.91V27.52a4.1,4.1,0,0,0-.18-1.29,1.9,1.9,0,0,0-.54-.82,1.41,1.41,0,0,0-.9-.29,1.71,1.71,0,0,0-1,.27,1.77,1.77,0,0,0-.6.8,3.92,3.92,0,0,0-.2,1.35V32a3.19,3.19,0,0,1-.13.94,1.22,1.22,0,0,1-.53.7,2.52,2.52,0,0,1-1.34.23,2,2,0,0,1-1.25-.29,1.12,1.12,0,0,1-.45-.72,5.26,5.26,0,0,1-.08-.89V27.52a4.16,4.16,0,0,0-.18-1.3,1.65,1.65,0,0,0-.52-.83,1.49,1.49,0,0,0-.93-.27,1.54,1.54,0,0,0-1,.32,1.9,1.9,0,0,0-.59.86,3.53,3.53,0,0,0-.19,1.21V32a4.45,4.45,0,0,1-.09.93,1.08,1.08,0,0,1-.49.69A2.54,2.54,0,0,1,200.38,33.89Z"/><path class="cls-2" d="M221.11,19.6a2.53,2.53,0,0,1-1.35-.27,1.14,1.14,0,0,1-.49-.73,5.8,5.8,0,0,1-.08-1,4.75,4.75,0,0,1,.09-1,1,1,0,0,1,.5-.7,2.56,2.56,0,0,1,1.36-.26,2.43,2.43,0,0,1,1.32.27,1.14,1.14,0,0,1,.49.73,4.92,4.92,0,0,1,.09,1,4.73,4.73,0,0,1-.09.93,1.07,1.07,0,0,1-.49.71A2.62,2.62,0,0,1,221.11,19.6Zm0,14.3a2.54,2.54,0,0,1-1.32-.26,1,1,0,0,1-.48-.7,5.41,5.41,0,0,1-.07-.91V23.3a4.46,4.46,0,0,1,.09-.91,1.06,1.06,0,0,1,.49-.7,2.47,2.47,0,0,1,1.32-.26,2.31,2.31,0,0,1,1.29.27,1.15,1.15,0,0,1,.48.71,5.67,5.67,0,0,1,.08.94v8.7a4.63,4.63,0,0,1-.09.92,1,1,0,0,1-.48.68A2.47,2.47,0,0,1,221.1,33.9Z"/><path class="cls-2" d="M236.46,21.94a2.92,2.92,0,0,1,.71,1,1,1,0,0,1,0,.81,3.64,3.64,0,0,1-.7.95l-8,8.6a3.54,3.54,0,0,1-.87.7,1,1,0,0,1-.81,0,3.13,3.13,0,0,1-.94-.66,3,3,0,0,1-.7-.94.94.94,0,0,1,0-.82,4,4,0,0,1,.68-.92l8-8.62a2.44,2.44,0,0,1,1.32-.81A1.93,1.93,0,0,1,236.46,21.94Zm-10.58,0a3.12,3.12,0,0,1,.94-.65,1,1,0,0,1,.81,0,2.87,2.87,0,0,1,.88.71l7.94,8.63a3.43,3.43,0,0,1,.69.93,1,1,0,0,1,0,.81,2.6,2.6,0,0,1-.73.94,3.35,3.35,0,0,1-.92.66.91.91,0,0,1-.79,0,4.77,4.77,0,0,1-.94-.7l-7.94-8.61a3.68,3.68,0,0,1-.66-.93,1,1,0,0,1,0-.84A3.21,3.21,0,0,1,225.88,21.93Z"/><path class="cls-2" d="M240,21.61h2.75l3.45-.09a5.11,5.11,0,0,1,.9.08,1.14,1.14,0,0,1,.7.49,2.47,2.47,0,0,1,.27,1.33,2.31,2.31,0,0,1-.26,1.25,1.18,1.18,0,0,1-.69.51,3.8,3.8,0,0,1-.92.11l-3.28-.08-3,0a1.25,1.25,0,0,1-1-.47,2.4,2.4,0,0,1-.29-1.38,2.15,2.15,0,0,1,.35-1.34A1.26,1.26,0,0,1,240,21.61Zm5.64,12.31a7.9,7.9,0,0,1-2.2-.28,3.59,3.59,0,0,1-1.51-.85,3.5,3.5,0,0,1-.87-1.46,6.71,6.71,0,0,1-.29-2.12V19.09a5.12,5.12,0,0,1,.08-.93,1.12,1.12,0,0,1,.49-.66,2.51,2.51,0,0,1,1.3-.26,2.38,2.38,0,0,1,1.3.27,1.14,1.14,0,0,1,.49.72,4.46,4.46,0,0,1,.09.91v9.93a3.1,3.1,0,0,0,.06.66.89.89,0,0,0,.19.39.68.68,0,0,0,.35.17,2.79,2.79,0,0,0,.55.05,4.59,4.59,0,0,1,1,.1,1.1,1.1,0,0,1,.67.45,2.3,2.3,0,0,1,.23,1.18,2.4,2.4,0,0,1-.27,1.3,1.09,1.09,0,0,1-.72.47A5.31,5.31,0,0,1,245.65,33.92Z"/><path class="cls-2" d="M256,34.12a6.29,6.29,0,0,1-2.34-.46,7.19,7.19,0,0,1-2.11-1.32,6.38,6.38,0,0,1-1.51-2,6.47,6.47,0,0,1,0-5.15,6.88,6.88,0,0,1,1.42-2.07,6.75,6.75,0,0,1,2.06-1.41,6.16,6.16,0,0,1,2.49-.51,6.24,6.24,0,0,1,3.26.87,6.48,6.48,0,0,1,2.34,2.34,6.69,6.69,0,0,1,.31,6,6.66,6.66,0,0,1-1.5,2,6.76,6.76,0,0,1-2.08,1.29A6.36,6.36,0,0,1,256,34.12ZM256,30.35a2.85,2.85,0,0,0,1.23-.3,2.67,2.67,0,0,0,1.05-.9,2.61,2.61,0,0,0,.43-1.53,2.77,2.77,0,0,0-.35-1.4,2.48,2.48,0,0,0-1-.93,2.78,2.78,0,0,0-1.41-.34,2.53,2.53,0,0,0-1.34.35,2.73,2.73,0,0,0-1,1,2.93,2.93,0,0,0,.05,2.9,2.49,2.49,0,0,0,1,.9A2.94,2.94,0,0,0,256,30.35Z"/><path class="cls-3" d="M113.18,33.84a2.46,2.46,0,0,1-1.33-.28,1.11,1.11,0,0,1-.48-.72,4.73,4.73,0,0,1-.09-.93V18.26a3.85,3.85,0,0,1,.1-.91,1.15,1.15,0,0,1,.5-.71,2.35,2.35,0,0,1,1.32-.28h5.13a6.39,6.39,0,0,1,2.1.38,6,6,0,0,1,3.46,3.1,6,6,0,0,1,.56,2.7,6.06,6.06,0,0,1-.56,2.69,5.87,5.87,0,0,1-1.48,1.91,6.15,6.15,0,0,1-2,1.15,6.36,6.36,0,0,1-2.12.37h-3.2v3.28a3.91,3.91,0,0,1-.11.91,1.11,1.11,0,0,1-.5.71A2.31,2.31,0,0,1,113.18,33.84Zm1.93-9h3.22a2.64,2.64,0,0,0,1.09-.23,2.12,2.12,0,0,0,.9-.76,2.59,2.59,0,0,0,.05-2.58,2.18,2.18,0,0,0-.83-.82,2.34,2.34,0,0,0-1.23-.31h-3.2Z"/><path class="cls-3" d="M136.78,33.83a2.34,2.34,0,0,1-1.38-.33.89.89,0,0,1-.42-.8l.25-.43a2.73,2.73,0,0,1-.57.62,4.66,4.66,0,0,1-1.12.65,4.34,4.34,0,0,1-1.66.28,5,5,0,0,1-2.19-.5,5.85,5.85,0,0,1-1.83-1.39,7,7,0,0,1-1.28-2,6.16,6.16,0,0,1-.47-2.38,6,6,0,0,1,.47-2.33,6.9,6.9,0,0,1,1.29-2,6.37,6.37,0,0,1,1.84-1.36,4.94,4.94,0,0,1,2.18-.5,4.09,4.09,0,0,1,1.57.27,4.32,4.32,0,0,1,1.09.61,3.43,3.43,0,0,1,.66.67l-.22-.35a1,1,0,0,1,.43-.91,2.44,2.44,0,0,1,1.39-.31,2.24,2.24,0,0,1,1.29.28,1.07,1.07,0,0,1,.47.72,4.86,4.86,0,0,1,.09.95v8.63a4.7,4.7,0,0,1-.09.92,1.07,1.07,0,0,1-.48.71A2.37,2.37,0,0,1,136.78,33.83Zm-4.37-3.73a2.13,2.13,0,0,0,1.2-.34,2.57,2.57,0,0,0,.85-.91,2.61,2.61,0,0,0,.32-1.28,2.56,2.56,0,0,0-.32-1.28,2.42,2.42,0,0,0-.88-.89,2.3,2.3,0,0,0-1.22-.33,2.33,2.33,0,0,0-1.26.34,2.53,2.53,0,0,0-.9.91,2.5,2.5,0,0,0-.34,1.3,2.34,2.34,0,0,0,.34,1.24,2.56,2.56,0,0,0,.92.9A2.59,2.59,0,0,0,132.41,30.1Z"/><path class="cls-3" d="M141.94,21.55h2.75l3.45-.09a4.43,4.43,0,0,1,.9.09,1.11,1.11,0,0,1,.7.48,2.47,2.47,0,0,1,.27,1.33,2.38,2.38,0,0,1-.26,1.25,1.15,1.15,0,0,1-.69.51,3.39,3.39,0,0,1-.93.11l-3.27-.07-3,0a1.29,1.29,0,0,1-1-.46,2.55,2.55,0,0,1-.29-1.39,2.08,2.08,0,0,1,.36-1.34A1.26,1.26,0,0,1,141.94,21.55Zm5.64,12.31a7.85,7.85,0,0,1-2.2-.28A3.37,3.37,0,0,1,143,31.27a7,7,0,0,1-.28-2.12V19a4.31,4.31,0,0,1,.09-.93,1.08,1.08,0,0,1,.49-.66,2.51,2.51,0,0,1,1.3-.26,2.3,2.3,0,0,1,1.3.28,1.1,1.1,0,0,1,.49.71,5.31,5.31,0,0,1,.08.91V29a3.1,3.1,0,0,0,.06.66.79.79,0,0,0,.19.39.68.68,0,0,0,.35.17,2.19,2.19,0,0,0,.55.05,4.67,4.67,0,0,1,1,.1,1.1,1.1,0,0,1,.66.45,2.19,2.19,0,0,1,.24,1.18,2.3,2.3,0,0,1-.28,1.3,1.07,1.07,0,0,1-.71.47A5.31,5.31,0,0,1,147.58,33.86Z"/><path class="cls-3" d="M153.8,33.86a2.5,2.5,0,0,1-1.31-.26,1.07,1.07,0,0,1-.47-.71,4.73,4.73,0,0,1-.09-.93V23.23a4.44,4.44,0,0,1,.08-.92,1.08,1.08,0,0,1,.49-.69,2.59,2.59,0,0,1,1.33-.26,2.5,2.5,0,0,1,1.26.24,1.06,1.06,0,0,1,.49.55,2.08,2.08,0,0,1,.1.54l-.3.15a2.39,2.39,0,0,1,.26-.37,3.57,3.57,0,0,1,.59-.54,3.14,3.14,0,0,1,.91-.49,3.4,3.4,0,0,1,1.24-.2,4.66,4.66,0,0,1,.61,0,3.14,3.14,0,0,1,.7.15,2.47,2.47,0,0,1,.66.3,1.66,1.66,0,0,1,.49.46,1.13,1.13,0,0,1,.18.68,3,3,0,0,1-.47,1.73,1.4,1.4,0,0,1-1.2.71,2,2,0,0,1-.6-.06,1,1,0,0,1-.29-.15.93.93,0,0,0-.26-.15,1.68,1.68,0,0,0-.55-.06,2.34,2.34,0,0,0-.71.1,1.85,1.85,0,0,0-.63.31,1.6,1.6,0,0,0-.45.52,1.53,1.53,0,0,0-.16.72V32a5.31,5.31,0,0,1-.08.91,1,1,0,0,1-.49.69A2.6,2.6,0,0,1,153.8,33.86Z"/><path class="cls-3" d="M169,34.07a6.4,6.4,0,0,1-2.33-.46,7.11,7.11,0,0,1-2.12-1.32,6.31,6.31,0,0,1-1.51-2,6.41,6.41,0,0,1,0-5.15,6.78,6.78,0,0,1,3.47-3.47,6.16,6.16,0,0,1,2.49-.51,6.33,6.33,0,0,1,3.26.86,6.56,6.56,0,0,1,2.34,2.34,6.71,6.71,0,0,1,.31,6,6.5,6.5,0,0,1-3.58,3.32A6.17,6.17,0,0,1,169,34.07Zm0-3.77a2.81,2.81,0,0,0,1.22-.3,2.67,2.67,0,0,0,1-.9,2.61,2.61,0,0,0,.43-1.53,2.77,2.77,0,0,0-.35-1.4,2.62,2.62,0,0,0-1-.94,3,3,0,0,0-1.42-.34,2.56,2.56,0,0,0-1.33.35,2.68,2.68,0,0,0-.95,1,2.57,2.57,0,0,0-.37,1.38,2.71,2.71,0,0,0,.41,1.52,2.64,2.64,0,0,0,1,.9A3.15,3.15,0,0,0,169,30.3Zm-1-9.83a.85.85,0,0,1-.74-.25,2.63,2.63,0,0,1-.51-1,2,2,0,0,1-.1-1.3,1.39,1.39,0,0,1,.92-.68L172,15.9a.9.9,0,0,1,.73.28,2.4,2.4,0,0,1,.5,1,2,2,0,0,1,.09,1.28,1.34,1.34,0,0,1-.92.67Z"/><path class="cls-3" d="M179.33,33.85a2.45,2.45,0,0,1-1.31-.26,1.1,1.1,0,0,1-.48-.7,4.56,4.56,0,0,1-.09-.92V23.18a4.13,4.13,0,0,1,.09-.89,1,1,0,0,1,.49-.66,3.52,3.52,0,0,1,2.5,0,1,1,0,0,1,.48.51,1.54,1.54,0,0,1,.12.57.84.84,0,0,0,0,.36l-.15.47a1.58,1.58,0,0,1,.39-.76,3.74,3.74,0,0,1,.85-.7,4.73,4.73,0,0,1,1.1-.49,4.3,4.3,0,0,1,1.17-.17,5,5,0,0,1,2.13.44,4.24,4.24,0,0,1,1.59,1.26,6,6,0,0,1,1,1.94,8.52,8.52,0,0,1,.33,2.44V32a4.53,4.53,0,0,1-.09.91,1.08,1.08,0,0,1-.47.69,2.7,2.7,0,0,1-1.34.25,2.47,2.47,0,0,1-1.33-.27,1,1,0,0,1-.48-.7,4.46,4.46,0,0,1-.09-.91V27.45a2.74,2.74,0,0,0-.26-1.27,1.76,1.76,0,0,0-.75-.8,2.46,2.46,0,0,0-1.21-.28,2.57,2.57,0,0,0-1.25.29,2.06,2.06,0,0,0-.82.81,2.59,2.59,0,0,0-.28,1.25V32a5.52,5.52,0,0,1-.08.92,1,1,0,0,1-.48.68A2.49,2.49,0,0,1,179.33,33.85Z"/><path class="cls-3" d="M200.38,33.89a2.28,2.28,0,0,1-1.3-.28,1,1,0,0,1-.48-.7,5.29,5.29,0,0,1-.07-.92V23.24a4.29,4.29,0,0,1,.09-.9,1.06,1.06,0,0,1,.49-.69,2.59,2.59,0,0,1,1.33-.26,2,2,0,0,1,1.34.36,1.47,1.47,0,0,1,.43,1.19l-.33.27a3,3,0,0,1,.3-.42,4.89,4.89,0,0,1,.65-.62,4.13,4.13,0,0,1,.94-.57,3,3,0,0,1,1.17-.23,4.55,4.55,0,0,1,1.48.23,3.85,3.85,0,0,1,1.2.71,4.23,4.23,0,0,1,.94,1.16,6.84,6.84,0,0,1,.85-1,4.93,4.93,0,0,1,1.17-.8,3.58,3.58,0,0,1,1.53-.32,4.15,4.15,0,0,1,2.49.74,4.56,4.56,0,0,1,1.53,2.11,9.38,9.38,0,0,1,.53,3.33V32a4,4,0,0,1-.1.92,1.14,1.14,0,0,1-.48.7,2.52,2.52,0,0,1-1.32.26,2.42,2.42,0,0,1-1.32-.28,1,1,0,0,1-.48-.71,5.41,5.41,0,0,1-.07-.91V27.52a4.1,4.1,0,0,0-.18-1.29,1.9,1.9,0,0,0-.54-.82,1.41,1.41,0,0,0-.9-.29,1.71,1.71,0,0,0-1,.27,1.77,1.77,0,0,0-.6.8,3.92,3.92,0,0,0-.2,1.35V32a3.19,3.19,0,0,1-.13.94,1.22,1.22,0,0,1-.53.7,2.52,2.52,0,0,1-1.34.23,2,2,0,0,1-1.25-.29,1.12,1.12,0,0,1-.45-.72,5.26,5.26,0,0,1-.08-.89V27.52a4.16,4.16,0,0,0-.18-1.3,1.65,1.65,0,0,0-.52-.83,1.49,1.49,0,0,0-.93-.27,1.54,1.54,0,0,0-1,.32,1.9,1.9,0,0,0-.59.86,3.53,3.53,0,0,0-.19,1.21V32a4.45,4.45,0,0,1-.09.93,1.08,1.08,0,0,1-.49.69A2.54,2.54,0,0,1,200.38,33.89Z"/><path class="cls-3" d="M221.11,19.6a2.53,2.53,0,0,1-1.35-.27,1.14,1.14,0,0,1-.49-.73,5.8,5.8,0,0,1-.08-1,4.75,4.75,0,0,1,.09-1,1,1,0,0,1,.5-.7,2.56,2.56,0,0,1,1.36-.26,2.43,2.43,0,0,1,1.32.27,1.14,1.14,0,0,1,.49.73,4.92,4.92,0,0,1,.09,1,4.73,4.73,0,0,1-.09.93,1.07,1.07,0,0,1-.49.71A2.62,2.62,0,0,1,221.11,19.6Zm0,14.3a2.54,2.54,0,0,1-1.32-.26,1,1,0,0,1-.48-.7,5.41,5.41,0,0,1-.07-.91V23.3a4.46,4.46,0,0,1,.09-.91,1.06,1.06,0,0,1,.49-.7,2.47,2.47,0,0,1,1.32-.26,2.31,2.31,0,0,1,1.29.27,1.15,1.15,0,0,1,.48.71,5.67,5.67,0,0,1,.08.94v8.7a4.63,4.63,0,0,1-.09.92,1,1,0,0,1-.48.68A2.47,2.47,0,0,1,221.1,33.9Z"/><path class="cls-3" d="M236.46,21.94a2.92,2.92,0,0,1,.71,1,1,1,0,0,1,0,.81,3.64,3.64,0,0,1-.7.95l-8,8.6a3.54,3.54,0,0,1-.87.7,1,1,0,0,1-.81,0,3.13,3.13,0,0,1-.94-.66,3,3,0,0,1-.7-.94.94.94,0,0,1,0-.82,4,4,0,0,1,.68-.92l8-8.62a2.44,2.44,0,0,1,1.32-.81A1.93,1.93,0,0,1,236.46,21.94Zm-10.58,0a3.12,3.12,0,0,1,.94-.65,1,1,0,0,1,.81,0,2.87,2.87,0,0,1,.88.71l7.94,8.63a3.43,3.43,0,0,1,.69.93,1,1,0,0,1,0,.81,2.6,2.6,0,0,1-.73.94,3.35,3.35,0,0,1-.92.66.91.91,0,0,1-.79,0,4.77,4.77,0,0,1-.94-.7l-7.94-8.61a3.68,3.68,0,0,1-.66-.93,1,1,0,0,1,0-.84A3.21,3.21,0,0,1,225.88,21.93Z"/><path class="cls-3" d="M240,21.61h2.75l3.45-.09a5.11,5.11,0,0,1,.9.08,1.14,1.14,0,0,1,.7.49,2.47,2.47,0,0,1,.27,1.33,2.31,2.31,0,0,1-.26,1.25,1.18,1.18,0,0,1-.69.51,3.8,3.8,0,0,1-.92.11l-3.28-.08-3,0a1.25,1.25,0,0,1-1-.47,2.4,2.4,0,0,1-.29-1.38,2.15,2.15,0,0,1,.35-1.34A1.26,1.26,0,0,1,240,21.61Zm5.64,12.31a7.9,7.9,0,0,1-2.2-.28,3.59,3.59,0,0,1-1.51-.85,3.5,3.5,0,0,1-.87-1.46,6.71,6.71,0,0,1-.29-2.12V19.09a5.12,5.12,0,0,1,.08-.93,1.12,1.12,0,0,1,.49-.66,2.51,2.51,0,0,1,1.3-.26,2.38,2.38,0,0,1,1.3.27,1.14,1.14,0,0,1,.49.72,4.46,4.46,0,0,1,.09.91v9.93a3.1,3.1,0,0,0,.06.66.89.89,0,0,0,.19.39.68.68,0,0,0,.35.17,2.79,2.79,0,0,0,.55.05,4.59,4.59,0,0,1,1,.1,1.1,1.1,0,0,1,.67.45,2.3,2.3,0,0,1,.23,1.18,2.4,2.4,0,0,1-.27,1.3,1.09,1.09,0,0,1-.72.47A5.31,5.31,0,0,1,245.65,33.92Z"/><path class="cls-3" d="M256,34.12a6.29,6.29,0,0,1-2.34-.46,7.19,7.19,0,0,1-2.11-1.32,6.38,6.38,0,0,1-1.51-2,6.47,6.47,0,0,1,0-5.15,6.88,6.88,0,0,1,1.42-2.07,6.75,6.75,0,0,1,2.06-1.41,6.16,6.16,0,0,1,2.49-.51,6.24,6.24,0,0,1,3.26.87,6.48,6.48,0,0,1,2.34,2.34,6.69,6.69,0,0,1,.31,6,6.66,6.66,0,0,1-1.5,2,6.76,6.76,0,0,1-2.08,1.29A6.36,6.36,0,0,1,256,34.12ZM256,30.35a2.85,2.85,0,0,0,1.23-.3,2.67,2.67,0,0,0,1.05-.9,2.61,2.61,0,0,0,.43-1.53,2.77,2.77,0,0,0-.35-1.4,2.48,2.48,0,0,0-1-.93,2.78,2.78,0,0,0-1.41-.34,2.53,2.53,0,0,0-1.34.35,2.73,2.73,0,0,0-1,1,2.93,2.93,0,0,0,.05,2.9,2.49,2.49,0,0,0,1,.9A2.94,2.94,0,0,0,256,30.35Z"/><path class="cls-2" d="M113.18,33.84a2.46,2.46,0,0,1-1.33-.28,1.11,1.11,0,0,1-.48-.72,4.73,4.73,0,0,1-.09-.93V18.26a3.85,3.85,0,0,1,.1-.91,1.15,1.15,0,0,1,.5-.71,2.35,2.35,0,0,1,1.32-.28h5.13a6.39,6.39,0,0,1,2.1.38,6,6,0,0,1,3.46,3.1,6,6,0,0,1,.56,2.7,6.06,6.06,0,0,1-.56,2.69,5.87,5.87,0,0,1-1.48,1.91,6.15,6.15,0,0,1-2,1.15,6.36,6.36,0,0,1-2.12.37h-3.2v3.28a3.91,3.91,0,0,1-.11.91,1.11,1.11,0,0,1-.5.71A2.31,2.31,0,0,1,113.18,33.84Zm1.93-9h3.22a2.64,2.64,0,0,0,1.09-.23,2.12,2.12,0,0,0,.9-.76,2.59,2.59,0,0,0,.05-2.58,2.18,2.18,0,0,0-.83-.82,2.34,2.34,0,0,0-1.23-.31h-3.2Z"/><path class="cls-2" d="M136.78,33.83a2.34,2.34,0,0,1-1.38-.33.89.89,0,0,1-.42-.8l.25-.43a2.73,2.73,0,0,1-.57.62,4.66,4.66,0,0,1-1.12.65,4.34,4.34,0,0,1-1.66.28,5,5,0,0,1-2.19-.5,5.85,5.85,0,0,1-1.83-1.39,7,7,0,0,1-1.28-2,6.16,6.16,0,0,1-.47-2.38,6,6,0,0,1,.47-2.33,6.9,6.9,0,0,1,1.29-2,6.37,6.37,0,0,1,1.84-1.36,4.94,4.94,0,0,1,2.18-.5,4.09,4.09,0,0,1,1.57.27,4.32,4.32,0,0,1,1.09.61,3.43,3.43,0,0,1,.66.67l-.22-.35a1,1,0,0,1,.43-.91,2.44,2.44,0,0,1,1.39-.31,2.24,2.24,0,0,1,1.29.28,1.07,1.07,0,0,1,.47.72,4.86,4.86,0,0,1,.09.95v8.63a4.7,4.7,0,0,1-.09.92,1.07,1.07,0,0,1-.48.71A2.37,2.37,0,0,1,136.78,33.83Zm-4.37-3.73a2.13,2.13,0,0,0,1.2-.34,2.57,2.57,0,0,0,.85-.91,2.61,2.61,0,0,0,.32-1.28,2.56,2.56,0,0,0-.32-1.28,2.42,2.42,0,0,0-.88-.89,2.3,2.3,0,0,0-1.22-.33,2.33,2.33,0,0,0-1.26.34,2.53,2.53,0,0,0-.9.91,2.5,2.5,0,0,0-.34,1.3,2.34,2.34,0,0,0,.34,1.24,2.56,2.56,0,0,0,.92.9A2.59,2.59,0,0,0,132.41,30.1Z"/><path class="cls-2" d="M141.94,21.55h2.75l3.45-.09a4.43,4.43,0,0,1,.9.09,1.11,1.11,0,0,1,.7.48,2.47,2.47,0,0,1,.27,1.33,2.38,2.38,0,0,1-.26,1.25,1.15,1.15,0,0,1-.69.51,3.39,3.39,0,0,1-.93.11l-3.27-.07-3,0a1.29,1.29,0,0,1-1-.46,2.55,2.55,0,0,1-.29-1.39,2.08,2.08,0,0,1,.36-1.34A1.26,1.26,0,0,1,141.94,21.55Zm5.64,12.31a7.85,7.85,0,0,1-2.2-.28A3.37,3.37,0,0,1,143,31.27a7,7,0,0,1-.28-2.12V19a4.31,4.31,0,0,1,.09-.93,1.08,1.08,0,0,1,.49-.66,2.51,2.51,0,0,1,1.3-.26,2.3,2.3,0,0,1,1.3.28,1.1,1.1,0,0,1,.49.71,5.31,5.31,0,0,1,.08.91V29a3.1,3.1,0,0,0,.06.66.79.79,0,0,0,.19.39.68.68,0,0,0,.35.17,2.19,2.19,0,0,0,.55.05,4.67,4.67,0,0,1,1,.1,1.1,1.1,0,0,1,.66.45,2.19,2.19,0,0,1,.24,1.18,2.3,2.3,0,0,1-.28,1.3,1.07,1.07,0,0,1-.71.47A5.31,5.31,0,0,1,147.58,33.86Z"/><path class="cls-2" d="M153.8,33.86a2.5,2.5,0,0,1-1.31-.26,1.07,1.07,0,0,1-.47-.71,4.73,4.73,0,0,1-.09-.93V23.23a4.44,4.44,0,0,1,.08-.92,1.08,1.08,0,0,1,.49-.69,2.59,2.59,0,0,1,1.33-.26,2.5,2.5,0,0,1,1.26.24,1.06,1.06,0,0,1,.49.55,2.08,2.08,0,0,1,.1.54l-.3.15a2.39,2.39,0,0,1,.26-.37,3.57,3.57,0,0,1,.59-.54,3.14,3.14,0,0,1,.91-.49,3.4,3.4,0,0,1,1.24-.2,4.66,4.66,0,0,1,.61,0,3.14,3.14,0,0,1,.7.15,2.47,2.47,0,0,1,.66.3,1.66,1.66,0,0,1,.49.46,1.13,1.13,0,0,1,.18.68,3,3,0,0,1-.47,1.73,1.4,1.4,0,0,1-1.2.71,2,2,0,0,1-.6-.06,1,1,0,0,1-.29-.15.93.93,0,0,0-.26-.15,1.68,1.68,0,0,0-.55-.06,2.34,2.34,0,0,0-.71.1,1.85,1.85,0,0,0-.63.31,1.6,1.6,0,0,0-.45.52,1.53,1.53,0,0,0-.16.72V32a5.31,5.31,0,0,1-.08.91,1,1,0,0,1-.49.69A2.6,2.6,0,0,1,153.8,33.86Z"/><path class="cls-2" d="M169,34.07a6.4,6.4,0,0,1-2.33-.46,7.11,7.11,0,0,1-2.12-1.32,6.31,6.31,0,0,1-1.51-2,6.41,6.41,0,0,1,0-5.15,6.78,6.78,0,0,1,3.47-3.47,6.16,6.16,0,0,1,2.49-.51,6.33,6.33,0,0,1,3.26.86,6.56,6.56,0,0,1,2.34,2.34,6.71,6.71,0,0,1,.31,6,6.5,6.5,0,0,1-3.58,3.32A6.17,6.17,0,0,1,169,34.07Zm0-3.77a2.81,2.81,0,0,0,1.22-.3,2.67,2.67,0,0,0,1-.9,2.61,2.61,0,0,0,.43-1.53,2.77,2.77,0,0,0-.35-1.4,2.62,2.62,0,0,0-1-.94,3,3,0,0,0-1.42-.34,2.56,2.56,0,0,0-1.33.35,2.68,2.68,0,0,0-.95,1,2.57,2.57,0,0,0-.37,1.38,2.71,2.71,0,0,0,.41,1.52,2.64,2.64,0,0,0,1,.9A3.15,3.15,0,0,0,169,30.3Zm-1-9.83a.85.85,0,0,1-.74-.25,2.63,2.63,0,0,1-.51-1,2,2,0,0,1-.1-1.3,1.39,1.39,0,0,1,.92-.68L172,15.9a.9.9,0,0,1,.73.28,2.4,2.4,0,0,1,.5,1,2,2,0,0,1,.09,1.28,1.34,1.34,0,0,1-.92.67Z"/><path class="cls-2" d="M179.33,33.85a2.45,2.45,0,0,1-1.31-.26,1.1,1.1,0,0,1-.48-.7,4.56,4.56,0,0,1-.09-.92V23.18a4.13,4.13,0,0,1,.09-.89,1,1,0,0,1,.49-.66,3.52,3.52,0,0,1,2.5,0,1,1,0,0,1,.48.51,1.54,1.54,0,0,1,.12.57.84.84,0,0,0,0,.36l-.15.47a1.58,1.58,0,0,1,.39-.76,3.74,3.74,0,0,1,.85-.7,4.73,4.73,0,0,1,1.1-.49,4.3,4.3,0,0,1,1.17-.17,5,5,0,0,1,2.13.44,4.24,4.24,0,0,1,1.59,1.26,6,6,0,0,1,1,1.94,8.52,8.52,0,0,1,.33,2.44V32a4.53,4.53,0,0,1-.09.91,1.08,1.08,0,0,1-.47.69,2.7,2.7,0,0,1-1.34.25,2.47,2.47,0,0,1-1.33-.27,1,1,0,0,1-.48-.7,4.46,4.46,0,0,1-.09-.91V27.45a2.74,2.74,0,0,0-.26-1.27,1.76,1.76,0,0,0-.75-.8,2.46,2.46,0,0,0-1.21-.28,2.57,2.57,0,0,0-1.25.29,2.06,2.06,0,0,0-.82.81,2.59,2.59,0,0,0-.28,1.25V32a5.52,5.52,0,0,1-.08.92,1,1,0,0,1-.48.68A2.49,2.49,0,0,1,179.33,33.85Z"/><path class="cls-2" d="M200.38,33.89a2.28,2.28,0,0,1-1.3-.28,1,1,0,0,1-.48-.7,5.29,5.29,0,0,1-.07-.92V23.24a4.29,4.29,0,0,1,.09-.9,1.06,1.06,0,0,1,.49-.69,2.59,2.59,0,0,1,1.33-.26,2,2,0,0,1,1.34.36,1.47,1.47,0,0,1,.43,1.19l-.33.27a3,3,0,0,1,.3-.42,4.89,4.89,0,0,1,.65-.62,4.13,4.13,0,0,1,.94-.57,3,3,0,0,1,1.17-.23,4.55,4.55,0,0,1,1.48.23,3.85,3.85,0,0,1,1.2.71,4.23,4.23,0,0,1,.94,1.16,6.84,6.84,0,0,1,.85-1,4.93,4.93,0,0,1,1.17-.8,3.58,3.58,0,0,1,1.53-.32,4.15,4.15,0,0,1,2.49.74,4.56,4.56,0,0,1,1.53,2.11,9.38,9.38,0,0,1,.53,3.33V32a4,4,0,0,1-.1.92,1.14,1.14,0,0,1-.48.7,2.52,2.52,0,0,1-1.32.26,2.42,2.42,0,0,1-1.32-.28,1,1,0,0,1-.48-.71,5.41,5.41,0,0,1-.07-.91V27.52a4.1,4.1,0,0,0-.18-1.29,1.9,1.9,0,0,0-.54-.82,1.41,1.41,0,0,0-.9-.29,1.71,1.71,0,0,0-1,.27,1.77,1.77,0,0,0-.6.8,3.92,3.92,0,0,0-.2,1.35V32a3.19,3.19,0,0,1-.13.94,1.22,1.22,0,0,1-.53.7,2.52,2.52,0,0,1-1.34.23,2,2,0,0,1-1.25-.29,1.12,1.12,0,0,1-.45-.72,5.26,5.26,0,0,1-.08-.89V27.52a4.16,4.16,0,0,0-.18-1.3,1.65,1.65,0,0,0-.52-.83,1.49,1.49,0,0,0-.93-.27,1.54,1.54,0,0,0-1,.32,1.9,1.9,0,0,0-.59.86,3.53,3.53,0,0,0-.19,1.21V32a4.45,4.45,0,0,1-.09.93,1.08,1.08,0,0,1-.49.69A2.54,2.54,0,0,1,200.38,33.89Z"/><path class="cls-2" d="M221.11,19.6a2.53,2.53,0,0,1-1.35-.27,1.14,1.14,0,0,1-.49-.73,5.8,5.8,0,0,1-.08-1,4.75,4.75,0,0,1,.09-1,1,1,0,0,1,.5-.7,2.56,2.56,0,0,1,1.36-.26,2.43,2.43,0,0,1,1.32.27,1.14,1.14,0,0,1,.49.73,4.92,4.92,0,0,1,.09,1,4.73,4.73,0,0,1-.09.93,1.07,1.07,0,0,1-.49.71A2.62,2.62,0,0,1,221.11,19.6Zm0,14.3a2.54,2.54,0,0,1-1.32-.26,1,1,0,0,1-.48-.7,5.41,5.41,0,0,1-.07-.91V23.3a4.46,4.46,0,0,1,.09-.91,1.06,1.06,0,0,1,.49-.7,2.47,2.47,0,0,1,1.32-.26,2.31,2.31,0,0,1,1.29.27,1.15,1.15,0,0,1,.48.71,5.67,5.67,0,0,1,.08.94v8.7a4.63,4.63,0,0,1-.09.92,1,1,0,0,1-.48.68A2.47,2.47,0,0,1,221.1,33.9Z"/><path class="cls-2" d="M236.46,21.94a2.92,2.92,0,0,1,.71,1,1,1,0,0,1,0,.81,3.64,3.64,0,0,1-.7.95l-8,8.6a3.54,3.54,0,0,1-.87.7,1,1,0,0,1-.81,0,3.13,3.13,0,0,1-.94-.66,3,3,0,0,1-.7-.94.94.94,0,0,1,0-.82,4,4,0,0,1,.68-.92l8-8.62a2.44,2.44,0,0,1,1.32-.81A1.93,1.93,0,0,1,236.46,21.94Zm-10.58,0a3.12,3.12,0,0,1,.94-.65,1,1,0,0,1,.81,0,2.87,2.87,0,0,1,.88.71l7.94,8.63a3.43,3.43,0,0,1,.69.93,1,1,0,0,1,0,.81,2.6,2.6,0,0,1-.73.94,3.35,3.35,0,0,1-.92.66.91.91,0,0,1-.79,0,4.77,4.77,0,0,1-.94-.7l-7.94-8.61a3.68,3.68,0,0,1-.66-.93,1,1,0,0,1,0-.84A3.21,3.21,0,0,1,225.88,21.93Z"/><path class="cls-2" d="M240,21.61h2.75l3.45-.09a5.11,5.11,0,0,1,.9.08,1.14,1.14,0,0,1,.7.49,2.47,2.47,0,0,1,.27,1.33,2.31,2.31,0,0,1-.26,1.25,1.18,1.18,0,0,1-.69.51,3.8,3.8,0,0,1-.92.11l-3.28-.08-3,0a1.25,1.25,0,0,1-1-.47,2.4,2.4,0,0,1-.29-1.38,2.15,2.15,0,0,1,.35-1.34A1.26,1.26,0,0,1,240,21.61Zm5.64,12.31a7.9,7.9,0,0,1-2.2-.28,3.59,3.59,0,0,1-1.51-.85,3.5,3.5,0,0,1-.87-1.46,6.71,6.71,0,0,1-.29-2.12V19.09a5.12,5.12,0,0,1,.08-.93,1.12,1.12,0,0,1,.49-.66,2.51,2.51,0,0,1,1.3-.26,2.38,2.38,0,0,1,1.3.27,1.14,1.14,0,0,1,.49.72,4.46,4.46,0,0,1,.09.91v9.93a3.1,3.1,0,0,0,.06.66.89.89,0,0,0,.19.39.68.68,0,0,0,.35.17,2.79,2.79,0,0,0,.55.05,4.59,4.59,0,0,1,1,.1,1.1,1.1,0,0,1,.67.45,2.3,2.3,0,0,1,.23,1.18,2.4,2.4,0,0,1-.27,1.3,1.09,1.09,0,0,1-.72.47A5.31,5.31,0,0,1,245.65,33.92Z"/><path class="cls-2" d="M256,34.12a6.29,6.29,0,0,1-2.34-.46,7.19,7.19,0,0,1-2.11-1.32,6.38,6.38,0,0,1-1.51-2,6.47,6.47,0,0,1,0-5.15,6.88,6.88,0,0,1,1.42-2.07,6.75,6.75,0,0,1,2.06-1.41,6.16,6.16,0,0,1,2.49-.51,6.24,6.24,0,0,1,3.26.87,6.48,6.48,0,0,1,2.34,2.34,6.69,6.69,0,0,1,.31,6,6.66,6.66,0,0,1-1.5,2,6.76,6.76,0,0,1-2.08,1.29A6.36,6.36,0,0,1,256,34.12ZM256,30.35a2.85,2.85,0,0,0,1.23-.3,2.67,2.67,0,0,0,1.05-.9,2.61,2.61,0,0,0,.43-1.53,2.77,2.77,0,0,0-.35-1.4,2.48,2.48,0,0,0-1-.93,2.78,2.78,0,0,0-1.41-.34,2.53,2.53,0,0,0-1.34.35,2.73,2.73,0,0,0-1,1,2.93,2.93,0,0,0,.05,2.9,2.49,2.49,0,0,0,1,.9A2.94,2.94,0,0,0,256,30.35Z"/><path class="cls-4" d="M53.27,22c0-1.37-1.23-2.06-3.7-2.06a19.62,19.62,0,0,0-2.1.15,19.23,19.23,0,0,1-1.94.15q-2.93,0-2.93-3.62t8.48-3.73q5.51,0,8.23,1.84A5.59,5.59,0,0,1,62,19.51a7.74,7.74,0,0,1-3.5,6.64,9.38,9.38,0,0,1,3.31,2.71,7.17,7.17,0,0,1,1,4,7.35,7.35,0,0,1-2.8,6,11.46,11.46,0,0,1-7.48,2.28q-5.87,0-8.41-1.23a4,4,0,0,1-2.54-3.76,3.92,3.92,0,0,1,.82-2.88,3.15,3.15,0,0,1,2.28-.78c.49,0,1.25.06,2.28.17s1.82.17,2.36.17q4.44,0,4.44-1.68a1.62,1.62,0,0,0-.85-1.58,8,8,0,0,0-3.22-.44,6.5,6.5,0,0,1-3.34-.63,2.58,2.58,0,0,1-1-2.35c0-1.73,1.11-2.6,3.34-2.6a17.73,17.73,0,0,0,3.2-.21c.69-.14,1.09-.3,1.2-.49A1.82,1.82,0,0,0,53.27,22Z"/><path class="cls-4" d="M65.4,38a2.76,2.76,0,0,1,1.17-2.31,5.34,5.34,0,0,1,3.27-.88c3,0,4.44,1.07,4.44,3.19a3.11,3.11,0,0,1-.57,2,2.69,2.69,0,0,1-1.51,1,9.11,9.11,0,0,1-2.36.26,6.13,6.13,0,0,1-3.18-.76A2.62,2.62,0,0,1,65.4,38Z"/><path class="cls-4" d="M90.21,40.85a4.22,4.22,0,0,1-3.5-1.36c-.74-.91-1.1-2.5-1.1-4.77H78.07a5.31,5.31,0,0,1-3.93-1.3,4.61,4.61,0,0,1-1.28-3.36A7.21,7.21,0,0,1,74,26.11q2.9-4.66,6.52-10.08a6.65,6.65,0,0,1,5.83-3.19l3.55,0c2,0,3.32.34,4,1A4.87,4.87,0,0,1,95,17.5V28.59a3.66,3.66,0,0,1,2.4.88A3.31,3.31,0,0,1,98,31.74a2.8,2.8,0,0,1-.7,2.2,4,4,0,0,1-2.36.74c0,2.21-.4,3.79-1.18,4.74A4.36,4.36,0,0,1,90.21,40.85ZM85.58,28.76l.13-9-5.47,9Z"/><path class="cls-5" d="M53.27,22c0-1.37-1.23-2.06-3.7-2.06a19.62,19.62,0,0,0-2.1.15,19.23,19.23,0,0,1-1.94.15q-2.93,0-2.93-3.62t8.48-3.73q5.51,0,8.23,1.84A5.59,5.59,0,0,1,62,19.51a7.74,7.74,0,0,1-3.5,6.64,9.38,9.38,0,0,1,3.31,2.71,7.17,7.17,0,0,1,1,4,7.35,7.35,0,0,1-2.8,6,11.46,11.46,0,0,1-7.48,2.28q-5.87,0-8.41-1.23a4,4,0,0,1-2.54-3.76,3.92,3.92,0,0,1,.82-2.88,3.15,3.15,0,0,1,2.28-.78c.49,0,1.25.06,2.28.17s1.82.17,2.36.17q4.44,0,4.44-1.68a1.62,1.62,0,0,0-.85-1.58,8,8,0,0,0-3.22-.44,6.5,6.5,0,0,1-3.34-.63,2.58,2.58,0,0,1-1-2.35c0-1.73,1.11-2.6,3.34-2.6a17.73,17.73,0,0,0,3.2-.21c.69-.14,1.09-.3,1.2-.49A1.82,1.82,0,0,0,53.27,22Z"/><path class="cls-5" d="M65.4,38a2.76,2.76,0,0,1,1.17-2.31,5.34,5.34,0,0,1,3.27-.88c3,0,4.44,1.07,4.44,3.19a3.11,3.11,0,0,1-.57,2,2.69,2.69,0,0,1-1.51,1,9.11,9.11,0,0,1-2.36.26,6.13,6.13,0,0,1-3.18-.76A2.62,2.62,0,0,1,65.4,38Z"/><path class="cls-5" d="M90.21,40.85a4.22,4.22,0,0,1-3.5-1.36c-.74-.91-1.1-2.5-1.1-4.77H78.07a5.31,5.31,0,0,1-3.93-1.3,4.61,4.61,0,0,1-1.28-3.36A7.21,7.21,0,0,1,74,26.11q2.9-4.66,6.52-10.08a6.65,6.65,0,0,1,5.83-3.19l3.55,0c2,0,3.32.34,4,1A4.87,4.87,0,0,1,95,17.5V28.59a3.66,3.66,0,0,1,2.4.88A3.31,3.31,0,0,1,98,31.74a2.8,2.8,0,0,1-.7,2.2,4,4,0,0,1-2.36.74c0,2.21-.4,3.79-1.18,4.74A4.36,4.36,0,0,1,90.21,40.85ZM85.58,28.76l.13-9-5.47,9Z"/></g></g></svg>