<svg xmlns="http://www.w3.org/2000/svg" viewBox="0 0 399.98 100.48"><defs><style>.cls-1{fill:#b30553;}.cls-2{fill:#fff;}.cls-3,.cls-4{fill:none;}.cls-3{stroke:#b6ba01;stroke-linejoin:round;stroke-width:5px;}.cls-4{stroke:#fff;stroke-width:4.84px;}.cls-5{fill:#b6ba01;}</style></defs><title>38tn</title><g id="Layer_2" data-name="Layer 2"><g id="pestaña_identificativa" data-name="pestaña identificativa"><rect class="cls-1" width="399.98" height="100.48" rx="32.4"/><path class="cls-2" d="M107.26,15.34a3.81,3.81,0,0,1,.78.08.92.92,0,0,1,.59.42,2.23,2.23,0,0,1,.23,1.15,2.15,2.15,0,0,1-.23,1.13.91.91,0,0,1-.6.42,4.09,4.09,0,0,1-.8.08h-4V31a4.29,4.29,0,0,1-.09.9,1.1,1.1,0,0,1-.48.69,2.54,2.54,0,0,1-1.33.26,2.45,2.45,0,0,1-1.28-.26,1.08,1.08,0,0,1-.49-.7,5.52,5.52,0,0,1-.08-.92V18.61h-4a3.31,3.31,0,0,1-.77-.09A1,1,0,0,1,94,18.1,2.06,2.06,0,0,1,93.78,17,2.06,2.06,0,0,1,94,15.83a1,1,0,0,1,.61-.42,4,4,0,0,1,.78-.07Z"/><path class="cls-2" d="M112.82,32.85a2.37,2.37,0,0,1-1.31-.27,1.07,1.07,0,0,1-.48-.71A4.7,4.7,0,0,1,111,31V22.22a4.59,4.59,0,0,1,.09-.93,1,1,0,0,1,.49-.68,2.45,2.45,0,0,1,1.32-.26,2.58,2.58,0,0,1,1.26.23,1,1,0,0,1,.49.56,1.63,1.63,0,0,1,.1.53l-.3.15c0-.06.12-.18.26-.36a4,4,0,0,1,.59-.55,3.9,3.9,0,0,1,.91-.49,3.66,3.66,0,0,1,1.24-.2c.19,0,.39,0,.62,0a5.2,5.2,0,0,1,.7.15,3.32,3.32,0,0,1,.66.3,1.54,1.54,0,0,1,.48.47,1.11,1.11,0,0,1,.19.67,3.14,3.14,0,0,1-.47,1.74,1.42,1.42,0,0,1-1.2.71,2,2,0,0,1-.6-.06,1.11,1.11,0,0,1-.29-.15,1.1,1.1,0,0,0-.26-.15,1.42,1.42,0,0,0-.55-.07,2.84,2.84,0,0,0-.72.1,1.93,1.93,0,0,0-.62.32,1.5,1.5,0,0,0-.45.52,1.52,1.52,0,0,0-.17.71V31a4.53,4.53,0,0,1-.09.91,1.06,1.06,0,0,1-.48.69A2.71,2.71,0,0,1,112.82,32.85Z"/><path class="cls-2" d="M132.22,32.83a2.39,2.39,0,0,1-1.37-.32.91.91,0,0,1-.43-.8l.25-.43a2.72,2.72,0,0,1-.57.61,4.08,4.08,0,0,1-1.12.65,4.33,4.33,0,0,1-1.66.29,5,5,0,0,1-2.19-.5,5.85,5.85,0,0,1-1.83-1.39,7,7,0,0,1-1.28-2,6.16,6.16,0,0,1-.47-2.38,5.87,5.87,0,0,1,.48-2.34,6.51,6.51,0,0,1,3.12-3.33,5,5,0,0,1,2.18-.5,4.3,4.3,0,0,1,1.57.26,4.16,4.16,0,0,1,1.09.62,3.43,3.43,0,0,1,.66.67l-.22-.35a1,1,0,0,1,.43-.91,2.44,2.44,0,0,1,1.39-.31,2.34,2.34,0,0,1,1.29.27,1.11,1.11,0,0,1,.47.73,4.86,4.86,0,0,1,.09.95v8.62a4.73,4.73,0,0,1-.09.93,1.07,1.07,0,0,1-.48.71A2.38,2.38,0,0,1,132.22,32.83Zm-4.37-3.72a2.21,2.21,0,0,0,1.2-.34,2.56,2.56,0,0,0,1.17-2.19,2.52,2.52,0,0,0-.32-1.29,2.45,2.45,0,0,0-.87-.88,2.36,2.36,0,0,0-1.23-.33,2.33,2.33,0,0,0-1.26.34,2.53,2.53,0,0,0-1.24,2.21,2.34,2.34,0,0,0,.34,1.24,2.56,2.56,0,0,0,.92.9A2.7,2.7,0,0,0,127.85,29.11Z"/><path class="cls-2" d="M138,32.86a1.77,1.77,0,0,1-1.31-.54,1.8,1.8,0,0,1-.54-1.33,2,2,0,0,1,.14-.73,1.81,1.81,0,0,1,.41-.62l5.68-5.5h-3.8a4.45,4.45,0,0,1-.91-.1,1.25,1.25,0,0,1-.73-.49,2.29,2.29,0,0,1-.28-1.31,2.31,2.31,0,0,1,.28-1.32,1.2,1.2,0,0,1,.73-.47,4.46,4.46,0,0,1,.91-.09h7.83a1.8,1.8,0,0,1,1.85,1.85,2.18,2.18,0,0,1-.14.76,1.45,1.45,0,0,1-.39.59l-5.55,5.52h4.52a4.57,4.57,0,0,1,.93.1,1.13,1.13,0,0,1,.68.5,2.47,2.47,0,0,1,.27,1.33,2.39,2.39,0,0,1-.28,1.3,1.07,1.07,0,0,1-.7.47,5.25,5.25,0,0,1-.92.08Z"/><path class="cls-2" d="M160.79,32.85a2.33,2.33,0,0,1-1.37-.33.91.91,0,0,1-.43-.8l.26-.42a2.82,2.82,0,0,1-.58.61,4.11,4.11,0,0,1-1.11.65,4.36,4.36,0,0,1-1.66.29,5,5,0,0,1-2.19-.5A6,6,0,0,1,151.87,31a7,7,0,0,1-1.27-2,6,6,0,0,1-.48-2.37,5.83,5.83,0,0,1,.48-2.34,6.72,6.72,0,0,1,1.29-2,6.07,6.07,0,0,1,1.84-1.36,4.8,4.8,0,0,1,2.17-.5,4.35,4.35,0,0,1,1.58.26,4.57,4.57,0,0,1,1.08.61,3.26,3.26,0,0,1,.67.68L159,21.6a1,1,0,0,1,.44-.91,2.33,2.33,0,0,1,1.39-.31,2.28,2.28,0,0,1,1.28.27,1.14,1.14,0,0,1,.48.73,4.79,4.79,0,0,1,.09.95V31a4.73,4.73,0,0,1-.09.93,1.08,1.08,0,0,1-.47.71A2.52,2.52,0,0,1,160.79,32.85Zm-4.37-3.73a2.21,2.21,0,0,0,1.2-.33,2.51,2.51,0,0,0,.85-.92,2.48,2.48,0,0,0,.33-1.27,2.53,2.53,0,0,0-.33-1.29,2.4,2.4,0,0,0-.87-.89,2.55,2.55,0,0,0-2.49,0,2.64,2.64,0,0,0-.9.92,2.54,2.54,0,0,0-.34,1.3,2.28,2.28,0,0,0,.34,1.23,2.41,2.41,0,0,0,.92.9A2.51,2.51,0,0,0,156.42,29.12Z"/><path class="cls-2" d="M177.89,33.11a7.12,7.12,0,0,1-3-.58A5.84,5.84,0,0,1,172.82,31a6.61,6.61,0,0,1-1.2-2.09,7.14,7.14,0,0,1-.4-2.3,6.48,6.48,0,0,1,.85-3.32A6.14,6.14,0,0,1,174.44,21a6.9,6.9,0,0,1,3.46-.83,6.18,6.18,0,0,1,2.51.46,5.23,5.23,0,0,1,1.75,1.2,5.1,5.1,0,0,1,1,1.59,4.5,4.5,0,0,1,.33,1.62,2.82,2.82,0,0,1-.66,2.05,2.26,2.26,0,0,1-1.69.68h-5.95a1.82,1.82,0,0,0,.46,1.08,2.85,2.85,0,0,0,1,.7,3.5,3.5,0,0,0,1.33.25,7.94,7.94,0,0,0,1-.06,3.7,3.7,0,0,0,.79-.18c.22-.07.41-.15.59-.22a4.44,4.44,0,0,1,.49-.19,2.53,2.53,0,0,1,.42-.1,1,1,0,0,1,.68.22,2,2,0,0,1,.57.71,1.71,1.71,0,0,1,.24.52,2.2,2.2,0,0,1,.06.5,1.34,1.34,0,0,1-.61,1.09,4.91,4.91,0,0,1-1.73.74A11.56,11.56,0,0,1,177.89,33.11Zm-2.67-7.4h3.95a1,1,0,0,0,.58-.14A.61.61,0,0,0,180,25a1.21,1.21,0,0,0-.28-.78,1.77,1.77,0,0,0-.73-.54,3.33,3.33,0,0,0-2.44.11,2.47,2.47,0,0,0-.94.8A2,2,0,0,0,175.22,25.71Z"/><path class="cls-2" d="M190.42,32.89a14.41,14.41,0,0,1-1.83-.1,3.9,3.9,0,0,1-1.35-.4,2.58,2.58,0,0,1-.9-.84,4.13,4.13,0,0,1-.52-1.37,10.11,10.11,0,0,1-.17-2.06V16.56a4.4,4.4,0,0,1,.1-.92,1.18,1.18,0,0,1,.49-.7,2.41,2.41,0,0,1,1.32-.27,2.32,2.32,0,0,1,1.28.27,1.21,1.21,0,0,1,.49.7,3.9,3.9,0,0,1,.1.93V27.94a4,4,0,0,0,0,.66.8.8,0,0,0,.15.42.56.56,0,0,0,.31.2,2.44,2.44,0,0,0,.53.05,2.6,2.6,0,0,1,.61.07.89.89,0,0,1,.54.45,2.58,2.58,0,0,1,.22,1.25,2.76,2.76,0,0,1-.23,1.3.87.87,0,0,1-.53.48A2.73,2.73,0,0,1,190.42,32.89Z"/><path class="cls-2" d="M202,32.87a2.41,2.41,0,0,1-1.31-.26,1.06,1.06,0,0,1-.47-.7,4.46,4.46,0,0,1-.09-.91V22.2a4.21,4.21,0,0,1,.08-.89,1,1,0,0,1,.49-.66,2.6,2.6,0,0,1,1.33-.25,2.49,2.49,0,0,1,1.17.21,1.06,1.06,0,0,1,.49.52,1.68,1.68,0,0,1,.11.56,1,1,0,0,0,.05.36l-.15.48a1.45,1.45,0,0,1,.39-.77,3.78,3.78,0,0,1,.85-.7,4.7,4.7,0,0,1,1.1-.48,4,4,0,0,1,1.16-.18,5.05,5.05,0,0,1,2.14.44A4.52,4.52,0,0,1,211,22.1,5.91,5.91,0,0,1,212,24a8.27,8.27,0,0,1,.34,2.44V31a4.47,4.47,0,0,1-.08.91,1,1,0,0,1-.48.69,3.6,3.6,0,0,1-2.66,0,1.08,1.08,0,0,1-.49-.7,4.63,4.63,0,0,1-.09-.92V26.48a2.92,2.92,0,0,0-.26-1.28,1.93,1.93,0,0,0-.75-.8,2.5,2.5,0,0,0-1.22-.27,2.59,2.59,0,0,0-1.25.28,2.06,2.06,0,0,0-.81.82,2.57,2.57,0,0,0-.29,1.25V31a4.53,4.53,0,0,1-.09.91,1.08,1.08,0,0,1-.47.69A2.55,2.55,0,0,1,202,32.87Z"/><path class="cls-2" d="M220.12,32.89a5.26,5.26,0,0,1-2.18-.46,5.43,5.43,0,0,1-1.75-1.26A5.8,5.8,0,0,1,215,29.25a7.14,7.14,0,0,1-.41-2.44V22.28a4.42,4.42,0,0,1,.09-.92,1.08,1.08,0,0,1,.49-.7,2.46,2.46,0,0,1,1.33-.28,2.38,2.38,0,0,1,1.31.28,1.1,1.1,0,0,1,.47.71,4.69,4.69,0,0,1,.09.94v4.5a2.78,2.78,0,0,0,.26,1.26,1.8,1.8,0,0,0,.77.82,2.61,2.61,0,0,0,1.22.27,2.38,2.38,0,0,0,1.23-.29,2,2,0,0,0,.8-.81,2.46,2.46,0,0,0,.29-1.25V22.26a4.44,4.44,0,0,1,.08-.92,1.06,1.06,0,0,1,.49-.69,2.59,2.59,0,0,1,1.33-.26,2.39,2.39,0,0,1,1.31.27,1.15,1.15,0,0,1,.47.72,4.46,4.46,0,0,1,.09.91v8.8a5,5,0,0,1-.08.89,1,1,0,0,1-.49.66,2.52,2.52,0,0,1-1.3.25,2.92,2.92,0,0,1-1.05-.15,1.31,1.31,0,0,1-.55-.38.94.94,0,0,1-.21-.47,2.57,2.57,0,0,1,0-.45l.32-.28a2.27,2.27,0,0,1-.32.39,5,5,0,0,1-.66.57,4.28,4.28,0,0,1-1,.54A3.31,3.31,0,0,1,220.12,32.89Zm-.39-13.38a.85.85,0,0,1-.74-.25,2.63,2.63,0,0,1-.51-1,2,2,0,0,1-.1-1.3,1.35,1.35,0,0,1,.92-.67l4.4-1.35a.88.88,0,0,1,.73.29,2.29,2.29,0,0,1,.5,1,2,2,0,0,1,.09,1.28,1.34,1.34,0,0,1-.92.67Z"/><path class="cls-2" d="M231.07,32.92a2.28,2.28,0,0,1-1.3-.28,1,1,0,0,1-.48-.7,5.29,5.29,0,0,1-.07-.92V22.27a4.31,4.31,0,0,1,.08-.9,1,1,0,0,1,.49-.69,2.49,2.49,0,0,1,1.33-.26,2.09,2.09,0,0,1,1.35.36A1.5,1.5,0,0,1,232.9,22l-.33.27a3,3,0,0,1,.3-.42,5.07,5.07,0,0,1,.66-.63,4.41,4.41,0,0,1,.93-.56,2.85,2.85,0,0,1,1.17-.24,4.83,4.83,0,0,1,1.48.24,3.9,3.9,0,0,1,1.2.7,4.43,4.43,0,0,1,.94,1.17,6.34,6.34,0,0,1,.85-1,4.8,4.8,0,0,1,1.18-.8,3.53,3.53,0,0,1,1.52-.32,4.15,4.15,0,0,1,2.49.74,4.5,4.5,0,0,1,1.53,2.11,9.38,9.38,0,0,1,.53,3.33v4.47a3.85,3.85,0,0,1-.1.91,1.09,1.09,0,0,1-.48.7,2.41,2.41,0,0,1-1.32.27,2.44,2.44,0,0,1-1.32-.28,1,1,0,0,1-.48-.71,5.45,5.45,0,0,1-.07-.92V26.55a4.1,4.1,0,0,0-.18-1.29,1.84,1.84,0,0,0-.54-.82,1.39,1.39,0,0,0-.9-.29,1.73,1.73,0,0,0-1,.27,1.77,1.77,0,0,0-.6.8,3.92,3.92,0,0,0-.2,1.35v4.48A3.24,3.24,0,0,1,240,32a1.17,1.17,0,0,1-.53.69,2.41,2.41,0,0,1-1.34.24,2.09,2.09,0,0,1-1.25-.29,1.12,1.12,0,0,1-.45-.72,5.26,5.26,0,0,1-.08-.89V26.55a4.16,4.16,0,0,0-.18-1.3,1.61,1.61,0,0,0-.52-.83,1.49,1.49,0,0,0-.93-.28,1.56,1.56,0,0,0-1,.33,1.9,1.9,0,0,0-.59.86,3.79,3.79,0,0,0-.19,1.21V31a4.52,4.52,0,0,1-.09.93,1.08,1.08,0,0,1-.49.69A2.52,2.52,0,0,1,231.07,32.92Z"/><path class="cls-2" d="M256,33.16a7.28,7.28,0,0,1-3-.58,5.84,5.84,0,0,1-2.06-1.51,6.61,6.61,0,0,1-1.2-2.09,6.92,6.92,0,0,1-.4-2.3,6.54,6.54,0,0,1,.85-3.33,6.19,6.19,0,0,1,2.37-2.28,7,7,0,0,1,3.46-.84,6.21,6.21,0,0,1,2.51.47,5.12,5.12,0,0,1,2.78,2.79,4.42,4.42,0,0,1,.33,1.62,2.82,2.82,0,0,1-.66,2.05,2.27,2.27,0,0,1-1.69.67h-5.95a1.77,1.77,0,0,0,.46,1.08,2.85,2.85,0,0,0,1,.7,3.7,3.7,0,0,0,1.33.25,8.05,8.05,0,0,0,1-.06,4.43,4.43,0,0,0,.79-.18c.22-.07.41-.15.59-.22s.34-.14.48-.19a2.63,2.63,0,0,1,.43-.1,1,1,0,0,1,.68.21,2.16,2.16,0,0,1,.57.72,1.85,1.85,0,0,1,.24.52,2.14,2.14,0,0,1,.06.5,1.36,1.36,0,0,1-.61,1.09,4.74,4.74,0,0,1-1.73.73A11,11,0,0,1,256,33.16Zm-2.67-7.4h3.95a1.06,1.06,0,0,0,.58-.14.62.62,0,0,0,.2-.54,1.18,1.18,0,0,0-.28-.77,1.75,1.75,0,0,0-.73-.54,2.83,2.83,0,0,0-1.09-.19,3,3,0,0,0-1.35.3,2.47,2.47,0,0,0-.94.8A1.92,1.92,0,0,0,253.32,25.76Z"/><path class="cls-2" d="M265.59,32.94a2.39,2.39,0,0,1-1.31-.27,1,1,0,0,1-.47-.71,4.7,4.7,0,0,1-.09-.92V22.31a4.42,4.42,0,0,1,.09-.92,1,1,0,0,1,.49-.69,2.47,2.47,0,0,1,1.32-.26,2.52,2.52,0,0,1,1.27.24,1,1,0,0,1,.48.55,1.68,1.68,0,0,1,.1.53l-.3.15.27-.36A3.58,3.58,0,0,1,268,21a3.71,3.71,0,0,1,.91-.49,3.63,3.63,0,0,1,1.24-.19l.61,0a4.89,4.89,0,0,1,.7.15,3.32,3.32,0,0,1,.66.3,1.69,1.69,0,0,1,.49.47,1.2,1.2,0,0,1,.18.67,3.12,3.12,0,0,1-.47,1.74,1.42,1.42,0,0,1-1.2.71,2,2,0,0,1-.6-.06,1,1,0,0,1-.29-.15A.93.93,0,0,0,270,24a1.72,1.72,0,0,0-.55-.06,2.71,2.71,0,0,0-.71.09,2.08,2.08,0,0,0-.63.32,1.45,1.45,0,0,0-.61,1.23v5.48a5.31,5.31,0,0,1-.08.91,1.07,1.07,0,0,1-.49.69A2.6,2.6,0,0,1,265.59,32.94Z"/><path class="cls-2" d="M280.79,33.15a6.3,6.3,0,0,1-2.34-.47,7.16,7.16,0,0,1-2.11-1.31,6.53,6.53,0,0,1-1.51-2,6.15,6.15,0,0,1-.56-2.64,6,6,0,0,1,.52-2.51,6.78,6.78,0,0,1,3.47-3.47,6.16,6.16,0,0,1,2.49-.51,6.33,6.33,0,0,1,3.26.86,6.56,6.56,0,0,1,2.34,2.34,6.71,6.71,0,0,1,.31,6,6.5,6.5,0,0,1-1.5,2,6.57,6.57,0,0,1-2.08,1.29A6.38,6.38,0,0,1,280.79,33.15Zm-.05-3.78a2.85,2.85,0,0,0,1.23-.3,2.67,2.67,0,0,0,1-.9,2.58,2.58,0,0,0,.43-1.52,2.77,2.77,0,0,0-.35-1.4,2.58,2.58,0,0,0-1-.94,2.78,2.78,0,0,0-1.41-.34,2.63,2.63,0,0,0-1.34.35,2.73,2.73,0,0,0-.95,1,2.93,2.93,0,0,0,.05,2.9,2.49,2.49,0,0,0,1,.9A2.79,2.79,0,0,0,280.74,29.37Z"/><path class="cls-2" d="M297.24,32.93a1.76,1.76,0,0,1-1.32-.59,1.82,1.82,0,0,1-.58-1.33,3.82,3.82,0,0,1,.09-.85,3.17,3.17,0,0,1,.28-.78,2.42,2.42,0,0,1,.48-.67,14.25,14.25,0,0,1,2-1.64c.72-.49,1.43-1,2.14-1.4s1.36-.88,1.95-1.32a6.14,6.14,0,0,0,1.41-1.43,2.85,2.85,0,0,0,.53-1.66,2.65,2.65,0,0,0-.21-1,1.8,1.8,0,0,0-.75-.85,2.86,2.86,0,0,0-1.54-.34,3.41,3.41,0,0,0-1.11.17,2,2,0,0,0-.8.53,2.2,2.2,0,0,0-.47.85,4.27,4.27,0,0,0-.15,1.12,4.91,4.91,0,0,1-.08.89,1,1,0,0,1-.49.66,2.66,2.66,0,0,1-1.35.25,2.25,2.25,0,0,1-1.34-.29,1.13,1.13,0,0,1-.47-.75,4.88,4.88,0,0,1-.09-.93,6.51,6.51,0,0,1,.43-2.34,6.1,6.1,0,0,1,1.25-2,6,6,0,0,1,2-1.41,6.4,6.4,0,0,1,2.65-.52,6.52,6.52,0,0,1,3.26.81,6,6,0,0,1,2.27,2.24,6.33,6.33,0,0,1,.84,3.28,5.5,5.5,0,0,1-.36,2,7.49,7.49,0,0,1-.94,1.69,8.78,8.78,0,0,1-1.29,1.36A13.24,13.24,0,0,1,304,27.72c-.48.31-.93.57-1.35.79l-1.05.55-.35.05h5.52a4.59,4.59,0,0,1,.94.1,1.14,1.14,0,0,1,.7.5,2.54,2.54,0,0,1,.26,1.35,2.38,2.38,0,0,1-.27,1.29,1.12,1.12,0,0,1-.73.5,4.79,4.79,0,0,1-.95.09Z"/><path class="cls-2" d="M316.54,33.24a6.8,6.8,0,0,1-3.22-.75,5.79,5.79,0,0,1-2.25-2.05,5.36,5.36,0,0,1-.82-3,4.07,4.07,0,0,1,.23-1.42,5.49,5.49,0,0,1,.59-1.16,6.47,6.47,0,0,1,.68-.84,5.15,5.15,0,0,1,.48-.45c.11-.08.13-.08.07,0,.1.07.08.05-.07-.06a4.81,4.81,0,0,1-.56-.59,4.31,4.31,0,0,1-.62-1.07,3.62,3.62,0,0,1-.28-1.46,4.91,4.91,0,0,1,.77-2.68,5.45,5.45,0,0,1,2.07-1.88,6.37,6.37,0,0,1,2.94-.68,6,6,0,0,1,2.88.69,5.27,5.27,0,0,1,2,1.9,5.1,5.1,0,0,1,.75,2.74,3.19,3.19,0,0,1-.18,1.06,5.36,5.36,0,0,1-.42.94,5.59,5.59,0,0,1-.49.7l-.35.38c-.07.08-.09.08,0,0s0-.08.06,0a5.54,5.54,0,0,1,.49.46,5.12,5.12,0,0,1,.66.84,5,5,0,0,1,.57,1.16,4.28,4.28,0,0,1,.22,1.4,5.36,5.36,0,0,1-.54,2.43,5.67,5.67,0,0,1-1.43,1.82,6.38,6.38,0,0,1-2,1.14A6.59,6.59,0,0,1,316.54,33.24Zm0-3.6a2.74,2.74,0,0,0,1.27-.26,2,2,0,0,0,1.13-1.84,2.06,2.06,0,0,0-.3-1.12,1.93,1.93,0,0,0-.84-.73,3.5,3.5,0,0,0-2.6,0,1.91,1.91,0,0,0-.83.73,2.13,2.13,0,0,0-.31,1.12,2.08,2.08,0,0,0,.3,1.1,2,2,0,0,0,.85.74A3,3,0,0,0,316.52,29.64Zm0-7.62a2.35,2.35,0,0,0,1-.2,1.44,1.44,0,0,0,.65-.56,1.61,1.61,0,0,0,.23-.87,1.47,1.47,0,0,0-.24-.83,1.67,1.67,0,0,0-.66-.57,2.6,2.6,0,0,0-2,0,1.51,1.51,0,0,0-.65.57,1.65,1.65,0,0,0,0,1.7,1.65,1.65,0,0,0,.66.56A2.41,2.41,0,0,0,316.52,22Z"/><path class="cls-3" d="M107.26,15.34a3.81,3.81,0,0,1,.78.08.92.92,0,0,1,.59.42,2.23,2.23,0,0,1,.23,1.15,2.15,2.15,0,0,1-.23,1.13.91.91,0,0,1-.6.42,4.09,4.09,0,0,1-.8.08h-4V31a4.29,4.29,0,0,1-.09.9,1.1,1.1,0,0,1-.48.69,2.54,2.54,0,0,1-1.33.26,2.45,2.45,0,0,1-1.28-.26,1.08,1.08,0,0,1-.49-.7,5.52,5.52,0,0,1-.08-.92V18.61h-4a3.31,3.31,0,0,1-.77-.09A1,1,0,0,1,94,18.1,2.06,2.06,0,0,1,93.78,17,2.06,2.06,0,0,1,94,15.83a1,1,0,0,1,.61-.42,4,4,0,0,1,.78-.07Z"/><path class="cls-3" d="M112.82,32.85a2.37,2.37,0,0,1-1.31-.27,1.07,1.07,0,0,1-.48-.71A4.7,4.7,0,0,1,111,31V22.22a4.59,4.59,0,0,1,.09-.93,1,1,0,0,1,.49-.68,2.45,2.45,0,0,1,1.32-.26,2.58,2.58,0,0,1,1.26.23,1,1,0,0,1,.49.56,1.63,1.63,0,0,1,.1.53l-.3.15c0-.06.12-.18.26-.36a4,4,0,0,1,.59-.55,3.9,3.9,0,0,1,.91-.49,3.66,3.66,0,0,1,1.24-.2c.19,0,.39,0,.62,0a5.2,5.2,0,0,1,.7.15,3.32,3.32,0,0,1,.66.3,1.54,1.54,0,0,1,.48.47,1.11,1.11,0,0,1,.19.67,3.14,3.14,0,0,1-.47,1.74,1.42,1.42,0,0,1-1.2.71,2,2,0,0,1-.6-.06,1.11,1.11,0,0,1-.29-.15,1.1,1.1,0,0,0-.26-.15,1.42,1.42,0,0,0-.55-.07,2.84,2.84,0,0,0-.72.1,1.93,1.93,0,0,0-.62.32,1.5,1.5,0,0,0-.45.52,1.52,1.52,0,0,0-.17.71V31a4.53,4.53,0,0,1-.09.91,1.06,1.06,0,0,1-.48.69A2.71,2.71,0,0,1,112.82,32.85Z"/><path class="cls-3" d="M132.22,32.83a2.39,2.39,0,0,1-1.37-.32.91.91,0,0,1-.43-.8l.25-.43a2.72,2.72,0,0,1-.57.61,4.08,4.08,0,0,1-1.12.65,4.33,4.33,0,0,1-1.66.29,5,5,0,0,1-2.19-.5,5.85,5.85,0,0,1-1.83-1.39,7,7,0,0,1-1.28-2,6.16,6.16,0,0,1-.47-2.38,5.87,5.87,0,0,1,.48-2.34,6.51,6.51,0,0,1,3.12-3.33,5,5,0,0,1,2.18-.5,4.3,4.3,0,0,1,1.57.26,4.16,4.16,0,0,1,1.09.62,3.43,3.43,0,0,1,.66.67l-.22-.35a1,1,0,0,1,.43-.91,2.44,2.44,0,0,1,1.39-.31,2.34,2.34,0,0,1,1.29.27,1.11,1.11,0,0,1,.47.73,4.86,4.86,0,0,1,.09.95v8.62a4.73,4.73,0,0,1-.09.93,1.07,1.07,0,0,1-.48.71A2.38,2.38,0,0,1,132.22,32.83Zm-4.37-3.72a2.21,2.21,0,0,0,1.2-.34,2.56,2.56,0,0,0,1.17-2.19,2.52,2.52,0,0,0-.32-1.29,2.45,2.45,0,0,0-.87-.88,2.36,2.36,0,0,0-1.23-.33,2.33,2.33,0,0,0-1.26.34,2.53,2.53,0,0,0-1.24,2.21,2.34,2.34,0,0,0,.34,1.24,2.56,2.56,0,0,0,.92.9A2.7,2.7,0,0,0,127.85,29.11Z"/><path class="cls-3" d="M138,32.86a1.77,1.77,0,0,1-1.31-.54,1.8,1.8,0,0,1-.54-1.33,2,2,0,0,1,.14-.73,1.81,1.81,0,0,1,.41-.62l5.68-5.5h-3.8a4.45,4.45,0,0,1-.91-.1,1.25,1.25,0,0,1-.73-.49,2.29,2.29,0,0,1-.28-1.31,2.31,2.31,0,0,1,.28-1.32,1.2,1.2,0,0,1,.73-.47,4.46,4.46,0,0,1,.91-.09h7.83a1.8,1.8,0,0,1,1.85,1.85,2.18,2.18,0,0,1-.14.76,1.45,1.45,0,0,1-.39.59l-5.55,5.52h4.52a4.57,4.57,0,0,1,.93.1,1.13,1.13,0,0,1,.68.5,2.47,2.47,0,0,1,.27,1.33,2.39,2.39,0,0,1-.28,1.3,1.07,1.07,0,0,1-.7.47,5.25,5.25,0,0,1-.92.08Z"/><path class="cls-3" d="M160.79,32.85a2.33,2.33,0,0,1-1.37-.33.91.91,0,0,1-.43-.8l.26-.42a2.82,2.82,0,0,1-.58.61,4.11,4.11,0,0,1-1.11.65,4.36,4.36,0,0,1-1.66.29,5,5,0,0,1-2.19-.5A6,6,0,0,1,151.87,31a7,7,0,0,1-1.27-2,6,6,0,0,1-.48-2.37,5.83,5.83,0,0,1,.48-2.34,6.72,6.72,0,0,1,1.29-2,6.07,6.07,0,0,1,1.84-1.36,4.8,4.8,0,0,1,2.17-.5,4.35,4.35,0,0,1,1.58.26,4.57,4.57,0,0,1,1.08.61,3.26,3.26,0,0,1,.67.68L159,21.6a1,1,0,0,1,.44-.91,2.33,2.33,0,0,1,1.39-.31,2.28,2.28,0,0,1,1.28.27,1.14,1.14,0,0,1,.48.73,4.79,4.79,0,0,1,.09.95V31a4.73,4.73,0,0,1-.09.93,1.08,1.08,0,0,1-.47.71A2.52,2.52,0,0,1,160.79,32.85Zm-4.37-3.73a2.21,2.21,0,0,0,1.2-.33,2.51,2.51,0,0,0,.85-.92,2.48,2.48,0,0,0,.33-1.27,2.53,2.53,0,0,0-.33-1.29,2.4,2.4,0,0,0-.87-.89,2.55,2.55,0,0,0-2.49,0,2.64,2.64,0,0,0-.9.92,2.54,2.54,0,0,0-.34,1.3,2.28,2.28,0,0,0,.34,1.23,2.41,2.41,0,0,0,.92.9A2.51,2.51,0,0,0,156.42,29.12Z"/><path class="cls-3" d="M177.89,33.11a7.12,7.12,0,0,1-3-.58A5.84,5.84,0,0,1,172.82,31a6.61,6.61,0,0,1-1.2-2.09,7.14,7.14,0,0,1-.4-2.3,6.48,6.48,0,0,1,.85-3.32A6.14,6.14,0,0,1,174.44,21a6.9,6.9,0,0,1,3.46-.83,6.18,6.18,0,0,1,2.51.46,5.23,5.23,0,0,1,1.75,1.2,5.1,5.1,0,0,1,1,1.59,4.5,4.5,0,0,1,.33,1.62,2.82,2.82,0,0,1-.66,2.05,2.26,2.26,0,0,1-1.69.68h-5.95a1.82,1.82,0,0,0,.46,1.08,2.85,2.85,0,0,0,1,.7,3.5,3.5,0,0,0,1.33.25,7.94,7.94,0,0,0,1-.06,3.7,3.7,0,0,0,.79-.18c.22-.07.41-.15.59-.22a4.44,4.44,0,0,1,.49-.19,2.53,2.53,0,0,1,.42-.1,1,1,0,0,1,.68.22,2,2,0,0,1,.57.71,1.71,1.71,0,0,1,.24.52,2.2,2.2,0,0,1,.06.5,1.34,1.34,0,0,1-.61,1.09,4.91,4.91,0,0,1-1.73.74A11.56,11.56,0,0,1,177.89,33.11Zm-2.67-7.4h3.95a1,1,0,0,0,.58-.14A.61.61,0,0,0,180,25a1.21,1.21,0,0,0-.28-.78,1.77,1.77,0,0,0-.73-.54,3.33,3.33,0,0,0-2.44.11,2.47,2.47,0,0,0-.94.8A2,2,0,0,0,175.22,25.71Z"/><path class="cls-3" d="M190.42,32.89a14.41,14.41,0,0,1-1.83-.1,3.9,3.9,0,0,1-1.35-.4,2.58,2.58,0,0,1-.9-.84,4.13,4.13,0,0,1-.52-1.37,10.11,10.11,0,0,1-.17-2.06V16.56a4.4,4.4,0,0,1,.1-.92,1.18,1.18,0,0,1,.49-.7,2.41,2.41,0,0,1,1.32-.27,2.32,2.32,0,0,1,1.28.27,1.21,1.21,0,0,1,.49.7,3.9,3.9,0,0,1,.1.93V27.94a4,4,0,0,0,0,.66.8.8,0,0,0,.15.42.56.56,0,0,0,.31.2,2.44,2.44,0,0,0,.53.05,2.6,2.6,0,0,1,.61.07.89.89,0,0,1,.54.45,2.58,2.58,0,0,1,.22,1.25,2.76,2.76,0,0,1-.23,1.3.87.87,0,0,1-.53.48A2.73,2.73,0,0,1,190.42,32.89Z"/><path class="cls-3" d="M202,32.87a2.41,2.41,0,0,1-1.31-.26,1.06,1.06,0,0,1-.47-.7,4.46,4.46,0,0,1-.09-.91V22.2a4.21,4.21,0,0,1,.08-.89,1,1,0,0,1,.49-.66,2.6,2.6,0,0,1,1.33-.25,2.49,2.49,0,0,1,1.17.21,1.06,1.06,0,0,1,.49.52,1.68,1.68,0,0,1,.11.56,1,1,0,0,0,.05.36l-.15.48a1.45,1.45,0,0,1,.39-.77,3.78,3.78,0,0,1,.85-.7,4.7,4.7,0,0,1,1.1-.48,4,4,0,0,1,1.16-.18,5.05,5.05,0,0,1,2.14.44A4.52,4.52,0,0,1,211,22.1,5.91,5.91,0,0,1,212,24a8.27,8.27,0,0,1,.34,2.44V31a4.47,4.47,0,0,1-.08.91,1,1,0,0,1-.48.69,3.6,3.6,0,0,1-2.66,0,1.08,1.08,0,0,1-.49-.7,4.63,4.63,0,0,1-.09-.92V26.48a2.92,2.92,0,0,0-.26-1.28,1.93,1.93,0,0,0-.75-.8,2.5,2.5,0,0,0-1.22-.27,2.59,2.59,0,0,0-1.25.28,2.06,2.06,0,0,0-.81.82,2.57,2.57,0,0,0-.29,1.25V31a4.53,4.53,0,0,1-.09.91,1.08,1.08,0,0,1-.47.69A2.55,2.55,0,0,1,202,32.87Z"/><path class="cls-3" d="M220.12,32.89a5.26,5.26,0,0,1-2.18-.46,5.43,5.43,0,0,1-1.75-1.26A5.8,5.8,0,0,1,215,29.25a7.14,7.14,0,0,1-.41-2.44V22.28a4.42,4.42,0,0,1,.09-.92,1.08,1.08,0,0,1,.49-.7,2.46,2.46,0,0,1,1.33-.28,2.38,2.38,0,0,1,1.31.28,1.1,1.1,0,0,1,.47.71,4.69,4.69,0,0,1,.09.94v4.5a2.78,2.78,0,0,0,.26,1.26,1.8,1.8,0,0,0,.77.82,2.61,2.61,0,0,0,1.22.27,2.38,2.38,0,0,0,1.23-.29,2,2,0,0,0,.8-.81,2.46,2.46,0,0,0,.29-1.25V22.26a4.44,4.44,0,0,1,.08-.92,1.06,1.06,0,0,1,.49-.69,2.59,2.59,0,0,1,1.33-.26,2.39,2.39,0,0,1,1.31.27,1.15,1.15,0,0,1,.47.72,4.46,4.46,0,0,1,.09.91v8.8a5,5,0,0,1-.08.89,1,1,0,0,1-.49.66,2.52,2.52,0,0,1-1.3.25,2.92,2.92,0,0,1-1.05-.15,1.31,1.31,0,0,1-.55-.38.94.94,0,0,1-.21-.47,2.57,2.57,0,0,1,0-.45l.32-.28a2.27,2.27,0,0,1-.32.39,5,5,0,0,1-.66.57,4.28,4.28,0,0,1-1,.54A3.31,3.31,0,0,1,220.12,32.89Zm-.39-13.38a.85.85,0,0,1-.74-.25,2.63,2.63,0,0,1-.51-1,2,2,0,0,1-.1-1.3,1.35,1.35,0,0,1,.92-.67l4.4-1.35a.88.88,0,0,1,.73.29,2.29,2.29,0,0,1,.5,1,2,2,0,0,1,.09,1.28,1.34,1.34,0,0,1-.92.67Z"/><path class="cls-3" d="M231.07,32.92a2.28,2.28,0,0,1-1.3-.28,1,1,0,0,1-.48-.7,5.29,5.29,0,0,1-.07-.92V22.27a4.31,4.31,0,0,1,.08-.9,1,1,0,0,1,.49-.69,2.49,2.49,0,0,1,1.33-.26,2.09,2.09,0,0,1,1.35.36A1.5,1.5,0,0,1,232.9,22l-.33.27a3,3,0,0,1,.3-.42,5.07,5.07,0,0,1,.66-.63,4.41,4.41,0,0,1,.93-.56,2.85,2.85,0,0,1,1.17-.24,4.83,4.83,0,0,1,1.48.24,3.9,3.9,0,0,1,1.2.7,4.43,4.43,0,0,1,.94,1.17,6.34,6.34,0,0,1,.85-1,4.8,4.8,0,0,1,1.18-.8,3.53,3.53,0,0,1,1.52-.32,4.15,4.15,0,0,1,2.49.74,4.5,4.5,0,0,1,1.53,2.11,9.38,9.38,0,0,1,.53,3.33v4.47a3.85,3.85,0,0,1-.1.91,1.09,1.09,0,0,1-.48.7,2.41,2.41,0,0,1-1.32.27,2.44,2.44,0,0,1-1.32-.28,1,1,0,0,1-.48-.71,5.45,5.45,0,0,1-.07-.92V26.55a4.1,4.1,0,0,0-.18-1.29,1.84,1.84,0,0,0-.54-.82,1.39,1.39,0,0,0-.9-.29,1.73,1.73,0,0,0-1,.27,1.77,1.77,0,0,0-.6.8,3.92,3.92,0,0,0-.2,1.35v4.48A3.24,3.24,0,0,1,240,32a1.17,1.17,0,0,1-.53.69,2.41,2.41,0,0,1-1.34.24,2.09,2.09,0,0,1-1.25-.29,1.12,1.12,0,0,1-.45-.72,5.26,5.26,0,0,1-.08-.89V26.55a4.16,4.16,0,0,0-.18-1.3,1.61,1.61,0,0,0-.52-.83,1.49,1.49,0,0,0-.93-.28,1.56,1.56,0,0,0-1,.33,1.9,1.9,0,0,0-.59.86,3.79,3.79,0,0,0-.19,1.21V31a4.52,4.52,0,0,1-.09.93,1.08,1.08,0,0,1-.49.69A2.52,2.52,0,0,1,231.07,32.92Z"/><path class="cls-3" d="M256,33.16a7.28,7.28,0,0,1-3-.58,5.84,5.84,0,0,1-2.06-1.51,6.61,6.61,0,0,1-1.2-2.09,6.92,6.92,0,0,1-.4-2.3,6.54,6.54,0,0,1,.85-3.33,6.19,6.19,0,0,1,2.37-2.28,7,7,0,0,1,3.46-.84,6.21,6.21,0,0,1,2.51.47,5.12,5.12,0,0,1,2.78,2.79,4.42,4.42,0,0,1,.33,1.62,2.82,2.82,0,0,1-.66,2.05,2.27,2.27,0,0,1-1.69.67h-5.95a1.77,1.77,0,0,0,.46,1.08,2.85,2.85,0,0,0,1,.7,3.7,3.7,0,0,0,1.33.25,8.05,8.05,0,0,0,1-.06,4.43,4.43,0,0,0,.79-.18c.22-.07.41-.15.59-.22s.34-.14.48-.19a2.63,2.63,0,0,1,.43-.1,1,1,0,0,1,.68.21,2.16,2.16,0,0,1,.57.72,1.85,1.85,0,0,1,.24.52,2.14,2.14,0,0,1,.06.5,1.36,1.36,0,0,1-.61,1.09,4.74,4.74,0,0,1-1.73.73A11,11,0,0,1,256,33.16Zm-2.67-7.4h3.95a1.06,1.06,0,0,0,.58-.14.62.62,0,0,0,.2-.54,1.18,1.18,0,0,0-.28-.77,1.75,1.75,0,0,0-.73-.54,2.83,2.83,0,0,0-1.09-.19,3,3,0,0,0-1.35.3,2.47,2.47,0,0,0-.94.8A1.92,1.92,0,0,0,253.32,25.76Z"/><path class="cls-3" d="M265.59,32.94a2.39,2.39,0,0,1-1.31-.27,1,1,0,0,1-.47-.71,4.7,4.7,0,0,1-.09-.92V22.31a4.42,4.42,0,0,1,.09-.92,1,1,0,0,1,.49-.69,2.47,2.47,0,0,1,1.32-.26,2.52,2.52,0,0,1,1.27.24,1,1,0,0,1,.48.55,1.68,1.68,0,0,1,.1.53l-.3.15.27-.36A3.58,3.58,0,0,1,268,21a3.71,3.71,0,0,1,.91-.49,3.63,3.63,0,0,1,1.24-.19l.61,0a4.89,4.89,0,0,1,.7.15,3.32,3.32,0,0,1,.66.3,1.69,1.69,0,0,1,.49.47,1.2,1.2,0,0,1,.18.67,3.12,3.12,0,0,1-.47,1.74,1.42,1.42,0,0,1-1.2.71,2,2,0,0,1-.6-.06,1,1,0,0,1-.29-.15A.93.93,0,0,0,270,24a1.72,1.72,0,0,0-.55-.06,2.71,2.71,0,0,0-.71.09,2.08,2.08,0,0,0-.63.32,1.45,1.45,0,0,0-.61,1.23v5.48a5.31,5.31,0,0,1-.08.91,1.07,1.07,0,0,1-.49.69A2.6,2.6,0,0,1,265.59,32.94Z"/><path class="cls-3" d="M280.79,33.15a6.3,6.3,0,0,1-2.34-.47,7.16,7.16,0,0,1-2.11-1.31,6.53,6.53,0,0,1-1.51-2,6.15,6.15,0,0,1-.56-2.64,6,6,0,0,1,.52-2.51,6.78,6.78,0,0,1,3.47-3.47,6.16,6.16,0,0,1,2.49-.51,6.33,6.33,0,0,1,3.26.86,6.56,6.56,0,0,1,2.34,2.34,6.71,6.71,0,0,1,.31,6,6.5,6.5,0,0,1-1.5,2,6.57,6.57,0,0,1-2.08,1.29A6.38,6.38,0,0,1,280.79,33.15Zm-.05-3.78a2.85,2.85,0,0,0,1.23-.3,2.67,2.67,0,0,0,1-.9,2.58,2.58,0,0,0,.43-1.52,2.77,2.77,0,0,0-.35-1.4,2.58,2.58,0,0,0-1-.94,2.78,2.78,0,0,0-1.41-.34,2.63,2.63,0,0,0-1.34.35,2.73,2.73,0,0,0-.95,1,2.93,2.93,0,0,0,.05,2.9,2.49,2.49,0,0,0,1,.9A2.79,2.79,0,0,0,280.74,29.37Z"/><path class="cls-3" d="M297.24,32.93a1.76,1.76,0,0,1-1.32-.59,1.82,1.82,0,0,1-.58-1.33,3.82,3.82,0,0,1,.09-.85,3.17,3.17,0,0,1,.28-.78,2.42,2.42,0,0,1,.48-.67,14.25,14.25,0,0,1,2-1.64c.72-.49,1.43-1,2.14-1.4s1.36-.88,1.95-1.32a6.14,6.14,0,0,0,1.41-1.43,2.85,2.85,0,0,0,.53-1.66,2.65,2.65,0,0,0-.21-1,1.8,1.8,0,0,0-.75-.85,2.86,2.86,0,0,0-1.54-.34,3.41,3.41,0,0,0-1.11.17,2,2,0,0,0-.8.53,2.2,2.2,0,0,0-.47.85,4.27,4.27,0,0,0-.15,1.12,4.91,4.91,0,0,1-.08.89,1,1,0,0,1-.49.66,2.66,2.66,0,0,1-1.35.25,2.25,2.25,0,0,1-1.34-.29,1.13,1.13,0,0,1-.47-.75,4.88,4.88,0,0,1-.09-.93,6.51,6.51,0,0,1,.43-2.34,6.1,6.1,0,0,1,1.25-2,6,6,0,0,1,2-1.41,6.4,6.4,0,0,1,2.65-.52,6.52,6.52,0,0,1,3.26.81,6,6,0,0,1,2.27,2.24,6.33,6.33,0,0,1,.84,3.28,5.5,5.5,0,0,1-.36,2,7.49,7.49,0,0,1-.94,1.69,8.78,8.78,0,0,1-1.29,1.36A13.24,13.24,0,0,1,304,27.72c-.48.31-.93.57-1.35.79l-1.05.55-.35.05h5.52a4.59,4.59,0,0,1,.94.1,1.14,1.14,0,0,1,.7.5,2.54,2.54,0,0,1,.26,1.35,2.38,2.38,0,0,1-.27,1.29,1.12,1.12,0,0,1-.73.5,4.79,4.79,0,0,1-.95.09Z"/><path class="cls-3" d="M316.54,33.24a6.8,6.8,0,0,1-3.22-.75,5.79,5.79,0,0,1-2.25-2.05,5.36,5.36,0,0,1-.82-3,4.07,4.07,0,0,1,.23-1.42,5.49,5.49,0,0,1,.59-1.16,6.47,6.47,0,0,1,.68-.84,5.15,5.15,0,0,1,.48-.45c.11-.08.13-.08.07,0,.1.07.08.05-.07-.06a4.81,4.81,0,0,1-.56-.59,4.31,4.31,0,0,1-.62-1.07,3.62,3.62,0,0,1-.28-1.46,4.91,4.91,0,0,1,.77-2.68,5.45,5.45,0,0,1,2.07-1.88,6.37,6.37,0,0,1,2.94-.68,6,6,0,0,1,2.88.69,5.27,5.27,0,0,1,2,1.9,5.1,5.1,0,0,1,.75,2.74,3.19,3.19,0,0,1-.18,1.06,5.36,5.36,0,0,1-.42.94,5.59,5.59,0,0,1-.49.7l-.35.38c-.07.08-.09.08,0,0s0-.08.06,0a5.54,5.54,0,0,1,.49.46,5.12,5.12,0,0,1,.66.84,5,5,0,0,1,.57,1.16,4.28,4.28,0,0,1,.22,1.4,5.36,5.36,0,0,1-.54,2.43,5.67,5.67,0,0,1-1.43,1.82,6.38,6.38,0,0,1-2,1.14A6.59,6.59,0,0,1,316.54,33.24Zm0-3.6a2.74,2.74,0,0,0,1.27-.26,2,2,0,0,0,1.13-1.84,2.06,2.06,0,0,0-.3-1.12,1.93,1.93,0,0,0-.84-.73,3.5,3.5,0,0,0-2.6,0,1.91,1.91,0,0,0-.83.73,2.13,2.13,0,0,0-.31,1.12,2.08,2.08,0,0,0,.3,1.1,2,2,0,0,0,.85.74A3,3,0,0,0,316.52,29.64Zm0-7.62a2.35,2.35,0,0,0,1-.2,1.44,1.44,0,0,0,.65-.56,1.61,1.61,0,0,0,.23-.87,1.47,1.47,0,0,0-.24-.83,1.67,1.67,0,0,0-.66-.57,2.6,2.6,0,0,0-2,0,1.51,1.51,0,0,0-.65.57,1.65,1.65,0,0,0,0,1.7,1.65,1.65,0,0,0,.66.56A2.41,2.41,0,0,0,316.52,22Z"/><path class="cls-2" d="M107.26,15.34a3.81,3.81,0,0,1,.78.08.92.92,0,0,1,.59.42,2.23,2.23,0,0,1,.23,1.15,2.15,2.15,0,0,1-.23,1.13.91.91,0,0,1-.6.42,4.09,4.09,0,0,1-.8.08h-4V31a4.29,4.29,0,0,1-.09.9,1.1,1.1,0,0,1-.48.69,2.54,2.54,0,0,1-1.33.26,2.45,2.45,0,0,1-1.28-.26,1.08,1.08,0,0,1-.49-.7,5.52,5.52,0,0,1-.08-.92V18.61h-4a3.31,3.31,0,0,1-.77-.09A1,1,0,0,1,94,18.1,2.06,2.06,0,0,1,93.78,17,2.06,2.06,0,0,1,94,15.83a1,1,0,0,1,.61-.42,4,4,0,0,1,.78-.07Z"/><path class="cls-2" d="M112.82,32.85a2.37,2.37,0,0,1-1.31-.27,1.07,1.07,0,0,1-.48-.71A4.7,4.7,0,0,1,111,31V22.22a4.59,4.59,0,0,1,.09-.93,1,1,0,0,1,.49-.68,2.45,2.45,0,0,1,1.32-.26,2.58,2.58,0,0,1,1.26.23,1,1,0,0,1,.49.56,1.63,1.63,0,0,1,.1.53l-.3.15c0-.06.12-.18.26-.36a4,4,0,0,1,.59-.55,3.9,3.9,0,0,1,.91-.49,3.66,3.66,0,0,1,1.24-.2c.19,0,.39,0,.62,0a5.2,5.2,0,0,1,.7.15,3.32,3.32,0,0,1,.66.3,1.54,1.54,0,0,1,.48.47,1.11,1.11,0,0,1,.19.67,3.14,3.14,0,0,1-.47,1.74,1.42,1.42,0,0,1-1.2.71,2,2,0,0,1-.6-.06,1.11,1.11,0,0,1-.29-.15,1.1,1.1,0,0,0-.26-.15,1.42,1.42,0,0,0-.55-.07,2.84,2.84,0,0,0-.72.1,1.93,1.93,0,0,0-.62.32,1.5,1.5,0,0,0-.45.52,1.52,1.52,0,0,0-.17.71V31a4.53,4.53,0,0,1-.09.91,1.06,1.06,0,0,1-.48.69A2.71,2.71,0,0,1,112.82,32.85Z"/><path class="cls-2" d="M132.22,32.83a2.39,2.39,0,0,1-1.37-.32.91.91,0,0,1-.43-.8l.25-.43a2.72,2.72,0,0,1-.57.61,4.08,4.08,0,0,1-1.12.65,4.33,4.33,0,0,1-1.66.29,5,5,0,0,1-2.19-.5,5.85,5.85,0,0,1-1.83-1.39,7,7,0,0,1-1.28-2,6.16,6.16,0,0,1-.47-2.38,5.87,5.87,0,0,1,.48-2.34,6.51,6.51,0,0,1,3.12-3.33,5,5,0,0,1,2.18-.5,4.3,4.3,0,0,1,1.57.26,4.16,4.16,0,0,1,1.09.62,3.43,3.43,0,0,1,.66.67l-.22-.35a1,1,0,0,1,.43-.91,2.44,2.44,0,0,1,1.39-.31,2.34,2.34,0,0,1,1.29.27,1.11,1.11,0,0,1,.47.73,4.86,4.86,0,0,1,.09.95v8.62a4.73,4.73,0,0,1-.09.93,1.07,1.07,0,0,1-.48.71A2.38,2.38,0,0,1,132.22,32.83Zm-4.37-3.72a2.21,2.21,0,0,0,1.2-.34,2.56,2.56,0,0,0,1.17-2.19,2.52,2.52,0,0,0-.32-1.29,2.45,2.45,0,0,0-.87-.88,2.36,2.36,0,0,0-1.23-.33,2.33,2.33,0,0,0-1.26.34,2.53,2.53,0,0,0-1.24,2.21,2.34,2.34,0,0,0,.34,1.24,2.56,2.56,0,0,0,.92.9A2.7,2.7,0,0,0,127.85,29.11Z"/><path class="cls-2" d="M138,32.86a1.77,1.77,0,0,1-1.31-.54,1.8,1.8,0,0,1-.54-1.33,2,2,0,0,1,.14-.73,1.81,1.81,0,0,1,.41-.62l5.68-5.5h-3.8a4.45,4.45,0,0,1-.91-.1,1.25,1.25,0,0,1-.73-.49,2.29,2.29,0,0,1-.28-1.31,2.31,2.31,0,0,1,.28-1.32,1.2,1.2,0,0,1,.73-.47,4.46,4.46,0,0,1,.91-.09h7.83a1.8,1.8,0,0,1,1.85,1.85,2.18,2.18,0,0,1-.14.76,1.45,1.45,0,0,1-.39.59l-5.55,5.52h4.52a4.57,4.57,0,0,1,.93.1,1.13,1.13,0,0,1,.68.5,2.47,2.47,0,0,1,.27,1.33,2.39,2.39,0,0,1-.28,1.3,1.07,1.07,0,0,1-.7.47,5.25,5.25,0,0,1-.92.08Z"/><path class="cls-2" d="M160.79,32.85a2.33,2.33,0,0,1-1.37-.33.91.91,0,0,1-.43-.8l.26-.42a2.82,2.82,0,0,1-.58.61,4.11,4.11,0,0,1-1.11.65,4.36,4.36,0,0,1-1.66.29,5,5,0,0,1-2.19-.5A6,6,0,0,1,151.87,31a7,7,0,0,1-1.27-2,6,6,0,0,1-.48-2.37,5.83,5.83,0,0,1,.48-2.34,6.72,6.72,0,0,1,1.29-2,6.07,6.07,0,0,1,1.84-1.36,4.8,4.8,0,0,1,2.17-.5,4.35,4.35,0,0,1,1.58.26,4.57,4.57,0,0,1,1.08.61,3.26,3.26,0,0,1,.67.68L159,21.6a1,1,0,0,1,.44-.91,2.33,2.33,0,0,1,1.39-.31,2.28,2.28,0,0,1,1.28.27,1.14,1.14,0,0,1,.48.73,4.79,4.79,0,0,1,.09.95V31a4.73,4.73,0,0,1-.09.93,1.08,1.08,0,0,1-.47.71A2.52,2.52,0,0,1,160.79,32.85Zm-4.37-3.73a2.21,2.21,0,0,0,1.2-.33,2.51,2.51,0,0,0,.85-.92,2.48,2.48,0,0,0,.33-1.27,2.53,2.53,0,0,0-.33-1.29,2.4,2.4,0,0,0-.87-.89,2.55,2.55,0,0,0-2.49,0,2.64,2.64,0,0,0-.9.92,2.54,2.54,0,0,0-.34,1.3,2.28,2.28,0,0,0,.34,1.23,2.41,2.41,0,0,0,.92.9A2.51,2.51,0,0,0,156.42,29.12Z"/><path class="cls-2" d="M177.89,33.11a7.12,7.12,0,0,1-3-.58A5.84,5.84,0,0,1,172.82,31a6.61,6.61,0,0,1-1.2-2.09,7.14,7.14,0,0,1-.4-2.3,6.48,6.48,0,0,1,.85-3.32A6.14,6.14,0,0,1,174.44,21a6.9,6.9,0,0,1,3.46-.83,6.18,6.18,0,0,1,2.51.46,5.23,5.23,0,0,1,1.75,1.2,5.1,5.1,0,0,1,1,1.59,4.5,4.5,0,0,1,.33,1.62,2.82,2.82,0,0,1-.66,2.05,2.26,2.26,0,0,1-1.69.68h-5.95a1.82,1.82,0,0,0,.46,1.08,2.85,2.85,0,0,0,1,.7,3.5,3.5,0,0,0,1.33.25,7.94,7.94,0,0,0,1-.06,3.7,3.7,0,0,0,.79-.18c.22-.07.41-.15.59-.22a4.44,4.44,0,0,1,.49-.19,2.53,2.53,0,0,1,.42-.1,1,1,0,0,1,.68.22,2,2,0,0,1,.57.71,1.71,1.71,0,0,1,.24.52,2.2,2.2,0,0,1,.06.5,1.34,1.34,0,0,1-.61,1.09,4.91,4.91,0,0,1-1.73.74A11.56,11.56,0,0,1,177.89,33.11Zm-2.67-7.4h3.95a1,1,0,0,0,.58-.14A.61.61,0,0,0,180,25a1.21,1.21,0,0,0-.28-.78,1.77,1.77,0,0,0-.73-.54,3.33,3.33,0,0,0-2.44.11,2.47,2.47,0,0,0-.94.8A2,2,0,0,0,175.22,25.71Z"/><path class="cls-2" d="M190.42,32.89a14.41,14.41,0,0,1-1.83-.1,3.9,3.9,0,0,1-1.35-.4,2.58,2.58,0,0,1-.9-.84,4.13,4.13,0,0,1-.52-1.37,10.11,10.11,0,0,1-.17-2.06V16.56a4.4,4.4,0,0,1,.1-.92,1.18,1.18,0,0,1,.49-.7,2.41,2.41,0,0,1,1.32-.27,2.32,2.32,0,0,1,1.28.27,1.21,1.21,0,0,1,.49.7,3.9,3.9,0,0,1,.1.93V27.94a4,4,0,0,0,0,.66.8.8,0,0,0,.15.42.56.56,0,0,0,.31.2,2.44,2.44,0,0,0,.53.05,2.6,2.6,0,0,1,.61.07.89.89,0,0,1,.54.45,2.58,2.58,0,0,1,.22,1.25,2.76,2.76,0,0,1-.23,1.3.87.87,0,0,1-.53.48A2.73,2.73,0,0,1,190.42,32.89Z"/><path class="cls-2" d="M202,32.87a2.41,2.41,0,0,1-1.31-.26,1.06,1.06,0,0,1-.47-.7,4.46,4.46,0,0,1-.09-.91V22.2a4.21,4.21,0,0,1,.08-.89,1,1,0,0,1,.49-.66,2.6,2.6,0,0,1,1.33-.25,2.49,2.49,0,0,1,1.17.21,1.06,1.06,0,0,1,.49.52,1.68,1.68,0,0,1,.11.56,1,1,0,0,0,.05.36l-.15.48a1.45,1.45,0,0,1,.39-.77,3.78,3.78,0,0,1,.85-.7,4.7,4.7,0,0,1,1.1-.48,4,4,0,0,1,1.16-.18,5.05,5.05,0,0,1,2.14.44A4.52,4.52,0,0,1,211,22.1,5.91,5.91,0,0,1,212,24a8.27,8.27,0,0,1,.34,2.44V31a4.47,4.47,0,0,1-.08.91,1,1,0,0,1-.48.69,3.6,3.6,0,0,1-2.66,0,1.08,1.08,0,0,1-.49-.7,4.63,4.63,0,0,1-.09-.92V26.48a2.92,2.92,0,0,0-.26-1.28,1.93,1.93,0,0,0-.75-.8,2.5,2.5,0,0,0-1.22-.27,2.59,2.59,0,0,0-1.25.28,2.06,2.06,0,0,0-.81.82,2.57,2.57,0,0,0-.29,1.25V31a4.53,4.53,0,0,1-.09.91,1.08,1.08,0,0,1-.47.69A2.55,2.55,0,0,1,202,32.87Z"/><path class="cls-2" d="M220.12,32.89a5.26,5.26,0,0,1-2.18-.46,5.43,5.43,0,0,1-1.75-1.26A5.8,5.8,0,0,1,215,29.25a7.14,7.14,0,0,1-.41-2.44V22.28a4.42,4.42,0,0,1,.09-.92,1.08,1.08,0,0,1,.49-.7,2.46,2.46,0,0,1,1.33-.28,2.38,2.38,0,0,1,1.31.28,1.1,1.1,0,0,1,.47.71,4.69,4.69,0,0,1,.09.94v4.5a2.78,2.78,0,0,0,.26,1.26,1.8,1.8,0,0,0,.77.82,2.61,2.61,0,0,0,1.22.27,2.38,2.38,0,0,0,1.23-.29,2,2,0,0,0,.8-.81,2.46,2.46,0,0,0,.29-1.25V22.26a4.44,4.44,0,0,1,.08-.92,1.06,1.06,0,0,1,.49-.69,2.59,2.59,0,0,1,1.33-.26,2.39,2.39,0,0,1,1.31.27,1.15,1.15,0,0,1,.47.72,4.46,4.46,0,0,1,.09.91v8.8a5,5,0,0,1-.08.89,1,1,0,0,1-.49.66,2.52,2.52,0,0,1-1.3.25,2.92,2.92,0,0,1-1.05-.15,1.31,1.31,0,0,1-.55-.38.94.94,0,0,1-.21-.47,2.57,2.57,0,0,1,0-.45l.32-.28a2.27,2.27,0,0,1-.32.39,5,5,0,0,1-.66.57,4.28,4.28,0,0,1-1,.54A3.31,3.31,0,0,1,220.12,32.89Zm-.39-13.38a.85.85,0,0,1-.74-.25,2.63,2.63,0,0,1-.51-1,2,2,0,0,1-.1-1.3,1.35,1.35,0,0,1,.92-.67l4.4-1.35a.88.88,0,0,1,.73.29,2.29,2.29,0,0,1,.5,1,2,2,0,0,1,.09,1.28,1.34,1.34,0,0,1-.92.67Z"/><path class="cls-2" d="M231.07,32.92a2.28,2.28,0,0,1-1.3-.28,1,1,0,0,1-.48-.7,5.29,5.29,0,0,1-.07-.92V22.27a4.31,4.31,0,0,1,.08-.9,1,1,0,0,1,.49-.69,2.49,2.49,0,0,1,1.33-.26,2.09,2.09,0,0,1,1.35.36A1.5,1.5,0,0,1,232.9,22l-.33.27a3,3,0,0,1,.3-.42,5.07,5.07,0,0,1,.66-.63,4.41,4.41,0,0,1,.93-.56,2.85,2.85,0,0,1,1.17-.24,4.83,4.83,0,0,1,1.48.24,3.9,3.9,0,0,1,1.2.7,4.43,4.43,0,0,1,.94,1.17,6.34,6.34,0,0,1,.85-1,4.8,4.8,0,0,1,1.18-.8,3.53,3.53,0,0,1,1.52-.32,4.15,4.15,0,0,1,2.49.74,4.5,4.5,0,0,1,1.53,2.11,9.38,9.38,0,0,1,.53,3.33v4.47a3.85,3.85,0,0,1-.1.91,1.09,1.09,0,0,1-.48.7,2.41,2.41,0,0,1-1.32.27,2.44,2.44,0,0,1-1.32-.28,1,1,0,0,1-.48-.71,5.45,5.45,0,0,1-.07-.92V26.55a4.1,4.1,0,0,0-.18-1.29,1.84,1.84,0,0,0-.54-.82,1.39,1.39,0,0,0-.9-.29,1.73,1.73,0,0,0-1,.27,1.77,1.77,0,0,0-.6.8,3.92,3.92,0,0,0-.2,1.35v4.48A3.24,3.24,0,0,1,240,32a1.17,1.17,0,0,1-.53.69,2.41,2.41,0,0,1-1.34.24,2.09,2.09,0,0,1-1.25-.29,1.12,1.12,0,0,1-.45-.72,5.26,5.26,0,0,1-.08-.89V26.55a4.16,4.16,0,0,0-.18-1.3,1.61,1.61,0,0,0-.52-.83,1.49,1.49,0,0,0-.93-.28,1.56,1.56,0,0,0-1,.33,1.9,1.9,0,0,0-.59.86,3.79,3.79,0,0,0-.19,1.21V31a4.52,4.52,0,0,1-.09.93,1.08,1.08,0,0,1-.49.69A2.52,2.52,0,0,1,231.07,32.92Z"/><path class="cls-2" d="M256,33.16a7.28,7.28,0,0,1-3-.58,5.84,5.84,0,0,1-2.06-1.51,6.61,6.61,0,0,1-1.2-2.09,6.92,6.92,0,0,1-.4-2.3,6.54,6.54,0,0,1,.85-3.33,6.19,6.19,0,0,1,2.37-2.28,7,7,0,0,1,3.46-.84,6.21,6.21,0,0,1,2.51.47,5.12,5.12,0,0,1,2.78,2.79,4.42,4.42,0,0,1,.33,1.62,2.82,2.82,0,0,1-.66,2.05,2.27,2.27,0,0,1-1.69.67h-5.95a1.77,1.77,0,0,0,.46,1.08,2.85,2.85,0,0,0,1,.7,3.7,3.7,0,0,0,1.33.25,8.05,8.05,0,0,0,1-.06,4.43,4.43,0,0,0,.79-.18c.22-.07.41-.15.59-.22s.34-.14.48-.19a2.63,2.63,0,0,1,.43-.1,1,1,0,0,1,.68.21,2.16,2.16,0,0,1,.57.72,1.85,1.85,0,0,1,.24.52,2.14,2.14,0,0,1,.06.5,1.36,1.36,0,0,1-.61,1.09,4.74,4.74,0,0,1-1.73.73A11,11,0,0,1,256,33.16Zm-2.67-7.4h3.95a1.06,1.06,0,0,0,.58-.14.62.62,0,0,0,.2-.54,1.18,1.18,0,0,0-.28-.77,1.75,1.75,0,0,0-.73-.54,2.83,2.83,0,0,0-1.09-.19,3,3,0,0,0-1.35.3,2.47,2.47,0,0,0-.94.8A1.92,1.92,0,0,0,253.32,25.76Z"/><path class="cls-2" d="M265.59,32.94a2.39,2.39,0,0,1-1.31-.27,1,1,0,0,1-.47-.71,4.7,4.7,0,0,1-.09-.92V22.31a4.42,4.42,0,0,1,.09-.92,1,1,0,0,1,.49-.69,2.47,2.47,0,0,1,1.32-.26,2.52,2.52,0,0,1,1.27.24,1,1,0,0,1,.48.55,1.68,1.68,0,0,1,.1.53l-.3.15.27-.36A3.58,3.58,0,0,1,268,21a3.71,3.71,0,0,1,.91-.49,3.63,3.63,0,0,1,1.24-.19l.61,0a4.89,4.89,0,0,1,.7.15,3.32,3.32,0,0,1,.66.3,1.69,1.69,0,0,1,.49.47,1.2,1.2,0,0,1,.18.67,3.12,3.12,0,0,1-.47,1.74,1.42,1.42,0,0,1-1.2.71,2,2,0,0,1-.6-.06,1,1,0,0,1-.29-.15A.93.93,0,0,0,270,24a1.72,1.72,0,0,0-.55-.06,2.71,2.71,0,0,0-.71.09,2.08,2.08,0,0,0-.63.32,1.45,1.45,0,0,0-.61,1.23v5.48a5.31,5.31,0,0,1-.08.91,1.07,1.07,0,0,1-.49.69A2.6,2.6,0,0,1,265.59,32.94Z"/><path class="cls-2" d="M280.79,33.15a6.3,6.3,0,0,1-2.34-.47,7.16,7.16,0,0,1-2.11-1.31,6.53,6.53,0,0,1-1.51-2,6.15,6.15,0,0,1-.56-2.64,6,6,0,0,1,.52-2.51,6.78,6.78,0,0,1,3.47-3.47,6.16,6.16,0,0,1,2.49-.51,6.33,6.33,0,0,1,3.26.86,6.56,6.56,0,0,1,2.34,2.34,6.71,6.71,0,0,1,.31,6,6.5,6.5,0,0,1-1.5,2,6.57,6.57,0,0,1-2.08,1.29A6.38,6.38,0,0,1,280.79,33.15Zm-.05-3.78a2.85,2.85,0,0,0,1.23-.3,2.67,2.67,0,0,0,1-.9,2.58,2.58,0,0,0,.43-1.52,2.77,2.77,0,0,0-.35-1.4,2.58,2.58,0,0,0-1-.94,2.78,2.78,0,0,0-1.41-.34,2.63,2.63,0,0,0-1.34.35,2.73,2.73,0,0,0-.95,1,2.93,2.93,0,0,0,.05,2.9,2.49,2.49,0,0,0,1,.9A2.79,2.79,0,0,0,280.74,29.37Z"/><path class="cls-2" d="M297.24,32.93a1.76,1.76,0,0,1-1.32-.59,1.82,1.82,0,0,1-.58-1.33,3.82,3.82,0,0,1,.09-.85,3.17,3.17,0,0,1,.28-.78,2.42,2.42,0,0,1,.48-.67,14.25,14.25,0,0,1,2-1.64c.72-.49,1.43-1,2.14-1.4s1.36-.88,1.95-1.32a6.14,6.14,0,0,0,1.41-1.43,2.85,2.85,0,0,0,.53-1.66,2.65,2.65,0,0,0-.21-1,1.8,1.8,0,0,0-.75-.85,2.86,2.86,0,0,0-1.54-.34,3.41,3.41,0,0,0-1.11.17,2,2,0,0,0-.8.53,2.2,2.2,0,0,0-.47.85,4.27,4.27,0,0,0-.15,1.12,4.91,4.91,0,0,1-.08.89,1,1,0,0,1-.49.66,2.66,2.66,0,0,1-1.35.25,2.25,2.25,0,0,1-1.34-.29,1.13,1.13,0,0,1-.47-.75,4.88,4.88,0,0,1-.09-.93,6.51,6.51,0,0,1,.43-2.34,6.1,6.1,0,0,1,1.25-2,6,6,0,0,1,2-1.41,6.4,6.4,0,0,1,2.65-.52,6.52,6.52,0,0,1,3.26.81,6,6,0,0,1,2.27,2.24,6.33,6.33,0,0,1,.84,3.28,5.5,5.5,0,0,1-.36,2,7.49,7.49,0,0,1-.94,1.69,8.78,8.78,0,0,1-1.29,1.36A13.24,13.24,0,0,1,304,27.72c-.48.31-.93.57-1.35.79l-1.05.55-.35.05h5.52a4.59,4.59,0,0,1,.94.1,1.14,1.14,0,0,1,.7.5,2.54,2.54,0,0,1,.26,1.35,2.38,2.38,0,0,1-.27,1.29,1.12,1.12,0,0,1-.73.5,4.79,4.79,0,0,1-.95.09Z"/><path class="cls-2" d="M316.54,33.24a6.8,6.8,0,0,1-3.22-.75,5.79,5.79,0,0,1-2.25-2.05,5.36,5.36,0,0,1-.82-3,4.07,4.07,0,0,1,.23-1.42,5.49,5.49,0,0,1,.59-1.16,6.47,6.47,0,0,1,.68-.84,5.15,5.15,0,0,1,.48-.45c.11-.08.13-.08.07,0,.1.07.08.05-.07-.06a4.81,4.81,0,0,1-.56-.59,4.31,4.31,0,0,1-.62-1.07,3.62,3.62,0,0,1-.28-1.46,4.91,4.91,0,0,1,.77-2.68,5.45,5.45,0,0,1,2.07-1.88,6.37,6.37,0,0,1,2.94-.68,6,6,0,0,1,2.88.69,5.27,5.27,0,0,1,2,1.9,5.1,5.1,0,0,1,.75,2.74,3.19,3.19,0,0,1-.18,1.06,5.36,5.36,0,0,1-.42.94,5.59,5.59,0,0,1-.49.7l-.35.38c-.07.08-.09.08,0,0s0-.08.06,0a5.54,5.54,0,0,1,.49.46,5.12,5.12,0,0,1,.66.84,5,5,0,0,1,.57,1.16,4.28,4.28,0,0,1,.22,1.4,5.36,5.36,0,0,1-.54,2.43,5.67,5.67,0,0,1-1.43,1.82,6.38,6.38,0,0,1-2,1.14A6.59,6.59,0,0,1,316.54,33.24Zm0-3.6a2.74,2.74,0,0,0,1.27-.26,2,2,0,0,0,1.13-1.84,2.06,2.06,0,0,0-.3-1.12,1.93,1.93,0,0,0-.84-.73,3.5,3.5,0,0,0-2.6,0,1.91,1.91,0,0,0-.83.73,2.13,2.13,0,0,0-.31,1.12,2.08,2.08,0,0,0,.3,1.1,2,2,0,0,0,.85.74A3,3,0,0,0,316.52,29.64Zm0-7.62a2.35,2.35,0,0,0,1-.2,1.44,1.44,0,0,0,.65-.56,1.61,1.61,0,0,0,.23-.87,1.47,1.47,0,0,0-.24-.83,1.67,1.67,0,0,0-.66-.57,2.6,2.6,0,0,0-2,0,1.51,1.51,0,0,0-.65.57,1.65,1.65,0,0,0,0,1.7,1.65,1.65,0,0,0,.66.56A2.41,2.41,0,0,0,316.52,22Z"/><path class="cls-4" d="M46.77,32.11H51q3.21,0,3.2,3.95a4.17,4.17,0,0,1-1,3.17,5.28,5.28,0,0,1-3.61,1H39.24a6.23,6.23,0,0,1-3.65-.77c-.64-.52-1-1.63-1-3.34a6.15,6.15,0,0,1,.15-1.45,3.58,3.58,0,0,1,.58-1.2,5.31,5.31,0,0,1,1.14-1.13c1.38-1,2.46-1.82,3.25-2.44s1.56-1.27,2.32-2a12.55,12.55,0,0,0,1.66-1.76,11,11,0,0,0,1-1.66,6.67,6.67,0,0,0,.57-1.85,15.39,15.39,0,0,0,.14-2.19c0-1.56-.44-2.35-1.33-2.35s-1.45.93-1.46,2.78a2,2,0,0,1-.92,2,6.16,6.16,0,0,1-2.71.47q-2.45,0-3.3-1.17a6.84,6.84,0,0,1-.85-3.91,5.57,5.57,0,0,1,2.36-4.56,10.4,10.4,0,0,1,6.54-1.83q10.39,0,10.37,8.68a15,15,0,0,1-.42,3.68,12.19,12.19,0,0,1-1,2.77A8.94,8.94,0,0,1,51,29.12a15.35,15.35,0,0,1-2,1.64A25,25,0,0,1,46.77,32.11Z"/><path class="cls-4" d="M67.22,40.15a14.29,14.29,0,0,1-5.29-.92,8.52,8.52,0,0,1-3.77-2.79,6.93,6.93,0,0,1-1.42-4.38,7.4,7.4,0,0,1,3.86-6.81A6.81,6.81,0,0,1,58,19.67a7.06,7.06,0,0,1,2.6-5.78,10.22,10.22,0,0,1,6.69-2.13A10.16,10.16,0,0,1,74,13.87a7.08,7.08,0,0,1,2.56,5.78,6.85,6.85,0,0,1-2.6,5.59A7.45,7.45,0,0,1,77.69,32a7,7,0,0,1-3,5.94A12.37,12.37,0,0,1,67.22,40.15Zm2-8.19a7.76,7.76,0,0,0-.49-2.88q-.5-1.23-1.41-1.23c-.64,0-1.13.42-1.49,1.26A7.17,7.17,0,0,0,65.25,32a8.5,8.5,0,0,0,.21,1.92,3.68,3.68,0,0,0,.68,1.51,1.41,1.41,0,0,0,1.13.6c.63,0,1.11-.4,1.43-1.19A7.64,7.64,0,0,0,69.18,32Zm-.05-12.68A5.18,5.18,0,0,0,68.65,17a1.44,1.44,0,0,0-1.31-1,1.32,1.32,0,0,0-1,.55,3.42,3.42,0,0,0-.65,1.34,6.25,6.25,0,0,0-.22,1.68,5.74,5.74,0,0,0,.5,2.48,1.52,1.52,0,0,0,1.39,1.05c.59,0,1-.38,1.35-1.13A7.11,7.11,0,0,0,69.13,19.28Z"/><path class="cls-5" d="M46.77,32.11H51q3.21,0,3.2,3.95a4.17,4.17,0,0,1-1,3.17,5.28,5.28,0,0,1-3.61,1H39.24a6.23,6.23,0,0,1-3.65-.77c-.64-.52-1-1.63-1-3.34a6.15,6.15,0,0,1,.15-1.45,3.58,3.58,0,0,1,.58-1.2,5.31,5.31,0,0,1,1.14-1.13c1.38-1,2.46-1.82,3.25-2.44s1.56-1.27,2.32-2a12.55,12.55,0,0,0,1.66-1.76,11,11,0,0,0,1-1.66,6.67,6.67,0,0,0,.57-1.85,15.39,15.39,0,0,0,.14-2.19c0-1.56-.44-2.35-1.33-2.35s-1.45.93-1.46,2.78a2,2,0,0,1-.92,2,6.16,6.16,0,0,1-2.71.47q-2.45,0-3.3-1.17a6.84,6.84,0,0,1-.85-3.91,5.57,5.57,0,0,1,2.36-4.56,10.4,10.4,0,0,1,6.54-1.83q10.39,0,10.37,8.68a15,15,0,0,1-.42,3.68,12.19,12.19,0,0,1-1,2.77A8.94,8.94,0,0,1,51,29.12a15.35,15.35,0,0,1-2,1.64A25,25,0,0,1,46.77,32.11Z"/><path class="cls-5" d="M67.22,40.15a14.29,14.29,0,0,1-5.29-.92,8.52,8.52,0,0,1-3.77-2.79,6.93,6.93,0,0,1-1.42-4.38,7.4,7.4,0,0,1,3.86-6.81A6.81,6.81,0,0,1,58,19.67a7.06,7.06,0,0,1,2.6-5.78,10.22,10.22,0,0,1,6.69-2.13A10.16,10.16,0,0,1,74,13.87a7.08,7.08,0,0,1,2.56,5.78,6.85,6.85,0,0,1-2.6,5.59A7.45,7.45,0,0,1,77.69,32a7,7,0,0,1-3,5.94A12.37,12.37,0,0,1,67.22,40.15Zm2-8.19a7.76,7.76,0,0,0-.49-2.88q-.5-1.23-1.41-1.23c-.64,0-1.13.42-1.49,1.26A7.17,7.17,0,0,0,65.25,32a8.5,8.5,0,0,0,.21,1.92,3.68,3.68,0,0,0,.68,1.51,1.41,1.41,0,0,0,1.13.6c.63,0,1.11-.4,1.43-1.19A7.64,7.64,0,0,0,69.18,32Zm-.05-12.68A5.18,5.18,0,0,0,68.65,17a1.44,1.44,0,0,0-1.31-1,1.32,1.32,0,0,0-1,.55,3.42,3.42,0,0,0-.65,1.34,6.25,6.25,0,0,0-.22,1.68,5.74,5.74,0,0,0,.5,2.48,1.52,1.52,0,0,0,1.39,1.05c.59,0,1-.38,1.35-1.13A7.11,7.11,0,0,0,69.13,19.28Z"/></g></g></svg>