<svg xmlns="http://www.w3.org/2000/svg" viewBox="0 0 399.98 90.74"><defs><style>.cls-1{fill:#03826e;}.cls-2{fill:#fff;}.cls-3,.cls-4{fill:none;stroke-width:5px;}.cls-3{stroke:#b6ba01;stroke-linejoin:round;}.cls-4{stroke:#fff;}.cls-5{fill:#b6ba01;}</style></defs><title>41t</title><g id="Layer_2" data-name="Layer 2"><g id="pestaña_identificativa" data-name="pestaña identificativa"><rect class="cls-1" width="399.98" height="90.74" rx="32.4"/><path class="cls-2" d="M119.73,32a8.64,8.64,0,0,1-2.33-.34A9.39,9.39,0,0,1,115,30.65a9.05,9.05,0,0,1-2.13-1.79,8.09,8.09,0,0,1-1.51-2.55,9,9,0,0,1-.56-3.33,8.58,8.58,0,0,1,.56-3.23,8.06,8.06,0,0,1,1.51-2.46A9.24,9.24,0,0,1,115,15.55a9.69,9.69,0,0,1,2.41-1,8.89,8.89,0,0,1,2.39-.34,7.36,7.36,0,0,1,2.22.3,8.09,8.09,0,0,1,1.54.63l.76.42a7.94,7.94,0,0,1,.85.65,1.25,1.25,0,0,1,.43.9,1.81,1.81,0,0,1-.11.6,2.61,2.61,0,0,1-.34.6,3.23,3.23,0,0,1-.78.84,1.16,1.16,0,0,1-1.3.11c-.18-.1-.4-.23-.65-.4a4.72,4.72,0,0,0-.5-.31,3.44,3.44,0,0,0-.88-.34,5.82,5.82,0,0,0-3.16.15,5.18,5.18,0,0,0-1.63.92,4.58,4.58,0,0,0-1.2,1.59,5.45,5.45,0,0,0-.46,2.26,5,5,0,0,0,.47,2.25,4.57,4.57,0,0,0,1.21,1.58,5.29,5.29,0,0,0,3.37,1.25,4.73,4.73,0,0,0,1.28-.15,4.64,4.64,0,0,0,.92-.36c.27-.14.49-.27.68-.39l.56-.32a1.26,1.26,0,0,1,.59-.15,1.19,1.19,0,0,1,.71.27,3.44,3.44,0,0,1,.74.88,2.6,2.6,0,0,1,.33.64,1.66,1.66,0,0,1,.12.61,1,1,0,0,1-.42.86,6.38,6.38,0,0,1-.86.61l-.75.44a7.19,7.19,0,0,1-1.53.62A7.59,7.59,0,0,1,119.73,32Z"/><path class="cls-2" d="M128.54,18.45a.88.88,0,0,1-.74-.25,2.71,2.71,0,0,1-.51-1,2.07,2.07,0,0,1-.1-1.31,1.41,1.41,0,0,1,.92-.67l4.4-1.35a.91.91,0,0,1,.73.29,2.4,2.4,0,0,1,.5,1,1.93,1.93,0,0,1,.09,1.27,1.35,1.35,0,0,1-.92.68Zm1,13.4a2.39,2.39,0,0,1-1.31-.27,1.06,1.06,0,0,1-.47-.7,4.46,4.46,0,0,1-.09-.91V21.25a4.57,4.57,0,0,1,.08-.92,1.11,1.11,0,0,1,.49-.7,2.59,2.59,0,0,1,1.33-.26,2.18,2.18,0,0,1,1.28.28,1.12,1.12,0,0,1,.48.71,4.62,4.62,0,0,1,.09.94V30a4.53,4.53,0,0,1-.09.91,1,1,0,0,1-.47.69A2.64,2.64,0,0,1,129.5,31.85Z"/><path class="cls-2" d="M135.73,31.85a2.45,2.45,0,0,1-1.31-.26,1.11,1.11,0,0,1-.48-.72,4.63,4.63,0,0,1-.08-.92V21.22a4.42,4.42,0,0,1,.09-.92,1.08,1.08,0,0,1,.49-.69,2.52,2.52,0,0,1,1.32-.26,2.47,2.47,0,0,1,1.26.24,1.06,1.06,0,0,1,.49.55,1.73,1.73,0,0,1,.1.54l-.3.15a2.39,2.39,0,0,1,.26-.37,4.06,4.06,0,0,1,.59-.55,3.55,3.55,0,0,1,.91-.48,3.4,3.4,0,0,1,1.24-.2,4.45,4.45,0,0,1,.61,0,3,3,0,0,1,.7.15,2.4,2.4,0,0,1,.67.3,1.51,1.51,0,0,1,.48.46,1.13,1.13,0,0,1,.19.67,3,3,0,0,1-.48,1.74,1.38,1.38,0,0,1-1.2.71,2.11,2.11,0,0,1-.6-.06.92.92,0,0,1-.28-.15,1.17,1.17,0,0,0-.27-.15,1.64,1.64,0,0,0-.55-.06,2.39,2.39,0,0,0-.71.1,1.9,1.9,0,0,0-.62.31,1.49,1.49,0,0,0-.45.52,1.53,1.53,0,0,0-.17.72V30a4.46,4.46,0,0,1-.09.91,1,1,0,0,1-.49.69A2.53,2.53,0,0,1,135.73,31.85Z"/><path class="cls-2" d="M151.1,32a6.59,6.59,0,0,1-2.23-.41,7,7,0,0,1-2.1-1.22,5.8,5.8,0,0,1-1.54-2,6.35,6.35,0,0,1-.57-2.75,5.9,5.9,0,0,1,2.1-4.7,6.75,6.75,0,0,1,2.09-1.21,6.57,6.57,0,0,1,2.21-.41,6,6,0,0,1,1.66.21A5.41,5.41,0,0,1,154,20a3.91,3.91,0,0,1,.74.52c.28.22.53.44.75.65a1.05,1.05,0,0,1,.3.85,1.53,1.53,0,0,1-.18.56,3.82,3.82,0,0,1-.37.59c-.52.7-1,1-1.5.95a2.27,2.27,0,0,1-.69-.25l-.6-.35a3.88,3.88,0,0,0-.61-.31,2,2,0,0,0-.75-.14,2.47,2.47,0,0,0-1.3.34,2.38,2.38,0,0,0-.91.9,2.44,2.44,0,0,0-.34,1.31,2.5,2.5,0,0,0,1.23,2.21,2.39,2.39,0,0,0,1.27.34,2.37,2.37,0,0,0,.72-.1,2.59,2.59,0,0,0,.55-.24l.35-.21.58-.36a1,1,0,0,1,.55-.16,1.19,1.19,0,0,1,.73.26,3.86,3.86,0,0,1,.82.84,2,2,0,0,1,.48,1,1.22,1.22,0,0,1-.21.86,2.69,2.69,0,0,1-.85.77,5.06,5.06,0,0,1-.71.45,7.55,7.55,0,0,1-1.25.5A6.14,6.14,0,0,1,151.1,32Z"/><path class="cls-2" d="M163.43,31.84a5.25,5.25,0,0,1-2.18-.45,5.43,5.43,0,0,1-1.75-1.26,5.85,5.85,0,0,1-1.16-1.93,7.06,7.06,0,0,1-.41-2.44V21.24a4.52,4.52,0,0,1,.09-.93,1.13,1.13,0,0,1,.49-.7,2.47,2.47,0,0,1,1.33-.27,2.29,2.29,0,0,1,1.31.28,1.1,1.1,0,0,1,.47.71,4.62,4.62,0,0,1,.09.94v4.5A2.78,2.78,0,0,0,162,27a1.73,1.73,0,0,0,.77.81,2.78,2.78,0,0,0,2.45,0A2,2,0,0,0,166,27a2.48,2.48,0,0,0,.29-1.25V21.22a4.54,4.54,0,0,1,.08-.93,1,1,0,0,1,.49-.68,2.47,2.47,0,0,1,1.33-.27,2.38,2.38,0,0,1,1.31.28,1.1,1.1,0,0,1,.47.71,4.63,4.63,0,0,1,.09.92v8.8a4.88,4.88,0,0,1-.08.88,1,1,0,0,1-.49.66,2.52,2.52,0,0,1-1.3.25,2.92,2.92,0,0,1-1.05-.15,1.3,1.3,0,0,1-.55-.37.94.94,0,0,1-.21-.48,2.42,2.42,0,0,1,0-.45l.32-.27a2.75,2.75,0,0,1-.32.39,7.18,7.18,0,0,1-.66.57,4.28,4.28,0,0,1-1,.54A3.31,3.31,0,0,1,163.43,31.84Z"/><path class="cls-2" d="M177.35,31.88a16,16,0,0,1-1.82-.11,3.64,3.64,0,0,1-1.35-.4,2.47,2.47,0,0,1-.9-.83,4.19,4.19,0,0,1-.53-1.38,10.88,10.88,0,0,1-.17-2.06V15.55a3.9,3.9,0,0,1,.1-.93,1.17,1.17,0,0,1,.49-.7,3.26,3.26,0,0,1,2.6,0,1.15,1.15,0,0,1,.48.7,4,4,0,0,1,.1.93V26.92a6.19,6.19,0,0,0,0,.67,1,1,0,0,0,.15.41.54.54,0,0,0,.32.2,2.34,2.34,0,0,0,.52.05,2.62,2.62,0,0,1,.61.08.89.89,0,0,1,.54.45,2.55,2.55,0,0,1,.22,1.25,2.81,2.81,0,0,1-.22,1.3.89.89,0,0,1-.54.47A2.74,2.74,0,0,1,177.35,31.88Z"/><path class="cls-2" d="M186.58,32.08a6.45,6.45,0,0,1-2.34-.46,7.06,7.06,0,0,1-2.11-1.32,6.17,6.17,0,0,1-1.51-2,6,6,0,0,1-.56-2.63,6.24,6.24,0,0,1,.51-2.52A6.75,6.75,0,0,1,182,21.05a6.67,6.67,0,0,1,2.07-1.41,6.09,6.09,0,0,1,2.49-.51,6.35,6.35,0,0,1,3.26.86,6.61,6.61,0,0,1,2.33,2.34,6.27,6.27,0,0,1,.88,3.28,6.17,6.17,0,0,1-.57,2.71,6.35,6.35,0,0,1-1.5,2,6.68,6.68,0,0,1-2.07,1.28A6.42,6.42,0,0,1,186.58,32.08Zm-.05-3.78a2.7,2.7,0,0,0,1.23-.29,2.81,2.81,0,0,0,1.05-.9,2.61,2.61,0,0,0,.42-1.53,2.67,2.67,0,0,0-.35-1.4,2.48,2.48,0,0,0-1-.94,2.94,2.94,0,0,0-1.41-.33,2.59,2.59,0,0,0-1.34.34,2.76,2.76,0,0,0-.95,1,2.68,2.68,0,0,0-.36,1.38,2.64,2.64,0,0,0,.41,1.52,2.43,2.43,0,0,0,1,.9A2.89,2.89,0,0,0,186.53,28.3Z"/><path class="cls-3" d="M119.73,32a8.64,8.64,0,0,1-2.33-.34A9.39,9.39,0,0,1,115,30.65a9.05,9.05,0,0,1-2.13-1.79,8.09,8.09,0,0,1-1.51-2.55,9,9,0,0,1-.56-3.33,8.58,8.58,0,0,1,.56-3.23,8.06,8.06,0,0,1,1.51-2.46A9.24,9.24,0,0,1,115,15.55a9.69,9.69,0,0,1,2.41-1,8.89,8.89,0,0,1,2.39-.34,7.36,7.36,0,0,1,2.22.3,8.09,8.09,0,0,1,1.54.63l.76.42a7.94,7.94,0,0,1,.85.65,1.25,1.25,0,0,1,.43.9,1.81,1.81,0,0,1-.11.6,2.61,2.61,0,0,1-.34.6,3.23,3.23,0,0,1-.78.84,1.16,1.16,0,0,1-1.3.11c-.18-.1-.4-.23-.65-.4a4.72,4.72,0,0,0-.5-.31,3.44,3.44,0,0,0-.88-.34,5.82,5.82,0,0,0-3.16.15,5.18,5.18,0,0,0-1.63.92,4.58,4.58,0,0,0-1.2,1.59,5.45,5.45,0,0,0-.46,2.26,5,5,0,0,0,.47,2.25,4.57,4.57,0,0,0,1.21,1.58,5.29,5.29,0,0,0,3.37,1.25,4.73,4.73,0,0,0,1.28-.15,4.64,4.64,0,0,0,.92-.36c.27-.14.49-.27.68-.39l.56-.32a1.26,1.26,0,0,1,.59-.15,1.19,1.19,0,0,1,.71.27,3.44,3.44,0,0,1,.74.88,2.6,2.6,0,0,1,.33.64,1.66,1.66,0,0,1,.12.61,1,1,0,0,1-.42.86,6.38,6.38,0,0,1-.86.61l-.75.44a7.19,7.19,0,0,1-1.53.62A7.59,7.59,0,0,1,119.73,32Z"/><path class="cls-3" d="M128.54,18.45a.88.88,0,0,1-.74-.25,2.71,2.71,0,0,1-.51-1,2.07,2.07,0,0,1-.1-1.31,1.41,1.41,0,0,1,.92-.67l4.4-1.35a.91.91,0,0,1,.73.29,2.4,2.4,0,0,1,.5,1,1.93,1.93,0,0,1,.09,1.27,1.35,1.35,0,0,1-.92.68Zm1,13.4a2.39,2.39,0,0,1-1.31-.27,1.06,1.06,0,0,1-.47-.7,4.46,4.46,0,0,1-.09-.91V21.25a4.57,4.57,0,0,1,.08-.92,1.11,1.11,0,0,1,.49-.7,2.59,2.59,0,0,1,1.33-.26,2.18,2.18,0,0,1,1.28.28,1.12,1.12,0,0,1,.48.71,4.62,4.62,0,0,1,.09.94V30a4.53,4.53,0,0,1-.09.91,1,1,0,0,1-.47.69A2.64,2.64,0,0,1,129.5,31.85Z"/><path class="cls-3" d="M135.73,31.85a2.45,2.45,0,0,1-1.31-.26,1.11,1.11,0,0,1-.48-.72,4.63,4.63,0,0,1-.08-.92V21.22a4.42,4.42,0,0,1,.09-.92,1.08,1.08,0,0,1,.49-.69,2.52,2.52,0,0,1,1.32-.26,2.47,2.47,0,0,1,1.26.24,1.06,1.06,0,0,1,.49.55,1.73,1.73,0,0,1,.1.54l-.3.15a2.39,2.39,0,0,1,.26-.37,4.06,4.06,0,0,1,.59-.55,3.55,3.55,0,0,1,.91-.48,3.4,3.4,0,0,1,1.24-.2,4.45,4.45,0,0,1,.61,0,3,3,0,0,1,.7.15,2.4,2.4,0,0,1,.67.3,1.51,1.51,0,0,1,.48.46,1.13,1.13,0,0,1,.19.67,3,3,0,0,1-.48,1.74,1.38,1.38,0,0,1-1.2.71,2.11,2.11,0,0,1-.6-.06.92.92,0,0,1-.28-.15,1.17,1.17,0,0,0-.27-.15,1.64,1.64,0,0,0-.55-.06,2.39,2.39,0,0,0-.71.1,1.9,1.9,0,0,0-.62.31,1.49,1.49,0,0,0-.45.52,1.53,1.53,0,0,0-.17.72V30a4.46,4.46,0,0,1-.09.91,1,1,0,0,1-.49.69A2.53,2.53,0,0,1,135.73,31.85Z"/><path class="cls-3" d="M151.1,32a6.59,6.59,0,0,1-2.23-.41,7,7,0,0,1-2.1-1.22,5.8,5.8,0,0,1-1.54-2,6.35,6.35,0,0,1-.57-2.75,5.9,5.9,0,0,1,2.1-4.7,6.75,6.75,0,0,1,2.09-1.21,6.57,6.57,0,0,1,2.21-.41,6,6,0,0,1,1.66.21A5.41,5.41,0,0,1,154,20a3.91,3.91,0,0,1,.74.52c.28.22.53.44.75.65a1.05,1.05,0,0,1,.3.85,1.53,1.53,0,0,1-.18.56,3.82,3.82,0,0,1-.37.59c-.52.7-1,1-1.5.95a2.27,2.27,0,0,1-.69-.25l-.6-.35a3.88,3.88,0,0,0-.61-.31,2,2,0,0,0-.75-.14,2.47,2.47,0,0,0-1.3.34,2.38,2.38,0,0,0-.91.9,2.44,2.44,0,0,0-.34,1.31,2.5,2.5,0,0,0,1.23,2.21,2.39,2.39,0,0,0,1.27.34,2.37,2.37,0,0,0,.72-.1,2.59,2.59,0,0,0,.55-.24l.35-.21.58-.36a1,1,0,0,1,.55-.16,1.19,1.19,0,0,1,.73.26,3.86,3.86,0,0,1,.82.84,2,2,0,0,1,.48,1,1.22,1.22,0,0,1-.21.86,2.69,2.69,0,0,1-.85.77,5.06,5.06,0,0,1-.71.45,7.55,7.55,0,0,1-1.25.5A6.14,6.14,0,0,1,151.1,32Z"/><path class="cls-3" d="M163.43,31.84a5.25,5.25,0,0,1-2.18-.45,5.43,5.43,0,0,1-1.75-1.26,5.85,5.85,0,0,1-1.16-1.93,7.06,7.06,0,0,1-.41-2.44V21.24a4.52,4.52,0,0,1,.09-.93,1.13,1.13,0,0,1,.49-.7,2.47,2.47,0,0,1,1.33-.27,2.29,2.29,0,0,1,1.31.28,1.1,1.1,0,0,1,.47.71,4.62,4.62,0,0,1,.09.94v4.5A2.78,2.78,0,0,0,162,27a1.73,1.73,0,0,0,.77.81,2.78,2.78,0,0,0,2.45,0A2,2,0,0,0,166,27a2.48,2.48,0,0,0,.29-1.25V21.22a4.54,4.54,0,0,1,.08-.93,1,1,0,0,1,.49-.68,2.47,2.47,0,0,1,1.33-.27,2.38,2.38,0,0,1,1.31.28,1.1,1.1,0,0,1,.47.71,4.63,4.63,0,0,1,.09.92v8.8a4.88,4.88,0,0,1-.08.88,1,1,0,0,1-.49.66,2.52,2.52,0,0,1-1.3.25,2.92,2.92,0,0,1-1.05-.15,1.3,1.3,0,0,1-.55-.37.94.94,0,0,1-.21-.48,2.42,2.42,0,0,1,0-.45l.32-.27a2.75,2.75,0,0,1-.32.39,7.18,7.18,0,0,1-.66.57,4.28,4.28,0,0,1-1,.54A3.31,3.31,0,0,1,163.43,31.84Z"/><path class="cls-3" d="M177.35,31.88a16,16,0,0,1-1.82-.11,3.64,3.64,0,0,1-1.35-.4,2.47,2.47,0,0,1-.9-.83,4.19,4.19,0,0,1-.53-1.38,10.88,10.88,0,0,1-.17-2.06V15.55a3.9,3.9,0,0,1,.1-.93,1.17,1.17,0,0,1,.49-.7,3.26,3.26,0,0,1,2.6,0,1.15,1.15,0,0,1,.48.7,4,4,0,0,1,.1.93V26.92a6.19,6.19,0,0,0,0,.67,1,1,0,0,0,.15.41.54.54,0,0,0,.32.2,2.34,2.34,0,0,0,.52.05,2.62,2.62,0,0,1,.61.08.89.89,0,0,1,.54.45,2.55,2.55,0,0,1,.22,1.25,2.81,2.81,0,0,1-.22,1.3.89.89,0,0,1-.54.47A2.74,2.74,0,0,1,177.35,31.88Z"/><path class="cls-3" d="M186.58,32.08a6.45,6.45,0,0,1-2.34-.46,7.06,7.06,0,0,1-2.11-1.32,6.17,6.17,0,0,1-1.51-2,6,6,0,0,1-.56-2.63,6.24,6.24,0,0,1,.51-2.52A6.75,6.75,0,0,1,182,21.05a6.67,6.67,0,0,1,2.07-1.41,6.09,6.09,0,0,1,2.49-.51,6.35,6.35,0,0,1,3.26.86,6.61,6.61,0,0,1,2.33,2.34,6.27,6.27,0,0,1,.88,3.28,6.17,6.17,0,0,1-.57,2.71,6.35,6.35,0,0,1-1.5,2,6.68,6.68,0,0,1-2.07,1.28A6.42,6.42,0,0,1,186.58,32.08Zm-.05-3.78a2.7,2.7,0,0,0,1.23-.29,2.81,2.81,0,0,0,1.05-.9,2.61,2.61,0,0,0,.42-1.53,2.67,2.67,0,0,0-.35-1.4,2.48,2.48,0,0,0-1-.94,2.94,2.94,0,0,0-1.41-.33,2.59,2.59,0,0,0-1.34.34,2.76,2.76,0,0,0-.95,1,2.68,2.68,0,0,0-.36,1.38,2.64,2.64,0,0,0,.41,1.52,2.43,2.43,0,0,0,1,.9A2.89,2.89,0,0,0,186.53,28.3Z"/><path class="cls-2" d="M119.73,32a8.64,8.64,0,0,1-2.33-.34A9.39,9.39,0,0,1,115,30.65a9.05,9.05,0,0,1-2.13-1.79,8.09,8.09,0,0,1-1.51-2.55,9,9,0,0,1-.56-3.33,8.58,8.58,0,0,1,.56-3.23,8.06,8.06,0,0,1,1.51-2.46A9.24,9.24,0,0,1,115,15.55a9.69,9.69,0,0,1,2.41-1,8.89,8.89,0,0,1,2.39-.34,7.36,7.36,0,0,1,2.22.3,8.09,8.09,0,0,1,1.54.63l.76.42a7.94,7.94,0,0,1,.85.65,1.25,1.25,0,0,1,.43.9,1.81,1.81,0,0,1-.11.6,2.61,2.61,0,0,1-.34.6,3.23,3.23,0,0,1-.78.84,1.16,1.16,0,0,1-1.3.11c-.18-.1-.4-.23-.65-.4a4.72,4.72,0,0,0-.5-.31,3.44,3.44,0,0,0-.88-.34,5.82,5.82,0,0,0-3.16.15,5.18,5.18,0,0,0-1.63.92,4.58,4.58,0,0,0-1.2,1.59,5.45,5.45,0,0,0-.46,2.26,5,5,0,0,0,.47,2.25,4.57,4.57,0,0,0,1.21,1.58,5.29,5.29,0,0,0,3.37,1.25,4.73,4.73,0,0,0,1.28-.15,4.64,4.64,0,0,0,.92-.36c.27-.14.49-.27.68-.39l.56-.32a1.26,1.26,0,0,1,.59-.15,1.19,1.19,0,0,1,.71.27,3.44,3.44,0,0,1,.74.88,2.6,2.6,0,0,1,.33.64,1.66,1.66,0,0,1,.12.61,1,1,0,0,1-.42.86,6.38,6.38,0,0,1-.86.61l-.75.44a7.19,7.19,0,0,1-1.53.62A7.59,7.59,0,0,1,119.73,32Z"/><path class="cls-2" d="M128.54,18.45a.88.88,0,0,1-.74-.25,2.71,2.71,0,0,1-.51-1,2.07,2.07,0,0,1-.1-1.31,1.41,1.41,0,0,1,.92-.67l4.4-1.35a.91.91,0,0,1,.73.29,2.4,2.4,0,0,1,.5,1,1.93,1.93,0,0,1,.09,1.27,1.35,1.35,0,0,1-.92.68Zm1,13.4a2.39,2.39,0,0,1-1.31-.27,1.06,1.06,0,0,1-.47-.7,4.46,4.46,0,0,1-.09-.91V21.25a4.57,4.57,0,0,1,.08-.92,1.11,1.11,0,0,1,.49-.7,2.59,2.59,0,0,1,1.33-.26,2.18,2.18,0,0,1,1.28.28,1.12,1.12,0,0,1,.48.71,4.62,4.62,0,0,1,.09.94V30a4.53,4.53,0,0,1-.09.91,1,1,0,0,1-.47.69A2.64,2.64,0,0,1,129.5,31.85Z"/><path class="cls-2" d="M135.73,31.85a2.45,2.45,0,0,1-1.31-.26,1.11,1.11,0,0,1-.48-.72,4.63,4.63,0,0,1-.08-.92V21.22a4.42,4.42,0,0,1,.09-.92,1.08,1.08,0,0,1,.49-.69,2.52,2.52,0,0,1,1.32-.26,2.47,2.47,0,0,1,1.26.24,1.06,1.06,0,0,1,.49.55,1.73,1.73,0,0,1,.1.54l-.3.15a2.39,2.39,0,0,1,.26-.37,4.06,4.06,0,0,1,.59-.55,3.55,3.55,0,0,1,.91-.48,3.4,3.4,0,0,1,1.24-.2,4.45,4.45,0,0,1,.61,0,3,3,0,0,1,.7.15,2.4,2.4,0,0,1,.67.3,1.51,1.51,0,0,1,.48.46,1.13,1.13,0,0,1,.19.67,3,3,0,0,1-.48,1.74,1.38,1.38,0,0,1-1.2.71,2.11,2.11,0,0,1-.6-.06.92.92,0,0,1-.28-.15,1.17,1.17,0,0,0-.27-.15,1.64,1.64,0,0,0-.55-.06,2.39,2.39,0,0,0-.71.1,1.9,1.9,0,0,0-.62.31,1.49,1.49,0,0,0-.45.52,1.53,1.53,0,0,0-.17.72V30a4.46,4.46,0,0,1-.09.91,1,1,0,0,1-.49.69A2.53,2.53,0,0,1,135.73,31.85Z"/><path class="cls-2" d="M151.1,32a6.59,6.59,0,0,1-2.23-.41,7,7,0,0,1-2.1-1.22,5.8,5.8,0,0,1-1.54-2,6.35,6.35,0,0,1-.57-2.75,5.9,5.9,0,0,1,2.1-4.7,6.75,6.75,0,0,1,2.09-1.21,6.57,6.57,0,0,1,2.21-.41,6,6,0,0,1,1.66.21A5.41,5.41,0,0,1,154,20a3.91,3.91,0,0,1,.74.52c.28.22.53.44.75.65a1.05,1.05,0,0,1,.3.85,1.53,1.53,0,0,1-.18.56,3.82,3.82,0,0,1-.37.59c-.52.7-1,1-1.5.95a2.27,2.27,0,0,1-.69-.25l-.6-.35a3.88,3.88,0,0,0-.61-.31,2,2,0,0,0-.75-.14,2.47,2.47,0,0,0-1.3.34,2.38,2.38,0,0,0-.91.9,2.44,2.44,0,0,0-.34,1.31,2.5,2.5,0,0,0,1.23,2.21,2.39,2.39,0,0,0,1.27.34,2.37,2.37,0,0,0,.72-.1,2.59,2.59,0,0,0,.55-.24l.35-.21.58-.36a1,1,0,0,1,.55-.16,1.19,1.19,0,0,1,.73.26,3.86,3.86,0,0,1,.82.84,2,2,0,0,1,.48,1,1.22,1.22,0,0,1-.21.86,2.69,2.69,0,0,1-.85.77,5.06,5.06,0,0,1-.71.45,7.55,7.55,0,0,1-1.25.5A6.14,6.14,0,0,1,151.1,32Z"/><path class="cls-2" d="M163.43,31.84a5.25,5.25,0,0,1-2.18-.45,5.43,5.43,0,0,1-1.75-1.26,5.85,5.85,0,0,1-1.16-1.93,7.06,7.06,0,0,1-.41-2.44V21.24a4.52,4.52,0,0,1,.09-.93,1.13,1.13,0,0,1,.49-.7,2.47,2.47,0,0,1,1.33-.27,2.29,2.29,0,0,1,1.31.28,1.1,1.1,0,0,1,.47.71,4.62,4.62,0,0,1,.09.94v4.5A2.78,2.78,0,0,0,162,27a1.73,1.73,0,0,0,.77.81,2.78,2.78,0,0,0,2.45,0A2,2,0,0,0,166,27a2.48,2.48,0,0,0,.29-1.25V21.22a4.54,4.54,0,0,1,.08-.93,1,1,0,0,1,.49-.68,2.47,2.47,0,0,1,1.33-.27,2.38,2.38,0,0,1,1.31.28,1.1,1.1,0,0,1,.47.71,4.63,4.63,0,0,1,.09.92v8.8a4.88,4.88,0,0,1-.08.88,1,1,0,0,1-.49.66,2.52,2.52,0,0,1-1.3.25,2.92,2.92,0,0,1-1.05-.15,1.3,1.3,0,0,1-.55-.37.94.94,0,0,1-.21-.48,2.42,2.42,0,0,1,0-.45l.32-.27a2.75,2.75,0,0,1-.32.39,7.18,7.18,0,0,1-.66.57,4.28,4.28,0,0,1-1,.54A3.31,3.31,0,0,1,163.43,31.84Z"/><path class="cls-2" d="M177.35,31.88a16,16,0,0,1-1.82-.11,3.64,3.64,0,0,1-1.35-.4,2.47,2.47,0,0,1-.9-.83,4.19,4.19,0,0,1-.53-1.38,10.88,10.88,0,0,1-.17-2.06V15.55a3.9,3.9,0,0,1,.1-.93,1.17,1.17,0,0,1,.49-.7,3.26,3.26,0,0,1,2.6,0,1.15,1.15,0,0,1,.48.7,4,4,0,0,1,.1.93V26.92a6.19,6.19,0,0,0,0,.67,1,1,0,0,0,.15.41.54.54,0,0,0,.32.2,2.34,2.34,0,0,0,.52.05,2.62,2.62,0,0,1,.61.08.89.89,0,0,1,.54.45,2.55,2.55,0,0,1,.22,1.25,2.81,2.81,0,0,1-.22,1.3.89.89,0,0,1-.54.47A2.74,2.74,0,0,1,177.35,31.88Z"/><path class="cls-2" d="M186.58,32.08a6.45,6.45,0,0,1-2.34-.46,7.06,7.06,0,0,1-2.11-1.32,6.17,6.17,0,0,1-1.51-2,6,6,0,0,1-.56-2.63,6.24,6.24,0,0,1,.51-2.52A6.75,6.75,0,0,1,182,21.05a6.67,6.67,0,0,1,2.07-1.41,6.09,6.09,0,0,1,2.49-.51,6.35,6.35,0,0,1,3.26.86,6.61,6.61,0,0,1,2.33,2.34,6.27,6.27,0,0,1,.88,3.28,6.17,6.17,0,0,1-.57,2.71,6.35,6.35,0,0,1-1.5,2,6.68,6.68,0,0,1-2.07,1.28A6.42,6.42,0,0,1,186.58,32.08Zm-.05-3.78a2.7,2.7,0,0,0,1.23-.29,2.81,2.81,0,0,0,1.05-.9,2.61,2.61,0,0,0,.42-1.53,2.67,2.67,0,0,0-.35-1.4,2.48,2.48,0,0,0-1-.94,2.94,2.94,0,0,0-1.41-.33,2.59,2.59,0,0,0-1.34.34,2.76,2.76,0,0,0-.95,1,2.68,2.68,0,0,0-.36,1.38,2.64,2.64,0,0,0,.41,1.52,2.43,2.43,0,0,0,1,.9A2.89,2.89,0,0,0,186.53,28.3Z"/><path class="cls-4" d="M58.88,38.85a4.22,4.22,0,0,1-3.5-1.36c-.74-.91-1.1-2.5-1.1-4.77H46.74a5.31,5.31,0,0,1-3.93-1.3,4.61,4.61,0,0,1-1.28-3.36,7.21,7.21,0,0,1,1.11-3.95Q45.54,19.45,49.16,14A6.65,6.65,0,0,1,55,10.84l3.55,0c2,0,3.32.34,4,1a4.87,4.87,0,0,1,1.06,3.59V26.59a3.66,3.66,0,0,1,2.4.88,3.33,3.33,0,0,1,.65,2.27,2.8,2.8,0,0,1-.7,2.2,4,4,0,0,1-2.36.74c0,2.21-.4,3.79-1.18,4.74A4.32,4.32,0,0,1,58.88,38.85Zm-4.63-12.1.13-8.94-5.47,8.94Z"/><path class="cls-4" d="M69.23,36a2.78,2.78,0,0,1,1.16-2.31,5.4,5.4,0,0,1,3.28-.88c3,0,4.44,1.07,4.44,3.19a3.11,3.11,0,0,1-.57,2,2.69,2.69,0,0,1-1.51,1,9.11,9.11,0,0,1-2.36.26,6.13,6.13,0,0,1-3.18-.76A2.62,2.62,0,0,1,69.23,36Z"/><path class="cls-4" d="M90.34,32.55q0,3.41-1.19,4.85a4.35,4.35,0,0,1-3.59,1.45,5.69,5.69,0,0,1-2.56-.5,3.3,3.3,0,0,1-1.49-1.85A10.86,10.86,0,0,1,81,32.89L80.9,17.22a6.32,6.32,0,0,1-3.22-.73A2.62,2.62,0,0,1,76.42,14a2.78,2.78,0,0,1,1.16-2.29,5.2,5.2,0,0,1,3.24-.9c.55,0,1.31,0,2.3,0l2.1,0c2,0,3.36.34,4.06,1a5,5,0,0,1,1,3.59Z"/><path class="cls-5" d="M58.88,38.85a4.22,4.22,0,0,1-3.5-1.36c-.74-.91-1.1-2.5-1.1-4.77H46.74a5.31,5.31,0,0,1-3.93-1.3,4.61,4.61,0,0,1-1.28-3.36,7.21,7.21,0,0,1,1.11-3.95Q45.54,19.45,49.16,14A6.65,6.65,0,0,1,55,10.84l3.55,0c2,0,3.32.34,4,1a4.87,4.87,0,0,1,1.06,3.59V26.59a3.66,3.66,0,0,1,2.4.88,3.33,3.33,0,0,1,.65,2.27,2.8,2.8,0,0,1-.7,2.2,4,4,0,0,1-2.36.74c0,2.21-.4,3.79-1.18,4.74A4.32,4.32,0,0,1,58.88,38.85Zm-4.63-12.1.13-8.94-5.47,8.94Z"/><path class="cls-5" d="M69.23,36a2.78,2.78,0,0,1,1.16-2.31,5.4,5.4,0,0,1,3.28-.88c3,0,4.44,1.07,4.44,3.19a3.11,3.11,0,0,1-.57,2,2.69,2.69,0,0,1-1.51,1,9.11,9.11,0,0,1-2.36.26,6.13,6.13,0,0,1-3.18-.76A2.62,2.62,0,0,1,69.23,36Z"/><path class="cls-5" d="M90.34,32.55q0,3.41-1.19,4.85a4.35,4.35,0,0,1-3.59,1.45,5.69,5.69,0,0,1-2.56-.5,3.3,3.3,0,0,1-1.49-1.85A10.86,10.86,0,0,1,81,32.89L80.9,17.22a6.32,6.32,0,0,1-3.22-.73A2.62,2.62,0,0,1,76.42,14a2.78,2.78,0,0,1,1.16-2.29,5.2,5.2,0,0,1,3.24-.9c.55,0,1.31,0,2.3,0l2.1,0c2,0,3.36.34,4.06,1a5,5,0,0,1,1,3.59Z"/></g></g></svg>