<svg xmlns="http://www.w3.org/2000/svg" viewBox="0 0 401.16 76.3"><defs><style>.cls-1{fill:#0468ad;}.cls-2{fill:#fff;}.cls-3,.cls-4{fill:none;stroke-width:5px;}.cls-3{stroke:#c8a927;stroke-linejoin:round;}.cls-4{stroke:#fff;}.cls-5{fill:#c8a927;}</style></defs><title>41t</title><g id="Layer_2" data-name="Layer 2"><g id="pestaña_identificativa" data-name="pestaña identificativa"><rect class="cls-1" width="401.16" height="76.3" rx="32.4"/><path class="cls-2" d="M126.88,34a8.58,8.58,0,0,1-2.33-.34A9.52,9.52,0,0,1,120,30.86a8.48,8.48,0,0,1-1.51-2.55,9.38,9.38,0,0,1-.56-3.33,8.58,8.58,0,0,1,.57-3.23A8.06,8.06,0,0,1,120,19.29a8.84,8.84,0,0,1,2.13-1.74,9.54,9.54,0,0,1,2.41-1,8.84,8.84,0,0,1,2.39-.34,7.36,7.36,0,0,1,2.22.3,8.09,8.09,0,0,1,1.54.63l.76.42a9.08,9.08,0,0,1,.85.65,1.25,1.25,0,0,1,.43.9,1.61,1.61,0,0,1-.12.6,2.29,2.29,0,0,1-.34.6,3.05,3.05,0,0,1-.77.84,1.23,1.23,0,0,1-.73.26,1.16,1.16,0,0,1-.57-.15,6.85,6.85,0,0,1-.65-.4c-.12-.08-.28-.19-.5-.31a3.53,3.53,0,0,0-.89-.34,5.78,5.78,0,0,0-3.15.15,5.23,5.23,0,0,0-1.64.92,4.58,4.58,0,0,0-1.2,1.59,5.3,5.3,0,0,0-.45,2.26,5,5,0,0,0,.46,2.25,4.69,4.69,0,0,0,1.21,1.58,5.29,5.29,0,0,0,1.64.94,5.16,5.16,0,0,0,1.74.31,4.66,4.66,0,0,0,1.27-.15,5,5,0,0,0,.93-.36,7.11,7.11,0,0,0,.67-.39c.19-.11.37-.22.57-.32a1.14,1.14,0,0,1,1.3.12,3.43,3.43,0,0,1,.73.88,2.66,2.66,0,0,1,.34.64,1.64,1.64,0,0,1,.11.61,1.07,1.07,0,0,1-.41.86,7.09,7.09,0,0,1-.86.61l-.75.44a7.66,7.66,0,0,1-3.8.91Z"/><path class="cls-2" d="M140.88,34.05a6.41,6.41,0,0,1-2.34-.46,6.94,6.94,0,0,1-2.11-1.32,6.24,6.24,0,0,1-1.51-2,6,6,0,0,1-.57-2.63,6.38,6.38,0,0,1,.52-2.52A6.75,6.75,0,0,1,136.28,23a6.67,6.67,0,0,1,2.07-1.41,6.08,6.08,0,0,1,2.48-.51,6.33,6.33,0,0,1,3.26.86,6.56,6.56,0,0,1,2.34,2.34,6.27,6.27,0,0,1,.87,3.28,6.2,6.2,0,0,1-.56,2.71,6.5,6.5,0,0,1-1.5,2,6.73,6.73,0,0,1-2.08,1.28A6.36,6.36,0,0,1,140.88,34.05Zm0-3.78a2.78,2.78,0,0,0,1.22-.3,2.73,2.73,0,0,0,1-.89,2.54,2.54,0,0,0,.43-1.53,2.77,2.77,0,0,0-.35-1.4,2.48,2.48,0,0,0-1-.94,2.94,2.94,0,0,0-1.41-.34,2.6,2.6,0,0,0-1.34.35,2.82,2.82,0,0,0-.95,1,2.72,2.72,0,0,0-.37,1.39A2.56,2.56,0,0,0,139.6,30,3,3,0,0,0,140.83,30.27Z"/><path class="cls-2" d="M154.13,33.86a16.26,16.26,0,0,1-1.83-.1,3.7,3.7,0,0,1-1.35-.41,2.55,2.55,0,0,1-.9-.83,4,4,0,0,1-.52-1.38,10,10,0,0,1-.18-2.06V17.53a4,4,0,0,1,.1-.93,1.21,1.21,0,0,1,.49-.7,2.37,2.37,0,0,1,1.31-.27,2.24,2.24,0,0,1,1.29.28,1.15,1.15,0,0,1,.49.7,4.4,4.4,0,0,1,.1.92V28.91a4.16,4.16,0,0,0,0,.66.8.8,0,0,0,.15.41.49.49,0,0,0,.31.2,1.9,1.9,0,0,0,.52.05,2.7,2.7,0,0,1,.62.08.9.9,0,0,1,.53.45,2.53,2.53,0,0,1,.23,1.25,2.79,2.79,0,0,1-.23,1.3.89.89,0,0,1-.54.47A2.72,2.72,0,0,1,154.13,33.86Z"/><path class="cls-2" d="M163.35,34.06A6.29,6.29,0,0,1,161,33.6a7.06,7.06,0,0,1-2.11-1.32,6.12,6.12,0,0,1-2.07-4.67,6.16,6.16,0,0,1,.51-2.51A6.88,6.88,0,0,1,158.76,23a6.75,6.75,0,0,1,2.06-1.41,6.13,6.13,0,0,1,2.49-.51,6.24,6.24,0,0,1,3.26.87,6.48,6.48,0,0,1,2.34,2.34,6.69,6.69,0,0,1,.31,6,6.52,6.52,0,0,1-5.87,3.76Zm0-3.77a2.85,2.85,0,0,0,1.23-.3,2.74,2.74,0,0,0,1.05-.9,2.61,2.61,0,0,0,.42-1.53,2.77,2.77,0,0,0-.34-1.4,2.48,2.48,0,0,0-1-.93,2.8,2.8,0,0,0-1.41-.34,2.53,2.53,0,0,0-1.34.35,2.65,2.65,0,0,0-.95,1,2.93,2.93,0,0,0,0,2.9,2.49,2.49,0,0,0,1,.9A2.9,2.9,0,0,0,163.3,30.29Z"/><path class="cls-2" d="M173.68,33.87a2.41,2.41,0,0,1-1.32-.27,1.06,1.06,0,0,1-.47-.71,4.7,4.7,0,0,1-.09-.92V23.24a5.25,5.25,0,0,1,.08-.92,1.09,1.09,0,0,1,.49-.69,2.59,2.59,0,0,1,1.33-.26,2.5,2.5,0,0,1,1.26.24,1.06,1.06,0,0,1,.49.55,2,2,0,0,1,.1.53l-.3.16a2.39,2.39,0,0,1,.26-.37,3.58,3.58,0,0,1,.59-.55,3.53,3.53,0,0,1,2.15-.68l.61,0a4.62,4.62,0,0,1,.7.15,3.32,3.32,0,0,1,.66.3,1.69,1.69,0,0,1,.49.47,1.2,1.2,0,0,1,.19.67,3,3,0,0,1-.48,1.74,1.4,1.4,0,0,1-1.2.71,2.11,2.11,0,0,1-.6-.06,1,1,0,0,1-.29-.15.93.93,0,0,0-.26-.15,1.68,1.68,0,0,0-.55-.06,2.34,2.34,0,0,0-.71.1,1.85,1.85,0,0,0-.63.31,1.45,1.45,0,0,0-.61,1.23V32a4.46,4.46,0,0,1-.09.91,1,1,0,0,1-.49.69A2.58,2.58,0,0,1,173.68,33.87Z"/><path class="cls-2" d="M189.08,34.1a7.3,7.3,0,0,1-3-.57A5.86,5.86,0,0,1,184,32a6.51,6.51,0,0,1-1.2-2.09,7.09,7.09,0,0,1-.4-2.3,6.42,6.42,0,0,1,.86-3.32A6,6,0,0,1,185.62,22a7.11,7.11,0,0,1,3.46-.83,6.18,6.18,0,0,1,2.51.46,5.13,5.13,0,0,1,1.75,1.2,5.22,5.22,0,0,1,1,1.59,4.54,4.54,0,0,1,.34,1.63,2.89,2.89,0,0,1-.67,2.05,2.25,2.25,0,0,1-1.69.67H186.4a1.77,1.77,0,0,0,.47,1.07,2.69,2.69,0,0,0,1,.7,3.5,3.5,0,0,0,1.33.25,7.94,7.94,0,0,0,1-.06,4.3,4.3,0,0,0,.79-.17l.59-.23.49-.19a1.76,1.76,0,0,1,.42-.09,1,1,0,0,1,.68.21,2,2,0,0,1,.57.71,1.65,1.65,0,0,1,.24.53,2.07,2.07,0,0,1,.06.5,1.32,1.32,0,0,1-.61,1.08,4.73,4.73,0,0,1-1.73.74A11.47,11.47,0,0,1,189.08,34.1Zm-2.68-7.4h3.95a1,1,0,0,0,.58-.13.63.63,0,0,0,.2-.54,1.27,1.27,0,0,0-.27-.78,1.76,1.76,0,0,0-.74-.53,2.8,2.8,0,0,0-1.09-.19,3,3,0,0,0-1.35.3,2.38,2.38,0,0,0-.94.8A1.91,1.91,0,0,0,186.4,26.7Z"/><path class="cls-2" d="M207,33.86a2.36,2.36,0,0,1-1.37-.32.91.91,0,0,1-.43-.8l.25-.43a3,3,0,0,1-.57.62,4.34,4.34,0,0,1-1.12.64,4.15,4.15,0,0,1-1.66.29,5,5,0,0,1-2.19-.5A5.85,5.85,0,0,1,198.08,32a7,7,0,0,1-1.28-2,6.16,6.16,0,0,1-.47-2.38,6.07,6.07,0,0,1,.47-2.34,6.85,6.85,0,0,1,1.29-2,6.51,6.51,0,0,1,1.84-1.36,5,5,0,0,1,2.18-.5,4.3,4.3,0,0,1,1.57.26,4.16,4.16,0,0,1,1.09.62,3.43,3.43,0,0,1,.66.67l-.22-.35a1,1,0,0,1,.43-.91,2.44,2.44,0,0,1,1.39-.31,2.34,2.34,0,0,1,1.29.27,1.16,1.16,0,0,1,.48.73,5.8,5.8,0,0,1,.08.95V32a4.73,4.73,0,0,1-.09.93,1.07,1.07,0,0,1-.48.71A2.38,2.38,0,0,1,207,33.86Zm-4.37-3.72a2.21,2.21,0,0,0,1.2-.34A2.56,2.56,0,0,0,205,27.61a2.52,2.52,0,0,0-.32-1.29,2.4,2.4,0,0,0-.88-.88,2.3,2.3,0,0,0-1.22-.33,2.33,2.33,0,0,0-1.26.34,2.53,2.53,0,0,0-1.24,2.21,2.34,2.34,0,0,0,.34,1.24,2.56,2.56,0,0,0,.92.9A2.59,2.59,0,0,0,202.63,30.14Z"/><path class="cls-2" d="M223.27,33.87a5.24,5.24,0,0,1-2.17-.45,5.33,5.33,0,0,1-1.75-1.26,5.69,5.69,0,0,1-1.16-1.93,7,7,0,0,1-.41-2.43V23.27a4.42,4.42,0,0,1,.09-.92,1.08,1.08,0,0,1,.49-.7,2.33,2.33,0,0,1,1.32-.28,2.25,2.25,0,0,1,1.31.28,1.12,1.12,0,0,1,.48.71,4.62,4.62,0,0,1,.09.94v4.5a2.78,2.78,0,0,0,.27,1.26,1.73,1.73,0,0,0,.77.81,2.46,2.46,0,0,0,1.21.28,2.5,2.5,0,0,0,1.24-.29,2,2,0,0,0,.8-.81,2.59,2.59,0,0,0,.29-1.25V23.25a4.59,4.59,0,0,1,.09-.93,1,1,0,0,1,.49-.68,2.45,2.45,0,0,1,1.32-.26,2.35,2.35,0,0,1,1.31.27,1.15,1.15,0,0,1,.48.71,4.63,4.63,0,0,1,.09.92v8.8a4.26,4.26,0,0,1-.09.89,1,1,0,0,1-.48.66,2.65,2.65,0,0,1-1.31.25,2.72,2.72,0,0,1-1.05-.16,1.21,1.21,0,0,1-.55-.37,1.16,1.16,0,0,1-.21-.47,2.48,2.48,0,0,1,0-.45l.32-.28a3.74,3.74,0,0,1-.32.39,6.27,6.27,0,0,1-.67.57,4,4,0,0,1-1,.54A3.37,3.37,0,0,1,223.27,33.87Z"/><path class="cls-2" d="M234.27,33.88a2.5,2.5,0,0,1-1.31-.26,1.08,1.08,0,0,1-.47-.7,4.56,4.56,0,0,1-.09-.92V23.2a4.88,4.88,0,0,1,.08-.88,1,1,0,0,1,.49-.67,2.71,2.71,0,0,1,1.33-.25,2.6,2.6,0,0,1,1.17.22,1,1,0,0,1,.49.51,1.73,1.73,0,0,1,.11.56,1,1,0,0,0,0,.37l-.15.47a1.43,1.43,0,0,1,.39-.76,3.53,3.53,0,0,1,.85-.7,4.73,4.73,0,0,1,1.1-.49,4.29,4.29,0,0,1,1.16-.17,5.05,5.05,0,0,1,2.14.44,4.41,4.41,0,0,1,1.59,1.26,5.81,5.81,0,0,1,1,1.94,8.18,8.18,0,0,1,.34,2.44V32a4.53,4.53,0,0,1-.09.91,1.06,1.06,0,0,1-.48.69,2.66,2.66,0,0,1-1.33.25,2.47,2.47,0,0,1-1.33-.27,1.06,1.06,0,0,1-.49-.7,4.47,4.47,0,0,1-.08-.91V27.48a2.87,2.87,0,0,0-.26-1.27,1.88,1.88,0,0,0-.75-.8,2.39,2.39,0,0,0-1.22-.28,2.59,2.59,0,0,0-1.25.29,2,2,0,0,0-.81.81,2.59,2.59,0,0,0-.29,1.25V32a4.46,4.46,0,0,1-.09.91,1,1,0,0,1-.47.69A2.53,2.53,0,0,1,234.27,33.88Z"/><path class="cls-2" d="M259.67,34a6.63,6.63,0,0,1-2.23-.41,7,7,0,0,1-2.1-1.22,5.8,5.8,0,0,1-1.54-2,6.32,6.32,0,0,1-.57-2.75,5.9,5.9,0,0,1,2.1-4.7,7,7,0,0,1,2.09-1.21,6.61,6.61,0,0,1,2.21-.41,6,6,0,0,1,1.66.21,5.67,5.67,0,0,1,1.25.52,3.91,3.91,0,0,1,.74.52c.28.22.53.44.75.65a1.05,1.05,0,0,1,.3.85,1.64,1.64,0,0,1-.18.57,4.29,4.29,0,0,1-.37.58c-.52.7-1,1-1.5,1a2.27,2.27,0,0,1-.69-.25c-.21-.11-.41-.23-.6-.35a3.88,3.88,0,0,0-.61-.31,2,2,0,0,0-.75-.14,2.53,2.53,0,0,0-2.21,1.24,2.44,2.44,0,0,0-.34,1.31,2.47,2.47,0,0,0,.34,1.3,2.51,2.51,0,0,0,.89.91,2.39,2.39,0,0,0,1.27.34,2.32,2.32,0,0,0,.72-.1,2.59,2.59,0,0,0,.55-.24l.35-.21.58-.36a1,1,0,0,1,.55-.16,1.19,1.19,0,0,1,.73.26,4.1,4.1,0,0,1,.82.84,2,2,0,0,1,.48,1,1.26,1.26,0,0,1-.21.87,2.79,2.79,0,0,1-.85.76,5.06,5.06,0,0,1-.71.45,7.21,7.21,0,0,1-1.25.5A5.77,5.77,0,0,1,259.67,34Z"/><path class="cls-2" d="M267.43,20.52a.83.83,0,0,1-.74-.25,2.63,2.63,0,0,1-.51-1,2.11,2.11,0,0,1-.1-1.3,1.43,1.43,0,0,1,.93-.67l4.4-1.35a.9.9,0,0,1,.72.29,2.4,2.4,0,0,1,.5,1,1.81,1.81,0,0,1,.09,1.27,1.35,1.35,0,0,1-.91.68Zm1,13.41a2.35,2.35,0,0,1-1.31-.27,1.07,1.07,0,0,1-.48-.7,4.46,4.46,0,0,1-.09-.91V23.32a4.53,4.53,0,0,1,.09-.91,1.08,1.08,0,0,1,.49-.7,2.52,2.52,0,0,1,1.32-.26,2.24,2.24,0,0,1,1.29.28,1.1,1.1,0,0,1,.47.71,4.62,4.62,0,0,1,.09.94v8.7a4.53,4.53,0,0,1-.08.91,1.06,1.06,0,0,1-.48.69A2.6,2.6,0,0,1,268.4,33.93Z"/><path class="cls-2" d="M274.62,33.93a2.5,2.5,0,0,1-1.31-.26,1.1,1.1,0,0,1-.47-.72,4.63,4.63,0,0,1-.09-.92V23.3a4.42,4.42,0,0,1,.09-.92,1.08,1.08,0,0,1,.49-.69,2.59,2.59,0,0,1,1.33-.26,2.5,2.5,0,0,1,1.26.24,1.06,1.06,0,0,1,.49.55,2,2,0,0,1,.1.54l-.3.15a2.39,2.39,0,0,1,.26-.37,3.58,3.58,0,0,1,.59-.55,3.53,3.53,0,0,1,2.15-.68,4.66,4.66,0,0,1,.61,0,3.14,3.14,0,0,1,.7.15,2.47,2.47,0,0,1,.66.3,1.54,1.54,0,0,1,.49.46,1.2,1.2,0,0,1,.19.67,3,3,0,0,1-.48,1.74,1.4,1.4,0,0,1-1.2.71,2.11,2.11,0,0,1-.6-.06,1,1,0,0,1-.29-.15A.93.93,0,0,0,279,25a1.68,1.68,0,0,0-.55-.06,2.34,2.34,0,0,0-.71.1,1.85,1.85,0,0,0-.63.31,1.45,1.45,0,0,0-.61,1.23v5.48a4.47,4.47,0,0,1-.08.91,1.07,1.07,0,0,1-.49.69A2.6,2.6,0,0,1,274.62,33.93Z"/><path class="cls-2" d="M290,34a6.42,6.42,0,0,1-2.24-.42,6.92,6.92,0,0,1-2.1-1.21,5.77,5.77,0,0,1-1.53-2,6.76,6.76,0,0,1,0-5.48,5.85,5.85,0,0,1,1.53-2,6.71,6.71,0,0,1,2.08-1.21,6.38,6.38,0,0,1,2.22-.41,6.08,6.08,0,0,1,1.66.21,5.41,5.41,0,0,1,1.25.51,4.37,4.37,0,0,1,.74.53,7,7,0,0,1,.74.65,1.05,1.05,0,0,1,.3.85,1.38,1.38,0,0,1-.17.56,3.91,3.91,0,0,1-.38.59c-.51.7-1,1-1.5,1a2.12,2.12,0,0,1-.68-.25l-.6-.35a4.48,4.48,0,0,0-.62-.31,1.73,1.73,0,0,0-.75-.14,2.59,2.59,0,0,0-1.3.33,2.7,2.7,0,0,0-.91.9,2.59,2.59,0,0,0-.34,1.32,2.5,2.5,0,0,0,.34,1.3,2.46,2.46,0,0,0,.9.91,2.33,2.33,0,0,0,1.26.34,2.39,2.39,0,0,0,.73-.1,2.83,2.83,0,0,0,.55-.24l.35-.21.57-.36a1.08,1.08,0,0,1,.55-.16,1.21,1.21,0,0,1,.74.26,4.1,4.1,0,0,1,.81.84,2.07,2.07,0,0,1,.49,1,1.18,1.18,0,0,1-.22.86,2.58,2.58,0,0,1-.85.77,4.39,4.39,0,0,1-.71.44,6.49,6.49,0,0,1-1.25.5A5.64,5.64,0,0,1,290,34Z"/><path class="cls-2" d="M302.32,33.92a5.2,5.2,0,0,1-2.17-.45,5.33,5.33,0,0,1-1.75-1.26,5.78,5.78,0,0,1-1.16-1.93,6.83,6.83,0,0,1-.41-2.44V23.32a4.52,4.52,0,0,1,.09-.93,1.13,1.13,0,0,1,.49-.7,2.41,2.41,0,0,1,1.32-.27,2.37,2.37,0,0,1,1.31.27,1.17,1.17,0,0,1,.48.72,4.64,4.64,0,0,1,.08.94v4.5a2.92,2.92,0,0,0,.26,1.26,1.8,1.8,0,0,0,.78.81,2.78,2.78,0,0,0,2.45,0,2,2,0,0,0,.8-.81,2.59,2.59,0,0,0,.29-1.25V23.3a4.52,4.52,0,0,1,.09-.93,1.08,1.08,0,0,1,.49-.69,2.52,2.52,0,0,1,1.32-.26,2.36,2.36,0,0,1,1.31.28,1.12,1.12,0,0,1,.48.71,4.53,4.53,0,0,1,.08.91v8.8a4.13,4.13,0,0,1-.09.89,1,1,0,0,1-.49.66,2.5,2.5,0,0,1-1.3.25,2.92,2.92,0,0,1-1.05-.15,1.3,1.3,0,0,1-.55-.37,1.14,1.14,0,0,1-.21-.48,3.75,3.75,0,0,1,0-.45l.33-.27a2.55,2.55,0,0,1-.33.38,4.51,4.51,0,0,1-.66.58,4.21,4.21,0,0,1-1,.54A3.37,3.37,0,0,1,302.32,33.92Z"/><path class="cls-2" d="M316.25,34a14.3,14.3,0,0,1-1.83-.1,3.7,3.7,0,0,1-1.35-.4,2.58,2.58,0,0,1-.9-.84,4,4,0,0,1-.52-1.37,10.11,10.11,0,0,1-.17-2.06V17.63a4.42,4.42,0,0,1,.1-.93,1.18,1.18,0,0,1,.49-.7,2.39,2.39,0,0,1,1.31-.27,2.34,2.34,0,0,1,1.29.27,1.21,1.21,0,0,1,.49.7,4.57,4.57,0,0,1,.1.93V29a4.22,4.22,0,0,0,0,.67.8.8,0,0,0,.15.41.51.51,0,0,0,.31.2,2.44,2.44,0,0,0,.53,0,2.66,2.66,0,0,1,.61.07.85.85,0,0,1,.53.45,2.56,2.56,0,0,1,.23,1.25,2.73,2.73,0,0,1-.23,1.3.89.89,0,0,1-.53.48A2.79,2.79,0,0,1,316.25,34Z"/><path class="cls-2" d="M325.47,34.16a6.4,6.4,0,0,1-2.33-.46A7.11,7.11,0,0,1,321,32.38a6.42,6.42,0,0,1-1.51-2,6.41,6.41,0,0,1,0-5.15,6.78,6.78,0,0,1,3.47-3.47,6.16,6.16,0,0,1,2.49-.51,6.33,6.33,0,0,1,3.26.86A6.56,6.56,0,0,1,331,24.41a6.71,6.71,0,0,1,.31,6,6.5,6.5,0,0,1-3.58,3.32A6.38,6.38,0,0,1,325.47,34.16Zm-.05-3.78a2.8,2.8,0,0,0,1.23-.29,2.67,2.67,0,0,0,1.05-.9,2.61,2.61,0,0,0,.43-1.53,2.77,2.77,0,0,0-.35-1.4,2.62,2.62,0,0,0-1-.94A3,3,0,0,0,325.4,25a2.56,2.56,0,0,0-1.33.35,2.68,2.68,0,0,0-.95,1,2.57,2.57,0,0,0-.37,1.38,2.71,2.71,0,0,0,.41,1.52,2.64,2.64,0,0,0,1,.9A3,3,0,0,0,325.42,30.38Z"/><path class="cls-3" d="M126.88,34a8.58,8.58,0,0,1-2.33-.34A9.52,9.52,0,0,1,120,30.86a8.48,8.48,0,0,1-1.51-2.55,9.38,9.38,0,0,1-.56-3.33,8.58,8.58,0,0,1,.57-3.23A8.06,8.06,0,0,1,120,19.29a8.84,8.84,0,0,1,2.13-1.74,9.54,9.54,0,0,1,2.41-1,8.84,8.84,0,0,1,2.39-.34,7.36,7.36,0,0,1,2.22.3,8.09,8.09,0,0,1,1.54.63l.76.42a9.08,9.08,0,0,1,.85.65,1.25,1.25,0,0,1,.43.9,1.61,1.61,0,0,1-.12.6,2.29,2.29,0,0,1-.34.6,3.05,3.05,0,0,1-.77.84,1.23,1.23,0,0,1-.73.26,1.16,1.16,0,0,1-.57-.15,6.85,6.85,0,0,1-.65-.4c-.12-.08-.28-.19-.5-.31a3.53,3.53,0,0,0-.89-.34,5.78,5.78,0,0,0-3.15.15,5.23,5.23,0,0,0-1.64.92,4.58,4.58,0,0,0-1.2,1.59,5.3,5.3,0,0,0-.45,2.26,5,5,0,0,0,.46,2.25,4.69,4.69,0,0,0,1.21,1.58,5.29,5.29,0,0,0,1.64.94,5.16,5.16,0,0,0,1.74.31,4.66,4.66,0,0,0,1.27-.15,5,5,0,0,0,.93-.36,7.11,7.11,0,0,0,.67-.39c.19-.11.37-.22.57-.32a1.14,1.14,0,0,1,1.3.12,3.43,3.43,0,0,1,.73.88,2.66,2.66,0,0,1,.34.64,1.64,1.64,0,0,1,.11.61,1.07,1.07,0,0,1-.41.86,7.09,7.09,0,0,1-.86.61l-.75.44a7.66,7.66,0,0,1-3.8.91Z"/><path class="cls-3" d="M140.88,34.05a6.41,6.41,0,0,1-2.34-.46,6.94,6.94,0,0,1-2.11-1.32,6.24,6.24,0,0,1-1.51-2,6,6,0,0,1-.57-2.63,6.38,6.38,0,0,1,.52-2.52A6.75,6.75,0,0,1,136.28,23a6.67,6.67,0,0,1,2.07-1.41,6.08,6.08,0,0,1,2.48-.51,6.33,6.33,0,0,1,3.26.86,6.56,6.56,0,0,1,2.34,2.34,6.27,6.27,0,0,1,.87,3.28,6.2,6.2,0,0,1-.56,2.71,6.5,6.5,0,0,1-1.5,2,6.73,6.73,0,0,1-2.08,1.28A6.36,6.36,0,0,1,140.88,34.05Zm0-3.78a2.78,2.78,0,0,0,1.22-.3,2.73,2.73,0,0,0,1-.89,2.54,2.54,0,0,0,.43-1.53,2.77,2.77,0,0,0-.35-1.4,2.48,2.48,0,0,0-1-.94,2.94,2.94,0,0,0-1.41-.34,2.6,2.6,0,0,0-1.34.35,2.82,2.82,0,0,0-.95,1,2.72,2.72,0,0,0-.37,1.39A2.56,2.56,0,0,0,139.6,30,3,3,0,0,0,140.83,30.27Z"/><path class="cls-3" d="M154.13,33.86a16.26,16.26,0,0,1-1.83-.1,3.7,3.7,0,0,1-1.35-.41,2.55,2.55,0,0,1-.9-.83,4,4,0,0,1-.52-1.38,10,10,0,0,1-.18-2.06V17.53a4,4,0,0,1,.1-.93,1.21,1.21,0,0,1,.49-.7,2.37,2.37,0,0,1,1.31-.27,2.24,2.24,0,0,1,1.29.28,1.15,1.15,0,0,1,.49.7,4.4,4.4,0,0,1,.1.92V28.91a4.16,4.16,0,0,0,0,.66.8.8,0,0,0,.15.41.49.49,0,0,0,.31.2,1.9,1.9,0,0,0,.52.05,2.7,2.7,0,0,1,.62.08.9.9,0,0,1,.53.45,2.53,2.53,0,0,1,.23,1.25,2.79,2.79,0,0,1-.23,1.3.89.89,0,0,1-.54.47A2.72,2.72,0,0,1,154.13,33.86Z"/><path class="cls-3" d="M163.35,34.06A6.29,6.29,0,0,1,161,33.6a7.06,7.06,0,0,1-2.11-1.32,6.12,6.12,0,0,1-2.07-4.67,6.16,6.16,0,0,1,.51-2.51A6.88,6.88,0,0,1,158.76,23a6.75,6.75,0,0,1,2.06-1.41,6.13,6.13,0,0,1,2.49-.51,6.24,6.24,0,0,1,3.26.87,6.48,6.48,0,0,1,2.34,2.34,6.69,6.69,0,0,1,.31,6,6.52,6.52,0,0,1-5.87,3.76Zm0-3.77a2.85,2.85,0,0,0,1.23-.3,2.74,2.74,0,0,0,1.05-.9,2.61,2.61,0,0,0,.42-1.53,2.77,2.77,0,0,0-.34-1.4,2.48,2.48,0,0,0-1-.93,2.8,2.8,0,0,0-1.41-.34,2.53,2.53,0,0,0-1.34.35,2.65,2.65,0,0,0-.95,1,2.93,2.93,0,0,0,0,2.9,2.49,2.49,0,0,0,1,.9A2.9,2.9,0,0,0,163.3,30.29Z"/><path class="cls-3" d="M173.68,33.87a2.41,2.41,0,0,1-1.32-.27,1.06,1.06,0,0,1-.47-.71,4.7,4.7,0,0,1-.09-.92V23.24a5.25,5.25,0,0,1,.08-.92,1.09,1.09,0,0,1,.49-.69,2.59,2.59,0,0,1,1.33-.26,2.5,2.5,0,0,1,1.26.24,1.06,1.06,0,0,1,.49.55,2,2,0,0,1,.1.53l-.3.16a2.39,2.39,0,0,1,.26-.37,3.58,3.58,0,0,1,.59-.55,3.53,3.53,0,0,1,2.15-.68l.61,0a4.62,4.62,0,0,1,.7.15,3.32,3.32,0,0,1,.66.3,1.69,1.69,0,0,1,.49.47,1.2,1.2,0,0,1,.19.67,3,3,0,0,1-.48,1.74,1.4,1.4,0,0,1-1.2.71,2.11,2.11,0,0,1-.6-.06,1,1,0,0,1-.29-.15.93.93,0,0,0-.26-.15,1.68,1.68,0,0,0-.55-.06,2.34,2.34,0,0,0-.71.1,1.85,1.85,0,0,0-.63.31,1.45,1.45,0,0,0-.61,1.23V32a4.46,4.46,0,0,1-.09.91,1,1,0,0,1-.49.69A2.58,2.58,0,0,1,173.68,33.87Z"/><path class="cls-3" d="M189.08,34.1a7.3,7.3,0,0,1-3-.57A5.86,5.86,0,0,1,184,32a6.51,6.51,0,0,1-1.2-2.09,7.09,7.09,0,0,1-.4-2.3,6.42,6.42,0,0,1,.86-3.32A6,6,0,0,1,185.62,22a7.11,7.11,0,0,1,3.46-.83,6.18,6.18,0,0,1,2.51.46,5.13,5.13,0,0,1,1.75,1.2,5.22,5.22,0,0,1,1,1.59,4.54,4.54,0,0,1,.34,1.63,2.89,2.89,0,0,1-.67,2.05,2.25,2.25,0,0,1-1.69.67H186.4a1.77,1.77,0,0,0,.47,1.07,2.69,2.69,0,0,0,1,.7,3.5,3.5,0,0,0,1.33.25,7.94,7.94,0,0,0,1-.06,4.3,4.3,0,0,0,.79-.17l.59-.23.49-.19a1.76,1.76,0,0,1,.42-.09,1,1,0,0,1,.68.21,2,2,0,0,1,.57.71,1.65,1.65,0,0,1,.24.53,2.07,2.07,0,0,1,.06.5,1.32,1.32,0,0,1-.61,1.08,4.73,4.73,0,0,1-1.73.74A11.47,11.47,0,0,1,189.08,34.1Zm-2.68-7.4h3.95a1,1,0,0,0,.58-.13.63.63,0,0,0,.2-.54,1.27,1.27,0,0,0-.27-.78,1.76,1.76,0,0,0-.74-.53,2.8,2.8,0,0,0-1.09-.19,3,3,0,0,0-1.35.3,2.38,2.38,0,0,0-.94.8A1.91,1.91,0,0,0,186.4,26.7Z"/><path class="cls-3" d="M207,33.86a2.36,2.36,0,0,1-1.37-.32.91.91,0,0,1-.43-.8l.25-.43a3,3,0,0,1-.57.62,4.34,4.34,0,0,1-1.12.64,4.15,4.15,0,0,1-1.66.29,5,5,0,0,1-2.19-.5A5.85,5.85,0,0,1,198.08,32a7,7,0,0,1-1.28-2,6.16,6.16,0,0,1-.47-2.38,6.07,6.07,0,0,1,.47-2.34,6.85,6.85,0,0,1,1.29-2,6.51,6.51,0,0,1,1.84-1.36,5,5,0,0,1,2.18-.5,4.3,4.3,0,0,1,1.57.26,4.16,4.16,0,0,1,1.09.62,3.43,3.43,0,0,1,.66.67l-.22-.35a1,1,0,0,1,.43-.91,2.44,2.44,0,0,1,1.39-.31,2.34,2.34,0,0,1,1.29.27,1.16,1.16,0,0,1,.48.73,5.8,5.8,0,0,1,.08.95V32a4.73,4.73,0,0,1-.09.93,1.07,1.07,0,0,1-.48.71A2.38,2.38,0,0,1,207,33.86Zm-4.37-3.72a2.21,2.21,0,0,0,1.2-.34A2.56,2.56,0,0,0,205,27.61a2.52,2.52,0,0,0-.32-1.29,2.4,2.4,0,0,0-.88-.88,2.3,2.3,0,0,0-1.22-.33,2.33,2.33,0,0,0-1.26.34,2.53,2.53,0,0,0-1.24,2.21,2.34,2.34,0,0,0,.34,1.24,2.56,2.56,0,0,0,.92.9A2.59,2.59,0,0,0,202.63,30.14Z"/><path class="cls-3" d="M223.27,33.87a5.24,5.24,0,0,1-2.17-.45,5.33,5.33,0,0,1-1.75-1.26,5.69,5.69,0,0,1-1.16-1.93,7,7,0,0,1-.41-2.43V23.27a4.42,4.42,0,0,1,.09-.92,1.08,1.08,0,0,1,.49-.7,2.33,2.33,0,0,1,1.32-.28,2.25,2.25,0,0,1,1.31.28,1.12,1.12,0,0,1,.48.71,4.62,4.62,0,0,1,.09.94v4.5a2.78,2.78,0,0,0,.27,1.26,1.73,1.73,0,0,0,.77.81,2.46,2.46,0,0,0,1.21.28,2.5,2.5,0,0,0,1.24-.29,2,2,0,0,0,.8-.81,2.59,2.59,0,0,0,.29-1.25V23.25a4.59,4.59,0,0,1,.09-.93,1,1,0,0,1,.49-.68,2.45,2.45,0,0,1,1.32-.26,2.35,2.35,0,0,1,1.31.27,1.15,1.15,0,0,1,.48.71,4.63,4.63,0,0,1,.09.92v8.8a4.26,4.26,0,0,1-.09.89,1,1,0,0,1-.48.66,2.65,2.65,0,0,1-1.31.25,2.72,2.72,0,0,1-1.05-.16,1.21,1.21,0,0,1-.55-.37,1.16,1.16,0,0,1-.21-.47,2.48,2.48,0,0,1,0-.45l.32-.28a3.74,3.74,0,0,1-.32.39,6.27,6.27,0,0,1-.67.57,4,4,0,0,1-1,.54A3.37,3.37,0,0,1,223.27,33.87Z"/><path class="cls-3" d="M234.27,33.88a2.5,2.5,0,0,1-1.31-.26,1.08,1.08,0,0,1-.47-.7,4.56,4.56,0,0,1-.09-.92V23.2a4.88,4.88,0,0,1,.08-.88,1,1,0,0,1,.49-.67,2.71,2.71,0,0,1,1.33-.25,2.6,2.6,0,0,1,1.17.22,1,1,0,0,1,.49.51,1.73,1.73,0,0,1,.11.56,1,1,0,0,0,0,.37l-.15.47a1.43,1.43,0,0,1,.39-.76,3.53,3.53,0,0,1,.85-.7,4.73,4.73,0,0,1,1.1-.49,4.29,4.29,0,0,1,1.16-.17,5.05,5.05,0,0,1,2.14.44,4.41,4.41,0,0,1,1.59,1.26,5.81,5.81,0,0,1,1,1.94,8.18,8.18,0,0,1,.34,2.44V32a4.53,4.53,0,0,1-.09.91,1.06,1.06,0,0,1-.48.69,2.66,2.66,0,0,1-1.33.25,2.47,2.47,0,0,1-1.33-.27,1.06,1.06,0,0,1-.49-.7,4.47,4.47,0,0,1-.08-.91V27.48a2.87,2.87,0,0,0-.26-1.27,1.88,1.88,0,0,0-.75-.8,2.39,2.39,0,0,0-1.22-.28,2.59,2.59,0,0,0-1.25.29,2,2,0,0,0-.81.81,2.59,2.59,0,0,0-.29,1.25V32a4.46,4.46,0,0,1-.09.91,1,1,0,0,1-.47.69A2.53,2.53,0,0,1,234.27,33.88Z"/><path class="cls-3" d="M259.67,34a6.63,6.63,0,0,1-2.23-.41,7,7,0,0,1-2.1-1.22,5.8,5.8,0,0,1-1.54-2,6.32,6.32,0,0,1-.57-2.75,5.9,5.9,0,0,1,2.1-4.7,7,7,0,0,1,2.09-1.21,6.61,6.61,0,0,1,2.21-.41,6,6,0,0,1,1.66.21,5.67,5.67,0,0,1,1.25.52,3.91,3.91,0,0,1,.74.52c.28.22.53.44.75.65a1.05,1.05,0,0,1,.3.85,1.64,1.64,0,0,1-.18.57,4.29,4.29,0,0,1-.37.58c-.52.7-1,1-1.5,1a2.27,2.27,0,0,1-.69-.25c-.21-.11-.41-.23-.6-.35a3.88,3.88,0,0,0-.61-.31,2,2,0,0,0-.75-.14,2.53,2.53,0,0,0-2.21,1.24,2.44,2.44,0,0,0-.34,1.31,2.47,2.47,0,0,0,.34,1.3,2.51,2.51,0,0,0,.89.91,2.39,2.39,0,0,0,1.27.34,2.32,2.32,0,0,0,.72-.1,2.59,2.59,0,0,0,.55-.24l.35-.21.58-.36a1,1,0,0,1,.55-.16,1.19,1.19,0,0,1,.73.26,4.1,4.1,0,0,1,.82.84,2,2,0,0,1,.48,1,1.26,1.26,0,0,1-.21.87,2.79,2.79,0,0,1-.85.76,5.06,5.06,0,0,1-.71.45,7.21,7.21,0,0,1-1.25.5A5.77,5.77,0,0,1,259.67,34Z"/><path class="cls-3" d="M267.43,20.52a.83.83,0,0,1-.74-.25,2.63,2.63,0,0,1-.51-1,2.11,2.11,0,0,1-.1-1.3,1.43,1.43,0,0,1,.93-.67l4.4-1.35a.9.9,0,0,1,.72.29,2.4,2.4,0,0,1,.5,1,1.81,1.81,0,0,1,.09,1.27,1.35,1.35,0,0,1-.91.68Zm1,13.41a2.35,2.35,0,0,1-1.31-.27,1.07,1.07,0,0,1-.48-.7,4.46,4.46,0,0,1-.09-.91V23.32a4.53,4.53,0,0,1,.09-.91,1.08,1.08,0,0,1,.49-.7,2.52,2.52,0,0,1,1.32-.26,2.24,2.24,0,0,1,1.29.28,1.1,1.1,0,0,1,.47.71,4.62,4.62,0,0,1,.09.94v8.7a4.53,4.53,0,0,1-.08.91,1.06,1.06,0,0,1-.48.69A2.6,2.6,0,0,1,268.4,33.93Z"/><path class="cls-3" d="M274.62,33.93a2.5,2.5,0,0,1-1.31-.26,1.1,1.1,0,0,1-.47-.72,4.63,4.63,0,0,1-.09-.92V23.3a4.42,4.42,0,0,1,.09-.92,1.08,1.08,0,0,1,.49-.69,2.59,2.59,0,0,1,1.33-.26,2.5,2.5,0,0,1,1.26.24,1.06,1.06,0,0,1,.49.55,2,2,0,0,1,.1.54l-.3.15a2.39,2.39,0,0,1,.26-.37,3.58,3.58,0,0,1,.59-.55,3.53,3.53,0,0,1,2.15-.68,4.66,4.66,0,0,1,.61,0,3.14,3.14,0,0,1,.7.15,2.47,2.47,0,0,1,.66.3,1.54,1.54,0,0,1,.49.46,1.2,1.2,0,0,1,.19.67,3,3,0,0,1-.48,1.74,1.4,1.4,0,0,1-1.2.71,2.11,2.11,0,0,1-.6-.06,1,1,0,0,1-.29-.15A.93.93,0,0,0,279,25a1.68,1.68,0,0,0-.55-.06,2.34,2.34,0,0,0-.71.1,1.85,1.85,0,0,0-.63.31,1.45,1.45,0,0,0-.61,1.23v5.48a4.47,4.47,0,0,1-.08.91,1.07,1.07,0,0,1-.49.69A2.6,2.6,0,0,1,274.62,33.93Z"/><path class="cls-3" d="M290,34a6.42,6.42,0,0,1-2.24-.42,6.92,6.92,0,0,1-2.1-1.21,5.77,5.77,0,0,1-1.53-2,6.76,6.76,0,0,1,0-5.48,5.85,5.85,0,0,1,1.53-2,6.71,6.71,0,0,1,2.08-1.21,6.38,6.38,0,0,1,2.22-.41,6.08,6.08,0,0,1,1.66.21,5.41,5.41,0,0,1,1.25.51,4.37,4.37,0,0,1,.74.53,7,7,0,0,1,.74.65,1.05,1.05,0,0,1,.3.85,1.38,1.38,0,0,1-.17.56,3.91,3.91,0,0,1-.38.59c-.51.7-1,1-1.5,1a2.12,2.12,0,0,1-.68-.25l-.6-.35a4.48,4.48,0,0,0-.62-.31,1.73,1.73,0,0,0-.75-.14,2.59,2.59,0,0,0-1.3.33,2.7,2.7,0,0,0-.91.9,2.59,2.59,0,0,0-.34,1.32,2.5,2.5,0,0,0,.34,1.3,2.46,2.46,0,0,0,.9.91,2.33,2.33,0,0,0,1.26.34,2.39,2.39,0,0,0,.73-.1,2.83,2.83,0,0,0,.55-.24l.35-.21.57-.36a1.08,1.08,0,0,1,.55-.16,1.21,1.21,0,0,1,.74.26,4.1,4.1,0,0,1,.81.84,2.07,2.07,0,0,1,.49,1,1.18,1.18,0,0,1-.22.86,2.58,2.58,0,0,1-.85.77,4.39,4.39,0,0,1-.71.44,6.49,6.49,0,0,1-1.25.5A5.64,5.64,0,0,1,290,34Z"/><path class="cls-3" d="M302.32,33.92a5.2,5.2,0,0,1-2.17-.45,5.33,5.33,0,0,1-1.75-1.26,5.78,5.78,0,0,1-1.16-1.93,6.83,6.83,0,0,1-.41-2.44V23.32a4.52,4.52,0,0,1,.09-.93,1.13,1.13,0,0,1,.49-.7,2.41,2.41,0,0,1,1.32-.27,2.37,2.37,0,0,1,1.31.27,1.17,1.17,0,0,1,.48.72,4.64,4.64,0,0,1,.08.94v4.5a2.92,2.92,0,0,0,.26,1.26,1.8,1.8,0,0,0,.78.81,2.78,2.78,0,0,0,2.45,0,2,2,0,0,0,.8-.81,2.59,2.59,0,0,0,.29-1.25V23.3a4.52,4.52,0,0,1,.09-.93,1.08,1.08,0,0,1,.49-.69,2.52,2.52,0,0,1,1.32-.26,2.36,2.36,0,0,1,1.31.28,1.12,1.12,0,0,1,.48.71,4.53,4.53,0,0,1,.08.91v8.8a4.13,4.13,0,0,1-.09.89,1,1,0,0,1-.49.66,2.5,2.5,0,0,1-1.3.25,2.92,2.92,0,0,1-1.05-.15,1.3,1.3,0,0,1-.55-.37,1.14,1.14,0,0,1-.21-.48,3.75,3.75,0,0,1,0-.45l.33-.27a2.55,2.55,0,0,1-.33.38,4.51,4.51,0,0,1-.66.58,4.21,4.21,0,0,1-1,.54A3.37,3.37,0,0,1,302.32,33.92Z"/><path class="cls-3" d="M316.25,34a14.3,14.3,0,0,1-1.83-.1,3.7,3.7,0,0,1-1.35-.4,2.58,2.58,0,0,1-.9-.84,4,4,0,0,1-.52-1.37,10.11,10.11,0,0,1-.17-2.06V17.63a4.42,4.42,0,0,1,.1-.93,1.18,1.18,0,0,1,.49-.7,2.39,2.39,0,0,1,1.31-.27,2.34,2.34,0,0,1,1.29.27,1.21,1.21,0,0,1,.49.7,4.57,4.57,0,0,1,.1.93V29a4.22,4.22,0,0,0,0,.67.8.8,0,0,0,.15.41.51.51,0,0,0,.31.2,2.44,2.44,0,0,0,.53,0,2.66,2.66,0,0,1,.61.07.85.85,0,0,1,.53.45,2.56,2.56,0,0,1,.23,1.25,2.73,2.73,0,0,1-.23,1.3.89.89,0,0,1-.53.48A2.79,2.79,0,0,1,316.25,34Z"/><path class="cls-3" d="M325.47,34.16a6.4,6.4,0,0,1-2.33-.46A7.11,7.11,0,0,1,321,32.38a6.42,6.42,0,0,1-1.51-2,6.41,6.41,0,0,1,0-5.15,6.78,6.78,0,0,1,3.47-3.47,6.16,6.16,0,0,1,2.49-.51,6.33,6.33,0,0,1,3.26.86A6.56,6.56,0,0,1,331,24.41a6.71,6.71,0,0,1,.31,6,6.5,6.5,0,0,1-3.58,3.32A6.38,6.38,0,0,1,325.47,34.16Zm-.05-3.78a2.8,2.8,0,0,0,1.23-.29,2.67,2.67,0,0,0,1.05-.9,2.61,2.61,0,0,0,.43-1.53,2.77,2.77,0,0,0-.35-1.4,2.62,2.62,0,0,0-1-.94A3,3,0,0,0,325.4,25a2.56,2.56,0,0,0-1.33.35,2.68,2.68,0,0,0-.95,1,2.57,2.57,0,0,0-.37,1.38,2.71,2.71,0,0,0,.41,1.52,2.64,2.64,0,0,0,1,.9A3,3,0,0,0,325.42,30.38Z"/><path class="cls-2" d="M126.88,34a8.58,8.58,0,0,1-2.33-.34A9.52,9.52,0,0,1,120,30.86a8.48,8.48,0,0,1-1.51-2.55,9.38,9.38,0,0,1-.56-3.33,8.58,8.58,0,0,1,.57-3.23A8.06,8.06,0,0,1,120,19.29a8.84,8.84,0,0,1,2.13-1.74,9.54,9.54,0,0,1,2.41-1,8.84,8.84,0,0,1,2.39-.34,7.36,7.36,0,0,1,2.22.3,8.09,8.09,0,0,1,1.54.63l.76.42a9.08,9.08,0,0,1,.85.65,1.25,1.25,0,0,1,.43.9,1.61,1.61,0,0,1-.12.6,2.29,2.29,0,0,1-.34.6,3.05,3.05,0,0,1-.77.84,1.23,1.23,0,0,1-.73.26,1.16,1.16,0,0,1-.57-.15,6.85,6.85,0,0,1-.65-.4c-.12-.08-.28-.19-.5-.31a3.53,3.53,0,0,0-.89-.34,5.78,5.78,0,0,0-3.15.15,5.23,5.23,0,0,0-1.64.92,4.58,4.58,0,0,0-1.2,1.59,5.3,5.3,0,0,0-.45,2.26,5,5,0,0,0,.46,2.25,4.69,4.69,0,0,0,1.21,1.58,5.29,5.29,0,0,0,1.64.94,5.16,5.16,0,0,0,1.74.31,4.66,4.66,0,0,0,1.27-.15,5,5,0,0,0,.93-.36,7.11,7.11,0,0,0,.67-.39c.19-.11.37-.22.57-.32a1.14,1.14,0,0,1,1.3.12,3.43,3.43,0,0,1,.73.88,2.66,2.66,0,0,1,.34.64,1.64,1.64,0,0,1,.11.61,1.07,1.07,0,0,1-.41.86,7.09,7.09,0,0,1-.86.61l-.75.44a7.66,7.66,0,0,1-3.8.91Z"/><path class="cls-2" d="M140.88,34.05a6.41,6.41,0,0,1-2.34-.46,6.94,6.94,0,0,1-2.11-1.32,6.24,6.24,0,0,1-1.51-2,6,6,0,0,1-.57-2.63,6.38,6.38,0,0,1,.52-2.52A6.75,6.75,0,0,1,136.28,23a6.67,6.67,0,0,1,2.07-1.41,6.08,6.08,0,0,1,2.48-.51,6.33,6.33,0,0,1,3.26.86,6.56,6.56,0,0,1,2.34,2.34,6.27,6.27,0,0,1,.87,3.28,6.2,6.2,0,0,1-.56,2.71,6.5,6.5,0,0,1-1.5,2,6.73,6.73,0,0,1-2.08,1.28A6.36,6.36,0,0,1,140.88,34.05Zm0-3.78a2.78,2.78,0,0,0,1.22-.3,2.73,2.73,0,0,0,1-.89,2.54,2.54,0,0,0,.43-1.53,2.77,2.77,0,0,0-.35-1.4,2.48,2.48,0,0,0-1-.94,2.94,2.94,0,0,0-1.41-.34,2.6,2.6,0,0,0-1.34.35,2.82,2.82,0,0,0-.95,1,2.72,2.72,0,0,0-.37,1.39A2.56,2.56,0,0,0,139.6,30,3,3,0,0,0,140.83,30.27Z"/><path class="cls-2" d="M154.13,33.86a16.26,16.26,0,0,1-1.83-.1,3.7,3.7,0,0,1-1.35-.41,2.55,2.55,0,0,1-.9-.83,4,4,0,0,1-.52-1.38,10,10,0,0,1-.18-2.06V17.53a4,4,0,0,1,.1-.93,1.21,1.21,0,0,1,.49-.7,2.37,2.37,0,0,1,1.31-.27,2.24,2.24,0,0,1,1.29.28,1.15,1.15,0,0,1,.49.7,4.4,4.4,0,0,1,.1.92V28.91a4.16,4.16,0,0,0,0,.66.8.8,0,0,0,.15.41.49.49,0,0,0,.31.2,1.9,1.9,0,0,0,.52.05,2.7,2.7,0,0,1,.62.08.9.9,0,0,1,.53.45,2.53,2.53,0,0,1,.23,1.25,2.79,2.79,0,0,1-.23,1.3.89.89,0,0,1-.54.47A2.72,2.72,0,0,1,154.13,33.86Z"/><path class="cls-2" d="M163.35,34.06A6.29,6.29,0,0,1,161,33.6a7.06,7.06,0,0,1-2.11-1.32,6.12,6.12,0,0,1-2.07-4.67,6.16,6.16,0,0,1,.51-2.51A6.88,6.88,0,0,1,158.76,23a6.75,6.75,0,0,1,2.06-1.41,6.13,6.13,0,0,1,2.49-.51,6.24,6.24,0,0,1,3.26.87,6.48,6.48,0,0,1,2.34,2.34,6.69,6.69,0,0,1,.31,6,6.52,6.52,0,0,1-5.87,3.76Zm0-3.77a2.85,2.85,0,0,0,1.23-.3,2.74,2.74,0,0,0,1.05-.9,2.61,2.61,0,0,0,.42-1.53,2.77,2.77,0,0,0-.34-1.4,2.48,2.48,0,0,0-1-.93,2.8,2.8,0,0,0-1.41-.34,2.53,2.53,0,0,0-1.34.35,2.65,2.65,0,0,0-.95,1,2.93,2.93,0,0,0,0,2.9,2.49,2.49,0,0,0,1,.9A2.9,2.9,0,0,0,163.3,30.29Z"/><path class="cls-2" d="M173.68,33.87a2.41,2.41,0,0,1-1.32-.27,1.06,1.06,0,0,1-.47-.71,4.7,4.7,0,0,1-.09-.92V23.24a5.25,5.25,0,0,1,.08-.92,1.09,1.09,0,0,1,.49-.69,2.59,2.59,0,0,1,1.33-.26,2.5,2.5,0,0,1,1.26.24,1.06,1.06,0,0,1,.49.55,2,2,0,0,1,.1.53l-.3.16a2.39,2.39,0,0,1,.26-.37,3.58,3.58,0,0,1,.59-.55,3.53,3.53,0,0,1,2.15-.68l.61,0a4.62,4.62,0,0,1,.7.15,3.32,3.32,0,0,1,.66.3,1.69,1.69,0,0,1,.49.47,1.2,1.2,0,0,1,.19.67,3,3,0,0,1-.48,1.74,1.4,1.4,0,0,1-1.2.71,2.11,2.11,0,0,1-.6-.06,1,1,0,0,1-.29-.15.93.93,0,0,0-.26-.15,1.68,1.68,0,0,0-.55-.06,2.34,2.34,0,0,0-.71.1,1.85,1.85,0,0,0-.63.31,1.45,1.45,0,0,0-.61,1.23V32a4.46,4.46,0,0,1-.09.91,1,1,0,0,1-.49.69A2.58,2.58,0,0,1,173.68,33.87Z"/><path class="cls-2" d="M189.08,34.1a7.3,7.3,0,0,1-3-.57A5.86,5.86,0,0,1,184,32a6.51,6.51,0,0,1-1.2-2.09,7.09,7.09,0,0,1-.4-2.3,6.42,6.42,0,0,1,.86-3.32A6,6,0,0,1,185.62,22a7.11,7.11,0,0,1,3.46-.83,6.18,6.18,0,0,1,2.51.46,5.13,5.13,0,0,1,1.75,1.2,5.22,5.22,0,0,1,1,1.59,4.54,4.54,0,0,1,.34,1.63,2.89,2.89,0,0,1-.67,2.05,2.25,2.25,0,0,1-1.69.67H186.4a1.77,1.77,0,0,0,.47,1.07,2.69,2.69,0,0,0,1,.7,3.5,3.5,0,0,0,1.33.25,7.94,7.94,0,0,0,1-.06,4.3,4.3,0,0,0,.79-.17l.59-.23.49-.19a1.76,1.76,0,0,1,.42-.09,1,1,0,0,1,.68.21,2,2,0,0,1,.57.71,1.65,1.65,0,0,1,.24.53,2.07,2.07,0,0,1,.06.5,1.32,1.32,0,0,1-.61,1.08,4.73,4.73,0,0,1-1.73.74A11.47,11.47,0,0,1,189.08,34.1Zm-2.68-7.4h3.95a1,1,0,0,0,.58-.13.63.63,0,0,0,.2-.54,1.27,1.27,0,0,0-.27-.78,1.76,1.76,0,0,0-.74-.53,2.8,2.8,0,0,0-1.09-.19,3,3,0,0,0-1.35.3,2.38,2.38,0,0,0-.94.8A1.91,1.91,0,0,0,186.4,26.7Z"/><path class="cls-2" d="M207,33.86a2.36,2.36,0,0,1-1.37-.32.91.91,0,0,1-.43-.8l.25-.43a3,3,0,0,1-.57.62,4.34,4.34,0,0,1-1.12.64,4.15,4.15,0,0,1-1.66.29,5,5,0,0,1-2.19-.5A5.85,5.85,0,0,1,198.08,32a7,7,0,0,1-1.28-2,6.16,6.16,0,0,1-.47-2.38,6.07,6.07,0,0,1,.47-2.34,6.85,6.85,0,0,1,1.29-2,6.51,6.51,0,0,1,1.84-1.36,5,5,0,0,1,2.18-.5,4.3,4.3,0,0,1,1.57.26,4.16,4.16,0,0,1,1.09.62,3.43,3.43,0,0,1,.66.67l-.22-.35a1,1,0,0,1,.43-.91,2.44,2.44,0,0,1,1.39-.31,2.34,2.34,0,0,1,1.29.27,1.16,1.16,0,0,1,.48.73,5.8,5.8,0,0,1,.08.95V32a4.73,4.73,0,0,1-.09.93,1.07,1.07,0,0,1-.48.71A2.38,2.38,0,0,1,207,33.86Zm-4.37-3.72a2.21,2.21,0,0,0,1.2-.34A2.56,2.56,0,0,0,205,27.61a2.52,2.52,0,0,0-.32-1.29,2.4,2.4,0,0,0-.88-.88,2.3,2.3,0,0,0-1.22-.33,2.33,2.33,0,0,0-1.26.34,2.53,2.53,0,0,0-1.24,2.21,2.34,2.34,0,0,0,.34,1.24,2.56,2.56,0,0,0,.92.9A2.59,2.59,0,0,0,202.63,30.14Z"/><path class="cls-2" d="M223.27,33.87a5.24,5.24,0,0,1-2.17-.45,5.33,5.33,0,0,1-1.75-1.26,5.69,5.69,0,0,1-1.16-1.93,7,7,0,0,1-.41-2.43V23.27a4.42,4.42,0,0,1,.09-.92,1.08,1.08,0,0,1,.49-.7,2.33,2.33,0,0,1,1.32-.28,2.25,2.25,0,0,1,1.31.28,1.12,1.12,0,0,1,.48.71,4.62,4.62,0,0,1,.09.94v4.5a2.78,2.78,0,0,0,.27,1.26,1.73,1.73,0,0,0,.77.81,2.46,2.46,0,0,0,1.21.28,2.5,2.5,0,0,0,1.24-.29,2,2,0,0,0,.8-.81,2.59,2.59,0,0,0,.29-1.25V23.25a4.59,4.59,0,0,1,.09-.93,1,1,0,0,1,.49-.68,2.45,2.45,0,0,1,1.32-.26,2.35,2.35,0,0,1,1.31.27,1.15,1.15,0,0,1,.48.71,4.63,4.63,0,0,1,.09.92v8.8a4.26,4.26,0,0,1-.09.89,1,1,0,0,1-.48.66,2.65,2.65,0,0,1-1.31.25,2.72,2.72,0,0,1-1.05-.16,1.21,1.21,0,0,1-.55-.37,1.16,1.16,0,0,1-.21-.47,2.48,2.48,0,0,1,0-.45l.32-.28a3.74,3.74,0,0,1-.32.39,6.27,6.27,0,0,1-.67.57,4,4,0,0,1-1,.54A3.37,3.37,0,0,1,223.27,33.87Z"/><path class="cls-2" d="M234.27,33.88a2.5,2.5,0,0,1-1.31-.26,1.08,1.08,0,0,1-.47-.7,4.56,4.56,0,0,1-.09-.92V23.2a4.88,4.88,0,0,1,.08-.88,1,1,0,0,1,.49-.67,2.71,2.71,0,0,1,1.33-.25,2.6,2.6,0,0,1,1.17.22,1,1,0,0,1,.49.51,1.73,1.73,0,0,1,.11.56,1,1,0,0,0,0,.37l-.15.47a1.43,1.43,0,0,1,.39-.76,3.53,3.53,0,0,1,.85-.7,4.73,4.73,0,0,1,1.1-.49,4.29,4.29,0,0,1,1.16-.17,5.05,5.05,0,0,1,2.14.44,4.41,4.41,0,0,1,1.59,1.26,5.81,5.81,0,0,1,1,1.94,8.18,8.18,0,0,1,.34,2.44V32a4.53,4.53,0,0,1-.09.91,1.06,1.06,0,0,1-.48.69,2.66,2.66,0,0,1-1.33.25,2.47,2.47,0,0,1-1.33-.27,1.06,1.06,0,0,1-.49-.7,4.47,4.47,0,0,1-.08-.91V27.48a2.87,2.87,0,0,0-.26-1.27,1.88,1.88,0,0,0-.75-.8,2.39,2.39,0,0,0-1.22-.28,2.59,2.59,0,0,0-1.25.29,2,2,0,0,0-.81.81,2.59,2.59,0,0,0-.29,1.25V32a4.46,4.46,0,0,1-.09.91,1,1,0,0,1-.47.69A2.53,2.53,0,0,1,234.27,33.88Z"/><path class="cls-2" d="M259.67,34a6.63,6.63,0,0,1-2.23-.41,7,7,0,0,1-2.1-1.22,5.8,5.8,0,0,1-1.54-2,6.32,6.32,0,0,1-.57-2.75,5.9,5.9,0,0,1,2.1-4.7,7,7,0,0,1,2.09-1.21,6.61,6.61,0,0,1,2.21-.41,6,6,0,0,1,1.66.21,5.67,5.67,0,0,1,1.25.52,3.91,3.91,0,0,1,.74.52c.28.22.53.44.75.65a1.05,1.05,0,0,1,.3.85,1.64,1.64,0,0,1-.18.57,4.29,4.29,0,0,1-.37.58c-.52.7-1,1-1.5,1a2.27,2.27,0,0,1-.69-.25c-.21-.11-.41-.23-.6-.35a3.88,3.88,0,0,0-.61-.31,2,2,0,0,0-.75-.14,2.53,2.53,0,0,0-2.21,1.24,2.44,2.44,0,0,0-.34,1.31,2.47,2.47,0,0,0,.34,1.3,2.51,2.51,0,0,0,.89.91,2.39,2.39,0,0,0,1.27.34,2.32,2.32,0,0,0,.72-.1,2.59,2.59,0,0,0,.55-.24l.35-.21.58-.36a1,1,0,0,1,.55-.16,1.19,1.19,0,0,1,.73.26,4.1,4.1,0,0,1,.82.84,2,2,0,0,1,.48,1,1.26,1.26,0,0,1-.21.87,2.79,2.79,0,0,1-.85.76,5.06,5.06,0,0,1-.71.45,7.21,7.21,0,0,1-1.25.5A5.77,5.77,0,0,1,259.67,34Z"/><path class="cls-2" d="M267.43,20.52a.83.83,0,0,1-.74-.25,2.63,2.63,0,0,1-.51-1,2.11,2.11,0,0,1-.1-1.3,1.43,1.43,0,0,1,.93-.67l4.4-1.35a.9.9,0,0,1,.72.29,2.4,2.4,0,0,1,.5,1,1.81,1.81,0,0,1,.09,1.27,1.35,1.35,0,0,1-.91.68Zm1,13.41a2.35,2.35,0,0,1-1.31-.27,1.07,1.07,0,0,1-.48-.7,4.46,4.46,0,0,1-.09-.91V23.32a4.53,4.53,0,0,1,.09-.91,1.08,1.08,0,0,1,.49-.7,2.52,2.52,0,0,1,1.32-.26,2.24,2.24,0,0,1,1.29.28,1.1,1.1,0,0,1,.47.71,4.62,4.62,0,0,1,.09.94v8.7a4.53,4.53,0,0,1-.08.91,1.06,1.06,0,0,1-.48.69A2.6,2.6,0,0,1,268.4,33.93Z"/><path class="cls-2" d="M274.62,33.93a2.5,2.5,0,0,1-1.31-.26,1.1,1.1,0,0,1-.47-.72,4.63,4.63,0,0,1-.09-.92V23.3a4.42,4.42,0,0,1,.09-.92,1.08,1.08,0,0,1,.49-.69,2.59,2.59,0,0,1,1.33-.26,2.5,2.5,0,0,1,1.26.24,1.06,1.06,0,0,1,.49.55,2,2,0,0,1,.1.54l-.3.15a2.39,2.39,0,0,1,.26-.37,3.58,3.58,0,0,1,.59-.55,3.53,3.53,0,0,1,2.15-.68,4.66,4.66,0,0,1,.61,0,3.14,3.14,0,0,1,.7.15,2.47,2.47,0,0,1,.66.3,1.54,1.54,0,0,1,.49.46,1.2,1.2,0,0,1,.19.67,3,3,0,0,1-.48,1.74,1.4,1.4,0,0,1-1.2.71,2.11,2.11,0,0,1-.6-.06,1,1,0,0,1-.29-.15A.93.93,0,0,0,279,25a1.68,1.68,0,0,0-.55-.06,2.34,2.34,0,0,0-.71.1,1.85,1.85,0,0,0-.63.31,1.45,1.45,0,0,0-.61,1.23v5.48a4.47,4.47,0,0,1-.08.91,1.07,1.07,0,0,1-.49.69A2.6,2.6,0,0,1,274.62,33.93Z"/><path class="cls-2" d="M290,34a6.42,6.42,0,0,1-2.24-.42,6.92,6.92,0,0,1-2.1-1.21,5.77,5.77,0,0,1-1.53-2,6.76,6.76,0,0,1,0-5.48,5.85,5.85,0,0,1,1.53-2,6.71,6.71,0,0,1,2.08-1.21,6.38,6.38,0,0,1,2.22-.41,6.08,6.08,0,0,1,1.66.21,5.41,5.41,0,0,1,1.25.51,4.37,4.37,0,0,1,.74.53,7,7,0,0,1,.74.65,1.05,1.05,0,0,1,.3.85,1.38,1.38,0,0,1-.17.56,3.91,3.91,0,0,1-.38.59c-.51.7-1,1-1.5,1a2.12,2.12,0,0,1-.68-.25l-.6-.35a4.48,4.48,0,0,0-.62-.31,1.73,1.73,0,0,0-.75-.14,2.59,2.59,0,0,0-1.3.33,2.7,2.7,0,0,0-.91.9,2.59,2.59,0,0,0-.34,1.32,2.5,2.5,0,0,0,.34,1.3,2.46,2.46,0,0,0,.9.91,2.33,2.33,0,0,0,1.26.34,2.39,2.39,0,0,0,.73-.1,2.83,2.83,0,0,0,.55-.24l.35-.21.57-.36a1.08,1.08,0,0,1,.55-.16,1.21,1.21,0,0,1,.74.26,4.1,4.1,0,0,1,.81.84,2.07,2.07,0,0,1,.49,1,1.18,1.18,0,0,1-.22.86,2.58,2.58,0,0,1-.85.77,4.39,4.39,0,0,1-.71.44,6.49,6.49,0,0,1-1.25.5A5.64,5.64,0,0,1,290,34Z"/><path class="cls-2" d="M302.32,33.92a5.2,5.2,0,0,1-2.17-.45,5.33,5.33,0,0,1-1.75-1.26,5.78,5.78,0,0,1-1.16-1.93,6.83,6.83,0,0,1-.41-2.44V23.32a4.52,4.52,0,0,1,.09-.93,1.13,1.13,0,0,1,.49-.7,2.41,2.41,0,0,1,1.32-.27,2.37,2.37,0,0,1,1.31.27,1.17,1.17,0,0,1,.48.72,4.64,4.64,0,0,1,.08.94v4.5a2.92,2.92,0,0,0,.26,1.26,1.8,1.8,0,0,0,.78.81,2.78,2.78,0,0,0,2.45,0,2,2,0,0,0,.8-.81,2.59,2.59,0,0,0,.29-1.25V23.3a4.52,4.52,0,0,1,.09-.93,1.08,1.08,0,0,1,.49-.69,2.52,2.52,0,0,1,1.32-.26,2.36,2.36,0,0,1,1.31.28,1.12,1.12,0,0,1,.48.71,4.53,4.53,0,0,1,.08.91v8.8a4.13,4.13,0,0,1-.09.89,1,1,0,0,1-.49.66,2.5,2.5,0,0,1-1.3.25,2.92,2.92,0,0,1-1.05-.15,1.3,1.3,0,0,1-.55-.37,1.14,1.14,0,0,1-.21-.48,3.75,3.75,0,0,1,0-.45l.33-.27a2.55,2.55,0,0,1-.33.38,4.51,4.51,0,0,1-.66.58,4.21,4.21,0,0,1-1,.54A3.37,3.37,0,0,1,302.32,33.92Z"/><path class="cls-2" d="M316.25,34a14.3,14.3,0,0,1-1.83-.1,3.7,3.7,0,0,1-1.35-.4,2.58,2.58,0,0,1-.9-.84,4,4,0,0,1-.52-1.37,10.11,10.11,0,0,1-.17-2.06V17.63a4.42,4.42,0,0,1,.1-.93,1.18,1.18,0,0,1,.49-.7,2.39,2.39,0,0,1,1.31-.27,2.34,2.34,0,0,1,1.29.27,1.21,1.21,0,0,1,.49.7,4.57,4.57,0,0,1,.1.93V29a4.22,4.22,0,0,0,0,.67.8.8,0,0,0,.15.41.51.51,0,0,0,.31.2,2.44,2.44,0,0,0,.53,0,2.66,2.66,0,0,1,.61.07.85.85,0,0,1,.53.45,2.56,2.56,0,0,1,.23,1.25,2.73,2.73,0,0,1-.23,1.3.89.89,0,0,1-.53.48A2.79,2.79,0,0,1,316.25,34Z"/><path class="cls-2" d="M325.47,34.16a6.4,6.4,0,0,1-2.33-.46A7.11,7.11,0,0,1,321,32.38a6.42,6.42,0,0,1-1.51-2,6.41,6.41,0,0,1,0-5.15,6.78,6.78,0,0,1,3.47-3.47,6.16,6.16,0,0,1,2.49-.51,6.33,6.33,0,0,1,3.26.86A6.56,6.56,0,0,1,331,24.41a6.71,6.71,0,0,1,.31,6,6.5,6.5,0,0,1-3.58,3.32A6.38,6.38,0,0,1,325.47,34.16Zm-.05-3.78a2.8,2.8,0,0,0,1.23-.29,2.67,2.67,0,0,0,1.05-.9,2.61,2.61,0,0,0,.43-1.53,2.77,2.77,0,0,0-.35-1.4,2.62,2.62,0,0,0-1-.94A3,3,0,0,0,325.4,25a2.56,2.56,0,0,0-1.33.35,2.68,2.68,0,0,0-.95,1,2.57,2.57,0,0,0-.37,1.38,2.71,2.71,0,0,0,.41,1.52,2.64,2.64,0,0,0,1,.9A3,3,0,0,0,325.42,30.38Z"/><path class="cls-4" d="M67.88,38.85a4.22,4.22,0,0,1-3.5-1.36c-.73-.91-1.1-2.5-1.09-4.77H55.75a5.28,5.28,0,0,1-3.93-1.3,4.57,4.57,0,0,1-1.28-3.36,7.2,7.2,0,0,1,1.1-3.95Q54.54,19.45,58.17,14A6.64,6.64,0,0,1,64,10.84l3.54,0c2,0,3.33.34,4,1a4.87,4.87,0,0,1,1.06,3.59V26.59a3.64,3.64,0,0,1,2.4.88,3.28,3.28,0,0,1,.65,2.27,2.84,2.84,0,0,1-.69,2.2,4.07,4.07,0,0,1-2.36.74c0,2.21-.4,3.79-1.19,4.74A4.32,4.32,0,0,1,67.88,38.85ZM63.25,26.76l.13-9-5.47,9Z"/><path class="cls-4" d="M78.24,36a2.75,2.75,0,0,1,1.16-2.31,5.38,5.38,0,0,1,3.28-.88c3,0,4.44,1.07,4.44,3.19a3.11,3.11,0,0,1-.58,2,2.7,2.7,0,0,1-1.5,1,9.25,9.25,0,0,1-2.37.26,6.12,6.12,0,0,1-3.17-.76A2.58,2.58,0,0,1,78.24,36Z"/><path class="cls-4" d="M99.34,32.55c0,2.27-.4,3.89-1.18,4.85a4.36,4.36,0,0,1-3.59,1.45,5.7,5.7,0,0,1-2.57-.5,3.29,3.29,0,0,1-1.48-1.85A11.09,11.09,0,0,1,90,32.89L89.9,17.22a6.37,6.37,0,0,1-3.22-.73A2.62,2.62,0,0,1,85.42,14a2.77,2.77,0,0,1,1.17-2.29,5.16,5.16,0,0,1,3.24-.9c.54,0,1.31,0,2.3,0l2.1,0c2,0,3.36.34,4,1a5,5,0,0,1,1,3.59Z"/><path class="cls-5" d="M67.88,38.85a4.22,4.22,0,0,1-3.5-1.36c-.73-.91-1.1-2.5-1.09-4.77H55.75a5.28,5.28,0,0,1-3.93-1.3,4.57,4.57,0,0,1-1.28-3.36,7.2,7.2,0,0,1,1.1-3.95Q54.54,19.45,58.17,14A6.64,6.64,0,0,1,64,10.84l3.54,0c2,0,3.33.34,4,1a4.87,4.87,0,0,1,1.06,3.59V26.59a3.64,3.64,0,0,1,2.4.88,3.28,3.28,0,0,1,.65,2.27,2.84,2.84,0,0,1-.69,2.2,4.07,4.07,0,0,1-2.36.74c0,2.21-.4,3.79-1.19,4.74A4.32,4.32,0,0,1,67.88,38.85ZM63.25,26.76l.13-9-5.47,9Z"/><path class="cls-5" d="M78.24,36a2.75,2.75,0,0,1,1.16-2.31,5.38,5.38,0,0,1,3.28-.88c3,0,4.44,1.07,4.44,3.19a3.11,3.11,0,0,1-.58,2,2.7,2.7,0,0,1-1.5,1,9.25,9.25,0,0,1-2.37.26,6.12,6.12,0,0,1-3.17-.76A2.58,2.58,0,0,1,78.24,36Z"/><path class="cls-5" d="M99.34,32.55c0,2.27-.4,3.89-1.18,4.85a4.36,4.36,0,0,1-3.59,1.45,5.7,5.7,0,0,1-2.57-.5,3.29,3.29,0,0,1-1.48-1.85A11.09,11.09,0,0,1,90,32.89L89.9,17.22a6.37,6.37,0,0,1-3.22-.73A2.62,2.62,0,0,1,85.42,14a2.77,2.77,0,0,1,1.17-2.29,5.16,5.16,0,0,1,3.24-.9c.54,0,1.31,0,2.3,0l2.1,0c2,0,3.36.34,4,1a5,5,0,0,1,1,3.59Z"/></g></g></svg>