<svg xmlns="http://www.w3.org/2000/svg" viewBox="0 0 399.98 90.74"><defs><style>.cls-1{fill:#03826e;}.cls-2{fill:#fff;}.cls-3,.cls-4{fill:none;stroke-width:5px;}.cls-3{stroke:#b6ba01;stroke-linejoin:round;}.cls-4{stroke:#fff;}.cls-5{fill:#b6ba01;}</style></defs><title>42t</title><g id="Layer_2" data-name="Layer 2"><g id="pestaña_identificativa" data-name="pestaña identificativa"><rect class="cls-1" width="399.98" height="90.74" rx="32.4"/><path class="cls-2" d="M129.3,32.09a8.41,8.41,0,0,1-3.38-.69,8.8,8.8,0,0,1-2.79-1.9,8.91,8.91,0,0,1-1.87-2.81,8.82,8.82,0,0,1-.68-3.46,9.58,9.58,0,0,1,.67-3.52,9.11,9.11,0,0,1,1.83-2.89,8.39,8.39,0,0,1,2.71-1.93,7.85,7.85,0,0,1,3.3-.7,8.45,8.45,0,0,1,3.41.69,8.79,8.79,0,0,1,2.78,1.91,9.32,9.32,0,0,1,1.87,9.83,9.3,9.3,0,0,1-1.84,2.86,8.32,8.32,0,0,1-2.72,1.92A7.92,7.92,0,0,1,129.3,32.09Zm-.12-3.8a4.44,4.44,0,0,0,1.88-.4,5,5,0,0,0,1.54-1.09,4.75,4.75,0,0,0,1-1.62,5.6,5.6,0,0,0,.36-2,5.32,5.32,0,0,0-.37-2,5.18,5.18,0,0,0-1-1.66,4.81,4.81,0,0,0-1.52-1.1,4.58,4.58,0,0,0-3.7,0,4.85,4.85,0,0,0-1.53,1.1,5.53,5.53,0,0,0-1,1.65,5.37,5.37,0,0,0-.39,2,5.15,5.15,0,0,0,.39,2,5.36,5.36,0,0,0,1,1.64,5.14,5.14,0,0,0,1.52,1.1A4.29,4.29,0,0,0,129.18,28.29Z"/><path class="cls-2" d="M141.63,31.82a2.48,2.48,0,0,1-1.31-.26,1.1,1.1,0,0,1-.48-.7,4.53,4.53,0,0,1-.08-.91v-8.8a4.13,4.13,0,0,1,.09-.89,1,1,0,0,1,.49-.66,3.52,3.52,0,0,1,2.5,0,1,1,0,0,1,.48.51,1.54,1.54,0,0,1,.12.57.8.8,0,0,0,.05.36l-.15.47a1.48,1.48,0,0,1,.38-.76,3.74,3.74,0,0,1,.85-.7,4.93,4.93,0,0,1,1.1-.49,4.36,4.36,0,0,1,1.17-.17,5,5,0,0,1,2.13.44,4.24,4.24,0,0,1,1.59,1.26,6,6,0,0,1,1,1.94,8.57,8.57,0,0,1,.33,2.44V30a4.46,4.46,0,0,1-.09.91,1,1,0,0,1-.47.69,2.7,2.7,0,0,1-1.34.25,2.47,2.47,0,0,1-1.33-.27,1.05,1.05,0,0,1-.48-.7,4.46,4.46,0,0,1-.09-.91V25.43a2.78,2.78,0,0,0-.26-1.28,1.76,1.76,0,0,0-.75-.8,2.46,2.46,0,0,0-1.21-.27,2.59,2.59,0,0,0-1.25.28,2,2,0,0,0-.81.81,2.59,2.59,0,0,0-.29,1.25V30a4.63,4.63,0,0,1-.09.92,1,1,0,0,1-.48.68A2.49,2.49,0,0,1,141.63,31.82Z"/><path class="cls-2" d="M159.68,31.83a5,5,0,0,1-2.18-.49A5.83,5.83,0,0,1,155.68,30a6.7,6.7,0,0,1-1.26-2,6.35,6.35,0,0,1-.46-2.42,6,6,0,0,1,.46-2.33,6.67,6.67,0,0,1,1.28-2,6.24,6.24,0,0,1,1.84-1.36,4.88,4.88,0,0,1,2.15-.5,4.47,4.47,0,0,1,2.11.49,4.35,4.35,0,0,1,1.52,1.34,6.48,6.48,0,0,1,.94,2,9.08,9.08,0,0,1,.35,2.35,9.28,9.28,0,0,1-.3,2.4,6.12,6.12,0,0,1-.93,2,4.66,4.66,0,0,1-1.55,1.38A4.38,4.38,0,0,1,159.68,31.83Zm.5-3.7a2.24,2.24,0,0,0,1.21-.33,2.68,2.68,0,0,0,.88-.92,2.49,2.49,0,0,0,.34-1.27,2.42,2.42,0,0,0-.33-1.26,2.35,2.35,0,0,0-.87-.9,2.3,2.3,0,0,0-1.25-.34,2.52,2.52,0,0,0-1.24.32,2.35,2.35,0,0,0-.87.9,2.64,2.64,0,0,0-.32,1.28,2.51,2.51,0,0,0,.33,1.27,2.34,2.34,0,0,0,.9.92A2.4,2.4,0,0,0,160.18,28.13Zm4.35,3.73a2.31,2.31,0,0,1-1.26-.27,1.3,1.3,0,0,1-.54-.85V15.59a6.77,6.77,0,0,1,.06-.92,1,1,0,0,1,.44-.71,2.28,2.28,0,0,1,1.28-.27,2.38,2.38,0,0,1,1.32.26,1.13,1.13,0,0,1,.48.69,4.42,4.42,0,0,1,.09.92V30a4.46,4.46,0,0,1-.09.91,1.14,1.14,0,0,1-.48.72A2.37,2.37,0,0,1,164.53,31.86Z"/><path class="cls-2" d="M179.13,31.84a2.34,2.34,0,0,1-1.38-.32.89.89,0,0,1-.42-.8l.25-.43a2.59,2.59,0,0,1-.58.62,4.39,4.39,0,0,1-1.11.65,4.34,4.34,0,0,1-1.66.28,5,5,0,0,1-2.19-.5A6,6,0,0,1,170.2,30a7.21,7.21,0,0,1-1.27-2,6.13,6.13,0,0,1,0-4.71,6.9,6.9,0,0,1,1.29-2,6.51,6.51,0,0,1,1.84-1.36,4.94,4.94,0,0,1,2.18-.5,4.09,4.09,0,0,1,1.57.27,4.32,4.32,0,0,1,1.09.61,3.43,3.43,0,0,1,.66.67l-.22-.35a1,1,0,0,1,.43-.91,2.44,2.44,0,0,1,1.39-.31,2.24,2.24,0,0,1,1.29.28,1.1,1.1,0,0,1,.47.72,4.86,4.86,0,0,1,.09.95V30a4.7,4.7,0,0,1-.09.92,1.07,1.07,0,0,1-.48.71A2.3,2.3,0,0,1,179.13,31.84Zm-4.37-3.72a2.21,2.21,0,0,0,1.2-.34,2.57,2.57,0,0,0,.85-.91,2.61,2.61,0,0,0,.32-1.28,2.56,2.56,0,0,0-.32-1.28,2.35,2.35,0,0,0-.88-.89,2.3,2.3,0,0,0-1.22-.33,2.33,2.33,0,0,0-1.26.34,2.53,2.53,0,0,0-1.24,2.21,2.42,2.42,0,0,0,.33,1.24,2.67,2.67,0,0,0,.93.9A2.59,2.59,0,0,0,174.76,28.12Z"/><path class="cls-3" d="M129.3,32.09a8.41,8.41,0,0,1-3.38-.69,8.8,8.8,0,0,1-2.79-1.9,8.91,8.91,0,0,1-1.87-2.81,8.82,8.82,0,0,1-.68-3.46,9.58,9.58,0,0,1,.67-3.52,9.11,9.11,0,0,1,1.83-2.89,8.39,8.39,0,0,1,2.71-1.93,7.85,7.85,0,0,1,3.3-.7,8.45,8.45,0,0,1,3.41.69,8.79,8.79,0,0,1,2.78,1.91,9.32,9.32,0,0,1,1.87,9.83,9.3,9.3,0,0,1-1.84,2.86,8.32,8.32,0,0,1-2.72,1.92A7.92,7.92,0,0,1,129.3,32.09Zm-.12-3.8a4.44,4.44,0,0,0,1.88-.4,5,5,0,0,0,1.54-1.09,4.75,4.75,0,0,0,1-1.62,5.6,5.6,0,0,0,.36-2,5.32,5.32,0,0,0-.37-2,5.18,5.18,0,0,0-1-1.66,4.81,4.81,0,0,0-1.52-1.1,4.58,4.58,0,0,0-3.7,0,4.85,4.85,0,0,0-1.53,1.1,5.53,5.53,0,0,0-1,1.65,5.37,5.37,0,0,0-.39,2,5.15,5.15,0,0,0,.39,2,5.36,5.36,0,0,0,1,1.64,5.14,5.14,0,0,0,1.52,1.1A4.29,4.29,0,0,0,129.18,28.29Z"/><path class="cls-3" d="M141.63,31.82a2.48,2.48,0,0,1-1.31-.26,1.1,1.1,0,0,1-.48-.7,4.53,4.53,0,0,1-.08-.91v-8.8a4.13,4.13,0,0,1,.09-.89,1,1,0,0,1,.49-.66,3.52,3.52,0,0,1,2.5,0,1,1,0,0,1,.48.51,1.54,1.54,0,0,1,.12.57.8.8,0,0,0,.05.36l-.15.47a1.48,1.48,0,0,1,.38-.76,3.74,3.74,0,0,1,.85-.7,4.93,4.93,0,0,1,1.1-.49,4.36,4.36,0,0,1,1.17-.17,5,5,0,0,1,2.13.44,4.24,4.24,0,0,1,1.59,1.26,6,6,0,0,1,1,1.94,8.57,8.57,0,0,1,.33,2.44V30a4.46,4.46,0,0,1-.09.91,1,1,0,0,1-.47.69,2.7,2.7,0,0,1-1.34.25,2.47,2.47,0,0,1-1.33-.27,1.05,1.05,0,0,1-.48-.7,4.46,4.46,0,0,1-.09-.91V25.43a2.78,2.78,0,0,0-.26-1.28,1.76,1.76,0,0,0-.75-.8,2.46,2.46,0,0,0-1.21-.27,2.59,2.59,0,0,0-1.25.28,2,2,0,0,0-.81.81,2.59,2.59,0,0,0-.29,1.25V30a4.63,4.63,0,0,1-.09.92,1,1,0,0,1-.48.68A2.49,2.49,0,0,1,141.63,31.82Z"/><path class="cls-3" d="M159.68,31.83a5,5,0,0,1-2.18-.49A5.83,5.83,0,0,1,155.68,30a6.7,6.7,0,0,1-1.26-2,6.35,6.35,0,0,1-.46-2.42,6,6,0,0,1,.46-2.33,6.67,6.67,0,0,1,1.28-2,6.24,6.24,0,0,1,1.84-1.36,4.88,4.88,0,0,1,2.15-.5,4.47,4.47,0,0,1,2.11.49,4.35,4.35,0,0,1,1.52,1.34,6.48,6.48,0,0,1,.94,2,9.08,9.08,0,0,1,.35,2.35,9.28,9.28,0,0,1-.3,2.4,6.12,6.12,0,0,1-.93,2,4.66,4.66,0,0,1-1.55,1.38A4.38,4.38,0,0,1,159.68,31.83Zm.5-3.7a2.24,2.24,0,0,0,1.21-.33,2.68,2.68,0,0,0,.88-.92,2.49,2.49,0,0,0,.34-1.27,2.42,2.42,0,0,0-.33-1.26,2.35,2.35,0,0,0-.87-.9,2.3,2.3,0,0,0-1.25-.34,2.52,2.52,0,0,0-1.24.32,2.35,2.35,0,0,0-.87.9,2.64,2.64,0,0,0-.32,1.28,2.51,2.51,0,0,0,.33,1.27,2.34,2.34,0,0,0,.9.92A2.4,2.4,0,0,0,160.18,28.13Zm4.35,3.73a2.31,2.31,0,0,1-1.26-.27,1.3,1.3,0,0,1-.54-.85V15.59a6.77,6.77,0,0,1,.06-.92,1,1,0,0,1,.44-.71,2.28,2.28,0,0,1,1.28-.27,2.38,2.38,0,0,1,1.32.26,1.13,1.13,0,0,1,.48.69,4.42,4.42,0,0,1,.09.92V30a4.46,4.46,0,0,1-.09.91,1.14,1.14,0,0,1-.48.72A2.37,2.37,0,0,1,164.53,31.86Z"/><path class="cls-3" d="M179.13,31.84a2.34,2.34,0,0,1-1.38-.32.89.89,0,0,1-.42-.8l.25-.43a2.59,2.59,0,0,1-.58.62,4.39,4.39,0,0,1-1.11.65,4.34,4.34,0,0,1-1.66.28,5,5,0,0,1-2.19-.5A6,6,0,0,1,170.2,30a7.21,7.21,0,0,1-1.27-2,6.13,6.13,0,0,1,0-4.71,6.9,6.9,0,0,1,1.29-2,6.51,6.51,0,0,1,1.84-1.36,4.94,4.94,0,0,1,2.18-.5,4.09,4.09,0,0,1,1.57.27,4.32,4.32,0,0,1,1.09.61,3.43,3.43,0,0,1,.66.67l-.22-.35a1,1,0,0,1,.43-.91,2.44,2.44,0,0,1,1.39-.31,2.24,2.24,0,0,1,1.29.28,1.1,1.1,0,0,1,.47.72,4.86,4.86,0,0,1,.09.95V30a4.7,4.7,0,0,1-.09.92,1.07,1.07,0,0,1-.48.71A2.3,2.3,0,0,1,179.13,31.84Zm-4.37-3.72a2.21,2.21,0,0,0,1.2-.34,2.57,2.57,0,0,0,.85-.91,2.61,2.61,0,0,0,.32-1.28,2.56,2.56,0,0,0-.32-1.28,2.35,2.35,0,0,0-.88-.89,2.3,2.3,0,0,0-1.22-.33,2.33,2.33,0,0,0-1.26.34,2.53,2.53,0,0,0-1.24,2.21,2.42,2.42,0,0,0,.33,1.24,2.67,2.67,0,0,0,.93.9A2.59,2.59,0,0,0,174.76,28.12Z"/><path class="cls-2" d="M129.3,32.09a8.41,8.41,0,0,1-3.38-.69,8.8,8.8,0,0,1-2.79-1.9,8.91,8.91,0,0,1-1.87-2.81,8.82,8.82,0,0,1-.68-3.46,9.58,9.58,0,0,1,.67-3.52,9.11,9.11,0,0,1,1.83-2.89,8.39,8.39,0,0,1,2.71-1.93,7.85,7.85,0,0,1,3.3-.7,8.45,8.45,0,0,1,3.41.69,8.79,8.79,0,0,1,2.78,1.91,9.32,9.32,0,0,1,1.87,9.83,9.3,9.3,0,0,1-1.84,2.86,8.32,8.32,0,0,1-2.72,1.92A7.92,7.92,0,0,1,129.3,32.09Zm-.12-3.8a4.44,4.44,0,0,0,1.88-.4,5,5,0,0,0,1.54-1.09,4.75,4.75,0,0,0,1-1.62,5.6,5.6,0,0,0,.36-2,5.32,5.32,0,0,0-.37-2,5.18,5.18,0,0,0-1-1.66,4.81,4.81,0,0,0-1.52-1.1,4.58,4.58,0,0,0-3.7,0,4.85,4.85,0,0,0-1.53,1.1,5.53,5.53,0,0,0-1,1.65,5.37,5.37,0,0,0-.39,2,5.15,5.15,0,0,0,.39,2,5.36,5.36,0,0,0,1,1.64,5.14,5.14,0,0,0,1.52,1.1A4.29,4.29,0,0,0,129.18,28.29Z"/><path class="cls-2" d="M141.63,31.82a2.48,2.48,0,0,1-1.31-.26,1.1,1.1,0,0,1-.48-.7,4.53,4.53,0,0,1-.08-.91v-8.8a4.13,4.13,0,0,1,.09-.89,1,1,0,0,1,.49-.66,3.52,3.52,0,0,1,2.5,0,1,1,0,0,1,.48.51,1.54,1.54,0,0,1,.12.57.8.8,0,0,0,.05.36l-.15.47a1.48,1.48,0,0,1,.38-.76,3.74,3.74,0,0,1,.85-.7,4.93,4.93,0,0,1,1.1-.49,4.36,4.36,0,0,1,1.17-.17,5,5,0,0,1,2.13.44,4.24,4.24,0,0,1,1.59,1.26,6,6,0,0,1,1,1.94,8.57,8.57,0,0,1,.33,2.44V30a4.46,4.46,0,0,1-.09.91,1,1,0,0,1-.47.69,2.7,2.7,0,0,1-1.34.25,2.47,2.47,0,0,1-1.33-.27,1.05,1.05,0,0,1-.48-.7,4.46,4.46,0,0,1-.09-.91V25.43a2.78,2.78,0,0,0-.26-1.28,1.76,1.76,0,0,0-.75-.8,2.46,2.46,0,0,0-1.21-.27,2.59,2.59,0,0,0-1.25.28,2,2,0,0,0-.81.81,2.59,2.59,0,0,0-.29,1.25V30a4.63,4.63,0,0,1-.09.92,1,1,0,0,1-.48.68A2.49,2.49,0,0,1,141.63,31.82Z"/><path class="cls-2" d="M159.68,31.83a5,5,0,0,1-2.18-.49A5.83,5.83,0,0,1,155.68,30a6.7,6.7,0,0,1-1.26-2,6.35,6.35,0,0,1-.46-2.42,6,6,0,0,1,.46-2.33,6.67,6.67,0,0,1,1.28-2,6.24,6.24,0,0,1,1.84-1.36,4.88,4.88,0,0,1,2.15-.5,4.47,4.47,0,0,1,2.11.49,4.35,4.35,0,0,1,1.52,1.34,6.48,6.48,0,0,1,.94,2,9.08,9.08,0,0,1,.35,2.35,9.28,9.28,0,0,1-.3,2.4,6.12,6.12,0,0,1-.93,2,4.66,4.66,0,0,1-1.55,1.38A4.38,4.38,0,0,1,159.68,31.83Zm.5-3.7a2.24,2.24,0,0,0,1.21-.33,2.68,2.68,0,0,0,.88-.92,2.49,2.49,0,0,0,.34-1.27,2.42,2.42,0,0,0-.33-1.26,2.35,2.35,0,0,0-.87-.9,2.3,2.3,0,0,0-1.25-.34,2.52,2.52,0,0,0-1.24.32,2.35,2.35,0,0,0-.87.9,2.64,2.64,0,0,0-.32,1.28,2.51,2.51,0,0,0,.33,1.27,2.34,2.34,0,0,0,.9.92A2.4,2.4,0,0,0,160.18,28.13Zm4.35,3.73a2.31,2.31,0,0,1-1.26-.27,1.3,1.3,0,0,1-.54-.85V15.59a6.77,6.77,0,0,1,.06-.92,1,1,0,0,1,.44-.71,2.28,2.28,0,0,1,1.28-.27,2.38,2.38,0,0,1,1.32.26,1.13,1.13,0,0,1,.48.69,4.42,4.42,0,0,1,.09.92V30a4.46,4.46,0,0,1-.09.91,1.14,1.14,0,0,1-.48.72A2.37,2.37,0,0,1,164.53,31.86Z"/><path class="cls-2" d="M179.13,31.84a2.34,2.34,0,0,1-1.38-.32.89.89,0,0,1-.42-.8l.25-.43a2.59,2.59,0,0,1-.58.62,4.39,4.39,0,0,1-1.11.65,4.34,4.34,0,0,1-1.66.28,5,5,0,0,1-2.19-.5A6,6,0,0,1,170.2,30a7.21,7.21,0,0,1-1.27-2,6.13,6.13,0,0,1,0-4.71,6.9,6.9,0,0,1,1.29-2,6.51,6.51,0,0,1,1.84-1.36,4.94,4.94,0,0,1,2.18-.5,4.09,4.09,0,0,1,1.57.27,4.32,4.32,0,0,1,1.09.61,3.43,3.43,0,0,1,.66.67l-.22-.35a1,1,0,0,1,.43-.91,2.44,2.44,0,0,1,1.39-.31,2.24,2.24,0,0,1,1.29.28,1.1,1.1,0,0,1,.47.72,4.86,4.86,0,0,1,.09.95V30a4.7,4.7,0,0,1-.09.92,1.07,1.07,0,0,1-.48.71A2.3,2.3,0,0,1,179.13,31.84Zm-4.37-3.72a2.21,2.21,0,0,0,1.2-.34,2.57,2.57,0,0,0,.85-.91,2.61,2.61,0,0,0,.32-1.28,2.56,2.56,0,0,0-.32-1.28,2.35,2.35,0,0,0-.88-.89,2.3,2.3,0,0,0-1.22-.33,2.33,2.33,0,0,0-1.26.34,2.53,2.53,0,0,0-1.24,2.21,2.42,2.42,0,0,0,.33,1.24,2.67,2.67,0,0,0,.93.9A2.59,2.59,0,0,0,174.76,28.12Z"/><path class="cls-4" d="M58.88,38.85a4.22,4.22,0,0,1-3.5-1.36c-.74-.91-1.1-2.5-1.1-4.77H46.74a5.31,5.31,0,0,1-3.93-1.3,4.61,4.61,0,0,1-1.28-3.36,7.12,7.12,0,0,1,1.11-3.95Q45.54,19.45,49.16,14A6.65,6.65,0,0,1,55,10.84l3.55,0c2,0,3.32.34,4,1a4.92,4.92,0,0,1,1.06,3.59V26.59a3.66,3.66,0,0,1,2.4.88,3.33,3.33,0,0,1,.65,2.27,2.8,2.8,0,0,1-.7,2.2,4,4,0,0,1-2.36.74c0,2.21-.4,3.79-1.18,4.74A4.33,4.33,0,0,1,58.88,38.85Zm-4.63-12.1.13-8.94-5.47,8.94Z"/><path class="cls-4" d="M69.23,36a2.78,2.78,0,0,1,1.16-2.31,5.4,5.4,0,0,1,3.28-.88c3,0,4.44,1.07,4.44,3.19a3.11,3.11,0,0,1-.57,2,2.69,2.69,0,0,1-1.51,1,9.11,9.11,0,0,1-2.36.26,6.13,6.13,0,0,1-3.18-.76A2.62,2.62,0,0,1,69.23,36Z"/><path class="cls-4" d="M93.84,31.08h4.52q3.44,0,3.42,4a4,4,0,0,1-1.08,3.17c-.72.63-2,.94-3.85.94h-11c-1.9,0-3.2-.25-3.89-.77s-1-1.63-1-3.34a5.6,5.6,0,0,1,.17-1.45,3.33,3.33,0,0,1,.61-1.2,5.39,5.39,0,0,1,1.22-1.13c1.47-1,2.62-1.82,3.47-2.44s1.66-1.26,2.46-1.95a13.44,13.44,0,0,0,1.78-1.76,10.41,10.41,0,0,0,1-1.66,6.18,6.18,0,0,0,.61-1.85,15.26,15.26,0,0,0,.15-2.19c0-1.56-.48-2.35-1.43-2.35s-1.55.93-1.55,2.77a2,2,0,0,1-1,2,7,7,0,0,1-2.89.46c-1.74,0-2.91-.39-3.52-1.17a6.41,6.41,0,0,1-.92-3.91,5.48,5.48,0,0,1,2.51-4.56,11.74,11.74,0,0,1,7-1.82q11.09,0,11.07,8.69a14.11,14.11,0,0,1-.45,3.68,11.25,11.25,0,0,1-1.1,2.77,9,9,0,0,1-1.77,2.12,17.42,17.42,0,0,1-2.1,1.64C95.59,30.16,94.79,30.6,93.84,31.08Z"/><path class="cls-5" d="M58.88,38.85a4.22,4.22,0,0,1-3.5-1.36c-.74-.91-1.1-2.5-1.1-4.77H46.74a5.31,5.31,0,0,1-3.93-1.3,4.61,4.61,0,0,1-1.28-3.36,7.12,7.12,0,0,1,1.11-3.95Q45.54,19.45,49.16,14A6.65,6.65,0,0,1,55,10.84l3.55,0c2,0,3.32.34,4,1a4.92,4.92,0,0,1,1.06,3.59V26.59a3.66,3.66,0,0,1,2.4.88,3.33,3.33,0,0,1,.65,2.27,2.8,2.8,0,0,1-.7,2.2,4,4,0,0,1-2.36.74c0,2.21-.4,3.79-1.18,4.74A4.33,4.33,0,0,1,58.88,38.85Zm-4.63-12.1.13-8.94-5.47,8.94Z"/><path class="cls-5" d="M69.23,36a2.78,2.78,0,0,1,1.16-2.31,5.4,5.4,0,0,1,3.28-.88c3,0,4.44,1.07,4.44,3.19a3.11,3.11,0,0,1-.57,2,2.69,2.69,0,0,1-1.51,1,9.11,9.11,0,0,1-2.36.26,6.13,6.13,0,0,1-3.18-.76A2.62,2.62,0,0,1,69.23,36Z"/><path class="cls-5" d="M93.84,31.08h4.52q3.44,0,3.42,4a4,4,0,0,1-1.08,3.17c-.72.63-2,.94-3.85.94h-11c-1.9,0-3.2-.25-3.89-.77s-1-1.63-1-3.34a5.6,5.6,0,0,1,.17-1.45,3.33,3.33,0,0,1,.61-1.2,5.39,5.39,0,0,1,1.22-1.13c1.47-1,2.62-1.82,3.47-2.44s1.66-1.26,2.46-1.95a13.44,13.44,0,0,0,1.78-1.76,10.41,10.41,0,0,0,1-1.66,6.18,6.18,0,0,0,.61-1.85,15.26,15.26,0,0,0,.15-2.19c0-1.56-.48-2.35-1.43-2.35s-1.55.93-1.55,2.77a2,2,0,0,1-1,2,7,7,0,0,1-2.89.46c-1.74,0-2.91-.39-3.52-1.17a6.41,6.41,0,0,1-.92-3.91,5.48,5.48,0,0,1,2.51-4.56,11.74,11.74,0,0,1,7-1.82q11.09,0,11.07,8.69a14.11,14.11,0,0,1-.45,3.68,11.25,11.25,0,0,1-1.1,2.77,9,9,0,0,1-1.77,2.12,17.42,17.42,0,0,1-2.1,1.64C95.59,30.16,94.79,30.6,93.84,31.08Z"/></g></g></svg>