<svg xmlns="http://www.w3.org/2000/svg" viewBox="0 0 399.98 90.74"><defs><style>.cls-1{fill:#03826e;}.cls-2{fill:#fff;}.cls-3,.cls-4{fill:none;stroke-width:5px;}.cls-3{stroke:#b6ba01;stroke-linejoin:round;}.cls-4{stroke:#fff;}.cls-5{fill:#b6ba01;}</style></defs><title>43t</title><g id="Layer_2" data-name="Layer 2"><g id="pestaña_identificativa" data-name="pestaña identificativa"><rect class="cls-1" width="399.98" height="90.74" rx="32.4"/><path class="cls-2" d="M128.68,32.06a6.89,6.89,0,0,1-5.57-2.61,8.24,8.24,0,0,1-1.43-2.68,10.09,10.09,0,0,1-.47-3V16.26a4.69,4.69,0,0,1,.09-.94,1.1,1.1,0,0,1,.49-.71,2.47,2.47,0,0,1,1.33-.27,2.53,2.53,0,0,1,1.35.27,1.15,1.15,0,0,1,.48.71,4.92,4.92,0,0,1,.09,1v7.45a6.1,6.1,0,0,0,.37,2.12,3.72,3.72,0,0,0,1.18,1.7,3.34,3.34,0,0,0,2.18.68,3.46,3.46,0,0,0,2-.56A3.67,3.67,0,0,0,132,26.1a5.81,5.81,0,0,0,.45-2.38V16.14a3.92,3.92,0,0,1,.1-.87,1.14,1.14,0,0,1,.51-.67,2.46,2.46,0,0,1,1.3-.26,2.32,2.32,0,0,1,1.33.29,1.19,1.19,0,0,1,.48.73,4.6,4.6,0,0,1,.08.93v7.5a9.5,9.5,0,0,1-.49,3.05,8.07,8.07,0,0,1-1.46,2.65,7.3,7.3,0,0,1-2.38,1.88A7.13,7.13,0,0,1,128.68,32.06Z"/><path class="cls-2" d="M140.73,31.82a2.45,2.45,0,0,1-1.31-.26,1.1,1.1,0,0,1-.48-.7,4.53,4.53,0,0,1-.08-.91v-8.8a4.13,4.13,0,0,1,.09-.89,1,1,0,0,1,.49-.66,3.52,3.52,0,0,1,2.5,0,1,1,0,0,1,.48.51,1.54,1.54,0,0,1,.12.57.8.8,0,0,0,.05.36l-.15.47a1.48,1.48,0,0,1,.38-.76,3.74,3.74,0,0,1,.85-.7,4.93,4.93,0,0,1,1.1-.49,4.36,4.36,0,0,1,1.17-.17,5,5,0,0,1,2.13.44,4.24,4.24,0,0,1,1.59,1.26,6,6,0,0,1,1,1.94,8.57,8.57,0,0,1,.33,2.44V30a4.46,4.46,0,0,1-.09.91,1.08,1.08,0,0,1-.47.69,2.7,2.7,0,0,1-1.34.25,2.47,2.47,0,0,1-1.33-.27,1.05,1.05,0,0,1-.48-.7,4.46,4.46,0,0,1-.09-.91V25.43a2.78,2.78,0,0,0-.26-1.28,1.76,1.76,0,0,0-.75-.8,2.8,2.8,0,0,0-2.46,0,2,2,0,0,0-.81.81,2.48,2.48,0,0,0-.29,1.25V30a4.63,4.63,0,0,1-.09.92,1,1,0,0,1-.48.68A2.49,2.49,0,0,1,140.73,31.82Z"/><path class="cls-2" d="M155.44,17.56a2.56,2.56,0,0,1-1.35-.28,1.11,1.11,0,0,1-.49-.73,5.11,5.11,0,0,1,0-1.91,1.09,1.09,0,0,1,.5-.7,2.71,2.71,0,0,1,1.36-.26,2.37,2.37,0,0,1,1.33.28,1.09,1.09,0,0,1,.49.72,6,6,0,0,1,.08,1,5.62,5.62,0,0,1-.08.92,1.09,1.09,0,0,1-.49.71A2.53,2.53,0,0,1,155.44,17.56Zm0,14.3a2.47,2.47,0,0,1-1.33-.27,1,1,0,0,1-.47-.7,5.33,5.33,0,0,1-.07-.91V21.25a4.53,4.53,0,0,1,.09-.91,1.08,1.08,0,0,1,.49-.7,2.52,2.52,0,0,1,1.32-.26,2.24,2.24,0,0,1,1.29.28,1.07,1.07,0,0,1,.47.71,4.62,4.62,0,0,1,.09.94V30a4.53,4.53,0,0,1-.09.91,1.06,1.06,0,0,1-.48.69A2.6,2.6,0,0,1,155.43,31.86Z"/><path class="cls-2" d="M166,32.06a6.29,6.29,0,0,1-2.34-.46,7.06,7.06,0,0,1-2.11-1.32,6.23,6.23,0,0,1-1.51-2,6,6,0,0,1-.56-2.64A6.16,6.16,0,0,1,160,23.1,6.7,6.7,0,0,1,161.39,21a6.63,6.63,0,0,1,2.06-1.41,6.09,6.09,0,0,1,2.49-.51,6.26,6.26,0,0,1,3.26.87,6.56,6.56,0,0,1,2.34,2.34,6.3,6.3,0,0,1,.87,3.27,6.17,6.17,0,0,1-.57,2.71,6.35,6.35,0,0,1-1.5,2,6.53,6.53,0,0,1-2.07,1.29A6.36,6.36,0,0,1,166,32.06Zm0-3.77a2.85,2.85,0,0,0,1.23-.3,2.81,2.81,0,0,0,1.05-.9,2.61,2.61,0,0,0,.42-1.53,2.67,2.67,0,0,0-.35-1.4,2.48,2.48,0,0,0-1-.94,2.94,2.94,0,0,0-1.41-.33,2.51,2.51,0,0,0-1.34.35,2.65,2.65,0,0,0-.95,1,2.69,2.69,0,0,0-.36,1.39,2.63,2.63,0,0,0,.41,1.51,2.43,2.43,0,0,0,1,.9A2.9,2.9,0,0,0,165.93,28.29Zm-1-9.83a.83.83,0,0,1-.73-.25,2.49,2.49,0,0,1-.52-1,2.11,2.11,0,0,1-.1-1.3,1.4,1.4,0,0,1,.93-.67l4.4-1.35a.9.9,0,0,1,.73.29,2.48,2.48,0,0,1,.49,1,1.83,1.83,0,0,1,.09,1.28,1.32,1.32,0,0,1-.91.67Z"/><path class="cls-2" d="M176.3,31.84a2.5,2.5,0,0,1-1.31-.26,1.06,1.06,0,0,1-.47-.7,4.53,4.53,0,0,1-.09-.91v-8.8a4.13,4.13,0,0,1,.09-.89,1,1,0,0,1,.49-.66,2.6,2.6,0,0,1,1.33-.25,2.49,2.49,0,0,1,1.17.21,1,1,0,0,1,.49.51,1.74,1.74,0,0,1,.11.57,1,1,0,0,0,0,.36l-.15.47a1.43,1.43,0,0,1,.39-.76,3.53,3.53,0,0,1,.85-.7,4.32,4.32,0,0,1,1.1-.48,4,4,0,0,1,1.16-.18,5.05,5.05,0,0,1,2.14.44,4.41,4.41,0,0,1,1.59,1.26,5.81,5.81,0,0,1,1,1.94,8.22,8.22,0,0,1,.34,2.44V30a5.31,5.31,0,0,1-.08.91,1.06,1.06,0,0,1-.48.69,2.68,2.68,0,0,1-1.34.25,2.54,2.54,0,0,1-1.32-.26,1.07,1.07,0,0,1-.49-.71,4.46,4.46,0,0,1-.09-.91V25.45a2.92,2.92,0,0,0-.26-1.28,1.93,1.93,0,0,0-.75-.8,2.5,2.5,0,0,0-1.22-.27,2.59,2.59,0,0,0-1.25.28,2,2,0,0,0-.81.81,2.59,2.59,0,0,0-.29,1.25V30a4.56,4.56,0,0,1-.09.92,1,1,0,0,1-.47.68A2.53,2.53,0,0,1,176.3,31.84Z"/><path class="cls-2" d="M200.88,31.86a5.11,5.11,0,0,1-2.18-.49A6,6,0,0,1,196.88,30a6.88,6.88,0,0,1-1.26-2,6.3,6.3,0,0,1-.46-2.41,6,6,0,0,1,.46-2.34,6.32,6.32,0,0,1,1.28-2,6.07,6.07,0,0,1,1.84-1.36,4.75,4.75,0,0,1,2.15-.5,4.28,4.28,0,0,1,3.63,1.83,6.31,6.31,0,0,1,.94,2,9.53,9.53,0,0,1,.35,2.35,9.28,9.28,0,0,1-.3,2.4,6,6,0,0,1-.93,2A4.69,4.69,0,0,1,203,31.35,4.41,4.41,0,0,1,200.88,31.86Zm.5-3.7a2.16,2.16,0,0,0,1.21-.34,2.65,2.65,0,0,0,.88-.91,2.52,2.52,0,0,0,.34-1.28,2.47,2.47,0,0,0-.33-1.26,2.58,2.58,0,0,0-.87-.9,2.39,2.39,0,0,0-1.25-.34,2.42,2.42,0,0,0-1.24.33,2.16,2.16,0,0,0-.87.9,2.6,2.6,0,0,0-.32,1.27,2.54,2.54,0,0,0,.33,1.28,2.38,2.38,0,0,0,.9.91A2.32,2.32,0,0,0,201.38,28.16Zm4.35,3.73a2.3,2.3,0,0,1-1.26-.28,1.27,1.27,0,0,1-.54-.85V15.61a6.62,6.62,0,0,1,.06-.91,1,1,0,0,1,.44-.71,2.15,2.15,0,0,1,1.27-.28A2.49,2.49,0,0,1,207,14a1.13,1.13,0,0,1,.47.69,3.9,3.9,0,0,1,.1.93V30a4.53,4.53,0,0,1-.08.91,1.12,1.12,0,0,1-.48.71A2.29,2.29,0,0,1,205.73,31.89Z"/><path class="cls-2" d="M216.33,32.12a7.25,7.25,0,0,1-3-.58A5.88,5.88,0,0,1,211.25,30a6.4,6.4,0,0,1-1.19-2.09,6.92,6.92,0,0,1-.4-2.3,6.45,6.45,0,0,1,.85-3.33A6.16,6.16,0,0,1,212.87,20a7,7,0,0,1,3.47-.84,6.24,6.24,0,0,1,2.51.47,5.08,5.08,0,0,1,1.75,1.2,4.89,4.89,0,0,1,1,1.59,4.25,4.25,0,0,1,.34,1.62,2.78,2.78,0,0,1-.67,2.05,2.21,2.21,0,0,1-1.68.67h-6a1.71,1.71,0,0,0,.46,1.08,2.77,2.77,0,0,0,1,.7,3.6,3.6,0,0,0,1.32.25,6.63,6.63,0,0,0,1-.07,3.74,3.74,0,0,0,.79-.17l.58-.22c.18-.08.34-.14.49-.19a2.41,2.41,0,0,1,.43-.1,1,1,0,0,1,.67.21,2.06,2.06,0,0,1,.58.72,1.8,1.8,0,0,1,.23.52,2.14,2.14,0,0,1,.06.5,1.34,1.34,0,0,1-.61,1.09,4.68,4.68,0,0,1-1.72.73A11.06,11.06,0,0,1,216.33,32.12Zm-2.67-7.41h4a1,1,0,0,0,.57-.14c.14-.09.2-.27.2-.54a1.23,1.23,0,0,0-.27-.77,1.87,1.87,0,0,0-.74-.54,3.2,3.2,0,0,0-2.44.11,2.36,2.36,0,0,0-.93.8A1.84,1.84,0,0,0,213.66,24.71Z"/><path class="cls-2" d="M231.29,19.6H234l3.45-.1a4.43,4.43,0,0,1,.9.09,1.08,1.08,0,0,1,.69.49,2.37,2.37,0,0,1,.28,1.33,2.4,2.4,0,0,1-.26,1.25,1.24,1.24,0,0,1-.69.51,3.89,3.89,0,0,1-.93.11l-3.27-.08-3,0a1.27,1.27,0,0,1-1-.47,2.48,2.48,0,0,1-.29-1.38,2.08,2.08,0,0,1,.36-1.34A1.26,1.26,0,0,1,231.29,19.6Zm2.61,12.33a2.18,2.18,0,0,1-1.28-.28,1.12,1.12,0,0,1-.48-.71,4.62,4.62,0,0,1-.09-.94V18.3a5.09,5.09,0,0,1,.28-1.67,4.21,4.21,0,0,1,.86-1.49,4.1,4.1,0,0,1,1.53-1.06,5.68,5.68,0,0,1,2.26-.4,4.46,4.46,0,0,1,.91.09,1.06,1.06,0,0,1,.7.47,2.48,2.48,0,0,1,.26,1.34,2.4,2.4,0,0,1-.27,1.3,1,1,0,0,1-.72.47,4.47,4.47,0,0,1-.91.08,2.83,2.83,0,0,0-.54,0,.85.85,0,0,0-.33.11.41.41,0,0,0-.19.25,1.33,1.33,0,0,0-.06.42V30.08a4.28,4.28,0,0,1-.1.9,1.14,1.14,0,0,1-.5.69A2.59,2.59,0,0,1,233.9,31.93Z"/><path class="cls-2" d="M247.2,32.11a6.2,6.2,0,0,1-2.33-.46,7.11,7.11,0,0,1-2.12-1.32,6.31,6.31,0,0,1-1.51-2,6.41,6.41,0,0,1,0-5.15,6.78,6.78,0,0,1,3.47-3.47,6.16,6.16,0,0,1,2.49-.51,6.24,6.24,0,0,1,3.26.87,6.45,6.45,0,0,1,2.34,2.33,6.71,6.71,0,0,1,.31,6,6.5,6.5,0,0,1-3.58,3.32A6.17,6.17,0,0,1,247.2,32.11Zm0-3.77a2.81,2.81,0,0,0,1.22-.3,2.67,2.67,0,0,0,1.05-.9,2.61,2.61,0,0,0,.43-1.53,2.77,2.77,0,0,0-.35-1.4,2.62,2.62,0,0,0-1-.94,3,3,0,0,0-1.42-.33,2.47,2.47,0,0,0-1.33.35,2.66,2.66,0,0,0-1.32,2.34,2.71,2.71,0,0,0,.41,1.52,2.49,2.49,0,0,0,1,.9A3,3,0,0,0,247.16,28.34Z"/><path class="cls-2" d="M257.53,31.92a2.35,2.35,0,0,1-1.31-.27,1.07,1.07,0,0,1-.48-.71,4.7,4.7,0,0,1-.09-.92V21.29a4.42,4.42,0,0,1,.09-.92,1,1,0,0,1,.49-.69,2.42,2.42,0,0,1,1.32-.26,2.5,2.5,0,0,1,1.26.24,1,1,0,0,1,.49.55,1.63,1.63,0,0,1,.1.53l-.3.15a3.22,3.22,0,0,1,.26-.36A3.58,3.58,0,0,1,260,20a3.71,3.71,0,0,1,.91-.49,3.4,3.4,0,0,1,1.24-.19l.61,0a4.62,4.62,0,0,1,.7.15,3.08,3.08,0,0,1,.66.3,1.47,1.47,0,0,1,.49.47,1.11,1.11,0,0,1,.19.67,3.06,3.06,0,0,1-.48,1.74,1.4,1.4,0,0,1-1.2.71,2.11,2.11,0,0,1-.6-.06.92.92,0,0,1-.28-.15,1.17,1.17,0,0,0-.27-.15,1.61,1.61,0,0,0-.55-.07,2.77,2.77,0,0,0-.71.1,1.93,1.93,0,0,0-.62.32,1.43,1.43,0,0,0-.46.52,1.65,1.65,0,0,0-.16.71v5.48a4.53,4.53,0,0,1-.09.91,1,1,0,0,1-.49.69A2.67,2.67,0,0,1,257.53,31.92Z"/><path class="cls-2" d="M268.55,31.92a2.4,2.4,0,0,1-1.3-.27,1.1,1.1,0,0,1-.47-.7,5.37,5.37,0,0,1-.08-.93V21.27a4.43,4.43,0,0,1,.09-.9,1,1,0,0,1,.49-.69,2.52,2.52,0,0,1,1.32-.26,2.05,2.05,0,0,1,1.35.37,1.47,1.47,0,0,1,.42,1.18l-.32.28a1.87,1.87,0,0,1,.3-.43,4.92,4.92,0,0,1,.65-.62,4.1,4.1,0,0,1,.94-.56,2.8,2.8,0,0,1,1.16-.24,4.35,4.35,0,0,1,1.49.24,3.82,3.82,0,0,1,1.2.7,4.32,4.32,0,0,1,.93,1.16,7.47,7.47,0,0,1,.85-1,4.71,4.71,0,0,1,1.18-.8,3.44,3.44,0,0,1,1.53-.32,4.09,4.09,0,0,1,2.48.73,4.54,4.54,0,0,1,1.54,2.12,9.29,9.29,0,0,1,.52,3.32v4.48a4.45,4.45,0,0,1-.1.91,1.13,1.13,0,0,1-.49.7,2.41,2.41,0,0,1-1.31.26,2.47,2.47,0,0,1-1.33-.27,1.09,1.09,0,0,1-.47-.72,5.31,5.31,0,0,1-.08-.91V25.56a3.81,3.81,0,0,0-.19-1.29,1.72,1.72,0,0,0-.54-.83,1.36,1.36,0,0,0-.9-.28,1.68,1.68,0,0,0-1,.27,1.6,1.6,0,0,0-.6.8,3.7,3.7,0,0,0-.2,1.35v4.47a3.51,3.51,0,0,1-.12.94,1.25,1.25,0,0,1-.54.7,2.46,2.46,0,0,1-1.34.24,2.11,2.11,0,0,1-1.25-.29,1.12,1.12,0,0,1-.45-.73,5.14,5.14,0,0,1-.07-.88V25.55a4.55,4.55,0,0,0-.17-1.3,1.59,1.59,0,0,0-.53-.82,1.4,1.4,0,0,0-.92-.28,1.62,1.62,0,0,0-1,.32,2,2,0,0,0-.59.87,3.8,3.8,0,0,0-.18,1.21v4.5a5.25,5.25,0,0,1-.08.92,1.07,1.07,0,0,1-.49.69A2.49,2.49,0,0,1,268.55,31.92Z"/><path class="cls-2" d="M297.48,31.92a2.34,2.34,0,0,1-1.38-.33.89.89,0,0,1-.42-.8l.25-.42a2.8,2.8,0,0,1-.58.61,4.11,4.11,0,0,1-1.11.65,4.34,4.34,0,0,1-1.66.28,4.88,4.88,0,0,1-2.19-.5A5.85,5.85,0,0,1,288.55,30a7.21,7.21,0,0,1-1.27-2,6.13,6.13,0,0,1,0-4.71,6.9,6.9,0,0,1,1.29-2A6.56,6.56,0,0,1,290.41,20a4.93,4.93,0,0,1,2.17-.5,4.11,4.11,0,0,1,1.58.27,4.32,4.32,0,0,1,1.09.61,3.43,3.43,0,0,1,.66.67l-.23-.34a1.06,1.06,0,0,1,.44-.92,2.42,2.42,0,0,1,1.39-.31,2.24,2.24,0,0,1,1.29.28,1.1,1.1,0,0,1,.47.72,4.86,4.86,0,0,1,.09.95V30a5.62,5.62,0,0,1-.08.92,1.07,1.07,0,0,1-.48.71A2.39,2.39,0,0,1,297.48,31.92Zm-4.38-3.73a2.11,2.11,0,0,0,1.2-.34,2.51,2.51,0,0,0,.86-.91,2.6,2.6,0,0,0,.32-1.27,2.57,2.57,0,0,0-.32-1.29,2.42,2.42,0,0,0-.88-.89,2.3,2.3,0,0,0-1.22-.33,2.49,2.49,0,0,0-1.27.34,2.5,2.5,0,0,0-1.23,2.21,2.42,2.42,0,0,0,.33,1.24,2.59,2.59,0,0,0,.93.9A2.48,2.48,0,0,0,293.1,28.19Z"/><path class="cls-2" d="M306.35,32.15a8,8,0,0,1-1.47-.15,9.45,9.45,0,0,1-1.54-.44,5.08,5.08,0,0,1-1.25-.68,1.26,1.26,0,0,1-.56-.89,1.36,1.36,0,0,1,0-.53,2.12,2.12,0,0,1,.23-.6,4.94,4.94,0,0,1,.43-.67.94.94,0,0,1,.44-.35,1,1,0,0,1,.59,0,3.55,3.55,0,0,1,.8.26l.82.4c.29.14.58.27.88.38a2.66,2.66,0,0,0,.92.16,2.32,2.32,0,0,0,1.09-.21.65.65,0,0,0,.39-.59.64.64,0,0,0-.16-.45,1.6,1.6,0,0,0-.45-.3c-.19-.08-.42-.16-.68-.24l-.81-.21c-.28-.07-.58-.15-.9-.25a9.05,9.05,0,0,1-1.19-.45,4,4,0,0,1-1.05-.71,3.08,3.08,0,0,1-.73-1.08,3.79,3.79,0,0,1-.28-1.56,3.3,3.3,0,0,1,2.23-3.31,7.34,7.34,0,0,1,2.7-.44c.3,0,.6,0,.9.05a5.4,5.4,0,0,1,.89.18,6.74,6.74,0,0,1,.86.3,8.36,8.36,0,0,1,.85.42c.5.24.76.55.77,1a2.39,2.39,0,0,1-1,1.84.88.88,0,0,1-.62.14,4.2,4.2,0,0,1-.87-.34c-.3-.16-.63-.3-1-.44a2.84,2.84,0,0,0-1-.2,2.2,2.2,0,0,0-.73.11,1.11,1.11,0,0,0-.45.3.69.69,0,0,0-.15.44.66.66,0,0,0,.19.51,1.4,1.4,0,0,0,.51.32,7.67,7.67,0,0,0,.75.22c.28.07.59.14.93.2s.91.2,1.38.34a4.71,4.71,0,0,1,1.3.61,2.93,2.93,0,0,1,1,1.08,3.75,3.75,0,0,1,.37,1.77,3.63,3.63,0,0,1-1.38,3A6.38,6.38,0,0,1,306.35,32.15Z"/><path class="cls-3" d="M128.68,32.06a6.89,6.89,0,0,1-5.57-2.61,8.24,8.24,0,0,1-1.43-2.68,10.09,10.09,0,0,1-.47-3V16.26a4.69,4.69,0,0,1,.09-.94,1.1,1.1,0,0,1,.49-.71,2.47,2.47,0,0,1,1.33-.27,2.53,2.53,0,0,1,1.35.27,1.15,1.15,0,0,1,.48.71,4.92,4.92,0,0,1,.09,1v7.45a6.1,6.1,0,0,0,.37,2.12,3.72,3.72,0,0,0,1.18,1.7,3.34,3.34,0,0,0,2.18.68,3.46,3.46,0,0,0,2-.56A3.67,3.67,0,0,0,132,26.1a5.81,5.81,0,0,0,.45-2.38V16.14a3.92,3.92,0,0,1,.1-.87,1.14,1.14,0,0,1,.51-.67,2.46,2.46,0,0,1,1.3-.26,2.32,2.32,0,0,1,1.33.29,1.19,1.19,0,0,1,.48.73,4.6,4.6,0,0,1,.08.93v7.5a9.5,9.5,0,0,1-.49,3.05,8.07,8.07,0,0,1-1.46,2.65,7.3,7.3,0,0,1-2.38,1.88A7.13,7.13,0,0,1,128.68,32.06Z"/><path class="cls-3" d="M140.73,31.82a2.45,2.45,0,0,1-1.31-.26,1.1,1.1,0,0,1-.48-.7,4.53,4.53,0,0,1-.08-.91v-8.8a4.13,4.13,0,0,1,.09-.89,1,1,0,0,1,.49-.66,3.52,3.52,0,0,1,2.5,0,1,1,0,0,1,.48.51,1.54,1.54,0,0,1,.12.57.8.8,0,0,0,.05.36l-.15.47a1.48,1.48,0,0,1,.38-.76,3.74,3.74,0,0,1,.85-.7,4.93,4.93,0,0,1,1.1-.49,4.36,4.36,0,0,1,1.17-.17,5,5,0,0,1,2.13.44,4.24,4.24,0,0,1,1.59,1.26,6,6,0,0,1,1,1.94,8.57,8.57,0,0,1,.33,2.44V30a4.46,4.46,0,0,1-.09.91,1.08,1.08,0,0,1-.47.69,2.7,2.7,0,0,1-1.34.25,2.47,2.47,0,0,1-1.33-.27,1.05,1.05,0,0,1-.48-.7,4.46,4.46,0,0,1-.09-.91V25.43a2.78,2.78,0,0,0-.26-1.28,1.76,1.76,0,0,0-.75-.8,2.8,2.8,0,0,0-2.46,0,2,2,0,0,0-.81.81,2.48,2.48,0,0,0-.29,1.25V30a4.63,4.63,0,0,1-.09.92,1,1,0,0,1-.48.68A2.49,2.49,0,0,1,140.73,31.82Z"/><path class="cls-3" d="M155.44,17.56a2.56,2.56,0,0,1-1.35-.28,1.11,1.11,0,0,1-.49-.73,5.11,5.11,0,0,1,0-1.91,1.09,1.09,0,0,1,.5-.7,2.71,2.71,0,0,1,1.36-.26,2.37,2.37,0,0,1,1.33.28,1.09,1.09,0,0,1,.49.72,6,6,0,0,1,.08,1,5.62,5.62,0,0,1-.08.92,1.09,1.09,0,0,1-.49.71A2.53,2.53,0,0,1,155.44,17.56Zm0,14.3a2.47,2.47,0,0,1-1.33-.27,1,1,0,0,1-.47-.7,5.33,5.33,0,0,1-.07-.91V21.25a4.53,4.53,0,0,1,.09-.91,1.08,1.08,0,0,1,.49-.7,2.52,2.52,0,0,1,1.32-.26,2.24,2.24,0,0,1,1.29.28,1.07,1.07,0,0,1,.47.71,4.62,4.62,0,0,1,.09.94V30a4.53,4.53,0,0,1-.09.91,1.06,1.06,0,0,1-.48.69A2.6,2.6,0,0,1,155.43,31.86Z"/><path class="cls-3" d="M166,32.06a6.29,6.29,0,0,1-2.34-.46,7.06,7.06,0,0,1-2.11-1.32,6.23,6.23,0,0,1-1.51-2,6,6,0,0,1-.56-2.64A6.16,6.16,0,0,1,160,23.1,6.7,6.7,0,0,1,161.39,21a6.63,6.63,0,0,1,2.06-1.41,6.09,6.09,0,0,1,2.49-.51,6.26,6.26,0,0,1,3.26.87,6.56,6.56,0,0,1,2.34,2.34,6.3,6.3,0,0,1,.87,3.27,6.17,6.17,0,0,1-.57,2.71,6.35,6.35,0,0,1-1.5,2,6.53,6.53,0,0,1-2.07,1.29A6.36,6.36,0,0,1,166,32.06Zm0-3.77a2.85,2.85,0,0,0,1.23-.3,2.81,2.81,0,0,0,1.05-.9,2.61,2.61,0,0,0,.42-1.53,2.67,2.67,0,0,0-.35-1.4,2.48,2.48,0,0,0-1-.94,2.94,2.94,0,0,0-1.41-.33,2.51,2.51,0,0,0-1.34.35,2.65,2.65,0,0,0-.95,1,2.69,2.69,0,0,0-.36,1.39,2.63,2.63,0,0,0,.41,1.51,2.43,2.43,0,0,0,1,.9A2.9,2.9,0,0,0,165.93,28.29Zm-1-9.83a.83.83,0,0,1-.73-.25,2.49,2.49,0,0,1-.52-1,2.11,2.11,0,0,1-.1-1.3,1.4,1.4,0,0,1,.93-.67l4.4-1.35a.9.9,0,0,1,.73.29,2.48,2.48,0,0,1,.49,1,1.83,1.83,0,0,1,.09,1.28,1.32,1.32,0,0,1-.91.67Z"/><path class="cls-3" d="M176.3,31.84a2.5,2.5,0,0,1-1.31-.26,1.06,1.06,0,0,1-.47-.7,4.53,4.53,0,0,1-.09-.91v-8.8a4.13,4.13,0,0,1,.09-.89,1,1,0,0,1,.49-.66,2.6,2.6,0,0,1,1.33-.25,2.49,2.49,0,0,1,1.17.21,1,1,0,0,1,.49.51,1.74,1.74,0,0,1,.11.57,1,1,0,0,0,0,.36l-.15.47a1.43,1.43,0,0,1,.39-.76,3.53,3.53,0,0,1,.85-.7,4.32,4.32,0,0,1,1.1-.48,4,4,0,0,1,1.16-.18,5.05,5.05,0,0,1,2.14.44,4.41,4.41,0,0,1,1.59,1.26,5.81,5.81,0,0,1,1,1.94,8.22,8.22,0,0,1,.34,2.44V30a5.31,5.31,0,0,1-.08.91,1.06,1.06,0,0,1-.48.69,2.68,2.68,0,0,1-1.34.25,2.54,2.54,0,0,1-1.32-.26,1.07,1.07,0,0,1-.49-.71,4.46,4.46,0,0,1-.09-.91V25.45a2.92,2.92,0,0,0-.26-1.28,1.93,1.93,0,0,0-.75-.8,2.5,2.5,0,0,0-1.22-.27,2.59,2.59,0,0,0-1.25.28,2,2,0,0,0-.81.81,2.59,2.59,0,0,0-.29,1.25V30a4.56,4.56,0,0,1-.09.92,1,1,0,0,1-.47.68A2.53,2.53,0,0,1,176.3,31.84Z"/><path class="cls-3" d="M200.88,31.86a5.11,5.11,0,0,1-2.18-.49A6,6,0,0,1,196.88,30a6.88,6.88,0,0,1-1.26-2,6.3,6.3,0,0,1-.46-2.41,6,6,0,0,1,.46-2.34,6.32,6.32,0,0,1,1.28-2,6.07,6.07,0,0,1,1.84-1.36,4.75,4.75,0,0,1,2.15-.5,4.28,4.28,0,0,1,3.63,1.83,6.31,6.31,0,0,1,.94,2,9.53,9.53,0,0,1,.35,2.35,9.28,9.28,0,0,1-.3,2.4,6,6,0,0,1-.93,2A4.69,4.69,0,0,1,203,31.35,4.41,4.41,0,0,1,200.88,31.86Zm.5-3.7a2.16,2.16,0,0,0,1.21-.34,2.65,2.65,0,0,0,.88-.91,2.52,2.52,0,0,0,.34-1.28,2.47,2.47,0,0,0-.33-1.26,2.58,2.58,0,0,0-.87-.9,2.39,2.39,0,0,0-1.25-.34,2.42,2.42,0,0,0-1.24.33,2.16,2.16,0,0,0-.87.9,2.6,2.6,0,0,0-.32,1.27,2.54,2.54,0,0,0,.33,1.28,2.38,2.38,0,0,0,.9.91A2.32,2.32,0,0,0,201.38,28.16Zm4.35,3.73a2.3,2.3,0,0,1-1.26-.28,1.27,1.27,0,0,1-.54-.85V15.61a6.62,6.62,0,0,1,.06-.91,1,1,0,0,1,.44-.71,2.15,2.15,0,0,1,1.27-.28A2.49,2.49,0,0,1,207,14a1.13,1.13,0,0,1,.47.69,3.9,3.9,0,0,1,.1.93V30a4.53,4.53,0,0,1-.08.91,1.12,1.12,0,0,1-.48.71A2.29,2.29,0,0,1,205.73,31.89Z"/><path class="cls-3" d="M216.33,32.12a7.25,7.25,0,0,1-3-.58A5.88,5.88,0,0,1,211.25,30a6.4,6.4,0,0,1-1.19-2.09,6.92,6.92,0,0,1-.4-2.3,6.45,6.45,0,0,1,.85-3.33A6.16,6.16,0,0,1,212.87,20a7,7,0,0,1,3.47-.84,6.24,6.24,0,0,1,2.51.47,5.08,5.08,0,0,1,1.75,1.2,4.89,4.89,0,0,1,1,1.59,4.25,4.25,0,0,1,.34,1.62,2.78,2.78,0,0,1-.67,2.05,2.21,2.21,0,0,1-1.68.67h-6a1.71,1.71,0,0,0,.46,1.08,2.77,2.77,0,0,0,1,.7,3.6,3.6,0,0,0,1.32.25,6.63,6.63,0,0,0,1-.07,3.74,3.74,0,0,0,.79-.17l.58-.22c.18-.08.34-.14.49-.19a2.41,2.41,0,0,1,.43-.1,1,1,0,0,1,.67.21,2.06,2.06,0,0,1,.58.72,1.8,1.8,0,0,1,.23.52,2.14,2.14,0,0,1,.06.5,1.34,1.34,0,0,1-.61,1.09,4.68,4.68,0,0,1-1.72.73A11.06,11.06,0,0,1,216.33,32.12Zm-2.67-7.41h4a1,1,0,0,0,.57-.14c.14-.09.2-.27.2-.54a1.23,1.23,0,0,0-.27-.77,1.87,1.87,0,0,0-.74-.54,3.2,3.2,0,0,0-2.44.11,2.36,2.36,0,0,0-.93.8A1.84,1.84,0,0,0,213.66,24.71Z"/><path class="cls-3" d="M231.29,19.6H234l3.45-.1a4.43,4.43,0,0,1,.9.09,1.08,1.08,0,0,1,.69.49,2.37,2.37,0,0,1,.28,1.33,2.4,2.4,0,0,1-.26,1.25,1.24,1.24,0,0,1-.69.51,3.89,3.89,0,0,1-.93.11l-3.27-.08-3,0a1.27,1.27,0,0,1-1-.47,2.48,2.48,0,0,1-.29-1.38,2.08,2.08,0,0,1,.36-1.34A1.26,1.26,0,0,1,231.29,19.6Zm2.61,12.33a2.18,2.18,0,0,1-1.28-.28,1.12,1.12,0,0,1-.48-.71,4.62,4.62,0,0,1-.09-.94V18.3a5.09,5.09,0,0,1,.28-1.67,4.21,4.21,0,0,1,.86-1.49,4.1,4.1,0,0,1,1.53-1.06,5.68,5.68,0,0,1,2.26-.4,4.46,4.46,0,0,1,.91.09,1.06,1.06,0,0,1,.7.47,2.48,2.48,0,0,1,.26,1.34,2.4,2.4,0,0,1-.27,1.3,1,1,0,0,1-.72.47,4.47,4.47,0,0,1-.91.08,2.83,2.83,0,0,0-.54,0,.85.85,0,0,0-.33.11.41.41,0,0,0-.19.25,1.33,1.33,0,0,0-.06.42V30.08a4.28,4.28,0,0,1-.1.9,1.14,1.14,0,0,1-.5.69A2.59,2.59,0,0,1,233.9,31.93Z"/><path class="cls-3" d="M247.2,32.11a6.2,6.2,0,0,1-2.33-.46,7.11,7.11,0,0,1-2.12-1.32,6.31,6.31,0,0,1-1.51-2,6.41,6.41,0,0,1,0-5.15,6.78,6.78,0,0,1,3.47-3.47,6.16,6.16,0,0,1,2.49-.51,6.24,6.24,0,0,1,3.26.87,6.45,6.45,0,0,1,2.34,2.33,6.71,6.71,0,0,1,.31,6,6.5,6.5,0,0,1-3.58,3.32A6.17,6.17,0,0,1,247.2,32.11Zm0-3.77a2.81,2.81,0,0,0,1.22-.3,2.67,2.67,0,0,0,1.05-.9,2.61,2.61,0,0,0,.43-1.53,2.77,2.77,0,0,0-.35-1.4,2.62,2.62,0,0,0-1-.94,3,3,0,0,0-1.42-.33,2.47,2.47,0,0,0-1.33.35,2.66,2.66,0,0,0-1.32,2.34,2.71,2.71,0,0,0,.41,1.52,2.49,2.49,0,0,0,1,.9A3,3,0,0,0,247.16,28.34Z"/><path class="cls-3" d="M257.53,31.92a2.35,2.35,0,0,1-1.31-.27,1.07,1.07,0,0,1-.48-.71,4.7,4.7,0,0,1-.09-.92V21.29a4.42,4.42,0,0,1,.09-.92,1,1,0,0,1,.49-.69,2.42,2.42,0,0,1,1.32-.26,2.5,2.5,0,0,1,1.26.24,1,1,0,0,1,.49.55,1.63,1.63,0,0,1,.1.53l-.3.15a3.22,3.22,0,0,1,.26-.36A3.58,3.58,0,0,1,260,20a3.71,3.71,0,0,1,.91-.49,3.4,3.4,0,0,1,1.24-.19l.61,0a4.62,4.62,0,0,1,.7.15,3.08,3.08,0,0,1,.66.3,1.47,1.47,0,0,1,.49.47,1.11,1.11,0,0,1,.19.67,3.06,3.06,0,0,1-.48,1.74,1.4,1.4,0,0,1-1.2.71,2.11,2.11,0,0,1-.6-.06.92.92,0,0,1-.28-.15,1.17,1.17,0,0,0-.27-.15,1.61,1.61,0,0,0-.55-.07,2.77,2.77,0,0,0-.71.1,1.93,1.93,0,0,0-.62.32,1.43,1.43,0,0,0-.46.52,1.65,1.65,0,0,0-.16.71v5.48a4.53,4.53,0,0,1-.09.91,1,1,0,0,1-.49.69A2.67,2.67,0,0,1,257.53,31.92Z"/><path class="cls-3" d="M268.55,31.92a2.4,2.4,0,0,1-1.3-.27,1.1,1.1,0,0,1-.47-.7,5.37,5.37,0,0,1-.08-.93V21.27a4.43,4.43,0,0,1,.09-.9,1,1,0,0,1,.49-.69,2.52,2.52,0,0,1,1.32-.26,2.05,2.05,0,0,1,1.35.37,1.47,1.47,0,0,1,.42,1.18l-.32.28a1.87,1.87,0,0,1,.3-.43,4.92,4.92,0,0,1,.65-.62,4.1,4.1,0,0,1,.94-.56,2.8,2.8,0,0,1,1.16-.24,4.35,4.35,0,0,1,1.49.24,3.82,3.82,0,0,1,1.2.7,4.32,4.32,0,0,1,.93,1.16,7.47,7.47,0,0,1,.85-1,4.71,4.71,0,0,1,1.18-.8,3.44,3.44,0,0,1,1.53-.32,4.09,4.09,0,0,1,2.48.73,4.54,4.54,0,0,1,1.54,2.12,9.29,9.29,0,0,1,.52,3.32v4.48a4.45,4.45,0,0,1-.1.91,1.13,1.13,0,0,1-.49.7,2.41,2.41,0,0,1-1.31.26,2.47,2.47,0,0,1-1.33-.27,1.09,1.09,0,0,1-.47-.72,5.31,5.31,0,0,1-.08-.91V25.56a3.81,3.81,0,0,0-.19-1.29,1.72,1.72,0,0,0-.54-.83,1.36,1.36,0,0,0-.9-.28,1.68,1.68,0,0,0-1,.27,1.6,1.6,0,0,0-.6.8,3.7,3.7,0,0,0-.2,1.35v4.47a3.51,3.51,0,0,1-.12.94,1.25,1.25,0,0,1-.54.7,2.46,2.46,0,0,1-1.34.24,2.11,2.11,0,0,1-1.25-.29,1.12,1.12,0,0,1-.45-.73,5.14,5.14,0,0,1-.07-.88V25.55a4.55,4.55,0,0,0-.17-1.3,1.59,1.59,0,0,0-.53-.82,1.4,1.4,0,0,0-.92-.28,1.62,1.62,0,0,0-1,.32,2,2,0,0,0-.59.87,3.8,3.8,0,0,0-.18,1.21v4.5a5.25,5.25,0,0,1-.08.92,1.07,1.07,0,0,1-.49.69A2.49,2.49,0,0,1,268.55,31.92Z"/><path class="cls-3" d="M297.48,31.92a2.34,2.34,0,0,1-1.38-.33.89.89,0,0,1-.42-.8l.25-.42a2.8,2.8,0,0,1-.58.61,4.11,4.11,0,0,1-1.11.65,4.34,4.34,0,0,1-1.66.28,4.88,4.88,0,0,1-2.19-.5A5.85,5.85,0,0,1,288.55,30a7.21,7.21,0,0,1-1.27-2,6.13,6.13,0,0,1,0-4.71,6.9,6.9,0,0,1,1.29-2A6.56,6.56,0,0,1,290.41,20a4.93,4.93,0,0,1,2.17-.5,4.11,4.11,0,0,1,1.58.27,4.32,4.32,0,0,1,1.09.61,3.43,3.43,0,0,1,.66.67l-.23-.34a1.06,1.06,0,0,1,.44-.92,2.42,2.42,0,0,1,1.39-.31,2.24,2.24,0,0,1,1.29.28,1.1,1.1,0,0,1,.47.72,4.86,4.86,0,0,1,.09.95V30a5.62,5.62,0,0,1-.08.92,1.07,1.07,0,0,1-.48.71A2.39,2.39,0,0,1,297.48,31.92Zm-4.38-3.73a2.11,2.11,0,0,0,1.2-.34,2.51,2.51,0,0,0,.86-.91,2.6,2.6,0,0,0,.32-1.27,2.57,2.57,0,0,0-.32-1.29,2.42,2.42,0,0,0-.88-.89,2.3,2.3,0,0,0-1.22-.33,2.49,2.49,0,0,0-1.27.34,2.5,2.5,0,0,0-1.23,2.21,2.42,2.42,0,0,0,.33,1.24,2.59,2.59,0,0,0,.93.9A2.48,2.48,0,0,0,293.1,28.19Z"/><path class="cls-3" d="M306.35,32.15a8,8,0,0,1-1.47-.15,9.45,9.45,0,0,1-1.54-.44,5.08,5.08,0,0,1-1.25-.68,1.26,1.26,0,0,1-.56-.89,1.36,1.36,0,0,1,0-.53,2.12,2.12,0,0,1,.23-.6,4.94,4.94,0,0,1,.43-.67.94.94,0,0,1,.44-.35,1,1,0,0,1,.59,0,3.55,3.55,0,0,1,.8.26l.82.4c.29.14.58.27.88.38a2.66,2.66,0,0,0,.92.16,2.32,2.32,0,0,0,1.09-.21.65.65,0,0,0,.39-.59.64.64,0,0,0-.16-.45,1.6,1.6,0,0,0-.45-.3c-.19-.08-.42-.16-.68-.24l-.81-.21c-.28-.07-.58-.15-.9-.25a9.05,9.05,0,0,1-1.19-.45,4,4,0,0,1-1.05-.71,3.08,3.08,0,0,1-.73-1.08,3.79,3.79,0,0,1-.28-1.56,3.3,3.3,0,0,1,2.23-3.31,7.34,7.34,0,0,1,2.7-.44c.3,0,.6,0,.9.05a5.4,5.4,0,0,1,.89.18,6.74,6.74,0,0,1,.86.3,8.36,8.36,0,0,1,.85.42c.5.24.76.55.77,1a2.39,2.39,0,0,1-1,1.84.88.88,0,0,1-.62.14,4.2,4.2,0,0,1-.87-.34c-.3-.16-.63-.3-1-.44a2.84,2.84,0,0,0-1-.2,2.2,2.2,0,0,0-.73.11,1.11,1.11,0,0,0-.45.3.69.69,0,0,0-.15.44.66.66,0,0,0,.19.51,1.4,1.4,0,0,0,.51.32,7.67,7.67,0,0,0,.75.22c.28.07.59.14.93.2s.91.2,1.38.34a4.71,4.71,0,0,1,1.3.61,2.93,2.93,0,0,1,1,1.08,3.75,3.75,0,0,1,.37,1.77,3.63,3.63,0,0,1-1.38,3A6.38,6.38,0,0,1,306.35,32.15Z"/><path class="cls-2" d="M128.68,32.06a6.89,6.89,0,0,1-5.57-2.61,8.24,8.24,0,0,1-1.43-2.68,10.09,10.09,0,0,1-.47-3V16.26a4.69,4.69,0,0,1,.09-.94,1.1,1.1,0,0,1,.49-.71,2.47,2.47,0,0,1,1.33-.27,2.53,2.53,0,0,1,1.35.27,1.15,1.15,0,0,1,.48.71,4.92,4.92,0,0,1,.09,1v7.45a6.1,6.1,0,0,0,.37,2.12,3.72,3.72,0,0,0,1.18,1.7,3.34,3.34,0,0,0,2.18.68,3.46,3.46,0,0,0,2-.56A3.67,3.67,0,0,0,132,26.1a5.81,5.81,0,0,0,.45-2.38V16.14a3.92,3.92,0,0,1,.1-.87,1.14,1.14,0,0,1,.51-.67,2.46,2.46,0,0,1,1.3-.26,2.32,2.32,0,0,1,1.33.29,1.19,1.19,0,0,1,.48.73,4.6,4.6,0,0,1,.08.93v7.5a9.5,9.5,0,0,1-.49,3.05,8.07,8.07,0,0,1-1.46,2.65,7.3,7.3,0,0,1-2.38,1.88A7.13,7.13,0,0,1,128.68,32.06Z"/><path class="cls-2" d="M140.73,31.82a2.45,2.45,0,0,1-1.31-.26,1.1,1.1,0,0,1-.48-.7,4.53,4.53,0,0,1-.08-.91v-8.8a4.13,4.13,0,0,1,.09-.89,1,1,0,0,1,.49-.66,3.52,3.52,0,0,1,2.5,0,1,1,0,0,1,.48.51,1.54,1.54,0,0,1,.12.57.8.8,0,0,0,.05.36l-.15.47a1.48,1.48,0,0,1,.38-.76,3.74,3.74,0,0,1,.85-.7,4.93,4.93,0,0,1,1.1-.49,4.36,4.36,0,0,1,1.17-.17,5,5,0,0,1,2.13.44,4.24,4.24,0,0,1,1.59,1.26,6,6,0,0,1,1,1.94,8.57,8.57,0,0,1,.33,2.44V30a4.46,4.46,0,0,1-.09.91,1.08,1.08,0,0,1-.47.69,2.7,2.7,0,0,1-1.34.25,2.47,2.47,0,0,1-1.33-.27,1.05,1.05,0,0,1-.48-.7,4.46,4.46,0,0,1-.09-.91V25.43a2.78,2.78,0,0,0-.26-1.28,1.76,1.76,0,0,0-.75-.8,2.8,2.8,0,0,0-2.46,0,2,2,0,0,0-.81.81,2.48,2.48,0,0,0-.29,1.25V30a4.63,4.63,0,0,1-.09.92,1,1,0,0,1-.48.68A2.49,2.49,0,0,1,140.73,31.82Z"/><path class="cls-2" d="M155.44,17.56a2.56,2.56,0,0,1-1.35-.28,1.11,1.11,0,0,1-.49-.73,5.11,5.11,0,0,1,0-1.91,1.09,1.09,0,0,1,.5-.7,2.71,2.71,0,0,1,1.36-.26,2.37,2.37,0,0,1,1.33.28,1.09,1.09,0,0,1,.49.72,6,6,0,0,1,.08,1,5.62,5.62,0,0,1-.08.92,1.09,1.09,0,0,1-.49.71A2.53,2.53,0,0,1,155.44,17.56Zm0,14.3a2.47,2.47,0,0,1-1.33-.27,1,1,0,0,1-.47-.7,5.33,5.33,0,0,1-.07-.91V21.25a4.53,4.53,0,0,1,.09-.91,1.08,1.08,0,0,1,.49-.7,2.52,2.52,0,0,1,1.32-.26,2.24,2.24,0,0,1,1.29.28,1.07,1.07,0,0,1,.47.71,4.62,4.62,0,0,1,.09.94V30a4.53,4.53,0,0,1-.09.91,1.06,1.06,0,0,1-.48.69A2.6,2.6,0,0,1,155.43,31.86Z"/><path class="cls-2" d="M166,32.06a6.29,6.29,0,0,1-2.34-.46,7.06,7.06,0,0,1-2.11-1.32,6.23,6.23,0,0,1-1.51-2,6,6,0,0,1-.56-2.64A6.16,6.16,0,0,1,160,23.1,6.7,6.7,0,0,1,161.39,21a6.63,6.63,0,0,1,2.06-1.41,6.09,6.09,0,0,1,2.49-.51,6.26,6.26,0,0,1,3.26.87,6.56,6.56,0,0,1,2.34,2.34,6.3,6.3,0,0,1,.87,3.27,6.17,6.17,0,0,1-.57,2.71,6.35,6.35,0,0,1-1.5,2,6.53,6.53,0,0,1-2.07,1.29A6.36,6.36,0,0,1,166,32.06Zm0-3.77a2.85,2.85,0,0,0,1.23-.3,2.81,2.81,0,0,0,1.05-.9,2.61,2.61,0,0,0,.42-1.53,2.67,2.67,0,0,0-.35-1.4,2.48,2.48,0,0,0-1-.94,2.94,2.94,0,0,0-1.41-.33,2.51,2.51,0,0,0-1.34.35,2.65,2.65,0,0,0-.95,1,2.69,2.69,0,0,0-.36,1.39,2.63,2.63,0,0,0,.41,1.51,2.43,2.43,0,0,0,1,.9A2.9,2.9,0,0,0,165.93,28.29Zm-1-9.83a.83.83,0,0,1-.73-.25,2.49,2.49,0,0,1-.52-1,2.11,2.11,0,0,1-.1-1.3,1.4,1.4,0,0,1,.93-.67l4.4-1.35a.9.9,0,0,1,.73.29,2.48,2.48,0,0,1,.49,1,1.83,1.83,0,0,1,.09,1.28,1.32,1.32,0,0,1-.91.67Z"/><path class="cls-2" d="M176.3,31.84a2.5,2.5,0,0,1-1.31-.26,1.06,1.06,0,0,1-.47-.7,4.53,4.53,0,0,1-.09-.91v-8.8a4.13,4.13,0,0,1,.09-.89,1,1,0,0,1,.49-.66,2.6,2.6,0,0,1,1.33-.25,2.49,2.49,0,0,1,1.17.21,1,1,0,0,1,.49.51,1.74,1.74,0,0,1,.11.57,1,1,0,0,0,0,.36l-.15.47a1.43,1.43,0,0,1,.39-.76,3.53,3.53,0,0,1,.85-.7,4.32,4.32,0,0,1,1.1-.48,4,4,0,0,1,1.16-.18,5.05,5.05,0,0,1,2.14.44,4.41,4.41,0,0,1,1.59,1.26,5.81,5.81,0,0,1,1,1.94,8.22,8.22,0,0,1,.34,2.44V30a5.31,5.31,0,0,1-.08.91,1.06,1.06,0,0,1-.48.69,2.68,2.68,0,0,1-1.34.25,2.54,2.54,0,0,1-1.32-.26,1.07,1.07,0,0,1-.49-.71,4.46,4.46,0,0,1-.09-.91V25.45a2.92,2.92,0,0,0-.26-1.28,1.93,1.93,0,0,0-.75-.8,2.5,2.5,0,0,0-1.22-.27,2.59,2.59,0,0,0-1.25.28,2,2,0,0,0-.81.81,2.59,2.59,0,0,0-.29,1.25V30a4.56,4.56,0,0,1-.09.92,1,1,0,0,1-.47.68A2.53,2.53,0,0,1,176.3,31.84Z"/><path class="cls-2" d="M200.88,31.86a5.11,5.11,0,0,1-2.18-.49A6,6,0,0,1,196.88,30a6.88,6.88,0,0,1-1.26-2,6.3,6.3,0,0,1-.46-2.41,6,6,0,0,1,.46-2.34,6.32,6.32,0,0,1,1.28-2,6.07,6.07,0,0,1,1.84-1.36,4.75,4.75,0,0,1,2.15-.5,4.28,4.28,0,0,1,3.63,1.83,6.31,6.31,0,0,1,.94,2,9.53,9.53,0,0,1,.35,2.35,9.28,9.28,0,0,1-.3,2.4,6,6,0,0,1-.93,2A4.69,4.69,0,0,1,203,31.35,4.41,4.41,0,0,1,200.88,31.86Zm.5-3.7a2.16,2.16,0,0,0,1.21-.34,2.65,2.65,0,0,0,.88-.91,2.52,2.52,0,0,0,.34-1.28,2.47,2.47,0,0,0-.33-1.26,2.58,2.58,0,0,0-.87-.9,2.39,2.39,0,0,0-1.25-.34,2.42,2.42,0,0,0-1.24.33,2.16,2.16,0,0,0-.87.9,2.6,2.6,0,0,0-.32,1.27,2.54,2.54,0,0,0,.33,1.28,2.38,2.38,0,0,0,.9.91A2.32,2.32,0,0,0,201.38,28.16Zm4.35,3.73a2.3,2.3,0,0,1-1.26-.28,1.27,1.27,0,0,1-.54-.85V15.61a6.62,6.62,0,0,1,.06-.91,1,1,0,0,1,.44-.71,2.15,2.15,0,0,1,1.27-.28A2.49,2.49,0,0,1,207,14a1.13,1.13,0,0,1,.47.69,3.9,3.9,0,0,1,.1.93V30a4.53,4.53,0,0,1-.08.91,1.12,1.12,0,0,1-.48.71A2.29,2.29,0,0,1,205.73,31.89Z"/><path class="cls-2" d="M216.33,32.12a7.25,7.25,0,0,1-3-.58A5.88,5.88,0,0,1,211.25,30a6.4,6.4,0,0,1-1.19-2.09,6.92,6.92,0,0,1-.4-2.3,6.45,6.45,0,0,1,.85-3.33A6.16,6.16,0,0,1,212.87,20a7,7,0,0,1,3.47-.84,6.24,6.24,0,0,1,2.51.47,5.08,5.08,0,0,1,1.75,1.2,4.89,4.89,0,0,1,1,1.59,4.25,4.25,0,0,1,.34,1.62,2.78,2.78,0,0,1-.67,2.05,2.21,2.21,0,0,1-1.68.67h-6a1.71,1.71,0,0,0,.46,1.08,2.77,2.77,0,0,0,1,.7,3.6,3.6,0,0,0,1.32.25,6.63,6.63,0,0,0,1-.07,3.74,3.74,0,0,0,.79-.17l.58-.22c.18-.08.34-.14.49-.19a2.41,2.41,0,0,1,.43-.1,1,1,0,0,1,.67.21,2.06,2.06,0,0,1,.58.72,1.8,1.8,0,0,1,.23.52,2.14,2.14,0,0,1,.06.5,1.34,1.34,0,0,1-.61,1.09,4.68,4.68,0,0,1-1.72.73A11.06,11.06,0,0,1,216.33,32.12Zm-2.67-7.41h4a1,1,0,0,0,.57-.14c.14-.09.2-.27.2-.54a1.23,1.23,0,0,0-.27-.77,1.87,1.87,0,0,0-.74-.54,3.2,3.2,0,0,0-2.44.11,2.36,2.36,0,0,0-.93.8A1.84,1.84,0,0,0,213.66,24.71Z"/><path class="cls-2" d="M231.29,19.6H234l3.45-.1a4.43,4.43,0,0,1,.9.09,1.08,1.08,0,0,1,.69.49,2.37,2.37,0,0,1,.28,1.33,2.4,2.4,0,0,1-.26,1.25,1.24,1.24,0,0,1-.69.51,3.89,3.89,0,0,1-.93.11l-3.27-.08-3,0a1.27,1.27,0,0,1-1-.47,2.48,2.48,0,0,1-.29-1.38,2.08,2.08,0,0,1,.36-1.34A1.26,1.26,0,0,1,231.29,19.6Zm2.61,12.33a2.18,2.18,0,0,1-1.28-.28,1.12,1.12,0,0,1-.48-.71,4.62,4.62,0,0,1-.09-.94V18.3a5.09,5.09,0,0,1,.28-1.67,4.21,4.21,0,0,1,.86-1.49,4.1,4.1,0,0,1,1.53-1.06,5.68,5.68,0,0,1,2.26-.4,4.46,4.46,0,0,1,.91.09,1.06,1.06,0,0,1,.7.47,2.48,2.48,0,0,1,.26,1.34,2.4,2.4,0,0,1-.27,1.3,1,1,0,0,1-.72.47,4.47,4.47,0,0,1-.91.08,2.83,2.83,0,0,0-.54,0,.85.85,0,0,0-.33.11.41.41,0,0,0-.19.25,1.33,1.33,0,0,0-.06.42V30.08a4.28,4.28,0,0,1-.1.9,1.14,1.14,0,0,1-.5.69A2.59,2.59,0,0,1,233.9,31.93Z"/><path class="cls-2" d="M247.2,32.11a6.2,6.2,0,0,1-2.33-.46,7.11,7.11,0,0,1-2.12-1.32,6.31,6.31,0,0,1-1.51-2,6.41,6.41,0,0,1,0-5.15,6.78,6.78,0,0,1,3.47-3.47,6.16,6.16,0,0,1,2.49-.51,6.24,6.24,0,0,1,3.26.87,6.45,6.45,0,0,1,2.34,2.33,6.71,6.71,0,0,1,.31,6,6.5,6.5,0,0,1-3.58,3.32A6.17,6.17,0,0,1,247.2,32.11Zm0-3.77a2.81,2.81,0,0,0,1.22-.3,2.67,2.67,0,0,0,1.05-.9,2.61,2.61,0,0,0,.43-1.53,2.77,2.77,0,0,0-.35-1.4,2.62,2.62,0,0,0-1-.94,3,3,0,0,0-1.42-.33,2.47,2.47,0,0,0-1.33.35,2.66,2.66,0,0,0-1.32,2.34,2.71,2.71,0,0,0,.41,1.52,2.49,2.49,0,0,0,1,.9A3,3,0,0,0,247.16,28.34Z"/><path class="cls-2" d="M257.53,31.92a2.35,2.35,0,0,1-1.31-.27,1.07,1.07,0,0,1-.48-.71,4.7,4.7,0,0,1-.09-.92V21.29a4.42,4.42,0,0,1,.09-.92,1,1,0,0,1,.49-.69,2.42,2.42,0,0,1,1.32-.26,2.5,2.5,0,0,1,1.26.24,1,1,0,0,1,.49.55,1.63,1.63,0,0,1,.1.53l-.3.15a3.22,3.22,0,0,1,.26-.36A3.58,3.58,0,0,1,260,20a3.71,3.71,0,0,1,.91-.49,3.4,3.4,0,0,1,1.24-.19l.61,0a4.62,4.62,0,0,1,.7.15,3.08,3.08,0,0,1,.66.3,1.47,1.47,0,0,1,.49.47,1.11,1.11,0,0,1,.19.67,3.06,3.06,0,0,1-.48,1.74,1.4,1.4,0,0,1-1.2.71,2.11,2.11,0,0,1-.6-.06.92.92,0,0,1-.28-.15,1.17,1.17,0,0,0-.27-.15,1.61,1.61,0,0,0-.55-.07,2.77,2.77,0,0,0-.71.1,1.93,1.93,0,0,0-.62.32,1.43,1.43,0,0,0-.46.52,1.65,1.65,0,0,0-.16.71v5.48a4.53,4.53,0,0,1-.09.91,1,1,0,0,1-.49.69A2.67,2.67,0,0,1,257.53,31.92Z"/><path class="cls-2" d="M268.55,31.92a2.4,2.4,0,0,1-1.3-.27,1.1,1.1,0,0,1-.47-.7,5.37,5.37,0,0,1-.08-.93V21.27a4.43,4.43,0,0,1,.09-.9,1,1,0,0,1,.49-.69,2.52,2.52,0,0,1,1.32-.26,2.05,2.05,0,0,1,1.35.37,1.47,1.47,0,0,1,.42,1.18l-.32.28a1.87,1.87,0,0,1,.3-.43,4.92,4.92,0,0,1,.65-.62,4.1,4.1,0,0,1,.94-.56,2.8,2.8,0,0,1,1.16-.24,4.35,4.35,0,0,1,1.49.24,3.82,3.82,0,0,1,1.2.7,4.32,4.32,0,0,1,.93,1.16,7.47,7.47,0,0,1,.85-1,4.71,4.71,0,0,1,1.18-.8,3.44,3.44,0,0,1,1.53-.32,4.09,4.09,0,0,1,2.48.73,4.54,4.54,0,0,1,1.54,2.12,9.29,9.29,0,0,1,.52,3.32v4.48a4.45,4.45,0,0,1-.1.91,1.13,1.13,0,0,1-.49.7,2.41,2.41,0,0,1-1.31.26,2.47,2.47,0,0,1-1.33-.27,1.09,1.09,0,0,1-.47-.72,5.31,5.31,0,0,1-.08-.91V25.56a3.81,3.81,0,0,0-.19-1.29,1.72,1.72,0,0,0-.54-.83,1.36,1.36,0,0,0-.9-.28,1.68,1.68,0,0,0-1,.27,1.6,1.6,0,0,0-.6.8,3.7,3.7,0,0,0-.2,1.35v4.47a3.51,3.51,0,0,1-.12.94,1.25,1.25,0,0,1-.54.7,2.46,2.46,0,0,1-1.34.24,2.11,2.11,0,0,1-1.25-.29,1.12,1.12,0,0,1-.45-.73,5.14,5.14,0,0,1-.07-.88V25.55a4.55,4.55,0,0,0-.17-1.3,1.59,1.59,0,0,0-.53-.82,1.4,1.4,0,0,0-.92-.28,1.62,1.62,0,0,0-1,.32,2,2,0,0,0-.59.87,3.8,3.8,0,0,0-.18,1.21v4.5a5.25,5.25,0,0,1-.08.92,1.07,1.07,0,0,1-.49.69A2.49,2.49,0,0,1,268.55,31.92Z"/><path class="cls-2" d="M297.48,31.92a2.34,2.34,0,0,1-1.38-.33.89.89,0,0,1-.42-.8l.25-.42a2.8,2.8,0,0,1-.58.61,4.11,4.11,0,0,1-1.11.65,4.34,4.34,0,0,1-1.66.28,4.88,4.88,0,0,1-2.19-.5A5.85,5.85,0,0,1,288.55,30a7.21,7.21,0,0,1-1.27-2,6.13,6.13,0,0,1,0-4.71,6.9,6.9,0,0,1,1.29-2A6.56,6.56,0,0,1,290.41,20a4.93,4.93,0,0,1,2.17-.5,4.11,4.11,0,0,1,1.58.27,4.32,4.32,0,0,1,1.09.61,3.43,3.43,0,0,1,.66.67l-.23-.34a1.06,1.06,0,0,1,.44-.92,2.42,2.42,0,0,1,1.39-.31,2.24,2.24,0,0,1,1.29.28,1.1,1.1,0,0,1,.47.72,4.86,4.86,0,0,1,.09.95V30a5.62,5.62,0,0,1-.08.92,1.07,1.07,0,0,1-.48.71A2.39,2.39,0,0,1,297.48,31.92Zm-4.38-3.73a2.11,2.11,0,0,0,1.2-.34,2.51,2.51,0,0,0,.86-.91,2.6,2.6,0,0,0,.32-1.27,2.57,2.57,0,0,0-.32-1.29,2.42,2.42,0,0,0-.88-.89,2.3,2.3,0,0,0-1.22-.33,2.49,2.49,0,0,0-1.27.34,2.5,2.5,0,0,0-1.23,2.21,2.42,2.42,0,0,0,.33,1.24,2.59,2.59,0,0,0,.93.9A2.48,2.48,0,0,0,293.1,28.19Z"/><path class="cls-2" d="M306.35,32.15a8,8,0,0,1-1.47-.15,9.45,9.45,0,0,1-1.54-.44,5.08,5.08,0,0,1-1.25-.68,1.26,1.26,0,0,1-.56-.89,1.36,1.36,0,0,1,0-.53,2.12,2.12,0,0,1,.23-.6,4.94,4.94,0,0,1,.43-.67.94.94,0,0,1,.44-.35,1,1,0,0,1,.59,0,3.55,3.55,0,0,1,.8.26l.82.4c.29.14.58.27.88.38a2.66,2.66,0,0,0,.92.16,2.32,2.32,0,0,0,1.09-.21.65.65,0,0,0,.39-.59.64.64,0,0,0-.16-.45,1.6,1.6,0,0,0-.45-.3c-.19-.08-.42-.16-.68-.24l-.81-.21c-.28-.07-.58-.15-.9-.25a9.05,9.05,0,0,1-1.19-.45,4,4,0,0,1-1.05-.71,3.08,3.08,0,0,1-.73-1.08,3.79,3.79,0,0,1-.28-1.56,3.3,3.3,0,0,1,2.23-3.31,7.34,7.34,0,0,1,2.7-.44c.3,0,.6,0,.9.05a5.4,5.4,0,0,1,.89.18,6.74,6.74,0,0,1,.86.3,8.36,8.36,0,0,1,.85.42c.5.24.76.55.77,1a2.39,2.39,0,0,1-1,1.84.88.88,0,0,1-.62.14,4.2,4.2,0,0,1-.87-.34c-.3-.16-.63-.3-1-.44a2.84,2.84,0,0,0-1-.2,2.2,2.2,0,0,0-.73.11,1.11,1.11,0,0,0-.45.3.69.69,0,0,0-.15.44.66.66,0,0,0,.19.51,1.4,1.4,0,0,0,.51.32,7.67,7.67,0,0,0,.75.22c.28.07.59.14.93.2s.91.2,1.38.34a4.71,4.71,0,0,1,1.3.61,2.93,2.93,0,0,1,1,1.08,3.75,3.75,0,0,1,.37,1.77,3.63,3.63,0,0,1-1.38,3A6.38,6.38,0,0,1,306.35,32.15Z"/><path class="cls-4" d="M58.88,38.85a4.22,4.22,0,0,1-3.5-1.36c-.74-.91-1.1-2.5-1.1-4.77H46.74a5.31,5.31,0,0,1-3.93-1.3,4.61,4.61,0,0,1-1.28-3.36,7.21,7.21,0,0,1,1.11-3.95Q45.54,19.45,49.16,14A6.65,6.65,0,0,1,55,10.84l3.55,0c2,0,3.32.34,4,1a4.87,4.87,0,0,1,1.06,3.59V26.59a3.66,3.66,0,0,1,2.4.88,3.33,3.33,0,0,1,.65,2.27,2.8,2.8,0,0,1-.7,2.2,4,4,0,0,1-2.36.74c0,2.21-.4,3.79-1.18,4.74A4.32,4.32,0,0,1,58.88,38.85Zm-4.63-12.1.13-8.94-5.47,8.94Z"/><path class="cls-4" d="M69.23,36a2.78,2.78,0,0,1,1.16-2.31,5.4,5.4,0,0,1,3.28-.88c3,0,4.44,1.07,4.44,3.19a3.11,3.11,0,0,1-.57,2,2.69,2.69,0,0,1-1.51,1,9.11,9.11,0,0,1-2.36.26,6.13,6.13,0,0,1-3.18-.76A2.62,2.62,0,0,1,69.23,36Z"/><path class="cls-4" d="M92.51,20c0-1.37-1.24-2.06-3.71-2.06a19.79,19.79,0,0,0-2.1.15,19.29,19.29,0,0,1-1.93.15q-2.94,0-2.93-3.62t8.48-3.73q5.49,0,8.22,1.84a5.63,5.63,0,0,1,2.73,4.83,7.73,7.73,0,0,1-3.51,6.64,9.52,9.52,0,0,1,3.32,2.71,7.26,7.26,0,0,1,1,4.05,7.31,7.31,0,0,1-2.79,5.94,11.44,11.44,0,0,1-7.48,2.29c-3.91,0-6.72-.41-8.41-1.23a4,4,0,0,1-2.55-3.76,4,4,0,0,1,.82-2.88,3.15,3.15,0,0,1,2.28-.78c.49,0,1.25.06,2.28.17s1.82.17,2.37.17q4.44,0,4.44-1.68a1.63,1.63,0,0,0-.86-1.58,8,8,0,0,0-3.21-.44,6.47,6.47,0,0,1-3.34-.63,2.56,2.56,0,0,1-1-2.35c0-1.73,1.11-2.6,3.34-2.6a17.65,17.65,0,0,0,3.2-.21c.69-.14,1.09-.3,1.2-.49A1.81,1.81,0,0,0,92.51,20Z"/><path class="cls-5" d="M58.88,38.85a4.22,4.22,0,0,1-3.5-1.36c-.74-.91-1.1-2.5-1.1-4.77H46.74a5.31,5.31,0,0,1-3.93-1.3,4.61,4.61,0,0,1-1.28-3.36,7.21,7.21,0,0,1,1.11-3.95Q45.54,19.45,49.16,14A6.65,6.65,0,0,1,55,10.84l3.55,0c2,0,3.32.34,4,1a4.87,4.87,0,0,1,1.06,3.59V26.59a3.66,3.66,0,0,1,2.4.88,3.33,3.33,0,0,1,.65,2.27,2.8,2.8,0,0,1-.7,2.2,4,4,0,0,1-2.36.74c0,2.21-.4,3.79-1.18,4.74A4.32,4.32,0,0,1,58.88,38.85Zm-4.63-12.1.13-8.94-5.47,8.94Z"/><path class="cls-5" d="M69.23,36a2.78,2.78,0,0,1,1.16-2.31,5.4,5.4,0,0,1,3.28-.88c3,0,4.44,1.07,4.44,3.19a3.11,3.11,0,0,1-.57,2,2.69,2.69,0,0,1-1.51,1,9.11,9.11,0,0,1-2.36.26,6.13,6.13,0,0,1-3.18-.76A2.62,2.62,0,0,1,69.23,36Z"/><path class="cls-5" d="M92.51,20c0-1.37-1.24-2.06-3.71-2.06a19.79,19.79,0,0,0-2.1.15,19.29,19.29,0,0,1-1.93.15q-2.94,0-2.93-3.62t8.48-3.73q5.49,0,8.22,1.84a5.63,5.63,0,0,1,2.73,4.83,7.73,7.73,0,0,1-3.51,6.64,9.52,9.52,0,0,1,3.32,2.71,7.26,7.26,0,0,1,1,4.05,7.31,7.31,0,0,1-2.79,5.94,11.44,11.44,0,0,1-7.48,2.29c-3.91,0-6.72-.41-8.41-1.23a4,4,0,0,1-2.55-3.76,4,4,0,0,1,.82-2.88,3.15,3.15,0,0,1,2.28-.78c.49,0,1.25.06,2.28.17s1.82.17,2.37.17q4.44,0,4.44-1.68a1.63,1.63,0,0,0-.86-1.58,8,8,0,0,0-3.21-.44,6.47,6.47,0,0,1-3.34-.63,2.56,2.56,0,0,1-1-2.35c0-1.73,1.11-2.6,3.34-2.6a17.65,17.65,0,0,0,3.2-.21c.69-.14,1.09-.3,1.2-.49A1.81,1.81,0,0,0,92.51,20Z"/></g></g></svg>