<svg xmlns="http://www.w3.org/2000/svg" viewBox="0 0 401.16 76.3"><defs><style>.cls-1{fill:#0468ad;}.cls-2{fill:#fff;}.cls-3,.cls-4{fill:none;stroke-width:5px;}.cls-3{stroke:#c8a927;stroke-linejoin:round;}.cls-4{stroke:#fff;}.cls-5{fill:#c8a927;}</style></defs><title>43t</title><g id="Layer_2" data-name="Layer 2"><g id="pestaña_identificativa" data-name="pestaña identificativa"><rect class="cls-1" width="401.16" height="76.3" rx="32.4"/><path class="cls-2" d="M126.88,34a8.58,8.58,0,0,1-2.33-.34A9.52,9.52,0,0,1,120,30.86a8.36,8.36,0,0,1-1.51-2.55,9.38,9.38,0,0,1-.56-3.33,8.58,8.58,0,0,1,.57-3.23A8.06,8.06,0,0,1,120,19.29a8.84,8.84,0,0,1,2.13-1.74,9.54,9.54,0,0,1,2.41-1,8.84,8.84,0,0,1,2.39-.34,7.36,7.36,0,0,1,2.22.3,8.09,8.09,0,0,1,1.54.63l.76.42a9.08,9.08,0,0,1,.85.65,1.25,1.25,0,0,1,.43.9,1.61,1.61,0,0,1-.12.6,2.29,2.29,0,0,1-.34.6,3.05,3.05,0,0,1-.77.84,1.23,1.23,0,0,1-.73.26,1.16,1.16,0,0,1-.57-.15,6.85,6.85,0,0,1-.65-.4c-.12-.08-.28-.19-.5-.31a3.53,3.53,0,0,0-.89-.34,5.78,5.78,0,0,0-3.15.15,5.23,5.23,0,0,0-1.64.92,4.58,4.58,0,0,0-1.2,1.59,5.3,5.3,0,0,0-.45,2.26,5,5,0,0,0,.46,2.25,4.69,4.69,0,0,0,1.21,1.58,5.29,5.29,0,0,0,1.64.94,5.16,5.16,0,0,0,1.74.31,4.66,4.66,0,0,0,1.27-.15,5,5,0,0,0,.93-.36,7.11,7.11,0,0,0,.67-.39c.19-.11.37-.22.57-.32a1.14,1.14,0,0,1,1.3.12,3.43,3.43,0,0,1,.73.88,2.66,2.66,0,0,1,.34.64,1.64,1.64,0,0,1,.11.61,1.07,1.07,0,0,1-.41.86,7.09,7.09,0,0,1-.86.61l-.75.44a7.1,7.1,0,0,1-1.53.62A7.59,7.59,0,0,1,126.88,34Z"/><path class="cls-2" d="M140.88,34.05a6.41,6.41,0,0,1-2.34-.46,6.94,6.94,0,0,1-2.11-1.32,6.24,6.24,0,0,1-1.51-2,6,6,0,0,1-.57-2.63,6.38,6.38,0,0,1,.52-2.52A6.75,6.75,0,0,1,136.28,23a6.67,6.67,0,0,1,2.07-1.41,6.08,6.08,0,0,1,2.48-.51,6.33,6.33,0,0,1,3.26.86,6.56,6.56,0,0,1,2.34,2.34,6.27,6.27,0,0,1,.87,3.28,6.2,6.2,0,0,1-.56,2.71,6.5,6.5,0,0,1-1.5,2,6.73,6.73,0,0,1-2.08,1.28A6.36,6.36,0,0,1,140.88,34.05Zm0-3.78a2.9,2.9,0,0,0,1.22-.29,2.75,2.75,0,0,0,1-.9,2.54,2.54,0,0,0,.43-1.53,2.77,2.77,0,0,0-.35-1.4,2.48,2.48,0,0,0-1-.94,2.94,2.94,0,0,0-1.41-.34,2.6,2.6,0,0,0-1.34.35,2.76,2.76,0,0,0-.95,1,2.86,2.86,0,0,0,0,2.9,2.61,2.61,0,0,0,1,.9A3,3,0,0,0,140.83,30.27Z"/><path class="cls-2" d="M154.13,33.86a16.26,16.26,0,0,1-1.83-.1,3.9,3.9,0,0,1-1.35-.4,2.67,2.67,0,0,1-.9-.84,4,4,0,0,1-.52-1.38,10,10,0,0,1-.18-2.06V17.53a4,4,0,0,1,.1-.93,1.21,1.21,0,0,1,.49-.7,2.37,2.37,0,0,1,1.31-.27,2.24,2.24,0,0,1,1.29.28,1.15,1.15,0,0,1,.49.7,4.4,4.4,0,0,1,.1.92V28.91a4.16,4.16,0,0,0,0,.66.8.8,0,0,0,.15.41.49.49,0,0,0,.31.2,1.9,1.9,0,0,0,.52.05,2.7,2.7,0,0,1,.62.08.9.9,0,0,1,.53.45,2.53,2.53,0,0,1,.23,1.25,2.79,2.79,0,0,1-.23,1.3.89.89,0,0,1-.54.47A2.72,2.72,0,0,1,154.13,33.86Z"/><path class="cls-2" d="M163.35,34.06A6.29,6.29,0,0,1,161,33.6a7.06,7.06,0,0,1-2.11-1.32,6.12,6.12,0,0,1-2.07-4.67,6.16,6.16,0,0,1,.51-2.51,6.82,6.82,0,0,1,3.48-3.48,6.13,6.13,0,0,1,2.49-.51,6.24,6.24,0,0,1,3.26.87,6.48,6.48,0,0,1,2.34,2.34,6.69,6.69,0,0,1,.31,6,6.52,6.52,0,0,1-5.87,3.76Zm0-3.77a2.85,2.85,0,0,0,1.23-.3,2.74,2.74,0,0,0,1.05-.9,2.61,2.61,0,0,0,.42-1.53,2.77,2.77,0,0,0-.34-1.4,2.48,2.48,0,0,0-1-.93,2.8,2.8,0,0,0-1.41-.34,2.53,2.53,0,0,0-1.34.35,2.65,2.65,0,0,0-.95,1,2.93,2.93,0,0,0,0,2.9,2.49,2.49,0,0,0,1,.9A2.9,2.9,0,0,0,163.3,30.29Z"/><path class="cls-2" d="M173.68,33.87a2.52,2.52,0,0,1-1.32-.26,1.1,1.1,0,0,1-.47-.72,4.7,4.7,0,0,1-.09-.92V23.24a5.25,5.25,0,0,1,.08-.92,1.09,1.09,0,0,1,.49-.69,2.59,2.59,0,0,1,1.33-.26,2.5,2.5,0,0,1,1.26.24,1.06,1.06,0,0,1,.49.55,2,2,0,0,1,.1.53l-.3.16a2.39,2.39,0,0,1,.26-.37,3.58,3.58,0,0,1,.59-.55,3.53,3.53,0,0,1,2.15-.68l.61,0a3.7,3.7,0,0,1,.7.16,2.81,2.81,0,0,1,.66.29,1.69,1.69,0,0,1,.49.47,1.2,1.2,0,0,1,.19.67,3,3,0,0,1-.48,1.74,1.4,1.4,0,0,1-1.2.71,2.11,2.11,0,0,1-.6-.06,1,1,0,0,1-.29-.15.93.93,0,0,0-.26-.15,1.68,1.68,0,0,0-.55-.06,2.34,2.34,0,0,0-.71.1,1.85,1.85,0,0,0-.63.31,1.45,1.45,0,0,0-.61,1.23V32a4.46,4.46,0,0,1-.09.91,1,1,0,0,1-.49.69A2.58,2.58,0,0,1,173.68,33.87Z"/><path class="cls-2" d="M189.08,34.1a7.3,7.3,0,0,1-3-.57A5.86,5.86,0,0,1,184,32a6.51,6.51,0,0,1-1.2-2.09,7.09,7.09,0,0,1-.4-2.3,6.42,6.42,0,0,1,.86-3.32A6,6,0,0,1,185.62,22a7.11,7.11,0,0,1,3.46-.83,6.18,6.18,0,0,1,2.51.46,5.13,5.13,0,0,1,1.75,1.2,5.22,5.22,0,0,1,1,1.59,4.54,4.54,0,0,1,.34,1.63,2.89,2.89,0,0,1-.67,2.05,2.25,2.25,0,0,1-1.69.67H186.4a1.77,1.77,0,0,0,.47,1.07,2.69,2.69,0,0,0,1,.7,3.5,3.5,0,0,0,1.33.25,7.94,7.94,0,0,0,1-.06,4.3,4.3,0,0,0,.79-.17l.59-.23.49-.19a2.45,2.45,0,0,1,.42-.09,1,1,0,0,1,.68.21,2,2,0,0,1,.57.71,1.65,1.65,0,0,1,.24.53,2.07,2.07,0,0,1,.06.5,1.32,1.32,0,0,1-.61,1.08,4.73,4.73,0,0,1-1.73.74A11.47,11.47,0,0,1,189.08,34.1Zm-2.68-7.4h3.95a1,1,0,0,0,.58-.13.62.62,0,0,0,.2-.54,1.27,1.27,0,0,0-.27-.78,1.76,1.76,0,0,0-.74-.53,2.8,2.8,0,0,0-1.09-.19,3,3,0,0,0-1.35.3,2.38,2.38,0,0,0-.94.8A1.91,1.91,0,0,0,186.4,26.7Z"/><path class="cls-2" d="M207,33.86a2.36,2.36,0,0,1-1.37-.32.91.91,0,0,1-.43-.8l.25-.43a3,3,0,0,1-.57.62,4.34,4.34,0,0,1-1.12.64,4.15,4.15,0,0,1-1.66.29,5,5,0,0,1-2.19-.5A5.85,5.85,0,0,1,198.08,32a7,7,0,0,1-1.28-2,6.16,6.16,0,0,1-.47-2.38,6.07,6.07,0,0,1,.47-2.34,6.85,6.85,0,0,1,1.29-2,6.51,6.51,0,0,1,1.84-1.36,5,5,0,0,1,2.18-.5,4.3,4.3,0,0,1,1.57.26,4.16,4.16,0,0,1,1.09.62,3.43,3.43,0,0,1,.66.67l-.22-.35a1,1,0,0,1,.43-.91,2.44,2.44,0,0,1,1.39-.31,2.34,2.34,0,0,1,1.29.27,1.16,1.16,0,0,1,.48.73,5.8,5.8,0,0,1,.08.95V32a4.73,4.73,0,0,1-.09.93,1.07,1.07,0,0,1-.48.71A2.38,2.38,0,0,1,207,33.86Zm-4.37-3.72a2.21,2.21,0,0,0,1.2-.34A2.56,2.56,0,0,0,205,27.61a2.52,2.52,0,0,0-.32-1.29,2.4,2.4,0,0,0-.88-.88,2.3,2.3,0,0,0-1.22-.33,2.33,2.33,0,0,0-1.26.34,2.53,2.53,0,0,0-1.24,2.21,2.34,2.34,0,0,0,.34,1.24,2.56,2.56,0,0,0,.92.9A2.59,2.59,0,0,0,202.63,30.14Z"/><path class="cls-2" d="M224.1,34.12a7.25,7.25,0,0,1-3-.57A5.86,5.86,0,0,1,219,32a6.16,6.16,0,0,1-1.2-2.09,6.82,6.82,0,0,1-.4-2.29,6.45,6.45,0,0,1,.85-3.33A6.18,6.18,0,0,1,220.64,22a7.15,7.15,0,0,1,3.47-.83,6.25,6.25,0,0,1,2.51.46,5.23,5.23,0,0,1,1.75,1.2,5.11,5.11,0,0,1,1,1.59,4.33,4.33,0,0,1,.34,1.63,2.84,2.84,0,0,1-.66,2.05,2.28,2.28,0,0,1-1.69.67h-5.95a1.71,1.71,0,0,0,.46,1.07,2.66,2.66,0,0,0,1,.7,3.44,3.44,0,0,0,1.32.25,8.22,8.22,0,0,0,1-.06,4.49,4.49,0,0,0,.79-.17c.21-.08.41-.15.58-.23l.49-.18a1.78,1.78,0,0,1,.43-.1,1,1,0,0,1,.67.21,2.11,2.11,0,0,1,.58.71,2,2,0,0,1,.23.53,1.68,1.68,0,0,1,.07.5,1.33,1.33,0,0,1-.62,1.08,4.68,4.68,0,0,1-1.72.74A11.56,11.56,0,0,1,224.1,34.12Zm-2.67-7.4h3.95a.93.93,0,0,0,.57-.13c.14-.09.2-.27.2-.54a1.27,1.27,0,0,0-.27-.78,1.7,1.7,0,0,0-.74-.53,2.8,2.8,0,0,0-1.09-.19,2.93,2.93,0,0,0-1.34.3,2.25,2.25,0,0,0-.94.8A1.84,1.84,0,0,0,221.43,26.72Z"/><path class="cls-2" d="M236.63,33.91a16.26,16.26,0,0,1-1.83-.1,3.7,3.7,0,0,1-1.35-.41,2.39,2.39,0,0,1-.9-.83,4,4,0,0,1-.52-1.38,10,10,0,0,1-.18-2.06V17.58a4,4,0,0,1,.1-.93,1.21,1.21,0,0,1,.49-.7,2.37,2.37,0,0,1,1.31-.27,2.24,2.24,0,0,1,1.29.28,1.15,1.15,0,0,1,.49.7,4.42,4.42,0,0,1,.09.92V29a6.12,6.12,0,0,0,0,.66,1,1,0,0,0,.15.41.54.54,0,0,0,.32.2,1.86,1.86,0,0,0,.52.05,2.55,2.55,0,0,1,.61.08.89.89,0,0,1,.54.45,2.53,2.53,0,0,1,.23,1.25,2.79,2.79,0,0,1-.23,1.3.89.89,0,0,1-.54.47A2.72,2.72,0,0,1,236.63,33.91Z"/><path class="cls-2" d="M247.16,21.61h2.75l3.45-.09a4.43,4.43,0,0,1,.9.09,1.11,1.11,0,0,1,.7.48,2.47,2.47,0,0,1,.27,1.33,2.4,2.4,0,0,1-.26,1.25,1.2,1.2,0,0,1-.69.51,3.83,3.83,0,0,1-.93.11l-3.27-.08-3,0a1.27,1.27,0,0,1-1-.47,2.41,2.41,0,0,1-.28-1.38,2.08,2.08,0,0,1,.35-1.34A1.26,1.26,0,0,1,247.16,21.61Zm5.64,12.31a7.9,7.9,0,0,1-2.2-.28,3.37,3.37,0,0,1-2.39-2.31,7,7,0,0,1-.28-2.12V19.09a4.31,4.31,0,0,1,.09-.93,1.08,1.08,0,0,1,.49-.66,2.51,2.51,0,0,1,1.3-.26,2.3,2.3,0,0,1,1.3.28,1.1,1.1,0,0,1,.49.71,5.31,5.31,0,0,1,.08.91v9.93a3.1,3.1,0,0,0,.06.66.79.79,0,0,0,.19.39.68.68,0,0,0,.35.17,2.79,2.79,0,0,0,.55.05,4.67,4.67,0,0,1,1,.1,1,1,0,0,1,.66.45,2.19,2.19,0,0,1,.24,1.18,2.3,2.3,0,0,1-.28,1.3,1.07,1.07,0,0,1-.71.47A5.31,5.31,0,0,1,252.8,33.92Z"/><path class="cls-2" d="M259,33.92a2.5,2.5,0,0,1-1.31-.26,1.1,1.1,0,0,1-.47-.72,4.63,4.63,0,0,1-.09-.92V23.29a4.44,4.44,0,0,1,.08-.92,1.08,1.08,0,0,1,.49-.69,2.59,2.59,0,0,1,1.33-.26,2.5,2.5,0,0,1,1.26.24,1.06,1.06,0,0,1,.49.55,2.08,2.08,0,0,1,.1.54l-.3.15a2.39,2.39,0,0,1,.26-.37,4.06,4.06,0,0,1,.59-.55,3.53,3.53,0,0,1,2.15-.68,4.66,4.66,0,0,1,.61,0,3.14,3.14,0,0,1,.7.15,2.47,2.47,0,0,1,.66.3,1.66,1.66,0,0,1,.49.46,1.2,1.2,0,0,1,.19.67,3,3,0,0,1-.48,1.74,1.4,1.4,0,0,1-1.2.71,2.11,2.11,0,0,1-.6-.06,1,1,0,0,1-.29-.15.93.93,0,0,0-.26-.15,1.68,1.68,0,0,0-.55-.06,2.34,2.34,0,0,0-.71.1,1.85,1.85,0,0,0-.63.31,1.6,1.6,0,0,0-.45.52,1.53,1.53,0,0,0-.16.72v5.47a4.47,4.47,0,0,1-.08.91,1,1,0,0,1-.49.69A2.6,2.6,0,0,1,259,33.92Z"/><path class="cls-2" d="M270.23,19.63a2.52,2.52,0,0,1-1.35-.28,1.08,1.08,0,0,1-.48-.72,5.16,5.16,0,0,1,0-1.92,1.06,1.06,0,0,1,.5-.7,2.69,2.69,0,0,1,1.36-.26,2.37,2.37,0,0,1,1.33.28,1.11,1.11,0,0,1,.48.72,5,5,0,0,1,.09,1,4.7,4.7,0,0,1-.09.92,1.05,1.05,0,0,1-.49.71A2.48,2.48,0,0,1,270.23,19.63Zm0,14.3a2.46,2.46,0,0,1-1.32-.27,1,1,0,0,1-.48-.7,5.33,5.33,0,0,1-.07-.91V23.33a4.57,4.57,0,0,1,.08-.92,1.08,1.08,0,0,1,.49-.7,2.59,2.59,0,0,1,1.33-.26,2.18,2.18,0,0,1,1.28.28,1.12,1.12,0,0,1,.48.71,4.62,4.62,0,0,1,.09.94v8.7A4.46,4.46,0,0,1,272,33a1,1,0,0,1-.47.69A2.64,2.64,0,0,1,270.22,33.93Z"/><path class="cls-2" d="M285,33.91a2.33,2.33,0,0,1-1.37-.33.91.91,0,0,1-.43-.8l.25-.42a2.5,2.5,0,0,1-.57.61,4.28,4.28,0,0,1-1.11.65,4.38,4.38,0,0,1-1.67.29,5,5,0,0,1-2.18-.5A6,6,0,0,1,276.05,32a7,7,0,0,1-1.27-2,6,6,0,0,1-.48-2.37,5.83,5.83,0,0,1,.48-2.34,6.72,6.72,0,0,1,1.29-2A6.07,6.07,0,0,1,277.91,22a4.77,4.77,0,0,1,2.17-.5,4.35,4.35,0,0,1,1.58.26,4.57,4.57,0,0,1,1.08.61,3.53,3.53,0,0,1,.67.68l-.23-.35a1.05,1.05,0,0,1,.44-.91,2.4,2.4,0,0,1,1.39-.31,2.28,2.28,0,0,1,1.28.27,1.16,1.16,0,0,1,.48.73,4.79,4.79,0,0,1,.09.95V32a4.73,4.73,0,0,1-.09.93,1.08,1.08,0,0,1-.47.71A2.52,2.52,0,0,1,285,33.91Zm-4.37-3.73a2.21,2.21,0,0,0,1.2-.33,2.6,2.6,0,0,0,.85-.92,2.48,2.48,0,0,0,.33-1.27,2.53,2.53,0,0,0-.33-1.29,2.4,2.4,0,0,0-.87-.89,2.55,2.55,0,0,0-2.49,0,2.64,2.64,0,0,0-.9.92,2.54,2.54,0,0,0-.34,1.3,2.28,2.28,0,0,0,.34,1.23,2.51,2.51,0,0,0,.92.91A2.61,2.61,0,0,0,280.6,30.18Zm-.84-9.65a.82.82,0,0,1-.74-.25,2.63,2.63,0,0,1-.51-1,2,2,0,0,1-.1-1.3,1.38,1.38,0,0,1,.92-.67l4.4-1.35a.88.88,0,0,1,.73.29,2.4,2.4,0,0,1,.5,1,1.93,1.93,0,0,1,.09,1.27,1.35,1.35,0,0,1-.92.68Z"/><path class="cls-2" d="M291.22,33.91a2.41,2.41,0,0,1-1.31-.26,1.06,1.06,0,0,1-.47-.7,4.46,4.46,0,0,1-.09-.91v-8.8a4.19,4.19,0,0,1,.09-.89,1,1,0,0,1,.49-.66,2.6,2.6,0,0,1,1.33-.25,2.49,2.49,0,0,1,1.17.21,1.06,1.06,0,0,1,.49.52,1.64,1.64,0,0,1,.11.56,1,1,0,0,0,.05.36l-.15.47a1.43,1.43,0,0,1,.39-.76,3.53,3.53,0,0,1,.85-.7,4.7,4.7,0,0,1,1.1-.48,4,4,0,0,1,1.16-.18,5.05,5.05,0,0,1,2.14.44,4.41,4.41,0,0,1,1.59,1.26,5.81,5.81,0,0,1,1,1.94,8.22,8.22,0,0,1,.34,2.44v4.55a5.31,5.31,0,0,1-.08.91,1.06,1.06,0,0,1-.48.69,2.57,2.57,0,0,1-1.34.25,2.54,2.54,0,0,1-1.32-.26,1.08,1.08,0,0,1-.49-.7,4.63,4.63,0,0,1-.09-.92V27.52a2.92,2.92,0,0,0-.26-1.28,1.93,1.93,0,0,0-.75-.8,2.5,2.5,0,0,0-1.22-.27,2.59,2.59,0,0,0-1.25.28,2.06,2.06,0,0,0-.81.82,2.57,2.57,0,0,0-.29,1.25v4.55A4.53,4.53,0,0,1,293,33a1.08,1.08,0,0,1-.47.69A2.66,2.66,0,0,1,291.22,33.91Z"/><path class="cls-2" d="M309.1,33.62a5,5,0,0,1-2.16-.48,6,6,0,0,1-1.79-1.34,6.55,6.55,0,0,1-1.22-1.95,6.12,6.12,0,0,1-.45-2.33,6,6,0,0,1,.45-2.31A6.2,6.2,0,0,1,307,22a4.72,4.72,0,0,1,2.11-.48,3.84,3.84,0,0,1,1.9.43,3.41,3.41,0,0,1,1.25,1.25,6.56,6.56,0,0,1,.71,1.93,11.82,11.82,0,0,1,.24,2.49,11,11,0,0,1-.42,3.21,4.2,4.2,0,0,1-1.3,2.1A3.53,3.53,0,0,1,309.1,33.62Zm.45,5.48a7,7,0,0,1-1.77-.23,7.61,7.61,0,0,1-1.58-.6,4.28,4.28,0,0,1-1.15-.8,1.19,1.19,0,0,1-.43-.85,1.77,1.77,0,0,1,.15-.73,2.46,2.46,0,0,1,.45-.67,7,7,0,0,1,.6-.57.91.91,0,0,1,.6-.2,1.07,1.07,0,0,1,.63.19l.58.41a3.63,3.63,0,0,0,.79.41,3.21,3.21,0,0,0,1.2.19,2.26,2.26,0,0,0,.94-.19,2,2,0,0,0,.75-.55,2.65,2.65,0,0,0,.5-.85A2.85,2.85,0,0,0,312,33V22.63a1.22,1.22,0,0,1,.52-.94,2.49,2.49,0,0,1,1.34-.29,2.21,2.21,0,0,1,1.25.27,1.07,1.07,0,0,1,.46.68,4.43,4.43,0,0,1,.08.9v9.88a5.92,5.92,0,0,1-.53,2.54,5.71,5.71,0,0,1-1.4,1.87,6,6,0,0,1-2,1.16A6.27,6.27,0,0,1,309.55,39.1Zm0-9.1a2.13,2.13,0,0,0,1.2-.34,2.42,2.42,0,0,0,.83-.88,2.5,2.5,0,0,0,.32-1.25,2.54,2.54,0,0,0-.31-1.25,2.47,2.47,0,0,0-.85-.88,2.29,2.29,0,0,0-1.22-.32,2.13,2.13,0,0,0-1.2.33,2.47,2.47,0,0,0-1.15,2.14,2.3,2.3,0,0,0,.33,1.22,2.45,2.45,0,0,0,.86.89A2.15,2.15,0,0,0,309.53,30Z"/><path class="cls-2" d="M323.6,33.93a5.25,5.25,0,0,1-2.18-.45,5.43,5.43,0,0,1-1.75-1.26,5.85,5.85,0,0,1-1.16-1.93,7,7,0,0,1-.41-2.43V23.33a4.59,4.59,0,0,1,.09-.93,1.08,1.08,0,0,1,.49-.69,2.35,2.35,0,0,1,1.32-.28,2.31,2.31,0,0,1,1.32.28,1.1,1.1,0,0,1,.47.71,4.62,4.62,0,0,1,.09.94v4.5a2.78,2.78,0,0,0,.26,1.26,1.73,1.73,0,0,0,.77.81,2.46,2.46,0,0,0,1.21.28,2.5,2.5,0,0,0,1.24-.29,2,2,0,0,0,.8-.81,2.59,2.59,0,0,0,.29-1.25V23.31a4.42,4.42,0,0,1,.09-.92,1,1,0,0,1,.49-.69,2.47,2.47,0,0,1,1.32-.26,2.41,2.41,0,0,1,1.32.27,1.13,1.13,0,0,1,.47.72,4.46,4.46,0,0,1,.09.91v8.8a4.88,4.88,0,0,1-.08.88,1.06,1.06,0,0,1-.49.67,2.63,2.63,0,0,1-1.3.25,2.92,2.92,0,0,1-1.05-.15,1.25,1.25,0,0,1-.55-.38.94.94,0,0,1-.21-.47,2.57,2.57,0,0,1,0-.45l.32-.28a2.75,2.75,0,0,1-.32.39,7.18,7.18,0,0,1-.66.57,4.28,4.28,0,0,1-1,.54A3.31,3.31,0,0,1,323.6,33.93Z"/><path class="cls-2" d="M337.52,34a16.21,16.21,0,0,1-1.82-.1,3.77,3.77,0,0,1-1.35-.4,2.42,2.42,0,0,1-.9-.84,4,4,0,0,1-.53-1.38,10.81,10.81,0,0,1-.17-2.06V17.64a4,4,0,0,1,.1-.93,1.17,1.17,0,0,1,.49-.7,2.35,2.35,0,0,1,1.31-.27A2.24,2.24,0,0,1,336,16a1.14,1.14,0,0,1,.48.7,3.82,3.82,0,0,1,.1.92V29a6.12,6.12,0,0,0,0,.66,1,1,0,0,0,.15.41.54.54,0,0,0,.31.2,2,2,0,0,0,.53.05,2.62,2.62,0,0,1,.61.08.89.89,0,0,1,.54.45,2.55,2.55,0,0,1,.22,1.25,2.81,2.81,0,0,1-.22,1.3.89.89,0,0,1-.54.47A2.74,2.74,0,0,1,337.52,34Z"/><path class="cls-2" d="M346.75,34.17a6.21,6.21,0,0,1-2.34-.46,7.24,7.24,0,0,1-2.11-1.31,6.38,6.38,0,0,1-1.51-2,6,6,0,0,1-.56-2.64,6.16,6.16,0,0,1,.51-2.51,6.51,6.51,0,0,1,1.41-2.06,6.7,6.7,0,0,1,2.07-1.42,6.09,6.09,0,0,1,2.49-.51,6.29,6.29,0,0,1,3.26.87,6.45,6.45,0,0,1,2.33,2.34,6.61,6.61,0,0,1,.31,6,6.35,6.35,0,0,1-1.5,2A6.53,6.53,0,0,1,349,33.74,6.4,6.4,0,0,1,346.75,34.17Zm-.05-3.77A2.89,2.89,0,0,0,349,29.2a2.61,2.61,0,0,0,.42-1.53,2.67,2.67,0,0,0-.35-1.4,2.39,2.39,0,0,0-1-.93,2.83,2.83,0,0,0-1.41-.34,2.51,2.51,0,0,0-1.34.35,2.65,2.65,0,0,0-.95,1A2.69,2.69,0,0,0,344,27.7a2.6,2.6,0,0,0,.41,1.51,2.47,2.47,0,0,0,1,.9A3,3,0,0,0,346.7,30.4Z"/><path class="cls-3" d="M126.88,34a8.58,8.58,0,0,1-2.33-.34A9.52,9.52,0,0,1,120,30.86a8.36,8.36,0,0,1-1.51-2.55,9.38,9.38,0,0,1-.56-3.33,8.58,8.58,0,0,1,.57-3.23A8.06,8.06,0,0,1,120,19.29a8.84,8.84,0,0,1,2.13-1.74,9.54,9.54,0,0,1,2.41-1,8.84,8.84,0,0,1,2.39-.34,7.36,7.36,0,0,1,2.22.3,8.09,8.09,0,0,1,1.54.63l.76.42a9.08,9.08,0,0,1,.85.65,1.25,1.25,0,0,1,.43.9,1.61,1.61,0,0,1-.12.6,2.29,2.29,0,0,1-.34.6,3.05,3.05,0,0,1-.77.84,1.23,1.23,0,0,1-.73.26,1.16,1.16,0,0,1-.57-.15,6.85,6.85,0,0,1-.65-.4c-.12-.08-.28-.19-.5-.31a3.53,3.53,0,0,0-.89-.34,5.78,5.78,0,0,0-3.15.15,5.23,5.23,0,0,0-1.64.92,4.58,4.58,0,0,0-1.2,1.59,5.3,5.3,0,0,0-.45,2.26,5,5,0,0,0,.46,2.25,4.69,4.69,0,0,0,1.21,1.58,5.29,5.29,0,0,0,1.64.94,5.16,5.16,0,0,0,1.74.31,4.66,4.66,0,0,0,1.27-.15,5,5,0,0,0,.93-.36,7.11,7.11,0,0,0,.67-.39c.19-.11.37-.22.57-.32a1.14,1.14,0,0,1,1.3.12,3.43,3.43,0,0,1,.73.88,2.66,2.66,0,0,1,.34.64,1.64,1.64,0,0,1,.11.61,1.07,1.07,0,0,1-.41.86,7.09,7.09,0,0,1-.86.61l-.75.44a7.1,7.1,0,0,1-1.53.62A7.59,7.59,0,0,1,126.88,34Z"/><path class="cls-3" d="M140.88,34.05a6.41,6.41,0,0,1-2.34-.46,6.94,6.94,0,0,1-2.11-1.32,6.24,6.24,0,0,1-1.51-2,6,6,0,0,1-.57-2.63,6.38,6.38,0,0,1,.52-2.52A6.75,6.75,0,0,1,136.28,23a6.67,6.67,0,0,1,2.07-1.41,6.08,6.08,0,0,1,2.48-.51,6.33,6.33,0,0,1,3.26.86,6.56,6.56,0,0,1,2.34,2.34,6.27,6.27,0,0,1,.87,3.28,6.2,6.2,0,0,1-.56,2.71,6.5,6.5,0,0,1-1.5,2,6.73,6.73,0,0,1-2.08,1.28A6.36,6.36,0,0,1,140.88,34.05Zm0-3.78a2.9,2.9,0,0,0,1.22-.29,2.75,2.75,0,0,0,1-.9,2.54,2.54,0,0,0,.43-1.53,2.77,2.77,0,0,0-.35-1.4,2.48,2.48,0,0,0-1-.94,2.94,2.94,0,0,0-1.41-.34,2.6,2.6,0,0,0-1.34.35,2.76,2.76,0,0,0-.95,1,2.86,2.86,0,0,0,0,2.9,2.61,2.61,0,0,0,1,.9A3,3,0,0,0,140.83,30.27Z"/><path class="cls-3" d="M154.13,33.86a16.26,16.26,0,0,1-1.83-.1,3.9,3.9,0,0,1-1.35-.4,2.67,2.67,0,0,1-.9-.84,4,4,0,0,1-.52-1.38,10,10,0,0,1-.18-2.06V17.53a4,4,0,0,1,.1-.93,1.21,1.21,0,0,1,.49-.7,2.37,2.37,0,0,1,1.31-.27,2.24,2.24,0,0,1,1.29.28,1.15,1.15,0,0,1,.49.7,4.4,4.4,0,0,1,.1.92V28.91a4.16,4.16,0,0,0,0,.66.8.8,0,0,0,.15.41.49.49,0,0,0,.31.2,1.9,1.9,0,0,0,.52.05,2.7,2.7,0,0,1,.62.08.9.9,0,0,1,.53.45,2.53,2.53,0,0,1,.23,1.25,2.79,2.79,0,0,1-.23,1.3.89.89,0,0,1-.54.47A2.72,2.72,0,0,1,154.13,33.86Z"/><path class="cls-3" d="M163.35,34.06A6.29,6.29,0,0,1,161,33.6a7.06,7.06,0,0,1-2.11-1.32,6.12,6.12,0,0,1-2.07-4.67,6.16,6.16,0,0,1,.51-2.51,6.82,6.82,0,0,1,3.48-3.48,6.13,6.13,0,0,1,2.49-.51,6.24,6.24,0,0,1,3.26.87,6.48,6.48,0,0,1,2.34,2.34,6.69,6.69,0,0,1,.31,6,6.52,6.52,0,0,1-5.87,3.76Zm0-3.77a2.85,2.85,0,0,0,1.23-.3,2.74,2.74,0,0,0,1.05-.9,2.61,2.61,0,0,0,.42-1.53,2.77,2.77,0,0,0-.34-1.4,2.48,2.48,0,0,0-1-.93,2.8,2.8,0,0,0-1.41-.34,2.53,2.53,0,0,0-1.34.35,2.65,2.65,0,0,0-.95,1,2.93,2.93,0,0,0,0,2.9,2.49,2.49,0,0,0,1,.9A2.9,2.9,0,0,0,163.3,30.29Z"/><path class="cls-3" d="M173.68,33.87a2.52,2.52,0,0,1-1.32-.26,1.1,1.1,0,0,1-.47-.72,4.7,4.7,0,0,1-.09-.92V23.24a5.25,5.25,0,0,1,.08-.92,1.09,1.09,0,0,1,.49-.69,2.59,2.59,0,0,1,1.33-.26,2.5,2.5,0,0,1,1.26.24,1.06,1.06,0,0,1,.49.55,2,2,0,0,1,.1.53l-.3.16a2.39,2.39,0,0,1,.26-.37,3.58,3.58,0,0,1,.59-.55,3.53,3.53,0,0,1,2.15-.68l.61,0a3.7,3.7,0,0,1,.7.16,2.81,2.81,0,0,1,.66.29,1.69,1.69,0,0,1,.49.47,1.2,1.2,0,0,1,.19.67,3,3,0,0,1-.48,1.74,1.4,1.4,0,0,1-1.2.71,2.11,2.11,0,0,1-.6-.06,1,1,0,0,1-.29-.15.93.93,0,0,0-.26-.15,1.68,1.68,0,0,0-.55-.06,2.34,2.34,0,0,0-.71.1,1.85,1.85,0,0,0-.63.31,1.45,1.45,0,0,0-.61,1.23V32a4.46,4.46,0,0,1-.09.91,1,1,0,0,1-.49.69A2.58,2.58,0,0,1,173.68,33.87Z"/><path class="cls-3" d="M189.08,34.1a7.3,7.3,0,0,1-3-.57A5.86,5.86,0,0,1,184,32a6.51,6.51,0,0,1-1.2-2.09,7.09,7.09,0,0,1-.4-2.3,6.42,6.42,0,0,1,.86-3.32A6,6,0,0,1,185.62,22a7.11,7.11,0,0,1,3.46-.83,6.18,6.18,0,0,1,2.51.46,5.13,5.13,0,0,1,1.75,1.2,5.22,5.22,0,0,1,1,1.59,4.54,4.54,0,0,1,.34,1.63,2.89,2.89,0,0,1-.67,2.05,2.25,2.25,0,0,1-1.69.67H186.4a1.77,1.77,0,0,0,.47,1.07,2.69,2.69,0,0,0,1,.7,3.5,3.5,0,0,0,1.33.25,7.94,7.94,0,0,0,1-.06,4.3,4.3,0,0,0,.79-.17l.59-.23.49-.19a2.45,2.45,0,0,1,.42-.09,1,1,0,0,1,.68.21,2,2,0,0,1,.57.71,1.65,1.65,0,0,1,.24.53,2.07,2.07,0,0,1,.06.5,1.32,1.32,0,0,1-.61,1.08,4.73,4.73,0,0,1-1.73.74A11.47,11.47,0,0,1,189.08,34.1Zm-2.68-7.4h3.95a1,1,0,0,0,.58-.13.62.62,0,0,0,.2-.54,1.27,1.27,0,0,0-.27-.78,1.76,1.76,0,0,0-.74-.53,2.8,2.8,0,0,0-1.09-.19,3,3,0,0,0-1.35.3,2.38,2.38,0,0,0-.94.8A1.91,1.91,0,0,0,186.4,26.7Z"/><path class="cls-3" d="M207,33.86a2.36,2.36,0,0,1-1.37-.32.91.91,0,0,1-.43-.8l.25-.43a3,3,0,0,1-.57.62,4.34,4.34,0,0,1-1.12.64,4.15,4.15,0,0,1-1.66.29,5,5,0,0,1-2.19-.5A5.85,5.85,0,0,1,198.08,32a7,7,0,0,1-1.28-2,6.16,6.16,0,0,1-.47-2.38,6.07,6.07,0,0,1,.47-2.34,6.85,6.85,0,0,1,1.29-2,6.51,6.51,0,0,1,1.84-1.36,5,5,0,0,1,2.18-.5,4.3,4.3,0,0,1,1.57.26,4.16,4.16,0,0,1,1.09.62,3.43,3.43,0,0,1,.66.67l-.22-.35a1,1,0,0,1,.43-.91,2.44,2.44,0,0,1,1.39-.31,2.34,2.34,0,0,1,1.29.27,1.16,1.16,0,0,1,.48.73,5.8,5.8,0,0,1,.08.95V32a4.73,4.73,0,0,1-.09.93,1.07,1.07,0,0,1-.48.71A2.38,2.38,0,0,1,207,33.86Zm-4.37-3.72a2.21,2.21,0,0,0,1.2-.34A2.56,2.56,0,0,0,205,27.61a2.52,2.52,0,0,0-.32-1.29,2.4,2.4,0,0,0-.88-.88,2.3,2.3,0,0,0-1.22-.33,2.33,2.33,0,0,0-1.26.34,2.53,2.53,0,0,0-1.24,2.21,2.34,2.34,0,0,0,.34,1.24,2.56,2.56,0,0,0,.92.9A2.59,2.59,0,0,0,202.63,30.14Z"/><path class="cls-3" d="M224.1,34.12a7.25,7.25,0,0,1-3-.57A5.86,5.86,0,0,1,219,32a6.16,6.16,0,0,1-1.2-2.09,6.82,6.82,0,0,1-.4-2.29,6.45,6.45,0,0,1,.85-3.33A6.18,6.18,0,0,1,220.64,22a7.15,7.15,0,0,1,3.47-.83,6.25,6.25,0,0,1,2.51.46,5.23,5.23,0,0,1,1.75,1.2,5.11,5.11,0,0,1,1,1.59,4.33,4.33,0,0,1,.34,1.63,2.84,2.84,0,0,1-.66,2.05,2.28,2.28,0,0,1-1.69.67h-5.95a1.71,1.71,0,0,0,.46,1.07,2.66,2.66,0,0,0,1,.7,3.44,3.44,0,0,0,1.32.25,8.22,8.22,0,0,0,1-.06,4.49,4.49,0,0,0,.79-.17c.21-.08.41-.15.58-.23l.49-.18a1.78,1.78,0,0,1,.43-.1,1,1,0,0,1,.67.21,2.11,2.11,0,0,1,.58.71,2,2,0,0,1,.23.53,1.68,1.68,0,0,1,.07.5,1.33,1.33,0,0,1-.62,1.08,4.68,4.68,0,0,1-1.72.74A11.56,11.56,0,0,1,224.1,34.12Zm-2.67-7.4h3.95a.93.93,0,0,0,.57-.13c.14-.09.2-.27.2-.54a1.27,1.27,0,0,0-.27-.78,1.7,1.7,0,0,0-.74-.53,2.8,2.8,0,0,0-1.09-.19,2.93,2.93,0,0,0-1.34.3,2.25,2.25,0,0,0-.94.8A1.84,1.84,0,0,0,221.43,26.72Z"/><path class="cls-3" d="M236.63,33.91a16.26,16.26,0,0,1-1.83-.1,3.7,3.7,0,0,1-1.35-.41,2.39,2.39,0,0,1-.9-.83,4,4,0,0,1-.52-1.38,10,10,0,0,1-.18-2.06V17.58a4,4,0,0,1,.1-.93,1.21,1.21,0,0,1,.49-.7,2.37,2.37,0,0,1,1.31-.27,2.24,2.24,0,0,1,1.29.28,1.15,1.15,0,0,1,.49.7,4.42,4.42,0,0,1,.09.92V29a6.12,6.12,0,0,0,0,.66,1,1,0,0,0,.15.41.54.54,0,0,0,.32.2,1.86,1.86,0,0,0,.52.05,2.55,2.55,0,0,1,.61.08.89.89,0,0,1,.54.45,2.53,2.53,0,0,1,.23,1.25,2.79,2.79,0,0,1-.23,1.3.89.89,0,0,1-.54.47A2.72,2.72,0,0,1,236.63,33.91Z"/><path class="cls-3" d="M247.16,21.61h2.75l3.45-.09a4.43,4.43,0,0,1,.9.09,1.11,1.11,0,0,1,.7.48,2.47,2.47,0,0,1,.27,1.33,2.4,2.4,0,0,1-.26,1.25,1.2,1.2,0,0,1-.69.51,3.83,3.83,0,0,1-.93.11l-3.27-.08-3,0a1.27,1.27,0,0,1-1-.47,2.41,2.41,0,0,1-.28-1.38,2.08,2.08,0,0,1,.35-1.34A1.26,1.26,0,0,1,247.16,21.61Zm5.64,12.31a7.9,7.9,0,0,1-2.2-.28,3.37,3.37,0,0,1-2.39-2.31,7,7,0,0,1-.28-2.12V19.09a4.31,4.31,0,0,1,.09-.93,1.08,1.08,0,0,1,.49-.66,2.51,2.51,0,0,1,1.3-.26,2.3,2.3,0,0,1,1.3.28,1.1,1.1,0,0,1,.49.71,5.31,5.31,0,0,1,.08.91v9.93a3.1,3.1,0,0,0,.06.66.79.79,0,0,0,.19.39.68.68,0,0,0,.35.17,2.79,2.79,0,0,0,.55.05,4.67,4.67,0,0,1,1,.1,1,1,0,0,1,.66.45,2.19,2.19,0,0,1,.24,1.18,2.3,2.3,0,0,1-.28,1.3,1.07,1.07,0,0,1-.71.47A5.31,5.31,0,0,1,252.8,33.92Z"/><path class="cls-3" d="M259,33.92a2.5,2.5,0,0,1-1.31-.26,1.1,1.1,0,0,1-.47-.72,4.63,4.63,0,0,1-.09-.92V23.29a4.44,4.44,0,0,1,.08-.92,1.08,1.08,0,0,1,.49-.69,2.59,2.59,0,0,1,1.33-.26,2.5,2.5,0,0,1,1.26.24,1.06,1.06,0,0,1,.49.55,2.08,2.08,0,0,1,.1.54l-.3.15a2.39,2.39,0,0,1,.26-.37,4.06,4.06,0,0,1,.59-.55,3.53,3.53,0,0,1,2.15-.68,4.66,4.66,0,0,1,.61,0,3.14,3.14,0,0,1,.7.15,2.47,2.47,0,0,1,.66.3,1.66,1.66,0,0,1,.49.46,1.2,1.2,0,0,1,.19.67,3,3,0,0,1-.48,1.74,1.4,1.4,0,0,1-1.2.71,2.11,2.11,0,0,1-.6-.06,1,1,0,0,1-.29-.15.93.93,0,0,0-.26-.15,1.68,1.68,0,0,0-.55-.06,2.34,2.34,0,0,0-.71.1,1.85,1.85,0,0,0-.63.31,1.6,1.6,0,0,0-.45.52,1.53,1.53,0,0,0-.16.72v5.47a4.47,4.47,0,0,1-.08.91,1,1,0,0,1-.49.69A2.6,2.6,0,0,1,259,33.92Z"/><path class="cls-3" d="M270.23,19.63a2.52,2.52,0,0,1-1.35-.28,1.08,1.08,0,0,1-.48-.72,5.16,5.16,0,0,1,0-1.92,1.06,1.06,0,0,1,.5-.7,2.69,2.69,0,0,1,1.36-.26,2.37,2.37,0,0,1,1.33.28,1.11,1.11,0,0,1,.48.72,5,5,0,0,1,.09,1,4.7,4.7,0,0,1-.09.92,1.05,1.05,0,0,1-.49.71A2.48,2.48,0,0,1,270.23,19.63Zm0,14.3a2.46,2.46,0,0,1-1.32-.27,1,1,0,0,1-.48-.7,5.33,5.33,0,0,1-.07-.91V23.33a4.57,4.57,0,0,1,.08-.92,1.08,1.08,0,0,1,.49-.7,2.59,2.59,0,0,1,1.33-.26,2.18,2.18,0,0,1,1.28.28,1.12,1.12,0,0,1,.48.71,4.62,4.62,0,0,1,.09.94v8.7A4.46,4.46,0,0,1,272,33a1,1,0,0,1-.47.69A2.64,2.64,0,0,1,270.22,33.93Z"/><path class="cls-3" d="M285,33.91a2.33,2.33,0,0,1-1.37-.33.91.91,0,0,1-.43-.8l.25-.42a2.5,2.5,0,0,1-.57.61,4.28,4.28,0,0,1-1.11.65,4.38,4.38,0,0,1-1.67.29,5,5,0,0,1-2.18-.5A6,6,0,0,1,276.05,32a7,7,0,0,1-1.27-2,6,6,0,0,1-.48-2.37,5.83,5.83,0,0,1,.48-2.34,6.72,6.72,0,0,1,1.29-2A6.07,6.07,0,0,1,277.91,22a4.77,4.77,0,0,1,2.17-.5,4.35,4.35,0,0,1,1.58.26,4.57,4.57,0,0,1,1.08.61,3.53,3.53,0,0,1,.67.68l-.23-.35a1.05,1.05,0,0,1,.44-.91,2.4,2.4,0,0,1,1.39-.31,2.28,2.28,0,0,1,1.28.27,1.16,1.16,0,0,1,.48.73,4.79,4.79,0,0,1,.09.95V32a4.73,4.73,0,0,1-.09.93,1.08,1.08,0,0,1-.47.71A2.52,2.52,0,0,1,285,33.91Zm-4.37-3.73a2.21,2.21,0,0,0,1.2-.33,2.6,2.6,0,0,0,.85-.92,2.48,2.48,0,0,0,.33-1.27,2.53,2.53,0,0,0-.33-1.29,2.4,2.4,0,0,0-.87-.89,2.55,2.55,0,0,0-2.49,0,2.64,2.64,0,0,0-.9.92,2.54,2.54,0,0,0-.34,1.3,2.28,2.28,0,0,0,.34,1.23,2.51,2.51,0,0,0,.92.91A2.61,2.61,0,0,0,280.6,30.18Zm-.84-9.65a.82.82,0,0,1-.74-.25,2.63,2.63,0,0,1-.51-1,2,2,0,0,1-.1-1.3,1.38,1.38,0,0,1,.92-.67l4.4-1.35a.88.88,0,0,1,.73.29,2.4,2.4,0,0,1,.5,1,1.93,1.93,0,0,1,.09,1.27,1.35,1.35,0,0,1-.92.68Z"/><path class="cls-3" d="M291.22,33.91a2.41,2.41,0,0,1-1.31-.26,1.06,1.06,0,0,1-.47-.7,4.46,4.46,0,0,1-.09-.91v-8.8a4.19,4.19,0,0,1,.09-.89,1,1,0,0,1,.49-.66,2.6,2.6,0,0,1,1.33-.25,2.49,2.49,0,0,1,1.17.21,1.06,1.06,0,0,1,.49.52,1.64,1.64,0,0,1,.11.56,1,1,0,0,0,.05.36l-.15.47a1.43,1.43,0,0,1,.39-.76,3.53,3.53,0,0,1,.85-.7,4.7,4.7,0,0,1,1.1-.48,4,4,0,0,1,1.16-.18,5.05,5.05,0,0,1,2.14.44,4.41,4.41,0,0,1,1.59,1.26,5.81,5.81,0,0,1,1,1.94,8.22,8.22,0,0,1,.34,2.44v4.55a5.31,5.31,0,0,1-.08.91,1.06,1.06,0,0,1-.48.69,2.57,2.57,0,0,1-1.34.25,2.54,2.54,0,0,1-1.32-.26,1.08,1.08,0,0,1-.49-.7,4.63,4.63,0,0,1-.09-.92V27.52a2.92,2.92,0,0,0-.26-1.28,1.93,1.93,0,0,0-.75-.8,2.5,2.5,0,0,0-1.22-.27,2.59,2.59,0,0,0-1.25.28,2.06,2.06,0,0,0-.81.82,2.57,2.57,0,0,0-.29,1.25v4.55A4.53,4.53,0,0,1,293,33a1.08,1.08,0,0,1-.47.69A2.66,2.66,0,0,1,291.22,33.91Z"/><path class="cls-3" d="M309.1,33.62a5,5,0,0,1-2.16-.48,6,6,0,0,1-1.79-1.34,6.55,6.55,0,0,1-1.22-1.95,6.12,6.12,0,0,1-.45-2.33,6,6,0,0,1,.45-2.31A6.2,6.2,0,0,1,307,22a4.72,4.72,0,0,1,2.11-.48,3.84,3.84,0,0,1,1.9.43,3.41,3.41,0,0,1,1.25,1.25,6.56,6.56,0,0,1,.71,1.93,11.82,11.82,0,0,1,.24,2.49,11,11,0,0,1-.42,3.21,4.2,4.2,0,0,1-1.3,2.1A3.53,3.53,0,0,1,309.1,33.62Zm.45,5.48a7,7,0,0,1-1.77-.23,7.61,7.61,0,0,1-1.58-.6,4.28,4.28,0,0,1-1.15-.8,1.19,1.19,0,0,1-.43-.85,1.77,1.77,0,0,1,.15-.73,2.46,2.46,0,0,1,.45-.67,7,7,0,0,1,.6-.57.91.91,0,0,1,.6-.2,1.07,1.07,0,0,1,.63.19l.58.41a3.63,3.63,0,0,0,.79.41,3.21,3.21,0,0,0,1.2.19,2.26,2.26,0,0,0,.94-.19,2,2,0,0,0,.75-.55,2.65,2.65,0,0,0,.5-.85A2.85,2.85,0,0,0,312,33V22.63a1.22,1.22,0,0,1,.52-.94,2.49,2.49,0,0,1,1.34-.29,2.21,2.21,0,0,1,1.25.27,1.07,1.07,0,0,1,.46.68,4.43,4.43,0,0,1,.08.9v9.88a5.92,5.92,0,0,1-.53,2.54,5.71,5.71,0,0,1-1.4,1.87,6,6,0,0,1-2,1.16A6.27,6.27,0,0,1,309.55,39.1Zm0-9.1a2.13,2.13,0,0,0,1.2-.34,2.42,2.42,0,0,0,.83-.88,2.5,2.5,0,0,0,.32-1.25,2.54,2.54,0,0,0-.31-1.25,2.47,2.47,0,0,0-.85-.88,2.29,2.29,0,0,0-1.22-.32,2.13,2.13,0,0,0-1.2.33,2.47,2.47,0,0,0-1.15,2.14,2.3,2.3,0,0,0,.33,1.22,2.45,2.45,0,0,0,.86.89A2.15,2.15,0,0,0,309.53,30Z"/><path class="cls-3" d="M323.6,33.93a5.25,5.25,0,0,1-2.18-.45,5.43,5.43,0,0,1-1.75-1.26,5.85,5.85,0,0,1-1.16-1.93,7,7,0,0,1-.41-2.43V23.33a4.59,4.59,0,0,1,.09-.93,1.08,1.08,0,0,1,.49-.69,2.35,2.35,0,0,1,1.32-.28,2.31,2.31,0,0,1,1.32.28,1.1,1.1,0,0,1,.47.71,4.62,4.62,0,0,1,.09.94v4.5a2.78,2.78,0,0,0,.26,1.26,1.73,1.73,0,0,0,.77.81,2.46,2.46,0,0,0,1.21.28,2.5,2.5,0,0,0,1.24-.29,2,2,0,0,0,.8-.81,2.59,2.59,0,0,0,.29-1.25V23.31a4.42,4.42,0,0,1,.09-.92,1,1,0,0,1,.49-.69,2.47,2.47,0,0,1,1.32-.26,2.41,2.41,0,0,1,1.32.27,1.13,1.13,0,0,1,.47.72,4.46,4.46,0,0,1,.09.91v8.8a4.88,4.88,0,0,1-.08.88,1.06,1.06,0,0,1-.49.67,2.63,2.63,0,0,1-1.3.25,2.92,2.92,0,0,1-1.05-.15,1.25,1.25,0,0,1-.55-.38.94.94,0,0,1-.21-.47,2.57,2.57,0,0,1,0-.45l.32-.28a2.75,2.75,0,0,1-.32.39,7.18,7.18,0,0,1-.66.57,4.28,4.28,0,0,1-1,.54A3.31,3.31,0,0,1,323.6,33.93Z"/><path class="cls-3" d="M337.52,34a16.21,16.21,0,0,1-1.82-.1,3.77,3.77,0,0,1-1.35-.4,2.42,2.42,0,0,1-.9-.84,4,4,0,0,1-.53-1.38,10.81,10.81,0,0,1-.17-2.06V17.64a4,4,0,0,1,.1-.93,1.17,1.17,0,0,1,.49-.7,2.35,2.35,0,0,1,1.31-.27A2.24,2.24,0,0,1,336,16a1.14,1.14,0,0,1,.48.7,3.82,3.82,0,0,1,.1.92V29a6.12,6.12,0,0,0,0,.66,1,1,0,0,0,.15.41.54.54,0,0,0,.31.2,2,2,0,0,0,.53.05,2.62,2.62,0,0,1,.61.08.89.89,0,0,1,.54.45,2.55,2.55,0,0,1,.22,1.25,2.81,2.81,0,0,1-.22,1.3.89.89,0,0,1-.54.47A2.74,2.74,0,0,1,337.52,34Z"/><path class="cls-3" d="M346.75,34.17a6.21,6.21,0,0,1-2.34-.46,7.24,7.24,0,0,1-2.11-1.31,6.38,6.38,0,0,1-1.51-2,6,6,0,0,1-.56-2.64,6.16,6.16,0,0,1,.51-2.51,6.51,6.51,0,0,1,1.41-2.06,6.7,6.7,0,0,1,2.07-1.42,6.09,6.09,0,0,1,2.49-.51,6.29,6.29,0,0,1,3.26.87,6.45,6.45,0,0,1,2.33,2.34,6.61,6.61,0,0,1,.31,6,6.35,6.35,0,0,1-1.5,2A6.53,6.53,0,0,1,349,33.74,6.4,6.4,0,0,1,346.75,34.17Zm-.05-3.77A2.89,2.89,0,0,0,349,29.2a2.61,2.61,0,0,0,.42-1.53,2.67,2.67,0,0,0-.35-1.4,2.39,2.39,0,0,0-1-.93,2.83,2.83,0,0,0-1.41-.34,2.51,2.51,0,0,0-1.34.35,2.65,2.65,0,0,0-.95,1A2.69,2.69,0,0,0,344,27.7a2.6,2.6,0,0,0,.41,1.51,2.47,2.47,0,0,0,1,.9A3,3,0,0,0,346.7,30.4Z"/><path class="cls-2" d="M126.88,34a8.58,8.58,0,0,1-2.33-.34A9.52,9.52,0,0,1,120,30.86a8.36,8.36,0,0,1-1.51-2.55,9.38,9.38,0,0,1-.56-3.33,8.58,8.58,0,0,1,.57-3.23A8.06,8.06,0,0,1,120,19.29a8.84,8.84,0,0,1,2.13-1.74,9.54,9.54,0,0,1,2.41-1,8.84,8.84,0,0,1,2.39-.34,7.36,7.36,0,0,1,2.22.3,8.09,8.09,0,0,1,1.54.63l.76.42a9.08,9.08,0,0,1,.85.65,1.25,1.25,0,0,1,.43.9,1.61,1.61,0,0,1-.12.6,2.29,2.29,0,0,1-.34.6,3.05,3.05,0,0,1-.77.84,1.23,1.23,0,0,1-.73.26,1.16,1.16,0,0,1-.57-.15,6.85,6.85,0,0,1-.65-.4c-.12-.08-.28-.19-.5-.31a3.53,3.53,0,0,0-.89-.34,5.78,5.78,0,0,0-3.15.15,5.23,5.23,0,0,0-1.64.92,4.58,4.58,0,0,0-1.2,1.59,5.3,5.3,0,0,0-.45,2.26,5,5,0,0,0,.46,2.25,4.69,4.69,0,0,0,1.21,1.58,5.29,5.29,0,0,0,1.64.94,5.16,5.16,0,0,0,1.74.31,4.66,4.66,0,0,0,1.27-.15,5,5,0,0,0,.93-.36,7.11,7.11,0,0,0,.67-.39c.19-.11.37-.22.57-.32a1.14,1.14,0,0,1,1.3.12,3.43,3.43,0,0,1,.73.88,2.66,2.66,0,0,1,.34.64,1.64,1.64,0,0,1,.11.61,1.07,1.07,0,0,1-.41.86,7.09,7.09,0,0,1-.86.61l-.75.44a7.1,7.1,0,0,1-1.53.62A7.59,7.59,0,0,1,126.88,34Z"/><path class="cls-2" d="M140.88,34.05a6.41,6.41,0,0,1-2.34-.46,6.94,6.94,0,0,1-2.11-1.32,6.24,6.24,0,0,1-1.51-2,6,6,0,0,1-.57-2.63,6.38,6.38,0,0,1,.52-2.52A6.75,6.75,0,0,1,136.28,23a6.67,6.67,0,0,1,2.07-1.41,6.08,6.08,0,0,1,2.48-.51,6.33,6.33,0,0,1,3.26.86,6.56,6.56,0,0,1,2.34,2.34,6.27,6.27,0,0,1,.87,3.28,6.2,6.2,0,0,1-.56,2.71,6.5,6.5,0,0,1-1.5,2,6.73,6.73,0,0,1-2.08,1.28A6.36,6.36,0,0,1,140.88,34.05Zm0-3.78a2.9,2.9,0,0,0,1.22-.29,2.75,2.75,0,0,0,1-.9,2.54,2.54,0,0,0,.43-1.53,2.77,2.77,0,0,0-.35-1.4,2.48,2.48,0,0,0-1-.94,2.94,2.94,0,0,0-1.41-.34,2.6,2.6,0,0,0-1.34.35,2.76,2.76,0,0,0-.95,1,2.86,2.86,0,0,0,0,2.9,2.61,2.61,0,0,0,1,.9A3,3,0,0,0,140.83,30.27Z"/><path class="cls-2" d="M154.13,33.86a16.26,16.26,0,0,1-1.83-.1,3.9,3.9,0,0,1-1.35-.4,2.67,2.67,0,0,1-.9-.84,4,4,0,0,1-.52-1.38,10,10,0,0,1-.18-2.06V17.53a4,4,0,0,1,.1-.93,1.21,1.21,0,0,1,.49-.7,2.37,2.37,0,0,1,1.31-.27,2.24,2.24,0,0,1,1.29.28,1.15,1.15,0,0,1,.49.7,4.4,4.4,0,0,1,.1.92V28.91a4.16,4.16,0,0,0,0,.66.8.8,0,0,0,.15.41.49.49,0,0,0,.31.2,1.9,1.9,0,0,0,.52.05,2.7,2.7,0,0,1,.62.08.9.9,0,0,1,.53.45,2.53,2.53,0,0,1,.23,1.25,2.79,2.79,0,0,1-.23,1.3.89.89,0,0,1-.54.47A2.72,2.72,0,0,1,154.13,33.86Z"/><path class="cls-2" d="M163.35,34.06A6.29,6.29,0,0,1,161,33.6a7.06,7.06,0,0,1-2.11-1.32,6.12,6.12,0,0,1-2.07-4.67,6.16,6.16,0,0,1,.51-2.51,6.82,6.82,0,0,1,3.48-3.48,6.13,6.13,0,0,1,2.49-.51,6.24,6.24,0,0,1,3.26.87,6.48,6.48,0,0,1,2.34,2.34,6.69,6.69,0,0,1,.31,6,6.52,6.52,0,0,1-5.87,3.76Zm0-3.77a2.85,2.85,0,0,0,1.23-.3,2.74,2.74,0,0,0,1.05-.9,2.61,2.61,0,0,0,.42-1.53,2.77,2.77,0,0,0-.34-1.4,2.48,2.48,0,0,0-1-.93,2.8,2.8,0,0,0-1.41-.34,2.53,2.53,0,0,0-1.34.35,2.65,2.65,0,0,0-.95,1,2.93,2.93,0,0,0,0,2.9,2.49,2.49,0,0,0,1,.9A2.9,2.9,0,0,0,163.3,30.29Z"/><path class="cls-2" d="M173.68,33.87a2.52,2.52,0,0,1-1.32-.26,1.1,1.1,0,0,1-.47-.72,4.7,4.7,0,0,1-.09-.92V23.24a5.25,5.25,0,0,1,.08-.92,1.09,1.09,0,0,1,.49-.69,2.59,2.59,0,0,1,1.33-.26,2.5,2.5,0,0,1,1.26.24,1.06,1.06,0,0,1,.49.55,2,2,0,0,1,.1.53l-.3.16a2.39,2.39,0,0,1,.26-.37,3.58,3.58,0,0,1,.59-.55,3.53,3.53,0,0,1,2.15-.68l.61,0a3.7,3.7,0,0,1,.7.16,2.81,2.81,0,0,1,.66.29,1.69,1.69,0,0,1,.49.47,1.2,1.2,0,0,1,.19.67,3,3,0,0,1-.48,1.74,1.4,1.4,0,0,1-1.2.71,2.11,2.11,0,0,1-.6-.06,1,1,0,0,1-.29-.15.93.93,0,0,0-.26-.15,1.68,1.68,0,0,0-.55-.06,2.34,2.34,0,0,0-.71.1,1.85,1.85,0,0,0-.63.31,1.45,1.45,0,0,0-.61,1.23V32a4.46,4.46,0,0,1-.09.91,1,1,0,0,1-.49.69A2.58,2.58,0,0,1,173.68,33.87Z"/><path class="cls-2" d="M189.08,34.1a7.3,7.3,0,0,1-3-.57A5.86,5.86,0,0,1,184,32a6.51,6.51,0,0,1-1.2-2.09,7.09,7.09,0,0,1-.4-2.3,6.42,6.42,0,0,1,.86-3.32A6,6,0,0,1,185.62,22a7.11,7.11,0,0,1,3.46-.83,6.18,6.18,0,0,1,2.51.46,5.13,5.13,0,0,1,1.75,1.2,5.22,5.22,0,0,1,1,1.59,4.54,4.54,0,0,1,.34,1.63,2.89,2.89,0,0,1-.67,2.05,2.25,2.25,0,0,1-1.69.67H186.4a1.77,1.77,0,0,0,.47,1.07,2.69,2.69,0,0,0,1,.7,3.5,3.5,0,0,0,1.33.25,7.94,7.94,0,0,0,1-.06,4.3,4.3,0,0,0,.79-.17l.59-.23.49-.19a2.45,2.45,0,0,1,.42-.09,1,1,0,0,1,.68.21,2,2,0,0,1,.57.71,1.65,1.65,0,0,1,.24.53,2.07,2.07,0,0,1,.06.5,1.32,1.32,0,0,1-.61,1.08,4.73,4.73,0,0,1-1.73.74A11.47,11.47,0,0,1,189.08,34.1Zm-2.68-7.4h3.95a1,1,0,0,0,.58-.13.62.62,0,0,0,.2-.54,1.27,1.27,0,0,0-.27-.78,1.76,1.76,0,0,0-.74-.53,2.8,2.8,0,0,0-1.09-.19,3,3,0,0,0-1.35.3,2.38,2.38,0,0,0-.94.8A1.91,1.91,0,0,0,186.4,26.7Z"/><path class="cls-2" d="M207,33.86a2.36,2.36,0,0,1-1.37-.32.91.91,0,0,1-.43-.8l.25-.43a3,3,0,0,1-.57.62,4.34,4.34,0,0,1-1.12.64,4.15,4.15,0,0,1-1.66.29,5,5,0,0,1-2.19-.5A5.85,5.85,0,0,1,198.08,32a7,7,0,0,1-1.28-2,6.16,6.16,0,0,1-.47-2.38,6.07,6.07,0,0,1,.47-2.34,6.85,6.85,0,0,1,1.29-2,6.51,6.51,0,0,1,1.84-1.36,5,5,0,0,1,2.18-.5,4.3,4.3,0,0,1,1.57.26,4.16,4.16,0,0,1,1.09.62,3.43,3.43,0,0,1,.66.67l-.22-.35a1,1,0,0,1,.43-.91,2.44,2.44,0,0,1,1.39-.31,2.34,2.34,0,0,1,1.29.27,1.16,1.16,0,0,1,.48.73,5.8,5.8,0,0,1,.08.95V32a4.73,4.73,0,0,1-.09.93,1.07,1.07,0,0,1-.48.71A2.38,2.38,0,0,1,207,33.86Zm-4.37-3.72a2.21,2.21,0,0,0,1.2-.34A2.56,2.56,0,0,0,205,27.61a2.52,2.52,0,0,0-.32-1.29,2.4,2.4,0,0,0-.88-.88,2.3,2.3,0,0,0-1.22-.33,2.33,2.33,0,0,0-1.26.34,2.53,2.53,0,0,0-1.24,2.21,2.34,2.34,0,0,0,.34,1.24,2.56,2.56,0,0,0,.92.9A2.59,2.59,0,0,0,202.63,30.14Z"/><path class="cls-2" d="M224.1,34.12a7.25,7.25,0,0,1-3-.57A5.86,5.86,0,0,1,219,32a6.16,6.16,0,0,1-1.2-2.09,6.82,6.82,0,0,1-.4-2.29,6.45,6.45,0,0,1,.85-3.33A6.18,6.18,0,0,1,220.64,22a7.15,7.15,0,0,1,3.47-.83,6.25,6.25,0,0,1,2.51.46,5.23,5.23,0,0,1,1.75,1.2,5.11,5.11,0,0,1,1,1.59,4.33,4.33,0,0,1,.34,1.63,2.84,2.84,0,0,1-.66,2.05,2.28,2.28,0,0,1-1.69.67h-5.95a1.71,1.71,0,0,0,.46,1.07,2.66,2.66,0,0,0,1,.7,3.44,3.44,0,0,0,1.32.25,8.22,8.22,0,0,0,1-.06,4.49,4.49,0,0,0,.79-.17c.21-.08.41-.15.58-.23l.49-.18a1.78,1.78,0,0,1,.43-.1,1,1,0,0,1,.67.21,2.11,2.11,0,0,1,.58.71,2,2,0,0,1,.23.53,1.68,1.68,0,0,1,.07.5,1.33,1.33,0,0,1-.62,1.08,4.68,4.68,0,0,1-1.72.74A11.56,11.56,0,0,1,224.1,34.12Zm-2.67-7.4h3.95a.93.93,0,0,0,.57-.13c.14-.09.2-.27.2-.54a1.27,1.27,0,0,0-.27-.78,1.7,1.7,0,0,0-.74-.53,2.8,2.8,0,0,0-1.09-.19,2.93,2.93,0,0,0-1.34.3,2.25,2.25,0,0,0-.94.8A1.84,1.84,0,0,0,221.43,26.72Z"/><path class="cls-2" d="M236.63,33.91a16.26,16.26,0,0,1-1.83-.1,3.7,3.7,0,0,1-1.35-.41,2.39,2.39,0,0,1-.9-.83,4,4,0,0,1-.52-1.38,10,10,0,0,1-.18-2.06V17.58a4,4,0,0,1,.1-.93,1.21,1.21,0,0,1,.49-.7,2.37,2.37,0,0,1,1.31-.27,2.24,2.24,0,0,1,1.29.28,1.15,1.15,0,0,1,.49.7,4.42,4.42,0,0,1,.09.92V29a6.12,6.12,0,0,0,0,.66,1,1,0,0,0,.15.41.54.54,0,0,0,.32.2,1.86,1.86,0,0,0,.52.05,2.55,2.55,0,0,1,.61.08.89.89,0,0,1,.54.45,2.53,2.53,0,0,1,.23,1.25,2.79,2.79,0,0,1-.23,1.3.89.89,0,0,1-.54.47A2.72,2.72,0,0,1,236.63,33.91Z"/><path class="cls-2" d="M247.16,21.61h2.75l3.45-.09a4.43,4.43,0,0,1,.9.09,1.11,1.11,0,0,1,.7.48,2.47,2.47,0,0,1,.27,1.33,2.4,2.4,0,0,1-.26,1.25,1.2,1.2,0,0,1-.69.51,3.83,3.83,0,0,1-.93.11l-3.27-.08-3,0a1.27,1.27,0,0,1-1-.47,2.41,2.41,0,0,1-.28-1.38,2.08,2.08,0,0,1,.35-1.34A1.26,1.26,0,0,1,247.16,21.61Zm5.64,12.31a7.9,7.9,0,0,1-2.2-.28,3.37,3.37,0,0,1-2.39-2.31,7,7,0,0,1-.28-2.12V19.09a4.31,4.31,0,0,1,.09-.93,1.08,1.08,0,0,1,.49-.66,2.51,2.51,0,0,1,1.3-.26,2.3,2.3,0,0,1,1.3.28,1.1,1.1,0,0,1,.49.71,5.31,5.31,0,0,1,.08.91v9.93a3.1,3.1,0,0,0,.06.66.79.79,0,0,0,.19.39.68.68,0,0,0,.35.17,2.79,2.79,0,0,0,.55.05,4.67,4.67,0,0,1,1,.1,1,1,0,0,1,.66.45,2.19,2.19,0,0,1,.24,1.18,2.3,2.3,0,0,1-.28,1.3,1.07,1.07,0,0,1-.71.47A5.31,5.31,0,0,1,252.8,33.92Z"/><path class="cls-2" d="M259,33.92a2.5,2.5,0,0,1-1.31-.26,1.1,1.1,0,0,1-.47-.72,4.63,4.63,0,0,1-.09-.92V23.29a4.44,4.44,0,0,1,.08-.92,1.08,1.08,0,0,1,.49-.69,2.59,2.59,0,0,1,1.33-.26,2.5,2.5,0,0,1,1.26.24,1.06,1.06,0,0,1,.49.55,2.08,2.08,0,0,1,.1.54l-.3.15a2.39,2.39,0,0,1,.26-.37,4.06,4.06,0,0,1,.59-.55,3.53,3.53,0,0,1,2.15-.68,4.66,4.66,0,0,1,.61,0,3.14,3.14,0,0,1,.7.15,2.47,2.47,0,0,1,.66.3,1.66,1.66,0,0,1,.49.46,1.2,1.2,0,0,1,.19.67,3,3,0,0,1-.48,1.74,1.4,1.4,0,0,1-1.2.71,2.11,2.11,0,0,1-.6-.06,1,1,0,0,1-.29-.15.93.93,0,0,0-.26-.15,1.68,1.68,0,0,0-.55-.06,2.34,2.34,0,0,0-.71.1,1.85,1.85,0,0,0-.63.31,1.6,1.6,0,0,0-.45.52,1.53,1.53,0,0,0-.16.72v5.47a4.47,4.47,0,0,1-.08.91,1,1,0,0,1-.49.69A2.6,2.6,0,0,1,259,33.92Z"/><path class="cls-2" d="M270.23,19.63a2.52,2.52,0,0,1-1.35-.28,1.08,1.08,0,0,1-.48-.72,5.16,5.16,0,0,1,0-1.92,1.06,1.06,0,0,1,.5-.7,2.69,2.69,0,0,1,1.36-.26,2.37,2.37,0,0,1,1.33.28,1.11,1.11,0,0,1,.48.72,5,5,0,0,1,.09,1,4.7,4.7,0,0,1-.09.92,1.05,1.05,0,0,1-.49.71A2.48,2.48,0,0,1,270.23,19.63Zm0,14.3a2.46,2.46,0,0,1-1.32-.27,1,1,0,0,1-.48-.7,5.33,5.33,0,0,1-.07-.91V23.33a4.57,4.57,0,0,1,.08-.92,1.08,1.08,0,0,1,.49-.7,2.59,2.59,0,0,1,1.33-.26,2.18,2.18,0,0,1,1.28.28,1.12,1.12,0,0,1,.48.71,4.62,4.62,0,0,1,.09.94v8.7A4.46,4.46,0,0,1,272,33a1,1,0,0,1-.47.69A2.64,2.64,0,0,1,270.22,33.93Z"/><path class="cls-2" d="M285,33.91a2.33,2.33,0,0,1-1.37-.33.91.91,0,0,1-.43-.8l.25-.42a2.5,2.5,0,0,1-.57.61,4.28,4.28,0,0,1-1.11.65,4.38,4.38,0,0,1-1.67.29,5,5,0,0,1-2.18-.5A6,6,0,0,1,276.05,32a7,7,0,0,1-1.27-2,6,6,0,0,1-.48-2.37,5.83,5.83,0,0,1,.48-2.34,6.72,6.72,0,0,1,1.29-2A6.07,6.07,0,0,1,277.91,22a4.77,4.77,0,0,1,2.17-.5,4.35,4.35,0,0,1,1.58.26,4.57,4.57,0,0,1,1.08.61,3.53,3.53,0,0,1,.67.68l-.23-.35a1.05,1.05,0,0,1,.44-.91,2.4,2.4,0,0,1,1.39-.31,2.28,2.28,0,0,1,1.28.27,1.16,1.16,0,0,1,.48.73,4.79,4.79,0,0,1,.09.95V32a4.73,4.73,0,0,1-.09.93,1.08,1.08,0,0,1-.47.71A2.52,2.52,0,0,1,285,33.91Zm-4.37-3.73a2.21,2.21,0,0,0,1.2-.33,2.6,2.6,0,0,0,.85-.92,2.48,2.48,0,0,0,.33-1.27,2.53,2.53,0,0,0-.33-1.29,2.4,2.4,0,0,0-.87-.89,2.55,2.55,0,0,0-2.49,0,2.64,2.64,0,0,0-.9.92,2.54,2.54,0,0,0-.34,1.3,2.28,2.28,0,0,0,.34,1.23,2.51,2.51,0,0,0,.92.91A2.61,2.61,0,0,0,280.6,30.18Zm-.84-9.65a.82.82,0,0,1-.74-.25,2.63,2.63,0,0,1-.51-1,2,2,0,0,1-.1-1.3,1.38,1.38,0,0,1,.92-.67l4.4-1.35a.88.88,0,0,1,.73.29,2.4,2.4,0,0,1,.5,1,1.93,1.93,0,0,1,.09,1.27,1.35,1.35,0,0,1-.92.68Z"/><path class="cls-2" d="M291.22,33.91a2.41,2.41,0,0,1-1.31-.26,1.06,1.06,0,0,1-.47-.7,4.46,4.46,0,0,1-.09-.91v-8.8a4.19,4.19,0,0,1,.09-.89,1,1,0,0,1,.49-.66,2.6,2.6,0,0,1,1.33-.25,2.49,2.49,0,0,1,1.17.21,1.06,1.06,0,0,1,.49.52,1.64,1.64,0,0,1,.11.56,1,1,0,0,0,.05.36l-.15.47a1.43,1.43,0,0,1,.39-.76,3.53,3.53,0,0,1,.85-.7,4.7,4.7,0,0,1,1.1-.48,4,4,0,0,1,1.16-.18,5.05,5.05,0,0,1,2.14.44,4.41,4.41,0,0,1,1.59,1.26,5.81,5.81,0,0,1,1,1.94,8.22,8.22,0,0,1,.34,2.44v4.55a5.31,5.31,0,0,1-.08.91,1.06,1.06,0,0,1-.48.69,2.57,2.57,0,0,1-1.34.25,2.54,2.54,0,0,1-1.32-.26,1.08,1.08,0,0,1-.49-.7,4.63,4.63,0,0,1-.09-.92V27.52a2.92,2.92,0,0,0-.26-1.28,1.93,1.93,0,0,0-.75-.8,2.5,2.5,0,0,0-1.22-.27,2.59,2.59,0,0,0-1.25.28,2.06,2.06,0,0,0-.81.82,2.57,2.57,0,0,0-.29,1.25v4.55A4.53,4.53,0,0,1,293,33a1.08,1.08,0,0,1-.47.69A2.66,2.66,0,0,1,291.22,33.91Z"/><path class="cls-2" d="M309.1,33.62a5,5,0,0,1-2.16-.48,6,6,0,0,1-1.79-1.34,6.55,6.55,0,0,1-1.22-1.95,6.12,6.12,0,0,1-.45-2.33,6,6,0,0,1,.45-2.31A6.2,6.2,0,0,1,307,22a4.72,4.72,0,0,1,2.11-.48,3.84,3.84,0,0,1,1.9.43,3.41,3.41,0,0,1,1.25,1.25,6.56,6.56,0,0,1,.71,1.93,11.82,11.82,0,0,1,.24,2.49,11,11,0,0,1-.42,3.21,4.2,4.2,0,0,1-1.3,2.1A3.53,3.53,0,0,1,309.1,33.62Zm.45,5.48a7,7,0,0,1-1.77-.23,7.61,7.61,0,0,1-1.58-.6,4.28,4.28,0,0,1-1.15-.8,1.19,1.19,0,0,1-.43-.85,1.77,1.77,0,0,1,.15-.73,2.46,2.46,0,0,1,.45-.67,7,7,0,0,1,.6-.57.91.91,0,0,1,.6-.2,1.07,1.07,0,0,1,.63.19l.58.41a3.63,3.63,0,0,0,.79.41,3.21,3.21,0,0,0,1.2.19,2.26,2.26,0,0,0,.94-.19,2,2,0,0,0,.75-.55,2.65,2.65,0,0,0,.5-.85A2.85,2.85,0,0,0,312,33V22.63a1.22,1.22,0,0,1,.52-.94,2.49,2.49,0,0,1,1.34-.29,2.21,2.21,0,0,1,1.25.27,1.07,1.07,0,0,1,.46.68,4.43,4.43,0,0,1,.08.9v9.88a5.92,5.92,0,0,1-.53,2.54,5.71,5.71,0,0,1-1.4,1.87,6,6,0,0,1-2,1.16A6.27,6.27,0,0,1,309.55,39.1Zm0-9.1a2.13,2.13,0,0,0,1.2-.34,2.42,2.42,0,0,0,.83-.88,2.5,2.5,0,0,0,.32-1.25,2.54,2.54,0,0,0-.31-1.25,2.47,2.47,0,0,0-.85-.88,2.29,2.29,0,0,0-1.22-.32,2.13,2.13,0,0,0-1.2.33,2.47,2.47,0,0,0-1.15,2.14,2.3,2.3,0,0,0,.33,1.22,2.45,2.45,0,0,0,.86.89A2.15,2.15,0,0,0,309.53,30Z"/><path class="cls-2" d="M323.6,33.93a5.25,5.25,0,0,1-2.18-.45,5.43,5.43,0,0,1-1.75-1.26,5.85,5.85,0,0,1-1.16-1.93,7,7,0,0,1-.41-2.43V23.33a4.59,4.59,0,0,1,.09-.93,1.08,1.08,0,0,1,.49-.69,2.35,2.35,0,0,1,1.32-.28,2.31,2.31,0,0,1,1.32.28,1.1,1.1,0,0,1,.47.71,4.62,4.62,0,0,1,.09.94v4.5a2.78,2.78,0,0,0,.26,1.26,1.73,1.73,0,0,0,.77.81,2.46,2.46,0,0,0,1.21.28,2.5,2.5,0,0,0,1.24-.29,2,2,0,0,0,.8-.81,2.59,2.59,0,0,0,.29-1.25V23.31a4.42,4.42,0,0,1,.09-.92,1,1,0,0,1,.49-.69,2.47,2.47,0,0,1,1.32-.26,2.41,2.41,0,0,1,1.32.27,1.13,1.13,0,0,1,.47.72,4.46,4.46,0,0,1,.09.91v8.8a4.88,4.88,0,0,1-.08.88,1.06,1.06,0,0,1-.49.67,2.63,2.63,0,0,1-1.3.25,2.92,2.92,0,0,1-1.05-.15,1.25,1.25,0,0,1-.55-.38.94.94,0,0,1-.21-.47,2.57,2.57,0,0,1,0-.45l.32-.28a2.75,2.75,0,0,1-.32.39,7.18,7.18,0,0,1-.66.57,4.28,4.28,0,0,1-1,.54A3.31,3.31,0,0,1,323.6,33.93Z"/><path class="cls-2" d="M337.52,34a16.21,16.21,0,0,1-1.82-.1,3.77,3.77,0,0,1-1.35-.4,2.42,2.42,0,0,1-.9-.84,4,4,0,0,1-.53-1.38,10.81,10.81,0,0,1-.17-2.06V17.64a4,4,0,0,1,.1-.93,1.17,1.17,0,0,1,.49-.7,2.35,2.35,0,0,1,1.31-.27A2.24,2.24,0,0,1,336,16a1.14,1.14,0,0,1,.48.7,3.82,3.82,0,0,1,.1.92V29a6.12,6.12,0,0,0,0,.66,1,1,0,0,0,.15.41.54.54,0,0,0,.31.2,2,2,0,0,0,.53.05,2.62,2.62,0,0,1,.61.08.89.89,0,0,1,.54.45,2.55,2.55,0,0,1,.22,1.25,2.81,2.81,0,0,1-.22,1.3.89.89,0,0,1-.54.47A2.74,2.74,0,0,1,337.52,34Z"/><path class="cls-2" d="M346.75,34.17a6.21,6.21,0,0,1-2.34-.46,7.24,7.24,0,0,1-2.11-1.31,6.38,6.38,0,0,1-1.51-2,6,6,0,0,1-.56-2.64,6.16,6.16,0,0,1,.51-2.51,6.51,6.51,0,0,1,1.41-2.06,6.7,6.7,0,0,1,2.07-1.42,6.09,6.09,0,0,1,2.49-.51,6.29,6.29,0,0,1,3.26.87,6.45,6.45,0,0,1,2.33,2.34,6.61,6.61,0,0,1,.31,6,6.35,6.35,0,0,1-1.5,2A6.53,6.53,0,0,1,349,33.74,6.4,6.4,0,0,1,346.75,34.17Zm-.05-3.77A2.89,2.89,0,0,0,349,29.2a2.61,2.61,0,0,0,.42-1.53,2.67,2.67,0,0,0-.35-1.4,2.39,2.39,0,0,0-1-.93,2.83,2.83,0,0,0-1.41-.34,2.51,2.51,0,0,0-1.34.35,2.65,2.65,0,0,0-.95,1A2.69,2.69,0,0,0,344,27.7a2.6,2.6,0,0,0,.41,1.51,2.47,2.47,0,0,0,1,.9A3,3,0,0,0,346.7,30.4Z"/><path class="cls-4" d="M57.2,38.85a4.2,4.2,0,0,1-3.5-1.37c-.73-.9-1.1-2.49-1.1-4.76H45.07a5.32,5.32,0,0,1-3.93-1.3,4.57,4.57,0,0,1-1.28-3.36A7.2,7.2,0,0,1,41,24.11q2.9-4.66,6.53-10.08a6.63,6.63,0,0,1,5.83-3.19l3.54,0c2,0,3.33.34,4,1A4.87,4.87,0,0,1,62,15.5V26.59a3.64,3.64,0,0,1,2.4.88A3.26,3.26,0,0,1,65,29.74a2.84,2.84,0,0,1-.69,2.2,4.08,4.08,0,0,1-2.37.74c0,2.21-.39,3.79-1.18,4.74A4.35,4.35,0,0,1,57.2,38.85Zm-4.63-12.1.13-8.94-5.47,8.94Z"/><path class="cls-4" d="M67.55,36a2.76,2.76,0,0,1,1.17-2.31A5.38,5.38,0,0,1,72,32.8c3,0,4.44,1.07,4.44,3.19a3.17,3.17,0,0,1-.58,2,2.7,2.7,0,0,1-1.5,1,9.25,9.25,0,0,1-2.37.26,6.16,6.16,0,0,1-3.18-.76A2.63,2.63,0,0,1,67.55,36Z"/><path class="cls-4" d="M90.83,20c0-1.37-1.23-2.06-3.7-2.06A19.62,19.62,0,0,0,85,18a19.43,19.43,0,0,1-1.94.15q-2.93,0-2.93-3.62t8.48-3.73q5.51,0,8.23,1.84a5.63,5.63,0,0,1,2.72,4.83,7.74,7.74,0,0,1-3.51,6.64,9.43,9.43,0,0,1,3.32,2.71,7.1,7.1,0,0,1,.95,4.05,7.31,7.31,0,0,1-2.79,5.94,11.42,11.42,0,0,1-7.48,2.29q-5.86,0-8.41-1.24a4,4,0,0,1-2.54-3.75,4,4,0,0,1,.81-2.88,3.19,3.19,0,0,1,2.28-.78c.49,0,1.25.06,2.29.17s1.82.17,2.36.17q4.44,0,4.44-1.68a1.62,1.62,0,0,0-.85-1.58,8,8,0,0,0-3.22-.44,6.47,6.47,0,0,1-3.34-.63,2.59,2.59,0,0,1-1-2.35c0-1.74,1.12-2.6,3.35-2.6a17.52,17.52,0,0,0,3.19-.21c.7-.14,1.1-.31,1.21-.49A1.82,1.82,0,0,0,90.83,20Z"/><path class="cls-5" d="M57.2,38.85a4.2,4.2,0,0,1-3.5-1.37c-.73-.9-1.1-2.49-1.1-4.76H45.07a5.32,5.32,0,0,1-3.93-1.3,4.57,4.57,0,0,1-1.28-3.36A7.2,7.2,0,0,1,41,24.11q2.9-4.66,6.53-10.08a6.63,6.63,0,0,1,5.83-3.19l3.54,0c2,0,3.33.34,4,1A4.87,4.87,0,0,1,62,15.5V26.59a3.64,3.64,0,0,1,2.4.88A3.26,3.26,0,0,1,65,29.74a2.84,2.84,0,0,1-.69,2.2,4.08,4.08,0,0,1-2.37.74c0,2.21-.39,3.79-1.18,4.74A4.35,4.35,0,0,1,57.2,38.85Zm-4.63-12.1.13-8.94-5.47,8.94Z"/><path class="cls-5" d="M67.55,36a2.76,2.76,0,0,1,1.17-2.31A5.38,5.38,0,0,1,72,32.8c3,0,4.44,1.07,4.44,3.19a3.17,3.17,0,0,1-.58,2,2.7,2.7,0,0,1-1.5,1,9.25,9.25,0,0,1-2.37.26,6.16,6.16,0,0,1-3.18-.76A2.63,2.63,0,0,1,67.55,36Z"/><path class="cls-5" d="M90.83,20c0-1.37-1.23-2.06-3.7-2.06A19.62,19.62,0,0,0,85,18a19.43,19.43,0,0,1-1.94.15q-2.93,0-2.93-3.62t8.48-3.73q5.51,0,8.23,1.84a5.63,5.63,0,0,1,2.72,4.83,7.74,7.74,0,0,1-3.51,6.64,9.43,9.43,0,0,1,3.32,2.71,7.1,7.1,0,0,1,.95,4.05,7.31,7.31,0,0,1-2.79,5.94,11.42,11.42,0,0,1-7.48,2.29q-5.86,0-8.41-1.24a4,4,0,0,1-2.54-3.75,4,4,0,0,1,.81-2.88,3.19,3.19,0,0,1,2.28-.78c.49,0,1.25.06,2.29.17s1.82.17,2.36.17q4.44,0,4.44-1.68a1.62,1.62,0,0,0-.85-1.58,8,8,0,0,0-3.22-.44,6.47,6.47,0,0,1-3.34-.63,2.59,2.59,0,0,1-1-2.35c0-1.74,1.12-2.6,3.35-2.6a17.52,17.52,0,0,0,3.19-.21c.7-.14,1.1-.31,1.21-.49A1.82,1.82,0,0,0,90.83,20Z"/></g></g></svg>