<svg xmlns="http://www.w3.org/2000/svg" viewBox="0 0 401.16 76.3"><defs><style>.cls-1{fill:#0468ad;}.cls-2{fill:#fff;}.cls-3,.cls-4{fill:none;stroke-width:5px;}.cls-3{stroke:#c8a927;stroke-linejoin:round;}.cls-4{stroke:#fff;}.cls-5{fill:#c8a927;}</style></defs><title>44t</title><g id="Layer_2" data-name="Layer 2"><g id="pestaña_identificativa" data-name="pestaña identificativa"><rect class="cls-1" width="401.16" height="76.3" rx="32.4"/><path class="cls-2" d="M126.88,34a8.58,8.58,0,0,1-2.33-.34A9.52,9.52,0,0,1,120,30.86a8.48,8.48,0,0,1-1.51-2.55,9.36,9.36,0,0,1-.56-3.32,8.59,8.59,0,0,1,.57-3.24A8.06,8.06,0,0,1,120,19.29a8.84,8.84,0,0,1,2.13-1.74,9.54,9.54,0,0,1,2.41-1,8.84,8.84,0,0,1,2.39-.34,7.36,7.36,0,0,1,2.22.3,8.09,8.09,0,0,1,1.54.63l.76.42a9.08,9.08,0,0,1,.85.65,1.25,1.25,0,0,1,.43.9,1.61,1.61,0,0,1-.12.6,2.29,2.29,0,0,1-.34.6,3.05,3.05,0,0,1-.77.84,1.23,1.23,0,0,1-.73.26,1.16,1.16,0,0,1-.57-.15,6.85,6.85,0,0,1-.65-.4c-.12-.08-.28-.19-.5-.31a3.53,3.53,0,0,0-.89-.34,5.78,5.78,0,0,0-3.15.15,5.23,5.23,0,0,0-1.64.92,4.58,4.58,0,0,0-1.2,1.59,5.3,5.3,0,0,0-.45,2.26,5,5,0,0,0,.46,2.25,4.69,4.69,0,0,0,1.21,1.58,5.29,5.29,0,0,0,1.64.94,5.16,5.16,0,0,0,1.74.31,4.66,4.66,0,0,0,1.27-.15,5,5,0,0,0,.93-.36,7.11,7.11,0,0,0,.67-.39c.19-.11.37-.22.57-.32a1.14,1.14,0,0,1,1.3.12,3.43,3.43,0,0,1,.73.88,2.66,2.66,0,0,1,.34.64,1.68,1.68,0,0,1,.11.61,1.07,1.07,0,0,1-.41.86,7.09,7.09,0,0,1-.86.61l-.75.44a8.25,8.25,0,0,1-1.53.63A8,8,0,0,1,126.88,34Z"/><path class="cls-2" d="M140.88,34.05a6.41,6.41,0,0,1-2.34-.46,6.94,6.94,0,0,1-2.11-1.32,6.13,6.13,0,0,1-1.51-2,6,6,0,0,1-.57-2.64,6.4,6.4,0,0,1,.52-2.51A6.75,6.75,0,0,1,136.28,23a6.67,6.67,0,0,1,2.07-1.41,6.08,6.08,0,0,1,2.48-.51,6.33,6.33,0,0,1,3.26.86,6.56,6.56,0,0,1,2.34,2.34,6.27,6.27,0,0,1,.87,3.28,6.2,6.2,0,0,1-.56,2.71,6.5,6.5,0,0,1-1.5,2,6.73,6.73,0,0,1-2.08,1.28A6.36,6.36,0,0,1,140.88,34.05Zm0-3.78a2.78,2.78,0,0,0,1.22-.3,2.64,2.64,0,0,0,1-.89,2.54,2.54,0,0,0,.43-1.53,2.77,2.77,0,0,0-.35-1.4,2.48,2.48,0,0,0-1-.94,2.94,2.94,0,0,0-1.41-.34,2.6,2.6,0,0,0-1.34.35,2.76,2.76,0,0,0-.95,1,2.86,2.86,0,0,0,0,2.9,2.61,2.61,0,0,0,1,.9A3,3,0,0,0,140.83,30.27Z"/><path class="cls-2" d="M154.13,33.86a16.26,16.26,0,0,1-1.83-.1,4.13,4.13,0,0,1-1.35-.4,2.67,2.67,0,0,1-.9-.84,4,4,0,0,1-.52-1.38,10,10,0,0,1-.18-2.06V17.53a4,4,0,0,1,.1-.93,1.21,1.21,0,0,1,.49-.7,2.37,2.37,0,0,1,1.31-.27,2.24,2.24,0,0,1,1.29.28,1.15,1.15,0,0,1,.49.7,4.4,4.4,0,0,1,.1.92V28.91a4.16,4.16,0,0,0,0,.66.8.8,0,0,0,.15.41.49.49,0,0,0,.31.2,2.4,2.4,0,0,0,.52.05,2.7,2.7,0,0,1,.62.08.9.9,0,0,1,.53.45,2.53,2.53,0,0,1,.23,1.25,2.79,2.79,0,0,1-.23,1.3.89.89,0,0,1-.54.47A2.72,2.72,0,0,1,154.13,33.86Z"/><path class="cls-2" d="M163.35,34.06A6.29,6.29,0,0,1,161,33.6a7.24,7.24,0,0,1-2.11-1.31,6.38,6.38,0,0,1-1.51-2,6.47,6.47,0,0,1,0-5.15A6.88,6.88,0,0,1,158.76,23a6.75,6.75,0,0,1,2.06-1.41,6.13,6.13,0,0,1,2.49-.51,6.24,6.24,0,0,1,3.26.87,6.48,6.48,0,0,1,2.34,2.34,6.69,6.69,0,0,1,.31,6,6.53,6.53,0,0,1-1.51,2,6.45,6.45,0,0,1-4.36,1.72Zm0-3.77a2.85,2.85,0,0,0,1.23-.3,2.74,2.74,0,0,0,1.05-.9,2.61,2.61,0,0,0,.42-1.53,2.77,2.77,0,0,0-.34-1.4,2.48,2.48,0,0,0-1-.93,2.8,2.8,0,0,0-1.41-.34,2.53,2.53,0,0,0-1.34.35,2.65,2.65,0,0,0-.95,1,2.93,2.93,0,0,0,0,2.9,2.49,2.49,0,0,0,1,.9A2.9,2.9,0,0,0,163.3,30.29Z"/><path class="cls-2" d="M173.68,33.87a2.52,2.52,0,0,1-1.32-.26,1.1,1.1,0,0,1-.47-.72,4.7,4.7,0,0,1-.09-.92V23.24a5.25,5.25,0,0,1,.08-.92,1.09,1.09,0,0,1,.49-.69,2.59,2.59,0,0,1,1.33-.26,2.5,2.5,0,0,1,1.26.24,1.06,1.06,0,0,1,.49.55,2.09,2.09,0,0,1,.1.53l-.3.15a3.22,3.22,0,0,1,.26-.36,3.58,3.58,0,0,1,.59-.55,3.53,3.53,0,0,1,2.15-.68l.61,0a4.62,4.62,0,0,1,.7.15,2.86,2.86,0,0,1,.66.31,1.54,1.54,0,0,1,.49.46,1.2,1.2,0,0,1,.19.67,3,3,0,0,1-.48,1.74,1.4,1.4,0,0,1-1.2.71,2.11,2.11,0,0,1-.6-.06,1,1,0,0,1-.29-.15.93.93,0,0,0-.26-.15,1.68,1.68,0,0,0-.55-.06,2.34,2.34,0,0,0-.71.1,1.85,1.85,0,0,0-.63.31,1.5,1.5,0,0,0-.45.52,1.53,1.53,0,0,0-.16.72V32a4.46,4.46,0,0,1-.09.91,1,1,0,0,1-.49.69A2.58,2.58,0,0,1,173.68,33.87Z"/><path class="cls-2" d="M189.08,34.1a7.3,7.3,0,0,1-3-.57A5.86,5.86,0,0,1,184,32a6.51,6.51,0,0,1-1.2-2.09,7.09,7.09,0,0,1-.4-2.3,6.42,6.42,0,0,1,.86-3.32A6,6,0,0,1,185.62,22a7.11,7.11,0,0,1,3.46-.83,6.18,6.18,0,0,1,2.51.46,5.13,5.13,0,0,1,1.75,1.2,5.22,5.22,0,0,1,1,1.59,4.54,4.54,0,0,1,.34,1.63,2.89,2.89,0,0,1-.67,2.05,2.25,2.25,0,0,1-1.69.67H186.4a1.77,1.77,0,0,0,.47,1.07,2.69,2.69,0,0,0,1,.7,3.5,3.5,0,0,0,1.33.25,7.94,7.94,0,0,0,1-.06,4.3,4.3,0,0,0,.79-.17l.59-.23.49-.19a4.19,4.19,0,0,1,.42-.1,1,1,0,0,1,.68.22,2,2,0,0,1,.57.71,1.75,1.75,0,0,1,.24.53,2.07,2.07,0,0,1,.06.5,1.32,1.32,0,0,1-.61,1.08,4.73,4.73,0,0,1-1.73.74A11.47,11.47,0,0,1,189.08,34.1Zm-2.68-7.4h3.95a1,1,0,0,0,.58-.13.62.62,0,0,0,.2-.54,1.27,1.27,0,0,0-.27-.78,1.76,1.76,0,0,0-.74-.53,2.8,2.8,0,0,0-1.09-.19,3,3,0,0,0-1.35.3,2.38,2.38,0,0,0-.94.8A1.91,1.91,0,0,0,186.4,26.7Z"/><path class="cls-2" d="M207,33.86a2.36,2.36,0,0,1-1.37-.32.91.91,0,0,1-.43-.8l.25-.43a2.72,2.72,0,0,1-.57.61,4.08,4.08,0,0,1-1.12.65,4.15,4.15,0,0,1-1.66.29,5,5,0,0,1-2.19-.5A5.85,5.85,0,0,1,198.08,32a7,7,0,0,1-1.28-2,6.16,6.16,0,0,1-.47-2.38,6,6,0,0,1,.47-2.33,6.77,6.77,0,0,1,1.29-2,6.51,6.51,0,0,1,1.84-1.36,5,5,0,0,1,2.18-.5,4.3,4.3,0,0,1,1.57.26,4.16,4.16,0,0,1,1.09.62,3.43,3.43,0,0,1,.66.67l-.22-.35a1,1,0,0,1,.43-.91,2.44,2.44,0,0,1,1.39-.31,2.34,2.34,0,0,1,1.29.27,1.16,1.16,0,0,1,.48.73,5.8,5.8,0,0,1,.08.95V32a4.73,4.73,0,0,1-.09.93,1.07,1.07,0,0,1-.48.71A2.38,2.38,0,0,1,207,33.86Zm-4.37-3.72a2.21,2.21,0,0,0,1.2-.34A2.56,2.56,0,0,0,205,27.61a2.46,2.46,0,0,0-.32-1.28,2.35,2.35,0,0,0-.88-.89,2.3,2.3,0,0,0-1.22-.33,2.33,2.33,0,0,0-1.26.34,2.53,2.53,0,0,0-1.24,2.21,2.34,2.34,0,0,0,.34,1.24,2.56,2.56,0,0,0,.92.9A2.59,2.59,0,0,0,202.63,30.14Z"/><path class="cls-2" d="M222.7,33.9a16.21,16.21,0,0,1-1.82-.1,3.89,3.89,0,0,1-1.36-.4,2.47,2.47,0,0,1-.89-.84,4,4,0,0,1-.53-1.38,10.81,10.81,0,0,1-.17-2.06V17.57a3.8,3.8,0,0,1,.11-.92,1.1,1.1,0,0,1,.48-.7,2.31,2.31,0,0,1,1.32-.28,2.21,2.21,0,0,1,1.28.28,1.15,1.15,0,0,1,.49.7,3.82,3.82,0,0,1,.1.92V29a4.08,4.08,0,0,0,0,.66.77.77,0,0,0,.15.41.51.51,0,0,0,.31.2,2,2,0,0,0,.53.05,2.62,2.62,0,0,1,.61.08.89.89,0,0,1,.54.45,2.58,2.58,0,0,1,.22,1.25,2.81,2.81,0,0,1-.22,1.3.89.89,0,0,1-.54.47A2.74,2.74,0,0,1,222.7,33.9Z"/><path class="cls-2" d="M227.93,19.6a2.53,2.53,0,0,1-1.35-.27,1.12,1.12,0,0,1-.48-.73,4.86,4.86,0,0,1-.09-1,4.75,4.75,0,0,1,.09-1,1,1,0,0,1,.5-.7,2.59,2.59,0,0,1,1.36-.26,2.47,2.47,0,0,1,1.33.27,1.16,1.16,0,0,1,.48.73,4.92,4.92,0,0,1,.09,1,4.73,4.73,0,0,1-.09.93,1.07,1.07,0,0,1-.49.71A2.59,2.59,0,0,1,227.93,19.6Zm0,14.3a2.57,2.57,0,0,1-1.32-.26,1,1,0,0,1-.47-.7,5.4,5.4,0,0,1-.08-.91V23.3a5.31,5.31,0,0,1,.08-.91,1.09,1.09,0,0,1,.49-.7,2.49,2.49,0,0,1,1.33-.26,2.28,2.28,0,0,1,1.28.27,1.14,1.14,0,0,1,.48.72,4.59,4.59,0,0,1,.09.93v8.7a4.46,4.46,0,0,1-.09.91,1,1,0,0,1-.47.69A2.53,2.53,0,0,1,227.92,33.9Z"/><path class="cls-2" d="M234.3,33.91a2.39,2.39,0,0,1-1.3-.28,1.1,1.1,0,0,1-.49-.71,4.57,4.57,0,0,1-.08-.92V17.63a4.69,4.69,0,0,1,.09-.94A1.08,1.08,0,0,1,233,16a2.59,2.59,0,0,1,1.33-.26,2.15,2.15,0,0,1,1.27.28,1.08,1.08,0,0,1,.45.71,3.91,3.91,0,0,1,.05.91V32.78a1.3,1.3,0,0,1-.53.85A2.29,2.29,0,0,1,234.3,33.91Zm4.85,0a4.38,4.38,0,0,1-2.15-.51A4.56,4.56,0,0,1,235.46,32a6.44,6.44,0,0,1-.92-2,8.49,8.49,0,0,1-.29-2.4,8.29,8.29,0,0,1,.33-2.35,6.31,6.31,0,0,1,.94-2,4.29,4.29,0,0,1,3.64-1.83,4.91,4.91,0,0,1,2.15.5,6.36,6.36,0,0,1,1.83,1.37,6.5,6.5,0,0,1,1.28,2,6.3,6.3,0,0,1,0,4.75,6.68,6.68,0,0,1-1.26,2,5.91,5.91,0,0,1-1.83,1.36A5,5,0,0,1,239.15,33.88Zm-.5-3.7a2.36,2.36,0,0,0,1.25-.33,2.62,2.62,0,0,0,.89-.92,2.49,2.49,0,0,0,.34-1.27,2.54,2.54,0,0,0-.33-1.28,2.38,2.38,0,0,0-.88-.9,2.52,2.52,0,0,0-1.24-.32,2.42,2.42,0,0,0-1.24.33,2.5,2.5,0,0,0-.87.9,2.58,2.58,0,0,0-.32,1.27,2.51,2.51,0,0,0,.33,1.27,2.38,2.38,0,0,0,.87.91A2.23,2.23,0,0,0,238.65,30.18Z"/><path class="cls-2" d="M248.92,33.91a2.41,2.41,0,0,1-1.31-.26,1.06,1.06,0,0,1-.47-.71,4.73,4.73,0,0,1-.09-.93V23.29a5.37,5.37,0,0,1,.08-.93,1,1,0,0,1,.49-.68,2.47,2.47,0,0,1,1.33-.27,2.5,2.5,0,0,1,1.26.24,1.06,1.06,0,0,1,.49.55,2.08,2.08,0,0,1,.1.54l-.3.15a2,2,0,0,1,.26-.36,3.2,3.2,0,0,1,.59-.55,3.4,3.4,0,0,1,.91-.49,3.62,3.62,0,0,1,1.24-.2,4.66,4.66,0,0,1,.61,0,3.14,3.14,0,0,1,.7.15,2.83,2.83,0,0,1,.66.3,1.8,1.8,0,0,1,.49.46,1.24,1.24,0,0,1,.19.68,3.06,3.06,0,0,1-.48,1.74,1.42,1.42,0,0,1-1.2.71,1.73,1.73,0,0,1-.6-.07,1,1,0,0,1-.29-.15l-.26-.15a1.68,1.68,0,0,0-.55-.06,2.34,2.34,0,0,0-.71.1,2.06,2.06,0,0,0-.63.31,1.54,1.54,0,0,0-.45.53,1.49,1.49,0,0,0-.16.71v5.48a4.53,4.53,0,0,1-.09.91,1,1,0,0,1-.49.69A2.73,2.73,0,0,1,248.92,33.91Z"/><path class="cls-2" d="M264.32,34.15a7.12,7.12,0,0,1-3-.58,5.84,5.84,0,0,1-2.06-1.51,6.61,6.61,0,0,1-1.2-2.09,7.14,7.14,0,0,1-.4-2.3,6.54,6.54,0,0,1,.85-3.33,6.19,6.19,0,0,1,2.37-2.28,7,7,0,0,1,3.46-.84,6.21,6.21,0,0,1,2.51.47,5.23,5.23,0,0,1,1.75,1.2,5.1,5.1,0,0,1,1,1.59A4.46,4.46,0,0,1,270,26.1a2.82,2.82,0,0,1-.66,2,2.26,2.26,0,0,1-1.69.68h-6a1.77,1.77,0,0,0,.46,1.08,2.85,2.85,0,0,0,1,.7,3.7,3.7,0,0,0,1.33.25,7.94,7.94,0,0,0,1-.06,3.7,3.7,0,0,0,.79-.18c.22-.07.41-.15.59-.22a4.44,4.44,0,0,1,.49-.19,2.53,2.53,0,0,1,.42-.1,1,1,0,0,1,.68.21,2.16,2.16,0,0,1,.57.72,1.61,1.61,0,0,1,.24.52,2.14,2.14,0,0,1,.06.5,1.34,1.34,0,0,1-.61,1.09,4.74,4.74,0,0,1-1.73.73A11,11,0,0,1,264.32,34.15Zm-2.67-7.4h4a1,1,0,0,0,.58-.14.62.62,0,0,0,.2-.54,1.18,1.18,0,0,0-.28-.77,1.84,1.84,0,0,0-.73-.54,3.2,3.2,0,0,0-2.44.11,2.47,2.47,0,0,0-.94.8A1.94,1.94,0,0,0,261.65,26.75Z"/><path class="cls-2" d="M273.87,33.93a2.3,2.3,0,0,1-1.3-.28,1,1,0,0,1-.47-.7A5.25,5.25,0,0,1,272,32V23.28a4.29,4.29,0,0,1,.09-.9,1.06,1.06,0,0,1,.49-.69,2.52,2.52,0,0,1,1.32-.26,2.06,2.06,0,0,1,1.35.36,1.5,1.5,0,0,1,.43,1.19l-.33.28a1.67,1.67,0,0,1,.3-.43,4.35,4.35,0,0,1,.65-.62,4.13,4.13,0,0,1,.94-.57,3,3,0,0,1,1.16-.23,4.61,4.61,0,0,1,1.49.23,3.85,3.85,0,0,1,1.2.71,4,4,0,0,1,.93,1.16,6.94,6.94,0,0,1,.86-1,4.74,4.74,0,0,1,1.17-.8,3.58,3.58,0,0,1,1.53-.32,4.1,4.1,0,0,1,2.48.74,4.51,4.51,0,0,1,1.54,2.11,9.39,9.39,0,0,1,.52,3.33v4.47a4,4,0,0,1-.1.92,1.15,1.15,0,0,1-.49.7,3.36,3.36,0,0,1-2.64,0,1.07,1.07,0,0,1-.47-.71,5.41,5.41,0,0,1-.07-.91V27.56a3.81,3.81,0,0,0-.19-1.29,1.74,1.74,0,0,0-.54-.82,1.37,1.37,0,0,0-.9-.29,1.7,1.7,0,0,0-1,.27,1.64,1.64,0,0,0-.6.8,3.92,3.92,0,0,0-.2,1.35v4.48a3.56,3.56,0,0,1-.12.94,1.2,1.2,0,0,1-.54.7,2.47,2.47,0,0,1-1.34.23,2,2,0,0,1-1.25-.29,1.12,1.12,0,0,1-.45-.72,5.26,5.26,0,0,1-.07-.89V27.56a4.5,4.5,0,0,0-.17-1.3,1.66,1.66,0,0,0-.53-.83,1.46,1.46,0,0,0-.92-.27,1.57,1.57,0,0,0-1,.32,1.88,1.88,0,0,0-.58.86,3.53,3.53,0,0,0-.19,1.21v4.5a4.48,4.48,0,0,1-.08.93,1.12,1.12,0,0,1-.49.69A2.59,2.59,0,0,1,273.87,33.93Z"/><path class="cls-2" d="M298.8,34.17a7.09,7.09,0,0,1-3-.58,5.88,5.88,0,0,1-2.07-1.51A6.4,6.4,0,0,1,292.53,30a6.88,6.88,0,0,1-.4-2.3,6.38,6.38,0,0,1,.85-3.32,6.11,6.11,0,0,1,2.36-2.29,7,7,0,0,1,3.47-.84,6.24,6.24,0,0,1,2.51.47,5.23,5.23,0,0,1,1.75,1.2,4.89,4.89,0,0,1,1,1.59,4.28,4.28,0,0,1,.34,1.62,2.78,2.78,0,0,1-.67,2.05,2.25,2.25,0,0,1-1.68.68h-5.95a1.71,1.71,0,0,0,.46,1.08,2.77,2.77,0,0,0,1,.7,3.41,3.41,0,0,0,1.32.25,8.22,8.22,0,0,0,1-.06,3.7,3.7,0,0,0,.79-.18l.58-.22c.18-.08.34-.14.49-.19a2.41,2.41,0,0,1,.43-.1,1,1,0,0,1,.67.21,1.94,1.94,0,0,1,.57.72,1.71,1.71,0,0,1,.24.52,2.2,2.2,0,0,1,.06.5,1.34,1.34,0,0,1-.61,1.09,4.85,4.85,0,0,1-1.72.74A11.62,11.62,0,0,1,298.8,34.17Zm-2.67-7.4h3.95a1,1,0,0,0,.57-.14c.14-.09.2-.27.2-.54a1.23,1.23,0,0,0-.27-.77,1.87,1.87,0,0,0-.74-.54,3.2,3.2,0,0,0-2.44.11,2.36,2.36,0,0,0-.93.8A1.87,1.87,0,0,0,296.13,26.77Z"/><path class="cls-2" d="M308.4,33.92a2.36,2.36,0,0,1-1.31-.26,1.07,1.07,0,0,1-.48-.7,4.46,4.46,0,0,1-.09-.91v-8.8a4.19,4.19,0,0,1,.09-.89,1,1,0,0,1,.49-.66,3.52,3.52,0,0,1,2.5,0,1,1,0,0,1,.48.52,1.49,1.49,0,0,1,.12.56.84.84,0,0,0,0,.36l-.15.48a1.61,1.61,0,0,1,.39-.77,3.74,3.74,0,0,1,.85-.7,4.7,4.7,0,0,1,1.1-.48,4,4,0,0,1,1.17-.18,5,5,0,0,1,2.13.44,4.24,4.24,0,0,1,1.59,1.26,6.13,6.13,0,0,1,1,1.94,8.62,8.62,0,0,1,.33,2.44v4.55a4.46,4.46,0,0,1-.09.91,1.05,1.05,0,0,1-.47.69,3.62,3.62,0,0,1-2.67,0,1.06,1.06,0,0,1-.48-.7,4.63,4.63,0,0,1-.09-.92V27.53a2.92,2.92,0,0,0-.26-1.28,1.81,1.81,0,0,0-.75-.8,2.46,2.46,0,0,0-1.21-.27,2.57,2.57,0,0,0-1.25.28,2.15,2.15,0,0,0-.82.82,2.57,2.57,0,0,0-.28,1.25v4.55a5.4,5.4,0,0,1-.08.91,1.06,1.06,0,0,1-.48.69A2.64,2.64,0,0,1,308.4,33.92Z"/><path class="cls-2" d="M321.88,21.66h2.75l3.45-.1a4.29,4.29,0,0,1,.9.09,1.1,1.1,0,0,1,.7.49,2.43,2.43,0,0,1,.27,1.32,2.26,2.26,0,0,1-.26,1.25,1.1,1.1,0,0,1-.69.51,3.36,3.36,0,0,1-.92.12l-3.28-.08-3,0a1.25,1.25,0,0,1-1-.46,2.46,2.46,0,0,1-.29-1.39,2.17,2.17,0,0,1,.35-1.34A1.26,1.26,0,0,1,321.88,21.66ZM327.52,34a7.54,7.54,0,0,1-2.2-.28,3.33,3.33,0,0,1-2.38-2.31,6.89,6.89,0,0,1-.29-2.11V19.13a4.92,4.92,0,0,1,.08-.92,1.06,1.06,0,0,1,.49-.66,2.4,2.4,0,0,1,1.3-.27,2.36,2.36,0,0,1,1.3.28,1.1,1.1,0,0,1,.49.71,4.56,4.56,0,0,1,.09.92v9.92a3,3,0,0,0,.06.66.79.79,0,0,0,.19.39.77.77,0,0,0,.35.18,2.79,2.79,0,0,0,.55.05,4,4,0,0,1,1,.1,1,1,0,0,1,.67.45,2.24,2.24,0,0,1,.23,1.17,2.38,2.38,0,0,1-.27,1.3,1.07,1.07,0,0,1-.72.48A5.33,5.33,0,0,1,327.52,34Z"/><path class="cls-2" d="M338.07,34.19a7.28,7.28,0,0,1-3-.57A5.86,5.86,0,0,1,333,32.1,6.33,6.33,0,0,1,331.8,30a6.83,6.83,0,0,1-.4-2.3,6.51,6.51,0,0,1,.85-3.32,6.14,6.14,0,0,1,2.37-2.29,7.11,7.11,0,0,1,3.46-.83,6.22,6.22,0,0,1,2.51.46,5.23,5.23,0,0,1,1.75,1.2,5.1,5.1,0,0,1,1,1.59,4.51,4.51,0,0,1,.33,1.63A2.84,2.84,0,0,1,343,28.2a2.31,2.31,0,0,1-1.69.67h-6a1.76,1.76,0,0,0,.46,1.07,2.85,2.85,0,0,0,1,.7,3.48,3.48,0,0,0,1.32.25,8.1,8.1,0,0,0,1-.06,4.49,4.49,0,0,0,.79-.17l.59-.23.48-.19a2.63,2.63,0,0,1,.43-.1,1,1,0,0,1,.67.22,2,2,0,0,1,.58.71,1.9,1.9,0,0,1,.24.53,2.07,2.07,0,0,1,.06.5,1.35,1.35,0,0,1-.61,1.08,4.73,4.73,0,0,1-1.73.74A11.56,11.56,0,0,1,338.07,34.19Zm-2.67-7.4h4a1.06,1.06,0,0,0,.58-.13.65.65,0,0,0,.2-.54,1.23,1.23,0,0,0-.28-.78,1.73,1.73,0,0,0-.73-.53,2.83,2.83,0,0,0-1.09-.19,3,3,0,0,0-1.35.3,2.31,2.31,0,0,0-.94.8A1.84,1.84,0,0,0,335.4,26.79Z"/><path class="cls-3" d="M126.88,34a8.58,8.58,0,0,1-2.33-.34A9.52,9.52,0,0,1,120,30.86a8.48,8.48,0,0,1-1.51-2.55,9.36,9.36,0,0,1-.56-3.32,8.59,8.59,0,0,1,.57-3.24A8.06,8.06,0,0,1,120,19.29a8.84,8.84,0,0,1,2.13-1.74,9.54,9.54,0,0,1,2.41-1,8.84,8.84,0,0,1,2.39-.34,7.36,7.36,0,0,1,2.22.3,8.09,8.09,0,0,1,1.54.63l.76.42a9.08,9.08,0,0,1,.85.65,1.25,1.25,0,0,1,.43.9,1.61,1.61,0,0,1-.12.6,2.29,2.29,0,0,1-.34.6,3.05,3.05,0,0,1-.77.84,1.23,1.23,0,0,1-.73.26,1.16,1.16,0,0,1-.57-.15,6.85,6.85,0,0,1-.65-.4c-.12-.08-.28-.19-.5-.31a3.53,3.53,0,0,0-.89-.34,5.78,5.78,0,0,0-3.15.15,5.23,5.23,0,0,0-1.64.92,4.58,4.58,0,0,0-1.2,1.59,5.3,5.3,0,0,0-.45,2.26,5,5,0,0,0,.46,2.25,4.69,4.69,0,0,0,1.21,1.58,5.29,5.29,0,0,0,1.64.94,5.16,5.16,0,0,0,1.74.31,4.66,4.66,0,0,0,1.27-.15,5,5,0,0,0,.93-.36,7.11,7.11,0,0,0,.67-.39c.19-.11.37-.22.57-.32a1.14,1.14,0,0,1,1.3.12,3.43,3.43,0,0,1,.73.88,2.66,2.66,0,0,1,.34.64,1.68,1.68,0,0,1,.11.61,1.07,1.07,0,0,1-.41.86,7.09,7.09,0,0,1-.86.61l-.75.44a8.25,8.25,0,0,1-1.53.63A8,8,0,0,1,126.88,34Z"/><path class="cls-3" d="M140.88,34.05a6.41,6.41,0,0,1-2.34-.46,6.94,6.94,0,0,1-2.11-1.32,6.13,6.13,0,0,1-1.51-2,6,6,0,0,1-.57-2.64,6.4,6.4,0,0,1,.52-2.51A6.75,6.75,0,0,1,136.28,23a6.67,6.67,0,0,1,2.07-1.41,6.08,6.08,0,0,1,2.48-.51,6.33,6.33,0,0,1,3.26.86,6.56,6.56,0,0,1,2.34,2.34,6.27,6.27,0,0,1,.87,3.28,6.2,6.2,0,0,1-.56,2.71,6.5,6.5,0,0,1-1.5,2,6.73,6.73,0,0,1-2.08,1.28A6.36,6.36,0,0,1,140.88,34.05Zm0-3.78a2.78,2.78,0,0,0,1.22-.3,2.64,2.64,0,0,0,1-.89,2.54,2.54,0,0,0,.43-1.53,2.77,2.77,0,0,0-.35-1.4,2.48,2.48,0,0,0-1-.94,2.94,2.94,0,0,0-1.41-.34,2.6,2.6,0,0,0-1.34.35,2.76,2.76,0,0,0-.95,1,2.86,2.86,0,0,0,0,2.9,2.61,2.61,0,0,0,1,.9A3,3,0,0,0,140.83,30.27Z"/><path class="cls-3" d="M154.13,33.86a16.26,16.26,0,0,1-1.83-.1,4.13,4.13,0,0,1-1.35-.4,2.67,2.67,0,0,1-.9-.84,4,4,0,0,1-.52-1.38,10,10,0,0,1-.18-2.06V17.53a4,4,0,0,1,.1-.93,1.21,1.21,0,0,1,.49-.7,2.37,2.37,0,0,1,1.31-.27,2.24,2.24,0,0,1,1.29.28,1.15,1.15,0,0,1,.49.7,4.4,4.4,0,0,1,.1.92V28.91a4.16,4.16,0,0,0,0,.66.8.8,0,0,0,.15.41.49.49,0,0,0,.31.2,2.4,2.4,0,0,0,.52.05,2.7,2.7,0,0,1,.62.08.9.9,0,0,1,.53.45,2.53,2.53,0,0,1,.23,1.25,2.79,2.79,0,0,1-.23,1.3.89.89,0,0,1-.54.47A2.72,2.72,0,0,1,154.13,33.86Z"/><path class="cls-3" d="M163.35,34.06A6.29,6.29,0,0,1,161,33.6a7.24,7.24,0,0,1-2.11-1.31,6.38,6.38,0,0,1-1.51-2,6.47,6.47,0,0,1,0-5.15A6.88,6.88,0,0,1,158.76,23a6.75,6.75,0,0,1,2.06-1.41,6.13,6.13,0,0,1,2.49-.51,6.24,6.24,0,0,1,3.26.87,6.48,6.48,0,0,1,2.34,2.34,6.69,6.69,0,0,1,.31,6,6.53,6.53,0,0,1-1.51,2,6.45,6.45,0,0,1-4.36,1.72Zm0-3.77a2.85,2.85,0,0,0,1.23-.3,2.74,2.74,0,0,0,1.05-.9,2.61,2.61,0,0,0,.42-1.53,2.77,2.77,0,0,0-.34-1.4,2.48,2.48,0,0,0-1-.93,2.8,2.8,0,0,0-1.41-.34,2.53,2.53,0,0,0-1.34.35,2.65,2.65,0,0,0-.95,1,2.93,2.93,0,0,0,0,2.9,2.49,2.49,0,0,0,1,.9A2.9,2.9,0,0,0,163.3,30.29Z"/><path class="cls-3" d="M173.68,33.87a2.52,2.52,0,0,1-1.32-.26,1.1,1.1,0,0,1-.47-.72,4.7,4.7,0,0,1-.09-.92V23.24a5.25,5.25,0,0,1,.08-.92,1.09,1.09,0,0,1,.49-.69,2.59,2.59,0,0,1,1.33-.26,2.5,2.5,0,0,1,1.26.24,1.06,1.06,0,0,1,.49.55,2.09,2.09,0,0,1,.1.53l-.3.15a3.22,3.22,0,0,1,.26-.36,3.58,3.58,0,0,1,.59-.55,3.53,3.53,0,0,1,2.15-.68l.61,0a4.62,4.62,0,0,1,.7.15,2.86,2.86,0,0,1,.66.31,1.54,1.54,0,0,1,.49.46,1.2,1.2,0,0,1,.19.67,3,3,0,0,1-.48,1.74,1.4,1.4,0,0,1-1.2.71,2.11,2.11,0,0,1-.6-.06,1,1,0,0,1-.29-.15.93.93,0,0,0-.26-.15,1.68,1.68,0,0,0-.55-.06,2.34,2.34,0,0,0-.71.1,1.85,1.85,0,0,0-.63.31,1.5,1.5,0,0,0-.45.52,1.53,1.53,0,0,0-.16.72V32a4.46,4.46,0,0,1-.09.91,1,1,0,0,1-.49.69A2.58,2.58,0,0,1,173.68,33.87Z"/><path class="cls-3" d="M189.08,34.1a7.3,7.3,0,0,1-3-.57A5.86,5.86,0,0,1,184,32a6.51,6.51,0,0,1-1.2-2.09,7.09,7.09,0,0,1-.4-2.3,6.42,6.42,0,0,1,.86-3.32A6,6,0,0,1,185.62,22a7.11,7.11,0,0,1,3.46-.83,6.18,6.18,0,0,1,2.51.46,5.13,5.13,0,0,1,1.75,1.2,5.22,5.22,0,0,1,1,1.59,4.54,4.54,0,0,1,.34,1.63,2.89,2.89,0,0,1-.67,2.05,2.25,2.25,0,0,1-1.69.67H186.4a1.77,1.77,0,0,0,.47,1.07,2.69,2.69,0,0,0,1,.7,3.5,3.5,0,0,0,1.33.25,7.94,7.94,0,0,0,1-.06,4.3,4.3,0,0,0,.79-.17l.59-.23.49-.19a4.19,4.19,0,0,1,.42-.1,1,1,0,0,1,.68.22,2,2,0,0,1,.57.71,1.75,1.75,0,0,1,.24.53,2.07,2.07,0,0,1,.06.5,1.32,1.32,0,0,1-.61,1.08,4.73,4.73,0,0,1-1.73.74A11.47,11.47,0,0,1,189.08,34.1Zm-2.68-7.4h3.95a1,1,0,0,0,.58-.13.62.62,0,0,0,.2-.54,1.27,1.27,0,0,0-.27-.78,1.76,1.76,0,0,0-.74-.53,2.8,2.8,0,0,0-1.09-.19,3,3,0,0,0-1.35.3,2.38,2.38,0,0,0-.94.8A1.91,1.91,0,0,0,186.4,26.7Z"/><path class="cls-3" d="M207,33.86a2.36,2.36,0,0,1-1.37-.32.91.91,0,0,1-.43-.8l.25-.43a2.72,2.72,0,0,1-.57.61,4.08,4.08,0,0,1-1.12.65,4.15,4.15,0,0,1-1.66.29,5,5,0,0,1-2.19-.5A5.85,5.85,0,0,1,198.08,32a7,7,0,0,1-1.28-2,6.16,6.16,0,0,1-.47-2.38,6,6,0,0,1,.47-2.33,6.77,6.77,0,0,1,1.29-2,6.51,6.51,0,0,1,1.84-1.36,5,5,0,0,1,2.18-.5,4.3,4.3,0,0,1,1.57.26,4.16,4.16,0,0,1,1.09.62,3.43,3.43,0,0,1,.66.67l-.22-.35a1,1,0,0,1,.43-.91,2.44,2.44,0,0,1,1.39-.31,2.34,2.34,0,0,1,1.29.27,1.16,1.16,0,0,1,.48.73,5.8,5.8,0,0,1,.08.95V32a4.73,4.73,0,0,1-.09.93,1.07,1.07,0,0,1-.48.71A2.38,2.38,0,0,1,207,33.86Zm-4.37-3.72a2.21,2.21,0,0,0,1.2-.34A2.56,2.56,0,0,0,205,27.61a2.46,2.46,0,0,0-.32-1.28,2.35,2.35,0,0,0-.88-.89,2.3,2.3,0,0,0-1.22-.33,2.33,2.33,0,0,0-1.26.34,2.53,2.53,0,0,0-1.24,2.21,2.34,2.34,0,0,0,.34,1.24,2.56,2.56,0,0,0,.92.9A2.59,2.59,0,0,0,202.63,30.14Z"/><path class="cls-3" d="M222.7,33.9a16.21,16.21,0,0,1-1.82-.1,3.89,3.89,0,0,1-1.36-.4,2.47,2.47,0,0,1-.89-.84,4,4,0,0,1-.53-1.38,10.81,10.81,0,0,1-.17-2.06V17.57a3.8,3.8,0,0,1,.11-.92,1.1,1.1,0,0,1,.48-.7,2.31,2.31,0,0,1,1.32-.28,2.21,2.21,0,0,1,1.28.28,1.15,1.15,0,0,1,.49.7,3.82,3.82,0,0,1,.1.92V29a4.08,4.08,0,0,0,0,.66.77.77,0,0,0,.15.41.51.51,0,0,0,.31.2,2,2,0,0,0,.53.05,2.62,2.62,0,0,1,.61.08.89.89,0,0,1,.54.45,2.58,2.58,0,0,1,.22,1.25,2.81,2.81,0,0,1-.22,1.3.89.89,0,0,1-.54.47A2.74,2.74,0,0,1,222.7,33.9Z"/><path class="cls-3" d="M227.93,19.6a2.53,2.53,0,0,1-1.35-.27,1.12,1.12,0,0,1-.48-.73,4.86,4.86,0,0,1-.09-1,4.75,4.75,0,0,1,.09-1,1,1,0,0,1,.5-.7,2.59,2.59,0,0,1,1.36-.26,2.47,2.47,0,0,1,1.33.27,1.16,1.16,0,0,1,.48.73,4.92,4.92,0,0,1,.09,1,4.73,4.73,0,0,1-.09.93,1.07,1.07,0,0,1-.49.71A2.59,2.59,0,0,1,227.93,19.6Zm0,14.3a2.57,2.57,0,0,1-1.32-.26,1,1,0,0,1-.47-.7,5.4,5.4,0,0,1-.08-.91V23.3a5.31,5.31,0,0,1,.08-.91,1.09,1.09,0,0,1,.49-.7,2.49,2.49,0,0,1,1.33-.26,2.28,2.28,0,0,1,1.28.27,1.14,1.14,0,0,1,.48.72,4.59,4.59,0,0,1,.09.93v8.7a4.46,4.46,0,0,1-.09.91,1,1,0,0,1-.47.69A2.53,2.53,0,0,1,227.92,33.9Z"/><path class="cls-3" d="M234.3,33.91a2.39,2.39,0,0,1-1.3-.28,1.1,1.1,0,0,1-.49-.71,4.57,4.57,0,0,1-.08-.92V17.63a4.69,4.69,0,0,1,.09-.94A1.08,1.08,0,0,1,233,16a2.59,2.59,0,0,1,1.33-.26,2.15,2.15,0,0,1,1.27.28,1.08,1.08,0,0,1,.45.71,3.91,3.91,0,0,1,.05.91V32.78a1.3,1.3,0,0,1-.53.85A2.29,2.29,0,0,1,234.3,33.91Zm4.85,0a4.38,4.38,0,0,1-2.15-.51A4.56,4.56,0,0,1,235.46,32a6.44,6.44,0,0,1-.92-2,8.49,8.49,0,0,1-.29-2.4,8.29,8.29,0,0,1,.33-2.35,6.31,6.31,0,0,1,.94-2,4.29,4.29,0,0,1,3.64-1.83,4.91,4.91,0,0,1,2.15.5,6.36,6.36,0,0,1,1.83,1.37,6.5,6.5,0,0,1,1.28,2,6.3,6.3,0,0,1,0,4.75,6.68,6.68,0,0,1-1.26,2,5.91,5.91,0,0,1-1.83,1.36A5,5,0,0,1,239.15,33.88Zm-.5-3.7a2.36,2.36,0,0,0,1.25-.33,2.62,2.62,0,0,0,.89-.92,2.49,2.49,0,0,0,.34-1.27,2.54,2.54,0,0,0-.33-1.28,2.38,2.38,0,0,0-.88-.9,2.52,2.52,0,0,0-1.24-.32,2.42,2.42,0,0,0-1.24.33,2.5,2.5,0,0,0-.87.9,2.58,2.58,0,0,0-.32,1.27,2.51,2.51,0,0,0,.33,1.27,2.38,2.38,0,0,0,.87.91A2.23,2.23,0,0,0,238.65,30.18Z"/><path class="cls-3" d="M248.92,33.91a2.41,2.41,0,0,1-1.31-.26,1.06,1.06,0,0,1-.47-.71,4.73,4.73,0,0,1-.09-.93V23.29a5.37,5.37,0,0,1,.08-.93,1,1,0,0,1,.49-.68,2.47,2.47,0,0,1,1.33-.27,2.5,2.5,0,0,1,1.26.24,1.06,1.06,0,0,1,.49.55,2.08,2.08,0,0,1,.1.54l-.3.15a2,2,0,0,1,.26-.36,3.2,3.2,0,0,1,.59-.55,3.4,3.4,0,0,1,.91-.49,3.62,3.62,0,0,1,1.24-.2,4.66,4.66,0,0,1,.61,0,3.14,3.14,0,0,1,.7.15,2.83,2.83,0,0,1,.66.3,1.8,1.8,0,0,1,.49.46,1.24,1.24,0,0,1,.19.68,3.06,3.06,0,0,1-.48,1.74,1.42,1.42,0,0,1-1.2.71,1.73,1.73,0,0,1-.6-.07,1,1,0,0,1-.29-.15l-.26-.15a1.68,1.68,0,0,0-.55-.06,2.34,2.34,0,0,0-.71.1,2.06,2.06,0,0,0-.63.31,1.54,1.54,0,0,0-.45.53,1.49,1.49,0,0,0-.16.71v5.48a4.53,4.53,0,0,1-.09.91,1,1,0,0,1-.49.69A2.73,2.73,0,0,1,248.92,33.91Z"/><path class="cls-3" d="M264.32,34.15a7.12,7.12,0,0,1-3-.58,5.84,5.84,0,0,1-2.06-1.51,6.61,6.61,0,0,1-1.2-2.09,7.14,7.14,0,0,1-.4-2.3,6.54,6.54,0,0,1,.85-3.33,6.19,6.19,0,0,1,2.37-2.28,7,7,0,0,1,3.46-.84,6.21,6.21,0,0,1,2.51.47,5.23,5.23,0,0,1,1.75,1.2,5.1,5.1,0,0,1,1,1.59A4.46,4.46,0,0,1,270,26.1a2.82,2.82,0,0,1-.66,2,2.26,2.26,0,0,1-1.69.68h-6a1.77,1.77,0,0,0,.46,1.08,2.85,2.85,0,0,0,1,.7,3.7,3.7,0,0,0,1.33.25,7.94,7.94,0,0,0,1-.06,3.7,3.7,0,0,0,.79-.18c.22-.07.41-.15.59-.22a4.44,4.44,0,0,1,.49-.19,2.53,2.53,0,0,1,.42-.1,1,1,0,0,1,.68.21,2.16,2.16,0,0,1,.57.72,1.61,1.61,0,0,1,.24.52,2.14,2.14,0,0,1,.06.5,1.34,1.34,0,0,1-.61,1.09,4.74,4.74,0,0,1-1.73.73A11,11,0,0,1,264.32,34.15Zm-2.67-7.4h4a1,1,0,0,0,.58-.14.62.62,0,0,0,.2-.54,1.18,1.18,0,0,0-.28-.77,1.84,1.84,0,0,0-.73-.54,3.2,3.2,0,0,0-2.44.11,2.47,2.47,0,0,0-.94.8A1.94,1.94,0,0,0,261.65,26.75Z"/><path class="cls-3" d="M273.87,33.93a2.3,2.3,0,0,1-1.3-.28,1,1,0,0,1-.47-.7A5.25,5.25,0,0,1,272,32V23.28a4.29,4.29,0,0,1,.09-.9,1.06,1.06,0,0,1,.49-.69,2.52,2.52,0,0,1,1.32-.26,2.06,2.06,0,0,1,1.35.36,1.5,1.5,0,0,1,.43,1.19l-.33.28a1.67,1.67,0,0,1,.3-.43,4.35,4.35,0,0,1,.65-.62,4.13,4.13,0,0,1,.94-.57,3,3,0,0,1,1.16-.23,4.61,4.61,0,0,1,1.49.23,3.85,3.85,0,0,1,1.2.71,4,4,0,0,1,.93,1.16,6.94,6.94,0,0,1,.86-1,4.74,4.74,0,0,1,1.17-.8,3.58,3.58,0,0,1,1.53-.32,4.1,4.1,0,0,1,2.48.74,4.51,4.51,0,0,1,1.54,2.11,9.39,9.39,0,0,1,.52,3.33v4.47a4,4,0,0,1-.1.92,1.15,1.15,0,0,1-.49.7,3.36,3.36,0,0,1-2.64,0,1.07,1.07,0,0,1-.47-.71,5.41,5.41,0,0,1-.07-.91V27.56a3.81,3.81,0,0,0-.19-1.29,1.74,1.74,0,0,0-.54-.82,1.37,1.37,0,0,0-.9-.29,1.7,1.7,0,0,0-1,.27,1.64,1.64,0,0,0-.6.8,3.92,3.92,0,0,0-.2,1.35v4.48a3.56,3.56,0,0,1-.12.94,1.2,1.2,0,0,1-.54.7,2.47,2.47,0,0,1-1.34.23,2,2,0,0,1-1.25-.29,1.12,1.12,0,0,1-.45-.72,5.26,5.26,0,0,1-.07-.89V27.56a4.5,4.5,0,0,0-.17-1.3,1.66,1.66,0,0,0-.53-.83,1.46,1.46,0,0,0-.92-.27,1.57,1.57,0,0,0-1,.32,1.88,1.88,0,0,0-.58.86,3.53,3.53,0,0,0-.19,1.21v4.5a4.48,4.48,0,0,1-.08.93,1.12,1.12,0,0,1-.49.69A2.59,2.59,0,0,1,273.87,33.93Z"/><path class="cls-3" d="M298.8,34.17a7.09,7.09,0,0,1-3-.58,5.88,5.88,0,0,1-2.07-1.51A6.4,6.4,0,0,1,292.53,30a6.88,6.88,0,0,1-.4-2.3,6.38,6.38,0,0,1,.85-3.32,6.11,6.11,0,0,1,2.36-2.29,7,7,0,0,1,3.47-.84,6.24,6.24,0,0,1,2.51.47,5.23,5.23,0,0,1,1.75,1.2,4.89,4.89,0,0,1,1,1.59,4.28,4.28,0,0,1,.34,1.62,2.78,2.78,0,0,1-.67,2.05,2.25,2.25,0,0,1-1.68.68h-5.95a1.71,1.71,0,0,0,.46,1.08,2.77,2.77,0,0,0,1,.7,3.41,3.41,0,0,0,1.32.25,8.22,8.22,0,0,0,1-.06,3.7,3.7,0,0,0,.79-.18l.58-.22c.18-.08.34-.14.49-.19a2.41,2.41,0,0,1,.43-.1,1,1,0,0,1,.67.21,1.94,1.94,0,0,1,.57.72,1.71,1.71,0,0,1,.24.52,2.2,2.2,0,0,1,.06.5,1.34,1.34,0,0,1-.61,1.09,4.85,4.85,0,0,1-1.72.74A11.62,11.62,0,0,1,298.8,34.17Zm-2.67-7.4h3.95a1,1,0,0,0,.57-.14c.14-.09.2-.27.2-.54a1.23,1.23,0,0,0-.27-.77,1.87,1.87,0,0,0-.74-.54,3.2,3.2,0,0,0-2.44.11,2.36,2.36,0,0,0-.93.8A1.87,1.87,0,0,0,296.13,26.77Z"/><path class="cls-3" d="M308.4,33.92a2.36,2.36,0,0,1-1.31-.26,1.07,1.07,0,0,1-.48-.7,4.46,4.46,0,0,1-.09-.91v-8.8a4.19,4.19,0,0,1,.09-.89,1,1,0,0,1,.49-.66,3.52,3.52,0,0,1,2.5,0,1,1,0,0,1,.48.52,1.49,1.49,0,0,1,.12.56.84.84,0,0,0,0,.36l-.15.48a1.61,1.61,0,0,1,.39-.77,3.74,3.74,0,0,1,.85-.7,4.7,4.7,0,0,1,1.1-.48,4,4,0,0,1,1.17-.18,5,5,0,0,1,2.13.44,4.24,4.24,0,0,1,1.59,1.26,6.13,6.13,0,0,1,1,1.94,8.62,8.62,0,0,1,.33,2.44v4.55a4.46,4.46,0,0,1-.09.91,1.05,1.05,0,0,1-.47.69,3.62,3.62,0,0,1-2.67,0,1.06,1.06,0,0,1-.48-.7,4.63,4.63,0,0,1-.09-.92V27.53a2.92,2.92,0,0,0-.26-1.28,1.81,1.81,0,0,0-.75-.8,2.46,2.46,0,0,0-1.21-.27,2.57,2.57,0,0,0-1.25.28,2.15,2.15,0,0,0-.82.82,2.57,2.57,0,0,0-.28,1.25v4.55a5.4,5.4,0,0,1-.08.91,1.06,1.06,0,0,1-.48.69A2.64,2.64,0,0,1,308.4,33.92Z"/><path class="cls-3" d="M321.88,21.66h2.75l3.45-.1a4.29,4.29,0,0,1,.9.09,1.1,1.1,0,0,1,.7.49,2.43,2.43,0,0,1,.27,1.32,2.26,2.26,0,0,1-.26,1.25,1.1,1.1,0,0,1-.69.51,3.36,3.36,0,0,1-.92.12l-3.28-.08-3,0a1.25,1.25,0,0,1-1-.46,2.46,2.46,0,0,1-.29-1.39,2.17,2.17,0,0,1,.35-1.34A1.26,1.26,0,0,1,321.88,21.66ZM327.52,34a7.54,7.54,0,0,1-2.2-.28,3.33,3.33,0,0,1-2.38-2.31,6.89,6.89,0,0,1-.29-2.11V19.13a4.92,4.92,0,0,1,.08-.92,1.06,1.06,0,0,1,.49-.66,2.4,2.4,0,0,1,1.3-.27,2.36,2.36,0,0,1,1.3.28,1.1,1.1,0,0,1,.49.71,4.56,4.56,0,0,1,.09.92v9.92a3,3,0,0,0,.06.66.79.79,0,0,0,.19.39.77.77,0,0,0,.35.18,2.79,2.79,0,0,0,.55.05,4,4,0,0,1,1,.1,1,1,0,0,1,.67.45,2.24,2.24,0,0,1,.23,1.17,2.38,2.38,0,0,1-.27,1.3,1.07,1.07,0,0,1-.72.48A5.33,5.33,0,0,1,327.52,34Z"/><path class="cls-3" d="M338.07,34.19a7.28,7.28,0,0,1-3-.57A5.86,5.86,0,0,1,333,32.1,6.33,6.33,0,0,1,331.8,30a6.83,6.83,0,0,1-.4-2.3,6.51,6.51,0,0,1,.85-3.32,6.14,6.14,0,0,1,2.37-2.29,7.11,7.11,0,0,1,3.46-.83,6.22,6.22,0,0,1,2.51.46,5.23,5.23,0,0,1,1.75,1.2,5.1,5.1,0,0,1,1,1.59,4.51,4.51,0,0,1,.33,1.63A2.84,2.84,0,0,1,343,28.2a2.31,2.31,0,0,1-1.69.67h-6a1.76,1.76,0,0,0,.46,1.07,2.85,2.85,0,0,0,1,.7,3.48,3.48,0,0,0,1.32.25,8.1,8.1,0,0,0,1-.06,4.49,4.49,0,0,0,.79-.17l.59-.23.48-.19a2.63,2.63,0,0,1,.43-.1,1,1,0,0,1,.67.22,2,2,0,0,1,.58.71,1.9,1.9,0,0,1,.24.53,2.07,2.07,0,0,1,.06.5,1.35,1.35,0,0,1-.61,1.08,4.73,4.73,0,0,1-1.73.74A11.56,11.56,0,0,1,338.07,34.19Zm-2.67-7.4h4a1.06,1.06,0,0,0,.58-.13.65.65,0,0,0,.2-.54,1.23,1.23,0,0,0-.28-.78,1.73,1.73,0,0,0-.73-.53,2.83,2.83,0,0,0-1.09-.19,3,3,0,0,0-1.35.3,2.31,2.31,0,0,0-.94.8A1.84,1.84,0,0,0,335.4,26.79Z"/><path class="cls-2" d="M126.88,34a8.58,8.58,0,0,1-2.33-.34A9.52,9.52,0,0,1,120,30.86a8.48,8.48,0,0,1-1.51-2.55,9.36,9.36,0,0,1-.56-3.32,8.59,8.59,0,0,1,.57-3.24A8.06,8.06,0,0,1,120,19.29a8.84,8.84,0,0,1,2.13-1.74,9.54,9.54,0,0,1,2.41-1,8.84,8.84,0,0,1,2.39-.34,7.36,7.36,0,0,1,2.22.3,8.09,8.09,0,0,1,1.54.63l.76.42a9.08,9.08,0,0,1,.85.65,1.25,1.25,0,0,1,.43.9,1.61,1.61,0,0,1-.12.6,2.29,2.29,0,0,1-.34.6,3.05,3.05,0,0,1-.77.84,1.23,1.23,0,0,1-.73.26,1.16,1.16,0,0,1-.57-.15,6.85,6.85,0,0,1-.65-.4c-.12-.08-.28-.19-.5-.31a3.53,3.53,0,0,0-.89-.34,5.78,5.78,0,0,0-3.15.15,5.23,5.23,0,0,0-1.64.92,4.58,4.58,0,0,0-1.2,1.59,5.3,5.3,0,0,0-.45,2.26,5,5,0,0,0,.46,2.25,4.69,4.69,0,0,0,1.21,1.58,5.29,5.29,0,0,0,1.64.94,5.16,5.16,0,0,0,1.74.31,4.66,4.66,0,0,0,1.27-.15,5,5,0,0,0,.93-.36,7.11,7.11,0,0,0,.67-.39c.19-.11.37-.22.57-.32a1.14,1.14,0,0,1,1.3.12,3.43,3.43,0,0,1,.73.88,2.66,2.66,0,0,1,.34.64,1.68,1.68,0,0,1,.11.61,1.07,1.07,0,0,1-.41.86,7.09,7.09,0,0,1-.86.61l-.75.44a8.25,8.25,0,0,1-1.53.63A8,8,0,0,1,126.88,34Z"/><path class="cls-2" d="M140.88,34.05a6.41,6.41,0,0,1-2.34-.46,6.94,6.94,0,0,1-2.11-1.32,6.13,6.13,0,0,1-1.51-2,6,6,0,0,1-.57-2.64,6.4,6.4,0,0,1,.52-2.51A6.75,6.75,0,0,1,136.28,23a6.67,6.67,0,0,1,2.07-1.41,6.08,6.08,0,0,1,2.48-.51,6.33,6.33,0,0,1,3.26.86,6.56,6.56,0,0,1,2.34,2.34,6.27,6.27,0,0,1,.87,3.28,6.2,6.2,0,0,1-.56,2.71,6.5,6.5,0,0,1-1.5,2,6.73,6.73,0,0,1-2.08,1.28A6.36,6.36,0,0,1,140.88,34.05Zm0-3.78a2.78,2.78,0,0,0,1.22-.3,2.64,2.64,0,0,0,1-.89,2.54,2.54,0,0,0,.43-1.53,2.77,2.77,0,0,0-.35-1.4,2.48,2.48,0,0,0-1-.94,2.94,2.94,0,0,0-1.41-.34,2.6,2.6,0,0,0-1.34.35,2.76,2.76,0,0,0-.95,1,2.86,2.86,0,0,0,0,2.9,2.61,2.61,0,0,0,1,.9A3,3,0,0,0,140.83,30.27Z"/><path class="cls-2" d="M154.13,33.86a16.26,16.26,0,0,1-1.83-.1,4.13,4.13,0,0,1-1.35-.4,2.67,2.67,0,0,1-.9-.84,4,4,0,0,1-.52-1.38,10,10,0,0,1-.18-2.06V17.53a4,4,0,0,1,.1-.93,1.21,1.21,0,0,1,.49-.7,2.37,2.37,0,0,1,1.31-.27,2.24,2.24,0,0,1,1.29.28,1.15,1.15,0,0,1,.49.7,4.4,4.4,0,0,1,.1.92V28.91a4.16,4.16,0,0,0,0,.66.8.8,0,0,0,.15.41.49.49,0,0,0,.31.2,2.4,2.4,0,0,0,.52.05,2.7,2.7,0,0,1,.62.08.9.9,0,0,1,.53.45,2.53,2.53,0,0,1,.23,1.25,2.79,2.79,0,0,1-.23,1.3.89.89,0,0,1-.54.47A2.72,2.72,0,0,1,154.13,33.86Z"/><path class="cls-2" d="M163.35,34.06A6.29,6.29,0,0,1,161,33.6a7.24,7.24,0,0,1-2.11-1.31,6.38,6.38,0,0,1-1.51-2,6.47,6.47,0,0,1,0-5.15A6.88,6.88,0,0,1,158.76,23a6.75,6.75,0,0,1,2.06-1.41,6.13,6.13,0,0,1,2.49-.51,6.24,6.24,0,0,1,3.26.87,6.48,6.48,0,0,1,2.34,2.34,6.69,6.69,0,0,1,.31,6,6.53,6.53,0,0,1-1.51,2,6.45,6.45,0,0,1-4.36,1.72Zm0-3.77a2.85,2.85,0,0,0,1.23-.3,2.74,2.74,0,0,0,1.05-.9,2.61,2.61,0,0,0,.42-1.53,2.77,2.77,0,0,0-.34-1.4,2.48,2.48,0,0,0-1-.93,2.8,2.8,0,0,0-1.41-.34,2.53,2.53,0,0,0-1.34.35,2.65,2.65,0,0,0-.95,1,2.93,2.93,0,0,0,0,2.9,2.49,2.49,0,0,0,1,.9A2.9,2.9,0,0,0,163.3,30.29Z"/><path class="cls-2" d="M173.68,33.87a2.52,2.52,0,0,1-1.32-.26,1.1,1.1,0,0,1-.47-.72,4.7,4.7,0,0,1-.09-.92V23.24a5.25,5.25,0,0,1,.08-.92,1.09,1.09,0,0,1,.49-.69,2.59,2.59,0,0,1,1.33-.26,2.5,2.5,0,0,1,1.26.24,1.06,1.06,0,0,1,.49.55,2.09,2.09,0,0,1,.1.53l-.3.15a3.22,3.22,0,0,1,.26-.36,3.58,3.58,0,0,1,.59-.55,3.53,3.53,0,0,1,2.15-.68l.61,0a4.62,4.62,0,0,1,.7.15,2.86,2.86,0,0,1,.66.31,1.54,1.54,0,0,1,.49.46,1.2,1.2,0,0,1,.19.67,3,3,0,0,1-.48,1.74,1.4,1.4,0,0,1-1.2.71,2.11,2.11,0,0,1-.6-.06,1,1,0,0,1-.29-.15.93.93,0,0,0-.26-.15,1.68,1.68,0,0,0-.55-.06,2.34,2.34,0,0,0-.71.1,1.85,1.85,0,0,0-.63.31,1.5,1.5,0,0,0-.45.52,1.53,1.53,0,0,0-.16.72V32a4.46,4.46,0,0,1-.09.91,1,1,0,0,1-.49.69A2.58,2.58,0,0,1,173.68,33.87Z"/><path class="cls-2" d="M189.08,34.1a7.3,7.3,0,0,1-3-.57A5.86,5.86,0,0,1,184,32a6.51,6.51,0,0,1-1.2-2.09,7.09,7.09,0,0,1-.4-2.3,6.42,6.42,0,0,1,.86-3.32A6,6,0,0,1,185.62,22a7.11,7.11,0,0,1,3.46-.83,6.18,6.18,0,0,1,2.51.46,5.13,5.13,0,0,1,1.75,1.2,5.22,5.22,0,0,1,1,1.59,4.54,4.54,0,0,1,.34,1.63,2.89,2.89,0,0,1-.67,2.05,2.25,2.25,0,0,1-1.69.67H186.4a1.77,1.77,0,0,0,.47,1.07,2.69,2.69,0,0,0,1,.7,3.5,3.5,0,0,0,1.33.25,7.94,7.94,0,0,0,1-.06,4.3,4.3,0,0,0,.79-.17l.59-.23.49-.19a4.19,4.19,0,0,1,.42-.1,1,1,0,0,1,.68.22,2,2,0,0,1,.57.71,1.75,1.75,0,0,1,.24.53,2.07,2.07,0,0,1,.06.5,1.32,1.32,0,0,1-.61,1.08,4.73,4.73,0,0,1-1.73.74A11.47,11.47,0,0,1,189.08,34.1Zm-2.68-7.4h3.95a1,1,0,0,0,.58-.13.62.62,0,0,0,.2-.54,1.27,1.27,0,0,0-.27-.78,1.76,1.76,0,0,0-.74-.53,2.8,2.8,0,0,0-1.09-.19,3,3,0,0,0-1.35.3,2.38,2.38,0,0,0-.94.8A1.91,1.91,0,0,0,186.4,26.7Z"/><path class="cls-2" d="M207,33.86a2.36,2.36,0,0,1-1.37-.32.91.91,0,0,1-.43-.8l.25-.43a2.72,2.72,0,0,1-.57.61,4.08,4.08,0,0,1-1.12.65,4.15,4.15,0,0,1-1.66.29,5,5,0,0,1-2.19-.5A5.85,5.85,0,0,1,198.08,32a7,7,0,0,1-1.28-2,6.16,6.16,0,0,1-.47-2.38,6,6,0,0,1,.47-2.33,6.77,6.77,0,0,1,1.29-2,6.51,6.51,0,0,1,1.84-1.36,5,5,0,0,1,2.18-.5,4.3,4.3,0,0,1,1.57.26,4.16,4.16,0,0,1,1.09.62,3.43,3.43,0,0,1,.66.67l-.22-.35a1,1,0,0,1,.43-.91,2.44,2.44,0,0,1,1.39-.31,2.34,2.34,0,0,1,1.29.27,1.16,1.16,0,0,1,.48.73,5.8,5.8,0,0,1,.08.95V32a4.73,4.73,0,0,1-.09.93,1.07,1.07,0,0,1-.48.71A2.38,2.38,0,0,1,207,33.86Zm-4.37-3.72a2.21,2.21,0,0,0,1.2-.34A2.56,2.56,0,0,0,205,27.61a2.46,2.46,0,0,0-.32-1.28,2.35,2.35,0,0,0-.88-.89,2.3,2.3,0,0,0-1.22-.33,2.33,2.33,0,0,0-1.26.34,2.53,2.53,0,0,0-1.24,2.21,2.34,2.34,0,0,0,.34,1.24,2.56,2.56,0,0,0,.92.9A2.59,2.59,0,0,0,202.63,30.14Z"/><path class="cls-2" d="M222.7,33.9a16.21,16.21,0,0,1-1.82-.1,3.89,3.89,0,0,1-1.36-.4,2.47,2.47,0,0,1-.89-.84,4,4,0,0,1-.53-1.38,10.81,10.81,0,0,1-.17-2.06V17.57a3.8,3.8,0,0,1,.11-.92,1.1,1.1,0,0,1,.48-.7,2.31,2.31,0,0,1,1.32-.28,2.21,2.21,0,0,1,1.28.28,1.15,1.15,0,0,1,.49.7,3.82,3.82,0,0,1,.1.92V29a4.08,4.08,0,0,0,0,.66.77.77,0,0,0,.15.41.51.51,0,0,0,.31.2,2,2,0,0,0,.53.05,2.62,2.62,0,0,1,.61.08.89.89,0,0,1,.54.45,2.58,2.58,0,0,1,.22,1.25,2.81,2.81,0,0,1-.22,1.3.89.89,0,0,1-.54.47A2.74,2.74,0,0,1,222.7,33.9Z"/><path class="cls-2" d="M227.93,19.6a2.53,2.53,0,0,1-1.35-.27,1.12,1.12,0,0,1-.48-.73,4.86,4.86,0,0,1-.09-1,4.75,4.75,0,0,1,.09-1,1,1,0,0,1,.5-.7,2.59,2.59,0,0,1,1.36-.26,2.47,2.47,0,0,1,1.33.27,1.16,1.16,0,0,1,.48.73,4.92,4.92,0,0,1,.09,1,4.73,4.73,0,0,1-.09.93,1.07,1.07,0,0,1-.49.71A2.59,2.59,0,0,1,227.93,19.6Zm0,14.3a2.57,2.57,0,0,1-1.32-.26,1,1,0,0,1-.47-.7,5.4,5.4,0,0,1-.08-.91V23.3a5.31,5.31,0,0,1,.08-.91,1.09,1.09,0,0,1,.49-.7,2.49,2.49,0,0,1,1.33-.26,2.28,2.28,0,0,1,1.28.27,1.14,1.14,0,0,1,.48.72,4.59,4.59,0,0,1,.09.93v8.7a4.46,4.46,0,0,1-.09.91,1,1,0,0,1-.47.69A2.53,2.53,0,0,1,227.92,33.9Z"/><path class="cls-2" d="M234.3,33.91a2.39,2.39,0,0,1-1.3-.28,1.1,1.1,0,0,1-.49-.71,4.57,4.57,0,0,1-.08-.92V17.63a4.69,4.69,0,0,1,.09-.94A1.08,1.08,0,0,1,233,16a2.59,2.59,0,0,1,1.33-.26,2.15,2.15,0,0,1,1.27.28,1.08,1.08,0,0,1,.45.71,3.91,3.91,0,0,1,.05.91V32.78a1.3,1.3,0,0,1-.53.85A2.29,2.29,0,0,1,234.3,33.91Zm4.85,0a4.38,4.38,0,0,1-2.15-.51A4.56,4.56,0,0,1,235.46,32a6.44,6.44,0,0,1-.92-2,8.49,8.49,0,0,1-.29-2.4,8.29,8.29,0,0,1,.33-2.35,6.31,6.31,0,0,1,.94-2,4.29,4.29,0,0,1,3.64-1.83,4.91,4.91,0,0,1,2.15.5,6.36,6.36,0,0,1,1.83,1.37,6.5,6.5,0,0,1,1.28,2,6.3,6.3,0,0,1,0,4.75,6.68,6.68,0,0,1-1.26,2,5.91,5.91,0,0,1-1.83,1.36A5,5,0,0,1,239.15,33.88Zm-.5-3.7a2.36,2.36,0,0,0,1.25-.33,2.62,2.62,0,0,0,.89-.92,2.49,2.49,0,0,0,.34-1.27,2.54,2.54,0,0,0-.33-1.28,2.38,2.38,0,0,0-.88-.9,2.52,2.52,0,0,0-1.24-.32,2.42,2.42,0,0,0-1.24.33,2.5,2.5,0,0,0-.87.9,2.58,2.58,0,0,0-.32,1.27,2.51,2.51,0,0,0,.33,1.27,2.38,2.38,0,0,0,.87.91A2.23,2.23,0,0,0,238.65,30.18Z"/><path class="cls-2" d="M248.92,33.91a2.41,2.41,0,0,1-1.31-.26,1.06,1.06,0,0,1-.47-.71,4.73,4.73,0,0,1-.09-.93V23.29a5.37,5.37,0,0,1,.08-.93,1,1,0,0,1,.49-.68,2.47,2.47,0,0,1,1.33-.27,2.5,2.5,0,0,1,1.26.24,1.06,1.06,0,0,1,.49.55,2.08,2.08,0,0,1,.1.54l-.3.15a2,2,0,0,1,.26-.36,3.2,3.2,0,0,1,.59-.55,3.4,3.4,0,0,1,.91-.49,3.62,3.62,0,0,1,1.24-.2,4.66,4.66,0,0,1,.61,0,3.14,3.14,0,0,1,.7.15,2.83,2.83,0,0,1,.66.3,1.8,1.8,0,0,1,.49.46,1.24,1.24,0,0,1,.19.68,3.06,3.06,0,0,1-.48,1.74,1.42,1.42,0,0,1-1.2.71,1.73,1.73,0,0,1-.6-.07,1,1,0,0,1-.29-.15l-.26-.15a1.68,1.68,0,0,0-.55-.06,2.34,2.34,0,0,0-.71.1,2.06,2.06,0,0,0-.63.31,1.54,1.54,0,0,0-.45.53,1.49,1.49,0,0,0-.16.71v5.48a4.53,4.53,0,0,1-.09.91,1,1,0,0,1-.49.69A2.73,2.73,0,0,1,248.92,33.91Z"/><path class="cls-2" d="M264.32,34.15a7.12,7.12,0,0,1-3-.58,5.84,5.84,0,0,1-2.06-1.51,6.61,6.61,0,0,1-1.2-2.09,7.14,7.14,0,0,1-.4-2.3,6.54,6.54,0,0,1,.85-3.33,6.19,6.19,0,0,1,2.37-2.28,7,7,0,0,1,3.46-.84,6.21,6.21,0,0,1,2.51.47,5.23,5.23,0,0,1,1.75,1.2,5.1,5.1,0,0,1,1,1.59A4.46,4.46,0,0,1,270,26.1a2.82,2.82,0,0,1-.66,2,2.26,2.26,0,0,1-1.69.68h-6a1.77,1.77,0,0,0,.46,1.08,2.85,2.85,0,0,0,1,.7,3.7,3.7,0,0,0,1.33.25,7.94,7.94,0,0,0,1-.06,3.7,3.7,0,0,0,.79-.18c.22-.07.41-.15.59-.22a4.44,4.44,0,0,1,.49-.19,2.53,2.53,0,0,1,.42-.1,1,1,0,0,1,.68.21,2.16,2.16,0,0,1,.57.72,1.61,1.61,0,0,1,.24.52,2.14,2.14,0,0,1,.06.5,1.34,1.34,0,0,1-.61,1.09,4.74,4.74,0,0,1-1.73.73A11,11,0,0,1,264.32,34.15Zm-2.67-7.4h4a1,1,0,0,0,.58-.14.62.62,0,0,0,.2-.54,1.18,1.18,0,0,0-.28-.77,1.84,1.84,0,0,0-.73-.54,3.2,3.2,0,0,0-2.44.11,2.47,2.47,0,0,0-.94.8A1.94,1.94,0,0,0,261.65,26.75Z"/><path class="cls-2" d="M273.87,33.93a2.3,2.3,0,0,1-1.3-.28,1,1,0,0,1-.47-.7A5.25,5.25,0,0,1,272,32V23.28a4.29,4.29,0,0,1,.09-.9,1.06,1.06,0,0,1,.49-.69,2.52,2.52,0,0,1,1.32-.26,2.06,2.06,0,0,1,1.35.36,1.5,1.5,0,0,1,.43,1.19l-.33.28a1.67,1.67,0,0,1,.3-.43,4.35,4.35,0,0,1,.65-.62,4.13,4.13,0,0,1,.94-.57,3,3,0,0,1,1.16-.23,4.61,4.61,0,0,1,1.49.23,3.85,3.85,0,0,1,1.2.71,4,4,0,0,1,.93,1.16,6.94,6.94,0,0,1,.86-1,4.74,4.74,0,0,1,1.17-.8,3.58,3.58,0,0,1,1.53-.32,4.1,4.1,0,0,1,2.48.74,4.51,4.51,0,0,1,1.54,2.11,9.39,9.39,0,0,1,.52,3.33v4.47a4,4,0,0,1-.1.92,1.15,1.15,0,0,1-.49.7,3.36,3.36,0,0,1-2.64,0,1.07,1.07,0,0,1-.47-.71,5.41,5.41,0,0,1-.07-.91V27.56a3.81,3.81,0,0,0-.19-1.29,1.74,1.74,0,0,0-.54-.82,1.37,1.37,0,0,0-.9-.29,1.7,1.7,0,0,0-1,.27,1.64,1.64,0,0,0-.6.8,3.92,3.92,0,0,0-.2,1.35v4.48a3.56,3.56,0,0,1-.12.94,1.2,1.2,0,0,1-.54.7,2.47,2.47,0,0,1-1.34.23,2,2,0,0,1-1.25-.29,1.12,1.12,0,0,1-.45-.72,5.26,5.26,0,0,1-.07-.89V27.56a4.5,4.5,0,0,0-.17-1.3,1.66,1.66,0,0,0-.53-.83,1.46,1.46,0,0,0-.92-.27,1.57,1.57,0,0,0-1,.32,1.88,1.88,0,0,0-.58.86,3.53,3.53,0,0,0-.19,1.21v4.5a4.48,4.48,0,0,1-.08.93,1.12,1.12,0,0,1-.49.69A2.59,2.59,0,0,1,273.87,33.93Z"/><path class="cls-2" d="M298.8,34.17a7.09,7.09,0,0,1-3-.58,5.88,5.88,0,0,1-2.07-1.51A6.4,6.4,0,0,1,292.53,30a6.88,6.88,0,0,1-.4-2.3,6.38,6.38,0,0,1,.85-3.32,6.11,6.11,0,0,1,2.36-2.29,7,7,0,0,1,3.47-.84,6.24,6.24,0,0,1,2.51.47,5.23,5.23,0,0,1,1.75,1.2,4.89,4.89,0,0,1,1,1.59,4.28,4.28,0,0,1,.34,1.62,2.78,2.78,0,0,1-.67,2.05,2.25,2.25,0,0,1-1.68.68h-5.95a1.71,1.71,0,0,0,.46,1.08,2.77,2.77,0,0,0,1,.7,3.41,3.41,0,0,0,1.32.25,8.22,8.22,0,0,0,1-.06,3.7,3.7,0,0,0,.79-.18l.58-.22c.18-.08.34-.14.49-.19a2.41,2.41,0,0,1,.43-.1,1,1,0,0,1,.67.21,1.94,1.94,0,0,1,.57.72,1.71,1.71,0,0,1,.24.52,2.2,2.2,0,0,1,.06.5,1.34,1.34,0,0,1-.61,1.09,4.85,4.85,0,0,1-1.72.74A11.62,11.62,0,0,1,298.8,34.17Zm-2.67-7.4h3.95a1,1,0,0,0,.57-.14c.14-.09.2-.27.2-.54a1.23,1.23,0,0,0-.27-.77,1.87,1.87,0,0,0-.74-.54,3.2,3.2,0,0,0-2.44.11,2.36,2.36,0,0,0-.93.8A1.87,1.87,0,0,0,296.13,26.77Z"/><path class="cls-2" d="M308.4,33.92a2.36,2.36,0,0,1-1.31-.26,1.07,1.07,0,0,1-.48-.7,4.46,4.46,0,0,1-.09-.91v-8.8a4.19,4.19,0,0,1,.09-.89,1,1,0,0,1,.49-.66,3.52,3.52,0,0,1,2.5,0,1,1,0,0,1,.48.52,1.49,1.49,0,0,1,.12.56.84.84,0,0,0,0,.36l-.15.48a1.61,1.61,0,0,1,.39-.77,3.74,3.74,0,0,1,.85-.7,4.7,4.7,0,0,1,1.1-.48,4,4,0,0,1,1.17-.18,5,5,0,0,1,2.13.44,4.24,4.24,0,0,1,1.59,1.26,6.13,6.13,0,0,1,1,1.94,8.62,8.62,0,0,1,.33,2.44v4.55a4.46,4.46,0,0,1-.09.91,1.05,1.05,0,0,1-.47.69,3.62,3.62,0,0,1-2.67,0,1.06,1.06,0,0,1-.48-.7,4.63,4.63,0,0,1-.09-.92V27.53a2.92,2.92,0,0,0-.26-1.28,1.81,1.81,0,0,0-.75-.8,2.46,2.46,0,0,0-1.21-.27,2.57,2.57,0,0,0-1.25.28,2.15,2.15,0,0,0-.82.82,2.57,2.57,0,0,0-.28,1.25v4.55a5.4,5.4,0,0,1-.08.91,1.06,1.06,0,0,1-.48.69A2.64,2.64,0,0,1,308.4,33.92Z"/><path class="cls-2" d="M321.88,21.66h2.75l3.45-.1a4.29,4.29,0,0,1,.9.09,1.1,1.1,0,0,1,.7.49,2.43,2.43,0,0,1,.27,1.32,2.26,2.26,0,0,1-.26,1.25,1.1,1.1,0,0,1-.69.51,3.36,3.36,0,0,1-.92.12l-3.28-.08-3,0a1.25,1.25,0,0,1-1-.46,2.46,2.46,0,0,1-.29-1.39,2.17,2.17,0,0,1,.35-1.34A1.26,1.26,0,0,1,321.88,21.66ZM327.52,34a7.54,7.54,0,0,1-2.2-.28,3.33,3.33,0,0,1-2.38-2.31,6.89,6.89,0,0,1-.29-2.11V19.13a4.92,4.92,0,0,1,.08-.92,1.06,1.06,0,0,1,.49-.66,2.4,2.4,0,0,1,1.3-.27,2.36,2.36,0,0,1,1.3.28,1.1,1.1,0,0,1,.49.71,4.56,4.56,0,0,1,.09.92v9.92a3,3,0,0,0,.06.66.79.79,0,0,0,.19.39.77.77,0,0,0,.35.18,2.79,2.79,0,0,0,.55.05,4,4,0,0,1,1,.1,1,1,0,0,1,.67.45,2.24,2.24,0,0,1,.23,1.17,2.38,2.38,0,0,1-.27,1.3,1.07,1.07,0,0,1-.72.48A5.33,5.33,0,0,1,327.52,34Z"/><path class="cls-2" d="M338.07,34.19a7.28,7.28,0,0,1-3-.57A5.86,5.86,0,0,1,333,32.1,6.33,6.33,0,0,1,331.8,30a6.83,6.83,0,0,1-.4-2.3,6.51,6.51,0,0,1,.85-3.32,6.14,6.14,0,0,1,2.37-2.29,7.11,7.11,0,0,1,3.46-.83,6.22,6.22,0,0,1,2.51.46,5.23,5.23,0,0,1,1.75,1.2,5.1,5.1,0,0,1,1,1.59,4.51,4.51,0,0,1,.33,1.63A2.84,2.84,0,0,1,343,28.2a2.31,2.31,0,0,1-1.69.67h-6a1.76,1.76,0,0,0,.46,1.07,2.85,2.85,0,0,0,1,.7,3.48,3.48,0,0,0,1.32.25,8.1,8.1,0,0,0,1-.06,4.49,4.49,0,0,0,.79-.17l.59-.23.48-.19a2.63,2.63,0,0,1,.43-.1,1,1,0,0,1,.67.22,2,2,0,0,1,.58.71,1.9,1.9,0,0,1,.24.53,2.07,2.07,0,0,1,.06.5,1.35,1.35,0,0,1-.61,1.08,4.73,4.73,0,0,1-1.73.74A11.56,11.56,0,0,1,338.07,34.19Zm-2.67-7.4h4a1.06,1.06,0,0,0,.58-.13.65.65,0,0,0,.2-.54,1.23,1.23,0,0,0-.28-.78,1.73,1.73,0,0,0-.73-.53,2.83,2.83,0,0,0-1.09-.19,3,3,0,0,0-1.35.3,2.31,2.31,0,0,0-.94.8A1.84,1.84,0,0,0,335.4,26.79Z"/><path class="cls-4" d="M57.2,38.85a4.22,4.22,0,0,1-3.5-1.36c-.73-.91-1.1-2.5-1.1-4.77H45.07a5.28,5.28,0,0,1-3.93-1.3,4.57,4.57,0,0,1-1.28-3.36A7.2,7.2,0,0,1,41,24.11q2.9-4.66,6.53-10.08a6.63,6.63,0,0,1,5.83-3.19l3.54,0c2,0,3.33.34,4,1A4.87,4.87,0,0,1,62,15.5V26.59a3.64,3.64,0,0,1,2.4.88A3.28,3.28,0,0,1,65,29.74a2.84,2.84,0,0,1-.69,2.2,4.08,4.08,0,0,1-2.37.74c0,2.21-.39,3.79-1.18,4.74A4.32,4.32,0,0,1,57.2,38.85ZM52.57,26.76l.13-9-5.47,9Z"/><path class="cls-4" d="M67.55,36a2.76,2.76,0,0,1,1.17-2.31A5.38,5.38,0,0,1,72,32.8c3,0,4.44,1.07,4.44,3.19a3.17,3.17,0,0,1-.58,2,2.7,2.7,0,0,1-1.5,1,9.25,9.25,0,0,1-2.37.26,6.16,6.16,0,0,1-3.18-.76A2.62,2.62,0,0,1,67.55,36Z"/><path class="cls-4" d="M92.36,38.85a4.22,4.22,0,0,1-3.5-1.36c-.73-.91-1.1-2.5-1.1-4.77H80.23a5.28,5.28,0,0,1-3.93-1.3A4.57,4.57,0,0,1,75,28.06a7.2,7.2,0,0,1,1.1-3.95Q79,19.45,82.65,14a6.63,6.63,0,0,1,5.83-3.19l3.54,0c2,0,3.33.34,4,1a4.87,4.87,0,0,1,1.06,3.59V26.59a3.64,3.64,0,0,1,2.4.88,3.26,3.26,0,0,1,.65,2.27,2.84,2.84,0,0,1-.69,2.2,4.08,4.08,0,0,1-2.37.74c0,2.21-.39,3.79-1.18,4.74A4.35,4.35,0,0,1,92.36,38.85ZM87.73,26.76l.13-9-5.47,9Z"/><path class="cls-5" d="M57.2,38.85a4.22,4.22,0,0,1-3.5-1.36c-.73-.91-1.1-2.5-1.1-4.77H45.07a5.28,5.28,0,0,1-3.93-1.3,4.57,4.57,0,0,1-1.28-3.36A7.2,7.2,0,0,1,41,24.11q2.9-4.66,6.53-10.08a6.63,6.63,0,0,1,5.83-3.19l3.54,0c2,0,3.33.34,4,1A4.87,4.87,0,0,1,62,15.5V26.59a3.64,3.64,0,0,1,2.4.88A3.28,3.28,0,0,1,65,29.74a2.84,2.84,0,0,1-.69,2.2,4.08,4.08,0,0,1-2.37.74c0,2.21-.39,3.79-1.18,4.74A4.32,4.32,0,0,1,57.2,38.85ZM52.57,26.76l.13-9-5.47,9Z"/><path class="cls-5" d="M67.55,36a2.76,2.76,0,0,1,1.17-2.31A5.38,5.38,0,0,1,72,32.8c3,0,4.44,1.07,4.44,3.19a3.17,3.17,0,0,1-.58,2,2.7,2.7,0,0,1-1.5,1,9.25,9.25,0,0,1-2.37.26,6.16,6.16,0,0,1-3.18-.76A2.62,2.62,0,0,1,67.55,36Z"/><path class="cls-5" d="M92.36,38.85a4.22,4.22,0,0,1-3.5-1.36c-.73-.91-1.1-2.5-1.1-4.77H80.23a5.28,5.28,0,0,1-3.93-1.3A4.57,4.57,0,0,1,75,28.06a7.2,7.2,0,0,1,1.1-3.95Q79,19.45,82.65,14a6.63,6.63,0,0,1,5.83-3.19l3.54,0c2,0,3.33.34,4,1a4.87,4.87,0,0,1,1.06,3.59V26.59a3.64,3.64,0,0,1,2.4.88,3.26,3.26,0,0,1,.65,2.27,2.84,2.84,0,0,1-.69,2.2,4.08,4.08,0,0,1-2.37.74c0,2.21-.39,3.79-1.18,4.74A4.35,4.35,0,0,1,92.36,38.85ZM87.73,26.76l.13-9-5.47,9Z"/></g></g></svg>