<svg xmlns="http://www.w3.org/2000/svg" viewBox="0 0 399.98 90.74"><defs><style>.cls-1{fill:#03826e;}.cls-2{fill:#fff;}.cls-3,.cls-4{fill:none;stroke-width:5px;}.cls-3{stroke:#b6ba01;stroke-linejoin:round;}.cls-4{stroke:#fff;}.cls-5{fill:#b6ba01;}</style></defs><title>44t</title><g id="Layer_2" data-name="Layer 2"><g id="pestaña_identificativa" data-name="pestaña identificativa"><rect class="cls-1" width="399.98" height="90.74" rx="32.4"/><path class="cls-2" d="M123.28,31.84a2.4,2.4,0,0,1-1.3-.27,1.05,1.05,0,0,1-.49-.71,4.7,4.7,0,0,1-.08-.92V16.26a2.07,2.07,0,0,1,.43-1.49,2.2,2.2,0,0,1,1.52-.41h9.45a4.45,4.45,0,0,1,.93.09,1.07,1.07,0,0,1,.69.48,2.65,2.65,0,0,1,.26,1.35,2.28,2.28,0,0,1-.28,1.3,1.1,1.1,0,0,1-.71.49,4.62,4.62,0,0,1-.94.09h-7.55v3.23h5.13a4.63,4.63,0,0,1,.88.08.93.93,0,0,1,.62.42,2.38,2.38,0,0,1,.22,1.2,2,2,0,0,1-.23,1.11.9.9,0,0,1-.62.42,5,5,0,0,1-.9.07h-5.1V30a4.63,4.63,0,0,1-.1.92,1.14,1.14,0,0,1-.49.69A2.47,2.47,0,0,1,123.28,31.84Z"/><path class="cls-2" d="M143.13,32.05a6.3,6.3,0,0,1-2.34-.47,6.84,6.84,0,0,1-2.11-1.31,6.38,6.38,0,0,1-1.51-2,6,6,0,0,1-.56-2.64,6.19,6.19,0,0,1,.51-2.51A6.93,6.93,0,0,1,138.53,21a6.79,6.79,0,0,1,2.07-1.41,6.09,6.09,0,0,1,2.49-.51,6.35,6.35,0,0,1,3.26.86,6.72,6.72,0,0,1,2.34,2.34,6.36,6.36,0,0,1,.87,3.28,6.2,6.2,0,0,1-.57,2.71,6.35,6.35,0,0,1-1.5,2,6.57,6.57,0,0,1-2.07,1.28A6.38,6.38,0,0,1,143.13,32.05Zm0-3.78a2.85,2.85,0,0,0,1.23-.3,2.81,2.81,0,0,0,1.05-.9,2.57,2.57,0,0,0,.42-1.52,2.67,2.67,0,0,0-.35-1.4,2.48,2.48,0,0,0-1-.94,2.94,2.94,0,0,0-1.41-.34,2.6,2.6,0,0,0-1.34.35,2.82,2.82,0,0,0-.95,1,2.69,2.69,0,0,0-.36,1.39,2.58,2.58,0,0,0,.41,1.51,2.43,2.43,0,0,0,1,.9A2.76,2.76,0,0,0,143.08,28.27Z"/><path class="cls-2" d="M153.45,31.85a2.41,2.41,0,0,1-1.31-.26,1.06,1.06,0,0,1-.47-.71,4.73,4.73,0,0,1-.09-.93V21.23a4.54,4.54,0,0,1,.08-.93,1,1,0,0,1,.49-.68,2.47,2.47,0,0,1,1.33-.27,2.5,2.5,0,0,1,1.26.24,1.06,1.06,0,0,1,.49.55,2.08,2.08,0,0,1,.1.54l-.3.15a2,2,0,0,1,.26-.36,3.2,3.2,0,0,1,.59-.55,3.4,3.4,0,0,1,.91-.49,3.62,3.62,0,0,1,1.24-.2c.18,0,.38,0,.61,0a3.83,3.83,0,0,1,.7.15,3.32,3.32,0,0,1,.66.3,1.8,1.8,0,0,1,.49.46,1.24,1.24,0,0,1,.19.68,3.06,3.06,0,0,1-.48,1.74,1.42,1.42,0,0,1-1.2.71,2.11,2.11,0,0,1-.6-.06,1.3,1.3,0,0,1-.29-.16l-.26-.15a1.68,1.68,0,0,0-.55-.06,2.71,2.71,0,0,0-.71.1,2.06,2.06,0,0,0-.63.31,1.54,1.54,0,0,0-.45.53,1.49,1.49,0,0,0-.16.71V30a4.53,4.53,0,0,1-.09.91,1,1,0,0,1-.49.69A2.73,2.73,0,0,1,153.45,31.85Z"/><path class="cls-2" d="M164.48,31.86a2.38,2.38,0,0,1-1.3-.27,1.07,1.07,0,0,1-.48-.71,5.29,5.29,0,0,1-.07-.92V21.21a4.31,4.31,0,0,1,.08-.9,1.08,1.08,0,0,1,.49-.69,2.59,2.59,0,0,1,1.33-.26,2.09,2.09,0,0,1,1.35.36,1.51,1.51,0,0,1,.42,1.19l-.32.28a1.84,1.84,0,0,1,.29-.43,4.46,4.46,0,0,1,.66-.62,3.71,3.71,0,0,1,.93-.56,2.85,2.85,0,0,1,1.17-.24,4.29,4.29,0,0,1,1.48.24,3.71,3.71,0,0,1,1.2.7,4.38,4.38,0,0,1,.94,1.16,6.28,6.28,0,0,1,.85-1,4.31,4.31,0,0,1,1.18-.8,3.4,3.4,0,0,1,1.52-.33,4.15,4.15,0,0,1,2.49.74,4.56,4.56,0,0,1,1.54,2.12,9.52,9.52,0,0,1,.52,3.32V30a3.91,3.91,0,0,1-.11.91,1.1,1.1,0,0,1-.48.7,2.52,2.52,0,0,1-1.32.26,2.35,2.35,0,0,1-1.32-.28,1.08,1.08,0,0,1-.48-.71A5.33,5.33,0,0,1,177,30V25.49a4,4,0,0,0-.18-1.28,1.88,1.88,0,0,0-.54-.83,1.37,1.37,0,0,0-.9-.29,1.66,1.66,0,0,0-1,.28,1.72,1.72,0,0,0-.6.8,3.92,3.92,0,0,0-.2,1.35V30a3.14,3.14,0,0,1-.13.94,1.22,1.22,0,0,1-.53.7,2.6,2.6,0,0,1-1.34.24,2.11,2.11,0,0,1-1.25-.29,1.14,1.14,0,0,1-.45-.73,5.26,5.26,0,0,1-.08-.89V25.49a4.21,4.21,0,0,0-.18-1.3,1.65,1.65,0,0,0-.52-.83,1.49,1.49,0,0,0-.93-.27,1.61,1.61,0,0,0-1,.32,1.93,1.93,0,0,0-.59.87,3.75,3.75,0,0,0-.19,1.21V30a4.42,4.42,0,0,1-.09.92,1.06,1.06,0,0,1-.49.69A2.52,2.52,0,0,1,164.48,31.86Z"/><path class="cls-2" d="M193.4,31.85a2.41,2.41,0,0,1-1.37-.32.93.93,0,0,1-.43-.8l.25-.43a3,3,0,0,1-.57.62,4.27,4.27,0,0,1-1.11.64,4.38,4.38,0,0,1-1.67.29,5,5,0,0,1-2.18-.5A5.78,5.78,0,0,1,184.48,30a7,7,0,0,1-1.27-2,6,6,0,0,1-.48-2.38,5.87,5.87,0,0,1,.48-2.34,6.65,6.65,0,0,1,1.29-2,6.24,6.24,0,0,1,1.84-1.36,4.9,4.9,0,0,1,2.17-.5,4.35,4.35,0,0,1,1.58.26,4.26,4.26,0,0,1,1.08.62,3.17,3.17,0,0,1,.66.67l-.22-.35a1.05,1.05,0,0,1,.44-.91,2.4,2.4,0,0,1,1.39-.31,2.3,2.3,0,0,1,1.28.27,1.16,1.16,0,0,1,.48.73,4.87,4.87,0,0,1,.08.95V30a4.73,4.73,0,0,1-.09.93,1.09,1.09,0,0,1-.47.71A2.42,2.42,0,0,1,193.4,31.85ZM189,28.13a2.21,2.21,0,0,0,1.2-.34,2.66,2.66,0,0,0,.85-.91,2.67,2.67,0,0,0,0-2.57,2.45,2.45,0,0,0-3.36-.87,2.61,2.61,0,0,0-.9.91,2.57,2.57,0,0,0-.34,1.3,2.34,2.34,0,0,0,.34,1.24,2.56,2.56,0,0,0,.92.9A2.59,2.59,0,0,0,189,28.13Z"/><path class="cls-2" d="M210.48,32a6.64,6.64,0,0,1-2.24-.41,7.16,7.16,0,0,1-2.1-1.22,5.77,5.77,0,0,1-1.53-2,6.21,6.21,0,0,1-.58-2.75,6.09,6.09,0,0,1,.58-2.73,6,6,0,0,1,1.52-2,6.87,6.87,0,0,1,2.09-1.21,6.62,6.62,0,0,1,2.22-.41,6.08,6.08,0,0,1,1.66.21,5.41,5.41,0,0,1,1.25.52,3.5,3.5,0,0,1,.74.52,7,7,0,0,1,.74.65,1.05,1.05,0,0,1,.3.85,1.38,1.38,0,0,1-.17.56,3.91,3.91,0,0,1-.38.59c-.51.7-1,1-1.5.95a2.12,2.12,0,0,1-.68-.25l-.6-.35a4.48,4.48,0,0,0-.62-.31,1.73,1.73,0,0,0-.75-.14,2.5,2.5,0,0,0-1.3.34,2.48,2.48,0,0,0-1.25,2.21,2.5,2.5,0,0,0,.34,1.3,2.46,2.46,0,0,0,.9.91,2.33,2.33,0,0,0,1.26.34,2.39,2.39,0,0,0,.73-.1,2.83,2.83,0,0,0,.55-.24l.35-.21.57-.36a1.08,1.08,0,0,1,.55-.16,1.21,1.21,0,0,1,.74.26,4.1,4.1,0,0,1,.81.84,2.07,2.07,0,0,1,.49,1,1.18,1.18,0,0,1-.22.86,2.58,2.58,0,0,1-.85.77,5.06,5.06,0,0,1-.71.45,6.52,6.52,0,0,1-1.25.49A5.64,5.64,0,0,1,210.48,32Z"/><path class="cls-2" d="M223.43,32.1a6.22,6.22,0,0,1-2.34-.47A7,7,0,0,1,219,30.32a6.38,6.38,0,0,1-1.51-2,6,6,0,0,1-.56-2.64,6.19,6.19,0,0,1,.51-2.51,6.75,6.75,0,0,1,3.48-3.47,6.09,6.09,0,0,1,2.49-.51,6.35,6.35,0,0,1,3.26.86A6.61,6.61,0,0,1,229,22.35a6.38,6.38,0,0,1-1.19,8,6.53,6.53,0,0,1-2.07,1.29A6.42,6.42,0,0,1,223.43,32.1Zm-.05-3.78a2.85,2.85,0,0,0,1.23-.3,2.81,2.81,0,0,0,1-.9,2.6,2.6,0,0,0,.42-1.52,2.65,2.65,0,0,0-.35-1.4,2.48,2.48,0,0,0-1-.94,2.83,2.83,0,0,0-1.41-.34,2.6,2.6,0,0,0-1.34.35,2.65,2.65,0,0,0-1,1,2.69,2.69,0,0,0-.36,1.39,2.6,2.6,0,0,0,.41,1.51,2.43,2.43,0,0,0,1,.9A2.9,2.9,0,0,0,223.38,28.32Z"/><path class="cls-2" d="M233.7,31.9a2.4,2.4,0,0,1-1.3-.27,1.1,1.1,0,0,1-.47-.7,5.37,5.37,0,0,1-.08-.93V21.25a4.36,4.36,0,0,1,.09-.9,1.08,1.08,0,0,1,.49-.69,2.52,2.52,0,0,1,1.32-.26,2,2,0,0,1,1.35.37,1.47,1.47,0,0,1,.42,1.18l-.32.28a1.87,1.87,0,0,1,.3-.43,4.92,4.92,0,0,1,.65-.62,4.1,4.1,0,0,1,.94-.56,2.8,2.8,0,0,1,1.16-.24,4.35,4.35,0,0,1,1.49.24,3.82,3.82,0,0,1,1.2.7,4.32,4.32,0,0,1,.93,1.16,6.37,6.37,0,0,1,.86-1,4.25,4.25,0,0,1,1.17-.8,3.44,3.44,0,0,1,1.53-.33,4.16,4.16,0,0,1,2.48.74,4.54,4.54,0,0,1,1.54,2.12,9.29,9.29,0,0,1,.52,3.32V30a4.53,4.53,0,0,1-.1.91,1.15,1.15,0,0,1-.49.7,2.5,2.5,0,0,1-1.31.26,2.47,2.47,0,0,1-1.33-.27,1.11,1.11,0,0,1-.47-.72,5.31,5.31,0,0,1-.08-.91V25.54a3.81,3.81,0,0,0-.19-1.29,1.72,1.72,0,0,0-.54-.83,1.37,1.37,0,0,0-.9-.29,1.68,1.68,0,0,0-1,.28,1.6,1.6,0,0,0-.6.8,3.7,3.7,0,0,0-.2,1.35V30a3.51,3.51,0,0,1-.12.94,1.17,1.17,0,0,1-.54.7,2.56,2.56,0,0,1-1.34.24,2.11,2.11,0,0,1-1.25-.29,1.12,1.12,0,0,1-.45-.73A5.14,5.14,0,0,1,239,30V25.53a4.55,4.55,0,0,0-.17-1.3,1.59,1.59,0,0,0-.53-.82,1.4,1.4,0,0,0-.92-.28,1.62,1.62,0,0,0-1,.32,2,2,0,0,0-.59.87,3.76,3.76,0,0,0-.18,1.21V30a5.25,5.25,0,0,1-.08.92,1.07,1.07,0,0,1-.49.69A2.49,2.49,0,0,1,233.7,31.9Z"/><path class="cls-2" d="M254.15,37.09a2.51,2.51,0,0,1-1.3-.26,1,1,0,0,1-.48-.68,4.94,4.94,0,0,1-.07-.89v-14a5.1,5.1,0,0,1,.07-.91,1.05,1.05,0,0,1,.47-.69,2.22,2.22,0,0,1,1.28-.27,2.87,2.87,0,0,1,1.24.22,1.29,1.29,0,0,1,.66.7v14.9a3.28,3.28,0,0,1-.08.9,1.16,1.16,0,0,1-.49.69A2.48,2.48,0,0,1,254.15,37.09Zm4.8-5.4a4.52,4.52,0,0,1-2.15-.49,4.33,4.33,0,0,1-1.53-1.32,6.12,6.12,0,0,1-.93-1.94,7.9,7.9,0,0,1-.28-2.38,8.51,8.51,0,0,1,.32-2.33,6.71,6.71,0,0,1,.94-2A4.25,4.25,0,0,1,259,19.42a4.88,4.88,0,0,1,2.15.5,6.38,6.38,0,0,1,3.11,3.35,6.15,6.15,0,0,1,.46,2.38,6.08,6.08,0,0,1-3.55,5.58A5.23,5.23,0,0,1,259,31.69Zm-.5-3.52a2.28,2.28,0,0,0,1.25-.34,2.51,2.51,0,0,0,.89-.91,2.43,2.43,0,0,0,.34-1.28,2.6,2.6,0,0,0-.32-1.27,2.33,2.33,0,0,0-.89-.9,2.4,2.4,0,0,0-1.24-.33,2.4,2.4,0,0,0-2.11,1.24,2.5,2.5,0,0,0-.31,1.26,2.5,2.5,0,0,0,1.2,2.19A2.26,2.26,0,0,0,258.45,28.17Z"/><path class="cls-2" d="M271.53,31.93a16.22,16.22,0,0,1-1.83-.11,3.7,3.7,0,0,1-1.35-.4,2.64,2.64,0,0,1-.9-.83,4,4,0,0,1-.52-1.38,9.44,9.44,0,0,1-.17-2.06V15.6a4.49,4.49,0,0,1,.1-.93,1.21,1.21,0,0,1,.49-.7,2.39,2.39,0,0,1,1.31-.27A2.34,2.34,0,0,1,270,14a1.21,1.21,0,0,1,.49.7,4.57,4.57,0,0,1,.1.93V27a4.22,4.22,0,0,0,0,.67.8.8,0,0,0,.15.41.51.51,0,0,0,.31.2,2.4,2.4,0,0,0,.52.05,2.7,2.7,0,0,1,.62.08.9.9,0,0,1,.53.45,2.53,2.53,0,0,1,.23,1.25,2.79,2.79,0,0,1-.23,1.3.89.89,0,0,1-.54.47A2.65,2.65,0,0,1,271.53,31.93Z"/><path class="cls-2" d="M281,32.16a7.25,7.25,0,0,1-3-.58,5.84,5.84,0,0,1-2.06-1.51,6.53,6.53,0,0,1-1.2-2.09,6.92,6.92,0,0,1-.4-2.3,6.54,6.54,0,0,1,.85-3.33,6.12,6.12,0,0,1,2.37-2.28,7,7,0,0,1,3.46-.84,6.39,6.39,0,0,1,2.51.46,5.11,5.11,0,0,1,1.75,1.21,5.18,5.18,0,0,1,1,1.58,4.51,4.51,0,0,1,.33,1.63,2.82,2.82,0,0,1-.66,2.05,2.27,2.27,0,0,1-1.69.67h-6a1.74,1.74,0,0,0,.46,1.07,2.75,2.75,0,0,0,1,.71,3.64,3.64,0,0,0,1.32.25,6.54,6.54,0,0,0,1-.07,4.49,4.49,0,0,0,.79-.17,5.6,5.6,0,0,0,.59-.23l.48-.18a2.63,2.63,0,0,1,.43-.1,1,1,0,0,1,.67.21,2.11,2.11,0,0,1,.58.71,2.43,2.43,0,0,1,.24.53,2.14,2.14,0,0,1,.06.5,1.35,1.35,0,0,1-.62,1.09,4.78,4.78,0,0,1-1.72.73A11,11,0,0,1,281,32.16Zm-2.67-7.41h4a1.06,1.06,0,0,0,.58-.14.62.62,0,0,0,.2-.54,1.18,1.18,0,0,0-.28-.77,1.67,1.67,0,0,0-.73-.54,2.83,2.83,0,0,0-1.09-.19,3,3,0,0,0-1.35.3,2.39,2.39,0,0,0-.94.8A1.84,1.84,0,0,0,278.28,24.75Z"/><path class="cls-2" d="M289.46,19.64h2.75l3.45-.1a4.29,4.29,0,0,1,.9.09,1.1,1.1,0,0,1,.7.49,2.41,2.41,0,0,1,.27,1.32,2.38,2.38,0,0,1-.26,1.25,1.13,1.13,0,0,1-.69.51,3,3,0,0,1-.92.11l-3.28-.07-3,0a1.25,1.25,0,0,1-1-.46,2.46,2.46,0,0,1-.29-1.39,2.15,2.15,0,0,1,.35-1.34A1.26,1.26,0,0,1,289.46,19.64Zm5.64,12.3a7.54,7.54,0,0,1-2.2-.28,3.43,3.43,0,0,1-1.51-.85,3.5,3.5,0,0,1-.87-1.46,6.64,6.64,0,0,1-.29-2.11V17.11a4.92,4.92,0,0,1,.08-.92,1.07,1.07,0,0,1,.49-.67,2.51,2.51,0,0,1,1.3-.26,2.28,2.28,0,0,1,1.3.28,1.1,1.1,0,0,1,.49.71,4.53,4.53,0,0,1,.09.91v9.93a3,3,0,0,0,.06.66.79.79,0,0,0,.19.39.68.68,0,0,0,.35.17,2.19,2.19,0,0,0,.55.05,4.59,4.59,0,0,1,1,.1,1.07,1.07,0,0,1,.67.46,2.24,2.24,0,0,1,.23,1.17,2.4,2.4,0,0,1-.27,1.3,1.07,1.07,0,0,1-.72.48A5.33,5.33,0,0,1,295.1,31.94Z"/><path class="cls-2" d="M309.65,31.92a2.39,2.39,0,0,1-1.37-.32.93.93,0,0,1-.43-.8l.25-.43a2.72,2.72,0,0,1-.57.61,4.25,4.25,0,0,1-2.78.94,5.08,5.08,0,0,1-2.19-.5A5.85,5.85,0,0,1,300.73,30a7,7,0,0,1-1.28-2,6.16,6.16,0,0,1-.47-2.38,5.9,5.9,0,0,1,.48-2.34,6.46,6.46,0,0,1,1.29-2A6.33,6.33,0,0,1,302.58,20a5,5,0,0,1,2.18-.5,4.26,4.26,0,0,1,1.57.26,4.16,4.16,0,0,1,1.09.62,3.43,3.43,0,0,1,.66.67l-.22-.35a1.05,1.05,0,0,1,.44-.91,2.39,2.39,0,0,1,1.38-.31,2.34,2.34,0,0,1,1.29.27,1.16,1.16,0,0,1,.48.73,5.8,5.8,0,0,1,.08.95V30a4.73,4.73,0,0,1-.09.93,1.07,1.07,0,0,1-.48.71A2.36,2.36,0,0,1,309.65,31.92Zm-4.37-3.72a2.21,2.21,0,0,0,1.2-.34,2.66,2.66,0,0,0,.85-.91,2.67,2.67,0,0,0,0-2.57,2.45,2.45,0,0,0-.87-.88,2.48,2.48,0,0,0-2.49,0,2.53,2.53,0,0,0-1.24,2.21,2.34,2.34,0,0,0,.34,1.24,2.56,2.56,0,0,0,.92.9A2.59,2.59,0,0,0,305.28,28.2Z"/><path class="cls-3" d="M123.28,31.84a2.4,2.4,0,0,1-1.3-.27,1.05,1.05,0,0,1-.49-.71,4.7,4.7,0,0,1-.08-.92V16.26a2.07,2.07,0,0,1,.43-1.49,2.2,2.2,0,0,1,1.52-.41h9.45a4.45,4.45,0,0,1,.93.09,1.07,1.07,0,0,1,.69.48,2.65,2.65,0,0,1,.26,1.35,2.28,2.28,0,0,1-.28,1.3,1.1,1.1,0,0,1-.71.49,4.62,4.62,0,0,1-.94.09h-7.55v3.23h5.13a4.63,4.63,0,0,1,.88.08.93.93,0,0,1,.62.42,2.38,2.38,0,0,1,.22,1.2,2,2,0,0,1-.23,1.11.9.9,0,0,1-.62.42,5,5,0,0,1-.9.07h-5.1V30a4.63,4.63,0,0,1-.1.92,1.14,1.14,0,0,1-.49.69A2.47,2.47,0,0,1,123.28,31.84Z"/><path class="cls-3" d="M143.13,32.05a6.3,6.3,0,0,1-2.34-.47,6.84,6.84,0,0,1-2.11-1.31,6.38,6.38,0,0,1-1.51-2,6,6,0,0,1-.56-2.64,6.19,6.19,0,0,1,.51-2.51A6.93,6.93,0,0,1,138.53,21a6.79,6.79,0,0,1,2.07-1.41,6.09,6.09,0,0,1,2.49-.51,6.35,6.35,0,0,1,3.26.86,6.72,6.72,0,0,1,2.34,2.34,6.36,6.36,0,0,1,.87,3.28,6.2,6.2,0,0,1-.57,2.71,6.35,6.35,0,0,1-1.5,2,6.57,6.57,0,0,1-2.07,1.28A6.38,6.38,0,0,1,143.13,32.05Zm0-3.78a2.85,2.85,0,0,0,1.23-.3,2.81,2.81,0,0,0,1.05-.9,2.57,2.57,0,0,0,.42-1.52,2.67,2.67,0,0,0-.35-1.4,2.48,2.48,0,0,0-1-.94,2.94,2.94,0,0,0-1.41-.34,2.6,2.6,0,0,0-1.34.35,2.82,2.82,0,0,0-.95,1,2.69,2.69,0,0,0-.36,1.39,2.58,2.58,0,0,0,.41,1.51,2.43,2.43,0,0,0,1,.9A2.76,2.76,0,0,0,143.08,28.27Z"/><path class="cls-3" d="M153.45,31.85a2.41,2.41,0,0,1-1.31-.26,1.06,1.06,0,0,1-.47-.71,4.73,4.73,0,0,1-.09-.93V21.23a4.54,4.54,0,0,1,.08-.93,1,1,0,0,1,.49-.68,2.47,2.47,0,0,1,1.33-.27,2.5,2.5,0,0,1,1.26.24,1.06,1.06,0,0,1,.49.55,2.08,2.08,0,0,1,.1.54l-.3.15a2,2,0,0,1,.26-.36,3.2,3.2,0,0,1,.59-.55,3.4,3.4,0,0,1,.91-.49,3.62,3.62,0,0,1,1.24-.2c.18,0,.38,0,.61,0a3.83,3.83,0,0,1,.7.15,3.32,3.32,0,0,1,.66.3,1.8,1.8,0,0,1,.49.46,1.24,1.24,0,0,1,.19.68,3.06,3.06,0,0,1-.48,1.74,1.42,1.42,0,0,1-1.2.71,2.11,2.11,0,0,1-.6-.06,1.3,1.3,0,0,1-.29-.16l-.26-.15a1.68,1.68,0,0,0-.55-.06,2.71,2.71,0,0,0-.71.1,2.06,2.06,0,0,0-.63.31,1.54,1.54,0,0,0-.45.53,1.49,1.49,0,0,0-.16.71V30a4.53,4.53,0,0,1-.09.91,1,1,0,0,1-.49.69A2.73,2.73,0,0,1,153.45,31.85Z"/><path class="cls-3" d="M164.48,31.86a2.38,2.38,0,0,1-1.3-.27,1.07,1.07,0,0,1-.48-.71,5.29,5.29,0,0,1-.07-.92V21.21a4.31,4.31,0,0,1,.08-.9,1.08,1.08,0,0,1,.49-.69,2.59,2.59,0,0,1,1.33-.26,2.09,2.09,0,0,1,1.35.36,1.51,1.51,0,0,1,.42,1.19l-.32.28a1.84,1.84,0,0,1,.29-.43,4.46,4.46,0,0,1,.66-.62,3.71,3.71,0,0,1,.93-.56,2.85,2.85,0,0,1,1.17-.24,4.29,4.29,0,0,1,1.48.24,3.71,3.71,0,0,1,1.2.7,4.38,4.38,0,0,1,.94,1.16,6.28,6.28,0,0,1,.85-1,4.31,4.31,0,0,1,1.18-.8,3.4,3.4,0,0,1,1.52-.33,4.15,4.15,0,0,1,2.49.74,4.56,4.56,0,0,1,1.54,2.12,9.52,9.52,0,0,1,.52,3.32V30a3.91,3.91,0,0,1-.11.91,1.1,1.1,0,0,1-.48.7,2.52,2.52,0,0,1-1.32.26,2.35,2.35,0,0,1-1.32-.28,1.08,1.08,0,0,1-.48-.71A5.33,5.33,0,0,1,177,30V25.49a4,4,0,0,0-.18-1.28,1.88,1.88,0,0,0-.54-.83,1.37,1.37,0,0,0-.9-.29,1.66,1.66,0,0,0-1,.28,1.72,1.72,0,0,0-.6.8,3.92,3.92,0,0,0-.2,1.35V30a3.14,3.14,0,0,1-.13.94,1.22,1.22,0,0,1-.53.7,2.6,2.6,0,0,1-1.34.24,2.11,2.11,0,0,1-1.25-.29,1.14,1.14,0,0,1-.45-.73,5.26,5.26,0,0,1-.08-.89V25.49a4.21,4.21,0,0,0-.18-1.3,1.65,1.65,0,0,0-.52-.83,1.49,1.49,0,0,0-.93-.27,1.61,1.61,0,0,0-1,.32,1.93,1.93,0,0,0-.59.87,3.75,3.75,0,0,0-.19,1.21V30a4.42,4.42,0,0,1-.09.92,1.06,1.06,0,0,1-.49.69A2.52,2.52,0,0,1,164.48,31.86Z"/><path class="cls-3" d="M193.4,31.85a2.41,2.41,0,0,1-1.37-.32.93.93,0,0,1-.43-.8l.25-.43a3,3,0,0,1-.57.62,4.27,4.27,0,0,1-1.11.64,4.38,4.38,0,0,1-1.67.29,5,5,0,0,1-2.18-.5A5.78,5.78,0,0,1,184.48,30a7,7,0,0,1-1.27-2,6,6,0,0,1-.48-2.38,5.87,5.87,0,0,1,.48-2.34,6.65,6.65,0,0,1,1.29-2,6.24,6.24,0,0,1,1.84-1.36,4.9,4.9,0,0,1,2.17-.5,4.35,4.35,0,0,1,1.58.26,4.26,4.26,0,0,1,1.08.62,3.17,3.17,0,0,1,.66.67l-.22-.35a1.05,1.05,0,0,1,.44-.91,2.4,2.4,0,0,1,1.39-.31,2.3,2.3,0,0,1,1.28.27,1.16,1.16,0,0,1,.48.73,4.87,4.87,0,0,1,.08.95V30a4.73,4.73,0,0,1-.09.93,1.09,1.09,0,0,1-.47.71A2.42,2.42,0,0,1,193.4,31.85ZM189,28.13a2.21,2.21,0,0,0,1.2-.34,2.66,2.66,0,0,0,.85-.91,2.67,2.67,0,0,0,0-2.57,2.45,2.45,0,0,0-3.36-.87,2.61,2.61,0,0,0-.9.91,2.57,2.57,0,0,0-.34,1.3,2.34,2.34,0,0,0,.34,1.24,2.56,2.56,0,0,0,.92.9A2.59,2.59,0,0,0,189,28.13Z"/><path class="cls-3" d="M210.48,32a6.64,6.64,0,0,1-2.24-.41,7.16,7.16,0,0,1-2.1-1.22,5.77,5.77,0,0,1-1.53-2,6.21,6.21,0,0,1-.58-2.75,6.09,6.09,0,0,1,.58-2.73,6,6,0,0,1,1.52-2,6.87,6.87,0,0,1,2.09-1.21,6.62,6.62,0,0,1,2.22-.41,6.08,6.08,0,0,1,1.66.21,5.41,5.41,0,0,1,1.25.52,3.5,3.5,0,0,1,.74.52,7,7,0,0,1,.74.65,1.05,1.05,0,0,1,.3.85,1.38,1.38,0,0,1-.17.56,3.91,3.91,0,0,1-.38.59c-.51.7-1,1-1.5.95a2.12,2.12,0,0,1-.68-.25l-.6-.35a4.48,4.48,0,0,0-.62-.31,1.73,1.73,0,0,0-.75-.14,2.5,2.5,0,0,0-1.3.34,2.48,2.48,0,0,0-1.25,2.21,2.5,2.5,0,0,0,.34,1.3,2.46,2.46,0,0,0,.9.91,2.33,2.33,0,0,0,1.26.34,2.39,2.39,0,0,0,.73-.1,2.83,2.83,0,0,0,.55-.24l.35-.21.57-.36a1.08,1.08,0,0,1,.55-.16,1.21,1.21,0,0,1,.74.26,4.1,4.1,0,0,1,.81.84,2.07,2.07,0,0,1,.49,1,1.18,1.18,0,0,1-.22.86,2.58,2.58,0,0,1-.85.77,5.06,5.06,0,0,1-.71.45,6.52,6.52,0,0,1-1.25.49A5.64,5.64,0,0,1,210.48,32Z"/><path class="cls-3" d="M223.43,32.1a6.22,6.22,0,0,1-2.34-.47A7,7,0,0,1,219,30.32a6.38,6.38,0,0,1-1.51-2,6,6,0,0,1-.56-2.64,6.19,6.19,0,0,1,.51-2.51,6.75,6.75,0,0,1,3.48-3.47,6.09,6.09,0,0,1,2.49-.51,6.35,6.35,0,0,1,3.26.86A6.61,6.61,0,0,1,229,22.35a6.38,6.38,0,0,1-1.19,8,6.53,6.53,0,0,1-2.07,1.29A6.42,6.42,0,0,1,223.43,32.1Zm-.05-3.78a2.85,2.85,0,0,0,1.23-.3,2.81,2.81,0,0,0,1-.9,2.6,2.6,0,0,0,.42-1.52,2.65,2.65,0,0,0-.35-1.4,2.48,2.48,0,0,0-1-.94,2.83,2.83,0,0,0-1.41-.34,2.6,2.6,0,0,0-1.34.35,2.65,2.65,0,0,0-1,1,2.69,2.69,0,0,0-.36,1.39,2.6,2.6,0,0,0,.41,1.51,2.43,2.43,0,0,0,1,.9A2.9,2.9,0,0,0,223.38,28.32Z"/><path class="cls-3" d="M233.7,31.9a2.4,2.4,0,0,1-1.3-.27,1.1,1.1,0,0,1-.47-.7,5.37,5.37,0,0,1-.08-.93V21.25a4.36,4.36,0,0,1,.09-.9,1.08,1.08,0,0,1,.49-.69,2.52,2.52,0,0,1,1.32-.26,2,2,0,0,1,1.35.37,1.47,1.47,0,0,1,.42,1.18l-.32.28a1.87,1.87,0,0,1,.3-.43,4.92,4.92,0,0,1,.65-.62,4.1,4.1,0,0,1,.94-.56,2.8,2.8,0,0,1,1.16-.24,4.35,4.35,0,0,1,1.49.24,3.82,3.82,0,0,1,1.2.7,4.32,4.32,0,0,1,.93,1.16,6.37,6.37,0,0,1,.86-1,4.25,4.25,0,0,1,1.17-.8,3.44,3.44,0,0,1,1.53-.33,4.16,4.16,0,0,1,2.48.74,4.54,4.54,0,0,1,1.54,2.12,9.29,9.29,0,0,1,.52,3.32V30a4.53,4.53,0,0,1-.1.91,1.15,1.15,0,0,1-.49.7,2.5,2.5,0,0,1-1.31.26,2.47,2.47,0,0,1-1.33-.27,1.11,1.11,0,0,1-.47-.72,5.31,5.31,0,0,1-.08-.91V25.54a3.81,3.81,0,0,0-.19-1.29,1.72,1.72,0,0,0-.54-.83,1.37,1.37,0,0,0-.9-.29,1.68,1.68,0,0,0-1,.28,1.6,1.6,0,0,0-.6.8,3.7,3.7,0,0,0-.2,1.35V30a3.51,3.51,0,0,1-.12.94,1.17,1.17,0,0,1-.54.7,2.56,2.56,0,0,1-1.34.24,2.11,2.11,0,0,1-1.25-.29,1.12,1.12,0,0,1-.45-.73A5.14,5.14,0,0,1,239,30V25.53a4.55,4.55,0,0,0-.17-1.3,1.59,1.59,0,0,0-.53-.82,1.4,1.4,0,0,0-.92-.28,1.62,1.62,0,0,0-1,.32,2,2,0,0,0-.59.87,3.76,3.76,0,0,0-.18,1.21V30a5.25,5.25,0,0,1-.08.92,1.07,1.07,0,0,1-.49.69A2.49,2.49,0,0,1,233.7,31.9Z"/><path class="cls-3" d="M254.15,37.09a2.51,2.51,0,0,1-1.3-.26,1,1,0,0,1-.48-.68,4.94,4.94,0,0,1-.07-.89v-14a5.1,5.1,0,0,1,.07-.91,1.05,1.05,0,0,1,.47-.69,2.22,2.22,0,0,1,1.28-.27,2.87,2.87,0,0,1,1.24.22,1.29,1.29,0,0,1,.66.7v14.9a3.28,3.28,0,0,1-.08.9,1.16,1.16,0,0,1-.49.69A2.48,2.48,0,0,1,254.15,37.09Zm4.8-5.4a4.52,4.52,0,0,1-2.15-.49,4.33,4.33,0,0,1-1.53-1.32,6.12,6.12,0,0,1-.93-1.94,7.9,7.9,0,0,1-.28-2.38,8.51,8.51,0,0,1,.32-2.33,6.71,6.71,0,0,1,.94-2A4.25,4.25,0,0,1,259,19.42a4.88,4.88,0,0,1,2.15.5,6.38,6.38,0,0,1,3.11,3.35,6.15,6.15,0,0,1,.46,2.38,6.08,6.08,0,0,1-3.55,5.58A5.23,5.23,0,0,1,259,31.69Zm-.5-3.52a2.28,2.28,0,0,0,1.25-.34,2.51,2.51,0,0,0,.89-.91,2.43,2.43,0,0,0,.34-1.28,2.6,2.6,0,0,0-.32-1.27,2.33,2.33,0,0,0-.89-.9,2.4,2.4,0,0,0-1.24-.33,2.4,2.4,0,0,0-2.11,1.24,2.5,2.5,0,0,0-.31,1.26,2.5,2.5,0,0,0,1.2,2.19A2.26,2.26,0,0,0,258.45,28.17Z"/><path class="cls-3" d="M271.53,31.93a16.22,16.22,0,0,1-1.83-.11,3.7,3.7,0,0,1-1.35-.4,2.64,2.64,0,0,1-.9-.83,4,4,0,0,1-.52-1.38,9.44,9.44,0,0,1-.17-2.06V15.6a4.49,4.49,0,0,1,.1-.93,1.21,1.21,0,0,1,.49-.7,2.39,2.39,0,0,1,1.31-.27A2.34,2.34,0,0,1,270,14a1.21,1.21,0,0,1,.49.7,4.57,4.57,0,0,1,.1.93V27a4.22,4.22,0,0,0,0,.67.8.8,0,0,0,.15.41.51.51,0,0,0,.31.2,2.4,2.4,0,0,0,.52.05,2.7,2.7,0,0,1,.62.08.9.9,0,0,1,.53.45,2.53,2.53,0,0,1,.23,1.25,2.79,2.79,0,0,1-.23,1.3.89.89,0,0,1-.54.47A2.65,2.65,0,0,1,271.53,31.93Z"/><path class="cls-3" d="M281,32.16a7.25,7.25,0,0,1-3-.58,5.84,5.84,0,0,1-2.06-1.51,6.53,6.53,0,0,1-1.2-2.09,6.92,6.92,0,0,1-.4-2.3,6.54,6.54,0,0,1,.85-3.33,6.12,6.12,0,0,1,2.37-2.28,7,7,0,0,1,3.46-.84,6.39,6.39,0,0,1,2.51.46,5.11,5.11,0,0,1,1.75,1.21,5.18,5.18,0,0,1,1,1.58,4.51,4.51,0,0,1,.33,1.63,2.82,2.82,0,0,1-.66,2.05,2.27,2.27,0,0,1-1.69.67h-6a1.74,1.74,0,0,0,.46,1.07,2.75,2.75,0,0,0,1,.71,3.64,3.64,0,0,0,1.32.25,6.54,6.54,0,0,0,1-.07,4.49,4.49,0,0,0,.79-.17,5.6,5.6,0,0,0,.59-.23l.48-.18a2.63,2.63,0,0,1,.43-.1,1,1,0,0,1,.67.21,2.11,2.11,0,0,1,.58.71,2.43,2.43,0,0,1,.24.53,2.14,2.14,0,0,1,.06.5,1.35,1.35,0,0,1-.62,1.09,4.78,4.78,0,0,1-1.72.73A11,11,0,0,1,281,32.16Zm-2.67-7.41h4a1.06,1.06,0,0,0,.58-.14.62.62,0,0,0,.2-.54,1.18,1.18,0,0,0-.28-.77,1.67,1.67,0,0,0-.73-.54,2.83,2.83,0,0,0-1.09-.19,3,3,0,0,0-1.35.3,2.39,2.39,0,0,0-.94.8A1.84,1.84,0,0,0,278.28,24.75Z"/><path class="cls-3" d="M289.46,19.64h2.75l3.45-.1a4.29,4.29,0,0,1,.9.09,1.1,1.1,0,0,1,.7.49,2.41,2.41,0,0,1,.27,1.32,2.38,2.38,0,0,1-.26,1.25,1.13,1.13,0,0,1-.69.51,3,3,0,0,1-.92.11l-3.28-.07-3,0a1.25,1.25,0,0,1-1-.46,2.46,2.46,0,0,1-.29-1.39,2.15,2.15,0,0,1,.35-1.34A1.26,1.26,0,0,1,289.46,19.64Zm5.64,12.3a7.54,7.54,0,0,1-2.2-.28,3.43,3.43,0,0,1-1.51-.85,3.5,3.5,0,0,1-.87-1.46,6.64,6.64,0,0,1-.29-2.11V17.11a4.92,4.92,0,0,1,.08-.92,1.07,1.07,0,0,1,.49-.67,2.51,2.51,0,0,1,1.3-.26,2.28,2.28,0,0,1,1.3.28,1.1,1.1,0,0,1,.49.71,4.53,4.53,0,0,1,.09.91v9.93a3,3,0,0,0,.06.66.79.79,0,0,0,.19.39.68.68,0,0,0,.35.17,2.19,2.19,0,0,0,.55.05,4.59,4.59,0,0,1,1,.1,1.07,1.07,0,0,1,.67.46,2.24,2.24,0,0,1,.23,1.17,2.4,2.4,0,0,1-.27,1.3,1.07,1.07,0,0,1-.72.48A5.33,5.33,0,0,1,295.1,31.94Z"/><path class="cls-3" d="M309.65,31.92a2.39,2.39,0,0,1-1.37-.32.93.93,0,0,1-.43-.8l.25-.43a2.72,2.72,0,0,1-.57.61,4.25,4.25,0,0,1-2.78.94,5.08,5.08,0,0,1-2.19-.5A5.85,5.85,0,0,1,300.73,30a7,7,0,0,1-1.28-2,6.16,6.16,0,0,1-.47-2.38,5.9,5.9,0,0,1,.48-2.34,6.46,6.46,0,0,1,1.29-2A6.33,6.33,0,0,1,302.58,20a5,5,0,0,1,2.18-.5,4.26,4.26,0,0,1,1.57.26,4.16,4.16,0,0,1,1.09.62,3.43,3.43,0,0,1,.66.67l-.22-.35a1.05,1.05,0,0,1,.44-.91,2.39,2.39,0,0,1,1.38-.31,2.34,2.34,0,0,1,1.29.27,1.16,1.16,0,0,1,.48.73,5.8,5.8,0,0,1,.08.95V30a4.73,4.73,0,0,1-.09.93,1.07,1.07,0,0,1-.48.71A2.36,2.36,0,0,1,309.65,31.92Zm-4.37-3.72a2.21,2.21,0,0,0,1.2-.34,2.66,2.66,0,0,0,.85-.91,2.67,2.67,0,0,0,0-2.57,2.45,2.45,0,0,0-.87-.88,2.48,2.48,0,0,0-2.49,0,2.53,2.53,0,0,0-1.24,2.21,2.34,2.34,0,0,0,.34,1.24,2.56,2.56,0,0,0,.92.9A2.59,2.59,0,0,0,305.28,28.2Z"/><path class="cls-2" d="M123.28,31.84a2.4,2.4,0,0,1-1.3-.27,1.05,1.05,0,0,1-.49-.71,4.7,4.7,0,0,1-.08-.92V16.26a2.07,2.07,0,0,1,.43-1.49,2.2,2.2,0,0,1,1.52-.41h9.45a4.45,4.45,0,0,1,.93.09,1.07,1.07,0,0,1,.69.48,2.65,2.65,0,0,1,.26,1.35,2.28,2.28,0,0,1-.28,1.3,1.1,1.1,0,0,1-.71.49,4.62,4.62,0,0,1-.94.09h-7.55v3.23h5.13a4.63,4.63,0,0,1,.88.08.93.93,0,0,1,.62.42,2.38,2.38,0,0,1,.22,1.2,2,2,0,0,1-.23,1.11.9.9,0,0,1-.62.42,5,5,0,0,1-.9.07h-5.1V30a4.63,4.63,0,0,1-.1.92,1.14,1.14,0,0,1-.49.69A2.47,2.47,0,0,1,123.28,31.84Z"/><path class="cls-2" d="M143.13,32.05a6.3,6.3,0,0,1-2.34-.47,6.84,6.84,0,0,1-2.11-1.31,6.38,6.38,0,0,1-1.51-2,6,6,0,0,1-.56-2.64,6.19,6.19,0,0,1,.51-2.51A6.93,6.93,0,0,1,138.53,21a6.79,6.79,0,0,1,2.07-1.41,6.09,6.09,0,0,1,2.49-.51,6.35,6.35,0,0,1,3.26.86,6.72,6.72,0,0,1,2.34,2.34,6.36,6.36,0,0,1,.87,3.28,6.2,6.2,0,0,1-.57,2.71,6.35,6.35,0,0,1-1.5,2,6.57,6.57,0,0,1-2.07,1.28A6.38,6.38,0,0,1,143.13,32.05Zm0-3.78a2.85,2.85,0,0,0,1.23-.3,2.81,2.81,0,0,0,1.05-.9,2.57,2.57,0,0,0,.42-1.52,2.67,2.67,0,0,0-.35-1.4,2.48,2.48,0,0,0-1-.94,2.94,2.94,0,0,0-1.41-.34,2.6,2.6,0,0,0-1.34.35,2.82,2.82,0,0,0-.95,1,2.69,2.69,0,0,0-.36,1.39,2.58,2.58,0,0,0,.41,1.51,2.43,2.43,0,0,0,1,.9A2.76,2.76,0,0,0,143.08,28.27Z"/><path class="cls-2" d="M153.45,31.85a2.41,2.41,0,0,1-1.31-.26,1.06,1.06,0,0,1-.47-.71,4.73,4.73,0,0,1-.09-.93V21.23a4.54,4.54,0,0,1,.08-.93,1,1,0,0,1,.49-.68,2.47,2.47,0,0,1,1.33-.27,2.5,2.5,0,0,1,1.26.24,1.06,1.06,0,0,1,.49.55,2.08,2.08,0,0,1,.1.54l-.3.15a2,2,0,0,1,.26-.36,3.2,3.2,0,0,1,.59-.55,3.4,3.4,0,0,1,.91-.49,3.62,3.62,0,0,1,1.24-.2c.18,0,.38,0,.61,0a3.83,3.83,0,0,1,.7.15,3.32,3.32,0,0,1,.66.3,1.8,1.8,0,0,1,.49.46,1.24,1.24,0,0,1,.19.68,3.06,3.06,0,0,1-.48,1.74,1.42,1.42,0,0,1-1.2.71,2.11,2.11,0,0,1-.6-.06,1.3,1.3,0,0,1-.29-.16l-.26-.15a1.68,1.68,0,0,0-.55-.06,2.71,2.71,0,0,0-.71.1,2.06,2.06,0,0,0-.63.31,1.54,1.54,0,0,0-.45.53,1.49,1.49,0,0,0-.16.71V30a4.53,4.53,0,0,1-.09.91,1,1,0,0,1-.49.69A2.73,2.73,0,0,1,153.45,31.85Z"/><path class="cls-2" d="M164.48,31.86a2.38,2.38,0,0,1-1.3-.27,1.07,1.07,0,0,1-.48-.71,5.29,5.29,0,0,1-.07-.92V21.21a4.31,4.31,0,0,1,.08-.9,1.08,1.08,0,0,1,.49-.69,2.59,2.59,0,0,1,1.33-.26,2.09,2.09,0,0,1,1.35.36,1.51,1.51,0,0,1,.42,1.19l-.32.28a1.84,1.84,0,0,1,.29-.43,4.46,4.46,0,0,1,.66-.62,3.71,3.71,0,0,1,.93-.56,2.85,2.85,0,0,1,1.17-.24,4.29,4.29,0,0,1,1.48.24,3.71,3.71,0,0,1,1.2.7,4.38,4.38,0,0,1,.94,1.16,6.28,6.28,0,0,1,.85-1,4.31,4.31,0,0,1,1.18-.8,3.4,3.4,0,0,1,1.52-.33,4.15,4.15,0,0,1,2.49.74,4.56,4.56,0,0,1,1.54,2.12,9.52,9.52,0,0,1,.52,3.32V30a3.91,3.91,0,0,1-.11.91,1.1,1.1,0,0,1-.48.7,2.52,2.52,0,0,1-1.32.26,2.35,2.35,0,0,1-1.32-.28,1.08,1.08,0,0,1-.48-.71A5.33,5.33,0,0,1,177,30V25.49a4,4,0,0,0-.18-1.28,1.88,1.88,0,0,0-.54-.83,1.37,1.37,0,0,0-.9-.29,1.66,1.66,0,0,0-1,.28,1.72,1.72,0,0,0-.6.8,3.92,3.92,0,0,0-.2,1.35V30a3.14,3.14,0,0,1-.13.94,1.22,1.22,0,0,1-.53.7,2.6,2.6,0,0,1-1.34.24,2.11,2.11,0,0,1-1.25-.29,1.14,1.14,0,0,1-.45-.73,5.26,5.26,0,0,1-.08-.89V25.49a4.21,4.21,0,0,0-.18-1.3,1.65,1.65,0,0,0-.52-.83,1.49,1.49,0,0,0-.93-.27,1.61,1.61,0,0,0-1,.32,1.93,1.93,0,0,0-.59.87,3.75,3.75,0,0,0-.19,1.21V30a4.42,4.42,0,0,1-.09.92,1.06,1.06,0,0,1-.49.69A2.52,2.52,0,0,1,164.48,31.86Z"/><path class="cls-2" d="M193.4,31.85a2.41,2.41,0,0,1-1.37-.32.93.93,0,0,1-.43-.8l.25-.43a3,3,0,0,1-.57.62,4.27,4.27,0,0,1-1.11.64,4.38,4.38,0,0,1-1.67.29,5,5,0,0,1-2.18-.5A5.78,5.78,0,0,1,184.48,30a7,7,0,0,1-1.27-2,6,6,0,0,1-.48-2.38,5.87,5.87,0,0,1,.48-2.34,6.65,6.65,0,0,1,1.29-2,6.24,6.24,0,0,1,1.84-1.36,4.9,4.9,0,0,1,2.17-.5,4.35,4.35,0,0,1,1.58.26,4.26,4.26,0,0,1,1.08.62,3.17,3.17,0,0,1,.66.67l-.22-.35a1.05,1.05,0,0,1,.44-.91,2.4,2.4,0,0,1,1.39-.31,2.3,2.3,0,0,1,1.28.27,1.16,1.16,0,0,1,.48.73,4.87,4.87,0,0,1,.08.95V30a4.73,4.73,0,0,1-.09.93,1.09,1.09,0,0,1-.47.71A2.42,2.42,0,0,1,193.4,31.85ZM189,28.13a2.21,2.21,0,0,0,1.2-.34,2.66,2.66,0,0,0,.85-.91,2.67,2.67,0,0,0,0-2.57,2.45,2.45,0,0,0-3.36-.87,2.61,2.61,0,0,0-.9.91,2.57,2.57,0,0,0-.34,1.3,2.34,2.34,0,0,0,.34,1.24,2.56,2.56,0,0,0,.92.9A2.59,2.59,0,0,0,189,28.13Z"/><path class="cls-2" d="M210.48,32a6.64,6.64,0,0,1-2.24-.41,7.16,7.16,0,0,1-2.1-1.22,5.77,5.77,0,0,1-1.53-2,6.21,6.21,0,0,1-.58-2.75,6.09,6.09,0,0,1,.58-2.73,6,6,0,0,1,1.52-2,6.87,6.87,0,0,1,2.09-1.21,6.62,6.62,0,0,1,2.22-.41,6.08,6.08,0,0,1,1.66.21,5.41,5.41,0,0,1,1.25.52,3.5,3.5,0,0,1,.74.52,7,7,0,0,1,.74.65,1.05,1.05,0,0,1,.3.85,1.38,1.38,0,0,1-.17.56,3.91,3.91,0,0,1-.38.59c-.51.7-1,1-1.5.95a2.12,2.12,0,0,1-.68-.25l-.6-.35a4.48,4.48,0,0,0-.62-.31,1.73,1.73,0,0,0-.75-.14,2.5,2.5,0,0,0-1.3.34,2.48,2.48,0,0,0-1.25,2.21,2.5,2.5,0,0,0,.34,1.3,2.46,2.46,0,0,0,.9.91,2.33,2.33,0,0,0,1.26.34,2.39,2.39,0,0,0,.73-.1,2.83,2.83,0,0,0,.55-.24l.35-.21.57-.36a1.08,1.08,0,0,1,.55-.16,1.21,1.21,0,0,1,.74.26,4.1,4.1,0,0,1,.81.84,2.07,2.07,0,0,1,.49,1,1.18,1.18,0,0,1-.22.86,2.58,2.58,0,0,1-.85.77,5.06,5.06,0,0,1-.71.45,6.52,6.52,0,0,1-1.25.49A5.64,5.64,0,0,1,210.48,32Z"/><path class="cls-2" d="M223.43,32.1a6.22,6.22,0,0,1-2.34-.47A7,7,0,0,1,219,30.32a6.38,6.38,0,0,1-1.51-2,6,6,0,0,1-.56-2.64,6.19,6.19,0,0,1,.51-2.51,6.75,6.75,0,0,1,3.48-3.47,6.09,6.09,0,0,1,2.49-.51,6.35,6.35,0,0,1,3.26.86A6.61,6.61,0,0,1,229,22.35a6.38,6.38,0,0,1-1.19,8,6.53,6.53,0,0,1-2.07,1.29A6.42,6.42,0,0,1,223.43,32.1Zm-.05-3.78a2.85,2.85,0,0,0,1.23-.3,2.81,2.81,0,0,0,1-.9,2.6,2.6,0,0,0,.42-1.52,2.65,2.65,0,0,0-.35-1.4,2.48,2.48,0,0,0-1-.94,2.83,2.83,0,0,0-1.41-.34,2.6,2.6,0,0,0-1.34.35,2.65,2.65,0,0,0-1,1,2.69,2.69,0,0,0-.36,1.39,2.6,2.6,0,0,0,.41,1.51,2.43,2.43,0,0,0,1,.9A2.9,2.9,0,0,0,223.38,28.32Z"/><path class="cls-2" d="M233.7,31.9a2.4,2.4,0,0,1-1.3-.27,1.1,1.1,0,0,1-.47-.7,5.37,5.37,0,0,1-.08-.93V21.25a4.36,4.36,0,0,1,.09-.9,1.08,1.08,0,0,1,.49-.69,2.52,2.52,0,0,1,1.32-.26,2,2,0,0,1,1.35.37,1.47,1.47,0,0,1,.42,1.18l-.32.28a1.87,1.87,0,0,1,.3-.43,4.92,4.92,0,0,1,.65-.62,4.1,4.1,0,0,1,.94-.56,2.8,2.8,0,0,1,1.16-.24,4.35,4.35,0,0,1,1.49.24,3.82,3.82,0,0,1,1.2.7,4.32,4.32,0,0,1,.93,1.16,6.37,6.37,0,0,1,.86-1,4.25,4.25,0,0,1,1.17-.8,3.44,3.44,0,0,1,1.53-.33,4.16,4.16,0,0,1,2.48.74,4.54,4.54,0,0,1,1.54,2.12,9.29,9.29,0,0,1,.52,3.32V30a4.53,4.53,0,0,1-.1.91,1.15,1.15,0,0,1-.49.7,2.5,2.5,0,0,1-1.31.26,2.47,2.47,0,0,1-1.33-.27,1.11,1.11,0,0,1-.47-.72,5.31,5.31,0,0,1-.08-.91V25.54a3.81,3.81,0,0,0-.19-1.29,1.72,1.72,0,0,0-.54-.83,1.37,1.37,0,0,0-.9-.29,1.68,1.68,0,0,0-1,.28,1.6,1.6,0,0,0-.6.8,3.7,3.7,0,0,0-.2,1.35V30a3.51,3.51,0,0,1-.12.94,1.17,1.17,0,0,1-.54.7,2.56,2.56,0,0,1-1.34.24,2.11,2.11,0,0,1-1.25-.29,1.12,1.12,0,0,1-.45-.73A5.14,5.14,0,0,1,239,30V25.53a4.55,4.55,0,0,0-.17-1.3,1.59,1.59,0,0,0-.53-.82,1.4,1.4,0,0,0-.92-.28,1.62,1.62,0,0,0-1,.32,2,2,0,0,0-.59.87,3.76,3.76,0,0,0-.18,1.21V30a5.25,5.25,0,0,1-.08.92,1.07,1.07,0,0,1-.49.69A2.49,2.49,0,0,1,233.7,31.9Z"/><path class="cls-2" d="M254.15,37.09a2.51,2.51,0,0,1-1.3-.26,1,1,0,0,1-.48-.68,4.94,4.94,0,0,1-.07-.89v-14a5.1,5.1,0,0,1,.07-.91,1.05,1.05,0,0,1,.47-.69,2.22,2.22,0,0,1,1.28-.27,2.87,2.87,0,0,1,1.24.22,1.29,1.29,0,0,1,.66.7v14.9a3.28,3.28,0,0,1-.08.9,1.16,1.16,0,0,1-.49.69A2.48,2.48,0,0,1,254.15,37.09Zm4.8-5.4a4.52,4.52,0,0,1-2.15-.49,4.33,4.33,0,0,1-1.53-1.32,6.12,6.12,0,0,1-.93-1.94,7.9,7.9,0,0,1-.28-2.38,8.51,8.51,0,0,1,.32-2.33,6.71,6.71,0,0,1,.94-2A4.25,4.25,0,0,1,259,19.42a4.88,4.88,0,0,1,2.15.5,6.38,6.38,0,0,1,3.11,3.35,6.15,6.15,0,0,1,.46,2.38,6.08,6.08,0,0,1-3.55,5.58A5.23,5.23,0,0,1,259,31.69Zm-.5-3.52a2.28,2.28,0,0,0,1.25-.34,2.51,2.51,0,0,0,.89-.91,2.43,2.43,0,0,0,.34-1.28,2.6,2.6,0,0,0-.32-1.27,2.33,2.33,0,0,0-.89-.9,2.4,2.4,0,0,0-1.24-.33,2.4,2.4,0,0,0-2.11,1.24,2.5,2.5,0,0,0-.31,1.26,2.5,2.5,0,0,0,1.2,2.19A2.26,2.26,0,0,0,258.45,28.17Z"/><path class="cls-2" d="M271.53,31.93a16.22,16.22,0,0,1-1.83-.11,3.7,3.7,0,0,1-1.35-.4,2.64,2.64,0,0,1-.9-.83,4,4,0,0,1-.52-1.38,9.44,9.44,0,0,1-.17-2.06V15.6a4.49,4.49,0,0,1,.1-.93,1.21,1.21,0,0,1,.49-.7,2.39,2.39,0,0,1,1.31-.27A2.34,2.34,0,0,1,270,14a1.21,1.21,0,0,1,.49.7,4.57,4.57,0,0,1,.1.93V27a4.22,4.22,0,0,0,0,.67.8.8,0,0,0,.15.41.51.51,0,0,0,.31.2,2.4,2.4,0,0,0,.52.05,2.7,2.7,0,0,1,.62.08.9.9,0,0,1,.53.45,2.53,2.53,0,0,1,.23,1.25,2.79,2.79,0,0,1-.23,1.3.89.89,0,0,1-.54.47A2.65,2.65,0,0,1,271.53,31.93Z"/><path class="cls-2" d="M281,32.16a7.25,7.25,0,0,1-3-.58,5.84,5.84,0,0,1-2.06-1.51,6.53,6.53,0,0,1-1.2-2.09,6.92,6.92,0,0,1-.4-2.3,6.54,6.54,0,0,1,.85-3.33,6.12,6.12,0,0,1,2.37-2.28,7,7,0,0,1,3.46-.84,6.39,6.39,0,0,1,2.51.46,5.11,5.11,0,0,1,1.75,1.21,5.18,5.18,0,0,1,1,1.58,4.51,4.51,0,0,1,.33,1.63,2.82,2.82,0,0,1-.66,2.05,2.27,2.27,0,0,1-1.69.67h-6a1.74,1.74,0,0,0,.46,1.07,2.75,2.75,0,0,0,1,.71,3.64,3.64,0,0,0,1.32.25,6.54,6.54,0,0,0,1-.07,4.49,4.49,0,0,0,.79-.17,5.6,5.6,0,0,0,.59-.23l.48-.18a2.63,2.63,0,0,1,.43-.1,1,1,0,0,1,.67.21,2.11,2.11,0,0,1,.58.71,2.43,2.43,0,0,1,.24.53,2.14,2.14,0,0,1,.06.5,1.35,1.35,0,0,1-.62,1.09,4.78,4.78,0,0,1-1.72.73A11,11,0,0,1,281,32.16Zm-2.67-7.41h4a1.06,1.06,0,0,0,.58-.14.62.62,0,0,0,.2-.54,1.18,1.18,0,0,0-.28-.77,1.67,1.67,0,0,0-.73-.54,2.83,2.83,0,0,0-1.09-.19,3,3,0,0,0-1.35.3,2.39,2.39,0,0,0-.94.8A1.84,1.84,0,0,0,278.28,24.75Z"/><path class="cls-2" d="M289.46,19.64h2.75l3.45-.1a4.29,4.29,0,0,1,.9.09,1.1,1.1,0,0,1,.7.49,2.41,2.41,0,0,1,.27,1.32,2.38,2.38,0,0,1-.26,1.25,1.13,1.13,0,0,1-.69.51,3,3,0,0,1-.92.11l-3.28-.07-3,0a1.25,1.25,0,0,1-1-.46,2.46,2.46,0,0,1-.29-1.39,2.15,2.15,0,0,1,.35-1.34A1.26,1.26,0,0,1,289.46,19.64Zm5.64,12.3a7.54,7.54,0,0,1-2.2-.28,3.43,3.43,0,0,1-1.51-.85,3.5,3.5,0,0,1-.87-1.46,6.64,6.64,0,0,1-.29-2.11V17.11a4.92,4.92,0,0,1,.08-.92,1.07,1.07,0,0,1,.49-.67,2.51,2.51,0,0,1,1.3-.26,2.28,2.28,0,0,1,1.3.28,1.1,1.1,0,0,1,.49.71,4.53,4.53,0,0,1,.09.91v9.93a3,3,0,0,0,.06.66.79.79,0,0,0,.19.39.68.68,0,0,0,.35.17,2.19,2.19,0,0,0,.55.05,4.59,4.59,0,0,1,1,.1,1.07,1.07,0,0,1,.67.46,2.24,2.24,0,0,1,.23,1.17,2.4,2.4,0,0,1-.27,1.3,1.07,1.07,0,0,1-.72.48A5.33,5.33,0,0,1,295.1,31.94Z"/><path class="cls-2" d="M309.65,31.92a2.39,2.39,0,0,1-1.37-.32.93.93,0,0,1-.43-.8l.25-.43a2.72,2.72,0,0,1-.57.61,4.25,4.25,0,0,1-2.78.94,5.08,5.08,0,0,1-2.19-.5A5.85,5.85,0,0,1,300.73,30a7,7,0,0,1-1.28-2,6.16,6.16,0,0,1-.47-2.38,5.9,5.9,0,0,1,.48-2.34,6.46,6.46,0,0,1,1.29-2A6.33,6.33,0,0,1,302.58,20a5,5,0,0,1,2.18-.5,4.26,4.26,0,0,1,1.57.26,4.16,4.16,0,0,1,1.09.62,3.43,3.43,0,0,1,.66.67l-.22-.35a1.05,1.05,0,0,1,.44-.91,2.39,2.39,0,0,1,1.38-.31,2.34,2.34,0,0,1,1.29.27,1.16,1.16,0,0,1,.48.73,5.8,5.8,0,0,1,.08.95V30a4.73,4.73,0,0,1-.09.93,1.07,1.07,0,0,1-.48.71A2.36,2.36,0,0,1,309.65,31.92Zm-4.37-3.72a2.21,2.21,0,0,0,1.2-.34,2.66,2.66,0,0,0,.85-.91,2.67,2.67,0,0,0,0-2.57,2.45,2.45,0,0,0-.87-.88,2.48,2.48,0,0,0-2.49,0,2.53,2.53,0,0,0-1.24,2.21,2.34,2.34,0,0,0,.34,1.24,2.56,2.56,0,0,0,.92.9A2.59,2.59,0,0,0,305.28,28.2Z"/><path class="cls-4" d="M58.88,38.85a4.22,4.22,0,0,1-3.5-1.36c-.74-.91-1.1-2.5-1.1-4.77H46.74a5.31,5.31,0,0,1-3.93-1.3,4.61,4.61,0,0,1-1.28-3.36,7.12,7.12,0,0,1,1.11-3.95Q45.54,19.45,49.16,14A6.65,6.65,0,0,1,55,10.84l3.55,0c2,0,3.32.34,4,1a4.87,4.87,0,0,1,1.06,3.59V26.59a3.66,3.66,0,0,1,2.4.88,3.33,3.33,0,0,1,.65,2.27,2.8,2.8,0,0,1-.7,2.2,4,4,0,0,1-2.36.74c0,2.21-.4,3.79-1.18,4.74A4.33,4.33,0,0,1,58.88,38.85Zm-4.63-12.1.13-8.94-5.47,8.94Z"/><path class="cls-4" d="M69.23,36a2.78,2.78,0,0,1,1.16-2.31,5.4,5.4,0,0,1,3.28-.88c3,0,4.44,1.07,4.44,3.19a3.11,3.11,0,0,1-.57,2,2.69,2.69,0,0,1-1.51,1,9.11,9.11,0,0,1-2.36.26,6.13,6.13,0,0,1-3.18-.76A2.62,2.62,0,0,1,69.23,36Z"/><path class="cls-4" d="M94,38.85a4.22,4.22,0,0,1-3.5-1.36c-.74-.91-1.1-2.5-1.1-4.77H81.9A5.31,5.31,0,0,1,78,31.42a4.61,4.61,0,0,1-1.28-3.36,7.12,7.12,0,0,1,1.11-3.95Q80.7,19.45,84.32,14a6.65,6.65,0,0,1,5.83-3.19l3.55,0c2,0,3.32.34,4,1a4.87,4.87,0,0,1,1.06,3.59V26.59a3.66,3.66,0,0,1,2.4.88,3.31,3.31,0,0,1,.65,2.27,2.8,2.8,0,0,1-.7,2.2,4,4,0,0,1-2.36.74c0,2.21-.4,3.79-1.18,4.74A4.36,4.36,0,0,1,94,38.85Zm-4.63-12.1.13-8.94-5.47,8.94Z"/><path class="cls-5" d="M58.88,38.85a4.22,4.22,0,0,1-3.5-1.36c-.74-.91-1.1-2.5-1.1-4.77H46.74a5.31,5.31,0,0,1-3.93-1.3,4.61,4.61,0,0,1-1.28-3.36,7.12,7.12,0,0,1,1.11-3.95Q45.54,19.45,49.16,14A6.65,6.65,0,0,1,55,10.84l3.55,0c2,0,3.32.34,4,1a4.87,4.87,0,0,1,1.06,3.59V26.59a3.66,3.66,0,0,1,2.4.88,3.33,3.33,0,0,1,.65,2.27,2.8,2.8,0,0,1-.7,2.2,4,4,0,0,1-2.36.74c0,2.21-.4,3.79-1.18,4.74A4.33,4.33,0,0,1,58.88,38.85Zm-4.63-12.1.13-8.94-5.47,8.94Z"/><path class="cls-5" d="M69.23,36a2.78,2.78,0,0,1,1.16-2.31,5.4,5.4,0,0,1,3.28-.88c3,0,4.44,1.07,4.44,3.19a3.11,3.11,0,0,1-.57,2,2.69,2.69,0,0,1-1.51,1,9.11,9.11,0,0,1-2.36.26,6.13,6.13,0,0,1-3.18-.76A2.62,2.62,0,0,1,69.23,36Z"/><path class="cls-5" d="M94,38.85a4.22,4.22,0,0,1-3.5-1.36c-.74-.91-1.1-2.5-1.1-4.77H81.9A5.31,5.31,0,0,1,78,31.42a4.61,4.61,0,0,1-1.28-3.36,7.12,7.12,0,0,1,1.11-3.95Q80.7,19.45,84.32,14a6.65,6.65,0,0,1,5.83-3.19l3.55,0c2,0,3.32.34,4,1a4.87,4.87,0,0,1,1.06,3.59V26.59a3.66,3.66,0,0,1,2.4.88,3.31,3.31,0,0,1,.65,2.27,2.8,2.8,0,0,1-.7,2.2,4,4,0,0,1-2.36.74c0,2.21-.4,3.79-1.18,4.74A4.36,4.36,0,0,1,94,38.85Zm-4.63-12.1.13-8.94-5.47,8.94Z"/></g></g></svg>