<?xml version="1.0" encoding="utf-8"?>
<!-- Generator: Adobe Illustrator 24.0.2, SVG Export Plug-In . SVG Version: 6.00 Build 0)  -->
<svg version="1.1" id="Layer_1" xmlns="http://www.w3.org/2000/svg" xmlns:xlink="http://www.w3.org/1999/xlink" x="0px" y="0px"
	 viewBox="0 0 32 32" style="enable-background:new 0 0 32 32;" xml:space="preserve">
<style type="text/css">
	.st0{fill:#24B2A0;}
	.st1{fill:#FFFFFF;}
</style>
<title>abajo</title>
<g>
	<g>
		<circle class="st0" cx="16" cy="16" r="16"/>
		<path class="st1" d="M17.1,24.8l5.1-8.8c0.7-1.1-0.2-2.5-1.5-2.5H10.6c-1.3,0-2.1,1.4-1.5,2.5l5.1,8.8C14.8,26,16.5,26,17.1,24.8z
			"/>
		<path class="st1" d="M12.9,9.6V14c0,0.9,0.7,1.6,1.6,1.6h2.5c0.9,0,1.6-0.7,1.6-1.6V9.6c0-0.9-0.7-1.6-1.6-1.6h-2.5
			C13.5,8,12.9,8.7,12.9,9.6z"/>
	</g>
</g>
</svg>
