<svg xmlns="http://www.w3.org/2000/svg" viewBox="0 0 249.1 269.31"><defs><style>.cls-1,.cls-6{fill:#e5e5e5;}.cls-1,.cls-10,.cls-11,.cls-12,.cls-14,.cls-15,.cls-16,.cls-17,.cls-18,.cls-19,.cls-20,.cls-21,.cls-22,.cls-23,.cls-24,.cls-25,.cls-3,.cls-4,.cls-5,.cls-6,.cls-7,.cls-8,.cls-9{stroke:#000;}.cls-1,.cls-10,.cls-11,.cls-12,.cls-14,.cls-15,.cls-16,.cls-17,.cls-19,.cls-20,.cls-21,.cls-22,.cls-23,.cls-24,.cls-25,.cls-3,.cls-4,.cls-5,.cls-6,.cls-7,.cls-8,.cls-9{stroke-miterlimit:10;}.cls-1,.cls-3{stroke-width:0.27px;}.cls-2{fill:#004f27;}.cls-4,.cls-8{fill:#441216;}.cls-4{stroke-width:1.26px;}.cls-10,.cls-13,.cls-14,.cls-15,.cls-16,.cls-17,.cls-18,.cls-19,.cls-22,.cls-5{fill:#fff;}.cls-5{stroke-width:2.06px;}.cls-6,.cls-7{stroke-width:0.27px;}.cls-8{stroke-width:1.2px;}.cls-9{fill:#82000a;}.cls-12,.cls-9{stroke-width:2.11px;}.cls-10,.cls-11{stroke-width:1.1px;}.cls-11,.cls-21,.cls-25{fill:none;}.cls-12{fill:#c1272d;}.cls-14,.cls-15,.cls-18{stroke-width:1.18px;}.cls-15,.cls-18,.cls-21,.cls-25{stroke-linecap:round;}.cls-16{stroke-width:1.89px;}.cls-17{stroke-width:1.14px;}.cls-18{stroke-linejoin:round;}.cls-19{stroke-width:1.48px;}.cls-20{stroke-width:0.17px;}.cls-21{stroke-width:2.96px;}.cls-22{stroke-width:0.06px;}.cls-23{fill:#d85067;stroke-width:0.63px;}.cls-24{fill:#ea5e58;stroke-width:0.05px;}.cls-25{stroke-width:3.57px;}</style></defs><title>la1</title><g id="Layer_2" data-name="Layer 2"><g id="personaje"><path class="cls-1" d="M132.31,263.72a39.22,39.22,0,0,0,4.5-.49c.41-.07,7.47-1.23,10-1.23h.06c2.9,0,8.38,1.11,11.65,1.75l.43.08a10.94,10.94,0,0,0,11.67-5.27,6,6,0,0,1-2.18,6.79c-4.74,3.27-8.71,2.56-13.72,1.66a54,54,0,0,0-7.1-.92,63.68,63.68,0,0,0-11.13.63c-5.21.65-9,1.12-13.93-1.66-3-1.69-3.54-4.94-3.53-6.95C121.75,261.57,126.74,263.72,132.31,263.72Z"/><path class="cls-2" d="M132.31,242.17a18.29,18.29,0,0,1,7.55,1.58l0,0s3.3,1.31,5.34,6.09a.71.71,0,0,0,1.3-.55,14.81,14.81,0,0,0-3.26-4.87,14.71,14.71,0,0,1,5.1-5.47,19.78,19.78,0,0,0,5.24,1.33h.08a.7.7,0,0,0,.09-1.4,18.16,18.16,0,0,1-5.15-1.35l-.07,0c-2.35-1.05-3.8-2.52-3.8-4.09,0-3.06,5.46-5.64,11.94-5.64s11.94,2.58,11.94,5.64c0,1.68-1.66,3.26-4.35,4.32l-.09,0a18,18,0,0,1-3.19.89.7.7,0,1,0,.26,1.38,19.35,19.35,0,0,0,3.16-.85A14.71,14.71,0,0,1,170,256.47l0,.09a9.48,9.48,0,0,1-10.78,5.9l-.43-.09c-3.54-.7-8.88-1.75-11.91-1.78a97.17,97.17,0,0,0-10.29,1.26h0a41.65,41.65,0,0,1-4.21.46c-5.83,0-11.13-2.64-13.19-6.56a7.62,7.62,0,0,1-.88-3.52C118.24,246.69,124.55,242.17,132.31,242.17Z"/><path class="cls-3" d="M132.31,240.77a19.63,19.63,0,0,1,8.11,1.69,8,8,0,0,1,1.77,1,16.08,16.08,0,0,1,4.73-5.25c-2.23-1.27-3.56-3-3.56-4.82,0-3.95,5.86-7.05,13.35-7.05s13.35,3.1,13.35,7.05c0,2-1.53,3.84-4.12,5.13a16.12,16.12,0,0,1,5.48,18.12c2,4.72.09,8.23-2.21,9.81a14,14,0,0,1-8.35,2.67,36.72,36.72,0,0,1-6.42-.78,50.59,50.59,0,0,0-6.91-.89,61.39,61.39,0,0,0-10.9.62c-5.26.65-9.42,1.17-14.79-1.83a8.59,8.59,0,0,1-4.17-6.76,11.61,11.61,0,0,1,.09-3.38,8.85,8.85,0,0,1-.93-3.91C116.83,245.92,123.78,240.77,132.31,240.77Zm-9.78,24.29c5,2.78,8.72,2.31,13.93,1.66a63.68,63.68,0,0,1,11.13-.63,54,54,0,0,1,7.1.92c5,.9,9,1.61,13.72-1.66a6,6,0,0,0,2.18-6.79,10.94,10.94,0,0,1-11.67,5.27l-.43-.08c-3.27-.64-8.75-1.73-11.65-1.75h-.06c-2.5,0-9.56,1.16-10,1.23a39.22,39.22,0,0,1-4.5.49c-5.57,0-10.56-2.15-13.31-5.61C119,260.12,119.51,263.37,122.53,265.06Zm-3.41-9.3c2.06,3.92,7.36,6.56,13.19,6.56a41.65,41.65,0,0,0,4.21-.46h0a97.17,97.17,0,0,1,10.29-1.26c3,0,8.37,1.08,11.91,1.78l.43.09a9.48,9.48,0,0,0,10.78-5.9l0-.09a14.71,14.71,0,0,0-5.57-17.25,19.35,19.35,0,0,1-3.16.85.7.7,0,1,1-.26-1.38,18,18,0,0,0,3.19-.89l.09,0c2.69-1.06,4.35-2.64,4.35-4.32,0-3.06-5.47-5.64-11.94-5.64s-11.94,2.58-11.94,5.64c0,1.57,1.45,3,3.8,4.09l.07,0a18.16,18.16,0,0,0,5.15,1.35.7.7,0,0,1-.09,1.4h-.08a19.78,19.78,0,0,1-5.24-1.33,14.71,14.71,0,0,0-5.1,5.47,14.81,14.81,0,0,1,3.26,4.87.71.71,0,0,1-1.3.55c-2-4.78-5.31-6.08-5.34-6.09l0,0a18.29,18.29,0,0,0-7.55-1.58c-7.76,0-14.07,4.52-14.07,10.07A7.62,7.62,0,0,0,119.12,255.76Z"/><path class="cls-4" d="M157.22,233.44a4.5,4.5,0,0,1-4.44-3.78c-4.3-26.42,7.61-53.77,8.12-54.93a4.51,4.51,0,0,1,8.24,3.65c-.18.41-11.32,26.17-7.47,49.84a4.49,4.49,0,0,1-3.72,5.16A4.59,4.59,0,0,1,157.22,233.44Z"/><path class="cls-5" d="M151.79,221.07h10a1,1,0,0,1,1,1v6.68a6,6,0,0,1-6,6h0a6,6,0,0,1-6-6v-6.68a1,1,0,0,1,1-1Z" transform="translate(-13.66 10.03) rotate(-3.51)"/><path class="cls-4" d="M132.83,169.2a81.13,81.13,0,0,0-3.08,17.8,26,26,0,0,0,1,8.19l.17.59a34.28,34.28,0,0,0,19.05,21.67l1.62.72A59.88,59.88,0,0,0,163.08,222l5,1.11a5.77,5.77,0,0,0,6.88-7l0-.12a6,6,0,0,0-4.27-4.17l-12.88-3.42A22.7,22.7,0,0,1,141.1,190l0-.21a59.58,59.58,0,0,1,1.52-18.24,5,5,0,0,0-4.24-6h0A5.09,5.09,0,0,0,132.83,169.2Z"/><path class="cls-6" d="M201.89,248.52a39.59,39.59,0,0,0,.3-4.52c0-.42.1-7.58.53-10v-.06c.54-2.85,2.56-8.07,3.78-11.18l.15-.41a11.8,11.8,0,0,0,.6-2.12,10.87,10.87,0,0,0-3.75-10.31,6,6,0,0,1,6.31,3.33c2.4,5.26,1,9-.77,13.83a52,52,0,0,0-2.15,6.84A63.82,63.82,0,0,0,205.57,245c-.27,5.25-.47,9-4.08,13.45-2.2,2.68-5.49,2.62-7.48,2.26C197.91,258.57,200.91,254,201.89,248.52Z"/><path class="cls-2" d="M180.64,244.74a18.3,18.3,0,0,1,2.87-7.16l0,0s1.87-3,6.94-4.2a.7.7,0,1,0-.31-1.37,14.69,14.69,0,0,0-5.37,2.36,14.72,14.72,0,0,1-4.5-6,19.89,19.89,0,0,0,2.23-4.93s0-.06,0-.09a.7.7,0,0,0-1.37-.32,18.26,18.26,0,0,1-2.23,4.84.21.21,0,0,1,0,.06c-1.45,2.13-3.16,3.31-4.7,3-3-.53-4.61-6.38-3.47-12.76s4.64-11.33,7.66-10.79c1.65.29,2.92,2.21,3.5,5.05a.44.44,0,0,0,0,.1,17.48,17.48,0,0,1,.32,3.29.71.71,0,0,0,1.41,0,20.48,20.48,0,0,0-.29-3.26,14.66,14.66,0,0,1,13.14-4.25,14.9,14.9,0,0,1,4.85,1.78l.08,0a9.5,9.5,0,0,1,3.92,11.67l-.16.41c-1.3,3.36-3.28,8.45-3.84,11.43a98.27,98.27,0,0,0-.57,10.37v0a38.21,38.21,0,0,1-.28,4.23c-1,5.75-4.55,10.52-8.78,11.85a7.46,7.46,0,0,1-3.62.26C182.62,259.42,179.27,252.4,180.64,244.74Z"/><path class="cls-7" d="M179.25,244.5a19.73,19.73,0,0,1,3.09-7.7,8,8,0,0,1,1.35-1.56,16.12,16.12,0,0,1-4.35-5.58c-1.64,2-3.55,3-5.38,2.66-3.89-.69-5.92-7-4.61-14.4s5.4-12.62,9.3-11.92c2,.35,3.51,2.17,4.33,4.95a16.14,16.14,0,0,1,18.83-2.22c5-1.16,8.13,1.35,9.29,3.9a14.06,14.06,0,0,1,1.17,8.7,36.84,36.84,0,0,1-1.9,6.2,49.72,49.72,0,0,0-2.09,6.66A60.53,60.53,0,0,0,207,245c-.28,5.3-.5,9.49-4.4,14.26a8.58,8.58,0,0,1-7.4,2.93,11.35,11.35,0,0,1-3.31-.68,9,9,0,0,1-4,.23C181.61,260.66,177.75,252.91,179.25,244.5Zm22.24,13.91c3.61-4.41,3.81-8.2,4.08-13.45a63.82,63.82,0,0,1,1.33-11.08,52,52,0,0,1,2.15-6.84c1.77-4.79,3.17-8.57.77-13.83a6,6,0,0,0-6.31-3.33,10.87,10.87,0,0,1,3.75,10.31,11.8,11.8,0,0,1-.6,2.12l-.15.41c-1.22,3.11-3.24,8.33-3.78,11.18V234c-.43,2.46-.52,9.62-.53,10a39.59,39.59,0,0,1-.3,4.52c-1,5.5-4,10-7.88,12.15C196,261,199.29,261.09,201.49,258.41Zm-9.77,1.72c4.23-1.33,7.76-6.1,8.78-11.85a38.21,38.21,0,0,0,.28-4.23v0a98.27,98.27,0,0,1,.57-10.37c.56-3,2.54-8.07,3.84-11.43l.16-.41a9.5,9.5,0,0,0-3.92-11.67l-.08,0a14.9,14.9,0,0,0-4.85-1.78,14.66,14.66,0,0,0-13.14,4.25,20.48,20.48,0,0,1,.29,3.26.71.71,0,0,1-1.41,0,17.48,17.48,0,0,0-.32-3.29.44.44,0,0,1,0-.1c-.58-2.84-1.85-4.76-3.5-5.05-3-.54-6.52,4.4-7.66,10.79s.45,12.23,3.47,12.76c1.54.28,3.25-.9,4.7-3a.21.21,0,0,0,0-.06,18.26,18.26,0,0,0,2.23-4.84.7.7,0,0,1,1.37.32s0,.06,0,.09a19.89,19.89,0,0,1-2.23,4.93,14.72,14.72,0,0,0,4.5,6,14.69,14.69,0,0,1,5.37-2.36.7.7,0,1,1,.31,1.37c-5.07,1.17-6.93,4.17-6.94,4.2l0,0a18.3,18.3,0,0,0-2.87,7.16c-1.37,7.66,2,14.68,7.46,15.65A7.46,7.46,0,0,0,191.72,260.13Z"/><path class="cls-8" d="M15.84,112.12c.13-3.58.39-7.15.76-10.71,23.1,0,38.65-2.45,48.11-4.76,11.52-2.82,16.49-6,17-6.27l0,0,14.41,3.41a70.63,70.63,0,0,1-25.16,12.53,178.44,178.44,0,0,1-28,4.63C34.51,111.77,25.45,112.15,15.84,112.12Z"/><rect class="cls-9" x="97.44" y="1.05" width="128.67" height="174.73"/><rect class="cls-10" x="187.79" y="0.83" width="35.25" height="174.73"/><line class="cls-11" x1="193.88" y1="1.08" x2="193.88" y2="175.79"/><line class="cls-11" x1="199.98" y1="0.83" x2="199.98" y2="176.01"/><line class="cls-11" x1="206.07" y1="0.83" x2="206.07" y2="176.01"/><line class="cls-11" x1="212.16" y1="1.14" x2="212.16" y2="175.82"/><line class="cls-11" x1="218.26" y1="1.14" x2="218.26" y2="175.82"/><rect class="cls-12" x="80.09" y="1.27" width="128.67" height="174.73"/><path class="cls-13" d="M19.52,110.49A10,10,0,0,1,9,110.18c-1.68-12-1.94-23.37,2.08-32.77,4.28,6.3,8.21,12.35,8.83,16.17Z"/><path class="cls-14" d="M15,79.92a1.34,1.34,0,0,1,.77-.76h0a1.87,1.87,0,0,1,1.91.35,6.53,6.53,0,0,1,1.87,4l1,7.55.36,2.75a15.71,15.71,0,0,1-.81,7.29"/><path class="cls-15" d="M9.9,77.62h0a2.39,2.39,0,0,1,2-1.51h0a2.42,2.42,0,0,1,2.21,1h0a9,9,0,0,1,1.72,5l.09,2.57c0,1.1.38,3.27.38,3.27l.33,1.82"/><path class="cls-15" d="M7.86,96.36C7.45,94.05,7,91.73,6.49,88.9A25.12,25.12,0,0,1,6,84.16V81.41a4.94,4.94,0,0,1,1.13-3.19,2.09,2.09,0,0,1,.14-.17,2.35,2.35,0,0,1,1.77-.8h0a1.61,1.61,0,0,1,1.55,1.19l1.18,4.38a16.57,16.57,0,0,1,.41,2.1l.43,3.41a13.12,13.12,0,0,0,.53,2.41l.57,1.8"/><path class="cls-15" d="M10.6,100.67c-1.22-2.53-2.61-5-5.39-6.79A4.38,4.38,0,0,0,4,93.32a2.73,2.73,0,0,0-2.2.26A2.67,2.67,0,0,0,.63,96.3a7.63,7.63,0,0,0,2,4.37,14.48,14.48,0,0,1,3.21,6.19A6.34,6.34,0,0,0,7,109.48l.15.21a6.36,6.36,0,0,0,3.15,2.24l1.17.37a7.84,7.84,0,0,0,4.72,0h0"/><path class="cls-15" d="M17.3,102.25a7.16,7.16,0,0,1,1.32-2.92,3.6,3.6,0,0,1,2.86-1.39h.17a3.27,3.27,0,0,1,1.9.62h0a1.16,1.16,0,0,1,.07,1.83,5.76,5.76,0,0,0-1.25,1.4,5.67,5.67,0,0,0-.86,3.31l.08,2.2a5,5,0,0,0,.83,2.56l.34.5a1.84,1.84,0,0,1-.45,2.59h0A2.06,2.06,0,0,1,20,113h0a5.87,5.87,0,0,1-2.41-3.49l-.63-2.62"/><path class="cls-16" d="M164.62,208.93h11.51a1.13,1.13,0,0,1,1.13,1.13v7.7a6.88,6.88,0,0,1-6.88,6.88h0a6.88,6.88,0,0,1-6.88-6.88v-7.7a1.13,1.13,0,0,1,1.13-1.13Z" transform="translate(-70.05 351.77) rotate(-81.15)"/><path class="cls-8" d="M234,121.37c8-3.5,13.5-10.49,14.41-18.53a21.18,21.18,0,0,0-2.25-12.1,25,25,0,0,0-3.78-5.54c-6.26-7-16.43-9.88-26.55-7.5A4.91,4.91,0,0,0,218,87.26c6.62-1.55,13.13.17,17,4.49,1.57,1.75,4.12,5.38,3.59,10-.59,5.15-4.76,9.62-10.62,11.38a4.91,4.91,0,0,0,2.83,9.41A27.28,27.28,0,0,0,234,121.37Z"/><ellipse class="cls-17" cx="231.45" cy="131.43" rx="3.49" ry="2.04" transform="translate(-9.35 244.84) rotate(-54.81)"/><path class="cls-14" d="M221.77,114.74h0a2.45,2.45,0,0,1,2.7-1.85h.08A13.82,13.82,0,0,1,235.34,121l.06.14a2.9,2.9,0,0,1-1,3.49h0a1.92,1.92,0,0,1-2,.16l-6-3A10.09,10.09,0,0,1,222.3,118h0A4.27,4.27,0,0,1,221.77,114.74Z"/><path class="cls-18" d="M224.94,118h0a9.93,9.93,0,0,0-10.53,6,15.41,15.41,0,0,0-.93,3.45,20.83,20.83,0,0,0-.14,2.45,10.51,10.51,0,0,0,3.43,7.63h0a1,1,0,0,0,1.71-.66l.34-4"/><ellipse class="cls-13" cx="223.22" cy="127.72" rx="8.84" ry="6.87" transform="translate(47.47 315.47) rotate(-76.67)"/><path class="cls-18" d="M217.38,132.05a9.53,9.53,0,0,0,.1,4.16,6.1,6.1,0,0,0,4.39,4.36,5.5,5.5,0,0,0,1,.17,3.07,3.07,0,0,0,3-1.85h0"/><path class="cls-18" d="M222.8,133.34a12.49,12.49,0,0,0,1.72,5.58,4.23,4.23,0,0,0,2,1.94,6,6,0,0,0,5.5-.25l.46-.28a8.49,8.49,0,0,0,2.83-3.15l1.74-3.24a2.62,2.62,0,0,0-.62-3.28l-.07-.06a1.75,1.75,0,0,0-2.29.19l-2.88,3a.21.21,0,0,1-.35-.23l1-2.52a8.3,8.3,0,0,0-1.19-8.34L229.3,121"/><ellipse class="cls-19" cx="121.53" cy="82.3" rx="17.53" ry="25.96"/><ellipse class="cls-19" cx="168.33" cy="80.94" rx="17.53" ry="25.96"/><ellipse class="cls-20" cx="159.82" cy="80.94" rx="9.02" ry="13.35"/><ellipse class="cls-20" cx="113.34" cy="80.94" rx="9.02" ry="13.35"/><path class="cls-21" d="M109.06,47.62s9.31-9.71,18.31,0"/><path class="cls-21" d="M159.77,47.62s9.31-9.71,18.31,0"/><circle class="cls-13" cx="110.05" cy="75.86" r="2.71"/><circle class="cls-13" cx="157.06" cy="75.86" r="2.71"/><path class="cls-20" d="M167.89,120.31a13.75,13.75,0,0,1-.13,3.27,17.2,17.2,0,0,0-20.65,16.79c-8.9,1-17-2.72-20-9.21-.53-1.12.35-2.49,1.88-2.89l35.85-9.54C166.34,118.33,167.78,119.08,167.89,120.31Z"/><path class="cls-22" d="M153.2,122.9c.62,2.3-.37,4.56-2.22,5.06s-3.86-1-4.48-3.26c0-.12-.05-.23-.08-.35h0a34.25,34.25,0,0,0,6.39-2.43A4.61,4.61,0,0,1,153.2,122.9Z"/><path class="cls-22" d="M146.5,124.7c.62,2.3-.37,4.57-2.22,5.07s-3.85-1-4.47-3.26a4.8,4.8,0,0,1-.17-1,34.64,34.64,0,0,0,6.76-1.11A3.37,3.37,0,0,1,146.5,124.7Z"/><path class="cls-23" d="M170.25,114.64a8.15,8.15,0,0,0-6.82-1.13L127.58,123a8.19,8.19,0,0,0-5.37,4.37,7.13,7.13,0,0,0,0,6,21.33,21.33,0,0,0,12.53,10.87A29.61,29.61,0,0,0,148,145.71a33.27,33.27,0,0,0,4.6-.87,30.43,30.43,0,0,0,15.23-9.32,22.8,22.8,0,0,0,5.11-10,19.41,19.41,0,0,0,.38-5.68A7.12,7.12,0,0,0,170.25,114.64Zm-2.36,5.67a13.75,13.75,0,0,1-.13,3.27c-1.1,7.06-7.57,13.63-16.58,16a28.22,28.22,0,0,1-4.07.76c-8.9,1-17-2.72-20-9.21-.53-1.12.35-2.49,1.88-2.89l35.85-9.54C166.34,118.33,167.78,119.08,167.89,120.31Z"/><path class="cls-24" d="M167.76,123.58c-1.1,7.06-7.57,13.63-16.58,16a28.22,28.22,0,0,1-4.07.76,17.2,17.2,0,0,1,20.65-16.79Z"/><path class="cls-25" d="M88.83,14.58s-32.32,0-9.08,10.33"/><path class="cls-25" d="M88.83,48.11s-32.32,0-9.08,10.33"/><path class="cls-25" d="M88.83,81.64s-32.32,0-9.08,10.33"/><path class="cls-25" d="M88.83,115.17s-32.32,0-9.08,10.33"/><path class="cls-25" d="M88.83,148.7s-32.32,0-9.08,10.32"/></g></g></svg>