<svg xmlns="http://www.w3.org/2000/svg" xmlns:xlink="http://www.w3.org/1999/xlink" viewBox="0 0 210.43 231.32"><defs><style>.cls-1{fill:#747e7f;}.cls-2{fill:#9ba7a7;}.cls-3{fill:#996e43;stroke-width:0.78px;}.cls-13,.cls-14,.cls-15,.cls-16,.cls-17,.cls-18,.cls-19,.cls-20,.cls-21,.cls-22,.cls-23,.cls-24,.cls-25,.cls-26,.cls-27,.cls-28,.cls-29,.cls-3,.cls-30,.cls-31,.cls-32,.cls-34,.cls-35,.cls-36,.cls-37,.cls-38,.cls-39,.cls-4,.cls-41,.cls-42,.cls-43,.cls-44,.cls-45,.cls-46,.cls-5{stroke:#000;}.cls-39,.cls-4,.cls-46,.cls-47{fill:none;}.cls-4{stroke-width:1.02px;}.cls-5{fill:#fff;stroke-width:0.75px;}.cls-13,.cls-14,.cls-15,.cls-16,.cls-17,.cls-18,.cls-19,.cls-20,.cls-21,.cls-22,.cls-23,.cls-24,.cls-25,.cls-26,.cls-27,.cls-28,.cls-29,.cls-30,.cls-31,.cls-32,.cls-34,.cls-35,.cls-36,.cls-37,.cls-38,.cls-39,.cls-41,.cls-42,.cls-43,.cls-44,.cls-45,.cls-46,.cls-5,.cls-6,.cls-7,.cls-8,.cls-9{stroke-miterlimit:10;}.cls-6{fill:#7a4ea8;}.cls-6,.cls-7,.cls-8,.cls-9{stroke:#1d1d1b;stroke-width:0.25px;}.cls-7{fill:#736eaf;}.cls-10,.cls-8{fill:#a193ce;}.cls-9{fill:#ef8300;}.cls-11{fill:#8980c2;}.cls-12{fill:url(#Degradado_sin_nombre_2);}.cls-13{stroke-width:0.55px;}.cls-14{fill:#ffd396;stroke-width:0.2px;}.cls-15{stroke-width:0.18px;}.cls-16{fill:#fbca2c;}.cls-16,.cls-17,.cls-18,.cls-19{stroke-width:0.19px;}.cls-17{fill:#f4b21c;}.cls-18{fill:#cac3b9;}.cls-19{fill:#fc5465;}.cls-20{fill:#f9d34e;}.cls-20,.cls-21,.cls-22,.cls-23{stroke-width:0.39px;}.cls-21{fill:#716cc8;}.cls-22{fill:#9b5cc5;}.cls-23,.cls-43,.cls-44,.cls-45{fill:#b3b3b3;}.cls-24{fill:#2e5129;}.cls-24,.cls-25,.cls-26,.cls-27,.cls-28,.cls-29,.cls-30,.cls-31,.cls-32{stroke-width:0.4px;}.cls-25{fill:#142c14;}.cls-26{fill:#b24701;}.cls-27{fill:#7f3301;}.cls-28{fill:#2c3b91;}.cls-29{fill:#000e5e;}.cls-30{fill:#00005e;}.cls-31{fill:#5d224e;}.cls-32{fill:#44093f;}.cls-33{fill:#4d4d4d;opacity:0.25;}.cls-34{fill:#007199;stroke-width:0.29px;}.cls-35{fill:#e6e6e6;}.cls-35,.cls-36{stroke-width:0.14px;}.cls-36{fill:#ccc;}.cls-37,.cls-38{fill:#223663;}.cls-37{stroke-width:0.11px;}.cls-38{stroke-width:0.11px;}.cls-39,.cls-41,.cls-42{stroke-width:0.19px;}.cls-40{fill:#8c135e;}.cls-41{fill:#a85e88;}.cls-42{fill:#db2195;}.cls-43{stroke-width:0.08px;}.cls-44{stroke-width:0.05px;}.cls-45{stroke-width:0.06px;}.cls-46{stroke-width:0.11px;}</style><linearGradient id="Degradado_sin_nombre_2" x1="107.25" y1="95" x2="110.12" y2="1.19" gradientUnits="userSpaceOnUse"><stop offset="0.4" stop-color="#fff" stop-opacity="0"/><stop offset="0.6" stop-color="#fffcdc" stop-opacity="0.26"/><stop offset="0.79" stop-color="#fff9bd" stop-opacity="0.5"/><stop offset="0.93" stop-color="#fff7a9" stop-opacity="0.64"/><stop offset="1" stop-color="#fff6a2" stop-opacity="0.7"/></linearGradient></defs><title>paso1img1</title><g id="Paso_1" data-name="Paso 1"><path class="cls-1" d="M31.9,189.56a12.16,12.16,0,0,1-7.3-2.48,24.73,24.73,0,0,0-7.9,18.28v108.1c1.61,1.21,4.1,2.09,6.85-.53V208.24A19.83,19.83,0,0,1,36,189.56Z"/><path class="cls-1" d="M33.88,191.81l3.61,46.27a3.93,3.93,0,0,0,5.91-.49l-3.73-47.82A16.67,16.67,0,0,0,33.88,191.81Z"/><path class="cls-1" d="M166.62,237.51a3.83,3.83,0,0,0,5.31.34l3.7-44.78a17.22,17.22,0,0,0-5.16-2.71Z"/><path class="cls-1" d="M175.68,189.56h-4a19.83,19.83,0,0,1,12.42,18.68v104.4a4.84,4.84,0,0,0,6.85.26V205.36a24.71,24.71,0,0,0-7.92-18.3A12.15,12.15,0,0,1,175.68,189.56Z"/><path class="cls-2" d="M31.9,188.41H175.68a11.73,11.73,0,0,0,11.07-8.74l3.44-12.19H17.39l3.44,12.19A11.73,11.73,0,0,0,31.9,188.41Z"/><path d="M186.75,179.67a11.73,11.73,0,0,1-11.07,8.74H31.9a11.73,11.73,0,0,1-11.07-8.74l-3.44-12.19H16.25L19.79,180a13.39,13.39,0,0,0,3.94,6.36,25.93,25.93,0,0,0-8.11,19V312.51a.53.53,0,0,0-.8.49v8.26a3.57,3.57,0,0,0,1,2.55c3.12,3.05,6.3,1.55,8.1.18a3.59,3.59,0,0,0,1.39-3.07l-.46-8.05a.6.6,0,0,0-.25-.44V208.24a19,19,0,0,1,8.2-15.77l3.52,45.13a.53.53,0,0,0-.18.39l-.25,8.18a4.43,4.43,0,0,0,1,3c3.36,3.9,6.64,1.61,8.33-.29a4.42,4.42,0,0,0,.9-3.76l-1.51-7.78a.5.5,0,0,0-.17-.3l-3.7-47.41a14.76,14.76,0,0,1,1.5-.08H165.38a16.7,16.7,0,0,1,4,.5l-3.79,46.44a.5.5,0,0,0-.55.41l-1.5,7.79a4.41,4.41,0,0,0,.9,3.75c1.68,1.9,5,4.19,8.33.3a4.53,4.53,0,0,0,1-3l-.25-8.18a.52.52,0,0,0-.42-.5l3.56-43.14A19.09,19.09,0,0,1,183,208.24V311.92a.56.56,0,0,0-.41.51l-.46,8.05a3.62,3.62,0,0,0,1.39,3.08c1.79,1.36,5,2.86,8.1-.18a3.59,3.59,0,0,0,1-2.56v-8.26A.54.54,0,0,0,192,312V205.36a25.89,25.89,0,0,0-8.14-19,13.42,13.42,0,0,0,3.92-6.34l3.54-12.52h-1.14ZM23.55,208.24V312.93c-2.75,2.62-5.24,1.74-6.85.53V205.36a24.73,24.73,0,0,1,7.9-18.28,12.16,12.16,0,0,0,7.3,2.48H36A19.83,19.83,0,0,0,23.55,208.24ZM43.4,237.59a3.93,3.93,0,0,1-5.91.49l-3.61-46.27a16.67,16.67,0,0,1,5.79-2Zm128.53.26a3.83,3.83,0,0,1-5.31-.34l3.85-47.15a17.22,17.22,0,0,1,5.16,2.71Zm19-32.49V312.9a4.84,4.84,0,0,1-6.85-.26V208.24a19.83,19.83,0,0,0-12.42-18.68h4a12.15,12.15,0,0,0,7.32-2.5A24.71,24.71,0,0,1,190.92,205.36Z"/><path class="cls-3" d="M198.78,167H8.8c-4.56,0-6.43-6.2-2.72-9l42.76-32.33h109.9L201.5,158C205.21,160.79,203.34,167,198.78,167Z"/><line class="cls-4" x1="5.07" y1="159.13" x2="202.68" y2="159.13"/><polygon class="cls-5" points="27.75 152.85 76.15 152.85 82.55 123.14 47.21 122.88 27.75 152.85"/><polygon class="cls-5" points="25.73 154.22 74.13 154.22 80.53 124.52 45.19 124.26 25.73 154.22"/><polygon class="cls-5" points="24.35 151.44 72.75 151.44 79.15 121.73 43.81 121.47 24.35 151.44"/><path class="cls-6" d="M95.33,113.59c-6.22,0-11.27.46-11.27,1a19.17,19.17,0,0,0,.52,3.63c0,.09.23.19.55.28.31,5.8,1.06,19.33,1.37,19.93a1.58,1.58,0,0,0,.82.59,5.23,5.23,0,0,0,.14,1c.48,1,4.33,1.58,8.36,1.56,3.53,0,6.75-.83,7.27-1.56a4.3,4.3,0,0,0,.19-1.09,2,2,0,0,0,.77-.48c.43-.54,1.11-14.06,1.39-19.89.32-.12.52-.24.58-.38a20.69,20.69,0,0,0,.58-3.57C106.6,114.05,101.55,113.59,95.33,113.59Z"/><path class="cls-7" d="M95.33,113.59c-6.22,0-11.27.46-11.27,1a19.17,19.17,0,0,0,.52,3.63c0,.09.23.19.55.28a50.15,50.15,0,0,0,10.2.72c5,0,8.72-.21,10.11-.68.32-.12.52-.24.58-.38a20.69,20.69,0,0,0,.58-3.57C106.6,114.05,101.55,113.59,95.33,113.59Z"/><path class="cls-8" d="M95.33,113.59c-6.22,0-11.27.46-11.27,1,0,.25,1,.48,2.64.66,2.07.22,5.17.37,8.63.37a58.37,58.37,0,0,0,10.6-.68c.43-.11.67-.23.67-.35C106.6,114.05,101.55,113.59,95.33,113.59Z"/><path class="cls-9" d="M87.32,139.05a5.23,5.23,0,0,0,.14,1c.48,1,4.33,1.58,8.36,1.56,3.53,0,6.75-.83,7.27-1.56a4.3,4.3,0,0,0,.19-1.09A22.61,22.61,0,0,1,95.89,140C92.32,140,88.88,139.7,87.32,139.05Z"/><path class="cls-9" d="M96.82,123.56c-3.47,0-8.26-.53-8.26-.53l.44,11a35.92,35.92,0,0,0,7.62.68,27.1,27.1,0,0,0,7-.68l.58-11A65.58,65.58,0,0,1,96.82,123.56Z"/><path class="cls-10" d="M119.62,152.67l-.17.05c-3.53.9-6.58-.62-8.45-.34s-5.26,2.14-8.72,2.21-6.79-3.81-7.07-5.54a1.49,1.49,0,0,1,0-.21,11.75,11.75,0,0,1,.85-4.29l0,0c.2-.35,1.82-3.2,3.38-3.91a7.56,7.56,0,0,0,1.87-1.22c.46-.4.83-.79,1.31-1.14,1-.69,4-1.73,5.54-1.45s1.81-.76,4.09.28,4.5,1.66,6.1,3.39,4.15,2.29,4.84,4.71S123,151.68,119.62,152.67Z"/><path class="cls-11" d="M119.62,152.67l-.17.05c-3.53.9-6.58-.62-8.45-.34s-5.26,2.14-8.72,2.21-6.79-3.81-7.07-5.54a1.49,1.49,0,0,1,0-.21,14.62,14.62,0,0,1,.87-4.33,10.62,10.62,0,0,1,1.8-3.3,5.73,5.73,0,0,1,3.45-1.83c.41,0,.61,0,.4.15,0,0-3,3.13-2.89,3.49s1.15-.34,2.17-1.69a5.49,5.49,0,0,1,4.93-1.92,3.28,3.28,0,0,1,2.53,1.32l-3,3.13s-1.46,3-1.94,4.46-.61,3.49.24,4.21,4.69-1.57,5.89-1.93a2.75,2.75,0,0,1,2.65.72,7.15,7.15,0,0,0,4,1.09c1.08-.24.54-2.53.78-4.09a16.22,16.22,0,0,1,1.56-4A80.38,80.38,0,0,1,119.62,152.67Z"/><path class="cls-11" d="M108,141.57s1-1.39,2-1.52,1.39.2,2.64.76a6.82,6.82,0,0,0,2.91.62c.27-.07-2.08-.41-3.12-1a4,4,0,0,0-2.91-.69C108.58,140.05,108,141.57,108,141.57Z"/><path class="cls-11" d="M114.12,147a9.9,9.9,0,0,1-3.32-1.24c-1.53-1-3.47.06-4.51,1.24s-3,1.94-2.63,1.66,1.25-.9,2.56-2,2.57-1.94,3.81-1.6,1.32.83,2.15,1.25A11.63,11.63,0,0,0,114.12,147Z"/><path class="cls-11" d="M120.91,144.89s-2.08-1-2.77-.69-1.53,3.26-2.56,3.88a17.14,17.14,0,0,1-3.61,1.18,16.8,16.8,0,0,0,3.33-1.39c.69-.55,1.66-4,2.84-4.08A5.59,5.59,0,0,1,120.91,144.89Z"/><polygon class="cls-12" points="199.43 94.89 15.07 94.89 50.09 1.08 161.44 1.08 199.43 94.89"/><ellipse class="cls-13" cx="143.92" cy="118.51" rx="11.18" ry="3.92"/><path class="cls-14" d="M137.7,126c-1.16-1.83-2.91-4.24-2.91-4.24l2.59-1.16,2.88.46s-.5,2.67-.78,4.71Z"/><path class="cls-15" d="M139.32,126.92c-.15,1-.75.43-.95.11l-.67-1,1.78-.23C139.42,126.22,139.37,126.62,139.32,126.92Z"/><path class="cls-16" d="M128.63,87.17a1.07,1.07,0,0,0-1.14-.82h0a.84.84,0,0,0-.71,1.05l7.89,34a1.07,1.07,0,0,0,1.14.82h0a.84.84,0,0,0,.72-1Z"/><path class="cls-17" d="M130.49,86.94a1.07,1.07,0,0,0-1.14-.82h0a.84.84,0,0,0-.72,1l7.9,34a1.07,1.07,0,0,0,1.14.82h0a.84.84,0,0,0,.71-1Z"/><path class="cls-16" d="M132.34,86.71a1.07,1.07,0,0,0-1.14-.82h0a.83.83,0,0,0-.71,1l7.89,34a1.07,1.07,0,0,0,1.14.82h0a.84.84,0,0,0,.71-1Z"/><polygon class="cls-18" points="132.48 87.31 126.92 88 126.54 86.34 132.09 85.65 132.48 87.31"/><path class="cls-19" d="M132.1,85.65l-5.56.69-.4-1.72h0s0-.05,0-.08a2.32,2.32,0,0,1,2.24-2.69,3,3,0,0,1,3.32,2s0,.05,0,.08h0Z"/><path class="cls-20" d="M153.85,98.65l-8.16,30.56a1,1,0,0,1-1.16.66,4.11,4.11,0,0,1-2.46-2.13,4.24,4.24,0,0,1-.49-2.83l4.15-24.26c1.42-.08,3.17-1.36,5.14-3.45Z"/><path class="cls-21" d="M153.64,71.71a10.13,10.13,0,0,0-2.86,8.21,10.28,10.28,0,0,1,0,1.11l-.63,15.34a1.28,1.28,0,0,0,.45,1,5.88,5.88,0,0,0,2.86,1.24,1.34,1.34,0,0,0,1.52-.87,23.32,23.32,0,0,1,1.85-4,2.52,2.52,0,0,1,.94-.92l3.76-2.13a8.31,8.31,0,0,0,2.56-2.23,13.76,13.76,0,0,0,2.48-6.33,12.81,12.81,0,0,0,.19-2,11.88,11.88,0,0,0-2.53-7.75,7.32,7.32,0,0,0-3.78-2.48A6.69,6.69,0,0,0,153.64,71.71Zm3.16,1a4.21,4.21,0,0,1,1.81-.49,4.05,4.05,0,0,1,2.75,1c1.76,1.48,2.56,3.76,2.75,6.56a9.37,9.37,0,0,1-.23,2.69,10.07,10.07,0,0,1-3.4,5.64,6.27,6.27,0,0,1-1.68,1,3.72,3.72,0,0,1-3,.18l-.2-.1a3.89,3.89,0,0,1-2.11-3.47V81.8a7.45,7.45,0,0,1,.17-1.56l1.05-4.82A4,4,0,0,1,156.8,72.69Z"/><path class="cls-20" d="M147.85,98.37l1,1.8,2.86,2.61a1.26,1.26,0,0,1,.4,1.11l-3,21a6.72,6.72,0,0,1-1.89,3.81,3.47,3.47,0,0,1-3.26,1.16.9.9,0,0,1-.72-1l1.85-29.43Z"/><path class="cls-22" d="M133,89.3a8.34,8.34,0,0,0,5.4,5.8,9.21,9.21,0,0,1,2.37,1.18l.86.6a2.74,2.74,0,0,1,.88,1l.91,1.83a1.54,1.54,0,0,0,1.65.85,6,6,0,0,0,3.2-1.68,1.7,1.7,0,0,0,.46-1.66L148,94.66a4.26,4.26,0,0,1-.13-1.28L148,91.8a8.33,8.33,0,1,0-15-2.5ZM146.62,86a5.59,5.59,0,1,1-6.81-4A5.59,5.59,0,0,1,146.62,86Z"/><circle class="cls-23" cx="148.33" cy="104.82" r="1.79"/><path class="cls-24" d="M141.31,125.3a.25.25,0,0,1,0-.07L132.8,102.9l5.34-2,8.5,22.39a.4.4,0,0,1-.16.53,7.86,7.86,0,0,1-4.7,1.78A.39.39,0,0,1,141.31,125.3Z"/><rect class="cls-25" x="139.73" y="119.29" width="5.7" height="2.61" transform="translate(-33.54 58.5) rotate(-20.8)"/><rect class="cls-25" x="133.61" y="103.19" width="5.7" height="2.61" transform="translate(-28.22 55.28) rotate(-20.8)"/><path class="cls-25" d="M133.08,96.64l-.27,6.14s.05.1.09.08l5.14-2a.07.07,0,0,0,0-.12l-4.28-4.42Z"/><path class="cls-26" d="M140.68,126.28a.13.13,0,0,1,0-.06V102.33h5.7v24a.4.4,0,0,1-.34.44,7.87,7.87,0,0,1-5,0A.4.4,0,0,1,140.68,126.28Z"/><rect class="cls-27" x="140.69" y="121.04" width="5.7" height="2.61"/><rect class="cls-27" x="140.69" y="103.81" width="5.7" height="2.61"/><path class="cls-27" d="M143.17,96.57l-2.43,5.65a.07.07,0,0,0,0,.11h5.5s.07-.06.05-.11l-2.43-5.65Z"/><path class="cls-28" d="M142.88,134.86v-24h5.7v24a.39.39,0,0,1-.34.43,7.84,7.84,0,0,1-5,0C143,135.3,142.88,135.11,142.88,134.86Z"/><rect class="cls-29" x="142.88" y="129.62" width="5.7" height="2.61"/><rect class="cls-29" x="142.88" y="112.39" width="5.7" height="2.61"/><path class="cls-30" d="M145.36,105.15l-2.43,5.65s0,.11,0,.11h5.5a.08.08,0,0,0,.06-.11l-2.43-5.65Z"/><path class="cls-31" d="M139.92,130.3l0-.06-11.39-21,5-2.72,11.43,21.06a.39.39,0,0,1-.1.54,7.79,7.79,0,0,1-4.41,2.4A.4.4,0,0,1,139.92,130.3Z"/><rect class="cls-32" x="137.7" y="124.17" width="5.7" height="2.61" transform="translate(-42.83 82.24) rotate(-28.49)"/><rect class="cls-32" x="129.48" y="109.03" width="5.7" height="2.61" transform="translate(-36.6 76.49) rotate(-28.49)"/><path class="cls-32" d="M127.93,103l.55,6.12c0,.06.06.1.1.07l4.84-2.62a.07.07,0,0,0,0-.12l-4.83-3.81Z"/><path class="cls-14" d="M157.52,90.68c-1.17,1.83-2.92,4.24-2.92,4.24l2.6,1.16,2.88-.45s-.51-2.68-.78-4.72Z"/><path class="cls-15" d="M159.14,89.75c-.16-1-.76-.44-1-.12l-.66,1.05,1.78.23C159.24,90.44,159.18,90,159.14,89.75Z"/><path class="cls-16" d="M148.45,129.5a1.07,1.07,0,0,1-1.14.81h0a.83.83,0,0,1-.71-1.05l7.89-34a1.07,1.07,0,0,1,1.14-.82h0a.84.84,0,0,1,.71,1Z"/><path class="cls-17" d="M150.3,129.73a1.07,1.07,0,0,1-1.14.81h0a.83.83,0,0,1-.71-1l7.89-34a1.08,1.08,0,0,1,1.14-.82h0a.84.84,0,0,1,.71,1Z"/><path class="cls-16" d="M152.15,130a1.06,1.06,0,0,1-1.14.81h0a.83.83,0,0,1-.71-1l7.89-34a1.06,1.06,0,0,1,1.14-.81h0a.83.83,0,0,1,.71,1Z"/><polygon class="cls-18" points="152.29 129.36 146.74 128.66 146.35 130.32 151.91 131.01 152.29 129.36"/><path class="cls-19" d="M151.91,131l-5.56-.69-.4,1.73h0a.19.19,0,0,0,0,.07,2.32,2.32,0,0,0,2.23,2.7,3,3,0,0,0,3.32-2s0-.06,0-.08h0Z"/><ellipse class="cls-33" cx="143.92" cy="143.7" rx="11.18" ry="3.01"/><path class="cls-34" d="M132.73,119l3.21,24.6c2.76,2,13.08,2.32,15.73,0L155.1,119C151.79,123.44,136.09,123.69,132.73,119Z"/><polygon class="cls-35" points="138.92 146.68 140.2 148.43 145.92 144.23 144.7 142.56 142.58 139.68 140.05 136.22 134.33 140.42 136.92 143.96 138.92 146.68"/><polygon class="cls-36" points="133.88 140.75 139.6 136.55 142.14 140 144.25 142.89 145.48 144.56 139.75 148.75 138.47 147 133.88 140.75"/><polygon class="cls-37" points="136.59 144.47 142.31 140.28 143.66 142.12 144.79 143.66 145.44 144.54 139.72 148.74 139.04 147.81 136.59 144.47"/><polygon class="cls-38" points="142.37 140.23 142.77 139.94 144.13 141.79 145.27 143.33 145.93 144.23 145.53 144.52 144.84 143.58 142.37 140.23"/><path class="cls-39" d="M151.9,137.77a3.92,3.92,0,0,0,0,4.26,1.55,1.55,0,0,0,.28.29v5.75h-9.53v-5.89c0-.05.08-.09.12-.15a3.92,3.92,0,0,0,0-4.26l-.1-.12v-2.92h9.53v2.78A1.6,1.6,0,0,0,151.9,137.77Z"/><path class="cls-40" d="M151.16,137.77a3.47,3.47,0,0,0-.64,2.14,3.56,3.56,0,0,0,.61,2.12,1.59,1.59,0,0,0,.29.29v5.75h-8.79v-5.89c0-.05.08-.09.12-.15a3.92,3.92,0,0,0,0-4.26l-.1-.12v-2.92h8.79v2.78A1.6,1.6,0,0,0,151.16,137.77Z"/><rect class="cls-41" x="151.42" y="142.32" width="0.74" height="5.75"/><path class="cls-40" d="M152.16,142.32h-.74c-1.21-1-1.2-3.84,0-4.81h.74C151,138.48,151,141.35,152.16,142.32Z"/><rect class="cls-41" x="151.42" y="134.73" width="0.74" height="2.78"/><path class="cls-42" d="M151.16,137.77c-.89,1-.88,3.67.26,4.55v5.75h-9.54v-5.89a3.83,3.83,0,0,0,0-4.53v-2.92h9.54v2.78A1.6,1.6,0,0,0,151.16,137.77Z"/><path class="cls-43" d="M146.84,139.39c-2.35,0-1.55-3.19-1.68-4.66h3.36C148.38,136.21,149.19,139.34,146.84,139.39Z"/><line class="cls-44" x1="146.81" y1="134.74" x2="146.81" y2="139.39"/><path class="cls-45" d="M148.07,136.72a.34.34,0,0,1-.68,0A.34.34,0,0,1,148.07,136.72Z"/><line class="cls-46" x1="151.42" y1="137.51" x2="152.16" y2="137.51"/><line class="cls-46" x1="151.42" y1="142.32" x2="152.16" y2="142.32"/><path class="cls-47" d="M0,231.32H173.53a36.9,36.9,0,0,0,36.9-36.89V36.89A36.9,36.9,0,0,0,173.53,0H0"/></g></svg>