<svg xmlns="http://www.w3.org/2000/svg" xmlns:xlink="http://www.w3.org/1999/xlink" viewBox="0 0 183.73 191.02"><defs><style>.cls-1,.cls-21,.cls-23,.cls-29,.cls-36,.cls-67,.cls-68,.cls-69,.cls-71,.cls-78{fill:none;}.cls-2{fill:#39b54a;stroke:#009245;}.cls-10,.cls-11,.cls-12,.cls-13,.cls-14,.cls-15,.cls-16,.cls-17,.cls-18,.cls-19,.cls-2,.cls-20,.cls-21,.cls-22,.cls-23,.cls-24,.cls-25,.cls-26,.cls-27,.cls-28,.cls-29,.cls-30,.cls-31,.cls-32,.cls-33,.cls-34,.cls-35,.cls-36,.cls-37,.cls-38,.cls-4,.cls-40,.cls-41,.cls-42,.cls-43,.cls-44,.cls-46,.cls-47,.cls-48,.cls-49,.cls-50,.cls-51,.cls-52,.cls-53,.cls-54,.cls-55,.cls-56,.cls-58,.cls-59,.cls-60,.cls-61,.cls-63,.cls-64,.cls-67,.cls-73,.cls-74,.cls-75,.cls-76,.cls-79,.cls-8,.cls-80,.cls-81,.cls-9{stroke-miterlimit:10;}.cls-2,.cls-4{stroke-width:2.26px;}.cls-20,.cls-3,.cls-31,.cls-33,.cls-34,.cls-40,.cls-41,.cls-75,.cls-8{fill:#fff;}.cls-4{fill:red;stroke:#ed0018;}.cls-5{fill:#e5e5e5;}.cls-6{fill:#004f27;}.cls-32,.cls-46,.cls-7{fill:#441216;}.cls-10,.cls-11,.cls-12,.cls-13,.cls-14,.cls-15,.cls-16,.cls-17,.cls-18,.cls-19,.cls-20,.cls-21,.cls-22,.cls-23,.cls-24,.cls-25,.cls-26,.cls-27,.cls-28,.cls-29,.cls-30,.cls-31,.cls-32,.cls-33,.cls-34,.cls-35,.cls-36,.cls-37,.cls-38,.cls-41,.cls-42,.cls-43,.cls-44,.cls-46,.cls-47,.cls-48,.cls-49,.cls-50,.cls-51,.cls-52,.cls-53,.cls-54,.cls-55,.cls-56,.cls-58,.cls-59,.cls-60,.cls-61,.cls-63,.cls-64,.cls-67,.cls-71,.cls-73,.cls-74,.cls-75,.cls-76,.cls-78,.cls-79,.cls-8,.cls-80,.cls-81,.cls-9{stroke:#000;}.cls-36,.cls-8{stroke-width:0.73px;}.cls-47,.cls-9{fill:#ccc;}.cls-14,.cls-15,.cls-16,.cls-9{stroke-width:0.58px;}.cls-10,.cls-25,.cls-48,.cls-59{fill:#a4aeaf;}.cls-10{stroke-width:0.58px;}.cls-11,.cls-13,.cls-49,.cls-51{fill:#3d3d3d;}.cls-11,.cls-24,.cls-25,.cls-26,.cls-27,.cls-28,.cls-29,.cls-30,.cls-31,.cls-32{stroke-width:0.55px;}.cls-12,.cls-24,.cls-50,.cls-58{fill:#9caeae;}.cls-12,.cls-13{stroke-width:0.48px;}.cls-14,.cls-52{fill:#80644f;}.cls-15,.cls-53{fill:#b58148;}.cls-16,.cls-54{fill:#c39156;}.cls-17,.cls-55{fill:#a97746;}.cls-17{stroke-width:0.58px;}.cls-18,.cls-56{fill:#a27242;}.cls-18{stroke-width:0.57px;}.cls-19{fill:#82000a;}.cls-19,.cls-22{stroke-width:0.73px;}.cls-20,.cls-21{stroke-width:0.38px;}.cls-22,.cls-62{fill:#c1272d;}.cls-23,.cls-33,.cls-36,.cls-68,.cls-69,.cls-71,.cls-78{stroke-linecap:round;}.cls-23{stroke-width:1.28px;}.cls-26,.cls-60{fill:#9fafaf;}.cls-27,.cls-61{fill:#9cabae;}.cls-28,.cls-73{fill:#9e7549;}.cls-30,.cls-74{fill:#c18a51;}.cls-33{stroke-width:0.39px;}.cls-34{stroke-width:0.34px;}.cls-35{stroke-width:0.04px;}.cls-37{fill:#d85067;stroke-width:0.47px;}.cls-38{stroke-width:0.04px;}.cls-39{clip-path:url(#clip-path);}.cls-40{stroke:#fff;stroke-width:0.41px;}.cls-41,.cls-42,.cls-43,.cls-44{stroke-width:0.37px;}.cls-42,.cls-79{fill:#e35154;}.cls-43,.cls-80{fill:#873f4a;}.cls-44,.cls-81{fill:#b94244;}.cls-45{fill:#afaeac;}.cls-46{stroke-width:0.37px;}.cls-47,.cls-52,.cls-53,.cls-54{stroke-width:0.63px;}.cls-48{stroke-width:0.63px;}.cls-49,.cls-58,.cls-59,.cls-60,.cls-61,.cls-73,.cls-74,.cls-75{stroke-width:0.59px;}.cls-50,.cls-51{stroke-width:0.52px;}.cls-55{stroke-width:0.63px;}.cls-56{stroke-width:0.62px;}.cls-57{fill:#7f7f7f;}.cls-63{fill:#fffef3;}.cls-63,.cls-64{stroke-width:0.25px;}.cls-64{fill:#eae8d0;}.cls-65{fill:#9b151e;}.cls-66{fill:#bb2024;}.cls-67,.cls-69{stroke-width:0.36px;}.cls-68,.cls-69{stroke:#00040c;}.cls-68,.cls-69,.cls-71,.cls-78{stroke-linejoin:round;}.cls-68{stroke-width:0.95px;}.cls-70{fill:#00040c;}.cls-71{stroke-width:0.62px;}.cls-72{clip-path:url(#clip-path-2);}.cls-76{stroke-width:0.18px;}.cls-77{clip-path:url(#clip-path-3);}.cls-78{stroke-width:0.42px;}.cls-79,.cls-80,.cls-81{stroke-width:0.42px;}</style><clipPath id="clip-path" transform="translate(-4.16)"><rect class="cls-1" y="88.97" width="34.89" height="38.67"/></clipPath><clipPath id="clip-path-2" transform="translate(-4.16)"><path class="cls-1" d="M137.34,96.45a28,28,0,0,1,2.32,10.86l-6.93,6.74-12.65,7.47-7.29-1.22s-5.25-.52-5.36-2.73,1.14-13.12,1.14-13.12L113.51,92l9.39-.1Z"/></clipPath><clipPath id="clip-path-3" transform="translate(-4.16)"><path class="cls-1" d="M136.46,93.61a28,28,0,0,1,2.9,10.71l-6.57,7.1-12.24,8.13-7.34-.83s-5.27-.24-5.5-2.45.45-13.15.45-13.15l4.27-12.75,9.37-.6Z"/></clipPath></defs><title>paso3img1_1</title><g id="Layer_2" data-name="Layer 2"><g id="Ilustraciones"><circle class="cls-2" cx="47.07" cy="16.75" r="15.62"/><path class="cls-3" d="M60.36,10.58a2.33,2.33,0,0,0-3.31,0l-8,8L45.68,15.2a2.34,2.34,0,0,0-3.31,3.31l5,5a2.33,2.33,0,0,0,3.31,0l9.65-9.65A2.34,2.34,0,0,0,60.36,10.58Z" transform="translate(-4.16)"/><circle class="cls-4" cx="143.82" cy="17.27" r="15.62"/><path class="cls-3" d="M155.71,10.08a2.18,2.18,0,0,0-3.08,0L148,14.73l-4.65-4.65a2.18,2.18,0,0,0-3.08,3.08l4.65,4.65-4.65,4.65a2.18,2.18,0,0,0,0,3.08,2.22,2.22,0,0,0,1.54.64,2.18,2.18,0,0,0,1.54-.64L148,20.89l4.65,4.65a2.18,2.18,0,1,0,3.08-3.08l-4.65-4.65,4.65-4.65A2.18,2.18,0,0,0,155.71,10.08Z" transform="translate(-4.16)"/><path class="cls-5" d="M47.88,163.07a5.55,5.55,0,0,1-1.07-.11l-.21,0a40.94,40.94,0,0,0-5.69-.86,47,47,0,0,0-4.9.61,19.44,19.44,0,0,1-2.19.24,8.32,8.32,0,0,1-6.5-2.74A3.67,3.67,0,0,0,29,163.56c2.42,1.35,4.26,1.13,6.8.81a31,31,0,0,1,5.44-.31,26.44,26.44,0,0,1,3.46.45c2.45.44,4.39.79,6.71-.81a2.93,2.93,0,0,0,1.06-3.31A5.31,5.31,0,0,1,47.88,163.07Z" transform="translate(-4.16)"/><path class="cls-6" d="M49.5,150.94a10.09,10.09,0,0,1-1.54.42.35.35,0,0,1-.12-.68,8.11,8.11,0,0,0,1.55-.43l0,0c1.31-.52,2.12-1.29,2.12-2.11,0-1.49-2.67-2.76-5.83-2.76s-5.83,1.27-5.83,2.76c0,.76.71,1.48,1.86,2h0a9.1,9.1,0,0,0,2.51.66.34.34,0,0,1,0,.68h0a9.78,9.78,0,0,1-2.56-.65,7.17,7.17,0,0,0-2.49,2.67,7.16,7.16,0,0,1,1.59,2.38.34.34,0,0,1-.18.45.35.35,0,0,1-.45-.18,5.39,5.39,0,0,0-2.61-3h0a9,9,0,0,0-3.68-.77c-3.79,0-6.87,2.21-6.87,4.92a3.65,3.65,0,0,0,.43,1.72c1,1.91,3.59,3.2,6.44,3.2a19.33,19.33,0,0,0,2-.22h0a47.4,47.4,0,0,1,5-.61,39.56,39.56,0,0,1,5.81.87l.21,0a4.64,4.64,0,0,0,5.27-2.88v0a7,7,0,0,0,.44-2.49A7.15,7.15,0,0,0,49.5,150.94Z" transform="translate(-4.16)"/><path d="M50.24,150.62a3,3,0,0,0,2-2.5c0-1.93-2.87-3.44-6.52-3.44s-6.52,1.51-6.52,3.44A2.9,2.9,0,0,0,41,150.47,7.9,7.9,0,0,0,38.64,153a4.28,4.28,0,0,0-.86-.52,9.65,9.65,0,0,0-4-.82c-4.17,0-7.56,2.51-7.56,5.6a4.29,4.29,0,0,0,.45,1.91,5.37,5.37,0,0,0,0,1.65,4.18,4.18,0,0,0,2,3.3c2.62,1.46,4.65,1.21,7.22.89a30.79,30.79,0,0,1,5.32-.3,24.14,24.14,0,0,1,3.37.44,18.53,18.53,0,0,0,3.14.38,6.82,6.82,0,0,0,4.08-1.31,3.74,3.74,0,0,0,1.07-4.79,7.85,7.85,0,0,0-2.67-8.85Zm1.21,13.08c-2.32,1.6-4.26,1.25-6.71.81a26.44,26.44,0,0,0-3.46-.45,31,31,0,0,0-5.44.31c-2.54.32-4.38.54-6.8-.81a3.67,3.67,0,0,1-1.72-3.39,8.32,8.32,0,0,0,6.5,2.74,19.44,19.44,0,0,0,2.19-.24,47,47,0,0,1,4.9-.61,40.94,40.94,0,0,1,5.69.86l.21,0a5.55,5.55,0,0,0,1.07.11,5.31,5.31,0,0,0,4.63-2.68A2.93,2.93,0,0,1,51.45,163.7Zm.77-4.33v0a4.64,4.64,0,0,1-5.27,2.88l-.21,0a39.56,39.56,0,0,0-5.81-.87,47.4,47.4,0,0,0-5,.61h0a19.33,19.33,0,0,1-2,.22c-2.85,0-5.44-1.29-6.44-3.2A3.65,3.65,0,0,1,27,157.3c0-2.71,3.08-4.92,6.87-4.92a9,9,0,0,1,3.68.77h0a5.39,5.39,0,0,1,2.61,3,.35.35,0,0,0,.45.18.34.34,0,0,0,.18-.45,7.16,7.16,0,0,0-1.59-2.38,7.17,7.17,0,0,1,2.49-2.67,9.78,9.78,0,0,0,2.56.65h0a.34.34,0,0,0,0-.68,9.1,9.1,0,0,1-2.51-.66h0c-1.15-.52-1.86-1.24-1.86-2,0-1.49,2.67-2.76,5.83-2.76s5.83,1.27,5.83,2.76c0,.82-.81,1.59-2.12,2.11l0,0a8.11,8.11,0,0,1-1.55.43.35.35,0,0,0,.12.68,10.09,10.09,0,0,0,1.54-.42,7.15,7.15,0,0,1,3.16,5.94A7,7,0,0,1,52.22,159.37Z" transform="translate(-4.16)"/><path class="cls-7" d="M45.84,149.75a2.59,2.59,0,0,1-2.57-2.18c-1.91-11.75,3.38-23.9,3.6-24.41a2.62,2.62,0,0,1,2.39-1.55,2.57,2.57,0,0,1,1.05.22,2.61,2.61,0,0,1,1.37,1.44,2.57,2.57,0,0,1,0,2c0,.11-4.88,11.3-3.23,21.46a2.59,2.59,0,0,1-2.15,3A3,3,0,0,1,45.84,149.75Z" transform="translate(-4.16)"/><path d="M49.26,122.24a2,2,0,0,1,.79.17,2,2,0,0,1,1,2.6c-.08.18-5,11.46-3.27,21.82a2,2,0,0,1-1.63,2.27l-.32,0a2,2,0,0,1-1.94-1.65c-1.88-11.57,3.33-23.55,3.55-24a2,2,0,0,1,1.81-1.18m0-1.26h0a3.24,3.24,0,0,0-3,1.93c-.22.51-5.58,12.83-3.64,24.76a3.23,3.23,0,0,0,3.19,2.72,3.05,3.05,0,0,0,.52,0,3.19,3.19,0,0,0,2.11-1.3,3.23,3.23,0,0,0,.57-2.41c-1.62-10,3.13-21,3.18-21.11a3.16,3.16,0,0,0,.05-2.47,3.21,3.21,0,0,0-3-2.07Z" transform="translate(-4.16)"/><path class="cls-8" d="M43.32,143.7H48a.29.29,0,0,1,.29.29v3.91a1.77,1.77,0,0,1-1.77,1.77H44.8A1.77,1.77,0,0,1,43,147.91V144a.29.29,0,0,1,.29-.29Z" transform="translate(-13.06 3.07) rotate(-3.51)"/><path d="M71.8,158.27l-.41-2.43A7.39,7.39,0,0,0,69,150.47a2.93,2.93,0,0,0,1-2.12c0-2.19-2.89-3.9-6.58-3.9s-6.58,1.71-6.58,3.9a2.75,2.75,0,0,0,.77,1.86A7.65,7.65,0,0,0,55.47,153a12.65,12.65,0,0,0-4.58.06,9.67,9.67,0,0,0-3.47,1.43,7.2,7.2,0,0,0-3.29,6.65s0,.12,0,.29l-.05,3.46a.37.37,0,0,0,0,.11,5.1,5.1,0,0,0,2.11,2.69,11.3,11.3,0,0,0,6.54,1.68,23.82,23.82,0,0,0,3.45-.26c.4,0,3.67-.16,8.55-4,.29-.13,1.8-.79,3.14-1.28a6,6,0,0,0,3.88-5.58ZM51,153.93c6.32-1.16,9.1,2.57,9.22,2.73a.43.43,0,0,0,.59.1.42.42,0,0,0,.1-.59,8.64,8.64,0,0,0-4.63-2.93,6.72,6.72,0,0,1,1.93-2.45,8,8,0,0,0,3.88,1.38h0a.43.43,0,0,0,.42-.38.43.43,0,0,0-.37-.47c-2.59-.3-4.55-1.58-4.55-3,0-1.65,2.63-3,5.74-3s5.73,1.4,5.73,3c0,1-1,2-2.66,2.56a.43.43,0,0,0-.26.54.42.42,0,0,0,.54.26,6.61,6.61,0,0,0,1.51-.72,6.57,6.57,0,0,1,2.27,4.89,6.45,6.45,0,0,1-.48,2.42l-.24.51c-.83,1.81-4.06,3-5.42,3.44a7.21,7.21,0,0,0-1.82.91,17.59,17.59,0,0,1-7.32,2.53c-3.93.38-6.83-.2-8.63-1.71A4.76,4.76,0,0,1,45,161.37a.06.06,0,0,0,0,0,1.25,1.25,0,0,1,0-.2C44.72,155.07,50.77,154,51,153.93Zm16.59,9.19c-1.5.56-3.22,1.31-3.24,1.32l-.09.05c-4.87,3.8-8.07,3.82-8.09,3.82h-.07c-5.16.72-7.94-.27-9.35-1.24A4.5,4.5,0,0,1,45,164.88l0-1.47a6.16,6.16,0,0,0,1.08,1.2c1.6,1.36,3.94,2,7,2,.73,0,1.49,0,2.3-.12a17.87,17.87,0,0,0,7.72-2.67,6.65,6.65,0,0,1,1.6-.8c1.82-.58,5-1.86,5.93-3.89l.24-.52v0l.1-.27v0A5.09,5.09,0,0,1,67.63,163.12Z" transform="translate(-4.16)"/><path class="cls-3" d="M71,158.38a5.09,5.09,0,0,1-3.32,4.74c-1.5.56-3.22,1.31-3.24,1.32l-.09.05c-4.87,3.8-8.07,3.82-8.09,3.82h-.07c-5.16.72-7.94-.27-9.35-1.24A4.5,4.5,0,0,1,45,164.88l0-1.47a6.16,6.16,0,0,0,1.08,1.2c1.6,1.36,3.94,2,7,2,.73,0,1.49,0,2.3-.12a17.87,17.87,0,0,0,7.72-2.67,6.65,6.65,0,0,1,1.6-.8c1.82-.58,5-1.86,5.93-3.89l.24-.52v0l.1-.27Z" transform="translate(-4.16)"/><path class="cls-6" d="M70.55,155.88a6.45,6.45,0,0,1-.48,2.42l-.24.51c-.83,1.81-4.06,3-5.42,3.44a7.21,7.21,0,0,0-1.82.91,17.59,17.59,0,0,1-7.32,2.53c-3.93.38-6.83-.2-8.63-1.71A4.76,4.76,0,0,1,45,161.37a.06.06,0,0,0,0,0,1.25,1.25,0,0,1,0-.2c-.26-6.06,5.79-7.15,6.06-7.2,6.32-1.16,9.1,2.57,9.22,2.73a.43.43,0,0,0,.59.1.42.42,0,0,0,.1-.59,8.64,8.64,0,0,0-4.63-2.93,6.72,6.72,0,0,1,1.93-2.45,8,8,0,0,0,3.88,1.38h0a.43.43,0,0,0,.42-.38.43.43,0,0,0-.37-.47c-2.59-.3-4.55-1.58-4.55-3,0-1.65,2.63-3,5.74-3s5.73,1.4,5.73,3c0,1-1,2-2.66,2.56a.43.43,0,0,0-.26.54.42.42,0,0,0,.54.26,6.61,6.61,0,0,0,1.51-.72A6.57,6.57,0,0,1,70.55,155.88Z" transform="translate(-4.16)"/><path class="cls-7" d="M63.67,149.18A2.58,2.58,0,0,1,61.1,147c-1.91-11.75,3.37-23.89,3.6-24.41A2.6,2.6,0,0,1,67.08,121a2.67,2.67,0,0,1,1,.22,2.61,2.61,0,0,1,1.33,3.44c0,.11-4.87,11.31-3.22,21.46a2.61,2.61,0,0,1-2.15,3A2.06,2.06,0,0,1,63.67,149.18Z" transform="translate(-4.16)"/><path d="M67.08,121.66a2.05,2.05,0,0,1,.8.17,2,2,0,0,1,1,2.6c-.07.18-4.95,11.46-3.27,21.83A2,2,0,0,1,64,148.52a1.62,1.62,0,0,1-.31,0,2,2,0,0,1-2-1.65c-1.88-11.57,3.33-23.55,3.56-24a2,2,0,0,1,1.8-1.18m0-1.26a3.24,3.24,0,0,0-3,1.93c-.23.52-5.59,12.83-3.65,24.76a3.23,3.23,0,0,0,3.2,2.72,3.12,3.12,0,0,0,.52,0,3.24,3.24,0,0,0,2.67-3.72c-1.62-10,3.13-21,3.18-21.11a3.23,3.23,0,0,0-1.65-4.26,3.15,3.15,0,0,0-1.31-.28Z" transform="translate(-4.16)"/><path class="cls-8" d="M61.15,143.13h4.66a.29.29,0,0,1,.29.29v3.91a1.77,1.77,0,0,1-1.77,1.77h-1.7a1.77,1.77,0,0,1-1.77-1.77v-3.91A.29.29,0,0,1,61.15,143.13Z" transform="translate(-12.99 4.16) rotate(-3.51)"/><polygon class="cls-9" points="77.99 120.31 78.86 101.38 81.39 101.38 81 120.31 77.99 120.31"/><polygon class="cls-9" points="55.41 116.62 56.28 97.69 58.8 97.69 58.41 116.62 55.41 116.62"/><path class="cls-10" d="M67.24,133l-1.38,0c-.51,0-1,0-1.53.05l-.3,0-1,29c1.23,1.43,2.52,1.5,3.88,0L67.69,133Z" transform="translate(-4.16)"/><path class="cls-11" d="M67,162.09l.41,4.94a3.94,3.94,0,0,1-4.91,0l.63-5.07A2.89,2.89,0,0,0,67,162.09Z" transform="translate(-4.16)"/><path class="cls-12" d="M81.51,125.86l2.85,24.79c1,.71,2,.81,2.84-.35l-3.33-25.58A17.09,17.09,0,0,0,81.51,125.86Z" transform="translate(-4.16)"/><path class="cls-13" d="M84.3,150.17l.08,4.28c1.37,1.82,2.61,1.36,3.79-.23l-1.07-4.69A1.77,1.77,0,0,1,84.3,150.17Z" transform="translate(-4.16)"/><path class="cls-14" d="M87.73,100.7l.72-14.24a2.64,2.64,0,0,0-2-2.73L63.28,78.35a2.6,2.6,0,0,0-3.16,2.43l-.87,13.73a2.66,2.66,0,0,0,2,2.76l23.3,5.87a2.76,2.76,0,0,0,.8.08A2.63,2.63,0,0,0,87.73,100.7Z" transform="translate(-4.16)"/><path class="cls-15" d="M85.69,102.05l.73-14.23a2.65,2.65,0,0,0-2-2.73L61.24,79.71a2.6,2.6,0,0,0-3.16,2.42l-.86,13.74a2.65,2.65,0,0,0,2,2.75l23.3,5.88a2.36,2.36,0,0,0,.79.07A2.62,2.62,0,0,0,85.69,102.05Z" transform="translate(-4.16)"/><path class="cls-16" d="M83.73,119.8l-31.55-8.32a2,2,0,0,0-1.23.06l-15.94,6a1.36,1.36,0,0,0,0,2.64l30.11,10.58a2,2,0,0,0,1.52-.08l17.39-8.26A1.36,1.36,0,0,0,83.73,119.8Z" transform="translate(-4.16)"/><polygon class="cls-17" points="80.78 121.75 80.78 125.17 62.3 134.85 62.52 130.9 80.78 121.75"/><polygon class="cls-18" points="29.4 123.78 29.88 120.18 61.74 130.69 61.74 134.83 29.4 123.78"/><rect class="cls-19" x="37.04" y="62.13" width="44.82" height="60.87"/><rect class="cls-20" x="68.51" y="62.05" width="12.28" height="60.87"/><line class="cls-21" x1="70.63" y1="62.14" x2="70.63" y2="123"/><line class="cls-21" x1="72.75" y1="62.05" x2="72.75" y2="123.07"/><line class="cls-21" x1="74.88" y1="62.05" x2="74.88" y2="123.07"/><line class="cls-21" x1="77" y1="62.16" x2="77" y2="123.01"/><line class="cls-21" x1="79.12" y1="62.16" x2="79.12" y2="123.01"/><rect class="cls-22" x="30.99" y="62.2" width="44.82" height="60.87"/><path class="cls-23" d="M37.89,66.83s-11.55,0-3.25,3.69" transform="translate(-4.16)"/><path class="cls-23" d="M37.89,78.81s-11.55,0-3.25,3.69" transform="translate(-4.16)"/><path class="cls-23" d="M37.89,90.79s-11.55,0-3.25,3.69" transform="translate(-4.16)"/><path class="cls-23" d="M37.89,102.77s-11.55,0-3.25,3.69" transform="translate(-4.16)"/><path class="cls-23" d="M37.89,114.75s-11.55,0-3.25,3.69" transform="translate(-4.16)"/><path class="cls-24" d="M71,136.39l.7.5a2.61,2.61,0,0,1,1,1.72l4.47,30.23c1.34.71,2.59.81,3.67-.34L75.8,138a5,5,0,0,0-1-2.32l-1.12-1.39Z" transform="translate(-4.16)"/><path class="cls-11" d="M77.17,168.36l.1,4.29c1.76,1.82,3.36,1.36,4.88-.23l-1.37-4.69A2.63,2.63,0,0,1,77.17,168.36Z" transform="translate(-4.16)"/><path class="cls-25" d="M42.93,147.38l1,1.86a9.81,9.81,0,0,1,1,4.11l.9,30.34c1.36,1.33,2.64,1.27,3.88,0L48.5,151.94a6.94,6.94,0,0,0-.38-2l-1.18-3.45Z" transform="translate(-4.16)"/><path class="cls-11" d="M45.76,183.58l-.41,4.93a3.94,3.94,0,0,0,4.91,0l-.63-5.07A2.9,2.9,0,0,1,45.76,183.58Z" transform="translate(-4.16)"/><path class="cls-26" d="M11.52,135l-1,1.93a3.85,3.85,0,0,0-.41,1.48l-2,29.25,0,.34a2.52,2.52,0,0,0,3.39,0L13,139a4,4,0,0,1,.19-1.08l.59-2Z" transform="translate(-4.16)"/><path class="cls-11" d="M7.54,171.64a3.27,3.27,0,0,0,4.51,0l-.51-4.58a2.41,2.41,0,0,1-3.39.19Z" transform="translate(-4.16)"/><path class="cls-27" d="M7.66,126.3l1.66,6.64a3.64,3.64,0,0,0,2.24,2.51l34.33,13a5.32,5.32,0,0,0,4.41-.29l23-12.36a3.94,3.94,0,0,0,2.07-3.31l.21-5.73-27.7,13Z" transform="translate(-4.16)"/><path class="cls-28" d="M4.43,122v1.41a2.51,2.51,0,0,0,1.62,2.33l39.74,14.87a5.38,5.38,0,0,0,4.42-.3L76,126.51a2.45,2.45,0,0,0,1.28-2.41l-.11-1L48,138Z" transform="translate(-4.16)"/><line class="cls-29" x1="54.28" y1="108.01" x2="54.28" y2="108.01"/><path class="cls-30" d="M77.12,123l-26.37,14.2a7.4,7.4,0,0,1-6.22.38L5,122a.92.92,0,0,1,0-1.69l26.82-12.09a5.26,5.26,0,0,1,3.82-.19L77,122A.54.54,0,0,1,77.12,123Z" transform="translate(-4.16)"/><polygon class="cls-31" points="14.44 127.69 39.12 132.22 56.85 116.34 33.88 111.92 14.44 127.69"/><path class="cls-32" d="M80.27,98.24a14.31,14.31,0,0,1-.41,3.59,19.46,19.46,0,0,1-8.43,11.84c-4.15,2.68-6.5,3-8.51,3a1.26,1.26,0,0,0-1.2,1.8l2,4.22a1.22,1.22,0,0,0,1.36.66C76.55,120.79,85.67,115,86.53,97.5a3,3,0,0,0-5-2.35l0,0A4.16,4.16,0,0,0,80.27,98.24Z" transform="translate(-4.16)"/><polygon class="cls-3" points="46.83 120.27 47 121.81 54.28 124.52 59.36 120.31 57.97 118.46 55.38 117.71 52.16 116.75 49.42 116.81 46.83 120.27"/><path class="cls-33" d="M60.09,117c1.12-1,2.44-1,4.22,1.13a5.74,5.74,0,0,1,.88,1.39,4,4,0,0,1,.22,3,2.91,2.91,0,0,1-2.85,1.91l-.57,0" transform="translate(-4.16)"/><path class="cls-33" d="M61.82,118.63c-1.1-1.58-3.44-2.09-6-2.38a3.77,3.77,0,0,1-.81-.17,7.26,7.26,0,0,0-2.35-.47,2.12,2.12,0,0,0-2.17,2.21,3.54,3.54,0,0,0,.26,1" transform="translate(-4.16)"/><path class="cls-33" d="M55.22,117.7c-5.51.22-7.74,2.07-8.78,4.51a1.79,1.79,0,0,0,1,2.39,4.59,4.59,0,0,0,.56.18" transform="translate(-4.16)"/><path class="cls-33" d="M53.9,120.58c-4.83,1.21-6.44,3.2-6.55,5.56a1.39,1.39,0,0,0,1,1.42l.13,0a2.28,2.28,0,0,0,2.1-.68,15.39,15.39,0,0,1,5.18-3.26c-2,1-3.68,2.36-4,4.88a1.5,1.5,0,0,0,1,1.64l.16,0a1.67,1.67,0,0,0,1.59-.61l2.43-2.91c4.26,1.15,6-1.13,6.46-5.16" transform="translate(-4.16)"/><ellipse class="cls-34" cx="44.62" cy="88.77" rx="4.62" ry="6.84"/><ellipse class="cls-35" cx="44.62" cy="92.09" rx="2.38" ry="3.52"/><circle class="cls-3" cx="45.53" cy="90.39" r="0.91"/><ellipse class="cls-34" cx="57.79" cy="88.57" rx="4.62" ry="6.84"/><ellipse class="cls-35" cx="57.04" cy="91.3" rx="2.38" ry="3.52"/><circle class="cls-3" cx="57.96" cy="89.68" r="0.91"/><path class="cls-36" d="M44.94,79.27s2.67-2.78,5.25,0" transform="translate(-4.16)"/><path class="cls-36" d="M59.9,78.19s2.67-2.78,5.25,0" transform="translate(-4.16)"/><path class="cls-37" d="M64,98.38a1.72,1.72,0,0,1,1.56.46,1.7,1.7,0,0,1,0,2.41,13.81,13.81,0,0,1-14.69,3.13,1.7,1.7,0,1,1,1.22-3.18A10.42,10.42,0,0,0,63.2,98.84,1.71,1.71,0,0,1,64,98.38Z" transform="translate(-4.16)"/><path class="cls-38" d="M51.4,102.23a.54.54,0,0,1,.33,0A11.54,11.54,0,0,0,64,99.64a.57.57,0,0,1,.8,0,.56.56,0,0,1,0,.81,12.66,12.66,0,0,1-13.48,2.87.57.57,0,0,1-.33-.74A.58.58,0,0,1,51.4,102.23Z" transform="translate(-4.16)"/><g class="cls-39"><path class="cls-32" d="M19.38,119.67a2.84,2.84,0,0,1-.91-5.54c14.28-4.79,17.2-22.57,17.23-22.75a2.84,2.84,0,0,1,5.62.86c-.13.87-3.43,21.38-21,27.28A2.83,2.83,0,0,1,19.38,119.67Z" transform="translate(-4.16)"/><ellipse class="cls-40" cx="11.62" cy="118.16" rx="3.12" ry="3.61"/><path class="cls-41" d="M9.2,119a2.88,2.88,0,0,0-.84,3,3.64,3.64,0,0,0,3.41,2.88,1.43,1.43,0,0,0,1.51-1.08c.48-1.87-.9-2.71-2.84-3.22" transform="translate(-4.16)"/><path class="cls-41" d="M8.94,116.26a2.9,2.9,0,0,0-.83,3,3.62,3.62,0,0,0,3.4,2.89A1.46,1.46,0,0,0,13,121.06c.47-1.87-.9-2.7-2.84-3.22" transform="translate(-4.16)"/><path class="cls-41" d="M17.06,112.47c1.93-.12,3.63.6,4.6,3.79.66,3.73-1,4.34-2.68,4.93" transform="translate(-4.16)"/><path class="cls-41" d="M13.38,124.37c3.2-.8,6.54-1.42,6.06-6.81" transform="translate(-4.16)"/><path class="cls-41" d="M19,115.19c-.14-2.79-6.33-4.88-10-1.62a2.9,2.9,0,0,0-.83,3,3.64,3.64,0,0,0,3.4,2.89A1.46,1.46,0,0,0,13,118.37c.47-1.87-.9-2.7-2.84-3.22,1.4-1.19,2.92-2.07,5.15-.93-1.82,2-1.67,3.61-.74,5a1.65,1.65,0,0,0,2.5.28c1-.94,1-2.25,0-3.94" transform="translate(-4.16)"/><path class="cls-42" d="M12.32,105.2a.06.06,0,0,1,0,0l4.1,15.66-3.74,1-4.11-15.7a.28.28,0,0,1,.15-.35A5.3,5.3,0,0,1,12,105,.27.27,0,0,1,12.32,105.2Z" transform="translate(-4.16)"/><rect class="cls-43" x="9.19" y="107.39" width="3.87" height="1.77" transform="translate(-31.23 6.35) rotate(-14.68)"/><rect class="cls-43" x="12.15" y="118.69" width="3.87" height="1.77" transform="translate(-33.99 7.47) rotate(-14.68)"/><path class="cls-44" d="M15.8,125.11l.62-4.12s0-.08-.05-.07l-3.61,1s0,0,0,.08l2.57,3.28Z" transform="translate(-4.16)"/><path class="cls-41" d="M10,115c.12-.1.24-.2.37-.29-.21-.69-.25-1.41-.44-2.1a7,7,0,0,0-1.17.81,2.89,2.89,0,0,0-.84,3,3.64,3.64,0,0,0,3.41,2.89,1.44,1.44,0,0,0,1.51-1.09C13.33,116.33,12,115.5,10,115Z" transform="translate(-4.16)"/><path class="cls-41" d="M14.82,113.82a5.25,5.25,0,0,1,.55.25c-1.83,2-1.67,3.61-.74,5a1.65,1.65,0,0,0,2.5.28c1-.94,1-2.25,0-3.94" transform="translate(-4.16)"/></g><path class="cls-3" d="M172.69,150.32c0,.35,0,.69,0,1,.22.18.44.36.64.56,0-.29,0-.58-.06-.85a13,13,0,0,0-.67-3c.07.68.11,1.38.12,2.08Z" transform="translate(-4.16)"/><path class="cls-6" d="M160.15,151a10.92,10.92,0,0,1,6.3-1.84,10.08,10.08,0,0,1,5.49,1.65c0-.17,0-.34,0-.51v-.14a20.05,20.05,0,0,0-.51-4.38,16,16,0,0,0-.62-2,6.53,6.53,0,0,1-4.49,2h0a.36.36,0,0,1-.35-.33.35.35,0,0,1,.33-.38,5.55,5.55,0,0,0,4.29-2.17.39.39,0,0,1,.08-.14,2.53,2.53,0,0,0,.35-1.27c0-2-2.36-3.6-5.28-3.6s-5.28,1.61-5.28,3.6a2.8,2.8,0,0,0,.73,1.8.27.27,0,0,1,.08.1,5.7,5.7,0,0,0,3.23,1.6.34.34,0,0,1,.29.41.35.35,0,0,1-.4.29,6.66,6.66,0,0,1-3.28-1.46c-.13.39-.26.8-.36,1.22a19.35,19.35,0,0,0-.59,4.82v.15C160.14,150.65,160.15,150.84,160.15,151Z" transform="translate(-4.16)"/><path class="cls-6" d="M173.29,153a8.45,8.45,0,0,0-1.23-1.15h0a9.31,9.31,0,0,0-5.61-1.9,9.87,9.87,0,0,0-6.39,2.11,6.37,6.37,0,0,0-1.41,1.63,5.18,5.18,0,0,0-.69,2.07c0,.06,0,.11,0,.17a5.45,5.45,0,0,0,1.76,1.88,10,10,0,0,0,2.5,1.19,13.62,13.62,0,0,0,4.09.61c3.83,0,7.23-1.52,8.36-3.7a5.18,5.18,0,0,0-1.29-2.81Z" transform="translate(-4.16)"/><path class="cls-45" d="M166.3,160.26a14.38,14.38,0,0,1-4.3-.65,9.87,9.87,0,0,1-2.67-1.28,6.53,6.53,0,0,1-1.32-1.16c.32,1.86,1.72,3.17,4.13,3.82l.08,0a16.35,16.35,0,0,0,3.61.46h.62c4.76,0,7.53-1.46,8.11-4.25C172.94,159.07,169.82,160.26,166.3,160.26Z" transform="translate(-4.16)"/><path d="M174,152.7l0,0v-.21a11.8,11.8,0,0,0-.08-1.48,12.55,12.55,0,0,0-1.77-5.36h0a15.56,15.56,0,0,0-.84-2.55,3.32,3.32,0,0,0,.39-1.54c0-2.38-2.68-4.31-6-4.31s-6,1.93-6,4.31a3.42,3.42,0,0,0,.78,2.14,15.72,15.72,0,0,0-.51,1.64,12.71,12.71,0,0,0-2,6.34h0c0,.25,0,.51,0,.8s0,.6,0,.88a5.76,5.76,0,0,0-.75,2.32,1.64,1.64,0,0,0,0,.23c-.18,2.84,1.47,4.89,4.65,5.78l.09,0a16.57,16.57,0,0,0,3.86.51h.64c7.68,0,8.91-3.75,9-6h0c0-.14,0-.25,0-.35A5.85,5.85,0,0,0,174,152.7Zm-.79-1.64c0,.27,0,.56.06.85-.2-.2-.42-.38-.64-.56,0-.34,0-.68,0-1v-.15c0-.7-.05-1.4-.12-2.08A13,13,0,0,1,173.24,151.06Zm-12.51-5.56c.1-.42.23-.83.36-1.22a6.66,6.66,0,0,0,3.28,1.46.35.35,0,0,0,.4-.29.34.34,0,0,0-.29-.41,5.7,5.7,0,0,1-3.23-1.6.27.27,0,0,0-.08-.1,2.8,2.8,0,0,1-.73-1.8c0-2,2.37-3.6,5.28-3.6s5.28,1.61,5.28,3.6a2.53,2.53,0,0,1-.35,1.27.39.39,0,0,0-.08.14,5.55,5.55,0,0,1-4.29,2.17.35.35,0,0,0-.33.38.36.36,0,0,0,.35.33h0a6.53,6.53,0,0,0,4.49-2,16,16,0,0,1,.62,2,20.05,20.05,0,0,1,.51,4.38v.14c0,.17,0,.34,0,.51a10.08,10.08,0,0,0-5.49-1.65,10.92,10.92,0,0,0-6.3,1.84c0-.18,0-.37,0-.55v-.15A19.35,19.35,0,0,1,160.73,145.5Zm-2.06,6.21v0a12.71,12.71,0,0,1,.9-4.07,21.74,21.74,0,0,0-.17,2.7v.16c0,.36,0,.73,0,1.1a8.58,8.58,0,0,0-.79.81C158.65,152.15,158.66,151.92,158.67,151.71Zm7.78,9.76h-.62a16.35,16.35,0,0,1-3.61-.46l-.08,0c-2.41-.65-3.81-2-4.13-3.82a6.53,6.53,0,0,0,1.32,1.16,9.87,9.87,0,0,0,2.67,1.28,14.38,14.38,0,0,0,4.3.65c3.52,0,6.64-1.19,8.26-3C174,160,171.21,161.47,166.45,161.47Zm-.15-1.89a13.62,13.62,0,0,1-4.09-.61,10,10,0,0,1-2.5-1.19A5.45,5.45,0,0,1,158,155.9c0-.06,0-.11,0-.17a5.18,5.18,0,0,1,.69-2.07,6.37,6.37,0,0,1,1.41-1.63,9.87,9.87,0,0,1,6.39-2.11,9.31,9.31,0,0,1,5.61,1.9h0a8.45,8.45,0,0,1,1.23,1.15l.08.1a5.18,5.18,0,0,1,1.29,2.81C173.53,158.06,170.13,159.58,166.3,159.58Z" transform="translate(-4.16)"/><path class="cls-46" d="M165.92,141.38a2.13,2.13,0,0,1-2.13-2.13V120.56a2.13,2.13,0,0,1,4.26,0v18.69A2.13,2.13,0,0,1,165.92,141.38Z" transform="translate(-4.16)"/><polygon class="cls-47" points="176.59 116.27 177.54 95.78 180.27 95.78 179.85 116.27 176.59 116.27"/><polygon class="cls-47" points="152.15 112.28 153.1 91.79 155.83 91.79 155.41 112.28 152.15 112.28"/><path class="cls-48" d="M164.62,130l-1.5,0a15.15,15.15,0,0,0-1.65,0l-.33,0-1.06,31.38c1.34,1.54,2.73,1.61,4.2,0l.83-31.48A4,4,0,0,1,164.62,130Z" transform="translate(-4.16)"/><path class="cls-49" d="M164.35,161.49l.45,5.34a4.27,4.27,0,0,1-5.31,0l.68-5.49A3.13,3.13,0,0,0,164.35,161.49Z" transform="translate(-4.16)"/><path class="cls-50" d="M180.06,122.27l3.08,26.83c1.12.77,2.18.88,3.08-.37l-3.6-27.68A17.69,17.69,0,0,0,180.06,122.27Z" transform="translate(-4.16)"/><path class="cls-51" d="M183.08,148.58l.08,4.64c1.48,2,2.83,1.47,4.11-.25l-1.16-5.07A1.92,1.92,0,0,1,183.08,148.58Z" transform="translate(-4.16)"/><path class="cls-52" d="M186.79,95.05l.78-15.4a2.87,2.87,0,0,0-2.18-3l-25.06-5.82a2.81,2.81,0,0,0-3.42,2.62L156,88.35a2.87,2.87,0,0,0,2.13,3l25.21,6.36a2.54,2.54,0,0,0,.86.08A2.83,2.83,0,0,0,186.79,95.05Z" transform="translate(-4.16)"/><path class="cls-53" d="M184.59,96.52l.78-15.4a2.87,2.87,0,0,0-2.19-3l-25.06-5.82A2.82,2.82,0,0,0,154.7,75l-.93,14.86a2.87,2.87,0,0,0,2.13,3l25.22,6.36a2.48,2.48,0,0,0,.85.08A2.84,2.84,0,0,0,184.59,96.52Z" transform="translate(-4.16)"/><path class="cls-54" d="M182.46,115.72l-34.14-9a2.24,2.24,0,0,0-1.33.07l-17.25,6.49a1.47,1.47,0,0,0,0,2.86l32.57,11.45a2.19,2.19,0,0,0,1.65-.08l18.82-8.94A1.48,1.48,0,0,0,182.46,115.72Z" transform="translate(-4.16)"/><polygon class="cls-55" points="179.61 117.82 179.61 121.53 159.61 132.01 159.85 127.72 179.61 117.82"/><polygon class="cls-56" points="124.01 120.03 124.53 116.13 159.01 127.5 159.01 131.98 124.01 120.03"/><path class="cls-46" d="M147.9,151.15a2.13,2.13,0,0,1-1.29-3.82c8.53-6.49,7.24-22.53,7.23-22.7a2.12,2.12,0,0,1,4.23-.37c.07.75,1.52,18.54-8.89,26.45A2.07,2.07,0,0,1,147.9,151.15Z" transform="translate(-4.16)"/><path class="cls-3" d="M141.61,154.9a8.32,8.32,0,0,1-2.44-3.8c-.5-1.66-.87-2.77-1.07-3.21a11.68,11.68,0,0,0-1.48-2.44c-2.14-2.67-5.51-5.17-8.56-4.19a4.43,4.43,0,0,0-1.18.61,6.83,6.83,0,0,0-.53.61,4.13,4.13,0,0,1,1.66-.42,6.76,6.76,0,0,1,4,1c2.92,1.67,5.28,5,7,10.06a4,4,0,0,0,.81,1.37c1.65,1.83,4.32,5.27,3.77,7.69a2.46,2.46,0,0,1-.22.61,5.79,5.79,0,0,0,1.26-.95C145.37,159.91,144.18,157.18,141.61,154.9Z" transform="translate(-4.16)"/><path class="cls-6" d="M144.62,145.53a1.37,1.37,0,0,0-.2.13l-.11.1a1.56,1.56,0,0,0-.41,1.06,5.28,5.28,0,0,1,1.88.87.39.39,0,0,1,.09.54.38.38,0,0,1-.55.09,4.48,4.48,0,0,0-2.59-.87l0,.54c0,.11,0,.22,0,.33,0,.27-.07,1.58-.09,1.84a.38.38,0,0,1-.41.36.39.39,0,0,1-.37-.41c0-.58.09-1.57.08-1.75s0-.23,0-.34c0-.31,0-.61-.07-.9a8.7,8.7,0,0,0-.64-2.31,9,9,0,0,0-12.11-4.55c3-.15,6.07,2.2,8.07,4.7a12.23,12.23,0,0,1,1.59,2.61c.21.48.58,1.59,1.1,3.3a7.55,7.55,0,0,0,2.21,3.44c2.43,2.16,3.7,4.73,3.47,6.84a9,9,0,0,0,3.69-7.24v-.23a14.72,14.72,0,0,0-.4-2.49.39.39,0,1,1,.75-.2,16.09,16.09,0,0,1,.42,2.41,2.71,2.71,0,0,0,.76,0,1.37,1.37,0,0,0,.74-.37c1-1,.15-3.47-1.82-5.43C148,145.81,145.77,144.93,144.62,145.53Z" transform="translate(-4.16)"/><path class="cls-57" d="M138.93,154.66l-.34.35a11.45,11.45,0,0,1-4.31,2.77l-.35.13c.26.36.48.71.7,1.06a12.62,12.62,0,0,0,3.65,4,4.1,4.1,0,0,0,2.42.54,7,7,0,0,0,.8,0,2,2,0,0,0,1.32-1.4c.51-2.22-2.61-5.92-3.58-7C139.13,154.91,139,154.79,138.93,154.66Z" transform="translate(-4.16)"/><path class="cls-45" d="M138,154.46l.48-.5a4.87,4.87,0,0,1-.24-.57c-2.05-6-4.72-8.51-6.59-9.6a6.14,6.14,0,0,0-3.58-.95h0a3,3,0,0,0-3,2.53v0a5.25,5.25,0,0,0,0,1.36,11.86,11.86,0,0,0,3.19,5.54c.36.41,1.81,1.75,2.87,2.72.69.64,1.24,1.15,1.41,1.32s.57.62.8.91L134,157A10.64,10.64,0,0,0,138,154.46Z" transform="translate(-4.16)"/><path d="M144.32,144.94a1.49,1.49,0,0,0-.31.2,1.29,1.29,0,0,0-.17.15,2.17,2.17,0,0,0-.59,1.41c-.2,0-.41,0-.62,0a9.51,9.51,0,0,0-.64-2.17,9.74,9.74,0,0,0-14.84-3.92,8.59,8.59,0,0,0-.75.67l-.09.08s0,0,0,0a6.8,6.8,0,0,0-2,3.91h0a5.81,5.81,0,0,0,.06,1.6,12.59,12.59,0,0,0,3.37,5.93c.39.44,1.8,1.74,2.93,2.78.66.6,1.22,1.13,1.38,1.29a13,13,0,0,1,.91,1l0,0a16.89,16.89,0,0,1,1,1.42,13.68,13.68,0,0,0,3.84,4.18,4.81,4.81,0,0,0,2.89.7,6.37,6.37,0,0,0,1-.08h0a6.26,6.26,0,0,0,3.55-1.85l.06-.06a9.8,9.8,0,0,0,4.76-8.22,1.83,1.83,0,0,0,.33,0A3.21,3.21,0,0,0,151,154a2,2,0,0,0,1.08-.55c1.28-1.28.48-4.07-1.82-6.37C148.21,145.11,145.73,144.2,144.32,144.94Zm-11.69,11.4c-.17-.17-.72-.68-1.41-1.32-1.06-1-2.51-2.31-2.87-2.72a11.86,11.86,0,0,1-3.19-5.54,5.25,5.25,0,0,1,0-1.36v0a3,3,0,0,1,3-2.53h0a6.14,6.14,0,0,1,3.58.95c1.87,1.09,4.54,3.64,6.59,9.6a4.87,4.87,0,0,0,.24.57l-.48.5a10.64,10.64,0,0,1-4,2.58l-.58.21C133.2,157,132.94,156.66,132.63,156.34ZM142.82,162a2,2,0,0,1-1.32,1.4,7,7,0,0,1-.8,0,4.1,4.1,0,0,1-2.42-.54,12.62,12.62,0,0,1-3.65-4c-.22-.35-.44-.7-.7-1.06l.35-.13a11.45,11.45,0,0,0,4.31-2.77l.34-.35c.1.13.2.25.31.37C140.21,156.11,143.33,159.81,142.82,162Zm1.81-.17a5.79,5.79,0,0,1-1.26.95,2.46,2.46,0,0,0,.22-.61c.55-2.42-2.12-5.86-3.77-7.69a4,4,0,0,1-.81-1.37c-1.72-5-4.08-8.39-7-10.06a6.76,6.76,0,0,0-4-1,4.13,4.13,0,0,0-1.66.42,6.83,6.83,0,0,1,.53-.61,4.43,4.43,0,0,1,1.18-.61c3.05-1,6.42,1.52,8.56,4.19a11.68,11.68,0,0,1,1.48,2.44c.2.44.57,1.55,1.07,3.21a8.32,8.32,0,0,0,2.44,3.8C144.18,157.18,145.37,159.91,144.63,161.86Zm6.93-8.85a1.37,1.37,0,0,1-.74.37,2.71,2.71,0,0,1-.76,0,16.09,16.09,0,0,0-.42-2.41.39.39,0,1,0-.75.2,14.72,14.72,0,0,1,.4,2.49v.23a9,9,0,0,1-3.69,7.24c.23-2.11-1-4.68-3.47-6.84a7.55,7.55,0,0,1-2.21-3.44c-.52-1.71-.89-2.82-1.1-3.3a12.23,12.23,0,0,0-1.59-2.61c-2-2.5-5-4.85-8.07-4.7a9,9,0,0,1,12.11,4.55,8.7,8.7,0,0,1,.64,2.31c0,.29.05.59.07.9,0,.11,0,.23,0,.34s0,1.17-.08,1.75a.39.39,0,0,0,.37.41.38.38,0,0,0,.41-.36c0-.26.1-1.57.09-1.84,0-.11,0-.22,0-.33l0-.54a4.48,4.48,0,0,1,2.59.87.38.38,0,0,0,.55-.09.39.39,0,0,0-.09-.54,5.28,5.28,0,0,0-1.88-.87,1.56,1.56,0,0,1,.41-1.06l.11-.1a1.37,1.37,0,0,1,.2-.13c1.15-.6,3.35.28,5.12,2.05C151.71,149.54,152.54,152,151.56,153Z" transform="translate(-4.16)"/><path class="cls-58" d="M174.22,133.39l.76.54a2.81,2.81,0,0,1,1.14,1.86L181,168.51c1.45.77,2.8.88,4-.38l-5.53-33a5.46,5.46,0,0,0-1.13-2.51l-1.2-1.51Z" transform="translate(-4.16)"/><path class="cls-49" d="M180.88,168l.1,4.64c1.92,2,3.65,1.47,5.3-.25l-1.49-5.08A2.86,2.86,0,0,1,180.88,168Z" transform="translate(-4.16)"/><path class="cls-59" d="M143.83,145.28l1,2a10.54,10.54,0,0,1,1.13,4.44l1,32.84c1.46,1.43,2.86,1.36,4.19,0l-1.3-34.37a7.71,7.71,0,0,0-.41-2.18l-1.28-3.73Z" transform="translate(-4.16)"/><path class="cls-49" d="M146.89,184.45l-.45,5.35a4.3,4.3,0,0,0,5.32,0l-.68-5.5A3.14,3.14,0,0,1,146.89,184.45Z" transform="translate(-4.16)"/><path class="cls-60" d="M109.84,131.86l-1,2.08a4.29,4.29,0,0,0-.44,1.61L106.2,167.2l0,.37a2.75,2.75,0,0,0,3.67,0l1.54-31.38a4.72,4.72,0,0,1,.21-1.17l.65-2.12Z" transform="translate(-4.16)"/><path class="cls-49" d="M105.53,171.54a3.55,3.55,0,0,0,4.88,0l-.55-5a2.62,2.62,0,0,1-3.67.21Z" transform="translate(-4.16)"/><path class="cls-61" d="M105.66,122.47l1.8,7.19a3.94,3.94,0,0,0,2.42,2.71l37.15,14a5.79,5.79,0,0,0,4.78-.31L176.7,132.7a4.28,4.28,0,0,0,2.23-3.58l.23-6.2-30,14Z" transform="translate(-4.16)"/><path class="cls-62" d="M176.23,121.89l-36.83-6.07a32.68,32.68,0,0,0,.81-8.76,3.69,3.69,0,0,0,2.73-1.9.5.5,0,0,0-.86-.5,2.72,2.72,0,0,1-1.92,1.4,32.52,32.52,0,0,0-.61-4.27.34.34,0,0,0,0-.2h0c-.07-.31-.14-.62-.22-.93a4.6,4.6,0,0,0,2.6-1.44.58.58,0,0,0-.06-.82.57.57,0,0,0-.81,0,3.42,3.42,0,0,1-2,1.08,36.24,36.24,0,0,0-3.23-7.73,5.74,5.74,0,0,0,2.5-2.23.5.5,0,1,0-.86-.5,4.69,4.69,0,0,1-2.14,1.86,41.09,41.09,0,0,0-2.34-3.56,46.81,46.81,0,0,0-3.16-3.88,7.5,7.5,0,0,0,2.39-2.14.6.6,0,0,0-1-.68,6.5,6.5,0,0,1-2.25,1.92,47.4,47.4,0,0,0-6.39-5.65c8-6.86,19.06-8.71,27-9.05a74.6,74.6,0,0,1,15.57,1,41.18,41.18,0,0,1,9,13.23C177.62,90.14,180.9,103.59,176.23,121.89Z" transform="translate(-4.16)"/><path class="cls-63" d="M180.78,119.43l-.26.09a66.13,66.13,0,0,0,1-21.91,65.12,65.12,0,0,0-4.63-17.17,58.5,58.5,0,0,0-8.8-14.77c.21-.29.45-.58.7-.88,11,16.66,13.71,30.62,14,39.42S181.09,118.63,180.78,119.43Z" transform="translate(-4.16)"/><path class="cls-63" d="M180,119.71l-1.38.49a69.53,69.53,0,0,0,1.24-22.27,59.6,59.6,0,0,0-4.37-16.7,48.82,48.82,0,0,0-8.54-13.71,11.8,11.8,0,0,1,.85-1.43,58,58,0,0,1,8.64,14.54A64.72,64.72,0,0,1,180,119.71Z" transform="translate(-4.16)"/><path class="cls-63" d="M178,120.39l-1,.36a68.56,68.56,0,0,0,1.78-22.07,53.71,53.71,0,0,0-4.32-16.81,44.2,44.2,0,0,0-8.25-12.58,7.68,7.68,0,0,1,.45-1.28A48.65,48.65,0,0,1,175,81.44C178.48,89.6,181.82,103,178,120.39Z" transform="translate(-4.16)"/><path class="cls-64" d="M166.25,67.75a9.07,9.07,0,0,0-.42,1.12l-.48-.45,0,0h-.07a75.25,75.25,0,0,0-15.74-1,58.13,58.13,0,0,0-14.13,2.24A37.19,37.19,0,0,0,124,75.1V75c8.52-6.66,19.59-8.26,27.4-8.42A72.44,72.44,0,0,1,166.25,67.75Z" transform="translate(-4.16)"/><path class="cls-64" d="M167.35,65.82a14.13,14.13,0,0,0-.88,1.46,73.67,73.67,0,0,0-15-1.25,59,59,0,0,0-14,1.89,38.61,38.61,0,0,0-13.33,6.35,6.48,6.48,0,0,1,.42-1.31,58.63,58.63,0,0,1,30-8.66h.36A47.85,47.85,0,0,1,167.35,65.82Z" transform="translate(-4.16)"/><path class="cls-64" d="M168.35,64.52c-.25.3-.49.59-.69.87a47.93,47.93,0,0,0-13.11-1.59,57.6,57.6,0,0,0-13.93,1.8,60.38,60.38,0,0,0-15.7,6.53L125,72a56.16,56.16,0,0,1,29.87-8.92A54,54,0,0,1,168.35,64.52Z" transform="translate(-4.16)"/><path class="cls-65" d="M181.89,119.7l-.6-.22c.45-1.19,2.28-6.69,2-15.26A64.24,64.24,0,0,0,180.1,86.7,91.08,91.08,0,0,0,169,64.24l0-.07-.09,0a53.25,53.25,0,0,0-14-1.55A59.11,59.11,0,0,0,140.7,64.5a55.39,55.39,0,0,0-15.77,7l-.32-.79a46.82,46.82,0,0,1,12.3-6.32,56.65,56.65,0,0,1,32.74-1.29,90,90,0,0,1,9.83,18.32C183.38,91.24,187,105.86,181.89,119.7Z" transform="translate(-4.16)"/><path class="cls-3" d="M149.31,98c-2.43.42-4.89-1.86-5.68-5.17a14.71,14.71,0,0,0,2.88-.33,13.44,13.44,0,0,0,6-2.73l.15-.13c.09.32.16.65.22,1C153.46,94.25,151.88,97.55,149.31,98Z" transform="translate(-4.16)"/><path class="cls-66" d="M152.6,89.61l-.16.14a13.35,13.35,0,0,1-5.94,2.73,16.21,16.21,0,0,1-2.88.33c0-.19-.08-.37-.11-.56a8.17,8.17,0,0,1,.56-4.88,4.15,4.15,0,0,1,3-2.49,3.57,3.57,0,0,1,2,.24A6.85,6.85,0,0,1,152.6,89.61Z" transform="translate(-4.16)"/><path class="cls-3" d="M164.34,93.92a4.29,4.29,0,0,1-7.15,1.25,8.16,8.16,0,0,1-2.32-4.53,9.36,9.36,0,0,1-.13-1.73l.11.06a10.57,10.57,0,0,0,1.26.63,14.44,14.44,0,0,0,5.08,1,15.24,15.24,0,0,0,3.94-.39A7.56,7.56,0,0,1,164.34,93.92Z" transform="translate(-4.16)"/><path class="cls-66" d="M165.13,90.19a15.24,15.24,0,0,1-3.94.39A13.28,13.28,0,0,1,154.87,89l-.13-.08c.08-3,1.68-5.45,4-5.86a4.14,4.14,0,0,1,2.28.27,7.31,7.31,0,0,1,4,5.61A9.54,9.54,0,0,1,165.13,90.19Z" transform="translate(-4.16)"/><ellipse class="cls-67" cx="159.94" cy="89.77" rx="5.15" ry="6.87" transform="translate(-17.15 28.66) rotate(-9.84)"/><path class="cls-67" d="M143.63,92.83s5.75-.08,9-3.19" transform="translate(-4.16)"/><path class="cls-67" d="M154.74,88.91s4,2.63,10.39,1.31" transform="translate(-4.16)"/><path class="cls-68" d="M149.33,104.6a9.44,9.44,0,0,1,7.45-3.9A10.53,10.53,0,0,1,165.5,105" transform="translate(-4.16)"/><path class="cls-69" d="M167.19,104.3a2,2,0,0,1-2.39,2.37" transform="translate(-4.16)"/><path class="cls-69" d="M147.81,103.74a2,2,0,0,0,2.22,2.54" transform="translate(-4.16)"/><path class="cls-69" d="M153.67,104.19a3.86,3.86,0,0,1,3.7-1.2,9.25,9.25,0,0,0,2,.83" transform="translate(-4.16)"/><path class="cls-69" d="M157.19,95.17s2.8,4,5.63,2.5" transform="translate(-4.16)"/><path class="cls-69" d="M152.23,95.62s-1.08,4-4,3.73" transform="translate(-4.16)"/><ellipse class="cls-70" cx="159.06" cy="93.81" rx="2.35" ry="2.49" transform="translate(7.45 204.98) rotate(-67.54)"/><circle class="cls-3" cx="155.95" cy="92.89" r="0.76"/><ellipse class="cls-70" cx="148.12" cy="95.61" rx="2.35" ry="2.49" transform="translate(-0.98 195.98) rotate(-67.54)"/><circle class="cls-3" cx="145" cy="94.69" r="0.76"/><ellipse class="cls-67" cx="148.17" cy="91.44" rx="4.75" ry="6.67" transform="translate(-17.61 26.68) rotate(-9.84)"/><path class="cls-71" d="M156.54,79.77s2.07,3.33,7.69,3.71" transform="translate(-4.16)"/><path class="cls-71" d="M148,81.37s-.47,4.62-6.23,4.51" transform="translate(-4.16)"/><g class="cls-72"><path class="cls-46" d="M125.48,112.24a2.85,2.85,0,0,1-.43-5.59c8.56-2.17,14-6.48,16-12.82a18.7,18.7,0,0,0,.69-8.8,2.84,2.84,0,1,1,5.55-1.23,24.25,24.25,0,0,1-.84,11.82c-1.88,5.71-6.9,13.21-20.06,16.54A2.63,2.63,0,0,1,125.48,112.24Z" transform="translate(-4.16)"/></g><path d="M184.63,99.64a69.15,69.15,0,0,0-4.69-18.46A89.71,89.71,0,0,0,170,62.69l-.05-.07-.09,0a58.61,58.61,0,0,0-18.72-1.71,55,55,0,0,0-14.42,3,46.44,46.44,0,0,0-12.57,6.5l-.14.12.52,1.3a6.07,6.07,0,0,0-1,3.64q-.84.63-1.62,1.32l-.24.21.27.18s.82.56,2.08,1.58l0,0a2.77,2.77,0,0,0-1,3A3.25,3.25,0,0,0,124.83,84a4.29,4.29,0,0,0,1.88.41,5.71,5.71,0,0,0,1.33-.17,6.72,6.72,0,0,0,1.27-.46c.91,1,1.84,2.1,2.75,3.3a.51.51,0,0,0-.26.14,2.51,2.51,0,0,0-.68,2.6,3,3,0,0,0,3.06,2.36,3.81,3.81,0,0,0,.92-.12l.18-.05c.44.79.86,1.61,1.26,2.47a.66.66,0,0,0-.2.06,3,3,0,0,0-1.87,3.07,3.53,3.53,0,0,0,2.68,3,4.89,4.89,0,0,0,1.18.14l.44,0,.15.59-.06,0a3,3,0,0,0-2,2.76,2.91,2.91,0,0,0,2.85,3,32.4,32.4,0,0,1-.84,8.9l-.06.26,37.8,6.23.06-.22c.08-.3.15-.6.23-.91l4.08-1.43,1.21.45.09-.23A45.18,45.18,0,0,0,184.63,99.64ZM124.51,73a58.63,58.63,0,0,1,30-8.66h.36a47.85,47.85,0,0,1,12.46,1.52,14.13,14.13,0,0,0-.88,1.46,73.67,73.67,0,0,0-15-1.25,59,59,0,0,0-14,1.89,38.61,38.61,0,0,0-13.33,6.35A6.48,6.48,0,0,1,124.51,73Zm.41-.83L125,72a56.16,56.16,0,0,1,29.87-8.92,54,54,0,0,1,13.49,1.43c-.25.3-.49.59-.69.87a47.93,47.93,0,0,0-13.11-1.59,57.6,57.6,0,0,0-13.93,1.8A60.38,60.38,0,0,0,124.92,72.13Zm26.51-5.6a72.44,72.44,0,0,1,14.82,1.22,9.07,9.07,0,0,0-.42,1.12l-.48-.45,0,0h-.07a75.25,75.25,0,0,0-15.74-1,58.13,58.13,0,0,0-14.13,2.24A37.19,37.19,0,0,0,124,75.1V75C132.55,68.29,143.62,66.69,151.43,66.53ZM127.77,83a3.68,3.68,0,0,1-2.42-.16,2.05,2.05,0,0,1-1.14-1.37,1.61,1.61,0,0,1,.61-1.83.49.49,0,0,0,.14-.18c1,.88,2.21,2,3.49,3.31A5,5,0,0,1,127.77,83Zm4.32,6.51a1.53,1.53,0,0,1,.41-1.67.27.27,0,0,0,.09-.12c.73,1,1.47,2.12,2.18,3.32A2.12,2.12,0,0,1,132.09,89.54Zm5.35,9.93a2.38,2.38,0,0,1-1.82-2,1.87,1.87,0,0,1,1.21-1.91.58.58,0,0,0,.15-.11,34.25,34.25,0,0,1,1.49,4.14A3.4,3.4,0,0,1,137.44,99.47Zm.41,4.63a2,2,0,0,1,1.28-1.8,31.84,31.84,0,0,1,.51,3.76A1.92,1.92,0,0,1,137.85,104.1Zm38.38,17.79-36.83-6.07a32.68,32.68,0,0,0,.81-8.76,3.69,3.69,0,0,0,2.73-1.9.5.5,0,0,0-.86-.5,2.72,2.72,0,0,1-1.92,1.4,32.52,32.52,0,0,0-.61-4.27.34.34,0,0,0,0-.2h0c-.07-.31-.14-.62-.22-.93a4.6,4.6,0,0,0,2.6-1.44.58.58,0,0,0-.06-.82.57.57,0,0,0-.81,0,3.42,3.42,0,0,1-2,1.08,36.24,36.24,0,0,0-3.23-7.73,5.74,5.74,0,0,0,2.5-2.23.5.5,0,1,0-.86-.5,4.69,4.69,0,0,1-2.14,1.86,41.09,41.09,0,0,0-2.34-3.56,46.81,46.81,0,0,0-3.16-3.88,7.5,7.5,0,0,0,2.39-2.14.6.6,0,0,0-1-.68,6.5,6.5,0,0,1-2.25,1.92,47.4,47.4,0,0,0-6.39-5.65c8-6.86,19.06-8.71,27-9.05a74.6,74.6,0,0,1,15.57,1,41.18,41.18,0,0,1,9,13.23C177.62,90.14,180.9,103.59,176.23,121.89Zm.8-1.14a68.56,68.56,0,0,0,1.78-22.07,53.71,53.71,0,0,0-4.32-16.81,44.2,44.2,0,0,0-8.25-12.58,7.68,7.68,0,0,1,.45-1.28A48.65,48.65,0,0,1,175,81.44c3.47,8.16,6.81,21.53,3,39Zm1.56-.55a69.53,69.53,0,0,0,1.24-22.27,59.6,59.6,0,0,0-4.37-16.7,48.82,48.82,0,0,0-8.54-13.71,11.8,11.8,0,0,1,.85-1.43,58,58,0,0,1,8.64,14.54A64.72,64.72,0,0,1,180,119.71Zm2.19-.77-.26.09a66.13,66.13,0,0,0,1-21.91,65.12,65.12,0,0,0-4.63-17.17,58.5,58.5,0,0,0-8.8-14.77c.21-.29.45-.58.7-.88,11,16.66,13.71,30.62,14,39.42S181.09,118.63,180.78,119.43Zm1.11.27-.6-.22c.45-1.19,2.28-6.69,2-15.26A64.24,64.24,0,0,0,180.1,86.7,91.08,91.08,0,0,0,169,64.24l0-.07-.09,0a53.25,53.25,0,0,0-14-1.55A59.11,59.11,0,0,0,140.7,64.5a55.39,55.39,0,0,0-15.77,7l-.32-.79a46.82,46.82,0,0,1,12.3-6.32,56.65,56.65,0,0,1,32.74-1.29,90,90,0,0,1,9.83,18.32C183.38,91.24,187,105.86,181.89,119.7Z" transform="translate(-4.16)"/><path class="cls-73" d="M102.17,117.77v1.53a2.69,2.69,0,0,0,1.75,2.52l43,16.09a5.79,5.79,0,0,0,4.78-.32l27.86-14.89a2.63,2.63,0,0,0,1.37-2.6l-.11-1.09-31.54,16.13Z" transform="translate(-4.16)"/><path class="cls-74" d="M180.83,118.86l-28.54,15.37a8,8,0,0,1-6.73.4L102.8,117.86a1,1,0,0,1,0-1.83l29-13.09a5.67,5.67,0,0,1,4.13-.2l44.83,15.05A.59.59,0,0,1,180.83,118.86Z" transform="translate(-4.16)"/><polygon class="cls-75" points="108.08 118.61 133.53 128.04 155.39 114.42 131.74 105.43 108.08 118.61"/><path class="cls-46" d="M159.94,119.64a2.85,2.85,0,0,1-.43-5.59c8.56-2.17,14-6.48,16.05-12.82a18.7,18.7,0,0,0,.69-8.8,2.85,2.85,0,0,1,5.56-1.23A24.35,24.35,0,0,1,181,103c-1.89,5.72-6.9,13.22-20.06,16.55A2.68,2.68,0,0,1,159.94,119.64Z" transform="translate(-4.16)"/><path class="cls-76" d="M163.16,118.25a6.27,6.27,0,0,0-2.57-4.34,4.18,4.18,0,0,0-2.09-.85,2,2,0,0,0-2,.72,2,2,0,0,0-.32.66,7.83,7.83,0,0,0-4,.19c-.49-.15-3.47-1-4.75.52a2.63,2.63,0,0,0-.37,2.77,7.11,7.11,0,0,0-3.11,3.91,3,3,0,0,0,0,2,1.74,1.74,0,0,0,1.43,1.3,2.38,2.38,0,0,0,1.18,2.39c.6.32,1.52.45,2.49-.78h0a18.24,18.24,0,0,1,2.51-3,5,5,0,0,0-1.22,3.94,2.56,2.56,0,0,0,.67,1.4,1.55,1.55,0,0,0,1.08.5,1.51,1.51,0,0,0,.87-.29,2.25,2.25,0,0,0,.82-1,14,14,0,0,1,1.76-3.14,4.73,4.73,0,0,0,5.3-3.36,1.47,1.47,0,0,0,.06-.23l.21,0a1.82,1.82,0,0,0,1.57-1.14A4,4,0,0,0,163.16,118.25Zm-.79,2c-.35.67-.8,1-1.34.91a5.38,5.38,0,0,0-.14-2.82.21.21,0,0,0-.27-.11.21.21,0,0,0-.11.27,6.09,6.09,0,0,1,0,3.19,4.3,4.3,0,0,1-4.94,3,.19.19,0,0,0-.18.06,12.79,12.79,0,0,0-1.92,3.35,1.93,1.93,0,0,1-.67.84,1,1,0,0,1-1.42-.16,2,2,0,0,1-.56-1.18c-.44-2.77,2.19-4.75,3-5.29a.24.24,0,0,0,.08-.31.24.24,0,0,0-.31-.11c-2.42,1-4.66,4.33-4.81,4.55-.63.8-1.29,1-2,.66a2,2,0,0,1-1-2c.4-3.18,5.81-5.71,5.86-5.74a.19.19,0,0,0,.1-.27.2.2,0,0,0-.27-.1c-.22.1-5.27,2.46-6,5.68-.62-.07-.9-.46-1.11-1a2.72,2.72,0,0,1,0-1.74,6.77,6.77,0,0,1,2.95-3.69l.07,0a.19.19,0,0,0,.1,0,.18.18,0,0,0,.1-.15,12.6,12.6,0,0,1,4.6-1.53.2.2,0,0,0,.18-.23.2.2,0,0,0-.22-.18,13,13,0,0,0-4.7,1.55,2.14,2.14,0,0,1,.32-2.28c1.19-1.42,4.34-.4,4.37-.39a.13.13,0,0,0,.12,0,7.5,7.5,0,0,1,4-.16l.08,0h0a5,5,0,0,1,2.35,1.35.21.21,0,0,0,.29,0,.2.2,0,0,0,0-.29,5.22,5.22,0,0,0-2.42-1.44,1.55,1.55,0,0,1,1.87-1.07,3.76,3.76,0,0,1,1.88.77,5.87,5.87,0,0,1,2.41,4A3.53,3.53,0,0,1,162.37,120.26Z" transform="translate(-4.16)"/><path class="cls-3" d="M162.37,120.26c-.35.67-.8,1-1.34.91a5.38,5.38,0,0,0-.14-2.82.21.21,0,0,0-.27-.11.21.21,0,0,0-.11.27,6.09,6.09,0,0,1,0,3.19,4.3,4.3,0,0,1-4.94,3,.19.19,0,0,0-.18.06,12.79,12.79,0,0,0-1.92,3.35,1.93,1.93,0,0,1-.67.84,1,1,0,0,1-1.42-.16,2,2,0,0,1-.56-1.18c-.44-2.77,2.19-4.75,3-5.29a.24.24,0,0,0,.08-.31.24.24,0,0,0-.31-.11c-2.42,1-4.66,4.33-4.81,4.55-.63.8-1.29,1-2,.66a2,2,0,0,1-1-2c.4-3.18,5.81-5.71,5.86-5.74a.19.19,0,0,0,.1-.27.2.2,0,0,0-.27-.1c-.22.1-5.27,2.46-6,5.68-.62-.07-.9-.46-1.11-1a2.72,2.72,0,0,1,0-1.74,6.77,6.77,0,0,1,2.95-3.69l.07,0a.19.19,0,0,0,.1,0,.18.18,0,0,0,.1-.15,12.6,12.6,0,0,1,4.6-1.53.2.2,0,0,0,.18-.23.2.2,0,0,0-.22-.18,13,13,0,0,0-4.7,1.55,2.14,2.14,0,0,1,.32-2.28c1.19-1.42,4.34-.4,4.37-.39a.13.13,0,0,0,.12,0,7.5,7.5,0,0,1,4-.16l.08,0h0a5,5,0,0,1,2.35,1.35.21.21,0,0,0,.29,0,.2.2,0,0,0,0-.29,5.22,5.22,0,0,0-2.42-1.44,1.55,1.55,0,0,1,1.87-1.07,3.76,3.76,0,0,1,1.88.77,5.87,5.87,0,0,1,2.41,4A3.53,3.53,0,0,1,162.37,120.26Z" transform="translate(-4.16)"/><g class="cls-77"><path class="cls-46" d="M125.45,110a2.84,2.84,0,0,1-.72-5.56c8.43-2.62,13.59-7.21,15.35-13.65A18.77,18.77,0,0,0,140.3,82a2.84,2.84,0,1,1,5.48-1.52,24.26,24.26,0,0,1-.21,11.85c-1.58,5.8-6.19,13.56-19.16,17.58A2.89,2.89,0,0,1,125.45,110Z" transform="translate(-4.16)"/></g><path class="cls-78" d="M122.76,112.86s7,1.69,6.44-6.18" transform="translate(-4.16)"/><path class="cls-78" d="M118.66,103.2s2.78.72,3.52,2.56a2.08,2.08,0,0,1-.56,2.36c-.64.53-1.77.79-3.64-.73,0,0-4-3.32-.13-5.88a5.79,5.79,0,0,1,1.91-.82c2.16-.52,7.63-1.29,9.22,3.69" transform="translate(-4.16)"/><path class="cls-3" d="M130.74,108.69a2.5,2.5,0,0,1-1.05,1.17,1.22,1.22,0,0,1-.63.19,8.82,8.82,0,0,0,.35-3.38.22.22,0,0,0-.23-.2.21.21,0,0,0-.19.23c.15,2.38-.37,4.09-1.56,5.09a5.67,5.67,0,0,1-4.45.9,2,2,0,0,0-.1-.63,1.82,1.82,0,0,0-.64-.94,1.54,1.54,0,0,0,.54-.91,3.27,3.27,0,0,0-.54-2.51,2.28,2.28,0,0,0,.13-2c-.76-1.92-3.54-2.66-3.66-2.69a.21.21,0,0,0-.25.15.21.21,0,0,0,.15.26s2.68.71,3.37,2.43a1.87,1.87,0,0,1-.16,1.74v0a2.17,2.17,0,0,1-.32.36c-.8.66-2,.41-3.37-.73,0,0-1.82-1.55-1.72-3.25a3,3,0,0,1,1.57-2.29,5.45,5.45,0,0,1,1.84-.8c2.19-.52,7.44-1.23,9,3.55a.21.21,0,0,0,.26.14.23.23,0,0,0,.14-.27,6,6,0,0,0-1.85-2.84,2.26,2.26,0,0,1,2.53,1h0S132.2,105.52,130.74,108.69Z" transform="translate(-4.16)"/><path class="cls-78" d="M126.86,101.4a2.6,2.6,0,0,1,3.18.91s2.43,3.14.89,6.47A2.72,2.72,0,0,1,129.8,110a1.22,1.22,0,0,1-1,.17" transform="translate(-4.16)"/><path class="cls-79" d="M123.27,95.31v.06l3,18.24-4.36.71-3-18.29a.31.31,0,0,1,.2-.38A6.06,6.06,0,0,1,123,95,.31.31,0,0,1,123.27,95.31Z" transform="translate(-4.16)"/><rect class="cls-80" x="119.37" y="97.67" width="4.41" height="2.02" transform="translate(-18.52 20.96) rotate(-9.31)"/><rect class="cls-80" x="121.53" y="110.83" width="4.41" height="2.02" transform="translate(-20.62 21.48) rotate(-9.31)"/><path class="cls-81" d="M125.09,118.32l1.15-4.62a.06.06,0,0,0-.06-.08l-4.2.69a.06.06,0,0,0,0,.09l2.56,4Z" transform="translate(-4.16)"/><path class="cls-78" d="M118.66,103.2s2.78.72,3.52,2.56a2.08,2.08,0,0,1-.56,2.36c-.64.53-1.77.79-3.64-.73a5.34,5.34,0,0,1-1.79-3.09" transform="translate(-4.16)"/><path class="cls-3" d="M126.73,108.14A1.91,1.91,0,0,1,124,108c-1.67-2.43.23-4.67.89-5.33l1.37,1.75a.21.21,0,0,0,.17.08h.07l.26-.1a3.7,3.7,0,0,1,.51,1.59A2.52,2.52,0,0,1,126.73,108.14Z" transform="translate(-4.16)"/><path class="cls-3" d="M121.49,108c-.8.66-2,.41-3.37-.73a5.57,5.57,0,0,1-1.63-2.43l2.28-1.35c.59.19,2.62.92,3.21,2.39A1.84,1.84,0,0,1,121.49,108Z" transform="translate(-4.16)"/><path class="cls-78" d="M125,102.31s-3.23,2.77-1.12,5.81a2.13,2.13,0,0,0,3,.18,2.73,2.73,0,0,0,.6-2.36,3.52,3.52,0,0,0-.71-1.88" transform="translate(-4.16)"/><path class="cls-3" d="M122.32,113.52c-.81,1.25-3,.43-3.22.34a3.44,3.44,0,0,1-1.95-4,5.18,5.18,0,0,0,3.41,1.72,3.14,3.14,0,0,0,1.24-.26,1.29,1.29,0,0,1,.68.84A1.55,1.55,0,0,1,122.32,113.52Z" transform="translate(-4.16)"/><path class="cls-3" d="M122.37,110.11a1.1,1.1,0,0,1-.48.74c-2.29,1.22-4.44-1.25-4.47-1.28a3.32,3.32,0,0,1-.65-3.22,7.34,7.34,0,0,0,1.08,1.21,4.35,4.35,0,0,0,2.63,1.18,1.9,1.9,0,0,0,1.27-.46,2.23,2.23,0,0,0,.22-.21A2.81,2.81,0,0,1,122.37,110.11Z" transform="translate(-4.16)"/><path class="cls-78" d="M116.72,105.87a3.71,3.71,0,0,0,.55,3.85s2.25,2.63,4.72,1.31c.73-.39,1-1.92,0-3.32" transform="translate(-4.16)"/><path class="cls-78" d="M117,109.42s-1,3.46,2,4.63c.78.31,2.67.81,3.47-.41a1.81,1.81,0,0,0,.18-1.52,1.47,1.47,0,0,0-.86-1" transform="translate(-4.16)"/></g></g></svg>