<svg xmlns="http://www.w3.org/2000/svg" viewBox="0 0 399.98 87.81"><defs><style>.cls-1{fill:#858c02;}.cls-2{fill:#fff;}.cls-3{fill:none;stroke:#24b2a0;stroke-linejoin:round;stroke-width:5px;}</style></defs><title>tpg</title><g id="Layer_2" data-name="Layer 2"><g id="pestaña_identificativa" data-name="pestaña identificativa"><rect class="cls-1" width="399.98" height="87.81" rx="32.4"/><path class="cls-2" d="M43.34,34.84A2.46,2.46,0,0,1,42,34.56a1.11,1.11,0,0,1-.48-.72,4.73,4.73,0,0,1-.09-.93V19.26a3.85,3.85,0,0,1,.1-.91,1.11,1.11,0,0,1,.5-.71,2.35,2.35,0,0,1,1.32-.28H48.5a6.39,6.39,0,0,1,2.1.38,6.18,6.18,0,0,1,2,1.16,6.34,6.34,0,0,1,1.47,1.94,6.17,6.17,0,0,1,.56,2.7,6.06,6.06,0,0,1-.56,2.69,5.87,5.87,0,0,1-1.48,1.91,6.15,6.15,0,0,1-2,1.15,6.4,6.4,0,0,1-2.12.37h-3.2v3.28a3.91,3.91,0,0,1-.1.91,1.11,1.11,0,0,1-.5.71A2.31,2.31,0,0,1,43.34,34.84Zm1.93-9h3.22a2.64,2.64,0,0,0,1.09-.23,2.12,2.12,0,0,0,.9-.76,2.65,2.65,0,0,0,.05-2.58,2.11,2.11,0,0,0-.83-.82,2.44,2.44,0,0,0-1.23-.31h-3.2Z"/><path class="cls-2" d="M58.61,34.85a2.39,2.39,0,0,1-1.31-.27,1,1,0,0,1-.47-.71,4.73,4.73,0,0,1-.09-.93V24.22a4.59,4.59,0,0,1,.09-.93,1,1,0,0,1,.49-.68,2.49,2.49,0,0,1,1.33-.26,2.63,2.63,0,0,1,1.26.23,1,1,0,0,1,.48.55,1.78,1.78,0,0,1,.11.54l-.31.15c0-.06.13-.19.27-.36a3.2,3.2,0,0,1,.59-.55,3.71,3.71,0,0,1,.91-.49,3.62,3.62,0,0,1,1.24-.2c.18,0,.38,0,.61,0a4.89,4.89,0,0,1,.7.15,3.32,3.32,0,0,1,.66.3,1.8,1.8,0,0,1,.49.46,1.23,1.23,0,0,1,.18.68,3.06,3.06,0,0,1-.47,1.74,1.42,1.42,0,0,1-1.2.71,2,2,0,0,1-.6-.06,1.92,1.92,0,0,1-.29-.15.93.93,0,0,0-.26-.15,1.39,1.39,0,0,0-.55-.07,2.71,2.71,0,0,0-.71.1,2.06,2.06,0,0,0-.63.31,1.63,1.63,0,0,0-.45.53,1.51,1.51,0,0,0-.16.71V33a5.4,5.4,0,0,1-.08.91,1.07,1.07,0,0,1-.49.69A2.71,2.71,0,0,1,58.61,34.85Z"/><path class="cls-2" d="M73.81,35.05a6.2,6.2,0,0,1-2.33-.46,7.29,7.29,0,0,1-2.12-1.31,6.53,6.53,0,0,1-1.51-2,6.15,6.15,0,0,1-.56-2.64,6,6,0,0,1,.52-2.51A6.63,6.63,0,0,1,69.22,24a6.75,6.75,0,0,1,2.06-1.41,6,6,0,0,1,2.49-.52A6.33,6.33,0,0,1,77,23a6.4,6.4,0,0,1,2.34,2.34,6.3,6.3,0,0,1,.87,3.27,6.39,6.39,0,0,1-.56,2.72,6.5,6.5,0,0,1-1.5,2,6.57,6.57,0,0,1-2.08,1.29A6.15,6.15,0,0,1,73.81,35.05Zm0-3.77A2.82,2.82,0,0,0,75,31a2.67,2.67,0,0,0,1.05-.9,2.6,2.6,0,0,0,.43-1.52,2.74,2.74,0,0,0-.35-1.4,2.55,2.55,0,0,0-1-.94,2.84,2.84,0,0,0-1.42-.34,2.59,2.59,0,0,0-2.28,1.31,2.6,2.6,0,0,0-.37,1.39,2.68,2.68,0,0,0,.41,1.51,2.49,2.49,0,0,0,1,.9A3,3,0,0,0,73.76,31.28Z"/><path class="cls-2" d="M84,40a2.4,2.4,0,0,1-1.3-.27,1,1,0,0,1-.47-.67,4.23,4.23,0,0,1-.07-.89v-14a5.14,5.14,0,0,1,.08-.91,1,1,0,0,1,.46-.68A2.24,2.24,0,0,1,84,22.36a2.86,2.86,0,0,1,1.24.23,1.29,1.29,0,0,1,.66.7v14.9a3.36,3.36,0,0,1-.07.9,1.11,1.11,0,0,1-.49.68A2.41,2.41,0,0,1,84,40Zm4.81-5.4a4.58,4.58,0,0,1-2.15-.49,4.49,4.49,0,0,1-1.54-1.33,5.75,5.75,0,0,1-.92-1.93,8,8,0,0,1-.29-2.38,8.17,8.17,0,0,1,.33-2.34,6.3,6.3,0,0,1,.94-2,4.27,4.27,0,0,1,1.52-1.35,4.51,4.51,0,0,1,2.12-.49,4.79,4.79,0,0,1,2.15.51,6.15,6.15,0,0,1,1.83,1.36,6.27,6.27,0,0,1,1.27,2,6.15,6.15,0,0,1,.47,2.37A6,6,0,0,1,94.05,31a6.13,6.13,0,0,1-1.26,1.94A5.85,5.85,0,0,1,91,34.18,5.19,5.19,0,0,1,88.79,34.64Zm-.5-3.53a2.38,2.38,0,0,0,1.25-.33,2.62,2.62,0,0,0,.89-.92,2.49,2.49,0,0,0,.34-1.27,2.54,2.54,0,0,0-.33-1.28,2.33,2.33,0,0,0-.89-.9,2.45,2.45,0,0,0-1.23-.32,2.34,2.34,0,0,0-1.24.34,2.42,2.42,0,0,0-.88.89,2.68,2.68,0,0,0-.31,1.27,2.51,2.51,0,0,0,.33,1.27,2.41,2.41,0,0,0,.87.92A2.31,2.31,0,0,0,88.29,31.11Z"/><path class="cls-2" d="M102.56,35.07a6.29,6.29,0,0,1-2.34-.46,7.19,7.19,0,0,1-2.11-1.32,6.38,6.38,0,0,1-1.51-2A6.22,6.22,0,0,1,96,28.62a6,6,0,0,1,.52-2.51A6.67,6.67,0,0,1,98,24,6.75,6.75,0,0,1,100,22.63a6.16,6.16,0,0,1,2.49-.51,6.24,6.24,0,0,1,3.26.87,6.4,6.4,0,0,1,2.34,2.34,6.69,6.69,0,0,1,.31,6,6.66,6.66,0,0,1-1.5,2,6.57,6.57,0,0,1-2.08,1.29A6.36,6.36,0,0,1,102.56,35.07Zm0-3.77a2.85,2.85,0,0,0,1.23-.3,2.67,2.67,0,0,0,1.05-.9,2.61,2.61,0,0,0,.43-1.53,2.77,2.77,0,0,0-.35-1.4,2.48,2.48,0,0,0-1-.93,2.78,2.78,0,0,0-1.41-.34,2.53,2.53,0,0,0-1.34.35,2.73,2.73,0,0,0-1,1,2.93,2.93,0,0,0,0,2.9,2.49,2.49,0,0,0,1,.9A2.94,2.94,0,0,0,102.51,31.3Zm-1-9.83a.85.85,0,0,1-.74-.25,2.63,2.63,0,0,1-.51-1,2,2,0,0,1-.1-1.3,1.35,1.35,0,0,1,.92-.67l4.4-1.35a.88.88,0,0,1,.73.29,2.47,2.47,0,0,1,.5,1,1.88,1.88,0,0,1,.08,1.28,1.32,1.32,0,0,1-.91.67Z"/><path class="cls-2" d="M115.51,35.08a8,8,0,0,1-1.47-.15,8.55,8.55,0,0,1-1.54-.44,5.08,5.08,0,0,1-1.25-.68,1.38,1.38,0,0,1-.55-1.42,2.37,2.37,0,0,1,.23-.6,4.33,4.33,0,0,1,.43-.66.88.88,0,0,1,.44-.35,1.09,1.09,0,0,1,.59,0,3.15,3.15,0,0,1,.8.27c.27.12.54.25.82.4s.58.26.88.37a2.66,2.66,0,0,0,.92.16,2.2,2.2,0,0,0,1.09-.21.64.64,0,0,0,.39-.58.61.61,0,0,0-.16-.45,1.43,1.43,0,0,0-.45-.31,5.37,5.37,0,0,0-.68-.23l-.81-.22c-.28-.06-.58-.15-.9-.25a6.9,6.9,0,0,1-1.19-.45,4,4,0,0,1-1-.71,3.22,3.22,0,0,1-.73-1.08A3.79,3.79,0,0,1,111,26a3.54,3.54,0,0,1,.57-2.05,3.48,3.48,0,0,1,1.66-1.26,7.34,7.34,0,0,1,2.7-.44,6.8,6.8,0,0,1,.9.06,5.38,5.38,0,0,1,.89.17,7,7,0,0,1,1.71.73,1.1,1.1,0,0,1,.77.95,2,2,0,0,1-.42,1.25,2.12,2.12,0,0,1-.58.58.83.83,0,0,1-.62.14,3.93,3.93,0,0,1-.86-.34,9.66,9.66,0,0,0-1-.43,2.85,2.85,0,0,0-1-.21,2,2,0,0,0-.73.12.94.94,0,0,0-.45.3.66.66,0,0,0-.15.43.74.74,0,0,0,.19.52,1.48,1.48,0,0,0,.51.31,5.64,5.64,0,0,0,.75.22l.93.21a12.5,12.5,0,0,1,1.38.33,4.73,4.73,0,0,1,1.3.62,2.91,2.91,0,0,1,1,1.07,3.78,3.78,0,0,1,.36,1.78,3.59,3.59,0,0,1-1.37,3A6.38,6.38,0,0,1,115.51,35.08Z"/><path class="cls-2" d="M125,20.59a2.61,2.61,0,0,1-1.35-.28,1.11,1.11,0,0,1-.49-.73,5.7,5.7,0,0,1-.08-.95,5.64,5.64,0,0,1,.08-1,1.08,1.08,0,0,1,.51-.7,2.66,2.66,0,0,1,1.36-.26,2.33,2.33,0,0,1,1.32.28,1.09,1.09,0,0,1,.49.72,5,5,0,0,1,.09,1,4.7,4.7,0,0,1-.09.92,1.05,1.05,0,0,1-.49.71A2.53,2.53,0,0,1,125,20.59Zm0,14.3a2.43,2.43,0,0,1-1.32-.27,1,1,0,0,1-.48-.7,5.33,5.33,0,0,1-.07-.91V24.28a4.53,4.53,0,0,1,.09-.91,1.08,1.08,0,0,1,.49-.7,2.57,2.57,0,0,1,1.32-.26,2.24,2.24,0,0,1,1.29.28,1.12,1.12,0,0,1,.48.71,5.49,5.49,0,0,1,.08.94V33a4.53,4.53,0,0,1-.09.91,1.06,1.06,0,0,1-.48.69A2.57,2.57,0,0,1,125,34.89Z"/><path class="cls-2" d="M130.29,22.59H133l3.45-.1a4.29,4.29,0,0,1,.9.09,1.08,1.08,0,0,1,.7.49,2.35,2.35,0,0,1,.28,1.32,2.25,2.25,0,0,1-.27,1.25,1.16,1.16,0,0,1-.68.52,3.89,3.89,0,0,1-.93.11l-3.27-.08-3,0a1.23,1.23,0,0,1-1-.46,2.55,2.55,0,0,1-.29-1.39,2.11,2.11,0,0,1,.35-1.33A1.26,1.26,0,0,1,130.29,22.59Zm5.65,12.3a7.87,7.87,0,0,1-2.2-.27,3.65,3.65,0,0,1-1.52-.86,3.5,3.5,0,0,1-.87-1.46,6.62,6.62,0,0,1-.28-2.11V20.06a4.22,4.22,0,0,1,.09-.92,1,1,0,0,1,.49-.66,2.38,2.38,0,0,1,1.3-.27,2.48,2.48,0,0,1,1.3.28,1.12,1.12,0,0,1,.48.71,4.63,4.63,0,0,1,.09.92V30a2.47,2.47,0,0,0,.06.66.79.79,0,0,0,.18.39.73.73,0,0,0,.35.18,2.87,2.87,0,0,0,.55.05,4.1,4.1,0,0,1,1,.1,1,1,0,0,1,.66.45,2.13,2.13,0,0,1,.24,1.17,2.28,2.28,0,0,1-.28,1.3,1,1,0,0,1-.71.48A5.41,5.41,0,0,1,135.94,34.89Z"/><path class="cls-2" d="M146.29,35.1a6.22,6.22,0,0,1-2.34-.47,6.72,6.72,0,0,1-2.11-1.31,6.24,6.24,0,0,1-1.51-2,5.87,5.87,0,0,1-.56-2.64,6.19,6.19,0,0,1,.51-2.51,6.75,6.75,0,0,1,1.41-2.06,6.67,6.67,0,0,1,2.07-1.41,6.08,6.08,0,0,1,2.48-.51,6.39,6.39,0,0,1,3.27.86,6.61,6.61,0,0,1,2.33,2.34,6.37,6.37,0,0,1,.88,3.28,6.2,6.2,0,0,1-.57,2.71,6.35,6.35,0,0,1-1.5,2,6.73,6.73,0,0,1-2.08,1.28A6.32,6.32,0,0,1,146.29,35.1Zm0-3.78a2.78,2.78,0,0,0,1.22-.3,2.67,2.67,0,0,0,1-.9,2.51,2.51,0,0,0,.43-1.52,2.77,2.77,0,0,0-.35-1.4,2.48,2.48,0,0,0-1-.94,2.94,2.94,0,0,0-1.41-.34,2.6,2.6,0,0,0-1.34.35,2.82,2.82,0,0,0-.95,1,2.69,2.69,0,0,0-.36,1.39,2.51,2.51,0,0,0,.41,1.51,2.47,2.47,0,0,0,1,.9A2.83,2.83,0,0,0,146.24,31.32Z"/><path class="cls-2" d="M159.24,35.11a7.41,7.41,0,0,1-1.48-.16,9,9,0,0,1-1.54-.43,5.65,5.65,0,0,1-1.25-.68,1.29,1.29,0,0,1-.56-.89,1.2,1.2,0,0,1,0-.53,2.08,2.08,0,0,1,.22-.6,5.08,5.08,0,0,1,.44-.67.89.89,0,0,1,.44-.35,1,1,0,0,1,.58,0,3.4,3.4,0,0,1,.8.26l.83.4a8.47,8.47,0,0,0,.87.38,2.68,2.68,0,0,0,.93.16,2.32,2.32,0,0,0,1.09-.21.66.66,0,0,0,.38-.59.64.64,0,0,0-.16-.45,1.6,1.6,0,0,0-.45-.3c-.19-.08-.42-.16-.67-.24l-.81-.21c-.29-.07-.59-.15-.91-.25a8.93,8.93,0,0,1-1.18-.45,4,4,0,0,1-1.05-.71,3.19,3.19,0,0,1-.74-1.08,4,4,0,0,1-.27-1.56,3.59,3.59,0,0,1,.56-2.05A3.53,3.53,0,0,1,157,22.67a7.41,7.41,0,0,1,2.7-.44c.3,0,.6,0,.9.05a5.4,5.4,0,0,1,.89.18,6.74,6.74,0,0,1,.86.3,6.09,6.09,0,0,1,.85.42,1.14,1.14,0,0,1,.78.95,2.1,2.1,0,0,1-.43,1.25A1.9,1.9,0,0,1,163,26a.89.89,0,0,1-.63.14,4.36,4.36,0,0,1-.86-.34c-.31-.16-.63-.3-1-.44a2.89,2.89,0,0,0-1-.2,2.18,2.18,0,0,0-.72.11,1.11,1.11,0,0,0-.45.3.77.77,0,0,0,0,.95,1.54,1.54,0,0,0,.52.32,6.32,6.32,0,0,0,.75.22l.92.2c.45.09.91.2,1.39.34a4.85,4.85,0,0,1,1.3.61,3,3,0,0,1,1,1.08,3.76,3.76,0,0,1,.36,1.77,3.58,3.58,0,0,1-1.38,3A6.33,6.33,0,0,1,159.24,35.11Z"/><path class="cls-2" d="M178.39,34.59a4.89,4.89,0,0,1-2.17-.49,5.77,5.77,0,0,1-1.78-1.33,6.5,6.5,0,0,1-1.23-2,5.84,5.84,0,0,1-.44-2.32,6,6,0,0,1,.45-2.31,6.2,6.2,0,0,1,1.24-1.93,5.82,5.82,0,0,1,1.8-1.32,4.7,4.7,0,0,1,2.11-.49,3.84,3.84,0,0,1,1.9.44,3.41,3.41,0,0,1,1.25,1.25,6.74,6.74,0,0,1,.71,1.93,11.79,11.79,0,0,1,.24,2.48,11.33,11.33,0,0,1-.42,3.22,4.2,4.2,0,0,1-1.3,2.1A3.58,3.58,0,0,1,178.39,34.59Zm.44,5.48a7,7,0,0,1-1.76-.23,7.92,7.92,0,0,1-1.59-.6,4.91,4.91,0,0,1-1.15-.8,1.23,1.23,0,0,1-.42-.85,1.81,1.81,0,0,1,.15-.74,2.58,2.58,0,0,1,.45-.66,4.94,4.94,0,0,1,.6-.57.91.91,0,0,1,.6-.2,1.16,1.16,0,0,1,.63.18l.58.42a3.85,3.85,0,0,0,.79.41,3.43,3.43,0,0,0,1.2.19,2.29,2.29,0,0,0,.94-.19,2,2,0,0,0,.75-.55,2.85,2.85,0,0,0,.5-.85,3.11,3.11,0,0,0,.19-1.09V23.59a1.19,1.19,0,0,1,.52-.93,2.45,2.45,0,0,1,1.33-.29,2.28,2.28,0,0,1,1.25.26,1.13,1.13,0,0,1,.47.69,5.11,5.11,0,0,1,.08.9V34.1a5.84,5.84,0,0,1-.53,2.53,5.75,5.75,0,0,1-1.4,1.88,6.35,6.35,0,0,1-4.18,1.56Zm0-9.1a2.13,2.13,0,0,0,1.2-.34,2.48,2.48,0,0,0,.84-.89,2.45,2.45,0,0,0,.32-1.25,2.5,2.5,0,0,0-.32-1.25,2.36,2.36,0,0,0-.85-.87,2.24,2.24,0,0,0-1.21-.33,2.13,2.13,0,0,0-1.2.34,2.48,2.48,0,0,0-.84.89,2.54,2.54,0,0,0-.31,1.25,2.41,2.41,0,0,0,.32,1.22,2.65,2.65,0,0,0,.87.89A2.2,2.2,0,0,0,178.81,31Z"/><path class="cls-2" d="M193.71,35.15a7.09,7.09,0,0,1-3-.58,5.72,5.72,0,0,1-2.06-1.51,6.16,6.16,0,0,1-1.2-2.09,6.83,6.83,0,0,1-.4-2.3,6.38,6.38,0,0,1,.85-3.32,6.14,6.14,0,0,1,2.37-2.29,7,7,0,0,1,3.46-.83,6.25,6.25,0,0,1,2.51.46,5.23,5.23,0,0,1,1.75,1.2,4.89,4.89,0,0,1,1,1.59,4.32,4.32,0,0,1,.34,1.62,2.82,2.82,0,0,1-.66,2,2.29,2.29,0,0,1-1.69.68h-6a1.76,1.76,0,0,0,.46,1.07,2.85,2.85,0,0,0,1,.7,3.44,3.44,0,0,0,1.32.25,8.1,8.1,0,0,0,1-.06,4.49,4.49,0,0,0,.79-.17l.59-.23.48-.19a2.41,2.41,0,0,1,.43-.1,1,1,0,0,1,.67.22,2.78,2.78,0,0,1,.81,1.23,1.77,1.77,0,0,1,.07.5,1.35,1.35,0,0,1-.62,1.09,4.6,4.6,0,0,1-1.72.74A11.56,11.56,0,0,1,193.71,35.15ZM191,27.75h4a1.06,1.06,0,0,0,.58-.13.65.65,0,0,0,.2-.54,1.26,1.26,0,0,0-.28-.78,1.8,1.8,0,0,0-.74-.54,2.94,2.94,0,0,0-1.08-.18,3,3,0,0,0-1.35.3,2.31,2.31,0,0,0-.94.8A1.84,1.84,0,0,0,191,27.75Z"/><path class="cls-2" d="M203.31,34.91a2.37,2.37,0,0,1-1.31-.27,1.05,1.05,0,0,1-.48-.7,5.31,5.31,0,0,1-.08-.91v-8.8a4.19,4.19,0,0,1,.09-.89,1,1,0,0,1,.49-.66,2.67,2.67,0,0,1,1.32-.25,2.37,2.37,0,0,1,1.18.22,1,1,0,0,1,.49.51,1.73,1.73,0,0,1,.11.56.75.75,0,0,0,0,.36l-.15.48a1.39,1.39,0,0,1,.39-.76,3.35,3.35,0,0,1,.85-.7,4.55,4.55,0,0,1,1.1-.49,3.88,3.88,0,0,1,1.16-.17,5,5,0,0,1,2.14.43,4.42,4.42,0,0,1,1.58,1.27,5.92,5.92,0,0,1,1,1.94,8.16,8.16,0,0,1,.33,2.43v4.55a4.63,4.63,0,0,1-.09.92,1,1,0,0,1-.47.68,2.59,2.59,0,0,1-1.34.25,2.52,2.52,0,0,1-1.32-.26,1.08,1.08,0,0,1-.49-.7,4.53,4.53,0,0,1-.09-.91V28.51a2.74,2.74,0,0,0-.26-1.27,1.76,1.76,0,0,0-.75-.8,2.36,2.36,0,0,0-1.21-.28,2.59,2.59,0,0,0-1.25.29,2,2,0,0,0-.81.81,2.59,2.59,0,0,0-.29,1.25v4.55a4.46,4.46,0,0,1-.09.91,1.06,1.06,0,0,1-.48.69A2.57,2.57,0,0,1,203.31,34.91Z"/><path class="cls-2" d="M222.21,35.17a7.09,7.09,0,0,1-3-.58,5.84,5.84,0,0,1-2.06-1.51,6.25,6.25,0,0,1-1.2-2.09,6.88,6.88,0,0,1-.4-2.3,6.38,6.38,0,0,1,.85-3.32,6.14,6.14,0,0,1,2.37-2.29,7,7,0,0,1,3.46-.84,6.24,6.24,0,0,1,2.51.47,5.23,5.23,0,0,1,1.75,1.2,4.89,4.89,0,0,1,1,1.59,4.28,4.28,0,0,1,.34,1.62,2.82,2.82,0,0,1-.66,2.05,2.29,2.29,0,0,1-1.69.68h-6a1.77,1.77,0,0,0,.46,1.08,2.85,2.85,0,0,0,1,.7,3.44,3.44,0,0,0,1.32.25,8.1,8.1,0,0,0,1-.06,3.7,3.7,0,0,0,.79-.18l.59-.22a4.32,4.32,0,0,1,.48-.19,2.41,2.41,0,0,1,.43-.1,1,1,0,0,1,.67.21,2.06,2.06,0,0,1,.58.72,1.93,1.93,0,0,1,.23.52,1.77,1.77,0,0,1,.07.5,1.35,1.35,0,0,1-.62,1.09,4.61,4.61,0,0,1-1.72.73A11,11,0,0,1,222.21,35.17Zm-2.67-7.4h4a1.06,1.06,0,0,0,.58-.14.61.61,0,0,0,.19-.53,1.18,1.18,0,0,0-.27-.78,1.8,1.8,0,0,0-.74-.54,2.94,2.94,0,0,0-1.08-.19,3,3,0,0,0-1.35.3,2.39,2.39,0,0,0-.94.8A1.87,1.87,0,0,0,219.54,27.77Z"/><path class="cls-2" d="M231.81,35a2.48,2.48,0,0,1-1.31-.26A1.11,1.11,0,0,1,230,34a4.63,4.63,0,0,1-.08-.92V24.32a4.42,4.42,0,0,1,.09-.92,1.08,1.08,0,0,1,.49-.69,2.54,2.54,0,0,1,1.32-.26,2.45,2.45,0,0,1,1.26.24,1,1,0,0,1,.49.55,1.73,1.73,0,0,1,.1.54l-.3.15a2.39,2.39,0,0,1,.26-.37,4.66,4.66,0,0,1,.59-.55,3.55,3.55,0,0,1,.91-.48,3.43,3.43,0,0,1,1.24-.2,4.7,4.7,0,0,1,.62,0,3.26,3.26,0,0,1,.7.15,2.47,2.47,0,0,1,.66.3,1.51,1.51,0,0,1,.48.46A1.13,1.13,0,0,1,239,24a3.09,3.09,0,0,1-.47,1.74,1.4,1.4,0,0,1-1.2.71,2.14,2.14,0,0,1-.61-.06.92.92,0,0,1-.28-.15,1.1,1.1,0,0,0-.26-.15,1.72,1.72,0,0,0-.55-.06,2.46,2.46,0,0,0-.72.1,1.9,1.9,0,0,0-.62.31,1.5,1.5,0,0,0-.45.52,1.53,1.53,0,0,0-.17.72V33.1a4.46,4.46,0,0,1-.09.91,1,1,0,0,1-.49.69A2.53,2.53,0,0,1,231.81,35Z"/><path class="cls-2" d="M251.21,34.94a2.28,2.28,0,0,1-1.37-.33.89.89,0,0,1-.43-.8l.25-.42a3,3,0,0,1-.57.61,4.17,4.17,0,0,1-2.78.93,4.88,4.88,0,0,1-2.19-.5A5.7,5.7,0,0,1,242.29,33,7,7,0,0,1,241,31a6.16,6.16,0,0,1-.47-2.38,6,6,0,0,1,.47-2.33,6.9,6.9,0,0,1,1.29-2A6.51,6.51,0,0,1,244.14,23a5,5,0,0,1,2.18-.5,4.09,4.09,0,0,1,1.57.27,4.15,4.15,0,0,1,1.09.61,3.2,3.2,0,0,1,.66.68l-.22-.36a1,1,0,0,1,.43-.91,2.44,2.44,0,0,1,1.39-.31,2.24,2.24,0,0,1,1.29.28,1.11,1.11,0,0,1,.48.72,5.8,5.8,0,0,1,.08.95V33A4.7,4.7,0,0,1,253,34a1.07,1.07,0,0,1-.48.71A2.37,2.37,0,0,1,251.21,34.94Zm-4.37-3.73a2.13,2.13,0,0,0,1.2-.34,2.57,2.57,0,0,0,.85-.91,2.61,2.61,0,0,0,.32-1.28,2.46,2.46,0,0,0-.32-1.28,2.42,2.42,0,0,0-.88-.89,2.3,2.3,0,0,0-1.22-.33,2.42,2.42,0,0,0-1.26.34,2.53,2.53,0,0,0-.9.91,2.5,2.5,0,0,0-.34,1.3,2.34,2.34,0,0,0,.34,1.24,2.56,2.56,0,0,0,.92.9A2.49,2.49,0,0,0,246.84,31.21Z"/><path class="cls-2" d="M260.38,35a16.21,16.21,0,0,1-1.82-.1,3.9,3.9,0,0,1-1.35-.41,2.39,2.39,0,0,1-.9-.83,4,4,0,0,1-.52-1.38,10,10,0,0,1-.18-2.06V18.64a4,4,0,0,1,.1-.93,1.21,1.21,0,0,1,.49-.7,2.37,2.37,0,0,1,1.31-.27,2.24,2.24,0,0,1,1.29.28,1.15,1.15,0,0,1,.49.7,4.42,4.42,0,0,1,.09.92V30a6.12,6.12,0,0,0,0,.66.9.9,0,0,0,.16.41.49.49,0,0,0,.31.2,2.4,2.4,0,0,0,.52.05,2.55,2.55,0,0,1,.61.08.89.89,0,0,1,.54.45,2.53,2.53,0,0,1,.23,1.25,2.79,2.79,0,0,1-.23,1.3.89.89,0,0,1-.54.47A2.74,2.74,0,0,1,260.38,35Z"/><path class="cls-2" d="M269.81,35.2a7.25,7.25,0,0,1-3-.58,5.84,5.84,0,0,1-2.06-1.51,6.25,6.25,0,0,1-1.2-2.09,6.92,6.92,0,0,1-.4-2.3,6.45,6.45,0,0,1,.85-3.33,6.16,6.16,0,0,1,2.36-2.28,7,7,0,0,1,3.47-.84,6.24,6.24,0,0,1,2.51.47,5.08,5.08,0,0,1,1.75,1.2,4.89,4.89,0,0,1,1,1.59,4.25,4.25,0,0,1,.34,1.62,2.82,2.82,0,0,1-.66,2.05,2.28,2.28,0,0,1-1.69.67h-5.95A1.71,1.71,0,0,0,267.6,31a2.77,2.77,0,0,0,1,.7,3.6,3.6,0,0,0,1.32.25,8.22,8.22,0,0,0,1-.06,4.43,4.43,0,0,0,.79-.18l.58-.22c.18-.08.34-.14.49-.19a2.41,2.41,0,0,1,.43-.1,1,1,0,0,1,.67.21,2.06,2.06,0,0,1,.58.72,1.8,1.8,0,0,1,.23.52,2.15,2.15,0,0,1,.07.5,1.35,1.35,0,0,1-.62,1.09,4.68,4.68,0,0,1-1.72.73A11,11,0,0,1,269.81,35.2Zm-2.67-7.4h3.95a1,1,0,0,0,.57-.14c.14-.09.2-.27.2-.54a1.23,1.23,0,0,0-.27-.77,1.72,1.72,0,0,0-.74-.54,2.8,2.8,0,0,0-1.09-.19,2.91,2.91,0,0,0-1.34.3,2.32,2.32,0,0,0-.94.8A1.84,1.84,0,0,0,267.14,27.8Z"/><path class="cls-2" d="M282,35.18a8,8,0,0,1-1.47-.15,8.79,8.79,0,0,1-1.54-.44,5.08,5.08,0,0,1-1.25-.68,1.24,1.24,0,0,1-.56-.88,1.41,1.41,0,0,1,0-.54,2.37,2.37,0,0,1,.23-.6,3.78,3.78,0,0,1,.44-.66.86.86,0,0,1,.43-.35,1.09,1.09,0,0,1,.59,0,3.15,3.15,0,0,1,.8.27c.27.12.54.25.83.4a8.41,8.41,0,0,0,.87.37,2.68,2.68,0,0,0,.93.16,2.3,2.3,0,0,0,1.08-.21.64.64,0,0,0,.39-.58.61.61,0,0,0-.16-.45,1.27,1.27,0,0,0-.45-.3,4.1,4.1,0,0,0-.68-.24c-.25-.08-.52-.15-.81-.22s-.58-.15-.9-.25a6.8,6.8,0,0,1-1.18-.45,3.67,3.67,0,0,1-1.05-.71,3.1,3.1,0,0,1-.74-1.08,4,4,0,0,1-.28-1.56,3.54,3.54,0,0,1,.57-2.05,3.48,3.48,0,0,1,1.66-1.26,7.34,7.34,0,0,1,2.7-.44,6.8,6.8,0,0,1,.9.06,5.38,5.38,0,0,1,.89.17,7,7,0,0,1,1.71.73,1.13,1.13,0,0,1,.78.95,2.12,2.12,0,0,1-.43,1.25,1.88,1.88,0,0,1-.58.58.82.82,0,0,1-.62.14,4.13,4.13,0,0,1-.86-.34,9.66,9.66,0,0,0-1-.43,2.65,2.65,0,0,0-1-.21,2,2,0,0,0-.73.12,1,1,0,0,0-.45.3.65.65,0,0,0-.14.43.73.73,0,0,0,.18.52,1.58,1.58,0,0,0,.51.31,5.64,5.64,0,0,0,.75.22l.93.21a13.23,13.23,0,0,1,1.39.33,5,5,0,0,1,1.3.62,2.88,2.88,0,0,1,.94,1.07,3.65,3.65,0,0,1,.37,1.78,3.57,3.57,0,0,1-1.38,3A6.38,6.38,0,0,1,282,35.18Z"/><path class="cls-3" d="M43.34,34.84A2.46,2.46,0,0,1,42,34.56a1.11,1.11,0,0,1-.48-.72,4.73,4.73,0,0,1-.09-.93V19.26a3.85,3.85,0,0,1,.1-.91,1.11,1.11,0,0,1,.5-.71,2.35,2.35,0,0,1,1.32-.28H48.5a6.39,6.39,0,0,1,2.1.38,6.18,6.18,0,0,1,2,1.16,6.34,6.34,0,0,1,1.47,1.94,6.17,6.17,0,0,1,.56,2.7,6.06,6.06,0,0,1-.56,2.69,5.87,5.87,0,0,1-1.48,1.91,6.15,6.15,0,0,1-2,1.15,6.4,6.4,0,0,1-2.12.37h-3.2v3.28a3.91,3.91,0,0,1-.1.91,1.11,1.11,0,0,1-.5.71A2.31,2.31,0,0,1,43.34,34.84Zm1.93-9h3.22a2.64,2.64,0,0,0,1.09-.23,2.12,2.12,0,0,0,.9-.76,2.65,2.65,0,0,0,.05-2.58,2.11,2.11,0,0,0-.83-.82,2.44,2.44,0,0,0-1.23-.31h-3.2Z"/><path class="cls-3" d="M58.61,34.85a2.39,2.39,0,0,1-1.31-.27,1,1,0,0,1-.47-.71,4.73,4.73,0,0,1-.09-.93V24.22a4.59,4.59,0,0,1,.09-.93,1,1,0,0,1,.49-.68,2.49,2.49,0,0,1,1.33-.26,2.63,2.63,0,0,1,1.26.23,1,1,0,0,1,.48.55,1.78,1.78,0,0,1,.11.54l-.31.15c0-.06.13-.19.27-.36a3.2,3.2,0,0,1,.59-.55,3.71,3.71,0,0,1,.91-.49,3.62,3.62,0,0,1,1.24-.2c.18,0,.38,0,.61,0a4.89,4.89,0,0,1,.7.15,3.32,3.32,0,0,1,.66.3,1.8,1.8,0,0,1,.49.46,1.23,1.23,0,0,1,.18.68,3.06,3.06,0,0,1-.47,1.74,1.42,1.42,0,0,1-1.2.71,2,2,0,0,1-.6-.06,1.92,1.92,0,0,1-.29-.15.93.93,0,0,0-.26-.15,1.39,1.39,0,0,0-.55-.07,2.71,2.71,0,0,0-.71.1,2.06,2.06,0,0,0-.63.31,1.63,1.63,0,0,0-.45.53,1.51,1.51,0,0,0-.16.71V33a5.4,5.4,0,0,1-.08.91,1.07,1.07,0,0,1-.49.69A2.71,2.71,0,0,1,58.61,34.85Z"/><path class="cls-3" d="M73.81,35.05a6.2,6.2,0,0,1-2.33-.46,7.29,7.29,0,0,1-2.12-1.31,6.53,6.53,0,0,1-1.51-2,6.15,6.15,0,0,1-.56-2.64,6,6,0,0,1,.52-2.51A6.63,6.63,0,0,1,69.22,24a6.75,6.75,0,0,1,2.06-1.41,6,6,0,0,1,2.49-.52A6.33,6.33,0,0,1,77,23a6.4,6.4,0,0,1,2.34,2.34,6.3,6.3,0,0,1,.87,3.27,6.39,6.39,0,0,1-.56,2.72,6.5,6.5,0,0,1-1.5,2,6.57,6.57,0,0,1-2.08,1.29A6.15,6.15,0,0,1,73.81,35.05Zm0-3.77A2.82,2.82,0,0,0,75,31a2.67,2.67,0,0,0,1.05-.9,2.6,2.6,0,0,0,.43-1.52,2.74,2.74,0,0,0-.35-1.4,2.55,2.55,0,0,0-1-.94,2.84,2.84,0,0,0-1.42-.34,2.59,2.59,0,0,0-2.28,1.31,2.6,2.6,0,0,0-.37,1.39,2.68,2.68,0,0,0,.41,1.51,2.49,2.49,0,0,0,1,.9A3,3,0,0,0,73.76,31.28Z"/><path class="cls-3" d="M84,40a2.4,2.4,0,0,1-1.3-.27,1,1,0,0,1-.47-.67,4.23,4.23,0,0,1-.07-.89v-14a5.14,5.14,0,0,1,.08-.91,1,1,0,0,1,.46-.68A2.24,2.24,0,0,1,84,22.36a2.86,2.86,0,0,1,1.24.23,1.29,1.29,0,0,1,.66.7v14.9a3.36,3.36,0,0,1-.07.9,1.11,1.11,0,0,1-.49.68A2.41,2.41,0,0,1,84,40Zm4.81-5.4a4.58,4.58,0,0,1-2.15-.49,4.49,4.49,0,0,1-1.54-1.33,5.75,5.75,0,0,1-.92-1.93,8,8,0,0,1-.29-2.38,8.17,8.17,0,0,1,.33-2.34,6.3,6.3,0,0,1,.94-2,4.27,4.27,0,0,1,1.52-1.35,4.51,4.51,0,0,1,2.12-.49,4.79,4.79,0,0,1,2.15.51,6.15,6.15,0,0,1,1.83,1.36,6.27,6.27,0,0,1,1.27,2,6.15,6.15,0,0,1,.47,2.37A6,6,0,0,1,94.05,31a6.13,6.13,0,0,1-1.26,1.94A5.85,5.85,0,0,1,91,34.18,5.19,5.19,0,0,1,88.79,34.64Zm-.5-3.53a2.38,2.38,0,0,0,1.25-.33,2.62,2.62,0,0,0,.89-.92,2.49,2.49,0,0,0,.34-1.27,2.54,2.54,0,0,0-.33-1.28,2.33,2.33,0,0,0-.89-.9,2.45,2.45,0,0,0-1.23-.32,2.34,2.34,0,0,0-1.24.34,2.42,2.42,0,0,0-.88.89,2.68,2.68,0,0,0-.31,1.27,2.51,2.51,0,0,0,.33,1.27,2.41,2.41,0,0,0,.87.92A2.31,2.31,0,0,0,88.29,31.11Z"/><path class="cls-3" d="M102.56,35.07a6.29,6.29,0,0,1-2.34-.46,7.19,7.19,0,0,1-2.11-1.32,6.38,6.38,0,0,1-1.51-2A6.22,6.22,0,0,1,96,28.62a6,6,0,0,1,.52-2.51A6.67,6.67,0,0,1,98,24,6.75,6.75,0,0,1,100,22.63a6.16,6.16,0,0,1,2.49-.51,6.24,6.24,0,0,1,3.26.87,6.4,6.4,0,0,1,2.34,2.34,6.69,6.69,0,0,1,.31,6,6.66,6.66,0,0,1-1.5,2,6.57,6.57,0,0,1-2.08,1.29A6.36,6.36,0,0,1,102.56,35.07Zm0-3.77a2.85,2.85,0,0,0,1.23-.3,2.67,2.67,0,0,0,1.05-.9,2.61,2.61,0,0,0,.43-1.53,2.77,2.77,0,0,0-.35-1.4,2.48,2.48,0,0,0-1-.93,2.78,2.78,0,0,0-1.41-.34,2.53,2.53,0,0,0-1.34.35,2.73,2.73,0,0,0-1,1,2.93,2.93,0,0,0,0,2.9,2.49,2.49,0,0,0,1,.9A2.94,2.94,0,0,0,102.51,31.3Zm-1-9.83a.85.85,0,0,1-.74-.25,2.63,2.63,0,0,1-.51-1,2,2,0,0,1-.1-1.3,1.35,1.35,0,0,1,.92-.67l4.4-1.35a.88.88,0,0,1,.73.29,2.47,2.47,0,0,1,.5,1,1.88,1.88,0,0,1,.08,1.28,1.32,1.32,0,0,1-.91.67Z"/><path class="cls-3" d="M115.51,35.08a8,8,0,0,1-1.47-.15,8.55,8.55,0,0,1-1.54-.44,5.08,5.08,0,0,1-1.25-.68,1.38,1.38,0,0,1-.55-1.42,2.37,2.37,0,0,1,.23-.6,4.33,4.33,0,0,1,.43-.66.88.88,0,0,1,.44-.35,1.09,1.09,0,0,1,.59,0,3.15,3.15,0,0,1,.8.27c.27.12.54.25.82.4s.58.26.88.37a2.66,2.66,0,0,0,.92.16,2.2,2.2,0,0,0,1.09-.21.64.64,0,0,0,.39-.58.61.61,0,0,0-.16-.45,1.43,1.43,0,0,0-.45-.31,5.37,5.37,0,0,0-.68-.23l-.81-.22c-.28-.06-.58-.15-.9-.25a6.9,6.9,0,0,1-1.19-.45,4,4,0,0,1-1-.71,3.22,3.22,0,0,1-.73-1.08A3.79,3.79,0,0,1,111,26a3.54,3.54,0,0,1,.57-2.05,3.48,3.48,0,0,1,1.66-1.26,7.34,7.34,0,0,1,2.7-.44,6.8,6.8,0,0,1,.9.06,5.38,5.38,0,0,1,.89.17,7,7,0,0,1,1.71.73,1.1,1.1,0,0,1,.77.95,2,2,0,0,1-.42,1.25,2.12,2.12,0,0,1-.58.58.83.83,0,0,1-.62.14,3.93,3.93,0,0,1-.86-.34,9.66,9.66,0,0,0-1-.43,2.85,2.85,0,0,0-1-.21,2,2,0,0,0-.73.12.94.94,0,0,0-.45.3.66.66,0,0,0-.15.43.74.74,0,0,0,.19.52,1.48,1.48,0,0,0,.51.31,5.64,5.64,0,0,0,.75.22l.93.21a12.5,12.5,0,0,1,1.38.33,4.73,4.73,0,0,1,1.3.62,2.91,2.91,0,0,1,1,1.07,3.78,3.78,0,0,1,.36,1.78,3.59,3.59,0,0,1-1.37,3A6.38,6.38,0,0,1,115.51,35.08Z"/><path class="cls-3" d="M125,20.59a2.61,2.61,0,0,1-1.35-.28,1.11,1.11,0,0,1-.49-.73,5.7,5.7,0,0,1-.08-.95,5.64,5.64,0,0,1,.08-1,1.08,1.08,0,0,1,.51-.7,2.66,2.66,0,0,1,1.36-.26,2.33,2.33,0,0,1,1.32.28,1.09,1.09,0,0,1,.49.72,5,5,0,0,1,.09,1,4.7,4.7,0,0,1-.09.92,1.05,1.05,0,0,1-.49.71A2.53,2.53,0,0,1,125,20.59Zm0,14.3a2.43,2.43,0,0,1-1.32-.27,1,1,0,0,1-.48-.7,5.33,5.33,0,0,1-.07-.91V24.28a4.53,4.53,0,0,1,.09-.91,1.08,1.08,0,0,1,.49-.7,2.57,2.57,0,0,1,1.32-.26,2.24,2.24,0,0,1,1.29.28,1.12,1.12,0,0,1,.48.71,5.49,5.49,0,0,1,.08.94V33a4.53,4.53,0,0,1-.09.91,1.06,1.06,0,0,1-.48.69A2.57,2.57,0,0,1,125,34.89Z"/><path class="cls-3" d="M130.29,22.59H133l3.45-.1a4.29,4.29,0,0,1,.9.09,1.08,1.08,0,0,1,.7.49,2.35,2.35,0,0,1,.28,1.32,2.25,2.25,0,0,1-.27,1.25,1.16,1.16,0,0,1-.68.52,3.89,3.89,0,0,1-.93.11l-3.27-.08-3,0a1.23,1.23,0,0,1-1-.46,2.55,2.55,0,0,1-.29-1.39,2.11,2.11,0,0,1,.35-1.33A1.26,1.26,0,0,1,130.29,22.59Zm5.65,12.3a7.87,7.87,0,0,1-2.2-.27,3.65,3.65,0,0,1-1.52-.86,3.5,3.5,0,0,1-.87-1.46,6.62,6.62,0,0,1-.28-2.11V20.06a4.22,4.22,0,0,1,.09-.92,1,1,0,0,1,.49-.66,2.38,2.38,0,0,1,1.3-.27,2.48,2.48,0,0,1,1.3.28,1.12,1.12,0,0,1,.48.71,4.63,4.63,0,0,1,.09.92V30a2.47,2.47,0,0,0,.06.66.79.79,0,0,0,.18.39.73.73,0,0,0,.35.18,2.87,2.87,0,0,0,.55.05,4.1,4.1,0,0,1,1,.1,1,1,0,0,1,.66.45,2.13,2.13,0,0,1,.24,1.17,2.28,2.28,0,0,1-.28,1.3,1,1,0,0,1-.71.48A5.41,5.41,0,0,1,135.94,34.89Z"/><path class="cls-3" d="M146.29,35.1a6.22,6.22,0,0,1-2.34-.47,6.72,6.72,0,0,1-2.11-1.31,6.24,6.24,0,0,1-1.51-2,5.87,5.87,0,0,1-.56-2.64,6.19,6.19,0,0,1,.51-2.51,6.75,6.75,0,0,1,1.41-2.06,6.67,6.67,0,0,1,2.07-1.41,6.08,6.08,0,0,1,2.48-.51,6.39,6.39,0,0,1,3.27.86,6.61,6.61,0,0,1,2.33,2.34,6.37,6.37,0,0,1,.88,3.28,6.2,6.2,0,0,1-.57,2.71,6.35,6.35,0,0,1-1.5,2,6.73,6.73,0,0,1-2.08,1.28A6.32,6.32,0,0,1,146.29,35.1Zm0-3.78a2.78,2.78,0,0,0,1.22-.3,2.67,2.67,0,0,0,1-.9,2.51,2.51,0,0,0,.43-1.52,2.77,2.77,0,0,0-.35-1.4,2.48,2.48,0,0,0-1-.94,2.94,2.94,0,0,0-1.41-.34,2.6,2.6,0,0,0-1.34.35,2.82,2.82,0,0,0-.95,1,2.69,2.69,0,0,0-.36,1.39,2.51,2.51,0,0,0,.41,1.51,2.47,2.47,0,0,0,1,.9A2.83,2.83,0,0,0,146.24,31.32Z"/><path class="cls-3" d="M159.24,35.11a7.41,7.41,0,0,1-1.48-.16,9,9,0,0,1-1.54-.43,5.65,5.65,0,0,1-1.25-.68,1.29,1.29,0,0,1-.56-.89,1.2,1.2,0,0,1,0-.53,2.08,2.08,0,0,1,.22-.6,5.08,5.08,0,0,1,.44-.67.89.89,0,0,1,.44-.35,1,1,0,0,1,.58,0,3.4,3.4,0,0,1,.8.26l.83.4a8.47,8.47,0,0,0,.87.38,2.68,2.68,0,0,0,.93.16,2.32,2.32,0,0,0,1.09-.21.66.66,0,0,0,.38-.59.64.64,0,0,0-.16-.45,1.6,1.6,0,0,0-.45-.3c-.19-.08-.42-.16-.67-.24l-.81-.21c-.29-.07-.59-.15-.91-.25a8.93,8.93,0,0,1-1.18-.45,4,4,0,0,1-1.05-.71,3.19,3.19,0,0,1-.74-1.08,4,4,0,0,1-.27-1.56,3.59,3.59,0,0,1,.56-2.05A3.53,3.53,0,0,1,157,22.67a7.41,7.41,0,0,1,2.7-.44c.3,0,.6,0,.9.05a5.4,5.4,0,0,1,.89.18,6.74,6.74,0,0,1,.86.3,6.09,6.09,0,0,1,.85.42,1.14,1.14,0,0,1,.78.95,2.1,2.1,0,0,1-.43,1.25A1.9,1.9,0,0,1,163,26a.89.89,0,0,1-.63.14,4.36,4.36,0,0,1-.86-.34c-.31-.16-.63-.3-1-.44a2.89,2.89,0,0,0-1-.2,2.18,2.18,0,0,0-.72.11,1.11,1.11,0,0,0-.45.3.77.77,0,0,0,0,.95,1.54,1.54,0,0,0,.52.32,6.32,6.32,0,0,0,.75.22l.92.2c.45.09.91.2,1.39.34a4.85,4.85,0,0,1,1.3.61,3,3,0,0,1,1,1.08,3.76,3.76,0,0,1,.36,1.77,3.58,3.58,0,0,1-1.38,3A6.33,6.33,0,0,1,159.24,35.11Z"/><path class="cls-3" d="M178.39,34.59a4.89,4.89,0,0,1-2.17-.49,5.77,5.77,0,0,1-1.78-1.33,6.5,6.5,0,0,1-1.23-2,5.84,5.84,0,0,1-.44-2.32,6,6,0,0,1,.45-2.31,6.2,6.2,0,0,1,1.24-1.93,5.82,5.82,0,0,1,1.8-1.32,4.7,4.7,0,0,1,2.11-.49,3.84,3.84,0,0,1,1.9.44,3.41,3.41,0,0,1,1.25,1.25,6.74,6.74,0,0,1,.71,1.93,11.79,11.79,0,0,1,.24,2.48,11.33,11.33,0,0,1-.42,3.22,4.2,4.2,0,0,1-1.3,2.1A3.58,3.58,0,0,1,178.39,34.59Zm.44,5.48a7,7,0,0,1-1.76-.23,7.92,7.92,0,0,1-1.59-.6,4.91,4.91,0,0,1-1.15-.8,1.23,1.23,0,0,1-.42-.85,1.81,1.81,0,0,1,.15-.74,2.58,2.58,0,0,1,.45-.66,4.94,4.94,0,0,1,.6-.57.91.91,0,0,1,.6-.2,1.16,1.16,0,0,1,.63.18l.58.42a3.85,3.85,0,0,0,.79.41,3.43,3.43,0,0,0,1.2.19,2.29,2.29,0,0,0,.94-.19,2,2,0,0,0,.75-.55,2.85,2.85,0,0,0,.5-.85,3.11,3.11,0,0,0,.19-1.09V23.59a1.19,1.19,0,0,1,.52-.93,2.45,2.45,0,0,1,1.33-.29,2.28,2.28,0,0,1,1.25.26,1.13,1.13,0,0,1,.47.69,5.11,5.11,0,0,1,.08.9V34.1a5.84,5.84,0,0,1-.53,2.53,5.75,5.75,0,0,1-1.4,1.88,6.35,6.35,0,0,1-4.18,1.56Zm0-9.1a2.13,2.13,0,0,0,1.2-.34,2.48,2.48,0,0,0,.84-.89,2.45,2.45,0,0,0,.32-1.25,2.5,2.5,0,0,0-.32-1.25,2.36,2.36,0,0,0-.85-.87,2.24,2.24,0,0,0-1.21-.33,2.13,2.13,0,0,0-1.2.34,2.48,2.48,0,0,0-.84.89,2.54,2.54,0,0,0-.31,1.25,2.41,2.41,0,0,0,.32,1.22,2.65,2.65,0,0,0,.87.89A2.2,2.2,0,0,0,178.81,31Z"/><path class="cls-3" d="M193.71,35.15a7.09,7.09,0,0,1-3-.58,5.72,5.72,0,0,1-2.06-1.51,6.16,6.16,0,0,1-1.2-2.09,6.83,6.83,0,0,1-.4-2.3,6.38,6.38,0,0,1,.85-3.32,6.14,6.14,0,0,1,2.37-2.29,7,7,0,0,1,3.46-.83,6.25,6.25,0,0,1,2.51.46,5.23,5.23,0,0,1,1.75,1.2,4.89,4.89,0,0,1,1,1.59,4.32,4.32,0,0,1,.34,1.62,2.82,2.82,0,0,1-.66,2,2.29,2.29,0,0,1-1.69.68h-6a1.76,1.76,0,0,0,.46,1.07,2.85,2.85,0,0,0,1,.7,3.44,3.44,0,0,0,1.32.25,8.1,8.1,0,0,0,1-.06,4.49,4.49,0,0,0,.79-.17l.59-.23.48-.19a2.41,2.41,0,0,1,.43-.1,1,1,0,0,1,.67.22,2.78,2.78,0,0,1,.81,1.23,1.77,1.77,0,0,1,.07.5,1.35,1.35,0,0,1-.62,1.09,4.6,4.6,0,0,1-1.72.74A11.56,11.56,0,0,1,193.71,35.15ZM191,27.75h4a1.06,1.06,0,0,0,.58-.13.65.65,0,0,0,.2-.54,1.26,1.26,0,0,0-.28-.78,1.8,1.8,0,0,0-.74-.54,2.94,2.94,0,0,0-1.08-.18,3,3,0,0,0-1.35.3,2.31,2.31,0,0,0-.94.8A1.84,1.84,0,0,0,191,27.75Z"/><path class="cls-3" d="M203.31,34.91a2.37,2.37,0,0,1-1.31-.27,1.05,1.05,0,0,1-.48-.7,5.31,5.31,0,0,1-.08-.91v-8.8a4.19,4.19,0,0,1,.09-.89,1,1,0,0,1,.49-.66,2.67,2.67,0,0,1,1.32-.25,2.37,2.37,0,0,1,1.18.22,1,1,0,0,1,.49.51,1.73,1.73,0,0,1,.11.56.75.75,0,0,0,0,.36l-.15.48a1.39,1.39,0,0,1,.39-.76,3.35,3.35,0,0,1,.85-.7,4.55,4.55,0,0,1,1.1-.49,3.88,3.88,0,0,1,1.16-.17,5,5,0,0,1,2.14.43,4.42,4.42,0,0,1,1.58,1.27,5.92,5.92,0,0,1,1,1.94,8.16,8.16,0,0,1,.33,2.43v4.55a4.63,4.63,0,0,1-.09.92,1,1,0,0,1-.47.68,2.59,2.59,0,0,1-1.34.25,2.52,2.52,0,0,1-1.32-.26,1.08,1.08,0,0,1-.49-.7,4.53,4.53,0,0,1-.09-.91V28.51a2.74,2.74,0,0,0-.26-1.27,1.76,1.76,0,0,0-.75-.8,2.36,2.36,0,0,0-1.21-.28,2.59,2.59,0,0,0-1.25.29,2,2,0,0,0-.81.81,2.59,2.59,0,0,0-.29,1.25v4.55a4.46,4.46,0,0,1-.09.91,1.06,1.06,0,0,1-.48.69A2.57,2.57,0,0,1,203.31,34.91Z"/><path class="cls-3" d="M222.21,35.17a7.09,7.09,0,0,1-3-.58,5.84,5.84,0,0,1-2.06-1.51,6.25,6.25,0,0,1-1.2-2.09,6.88,6.88,0,0,1-.4-2.3,6.38,6.38,0,0,1,.85-3.32,6.14,6.14,0,0,1,2.37-2.29,7,7,0,0,1,3.46-.84,6.24,6.24,0,0,1,2.51.47,5.23,5.23,0,0,1,1.75,1.2,4.89,4.89,0,0,1,1,1.59,4.28,4.28,0,0,1,.34,1.62,2.82,2.82,0,0,1-.66,2.05,2.29,2.29,0,0,1-1.69.68h-6a1.77,1.77,0,0,0,.46,1.08,2.85,2.85,0,0,0,1,.7,3.44,3.44,0,0,0,1.32.25,8.1,8.1,0,0,0,1-.06,3.7,3.7,0,0,0,.79-.18l.59-.22a4.32,4.32,0,0,1,.48-.19,2.41,2.41,0,0,1,.43-.1,1,1,0,0,1,.67.21,2.06,2.06,0,0,1,.58.72,1.93,1.93,0,0,1,.23.52,1.77,1.77,0,0,1,.07.5,1.35,1.35,0,0,1-.62,1.09,4.61,4.61,0,0,1-1.72.73A11,11,0,0,1,222.21,35.17Zm-2.67-7.4h4a1.06,1.06,0,0,0,.58-.14.61.61,0,0,0,.19-.53,1.18,1.18,0,0,0-.27-.78,1.8,1.8,0,0,0-.74-.54,2.94,2.94,0,0,0-1.08-.19,3,3,0,0,0-1.35.3,2.39,2.39,0,0,0-.94.8A1.87,1.87,0,0,0,219.54,27.77Z"/><path class="cls-3" d="M231.81,35a2.48,2.48,0,0,1-1.31-.26A1.11,1.11,0,0,1,230,34a4.63,4.63,0,0,1-.08-.92V24.32a4.42,4.42,0,0,1,.09-.92,1.08,1.08,0,0,1,.49-.69,2.54,2.54,0,0,1,1.32-.26,2.45,2.45,0,0,1,1.26.24,1,1,0,0,1,.49.55,1.73,1.73,0,0,1,.1.54l-.3.15a2.39,2.39,0,0,1,.26-.37,4.66,4.66,0,0,1,.59-.55,3.55,3.55,0,0,1,.91-.48,3.43,3.43,0,0,1,1.24-.2,4.7,4.7,0,0,1,.62,0,3.26,3.26,0,0,1,.7.15,2.47,2.47,0,0,1,.66.3,1.51,1.51,0,0,1,.48.46A1.13,1.13,0,0,1,239,24a3.09,3.09,0,0,1-.47,1.74,1.4,1.4,0,0,1-1.2.71,2.14,2.14,0,0,1-.61-.06.92.92,0,0,1-.28-.15,1.1,1.1,0,0,0-.26-.15,1.72,1.72,0,0,0-.55-.06,2.46,2.46,0,0,0-.72.1,1.9,1.9,0,0,0-.62.31,1.5,1.5,0,0,0-.45.52,1.53,1.53,0,0,0-.17.72V33.1a4.46,4.46,0,0,1-.09.91,1,1,0,0,1-.49.69A2.53,2.53,0,0,1,231.81,35Z"/><path class="cls-3" d="M251.21,34.94a2.28,2.28,0,0,1-1.37-.33.89.89,0,0,1-.43-.8l.25-.42a3,3,0,0,1-.57.61,4.17,4.17,0,0,1-2.78.93,4.88,4.88,0,0,1-2.19-.5A5.7,5.7,0,0,1,242.29,33,7,7,0,0,1,241,31a6.16,6.16,0,0,1-.47-2.38,6,6,0,0,1,.47-2.33,6.9,6.9,0,0,1,1.29-2A6.51,6.51,0,0,1,244.14,23a5,5,0,0,1,2.18-.5,4.09,4.09,0,0,1,1.57.27,4.15,4.15,0,0,1,1.09.61,3.2,3.2,0,0,1,.66.68l-.22-.36a1,1,0,0,1,.43-.91,2.44,2.44,0,0,1,1.39-.31,2.24,2.24,0,0,1,1.29.28,1.11,1.11,0,0,1,.48.72,5.8,5.8,0,0,1,.08.95V33A4.7,4.7,0,0,1,253,34a1.07,1.07,0,0,1-.48.71A2.37,2.37,0,0,1,251.21,34.94Zm-4.37-3.73a2.13,2.13,0,0,0,1.2-.34,2.57,2.57,0,0,0,.85-.91,2.61,2.61,0,0,0,.32-1.28,2.46,2.46,0,0,0-.32-1.28,2.42,2.42,0,0,0-.88-.89,2.3,2.3,0,0,0-1.22-.33,2.42,2.42,0,0,0-1.26.34,2.53,2.53,0,0,0-.9.91,2.5,2.5,0,0,0-.34,1.3,2.34,2.34,0,0,0,.34,1.24,2.56,2.56,0,0,0,.92.9A2.49,2.49,0,0,0,246.84,31.21Z"/><path class="cls-3" d="M260.38,35a16.21,16.21,0,0,1-1.82-.1,3.9,3.9,0,0,1-1.35-.41,2.39,2.39,0,0,1-.9-.83,4,4,0,0,1-.52-1.38,10,10,0,0,1-.18-2.06V18.64a4,4,0,0,1,.1-.93,1.21,1.21,0,0,1,.49-.7,2.37,2.37,0,0,1,1.31-.27,2.24,2.24,0,0,1,1.29.28,1.15,1.15,0,0,1,.49.7,4.42,4.42,0,0,1,.09.92V30a6.12,6.12,0,0,0,0,.66.9.9,0,0,0,.16.41.49.49,0,0,0,.31.2,2.4,2.4,0,0,0,.52.05,2.55,2.55,0,0,1,.61.08.89.89,0,0,1,.54.45,2.53,2.53,0,0,1,.23,1.25,2.79,2.79,0,0,1-.23,1.3.89.89,0,0,1-.54.47A2.74,2.74,0,0,1,260.38,35Z"/><path class="cls-3" d="M269.81,35.2a7.25,7.25,0,0,1-3-.58,5.84,5.84,0,0,1-2.06-1.51,6.25,6.25,0,0,1-1.2-2.09,6.92,6.92,0,0,1-.4-2.3,6.45,6.45,0,0,1,.85-3.33,6.16,6.16,0,0,1,2.36-2.28,7,7,0,0,1,3.47-.84,6.24,6.24,0,0,1,2.51.47,5.08,5.08,0,0,1,1.75,1.2,4.89,4.89,0,0,1,1,1.59,4.25,4.25,0,0,1,.34,1.62,2.82,2.82,0,0,1-.66,2.05,2.28,2.28,0,0,1-1.69.67h-5.95A1.71,1.71,0,0,0,267.6,31a2.77,2.77,0,0,0,1,.7,3.6,3.6,0,0,0,1.32.25,8.22,8.22,0,0,0,1-.06,4.43,4.43,0,0,0,.79-.18l.58-.22c.18-.08.34-.14.49-.19a2.41,2.41,0,0,1,.43-.1,1,1,0,0,1,.67.21,2.06,2.06,0,0,1,.58.72,1.8,1.8,0,0,1,.23.52,2.15,2.15,0,0,1,.07.5,1.35,1.35,0,0,1-.62,1.09,4.68,4.68,0,0,1-1.72.73A11,11,0,0,1,269.81,35.2Zm-2.67-7.4h3.95a1,1,0,0,0,.57-.14c.14-.09.2-.27.2-.54a1.23,1.23,0,0,0-.27-.77,1.72,1.72,0,0,0-.74-.54,2.8,2.8,0,0,0-1.09-.19,2.91,2.91,0,0,0-1.34.3,2.32,2.32,0,0,0-.94.8A1.84,1.84,0,0,0,267.14,27.8Z"/><path class="cls-3" d="M282,35.18a8,8,0,0,1-1.47-.15,8.79,8.79,0,0,1-1.54-.44,5.08,5.08,0,0,1-1.25-.68,1.24,1.24,0,0,1-.56-.88,1.41,1.41,0,0,1,0-.54,2.37,2.37,0,0,1,.23-.6,3.78,3.78,0,0,1,.44-.66.86.86,0,0,1,.43-.35,1.09,1.09,0,0,1,.59,0,3.15,3.15,0,0,1,.8.27c.27.12.54.25.83.4a8.41,8.41,0,0,0,.87.37,2.68,2.68,0,0,0,.93.16,2.3,2.3,0,0,0,1.08-.21.64.64,0,0,0,.39-.58.61.61,0,0,0-.16-.45,1.27,1.27,0,0,0-.45-.3,4.1,4.1,0,0,0-.68-.24c-.25-.08-.52-.15-.81-.22s-.58-.15-.9-.25a6.8,6.8,0,0,1-1.18-.45,3.67,3.67,0,0,1-1.05-.71,3.1,3.1,0,0,1-.74-1.08,4,4,0,0,1-.28-1.56,3.54,3.54,0,0,1,.57-2.05,3.48,3.48,0,0,1,1.66-1.26,7.34,7.34,0,0,1,2.7-.44,6.8,6.8,0,0,1,.9.06,5.38,5.38,0,0,1,.89.17,7,7,0,0,1,1.71.73,1.13,1.13,0,0,1,.78.95,2.12,2.12,0,0,1-.43,1.25,1.88,1.88,0,0,1-.58.58.82.82,0,0,1-.62.14,4.13,4.13,0,0,1-.86-.34,9.66,9.66,0,0,0-1-.43,2.65,2.65,0,0,0-1-.21,2,2,0,0,0-.73.12,1,1,0,0,0-.45.3.65.65,0,0,0-.14.43.73.73,0,0,0,.18.52,1.58,1.58,0,0,0,.51.31,5.64,5.64,0,0,0,.75.22l.93.21a13.23,13.23,0,0,1,1.39.33,5,5,0,0,1,1.3.62,2.88,2.88,0,0,1,.94,1.07,3.65,3.65,0,0,1,.37,1.78,3.57,3.57,0,0,1-1.38,3A6.38,6.38,0,0,1,282,35.18Z"/><path class="cls-2" d="M43.34,34.84A2.46,2.46,0,0,1,42,34.56a1.11,1.11,0,0,1-.48-.72,4.73,4.73,0,0,1-.09-.93V19.26a3.85,3.85,0,0,1,.1-.91,1.11,1.11,0,0,1,.5-.71,2.35,2.35,0,0,1,1.32-.28H48.5a6.39,6.39,0,0,1,2.1.38,6.18,6.18,0,0,1,2,1.16,6.34,6.34,0,0,1,1.47,1.94,6.17,6.17,0,0,1,.56,2.7,6.06,6.06,0,0,1-.56,2.69,5.87,5.87,0,0,1-1.48,1.91,6.15,6.15,0,0,1-2,1.15,6.4,6.4,0,0,1-2.12.37h-3.2v3.28a3.91,3.91,0,0,1-.1.91,1.11,1.11,0,0,1-.5.71A2.31,2.31,0,0,1,43.34,34.84Zm1.93-9h3.22a2.64,2.64,0,0,0,1.09-.23,2.12,2.12,0,0,0,.9-.76,2.65,2.65,0,0,0,.05-2.58,2.11,2.11,0,0,0-.83-.82,2.44,2.44,0,0,0-1.23-.31h-3.2Z"/><path class="cls-2" d="M58.61,34.85a2.39,2.39,0,0,1-1.31-.27,1,1,0,0,1-.47-.71,4.73,4.73,0,0,1-.09-.93V24.22a4.59,4.59,0,0,1,.09-.93,1,1,0,0,1,.49-.68,2.49,2.49,0,0,1,1.33-.26,2.63,2.63,0,0,1,1.26.23,1,1,0,0,1,.48.55,1.78,1.78,0,0,1,.11.54l-.31.15c0-.06.13-.19.27-.36a3.2,3.2,0,0,1,.59-.55,3.71,3.71,0,0,1,.91-.49,3.62,3.62,0,0,1,1.24-.2c.18,0,.38,0,.61,0a4.89,4.89,0,0,1,.7.15,3.32,3.32,0,0,1,.66.3,1.8,1.8,0,0,1,.49.46,1.23,1.23,0,0,1,.18.68,3.06,3.06,0,0,1-.47,1.74,1.42,1.42,0,0,1-1.2.71,2,2,0,0,1-.6-.06,1.92,1.92,0,0,1-.29-.15.93.93,0,0,0-.26-.15,1.39,1.39,0,0,0-.55-.07,2.71,2.71,0,0,0-.71.1,2.06,2.06,0,0,0-.63.31,1.63,1.63,0,0,0-.45.53,1.51,1.51,0,0,0-.16.71V33a5.4,5.4,0,0,1-.08.91,1.07,1.07,0,0,1-.49.69A2.71,2.71,0,0,1,58.61,34.85Z"/><path class="cls-2" d="M73.81,35.05a6.2,6.2,0,0,1-2.33-.46,7.29,7.29,0,0,1-2.12-1.31,6.53,6.53,0,0,1-1.51-2,6.15,6.15,0,0,1-.56-2.64,6,6,0,0,1,.52-2.51A6.63,6.63,0,0,1,69.22,24a6.75,6.75,0,0,1,2.06-1.41,6,6,0,0,1,2.49-.52A6.33,6.33,0,0,1,77,23a6.4,6.4,0,0,1,2.34,2.34,6.3,6.3,0,0,1,.87,3.27,6.39,6.39,0,0,1-.56,2.72,6.5,6.5,0,0,1-1.5,2,6.57,6.57,0,0,1-2.08,1.29A6.15,6.15,0,0,1,73.81,35.05Zm0-3.77A2.82,2.82,0,0,0,75,31a2.67,2.67,0,0,0,1.05-.9,2.6,2.6,0,0,0,.43-1.52,2.74,2.74,0,0,0-.35-1.4,2.55,2.55,0,0,0-1-.94,2.84,2.84,0,0,0-1.42-.34,2.59,2.59,0,0,0-2.28,1.31,2.6,2.6,0,0,0-.37,1.39,2.68,2.68,0,0,0,.41,1.51,2.49,2.49,0,0,0,1,.9A3,3,0,0,0,73.76,31.28Z"/><path class="cls-2" d="M84,40a2.4,2.4,0,0,1-1.3-.27,1,1,0,0,1-.47-.67,4.23,4.23,0,0,1-.07-.89v-14a5.14,5.14,0,0,1,.08-.91,1,1,0,0,1,.46-.68A2.24,2.24,0,0,1,84,22.36a2.86,2.86,0,0,1,1.24.23,1.29,1.29,0,0,1,.66.7v14.9a3.36,3.36,0,0,1-.07.9,1.11,1.11,0,0,1-.49.68A2.41,2.41,0,0,1,84,40Zm4.81-5.4a4.58,4.58,0,0,1-2.15-.49,4.49,4.49,0,0,1-1.54-1.33,5.75,5.75,0,0,1-.92-1.93,8,8,0,0,1-.29-2.38,8.17,8.17,0,0,1,.33-2.34,6.3,6.3,0,0,1,.94-2,4.27,4.27,0,0,1,1.52-1.35,4.51,4.51,0,0,1,2.12-.49,4.79,4.79,0,0,1,2.15.51,6.15,6.15,0,0,1,1.83,1.36,6.27,6.27,0,0,1,1.27,2,6.15,6.15,0,0,1,.47,2.37A6,6,0,0,1,94.05,31a6.13,6.13,0,0,1-1.26,1.94A5.85,5.85,0,0,1,91,34.18,5.19,5.19,0,0,1,88.79,34.64Zm-.5-3.53a2.38,2.38,0,0,0,1.25-.33,2.62,2.62,0,0,0,.89-.92,2.49,2.49,0,0,0,.34-1.27,2.54,2.54,0,0,0-.33-1.28,2.33,2.33,0,0,0-.89-.9,2.45,2.45,0,0,0-1.23-.32,2.34,2.34,0,0,0-1.24.34,2.42,2.42,0,0,0-.88.89,2.68,2.68,0,0,0-.31,1.27,2.51,2.51,0,0,0,.33,1.27,2.41,2.41,0,0,0,.87.92A2.31,2.31,0,0,0,88.29,31.11Z"/><path class="cls-2" d="M102.56,35.07a6.29,6.29,0,0,1-2.34-.46,7.19,7.19,0,0,1-2.11-1.32,6.38,6.38,0,0,1-1.51-2A6.22,6.22,0,0,1,96,28.62a6,6,0,0,1,.52-2.51A6.67,6.67,0,0,1,98,24,6.75,6.75,0,0,1,100,22.63a6.16,6.16,0,0,1,2.49-.51,6.24,6.24,0,0,1,3.26.87,6.4,6.4,0,0,1,2.34,2.34,6.69,6.69,0,0,1,.31,6,6.66,6.66,0,0,1-1.5,2,6.57,6.57,0,0,1-2.08,1.29A6.36,6.36,0,0,1,102.56,35.07Zm0-3.77a2.85,2.85,0,0,0,1.23-.3,2.67,2.67,0,0,0,1.05-.9,2.61,2.61,0,0,0,.43-1.53,2.77,2.77,0,0,0-.35-1.4,2.48,2.48,0,0,0-1-.93,2.78,2.78,0,0,0-1.41-.34,2.53,2.53,0,0,0-1.34.35,2.73,2.73,0,0,0-1,1,2.93,2.93,0,0,0,0,2.9,2.49,2.49,0,0,0,1,.9A2.94,2.94,0,0,0,102.51,31.3Zm-1-9.83a.85.85,0,0,1-.74-.25,2.63,2.63,0,0,1-.51-1,2,2,0,0,1-.1-1.3,1.35,1.35,0,0,1,.92-.67l4.4-1.35a.88.88,0,0,1,.73.29,2.47,2.47,0,0,1,.5,1,1.88,1.88,0,0,1,.08,1.28,1.32,1.32,0,0,1-.91.67Z"/><path class="cls-2" d="M115.51,35.08a8,8,0,0,1-1.47-.15,8.55,8.55,0,0,1-1.54-.44,5.08,5.08,0,0,1-1.25-.68,1.38,1.38,0,0,1-.55-1.42,2.37,2.37,0,0,1,.23-.6,4.33,4.33,0,0,1,.43-.66.88.88,0,0,1,.44-.35,1.09,1.09,0,0,1,.59,0,3.15,3.15,0,0,1,.8.27c.27.12.54.25.82.4s.58.26.88.37a2.66,2.66,0,0,0,.92.16,2.2,2.2,0,0,0,1.09-.21.64.64,0,0,0,.39-.58.61.61,0,0,0-.16-.45,1.43,1.43,0,0,0-.45-.31,5.37,5.37,0,0,0-.68-.23l-.81-.22c-.28-.06-.58-.15-.9-.25a6.9,6.9,0,0,1-1.19-.45,4,4,0,0,1-1-.71,3.22,3.22,0,0,1-.73-1.08A3.79,3.79,0,0,1,111,26a3.54,3.54,0,0,1,.57-2.05,3.48,3.48,0,0,1,1.66-1.26,7.34,7.34,0,0,1,2.7-.44,6.8,6.8,0,0,1,.9.06,5.38,5.38,0,0,1,.89.17,7,7,0,0,1,1.71.73,1.1,1.1,0,0,1,.77.95,2,2,0,0,1-.42,1.25,2.12,2.12,0,0,1-.58.58.83.83,0,0,1-.62.14,3.93,3.93,0,0,1-.86-.34,9.66,9.66,0,0,0-1-.43,2.85,2.85,0,0,0-1-.21,2,2,0,0,0-.73.12.94.94,0,0,0-.45.3.66.66,0,0,0-.15.43.74.74,0,0,0,.19.52,1.48,1.48,0,0,0,.51.31,5.64,5.64,0,0,0,.75.22l.93.21a12.5,12.5,0,0,1,1.38.33,4.73,4.73,0,0,1,1.3.62,2.91,2.91,0,0,1,1,1.07,3.78,3.78,0,0,1,.36,1.78,3.59,3.59,0,0,1-1.37,3A6.38,6.38,0,0,1,115.51,35.08Z"/><path class="cls-2" d="M125,20.59a2.61,2.61,0,0,1-1.35-.28,1.11,1.11,0,0,1-.49-.73,5.7,5.7,0,0,1-.08-.95,5.64,5.64,0,0,1,.08-1,1.08,1.08,0,0,1,.51-.7,2.66,2.66,0,0,1,1.36-.26,2.33,2.33,0,0,1,1.32.28,1.09,1.09,0,0,1,.49.72,5,5,0,0,1,.09,1,4.7,4.7,0,0,1-.09.92,1.05,1.05,0,0,1-.49.71A2.53,2.53,0,0,1,125,20.59Zm0,14.3a2.43,2.43,0,0,1-1.32-.27,1,1,0,0,1-.48-.7,5.33,5.33,0,0,1-.07-.91V24.28a4.53,4.53,0,0,1,.09-.91,1.08,1.08,0,0,1,.49-.7,2.57,2.57,0,0,1,1.32-.26,2.24,2.24,0,0,1,1.29.28,1.12,1.12,0,0,1,.48.71,5.49,5.49,0,0,1,.08.94V33a4.53,4.53,0,0,1-.09.91,1.06,1.06,0,0,1-.48.69A2.57,2.57,0,0,1,125,34.89Z"/><path class="cls-2" d="M130.29,22.59H133l3.45-.1a4.29,4.29,0,0,1,.9.09,1.08,1.08,0,0,1,.7.49,2.35,2.35,0,0,1,.28,1.32,2.25,2.25,0,0,1-.27,1.25,1.16,1.16,0,0,1-.68.52,3.89,3.89,0,0,1-.93.11l-3.27-.08-3,0a1.23,1.23,0,0,1-1-.46,2.55,2.55,0,0,1-.29-1.39,2.11,2.11,0,0,1,.35-1.33A1.26,1.26,0,0,1,130.29,22.59Zm5.65,12.3a7.87,7.87,0,0,1-2.2-.27,3.65,3.65,0,0,1-1.52-.86,3.5,3.5,0,0,1-.87-1.46,6.62,6.62,0,0,1-.28-2.11V20.06a4.22,4.22,0,0,1,.09-.92,1,1,0,0,1,.49-.66,2.38,2.38,0,0,1,1.3-.27,2.48,2.48,0,0,1,1.3.28,1.12,1.12,0,0,1,.48.71,4.63,4.63,0,0,1,.09.92V30a2.47,2.47,0,0,0,.06.66.79.79,0,0,0,.18.39.73.73,0,0,0,.35.18,2.87,2.87,0,0,0,.55.05,4.1,4.1,0,0,1,1,.1,1,1,0,0,1,.66.45,2.13,2.13,0,0,1,.24,1.17,2.28,2.28,0,0,1-.28,1.3,1,1,0,0,1-.71.48A5.41,5.41,0,0,1,135.94,34.89Z"/><path class="cls-2" d="M146.29,35.1a6.22,6.22,0,0,1-2.34-.47,6.72,6.72,0,0,1-2.11-1.31,6.24,6.24,0,0,1-1.51-2,5.87,5.87,0,0,1-.56-2.64,6.19,6.19,0,0,1,.51-2.51,6.75,6.75,0,0,1,1.41-2.06,6.67,6.67,0,0,1,2.07-1.41,6.08,6.08,0,0,1,2.48-.51,6.39,6.39,0,0,1,3.27.86,6.61,6.61,0,0,1,2.33,2.34,6.37,6.37,0,0,1,.88,3.28,6.2,6.2,0,0,1-.57,2.71,6.35,6.35,0,0,1-1.5,2,6.73,6.73,0,0,1-2.08,1.28A6.32,6.32,0,0,1,146.29,35.1Zm0-3.78a2.78,2.78,0,0,0,1.22-.3,2.67,2.67,0,0,0,1-.9,2.51,2.51,0,0,0,.43-1.52,2.77,2.77,0,0,0-.35-1.4,2.48,2.48,0,0,0-1-.94,2.94,2.94,0,0,0-1.41-.34,2.6,2.6,0,0,0-1.34.35,2.82,2.82,0,0,0-.95,1,2.69,2.69,0,0,0-.36,1.39,2.51,2.51,0,0,0,.41,1.51,2.47,2.47,0,0,0,1,.9A2.83,2.83,0,0,0,146.24,31.32Z"/><path class="cls-2" d="M159.24,35.11a7.41,7.41,0,0,1-1.48-.16,9,9,0,0,1-1.54-.43,5.65,5.65,0,0,1-1.25-.68,1.29,1.29,0,0,1-.56-.89,1.2,1.2,0,0,1,0-.53,2.08,2.08,0,0,1,.22-.6,5.08,5.08,0,0,1,.44-.67.89.89,0,0,1,.44-.35,1,1,0,0,1,.58,0,3.4,3.4,0,0,1,.8.26l.83.4a8.47,8.47,0,0,0,.87.38,2.68,2.68,0,0,0,.93.16,2.32,2.32,0,0,0,1.09-.21.66.66,0,0,0,.38-.59.64.64,0,0,0-.16-.45,1.6,1.6,0,0,0-.45-.3c-.19-.08-.42-.16-.67-.24l-.81-.21c-.29-.07-.59-.15-.91-.25a8.93,8.93,0,0,1-1.18-.45,4,4,0,0,1-1.05-.71,3.19,3.19,0,0,1-.74-1.08,4,4,0,0,1-.27-1.56,3.59,3.59,0,0,1,.56-2.05A3.53,3.53,0,0,1,157,22.67a7.41,7.41,0,0,1,2.7-.44c.3,0,.6,0,.9.05a5.4,5.4,0,0,1,.89.18,6.74,6.74,0,0,1,.86.3,6.09,6.09,0,0,1,.85.42,1.14,1.14,0,0,1,.78.95,2.1,2.1,0,0,1-.43,1.25A1.9,1.9,0,0,1,163,26a.89.89,0,0,1-.63.14,4.36,4.36,0,0,1-.86-.34c-.31-.16-.63-.3-1-.44a2.89,2.89,0,0,0-1-.2,2.18,2.18,0,0,0-.72.11,1.11,1.11,0,0,0-.45.3.77.77,0,0,0,0,.95,1.54,1.54,0,0,0,.52.32,6.32,6.32,0,0,0,.75.22l.92.2c.45.09.91.2,1.39.34a4.85,4.85,0,0,1,1.3.61,3,3,0,0,1,1,1.08,3.76,3.76,0,0,1,.36,1.77,3.58,3.58,0,0,1-1.38,3A6.33,6.33,0,0,1,159.24,35.11Z"/><path class="cls-2" d="M178.39,34.59a4.89,4.89,0,0,1-2.17-.49,5.77,5.77,0,0,1-1.78-1.33,6.5,6.5,0,0,1-1.23-2,5.84,5.84,0,0,1-.44-2.32,6,6,0,0,1,.45-2.31,6.2,6.2,0,0,1,1.24-1.93,5.82,5.82,0,0,1,1.8-1.32,4.7,4.7,0,0,1,2.11-.49,3.84,3.84,0,0,1,1.9.44,3.41,3.41,0,0,1,1.25,1.25,6.74,6.74,0,0,1,.71,1.93,11.79,11.79,0,0,1,.24,2.48,11.33,11.33,0,0,1-.42,3.22,4.2,4.2,0,0,1-1.3,2.1A3.58,3.58,0,0,1,178.39,34.59Zm.44,5.48a7,7,0,0,1-1.76-.23,7.92,7.92,0,0,1-1.59-.6,4.91,4.91,0,0,1-1.15-.8,1.23,1.23,0,0,1-.42-.85,1.81,1.81,0,0,1,.15-.74,2.58,2.58,0,0,1,.45-.66,4.94,4.94,0,0,1,.6-.57.91.91,0,0,1,.6-.2,1.16,1.16,0,0,1,.63.18l.58.42a3.85,3.85,0,0,0,.79.41,3.43,3.43,0,0,0,1.2.19,2.29,2.29,0,0,0,.94-.19,2,2,0,0,0,.75-.55,2.85,2.85,0,0,0,.5-.85,3.11,3.11,0,0,0,.19-1.09V23.59a1.19,1.19,0,0,1,.52-.93,2.45,2.45,0,0,1,1.33-.29,2.28,2.28,0,0,1,1.25.26,1.13,1.13,0,0,1,.47.69,5.11,5.11,0,0,1,.08.9V34.1a5.84,5.84,0,0,1-.53,2.53,5.75,5.75,0,0,1-1.4,1.88,6.35,6.35,0,0,1-4.18,1.56Zm0-9.1a2.13,2.13,0,0,0,1.2-.34,2.48,2.48,0,0,0,.84-.89,2.45,2.45,0,0,0,.32-1.25,2.5,2.5,0,0,0-.32-1.25,2.36,2.36,0,0,0-.85-.87,2.24,2.24,0,0,0-1.21-.33,2.13,2.13,0,0,0-1.2.34,2.48,2.48,0,0,0-.84.89,2.54,2.54,0,0,0-.31,1.25,2.41,2.41,0,0,0,.32,1.22,2.65,2.65,0,0,0,.87.89A2.2,2.2,0,0,0,178.81,31Z"/><path class="cls-2" d="M193.71,35.15a7.09,7.09,0,0,1-3-.58,5.72,5.72,0,0,1-2.06-1.51,6.16,6.16,0,0,1-1.2-2.09,6.83,6.83,0,0,1-.4-2.3,6.38,6.38,0,0,1,.85-3.32,6.14,6.14,0,0,1,2.37-2.29,7,7,0,0,1,3.46-.83,6.25,6.25,0,0,1,2.51.46,5.23,5.23,0,0,1,1.75,1.2,4.89,4.89,0,0,1,1,1.59,4.32,4.32,0,0,1,.34,1.62,2.82,2.82,0,0,1-.66,2,2.29,2.29,0,0,1-1.69.68h-6a1.76,1.76,0,0,0,.46,1.07,2.85,2.85,0,0,0,1,.7,3.44,3.44,0,0,0,1.32.25,8.1,8.1,0,0,0,1-.06,4.49,4.49,0,0,0,.79-.17l.59-.23.48-.19a2.41,2.41,0,0,1,.43-.1,1,1,0,0,1,.67.22,2.78,2.78,0,0,1,.81,1.23,1.77,1.77,0,0,1,.07.5,1.35,1.35,0,0,1-.62,1.09,4.6,4.6,0,0,1-1.72.74A11.56,11.56,0,0,1,193.71,35.15ZM191,27.75h4a1.06,1.06,0,0,0,.58-.13.65.65,0,0,0,.2-.54,1.26,1.26,0,0,0-.28-.78,1.8,1.8,0,0,0-.74-.54,2.94,2.94,0,0,0-1.08-.18,3,3,0,0,0-1.35.3,2.31,2.31,0,0,0-.94.8A1.84,1.84,0,0,0,191,27.75Z"/><path class="cls-2" d="M203.31,34.91a2.37,2.37,0,0,1-1.31-.27,1.05,1.05,0,0,1-.48-.7,5.31,5.31,0,0,1-.08-.91v-8.8a4.19,4.19,0,0,1,.09-.89,1,1,0,0,1,.49-.66,2.67,2.67,0,0,1,1.32-.25,2.37,2.37,0,0,1,1.18.22,1,1,0,0,1,.49.51,1.73,1.73,0,0,1,.11.56.75.75,0,0,0,0,.36l-.15.48a1.39,1.39,0,0,1,.39-.76,3.35,3.35,0,0,1,.85-.7,4.55,4.55,0,0,1,1.1-.49,3.88,3.88,0,0,1,1.16-.17,5,5,0,0,1,2.14.43,4.42,4.42,0,0,1,1.58,1.27,5.92,5.92,0,0,1,1,1.94,8.16,8.16,0,0,1,.33,2.43v4.55a4.63,4.63,0,0,1-.09.92,1,1,0,0,1-.47.68,2.59,2.59,0,0,1-1.34.25,2.52,2.52,0,0,1-1.32-.26,1.08,1.08,0,0,1-.49-.7,4.53,4.53,0,0,1-.09-.91V28.51a2.74,2.74,0,0,0-.26-1.27,1.76,1.76,0,0,0-.75-.8,2.36,2.36,0,0,0-1.21-.28,2.59,2.59,0,0,0-1.25.29,2,2,0,0,0-.81.81,2.59,2.59,0,0,0-.29,1.25v4.55a4.46,4.46,0,0,1-.09.91,1.06,1.06,0,0,1-.48.69A2.57,2.57,0,0,1,203.31,34.91Z"/><path class="cls-2" d="M222.21,35.17a7.09,7.09,0,0,1-3-.58,5.84,5.84,0,0,1-2.06-1.51,6.25,6.25,0,0,1-1.2-2.09,6.88,6.88,0,0,1-.4-2.3,6.38,6.38,0,0,1,.85-3.32,6.14,6.14,0,0,1,2.37-2.29,7,7,0,0,1,3.46-.84,6.24,6.24,0,0,1,2.51.47,5.23,5.23,0,0,1,1.75,1.2,4.89,4.89,0,0,1,1,1.59,4.28,4.28,0,0,1,.34,1.62,2.82,2.82,0,0,1-.66,2.05,2.29,2.29,0,0,1-1.69.68h-6a1.77,1.77,0,0,0,.46,1.08,2.85,2.85,0,0,0,1,.7,3.44,3.44,0,0,0,1.32.25,8.1,8.1,0,0,0,1-.06,3.7,3.7,0,0,0,.79-.18l.59-.22a4.32,4.32,0,0,1,.48-.19,2.41,2.41,0,0,1,.43-.1,1,1,0,0,1,.67.21,2.06,2.06,0,0,1,.58.72,1.93,1.93,0,0,1,.23.52,1.77,1.77,0,0,1,.07.5,1.35,1.35,0,0,1-.62,1.09,4.61,4.61,0,0,1-1.72.73A11,11,0,0,1,222.21,35.17Zm-2.67-7.4h4a1.06,1.06,0,0,0,.58-.14.61.61,0,0,0,.19-.53,1.18,1.18,0,0,0-.27-.78,1.8,1.8,0,0,0-.74-.54,2.94,2.94,0,0,0-1.08-.19,3,3,0,0,0-1.35.3,2.39,2.39,0,0,0-.94.8A1.87,1.87,0,0,0,219.54,27.77Z"/><path class="cls-2" d="M231.81,35a2.48,2.48,0,0,1-1.31-.26A1.11,1.11,0,0,1,230,34a4.63,4.63,0,0,1-.08-.92V24.32a4.42,4.42,0,0,1,.09-.92,1.08,1.08,0,0,1,.49-.69,2.54,2.54,0,0,1,1.32-.26,2.45,2.45,0,0,1,1.26.24,1,1,0,0,1,.49.55,1.73,1.73,0,0,1,.1.54l-.3.15a2.39,2.39,0,0,1,.26-.37,4.66,4.66,0,0,1,.59-.55,3.55,3.55,0,0,1,.91-.48,3.43,3.43,0,0,1,1.24-.2,4.7,4.7,0,0,1,.62,0,3.26,3.26,0,0,1,.7.15,2.47,2.47,0,0,1,.66.3,1.51,1.51,0,0,1,.48.46A1.13,1.13,0,0,1,239,24a3.09,3.09,0,0,1-.47,1.74,1.4,1.4,0,0,1-1.2.71,2.14,2.14,0,0,1-.61-.06.92.92,0,0,1-.28-.15,1.1,1.1,0,0,0-.26-.15,1.72,1.72,0,0,0-.55-.06,2.46,2.46,0,0,0-.72.1,1.9,1.9,0,0,0-.62.31,1.5,1.5,0,0,0-.45.52,1.53,1.53,0,0,0-.17.72V33.1a4.46,4.46,0,0,1-.09.91,1,1,0,0,1-.49.69A2.53,2.53,0,0,1,231.81,35Z"/><path class="cls-2" d="M251.21,34.94a2.28,2.28,0,0,1-1.37-.33.89.89,0,0,1-.43-.8l.25-.42a3,3,0,0,1-.57.61,4.17,4.17,0,0,1-2.78.93,4.88,4.88,0,0,1-2.19-.5A5.7,5.7,0,0,1,242.29,33,7,7,0,0,1,241,31a6.16,6.16,0,0,1-.47-2.38,6,6,0,0,1,.47-2.33,6.9,6.9,0,0,1,1.29-2A6.51,6.51,0,0,1,244.14,23a5,5,0,0,1,2.18-.5,4.09,4.09,0,0,1,1.57.27,4.15,4.15,0,0,1,1.09.61,3.2,3.2,0,0,1,.66.68l-.22-.36a1,1,0,0,1,.43-.91,2.44,2.44,0,0,1,1.39-.31,2.24,2.24,0,0,1,1.29.28,1.11,1.11,0,0,1,.48.72,5.8,5.8,0,0,1,.08.95V33A4.7,4.7,0,0,1,253,34a1.07,1.07,0,0,1-.48.71A2.37,2.37,0,0,1,251.21,34.94Zm-4.37-3.73a2.13,2.13,0,0,0,1.2-.34,2.57,2.57,0,0,0,.85-.91,2.61,2.61,0,0,0,.32-1.28,2.46,2.46,0,0,0-.32-1.28,2.42,2.42,0,0,0-.88-.89,2.3,2.3,0,0,0-1.22-.33,2.42,2.42,0,0,0-1.26.34,2.53,2.53,0,0,0-.9.91,2.5,2.5,0,0,0-.34,1.3,2.34,2.34,0,0,0,.34,1.24,2.56,2.56,0,0,0,.92.9A2.49,2.49,0,0,0,246.84,31.21Z"/><path class="cls-2" d="M260.38,35a16.21,16.21,0,0,1-1.82-.1,3.9,3.9,0,0,1-1.35-.41,2.39,2.39,0,0,1-.9-.83,4,4,0,0,1-.52-1.38,10,10,0,0,1-.18-2.06V18.64a4,4,0,0,1,.1-.93,1.21,1.21,0,0,1,.49-.7,2.37,2.37,0,0,1,1.31-.27,2.24,2.24,0,0,1,1.29.28,1.15,1.15,0,0,1,.49.7,4.42,4.42,0,0,1,.09.92V30a6.12,6.12,0,0,0,0,.66.9.9,0,0,0,.16.41.49.49,0,0,0,.31.2,2.4,2.4,0,0,0,.52.05,2.55,2.55,0,0,1,.61.08.89.89,0,0,1,.54.45,2.53,2.53,0,0,1,.23,1.25,2.79,2.79,0,0,1-.23,1.3.89.89,0,0,1-.54.47A2.74,2.74,0,0,1,260.38,35Z"/><path class="cls-2" d="M269.81,35.2a7.25,7.25,0,0,1-3-.58,5.84,5.84,0,0,1-2.06-1.51,6.25,6.25,0,0,1-1.2-2.09,6.92,6.92,0,0,1-.4-2.3,6.45,6.45,0,0,1,.85-3.33,6.16,6.16,0,0,1,2.36-2.28,7,7,0,0,1,3.47-.84,6.24,6.24,0,0,1,2.51.47,5.08,5.08,0,0,1,1.75,1.2,4.89,4.89,0,0,1,1,1.59,4.25,4.25,0,0,1,.34,1.62,2.82,2.82,0,0,1-.66,2.05,2.28,2.28,0,0,1-1.69.67h-5.95A1.71,1.71,0,0,0,267.6,31a2.77,2.77,0,0,0,1,.7,3.6,3.6,0,0,0,1.32.25,8.22,8.22,0,0,0,1-.06,4.43,4.43,0,0,0,.79-.18l.58-.22c.18-.08.34-.14.49-.19a2.41,2.41,0,0,1,.43-.1,1,1,0,0,1,.67.21,2.06,2.06,0,0,1,.58.72,1.8,1.8,0,0,1,.23.52,2.15,2.15,0,0,1,.07.5,1.35,1.35,0,0,1-.62,1.09,4.68,4.68,0,0,1-1.72.73A11,11,0,0,1,269.81,35.2Zm-2.67-7.4h3.95a1,1,0,0,0,.57-.14c.14-.09.2-.27.2-.54a1.23,1.23,0,0,0-.27-.77,1.72,1.72,0,0,0-.74-.54,2.8,2.8,0,0,0-1.09-.19,2.91,2.91,0,0,0-1.34.3,2.32,2.32,0,0,0-.94.8A1.84,1.84,0,0,0,267.14,27.8Z"/><path class="cls-2" d="M282,35.18a8,8,0,0,1-1.47-.15,8.79,8.79,0,0,1-1.54-.44,5.08,5.08,0,0,1-1.25-.68,1.24,1.24,0,0,1-.56-.88,1.41,1.41,0,0,1,0-.54,2.37,2.37,0,0,1,.23-.6,3.78,3.78,0,0,1,.44-.66.86.86,0,0,1,.43-.35,1.09,1.09,0,0,1,.59,0,3.15,3.15,0,0,1,.8.27c.27.12.54.25.83.4a8.41,8.41,0,0,0,.87.37,2.68,2.68,0,0,0,.93.16,2.3,2.3,0,0,0,1.08-.21.64.64,0,0,0,.39-.58.61.61,0,0,0-.16-.45,1.27,1.27,0,0,0-.45-.3,4.1,4.1,0,0,0-.68-.24c-.25-.08-.52-.15-.81-.22s-.58-.15-.9-.25a6.8,6.8,0,0,1-1.18-.45,3.67,3.67,0,0,1-1.05-.71,3.1,3.1,0,0,1-.74-1.08,4,4,0,0,1-.28-1.56,3.54,3.54,0,0,1,.57-2.05,3.48,3.48,0,0,1,1.66-1.26,7.34,7.34,0,0,1,2.7-.44,6.8,6.8,0,0,1,.9.06,5.38,5.38,0,0,1,.89.17,7,7,0,0,1,1.71.73,1.13,1.13,0,0,1,.78.95,2.12,2.12,0,0,1-.43,1.25,1.88,1.88,0,0,1-.58.58.82.82,0,0,1-.62.14,4.13,4.13,0,0,1-.86-.34,9.66,9.66,0,0,0-1-.43,2.65,2.65,0,0,0-1-.21,2,2,0,0,0-.73.12,1,1,0,0,0-.45.3.65.65,0,0,0-.14.43.73.73,0,0,0,.18.52,1.58,1.58,0,0,0,.51.31,5.64,5.64,0,0,0,.75.22l.93.21a13.23,13.23,0,0,1,1.39.33,5,5,0,0,1,1.3.62,2.88,2.88,0,0,1,.94,1.07,3.65,3.65,0,0,1,.37,1.78,3.57,3.57,0,0,1-1.38,3A6.38,6.38,0,0,1,282,35.18Z"/></g></g></svg>