<?xml version="1.0" encoding="utf-8"?>
<!-- Generator: Adobe Illustrator 24.0.2, SVG Export Plug-In . SVG Version: 6.00 Build 0)  -->
<svg version="1.1" id="Layer_1" xmlns="http://www.w3.org/2000/svg" xmlns:xlink="http://www.w3.org/1999/xlink" x="0px" y="0px"
	 viewBox="0 0 84 84" style="enable-background:new 0 0 84 84;" xml:space="preserve">
<style type="text/css">
	.st0{fill:#EE3976;}
	.st1{fill:none;stroke:#720343;stroke-width:3.18;}
	.st2{fill:#FFFFFF;}
</style>
<title>botonp</title>
<g id="Layer_2_1_">
	<g id="Portada_Guia_1">
		<circle class="st0" cx="42" cy="42" r="33.5"/>
		<circle class="st1" cx="42" cy="42" r="40.4"/>
		<path class="st2" d="M60.5,44.3L42.1,54.9c-1.7,1-3.9,0.4-4.9-1.3c-0.3-0.5-0.5-1.2-0.5-1.8V30.6c0-2,1.6-3.6,3.6-3.6
			c0.6,0,1.2,0.2,1.8,0.5l18.4,10.6c1.7,1,2.3,3.2,1.3,4.9C61.5,43.6,61,44,60.5,44.3z"/>
		<path class="st2" d="M28.5,35.4h9.3c1.8,0,3.3,1.5,3.3,3.3v5.2c0,1.8-1.5,3.3-3.3,3.3h-9.3c-1.8,0-3.3-1.5-3.3-3.3v-5.2
			C25.2,36.9,26.7,35.4,28.5,35.4z"/>
	</g>
</g>
</svg>
