<svg xmlns="http://www.w3.org/2000/svg" viewBox="0 0 482.82 516.83"><defs><style>.cls-1{fill:#e5e5e5;}.cls-2{fill:#004f27;}.cls-11,.cls-16,.cls-3,.cls-5{fill:#441216;}.cls-12,.cls-13,.cls-14,.cls-15,.cls-17,.cls-18,.cls-19,.cls-4,.cls-7{fill:#fff;}.cls-10,.cls-11,.cls-12,.cls-13,.cls-14,.cls-16,.cls-17,.cls-18,.cls-19,.cls-20,.cls-21,.cls-22,.cls-23,.cls-4,.cls-5,.cls-6,.cls-7,.cls-8,.cls-9{stroke:#000;}.cls-10,.cls-11,.cls-12,.cls-13,.cls-16,.cls-17,.cls-18,.cls-19,.cls-20,.cls-21,.cls-22,.cls-23,.cls-4,.cls-5,.cls-6,.cls-7,.cls-8,.cls-9{stroke-miterlimit:10;}.cls-4{stroke-width:4.14px;}.cls-5{stroke-width:2.39px;}.cls-6{fill:#82000a;}.cls-6,.cls-9{stroke-width:3.99px;}.cls-7,.cls-8{stroke-width:2.09px;}.cls-10,.cls-21,.cls-8{fill:none;}.cls-9{fill:#c1272d;}.cls-10,.cls-14,.cls-21{stroke-linecap:round;}.cls-10{stroke-width:6.76px;}.cls-11{stroke-width:2.66px;}.cls-12{stroke-width:2.52px;}.cls-13,.cls-14{stroke-width:2.61px;}.cls-14{stroke-linejoin:round;}.cls-16{stroke-width:2.28px;}.cls-17{stroke-width:2.19px;}.cls-18{stroke-width:1.64px;}.cls-19{stroke-width:2.8px;}.cls-20{stroke-width:0.33px;}.cls-21{stroke-width:5.59px;}.cls-22{fill:#d85067;stroke-width:1.2px;}.cls-23{stroke-width:0.24px;}</style></defs><title>lpa</title><g id="Layer_2" data-name="Layer 2"><g id="GUIA_3_A" data-name="GUIA 3 A"><path class="cls-1" d="M205.08,505.36a79.24,79.24,0,0,0,9-1c.83-.14,15-2.48,20-2.48h.13c5.81.05,16.81,2.22,23.38,3.52l.86.17a22.68,22.68,0,0,0,4.39.43,21.82,21.82,0,0,0,19-11c1.75,6.52-.91,11.24-4.36,13.62C268,515.19,260.06,513.77,250,512a103.64,103.64,0,0,0-14.25-1.84,125.27,125.27,0,0,0-22.34,1.27c-10.45,1.29-18,2.23-28-3.34-6.07-3.39-7.1-9.91-7.09-13.95C183.87,501,193.89,505.36,205.08,505.36Z"/><path class="cls-2" d="M205.08,462.11a36.61,36.61,0,0,1,15.14,3.16l.1,0c.06,0,6.62,2.64,10.72,12.23a1.41,1.41,0,1,0,2.59-1.1,29.59,29.59,0,0,0-6.54-9.77,29.59,29.59,0,0,1,10.25-11,39.61,39.61,0,0,0,10.5,2.67H248a1.41,1.41,0,0,0,.17-2.81,37.23,37.23,0,0,1-10.33-2.69l-.14-.07c-4.72-2.11-7.64-5.07-7.64-8.21,0-6.14,11-11.33,24-11.33s24,5.19,24,11.33c0,3.36-3.33,6.54-8.73,8.67l-.19.08a35.8,35.8,0,0,1-6.39,1.79,1.41,1.41,0,0,0,.52,2.77,39.08,39.08,0,0,0,6.33-1.72,29.53,29.53,0,0,1,11.18,34.64l-.06.18A19,19,0,0,1,259,502.82l-.86-.17c-7.1-1.4-17.83-3.51-23.9-3.57-5.24-.06-20,2.42-20.67,2.52l-.07,0a78.79,78.79,0,0,1-8.46.92c-11.7,0-22.34-5.29-26.46-13.17a15.05,15.05,0,0,1-1.78-7.05C176.83,471.18,189.5,462.11,205.08,462.11Z"/><path d="M205.08,459.29a39.57,39.57,0,0,1,16.28,3.39,16.81,16.81,0,0,1,3.55,2.11,32.24,32.24,0,0,1,9.48-10.54c-4.47-2.54-7.14-6-7.14-9.67,0-7.94,11.77-14.15,26.8-14.15s26.79,6.21,26.79,14.15c0,4-3.06,7.7-8.26,10.29a32.34,32.34,0,0,1,11,36.37c4,9.48.18,16.52-4.43,19.7a28.12,28.12,0,0,1-16.77,5.36,74,74,0,0,1-12.89-1.56,100.06,100.06,0,0,0-13.88-1.8,123.5,123.5,0,0,0-21.86,1.24c-10.57,1.32-18.91,2.35-29.68-3.67-6-3.34-7.87-9.22-8.39-13.57a23.64,23.64,0,0,1,.18-6.77,17.81,17.81,0,0,1-1.85-7.85C174,469.62,188,459.29,205.08,459.29Zm-19.64,48.76c10,5.57,17.51,4.63,28,3.34a125.27,125.27,0,0,1,22.34-1.27A103.64,103.64,0,0,1,250,512c10.07,1.81,18,3.23,27.56-3.34,3.45-2.38,6.11-7.1,4.36-13.62a21.82,21.82,0,0,1-19,11,22.68,22.68,0,0,1-4.39-.43l-.86-.17c-6.57-1.3-17.57-3.47-23.38-3.52h-.13c-5,0-19.17,2.34-20,2.48a79.24,79.24,0,0,1-9,1c-11.19,0-21.21-4.32-26.73-11.26C178.34,498.14,179.37,504.66,185.44,508.05Zm-6.83-18.68c4.12,7.88,14.76,13.17,26.46,13.17a78.79,78.79,0,0,0,8.46-.92l.07,0c.63-.1,15.43-2.58,20.67-2.52,6.07.06,16.8,2.17,23.9,3.57l.86.17A19,19,0,0,0,280.68,491l.06-.18a29.53,29.53,0,0,0-11.18-34.64,39.08,39.08,0,0,1-6.33,1.72,1.41,1.41,0,0,1-.52-2.77,35.8,35.8,0,0,0,6.39-1.79l.19-.08c5.4-2.13,8.73-5.31,8.73-8.67,0-6.14-11-11.33-24-11.33s-24,5.19-24,11.33c0,3.14,2.92,6.1,7.64,8.21l.14.07a37.23,37.23,0,0,0,10.33,2.69,1.41,1.41,0,0,1-.17,2.81h-.17a39.61,39.61,0,0,1-10.5-2.67,29.59,29.59,0,0,0-10.25,11,29.59,29.59,0,0,1,6.54,9.77,1.41,1.41,0,1,1-2.59,1.1c-4.1-9.59-10.66-12.2-10.72-12.23l-.1,0a36.61,36.61,0,0,0-15.14-3.16c-15.58,0-28.25,9.07-28.25,20.21A15.05,15.05,0,0,0,178.61,489.37Z"/><path class="cls-3" d="M255.07,446a10.38,10.38,0,0,1-10.28-8.76c-8.69-53.43,15.37-108.71,16.4-111a10.43,10.43,0,0,1,9.54-6.22,10.47,10.47,0,0,1,9.72,6.67,10.37,10.37,0,0,1-.19,8c-.22.51-22.54,52.18-14.89,99.26a10.43,10.43,0,0,1-8.62,12A10.48,10.48,0,0,1,255.07,446Z"/><path d="M270.73,321.35a9,9,0,0,1,8.27,12.7c-.36.82-22.72,52.54-15,100a9,9,0,0,1-17.86,2.9c-8.62-53,15.28-107.94,16.3-110.25a9.06,9.06,0,0,1,8.28-5.39m0-2.77h0a11.82,11.82,0,0,0-10.81,7c-1,2.34-25.25,58-16.5,111.81a11.75,11.75,0,0,0,11.65,9.92,12.16,12.16,0,0,0,1.9-.15,11.83,11.83,0,0,0,9.77-13.55c-7.58-46.63,14.57-98,14.79-98.49a11.81,11.81,0,0,0-10.8-16.58Z"/><path class="cls-4" d="M244.17,419.75h20.07a2,2,0,0,1,2,2v13.42a12,12,0,0,1-12,12h0a12,12,0,0,1-12-12V421.71A2,2,0,0,1,244.17,419.75Z" transform="translate(-26.06 16.38) rotate(-3.51)"/><path class="cls-1" d="M380.78,505.9a79.86,79.86,0,0,1-9-1c-.83-.14-15-2.47-20-2.47h-.13c-5.82.05-16.81,2.22-23.39,3.51l-.85.17a22.75,22.75,0,0,1-4.39.43,21.79,21.79,0,0,1-19-11c-1.76,6.53.91,11.24,4.36,13.62,9.53,6.58,17.49,5.15,27.56,3.35a103.38,103.38,0,0,1,14.25-1.85,126.34,126.34,0,0,1,22.34,1.27c10.45,1.3,18,2.23,28-3.33,6.06-3.39,7.09-9.92,7.09-14C402,501.57,392,505.9,380.78,505.9Z"/><path class="cls-2" d="M380.78,462.64a36.65,36.65,0,0,0-15.15,3.16l-.09,0c-.06,0-6.62,2.63-10.72,12.23a1.41,1.41,0,1,1-2.59-1.11,29.68,29.68,0,0,1,6.53-9.76,29.41,29.41,0,0,0-10.24-11,40.49,40.49,0,0,1-10.5,2.67h-.18a1.41,1.41,0,0,1-.17-2.81,37.2,37.2,0,0,0,10.34-2.7l.14-.06c4.71-2.11,7.63-5.08,7.63-8.22,0-6.14-11-11.33-24-11.33s-24,5.19-24,11.33c0,3.37,3.33,6.54,8.73,8.68l.19.07a35.8,35.8,0,0,0,6.39,1.79,1.41,1.41,0,0,1,1.12,1.65,1.39,1.39,0,0,1-1.64,1.12,39.86,39.86,0,0,1-6.33-1.71,29.51,29.51,0,0,0-11.18,34.63l.06.18a19,19,0,0,0,21.65,11.83l.86-.17c7.1-1.39,17.83-3.51,23.9-3.56,5.24-.07,20,2.41,20.66,2.52h.08a79.4,79.4,0,0,0,8.46.93c11.7,0,22.34-5.3,26.46-13.17a15.11,15.11,0,0,0,1.78-7.05C409,471.71,396.36,462.64,380.78,462.64Z"/><path d="M411.85,482.86A17.77,17.77,0,0,1,410,490.7a23.71,23.71,0,0,1,.18,6.78c-.52,4.34-2.39,10.22-8.39,13.57-10.77,6-19.11,5-29.68,3.67a123.52,123.52,0,0,0-21.87-1.25,101.45,101.45,0,0,0-13.87,1.8,73,73,0,0,1-12.89,1.56,28.17,28.17,0,0,1-16.77-5.35c-4.61-3.19-8.47-10.23-4.43-19.71a32.29,32.29,0,0,1,11-36.37c-5.19-2.59-8.25-6.25-8.25-10.29,0-7.93,11.77-14.15,26.79-14.15s26.79,6.22,26.79,14.15c0,3.72-2.66,7.13-7.13,9.67A32.45,32.45,0,0,1,361,465.32a15.83,15.83,0,0,1,3.55-2.1,39.42,39.42,0,0,1,16.28-3.4C397.91,459.82,411.85,470.15,411.85,482.86Zm-4.34,11.77C402,501.57,392,505.9,380.78,505.9a79.86,79.86,0,0,1-9-1c-.83-.14-15-2.47-20-2.47h-.13c-5.82.05-16.81,2.22-23.39,3.51l-.85.17a22.75,22.75,0,0,1-4.39.43,21.79,21.79,0,0,1-19-11c-1.76,6.53.91,11.24,4.36,13.62,9.53,6.58,17.49,5.15,27.56,3.35a103.38,103.38,0,0,1,14.25-1.85,126.34,126.34,0,0,1,22.34,1.27c10.45,1.3,18,2.23,28-3.33C406.48,505.2,407.51,498.67,407.51,494.63ZM409,482.86c0-11.15-12.67-20.22-28.25-20.22a36.65,36.65,0,0,0-15.15,3.16l-.09,0c-.06,0-6.62,2.63-10.72,12.23a1.41,1.41,0,1,1-2.59-1.11,29.68,29.68,0,0,1,6.53-9.76,29.41,29.41,0,0,0-10.24-11,40.49,40.49,0,0,1-10.5,2.67h-.18a1.41,1.41,0,0,1-.17-2.81,37.2,37.2,0,0,0,10.34-2.7l.14-.06c4.71-2.11,7.63-5.08,7.63-8.22,0-6.14-11-11.33-24-11.33s-24,5.19-24,11.33c0,3.37,3.33,6.54,8.73,8.68l.19.07a35.8,35.8,0,0,0,6.39,1.79,1.41,1.41,0,0,1,1.12,1.65,1.39,1.39,0,0,1-1.64,1.12,39.86,39.86,0,0,1-6.33-1.71,29.51,29.51,0,0,0-11.18,34.63l.06.18a19,19,0,0,0,21.65,11.83l.86-.17c7.1-1.39,17.83-3.51,23.9-3.56,5.24-.07,20,2.41,20.66,2.52h.08a79.4,79.4,0,0,0,8.46.93c11.7,0,22.34-5.3,26.46-13.17A15.11,15.11,0,0,0,409,482.86Z"/><path class="cls-5" d="M330.79,445.12a9,9,0,0,0,8.91-7.6c8.62-53-15.28-107.94-16.3-110.25a9,9,0,0,0-16.54,7.31c.36.82,22.71,52.54,15,100a9.06,9.06,0,0,0,8.94,10.5Z"/><path class="cls-4" d="M331.65,420.28h0a12,12,0,0,1,12,12V445.7a2,2,0,0,1-2,2H321.62a2,2,0,0,1-2-2V432.28a12,12,0,0,1,12-12Z" transform="translate(636.1 887.44) rotate(-176.49)"/><rect class="cls-6" x="187.49" y="2" width="243.75" height="331.01"/><rect class="cls-7" x="358.65" y="1.57" width="66.78" height="331.01"/><line class="cls-8" x1="370.19" y1="2.05" x2="370.19" y2="333.03"/><line class="cls-8" x1="381.74" y1="1.57" x2="381.74" y2="333.44"/><line class="cls-8" x1="393.28" y1="1.57" x2="393.28" y2="333.44"/><line class="cls-8" x1="404.82" y1="2.16" x2="404.82" y2="333.09"/><line class="cls-8" x1="416.37" y1="2.16" x2="416.37" y2="333.09"/><rect class="cls-9" x="154.61" y="2.41" width="243.75" height="331.01"/><path class="cls-10" d="M171.18,27S110,27,154,46.53"/><path class="cls-10" d="M171.18,90.49s-61.23,0-17.2,19.56"/><path class="cls-10" d="M171.18,154S110,154,154,173.57"/><path class="cls-10" d="M171.18,217.52s-61.23,0-17.2,19.57"/><path class="cls-10" d="M171.18,281S110,281,154,300.6"/><path class="cls-11" d="M428.92,296.32c20.62-1.26,38.67-12.3,47.3-29.47A50.52,50.52,0,0,0,481.13,238a60.24,60.24,0,0,0-3.89-15.44c-8.22-20.73-28.54-35.47-53-38.47a11.67,11.67,0,0,0-2.83,23.16c16,2,29.11,11.12,34.18,23.91,2.06,5.19,4.77,15.36-.17,25.18-5.53,11-18.48,17.54-33,16.67a11.67,11.67,0,0,0-1.4,23.29A65.71,65.71,0,0,0,428.92,296.32Z"/><ellipse class="cls-12" cx="417.34" cy="310.53" rx="7.71" ry="4.5" transform="translate(-93.69 213.34) rotate(-25.88)"/><path class="cls-13" d="M416.45,267.94h0a5.4,5.4,0,0,1,7.21-.69l.14.11A30.39,30.39,0,0,1,436,294.43l0,.34a6.41,6.41,0,0,1-5.68,5.68h0a4.25,4.25,0,0,1-3.95-1.79l-8.43-12.15a22.4,22.4,0,0,1-4-11.68h0A9.59,9.59,0,0,1,416.45,267.94Z"/><path class="cls-14" d="M419.12,277.56h0a21.88,21.88,0,0,0-26.77.42,34.31,34.31,0,0,0-5.49,5.67,45.88,45.88,0,0,0-2.87,4.57,23.2,23.2,0,0,0-1.52,18.42h0a2.25,2.25,0,0,0,4,.54l4.93-7.38"/><ellipse class="cls-15" cx="405.4" cy="294.56" rx="19.51" ry="15.17" transform="translate(-85.23 396.54) rotate(-47.74)"/><path class="cls-14" d="M389.48,296.69a21.44,21.44,0,0,0-4.24,8.15A13.5,13.5,0,0,0,389.07,318a14,14,0,0,0,1.75,1.38,6.82,6.82,0,0,0,7.85-.34h0"/><path class="cls-14" d="M398.58,305Q396,309.9,396,317.6a9.46,9.46,0,0,0,1.8,5.89,13.12,13.12,0,0,0,10.9,5.38c.41,0,.81,0,1.2-.05a18.89,18.89,0,0,0,8.82-3.06l6.81-4.41a5.76,5.76,0,0,0,2.32-7l-.08-.2a3.87,3.87,0,0,0-4.62-2.06l-8.73,2.62a.47.47,0,0,1-.43-.82l4.69-3.77a18.29,18.29,0,0,0,6.6-17.39c-.27-1.58-.59-3.17-.87-4.75"/><path class="cls-16" d="M154.8,184.63l-1.92,25.93c-1.9-.13-19.15-1.64-42.6-13.26a175.06,175.06,0,0,1-38.81-26.47,212.9,212.9,0,0,1-34.83-40.52l21.68-15.13c17.4,26.36,38.48,45.95,62.72,58.29C139.65,182.94,153.58,184.51,154.8,184.63Z"/><path class="cls-17" d="M63.92,101.28s9.56,7.47-2,20.06c-13.42,14.58-43.41,13.09-37.31-5.76Z"/><ellipse class="cls-15" cx="34.7" cy="97.64" rx="20.29" ry="20.72" transform="translate(-37.55 23.36) rotate(-24.64)"/><path class="cls-15" d="M10.76,101.28a23.87,23.87,0,0,0,4.77,11.19A15.19,15.19,0,0,0,24,118h0a22.38,22.38,0,0,0,10.82,0l4.09-1"/><path d="M9.77,101.56c1.08,7.19,5.41,14.49,12.52,17a22.45,22.45,0,0,0,11.92.61c1.68-.35,3.35-.83,5-1.26a1,1,0,0,0-.55-2c-1.36.35-2.71.71-4.07,1a21.1,21.1,0,0,1-11-.15c-6.86-2-10.81-9.09-11.82-15.81-.19-1.3-2.17-.75-2,.55Z"/><path class="cls-18" d="M17.9,76.86c-4.28-3.1-8.36-3.76-12.24-2A7.41,7.41,0,0,0,2,78.37,12,12,0,0,0,.83,84.15a14.88,14.88,0,0,0,.55,3.3c.29,1,.59,2,.91,2.89a23,23,0,0,0,6.63,9.59h0a14.05,14.05,0,0,0,6.86,3.24l.65.11a6.39,6.39,0,0,0,5-1.25h0a4.71,4.71,0,0,0,1.8-3.82v-.43a15.53,15.53,0,0,0-3.92-9.93l-6-6.78a.15.15,0,0,1,.2-.23l8.85,5.39a.25.25,0,0,0,.34-.33Z"/><path class="cls-18" d="M31.69,67C27.34,63.25,23,62.15,18.6,63.66a8,8,0,0,0-4.35,3.5,13,13,0,0,0-1.77,6.16A15.75,15.75,0,0,0,12.76,77c.21,1.16.45,2.23.72,3.23a24.92,24.92,0,0,0,6.28,11h0a15.36,15.36,0,0,0,7.15,4.17l.69.18a7,7,0,0,0,5.56-.89h0a5.12,5.12,0,0,0,2.32-4l0-.46a17.06,17.06,0,0,0-3.32-11.16l-5.88-7.92a.17.17,0,0,1,.24-.24l9.1,6.69a.27.27,0,0,0,.41-.32Z"/><path class="cls-17" d="M51.06,71.77,41.93,48.68,36.1,34a9,9,0,0,0-10.56-5.41l-.09,0c-4.13,2-5.88,6.13-5.86,11.83C20.78,54.24,27.53,66.33,35,78.19Z"/><path class="cls-15" d="M49.1,112.36c8-4.34,16.64-7.76,15.83-25.51-.41-7.82-3.05-13-7.88-15.56a9.23,9.23,0,0,0-6.11-.85A34.71,34.71,0,0,0,43,72.93a19.7,19.7,0,0,1-7.53,1.67,16.53,16.53,0,0,0-3.27.39A7.89,7.89,0,0,0,30.4,89.47a14.32,14.32,0,0,0,7.84,2.09,20.88,20.88,0,0,0,13.19-5.27L40.25,93.48a6,6,0,0,1-.57.28,4,4,0,0,0-1.8,2,9.79,9.79,0,0,0-.62,6.53l1.14,4.81"/><path d="M49.62,113.25c4.94-2.67,10.05-5.23,13.1-10.18a23.73,23.73,0,0,0,3.11-10.16,33.39,33.39,0,0,0-1.2-13.7,15.43,15.43,0,0,0-6.31-8.37c-4.4-2.73-9.54-1.33-14,.46a26,26,0,0,1-7.86,2.22c-2.38.18-4.83.2-6.94,1.49a9.08,9.08,0,0,0-3.61,10.63c1.54,4.45,6.69,6.63,11.07,6.92,5.63.37,11-2,15.21-5.54.9-.74-.27-2.24-1.24-1.61l-8.59,5.52c-1.09.7-2.18,1.37-3.3,2-3,1.74-3.43,6.22-2.84,9.26.34,1.75.82,3.48,1.23,5.21.3,1.28,2.28.74,2-.54-.35-1.51-.71-3-1.06-4.51a9.92,9.92,0,0,1-.21-3.91A7.62,7.62,0,0,1,39,95.81a4,4,0,0,1,1.72-1.45c2.68-1.55,5.24-3.36,7.84-5L52,87.18,50.7,85.57a20.43,20.43,0,0,1-12.06,5c-3.66.15-8.47-1.12-10.4-4.57a7,7,0,0,1,3.07-9.59c2.1-.93,4.52-.66,6.75-1a27.16,27.16,0,0,0,6.58-2.05c4-1.64,8.8-3.19,12.77-.66a13.44,13.44,0,0,1,5.4,7.55,32.54,32.54,0,0,1,1,12.31,21.88,21.88,0,0,1-2.6,9c-2.81,4.88-7.86,7.3-12.63,9.88-1.16.62-.12,2.4,1,1.77Z"/><ellipse class="cls-19" cx="326.66" cy="159.18" rx="33.11" ry="49.02"/><ellipse class="cls-19" cx="238.27" cy="156.6" rx="33.11" ry="49.02"/><ellipse class="cls-20" cx="221.1" cy="157.3" rx="17.03" ry="25.22"/><ellipse class="cls-20" cx="308.89" cy="157.3" rx="17.03" ry="25.22"/><path class="cls-21" d="M350.21,93.68s-17.58-18.35-34.59,0"/><path class="cls-21" d="M254.45,93.68s-17.59-18.35-34.59,0"/><circle class="cls-15" cx="315.09" cy="147.71" r="5.11"/><circle class="cls-15" cx="226.32" cy="147.71" r="5.11"/><path class="cls-22" d="M324.55,231.11a10.36,10.36,0,0,1,5.65,19,84,84,0,0,1-91.34,0,10.36,10.36,0,0,1,11.27-17.38,63.27,63.27,0,0,0,68.79,0A10.34,10.34,0,0,1,324.55,231.11Z"/><path class="cls-23" d="M244.5,238a3.47,3.47,0,0,1,1.89.56,70.16,70.16,0,0,0,76.28,0,3.47,3.47,0,0,1,3.78,5.82,77.11,77.11,0,0,1-83.84,0A3.47,3.47,0,0,1,244.5,238Z"/></g></g></svg>