<svg xmlns="http://www.w3.org/2000/svg" viewBox="0 0 413.49 529.88"><defs><style>.cls-1,.cls-17{fill:#c08d54;}.cls-1,.cls-10,.cls-11,.cls-12,.cls-13,.cls-14,.cls-20,.cls-21,.cls-22,.cls-23,.cls-24,.cls-25,.cls-26,.cls-27,.cls-28,.cls-29,.cls-30,.cls-31,.cls-32,.cls-33,.cls-5,.cls-6,.cls-7,.cls-8,.cls-9{stroke:#000;}.cls-1,.cls-10,.cls-11,.cls-12,.cls-13,.cls-14,.cls-21,.cls-22,.cls-23,.cls-24,.cls-25,.cls-26,.cls-27,.cls-28,.cls-29,.cls-30,.cls-31,.cls-32,.cls-33,.cls-5,.cls-6,.cls-7,.cls-8,.cls-9{stroke-miterlimit:10;}.cls-1{stroke-width:2.37px;}.cls-11,.cls-2,.cls-20,.cls-28,.cls-29,.cls-6,.cls-8{fill:#fff;}.cls-3{fill:#259959;}.cls-4{fill:#004f27;}.cls-5,.cls-7{fill:#441216;}.cls-5{stroke-width:1.96px;}.cls-6{stroke-width:2.42px;}.cls-7{stroke-width:1.87px;}.cls-8,.cls-9{stroke-width:1.38px;}.cls-12,.cls-14,.cls-19,.cls-31,.cls-9{fill:none;}.cls-14,.cls-19,.cls-20,.cls-31,.cls-9{stroke-linecap:round;}.cls-10{fill:#82000a;}.cls-10,.cls-13{stroke-width:2.74px;}.cls-11,.cls-12{stroke-width:1.43px;}.cls-13{fill:#c1272d;}.cls-14{stroke-width:4.64px;}.cls-15{fill:#747e7f;}.cls-16{fill:#9ba7a7;}.cls-18{fill:#996e43;}.cls-19{stroke:#4d4d4d;stroke-width:0.84px;stroke-dasharray:2.81;}.cls-19,.cls-20{stroke-linejoin:round;}.cls-20{stroke-width:0.81px;}.cls-21{fill:#ffd396;stroke-width:0.35px;}.cls-22{stroke-width:0.32px;}.cls-23{fill:#fbca2c;}.cls-23,.cls-24,.cls-25,.cls-26{stroke-width:0.33px;}.cls-24{fill:#f4b21c;}.cls-25{fill:#cac3b9;}.cls-26{fill:#fc5465;}.cls-27{stroke-width:0.29px;}.cls-28{stroke-width:1.75px;}.cls-29{stroke-width:1.94px;}.cls-30{stroke-width:0.23px;}.cls-31{stroke-width:3.89px;}.cls-32{fill:#d85067;stroke-width:0.84px;}.cls-33{stroke-width:0.17px;}</style></defs><title>lpb</title><g id="Layer_2" data-name="Layer 2"><g id="GUIA_3_B" data-name="GUIA 3 B"><rect class="cls-1" x="80.87" y="152.92" width="237.53" height="77.13" rx="8.52"/><path class="cls-2" d="M191.61,474.12c-4.49,5.3-13.54,8.35-24.82,8.35-12.14,0-22-3.25-26.28-8.69a11.35,11.35,0,0,1-1.56-2.61,6.29,6.29,0,0,0-.9,3.17c0,7.12,13.16,13.14,28.74,13.14s28.75-6,28.75-13.14a6.93,6.93,0,0,0-1.61-4.22A12.5,12.5,0,0,1,191.61,474.12Z"/><path class="cls-3" d="M166.79,479.64c10.3,0,18.77-2.75,22.67-7.35a9.08,9.08,0,0,0,2.16-7.64c-1.46-8.79-10.66-18.13-24.83-18.13-13.67,0-22.76,6.69-25.59,18.83a7.5,7.5,0,0,0,1.53,6.67C146.45,476.72,155.68,479.64,166.79,479.64Z"/><path class="cls-4" d="M186.38,450.65c-1.17-6.76-3.72-12.82-7.27-17.11a27.39,27.39,0,0,1-4.39,1.23,1.28,1.28,0,1,1-.49-2.52,24.75,24.75,0,0,0,4.42-1.3l0,0a1.41,1.41,0,0,1,.83-.34c3.11-1.43,5-3.39,5-5.38,0-3.69-6.7-7.65-16.68-7.65s-16.69,4-16.69,7.65c0,1.83,1.54,3.56,4.06,4.91a1.45,1.45,0,0,1,.82.36l.07.09a27.88,27.88,0,0,0,10.3,2.26,1.29,1.29,0,0,1,0,2.57h-.06a30.38,30.38,0,0,1-10.78-2.29c-3.47,4-6.06,9.71-7.38,16.13,4.84-3.6,11.17-5.53,18.64-5.53A29.61,29.61,0,0,1,186.38,450.65Z"/><path d="M194.57,466.74a13,13,0,0,0-.16-2.55,22.17,22.17,0,0,0-4.78-10.2c-.81-8.43-3.66-16.19-7.91-21.63,3.4-1.86,5.39-4.39,5.39-7.16,0-5.73-8.46-10.22-19.25-10.22s-19.26,4.49-19.26,10.22c0,2.51,1.64,4.8,4.42,6.57-4.24,5.12-7.11,12.29-8.17,20.43a27.28,27.28,0,0,0-6.41,12.51,10.83,10.83,0,0,0-.28,2.92,9.87,9.87,0,0,0-2.87,6.71c0,8.92,13.84,15.9,31.5,15.9s31.51-7,31.51-15.9A10.52,10.52,0,0,0,194.57,466.74Zm-39-33.64a30.38,30.38,0,0,0,10.78,2.29h.06a1.29,1.29,0,0,0,0-2.57,27.88,27.88,0,0,1-10.3-2.26l-.07-.09a1.45,1.45,0,0,0-.82-.36c-2.52-1.35-4.06-3.08-4.06-4.91,0-3.69,6.7-7.65,16.69-7.65s16.68,4,16.68,7.65c0,2-1.93,3.95-5,5.38a1.41,1.41,0,0,0-.83.34l0,0a24.75,24.75,0,0,1-4.42,1.3,1.28,1.28,0,1,0,.49,2.52,27.39,27.39,0,0,0,4.39-1.23c3.55,4.29,6.1,10.35,7.27,17.11a29.61,29.61,0,0,0-19.59-6.95c-7.47,0-13.8,1.93-18.64,5.53C149.47,442.81,152.06,437.1,155.53,433.1ZM141.2,465.35c2.83-12.14,11.92-18.83,25.59-18.83,14.17,0,23.37,9.34,24.83,18.13a9.08,9.08,0,0,1-2.16,7.64c-3.9,4.6-12.37,7.35-22.67,7.35-11.11,0-20.34-2.92-24.06-7.62A7.5,7.5,0,0,1,141.2,465.35Zm25.59,22.13c-15.58,0-28.74-6-28.74-13.14a6.29,6.29,0,0,1,.9-3.17,11.35,11.35,0,0,0,1.56,2.61c4.32,5.44,14.14,8.69,26.28,8.69,11.28,0,20.33-3.05,24.82-8.35a12.5,12.5,0,0,0,2.32-4,6.93,6.93,0,0,1,1.61,4.22C195.54,481.46,182.38,487.48,166.79,487.48Z"/><path class="cls-5" d="M167.71,426.24a6.66,6.66,0,0,1-6.57-5.6c-6.36-39.08,11.26-79.55,12-81.25a6.66,6.66,0,1,1,12.19,5.38c-.27.61-16.74,38.73-11.05,73.73a6.66,6.66,0,0,1-5.51,7.65A6.53,6.53,0,0,1,167.71,426.24Z"/><path class="cls-6" d="M159.68,407.93h14.79a1.45,1.45,0,0,1,1.45,1.45v9.89a8.84,8.84,0,0,1-8.84,8.84h0a8.84,8.84,0,0,1-8.84-8.84v-9.89a1.45,1.45,0,0,1,1.45-1.45Z" transform="translate(-25.28 11.02) rotate(-3.51)"/><path class="cls-2" d="M261.7,474c-4.52,5.33-13.61,8.39-24.95,8.39-12.2,0-22.07-3.27-26.41-8.73a11.16,11.16,0,0,1-1.57-2.63,6.37,6.37,0,0,0-.91,3.19c0,7.16,13.23,13.2,28.89,13.2s28.89-6,28.89-13.2A7,7,0,0,0,264,470,12.93,12.93,0,0,1,261.7,474Z"/><path class="cls-3" d="M236.75,479.59c10.35,0,18.86-2.76,22.78-7.39a9.1,9.1,0,0,0,2.17-7.68c-1.47-8.83-10.71-18.22-24.95-18.22C223,446.3,213.87,453,211,465.23a7.56,7.56,0,0,0,1.54,6.7C216.31,476.65,225.58,479.59,236.75,479.59Z"/><path class="cls-4" d="M256.44,450.45c-1.18-6.8-3.75-12.88-7.31-17.2a26.63,26.63,0,0,1-4.41,1.24,1.29,1.29,0,1,1-.5-2.54,23.94,23.94,0,0,0,4.44-1.3l0,0a1.37,1.37,0,0,1,.83-.35c3.13-1.44,5.07-3.41,5.07-5.41,0-3.71-6.74-7.68-16.77-7.68s-16.77,4-16.77,7.68c0,1.84,1.55,3.58,4.08,4.94a1.42,1.42,0,0,1,.82.36l.07.09a28,28,0,0,0,10.35,2.27,1.3,1.3,0,0,1-.05,2.59h0a30.19,30.19,0,0,1-10.84-2.3c-3.48,4-6.09,9.76-7.41,16.22,4.86-3.63,11.22-5.57,18.73-5.57A29.78,29.78,0,0,1,256.44,450.45Z"/><path d="M264.67,466.62a12.48,12.48,0,0,0-.17-2.57,22.29,22.29,0,0,0-4.8-10.24c-.82-8.48-3.68-16.27-7.95-21.75,3.42-1.86,5.42-4.4,5.42-7.19,0-5.76-8.5-10.27-19.35-10.27s-19.36,4.51-19.36,10.27c0,2.52,1.66,4.82,4.44,6.61-4.25,5.14-7.14,12.35-8.21,20.53a27.38,27.38,0,0,0-6.43,12.57,11,11,0,0,0-.29,2.93,10,10,0,0,0-2.88,6.75c0,9,13.9,16,31.66,16s31.66-7,31.66-16A10.57,10.57,0,0,0,264.67,466.62Zm-39.24-33.81a30.19,30.19,0,0,0,10.84,2.3h0a1.3,1.3,0,0,0,.05-2.59A28,28,0,0,1,226,430.26l-.07-.09a1.42,1.42,0,0,0-.82-.36c-2.53-1.36-4.08-3.1-4.08-4.94,0-3.71,6.74-7.68,16.77-7.68s16.77,4,16.77,7.68c0,2-1.94,4-5.07,5.41a1.37,1.37,0,0,0-.83.35l0,0a23.94,23.94,0,0,1-4.44,1.3,1.29,1.29,0,1,0,.5,2.54,26.63,26.63,0,0,0,4.41-1.24c3.56,4.32,6.13,10.4,7.31,17.2a29.78,29.78,0,0,0-19.69-7c-7.51,0-13.87,1.94-18.73,5.57C219.34,442.57,222,436.84,225.43,432.81ZM211,465.23c2.85-12.2,12-18.93,25.73-18.93,14.24,0,23.48,9.39,24.95,18.22a9.1,9.1,0,0,1-2.17,7.68c-3.92,4.63-12.43,7.39-22.78,7.39-11.17,0-20.44-2.94-24.19-7.66A7.56,7.56,0,0,1,211,465.23Zm25.73,22.23c-15.66,0-28.89-6-28.89-13.2a6.37,6.37,0,0,1,.91-3.19,11.16,11.16,0,0,0,1.57,2.63c4.34,5.46,14.21,8.73,26.41,8.73,11.34,0,20.43-3.06,24.95-8.39a12.93,12.93,0,0,0,2.33-4,7,7,0,0,1,1.61,4.24C265.64,481.42,252.41,487.46,236.75,487.46Z"/><path class="cls-5" d="M236.22,426.24a6.67,6.67,0,0,0,6.57-5.6c6.35-39.08-11.26-79.55-12-81.25a6.66,6.66,0,1,0-12.19,5.38c.26.61,16.73,38.73,11,73.73a6.67,6.67,0,0,0,5.51,7.65A6.74,6.74,0,0,0,236.22,426.24Z"/><path class="cls-6" d="M236.86,407.93h0a8.84,8.84,0,0,1,8.84,8.84v9.89a1.45,1.45,0,0,1-1.45,1.45H229.46a1.45,1.45,0,0,1-1.45-1.45v-9.89a8.84,8.84,0,0,1,8.84-8.84Z" transform="translate(447.67 849.77) rotate(-176.49)"/><path class="cls-7" d="M297.16,167.76l1.31,17.68c1.29-.09,13-1.12,29-9A119.38,119.38,0,0,0,354,158.34a145.16,145.16,0,0,0,23.76-27.63L363,120.39c-11.87,18-26.24,31.34-42.77,39.75C307.49,166.6,298,167.67,297.16,167.76Z"/><path class="cls-8" d="M365.36,112.2s-6.67,3.94-2.62,12.49c4.7,9.9,21.54,11,21.68-1Z"/><path class="cls-8" d="M364.26,112.33c.45-7.47-9.2-12-10.84-17.35-1.87-6.14,5.37-14.64,15.5,1.82,0,0,3.75-9.53,1.74-17.36-2.28-8.87,5.41-12.4,9.13-8.49,3.4,3.56,3.21,15.22,1,21.48A1.43,1.43,0,0,0,382,94.32l.35,0a1.43,1.43,0,0,0,1.54-.94c1-2.94,3.81-11.06,4.42-15.66,1-7.23,13.94-5.44,12.81,4.17-.89,7.58-6.22,13.5-8.44,15.67a1.42,1.42,0,0,0-.1,1.94h0a1.43,1.43,0,0,0,1.92.25,136.27,136.27,0,0,0,11.7-9.05c4.49-4.11,15.43,9.06-7.07,18.62,0,0-2.71,16.17-17.83,15.76C364,124.66,364.26,112.33,364.26,112.33Z"/><path class="cls-9" d="M371.42,100.78S382.34,103,378.25,114"/><rect class="cls-10" x="142.84" y="1.37" width="167.44" height="227.38"/><rect class="cls-11" x="260.41" y="1.08" width="45.87" height="227.38"/><line class="cls-12" x1="268.34" y1="1.41" x2="268.34" y2="228.76"/><line class="cls-12" x1="276.27" y1="1.08" x2="276.27" y2="229.04"/><line class="cls-12" x1="284.2" y1="1.08" x2="284.2" y2="229.04"/><line class="cls-12" x1="292.13" y1="1.48" x2="292.13" y2="228.8"/><line class="cls-12" x1="300.06" y1="1.48" x2="300.06" y2="228.8"/><rect class="cls-13" x="120.26" y="1.65" width="167.44" height="227.38"/><path class="cls-14" d="M129.41,18.81s-42.06,0-11.81,13.44"/><path class="cls-14" d="M129.41,62.44s-42.06,0-11.81,13.44"/><path class="cls-14" d="M129.41,106.07s-42.06,0-11.81,13.44"/><path class="cls-14" d="M129.41,149.7s-42.06,0-11.81,13.44"/><path class="cls-14" d="M129.41,193.33s-42.06,0-11.81,13.44"/><path class="cls-15" d="M334.85,418.27a12.29,12.29,0,0,0,11.24.43L353.92,362A48.14,48.14,0,0,0,343,358.54Z"/><path class="cls-15" d="M49.67,357.53a38,38,0,0,1-15.45-3.16c-10.63,5.83-16.71,14.24-16.71,23.17v137A15.43,15.43,0,0,0,32,513.83V381.18c0-10.89,11-20.18,26.3-23.65Z"/><path class="cls-15" d="M354,357.53H345.5c15.31,3.47,26.29,12.76,26.29,23.65V513.46a15.49,15.49,0,0,0,14.5.33V377.54c0-8.94-6.11-17.36-16.76-23.19A38,38,0,0,1,354,357.53Z"/><path class="cls-15" d="M53.86,360.37,61.5,419A12.39,12.39,0,0,0,74,418.38l-7.9-60.6A53,53,0,0,0,53.86,360.37Z"/><path class="cls-16" d="M26.24,345c3.07,6.52,12.71,11.08,23.43,11.08H354c10.72,0,20.36-4.56,23.43-11.08l7.29-15.45H19Z"/><path class="cls-17" d="M365.74,237.14c-1.69-3.4-6.6-5.69-12.22-5.69H50c-5.62,0-10.53,2.29-12.21,5.69L2.89,307.43a5.71,5.71,0,0,0-.53,1.64v1.67a6.87,6.87,0,0,0,2.42,3.94C7.22,316.79,11,318,15.11,318H388.39c4.13,0,7.89-1.21,10.33-3.32a6.9,6.9,0,0,0,2.37-3.7v-2.17h0a5.7,5.7,0,0,0-.49-1.38Z"/><path class="cls-18" d="M388.39,319.46H15.11c-5.48,0-10.1-1.82-12.75-4.45v5.44c0,4.21,5.4,7.63,12,7.63H389.07c6.63,0,12-3.42,12-7.63v-5.39C398.44,317.67,393.83,319.46,388.39,319.46Z"/><path d="M367.93,236.7c-2-4-7.81-6.71-14.41-6.71H50c-6.59,0-12.43,2.72-14.41,6.71L.7,307a7,7,0,0,0-.61,1.82h0v.2a6.41,6.41,0,0,0,0,1.75v9.69c0,5,6.43,9.09,14.32,9.09h2.17L24,345.41c1.51,3.21,4.47,6,8.33,8-10.91,6.1-17.16,14.83-17.16,24.08V513.3c-.72-.27-1.69,0-1.69.62v10.46a3.88,3.88,0,0,0,2.2,3.24c6.61,3.86,13.34,2,17.15.23,2-.9,3.08-2.37,2.93-3.9l-1-10.2a.73.73,0,0,0-.53-.55v-132c0-8.39,6.94-15.78,17.36-20l7.46,57.19a.6.6,0,0,0-.39.49l-.52,10.36a4.38,4.38,0,0,0,2,3.82c7.11,4.94,14.06,2,17.63-.37a4.14,4.14,0,0,0,1.91-4.76l-3.19-9.86a.66.66,0,0,0-.37-.38L68.4,357.62q1.57-.09,3.18-.09H332.22a57.6,57.6,0,0,1,8.52.63l-8,58.84c-.49-.05-1.05.14-1.17.51l-3.19,9.87a4.12,4.12,0,0,0,1.91,4.75c3.57,2.41,10.52,5.32,17.63.38a4.38,4.38,0,0,0,2.05-3.82l-.51-10.36c0-.35-.44-.6-.9-.64L356.08,363c8.19,4.34,13.41,10.87,13.41,18.15V512.55c-.44.07-.82.3-.86.65l-1,10.19c-.15,1.54,1,3,2.93,3.9,3.81,1.74,10.54,3.64,17.16-.23a3.87,3.87,0,0,0,2.19-3.24V513.36c0-.49-.7-.79-1.35-.7V377.54c0-9.27-6.27-18-17.22-24.1,3.85-2.08,6.79-4.84,8.3-8l7.48-15.87h1.92c7.9,0,14.32-4.08,14.32-9.09v-9.38a6.25,6.25,0,0,0-.59-4.08ZM32,381.18V513.83a15.43,15.43,0,0,1-14.49.67v-137c0-8.93,6.08-17.34,16.71-23.17a38,38,0,0,0,15.45,3.16H58.3C43,361,32,370.29,32,381.18Zm42,37.2A12.39,12.39,0,0,1,61.5,419l-7.64-58.63a53,53,0,0,1,12.26-2.59Zm272.07.32a12.29,12.29,0,0,1-11.24-.43L343,358.54A48.14,48.14,0,0,1,353.92,362Zm40.2-41.16V513.79a15.49,15.49,0,0,1-14.5-.33V381.18c0-10.89-11-20.18-26.29-23.65H354a38,38,0,0,0,15.5-3.18C380.18,360.18,386.29,368.6,386.29,377.54ZM377.46,345c-3.07,6.52-12.71,11.08-23.43,11.08H49.67c-10.72,0-20.36-4.56-23.43-11.08L19,329.54h365.8Zm23.63-24.54c0,4.21-5.39,7.63-12,7.63H14.38c-6.62,0-12-3.42-12-7.63V315c2.65,2.63,7.27,4.45,12.75,4.45H388.39c5.44,0,10.05-1.79,12.7-4.4Zm0-11.64V311a6.9,6.9,0,0,1-2.37,3.7c-2.44,2.11-6.2,3.32-10.33,3.32H15.11c-4.12,0-7.89-1.21-10.33-3.32a6.87,6.87,0,0,1-2.42-3.94v-1.67a5.71,5.71,0,0,1,.53-1.64l34.88-70.29c1.68-3.4,6.59-5.69,12.21-5.69H353.52c5.62,0,10.53,2.29,12.22,5.69l34.87,70.29a5.7,5.7,0,0,1,.49,1.38Z"/><polygon class="cls-2" points="171.09 237.71 260.98 237.71 274.26 278.11 154.35 278.11 171.09 237.71"/><path class="cls-19" d="M252.28,262.12h-11v-5.49a5.47,5.47,0,0,0-5.46-5.47h0a5.46,5.46,0,0,0-5.46,5.47v5.49H219.2v-11H208.26v11H197.08v-5.47a5.49,5.49,0,0,0-5.49-5.49h0a5.48,5.48,0,0,0-5.48,5.49v5.47H175.17"/><path class="cls-7" d="M141.77,222.67c-14-3.27-24.7-12.63-28-24.43-1.32-4.79-2.75-14,2.57-22.26a23.75,23.75,0,0,1,3.3-4V148.48c0-.36,0-.71,0-1.07a46.27,46.27,0,0,0-20.75,17.3,44.94,44.94,0,0,0-7.1,25,53.54,53.54,0,0,0,2,14c5.29,19.12,21.86,34.11,43.24,39.11a10.38,10.38,0,1,0,4.73-20.21Z"/><ellipse class="cls-20" cx="131.23" cy="232.62" rx="14.57" ry="10.39" transform="translate(-135.54 219.66) rotate(-57.79)"/><ellipse class="cls-2" cx="141.34" cy="239.18" rx="14.57" ry="18.47" transform="translate(-136.37 231.27) rotate(-57.79)"/><path class="cls-20" d="M150.84,254.25c-2.8,4.51-6.12,6.88-10.55,7.05a13.42,13.42,0,0,1-9.2-3.3c-4.82-4.13-7-10.82-6.21-20.29"/><path class="cls-20" d="M132.08,223.87a25.56,25.56,0,0,1,14.77-7.14,27.79,27.79,0,0,1,11.08.7c4.83,1.33,8,3.58,9.89,6.51a5.67,5.67,0,0,1-.59,7.07l-.25.23a4.94,4.94,0,0,1-4.7,1c-8-2.39-13.5-2.17-16.8.45"/><path class="cls-21" d="M173,246.85c-3.58-1.21-8.57-2.55-8.57-2.55l2.24-4.41,4.39-2.53s2.23,4.17,4.09,7.23Z"/><path class="cls-22" d="M176.22,246.34c.91,1.54-.54,1.4-1.16,1.2l-2-.69,2.15-2.26C175.6,245.28,176,245.89,176.22,246.34Z"/><path class="cls-23" d="M118.37,204.27a1.86,1.86,0,0,0-2.43.15h0a1.45,1.45,0,0,0,.18,2.19L163.91,244a1.86,1.86,0,0,0,2.43-.15h0a1.45,1.45,0,0,0-.18-2.19Z"/><path class="cls-24" d="M120.63,201.94a1.88,1.88,0,0,0-2.44.14h0a1.45,1.45,0,0,0,.18,2.19l47.79,37.34a1.85,1.85,0,0,0,2.43-.14h0a1.44,1.44,0,0,0-.18-2.19Z"/><path class="cls-23" d="M122.88,199.61a1.87,1.87,0,0,0-2.44.14h0a1.44,1.44,0,0,0,.19,2.19l47.78,37.34a1.88,1.88,0,0,0,2.44-.14h0a1.45,1.45,0,0,0-.18-2.19Z"/><polygon class="cls-25" points="123.72 200.26 116.96 207.27 114.64 205.45 121.4 198.45 123.72 200.26"/><path class="cls-26" d="M121.4,198.45l-6.76,7-2.42-1.9h0l-.12-.08c-1.82-1.43-1.78-4.15.09-6.09s4.85-2.34,6.67-.92l.11.09h0Z"/><path class="cls-20" d="M160.87,244.49a10.26,10.26,0,0,1-9.79,9.8,19.1,19.1,0,0,1-10.68-2.24"/><path class="cls-20" d="M144.83,230.25l1.91.49a29.07,29.07,0,0,0,10,.91,16.65,16.65,0,0,1,5.38.43,7.67,7.67,0,0,1,3.05,1.44l.06,0a5.06,5.06,0,0,1,.13,7.61,14.36,14.36,0,0,1-5.44,3.18c-.33.11-.65.27-1,.36-4.23,1.24-10.22.69-15.74-1.49"/><ellipse class="cls-27" cx="232.54" cy="118.97" rx="10.95" ry="16.21"/><circle class="cls-2" cx="228.67" cy="113.61" r="4.2"/><ellipse class="cls-28" cx="178.35" cy="118.97" rx="21.28" ry="31.51"/><ellipse class="cls-27" cx="179.07" cy="118.97" rx="10.95" ry="16.21"/><circle class="cls-2" cx="175.2" cy="113.61" r="4.2"/><ellipse class="cls-29" cx="241.27" cy="123.22" rx="23.02" ry="34.09"/><ellipse class="cls-29" cx="179.8" cy="121.42" rx="23.02" ry="34.09"/><ellipse class="cls-30" cx="180.86" cy="138.96" rx="11.84" ry="17.54"/><ellipse class="cls-30" cx="241.91" cy="138.96" rx="11.84" ry="17.54"/><path class="cls-31" d="M257.65,77.67s-12.22-12.76-24,0"/><path class="cls-31" d="M191.06,77.67s-12.23-12.76-24.06,0"/><circle class="cls-2" cx="246.22" cy="132.29" r="3.55"/><circle class="cls-2" cx="184.48" cy="132.29" r="3.55"/><path class="cls-32" d="M223.35,181.19a7.2,7.2,0,0,1,.77,13.79,58.42,58.42,0,0,1-61.81-14.65,7.2,7.2,0,0,1,10.42-10,44,44,0,0,0,46.55,11A7.19,7.19,0,0,1,223.35,181.19Z"/><path class="cls-33" d="M168.08,173a2.33,2.33,0,0,1,1.18.68,48.79,48.79,0,0,0,51.63,12.23,2.41,2.41,0,0,1,1.62,4.55A53.64,53.64,0,0,1,165.77,177a2.41,2.41,0,0,1,.08-3.41A2.44,2.44,0,0,1,168.08,173Z"/></g></g></svg>