<svg xmlns="http://www.w3.org/2000/svg" viewBox="0 0 528.93 467.71"><defs><style>.cls-1{fill:#e5e5e5;}.cls-2{fill:#004f27;}.cls-19,.cls-3,.cls-5,.cls-6{fill:#441216;}.cls-12,.cls-14,.cls-21,.cls-4,.cls-8{fill:#fff;}.cls-10,.cls-11,.cls-13,.cls-14,.cls-15,.cls-16,.cls-17,.cls-18,.cls-19,.cls-20,.cls-21,.cls-4,.cls-5,.cls-6,.cls-7,.cls-8,.cls-9{stroke:#000;}.cls-10,.cls-11,.cls-13,.cls-14,.cls-15,.cls-16,.cls-17,.cls-18,.cls-19,.cls-20,.cls-26,.cls-27,.cls-4,.cls-5,.cls-6,.cls-7,.cls-8,.cls-9{stroke-miterlimit:10;}.cls-4{stroke-width:3.37px;}.cls-5{stroke-width:1.95px;}.cls-6{stroke-width:1.77px;}.cls-7{fill:#82000a;}.cls-10,.cls-7{stroke-width:3.25px;}.cls-8,.cls-9{stroke-width:1.7px;}.cls-11,.cls-13,.cls-16,.cls-20,.cls-22,.cls-23,.cls-25,.cls-26,.cls-27,.cls-28,.cls-29,.cls-9{fill:none;}.cls-10{fill:#c1272d;}.cls-11,.cls-13,.cls-16,.cls-20,.cls-21,.cls-22,.cls-23,.cls-25,.cls-28,.cls-29{stroke-linecap:round;}.cls-11{stroke-width:5.51px;}.cls-13{stroke-width:1.61px;}.cls-14{stroke-width:2.28px;}.cls-15{stroke-width:0.27px;}.cls-16{stroke-width:4.55px;}.cls-17{fill:#d85067;stroke-width:0.98px;}.cls-18{stroke-width:0.19px;}.cls-19{stroke-width:2.22px;}.cls-20{stroke-width:2.45px;}.cls-21,.cls-22,.cls-23,.cls-25,.cls-28,.cls-29{stroke-linejoin:round;}.cls-21{stroke-width:2.67px;}.cls-22,.cls-23,.cls-25,.cls-26,.cls-27,.cls-28,.cls-29{stroke:#1d1d1b;}.cls-22,.cls-23{stroke-width:0.25px;}.cls-23{stroke-dasharray:1.43 1.43;}.cls-24{fill:#1d1d1b;}.cls-25{stroke-width:0.29px;stroke-dasharray:1.72 1.72;}.cls-26{stroke-width:0.61px;}.cls-27{stroke-width:0.62px;}.cls-28{stroke-width:0.25px;stroke-dasharray:1.47 1.47;}.cls-29{stroke-width:0.25px;stroke-dasharray:1.51 1.51;}</style></defs><title>lpc</title><g id="Layer_2" data-name="Layer 2"><g id="GUIA_3_C" data-name="GUIA 3 C"><path class="cls-1" d="M110.44,458.37a65.3,65.3,0,0,0,7.35-.8c.67-.11,12.21-2,16.29-2h.1c4.74,0,13.69,1.81,19,2.86l.69.14a18.25,18.25,0,0,0,3.58.35,17.75,17.75,0,0,0,15.5-9c1.43,5.31-.74,9.15-3.55,11.09-7.76,5.36-14.24,4.2-22.44,2.73a85,85,0,0,0-11.61-1.51,102.24,102.24,0,0,0-18.19,1c-8.51,1.05-14.65,1.81-22.77-2.72-4.94-2.76-5.78-8.08-5.77-11.37C93.16,454.85,101.32,458.37,110.44,458.37Z"/><path class="cls-2" d="M110.44,423.14a29.94,29.94,0,0,1,12.33,2.57l.07,0s5.4,2.14,8.73,10a1.15,1.15,0,0,0,2.12-.9,24.19,24.19,0,0,0-5.33-8,24.1,24.1,0,0,1,8.34-8.94,32.28,32.28,0,0,0,8.56,2.17h.14a1.15,1.15,0,0,0,.14-2.29,30.15,30.15,0,0,1-8.42-2.19l-.11-.05c-3.84-1.72-6.22-4.13-6.22-6.69,0-5,8.94-9.23,19.52-9.23s19.52,4.23,19.52,9.23c0,2.74-2.71,5.32-7.1,7.06l-.16.07a30.28,30.28,0,0,1-5.2,1.45,1.15,1.15,0,1,0,.42,2.26,32.06,32.06,0,0,0,5.15-1.4,24,24,0,0,1,9.11,28.21l-.05.14a15.5,15.5,0,0,1-17.63,9.64l-.7-.14c-5.78-1.14-14.52-2.86-19.47-2.91-4.26-.05-16.31,2-16.82,2.06h-.07a63.15,63.15,0,0,1-6.88.75c-9.53,0-18.2-4.31-21.55-10.72a12.32,12.32,0,0,1-1.45-5.74C87.43,430.53,97.75,423.14,110.44,423.14Z"/><path d="M110.44,420.85a32.17,32.17,0,0,1,13.25,2.76,12.75,12.75,0,0,1,2.89,1.72,26.29,26.29,0,0,1,7.73-8.59c-3.65-2.07-5.82-4.85-5.82-7.87,0-6.46,9.59-11.52,21.82-11.52s21.82,5.06,21.82,11.52c0,3.28-2.49,6.27-6.72,8.38a26.33,26.33,0,0,1,9,29.62c3.29,7.72.15,13.45-3.61,16a22.88,22.88,0,0,1-13.65,4.36A60.41,60.41,0,0,1,146.6,466a80.42,80.42,0,0,0-11.3-1.47,100.6,100.6,0,0,0-17.81,1c-8.6,1.07-15.4,1.91-24.17-3-4.88-2.72-6.41-7.51-6.83-11.05a19.21,19.21,0,0,1,.15-5.51,14.45,14.45,0,0,1-1.51-6.39C85.13,429.26,96.48,420.85,110.44,420.85Zm-16,39.71c8.12,4.53,14.26,3.77,22.77,2.72a102.24,102.24,0,0,1,18.19-1A85,85,0,0,1,147,463.75c8.2,1.47,14.68,2.63,22.44-2.73,2.81-1.94,5-5.78,3.55-11.09a17.75,17.75,0,0,1-15.5,9,18.25,18.25,0,0,1-3.58-.35l-.69-.14c-5.36-1.05-14.31-2.82-19-2.86h-.1c-4.08,0-15.62,1.91-16.29,2a65.3,65.3,0,0,1-7.35.8c-9.12,0-17.28-3.52-21.77-9.18C88.66,452.48,89.5,457.8,94.44,460.56Zm-5.56-15.21c3.35,6.41,12,10.72,21.55,10.72a63.15,63.15,0,0,0,6.88-.75h.07c.51-.09,12.56-2.11,16.82-2.06,5,.05,13.69,1.77,19.47,2.91l.7.14A15.5,15.5,0,0,0,172,446.66l.05-.14a24,24,0,0,0-9.11-28.21,32.06,32.06,0,0,1-5.15,1.4,1.15,1.15,0,1,1-.42-2.26,30.28,30.28,0,0,0,5.2-1.45l.16-.07c4.39-1.74,7.1-4.32,7.1-7.06,0-5-8.94-9.23-19.52-9.23s-19.52,4.23-19.52,9.23c0,2.56,2.38,5,6.22,6.69l.11.05a30.15,30.15,0,0,0,8.42,2.19,1.15,1.15,0,0,1-.14,2.29h-.14a32.28,32.28,0,0,1-8.56-2.17,24.1,24.1,0,0,0-8.34,8.94,24.19,24.19,0,0,1,5.33,8,1.15,1.15,0,0,1-2.12.9c-3.33-7.82-8.68-9.95-8.73-10l-.07,0a29.94,29.94,0,0,0-12.33-2.57c-12.69,0-23,7.39-23,16.47A12.32,12.32,0,0,0,88.88,445.35Z"/><path class="cls-3" d="M151.15,410a8.45,8.45,0,0,1-8.38-7.13c-7.07-43.51,12.52-88.53,13.36-90.43a8.49,8.49,0,1,1,15.53,6.87c-.18.42-18.34,42.61-12.13,80.83a8.5,8.5,0,0,1-7,9.75A9.14,9.14,0,0,1,151.15,410Z"/><path d="M163.9,308.51a7.37,7.37,0,0,1,6.73,10.34c-.29.67-18.49,42.79-12.21,81.48a7.36,7.36,0,0,1-6.08,8.45,8,8,0,0,1-1.19.09,7.36,7.36,0,0,1-7.26-6.18c-7-43.19,12.44-87.91,13.27-89.79a7.37,7.37,0,0,1,6.74-4.39m0-2.25h0a9.63,9.63,0,0,0-8.8,5.73c-.85,1.91-20.57,47.21-13.44,91.06a9.58,9.58,0,0,0,9.49,8.08,10.24,10.24,0,0,0,1.55-.13,9.62,9.62,0,0,0,8-11c-6.18-38,11.86-79.78,12-80.2a9.62,9.62,0,0,0-4.92-12.68,9.45,9.45,0,0,0-3.88-.82Z"/><path class="cls-4" d="M142.26,388.65h16.36a1.59,1.59,0,0,1,1.59,1.59v11a9.72,9.72,0,0,1-9.72,9.72h-.1a9.72,9.72,0,0,1-9.72-9.72v-11a1.59,1.59,0,0,1,1.59-1.59Z" transform="translate(-24.2 9.96) rotate(-3.51)"/><path class="cls-1" d="M253.52,458.8a65.06,65.06,0,0,1-7.35-.8c-.68-.11-12.21-2-16.29-2h-.11c-4.73,0-13.69,1.8-19,2.86l-.7.14a18.94,18.94,0,0,1-3.57.35,17.75,17.75,0,0,1-15.51-9c-1.43,5.32.74,9.16,3.56,11.1,7.76,5.35,14.23,4.19,22.44,2.72a83.13,83.13,0,0,1,11.61-1.5,102.41,102.41,0,0,1,18.19,1c8.5,1.05,14.65,1.82,22.76-2.72,4.95-2.76,5.78-8.07,5.78-11.36C270.79,455.28,262.64,458.8,253.52,458.8Z"/><path class="cls-2" d="M253.52,423.58a29.91,29.91,0,0,0-12.33,2.57l-.08,0c-.05,0-5.39,2.15-8.73,10a1.15,1.15,0,1,1-2.11-.9,24,24,0,0,1,5.32-7.95,23.94,23.94,0,0,0-8.34-8.94,32.49,32.49,0,0,1-8.55,2.17h-.14a1.15,1.15,0,0,1-.14-2.29,30.23,30.23,0,0,0,8.42-2.2L227,416c3.84-1.71,6.22-4.13,6.22-6.69,0-5-8.94-9.22-19.53-9.22s-19.52,4.22-19.52,9.22c0,2.74,2.71,5.33,7.11,7.07a.47.47,0,0,1,.15.06,29.75,29.75,0,0,0,5.21,1.46,1.15,1.15,0,1,1-.43,2.25,31.6,31.6,0,0,1-5.15-1.4A24.06,24.06,0,0,0,191.9,447l.06.15a15.49,15.49,0,0,0,17.63,9.63l.7-.13c5.78-1.14,14.51-2.87,19.46-2.91,4.27-.05,16.32,2,16.83,2.05h.06a64.12,64.12,0,0,0,6.89.76c9.53,0,18.19-4.31,21.55-10.73a12.26,12.26,0,0,0,1.45-5.74C276.53,431,266.21,423.58,253.52,423.58Z"/><path d="M278.82,440a14.54,14.54,0,0,1-1.5,6.39,18.91,18.91,0,0,1,.14,5.52c-.42,3.53-1.94,8.32-6.83,11.05-8.77,4.9-15.56,4.06-24.17,3a100.37,100.37,0,0,0-17.81-1,83.7,83.7,0,0,0-11.3,1.47,60.34,60.34,0,0,1-10.49,1.27,23,23,0,0,1-13.66-4.36c-3.75-2.59-6.89-8.33-3.61-16.05a26.32,26.32,0,0,1,9-29.62c-4.23-2.11-6.73-5.09-6.73-8.38,0-6.46,9.59-11.52,21.82-11.52s21.82,5.06,21.82,11.52c0,3-2.17,5.81-5.81,7.88a26.34,26.34,0,0,1,7.72,8.58,13.18,13.18,0,0,1,2.89-1.71,32.22,32.22,0,0,1,13.26-2.77C267.47,421.28,278.82,429.7,278.82,440Zm-3.53,9.59c-4.5,5.65-12.65,9.17-21.77,9.17a65.06,65.06,0,0,1-7.35-.8c-.68-.11-12.21-2-16.29-2h-.11c-4.73,0-13.69,1.8-19,2.86l-.7.14a18.94,18.94,0,0,1-3.57.35,17.75,17.75,0,0,1-15.51-9c-1.43,5.32.74,9.16,3.56,11.1,7.76,5.35,14.23,4.19,22.44,2.72a83.13,83.13,0,0,1,11.61-1.5,102.41,102.41,0,0,1,18.19,1c8.5,1.05,14.65,1.82,22.76-2.72C274.46,458.23,275.29,452.92,275.29,449.63Zm1.24-9.59c0-9.08-10.32-16.46-23-16.46a29.91,29.91,0,0,0-12.33,2.57l-.08,0c-.05,0-5.39,2.15-8.73,10a1.15,1.15,0,1,1-2.11-.9,24,24,0,0,1,5.32-7.95,23.94,23.94,0,0,0-8.34-8.94,32.49,32.49,0,0,1-8.55,2.17h-.14a1.15,1.15,0,0,1-.14-2.29,30.23,30.23,0,0,0,8.42-2.2L227,416c3.84-1.71,6.22-4.13,6.22-6.69,0-5-8.94-9.22-19.53-9.22s-19.52,4.22-19.52,9.22c0,2.74,2.71,5.33,7.11,7.07a.47.47,0,0,1,.15.06,29.75,29.75,0,0,0,5.21,1.46,1.15,1.15,0,1,1-.43,2.25,31.6,31.6,0,0,1-5.15-1.4A24.06,24.06,0,0,0,191.9,447l.06.15a15.49,15.49,0,0,0,17.63,9.63l.7-.13c5.78-1.14,14.51-2.87,19.46-2.91,4.27-.05,16.32,2,16.83,2.05h.06a64.12,64.12,0,0,0,6.89.76c9.53,0,18.19-4.31,21.55-10.73A12.26,12.26,0,0,0,276.53,440Z"/><path class="cls-5" d="M212.81,409.31a7.37,7.37,0,0,0,7.26-6.19c7-43.19-12.44-87.9-13.27-89.79a7.37,7.37,0,0,0-13.48,6c.3.67,18.5,42.79,12.21,81.47a7.37,7.37,0,0,0,6.09,8.45A6.91,6.91,0,0,0,212.81,409.31Z"/><path class="cls-4" d="M213.46,389.08h.1a9.72,9.72,0,0,1,9.72,9.72v11a1.59,1.59,0,0,1-1.59,1.59H205.33a1.59,1.59,0,0,1-1.59-1.59v-11A9.72,9.72,0,0,1,213.46,389.08Z" transform="translate(402.12 812.79) rotate(-176.49)"/><path class="cls-6" d="M52.1,277.1a9.75,9.75,0,0,0,7.72-7.34c1.5-5.65-1.5-11.7-6.7-13.52-13-4.54-24.94-17.81-30.92-25.32-2-2.55-2.27-6.26-.56-8.63,17.93-25,50.25-35.08,50.57-35.18,5.17-1.58,8.07-7.48,6.49-13.2s-7-9.08-12.23-7.52c-1.56.47-38.56,11.89-60.38,42.3C-1.38,219.1-.75,234.27,7.6,244.76c9,11.33,23.28,26.06,40.08,31.93A9,9,0,0,0,52.1,277.1Z"/><rect class="cls-7" x="96.11" y="48.44" width="198.51" height="269.57"/><rect class="cls-8" x="235.5" y="48.09" width="54.38" height="269.57"/><line class="cls-9" x1="244.9" y1="48.48" x2="244.9" y2="318.02"/><line class="cls-9" x1="254.3" y1="48.09" x2="254.3" y2="318.36"/><line class="cls-9" x1="263.7" y1="48.09" x2="263.7" y2="318.36"/><line class="cls-9" x1="273.1" y1="48.57" x2="273.1" y2="318.07"/><line class="cls-9" x1="282.51" y1="48.57" x2="282.51" y2="318.07"/><rect class="cls-10" x="69.34" y="48.77" width="198.51" height="269.57"/><path class="cls-11" d="M82.83,68.77s-49.87,0-14,15.94"/><path class="cls-11" d="M82.83,120.5s-49.87,0-14,15.94"/><path class="cls-11" d="M82.83,172.23s-49.87,0-14,15.93"/><path class="cls-11" d="M82.83,224s-49.87,0-14,15.93"/><path class="cls-11" d="M82.83,275.68s-49.87,0-14,15.94"/><path class="cls-12" d="M44.09,309.43c1.82,1.23,9.4,6,16,4.45a10,10,0,0,0,5.57-3.46c6.14-7.3-1.26-18.51-1.33-18.62a.81.81,0,1,1,1.34-.9c.28.41,5.7,8.62,3.58,16.12,6.17.32,8.83-5.08,9-5.36a8.73,8.73,0,0,0,.94-3,.81.81,0,0,1,.07-.59c.53-6.59-4.45-14.55-4.51-14.64a.81.81,0,0,1,.25-1.12.8.8,0,0,1,1.11.25c.24.39,4.71,7.51,4.81,14.25,3.33-2.49,5.24-5.52,5.68-9,1.11-8.87-7.47-18.07-7.54-18.14-8.9-8.72-16.15-10.45-21.12-10.05l-.15.05a.81.81,0,0,1-.38,0,13.48,13.48,0,0,0-6.9,2.66.81.81,0,0,1-1.14-.09.8.8,0,0,1,.09-1.13,14.85,14.85,0,0,1,7.11-2.91,7.28,7.28,0,0,0-2.7-3.76c-2.22-1.55-5.27-1.66-8.58-.32A21.54,21.54,0,0,0,36,261.86a21.48,21.48,0,0,0-4.09,11.36c-.11,3.57,1.05,6.4,3.26,7.94a6.9,6.9,0,0,0,2.6,1.08,16.93,16.93,0,0,1,2.41-10,.81.81,0,0,1,1.37.85c-3.32,5.31-2.86,12.87,1.15,18.79a18.68,18.68,0,0,0,11.5,8,.81.81,0,0,1,0,1.59,1,1,0,0,1-.35,0,18.32,18.32,0,0,1-3.91-1.3c.28,1.63.82,3.82,1.66,4.75a.8.8,0,0,1-.06,1.14.74.74,0,0,1-.36.19.81.81,0,0,1-.78-.25c-1.49-1.65-2.08-5.44-2.23-6.74a20.85,20.85,0,0,1-4.82-3.9c-4.5.26-5.32,3.46-5.36,3.61C36.5,304.87,44,309.37,44.09,309.43Z"/><path class="cls-13" d="M49.9,261.68s11.77-10.12,29.64,7.37c0,0,17.51,18.5.35,29.38"/><path class="cls-13" d="M40.83,272.69c-3.4,5.46-3.16,13.27,1.17,19.68a19.52,19.52,0,0,0,12,8.3"/><path class="cls-13" d="M48.91,298.76s.49,4.93,2.08,6.69"/><path class="cls-13" d="M65,291.35s7.89,11.73,1.28,19.59-17.91,2.33-22.61-.84c0,0-8.08-4.76-6.43-11.34,0,0,.91-4.12,6.47-4.24"/><path class="cls-13" d="M75.35,283s7.47,11.75,3.54,19.07c0,0-3.2,6.77-10.76,5.68"/><path class="cls-13" d="M57.53,258.84a8.4,8.4,0,0,0-3.28-5.11c-5.06-3.52-13.54-.09-18.94,7.67s-5.69,16.9-.63,20.42a7.92,7.92,0,0,0,3.91,1.36"/><ellipse class="cls-14" cx="209.45" cy="176.44" rx="26.96" ry="39.92"/><ellipse class="cls-14" cx="137.46" cy="174.34" rx="26.96" ry="39.92"/><ellipse class="cls-15" cx="123.49" cy="170.89" rx="13.87" ry="20.53"/><ellipse class="cls-15" cx="194.99" cy="170.89" rx="13.87" ry="20.53"/><path class="cls-16" d="M228.63,123.1s-14.32-14.94-28.17,0"/><path class="cls-16" d="M150.64,123.1s-14.32-14.94-28.17,0"/><circle class="cls-12" cx="200.03" cy="163.07" r="4.16"/><circle class="cls-12" cx="127.74" cy="163.07" r="4.16"/><path class="cls-17" d="M207.73,235a8.44,8.44,0,0,1,4.6,15.51,68.39,68.39,0,0,1-74.38,0,8.43,8.43,0,1,1,9.17-14.15,51.53,51.53,0,0,0,56,0A8.4,8.4,0,0,1,207.73,235Z"/><path class="cls-18" d="M142.54,240.63a2.77,2.77,0,0,1,1.53.46,57.15,57.15,0,0,0,62.13,0,2.83,2.83,0,1,1,3.08,4.74,62.82,62.82,0,0,1-68.28,0,2.83,2.83,0,0,1,1.54-5.2Z"/><path class="cls-19" d="M278.72,178.11l1.86,25.2c1.84-.12,18.61-1.59,41.41-12.88a169.77,169.77,0,0,0,37.72-25.74,207,207,0,0,0,33.87-39.39L372.5,110.59c-16.92,25.63-37.4,44.68-61,56.67C293.45,176.46,279.9,178,278.72,178.11Z"/><path class="cls-12" d="M413.53,104.66,406.91,125c-11.49,5.1-21.14-5.53-21.55-6a1.23,1.23,0,0,0-1.83,1.63,28,28,0,0,0,12.67,7.63l0,.09a8.19,8.19,0,0,1-4.82,4.82,8.54,8.54,0,0,1-7.08-.43c-5.53-3-10.39-7.75-14.43-14.24a11.76,11.76,0,0,1,2.07-14.87l.65-.59a43.69,43.69,0,0,0,3.67,9,1.23,1.23,0,0,0,2.13-1.23c-.07-.12-7.19-12.64-3.86-23.27,1.53-4.89,5.09-8.69,10.58-11.28a63.92,63.92,0,0,0,14.79-10.81,6.91,6.91,0,0,1,6.81-1.73c3.59,1.12,4.57,4.71,2.92,10.73,0,.1-2.53,9.64-20.26,14.67a1.23,1.23,0,0,0,.67,2.37,55.79,55.79,0,0,0,6.52-2.29c1.25,3.83,4.33,15.88-4.41,21.18a1.23,1.23,0,0,0-.41,1.68,1.21,1.21,0,0,0,1.05.59,1.15,1.15,0,0,0,.64-.18c10.43-6.33,6.7-20.3,5.37-24.3A29.86,29.86,0,0,0,409,80.38Z"/><path class="cls-20" d="M373.24,100.76l-1.76,1.62a13.66,13.66,0,0,0-2.24,17.48,40.63,40.63,0,0,0,14.08,13.78c5.43,3,12.42.5,14.2-5.43.06-.2.11-.39.15-.59"/><path class="cls-20" d="M384.44,119.84s10.78,12.16,23.47,6.08l6.88-21.18-5.12-27.49"/><polygon class="cls-21" points="381.98 20.86 404.96 163.41 527.6 144.45 504.16 1.34 381.98 20.86"/><path class="cls-12" d="M410.8,74.71S409.12,82,397.24,87.52c0,0,6.8,16.61-4.13,23.66l-15.84.18c-.64-1.14-14.39-26,7.28-36.23A63,63,0,0,0,399,64.53a8.21,8.21,0,0,1,8-2C410.22,63.52,413.06,66.5,410.8,74.71Z"/><path class="cls-20" d="M377.3,111.41s-14.94-25.82,7.25-36.27A63.43,63.43,0,0,0,399,64.54a8.19,8.19,0,0,1,8-2c3.17,1,6,4,3.75,12.18,0,0-2.34,10.24-21.12,15.58"/><path class="cls-20" d="M397.24,87.52s6.94,17-4.48,23.89"/><line class="cls-22" x1="471.05" y1="59.38" x2="470.53" y2="59.91"/><polyline class="cls-23" points="469.55 60.94 465.4 65.26 461.85 69.14 460.26 70.81"/><line class="cls-22" x1="459.77" y1="71.33" x2="459.26" y2="71.86"/><polygon class="cls-24" points="470.42 59.05 471.72 58.68 471.4 59.99 470.42 59.05"/><polyline class="cls-25" points="478.08 100.47 475.38 81.4 473.24 66.33 472.89 63.87"/><polygon class="cls-24" points="478.85 100.13 478.24 101.63 477.25 100.35 478.85 100.13"/><path class="cls-26" d="M468.46,67.78l-5.73,6.68a4.54,4.54,0,0,1-6.42.47h0a4.53,4.53,0,0,1-.4-6.44L466,57.2a4.49,4.49,0,0,1,2.71-1.44h0a8.26,8.26,0,0,1,9.34,7l5.14,36.32a5.08,5.08,0,0,1-4.32,5.75h0a5.08,5.08,0,0,1-5.75-4.32Z"/><path class="cls-27" d="M439.71,101l-15.1,2.73A5.89,5.89,0,0,1,417.76,99h0a10.38,10.38,0,0,1,.66-5.85l11.52-27.08a9.12,9.12,0,0,1,6.76-5.4h0a6.74,6.74,0,0,1,7.83,5.43l4.24,23.44a.72.72,0,0,0,.84.58l1-.19a4.69,4.69,0,0,1,5.45,3.77h0a4.27,4.27,0,0,1-3.45,5L451.2,99a.71.71,0,0,0-.58.83l.8,4.4a4.91,4.91,0,0,1-4,5.7h0a5.33,5.33,0,0,1-6.19-4.29l-.72-4A.72.72,0,0,0,439.71,101Zm-4-26-.14,0-7.39,17.83a.72.72,0,0,0,.8,1l9.11-1.65a.71.71,0,0,0,.58-.83Z"/><polyline class="cls-28" points="434.19 66.46 421.28 99.14 449.53 94.02"/><polygon class="cls-24" points="449.45 94.72 450.48 93.85 449.21 93.4 449.45 94.72"/><line class="cls-29" x1="438.48" y1="65.31" x2="445.62" y2="104.77"/><polygon class="cls-24" points="444.9 104.69 445.79 105.75 446.26 104.44 444.9 104.69"/></g></g></svg>