<svg xmlns="http://www.w3.org/2000/svg" viewBox="0 0 129.14 206.46"><defs><style>.cls-1,.cls-15,.cls-16,.cls-17,.cls-18,.cls-19,.cls-6{fill:none;}.cls-1{stroke:#d80000;stroke-width:8px;}.cls-1,.cls-13,.cls-19,.cls-29,.cls-6,.cls-7{stroke-linecap:round;}.cls-1,.cls-13,.cls-29,.cls-7{stroke-linejoin:round;}.cls-2{fill:#fcee21;}.cls-20,.cls-27,.cls-28,.cls-29,.cls-3,.cls-5{fill:#fff;}.cls-11,.cls-4,.cls-7{fill:#d88500;}.cls-10,.cls-13,.cls-14,.cls-16,.cls-18,.cls-19,.cls-20,.cls-21,.cls-22,.cls-23,.cls-27,.cls-28,.cls-29,.cls-4,.cls-5,.cls-6,.cls-7,.cls-9{stroke:#000;}.cls-10,.cls-14,.cls-16,.cls-17,.cls-18,.cls-19,.cls-20,.cls-21,.cls-22,.cls-23,.cls-27,.cls-28,.cls-4,.cls-5,.cls-6,.cls-9{stroke-miterlimit:10;}.cls-4{stroke-width:0.85px;}.cls-5,.cls-6{stroke-width:0.83px;}.cls-7{stroke-width:1.28px;}.cls-8{fill:#fbccac;}.cls-9{fill:#ff7bac;}.cls-10,.cls-18,.cls-19,.cls-9{stroke-width:1.78px;}.cls-10{fill:#ccc;}.cls-12{fill:#f9b233;}.cls-13{stroke-width:0.01px;}.cls-14{fill:#666;}.cls-14,.cls-20{stroke-width:0.89px;}.cls-16{stroke-width:1.33px;}.cls-17{stroke:#bf720c;stroke-width:0.71px;}.cls-21{stroke-width:0.11px;}.cls-22{fill:#ffd18f;stroke-width:0.42px;}.cls-23{stroke-width:0.07px;}.cls-24{fill:#e5e5e5;}.cls-25{fill:#760dc9;}.cls-26{fill:#d7840b;}.cls-27{stroke-width:1.53px;}.cls-28{stroke-width:0.84px;}.cls-29{stroke-width:0.89px;}</style></defs><title>nivel1</title><g id="Layer_2" data-name="Layer 2"><g id="Contraportada_GUIA3" data-name="Contraportada GUIA3"><path class="cls-1" d="M13.08,26.06a3.35,3.35,0,0,1-1.89-.41,1.6,1.6,0,0,1-.69-1,8,8,0,0,1-.11-1.32l0-15.57a6.41,6.41,0,0,1,.12-1.26,1.54,1.54,0,0,1,.71-1,3.64,3.64,0,0,1,1.94-.39A3.34,3.34,0,0,1,15,5.43a3.83,3.83,0,0,1,.87.84l7.48,10.09,0-8.61a5.7,5.7,0,0,1,.14-1.25,1.6,1.6,0,0,1,.7-1,3.6,3.6,0,0,1,1.93-.39,3.39,3.39,0,0,1,1.93.41,1.63,1.63,0,0,1,.67,1,7,7,0,0,1,.12,1.32l0,15.48a6.88,6.88,0,0,1-.12,1.29,1.65,1.65,0,0,1-.7,1,3.5,3.5,0,0,1-1.95.4,5.4,5.4,0,0,1-1.54-.17,1.75,1.75,0,0,1-.89-.64L15.86,15v8.34a6.14,6.14,0,0,1-.13,1.29,1.6,1.6,0,0,1-.69,1A3.42,3.42,0,0,1,13.08,26.06Z"/><path class="cls-1" d="M35.28,26.11a3.42,3.42,0,0,1-1.92-.41,1.56,1.56,0,0,1-.67-1,7.92,7.92,0,0,1-.1-1.29l0-9.79a6.67,6.67,0,0,1,.12-1.27,1.61,1.61,0,0,1,.69-1,3.43,3.43,0,0,1,1.92-.4,3.36,3.36,0,0,1,1.91.41,1.63,1.63,0,0,1,.67,1A7,7,0,0,1,38,13.67l0,9.75a6.88,6.88,0,0,1-.13,1.29,1.54,1.54,0,0,1-.67,1A3.54,3.54,0,0,1,35.28,26.11Zm0-16.68A3.42,3.42,0,0,1,33.4,9a1.57,1.57,0,0,1-.68-1,7.84,7.84,0,0,1-.1-1.29,6.83,6.83,0,0,1,.12-1.3,1.59,1.59,0,0,1,.7-1A3.53,3.53,0,0,1,35.36,4a3.32,3.32,0,0,1,1.9.41,1.69,1.69,0,0,1,.68,1,7.83,7.83,0,0,1,.11,1.29A6.88,6.88,0,0,1,37.93,8a1.54,1.54,0,0,1-.68,1A3.5,3.5,0,0,1,35.32,9.43Z"/><path class="cls-1" d="M49.59,26.29A3,3,0,0,1,48.14,26a2.22,2.22,0,0,1-1-1L41.91,14.84a3.06,3.06,0,0,1-.42-2.16,2.68,2.68,0,0,1,1.62-1.52,3.43,3.43,0,0,1,2.22-.48q.81.21,1.47,1.71l2.81,6.43,2.83-6.41q.69-1.56,1.5-1.74a3.52,3.52,0,0,1,2.19.51c.94.47,1.48,1,1.62,1.58a3.14,3.14,0,0,1-.42,2.12L52,25a2.16,2.16,0,0,1-.93,1A3,3,0,0,1,49.59,26.29Z"/><path class="cls-1" d="M68.79,26.51A8.89,8.89,0,0,1,65,25.77a6.94,6.94,0,0,1-2.51-1.93,7.91,7.91,0,0,1-1.41-2.57,8.29,8.29,0,0,1-.44-2.67,8,8,0,0,1,1.06-4.16,7.45,7.45,0,0,1,2.91-2.82,8.82,8.82,0,0,1,4.26-1,7.64,7.64,0,0,1,3.18.61,6.18,6.18,0,0,1,2.14,1.53,6.12,6.12,0,0,1,1.21,2,5.63,5.63,0,0,1,.39,2,3.65,3.65,0,0,1-.84,2.6,2.86,2.86,0,0,1-2.17.9H66.37a1.64,1.64,0,0,0,.5.82,2.61,2.61,0,0,0,.94.54,3.78,3.78,0,0,0,1.23.2,8.17,8.17,0,0,0,1.17-.07,5.72,5.72,0,0,0,.89-.19l.69-.24.57-.2a1.71,1.71,0,0,1,.49-.07,1.55,1.55,0,0,1,1,.36,3.18,3.18,0,0,1,.81,1.08,3.38,3.38,0,0,1,.3.74,2.53,2.53,0,0,1,.09.64,1.89,1.89,0,0,1-.74,1.5,5,5,0,0,1-2.12.91A15.54,15.54,0,0,1,68.79,26.51Zm-2.41-9.15h3.36a.87.87,0,0,0,.61-.18.7.7,0,0,0,.2-.54,1,1,0,0,0-.22-.66,1.36,1.36,0,0,0-.62-.4,2.84,2.84,0,0,0-.93-.14,2.66,2.66,0,0,0-1.26.28,2.15,2.15,0,0,0-.82.72A1.89,1.89,0,0,0,66.38,17.36Z"/><path class="cls-1" d="M85.35,26.22a23.5,23.5,0,0,1-2.41-.13,5.31,5.31,0,0,1-1.76-.48,3,3,0,0,1-1.17-1,5,5,0,0,1-.65-1.77,15,15,0,0,1-.21-2.75l0-13.29a6.75,6.75,0,0,1,.12-1.3,1.62,1.62,0,0,1,.7-1A3.43,3.43,0,0,1,81.92,4a3.32,3.32,0,0,1,1.9.41,1.57,1.57,0,0,1,.67,1,7,7,0,0,1,.12,1.32l0,12.93c0,.3,0,.54,0,.71a.84.84,0,0,0,.09.38.29.29,0,0,0,.24.13l.46,0a3.54,3.54,0,0,1,.83.1,1.23,1.23,0,0,1,.75.64,3.75,3.75,0,0,1,.31,1.81A4.37,4.37,0,0,1,87,25.44a1.23,1.23,0,0,1-.77.67A3.73,3.73,0,0,1,85.35,26.22Z"/><path class="cls-1" d="M103.05,13.71a2.82,2.82,0,0,1-1.85.87,2.76,2.76,0,0,1-1.78-1.05,2.75,2.75,0,0,1-.93-2,3.08,3.08,0,0,1,1.27-2l3.81-3.41a2.53,2.53,0,0,1,1.85-.83,2.91,2.91,0,0,1,1.78,1.1,2.6,2.6,0,0,1,.88,1.94,3.3,3.3,0,0,1-1.28,2Zm3,12.61a2.93,2.93,0,0,1-2.1-.6,3,3,0,0,1-.59-2.14l0-15.62a2.93,2.93,0,0,1,.6-2.1,3,3,0,0,1,2.13-.6,2.88,2.88,0,0,1,2.1.62,3.05,3.05,0,0,1,.6,2.15l0,15.6a2.93,2.93,0,0,1-.61,2.09A3,3,0,0,1,106,26.32Z"/><path class="cls-2" d="M13.08,26.06a3.35,3.35,0,0,1-1.89-.41,1.6,1.6,0,0,1-.69-1,8,8,0,0,1-.11-1.32l0-15.57a6.41,6.41,0,0,1,.12-1.26,1.54,1.54,0,0,1,.71-1,3.64,3.64,0,0,1,1.94-.39A3.34,3.34,0,0,1,15,5.43a3.83,3.83,0,0,1,.87.84l7.48,10.09,0-8.61a5.7,5.7,0,0,1,.14-1.25,1.6,1.6,0,0,1,.7-1,3.6,3.6,0,0,1,1.93-.39,3.39,3.39,0,0,1,1.93.41,1.63,1.63,0,0,1,.67,1,7,7,0,0,1,.12,1.32l0,15.48a6.88,6.88,0,0,1-.12,1.29,1.65,1.65,0,0,1-.7,1,3.5,3.5,0,0,1-1.95.4,5.4,5.4,0,0,1-1.54-.17,1.75,1.75,0,0,1-.89-.64L15.86,15v8.34a6.14,6.14,0,0,1-.13,1.29,1.6,1.6,0,0,1-.69,1A3.42,3.42,0,0,1,13.08,26.06Z"/><path class="cls-2" d="M35.28,26.11a3.42,3.42,0,0,1-1.92-.41,1.56,1.56,0,0,1-.67-1,7.92,7.92,0,0,1-.1-1.29l0-9.79a6.67,6.67,0,0,1,.12-1.27,1.61,1.61,0,0,1,.69-1,3.43,3.43,0,0,1,1.92-.4,3.36,3.36,0,0,1,1.91.41,1.63,1.63,0,0,1,.67,1A7,7,0,0,1,38,13.67l0,9.75a6.88,6.88,0,0,1-.13,1.29,1.54,1.54,0,0,1-.67,1A3.54,3.54,0,0,1,35.28,26.11Zm0-16.68A3.42,3.42,0,0,1,33.4,9a1.57,1.57,0,0,1-.68-1,7.84,7.84,0,0,1-.1-1.29,6.83,6.83,0,0,1,.12-1.3,1.59,1.59,0,0,1,.7-1A3.53,3.53,0,0,1,35.36,4a3.32,3.32,0,0,1,1.9.41,1.69,1.69,0,0,1,.68,1,7.83,7.83,0,0,1,.11,1.29A6.88,6.88,0,0,1,37.93,8a1.54,1.54,0,0,1-.68,1A3.5,3.5,0,0,1,35.32,9.43Z"/><path class="cls-2" d="M49.59,26.29A3,3,0,0,1,48.14,26a2.22,2.22,0,0,1-1-1L41.91,14.84a3.06,3.06,0,0,1-.42-2.16,2.68,2.68,0,0,1,1.62-1.52,3.43,3.43,0,0,1,2.22-.48q.81.21,1.47,1.71l2.81,6.43,2.83-6.41q.69-1.56,1.5-1.74a3.52,3.52,0,0,1,2.19.51c.94.47,1.48,1,1.62,1.58a3.14,3.14,0,0,1-.42,2.12L52,25a2.16,2.16,0,0,1-.93,1A3,3,0,0,1,49.59,26.29Z"/><path class="cls-2" d="M68.79,26.51A8.89,8.89,0,0,1,65,25.77a6.94,6.94,0,0,1-2.51-1.93,7.91,7.91,0,0,1-1.41-2.57,8.29,8.29,0,0,1-.44-2.67,8,8,0,0,1,1.06-4.16,7.45,7.45,0,0,1,2.91-2.82,8.82,8.82,0,0,1,4.26-1,7.64,7.64,0,0,1,3.18.61,6.18,6.18,0,0,1,2.14,1.53,6.12,6.12,0,0,1,1.21,2,5.63,5.63,0,0,1,.39,2,3.65,3.65,0,0,1-.84,2.6,2.86,2.86,0,0,1-2.17.9H66.37a1.64,1.64,0,0,0,.5.82,2.61,2.61,0,0,0,.94.54,3.78,3.78,0,0,0,1.23.2,8.17,8.17,0,0,0,1.17-.07,5.72,5.72,0,0,0,.89-.19l.69-.24.57-.2a1.71,1.71,0,0,1,.49-.07,1.55,1.55,0,0,1,1,.36,3.18,3.18,0,0,1,.81,1.08,3.38,3.38,0,0,1,.3.74,2.53,2.53,0,0,1,.09.64,1.89,1.89,0,0,1-.74,1.5,5,5,0,0,1-2.12.91A15.54,15.54,0,0,1,68.79,26.51Zm-2.41-9.15h3.36a.87.87,0,0,0,.61-.18.7.7,0,0,0,.2-.54,1,1,0,0,0-.22-.66,1.36,1.36,0,0,0-.62-.4,2.84,2.84,0,0,0-.93-.14,2.66,2.66,0,0,0-1.26.28,2.15,2.15,0,0,0-.82.72A1.89,1.89,0,0,0,66.38,17.36Z"/><path class="cls-2" d="M85.35,26.22a23.5,23.5,0,0,1-2.41-.13,5.31,5.31,0,0,1-1.76-.48,3,3,0,0,1-1.17-1,5,5,0,0,1-.65-1.77,15,15,0,0,1-.21-2.75l0-13.29a6.75,6.75,0,0,1,.12-1.3,1.62,1.62,0,0,1,.7-1A3.43,3.43,0,0,1,81.92,4a3.32,3.32,0,0,1,1.9.41,1.57,1.57,0,0,1,.67,1,7,7,0,0,1,.12,1.32l0,12.93c0,.3,0,.54,0,.71a.84.84,0,0,0,.09.38.29.29,0,0,0,.24.13l.46,0a3.54,3.54,0,0,1,.83.1,1.23,1.23,0,0,1,.75.64,3.75,3.75,0,0,1,.31,1.81A4.37,4.37,0,0,1,87,25.44a1.23,1.23,0,0,1-.77.67A3.73,3.73,0,0,1,85.35,26.22Z"/><path class="cls-2" d="M103.05,13.71a2.82,2.82,0,0,1-1.85.87,2.76,2.76,0,0,1-1.78-1.05,2.75,2.75,0,0,1-.93-2,3.08,3.08,0,0,1,1.27-2l3.81-3.41a2.53,2.53,0,0,1,1.85-.83,2.91,2.91,0,0,1,1.78,1.1,2.6,2.6,0,0,1,.88,1.94,3.3,3.3,0,0,1-1.28,2Zm3,12.61a2.93,2.93,0,0,1-2.1-.6,3,3,0,0,1-.59-2.14l0-15.62a2.93,2.93,0,0,1,.6-2.1,3,3,0,0,1,2.13-.6,2.88,2.88,0,0,1,2.1.62,3.05,3.05,0,0,1,.6,2.15l0,15.6a2.93,2.93,0,0,1-.61,2.09A3,3,0,0,1,106,26.32Z"/><path class="cls-3" d="M13.08,26.06a3.35,3.35,0,0,1-1.89-.41,1.6,1.6,0,0,1-.69-1,8,8,0,0,1-.11-1.32l0-15.57a6.41,6.41,0,0,1,.12-1.26,1.54,1.54,0,0,1,.71-1,3.64,3.64,0,0,1,1.94-.39A3.34,3.34,0,0,1,15,5.43a3.83,3.83,0,0,1,.87.84l7.48,10.09,0-8.61a5.7,5.7,0,0,1,.14-1.25,1.6,1.6,0,0,1,.7-1,3.6,3.6,0,0,1,1.93-.39,3.39,3.39,0,0,1,1.93.41,1.63,1.63,0,0,1,.67,1,7,7,0,0,1,.12,1.32l0,15.48a6.88,6.88,0,0,1-.12,1.29,1.65,1.65,0,0,1-.7,1,3.5,3.5,0,0,1-1.95.4,5.4,5.4,0,0,1-1.54-.17,1.75,1.75,0,0,1-.89-.64L15.86,15v8.34a6.14,6.14,0,0,1-.13,1.29,1.6,1.6,0,0,1-.69,1A3.42,3.42,0,0,1,13.08,26.06Z"/><path class="cls-3" d="M35.28,26.11a3.42,3.42,0,0,1-1.92-.41,1.56,1.56,0,0,1-.67-1,7.92,7.92,0,0,1-.1-1.29l0-9.79a6.67,6.67,0,0,1,.12-1.27,1.61,1.61,0,0,1,.69-1,3.43,3.43,0,0,1,1.92-.4,3.36,3.36,0,0,1,1.91.41,1.63,1.63,0,0,1,.67,1A7,7,0,0,1,38,13.67l0,9.75a6.88,6.88,0,0,1-.13,1.29,1.54,1.54,0,0,1-.67,1A3.54,3.54,0,0,1,35.28,26.11Zm0-16.68A3.42,3.42,0,0,1,33.4,9a1.57,1.57,0,0,1-.68-1,7.84,7.84,0,0,1-.1-1.29,6.83,6.83,0,0,1,.12-1.3,1.59,1.59,0,0,1,.7-1A3.53,3.53,0,0,1,35.36,4a3.32,3.32,0,0,1,1.9.41,1.69,1.69,0,0,1,.68,1,7.83,7.83,0,0,1,.11,1.29A6.88,6.88,0,0,1,37.93,8a1.54,1.54,0,0,1-.68,1A3.5,3.5,0,0,1,35.32,9.43Z"/><path class="cls-3" d="M49.59,26.29A3,3,0,0,1,48.14,26a2.22,2.22,0,0,1-1-1L41.91,14.84a3.06,3.06,0,0,1-.42-2.16,2.68,2.68,0,0,1,1.62-1.52,3.43,3.43,0,0,1,2.22-.48q.81.21,1.47,1.71l2.81,6.43,2.83-6.41q.69-1.56,1.5-1.74a3.52,3.52,0,0,1,2.19.51c.94.47,1.48,1,1.62,1.58a3.14,3.14,0,0,1-.42,2.12L52,25a2.16,2.16,0,0,1-.93,1A3,3,0,0,1,49.59,26.29Z"/><path class="cls-3" d="M68.79,26.51A8.89,8.89,0,0,1,65,25.77a6.94,6.94,0,0,1-2.51-1.93,7.91,7.91,0,0,1-1.41-2.57,8.29,8.29,0,0,1-.44-2.67,8,8,0,0,1,1.06-4.16,7.45,7.45,0,0,1,2.91-2.82,8.82,8.82,0,0,1,4.26-1,7.64,7.64,0,0,1,3.18.61,6.18,6.18,0,0,1,2.14,1.53,6.12,6.12,0,0,1,1.21,2,5.63,5.63,0,0,1,.39,2,3.65,3.65,0,0,1-.84,2.6,2.86,2.86,0,0,1-2.17.9H66.37a1.64,1.64,0,0,0,.5.82,2.61,2.61,0,0,0,.94.54,3.78,3.78,0,0,0,1.23.2,8.17,8.17,0,0,0,1.17-.07,5.72,5.72,0,0,0,.89-.19l.69-.24.57-.2a1.71,1.71,0,0,1,.49-.07,1.55,1.55,0,0,1,1,.36,3.18,3.18,0,0,1,.81,1.08,3.38,3.38,0,0,1,.3.74,2.53,2.53,0,0,1,.09.64,1.89,1.89,0,0,1-.74,1.5,5,5,0,0,1-2.12.91A15.54,15.54,0,0,1,68.79,26.51Zm-2.41-9.15h3.36a.87.87,0,0,0,.61-.18.7.7,0,0,0,.2-.54,1,1,0,0,0-.22-.66,1.36,1.36,0,0,0-.62-.4,2.84,2.84,0,0,0-.93-.14,2.66,2.66,0,0,0-1.26.28,2.15,2.15,0,0,0-.82.72A1.89,1.89,0,0,0,66.38,17.36Z"/><path class="cls-3" d="M85.35,26.22a23.5,23.5,0,0,1-2.41-.13,5.31,5.31,0,0,1-1.76-.48,3,3,0,0,1-1.17-1,5,5,0,0,1-.65-1.77,15,15,0,0,1-.21-2.75l0-13.29a6.75,6.75,0,0,1,.12-1.3,1.62,1.62,0,0,1,.7-1A3.43,3.43,0,0,1,81.92,4a3.32,3.32,0,0,1,1.9.41,1.57,1.57,0,0,1,.67,1,7,7,0,0,1,.12,1.32l0,12.93c0,.3,0,.54,0,.71a.84.84,0,0,0,.09.38.29.29,0,0,0,.24.13l.46,0a3.54,3.54,0,0,1,.83.1,1.23,1.23,0,0,1,.75.64,3.75,3.75,0,0,1,.31,1.81A4.37,4.37,0,0,1,87,25.44a1.23,1.23,0,0,1-.77.67A3.73,3.73,0,0,1,85.35,26.22Z"/><path class="cls-3" d="M103.05,13.71a2.82,2.82,0,0,1-1.85.87,2.76,2.76,0,0,1-1.78-1.05,2.75,2.75,0,0,1-.93-2,3.08,3.08,0,0,1,1.27-2l3.81-3.41a2.53,2.53,0,0,1,1.85-.83,2.91,2.91,0,0,1,1.78,1.1,2.6,2.6,0,0,1,.88,1.94,3.3,3.3,0,0,1-1.28,2Zm3,12.61a2.93,2.93,0,0,1-2.1-.6,3,3,0,0,1-.59-2.14l0-15.62a2.93,2.93,0,0,1,.6-2.1,3,3,0,0,1,2.13-.6,2.88,2.88,0,0,1,2.1.62,3.05,3.05,0,0,1,.6,2.15l0,15.6a2.93,2.93,0,0,1-.61,2.09A3,3,0,0,1,106,26.32Z"/><path class="cls-4" d="M58.89,117.3,59.68,128c.78,0,7.89-.67,17.54-5.46a71.79,71.79,0,0,0,16-10.9,88,88,0,0,0,14.35-16.69L98.63,88.7c-7.17,10.86-15.85,18.92-25.84,24A42.48,42.48,0,0,1,58.89,117.3Z"/><path class="cls-5" d="M100.08,83.75s-4,2.38-1.58,7.54c2.83,6,13,6.67,13.09-.59Z"/><path class="cls-5" d="M99.41,83.83c.28-4.51-5.55-7.24-6.54-10.48-1.13-3.71,3.24-8.84,9.36,1.1,0,0,2.26-5.75,1-10.48-1.38-5.36,3.26-7.49,5.51-5.13,2,2.15,1.94,9.19.62,13a.85.85,0,0,0,.7,1.13l.21,0a.86.86,0,0,0,.93-.57A61.27,61.27,0,0,0,113.91,63c.58-4.36,8.43-3.28,7.74,2.52-.53,4.58-3.76,8.15-5.1,9.46a.88.88,0,0,0,0,1.18h0a.87.87,0,0,0,1.16.15,81.22,81.22,0,0,0,7.06-5.47c2.71-2.48,9.32,5.47-4.27,11.25,0,0-1.64,9.76-10.77,9.51C99.24,91.27,99.41,83.83,99.41,83.83Z"/><path class="cls-6" d="M103.74,76.86s6.6,1.34,4.13,8"/><path class="cls-7" d="M6.11,160.68q4.23.47,8.47.74c1.51-13.09,4.5-21.63,7-26.73,3-6.22,5.78-8.69,6.06-8.93l0,0-1.72-8.54c-.42.32-7.62,5.08-11.53,12.88A75,75,0,0,0,8.8,145.45,118,118,0,0,0,6.11,160.68Z"/><polygon class="cls-8" points="64.19 65.53 57.3 72.28 50.75 65.35 44.02 72.1 37.45 65.17 30.71 71.92 24.05 64.98 44.48 36.46 64.19 65.53"/><path class="cls-9" d="M62,175.54a17.28,17.28,0,0,1-3.68,6.84c-5.83,6.61-14.69,6.06-15.88,6-1.62,0-9.29-.26-15-6.31a19.71,19.71,0,0,1-4.25-7Z"/><path class="cls-10" d="M62.57,158.7q-.14,7.76-.26,15.51c-.08.39-.18.83-.32,1.33L23.17,175c-.22-.61-.38-1.15-.5-1.62l.21-15.22Z"/><path class="cls-11" d="M64.19,65.53,64,77.5s-1,54.13-1.45,81.2l-13.1-.18,1.28-93.17,6.55,6.93Z"/><polygon class="cls-11" points="37.43 65.14 36.15 158.31 22.86 158.13 23.86 76.92 24.02 64.96 30.68 71.89 37.43 65.14"/><polygon class="cls-12" points="50.75 65.35 49.47 158.52 36.17 158.34 37.45 65.17 44.02 72.1 50.75 65.35"/><path class="cls-13" d="M40,43a6.38,6.38,0,0,0,8.6.12l-4.11-6.68Z"/><line class="cls-14" x1="22.83" y1="161.26" x2="62.77" y2="161.8"/><line class="cls-14" x1="22.69" y1="172.06" x2="62.62" y2="172.61"/><line class="cls-15" x1="50.75" y1="65.35" x2="50.75" y2="65.3"/><line class="cls-16" x1="36.17" y1="158.34" x2="36.17" y2="158.34"/><line class="cls-16" x1="37.45" y1="65.17" x2="37.45" y2="65.16"/><line class="cls-17" x1="50.75" y1="65.3" x2="49.47" y2="158.52"/><line class="cls-17" x1="37.45" y1="65.21" x2="36.17" y2="158.34"/><path class="cls-18" d="M64.19,65.53,44.48,36.46,24.05,65l-.17,12-1,81.21,39.69.54C63,131.63,64,77.5,64,77.5Z"/><polyline class="cls-18" points="24.05 64.98 30.71 71.92 37.45 65.17 44.02 72.1 50.75 65.35 57.3 72.28 64.19 65.53"/><path class="cls-19" d="M26.91,86.37s4.43-4.51,8.6.12"/><path class="cls-19" d="M50.73,86.69s4.44-4.5,8.6.12"/><ellipse class="cls-20" cx="32.54" cy="102.74" rx="12.19" ry="8.24" transform="translate(-70.64 133.87) rotate(-89.22)"/><ellipse class="cls-21" cx="32.54" cy="102.74" rx="6.27" ry="4.24" transform="translate(-70.64 133.87) rotate(-89.22)"/><circle class="cls-3" cx="34.54" cy="100.1" r="1.62"/><ellipse class="cls-20" cx="54.54" cy="102.4" rx="12.19" ry="8.24" transform="translate(-48.6 155.53) rotate(-89.22)"/><ellipse class="cls-21" cx="54.6" cy="102.35" rx="6.27" ry="4.24" transform="translate(-48.49 155.54) rotate(-89.22)"/><circle class="cls-3" cx="56.74" cy="99.7" r="1.62"/><path class="cls-22" d="M54.25,121.38a3.1,3.1,0,0,1,1,5.86A25.15,25.15,0,0,1,28.1,124a3.1,3.1,0,1,1,4-4.76,19,19,0,0,0,20.45,2.46A3.11,3.11,0,0,1,54.25,121.38Z"/><path class="cls-23" d="M30.21,120.55a1.05,1.05,0,0,1,.54.24,21,21,0,0,0,22.68,2.73,1,1,0,0,1,.91,1.87,23.07,23.07,0,0,1-24.92-3,1,1,0,0,1,.79-1.83Z"/><path d="M40.45,184.18c1-5,4-8.38,6.9-7.79a4,4,0,0,1,2.74,2.42,8.61,8.61,0,0,1,4.69-.76,8.49,8.49,0,0,1,1.24.24,6,6,0,0,1,6.38,2.5l.82,1.22a17.94,17.94,0,0,0,2.53,3c1.5,1.44,4.8,5.51,3,12.2-.1.38-2.44,9.46-8.39,9.27h0a11.73,11.73,0,0,1-2.64-.69,5.44,5.44,0,0,1-.57,0,7.64,7.64,0,0,1-5.45-2.89,8.83,8.83,0,0,1-1.35-6.68,12,12,0,0,1-3-3.37A4.24,4.24,0,0,1,44,194.11l-.28,0C40.86,193.48,39.43,189.14,40.45,184.18ZM60.4,205.71c5.33.16,7.6-8.61,7.62-8.7,1.65-6.09-1-9.81-2.78-11.48a18.89,18.89,0,0,1-2.63-3.1l-.83-1.23a5.29,5.29,0,0,0-4.26-2.33,8.94,8.94,0,0,1,4.53,5.43c3.07,1.82,4.94,6.27,4.39,11.21s-3.5,9-7,10A8.74,8.74,0,0,0,60.4,205.71Zm-16.53-12.4c1.89.39,4.08-1.63,5.34-4.91a.38.38,0,0,1,.5-.22.39.39,0,0,1,.22.5,11.57,11.57,0,0,1-2.08,3.56,12,12,0,0,0,2.61,3.1,8.13,8.13,0,0,1,5.18-6.08.52.52,0,0,1,.66.31.51.51,0,0,1-.31.66,7.16,7.16,0,0,0-4.6,5.74,8,8,0,0,0,1.09,6.25,6.66,6.66,0,0,0,4.75,2.48c3.88.44,7.56-3.73,8.19-9.31s-2-10.46-5.92-10.9a.51.51,0,0,1-.45-.57.52.52,0,0,1,.57-.45,6,6,0,0,1,1.12.24,7.64,7.64,0,0,0-6.08-4.63,7.46,7.46,0,0,0-4.2.7,11.92,11.92,0,0,1,.47,4.12.39.39,0,0,1-.77,0c.17-3.56-1-6.32-3-6.71-2.39-.49-5.08,2.73-6,7.19S41.48,192.82,43.87,193.31Z"/><path class="cls-24" d="M59.44,205.53a8.74,8.74,0,0,0,1,.18c5.33.16,7.6-8.61,7.62-8.7,1.65-6.09-1-9.81-2.78-11.48a18.89,18.89,0,0,1-2.63-3.1l-.83-1.23a5.29,5.29,0,0,0-4.26-2.33,8.94,8.94,0,0,1,4.53,5.43c3.07,1.82,4.94,6.27,4.39,11.21S62.94,204.55,59.44,205.53Z"/><path class="cls-25" d="M43.87,193.31c1.89.39,4.08-1.63,5.34-4.91a.38.38,0,0,1,.5-.22.39.39,0,0,1,.22.5,11.57,11.57,0,0,1-2.08,3.56,12,12,0,0,0,2.61,3.1,8.13,8.13,0,0,1,5.18-6.08.52.52,0,0,1,.66.31.51.51,0,0,1-.31.66,7.16,7.16,0,0,0-4.6,5.74,8,8,0,0,0,1.09,6.25,6.66,6.66,0,0,0,4.75,2.48c3.88.44,7.56-3.73,8.19-9.31s-2-10.46-5.92-10.9a.51.51,0,0,1-.45-.57.52.52,0,0,1,.57-.45,6,6,0,0,1,1.12.24,7.64,7.64,0,0,0-6.08-4.63,7.46,7.46,0,0,0-4.2.7,11.92,11.92,0,0,1,.47,4.12.39.39,0,0,1-.77,0c.17-3.56-1-6.32-3-6.71-2.39-.49-5.08,2.73-6,7.19S41.48,192.82,43.87,193.31Z"/><path class="cls-26" d="M39.19,187a4.81,4.81,0,0,1-.93-.1c-17-3.66-26.91-8.13-30.27-13.66a6.11,6.11,0,0,1-.87-3.67v-.13a4.11,4.11,0,0,1,4.14-3.68h.26c2.6.06,5,.16,7.32.31A16.38,16.38,0,0,1,30,171.44l3.89,4.28a.64.64,0,0,1,.12.7.66.66,0,0,1-.58.4h-.16c2,.51,4.19,1,6.68,1.43a4.41,4.41,0,0,1,3.55,5.25A4.42,4.42,0,0,1,39.19,187Z"/><path d="M11.27,166.42h.22c2.85.06,5.23.17,7.32.3a15.85,15.85,0,0,1,10.7,5.15l3.9,4.28H33c-5,0-10.65-3.09-16.4-6.72,4.48,3.65,9.9,7.1,23.2,9.45a3.76,3.76,0,0,1,3,4.46h0a3.75,3.75,0,0,1-3.67,3,3.55,3.55,0,0,1-.79-.09C22.8,182.9,12,178.6,8.55,172.9a5.48,5.48,0,0,1-.78-3.28.45.45,0,0,0,0-.11,3.48,3.48,0,0,1,3.49-3.09m0-1.32h0a4.78,4.78,0,0,0-4.8,4.27v.14a6.78,6.78,0,0,0,1,4.07c3.47,5.7,13.51,10.26,30.7,14a4.8,4.8,0,0,0,1.07.11,5.06,5.06,0,0,0,4.2-7.89,5,5,0,0,0-3.32-2.15c-2-.35-3.76-.72-5.39-1.11a1.35,1.35,0,0,0-.3-1.23L30.49,171a17,17,0,0,0-11.59-5.58c-2.31-.15-4.72-.25-7.36-.31Z"/><path class="cls-26" d="M44,191.15a4.42,4.42,0,0,1-4.31-3.5,4.4,4.4,0,0,1,3.55-5.24c2.49-.44,4.71-.92,6.68-1.44h-.16a.66.66,0,0,1-.59-.4.66.66,0,0,1,.12-.7l3.9-4.28a16.42,16.42,0,0,1,11.15-5.36c2.29-.15,4.69-.25,7.34-.31h.24a4.12,4.12,0,0,1,4.14,3.68v.13a6.09,6.09,0,0,1-.87,3.67c-3.37,5.53-13.27,10-30.27,13.66A4.2,4.2,0,0,1,44,191.15Z"/><path d="M71.94,170.57a3.49,3.49,0,0,1,3.49,3.09.41.41,0,0,0,0,.11,5.47,5.47,0,0,1-.78,3.28c-3.48,5.71-14.25,10-29.85,13.36a4.23,4.23,0,0,1-.79.08,3.75,3.75,0,0,1-.65-7.44c13.3-2.34,18.72-5.8,23.2-9.45-5.75,3.63-11.4,6.72-16.4,6.72H49.8L53.7,176a15.81,15.81,0,0,1,10.7-5.15c2.09-.14,4.47-.25,7.32-.31h.22m0-1.31h-.27c-2.65.06-5,.16-7.36.31a17.13,17.13,0,0,0-11.59,5.58l-3.89,4.28a1.27,1.27,0,0,0-.3,1.22c-1.63.39-3.42.76-5.39,1.11a5.06,5.06,0,0,0-4.08,6,5.09,5.09,0,0,0,5,4,4.81,4.81,0,0,0,1.07-.12c17.19-3.69,27.23-8.26,30.69-14a6.7,6.7,0,0,0,1-4.07v-.13a4.77,4.77,0,0,0-4.8-4.27Z"/><path d="M22.11,184.52A18.24,18.24,0,0,0,25,181.85l1-1.13A6,6,0,0,1,32.53,179a7.68,7.68,0,0,1,1.27-.1,8.45,8.45,0,0,1,4.57,1.28,4,4,0,0,1,3-2.11c2.9-.26,5.53,3.48,6,8.52S45.9,195.74,43,196h-.28a4.27,4.27,0,0,1-3.15-1.68,12.07,12.07,0,0,1-3.36,3,8.83,8.83,0,0,1-2.08,6.49,7.69,7.69,0,0,1-5.74,2.26,5.46,5.46,0,0,1-.58,0,11.93,11.93,0,0,1-2.69.4h0c-5.92-.48-7.24-9.76-7.29-10.15C16.73,189.46,20.46,185.79,22.11,184.52Zm6.27,20.55a6.64,6.64,0,0,0,5-1.94A8,8,0,0,0,35.16,197a7.18,7.18,0,0,0-3.94-6.22.52.52,0,0,1-.23-.69.51.51,0,0,1,.69-.23,8.13,8.13,0,0,1,4.47,6.61,12.27,12.27,0,0,0,2.94-2.78A11.71,11.71,0,0,1,37.42,190a.4.4,0,0,1,.28-.48.39.39,0,0,1,.47.28c.88,3.4,2.83,5.65,4.75,5.48,2.43-.22,4.07-4.09,3.66-8.62s-2.73-8-5.15-7.82c-2,.18-3.47,2.79-3.7,6.34a.37.37,0,0,1-.41.36.38.38,0,0,1-.36-.41,11.83,11.83,0,0,1,.93-4,7.49,7.49,0,0,0-4.09-1.16,7.64,7.64,0,0,0-6.57,3.92,5.54,5.54,0,0,1,1.15-.11.51.51,0,0,1,.51.51.52.52,0,0,1-.51.52c-3.92,0-7.1,4.56-7.1,10.16S24.46,205.07,28.38,205.07Zm-9.87-8.86c0,.09,1.28,9.06,6.6,9.5a9.7,9.7,0,0,0,1-.07c-3.36-1.37-5.83-5.67-5.83-10.75s2.36-9.18,5.61-10.64A9,9,0,0,1,31,179.36a5.28,5.28,0,0,0-4.49,1.85l-1,1.12a18.76,18.76,0,0,1-3,2.78C20.64,186.58,17.56,190,18.51,196.21Z"/><path class="cls-24" d="M18.51,196.21c0,.09,1.28,9.06,6.6,9.5a9.7,9.7,0,0,0,1-.07c-3.36-1.37-5.83-5.67-5.83-10.75s2.36-9.18,5.61-10.64A9,9,0,0,1,31,179.36a5.28,5.28,0,0,0-4.49,1.85l-1,1.12a18.76,18.76,0,0,1-3,2.78C20.64,186.58,17.56,190,18.51,196.21Z"/><path class="cls-25" d="M21.28,194.89c0,5.61,3.18,10.18,7.1,10.18a6.64,6.64,0,0,0,5-1.94A8,8,0,0,0,35.16,197a7.18,7.18,0,0,0-3.94-6.22.52.52,0,0,1-.23-.69.51.51,0,0,1,.69-.23,8.13,8.13,0,0,1,4.47,6.61,12.27,12.27,0,0,0,2.94-2.78A11.71,11.71,0,0,1,37.42,190a.4.4,0,0,1,.28-.48.39.39,0,0,1,.47.28c.88,3.4,2.83,5.65,4.75,5.48,2.43-.22,4.07-4.09,3.66-8.62s-2.73-8-5.15-7.82c-2,.18-3.47,2.79-3.7,6.34a.37.37,0,0,1-.41.36.38.38,0,0,1-.36-.41,11.83,11.83,0,0,1,.93-4,7.49,7.49,0,0,0-4.09-1.16,7.64,7.64,0,0,0-6.57,3.92,5.54,5.54,0,0,1,1.15-.11.51.51,0,0,1,.51.51.52.52,0,0,1-.51.52C24.46,184.73,21.28,189.29,21.28,194.89Z"/><path class="cls-27" d="M44.81,190.41a3.76,3.76,0,0,1-4.46-2.89h0a3.75,3.75,0,0,1,3-4.47l4.36-.86c-.56,3.08,0,5.49,1.68,7.16Z"/><path class="cls-28" d="M4.27,164.47s-1.65-4.15,4.06-6.19c6.62-2.37,15.56,3.48,10.46,8.55Z"/><ellipse class="cls-3" cx="11.25" cy="166.13" rx="6.67" ry="5.13"/><path class="cls-29" d="M9.86,161.16c-4,.15-7.15,2.64-8.75,8.93-1,4.27-.85,7.57.36,10a2.93,2.93,0,0,0,3.41,1.53h0l.6-3.59"/><path class="cls-29" d="M4.7,172.37a14.55,14.55,0,0,0-1.07,8.14,7.66,7.66,0,0,0,2.61,4.79,2.39,2.39,0,0,0,2.26.58h0a1.55,1.55,0,0,0,1-2l-.7-2a10.22,10.22,0,0,1-.62-3,25,25,0,0,1,.46-5.45A16,16,0,0,0,9.4,183.8a4,4,0,0,0,2.16,2.06h0a2,2,0,0,0,2.23-.48l.32-.33a3.48,3.48,0,0,0,1-2.39h0a2.91,2.91,0,0,0-.22-1.09l-.3-.7a9,9,0,0,1-.69-4.44l.32-3.18a.17.17,0,0,1,.33,0,15.47,15.47,0,0,0,.55,3,6.75,6.75,0,0,0,1.47,2.64l.21.24a2.7,2.7,0,0,0,1.51.89,2.14,2.14,0,0,0,1.42-.2,2.32,2.32,0,0,0,1-3l-.59-1.43a10,10,0,0,1-.67-5.13l.11-.82a5.47,5.47,0,0,0-.28-2.57h0a7.59,7.59,0,0,0-2.16-3.17l-1.62-1.41"/></g></g></svg>