<svg xmlns="http://www.w3.org/2000/svg" viewBox="0 0 144.24 184.46"><defs><style>.cls-1{fill:#e5e5e5;}.cls-2{fill:#bf4400;}.cls-21,.cls-3{fill:#003b49;}.cls-15,.cls-18,.cls-22,.cls-4,.cls-6{fill:#fff;}.cls-10,.cls-11,.cls-12,.cls-13,.cls-14,.cls-15,.cls-16,.cls-17,.cls-19,.cls-20,.cls-21,.cls-22,.cls-23,.cls-4,.cls-5,.cls-6,.cls-7,.cls-9{stroke:#000;stroke-miterlimit:10;}.cls-17,.cls-21,.cls-4,.cls-5,.cls-9{stroke-width:1.29px;}.cls-5{fill:#3291b2;}.cls-6,.cls-7{stroke-width:0.59px;}.cls-14,.cls-17,.cls-23,.cls-24,.cls-7,.cls-9{fill:none;}.cls-17,.cls-23,.cls-24,.cls-7{stroke-linecap:round;}.cls-10,.cls-8{fill:#00607a;}.cls-10,.cls-14{stroke-width:0.75px;}.cls-11,.cls-12,.cls-13{fill:#b3b3b3;}.cls-11{stroke-width:0.56px;}.cls-12{stroke-width:0.33px;}.cls-13{stroke-width:0.38px;}.cls-15{stroke-width:0.64px;}.cls-16{stroke-width:0.08px;}.cls-19{fill:#75c6d3;stroke-width:0.57px;}.cls-20{stroke-width:0.06px;}.cls-22,.cls-23{stroke-width:0.66px;}.cls-24{stroke:#32b228;stroke-linejoin:round;stroke-width:8px;}.cls-25{fill:#fcee21;}</style></defs><title>nivel2</title><g id="Layer_2" data-name="Layer 2"><g id="Contraportada_GUIA3" data-name="Contraportada GUIA3"><path class="cls-1" d="M110.31,181.21a26.13,26.13,0,0,1-2.88-.5c-.27-.06-4.78-1.09-6.39-1.19H101a53.08,53.08,0,0,0-7.59.67l-.28,0a7.56,7.56,0,0,1-1.42.05,7,7,0,0,1-5.91-3.93,3.86,3.86,0,0,0,1.13,4.47c2.94,2.31,5.53,2,8.81,1.63a33.08,33.08,0,0,1,4.62-.32,41.74,41.74,0,0,1,7.17.85c3.33.63,5.74,1.08,9.06-.52a4.92,4.92,0,0,0,2.56-4.35A11,11,0,0,1,110.31,181.21Z"/><path class="cls-2" d="M111.17,167.28a12,12,0,0,0-4.94.72h0a7.23,7.23,0,0,0-3.69,3.73.46.46,0,0,1-.61.2.46.46,0,0,1-.21-.61,9.46,9.46,0,0,1,2.3-3,9.4,9.4,0,0,0-3.08-3.74,13.15,13.15,0,0,1-3.43.65h-.06a.46.46,0,0,1,0-.91,12.06,12.06,0,0,0,3.38-.66l0,0c1.56-.58,2.56-1.48,2.62-2.49.12-2-3.31-3.87-7.49-4.12s-7.82,1.19-7.94,3.17c-.07,1.08.94,2.17,2.63,3l.06,0a11.65,11.65,0,0,0,2,.71.44.44,0,0,1,.33.55.45.45,0,0,1-.55.33,13.76,13.76,0,0,1-2-.68,9.5,9.5,0,0,0-4.67,7.61,9.32,9.32,0,0,0,.39,3.32v.06A6.13,6.13,0,0,0,93,179.32l.28,0a53.64,53.64,0,0,1,7.76-.68,60.59,60.59,0,0,1,6.6,1.22h0a27.08,27.08,0,0,0,2.7.46c3.77.23,7.3-1.26,8.78-3.72a4.8,4.8,0,0,0,.71-2.23C120.08,170.76,116.18,167.59,111.17,167.28Z"/><path d="M111.22,166.38a12.61,12.61,0,0,0-5.3.77,4.58,4.58,0,0,0-1.19.61,10.33,10.33,0,0,0-2.84-3.58c1.49-.74,2.41-1.78,2.49-3,.15-2.55-3.51-4.78-8.35-5.08s-8.75,1.47-8.9,4c-.08,1.3.83,2.54,2.45,3.48a10.46,10.46,0,0,0-4.26,11.49c-1.48,3-.38,5.32,1,6.43a9.12,9.12,0,0,0,5.29,2.06,24.09,24.09,0,0,0,4.18-.25,31.85,31.85,0,0,1,4.51-.31,39.34,39.34,0,0,1,7,.84c3.37.63,6,1.12,9.63-.6a5.54,5.54,0,0,0,3-4.2,7.31,7.31,0,0,0,.08-2.19,5.72,5.72,0,0,0,.75-2.49C121,170.32,116.74,166.71,111.22,166.38Zm5.36,16.08c-3.32,1.6-5.73,1.15-9.06.52a41.74,41.74,0,0,0-7.17-.85,33.08,33.08,0,0,0-4.62.32c-3.28.38-5.87.68-8.81-1.63a3.86,3.86,0,0,1-1.13-4.47,7,7,0,0,0,5.91,3.93,7.56,7.56,0,0,0,1.42-.05l.28,0a53.08,53.08,0,0,1,7.59-.67H101c1.61.1,6.12,1.13,6.39,1.19a26.13,26.13,0,0,0,2.88.5,11,11,0,0,0,8.83-3.1A4.92,4.92,0,0,1,116.58,182.46Zm2.57-5.88c-1.48,2.46-5,3.95-8.78,3.72a27.08,27.08,0,0,1-2.7-.46h0a60.59,60.59,0,0,0-6.6-1.22,53.64,53.64,0,0,0-7.76.68l-.28,0a6.13,6.13,0,0,1-6.74-4.23V175a9.32,9.32,0,0,1-.39-3.32,9.5,9.5,0,0,1,4.67-7.61,13.76,13.76,0,0,0,2,.68.45.45,0,0,0,.55-.33.44.44,0,0,0-.33-.55,11.65,11.65,0,0,1-2-.71l-.06,0c-1.69-.8-2.7-1.89-2.63-3,.12-2,3.75-3.43,7.94-3.17s7.61,2.14,7.49,4.12c-.06,1-1.06,1.91-2.62,2.49l0,0a12.06,12.06,0,0,1-3.38.66.46.46,0,0,0,0,.91h.06a13.15,13.15,0,0,0,3.43-.65,9.4,9.4,0,0,1,3.08,3.74,9.46,9.46,0,0,0-2.3,3,.46.46,0,0,0,.21.61.46.46,0,0,0,.61-.2A7.23,7.23,0,0,1,106.2,168h0a12,12,0,0,1,4.94-.72c5,.31,8.91,3.48,8.69,7.07A4.8,4.8,0,0,1,119.15,176.58Z"/><path class="cls-3" d="M95.5,161.68a4.87,4.87,0,0,1-.65-.05A4.06,4.06,0,0,1,91.51,157c2.87-17.68-5.51-37.07-5.6-37.27a4,4,0,0,1,7.4-3.27c.39.88,9.45,21.74,6.18,41.84A4,4,0,0,1,95.5,161.68Z"/><path d="M89.61,114.68a3.39,3.39,0,0,1,3.11,2c.39.87,9.38,21.53,6.13,41.48A3.39,3.39,0,0,1,95.5,161a3.48,3.48,0,0,1-.55,0,3.4,3.4,0,0,1-2.81-3.9c2.9-17.87-5.5-37.33-5.64-37.64A3.4,3.4,0,0,1,88.24,115a3.31,3.31,0,0,1,1.37-.29m0-1.29a4.75,4.75,0,0,0-1.89.4,4.7,4.7,0,0,0-2.4,6.18c.09.19,8.39,19.44,5.55,36.91a4.69,4.69,0,0,0,3.88,5.38,4.74,4.74,0,0,0,.75.06,4.68,4.68,0,0,0,4.63-3.94c3.3-20.31-5.84-41.31-6.23-42.2a4.7,4.7,0,0,0-4.29-2.79Z"/><path class="cls-4" d="M95,151.69H96.6a3.73,3.73,0,0,1,3.73,3.73v6a.61.61,0,0,1-.61.61h-7.8a.61.61,0,0,1-.61-.61v-6A3.73,3.73,0,0,1,95,151.69Z" transform="translate(181.87 319.26) rotate(-176.49)"/><path class="cls-1" d="M54.34,181.21a26.21,26.21,0,0,0,2.89-.5c.26-.06,4.77-1.09,6.39-1.19h0a53.08,53.08,0,0,1,7.59.67l.28,0a7.56,7.56,0,0,0,1.42.05,7,7,0,0,0,5.92-3.93,3.86,3.86,0,0,1-1.14,4.47c-2.94,2.31-5.53,2-8.8,1.63a33.23,33.23,0,0,0-4.63-.32,41.61,41.61,0,0,0-7.16.85c-3.34.63-5.75,1.08-9.07-.52a4.92,4.92,0,0,1-2.56-4.35A11,11,0,0,0,54.34,181.21Z"/><path class="cls-2" d="M53.49,167.28a12,12,0,0,1,4.93.72h0a7.22,7.22,0,0,1,3.7,3.73.45.45,0,1,0,.81-.41,9.32,9.32,0,0,0-2.3-3,9.57,9.57,0,0,1,3.08-3.74,13.23,13.23,0,0,0,3.44.65h0a.45.45,0,0,0,.43-.43.46.46,0,0,0-.43-.48,12.14,12.14,0,0,1-3.38-.66l0,0c-1.56-.58-2.56-1.48-2.62-2.49-.13-2,3.31-3.87,7.49-4.12s7.82,1.19,7.94,3.17c.07,1.08-.94,2.17-2.64,3l-.06,0a11.36,11.36,0,0,1-2,.71.45.45,0,0,0-.33.55.46.46,0,0,0,.55.33,13.76,13.76,0,0,0,2-.68A9.52,9.52,0,0,1,78.41,175l0,.06a6.12,6.12,0,0,1-6.73,4.23l-.28,0a53.77,53.77,0,0,0-7.77-.68,60.59,60.59,0,0,0-6.6,1.22h0a27.16,27.16,0,0,1-2.71.46c-3.77.23-7.29-1.26-8.78-3.72a4.91,4.91,0,0,1-.71-2.23C44.57,170.76,48.47,167.59,53.49,167.28Z"/><path d="M43.88,174.4a5.86,5.86,0,0,0,.75,2.49,8,8,0,0,0,.08,2.19,5.53,5.53,0,0,0,3,4.2c3.58,1.72,6.25,1.23,9.62.6a39.46,39.46,0,0,1,7-.84,31.7,31.7,0,0,1,4.5.31,24.09,24.09,0,0,0,4.18.25,9.1,9.1,0,0,0,5.29-2.06c1.42-1.11,2.53-3.46,1-6.43a10.58,10.58,0,0,0,.37-3.46,10.39,10.39,0,0,0-4.63-8c1.62-.94,2.54-2.18,2.46-3.48-.16-2.55-4.07-4.32-8.91-4s-8.5,2.53-8.34,5.08c.07,1.2,1,2.24,2.49,3a10.24,10.24,0,0,0-2.85,3.58,4.77,4.77,0,0,0-1.18-.61,12.65,12.65,0,0,0-5.31-.77C47.92,166.71,43.63,170.32,43.88,174.4Zm1.63,3.71a11,11,0,0,0,8.83,3.1,26.21,26.21,0,0,0,2.89-.5c.26-.06,4.77-1.09,6.39-1.19h0a53.08,53.08,0,0,1,7.59.67l.28,0a7.56,7.56,0,0,0,1.42.05,7,7,0,0,0,5.92-3.93,3.86,3.86,0,0,1-1.14,4.47c-2.94,2.31-5.53,2-8.8,1.63a33.23,33.23,0,0,0-4.63-.32,41.61,41.61,0,0,0-7.16.85c-3.34.63-5.75,1.08-9.07-.52A4.92,4.92,0,0,1,45.51,178.11Zm-.72-3.76c-.22-3.59,3.68-6.76,8.7-7.07a12,12,0,0,1,4.93.72h0a7.22,7.22,0,0,1,3.7,3.73.45.45,0,1,0,.81-.41,9.32,9.32,0,0,0-2.3-3,9.57,9.57,0,0,1,3.08-3.74,13.23,13.23,0,0,0,3.44.65h0a.45.45,0,0,0,.43-.43.46.46,0,0,0-.43-.48,12.14,12.14,0,0,1-3.38-.66l0,0c-1.56-.58-2.56-1.48-2.62-2.49-.13-2,3.31-3.87,7.49-4.12s7.82,1.19,7.94,3.17c.07,1.08-.94,2.17-2.64,3l-.06,0a11.36,11.36,0,0,1-2,.71.45.45,0,0,0-.33.55.46.46,0,0,0,.55.33,13.76,13.76,0,0,0,2-.68A9.52,9.52,0,0,1,78.41,175l0,.06a6.12,6.12,0,0,1-6.73,4.23l-.28,0a53.77,53.77,0,0,0-7.77-.68,60.59,60.59,0,0,0-6.6,1.22h0a27.16,27.16,0,0,1-2.71.46c-3.77.23-7.29-1.26-8.78-3.72A4.91,4.91,0,0,1,44.79,174.35Z"/><path class="cls-3" d="M69.15,161.68a4,4,0,0,1-4-3.4c-3.26-20.11,5.79-41,6.18-41.84a4,4,0,0,1,5.34-2.06,4.05,4.05,0,0,1,2.06,5.33c-.08.2-8.46,19.59-5.59,37.27a4,4,0,0,1-3.34,4.64A3.77,3.77,0,0,1,69.15,161.68Z"/><path d="M75,114.68a3.39,3.39,0,0,1,3.11,4.77c-.13.31-8.54,19.77-5.64,37.64a3.4,3.4,0,0,1-6.71,1.09c-3.24-20,5.75-40.61,6.13-41.48a3.4,3.4,0,0,1,3.11-2m0-1.29h0a4.71,4.71,0,0,0-4.29,2.79c-.39.89-9.52,21.89-6.22,42.2a4.67,4.67,0,0,0,4.62,3.94,4.87,4.87,0,0,0,.76-.06,4.69,4.69,0,0,0,3.87-5.38c-2.84-17.47,5.47-36.72,5.55-36.91a4.59,4.59,0,0,0,.08-3.58,4.67,4.67,0,0,0-2.47-2.6,4.76,4.76,0,0,0-1.9-.4Z"/><path class="cls-4" d="M64.93,151.69h7.8a.61.61,0,0,1,.61.61v6A3.73,3.73,0,0,1,69.61,162H68a3.73,3.73,0,0,1-3.73-3.73v-6A.61.61,0,0,1,64.93,151.69Z" transform="translate(-9.48 4.51) rotate(-3.51)"/><path class="cls-5" d="M49.3,96l-.55,7.43a35.31,35.31,0,0,1-12.21-3.8A50.53,50.53,0,0,1,25.42,92a60.57,60.57,0,0,1-10-11.61l6.21-4.33c5,7.55,11,13.17,18,16.7A29.91,29.91,0,0,0,49.3,96Z"/><path class="cls-6" d="M20.7,73.11s2.87,1.69,1.13,5.37c-2,4.26-9.26,4.75-9.33-.42Z"/><path class="cls-6" d="M21.18,73.16C21,70,25.13,68,25.84,65.7c.81-2.64-2.31-6.3-6.67.79,0,0-1.61-4.1-.75-7.47,1-3.82-2.32-5.34-3.92-3.66s-1.39,6.55-.44,9.25a.62.62,0,0,1-.5.81l-.15,0a.62.62,0,0,1-.66-.41,43.08,43.08,0,0,1-1.9-6.74c-.41-3.11-6-2.34-5.51,1.8A12.08,12.08,0,0,0,9,66.83a.61.61,0,0,1,0,.83H9a.61.61,0,0,1-.83.11,60.14,60.14,0,0,1-5-3.89c-1.93-1.77-6.64,3.89,3,8,0,0,1.17,7,7.67,6.78C21.3,78.47,21.18,73.16,21.18,73.16Z"/><path class="cls-7" d="M18.1,68.2s-4.7,1-2.94,5.68"/><rect class="cls-8" x="110.51" y="92.59" width="4.92" height="38.02"/><path class="cls-3" d="M115.43,92.59h-4.92a10.52,10.52,0,0,1-1.88-1.89c-2.48-3.17-4.09-8.26-4.09-14s1.68-11,4.24-14.18a10.73,10.73,0,0,1,1.73-1.71h4.92a10.73,10.73,0,0,0-1.73,1.71c-2.57,3.15-4.24,8.33-4.24,14.18s1.61,10.83,4.09,14A10.52,10.52,0,0,0,115.43,92.59Z"/><rect class="cls-8" x="110.51" y="42.47" width="4.92" height="18.34"/><path class="cls-9" d="M113.7,62.52c-2.57,3.15-4.24,8.33-4.24,14.18s1.61,10.83,4.09,14a10.92,10.92,0,0,0,1.88,1.9v38h-63V91.67a11.48,11.48,0,0,0,.84-1c2.48-3.17,4.09-8.26,4.09-14s-1.68-11-4.24-14.18q-.35-.42-.69-.78V42.47h63V60.81A10.73,10.73,0,0,0,113.7,62.52Z"/><path class="cls-10" d="M108.78,62.52c-2.56,3.15-4.24,8.33-4.24,14.18s1.61,10.83,4.09,14a10.52,10.52,0,0,0,1.88,1.89v38H52.41v-39a10,10,0,0,0,.84-1c2.48-3.17,4.09-8.26,4.09-14s-1.68-11-4.24-14.18q-.35-.42-.69-.78V42.47h58.1V60.81A10.73,10.73,0,0,0,108.78,62.52Z"/><path class="cls-5" d="M108.78,62.52c-2.56,3.15-4.24,8.33-4.24,14.18s1.61,10.83,4.09,14a10.52,10.52,0,0,0,1.88,1.89v38h-63v-39a10,10,0,0,0,.84-1c2.48-3.17,4.09-8.26,4.09-14s-1.67-11-4.24-14.18q-.34-.42-.69-.78V42.47h63V60.81A10.73,10.73,0,0,0,108.78,62.52Z"/><path class="cls-11" d="M69.16,42.46H91.32a0,0,0,0,1,0,0V62.12A11.08,11.08,0,0,1,80.24,73.2h0A11.08,11.08,0,0,1,69.16,62.12V42.46A0,0,0,0,1,69.16,42.46Z"/><line class="cls-12" x1="80.04" y1="42.52" x2="80.04" y2="73.2"/><circle class="cls-13" cx="86.16" cy="55.61" r="2.25"/><line class="cls-14" x1="110.51" y1="60.81" x2="115.43" y2="60.81"/><line class="cls-14" x1="110.51" y1="92.6" x2="115.43" y2="92.6"/><ellipse class="cls-15" cx="62.19" cy="97.83" rx="7.62" ry="11.29"/><ellipse class="cls-15" cx="82.54" cy="97.23" rx="7.62" ry="11.29"/><ellipse class="cls-16" cx="82.76" cy="97.23" rx="3.92" ry="5.81"/><ellipse class="cls-16" cx="62.55" cy="97.23" rx="3.92" ry="5.81"/><path class="cls-17" d="M56.76,82.74s4.05-4.22,8,0"/><path class="cls-17" d="M78.81,82.74s4-4.22,8,0"/><circle class="cls-18" cx="61.12" cy="95.02" r="1.18"/><circle class="cls-18" cx="81.56" cy="95.02" r="1.18"/><path class="cls-19" d="M89,111.21A2.82,2.82,0,0,1,91.46,116a22.83,22.83,0,0,1-24.35,4.75,2.82,2.82,0,0,1,2.11-5.22A17.19,17.19,0,0,0,87.56,112,2.76,2.76,0,0,1,89,111.21Z"/><path class="cls-20" d="M68,117.21a1,1,0,0,1,.54.05,19.05,19.05,0,0,0,20.34-4,.93.93,0,0,1,1.33,0,.94.94,0,0,1,0,1.33A21,21,0,0,1,67.81,119a.95.95,0,0,1,.17-1.8Z"/><line class="cls-14" x1="110.51" y1="130.61" x2="115.43" y2="130.61"/><path class="cls-21" d="M132.5,134.3c-2.59.51-5.18,1-7.79,1.33-2.4-12-5.82-19.68-8.47-24.22a37.33,37.33,0,0,0-3.31-4.81l-.05-7.89,1.56-.79a32.19,32.19,0,0,1,8.14,8.71,69.61,69.61,0,0,1,6.27,13.78A110.31,110.31,0,0,1,132.5,134.3Z"/><ellipse class="cls-22" cx="128.65" cy="134.64" rx="5.74" ry="3.66" transform="translate(-51.04 85.77) rotate(-31.09)"/><path class="cls-22" d="M133.83,133.22c2.94.34,4.23,1.09,6.46-.66,2.57-2,5.51,1.56,2,4.21a7.35,7.35,0,0,1-4.89,1.82,37.93,37.93,0,0,1,4.21,5.6c2.86,5.06,1.7,6.74-.12,7-2.1.27-4.81-7.37-6.17-7.12s1.76,5.57,2.38,7.49c1,3.28-2.57,4.31-3.81,2.42s-2-8.23-2.91-7.43-.08,5.73-1.73,6.59-4.5,0-3.68-3.46,1.87-4.43.49-6.3S123.58,132.05,133.83,133.22Z"/><path class="cls-23" d="M136,138.66s-3.86,3.37-7.34.28"/><path class="cls-24" d="M25.71,26.06a3.35,3.35,0,0,1-1.89-.41,1.6,1.6,0,0,1-.69-1A8,8,0,0,1,23,23.3l0-15.57a6.41,6.41,0,0,1,.12-1.26,1.54,1.54,0,0,1,.71-1,3.64,3.64,0,0,1,1.94-.39,3.34,3.34,0,0,1,1.79.34,3.83,3.83,0,0,1,.87.84L36,16.36l0-8.61a5.63,5.63,0,0,1,.14-1.25,1.6,1.6,0,0,1,.7-1,3.56,3.56,0,0,1,1.92-.39,3.43,3.43,0,0,1,1.94.41,1.63,1.63,0,0,1,.67,1,7,7,0,0,1,.12,1.32l0,15.48a6.14,6.14,0,0,1-.13,1.29,1.6,1.6,0,0,1-.69,1,3.5,3.5,0,0,1-1.95.4,5.4,5.4,0,0,1-1.54-.17,1.75,1.75,0,0,1-.89-.64L28.49,15v8.34a6.88,6.88,0,0,1-.13,1.29,1.6,1.6,0,0,1-.69,1A3.42,3.42,0,0,1,25.71,26.06Z"/><path class="cls-24" d="M47.91,26.11A3.42,3.42,0,0,1,46,25.7a1.56,1.56,0,0,1-.67-1,8,8,0,0,1-.1-1.3l0-9.78a6.59,6.59,0,0,1,.12-1.27,1.61,1.61,0,0,1,.69-1A3.43,3.43,0,0,1,48,10.9a3.36,3.36,0,0,1,1.91.41,1.63,1.63,0,0,1,.67,1,7,7,0,0,1,.12,1.32l0,9.75a6.88,6.88,0,0,1-.13,1.29,1.54,1.54,0,0,1-.67,1A3.54,3.54,0,0,1,47.91,26.11ZM48,9.43A3.42,3.42,0,0,1,46,9a1.57,1.57,0,0,1-.68-1,7.84,7.84,0,0,1-.1-1.29,6.75,6.75,0,0,1,.12-1.3,1.56,1.56,0,0,1,.7-1A3.53,3.53,0,0,1,48,4a3.32,3.32,0,0,1,1.9.41,1.63,1.63,0,0,1,.67,1,7,7,0,0,1,0,2.58,1.54,1.54,0,0,1-.68,1A3.5,3.5,0,0,1,48,9.43Z"/><path class="cls-24" d="M62.22,26.29A3,3,0,0,1,60.77,26a2.22,2.22,0,0,1-1-1L54.53,14.84a3.1,3.1,0,0,1-.41-2.16,2.68,2.68,0,0,1,1.62-1.52A3.43,3.43,0,0,1,58,10.68q.81.21,1.47,1.71l2.81,6.43,2.83-6.41q.69-1.56,1.5-1.74a3.52,3.52,0,0,1,2.19.51c.94.47,1.48,1,1.62,1.58A3.1,3.1,0,0,1,70,14.88L64.62,25a2.21,2.21,0,0,1-.93,1A3,3,0,0,1,62.22,26.29Z"/><path class="cls-24" d="M81.42,26.51a8.89,8.89,0,0,1-3.81-.74,6.94,6.94,0,0,1-2.51-1.93,7.91,7.91,0,0,1-1.41-2.57,8.29,8.29,0,0,1-.44-2.67,8,8,0,0,1,1.06-4.16,7.45,7.45,0,0,1,2.91-2.82,8.82,8.82,0,0,1,4.26-1,7.64,7.64,0,0,1,3.18.61,6.28,6.28,0,0,1,2.14,1.53,6.12,6.12,0,0,1,1.21,2,5.63,5.63,0,0,1,.39,2,3.65,3.65,0,0,1-.84,2.6,2.86,2.86,0,0,1-2.17.9H79a1.64,1.64,0,0,0,.5.82,2.61,2.61,0,0,0,.94.54,3.78,3.78,0,0,0,1.23.2,8.17,8.17,0,0,0,1.17-.07,5.72,5.72,0,0,0,.89-.19l.69-.24L85,21a1.71,1.71,0,0,1,.49-.07,1.55,1.55,0,0,1,1,.36,3.18,3.18,0,0,1,.81,1.08,3.38,3.38,0,0,1,.3.74,2.12,2.12,0,0,1,.08.64,1.86,1.86,0,0,1-.73,1.5,5,5,0,0,1-2.12.91A15.54,15.54,0,0,1,81.42,26.51ZM79,17.36h3.36a.87.87,0,0,0,.61-.18.7.7,0,0,0,.2-.54A1,1,0,0,0,83,16a1.36,1.36,0,0,0-.62-.4,2.84,2.84,0,0,0-.93-.14,2.66,2.66,0,0,0-1.26.28,2.15,2.15,0,0,0-.82.72A1.89,1.89,0,0,0,79,17.36Z"/><path class="cls-24" d="M98,26.22a23.5,23.5,0,0,1-2.41-.13,5.31,5.31,0,0,1-1.76-.48,3,3,0,0,1-1.17-1A4.82,4.82,0,0,1,92,22.8a15,15,0,0,1-.21-2.75l0-13.29a6.75,6.75,0,0,1,.12-1.3,1.62,1.62,0,0,1,.7-1A3.43,3.43,0,0,1,94.55,4a3.32,3.32,0,0,1,1.9.41,1.61,1.61,0,0,1,.67,1,7,7,0,0,1,.12,1.32l0,12.93c0,.3,0,.54,0,.71a.84.84,0,0,0,.09.38.29.29,0,0,0,.24.13L98,21a3.54,3.54,0,0,1,.83.1,1.19,1.19,0,0,1,.74.64,3.71,3.71,0,0,1,.32,1.81,4.37,4.37,0,0,1-.32,1.92,1.23,1.23,0,0,1-.77.67A3.73,3.73,0,0,1,98,26.22Z"/><path class="cls-24" d="M114,26.31a2.58,2.58,0,0,1-1.92-.84,2.7,2.7,0,0,1-.8-2,4.26,4.26,0,0,1,.13-1.08,4.77,4.77,0,0,1,.38-1,4.51,4.51,0,0,1,.57-.85,9,9,0,0,1,1.93-1.8c.76-.54,1.55-1,2.37-1.52s1.59-1,2.31-1.44a7.74,7.74,0,0,0,1.76-1.56,2.7,2.7,0,0,0,.55-2.62,1.68,1.68,0,0,0-.62-.84,2.49,2.49,0,0,0-1.53-.38,3.15,3.15,0,0,0-1.08.16,1.69,1.69,0,0,0-.72.48,2.22,2.22,0,0,0-.41.78,3.87,3.87,0,0,0-.13,1.07,5.34,5.34,0,0,1-.13,1.21,1.49,1.49,0,0,1-.69,1,3.73,3.73,0,0,1-2,.37,3.42,3.42,0,0,1-1.92-.41,1.57,1.57,0,0,1-.68-1.05,7.17,7.17,0,0,1-.12-1.31,7.67,7.67,0,0,1,.53-2.75,7.91,7.91,0,0,1,1.55-2.51,8,8,0,0,1,2.46-1.81A7.63,7.63,0,0,1,119.15,5,7.53,7.53,0,0,1,123.1,6a8.13,8.13,0,0,1,2.82,2.86,7.86,7.86,0,0,1,1,4,7.13,7.13,0,0,1-.49,2.67,8.24,8.24,0,0,1-1.25,2.14,10,10,0,0,1-1.64,1.62,13,13,0,0,1-1.68,1.1,10.89,10.89,0,0,1-1.35.64,2.94,2.94,0,0,1-.66.21l.3-.48h4.74a7,7,0,0,1,1.32.13,1.54,1.54,0,0,1,1,.7,3.63,3.63,0,0,1,.38,2,3.42,3.42,0,0,1-.4,1.9,1.63,1.63,0,0,1-1.06.71,8.23,8.23,0,0,1-1.33.11Z"/><path class="cls-25" d="M25.71,26.06a3.35,3.35,0,0,1-1.89-.41,1.6,1.6,0,0,1-.69-1A8,8,0,0,1,23,23.3l0-15.57a6.41,6.41,0,0,1,.12-1.26,1.54,1.54,0,0,1,.71-1,3.64,3.64,0,0,1,1.94-.39,3.34,3.34,0,0,1,1.79.34,3.83,3.83,0,0,1,.87.84L36,16.36l0-8.61a5.63,5.63,0,0,1,.14-1.25,1.6,1.6,0,0,1,.7-1,3.56,3.56,0,0,1,1.92-.39,3.43,3.43,0,0,1,1.94.41,1.63,1.63,0,0,1,.67,1,7,7,0,0,1,.12,1.32l0,15.48a6.14,6.14,0,0,1-.13,1.29,1.6,1.6,0,0,1-.69,1,3.5,3.5,0,0,1-1.95.4,5.4,5.4,0,0,1-1.54-.17,1.75,1.75,0,0,1-.89-.64L28.49,15v8.34a6.88,6.88,0,0,1-.13,1.29,1.6,1.6,0,0,1-.69,1A3.42,3.42,0,0,1,25.71,26.06Z"/><path class="cls-25" d="M47.91,26.11A3.42,3.42,0,0,1,46,25.7a1.56,1.56,0,0,1-.67-1,8,8,0,0,1-.1-1.3l0-9.78a6.59,6.59,0,0,1,.12-1.27,1.61,1.61,0,0,1,.69-1A3.43,3.43,0,0,1,48,10.9a3.36,3.36,0,0,1,1.91.41,1.63,1.63,0,0,1,.67,1,7,7,0,0,1,.12,1.32l0,9.75a6.88,6.88,0,0,1-.13,1.29,1.54,1.54,0,0,1-.67,1A3.54,3.54,0,0,1,47.91,26.11ZM48,9.43A3.42,3.42,0,0,1,46,9a1.57,1.57,0,0,1-.68-1,7.84,7.84,0,0,1-.1-1.29,6.75,6.75,0,0,1,.12-1.3,1.56,1.56,0,0,1,.7-1A3.53,3.53,0,0,1,48,4a3.32,3.32,0,0,1,1.9.41,1.63,1.63,0,0,1,.67,1,7,7,0,0,1,0,2.58,1.54,1.54,0,0,1-.68,1A3.5,3.5,0,0,1,48,9.43Z"/><path class="cls-25" d="M62.22,26.29A3,3,0,0,1,60.77,26a2.22,2.22,0,0,1-1-1L54.53,14.84a3.1,3.1,0,0,1-.41-2.16,2.68,2.68,0,0,1,1.62-1.52A3.43,3.43,0,0,1,58,10.68q.81.21,1.47,1.71l2.81,6.43,2.83-6.41q.69-1.56,1.5-1.74a3.52,3.52,0,0,1,2.19.51c.94.47,1.48,1,1.62,1.58A3.1,3.1,0,0,1,70,14.88L64.62,25a2.21,2.21,0,0,1-.93,1A3,3,0,0,1,62.22,26.29Z"/><path class="cls-25" d="M81.42,26.51a8.89,8.89,0,0,1-3.81-.74,6.94,6.94,0,0,1-2.51-1.93,7.91,7.91,0,0,1-1.41-2.57,8.29,8.29,0,0,1-.44-2.67,8,8,0,0,1,1.06-4.16,7.45,7.45,0,0,1,2.91-2.82,8.82,8.82,0,0,1,4.26-1,7.64,7.64,0,0,1,3.18.61,6.28,6.28,0,0,1,2.14,1.53,6.12,6.12,0,0,1,1.21,2,5.63,5.63,0,0,1,.39,2,3.65,3.65,0,0,1-.84,2.6,2.86,2.86,0,0,1-2.17.9H79a1.64,1.64,0,0,0,.5.82,2.61,2.61,0,0,0,.94.54,3.78,3.78,0,0,0,1.23.2,8.17,8.17,0,0,0,1.17-.07,5.72,5.72,0,0,0,.89-.19l.69-.24L85,21a1.71,1.71,0,0,1,.49-.07,1.55,1.55,0,0,1,1,.36,3.18,3.18,0,0,1,.81,1.08,3.38,3.38,0,0,1,.3.74,2.12,2.12,0,0,1,.08.64,1.86,1.86,0,0,1-.73,1.5,5,5,0,0,1-2.12.91A15.54,15.54,0,0,1,81.42,26.51ZM79,17.36h3.36a.87.87,0,0,0,.61-.18.7.7,0,0,0,.2-.54A1,1,0,0,0,83,16a1.36,1.36,0,0,0-.62-.4,2.84,2.84,0,0,0-.93-.14,2.66,2.66,0,0,0-1.26.28,2.15,2.15,0,0,0-.82.72A1.89,1.89,0,0,0,79,17.36Z"/><path class="cls-25" d="M98,26.22a23.5,23.5,0,0,1-2.41-.13,5.31,5.31,0,0,1-1.76-.48,3,3,0,0,1-1.17-1A4.82,4.82,0,0,1,92,22.8a15,15,0,0,1-.21-2.75l0-13.29a6.75,6.75,0,0,1,.12-1.3,1.62,1.62,0,0,1,.7-1A3.43,3.43,0,0,1,94.55,4a3.32,3.32,0,0,1,1.9.41,1.61,1.61,0,0,1,.67,1,7,7,0,0,1,.12,1.32l0,12.93c0,.3,0,.54,0,.71a.84.84,0,0,0,.09.38.29.29,0,0,0,.24.13L98,21a3.54,3.54,0,0,1,.83.1,1.19,1.19,0,0,1,.74.64,3.71,3.71,0,0,1,.32,1.81,4.37,4.37,0,0,1-.32,1.92,1.23,1.23,0,0,1-.77.67A3.73,3.73,0,0,1,98,26.22Z"/><path class="cls-25" d="M114,26.31a2.58,2.58,0,0,1-1.92-.84,2.7,2.7,0,0,1-.8-2,4.26,4.26,0,0,1,.13-1.08,4.77,4.77,0,0,1,.38-1,4.51,4.51,0,0,1,.57-.85,9,9,0,0,1,1.93-1.8c.76-.54,1.55-1,2.37-1.52s1.59-1,2.31-1.44a7.74,7.74,0,0,0,1.76-1.56,2.7,2.7,0,0,0,.55-2.62,1.68,1.68,0,0,0-.62-.84,2.49,2.49,0,0,0-1.53-.38,3.15,3.15,0,0,0-1.08.16,1.69,1.69,0,0,0-.72.48,2.22,2.22,0,0,0-.41.78,3.87,3.87,0,0,0-.13,1.07,5.34,5.34,0,0,1-.13,1.21,1.49,1.49,0,0,1-.69,1,3.73,3.73,0,0,1-2,.37,3.42,3.42,0,0,1-1.92-.41,1.57,1.57,0,0,1-.68-1.05,7.17,7.17,0,0,1-.12-1.31,7.67,7.67,0,0,1,.53-2.75,7.91,7.91,0,0,1,1.55-2.51,8,8,0,0,1,2.46-1.81A7.63,7.63,0,0,1,119.15,5,7.53,7.53,0,0,1,123.1,6a8.13,8.13,0,0,1,2.82,2.86,7.86,7.86,0,0,1,1,4,7.13,7.13,0,0,1-.49,2.67,8.24,8.24,0,0,1-1.25,2.14,10,10,0,0,1-1.64,1.62,13,13,0,0,1-1.68,1.1,10.89,10.89,0,0,1-1.35.64,2.94,2.94,0,0,1-.66.21l.3-.48h4.74a7,7,0,0,1,1.32.13,1.54,1.54,0,0,1,1,.7,3.63,3.63,0,0,1,.38,2,3.42,3.42,0,0,1-.4,1.9,1.63,1.63,0,0,1-1.06.71,8.23,8.23,0,0,1-1.33.11Z"/><path class="cls-18" d="M25.71,26.06a3.35,3.35,0,0,1-1.89-.41,1.6,1.6,0,0,1-.69-1A8,8,0,0,1,23,23.3l0-15.57a6.41,6.41,0,0,1,.12-1.26,1.54,1.54,0,0,1,.71-1,3.64,3.64,0,0,1,1.94-.39,3.34,3.34,0,0,1,1.79.34,3.83,3.83,0,0,1,.87.84L36,16.36l0-8.61a5.63,5.63,0,0,1,.14-1.25,1.6,1.6,0,0,1,.7-1,3.56,3.56,0,0,1,1.92-.39,3.43,3.43,0,0,1,1.94.41,1.63,1.63,0,0,1,.67,1,7,7,0,0,1,.12,1.32l0,15.48a6.14,6.14,0,0,1-.13,1.29,1.6,1.6,0,0,1-.69,1,3.5,3.5,0,0,1-1.95.4,5.4,5.4,0,0,1-1.54-.17,1.75,1.75,0,0,1-.89-.64L28.49,15v8.34a6.88,6.88,0,0,1-.13,1.29,1.6,1.6,0,0,1-.69,1A3.42,3.42,0,0,1,25.71,26.06Z"/><path class="cls-18" d="M47.91,26.11A3.42,3.42,0,0,1,46,25.7a1.56,1.56,0,0,1-.67-1,8,8,0,0,1-.1-1.3l0-9.78a6.59,6.59,0,0,1,.12-1.27,1.61,1.61,0,0,1,.69-1A3.43,3.43,0,0,1,48,10.9a3.36,3.36,0,0,1,1.91.41,1.63,1.63,0,0,1,.67,1,7,7,0,0,1,.12,1.32l0,9.75a6.88,6.88,0,0,1-.13,1.29,1.54,1.54,0,0,1-.67,1A3.54,3.54,0,0,1,47.91,26.11ZM48,9.43A3.42,3.42,0,0,1,46,9a1.57,1.57,0,0,1-.68-1,7.84,7.84,0,0,1-.1-1.29,6.75,6.75,0,0,1,.12-1.3,1.56,1.56,0,0,1,.7-1A3.53,3.53,0,0,1,48,4a3.32,3.32,0,0,1,1.9.41,1.63,1.63,0,0,1,.67,1,7,7,0,0,1,0,2.58,1.54,1.54,0,0,1-.68,1A3.5,3.5,0,0,1,48,9.43Z"/><path class="cls-18" d="M62.22,26.29A3,3,0,0,1,60.77,26a2.22,2.22,0,0,1-1-1L54.53,14.84a3.1,3.1,0,0,1-.41-2.16,2.68,2.68,0,0,1,1.62-1.52A3.43,3.43,0,0,1,58,10.68q.81.21,1.47,1.71l2.81,6.43,2.83-6.41q.69-1.56,1.5-1.74a3.52,3.52,0,0,1,2.19.51c.94.47,1.48,1,1.62,1.58A3.1,3.1,0,0,1,70,14.88L64.62,25a2.21,2.21,0,0,1-.93,1A3,3,0,0,1,62.22,26.29Z"/><path class="cls-18" d="M81.42,26.51a8.89,8.89,0,0,1-3.81-.74,6.94,6.94,0,0,1-2.51-1.93,7.91,7.91,0,0,1-1.41-2.57,8.29,8.29,0,0,1-.44-2.67,8,8,0,0,1,1.06-4.16,7.45,7.45,0,0,1,2.91-2.82,8.82,8.82,0,0,1,4.26-1,7.64,7.64,0,0,1,3.18.61,6.28,6.28,0,0,1,2.14,1.53,6.12,6.12,0,0,1,1.21,2,5.63,5.63,0,0,1,.39,2,3.65,3.65,0,0,1-.84,2.6,2.86,2.86,0,0,1-2.17.9H79a1.64,1.64,0,0,0,.5.82,2.61,2.61,0,0,0,.94.54,3.78,3.78,0,0,0,1.23.2,8.17,8.17,0,0,0,1.17-.07,5.72,5.72,0,0,0,.89-.19l.69-.24L85,21a1.71,1.71,0,0,1,.49-.07,1.55,1.55,0,0,1,1,.36,3.18,3.18,0,0,1,.81,1.08,3.38,3.38,0,0,1,.3.74,2.12,2.12,0,0,1,.08.64,1.86,1.86,0,0,1-.73,1.5,5,5,0,0,1-2.12.91A15.54,15.54,0,0,1,81.42,26.51ZM79,17.36h3.36a.87.87,0,0,0,.61-.18.7.7,0,0,0,.2-.54A1,1,0,0,0,83,16a1.36,1.36,0,0,0-.62-.4,2.84,2.84,0,0,0-.93-.14,2.66,2.66,0,0,0-1.26.28,2.15,2.15,0,0,0-.82.72A1.89,1.89,0,0,0,79,17.36Z"/><path class="cls-18" d="M98,26.22a23.5,23.5,0,0,1-2.41-.13,5.31,5.31,0,0,1-1.76-.48,3,3,0,0,1-1.17-1A4.82,4.82,0,0,1,92,22.8a15,15,0,0,1-.21-2.75l0-13.29a6.75,6.75,0,0,1,.12-1.3,1.62,1.62,0,0,1,.7-1A3.43,3.43,0,0,1,94.55,4a3.32,3.32,0,0,1,1.9.41,1.61,1.61,0,0,1,.67,1,7,7,0,0,1,.12,1.32l0,12.93c0,.3,0,.54,0,.71a.84.84,0,0,0,.09.38.29.29,0,0,0,.24.13L98,21a3.54,3.54,0,0,1,.83.1,1.19,1.19,0,0,1,.74.64,3.71,3.71,0,0,1,.32,1.81,4.37,4.37,0,0,1-.32,1.92,1.23,1.23,0,0,1-.77.67A3.73,3.73,0,0,1,98,26.22Z"/><path class="cls-18" d="M114,26.31a2.58,2.58,0,0,1-1.92-.84,2.7,2.7,0,0,1-.8-2,4.26,4.26,0,0,1,.13-1.08,4.77,4.77,0,0,1,.38-1,4.51,4.51,0,0,1,.57-.85,9,9,0,0,1,1.93-1.8c.76-.54,1.55-1,2.37-1.52s1.59-1,2.31-1.44a7.74,7.74,0,0,0,1.76-1.56,2.7,2.7,0,0,0,.55-2.62,1.68,1.68,0,0,0-.62-.84,2.49,2.49,0,0,0-1.53-.38,3.15,3.15,0,0,0-1.08.16,1.69,1.69,0,0,0-.72.48,2.22,2.22,0,0,0-.41.78,3.87,3.87,0,0,0-.13,1.07,5.34,5.34,0,0,1-.13,1.21,1.49,1.49,0,0,1-.69,1,3.73,3.73,0,0,1-2,.37,3.42,3.42,0,0,1-1.92-.41,1.57,1.57,0,0,1-.68-1.05,7.17,7.17,0,0,1-.12-1.31,7.67,7.67,0,0,1,.53-2.75,7.91,7.91,0,0,1,1.55-2.51,8,8,0,0,1,2.46-1.81A7.63,7.63,0,0,1,119.15,5,7.53,7.53,0,0,1,123.1,6a8.13,8.13,0,0,1,2.82,2.86,7.86,7.86,0,0,1,1,4,7.13,7.13,0,0,1-.49,2.67,8.24,8.24,0,0,1-1.25,2.14,10,10,0,0,1-1.64,1.62,13,13,0,0,1-1.68,1.1,10.89,10.89,0,0,1-1.35.64,2.94,2.94,0,0,1-.66.21l.3-.48h4.74a7,7,0,0,1,1.32.13,1.54,1.54,0,0,1,1,.7,3.63,3.63,0,0,1,.38,2,3.42,3.42,0,0,1-.4,1.9,1.63,1.63,0,0,1-1.06.71,8.23,8.23,0,0,1-1.33.11Z"/></g></g></svg>